<?xml version="1.0" encoding="UTF-8"?>
<!-- generated by Finnhub -->
<svg viewBox="0 0 55.5 55.5" xmlns="http://www.w3.org/2000/svg">
<path d="M 0,0 H 55.5 V 55.5 H 0 Z" fill="rgb(1, 142, 252)"/>
<path d="M 27.99,10.315 A 0.599,0.599 0 1,0 28,9.132 A 0.599,0.599 0 0,0 28,10.329 Z M 28.893,13.195 A 0.894,0.894 0 1,1 27.106,13.195 A 0.894,0.894 0 0,1 28.893,13.195 Z M 28,18.368 A 1.271,1.271 0 1,0 28,15.826 A 1.271,1.271 0 0,0 28,18.368 Z M 28,23.818 A 1.834,1.834 0 1,0 28,20.151 A 1.834,1.834 0 0,0 28,23.818 Z M 29.834,34.014 A 1.834,1.834 0 1,0 26.166,34.014 A 1.834,1.834 0 0,0 29.834,34.014 Z M 28,37.631 A 1.271,1.271 0 1,1 28,40.173 A 1.271,1.271 0 0,1 28,37.631 Z M 28.893,42.804 A 0.894,0.894 0 1,0 27.106,42.804 A 0.894,0.894 0 0,0 28.893,42.804 Z M 28,45.67 A 0.599,0.599 0 1,1 28,46.867 A 0.599,0.599 0 0,1 28,45.67 Z M 34.015,29.833 A 1.834,1.834 0 1,1 34.015,26.166 A 1.834,1.834 0 0,1 34.015,29.833 Z M 37.632,28 A 1.271,1.271 0 1,0 40.174,28 A 1.271,1.271 0 0,0 37.632,28 Z M 42.805,28.893 A 0.894,0.894 0 1,1 42.805,27.106 A 0.894,0.894 0 0,1 42.805,28.893 Z M 45.67,28 A 0.599,0.599 0 1,0 46.868,28 A 0.599,0.599 0 0,0 45.67,28 Z M 21.985,29.833 A 1.834,1.834 0 1,0 21.985,26.166 A 1.834,1.834 0 0,0 21.985,29.833 Z M 18.368,28 A 1.27,1.27 0 1,1 15.826,28 A 1.27,1.27 0 0,1 18.368,28 Z M 13.195,28.893 A 0.894,0.894 0 1,0 13.195,27.106 A 0.894,0.894 0 0,0 13.195,28.893 Z M 10.33,28 A 0.599,0.599 0 1,1 9.132,28 A 0.599,0.599 0 0,1 10.33,28 Z M 33.55,25.043 A 1.833,1.833 0 1,1 30.956,22.45 A 1.833,1.833 0 0,1 33.549,25.043 Z M 34.81,21.189 A 1.271,1.271 0 1,0 36.608,19.392 A 1.271,1.271 0 0,0 34.811,21.189 Z M 39.1,18.163 A 0.894,0.894 0 1,1 37.837,16.899 A 0.894,0.894 0 0,1 39.101,18.163 Z M 40.495,15.505 A 0.599,0.599 0 1,0 41.342,14.658 A 0.599,0.599 0 0,0 40.495,15.505 Z M 25.044,33.549 A 1.834,1.834 0 1,0 22.45,30.956 A 1.834,1.834 0 0,0 25.044,33.549 Z M 21.189,34.81 A 1.27,1.27 0 1,1 19.392,36.608 A 1.27,1.27 0 0,1 21.189,34.81 Z M 18.163,39.1 A 0.894,0.894 0 1,0 16.9,37.836 A 0.894,0.894 0 0,0 18.164,39.1 Z M 15.505,40.494 A 0.599,0.599 0 1,1 14.658,41.341 A 0.599,0.599 0 0,1 15.505,40.494 Z M 30.957,33.549 A 1.834,1.834 0 1,1 33.55,30.956 A 1.834,1.834 0 0,1 30.957,33.549 Z M 34.811,34.81 A 1.271,1.271 0 1,0 36.608,36.608 A 1.271,1.271 0 0,0 34.811,34.81 Z M 37.837,39.1 A 0.894,0.894 0 1,1 39.101,37.836 A 0.894,0.894 0 0,1 37.837,39.1 Z M 40.495,40.494 A 0.599,0.599 0 1,0 41.341,41.341 A 0.599,0.599 0 0,0 40.495,40.494 Z M 22.45,25.044 A 1.834,1.834 0 1,0 25.043,22.45 A 1.834,1.834 0 0,0 22.45,25.043 Z M 21.19,21.189 A 1.271,1.271 0 1,1 19.392,19.391 A 1.271,1.271 0 0,1 21.189,21.189 Z M 16.9,18.163 A 0.894,0.894 0 1,0 18.164,16.899 A 0.894,0.894 0 0,0 16.9,18.163 Z M 15.505,15.505 A 0.599,0.599 0 1,1 14.658,14.658 A 0.599,0.599 0 0,1 15.505,15.505 Z" fill="rgb(254, 254, 253)"/>
</svg>
