<?xml version="1.0" encoding="UTF-8"?>
<!-- generated by Finnhub -->
<svg viewBox="0 0 55.5 55.5" xmlns="http://www.w3.org/2000/svg">
<path d="M 0,0 H 55.5 V 55.5 H 0 Z" fill="rgb(239, 242, 248)"/>
<circle cx="28" cy="28" r="28" fill="rgb(245, 247, 251)"/>
<path d="M 26.612,35.355 L 29.869,41.04 C 31.6,44.059 34.366,44 35.102,44 H 44 L 33.502,30.483 C 28.66,30.696 26.096,33.989 26.622,35.37 Z" fill="url(#d)"/>
<path d="M 26.325,33.826 C 26.335,34.665 26.609,35.347 26.622,35.371 C 26.096,33.989 28.66,30.696 33.502,30.483 L 31.845,28.35 C 28.913,28.988 26.335,30.757 26.335,33.841 Z" fill="url(#c)"/>
<path d="M 22.93,27.935 C 22.94,28.624 23.141,29.212 23.681,30.243 L 26.622,35.371 A 4.355,4.355 0 0,1 26.335,33.841 C 26.335,30.757 28.913,28.988 31.845,28.351 C 32.695,28.164 33.567,28.076 34.423,28.076 C 35.142,28.076 35.815,28.116 36.333,28.315 C 36.027,27.134 35.219,25.34 30.673,25.34 C 26.246,25.34 22.941,26.113 22.941,27.95 Z" fill="url(#b)"/>
<path d="M 12.99,11.985 L 18.88,22.324 C 20.099,24.463 20.55,24.996 23.453,25 H 29 L 21.353,14.674 C 19.665,12.443 18.693,12.033 17.143,12 H 13 Z" fill="url(#a)"/>
<defs>
<linearGradient id="d" x1="35.276" x2="35.276" y1="30.128" y2="50.954" gradientUnits="userSpaceOnUse">
<stop stop-color="rgb(236, 27, 34)" offset=".335"/>
<stop stop-color="rgb(116, 18, 21)" offset=".755"/>
</linearGradient>
<linearGradient id="c" x1="26.335" x2="33.502" y1="31.86" y2="31.86" gradientUnits="userSpaceOnUse">
<stop stop-color="rgb(99, 30, 29)" offset="0"/>
<stop stop-color="rgb(210, 39, 38)" offset=".719"/>
</linearGradient>
<linearGradient id="b" x1="25.548" x2="33.776" y1="30.75" y2="26.089" gradientUnits="userSpaceOnUse">
<stop stop-color="rgb(241, 245, 245)" offset=".224"/>
<stop stop-color="rgb(150, 166, 171)" offset="1"/>
</linearGradient>
<linearGradient id="a" x1="20.999" x2="20.999" y1="26.692" y2="12.154" gradientUnits="userSpaceOnUse">
<stop stop-color="rgb(31, 46, 108)" offset="0"/>
<stop stop-color="rgb(36, 178, 235)" offset=".678"/>
</linearGradient>
</defs>
</svg>
