<?xml version="1.0" encoding="UTF-8"?>
<!-- generated by Finnhub -->
<svg viewBox="0 0 55.5 55.5" xmlns="http://www.w3.org/2000/svg">
<path d="M 0,0 H 55.5 V 55.5 H 0 Z" fill="rgb(234, 26, 40)"/>
<path d="M 49.945,28.86 L 49.274,31.15 L 49.004,31.775 L 48.544,33.311 S 48.148,33.297 47.237,33.269 C 46.951,33.262 46.657,33.309 46.365,33.381 L 45.735,33.673 C 45.325,33.8 44.935,33.925 44.592,33.958 A 9.705,9.705 0 0,1 42.88,33.966 L 42.397,33.796 C 41.111,33.663 40.361,33.408 40.361,33.408 L 40.811,31.903 L 40.923,31.251 L 41.606,28.973 L 41.926,28.185 L 42.18,27.335 L 42.287,26.698 L 42.97,24.422 L 43.173,24.022 L 43.697,22.275 S 44.447,22.543 45.733,22.684 L 46.276,22.628 C 46.882,22.676 47.408,22.678 47.996,22.618 C 48.338,22.584 48.729,22.448 49.138,22.311 L 49.475,22.296 C 49.84,22.187 50.213,22.106 50.574,22.122 C 51.48,22.164 51.881,22.178 51.881,22.178 L 51.416,23.726 L 51.32,24.323 L 50.638,26.597 L 50.371,27.213 L 50.071,28.217 L 49.955,28.875 Z" fill="rgb(254, 254, 253)"/>
<path d="M 44.913000000000004,27.127 A 9.607,9.607 0 0,0 46.635,27.134 C 46.981,27.101 47.373,26.965 47.788,26.831 L 48.468,24.555 C 48.058,24.688 47.659,24.825 47.317,24.858 A 9.636,9.636 0 0,1 45.605,24.865 L 44.923,27.142 Z M 43.559,31.695 A 9.618,9.618 0 0,0 45.274,31.686 C 45.618,31.653 46.011,31.516 46.424,31.383 L 47.105,29.109 C 46.692,29.242 46.3,29.377 45.955,29.41 A 9.64,9.64 0 0,1 44.244,29.418 L 43.559,31.695 Z M 49.138,22.311 L 48.468,24.555 C 48.964,24.395 49.486,24.262 49.984,24.279 L 51.32,24.323 L 52,22.059 S 51.608,22.049 50.664,22.003 C 50.165,21.977 49.634,22.14 49.138,22.311 Z M 40.923,31.25 S 41.69,31.507 43.003,31.644 C 43.198,31.664 43.38,31.681 43.558,31.694 L 42.88,33.966 C 42.7,33.953 42.516,33.936 42.32,33.916 C 41.008,33.779 40.242,33.519 40.242,33.519 L 40.922,31.25 Z M 45.605,24.865 L 46.275,22.628 A 17.398,17.398 0 0,1 45.725,22.575 C 44.412,22.432 43.647,22.159 43.647,22.159 L 42.969,24.422 S 43.733,24.679 45.045,24.816 C 45.241,24.836 45.426,24.851 45.605,24.865 Z M 41.605,28.973 L 42.286,26.698 S 43.051,26.956 44.364,27.092 C 44.56,27.112 44.744,27.129 44.923,27.142 L 44.243,29.418 C 44.063,29.404 43.88,29.388 43.683,29.368 C 42.371,29.232 41.605,28.973 41.605,28.973 Z" fill="rgb(32, 29, 29)"/>
<path d="M 49.263000000000005,31.134999999999998 S 48.87,31.138 47.941,31.107 C 47.441,31.09 46.919,31.222 46.422,31.383 L 45.735,33.673 C 46.232,33.513 46.759,33.368 47.259,33.378 C 48.201,33.398 48.592,33.419 48.592,33.419 L 49.272,31.149 Z M 47.105,29.108 L 47.788,26.831 C 48.285,26.671 48.805,26.541 49.305,26.554 C 50.235,26.581 50.638,26.597 50.638,26.597 L 49.955,28.875 S 49.568,28.857 48.623,28.831 C 48.123,28.817 47.603,28.948 47.105,29.108 Z" fill="rgb(32, 29, 29)"/>
<path d="M 39.491,33.985 L 43,22 H 41.497 L 38,34 H 39.501 Z" fill="rgb(254, 178, 2)"/>
<path d="M 12.398,25.79 L 12.376,23.785 L 11.081,25.805 H 12.408 Z M 11.97,22 H 13.839 L 14.297,28 H 12.44 L 12.427,27.023 H 10.301 L 9.674,28 H 7.781 L 11.971,22 Z M 17.373,24.878 A 1.393,1.393 0 0,0 16.906,24.782 C 16.499,24.782 16.13,25.133 15.991,25.662 C 15.865,26.171 16.072,26.496 16.516,26.496 C 16.646,26.496 16.701,26.47 16.906,26.418 L 17.373,24.878 Z M 17.94,28 H 15.647 C 14.556,28 14.117,27.05 14.511,25.643 C 14.904,24.228 15.891,23.278 16.962,23.278 C 17.257,23.278 17.513,23.331 17.799,23.471 L 18.249,22.003 H 19.759 L 17.94,28 Z" fill="rgb(254, 254, 253)"/>
<path d="M 19.4,22.985 H 21.028 L 20.863,25.661 L 22.422,23 H 23.794 L 20.73,28 H 19.49 L 19.41,23 Z M 24.85,25.95 C 24.468,26.21 23.989,26.166 23.837,26.7 C 23.765,26.953 23.852,27.139 24.05,27.139 C 24.242,27.139 24.384,27.034 24.604,26.871 C 24.608,26.781 24.629,26.685 24.684,26.507 L 24.851,25.95 Z M 25.8,27.982 C 25.03,28.046 24.684,27.945 24.575,27.534 C 24.121,27.844 23.802,28 23.33,28 C 22.473,28 22.274,27.442 22.455,26.82 A 1.86,1.86 0 0,1 22.983,25.997 C 23.537,25.485 24.595,25.412 25.116,25.018 C 25.232,24.58 25.106,24.329 24.686,24.424 C 24.147,24.547 23.892,24.714 23.096,25.247 L 23.506,23.83 C 24.208,23.349 24.794,23.066 25.492,23.007 C 26.375,22.932 27.081,23.464 26.728,24.68 L 26.328,26.052 C 26.188,26.537 26.176,26.683 26.604,26.692 L 25.801,27.982 Z M 27.787,23.084 H 29.297 L 29.109,23.726 C 29.671,23.204 30.069,23 30.549,23 C 31.39,23 31.674,23.66 31.363,24.75 L 30.436,28 H 28.926 L 29.696,25.31 C 29.836,24.816 29.763,24.592 29.466,24.592 C 29.226,24.592 28.981,24.76 28.708,25.122 L 27.888,28 H 26.378 L 27.787,23.084 Z M 34.082,27.698 C 33.515,27.927 33.186,28 32.772,28 C 31.488,28 30.89,26.983 31.316,25.527 C 31.668,24.32 32.69,23 34.178,23 C 34.585,23 35.003,23.082 35.346,23.247 L 34.879,24.85 A 1.478,1.478 0 0,0 34.003,24.566 C 33.466,24.566 32.989,24.951 32.825,25.509 C 32.669,26.059 32.947,26.434 33.506,26.434 C 33.789,26.434 34.061,26.352 34.532,26.132 L 34.082,27.698 Z M 37.594,25.052 C 37.768,24.444 37.674,24.132 37.304,24.132 C 36.97,24.132 36.69,24.406 36.533,25.052 H 37.593 Z M 38.347,27.201 C 37.726,27.829 37.131,28 36.398,28 C 35.078,28 34.54,26.892 34.95,25.482 C 35.367,24.062 36.52,23 37.652,23 C 38.821,23 39.349,24.087 38.753,25.762 H 36.323 C 36.19,26.256 36.443,26.724 37.023,26.724 C 37.43,26.724 38.079,26.556 38.648,26.157 L 38.347,27.201 Z M 23.436,31.184 C 23.9,31.184 24.159,30.949 24.276,30.57 C 24.394,30.185 24.253,30 23.776,30 H 23.418 L 23.071,31.184 H 23.436 Z M 22.109,29 H 24.509 C 25.852,29 26.109,29.76 25.872,30.555 C 25.635,31.322 24.916,32.175 23.45,32.175 H 22.767 L 22.226,33.935 H 20.588 L 22.11,29 Z M 7.86,32 L 7.834,30.488 L 6.754,32 H 7.86 Z M 7.496,29 H 9.054 L 9.436,34 H 7.888 L 7.878,33 H 6.2 L 5.58,34 H 4.001 L 7.496,29 Z M 26.999,32.36 C 26.68,32.569 26.279,32.532 26.154,32.96 C 26.094,33.163 26.166,33.311 26.331,33.311 C 26.491,33.311 26.611,33.228 26.794,33.097 C 26.796,33.026 26.814,32.948 26.86,32.807 L 27,32.36 Z M 27.792,33.986 C 27.148,34.036 26.86,33.956 26.768,33.627 C 26.391,33.876 26.125,34 25.731,34 C 25.016,34 24.851,33.554 25.001,33.057 C 25.069,32.822 25.229,32.588 25.441,32.397 C 25.903,31.988 26.786,31.93 27.221,31.615 C 27.317,31.264 27.211,31.063 26.861,31.14 C 26.413,31.237 26.199,31.37 25.536,31.798 L 25.878,30.664 C 26.463,30.279 26.951,30.053 27.534,30.005 C 28.27,29.945 28.86,30.372 28.565,31.345 L 28.231,32.441 C 28.115,32.83 28.104,32.946 28.461,32.954 L 27.791,33.986 Z M 12.992,32.488 C 12.883,32.853 13.012,33.001 13.349,32.875 L 12.707,33.933 A 2.109,2.109 0 0,1 12.142,34 C 11.657,34 11.488,33.814 11.535,33.322 C 11.101,33.776 10.676,34 10.24,34 C 9.707,34 9.252,33.657 9.594,32.51 L 10.345,30 H 11.605 L 10.969,32.13 C 10.84,32.547 10.907,32.726 11.168,32.726 C 11.355,32.726 11.535,32.607 11.781,32.324 L 12.477,30 H 13.737 L 12.992,32.488 Z M 15.758,33.576 C 15.342,33.863 14.95,34 14.526,34 C 14.144,34 13.803,33.87 13.656,33.597 C 13.542,33.381 13.558,33.108 13.721,32.59 L 14.185,31 H 13.628 L 13.772,30.619 L 15.803,29 H 16.088 L 15.739,30.137 H 16.75 L 16.457,31 H 15.445 L 15.091,32.223 C 14.981,32.575 15.055,32.726 15.315,32.726 C 15.527,32.726 15.791,32.633 16.113,32.432 L 15.758,33.576 Z M 17.995,32.747 C 18.365,32.747 18.708,32.439 18.845,32 C 18.975,31.56 18.815,31.253 18.446,31.253 C 18.076,31.253 17.726,31.56 17.596,32 C 17.461,32.44 17.626,32.747 17.995,32.747 Z M 18.822,30 C 20.185,30 20.385,31.062 20.104,32 C 19.79,33.026 18.897,34 17.624,34 C 16.262,34 16.05,32.945 16.337,32 C 16.637,31.003 17.502,30 18.822,30 Z M 37.28,31.333 C 36.992,31.063 36.76,30.945 36.523,30.945 A 0.393,0.393 0 0,0 36.145,31.209 C 36.028,31.597 36.679,31.509 36.946,32.029 C 37.054,32.234 37.087,32.52 36.992,32.828 C 36.848,33.311 36.328,34 35.407,34 C 34.892,34 34.424,33.868 34.153,33.627 L 34.483,32.527 C 34.784,32.908 35.027,33.055 35.33,33.055 C 35.53,33.055 35.697,32.953 35.752,32.755 C 35.902,32.271 34.557,32.278 34.906,31.135 C 35.056,30.645 35.533,30 36.538,30 C 36.992,30 37.274,30.088 37.593,30.315 L 37.279,31.333 Z M 30.706,30 L 30.326,31.117 H 30.338 C 30.781,30.38 31.248,30 31.69,30 C 31.933,30 32.148,30.097 32.377,30.305 L 31.355,31.869 C 31.223,31.639 31.087,31.542 30.912,31.542 C 30.603,31.542 30.275,31.915 30.072,32.369 L 29.587,34 H 28.327 L 29.567,30 H 30.706 Z M 33.504,29 L 32.093,31 H 32.381 L 31.916,32.59 C 31.753,33.109 31.737,33.381 31.851,33.597 C 31.998,33.871 32.339,34 32.721,34 C 33.145,34 33.538,33.863 33.953,33.576 L 34.308,32.432 C 33.986,32.633 33.723,32.727 33.511,32.727 C 33.25,32.727 33.176,32.576 33.286,32.224 L 33.64,31 H 34.652 L 34.946,30.138 H 33.934 L 34.284,29.002 L 33.504,29 Z" fill="rgb(254, 254, 253)"/>
</svg>
