<?xml version="1.0" encoding="UTF-8"?>
<!-- generated by Finnhub -->
<svg viewBox="0 0 55.5 55.5" xmlns="http://www.w3.org/2000/svg">
<path d="M 0,0 H 55.5 V 55.5 H 0 Z" fill="rgb(1, 1, 56)"/>
<path d="M 51.830000000000005,31.663 C 51.84,31.07 51.547,30.859 51.058,30.859 H 47.383 C 45.658,30.859 45.05,29.581 44.97,28.7 H 50.072 C 51.562,28.7 52,27.418 52,26.592 C 52,25.711 51.523,24.484 50.072,24.484 H 47.316 C 44.807,24.484 43.982,26.528 43.982,28.186 C 43.982,30.007 44.922,31.888 47.31,31.888 H 51.84 V 31.678 Z M 47.39,25.513 H 49.947 C 50.829,25.513 51.041,26.17 51.041,26.592 C 51.041,26.97 50.848,27.671 49.947,27.671 H 44.97 C 45.03,26.937 45.545,25.513 47.39,25.513 Z M 36.985,31.42 C 36.721,31.85 36.54,32 36.31,32 C 35.99,32 35.867,31.793 35.64,31.42 C 35.085,30.517 31.395,24.484 31.395,24.484 H 31.965 C 32.581,24.484 32.758,24.744 33.014,25.171 L 36.334,30.771 L 39.671,25.143 C 39.907,24.743 40.09,24.484 40.708,24.484 H 41.21 L 36.985,31.42 Z M 12.786,31.888 C 12.399,31.888 12.156,31.659 12.081,31.165 L 11.954,30.361 C 11.746,30.825 10.97,31.888 9.293,31.888 H 7.365 C 4.74,31.888 4,29.76 4,28.186 C 4,26.414 4.89,24.484 7.365,24.484 H 9.294 C 11.171,24.484 12.217,25.793 12.468,27.388 C 12.678,28.719 13.171,31.888 13.171,31.888 H 12.787 Z M 9.081,25.513 H 7.433 C 5.581,25.513 4.951,26.923 4.951,28.186 C 4.951,29.463 5.581,30.859 7.433,30.859 H 9.082 C 11.015,30.859 11.579,29.39 11.579,28.186 C 11.579,27.112 11.076,25.513 9.082,25.513 Z M 42.448,23.635 C 42.722,23.635 42.934,23.433 42.934,23.047 V 22.803 C 42.934,22.413 42.719,22.213 42.448,22.213 C 42.178,22.213 41.96,22.41 41.96,22.803 V 23.047 C 41.96,23.435 42.172,23.635 42.448,23.635 Z M 41.971,24.484 H 42.198 C 42.64,24.484 42.923,24.721 42.923,25.439 V 31.888 H 42.686 C 42.202,31.888 41.971,31.574 41.971,30.952 V 24.484 Z M 14.621,25.446 C 15.031,24.982 15.756,24.484 16.906,24.484 H 18.834 C 21.459,24.484 22.201,26.612 22.201,28.186 C 22.201,29.957 21.311,31.888 18.834,31.888 H 16.906 C 15.027,31.888 13.67,30.435 13.67,28.187 V 22 H 13.964 C 14.384,22 14.621,22.258 14.621,22.73 V 25.446 Z M 17.119,30.859 H 18.766 C 20.619,30.859 21.249,29.449 21.249,28.186 C 21.249,26.909 20.619,25.513 18.766,25.513 H 17.12 C 15.185,25.513 14.622,26.981 14.622,28.186 C 14.622,29.26 15.124,30.859 17.12,30.859 Z M 24.114,25.446 C 24.524,24.982 25.248,24.484 26.399,24.484 H 28.329 C 30.952,24.484 31.695,26.612 31.695,28.186 C 31.695,29.957 30.803,31.888 28.328,31.888 H 26.4 C 24.522,31.888 23.164,30.435 23.164,28.187 V 22 H 23.459 C 23.879,22 24.115,22.258 24.115,22.73 V 25.446 Z M 26.611,30.859 H 28.261 C 30.111,30.859 30.741,29.449 30.741,28.186 C 30.741,26.909 30.112,25.513 28.261,25.513 H 26.611 C 24.677,25.513 24.114,26.981 24.114,28.186 C 24.114,29.26 24.617,30.859 26.611,30.859 Z" fill="rgb(254, 254, 253)"/>
</svg>
