<?xml version="1.0" encoding="UTF-8"?>
<!-- generated by Finnhub -->
<svg viewBox="0 0 55.5 55.5" xmlns="http://www.w3.org/2000/svg">
<path d="M 0,0 H 55.5 V 55.5 H 0 Z" fill="rgb(254, 55, 90)"/>
<path d="M 42.566,33.728 C 42.414,33.358 42.253,32.942 42.091,32.59 C 41.833,32.013 41.574,31.468 41.348,30.956 L 41.316,30.924 A 333.072,333.072 0 0,0 34.173,16.445 L 34.076,16.253 C 33.817,15.773 33.559,15.26 33.3,14.748 C 32.977,14.171 32.654,13.563 32.137,12.986 C 31.101,11.705 29.615,11 28.031,11 C 26.415,11 24.961,11.705 23.894,12.922 C 23.409,13.498 23.054,14.107 22.73,14.684 A 61.44,61.44 0 0,1 21.954,16.189 L 21.858,16.381 C 19.368,21.186 16.945,26.055 14.715,30.86 L 14.682,30.924 C 14.456,31.436 14.198,31.981 13.939,32.558 C 13.777,32.91 13.616,33.294 13.454,33.711 C 13.034,34.896 12.904,36.017 13.066,37.171 A 6.819,6.819 0 0,0 17.268,42.487 A 6.69,6.69 0 0,0 19.886,43 A 8.59,8.59 0 0,0 23.958,41.847 C 25.284,41.11 26.544,40.053 27.966,38.516 C 29.388,40.053 30.681,41.11 31.974,41.846 A 8.589,8.589 0 0,0 36.047,43 C 36.952,43 37.857,42.84 38.665,42.487 A 6.805,6.805 0 0,0 42.867,37.17 C 43.125,36.049 42.997,34.928 42.576,33.743 Z M 27.999,35.408 C 26.254,33.23 25.123,31.18 24.735,29.45 C 24.573,28.714 24.541,28.073 24.638,27.497 C 24.703,26.984 24.897,26.535 25.155,26.151 C 25.769,25.286 26.804,24.741 27.999,24.741 C 29.195,24.741 30.262,25.254 30.844,26.151 C 31.102,26.535 31.296,26.984 31.361,27.497 C 31.458,28.073 31.425,28.746 31.264,29.45 C 30.876,31.148 29.744,33.198 27.999,35.408 Z M 40.895,36.914 C 40.669,38.58 39.538,40.021 37.955,40.662 A 4.942,4.942 0 0,1 35.498,40.982 C 34.69,40.886 33.882,40.63 33.041,40.149 C 31.878,39.509 30.714,38.516 29.357,37.042 C 31.49,34.447 32.783,32.077 33.267,29.963 C 33.494,28.97 33.527,28.073 33.429,27.24 A 5.17,5.17 0 0,0 32.557,25.062 C 31.555,23.621 29.874,22.788 27.999,22.788 C 26.125,22.788 24.444,23.653 23.442,25.062 A 5.17,5.17 0 0,0 22.57,27.24 A 6.593,6.593 0 0,0 22.731,29.963 C 23.216,32.077 24.541,34.48 26.642,37.074 C 25.317,38.548 24.121,39.541 22.957,40.181 C 22.117,40.661 21.309,40.918 20.501,41.014 A 5.213,5.213 0 0,1 18.045,40.694 C 16.461,40.053 15.33,38.612 15.103,36.946 A 5.26,5.26 0 0,1 15.394,34.447 C 15.491,34.127 15.653,33.807 15.814,33.422 C 16.041,32.91 16.299,32.365 16.558,31.821 L 16.59,31.757 A 348.777,348.777 0 0,1 23.7,17.374 L 23.798,17.182 C 24.056,16.702 24.315,16.189 24.573,15.709 C 24.832,15.196 25.123,14.716 25.478,14.299 C 26.158,13.531 27.062,13.114 28.064,13.114 C 29.066,13.114 29.971,13.53 30.65,14.299 C 31.005,14.716 31.296,15.196 31.555,15.709 C 31.813,16.189 32.072,16.702 32.33,17.182 L 32.427,17.374 A 423.106,423.106 0 0,1 39.505,31.789 V 31.821 C 39.765,32.333 39.99,32.91 40.249,33.422 C 40.41,33.807 40.572,34.127 40.669,34.447 C 40.928,35.28 41.025,36.081 40.895,36.914 Z" fill="rgb(254, 254, 253)"/>
</svg>
