<?xml version="1.0" encoding="UTF-8"?>
<!-- generated by Finnhub -->
<svg viewBox="0 0 55.5 55.5" xmlns="http://www.w3.org/2000/svg">
<path d="M 0,0 H 55.5 V 55.5 H 0 Z" fill="rgb(0, 149, 214)"/>
<path d="M 39.739000000000004,15.985 H 12 V 19.998 L 38.642,20 C 39.405,20 40,20.56 40,21.273 V 34.698 C 39.995,35.408 39.39,35.988 38.636,35.988 H 17.35 C 16.591,35.988 15.999,35.414 15.999,34.698 V 29.274 C 15.999,28.562 16.591,28 17.349,28 L 35,27.998 V 24.006 L 16.252,24 C 13.904,24 12,25.8 12,28 V 36 C 12,38.202 13.904,40 16.252,40 H 39.749 C 42.099,40 44,38.202 44,36 V 20 C 44,17.799 42.1,16 39.749,16 Z" fill="rgb(254, 254, 253)"/>
</svg>
