<?xml version="1.0" encoding="UTF-8"?>
<!-- generated by Finnhub -->
<svg viewBox="0 0 55.5 55.5" xmlns="http://www.w3.org/2000/svg">
<path d="M 0,0 H 55.5 V 55.5 H 0 Z" fill="rgb(1, 168, 235)"/>
<path d="M 45.99,25.814999999999998 V 30.178 A 0.833,0.833 0 0,1 45.168,31.008 L 31.828,31 A 0.83,0.83 0 0,0 31,31.83 V 45.168 A 0.83,0.83 0 0,1 30.172,46 H 25.828 A 0.83,0.83 0 0,1 25,45.168 V 31.848 A 0.83,0.83 0 0,0 24.17,31.02 L 10.83,31 A 0.83,0.83 0 0,1 10,30.17 V 25.83 A 0.83,0.83 0 0,1 10.83,25 H 24.17 A 0.83,0.83 0 0,0 25,24.172 V 10.828 A 0.83,0.83 0 0,1 25.828,10 H 30.172 A 0.83,0.83 0 0,1 31,10.828 V 24.172 A 0.83,0.83 0 0,0 31.828,25 H 45.168 A 0.833,0.833 0 0,1 46,25.83 Z M 18.713,11.945 L 23.018,21.522 A 0.334,0.334 0 0,1 22.731,22.002 H 11.321 A 0.33,0.33 0 0,1 11.028,21.542 L 14.615,14.105 A 0.312,0.312 0 0,1 15.133,14.001 L 16.131,15.051 A 0.307,0.307 0 0,0 16.638,14.975 L 18.148,11.938 A 0.307,0.307 0 0,1 18.714,11.945 H 18.713 Z M 18.016,17.008 L 18.333,17.238 C 18.486,17.354 18.633,17.274 18.8,17.183 C 19.092,17.029 19.744,16.707 19.524,16.153 L 18.675,13.993 A 0.312,0.312 0 0,0 18.091,13.943 C 17.688,14.774 17.231,15.709 16.831,16.54 A 0.308,0.308 0 0,1 16.333,16.634 C 15.985,16.297 15.668,15.994 15.358,15.694 A 0.294,0.294 0 0,0 14.97,15.651 A 0.295,0.295 0 0,0 14.878,15.757 C 14.223,17.452 14.123,17.537 15.13,18.191 A 0.307,0.307 0 0,0 15.539,18.138 L 15.988,17.612 A 0.311,0.311 0 0,1 16.421,17.569 C 16.517,17.65 16.611,17.727 16.708,17.804 A 0.306,0.306 0 0,0 17.165,17.728 C 17.301,17.511 17.432,17.307 17.569,17.093 A 0.308,0.308 0 0,1 18.015,17.005 V 17.008 Z M 17.17,35.63 A 3.128,3.128 0 1,0 17.173,41.886 A 3.128,3.128 0 0,0 17.17,35.63 Z M 16.732,34.69 V 32.64 A 0.265,0.265 0 0,1 16.999,32.374 H 17.325 A 0.265,0.265 0 0,1 17.595,32.64 V 34.69 A 0.268,0.268 0 0,1 17.325,34.958 H 16.995 A 0.267,0.267 0 0,1 16.728,34.689 H 16.732 Z M 23.55,38.585 V 38.916 A 0.266,0.266 0 0,1 23.282,39.183 H 21.241 A 0.265,0.265 0 0,1 20.991,39.019 A 0.266,0.266 0 0,1 20.971,38.916 V 38.586 A 0.27,0.27 0 0,1 21.241,38.316 H 23.287 A 0.266,0.266 0 0,1 23.556,38.586 H 23.55 Z M 17.613,42.825 V 44.87 A 0.27,0.27 0 0,1 17.345,45.14 H 17.01 A 0.269,0.269 0 0,1 16.741,44.87 V 42.823 A 0.27,0.27 0 0,1 17.01,42.554 H 17.345 A 0.27,0.27 0 0,1 17.613,42.824 Z M 13.106,39.195 H 11.056 A 0.267,0.267 0 0,1 10.787,38.927 V 38.595 A 0.269,0.269 0 0,1 11.057,38.328 H 13.106 A 0.269,0.269 0 0,1 13.373,38.595 V 38.927 A 0.267,0.267 0 0,1 13.106,39.196 Z M 18.823,35.228 A 0.254,0.254 0 0,1 18.852,35.025 L 19.887,33.259 A 0.275,0.275 0 0,1 20.253,33.162 L 20.54,33.33 A 0.269,0.269 0 0,1 20.636,33.7 L 19.598,35.465 A 0.267,0.267 0 0,1 19.233,35.559 L 18.949,35.391 A 0.27,0.27 0 0,1 18.826,35.228 H 18.823 Z M 22.767,41.838 L 22.598,42.123 A 0.262,0.262 0 0,1 22.233,42.219 L 20.467,41.183 A 0.27,0.27 0 0,1 20.37,40.816 L 20.538,40.529 A 0.277,0.277 0 0,1 20.905,40.435 L 22.671,41.47 A 0.267,0.267 0 0,1 22.768,41.838 H 22.767 Z M 15.497,42.486 L 14.46,44.252 A 0.267,0.267 0 0,1 14.23,44.385 A 0.247,0.247 0 0,1 14.094,44.348 L 13.809,44.181 A 0.269,0.269 0 0,1 13.714,43.813 L 14.751,42.048 A 0.272,0.272 0 0,1 15.116,41.952 L 15.403,42.118 A 0.269,0.269 0 0,1 15.499,42.485 L 15.497,42.486 Z M 11.584,35.674 L 11.751,35.384 A 0.284,0.284 0 0,1 12.121,35.289 L 13.887,36.328 A 0.263,0.263 0 0,1 14.01,36.491 A 0.253,0.253 0 0,1 13.982,36.692 L 13.814,36.981 A 0.273,0.273 0 0,1 13.584,37.114 A 0.288,0.288 0 0,1 13.446,37.077 L 11.681,36.04 A 0.267,0.267 0 0,1 11.585,35.674 Z M 20.454,36.305 L 22.22,35.265 A 0.278,0.278 0 0,1 22.589,35.359 L 22.759,35.644 A 0.269,0.269 0 0,1 22.662,36.01 L 20.897,37.054 A 0.247,0.247 0 0,1 20.761,37.09 A 0.26,0.26 0 0,1 20.531,36.96 L 20.361,36.675 A 0.273,0.273 0 0,1 20.455,36.305 Z M 20.669,43.795 A 0.276,0.276 0 0,1 20.699,44.001 A 0.286,0.286 0 0,1 20.574,44.166 L 20.289,44.334 A 0.263,0.263 0 0,1 20.021,44.334 A 0.28,0.28 0 0,1 19.923,44.239 L 18.88,42.474 A 0.271,0.271 0 0,1 18.974,42.105 L 19.261,41.937 A 0.272,0.272 0 0,1 19.627,42.03 L 20.669,43.795 Z M 13.902,41.205 L 12.136,42.25 A 0.266,0.266 0 0,1 11.772,42.154 L 11.602,41.866 A 0.267,0.267 0 0,1 11.697,41.501 L 13.463,40.457 A 0.277,0.277 0 0,1 13.83,40.553 L 13.998,40.839 A 0.27,0.27 0 0,1 13.903,41.206 H 13.902 Z M 13.688,33.716 A 0.267,0.267 0 0,1 13.783,33.349 L 14.068,33.181 A 0.274,0.274 0 0,1 14.435,33.275 L 15.478,35.036 A 0.271,0.271 0 0,1 15.462,35.336 A 0.267,0.267 0 0,1 15.383,35.406 L 15.099,35.576 A 0.28,0.28 0 0,1 14.961,35.613 A 0.277,0.277 0 0,1 14.731,35.481 L 13.688,33.716 Z M 41.708,18.788 C 41.708,18.904 41.702,19.018 41.694,19.132 A 3.354,3.354 0 0,1 41.165,20.708 C 41.027,20.924 40.865,21.123 40.681,21.302 A 3.352,3.352 0 0,1 39.53,22.069 A 3.835,3.835 0 0,1 38.127,22.329 A 3.473,3.473 0 0,1 35.575,21.299 A 3.406,3.406 0 0,1 35.087,20.705 A 3.445,3.445 0 0,1 34.544,18.786 A 4.562,4.562 0 0,1 34.947,17.04 C 35.063,16.762 35.193,16.49 35.337,16.226 C 35.393,16.117 35.55,15.858 35.808,15.447 C 35.945,15.229 36.108,14.968 36.303,14.666 C 36.482,14.383 36.687,14.065 36.917,13.712 C 37.055,13.498 37.192,13.266 37.318,13.032 L 37.332,13.012 C 37.462,12.772 37.586,12.528 37.696,12.308 C 37.773,12.155 37.836,12.005 37.896,11.878 A 0.265,0.265 0 0,1 38.366,11.91 L 38.404,11.993 C 38.675,12.586 38.986,13.16 39.336,13.712 C 40.274,15.167 40.8,16.005 40.912,16.226 C 41.383,17 41.656,17.88 41.704,18.786 L 41.708,18.788 Z M 40.728,18.795 A 0.268,0.268 0 0,0 40.676,18.618 L 40.652,18.591 L 40.643,18.583 A 0.284,0.284 0 0,0 40.457,18.511 H 40.183 A 0.294,0.294 0 0,0 39.898,18.761 V 18.812 A 1.967,1.967 0 0,1 38.08,20.611 L 38.051,20.615 A 0.286,0.286 0 0,0 37.799,20.899 V 21.189 A 0.256,0.256 0 0,0 38.055,21.449 H 38.052 A 2.784,2.784 0 0,0 39.708,20.802 C 39.839,20.694 39.96,20.573 40.068,20.442 C 40.458,19.979 40.686,19.402 40.718,18.797 L 40.728,18.795 Z M 43.726,40 H 35.903 A 0.269,0.269 0 0,0 35.636,40.267 V 40.731 A 0.27,0.27 0 0,0 35.903,41 H 43.729 A 0.27,0.27 0 0,0 43.999,40.731 V 40.267 A 0.27,0.27 0 0,0 43.729,40 H 43.727 Z M 44.996,38.267 V 38.731 A 0.27,0.27 0 0,1 44.729,39 H 36.843 A 0.27,0.27 0 0,1 36.575,38.731 V 38.271 A 0.27,0.27 0 0,1 36.843,38 H 44.732 A 0.27,0.27 0 0,1 44.999,38.272 L 44.996,38.267 Z M 42.862,42.03 V 42.36 A 0.268,0.268 0 0,1 42.597,42.628 H 35.193 C 34.696,42.628 34.208,42.498 33.776,42.251 A 2.785,2.785 0 0,1 33.15,37.869 A 2.761,2.761 0 0,1 34.608,37.059 A 0.271,0.271 0 0,0 34.808,36.879 V 36.869 A 0.115,0.115 0 0,0 34.816,36.828 A 2.841,2.841 0 0,1 39.94,35.836 L 40.003,35.923 A 0.274,0.274 0 0,0 40.303,36.036 L 40.313,36.03 A 0.283,0.283 0 0,0 40.371,36.002 L 40.407,35.978 L 40.415,35.973 A 1.592,1.592 0 0,1 41.875,35.965 C 42.163,36.107 42.403,36.329 42.566,36.605 C 42.65,36.745 42.709,36.899 42.74,37.06 V 37.162 A 0.267,0.267 0 0,1 42.473,37.432 H 42.143 A 0.266,0.266 0 0,1 41.897,37.267 L 41.893,37.257 A 0.805,0.805 0 0,0 41.81,37.047 A 0.76,0.76 0 0,0 41.15,36.663 A 0.766,0.766 0 0,0 40.41,37.213 V 37.221 A 0.267,0.267 0 0,1 40.148,37.427 H 39.818 A 0.27,0.27 0 0,1 39.554,37.217 C 39.554,37.197 39.55,37.177 39.55,37.157 A 1.923,1.923 0 0,0 39.3,36.445 A 1.967,1.967 0 0,0 35.63,37.433 V 37.6 A 0.27,0.27 0 0,1 35.36,37.869 H 35.193 A 1.996,1.996 0 0,0 33.485,38.843 A 1.928,1.928 0 0,0 34.21,41.496 C 34.51,41.667 34.848,41.756 35.193,41.756 V 41.764 H 42.596 A 0.269,0.269 0 0,1 42.861,42.033 V 42.03 Z M 40.412,35.98 L 40.377,36.004 A 0.282,0.282 0 0,1 40.318,36.032 A 0.944,0.944 0 0,1 40.413,35.98 Z" fill="rgb(254, 254, 253)"/>
</svg>
