<?xml version="1.0" encoding="UTF-8"?>
<!-- generated by Finnhub -->
<svg viewBox="0 0 55.5 55.5" xmlns="http://www.w3.org/2000/svg">
<path d="M 0,0 H 55.5 V 55.5 H 0 Z" fill="rgb(1, 46, 133)"/>
<path d="M 8.114,23.492 C 8.266,23.078 8.314,23 8.384,23 C 8.455,23 8.502,23.065 8.644,23.468 C 8.821,23.961 10.677,29.326 11.398,31.3 C 11.823,32.456 12.166,32.664 12.414,32.742 A 1.4,1.4 0 0,0 12.887,32.82 C 12.957,32.82 13.005,32.833 13.005,32.898 C 13.005,32.975 12.898,33.001 12.768,33.001 L 10.913,33 C 10.689,32.987 10.559,32.962 10.559,32.884 C 10.559,32.833 10.594,32.807 10.641,32.794 C 10.712,32.768 10.783,32.651 10.712,32.443 L 9.613,29.248 C 9.59,29.196 9.566,29.17 9.507,29.17 H 6.967 C 6.907,29.17 6.872,29.209 6.848,29.274 L 6.139,31.573 A 2.979,2.979 0 0,0 5.973,32.443 C 5.973,32.703 6.222,32.82 6.423,32.82 H 6.541 C 6.623,32.82 6.659,32.846 6.659,32.898 C 6.659,32.975 6.588,33.001 6.482,33.001 H 5.57 H 4.225 C 4.071,33.001 4,32.975 4,32.898 C 4,32.845 4.047,32.819 4.106,32.819 C 4.189,32.819 4.355,32.807 4.449,32.794 C 4.993,32.716 5.229,32.222 5.442,31.573 L 8.124,23.507 Z M 9.354,28.702 C 9.412,28.702 9.412,28.663 9.401,28.612 L 8.278,25.104 C 8.218,24.909 8.16,24.909 8.101,25.104 L 7.061,28.611 C 7.037,28.676 7.061,28.702 7.096,28.702 H 9.353 Z M 25.12,23.507 C 25.261,23.078 25.308,23 25.38,23 C 25.45,23 25.497,23.065 25.64,23.468 C 25.817,23.961 27.672,29.326 28.393,31.3 C 28.818,32.456 29.161,32.664 29.409,32.742 A 1.4,1.4 0 0,0 29.882,32.82 C 29.952,32.82 30,32.833 30,32.898 C 30,32.975 29.894,33.001 29.764,33.001 L 27.907,33 C 27.683,32.987 27.553,32.962 27.553,32.884 C 27.553,32.833 27.588,32.807 27.635,32.794 C 27.706,32.768 27.777,32.651 27.706,32.443 L 26.607,29.248 C 26.584,29.196 26.56,29.17 26.501,29.17 H 23.961 C 23.901,29.17 23.866,29.209 23.842,29.274 L 23.133,31.573 A 2.979,2.979 0 0,0 22.968,32.443 C 22.968,32.703 23.216,32.82 23.417,32.82 H 23.535 C 23.618,32.82 23.653,32.846 23.653,32.898 C 23.653,32.975 23.583,33.001 23.476,33.001 H 22.565 H 21.219 C 21.065,33.001 20.994,32.975 20.994,32.898 C 20.994,32.845 21.041,32.819 21.101,32.819 C 21.183,32.819 21.349,32.807 21.443,32.794 C 21.987,32.716 22.223,32.222 22.436,31.573 L 25.118,23.507 Z M 26.348,28.702 C 26.408,28.702 26.408,28.663 26.396,28.612 L 25.273,25.104 C 25.213,24.909 25.155,24.909 25.096,25.104 L 24.056,28.611 C 24.032,28.676 24.056,28.702 24.091,28.702 H 26.348 Z M 47.124,23.507 C 47.266,23.078 47.314,23 47.384,23 C 47.455,23 47.502,23.065 47.644,23.468 C 47.821,23.961 49.677,29.326 50.398,31.3 C 50.823,32.456 51.166,32.664 51.414,32.742 A 1.4,1.4 0 0,0 51.887,32.82 C 51.957,32.82 52.005,32.833 52.005,32.898 C 52.005,32.975 51.898,33.001 51.768,33.001 L 49.913,33 C 49.689,32.987 49.559,32.962 49.559,32.884 C 49.559,32.833 49.594,32.807 49.641,32.794 C 49.712,32.768 49.783,32.651 49.712,32.443 L 48.613,29.248 C 48.59,29.196 48.566,29.17 48.507,29.17 H 45.967 C 45.907,29.17 45.872,29.209 45.848,29.274 L 45.138,31.573 A 2.982,2.982 0 0,0 44.974,32.443 C 44.974,32.703 45.222,32.82 45.423,32.82 H 45.541 C 45.624,32.82 45.659,32.846 45.659,32.898 C 45.659,32.975 45.588,33.001 45.482,33.001 H 44.571 H 43.225 C 43.071,33.001 43,32.975 43,32.898 C 43,32.845 43.047,32.819 43.106,32.819 C 43.189,32.819 43.355,32.807 43.449,32.794 C 43.993,32.716 44.229,32.222 44.442,31.573 L 47.124,23.507 Z M 48.354,28.702 C 48.412,28.702 48.412,28.663 48.401,28.612 L 47.278,25.104 C 47.218,24.909 47.16,24.909 47.101,25.104 L 46.061,28.611 C 46.037,28.676 46.061,28.702 46.096,28.702 H 48.353 Z M 13.426,31.624 C 12.283,30.514 12,29.06 12,27.848 C 12,26.993 12.27,25.5 13.32,24.365 C 14.027,23.6 15.099,23 16.913,23 C 17.384,23 18.044,23.038 18.622,23.153 C 19.069,23.243 19.446,23.319 19.823,23.345 C 19.953,23.357 19.976,23.408 19.976,23.485 C 19.976,23.587 19.941,23.74 19.918,24.199 C 19.894,24.62 19.894,25.322 19.882,25.513 C 19.87,25.704 19.847,25.781 19.776,25.781 C 19.694,25.781 19.682,25.691 19.682,25.513 C 19.682,25.016 19.493,24.493 19.187,24.212 C 18.775,23.829 17.867,23.485 16.831,23.485 C 15.264,23.485 14.533,23.982 14.121,24.416 C 13.261,25.309 13,26.444 13,27.746 C 13,30.182 14.792,32.415 17.314,32.415 C 18.197,32.415 18.892,32.3 19.364,31.777 C 19.611,31.496 19.764,30.935 19.8,30.705 C 19.823,30.565 19.847,30.514 19.917,30.514 C 19.977,30.514 20,30.604 20,30.705 C 20,30.795 19.859,31.905 19.74,32.338 C 19.67,32.58 19.647,32.606 19.434,32.708 C 18.964,32.912 18.068,33.001 17.314,33.001 C 15.546,33.001 14.356,32.53 13.426,31.624 Z M 31.028,26.793 C 31.028,24.753 31.028,24.388 31.004,23.969 C 30.98,23.525 30.886,23.316 30.496,23.224 A 1.996,1.996 0 0,0 30.095,23.184 C 30.047,23.184 30,23.159 30,23.107 C 30,23.028 30.06,23.002 30.189,23.002 H 33.118 C 34.288,23.002 36.448,22.884 37.854,24.492 C 38.444,25.172 39,26.257 39,27.812 C 39,29.459 38.386,30.727 37.724,31.498 C 37.217,32.086 36.154,33.001 34.146,33.001 L 32.492,32.998 H 31.03 H 30.349 C 30.219,32.998 30.16,32.972 30.16,32.893 C 30.16,32.854 30.184,32.815 30.255,32.815 C 30.361,32.815 30.503,32.789 30.609,32.763 C 30.845,32.71 30.922,32.309 30.969,31.929 C 31.029,31.381 31.029,30.348 31.029,29.093 V 26.793 Z M 32.02,28.204 C 32.02,29.59 32.032,30.792 32.043,31.041 C 32.055,31.367 32.079,31.891 32.173,32.034 C 32.327,32.282 32.787,32.557 34.181,32.557 C 35.28,32.557 36.295,32.112 36.992,31.341 C 37.606,30.675 38,29.407 38,28.204 C 38,26.544 37.288,25.485 36.803,24.924 C 35.693,23.63 34.347,23.447 32.941,23.447 C 32.705,23.447 32.268,23.486 32.173,23.538 C 32.067,23.59 32.032,23.655 32.032,23.799 C 32.02,24.244 32.02,25.577 32.02,26.584 V 28.204 Z M 40.998,29.164 V 32.034 C 41.033,32.418 41.028,32.709 41.379,32.762 C 41.543,32.788 41.801,32.815 41.906,32.815 C 41.976,32.815 42,32.855 42,32.895 C 42,32.96 41.941,33 41.813,33 H 39.19 C 39.062,33 39.003,32.974 39.003,32.894 C 39.003,32.854 39.026,32.814 39.097,32.814 C 39.202,32.814 39.375,32.788 39.481,32.762 C 39.715,32.709 39.893,32.418 39.94,32.034 C 39.998,31.479 39.998,30.434 39.998,29.164 V 26.836 C 39.998,24.773 39.998,24.402 39.975,23.979 C 39.951,23.529 39.715,23.304 39.457,23.239 A 1.376,1.376 0 0,0 39.094,23.185 C 39.047,23.185 39,23.159 39,23.106 C 39,23.026 39.059,23 39.188,23 H 40.365 L 41.814,23.013 C 41.943,23.013 42.002,23.04 42.002,23.119 C 42.002,23.172 41.955,23.199 41.908,23.199 C 41.826,23.199 41.755,23.212 41.615,23.239 C 41.298,23.304 41.045,23.516 41.022,23.979 C 40.998,24.402 40.998,24.773 40.998,26.836 V 29.164 Z" fill="rgb(254, 254, 253)"/>
</svg>
