<?xml version="1.0" encoding="UTF-8"?>
<!-- generated by Finnhub -->
<svg viewBox="0 0 55.5 55.5" xmlns="http://www.w3.org/2000/svg">
<path d="M 0,0 H 55.5 V 55.5 H 0 Z" fill="rgb(239, 242, 248)"/>
<path d="M 16.99,38.985 H 14 V 32.6 C 14,22.65 21.5,14.06 25.24,11 H 30.76 C 34.51,14.06 42,22.65 42,32.6 V 40 H 39 V 32.26 C 38.7,28.79 37.37,22.89 34,18.24 V 40.17 L 31,43.05 V 14.98 C 30.53,14.58 30.03,14.21 29.5,13.87 V 44.45 L 28.08,46 L 26.5,44.45 V 13.88 C 25.97,14.23 25.47,14.62 25,15.04 V 42.72 L 22,39.85 V 18.47 C 18.62,23.42 17.3,29.79 17,33.26 V 39 Z"/>
</svg>
