<?xml version="1.0" encoding="UTF-8"?>
<!-- generated by Finnhub -->
<svg viewBox="0 0 55.5 55.5" xmlns="http://www.w3.org/2000/svg">
<path d="M 0,0 H 55.5 V 55.5 H 0 Z" fill="rgb(239, 242, 248)"/>
<path d="M 11.43,30.715 C 15.84,23.93 20.17,18.85 24.28,13 H 32 L 19.7,30.73 S 18,32.8 18,34.76 C 18,36 18.58,36.96 19.18,38 H 11.7 C 10.84,37.4 9.99,35.8 9.99,34.76 C 9.99,33.2 10.63,31.98 11.43,30.73 Z" fill="rgb(1, 82, 157)"/>
<path d="M 33.370000000000005,12.985 C 37.48,18.85 41.29,23.92 45.68,30.73 A 7.11,7.11 0 0,1 47,34.76 A 4.7,4.7 0 0,1 45.42,38 H 38.01 C 38.61,36.97 39.01,36 39,34.76 C 39,32.8 37.48,30.73 37.48,30.73 L 29,19.25 L 33.38,13 Z" fill="rgb(1, 159, 222)"/>
<path d="M 28.49,31.985 C 29.25,30.28 30.96,29.11 31,27.12 C 31,25.22 29.42,23.56 28.5,22 C 27.58,23.56 25.97,25.23 26,27.13 C 26,29.13 27.75,30.29 28.5,32 Z" fill="rgb(1, 82, 157)"/>
<path d="M 28.479999999999997,34.005 C 28.34,33.64 28.02,32.97 28.02,32.97 S 26.85,30 23.3,30 H 21.15 C 21.06,30.22 21,30.72 21,30.91 C 21,34.16 23.5,36 25.78,36 C 27.28,36 27.62,36.54 27.92,36.92 C 28.18,37.24 28.48,38 28.48,38 S 28.79,37.24 29.05,36.92 C 29.35,36.54 29.7,36 31.19,36 A 4.9,4.9 0 0,0 35.9,30 H 33.7 C 30.07,30 28.94,32.97 28.94,32.97 S 28.63,33.64 28.49,34.02 Z" fill="rgb(1, 82, 157)"/>
</svg>
