<?xml version="1.0" encoding="UTF-8"?>
<!-- generated by Finnhub -->
<svg viewBox="0 0 55.5 55.5" xmlns="http://www.w3.org/2000/svg">
<path d="M 0,0 H 55.5 V 55.5 H 0 Z" fill="rgb(1, 183, 226)"/>
<path d="M 9.942,24.987 H 9.972 L 10.742,29.004 H 8.442 L 9.952,25.002 Z M 9,22 L 4,34 H 6.992 L 8,30.998 H 10.743 L 11,34 H 14 L 12,22 H 9 Z M 21,29.525 H 14.546 L 15,26.53 H 21.538 L 21,29.525 Z M 22.548,25 H 15 L 15.578,22.004 H 23 L 22.548,25 Z M 22,31 H 14.359 L 14,34 H 21.422 L 22,31 Z M 30,31 C 29.459,31.218 28.095,31.285 27.55,31.285 C 25.814,31.285 24.659,29.98 24.7,28.125 C 24.763,26.18 26.165,24.765 28.069,24.765 C 28.969,24.765 29.763,25.075 30.475,25.715 L 30.998,23 C 29.91,22.315 29,22.004 27.849,22.004 C 24.711,22.004 22.127,24.766 22.002,28.257 C 21.897,31.637 23.968,34.001 27.044,34.001 C 27.588,34.001 29.032,34.001 29.571,33.767 L 30,31 Z" fill="rgb(245, 247, 251)"/>
<path d="M 37.468,28.377 C 37.859,26.452 37.198,24.93 35.854,24.622 C 34.391,24.291 33.048,25.526 32.647,27.576 C 32.266,29.516 32.927,31.037 34.27,31.346 C 35.734,31.676 37.077,30.442 37.478,28.392 Z M 35.754,22.017 C 38.561,22.237 40.284,24.776 39.964,28.105 C 39.644,31.567 37.117,34.212 34.251,33.991 C 31.444,33.771 29.72,31.17 30.041,27.841 C 30.361,24.379 32.907,21.797 35.754,22.017 Z M 48.998,22 L 46.152,28.759 L 45,22 H 42 L 39,34 H 41.996 L 43.586,26.965 L 45,34 H 46 L 49.35,26.965 L 49.002,34 H 52 V 22 H 48.998 Z" fill="rgb(245, 247, 251)"/>
</svg>
