<?xml version="1.0" encoding="UTF-8"?>
<!-- generated by Finnhub -->
<svg viewBox="0 0 55.5 55.5" xmlns="http://www.w3.org/2000/svg">
<path d="M 0,0 H 55.5 V 55.5 H 0 Z" fill="url(#a)"/>
<path d="M 36.97,40.385 A 0.8,0.8 0 0,0 36.18,41.2 C 36.18,41.65 36.53,42 36.98,42 A 0.8,0.8 0 0,0 37.78,41.2 A 0.8,0.8 0 0,0 36.98,40.4 Z M 35.36,40.4 A 0.8,0.8 0 0,0 34.56,41.2 A 0.8,0.8 0 1,0 36.17,41.2 A 0.8,0.8 0 0,0 35.37,40.4 Z M 40.2,40.4 A 0.8,0.8 0 0,0 39.4,41.2 C 39.4,41.65 39.75,42 40.2,42 A 0.8,0.8 0 0,0 41,41.2 A 0.8,0.8 0 0,0 40.2,40.4 Z M 38.59,40.4 A 0.8,0.8 0 0,0 37.79,41.2 C 37.79,41.65 38.14,42 38.59,42 A 0.8,0.8 0 0,0 39.39,41.2 A 0.8,0.8 0 0,0 38.59,40.4 Z" fill="rgb(254, 254, 253)"/>
<path d="M 36.97,38.765 A 0.8,0.8 0 0,0 36.18,39.58 A 0.8,0.8 0 1,0 37.79,39.58 A 0.8,0.8 0 0,0 36.98,38.78 Z M 35.36,38.78 A 0.8,0.8 0 0,0 34.56,39.58 A 0.8,0.8 0 1,0 36.17,39.58 A 0.8,0.8 0 0,0 35.37,38.78 Z M 40.2,38.78 A 0.8,0.8 0 0,0 39.4,39.58 A 0.8,0.8 0 1,0 41.01,39.58 A 0.8,0.8 0 0,0 40.2,38.78 Z" fill="rgb(254, 254, 253)"/>
<path d="M 38.580000000000005,38.765 A 0.8,0.8 0 0,0 37.79,39.58 A 0.8,0.8 0 1,0 39.4,39.58 A 0.8,0.8 0 0,0 38.59,38.78 Z M 36.98,37.17 A 0.8,0.8 0 0,0 36.18,37.97 A 0.8,0.8 0 1,0 37.79,37.97 A 0.8,0.8 0 0,0 36.98,37.17 Z M 35.36,37.17 A 0.8,0.8 0 0,0 34.56,37.97 A 0.8,0.8 0 1,0 36.17,37.97 A 0.8,0.8 0 0,0 35.37,37.17 Z M 40.2,37.17 A 0.8,0.8 0 0,0 39.4,37.97 A 0.8,0.8 0 1,0 41.01,37.97 A 0.8,0.8 0 0,0 40.2,37.17 Z" fill="rgb(254, 254, 253)"/>
<path d="M 38.580000000000005,37.155 A 0.8,0.8 0 0,0 37.79,37.97 A 0.8,0.8 0 1,0 39.4,37.97 A 0.8,0.8 0 0,0 38.59,37.17 Z M 36.98,35.56 A 0.8,0.8 0 0,0 36.18,36.36 C 36.18,36.81 36.53,37.16 36.98,37.16 A 0.8,0.8 0 0,0 37.78,36.36 A 0.8,0.8 0 0,0 36.98,35.56 Z M 35.36,35.56 A 0.8,0.8 0 0,0 34.56,36.36 A 0.8,0.8 0 1,0 36.17,36.36 A 0.8,0.8 0 0,0 35.37,35.56 Z M 40.2,35.56 A 0.8,0.8 0 0,0 39.4,36.36 C 39.4,36.81 39.75,37.16 40.2,37.16 A 0.8,0.8 0 0,0 41,36.36 A 0.8,0.8 0 0,0 40.2,35.56 Z M 38.59,35.56 A 0.8,0.8 0 0,0 37.79,36.36 C 37.79,36.81 38.14,37.16 38.59,37.16 A 0.8,0.8 0 0,0 39.39,36.36 A 0.8,0.8 0 0,0 38.59,35.56 Z M 36.98,33.95 A 0.8,0.8 0 0,0 36.18,34.75 C 36.18,35.2 36.53,35.55 36.98,35.55 A 0.8,0.8 0 0,0 37.78,34.75 A 0.8,0.8 0 0,0 36.98,33.95 Z" fill="rgb(254, 254, 253)"/>
<path d="M 35.35,33.935 A 0.8,0.8 0 0,0 34.56,34.75 A 0.8,0.8 0 1,0 36.17,34.75 A 0.8,0.8 0 0,0 35.37,33.95 Z M 40.2,33.95 A 0.8,0.8 0 0,0 39.4,34.75 C 39.4,35.2 39.75,35.55 40.2,35.55 A 0.8,0.8 0 0,0 41,34.75 A 0.8,0.8 0 0,0 40.2,33.95 Z M 38.59,33.95 A 0.8,0.8 0 0,0 37.79,34.75 C 37.79,35.2 38.14,35.55 38.59,35.55 A 0.8,0.8 0 0,0 39.39,34.75 A 0.8,0.8 0 0,0 38.59,33.95 Z M 36.98,32.33 A 0.8,0.8 0 0,0 36.18,33.14 C 36.18,33.59 36.53,33.94 36.98,33.94 A 0.8,0.8 0 0,0 37.78,33.14 A 0.8,0.8 0 0,0 36.98,32.34 Z" fill="rgb(254, 254, 253)"/>
<path d="M 35.35,32.315 A 0.8,0.8 0 0,0 34.56,33.14 A 0.8,0.8 0 1,0 36.17,33.14 A 0.8,0.8 0 0,0 35.37,32.34 Z M 40.2,32.33 A 0.8,0.8 0 0,0 39.4,33.14 C 39.4,33.59 39.75,33.94 40.2,33.94 A 0.8,0.8 0 0,0 41,33.14 A 0.8,0.8 0 0,0 40.2,32.34 Z M 38.59,32.33 A 0.8,0.8 0 0,0 37.79,33.14 C 37.79,33.59 38.14,33.94 38.59,33.94 A 0.8,0.8 0 0,0 39.39,33.14 A 0.8,0.8 0 0,0 38.59,32.34 Z M 36.98,30.72 A 0.8,0.8 0 0,0 36.18,31.52 C 36.18,31.98 36.53,32.33 36.98,32.33 A 0.8,0.8 0 0,0 37.78,31.53 A 0.8,0.8 0 0,0 36.98,30.73 Z" fill="rgb(254, 254, 253)"/>
<path d="M 35.35,30.705 A 0.8,0.8 0 0,0 34.56,31.52 A 0.8,0.8 0 1,0 36.17,31.52 A 0.8,0.8 0 0,0 35.37,30.72 Z M 40.2,30.72 A 0.8,0.8 0 0,0 39.4,31.52 C 39.4,31.98 39.75,32.33 40.2,32.33 A 0.8,0.8 0 0,0 41,31.53 A 0.8,0.8 0 0,0 40.2,30.73 Z M 38.59,30.72 A 0.8,0.8 0 0,0 37.79,31.52 C 37.79,31.98 38.14,32.33 38.59,32.33 A 0.8,0.8 0 0,0 39.39,31.53 A 0.8,0.8 0 0,0 38.59,30.73 Z M 36.98,29.11 A 0.8,0.8 0 0,0 36.18,29.91 C 36.18,30.37 36.53,30.72 36.98,30.72 A 0.8,0.8 0 0,0 37.78,29.92 A 0.8,0.8 0 0,0 36.98,29.12 Z" fill="rgb(254, 254, 253)"/>
<path d="M 35.35,29.095 A 0.8,0.8 0 0,0 34.56,29.91 A 0.8,0.8 0 1,0 36.17,29.91 A 0.8,0.8 0 0,0 35.37,29.11 Z M 40.2,29.11 A 0.8,0.8 0 0,0 39.4,29.91 C 39.4,30.37 39.75,30.72 40.2,30.72 A 0.8,0.8 0 0,0 41,29.92 A 0.8,0.8 0 0,0 40.2,29.12 Z M 38.59,29.11 A 0.8,0.8 0 0,0 37.79,29.91 C 37.79,30.37 38.14,30.72 38.59,30.72 A 0.8,0.8 0 0,0 39.39,29.92 A 0.8,0.8 0 0,0 38.59,29.12 Z M 36.98,27.5 A 0.8,0.8 0 0,0 36.18,28.3 A 0.8,0.8 0 1,0 37.79,28.3 A 0.8,0.8 0 0,0 36.98,27.5 Z" fill="rgb(254, 254, 253)"/>
<path d="M 35.35,27.485 A 0.8,0.8 0 0,0 34.56,28.3 A 0.8,0.8 0 1,0 36.17,28.3 A 0.8,0.8 0 0,0 35.37,27.5 Z M 40.2,27.5 A 0.8,0.8 0 0,0 39.4,28.3 A 0.8,0.8 0 1,0 41.01,28.3 A 0.8,0.8 0 0,0 40.2,27.5 Z" fill="rgb(254, 254, 253)"/>
<path d="M 38.580000000000005,27.485 A 0.8,0.8 0 0,0 37.79,28.3 A 0.8,0.8 0 1,0 39.4,28.3 A 0.8,0.8 0 0,0 38.59,27.5 Z M 36.98,25.89 A 0.8,0.8 0 0,0 36.18,26.69 A 0.8,0.8 0 1,0 37.79,26.69 A 0.8,0.8 0 0,0 36.98,25.89 Z M 35.36,25.89 A 0.8,0.8 0 0,0 34.56,26.69 A 0.8,0.8 0 1,0 36.17,26.69 A 0.8,0.8 0 0,0 35.37,25.89 Z M 40.2,25.89 A 0.8,0.8 0 0,0 39.4,26.69 A 0.8,0.8 0 1,0 41.01,26.69 A 0.8,0.8 0 0,0 40.2,25.89 Z" fill="rgb(254, 254, 253)"/>
<path d="M 38.580000000000005,25.875 A 0.8,0.8 0 0,0 37.79,26.69 A 0.8,0.8 0 1,0 39.4,26.69 A 0.8,0.8 0 0,0 38.59,25.89 Z M 36.98,24.28 A 0.8,0.8 0 0,0 36.18,25.08 A 0.8,0.8 0 1,0 37.79,25.08 A 0.8,0.8 0 0,0 36.98,24.28 Z M 35.36,24.28 A 0.8,0.8 0 0,0 34.56,25.08 A 0.8,0.8 0 1,0 36.17,25.08 A 0.8,0.8 0 0,0 35.37,24.28 Z M 40.2,24.28 A 0.8,0.8 0 0,0 39.4,25.08 A 0.8,0.8 0 1,0 41.01,25.08 A 0.8,0.8 0 0,0 40.2,24.28 Z" fill="rgb(254, 254, 253)"/>
<path d="M 38.580000000000005,24.265 A 0.8,0.8 0 0,0 37.79,25.08 A 0.8,0.8 0 1,0 39.4,25.08 A 0.8,0.8 0 0,0 38.59,24.28 Z M 36.98,22.67 A 0.8,0.8 0 0,0 36.18,23.47 A 0.8,0.8 0 1,0 37.79,23.47 A 0.8,0.8 0 0,0 36.98,22.67 Z M 35.36,22.67 A 0.8,0.8 0 0,0 34.56,23.47 A 0.8,0.8 0 1,0 36.17,23.47 A 0.8,0.8 0 0,0 35.37,22.67 Z M 40.2,22.67 A 0.8,0.8 0 0,0 39.4,23.47 A 0.8,0.8 0 1,0 41.01,23.47 A 0.8,0.8 0 0,0 40.2,22.67 Z" fill="rgb(254, 254, 253)"/>
<path d="M 38.580000000000005,22.655 A 0.8,0.8 0 0,0 37.79,23.47 A 0.8,0.8 0 1,0 39.4,23.47 A 0.8,0.8 0 0,0 38.59,22.67 Z M 36.98,21.06 A 0.8,0.8 0 0,0 36.18,21.86 C 36.18,22.31 36.53,22.66 36.98,22.66 A 0.8,0.8 0 0,0 37.78,21.86 A 0.8,0.8 0 0,0 36.98,21.06 Z M 35.36,21.06 A 0.8,0.8 0 0,0 34.56,21.86 A 0.8,0.8 0 1,0 36.17,21.86 A 0.8,0.8 0 0,0 35.37,21.06 Z M 40.2,21.06 A 0.8,0.8 0 0,0 39.4,21.86 C 39.4,22.31 39.75,22.66 40.2,22.66 A 0.8,0.8 0 0,0 41,21.86 A 0.8,0.8 0 0,0 40.2,21.06 Z M 38.59,21.06 A 0.8,0.8 0 0,0 37.79,21.86 C 37.79,22.31 38.14,22.66 38.59,22.66 A 0.8,0.8 0 0,0 39.39,21.86 A 0.8,0.8 0 0,0 38.59,21.06 Z M 36.98,19.44 A 0.8,0.8 0 0,0 36.18,20.25 C 36.18,20.7 36.53,21.05 36.98,21.05 A 0.8,0.8 0 0,0 37.78,20.25 A 0.8,0.8 0 0,0 36.98,19.45 Z" fill="rgb(254, 254, 253)"/>
<path d="M 35.35,19.425 A 0.8,0.8 0 0,0 34.56,20.25 A 0.8,0.8 0 1,0 36.17,20.25 A 0.8,0.8 0 0,0 35.37,19.45 Z M 40.2,19.44 A 0.8,0.8 0 0,0 39.4,20.25 C 39.4,20.7 39.75,21.05 40.2,21.05 A 0.8,0.8 0 0,0 41,20.25 A 0.8,0.8 0 0,0 40.2,19.45 Z M 38.59,19.44 A 0.8,0.8 0 0,0 37.79,20.25 C 37.79,20.7 38.14,21.05 38.59,21.05 A 0.8,0.8 0 0,0 39.39,20.25 A 0.8,0.8 0 0,0 38.59,19.45 Z M 36.98,17.83 A 0.8,0.8 0 0,0 36.18,18.63 C 36.18,19.09 36.53,19.44 36.98,19.44 A 0.8,0.8 0 0,0 37.78,18.64 A 0.8,0.8 0 0,0 36.98,17.84 Z" fill="rgb(254, 254, 253)"/>
<path d="M 35.35,17.814999999999998 A 0.8,0.8 0 0,0 34.56,18.63 A 0.8,0.8 0 1,0 36.17,18.63 A 0.8,0.8 0 0,0 35.37,17.83 Z M 40.2,17.83 A 0.8,0.8 0 0,0 39.4,18.63 C 39.4,19.09 39.75,19.44 40.2,19.44 A 0.8,0.8 0 0,0 41,18.64 A 0.8,0.8 0 0,0 40.2,17.84 Z M 38.59,17.83 A 0.8,0.8 0 0,0 37.79,18.63 C 37.79,19.09 38.14,19.44 38.59,19.44 A 0.8,0.8 0 0,0 39.39,18.64 A 0.8,0.8 0 0,0 38.59,17.84 Z M 36.98,16.22 A 0.8,0.8 0 0,0 36.18,17.02 C 36.18,17.48 36.53,17.83 36.98,17.83 A 0.8,0.8 0 0,0 37.78,17.03 A 0.8,0.8 0 0,0 36.98,16.23 Z" fill="rgb(254, 254, 253)"/>
<path d="M 35.35,16.205 A 0.8,0.8 0 0,0 34.56,17.02 A 0.8,0.8 0 1,0 36.17,17.02 A 0.8,0.8 0 0,0 35.37,16.22 Z M 40.2,16.22 A 0.8,0.8 0 0,0 39.4,17.02 C 39.4,17.48 39.75,17.83 40.2,17.83 A 0.8,0.8 0 0,0 41,17.03 A 0.8,0.8 0 0,0 40.2,16.23 Z M 38.59,16.22 A 0.8,0.8 0 0,0 37.79,17.02 C 37.79,17.48 38.14,17.83 38.59,17.83 A 0.8,0.8 0 0,0 39.39,17.03 A 0.8,0.8 0 0,0 38.59,16.23 Z M 36.98,14.61 A 0.8,0.8 0 0,0 36.18,15.41 A 0.8,0.8 0 1,0 37.79,15.41 A 0.8,0.8 0 0,0 36.98,14.61 Z" fill="rgb(254, 254, 253)"/>
<path d="M 35.35,14.594999999999999 A 0.8,0.8 0 0,0 34.56,15.41 A 0.8,0.8 0 1,0 36.17,15.41 A 0.8,0.8 0 0,0 35.37,14.61 Z M 40.2,14.61 A 0.8,0.8 0 0,0 39.4,15.41 A 0.8,0.8 0 1,0 41.01,15.41 A 0.8,0.8 0 0,0 40.2,14.61 Z" fill="rgb(254, 254, 253)"/>
<path d="M 38.580000000000005,14.594999999999999 A 0.8,0.8 0 0,0 37.79,15.41 A 0.8,0.8 0 1,0 39.4,15.41 A 0.8,0.8 0 0,0 38.59,14.61 Z M 36.98,13 A 0.8,0.8 0 0,0 36.18,13.8 A 0.8,0.8 0 1,0 37.79,13.8 A 0.8,0.8 0 0,0 36.98,13 Z M 35.36,13 A 0.8,0.8 0 0,0 34.56,13.8 A 0.8,0.8 0 1,0 36.17,13.8 A 0.8,0.8 0 0,0 35.37,13 Z M 40.2,13 A 0.8,0.8 0 0,0 39.4,13.8 A 0.8,0.8 0 1,0 41.01,13.8 A 0.8,0.8 0 0,0 40.2,13 Z" fill="rgb(254, 254, 253)"/>
<path d="M 38.580000000000005,12.985 A 0.8,0.8 0 0,0 37.79,13.8 A 0.8,0.8 0 1,0 39.4,13.8 A 0.8,0.8 0 0,0 38.59,13 Z M 28.92,40.4 A 0.8,0.8 0 0,0 28.12,41.2 C 28.12,41.65 28.47,42 28.92,42 A 0.8,0.8 0 0,0 29.72,41.2 A 0.8,0.8 0 0,0 28.92,40.4 Z M 30.53,38.78 A 0.8,0.8 0 0,0 29.73,39.58 A 0.8,0.8 0 1,0 31.34,39.58 A 0.8,0.8 0 0,0 30.53,38.78 Z" fill="rgb(254, 254, 253)"/>
<path d="M 28.91,38.765 A 0.8,0.8 0 0,0 28.12,39.58 A 0.8,0.8 0 1,0 29.73,39.58 A 0.8,0.8 0 0,0 28.92,38.78 Z M 30.53,37.17 A 0.8,0.8 0 0,0 29.73,37.97 A 0.8,0.8 0 1,0 31.34,37.97 A 0.8,0.8 0 0,0 30.53,37.17 Z" fill="rgb(254, 254, 253)"/>
<path d="M 28.91,37.155 A 0.8,0.8 0 0,0 28.12,37.97 A 0.8,0.8 0 1,0 29.73,37.97 A 0.8,0.8 0 0,0 28.92,37.17 Z M 32.14,37.17 A 0.8,0.8 0 0,0 31.34,37.97 A 0.8,0.8 0 1,0 32.95,37.97 A 0.8,0.8 0 0,0 32.15,37.17 Z M 30.53,35.56 A 0.8,0.8 0 0,0 29.73,36.36 C 29.73,36.81 30.08,37.16 30.53,37.16 A 0.8,0.8 0 0,0 31.33,36.36 A 0.8,0.8 0 0,0 30.53,35.56 Z M 28.92,35.56 A 0.8,0.8 0 0,0 28.12,36.36 C 28.12,36.81 28.47,37.16 28.92,37.16 A 0.8,0.8 0 0,0 29.72,36.36 A 0.8,0.8 0 0,0 28.92,35.56 Z M 33.75,35.56 A 0.8,0.8 0 0,0 32.95,36.36 A 0.8,0.8 0 1,0 34.56,36.36 A 0.8,0.8 0 0,0 33.76,35.56 Z M 32.14,35.56 A 0.8,0.8 0 0,0 31.34,36.36 C 31.34,36.81 31.69,37.16 32.14,37.16 A 0.8,0.8 0 0,0 32.94,36.36 A 0.8,0.8 0 0,0 32.14,35.56 Z M 30.53,17.83 A 0.8,0.8 0 0,0 29.73,18.63 C 29.73,19.09 30.08,19.44 30.53,19.44 A 0.8,0.8 0 0,0 31.33,18.64 A 0.8,0.8 0 0,0 30.53,17.84 Z M 28.92,17.83 A 0.8,0.8 0 0,0 28.12,18.63 C 28.12,19.09 28.47,19.44 28.92,19.44 A 0.8,0.8 0 0,0 29.72,18.64 A 0.8,0.8 0 0,0 28.92,17.84 Z M 33.75,17.83 A 0.8,0.8 0 0,0 32.95,18.63 A 0.8,0.8 0 1,0 34.56,18.63 A 0.8,0.8 0 0,0 33.76,17.83 Z M 32.14,17.83 A 0.8,0.8 0 0,0 31.34,18.63 C 31.34,19.09 31.69,19.44 32.14,19.44 A 0.8,0.8 0 0,0 32.94,18.64 A 0.8,0.8 0 0,0 32.14,17.84 Z M 30.53,16.22 A 0.8,0.8 0 0,0 29.73,17.02 C 29.73,17.48 30.08,17.83 30.53,17.83 A 0.8,0.8 0 0,0 31.33,17.03 A 0.8,0.8 0 0,0 30.53,16.23 Z M 28.92,16.22 A 0.8,0.8 0 0,0 28.12,17.02 C 28.12,17.48 28.47,17.83 28.92,17.83 A 0.8,0.8 0 0,0 29.72,17.03 A 0.8,0.8 0 0,0 28.92,16.23 Z" fill="rgb(254, 254, 253)"/>
<path d="M 33.74,16.205 A 0.8,0.8 0 0,0 32.95,17.02 A 0.8,0.8 0 1,0 34.56,17.02 A 0.8,0.8 0 0,0 33.76,16.22 Z M 32.14,16.22 A 0.8,0.8 0 0,0 31.34,17.02 C 31.34,17.48 31.69,17.83 32.14,17.83 A 0.8,0.8 0 0,0 32.94,17.03 A 0.8,0.8 0 0,0 32.14,16.23 Z M 30.53,14.61 A 0.8,0.8 0 0,0 29.73,15.41 A 0.8,0.8 0 1,0 31.34,15.41 A 0.8,0.8 0 0,0 30.53,14.61 Z" fill="rgb(254, 254, 253)"/>
<path d="M 28.91,14.594999999999999 A 0.8,0.8 0 0,0 28.12,15.41 A 0.8,0.8 0 1,0 29.73,15.41 A 0.8,0.8 0 0,0 28.92,14.61 Z M 33.75,14.61 A 0.8,0.8 0 0,0 32.95,15.41 A 0.8,0.8 0 1,0 34.56,15.41 A 0.8,0.8 0 0,0 33.76,14.61 Z" fill="rgb(254, 254, 253)"/>
<path d="M 32.13,14.594999999999999 A 0.8,0.8 0 0,0 31.34,15.41 A 0.8,0.8 0 1,0 32.95,15.41 A 0.8,0.8 0 0,0 32.15,14.61 Z M 30.53,13 A 0.8,0.8 0 0,0 29.73,13.8 A 0.8,0.8 0 1,0 31.34,13.8 A 0.8,0.8 0 0,0 30.53,13 Z" fill="rgb(254, 254, 253)"/>
<path d="M 28.91,12.985 A 0.8,0.8 0 0,0 28.12,13.8 A 0.8,0.8 0 1,0 29.73,13.8 A 0.8,0.8 0 0,0 28.92,13 Z M 33.75,13 A 0.8,0.8 0 0,0 32.95,13.8 A 0.8,0.8 0 1,0 34.56,13.8 A 0.8,0.8 0 0,0 33.76,13 Z" fill="rgb(254, 254, 253)"/>
<path d="M 32.13,12.985 A 0.8,0.8 0 0,0 31.34,13.8 A 0.8,0.8 0 1,0 32.95,13.8 A 0.8,0.8 0 0,0 32.15,13 Z M 24.09,40.4 A 0.8,0.8 0 0,0 23.28,41.2 A 0.8,0.8 0 1,0 24.89,41.2 A 0.8,0.8 0 0,0 24.09,40.4 Z" fill="rgb(254, 254, 253)"/>
<path d="M 22.459999999999997,40.385 A 0.8,0.8 0 0,0 21.67,41.2 A 0.8,0.8 0 1,0 23.28,41.2 A 0.8,0.8 0 0,0 22.48,40.4 Z M 27.3,40.4 A 0.8,0.8 0 0,0 26.5,41.2 A 0.8,0.8 0 1,0 28.11,41.2 A 0.8,0.8 0 0,0 27.31,40.4 Z" fill="rgb(254, 254, 253)"/>
<path d="M 25.689999999999998,40.385 A 0.8,0.8 0 0,0 24.9,41.2 C 24.9,41.65 25.25,42 25.7,42 A 0.8,0.8 0 0,0 26.5,41.2 A 0.8,0.8 0 0,0 25.7,40.4 Z M 24.09,38.78 A 0.8,0.8 0 0,0 23.28,39.58 A 0.8,0.8 0 1,0 24.89,39.58 A 0.8,0.8 0 0,0 24.09,38.78 Z" fill="rgb(254, 254, 253)"/>
<path d="M 22.459999999999997,38.765 A 0.8,0.8 0 0,0 21.67,39.58 A 0.8,0.8 0 1,0 23.28,39.58 A 0.8,0.8 0 0,0 22.48,38.78 Z M 27.3,38.78 A 0.8,0.8 0 0,0 26.5,39.58 A 0.8,0.8 0 1,0 28.11,39.58 A 0.8,0.8 0 0,0 27.31,38.78 Z" fill="rgb(254, 254, 253)"/>
<path d="M 25.689999999999998,38.765 A 0.8,0.8 0 0,0 24.9,39.58 A 0.8,0.8 0 1,0 26.51,39.58 A 0.8,0.8 0 0,0 25.7,38.78 Z M 24.09,37.17 A 0.8,0.8 0 0,0 23.28,37.97 A 0.8,0.8 0 1,0 24.89,37.97 A 0.8,0.8 0 0,0 24.09,37.17 Z" fill="rgb(254, 254, 253)"/>
<path d="M 22.459999999999997,37.155 A 0.8,0.8 0 0,0 21.67,37.97 A 0.8,0.8 0 1,0 23.28,37.97 A 0.8,0.8 0 0,0 22.48,37.17 Z M 27.3,37.17 A 0.8,0.8 0 0,0 26.5,37.97 A 0.8,0.8 0 1,0 28.11,37.97 A 0.8,0.8 0 0,0 27.31,37.17 Z" fill="rgb(254, 254, 253)"/>
<path d="M 25.689999999999998,37.155 A 0.8,0.8 0 0,0 24.9,37.97 A 0.8,0.8 0 1,0 26.51,37.97 A 0.8,0.8 0 0,0 25.7,37.17 Z M 24.09,35.56 A 0.8,0.8 0 0,0 23.28,36.36 A 0.8,0.8 0 1,0 24.89,36.36 A 0.8,0.8 0 0,0 24.09,35.56 Z" fill="rgb(254, 254, 253)"/>
<path d="M 22.459999999999997,35.545 A 0.8,0.8 0 0,0 21.67,36.36 A 0.8,0.8 0 1,0 23.28,36.36 A 0.8,0.8 0 0,0 22.48,35.56 Z M 27.3,35.56 A 0.8,0.8 0 0,0 26.5,36.36 A 0.8,0.8 0 1,0 28.11,36.36 A 0.8,0.8 0 0,0 27.31,35.56 Z" fill="rgb(254, 254, 253)"/>
<path d="M 25.689999999999998,35.545 A 0.8,0.8 0 0,0 24.9,36.36 C 24.9,36.81 25.25,37.16 25.7,37.16 A 0.8,0.8 0 0,0 26.5,36.36 A 0.8,0.8 0 0,0 25.7,35.56 Z M 24.09,17.83 A 0.8,0.8 0 0,0 23.28,18.63 A 0.8,0.8 0 1,0 24.89,18.63 A 0.8,0.8 0 0,0 24.09,17.83 Z" fill="rgb(254, 254, 253)"/>
<path d="M 22.459999999999997,17.814999999999998 A 0.8,0.8 0 0,0 21.67,18.63 A 0.8,0.8 0 1,0 23.28,18.63 A 0.8,0.8 0 0,0 22.48,17.83 Z M 27.3,17.83 A 0.8,0.8 0 0,0 26.5,18.63 A 0.8,0.8 0 1,0 28.11,18.63 A 0.8,0.8 0 0,0 27.31,17.83 Z" fill="rgb(254, 254, 253)"/>
<path d="M 25.689999999999998,17.814999999999998 A 0.8,0.8 0 0,0 24.9,18.63 C 24.9,19.09 25.25,19.44 25.7,19.44 A 0.8,0.8 0 0,0 26.5,18.64 A 0.8,0.8 0 0,0 25.7,17.84 Z M 24.09,16.22 A 0.8,0.8 0 0,0 23.28,17.02 A 0.8,0.8 0 1,0 24.89,17.02 A 0.8,0.8 0 0,0 24.09,16.22 Z" fill="rgb(254, 254, 253)"/>
<path d="M 22.459999999999997,16.205 A 0.8,0.8 0 0,0 21.67,17.02 A 0.8,0.8 0 1,0 23.28,17.02 A 0.8,0.8 0 0,0 22.48,16.22 Z M 27.3,16.22 A 0.8,0.8 0 0,0 26.5,17.02 A 0.8,0.8 0 1,0 28.11,17.02 A 0.8,0.8 0 0,0 27.31,16.22 Z" fill="rgb(254, 254, 253)"/>
<path d="M 25.689999999999998,16.205 A 0.8,0.8 0 0,0 24.9,17.02 C 24.9,17.48 25.25,17.83 25.7,17.83 A 0.8,0.8 0 0,0 26.5,17.03 A 0.8,0.8 0 0,0 25.7,16.23 Z M 24.09,14.61 A 0.8,0.8 0 0,0 23.28,15.41 A 0.8,0.8 0 1,0 24.89,15.41 A 0.8,0.8 0 0,0 24.09,14.61 Z" fill="rgb(254, 254, 253)"/>
<path d="M 22.459999999999997,14.594999999999999 A 0.8,0.8 0 0,0 21.67,15.41 A 0.8,0.8 0 1,0 23.28,15.41 A 0.8,0.8 0 0,0 22.48,14.61 Z M 27.3,14.61 A 0.8,0.8 0 0,0 26.5,15.41 A 0.8,0.8 0 1,0 28.11,15.41 A 0.8,0.8 0 0,0 27.31,14.61 Z" fill="rgb(254, 254, 253)"/>
<path d="M 25.689999999999998,14.594999999999999 A 0.8,0.8 0 0,0 24.9,15.41 A 0.8,0.8 0 1,0 26.51,15.41 A 0.8,0.8 0 0,0 25.7,14.61 Z M 24.09,13 A 0.8,0.8 0 0,0 23.28,13.8 A 0.8,0.8 0 1,0 24.89,13.8 A 0.8,0.8 0 0,0 24.09,13 Z" fill="rgb(254, 254, 253)"/>
<path d="M 22.459999999999997,12.985 A 0.8,0.8 0 0,0 21.67,13.8 A 0.8,0.8 0 1,0 23.28,13.8 A 0.8,0.8 0 0,0 22.48,13 Z M 27.3,13 A 0.8,0.8 0 0,0 26.5,13.8 A 0.8,0.8 0 1,0 28.11,13.8 A 0.8,0.8 0 0,0 27.31,13 Z" fill="rgb(254, 254, 253)"/>
<path d="M 25.689999999999998,12.985 A 0.8,0.8 0 0,0 24.9,13.8 A 0.8,0.8 0 1,0 26.51,13.8 A 0.8,0.8 0 0,0 25.7,13 Z M 17.64,40.4 A 0.8,0.8 0 0,0 16.84,41.2 C 16.84,41.65 17.19,42 17.64,42 A 0.8,0.8 0 0,0 18.44,41.2 A 0.8,0.8 0 0,0 17.64,40.4 Z M 20.86,40.4 A 0.8,0.8 0 0,0 20.06,41.2 A 0.8,0.8 0 1,0 21.67,41.2 A 0.8,0.8 0 0,0 20.87,40.4 Z M 19.25,40.4 A 0.8,0.8 0 0,0 18.45,41.2 C 18.45,41.65 18.8,42 19.25,42 A 0.8,0.8 0 0,0 20.05,41.2 A 0.8,0.8 0 0,0 19.25,40.4 Z" fill="rgb(254, 254, 253)"/>
<path d="M 17.63,38.765 A 0.8,0.8 0 0,0 16.84,39.58 A 0.8,0.8 0 1,0 18.45,39.58 A 0.8,0.8 0 0,0 17.64,38.78 Z" fill="rgb(254, 254, 253)"/>
<path d="M 16.02,38.765 A 0.8,0.8 0 0,0 15.23,39.58 A 0.8,0.8 0 1,0 16.84,39.58 A 0.8,0.8 0 0,0 16.03,38.78 Z M 20.86,38.78 A 0.8,0.8 0 0,0 20.06,39.58 A 0.8,0.8 0 1,0 21.67,39.58 A 0.8,0.8 0 0,0 20.87,38.78 Z" fill="rgb(254, 254, 253)"/>
<path d="M 19.24,38.765 A 0.8,0.8 0 0,0 18.45,39.58 A 0.8,0.8 0 1,0 20.06,39.58 A 0.8,0.8 0 0,0 19.25,38.78 Z M 17.64,37.17 A 0.8,0.8 0 0,0 16.84,37.97 A 0.8,0.8 0 1,0 18.45,37.97 A 0.8,0.8 0 0,0 17.64,37.17 Z" fill="rgb(254, 254, 253)"/>
<path d="M 16.02,37.155 A 0.8,0.8 0 0,0 15.23,37.97 A 0.8,0.8 0 1,0 16.84,37.97 A 0.8,0.8 0 0,0 16.03,37.17 Z M 20.86,37.17 A 0.8,0.8 0 0,0 20.06,37.97 A 0.8,0.8 0 1,0 21.67,37.97 A 0.8,0.8 0 0,0 20.87,37.17 Z" fill="rgb(254, 254, 253)"/>
<path d="M 19.24,37.155 A 0.8,0.8 0 0,0 18.45,37.97 A 0.8,0.8 0 1,0 20.06,37.97 A 0.8,0.8 0 0,0 19.25,37.17 Z M 17.64,35.56 A 0.8,0.8 0 0,0 16.84,36.36 C 16.84,36.81 17.19,37.16 17.64,37.16 A 0.8,0.8 0 0,0 18.44,36.36 A 0.8,0.8 0 0,0 17.64,35.56 Z M 16.03,35.56 A 0.8,0.8 0 0,0 15.23,36.36 C 15.23,36.81 15.58,37.16 16.03,37.16 A 0.8,0.8 0 0,0 16.83,36.36 A 0.8,0.8 0 0,0 16.03,35.56 Z M 20.86,35.56 A 0.8,0.8 0 0,0 20.06,36.36 A 0.8,0.8 0 1,0 21.67,36.36 A 0.8,0.8 0 0,0 20.87,35.56 Z M 19.25,35.56 A 0.8,0.8 0 0,0 18.45,36.36 C 18.45,36.81 18.8,37.16 19.25,37.16 A 0.8,0.8 0 0,0 20.05,36.36 A 0.8,0.8 0 0,0 19.25,35.56 Z M 17.64,33.95 A 0.8,0.8 0 0,0 16.84,34.75 C 16.84,35.2 17.19,35.55 17.64,35.55 A 0.8,0.8 0 0,0 18.44,34.75 A 0.8,0.8 0 0,0 17.64,33.95 Z M 16.03,33.95 A 0.8,0.8 0 0,0 15.23,34.75 C 15.23,35.2 15.58,35.55 16.03,35.55 A 0.8,0.8 0 0,0 16.83,34.75 A 0.8,0.8 0 0,0 16.03,33.95 Z M 17.64,32.33 A 0.8,0.8 0 0,0 16.84,33.14 C 16.84,33.59 17.19,33.94 17.64,33.94 A 0.8,0.8 0 0,0 18.44,33.14 A 0.8,0.8 0 0,0 17.64,32.34 Z M 16.03,32.33 A 0.8,0.8 0 0,0 15.23,33.14 C 15.23,33.59 15.58,33.94 16.03,33.94 A 0.8,0.8 0 0,0 16.83,33.14 A 0.8,0.8 0 0,0 16.03,32.34 Z" fill="rgb(254, 254, 253)"/>
<path d="M 17.63,30.705 A 0.8,0.8 0 0,0 16.84,31.52 C 16.84,31.98 17.19,32.33 17.64,32.33 A 0.8,0.8 0 0,0 18.44,31.53 A 0.8,0.8 0 0,0 17.64,30.73 Z M 16.03,30.72 A 0.8,0.8 0 0,0 15.23,31.52 C 15.23,31.98 15.58,32.33 16.03,32.33 A 0.8,0.8 0 0,0 16.83,31.53 A 0.8,0.8 0 0,0 16.03,30.73 Z M 17.64,29.11 A 0.8,0.8 0 0,0 16.84,29.91 C 16.84,30.37 17.19,30.72 17.64,30.72 A 0.8,0.8 0 0,0 18.44,29.92 A 0.8,0.8 0 0,0 17.64,29.12 Z M 16.03,29.11 A 0.8,0.8 0 0,0 15.23,29.91 C 15.23,30.37 15.58,30.72 16.03,30.72 A 0.8,0.8 0 0,0 16.83,29.92 A 0.8,0.8 0 0,0 16.03,29.12 Z" fill="rgb(254, 254, 253)"/>
<path d="M 17.63,27.485 A 0.8,0.8 0 0,0 16.84,28.3 A 0.8,0.8 0 1,0 18.45,28.3 A 0.8,0.8 0 0,0 17.64,27.5 Z" fill="rgb(254, 254, 253)"/>
<path d="M 16.02,27.485 A 0.8,0.8 0 0,0 15.23,28.3 A 0.8,0.8 0 1,0 16.84,28.3 A 0.8,0.8 0 0,0 16.03,27.5 Z M 17.64,25.89 A 0.8,0.8 0 0,0 16.84,26.69 A 0.8,0.8 0 1,0 18.45,26.69 A 0.8,0.8 0 0,0 17.64,25.89 Z" fill="rgb(254, 254, 253)"/>
<path d="M 16.02,25.875 A 0.8,0.8 0 0,0 15.23,26.69 A 0.8,0.8 0 1,0 16.84,26.69 A 0.8,0.8 0 0,0 16.03,25.89 Z M 17.64,24.28 A 0.8,0.8 0 0,0 16.84,25.08 A 0.8,0.8 0 1,0 18.45,25.08 A 0.8,0.8 0 0,0 17.64,24.28 Z" fill="rgb(254, 254, 253)"/>
<path d="M 16.02,24.265 A 0.8,0.8 0 0,0 15.23,25.08 A 0.8,0.8 0 1,0 16.84,25.08 A 0.8,0.8 0 0,0 16.03,24.28 Z M 17.64,22.67 A 0.8,0.8 0 0,0 16.84,23.47 A 0.8,0.8 0 1,0 18.45,23.47 A 0.8,0.8 0 0,0 17.64,22.67 Z" fill="rgb(254, 254, 253)"/>
<path d="M 16.02,22.655 A 0.8,0.8 0 0,0 15.23,23.47 A 0.8,0.8 0 1,0 16.84,23.47 A 0.8,0.8 0 0,0 16.03,22.67 Z M 17.64,21.06 A 0.8,0.8 0 0,0 16.84,21.86 C 16.84,22.31 17.19,22.66 17.64,22.66 A 0.8,0.8 0 0,0 18.44,21.86 A 0.8,0.8 0 0,0 17.64,21.06 Z M 16.03,21.06 A 0.8,0.8 0 0,0 15.23,21.86 C 15.23,22.31 15.58,22.66 16.03,22.66 A 0.8,0.8 0 0,0 16.83,21.86 A 0.8,0.8 0 0,0 16.03,21.06 Z M 17.64,19.44 A 0.8,0.8 0 0,0 16.84,20.25 C 16.84,20.7 17.19,21.05 17.64,21.05 A 0.8,0.8 0 0,0 18.44,20.25 A 0.8,0.8 0 0,0 17.64,19.45 Z M 16.03,19.44 A 0.8,0.8 0 0,0 15.23,20.25 C 15.23,20.7 15.58,21.05 16.03,21.05 A 0.8,0.8 0 0,0 16.83,20.25 A 0.8,0.8 0 0,0 16.03,19.45 Z" fill="rgb(254, 254, 253)"/>
<path d="M 17.63,17.814999999999998 A 0.8,0.8 0 0,0 16.84,18.63 C 16.84,19.09 17.19,19.44 17.64,19.44 A 0.8,0.8 0 0,0 18.44,18.64 A 0.8,0.8 0 0,0 17.64,17.84 Z M 20.86,17.83 A 0.8,0.8 0 0,0 20.06,18.63 A 0.8,0.8 0 1,0 21.67,18.63 A 0.8,0.8 0 0,0 20.87,17.83 Z M 19.25,17.83 A 0.8,0.8 0 0,0 18.45,18.63 C 18.45,19.09 18.8,19.44 19.25,19.44 A 0.8,0.8 0 0,0 20.05,18.64 A 0.8,0.8 0 0,0 19.25,17.84 Z" fill="rgb(254, 254, 253)"/>
<path d="M 20.849999999999998,16.205 A 0.8,0.8 0 0,0 20.06,17.02 A 0.8,0.8 0 1,0 21.67,17.02 A 0.8,0.8 0 0,0 20.87,16.22 Z M 19.25,16.22 A 0.8,0.8 0 0,0 18.45,17.02 C 18.45,17.48 18.8,17.83 19.25,17.83 A 0.8,0.8 0 0,0 20.05,17.03 A 0.8,0.8 0 0,0 19.25,16.23 Z" fill="rgb(254, 254, 253)"/>
<path d="M 20.849999999999998,14.594999999999999 A 0.8,0.8 0 0,0 20.06,15.41 A 0.8,0.8 0 1,0 21.67,15.41 A 0.8,0.8 0 0,0 20.87,14.61 Z M 14.42,37.17 A 0.8,0.8 0 0,0 13.62,37.97 A 0.8,0.8 0 1,0 15.23,37.97 A 0.8,0.8 0 0,0 14.42,37.17 Z M 14.42,35.56 A 0.8,0.8 0 0,0 13.62,36.36 C 13.62,36.81 13.97,37.16 14.42,37.16 A 0.8,0.8 0 0,0 15.22,36.36 A 0.8,0.8 0 0,0 14.42,35.56 Z M 12.8,35.56 A 0.8,0.8 0 0,0 12,36.36 A 0.8,0.8 0 1,0 13.61,36.36 A 0.8,0.8 0 0,0 12.81,35.56 Z M 14.42,33.95 A 0.8,0.8 0 0,0 13.62,34.75 C 13.62,35.2 13.97,35.55 14.42,35.55 A 0.8,0.8 0 0,0 15.22,34.75 A 0.8,0.8 0 0,0 14.42,33.95 Z" fill="rgb(254, 254, 253)"/>
<path d="M 12.790000000000001,33.935 A 0.8,0.8 0 0,0 12,34.75 A 0.8,0.8 0 1,0 13.61,34.75 A 0.8,0.8 0 0,0 12.81,33.95 Z M 14.42,32.33 A 0.8,0.8 0 0,0 13.62,33.14 C 13.62,33.59 13.97,33.94 14.42,33.94 A 0.8,0.8 0 0,0 15.22,33.14 A 0.8,0.8 0 0,0 14.42,32.34 Z" fill="rgb(254, 254, 253)"/>
<path d="M 12.790000000000001,32.315 A 0.8,0.8 0 0,0 12,33.14 A 0.8,0.8 0 1,0 13.61,33.14 A 0.8,0.8 0 0,0 12.81,32.34 Z M 14.42,30.72 A 0.8,0.8 0 0,0 13.62,31.52 C 13.62,31.98 13.97,32.33 14.42,32.33 A 0.8,0.8 0 0,0 15.22,31.53 A 0.8,0.8 0 0,0 14.42,30.73 Z" fill="rgb(254, 254, 253)"/>
<path d="M 12.790000000000001,30.705 A 0.8,0.8 0 0,0 12,31.52 A 0.8,0.8 0 1,0 13.61,31.52 A 0.8,0.8 0 0,0 12.81,30.72 Z M 14.42,29.11 A 0.8,0.8 0 0,0 13.62,29.91 C 13.62,30.37 13.97,30.72 14.42,30.72 A 0.8,0.8 0 0,0 15.22,29.92 A 0.8,0.8 0 0,0 14.42,29.12 Z" fill="rgb(254, 254, 253)"/>
<path d="M 12.790000000000001,29.095 A 0.8,0.8 0 0,0 12,29.91 A 0.8,0.8 0 1,0 13.61,29.91 A 0.8,0.8 0 0,0 12.81,29.11 Z M 14.42,27.5 A 0.8,0.8 0 0,0 13.62,28.3 A 0.8,0.8 0 1,0 15.23,28.3 A 0.8,0.8 0 0,0 14.42,27.5 Z" fill="rgb(254, 254, 253)"/>
<path d="M 12.790000000000001,27.485 A 0.8,0.8 0 0,0 12,28.3 A 0.8,0.8 0 1,0 13.61,28.3 A 0.8,0.8 0 0,0 12.81,27.5 Z M 14.42,25.89 A 0.8,0.8 0 0,0 13.62,26.69 A 0.8,0.8 0 1,0 15.23,26.69 A 0.8,0.8 0 0,0 14.42,25.89 Z" fill="rgb(254, 254, 253)"/>
<path d="M 12.790000000000001,25.875 A 0.8,0.8 0 0,0 12,26.69 A 0.8,0.8 0 1,0 13.61,26.69 A 0.8,0.8 0 0,0 12.81,25.89 Z M 14.42,24.28 A 0.8,0.8 0 0,0 13.62,25.08 A 0.8,0.8 0 1,0 15.23,25.08 A 0.8,0.8 0 0,0 14.42,24.28 Z" fill="rgb(254, 254, 253)"/>
<path d="M 12.790000000000001,24.265 A 0.8,0.8 0 0,0 12,25.08 A 0.8,0.8 0 1,0 13.61,25.08 A 0.8,0.8 0 0,0 12.81,24.28 Z M 14.42,22.67 A 0.8,0.8 0 0,0 13.62,23.47 A 0.8,0.8 0 1,0 15.23,23.47 A 0.8,0.8 0 0,0 14.42,22.67 Z" fill="rgb(254, 254, 253)"/>
<path d="M 12.790000000000001,22.655 A 0.8,0.8 0 0,0 12,23.47 A 0.8,0.8 0 1,0 13.61,23.47 A 0.8,0.8 0 0,0 12.81,22.67 Z M 14.42,21.06 A 0.8,0.8 0 0,0 13.62,21.86 C 13.62,22.31 13.97,22.66 14.42,22.66 A 0.8,0.8 0 0,0 15.22,21.86 A 0.8,0.8 0 0,0 14.42,21.06 Z" fill="rgb(254, 254, 253)"/>
<defs>
<linearGradient id="a" x1="10.42" x2="68.15" y1="9.71" y2="76.02" gradientUnits="userSpaceOnUse">
<stop stop-color="rgb(25, 29, 31)" offset="0"/>
<stop stop-color="rgb(5, 5, 8)" offset="1"/>
</linearGradient>
</defs>
</svg>
