<?xml version="1.0" encoding="UTF-8"?>
<!-- generated by Finnhub -->
<svg viewBox="0 0 55.5 55.5" xmlns="http://www.w3.org/2000/svg">
<path d="M 0,0 H 55.5 V 55.5 H 0 Z" fill="rgb(239, 242, 248)"/>
<circle cx="28" cy="28" r="28" fill="rgb(245, 247, 251)"/>
<path d="M 16.275,45.112 C 16.315,44.491 16.722,42.715 17.577,40.081 C 19.177,35.139 22.574,27.947 28.865,25.7 L 28.875,27.642 S 22.793,29.784 18.158,40.332 C 17.227,42.454 16.59,44.639 16.329,45.142 L 16.285,45.127 Z M 24.928,43.461 C 31.543,41.687 32.954,33.255 32.948,26.377 C 32.946,21.253 32.16,16.99 32.16,16.99 C 17.405,23.282 14.084,29.25 14.055,33.322 C 14.055,34.829 14.443,36.052 14.758,36.567 L 14.781,36.55 C 14.672,36.13 14.514,35.298 14.514,34.608 C 14.484,30.99 17.314,25.698 30.537,20.058 C 30.537,20.058 31.241,23.848 31.247,28.398 C 31.256,34.258 30.187,41.359 24.887,43.426 L 24.927,43.461 Z" fill="rgb(1, 168, 77)"/>
<path d="M 32.767,15.721 C 27.153,18.098 22.873,20.452 19.767,22.848 C 16.633,25.261 14.664,27.711 13.745,30.339 C 13.524,30.973 13.295,31.862 13.253,32.749 C 12.568,32.118 12.372,31.939 12.053,31.646 C 11.057,30.731 10,29.68 10,28 C 10,26.318 11.057,25.267 12.053,24.355 C 14.218,22.367 26.333,11.248 27.268,10.387 C 27.565,10.112 27.748,10 28.001,10 C 28.253,10 28.434,10.112 28.731,10.387 L 43.95,24.355 C 44.944,25.267 46,26.319 46,28 C 46,29.68 44.943,30.731 43.95,31.646 A 75898,75898 0 0,1 28.731,45.61 C 28.433,45.887 28.251,46 28.001,46 C 27.748,46 27.564,45.887 27.267,45.61 C 27.07,45.43 26.713,45.099 25.712,44.182 C 28.772,43.16 30.96,40.63 32.25,37.042 C 33.274,34.203 33.792,30.615 33.792,26.379 C 33.792,21.116 32.99,16.713 32.776,15.736 Z" fill="rgb(1, 74, 143)"/>
</svg>
