<?xml version="1.0" encoding="UTF-8"?>
<!-- generated by Finnhub -->
<svg viewBox="0 0 55.5 55.5" xmlns="http://www.w3.org/2000/svg">
<path d="M 0,0 H 55.5 V 55.5 H 0 Z" fill="rgb(237, 38, 32)"/>
<path d="M 13.917,30.985 H 23 V 36 H 28 C 30.945,36 35,33.654 35,28.5 C 35,25.712 33.878,23.589 32.457,22.168 C 31.076,20.786 29.335,20 28,20 H 17.92 L 12.903,29 L 12.294,30.091 L 10.115,34 L 9.508,35.09 L 9,36 H 11.144 L 13.927,31 Z M 15.103,33 H 21 V 38 H 28 C 30.794,38 34.309,36.383 36,32.99 V 38 H 42 V 33 H 42.54 C 43.536,33 45.321,32.963 46.927,31.956 A 6.329,6.329 0 0,0 49.095,29.706 L 47.452,28.774 L 49.095,29.706 C 49.698,28.642 50,27.396 50,26 C 50,23.478 48.964,21.604 47.906,20.378 C 46.107,18.295 43.504,18 41.876,18 H 36 V 23.81 A 10.583,10.583 0 0,0 33.871,20.754 C 32.228,19.11 30.006,18 28,18 H 16.746 L 16.174,19.026 L 7.254,35.026 L 5.594,38 H 12.319 L 12.891,36.973 L 15.102,33 Z M 38,20 V 36 H 40 V 31 H 42.54 C 43.515,31 44.782,30.94 45.865,30.261 A 4.33,4.33 0 0,0 47.355,28.719 C 47.763,28 48,27.105 48,26 A 6.49,6.49 0 0,0 46.392,21.685 C 45.184,20.286 43.35,20 41.875,20 H 38 Z M 16.212,27 H 21 L 21.04,22 H 23 V 29 H 15.066 L 16.212,27 Z M 28,32 C 29.153,32 31,31.05 31,28.5 C 31,26.864 30.366,25.734 29.629,24.996 C 28.814,24.182 28.086,24 27,24 H 25 V 22 H 27 C 28.413,22 29.507,22.261 30.618,23.193 C 30.761,23.313 30.903,23.443 31.043,23.583 C 32.123,24.661 33,26.288 33,28.5 C 33,30.377 32.299,31.732 31.342,32.627 C 30.338,33.567 29.052,34 28,34 H 25 V 32 H 28 Z M 41.876,22 H 40 V 24 L 42,24.001 C 43.058,24.019 43.365,24.3 43.365,24.3 S 44,24.731 44,25.5 C 44,26.269 43.702,27 42.54,27 H 40 V 29 H 42.54 C 43.495,29 44.244,28.917 44.802,28.567 C 45.182,28.329 45.499,27.991 45.693,27.584 C 45.869,27.217 46,26.711 46,26 A 4.49,4.49 0 0,0 44.879,22.992 C 44.261,22.277 43.197,22 41.876,22 Z" fill="rgb(254, 254, 253)" fill-rule="evenodd"/>
</svg>
