<?xml version="1.0" encoding="UTF-8"?>
<!-- generated by Finnhub -->
<svg viewBox="0 0 55.5 55.5" xmlns="http://www.w3.org/2000/svg">
<path d="M 0,0 H 55.5 V 55.5 H 0 Z" fill="rgb(239, 242, 248)"/>
<path d="M 19.407999999999998,40.985 C 18.632,41 18.223,40.71 17.831,40.037 L 14.251,33.547 C 14.004,33.082 14,32.927 14,32.592 L 19.628,32.834 L 21,34 H 32 L 22.831,39.77 C 22.374,40.035 20.637,41 19.418,41 Z" fill="url(#c)"/>
<path d="M 20.99,33.985 H 16 C 14.53,34 14,33.342 14,32.592 C 14,32.117 14.156,31.858 14.372,31.331 L 21.466,14.772 L 21.542,14.627 L 21.64,14.477 L 21.845,14.283 L 22.145,14.127 L 22.579,14.033 L 23.326,14.052 L 28.255,15.844 L 26.588,20.984 L 21,34 Z" fill="url(#b)"/>
<path d="M 34.99,40.985 L 24.017,15.08 C 23.824,14.64 23.515,14.07 22.714,14.07 C 21.999,14.07 21.659,14.408 21.466,14.772 C 21.566,14.51 21.866,14 22.739,14 H 30.467 C 31.179,14 31.521,14.41 31.677,14.785 L 43,41 L 35,41 Z" fill="url(#a)"/>
<defs>
<linearGradient id="c" x1="16.351" x2="32.119" y1="37.365" y2="34.152" gradientUnits="userSpaceOnUse">
<stop stop-color="rgb(42, 121, 117)" offset="0"/>
<stop stop-color="rgb(77, 185, 167)" offset=".51"/>
<stop stop-color="rgb(91, 193, 175)" offset="1"/>
</linearGradient>
<linearGradient id="b" x1="24.486" x2="16.942" y1="16.116" y2="34.236" gradientUnits="userSpaceOnUse">
<stop stop-color="rgb(34, 102, 52)" offset="0"/>
<stop stop-color="rgb(106, 163, 65)" offset=".493"/>
<stop stop-color="rgb(133, 192, 68)" offset="1"/>
</linearGradient>
<linearGradient id="a" x1="27.515" x2="38.601" y1="14.084" y2="41.085" gradientUnits="userSpaceOnUse">
<stop stop-color="rgb(40, 164, 225)" offset="0"/>
<stop stop-color="rgb(52, 109, 183)" offset=".515"/>
<stop stop-color="rgb(56, 76, 163)" offset="1"/>
</linearGradient>
</defs>
</svg>
