<?xml version="1.0" encoding="UTF-8"?>
<!-- generated by Finnhub -->
<svg viewBox="0 0 55.5 55.5" xmlns="http://www.w3.org/2000/svg">
<path d="M 0,0 H 55.5 V 55.5 H 0 Z" fill="rgb(1, 96, 168)"/>
<path d="M 29.035,36.985 H 23 V 19 H 29.045 C 34.162,19 38,22.822 38,27.988 C 38,33.154 34.162,37 29.045,37 Z M 29.045,22.924 H 26.888 V 33.052 H 29.045 C 32.005,33.052 34.112,31.001 34.112,27.988 S 32.004,22.924 29.045,22.924 Z" fill="rgb(254, 254, 253)"/>
<path d="M 38.45,36.985 V 23.004 H 33 V 19 H 48 V 23.004 H 42.488 V 37 H 38.46 Z" fill="rgb(254, 254, 253)"/>
<path d="M 47.786,18.674 V 22.47 H 42.441 V 36.32 H 38.513 V 22.47 H 33.202 V 18.69 H 47.798 H 47.796 Z M 48.5,18 H 32.5 V 23.15 H 37.811 V 37 H 43.137 V 23.15 H 48.494 V 18 H 48.5 Z" fill="rgb(1, 96, 168)"/>
<path d="M 21.823999999999998,36.985 L 20.877,35.167 H 13.147 L 12.165,37 H 7 L 17.013,18 L 27,37 H 21.834 Z M 18.542,30.756 L 17.012,27.84 L 15.456,30.756 H 18.542 Z" fill="rgb(254, 254, 253)"/>
<path d="M 17.223,18.512 L 26.557,36.306 H 22.234 L 21.284,34.483 H 13.184 L 12.209,36.306 H 7.886 L 17.233,18.527 Z M 15.11,30.793 H 19.335 L 17.235,26.785 L 15.11,30.793 Z M 17.235,17 L 16.599,18.212 L 7.25,35.99 L 6.71,37 H 12.629 L 12.833,36.625 L 13.609,35.178 H 20.836 L 21.586,36.619 L 21.791,37 H 27.71 L 27.181,35.99 L 17.871,18.212 L 17.234,17 Z M 16.282,30.089 L 17.232,28.304 L 18.17,30.089 H 16.282 Z" fill="rgb(1, 96, 168)"/>
</svg>
