<?xml version="1.0" encoding="UTF-8"?>
<!-- generated by Finnhub -->
<svg viewBox="0 0 55.5 55.5" xmlns="http://www.w3.org/2000/svg">
<path d="M 0,0 H 55.5 V 55.5 H 0 Z" fill="rgb(1, 104, 178)"/>
<path d="M 14.093,32.985 L 14.541,31.304 H 18.045 L 19,34.336 L 8.05,38 L 4,25.17 L 16.462,21 L 17.091,23 H 15.298 L 12.43,33 H 14.103 Z M 16.335,25.77 L 17.612,30 H 15.057 L 16.335,25.77 Z" fill="rgb(254, 254, 253)"/>
<path d="M 31.799999999999997,26.463 C 31.627,25.716 31.076,24.659 29.63,24.659 C 27.89,24.659 27.168,26.344 27.168,27.999 C 27.168,29.657 27.891,31.342 29.63,31.342 C 30.793,31.342 31.847,30.5 31.847,29 H 29.999 V 27.558 H 33.341 V 33 H 31.921 V 31.943 C 31.345,32.653 30.389,32.999 29.63,32.999 C 26.837,32.999 25.453,30.686 25.453,27.999 C 25.453,25.313 27.021,23 29.63,23 C 31.406,23 32.68,23.976 33.341,25.794 L 31.811,26.478 Z M 42.908,28 C 42.908,30.687 41.308,33 38.643,33 C 35.983,33 34.383,30.687 34.383,28 C 34.383,25.314 35.983,23 38.643,23 C 41.308,23 42.908,25.314 42.908,28 Z M 36.133,28 C 36.133,29.658 36.872,31.343 38.643,31.343 C 40.419,31.343 41.157,29.658 41.157,27.999 C 41.157,26.344 40.419,24.659 38.643,24.659 C 36.872,24.659 36.133,26.344 36.133,27.999 Z M 25,31.257 H 20.409 V 28.673 H 23.999 V 27 H 20.409 V 24.742 H 24.999 V 23 H 18.691 V 27.722 L 20.256,33 H 25 V 31.257 Z M 49.436,23 V 29.76 L 45.633,23 H 44 V 33 H 45.564 V 26.143 L 49.424,33 H 51 V 23 H 49.436 Z M 45,35 H 21 L 21.296,36 H 45 V 35 Z" fill="rgb(254, 254, 253)"/>
</svg>
