<?xml version="1.0" encoding="UTF-8"?>
<!-- generated by Finnhub -->
<svg viewBox="0 0 55.5 55.5" xmlns="http://www.w3.org/2000/svg">
<path d="M 0,0 H 55.5 V 55.5 H 0 Z" fill="rgb(236, 61, 36)"/>
<path d="M 13.405,33.985 H 17.329 L 17.471,36 H 32.761 L 33.287,32 H 28.633 L 28.845,30 H 33.482 L 34.011,26 H 29.355 L 29.585,24 H 34.222 L 34.751,20 H 24.559 L 22.76,34.381 L 21,20.001 H 14 L 7,36 H 12.727 L 13.415,34 Z M 14.755,30 H 17.03 L 16.659,25.06 L 14.756,30 Z M 39.953,36 H 34.363 L 36.356,20 H 43.638 C 48.532,20 48.964,24.538 48.975,24.674 C 49.095,26.196 48.753,27.392 48.753,27.392 S 47.87,31 43.815,31 H 40.658 L 39.953,36 Z M 41.416,24 L 41.046,27 H 42.405 S 43.598,26.928 43.712,25.588 C 43.723,25.458 43.739,24 42.528,24 H 41.416 Z" fill="rgb(254, 254, 253)" fill-rule="evenodd"/>
</svg>
