<?xml version="1.0" encoding="UTF-8"?>
<!-- generated by Finnhub -->
<svg viewBox="0 0 55.5 55.5" xmlns="http://www.w3.org/2000/svg">
<path d="M 0,0 H 55.5 V 55.5 H 0 Z" fill="url(#a)"/>
<path d="M 14.542,37.269 A 16.618,16.618 0 0,1 12,28.397 C 12,19.34 19.163,12 28,12 C 31.411,12 32.861,12.965 33.358,13.393 C 34.236,14.151 34.828,15.2 34.757,16.281 C 34.48,20.536 28.525,19.662 22.616,21.081 C 13.996,23.151 11.322,30.802 14.552,37.284 Z" fill="rgb(139, 196, 64)"/>
<path d="M 34.669000000000004,15.408999999999999 C 35.004,16.69 34.854,17.632 34.419,18.511 C 31.343,24.731 19.508,20.369 16.679,30.531 C 15.529,35.261 17.924,40.894 22.799,43.641 C 23.259,43.901 23.209,44.054 22.706,43.874 C 19.326,42.659 16.464,40.316 14.552,37.284 C 11.322,30.802 13.996,23.151 22.616,21.081 C 28.525,19.661 34.481,20.536 34.757,16.281 C 34.777,15.991 34.747,15.704 34.679,15.424 Z" fill="rgb(77, 113, 33)"/>
<path d="M 33.165,43.902 C 32.711,44.079 32.618,44.008 33.055,43.669 C 33.877,43.029 34.579,41.981 34.399,40.559 C 33.889,36.534 28.252,37.124 27.364,32.254 C 26.938,29.918 27.866,27.169 31.347,24.614 C 29.626,25.987 28.231,27.573 28.769,30.56 C 29.548,34.885 37.419,37.145 41.855,30.877 C 44.306,27.412 43.253,23.43 43.253,23.43 C 43.738,24.996 44,26.667 44,28.397 C 44,35.596 39.472,41.711 33.175,43.917 Z" fill="rgb(1, 65, 94)"/>
<path d="M 33.813,13.104999999999999 C 38.297,14.912 41.791,18.708 43.253,23.43 C 43.253,23.43 44.307,27.412 41.856,30.877 C 39.93,33.597 38.076,34.953 35,35 S 29.21,33.008 28.77,30.56 C 27.508,23.556 36.876,24.253 36.15,17.35 C 35.931,15.667 34.913,14.223 33.663,13.328 C 33.187,12.986 33.283,12.904 33.823,13.12 Z" fill="rgb(1, 119, 171)"/>
<defs>
<linearGradient id="a" x1="10.418" x2="68.147" y1="9.712" y2="76.017" gradientUnits="userSpaceOnUse">
<stop stop-color="rgb(25, 29, 31)" offset="0"/>
<stop stop-color="rgb(5, 5, 8)" offset="1"/>
</linearGradient>
</defs>
</svg>
