<?xml version="1.0" encoding="UTF-8"?>
<!-- generated by Finnhub -->
<svg viewBox="0 0 55.5 55.5" xmlns="http://www.w3.org/2000/svg">
<path d="M 0,0 H 55.5 V 55.5 H 0 Z" fill="rgb(226, 26, 33)"/>
<path d="M 48.498000000000005,30.605 C 46.048,30.429 48.11,29.28 44.693,28.828 C 36.377,27.727 30.941,30.948 32.512,27.969 C 33.002,27.039 33.17,26.836 33.732,25.725 C 34.622,23.961 34.666,22.333 31.954,21.655 C 22.052,19.184 4.692,25.009 3.581,25.34 C 3.581,25.34 3.309,25.438 3.153,25.508 C 2.725,25.7 3.33,25.605 3.33,25.605 C 7.67,24.485 18.549,21.985 25.723,22.158 C 32.593,22.324 34.775,23.159 32.143,27.643 C 30.271,30.83 32.126,30.361 32.875,30.25 C 39.505,29.269 45.592,29.264 45.936,30.305 C 46.203,31.109 48.16,31.273 48.221,31.281 C 49.531,31.441 50.449,31.796 49.862,32.751 C 47.068,32.332 43.41,33.359 41.841,34.756 C 41.746,34.84 41.843,34.839 41.907,34.803 C 44.473,33.376 49.906,32.883 50.107,33.69 C 51.706,31.698 51.148,30.825 48.508,30.62 Z" fill="rgb(254, 254, 253)"/>
</svg>
