<?xml version="1.0" encoding="UTF-8"?>
<!-- generated by Finnhub -->
<svg viewBox="0 0 55.5 55.5" xmlns="http://www.w3.org/2000/svg">
<path d="M 0,0 H 55.5 V 55.5 H 0 Z" fill="rgb(1, 166, 223)"/>
<path d="M 5.99,34.985 H 8.472 L 10.698,29 L 11.488,31 H 16.163 L 17.59,35 H 20.157 L 14.471,20 H 12.001 L 6,35 Z M 10.697,29 H 10.692 L 13.181,22.47 L 15.438,29 H 10.698 Z" fill="rgb(254, 254, 253)"/>
<path d="M 21.99,23.802 C 22,21.748 23.427,20 25.512,20 H 27 V 22 H 25.989 C 24.946,22 24,22.933 24,23.968 L 24.023,25 H 27 V 27 H 24 V 35 H 22 V 27 H 20 V 25 H 22 V 23.817 Z M 31,35 H 28.996 V 20 H 31 V 35 Z" fill="rgb(254, 254, 253)"/>
<path d="M 33.806000000000004,34.199 C 34.399,34.738 35.163,35 36.106,35 C 37.328,35 38.37,34.528 39.23,33.584 C 39.383,33.925 39.543,34.194 39.71,34.39 C 39.89,34.587 40.147,34.738 40.48,34.843 C 40.813,34.948 41.271,35 41.854,35 H 42 L 42.292,33.584 H 42.104 C 41.757,33.584 41.5,33.512 41.334,33.368 C 41.167,33.224 41.056,33.021 41,32.758 C 40.974,32.584 40.981,32.366 40.99,32.096 C 40.995,31.94 41,31.766 41,31.575 V 29.609 C 41,28.442 40.888,27.472 40.638,26.803 C 40.402,26.135 39.945,25.695 39.418,25.406 C 38.904,25.118 38.21,24.974 37.335,24.974 C 36.669,24.974 36.03,25.066 35.419,25.249 C 34.809,25.433 34.295,25.675 33.879,25.977 L 34.149,27.412 C 34.649,27.084 35.114,26.862 35.544,26.743 C 35.974,26.613 36.405,26.547 36.836,26.547 C 37.613,26.547 38.176,26.704 38.522,27.018 C 38.883,27.32 39.002,27.9 39.002,28.765 C 37.377,28.792 36.016,29.07 34.795,29.594 C 33.573,30.118 32.962,30.989 32.962,32.208 C 32.962,33.021 33.247,33.689 33.816,34.214 Z M 37.898,33.231 A 3.098,3.098 0 0,1 36.461,33.584 C 35.975,33.584 35.586,33.467 35.295,33.231 C 35.017,32.981 34.878,32.608 34.878,32.111 C 34.878,31.389 35.198,30.871 35.836,30.557 C 36.489,30.229 37.502,30.098 39.001,30.046 V 32.346 C 38.696,32.739 38.37,32.995 37.898,33.231 Z" fill="rgb(254, 254, 253)"/>
<path d="M 49.865,27.45 L 50.86,26.025 A 4.767,4.767 0 0,0 47.874,24.974 C 45.182,24.974 43,27.218 43,29.987 C 43,32.755 45.182,35 47.874,35 C 49.064,35 50.154,34.561 51,33.833 L 50.089,32.303 C 49.552,32.888 48.813,33.25 47.996,33.25 C 46.356,33.25 45.028,31.79 45.028,29.99 C 45.028,28.188 46.357,26.729 47.996,26.729 C 48.709,26.729 49.363,27.005 49.876,27.465 Z" fill="rgb(254, 254, 253)"/>
</svg>
