<?xml version="1.0" encoding="UTF-8"?>
<!-- generated by Finnhub -->
<svg viewBox="0 0 55.5 55.5" xmlns="http://www.w3.org/2000/svg">
<path d="M 0,0 H 55.5 V 55.5 H 0 Z" fill="rgb(72, 73, 242)"/>
<path d="M 44.13,37.964999999999996 A 18,18 0 1,0 11.86,37.98 L 11.87,38 H 15.31 A 15,15 0 1,1 40.69,38 H 44.13 V 37.98 Z M 20.66,23.57 A 13.34,13.34 0 0,1 28.04,21 C 31.98,21 35,22.75 35,27.06 V 38 H 31 V 35.04 C 30.02,36.72 27.64,38 25.32,38 C 22.09,38 20,36.23 20,33.34 C 20,29.67 23.75,28.37 28.53,27.76 C 29.8,27.6 31,27.18 31,26.34 C 31,25.1 29.47,24.5 27.62,24.5 A 8.77,8.77 0 0,0 22.18,26.74 L 20.66,23.57 Z M 24,33.08 C 24,34.06 25.2,34.64 26.42,34.64 C 28.72,34.64 31.02,32.68 31,30.26 C 27.27,30.66 24,31.26 24,33.08 Z" fill="rgb(254, 254, 253)"/>
</svg>
