<?xml version="1.0" encoding="UTF-8"?>
<!-- generated by Finnhub -->
<svg viewBox="0 0 55.5 55.5" xmlns="http://www.w3.org/2000/svg">
<path d="M 0,0 H 55.5 V 55.5 H 0 Z" fill="rgb(239, 242, 248)"/>
<path d="M 17.99,32.525 V 11 A 76.94,76.94 0 0,0 21.59,25.25 C 18.37,27.35 18,30.83 18,32.55 Z" fill="rgb(184, 199, 232)"/>
<path d="M 29.79,17.685 L 48,28 A 76.38,76.38 0 0,0 33.66,24.02 C 33.09,20.4 30.86,18.31 29.8,17.71 Z" fill="rgb(146, 148, 150)"/>
<path d="M 36.18,34.625 L 18,45 A 73.5,73.5 0 0,0 28.71,34.8 C 32.2,36.11 35.12,35.24 36.19,34.64 Z" fill="rgb(118, 119, 121)"/>
<path d="M 29.759999999999998,17.665 L 17.97,10.98 A 73.14,73.14 0 0,0 21.59,25.28 C 25.13,23.18 31.11,23.55 33.66,24 A 8.1,8.1 0 0,0 29.76,17.68 Z" fill="rgb(58, 123, 200)"/>
<path d="M 36.35,34.525 L 48,28 A 76.24,76.24 0 0,0 33.66,23.98 C 33.76,28.05 30.36,32.88 28.69,34.83 C 31.84,36.35 35.07,35.28 36.36,34.54 Z" fill="rgb(198, 199, 200)"/>
<path d="M 17.99,31.805 V 45 A 73.07,73.07 0 0,0 28.71,34.82 C 25.08,32.86 22.48,27.62 21.61,25.23 A 8.22,8.22 0 0,0 18,31.83 Z" fill="rgb(34, 30, 30)"/>
</svg>
