<?xml version="1.0" encoding="UTF-8"?>
<!-- generated by Finnhub -->
<svg fill="none" viewBox="0 0 55.5 55.5" xmlns="http://www.w3.org/2000/svg">
<path d="M 0,0 H 55.5 V 55.5 H 0 Z" fill="rgb(1, 160, 222)"/>
<path d="M 8.99,16.985 H 47 V 39 H 9 Z" stroke="rgb(254, 254, 253)" stroke-width="2"/>
<path d="M 33.113,23.394 C 31.542,25.017 30.98,27.381 31.419,29.568 C 31.955,32.192 34.172,34.245 36.832,34.518 C 39.596,34.816 42.2,33.265 42.989,30.578 C 43.246,29.701 43.223,28.906 43.243,28 H 38 V 30 H 41.235 C 41.235,30.727 40.437,31.594 39.745,32.092 C 38.572,32.929 36.97,32.956 35.695,32.322 C 33.534,31.251 32.772,28.532 33.525,26.34 C 34.088,24.703 35.391,23.63 37.073,23.418 C 38.813,23.203 40.377,24.055 41.385,25.434 C 41.818,25.006 42.707,24.145 42.707,24.145 C 41.519,22.569 39.724,21.64 37.733,21.615 C 36.004,21.603 34.36,22.15 33.123,23.409 Z M 12.908,33.98 H 14.94 L 16.279,31 H 21.475 L 22.766,33.98 S 24.119,33.994 24.796,33.977 C 24.796,33.977 20.893,25.473 19.311,22 H 18.675 C 17.213,25.095 12.908,33.98 12.908,33.98 Z M 20.668,29 H 17.103 L 18.926,25.368 L 20.667,29 Z M 27,34 H 29 V 22 H 27 V 34 Z" fill="rgb(254, 254, 253)"/>
</svg>
