<?xml version="1.0" encoding="UTF-8"?>
<!-- generated by Finnhub -->
<svg viewBox="0 0 55.5 55.5" xmlns="http://www.w3.org/2000/svg">
<path d="M 0,0 H 55.5 V 55.5 H 0 Z" fill="rgb(239, 242, 248)"/>
<path d="M 30.939999999999998,32.985 C 30.95,32.8 31,32.6 31,32.37 V 27.2 C 31,25.99 30.13,24.85 28.82,24.85 C 28.44,24.85 28.02,24.93 27.5,25.09 C 27,25.23 26.37,25.45 25.86,25.7 C 25.99,26.06 26,26.51 26,27.06 L 26.04,32.36 C 26.04,32.43 26.14,32.99 26.08,32.99 H 24.7 C 24.7,32.79 24.73,32.59 24.73,32.36 V 27.2 C 24.73,26.44 24.57,25.87 24.19,25.45 A 1.77,1.77 0 0,0 22.74,24.78 C 22.29,24.78 21.82,24.82 21.34,24.95 C 20.87,25.05 20.41,25.22 19.99,25.4 V 32.36 C 20.01,32.5 20.03,32.59 20.03,32.68 C 20.03,32.78 20.05,32.83 20.05,32.83 C 20.09,32.83 20.09,32.84 20.05,32.92 C 20.09,32.95 20.09,32.99 20.05,32.99 H 18.65 V 32.83 H 18.67 V 32.72 C 18.69,32.61 18.69,32.5 18.69,32.36 V 25.14 C 18.69,25.04 18.71,24.94 18.69,24.87 A 0.67,0.67 0 0,0 18.63,24.62 V 24.52 L 19.79,24.17 H 19.99 V 25.25 C 20.79,24.85 21.53,24.57 22.19,24.33 A 4.72,4.72 0 0,1 23.83,23.99 C 24.28,23.99 24.68,24.08 25.03,24.39 C 25.4,24.64 25.58,25.02 25.75,25.51 C 26.68,25.05 27.6,24.69 28.28,24.41 A 5.26,5.26 0 0,1 29.82,23.99 C 31.47,23.99 32.31,25.6 32.31,27.06 V 32.36 C 32.31,32.43 32.38,32.99 32.34,32.99 H 30.94 Z M 14.92,24.53 V 24.37 L 16.09,24 H 16.36 V 32.69 L 16.4,32.84 H 16.42 V 33 H 14.92 V 32.84 C 14.94,32.84 14.94,32.82 14.94,32.73 C 14.96,32.61 15,32.5 15,32.36 V 25.3 C 15,25.08 14.98,24.95 14.96,24.86 C 14.96,24.76 14.94,24.63 14.92,24.52 Z M 13.69,32.83 V 33 H 12.06 V 32.94 C 11.55,31.44 10.98,29.95 10.45,28.45 H 5.95 L 4.72,32.2 C 4.7,32.3 4.7,32.39 4.64,32.46 A 0.3,0.3 0 0,1 4.57,32.66 C 4.57,32.72 4.57,32.76 4.55,32.82 H 4.57 V 32.98 H 4 V 32.82 L 4.19,32.41 L 8.38,20 H 8.74 L 13.4,32.35 L 13.57,32.69 C 13.63,32.78 13.67,32.83 13.69,32.83 Z M 10.31,28.12 L 8.07,21.93 L 6.07,28.12 H 10.31 Z" fill="rgb(2, 87, 104)"/>
<path d="M 15.49,22.985 A 0.95,0.95 0 0,1 14.79,22.73 A 1.02,1.02 0 0,1 14.5,22 C 14.5,21.69 14.58,21.48 14.77,21.3 A 1,1 0 0,1 15.52,21 C 15.82,21 16.04,21.06 16.22,21.27 C 16.42,21.46 16.5,21.69 16.5,22.02 C 16.5,22.29 16.44,22.52 16.23,22.73 C 16.04,22.9 15.79,23 15.5,23 Z M 43,28.5 C 43,27.8 43.11,27.21 43.33,26.66 C 43.56,26.09 43.87,25.63 44.24,25.24 C 44.65,24.82 45.12,24.52 45.66,24.32 A 4.9,4.9 0 0,1 47.49,24 C 48.18,24 48.77,24.07 49.31,24.3 C 49.89,24.52 50.35,24.82 50.74,25.22 A 4.44,4.44 0 0,1 52,28.5 A 4.59,4.59 0 0,1 50.76,31.77 A 4.4,4.4 0 0,1 49.35,32.67 C 48.81,32.88 48.2,33.01 47.49,33.01 A 5.1,5.1 0 0,1 45.67,32.69 A 4.18,4.18 0 0,1 44.27,31.77 A 4.67,4.67 0 0,1 43,28.49 Z M 47.5,32.73 C 47.97,32.73 48.36,32.64 48.73,32.43 C 49.11,32.22 49.43,31.92 49.7,31.56 C 49.96,31.17 50.17,30.74 50.31,30.23 C 50.46,29.72 50.54,29.13 50.54,28.49 C 50.54,27.85 50.46,27.29 50.31,26.75 A 4.52,4.52 0 0,0 49.7,25.42 A 2.63,2.63 0 0,0 48.75,24.59 A 2.47,2.47 0 0,0 47.49,24.27 C 47.06,24.27 46.64,24.35 46.27,24.57 C 45.91,24.78 45.6,25.05 45.32,25.42 C 45.06,25.79 44.86,26.24 44.71,26.75 C 44.56,27.28 44.49,27.85 44.49,28.49 C 44.49,29.13 44.56,29.72 44.71,30.23 S 45.04,31.19 45.3,31.56 C 45.58,31.92 45.91,32.22 46.27,32.41 C 46.64,32.63 47.05,32.73 47.49,32.73 Z M 41.24,31.81 C 40.81,32.15 40.24,32.45 39.57,32.66 C 38.89,32.89 38.25,33 37.62,33 C 37.09,33 36.58,32.91 36.12,32.7 C 35.69,32.49 35.32,32.2 34.99,31.85 A 3.94,3.94 0 0,1 34.27,30.52 A 5.48,5.48 0 0,1 34,28.78 A 5.27,5.27 0 0,1 35.25,25.33 A 4.43,4.43 0 0,1 38.63,24 C 39.36,24 39.97,24.17 40.47,24.51 C 40.94,24.85 41.22,25.31 41.27,25.9 C 41.27,26.05 41.2,26.2 41.11,26.3 A 0.64,0.64 0 0,1 40.65,26.46 A 0.61,0.61 0 0,1 40.22,26.3 A 0.9,0.9 0 0,1 39.99,25.83 C 39.95,25.38 39.8,25.03 39.52,24.76 A 1.44,1.44 0 0,0 38.47,24.34 C 38.02,24.34 37.6,24.41 37.22,24.62 C 36.84,24.8 36.52,25.08 36.26,25.43 A 4.91,4.91 0 0,0 35.41,28.3 C 35.41,28.89 35.5,29.44 35.65,29.92 C 35.82,30.42 36.03,30.8 36.33,31.16 A 3.2,3.2 0 0,0 38.73,32.26 C 39.25,32.26 39.7,32.2 40.14,32.1 C 40.58,32 40.9,31.85 41.11,31.67 L 41.24,31.81 Z" fill="rgb(154, 186, 122)"/>
</svg>
