<?xml version="1.0" encoding="UTF-8"?>
<!-- generated by Finnhub -->
<svg viewBox="0 0 55.5 55.5" xmlns="http://www.w3.org/2000/svg">
<path d="M 0,0 H 55.5 V 55.5 H 0 Z" fill="url(#a)"/>
<path d="M 15.132,34.585 C 11.434,33.473 8.738,30.05 8.738,26 C 8.738,21.906 11.491,18.455 15.256,17.357 C 15.642,17.243 15.542,17 15.071,17 C 10.065,17 6,21.037 6,26 S 10.065,35 15.07,35 C 15.542,35 15.57,34.729 15.142,34.6 Z" fill="rgb(1, 152, 202)"/>
<path d="M 10.454,28.082 A 6.25,6.25 0 0,1 10.421,27.369 A 7.14,7.14 0 0,1 17.567,20.224 C 21.304,20.224 22.417,21.892 22.559,21.778 C 22.716,21.664 21.204,18.355 16.825,18.355 A 7.14,7.14 0 0,0 10.165,28.082 C 10.293,28.425 10.493,28.425 10.465,28.097 Z" fill="rgb(1, 152, 202)"/>
<path d="M 13.450000000000001,22.933 C 15.313,22.135 17.653,22.106 19.949,22.919 C 21.489,23.461 22.388,24.232 22.459,24.189 C 22.588,24.132 21.561,22.519 19.721,21.821 A 6.533,6.533 0 0,0 13.36,22.791 C 13.16,22.948 13.231,23.048 13.46,22.948 Z" fill="rgb(1, 152, 202)"/>
<path d="M 18.996,30.985 L 19.114,32 H 21 L 20.362,25 H 17.554 L 14,32 H 15.926 L 16.523,31 H 19.006 Z M 18.911,29.438 H 17.188 L 18.667,26.411 H 18.68 L 18.91,29.438 Z M 23.617,29 H 23.903 L 25.343,27 H 27.096 L 25.139,29.452 L 26.28,32 H 24.418 L 23.671,30 H 23.4 L 22.98,32 H 21.39 L 22.856,25 H 24.446 L 23.617,29 Z M 29.607,32 H 31.245 L 31.903,28.885 C 32.267,27.205 31.609,27 29.929,27 C 28.753,27 27.619,26.986 27.297,28.502 H 28.935 C 29.033,28.065 29.313,28 29.719,28 C 30.433,28 30.405,28.256 30.307,28.707 L 30.139,29.487 H 30.069 C 30.013,28.926 29.285,29 28.822,29 C 27.632,29 26.932,29.309 26.68,30.483 C 26.415,31.726 27.017,32 28.165,32 C 28.739,32 29.509,31.89 29.775,31.221 H 29.831 L 29.607,32 Z M 29.144,30 C 29.677,30 30.027,29.989 29.942,30.399 C 29.831,30.904 29.607,31 28.92,31 C 28.668,31 28.207,31 28.318,30.467 C 28.417,30.017 28.738,30 29.144,30 Z M 34.429,27 L 34.223,27.746 H 34.292 C 34.606,27.166 35.248,27 35.795,27 C 36.479,27 37.162,27.124 37.066,27.967 H 37.135 C 37.367,27.262 38.078,27 38.693,27 C 39.827,27 40.306,27.47 40.059,28.616 L 39.35,32 H 37.75 L 38.352,29.14 C 38.434,28.63 38.516,28.243 37.901,28.243 C 37.271,28.243 37.067,28.657 36.957,29.196 L 36.37,32 H 34.77 L 35.4,29.002 C 35.482,28.547 35.51,28.242 34.949,28.242 C 34.293,28.242 34.088,28.602 33.965,29.196 L 33.376,32 H 31.776 L 32.871,27 H 34.429 Z M 42.763,32 H 44.285 L 44.91,28.885 C 45.248,27.205 44.636,27 43.076,27 C 41.983,27 40.929,26.986 40.63,28.502 H 42.152 C 42.242,28.065 42.473,28 42.85,28 C 43.514,28 43.518,28.256 43.427,28.707 L 43.271,29.487 H 43.206 C 43.154,28.927 42.477,29 42.048,29 C 40.942,29 40.292,29.309 40.058,30.483 C 39.811,31.726 40.37,32 41.436,32 C 41.97,32 42.686,31.89 42.932,31.221 H 42.985 L 42.763,32 Z M 42.347,30 C 42.841,30 43.167,29.989 43.089,30.399 C 42.985,30.904 42.777,31 42.139,31 C 41.905,31 41.476,31 41.579,30.467 C 41.671,30.017 41.97,30 42.347,30 Z M 48,25.895 A 0.879,0.879 0 0,1 47.13,26.767 A 0.87,0.87 0 0,1 46.26,25.895 A 0.87,0.87 0 0,1 47.13,25.023 C 47.618,25.023 48,25.406 48,25.895 Z M 46.7,32 H 45.1 L 46.125,27 H 47.738 L 46.699,32 Z" fill="rgb(254, 152, 49)"/>
<defs>
<linearGradient id="a" x1="10.418" x2="68.147" y1="9.712" y2="76.017" gradientUnits="userSpaceOnUse">
<stop stop-color="rgb(25, 29, 31)" offset="0"/>
<stop stop-color="rgb(5, 5, 8)" offset="1"/>
</linearGradient>
</defs>
</svg>
