<?xml version="1.0" encoding="UTF-8"?>
<!-- generated by Finnhub -->
<svg viewBox="0 0 55.5 55.5" xmlns="http://www.w3.org/2000/svg">
<path d="M 0,0 H 55.5 V 55.5 H 0 Z" fill="rgb(1, 133, 116)"/>
<path d="M 12.99,40.985 H 27.5 S 28.684,41.197 29.67,39.651 C 30.36,38.517 29.473,36.868 29.473,36.868 L 22.173,21.924 C 21.68,22.955 21.582,24.089 21.582,24.914 C 21.582,25.841 21.976,27.078 22.568,28.314 C 23.258,29.654 25.724,34.601 25.724,34.601 S 26.941,37.028 27.04,37.544 C 27.139,38.471 26.612,39 26.119,39 H 16.749 C 15.269,39 14.965,37.754 14.866,36.93 L 13,41 Z" fill="rgb(254, 254, 253)"/>
<path d="M 33.46,40.985 H 30.412 S 31.102,40.373 31.398,39.342 C 31.596,38.414 31.102,37.178 31.102,37.178 L 22.864,20.378 L 24.245,17.493 L 33.667,36.25 S 34.752,38.517 34.457,39.445 C 34.259,40.373 33.47,41 33.47,41 Z" fill="rgb(254, 254, 253)"/>
<path d="M 35.296,40.985 S 36.476,39.651 35.983,38.414 C 35.391,36.456 34.306,34.601 34.306,34.601 L 25.034,15.844 L 27.5,11 L 42,41 H 35.306 Z" fill="rgb(254, 254, 253)"/>
</svg>
