<?xml version="1.0" encoding="UTF-8"?>
<!-- generated by Finnhub -->
<svg viewBox="0 0 55.5 55.5" xmlns="http://www.w3.org/2000/svg">
<path d="M 0,0 H 55.5 V 55.5 H 0 Z" fill="rgb(1, 51, 149)"/>
<path d="M 9.32,20.985 L 4,34 H 7.54 L 8.44,31.57 H 13.36 L 14.27,34 H 17.86 L 12.55,21 H 9.33 Z M 10.97,25.15 L 9.33,29 H 12.53 L 10.97,25.15 Z M 22,21 H 19 V 34 H 22 V 21 Z M 43,24 H 46 V 25.33 A 3.3,3.3 0 0,1 48.86,24 C 51.31,24.05 51.98,26.4 52,27.56 V 34 H 49 V 28.81 C 49,27.18 48.06,26.97 47.66,27 C 46.64,27 46.15,27.86 46,28.6 V 34 H 43 V 24 Z M 42,29 A 5,5 0 1,1 32,29 A 5,5 0 0,1 42,29 Z M 39,29 A 2,2 0 1,1 35,29 A 2,2 0 0,1 39,29 Z M 31.62,32.42 A 5,5 0 1,1 31.64,25.6 L 29.62,27.83 A 2,2 0 1,0 29.61,30.19 L 31.61,32.42 Z" fill="rgb(254, 254, 253)" fill-rule="evenodd"/>
</svg>
