<?xml version="1.0" encoding="UTF-8"?>
<!-- generated by Finnhub -->
<svg viewBox="0 0 55.5 55.5" xmlns="http://www.w3.org/2000/svg">
<path d="M 0,0 H 55.5 V 55.5 H 0 Z" fill="rgb(70, 66, 60)"/>
<path d="M 25.951999999999998,19.985 C 25.722,20 25.489,20.07 25.29,20.2 C 25.091,20.331 24.936,20.517 24.845,20.735 A 1.172,1.172 0 0,0 25.108,22.032 A 1.226,1.226 0 0,0 26.426,22.288 C 26.647,22.198 26.836,22.045 26.968,21.849 A 1.176,1.176 0 0,0 26.818,20.346 A 1.205,1.205 0 0,0 25.962,20 Z" fill="rgb(1, 153, 204)"/>
<path d="M 38.99,23.985 H 41 V 24.678 C 41.533,24.033 41.943,23.683 42.851,23.688 C 44.889,23.688 46,24.927 46,27.088 V 32 H 44 V 27.155 C 44,26.045 43.384,25.405 42.416,25.405 C 41.446,25.405 41,26.045 41,27.155 V 32 H 39 V 24 Z M 23,32 H 21 V 20 H 23 V 32 Z M 27,32 H 25 V 24 H 27 V 32 Z M 17,24 H 19 V 32 H 17 V 31.262 C 16.317,31.944 15.247,32.227 13.982,32.227 C 11.708,32.225 10.024,30.554 10.024,28.03 C 10.024,25.34 12.071,23.687 14.204,23.687 C 15.384,23.653 16.196,23.894 17,24.78 V 24 Z M 11.993,28.03 C 11.993,29.605 13.129,30.654 14.493,30.654 C 15.735,30.654 17.207,29.758 17.207,28.03 C 17.207,26.344 15.924,25.406 14.493,25.406 C 13.063,25.406 11.993,26.51 11.993,28.03 Z M 35.189,28.03 C 35.189,26.32 34.093,25.406 32.847,25.406 C 31.358,25.406 30.498,26.598 30.498,28.03 C 30.498,29.541 31.425,30.654 32.847,30.654 C 34.156,30.654 35.189,29.697 35.189,28.03 Z M 37.005,31.31 C 37.005,34.831 34.911,36 32.447,36 A 6.604,6.604 0 0,1 29.465,35.343 L 29.942,33.716 C 30.702,34.137 31.559,34.357 32.432,34.355 C 33.865,34.355 35.082,33.449 35.082,31.82 V 31.256 A 3.41,3.41 0 0,1 33.9,32.082 C 33.45,32.27 32.965,32.362 32.476,32.349 C 30.231,32.349 28.534,30.571 28.534,28.015 C 28.534,25.565 30.131,23.683 32.484,23.683 C 32.971,23.667 33.454,23.756 33.902,23.945 C 34.349,24.135 34.677,24.418 35,24.776 V 24 H 37.005 V 31.31 Z" fill="rgb(254, 254, 253)"/>
</svg>
