<?xml version="1.0" encoding="UTF-8"?>
<!-- generated by Finnhub -->
<svg viewBox="0 0 55.5 55.5" xmlns="http://www.w3.org/2000/svg">
<path d="M 0,0 H 55.5 V 55.5 H 0 Z" fill="rgb(1, 117, 182)"/>
<path d="M 9.99,27.741 C 10,20.168 18.072,14 28,14 C 37.928,14 46,20.168 46,27.756 C 46,35.346 37.928,42 28,42 S 10,35.345 10,27.756 Z M 12.421,27.756 C 12.421,34.817 19.404,41.026 28,41.026 C 36.596,41.026 43.619,34.817 43.578,27.756 C 43.578,25.042 42.547,22.52 40.788,20.443 L 40.668,20.523 C 40.096,20.904 39.44,21.341 39.22,21.71 L 39.462,22.035 C 39.497,22.105 39.533,22.175 39.572,22.247 C 39.709,22.509 39.86,22.797 39.987,23.212 C 40.309,24.267 40.511,25.525 40.511,26.823 C 40.511,26.965 40.501,27.107 40.491,27.249 C 40.481,27.391 40.471,27.533 40.471,27.675 L 40.431,27.838 L 40.148,28.568 C 39.744,29.583 39.058,31.449 38.856,32.22 L 38.776,32.383 C 37.848,33.438 36.677,35.02 36.153,36.319 C 36.031,36.562 35.87,36.684 35.668,36.725 C 35.345,36.765 35.023,36.603 34.618,36.238 C 34.458,36.075 34.336,35.872 34.215,35.629 A 0.76,0.76 0 0,1 34.095,35.791 C 33.731,36.359 33.085,37.131 31.875,37.739 C 31.309,38.023 29.897,38.51 28.323,38.632 C 27.273,38.754 26.668,38.672 26.183,38.592 C 25.74,38.51 25.256,38.307 25.094,37.699 C 23.964,38.226 22.754,37.455 23.076,36.481 C 22.511,36.725 20.896,36.116 21.826,34.533 C 21.808,34.516 21.757,34.451 21.696,34.374 A 4.766,4.766 0 0,0 21.462,34.087 A 3.203,3.203 0 0,1 20.292,35.547 C 20.049,35.67 19.686,35.67 19.484,35.547 A 1.422,1.422 0 0,1 19.121,34.939 A 0.21,0.21 0 0,1 19.081,34.879 C 19.071,34.858 19.061,34.838 19.041,34.817 C 17.991,32.667 17.103,31.53 16.578,30.962 C 16.498,30.922 16.458,30.8 16.418,30.557 A 56.735,56.735 0 0,0 15.892,27.675 L 15.852,27.554 L 15.489,25.687 V 25.565 C 15.527,24.795 15.892,23.843 16.274,22.847 L 16.336,22.684 S 16.78,21.467 16.821,21.385 C 16.753,21.335 16.531,21.142 16.291,20.935 C 15.959,20.647 15.593,20.33 15.569,20.33 C 15.569,20.33 15.485,20.267 15.409,20.216 C 13.53,22.336 12.421,24.943 12.421,27.756 Z M 16.259,19.34 C 17.756,17.926 19.622,16.784 21.733,16.017 L 21.825,16.11 L 22.552,16.76 L 22.955,17.165 C 23.278,17.449 23.318,17.612 23.318,17.652 C 23.318,17.679 23.282,17.706 23.247,17.733 A 0.477,0.477 0 0,0 23.197,17.773 C 23.157,17.814 23.077,17.814 23.077,17.814 L 23.036,18.099 H 23.197 C 24.166,18.058 25.054,18.748 25.659,19.275 C 26.669,20.249 27.435,21.832 27.596,23.293 L 28.404,27.432 L 28.686,28.082 L 28.726,28.202 L 28.848,28.487 C 28.968,28.771 29.13,29.015 29.13,29.015 L 29.534,29.339 L 30.099,29.907 L 30.26,30.11 L 30.543,30.394 C 30.583,30.394 31.39,30.516 31.39,30.516 C 32.803,30.759 32.722,31.53 32.722,31.53 S 33.569,30.232 31.552,29.785 L 30.906,29.664 L 30.664,29.339 L 30.583,29.258 L 29.978,28.649 L 29.695,28.406 L 29.453,27.716 L 29.09,26.864 A 9.932,9.932 0 0,1 28.848,25.606 C 28.848,25.566 28.767,25.2 28.767,25.2 L 28.525,23.455 C 28.525,23.415 28.565,23.13 28.565,23.13 C 28.686,22.481 28.928,21.75 29.291,20.98 C 29.735,20.046 30.623,19.438 30.664,19.438 C 31.35,19.032 32.318,18.788 32.844,18.667 C 33.044,18.667 33.126,18.545 33.166,18.423 L 33.206,18.342 H 33.126 C 32.843,18.302 32.48,18.18 32.48,18.139 V 18.099 C 32.48,18.058 32.52,17.977 32.6,17.855 L 33.045,17.449 L 33.287,17.206 S 34.177,16.346 34.444,16.083 C 36.627,16.903 38.541,18.126 40.046,19.636 C 39.892,19.744 39.623,19.925 39.623,19.925 C 39.099,20.29 38.533,20.452 38.211,20.29 C 38.171,20.29 37.727,20.006 37.727,20.006 A 0.405,0.405 0 0,1 37.605,19.966 L 37.444,19.925 L 37.282,19.965 L 37.202,20.005 L 37.363,20.168 C 37.655,20.498 37.815,20.794 38.021,21.178 L 38.09,21.304 L 38.21,21.548 L 38.332,21.873 C 38.614,22.563 38.856,23.293 39.018,23.983 A 16.24,16.24 0 0,1 39.502,27.229 V 27.351 L 39.099,28.528 C 38.655,29.745 38.13,31.287 38.009,31.936 L 37.969,32.017 C 36.799,33.235 35.991,34.655 35.628,35.547 C 35.588,35.67 35.548,35.67 35.507,35.67 C 35.483,35.67 35.415,35.626 35.347,35.582 C 35.302,35.552 35.257,35.523 35.224,35.507 C 34.942,35.223 34.74,34.696 34.78,34.127 C 34.82,33.397 35.103,32.788 35.628,32.383 C 35.688,32.322 35.681,32.261 35.673,32.2 A 0.5,0.5 0 0,1 35.668,32.14 C 35.507,31.327 35.748,30.07 36.233,29.745 L 36.354,29.664 L 36.234,29.583 C 34.821,28.487 34.094,26.417 34.054,24.875 V 24.672 L 33.852,24.754 C 33.812,24.794 33.731,24.916 33.731,24.916 C 33.691,25.2 33.651,25.525 33.651,25.809 C 33.651,26.449 33.761,27.034 33.823,27.353 L 33.853,27.513 A 5.328,5.328 0 0,0 35.063,29.826 L 35.103,29.866 C 34.821,30.191 34.74,31.003 34.74,31.652 C 34.74,31.855 34.74,32.017 34.78,32.139 C 34.094,32.707 33.933,33.438 33.892,33.965 L 33.932,34.533 L 33.61,34.939 L 33.53,35.02 C 32.883,35.913 32.44,36.522 31.39,37.05 C 30.22,37.658 28,38.064 26.547,37.942 C 26.047,37.903 26.06,37.459 26.063,37.382 V 37.374 C 26.063,37.314 26.084,37.277 26.112,37.229 L 26.144,37.171 S 26.264,37.049 26.264,37.009 C 27.637,37.171 28.928,37.009 29.494,36.725 C 29.534,36.684 29.695,36.441 29.695,36.441 L 29.775,36.319 L 29.655,36.359 C 28.485,36.644 26.184,36.279 24.933,35.751 C 23.594,35.197 23.177,34.642 22.109,33.221 L 22.027,33.113 L 21.704,32.707 C 21.704,32.301 21.583,31.855 21.381,31.53 C 21.211,31.258 21.014,31.071 20.907,30.97 A 2.294,2.294 0 0,1 20.857,30.922 C 20.937,30.678 20.977,30.313 20.977,29.948 C 20.977,29.461 20.897,28.933 20.695,28.69 C 21.543,28.04 21.946,27.35 21.946,26.62 C 21.946,26.255 21.744,25.687 21.744,25.687 L 21.422,25.525 L 21.462,25.728 C 21.579,26.988 20.443,27.827 19.675,28.395 L 19.605,28.446 L 19.363,28.609 L 19.525,28.689 C 20.17,29.096 20.17,30.394 20.009,31.125 V 31.165 L 20.049,31.246 H 20.089 L 20.372,31.49 C 21.018,32.342 20.937,33.64 20.252,34.412 C 20.13,34.574 20.049,34.574 20.009,34.574 C 19.888,34.534 19.807,34.33 19.807,34.249 L 19.605,33.843 L 19.471,33.571 C 18.965,32.548 18.511,31.631 17.547,30.475 L 17.507,30.354 A 36.51,36.51 0 0,0 16.78,26.255 L 16.66,25.605 V 25.443 C 16.739,24.207 17.13,23.205 17.565,22.093 L 17.587,22.035 L 17.87,21.305 L 18.112,20.736 L 18.152,20.656 C 18.435,20.29 18.798,19.925 19.202,19.559 L 19.404,19.397 L 19.162,19.275 S 18.677,19.315 18.152,19.559 L 18.072,19.6 C 17.709,19.762 17.305,19.884 16.982,19.762 C 16.982,19.762 16.516,19.494 16.259,19.34 Z M 33.481,15.753 A 18.485,18.485 0 0,0 28,14.933 C 26.138,14.933 24.352,15.203 22.696,15.699 C 23.316,16.209 24.219,17.047 24.776,17.564 C 24.924,17.701 25.047,17.816 25.135,17.896 C 25.942,18.22 26.547,18.707 27.072,19.316 C 27.556,19.884 27.879,20.533 28.162,21.345 C 28.242,21.101 28.404,20.695 28.404,20.695 C 28.767,19.843 29.695,18.951 30.624,18.585 C 30.987,18.464 31.794,17.571 32.44,16.841 C 32.44,16.841 33.252,15.99 33.481,15.753 Z M 24.892,34.006 L 24.57,33.681 L 22.511,30.962 H 22.834 C 23.238,30.841 23.803,30.597 24.004,30.435 L 24.247,30.191 C 24.287,30.597 24.045,31.003 24.005,31.003 L 24.287,31.449 L 24.489,31.774 L 24.973,32.504 L 25.135,32.748 L 25.578,33.398 L 26.103,33.6 S 26.91,34.046 26.951,34.046 L 27.193,34.209 L 27.798,34.614 H 27.838 S 28.484,34.534 28.928,34.574 C 30.3,34.655 30.704,35.101 30.744,35.467 C 30.825,35.872 30.341,36.237 30.341,36.237 S 30.502,35.791 30.018,35.547 C 29.574,35.345 28.928,35.345 28.404,35.345 L 27.475,35.385 H 27.355 L 26.628,34.98 L 26.184,34.736 L 26.104,34.696 L 25.498,34.371 L 24.892,34.006 Z M 26.91,32.748 L 26.83,32.626 L 26.668,32.342 L 24.892,29.907 L 25.014,29.827 C 25.256,29.664 25.619,29.38 25.74,29.217 C 25.861,29.055 25.942,28.893 25.942,28.893 S 26.062,29.38 25.902,29.704 C 25.942,29.785 26.426,30.475 26.426,30.475 L 26.506,30.597 C 26.601,30.739 26.708,30.888 26.817,31.04 C 26.988,31.279 27.167,31.526 27.314,31.774 C 27.314,31.774 27.475,32.058 27.475,32.099 L 28.202,32.342 L 29.09,32.788 L 29.251,32.87 L 29.776,33.194 C 31.753,33.194 32.278,33.762 32.318,34.371 C 32.358,35.021 31.713,35.426 31.632,35.467 C 31.632,35.467 32.036,35.02 31.713,34.574 C 31.511,34.249 31.067,34.046 30.503,34.006 C 30.261,33.984 29.948,33.998 29.706,34.008 C 29.503,34.018 29.35,34.024 29.332,34.006 L 28.686,33.6 C 28.444,33.438 27.919,33.194 27.516,33.032 C 27.516,33.032 26.951,32.788 26.91,32.748 Z M 27.556,27.473 S 27.758,27.838 27.636,28.243 L 29.009,30.435 L 29.534,30.678 L 29.695,30.759 L 30.341,31.165 L 30.825,31.49 L 31.753,31.612 C 32.48,31.692 32.722,31.936 32.923,32.22 C 33.449,32.991 32.682,33.722 32.682,33.722 S 33.004,33.113 32.44,32.707 A 1.869,1.869 0 0,0 31.43,32.342 L 30.543,32.302 H 30.503 L 29.897,31.896 L 29.251,31.49 L 29.049,31.368 S 28.484,31.044 28.444,31.003 L 28.162,30.638 L 28.081,30.516 L 26.628,28.446 L 26.748,28.406 C 27.112,28.162 27.354,27.919 27.435,27.716 L 27.556,27.472 Z M 25.376,36.846 C 24.086,37.496 23.399,36.928 23.682,36.238 C 24.085,36.522 24.772,36.725 25.377,36.846 Z M 23.157,35.872 C 22.269,36.116 21.947,35.507 22.148,34.98 C 22.35,35.183 22.955,35.75 23.157,35.872 Z" fill="rgb(254, 254, 253)" fill-rule="evenodd"/>
</svg>
