<?xml version="1.0" encoding="UTF-8"?>
<!-- generated by Finnhub -->
<svg viewBox="0 0 55.5 55.5" xmlns="http://www.w3.org/2000/svg">
<path d="M 0,0 H 55.5 V 55.5 H 0 Z" fill="rgb(254, 101, 28)"/>
<path d="M 22.99,11.985 H 33 V 22 H 23 Z M 12,23 H 22 V 33 H 12 Z M 12,22 C 12,16.477 16.477,12 22,12 V 22 H 12 Z M 12,34 C 12,39.523 16.477,44 22,44 V 34 H 12 Z M 34,34 C 34,39.523 38.477,44 44,44 V 34 H 34 Z M 33,34 C 33,39.523 28.523,44 23,44 V 34 H 33 Z M 44,22 C 44,16.477 39.523,12 34,12 V 22 H 44 Z M 34,23 H 44 V 33 H 34 Z" fill="rgb(254, 254, 253)"/>
</svg>
