<?xml version="1.0" encoding="UTF-8"?>
<!-- generated by Finnhub -->
<svg viewBox="0 0 55.5 55.5" xmlns="http://www.w3.org/2000/svg">
<path d="M 0,0 H 55.5 V 55.5 H 0 Z" fill="rgb(245, 247, 251)"/>
<path d="M 17.439999999999998,32.121 S 19.62,32.693 20.134,31.763 C 21.338,29.581 17.889,22.607 17.889,22.607 S 21.89,31.634 26.484,35.811 C 29,38.098 31.89,38.236 33.874,37.194 C 37.924,35.063 43.343,24.47 43.945,23.406 C 44.547,22.34 40.004,32.987 38.417,35.382 C 36.829,37.779 35.461,40.546 30.314,40.706 C 24.163,40.898 17.45,32.136 17.45,32.136 Z" fill="rgb(30, 152, 212)"/>
<path d="M 11.99,25.985 A 2,2 0 1,1 16,26 A 2,2 0 0,1 12,26 Z" fill="rgb(187, 219, 243)"/>
<path d="M 27.185,14.873 C 29.549,14.098 29.589,15.512 28.124,17.124 C 26.866,18.508 23.254,22.181 23.254,22.181 S 30.659,15.731 32.722,16.379 C 34.422,16.911 33.71,19.252 33.434,20.104 C 33.162,20.958 29.823,29.74 17.724,47.999 C 17.592,48.2 35.509,27.397 36.281,18.562 C 36.938,11.055 33.161,12.012 32.887,12.068 C 29.68,12.69 27.195,14.888 27.195,14.888 Z" fill="rgb(30, 51, 96)"/>
</svg>
