<?xml version="1.0" encoding="UTF-8"?>
<!-- generated by Finnhub -->
<svg viewBox="0 0 55.5 55.5" xmlns="http://www.w3.org/2000/svg">
<path d="M 0,0 H 55.5 V 55.5 H 0 Z" fill="rgb(28, 140, 195)"/>
<path d="M 32.685,15.985 H 18.56 L 16.5,18 H 32.695 C 35.19,18 37,20.543 37,23 V 44 H 39 V 23.145 C 39,19.458 36.439,16 32.695,16 Z M 43,44 L 42.998,23.145 C 42.998,17.002 38.937,12 32.695,12 H 22.933 L 20.747,14 H 32.695 C 37.687,14 41,18.23 41,23.145 V 44 H 43 Z M 32.695,21 H 14.634 L 13,23 V 32.86 C 13,38.526 16.43,43.302 22,44 L 23.7,42 H 23.305 C 18.31,42 15,37.773 15,32.86 V 23 H 17 V 32.86 C 17,36.544 19.559,39 23.305,39 H 26.5 L 28.327,37 H 23.305 C 20.808,37 19,35.315 19,32.86 V 23 H 21 V 32.86 C 21,34.088 22.055,35 23.304,35 H 30.508 L 32.5,33 H 23 V 23 H 33 V 44 H 35 V 23.145 C 34.993,21.915 33.944,21 32.695,21 Z" fill="rgb(254, 254, 253)"/>
</svg>
