<?xml version="1.0" encoding="UTF-8"?>
<!-- generated by Finnhub -->
<svg viewBox="0 0 55.5 55.5" xmlns="http://www.w3.org/2000/svg">
<path d="M 0,0 H 55.5 V 55.5 H 0 Z" fill="rgb(228, 24, 53)"/>
<path d="M 43.99,28.006 C 44,36.88 36.836,44 27.935,44 C 19.165,44 12,36.836 12,28.021 C 12,19.165 19.164,12 27.979,12 C 36.835,12 44,19.164 44,28.021 Z M 28.366,25.913 C 27.367,25.132 26.846,25 25.848,25 C 24.067,25.043 23,26.087 23,27.866 V 30.974 C 23,31.624 23.285,32 23.806,32 C 24.328,32 24.631,31.624 24.631,31.017 V 28.344 C 24.631,27.433 25.153,26.954 26.064,26.998 C 26.889,26.998 27.41,27.519 27.454,28.388 V 31.148 C 27.454,31.842 28.13,32.102 28.67,31.972 C 29.06,31.798 29.19,31.451 29.19,31.06 V 28.461 C 29.19,27.549 29.755,26.957 30.623,27 C 31.492,27 31.957,27.55 32,28.504 V 31.104 C 32,31.617 32.386,32 32.908,32 C 33.429,32 33.706,31.6 33.706,31.147 V 27.954 C 33.706,26.521 32.968,25.609 31.622,25.218 C 30.71,24.958 29.842,25.045 29.06,25.523 C 28.843,25.61 28.627,25.783 28.366,25.913 Z M 22.591,28.388 V 25.913 C 22.591,25.349 22.287,25.043 21.766,25 C 18.813,24.74 15.991,26.217 14.646,28.909 C 14.341,29.517 14.13,30.496 14,31.191 C 13.914,31.624 14.174,32 14.565,32 H 19.428 C 19.905,32 20.21,31.625 20.21,31.104 S 19.824,30 19.216,30 H 16.481 C 16.177,30 16.134,29.853 16.221,29.636 C 16.959,27.856 18.725,27.174 20.461,27 C 20.766,26.957 20.999,27.1 20.999,27.404 V 30.799 C 20.999,30.93 21.012,31.06 21.012,31.191 C 21.099,31.711 21.419,32 21.896,32 C 22.374,31.957 22.634,31.645 22.634,31.08 C 22.591,30.343 22.591,29.213 22.591,28.388 Z M 37.658,32 C 39.178,32.019 40.479,31.167 40.958,29.908 C 41.131,29.43 40.979,29.257 40.545,29.083 C 40.111,28.91 39.677,29.083 39.46,29.474 C 39.026,30.342 38.33,30.69 37.376,30.603 C 36.42,30.473 35.682,29.691 35.639,28.736 C 35.595,27.78 36.203,26.912 37.115,26.696 C 38.2,26.436 39.113,26.826 39.503,27.737 C 39.633,28.042 39.851,28.215 40.154,28.215 C 40.806,28.302 41.248,27.508 41,26.868 C 40.48,25.523 38.913,25 37.659,25 C 35.87,25 34.055,26.36 34.055,28.258 C 34.055,30.736 35.412,31.972 37.659,32 Z" fill="rgb(254, 254, 253)"/>
</svg>
