<?xml version="1.0" encoding="UTF-8"?>
<!-- generated by Finnhub -->
<svg viewBox="0 0 55.5 55.5" xmlns="http://www.w3.org/2000/svg">
<path d="M 0,0 H 55.5 V 55.5 H 0 Z" fill="rgb(32, 97, 163)"/>
<path d="M 14.233,33.985 V 21.007 C 15.681,21.107 16.854,22.321 17.835,23.427 C 18.887,24.612 19.544,26.073 20.112,27.567 C 21.069,24.788 22.952,21.287 26,21.007 V 24.034 A 6.495,6.495 0 0,1 31.71,21.004 A 7.36,7.36 0 0,1 31.93,21 C 33.771,21 35.613,21.97 36.66,23.547 A 6.482,6.482 0 0,1 37.675,25.465 V 21.007 H 43.53 V 24.052 H 40.472 V 26.084 H 43.53 V 28.964 H 40.472 V 31 H 43.53 V 34 H 37.675 V 29.535 A 6.496,6.496 0 0,1 36.272,31.914 C 35.108,33.317 33.462,34 31.688,34 A 8.189,8.189 0 0,1 31.5,34 A 6.495,6.495 0 0,1 26,30.966 V 34 H 23 V 27.039 C 21.684,28.891 21.04,31.719 21,33.999 H 19 C 18.953,31.701 18.18,28.971 16.983,27.039 V 33.999 H 14.243 Z M 34.539,25.592 C 34.039,24.367 32.977,23.874 31.755,23.872 C 29.817,23.872 28.332,25.399 28.332,27.477 C 28.332,29.63 29.675,31.209 31.732,31.212 C 32.601,31.212 33.43,30.928 34.055,30.272 C 34.313,30 34.5,29.362 34.5,29 H 31 V 26 H 37.675 V 25.592 H 34.539 Z M 4,34 L 4.081,33.705 L 4.551,32.041 C 4.941,30.644 5.458,28.799 6.026,27.474 C 7.464,24.099 9.859,21.004 13.533,21.004 C 13.575,21.004 13.617,21.004 13.659,21.006 L 13.786,21.007 V 34 H 11.026 L 11,31 H 7.5 L 6.828,33.645 L 6.74,34 H 4 Z M 49.26,21.007 H 52 V 34 H 49.527 C 49.162,32.003 48.272,29.036 46.727,27.768 V 34 H 44 V 21 C 45.069,21.23 46.406,22.634 47.337,23.61 C 47.491,23.772 47.633,23.922 47.762,24.052 C 48.343,24.648 48.912,25.302 49.26,26.084 V 21.007 Z M 11.026,28 H 8.5 C 9.062,26.787 9.825,25.607 11.026,25.014 V 28 Z" fill="rgb(254, 254, 253)" fill-rule="evenodd"/>
</svg>
