<?xml version="1.0" encoding="UTF-8"?>
<!-- generated by Finnhub -->
<svg viewBox="0 0 55.5 55.5" xmlns="http://www.w3.org/2000/svg">
<path d="M 0,0 H 55.5 V 55.5 H 0 Z" fill="rgb(15, 4, 157)"/>
<path d="M 20.22,25.025 C 21.93,19.59 23.74,14.77 24.75,15.05 C 25.98,15.4 27.5,20.54 28.58,25.15 C 25.78,25.09 22.93,25.05 20.23,25.04 Z M 16.7,28 L 15.23,33.96 A 1.2,1.2 0 0,0 17.53,34.54 C 18.03,32.61 18.66,30.32 19.33,28 H 29.22 L 29.6,29.88 C 30.46,33.92 32.95,42 36.05,42 S 41.31,34.93 42.01,31.4 L 42.07,30.72 A 0.49,0.49 0 1,0 41.13,30.52 L 39.39,35.3 C 39.07,36.5 38.09,38.93 36.73,38.93 C 35.38,38.93 33.9,33.75 33.33,31.16 C 33.13,30.22 32.88,29.15 32.59,28 H 43.85 C 44.49,28 45,27.5 45,26.87 C 45,26.32 44.6,25.85 44.03,25.79 C 41.51,25.52 36.95,25.33 31.84,25.21 C 30.08,19 27.45,12 24.93,12 C 21.51,12 18.83,19.42 17.9,23.13 L 17.44,25.02 A 958.6,958.6 0 0,0 12.52,25 A 1.5,1.5 0 0,0 11,26.5 C 11,27.33 11.68,28 12.52,28 H 16.7 Z" fill="rgb(254, 254, 253)"/>
</svg>
