<?xml version="1.0" encoding="UTF-8"?>
<!-- generated by Finnhub -->
<svg viewBox="0 0 55.5 55.5" xmlns="http://www.w3.org/2000/svg">
<path d="M 0,0 H 55.5 V 55.5 H 0 Z" fill="url(#a)"/>
<path d="M 27.971999999999998,21.495 V 29.021 L 28.716,30.188 C 29.119,30.829 30.134,32.444 30.971,33.779 C 31.809,35.114 33.026,37.058 33.68,38.097 C 34.333,39.137 35.143,40.435 35.485,40.981 L 36.108,41.976 L 41.056,41.98 C 43.776,41.98 46,41.968 46,41.955 C 46,41.939 45.677,41.425 45.281,40.813 L 43.003,37.275 L 37.222,28.298 C 36.906,27.813 36.288,26.852 35.846,26.162 C 35.401,25.472 34.771,24.494 34.444,23.984 C 34.114,23.474 33.049,21.819 32.074,20.307 L 29.158,15.775 C 28.528,14.802 28.006,14 27.998,14 C 27.99,14 27.982,17.382 27.982,21.51 Z" fill="rgb(209, 17, 63)"/>
<path d="M 26.84,15.772 C 26.215,16.769 24.902,18.811 23.926,20.327 C 22.95,21.839 21.886,23.495 21.556,24.004 C 21.229,24.514 20.599,25.492 20.153,26.182 C 19.712,26.872 19.093,27.834 18.778,28.318 L 12.997,37.296 C 12.14,38.626 11.114,40.221 10.718,40.833 C 10.323,41.445 10,41.959 10,41.975 C 10,41.988 12.224,42 14.948,42 L 19.892,41.996 L 20.515,41.002 A 4013.48,4013.48 0 0,1 25.416,33.187 C 26.196,31.942 27.099,30.5 27.426,29.982 L 28.017,29.037 L 28.01,21.519 L 27.998,13.999 L 26.849,15.787 Z" fill="rgb(254, 254, 253)"/>
<defs>
<linearGradient id="a" x1="10.418" x2="68.147" y1="9.712" y2="76.017" gradientUnits="userSpaceOnUse">
<stop stop-color="rgb(25, 29, 31)" offset="0"/>
<stop stop-color="rgb(5, 5, 8)" offset="1"/>
</linearGradient>
</defs>
</svg>
