<?xml version="1.0" encoding="UTF-8"?>
<!-- generated by Finnhub -->
<svg viewBox="0 0 55.5 55.5" xmlns="http://www.w3.org/2000/svg">
<path d="M 0,0 H 55.5 V 55.5 H 0 Z" fill="url(#b)"/>
<path d="M 28.029999999999998,44.985 A 1.5,1.5 0 0,1 26.98,44.57 L 22.74,40.4 A 1.5,1.5 0 0,1 22.72,38.27 C 23.31,37.68 24.26,37.67 24.86,38.26 L 28.04,41.39 L 39.34,30.36 A 8.2,8.2 0 0,0 39.33,19.26 A 7.02,7.02 0 0,0 34.95,17.05 A 7,7 0 0,0 29.1,19.25 A 1.51,1.51 0 0,1 26.91,19.25 A 7.07,7.07 0 0,0 22.22,17.02 A 7.03,7.03 0 0,0 16.69,19.26 A 8.18,8.18 0 0,0 14.86,27.19 A 1.5,1.5 0 0,1 11.96,28.04 A 11.2,11.2 0 0,1 14.5,17.2 A 10.05,10.05 0 0,1 22.41,14.02 A 10,10 0 0,1 28.01,16.17 A 9.91,9.91 0 0,1 41.53,17.2 A 11.24,11.24 0 0,1 41.49,32.49 L 29.1,44.57 C 28.8,44.86 28.42,45 28.04,45 Z" fill="url(#a)"/>
<path d="M 20.599999999999998,36.985 C 20.19,37 19.77,36.84 19.44,36.52 L 15.51,32.64 A 1.7,1.7 0 0,1 15.48,30.24 A 1.67,1.67 0 0,1 17.85,30.22 L 20.61,32.93 L 30.15,23.48 A 1.66,1.66 0 0,1 32.52,23.51 A 1.7,1.7 0 0,1 32.5,25.91 L 21.79,36.5 C 21.46,36.83 21.03,36.99 20.61,36.99 Z" fill="rgb(254, 254, 253)"/>
<defs>
<linearGradient id="b" x1="28" x2="28" y2="56" gradientUnits="userSpaceOnUse">
<stop stop-color="rgb(1, 160, 245)" offset="0"/>
<stop stop-color="rgb(1, 97, 176)" offset="1"/>
</linearGradient>
<linearGradient id="a" x1="28" x2="28" y1="44.58" y2="14" gradientUnits="userSpaceOnUse">
<stop stop-color="rgb(238, 155, 33)" offset="0"/>
<stop stop-color="rgb(242, 172, 46)" offset=".28"/>
<stop stop-color="rgb(244, 183, 54)" offset=".51"/>
<stop stop-color="rgb(251, 212, 76)" offset="1"/>
</linearGradient>
</defs>
</svg>
