<?xml version="1.0" encoding="UTF-8"?>
<!-- generated by Finnhub -->
<svg viewBox="0 0 55.5 55.5" xmlns="http://www.w3.org/2000/svg">
<path d="M 0,0 H 55.5 V 55.5 H 0 Z" fill="rgb(24, 57, 89)"/>
<path d="M 14.99,31.985 H 16.414 V 25.378 C 17.874,25.378 19.336,25.361 20.796,25.384 C 21.494,25.394 22.032,25.602 22.032,26.393 C 22.032,27.204 21.512,27.418 20.812,27.428 C 20.346,27.435 17.163,27.426 17.163,27.426 L 21.543,32 H 23.398 L 20.303,28.832 S 23.34,29.279 23.398,26.335 C 23.421,25.172 22.788,24 21.333,24 C 19.138,24.015 17.195,24 15,24 V 32 Z M 24.61,32 H 26 V 24 H 24.61 V 32 Z M 29.323,24 C 28.736,24 27.528,24.742 27.487,26.177 C 27.439,27.898 28.405,28.689 29.377,28.689 H 33.793 C 34.243,28.689 34.563,29.212 34.563,29.61 C 34.583,30.607 33.793,30.63 33.793,30.63 C 33.071,30.63 28.404,30.62 28.404,30.62 L 27.75,32 H 34.131 C 35.385,32.057 35.919,30.858 35.876,29.535 C 35.801,27.245 33.944,27.319 33.944,27.319 H 31.592 C 30.08,27.319 29.418,27.314 29.418,27.314 C 29.036,27.314 28.73,26.84 28.73,26.348 C 28.73,25.9 29,25.529 29.378,25.435 C 29.378,25.398 30.27,25.378 31.948,25.378 H 34.638 L 35.318,24 H 29.323 Z M 36.818,24 L 36.105,25.378 H 39 V 32 H 40.325 V 25.378 H 43 V 24 H 36.818 Z" fill="rgb(254, 254, 253)"/>
<path d="M 7.720000000000001,28.371 C 7.56,28.636 7.673,28.61 7.673,28.61 H 10.381 L 9.717,30 H 6.865 L 5.611,32 H 4 L 8.65,24.267 C 8.872,24.024 8.89,24.016 9.218,24.012 C 9.536,24.008 9.57,24.02 9.745,24.206 L 14.43,32 H 12.89 L 9.218,25.678 L 7.73,28.386 Z M 45.195,28.394 C 45.025,28.644 45.138,28.618 45.138,28.618 H 47.846 L 47.182,29.988 H 44.33 L 43.181,32 H 41.571 L 46.22,24.267 C 46.442,24.024 46.46,24.016 46.789,24.012 C 47.106,24.008 47.14,24.02 47.315,24.206 L 52,32 H 50.46 L 46.789,25.678 L 45.195,28.394 Z" fill="rgb(254, 254, 253)"/>
</svg>
