<?xml version="1.0" encoding="UTF-8"?>
<!-- generated by Finnhub -->
<svg viewBox="0 0 55.5 55.5" xmlns="http://www.w3.org/2000/svg">
<path d="M 0,0 H 55.5 V 55.5 H 0 Z" fill="url(#a)"/>
<path d="M 18.584,30.985 C 18.039,31 17.555,31.456 17.555,32.144 C 17.555,32.684 17.919,32.986 18.02,33.09 C 17.522,33.387 17.014,33.838 17,34.63 C 17.014,35.246 17.388,36 18.345,36 C 18.857,36 19.283,35.764 19.724,35.252 C 19.81,35.412 19.954,35.648 20.044,35.758 C 20.169,35.901 20.509,36 20.824,36 C 21.154,36 21.638,35.857 21.964,35.45 C 21.983,35.373 21.935,35.301 21.868,35.29 A 0.918,0.918 0 0,1 21.332,35.5 C 20.858,35.5 20.552,35.186 20.269,34.68 C 20.226,34.597 20.217,34.526 20.259,34.454 C 20.552,33.976 20.791,33.564 20.949,33.255 C 21.179,32.81 21.317,32.59 21.662,32.507 L 21.968,32.43 C 22.021,32.37 22.002,32.243 21.954,32.216 C 21.801,32.232 21.179,32.26 20.839,32.26 H 20.47 C 20.403,32.293 20.389,32.408 20.451,32.474 L 20.643,32.513 C 20.829,32.551 20.805,32.628 20.69,32.92 C 20.499,33.41 20.265,33.932 20.05,34.256 C 19.7,33.629 19.446,33.277 18.934,32.898 C 19.159,32.744 19.561,32.562 19.561,31.985 C 19.561,31.456 19.188,31 18.594,31 Z M 18.991,33.965 C 19.188,34.212 19.374,34.504 19.532,34.795 C 19.613,34.938 19.613,34.982 19.512,35.087 A 1.081,1.081 0 0,1 18.738,35.439 C 18.158,35.439 17.694,34.982 17.694,34.344 C 17.694,33.959 17.876,33.569 18.101,33.387 C 18.154,33.337 18.221,33.294 18.254,33.294 C 18.288,33.294 18.68,33.569 18.991,33.964 Z M 18.565,31.275 C 18.819,31.275 18.986,31.555 18.986,31.957 C 18.986,32.277 18.891,32.529 18.766,32.689 C 18.752,32.699 18.718,32.727 18.699,32.727 C 18.685,32.727 18.632,32.689 18.594,32.661 C 18.302,32.414 18.139,32.183 18.139,31.864 C 18.139,31.512 18.336,31.275 18.565,31.275 Z M 24.185,29.034 C 23.812,29.034 23.429,29.023 23.135,29 C 23.065,29.046 23.056,29.234 23.116,29.308 L 23.226,29.325 C 23.394,29.325 23.5,29.434 23.5,30.546 V 34.454 C 23.5,35.566 23.422,35.664 23.227,35.664 L 23.037,35.692 C 22.983,35.766 22.987,35.954 23.057,36 C 23.447,35.977 23.83,35.966 24.203,35.966 C 24.577,35.966 24.585,35.977 25.124,36 C 25.194,35.954 25.202,35.766 25.142,35.692 L 24.788,35.641 C 24.5,35.641 24.5,35.414 24.5,34.454 V 32.982 C 24.5,32.72 24.692,32.697 24.89,32.697 H 25.387 C 26.129,32.697 26.263,32.72 26.341,33.159 L 26.406,33.569 C 26.456,33.644 26.618,33.644 26.664,33.559 C 26.654,33.233 26.636,32.857 26.636,32.469 C 26.636,32.081 26.654,31.693 26.664,31.419 C 26.618,31.333 26.456,31.333 26.406,31.407 L 26.341,31.767 C 26.263,32.207 26.129,32.229 25.387,32.229 H 24.89 C 24.692,32.229 24.5,32.206 24.5,31.944 V 30.06 C 24.5,29.473 24.687,29.455 25.042,29.455 H 25.475 C 25.747,29.455 25.959,29.461 26.185,29.535 C 26.507,29.644 26.645,29.946 26.728,30.556 C 26.816,30.619 26.968,30.596 27,30.516 C 26.986,30.02 26.986,29.233 26.986,28.999 C 26.806,29.022 26.332,29.033 25.788,29.033 H 24.185 Z M 31.392,33 C 31.462,32.956 31.494,32.864 31.503,32.768 C 31.503,32.685 31.485,32.624 31.433,32.598 H 30.773 C 30.611,32.598 30.5,32.554 30.5,32.424 L 30.493,32.046 C 30.451,31.981 30.263,31.976 30.185,32.025 C 30.065,32.243 29.888,32.31 29.727,32.424 C 29.537,32.55 29.344,32.654 29.057,32.759 C 28.979,32.807 28.997,32.956 29.081,33 H 29.312 C 29.446,33 29.5,33.084 29.5,33.367 V 34.997 C 29.5,35.56 29.668,36 30.476,36 C 30.993,36 31.385,35.782 31.556,35.56 C 31.569,35.468 31.518,35.407 31.445,35.398 C 31.306,35.486 31.205,35.542 31.034,35.542 C 30.494,35.542 30.5,35.093 30.5,34.588 V 33.35 C 30.5,33.093 30.673,33 30.825,33 H 31.392 Z M 36.474,30.503 L 36.5,29.186 A 0.2,0.2 0 0,0 36.266,29.002 C 35.937,29.155 35.531,29.362 35.223,29.468 C 35.167,29.5 35.176,29.653 35.223,29.69 L 35.332,29.78 C 35.509,29.907 35.5,29.976 35.5,30.627 V 34.809 C 35.5,35.529 35.483,35.635 35.215,35.688 L 35.037,35.714 C 34.981,35.783 34.99,35.958 35.055,36 C 35.388,35.979 35.66,35.968 35.915,35.968 C 36.21,35.968 36.596,36 36.873,36.021 C 36.938,35.979 36.947,35.804 36.89,35.735 L 36.77,35.715 C 36.497,35.656 36.474,35.529 36.474,34.809 V 33.501 C 36.474,33.148 36.499,32.581 36.989,32.581 C 37.461,32.581 37.5,32.967 37.5,33.433 V 34.809 C 37.5,35.529 37.595,35.635 37.327,35.693 L 37.205,35.714 C 37.149,35.783 37.158,35.958 37.223,36 C 37.5,35.979 37.773,35.968 38.036,35.968 C 38.331,35.968 38.599,35.978 38.936,36 C 39.014,35.958 39.023,35.783 38.949,35.714 L 38.768,35.688 C 38.495,35.635 38.5,35.528 38.5,34.809 V 33.359 C 38.5,32.527 38.132,31.999 37.443,31.999 C 37.045,31.999 36.751,32.21 36.474,32.464 V 30.503 Z M 10.924,25.443 C 11.142,25.443 11.168,25.443 11.244,25.723 L 11.617,27.122 C 11.72,27.564 11.694,27.625 11.412,27.67 L 11.236,27.698 C 11.189,27.759 11.198,27.944 11.262,28 C 11.536,27.989 11.882,27.966 12.225,27.966 C 12.632,27.966 12.923,27.978 13.249,28 C 13.305,27.944 13.305,27.77 13.24,27.698 L 13.12,27.67 C 12.722,27.575 12.68,27.502 12.5,26.814 L 11.365,22.494 C 11.236,22.035 11.133,21.548 11.009,21.084 C 10.979,21.034 10.937,21 10.877,21 C 10.859,21 10.598,21.425 10.324,21.498 C 10.346,21.672 10.277,21.918 10.174,22.248 L 9.095,25.918 C 8.928,26.472 8.805,26.903 8.705,27.172 C 8.59,27.513 8.505,27.608 8.273,27.648 L 8.038,27.698 C 7.982,27.793 7.991,27.944 8.046,28 C 8.32,27.978 8.564,27.966 8.826,27.966 C 9.151,27.978 9.408,27.978 9.661,28 C 9.725,27.955 9.733,27.77 9.678,27.698 L 9.451,27.648 C 9.155,27.598 9.125,27.564 9.284,26.959 L 9.604,25.723 C 9.678,25.443 9.669,25.443 9.874,25.443 H 10.924 Z M 9.999,24.978 C 9.81,24.978 9.789,24.978 9.875,24.682 L 10.205,23.473 C 10.345,22.992 10.41,22.735 10.44,22.662 H 10.457 C 10.495,22.735 10.543,22.93 10.68,23.473 L 11.01,24.71 C 11.074,24.956 11.04,24.978 10.821,24.978 H 9.999 Z M 14.5,22.466 C 14.5,22.054 14.481,21.467 14.5,21.081 C 14.481,21.034 14.429,20.99 14.376,21.001 C 14.013,21.151 13.506,21.455 13.171,21.56 C 13.109,21.591 13.118,21.742 13.171,21.779 L 13.295,21.867 C 13.486,21.993 13.495,22.06 13.495,22.702 V 27.03 C 13.495,27.39 13.467,27.896 13.467,27.932 C 13.467,27.964 13.52,28 13.557,28 C 13.582,28 13.601,28 13.62,27.995 C 13.672,27.927 13.897,27.739 14.002,27.739 C 14.107,27.739 14.517,28 15.172,28 C 16.322,28 17.254,27.213 17.254,25.846 C 17.254,24.782 16.604,23.797 15.573,23.797 C 15.224,23.797 14.933,23.941 14.651,24.124 C 14.599,24.124 14.501,24.104 14.501,23.973 V 22.466 Z M 14.5,24.969 C 14.5,24.64 14.599,24.515 14.675,24.458 A 0.81,0.81 0 0,1 15.11,24.332 C 15.73,24.332 16.179,24.952 16.179,26.078 C 16.179,26.892 15.95,27.614 15.363,27.614 A 0.71,0.71 0 0,1 14.775,27.291 C 14.632,27.087 14.5,26.748 14.5,26.326 V 24.97 Z M 40.246,22.466 C 40.246,22.054 40.227,21.466 40.246,21.081 C 40.227,21.034 40.175,20.99 40.122,21 C 39.759,21.151 39.252,21.455 38.917,21.56 C 38.855,21.591 38.864,21.742 38.917,21.779 L 39.041,21.867 C 39.232,21.992 39.241,22.06 39.241,22.702 V 27.03 C 39.241,27.39 39.213,27.896 39.213,27.932 C 39.213,27.963 39.266,28 39.303,28 C 39.328,28 39.347,28 39.366,27.995 C 39.419,27.927 39.643,27.739 39.748,27.739 C 39.853,27.739 40.264,27.999 40.918,27.999 C 42.068,27.999 43,27.212 43,25.846 C 43,24.782 42.35,23.797 41.319,23.797 C 40.97,23.797 40.679,23.941 40.397,24.124 C 40.345,24.124 40.247,24.104 40.247,23.973 V 22.466 Z M 40.246,24.968 C 40.246,24.64 40.345,24.515 40.421,24.458 A 0.81,0.81 0 0,1 40.856,24.332 C 41.476,24.332 41.925,24.952 41.925,26.078 C 41.925,26.892 41.696,27.614 41.109,27.614 A 0.71,0.71 0 0,1 40.521,27.291 C 40.378,27.087 40.246,26.748 40.246,26.326 V 24.968 Z M 19.907,25.622 C 20.242,25.622 20.432,25.58 20.482,25.498 A 0.46,0.46 0 0,0 20.527,25.277 C 20.527,24.453 19.893,24 19.277,24 C 18.157,24 17.515,25.035 17.515,26.105 C 17.515,27.181 18.158,28 19.123,28 C 19.635,28 20.251,27.717 20.536,26.955 C 20.527,26.873 20.432,26.775 20.35,26.805 C 20.16,27.155 19.884,27.279 19.549,27.279 C 18.806,27.279 18.289,26.595 18.289,25.745 C 18.289,25.632 18.307,25.622 18.466,25.622 H 19.906 Z M 18.475,25.241 C 18.375,25.241 18.357,25.215 18.357,25.174 C 18.357,24.973 18.616,24.36 19.173,24.36 C 19.535,24.36 19.725,24.633 19.725,24.973 C 19.725,25.061 19.694,25.138 19.644,25.173 C 19.584,25.215 19.476,25.241 19.232,25.241 H 18.475 Z M 25.379,24 C 23.999,24 23.267,25.014 23.267,26.121 C 23.267,26.671 23.462,27.166 23.765,27.485 C 24.055,27.799 24.502,28 24.959,28 C 25.5,28 26.157,27.732 26.469,26.965 C 26.46,26.852 26.367,26.785 26.288,26.795 C 26.116,27.068 25.92,27.3 25.36,27.3 C 24.581,27.3 24.294,26.569 24.294,25.802 C 24.294,24.912 24.642,24.381 25.132,24.381 C 25.462,24.381 25.724,24.68 25.91,24.957 C 25.97,25.04 26.013,25.061 26.073,25.061 C 26.143,25.061 26.288,24.916 26.288,24.618 C 26.288,24.396 26.228,24.248 26.116,24.134 A 1.927,1.927 0 0,0 25.379,24 Z M 33.678,32 C 32.298,32 31.565,33.014 31.565,34.121 C 31.565,34.671 31.761,35.166 32.065,35.485 C 32.353,35.799 32.801,36 33.258,36 C 33.798,36 34.456,35.732 34.768,34.965 C 34.759,34.852 34.666,34.785 34.587,34.795 C 34.414,35.068 34.218,35.3 33.659,35.3 C 32.88,35.3 32.593,34.569 32.593,33.802 C 32.593,32.912 32.941,32.381 33.43,32.381 C 33.761,32.381 34.023,32.679 34.21,32.958 C 34.27,33.04 34.312,33.06 34.372,33.06 C 34.442,33.06 34.587,32.916 34.587,32.618 C 34.587,32.396 34.527,32.248 34.414,32.134 A 1.927,1.927 0 0,0 33.678,32 Z M 27,26.85 C 27,27.545 26.954,27.647 26.68,27.698 L 26.535,27.724 C 26.478,27.791 26.487,27.959 26.549,28 C 26.857,27.98 27.126,27.97 27.395,27.97 C 27.695,27.97 27.972,27.98 28.457,28 C 28.523,27.96 28.532,27.79 28.474,27.724 L 28.257,27.698 C 27.975,27.658 28,27.545 28,26.85 V 25.571 C 28,25.106 27.968,24.893 28.157,24.893 C 28.205,24.893 28.263,24.904 28.465,25.063 A 0.378,0.378 0 0,0 28.685,25.139 C 28.902,25.139 29.14,24.96 29.14,24.593 C 29.14,24.347 28.977,24.133 28.69,24.133 C 28.417,24.133 28.33,24.413 28.08,24.623 C 28.03,24.623 28,24.573 28,24.511 C 28,24.424 27.99,24.266 28,24.087 C 27.986,24.031 27.951,24 27.903,24 C 27.656,24.169 27.047,24.378 26.699,24.51 C 26.663,24.557 26.663,24.684 26.689,24.725 L 26.787,24.792 C 26.989,24.93 27,25.042 27,25.466 V 26.85 Z" fill="rgb(254, 254, 253)"/>
<path d="M 20.99,26.835 C 21,27.545 20.954,27.647 20.68,27.698 L 20.535,27.724 C 20.478,27.791 20.487,27.959 20.549,28 C 20.857,27.98 21.126,27.97 21.395,27.97 C 21.695,27.97 21.972,27.98 22.457,28 C 22.523,27.96 22.532,27.79 22.474,27.724 L 22.257,27.698 C 21.975,27.658 22,27.545 22,26.85 V 25.571 C 22,25.106 21.968,24.893 22.157,24.893 C 22.205,24.893 22.263,24.904 22.465,25.063 A 0.378,0.378 0 0,0 22.685,25.139 C 22.902,25.139 23.14,24.96 23.14,24.593 C 23.14,24.347 22.977,24.133 22.69,24.133 C 22.417,24.133 22.33,24.413 22.08,24.623 C 22.03,24.623 22,24.573 22,24.511 C 22,24.424 21.99,24.266 22,24.087 C 21.986,24.031 21.951,24 21.903,24 C 21.656,24.169 21.047,24.378 20.699,24.51 C 20.663,24.557 20.663,24.684 20.689,24.725 L 20.787,24.792 C 20.989,24.93 21,25.042 21,25.466 V 26.85 Z M 31.035,24 C 29.95,24 29,24.798 29,26.064 C 29,27.305 29.894,28 30.965,28 C 32.07,28 33,27.3 33,25.951 C 33,24.721 32.086,24 31.035,24 Z M 30,25.951 C 30,24.896 30.47,24.381 30.944,24.381 C 31.631,24.381 32,25.271 32,26.064 C 32,26.795 31.717,27.619 31.076,27.619 C 30.404,27.619 30,26.811 30,25.951 Z M 33.5,26.85 C 33.5,27.545 33.448,27.647 33.178,27.699 L 33.037,27.724 C 32.981,27.791 32.99,27.959 33.054,28 C 33.354,27.98 33.611,27.97 33.872,27.97 C 34.164,27.97 34.587,27.98 34.861,28 C 34.925,27.96 34.934,27.79 34.878,27.724 L 34.758,27.704 C 34.493,27.648 34.5,27.545 34.5,26.851 V 25.589 C 34.5,25.221 34.51,24.981 34.51,24.981 C 34.51,24.791 34.7,24.603 34.97,24.603 C 35.428,24.603 35.5,25.073 35.5,25.573 V 26.851 C 35.5,27.545 35.539,27.648 35.269,27.704 L 35.166,27.724 C 35.11,27.791 35.119,27.959 35.183,28 A 10.857,10.857 0 0,1 36.798,28 C 36.863,27.96 36.871,27.79 36.815,27.724 L 36.695,27.704 C 36.43,27.648 36.5,27.545 36.5,26.851 V 25.466 C 36.5,25.206 36.556,24.926 36.556,24.926 C 36.627,24.726 36.796,24.603 37.028,24.603 C 37.525,24.603 37.5,25.073 37.5,25.573 V 26.851 C 37.5,27.545 37.516,27.653 37.25,27.704 L 37.122,27.729 C 37.066,27.796 37.075,27.959 37.139,28 C 37.422,27.98 37.801,27.97 38.062,27.97 C 38.353,27.97 38.619,27.98 38.962,28 C 38.992,27.96 39.03,27.79 38.962,27.724 L 38.786,27.699 C 38.516,27.647 38.5,27.545 38.5,26.851 V 25.395 C 38.5,24.659 38.175,24 37.51,24 C 36.972,24 36.723,24.294 36.49,24.567 C 36.396,24.633 36.374,24.669 36.34,24.669 C 36.31,24.669 36.263,24.613 36.216,24.526 C 36.104,24.347 35.836,24 35.496,24 C 34.772,24 34.561,24.336 34.493,24.51 C 34.493,24.434 34.493,24.255 34.511,24.077 C 34.493,24.036 34.464,24 34.408,24 C 34.155,24.169 33.542,24.393 33.195,24.51 C 33.161,24.557 33.161,24.684 33.187,24.725 L 33.281,24.792 C 33.478,24.93 33.5,25.042 33.5,25.466 V 26.851 Z M 44.502,25.336 C 44.502,24.971 44.483,24.413 44.502,24.116 C 44.474,24.073 44.433,24.01 44.38,24 C 44.135,24.151 43.675,24.537 43.22,24.674 C 43.18,24.718 43.18,24.839 43.21,24.878 L 43.315,24.942 C 43.536,25.073 43.5,25.18 43.5,25.584 V 26.904 C 43.5,27.567 43.503,27.664 43.2,27.713 L 43.041,27.737 C 42.979,27.8 42.989,27.961 43.061,28 A 15.805,15.805 0 0,1 44.944,28 C 45.011,27.961 45.021,27.8 44.958,27.737 L 44.8,27.713 C 44.502,27.664 44.5,27.567 44.5,26.904 L 44.502,25.336 Z M 43.997,23.13 A 0.546,0.546 0 0,0 44.564,22.565 A 0.546,0.546 0 0,0 43.997,22 A 0.546,0.546 0 0,0 43.431,22.565 C 43.431,22.886 43.661,23.13 43.997,23.13 Z M 28.503,33.336 C 28.503,32.971 28.483,32.413 28.503,32.116 C 28.473,32.072 28.433,32.01 28.38,32 C 28.135,32.151 27.676,32.537 27.22,32.674 C 27.18,32.718 27.18,32.839 27.21,32.878 L 27.315,32.942 C 27.536,33.073 27.5,33.18 27.5,33.584 V 34.904 C 27.5,35.566 27.503,35.664 27.2,35.713 L 27.041,35.737 C 26.979,35.8 26.989,35.961 27.061,36 A 15.805,15.805 0 0,1 28.944,36 C 29.011,35.961 29.021,35.8 28.958,35.737 L 28.8,35.713 C 28.502,35.664 28.5,35.566 28.5,34.904 L 28.503,33.336 Z M 27.997,31.13 A 0.546,0.546 0 0,0 28.564,30.565 A 0.546,0.546 0 0,0 27.997,30 A 0.546,0.546 0 0,0 27.43,30.565 C 27.43,30.886 27.661,31.13 27.997,31.13 Z M 47.375,25.622 C 47.708,25.622 47.897,25.58 47.946,25.498 A 0.463,0.463 0 0,0 47.991,25.277 A 1.23,1.23 0 0,0 46.75,24 C 45.639,24 45,25.035 45,26.105 C 45,27.181 45.639,28 46.597,28 C 47.105,28 47.717,27.717 48,26.955 C 47.991,26.873 47.897,26.775 47.816,26.805 C 47.626,27.155 47.352,27.279 47.019,27.279 C 46.282,27.279 45.769,26.595 45.769,25.745 C 45.769,25.632 45.787,25.622 45.944,25.622 H 47.374 Z M 45.953,25.241 C 45.855,25.241 45.837,25.215 45.837,25.174 C 45.837,24.973 46.093,24.36 46.647,24.36 C 47.006,24.36 47.195,24.633 47.195,24.973 C 47.195,25.061 47.163,25.138 47.114,25.173 C 47.056,25.215 46.948,25.241 46.704,25.241 H 45.954 Z" fill="rgb(254, 254, 253)"/>
<defs>
<linearGradient id="a" x1="10.418" x2="68.147" y1="9.712" y2="76.017" gradientUnits="userSpaceOnUse">
<stop stop-color="rgb(25, 29, 31)" offset="0"/>
<stop stop-color="rgb(5, 5, 8)" offset="1"/>
</linearGradient>
</defs>
</svg>
