<?xml version="1.0" encoding="UTF-8"?>
<!-- generated by Finnhub -->
<svg viewBox="0 0 55.5 55.5" xmlns="http://www.w3.org/2000/svg">
<path d="M 0,0 H 55.5 V 55.5 H 0 Z" fill="rgb(27, 75, 101)"/>
<path d="M 15.247,25.974999999999998 L 14.44,24 H 10.016 L 9.258,25.99 H 8.14 L 11.778,17.011 H 12.764 L 16.404,25.991 H 15.258 Z M 12.242,18.279 L 10.407,22.997 H 14.097 L 12.242,18.279 Z M 27.198,26 L 22,18.465 V 26 H 21 V 17 H 22.05 L 27,24.145 V 17 H 28 V 26 H 27.198 Z M 40.218,25.991 L 40.098,24.866 S 39.485,26.125 37.383,26.125 C 34.903,26.125 33.176,24.328 33.176,21.501 C 33.176,18.673 35.128,16.884 37.533,16.884 C 39.937,16.884 40.913,18.568 40.913,18.568 L 40.237,19.063 S 39.557,17.647 37.519,17.647 S 34.109,19.23 34.109,21.493 S 35.416,25.34 37.462,25.34 C 39.507,25.34 39.999,24.01 39.999,24.01 V 23 H 37.999 V 22.004 H 40.999 V 25.994 L 40.218,25.991 Z M 47,26 V 17 H 48 V 26 H 47 Z M 14,38 V 34 H 10 V 38 H 8 V 28 H 10 V 32 H 14 V 28 H 16 V 38 H 14 Z M 22.636,38.15 C 19.706,38.15 17.861,36.132 17.861,32.998 C 17.861,29.864 19.709,27.862 22.641,27.862 C 25.571,27.862 27.4,29.872 27.4,32.998 C 27.4,36.124 25.567,38.151 22.636,38.151 Z M 22.636,29.903 C 21.088,29.903 20.006,31.223 20.006,32.967 C 20.006,34.712 21.08,36.197 22.636,36.197 C 24.192,36.197 25.183,34.727 25.183,32.965 C 25.183,31.205 24.185,29.903 22.636,29.903 Z M 37,38 V 31.25 L 35.154,38 H 33.019 L 31,31.25 V 38 H 29 V 28 H 32.132 L 34.148,35.04 L 36.178,28 H 39 V 38 H 37 Z M 41,37.985 V 28.015 H 48 V 30 H 43 V 32 H 47 V 34 H 43 V 36 H 48 V 37.985 H 41 Z" fill="rgb(254, 254, 253)"/>
</svg>
