<?xml version="1.0" encoding="UTF-8"?>
<!-- generated by Finnhub -->
<svg viewBox="0 0 55.5 55.5" xmlns="http://www.w3.org/2000/svg">
<path d="M 0,0 H 55.5 V 55.5 H 0 Z" fill="rgb(230, 28, 26)"/>
<path d="M 29.445999999999998,23.457 C 27.001,23.457 24.746,24.968 23.746,27.295 L 24.669,34.022 A 6.062,6.062 0 0,0 28.071,36.118 C 30.706,36.694 33.314,35.433 34.649,33.173 L 34.165,36 H 37.713 L 38.793,29.853 L 41.418,36 H 44.895 L 47,24 H 43.46 L 42.375,29.9 L 39.688,24 H 36.272 L 35.443,28.578 C 34.893,25.72 32.383,23.49 29.456,23.472 Z M 29.386,26.676 C 31.403,26.652 32.38,28.982 31.855,30.715 C 31.351,32.375 29.791,33.318 28.37,32.821 C 26.948,32.323 26.205,30.574 26.708,28.914 C 27.117,27.565 28.224,26.69 29.387,26.676 Z" fill="rgb(254, 254, 253)"/>
<path d="M 17.99,19.985 L 12.684,30 H 10.434 L 9,33 H 11.251 L 9.631,36 H 13.495 L 15.113,33 H 19.882 L 19.446,30 H 16.634 L 19.271,24.774 L 20.997,36 H 24.282 L 22,20 H 18 Z" fill="rgb(254, 254, 253)"/>
</svg>
