<?xml version="1.0" encoding="UTF-8"?>
<!-- generated by Finnhub -->
<svg viewBox="0 0 55.5 55.5" xmlns="http://www.w3.org/2000/svg">
<path d="M 0,0 H 55.5 V 55.5 H 0 Z" fill="rgb(1, 125, 66)"/>
<path d="M 30.708,27.762 C 30.718,30.977 33.323,33.469 36.208,33.469 C 39.094,33.469 41.698,30.977 41.698,27.777 C 41.698,24.576 39.094,22.084 36.208,22.084 C 33.323,22.084 30.718,24.576 30.718,27.777 Z M 36.208,36.356 C 31.408,36.356 27.602,32.604 27.602,27.776 C 27.602,22.949 31.407,19.198 36.208,19.198 C 39.301,19.198 41.979,20.756 43.494,23.155 C 41.123,17.752 34.945,14 28.259,14 C 19.715,14 12,20.129 12,28 C 12,30.319 12.674,32.484 13.836,34.389 L 20,20 H 22 L 28.748,36 H 25.556 L 24.33,33 H 17.537 L 15.978,37.084 C 19.032,40.11 23.517,42 28.26,42 C 35.496,42 42.136,37.604 44,31.477 C 42.633,34.391 39.681,36.356 36.208,36.356 Z M 18.61,30 H 23.283 L 21,24 L 18.61,30 Z" fill="rgb(254, 254, 253)"/>
</svg>
