<?xml version="1.0" encoding="UTF-8"?>
<!-- generated by Finnhub -->
<svg viewBox="0 0 55.5 55.5" xmlns="http://www.w3.org/2000/svg">
<path d="M 0,0 H 55.5 V 55.5 H 0 Z" fill="rgb(8, 156, 251)"/>
<path d="M 38.99,24.485 C 38.59,23.77 38.05,23.15 37.2,23.04 L 37,23 V 33 L 37.2,32.97 C 38.38,32.84 39.02,31.83 39,30.62 V 28 C 39.01,26.58 40.46,25.41 41.85,25.26 L 42,25.24 V 23.01 L 41.82,23.03 C 40.82,23.15 39.92,23.6 39.22,24.3 M 20,31 A 3,3 0 1,0 20,25 A 3,3 0 0,0 20,31 Z M 25,28 A 5,5 0 0,1 22.75,32.17 L 23.07,32.47 A 5,5 0 0,1 23.07,39.54 L 21.66,38.12 A 3,3 0 0,0 17.41,33.88 L 16,32.46 C 16.24,32.22 16.5,32.01 16.78,31.83 A 4.99,4.99 0 0,1 20,23 H 25 C 24.88,23.5 24.5,24.36 23.82,24.77 C 24.55,25.64 25,26.77 25,28 Z" fill="rgb(239, 242, 248)"/>
<path d="M 30.99,30.985 A 3,3 0 1,0 31,25 A 3,3 0 0,0 31,31 Z M 31,33 A 5,5 0 1,0 31,23 A 5,5 0 0,0 31,33 Z" fill="rgb(239, 242, 248)" fill-rule="evenodd"/>
<path d="M 50.32,24.255 A 5,5 0 1,0 50.29,31.77 C 50.72,32.4 51.53,33 52,33 V 23 C 51.46,23 50.75,23.68 50.33,24.27 Z M 50,28 A 3,3 0 1,1 44,28 A 3,3 0 0,1 50,28 Z M 12.33,24.27 A 5,5 0 1,0 12.29,31.77 C 12.72,32.4 13.53,33 14,33 V 23 C 13.46,23 12.75,23.68 12.33,24.27 Z M 12,28 A 3,3 0 1,1 6,28 A 3,3 0 0,1 12,28 Z" fill="rgb(239, 242, 248)"/>
</svg>
