<?xml version="1.0" encoding="UTF-8"?>
<!-- generated by Finnhub -->
<svg viewBox="0 0 55.5 55.5" xmlns="http://www.w3.org/2000/svg">
<path d="M 0,0 H 55.5 V 55.5 H 0 Z" fill="rgb(1, 124, 83)"/>
<path d="M 7.25,25.326 C 7.105,25.511 6.552,26.744 6.017,28.096 C 4.74,31.273 4.584,31.56 4.136,31.78 C 3.825,31.915 4.015,31.965 5.051,31.949 C 5.758,31.949 6.172,31.898 5.965,31.864 C 5.292,31.78 5.189,31.424 5.534,30.444 L 5.844,29.532 H 8.416 L 8.71,30.14 C 9.363,31.966 9.106,31.713 8.71,31.864 C 8.4,31.982 8.762,31.965 9.797,31.965 C 11.023,31.982 11.127,31.949 10.747,31.763 C 10.434,31.763 10.057,30.918 9.021,28.4 C 8.296,26.66 7.674,25.19 7.622,25.139 C 7.571,25.088 7.398,25.189 7.26,25.341 Z M 7.709,27.707 C 7.95,28.282 8.157,28.839 8.157,28.941 C 8.157,29.042 7.709,29.11 7.105,29.11 C 6.328,29.11 6.069,29.059 6.121,28.89 C 6.172,28.789 6.397,28.18 6.621,27.555 C 6.846,26.93 7.087,26.474 7.139,26.541 C 7.209,26.609 7.467,27.133 7.709,27.707 Z M 47.84,25.084 C 46.183,25.37 44.992,26.817 45.027,28.533 C 45.044,29.728 45.337,30.35 46.287,31.192 C 48.427,33.076 52,31.444 52,28.583 C 52,26.329 50.084,24.713 47.84,25.083 Z M 49.583,25.74 C 50.705,26.53 51.258,28.65 50.723,30.047 C 49.843,32.268 47.27,32.167 46.373,29.879 C 45.976,28.869 46.097,26.969 46.58,26.312 C 47.357,25.285 48.617,25.033 49.584,25.74 Z M 23.84,25.053 C 22.183,25.339 20.992,26.786 21.027,28.503 C 21.044,29.697 21.337,30.32 22.287,31.161 C 24.427,33.045 28,31.413 28,28.553 C 28,26.298 26.084,24.683 23.84,25.053 Z M 25.584,25.709 C 26.705,26.5 27.258,28.62 26.723,30.017 C 25.843,32.237 23.27,32.137 22.373,29.848 C 21.976,28.838 22.097,26.938 22.58,26.281 C 23.357,25.255 24.617,25.002 25.584,25.709 Z M 13.232,25.213 C 13.198,25.283 13.336,25.353 13.542,25.387 C 13.94,25.44 13.94,25.457 13.94,28.493 V 31.529 C 13.94,31.866 13.445,31.898 13.445,31.898 C 13.07,31.965 13.199,31.965 14.63,31.965 C 15.493,31.965 16.012,32 15.822,31.965 C 14.83,31.634 15.062,31.828 15.062,28.354 V 25.3 L 15.77,25.405 C 17.6,25.649 17.996,27.568 16.46,28.615 C 15.96,28.965 15.925,29.017 16.253,29.017 C 16.805,29.017 17.686,28.597 18.083,28.144 C 18.911,27.219 18.29,25.492 17.064,25.265 C 16.27,25.108 13.319,25.073 13.232,25.213 Z M 38.146,25.319 C 38.112,25.405 38.233,25.457 38.422,25.457 C 38.612,25.457 38.82,25.526 38.872,25.629 C 38.958,25.749 39.009,29.107 38.958,31.346 C 38.958,31.501 38.751,31.707 38.492,31.793 C 38.129,31.931 38.664,31.983 40.632,31.983 L 43.255,32 L 43.445,31.294 C 43.687,30.416 43.566,30.244 43.204,30.932 A 1.54,1.54 0 0,1 42.324,31.656 C 41.633,31.879 40.459,31.742 40.166,31.397 C 40.045,31.26 39.993,30.227 40.028,28.453 C 40.08,25.801 40.097,25.715 40.477,25.543 C 40.684,25.457 40.857,25.336 40.857,25.284 C 40.857,25.147 38.25,25.181 38.147,25.319 Z M 30.104,25.288 C 30.069,25.374 30.19,25.426 30.38,25.426 C 30.57,25.426 30.777,25.495 30.829,25.598 C 30.915,25.718 30.967,29.077 30.915,31.315 C 30.915,31.47 30.708,31.677 30.449,31.763 C 30.086,31.9 30.621,31.953 32.589,31.953 L 35.213,31.969 L 35.403,31.263 C 35.644,30.385 35.523,30.213 35.161,30.902 A 1.54,1.54 0 0,1 34.281,31.625 C 33.591,31.849 32.417,31.711 32.123,31.367 C 32.003,31.229 31.951,30.196 31.985,28.422 C 32.037,25.77 32.055,25.684 32.434,25.512 C 32.641,25.426 32.814,25.305 32.814,25.254 C 32.814,25.116 30.207,25.15 30.104,25.288 Z" fill="rgb(254, 254, 253)"/>
</svg>
