<?xml version="1.0" encoding="UTF-8"?>
<!-- generated by Finnhub -->
<svg viewBox="0 0 55.5 55.5" xmlns="http://www.w3.org/2000/svg">
<path d="M 0,0 H 55.5 V 55.5 H 0 Z" fill="rgb(3, 181, 223)"/>
<path d="M 27.99,11.985 A 4,4 0 0,0 24.68,18.23 L 16.23,33.2 A 4.05,4.05 0 0,0 11,37.03 A 3.96,3.96 0 0,0 15,41 A 4.02,4.02 0 0,0 19,37.02 C 19,36.27 18.8,35.54 18.41,34.92 C 20.64,34.43 24.06,34.01 28.01,34 C 31.04,34 34.32,34.18 37.57,34.95 A 3.99,3.99 0 0,0 40.22,40.92 A 4,4 0 1,0 39.62,33.25 L 31.32,18.22 A 4,4 0 0,0 28,12 Z M 26.22,19.58 A 4,4 0 0,0 29.8,19.58 L 37.1,32.8 C 33.95,32.16 30.84,32 28.01,32.01 C 24.37,32.01 21.12,32.37 18.76,32.81 L 26.23,19.59 Z M 30,16 A 2,2 0 1,1 26,16 A 2,2 0 0,1 30,16 Z M 15,39 A 2,2 0 1,0 15,35 A 2,2 0 0,0 15,39 Z M 43,37 A 2,2 0 1,1 39,37 A 2,2 0 0,1 43,37 Z" fill="rgb(254, 254, 253)" fill-rule="evenodd"/>
</svg>
