<?xml version="1.0" encoding="UTF-8"?>
<!-- generated by Finnhub -->
<svg viewBox="0 0 55.5 55.5" xmlns="http://www.w3.org/2000/svg">
<path d="M 0,0 H 55.5 V 55.5 H 0 Z" fill="rgb(220, 2, 30)"/>
<path d="M 26.99,23.985 V 24.778 C 27.445,24.228 27.748,24.005 28.503,24.005 C 30.186,24.005 31,24.9 31,26.79 V 31.142 C 31,31.812 30.942,32.279 30.767,32.707 C 30.477,33.541 29.697,34 28.599,34 C 27.863,34 27.479,33.832 27,33.382 V 37 H 25 V 24 H 27 Z M 28,32 C 28.716,32 29,31.489 29,30.716 V 27.34 C 29,26.547 28.735,25.999 28,25.999 S 27,26.547 27,27.339 V 30.715 C 27,31.489 27.264,31.999 28,31.999 Z M 20,24.005 V 24.782 C 20.445,24.232 20.748,24.009 21.503,24.009 C 23.186,24.009 24,24.904 24,26.794 V 31.146 C 24,31.816 23.942,32.284 23.767,32.712 C 23.477,33.545 22.697,34.005 21.599,34.005 C 20.863,34.005 20.479,33.836 20,33.386 V 37.005 H 18 V 24.005 H 20 Z M 21,32.005 C 21.716,32.005 22,31.493 22,30.72 V 27.345 C 22,26.553 21.735,26.005 21,26.005 S 20,26.553 20,27.345 V 30.72 C 20,31.495 20.264,32.005 21,32.005 Z M 34,24.005 H 32 V 34 H 34 V 24.005 Z M 35,27 V 26.682 C 35,24.895 36.117,24 38.078,24 C 40.038,24 41,24.834 41,26.682 V 34 H 39 V 33.227 C 38.653,33.756 38.25,34 37.365,34 C 35.807,34 35,33.247 35,31.804 V 30.646 C 35,29.427 35.422,28.836 36.558,28.451 L 39,27.617 V 27.191 C 39,26.44 38.635,26.022 38,26 C 37.365,25.978 37,26.56 37,27 H 35 Z M 37.635,29.64 C 37.097,29.824 37,30.108 37,30.78 V 31.046 C 37,31.736 37.604,32 38,32 S 39,31.804 39,31 V 29.181 L 37.635,29.641 Z M 42,24 H 44 V 24.846 C 44.455,24.287 44.977,23.976 45.679,24.001 C 46.329,24.001 46.977,24.228 47.37,24.599 C 47.557,24.776 47.705,24.994 47.803,25.237 C 47.98,25.649 48,25.875 48,26.679 V 34 H 46 V 27.192 C 46,26.389 45.689,25.997 45,25.997 C 44.311,25.997 44,26.389 44,27.192 V 34 H 42 V 24 Z M 17,34 V 20 H 13 L 8,34 H 10 L 11.072,30.868 C 11.357,30.26 11.829,30.13 12.344,29.951 L 15,28.998 V 34 H 17 Z M 12.11,28 L 14,22 H 15 V 27.002 L 12.11,28 Z M 34.474,21.442 L 33.054,20 H 32.94 L 31.526,21.438 V 21.56 L 32.944,23 H 33.054 L 34.474,21.557 V 21.442 Z" fill="rgb(254, 254, 253)"/>
</svg>
