<?xml version="1.0" encoding="UTF-8"?>
<!-- generated by Finnhub -->
<svg viewBox="0 0 55.5 55.5" xmlns="http://www.w3.org/2000/svg">
<path d="M 0,0 H 55.5 V 55.5 H 0 Z" fill="url(#a)"/>
<path d="M 50.853,26.564 A 1.137,1.137 0 1,0 50.863,28.852 A 1.137,1.137 0 0,0 50.863,26.579 Z M 6.273,27.716 A 1.137,1.137 0 1,1 4,27.716 A 1.137,1.137 0 0,1 6.273,27.716 Z" fill="rgb(247, 63, 22)"/>
<path d="M 39.436,24.985 H 41.037 L 42.14,29.521 H 42.5 L 43.595,25 H 45.153 L 43.527,31 H 41.08 L 39.446,25 Z M 34.5,31 H 36 V 25 H 34.5 V 31 Z M 31.003,26.378 H 29.255 V 31 H 27.735 V 26.378 H 26 V 25 H 31.003 V 26.378 Z M 20.634,27.648 C 21.231,27.648 21.46,27.428 21.46,27 C 21.46,26.572 21.231,26.361 20.634,26.361 H 19.556 V 27.647 H 20.634 Z M 20.831,25 C 22.211,25 23.012,25.723 23.012,26.975 C 23.012,28.244 22.212,29 20.831,29 H 19.556 V 31 H 18 V 25 H 20.83 Z M 11.609,28.01 H 12.793 L 12.39,26.48 H 12.03 L 11.609,28.01 Z M 15.127,31 H 13.615 L 13.075,29.3 H 11.317 L 10.813,31 H 9.333 L 11.083,25 H 13.378 L 15.127,31 Z" fill="rgb(254, 254, 253)"/>
<defs>
<linearGradient id="a" x1="10.418" x2="68.147" y1="9.712" y2="76.017" gradientUnits="userSpaceOnUse">
<stop stop-color="rgb(25, 29, 31)" offset="0"/>
<stop stop-color="rgb(5, 5, 8)" offset="1"/>
</linearGradient>
</defs>
</svg>
