<?xml version="1.0" encoding="UTF-8"?>
<!-- generated by Finnhub -->
<svg viewBox="0 0 55.5 55.5" xmlns="http://www.w3.org/2000/svg">
<path d="M 0,0 H 55.5 V 55.5 H 0 Z" fill="rgb(144, 170, 189)"/>
<path d="M 27.49,44.979 C 36.613,44.994 44,37.447 44,28.138 S 36.613,11.283 27.5,11.283 S 11,18.829 11,28.138 C 11,37.448 18.387,44.994 27.5,44.994 Z M 28.165,43.906 C 36.323,43.906 42.935,37.151 42.935,28.818 S 36.323,13.729 28.165,13.729 C 20.008,13.729 13.395,20.485 13.395,28.818 S 20.008,43.906 28.165,43.906 Z" fill="rgb(254, 254, 253)" fill-rule="evenodd"/>
<path d="M 13.950000000000001,47.266999999999996 C 17.978,50.204 27.251,43.94 34.672,33.291 C 42.092,22.641 44.85,11.64 40.832,8.718 C 36.812,5.796 27.54,12.06 20.119,22.709 C 12.7,33.36 9.941,44.36 13.96,47.282 Z M 14.531,45.128 C 17.901,47.578 26.148,41.648 32.952,31.884 C 39.756,22.119 42.541,12.217 39.171,9.767 S 27.554,13.247 20.75,23.011 C 13.946,32.776 11.162,42.678 14.531,45.128 Z" fill="rgb(254, 254, 253)" fill-rule="evenodd"/>
</svg>
