<?xml version="1.0" encoding="UTF-8"?>
<!-- generated by Finnhub -->
<svg viewBox="0 0 55.5 55.5" xmlns="http://www.w3.org/2000/svg">
<path d="M 0,0 H 55.5 V 55.5 H 0 Z" fill="rgb(239, 242, 248)"/>
<path d="M 27.99,41.985 C 31.18,42 34.13,41.17 36.6,39.77 C 36.39,39.77 36.16,39.88 35.86,40.03 L 35.84,40.05 C 35.58,40.18 35.25,40.35 34.91,40.35 C 34.58,40.35 34.25,40.18 33.98,40.05 L 33.96,40.03 A 1.8,1.8 0 0,0 33.21,39.77 C 32.99,39.77 32.76,39.88 32.46,40.03 L 32.44,40.05 C 32.18,40.18 31.85,40.35 31.51,40.35 C 31.18,40.35 30.85,40.18 30.58,40.05 L 30.56,40.03 A 1.8,1.8 0 0,0 29.81,39.77 C 29.59,39.77 29.36,39.88 29.06,40.03 L 29.04,40.05 C 28.78,40.18 28.45,40.35 28.11,40.35 C 27.8,40.35 27.6,40.2 27.44,40.08 L 27.35,40.02 A 1.5,1.5 0 0,0 26.41,39.77 C 25.9,39.77 25.66,39.9 25.48,40.02 L 25.39,40.08 C 25.23,40.2 25.03,40.35 24.71,40.35 C 24.38,40.35 24.05,40.18 23.78,40.05 L 23.76,40.03 A 1.8,1.8 0 0,0 23.01,39.77 C 22.79,39.77 22.56,39.88 22.26,40.03 L 22.24,40.05 C 21.98,40.18 21.65,40.35 21.31,40.35 C 21,40.35 20.8,40.2 20.64,40.08 L 20.55,40.02 A 1.5,1.5 0 0,0 19.61,39.77 H 19.41 A 17.42,17.42 0 0,0 28,42 Z M 36.61,39.3 C 36.81,39.3 36.99,39.36 37.17,39.43 C 37.67,39.13 38.13,38.8 38.58,38.45 C 38.38,38.47 38.15,38.57 37.88,38.7 L 37.85,38.71 C 37.57,38.84 37.23,39 36.88,39 S 36.19,38.84 35.92,38.71 L 35.89,38.7 C 35.59,38.55 35.34,38.44 35.11,38.44 C 34.89,38.44 34.64,38.55 34.33,38.7 L 34.31,38.71 C 34.03,38.84 33.7,39 33.34,39 C 32.99,39 32.65,38.84 32.38,38.71 L 32.35,38.7 C 32.05,38.55 31.8,38.44 31.57,38.44 C 31.35,38.44 31.1,38.55 30.79,38.7 L 30.77,38.71 C 30.49,38.84 30.16,39 29.8,39 C 29.45,39 29.11,38.84 28.84,38.71 L 28.81,38.7 C 28.51,38.55 28.26,38.44 28.03,38.44 C 27.81,38.44 27.56,38.55 27.26,38.7 L 27.23,38.71 C 26.95,38.84 26.62,39 26.26,39 C 25.94,39 25.73,38.86 25.56,38.74 L 25.47,38.68 A 1.92,1.92 0 0,0 25.39,38.64 C 25.25,38.6 25.11,38.54 24.99,38.49 A 2.4,2.4 0 0,0 24.49,38.44 C 24.29,38.44 24.13,38.46 23.99,38.49 C 23.88,38.55 23.74,38.59 23.59,38.64 L 23.52,38.68 L 23.43,38.74 C 23.26,38.86 23.05,39 22.73,39 C 22.37,39 22.03,38.84 21.76,38.71 L 21.73,38.7 C 21.43,38.55 21.18,38.44 20.96,38.44 C 20.73,38.44 20.48,38.55 20.18,38.7 L 20.15,38.71 C 19.88,38.84 19.54,39 19.19,39 C 18.86,39 18.65,38.86 18.48,38.74 L 18.39,38.68 A 1.65,1.65 0 0,0 17.42,38.44 C 17.86,38.8 18.34,39.13 18.83,39.44 C 19.03,39.36 19.29,39.31 19.61,39.31 A 1.94,1.94 0 0,1 20.93,39.72 C 21.08,39.83 21.16,39.88 21.31,39.88 C 21.53,39.88 21.77,39.78 22.06,39.62 L 22.08,39.61 C 22.35,39.47 22.68,39.31 23.01,39.31 C 23.35,39.31 23.68,39.47 23.94,39.61 L 23.96,39.62 C 24.26,39.77 24.49,39.88 24.71,39.88 C 24.87,39.88 24.95,39.83 25.1,39.72 L 25.23,39.63 C 25.47,39.47 25.8,39.31 26.41,39.31 A 1.94,1.94 0 0,1 27.73,39.72 C 27.88,39.83 27.95,39.88 28.11,39.88 C 28.33,39.88 28.57,39.78 28.86,39.62 L 28.88,39.61 C 29.15,39.47 29.48,39.31 29.81,39.31 C 30.15,39.31 30.48,39.47 30.74,39.61 L 30.76,39.62 C 31.06,39.77 31.29,39.88 31.51,39.88 C 31.73,39.88 31.97,39.78 32.26,39.62 L 32.28,39.61 C 32.55,39.47 32.88,39.31 33.21,39.31 C 33.55,39.31 33.88,39.47 34.14,39.61 L 34.16,39.62 C 34.46,39.77 34.69,39.88 34.91,39.88 C 35.13,39.88 35.37,39.78 35.66,39.62 L 35.68,39.61 C 35.95,39.47 36.28,39.31 36.61,39.31 Z M 16.88,38.01 C 13.86,35.43 12,31.85 12,28 C 12,20.5 19.08,14 28,14 S 44,20.5 44,28 C 44,31.87 42.11,35.48 39.05,38.06 A 1.4,1.4 0 0,0 38,38.15 V 35.5 H 36 V 38.25 A 2.16,2.16 0 0,0 35.11,38 C 34.91,38 34.71,38.05 34.54,38.12 L 35.1,36 H 20.96 L 21.53,38.12 A 1.66,1.66 0 0,0 20.96,38 C 20.6,38 20.26,38.16 19.99,38.29 L 19.97,38.3 L 19.9,38.33 C 19.96,38.23 20,38.13 20,38 V 35.4 H 18 V 38.05 A 2.92,2.92 0 0,0 17.42,38 L 16.88,38.01 Z M 39.94,38.68 A 14.15,14.15 0 0,0 45,28 C 45,19.72 37.39,13 28,13 S 11,19.72 11,28 C 11,36.28 18.61,43 28,43 C 32.51,43 36.6,41.45 39.65,38.92 L 39.67,38.93 L 39.94,38.68 Z M 27,17 L 28,16 L 29,17 H 27 Z M 27.5,19 V 18 H 28.5 V 19 H 27.5 Z M 26.26,19.5 H 29.8 L 29,20.5 H 27 L 26.26,19.5 Z M 27,21 V 23 H 29 V 21 H 27 Z M 26,24.98 L 26.5,24 H 29.5 L 30,25 L 26,24.98 Z M 25,25.5 L 25.5,26 H 30.5 L 31,25.5 H 25 Z M 24.5,35 L 25.5,27 H 30.5 L 31.57,35 H 24.5 Z M 17.5,34 H 20.5 L 20,35 H 18 L 17.5,34 Z M 35.5,34 H 38.5 L 38,35 H 36 L 35.5,34 Z M 20.75,16.26 L 24.71,18.56 L 24.49,18.97 L 20.52,16.67 L 20.75,16.27 Z M 14.36,22 L 24.56,20.27 L 24.64,20.73 L 14.44,22.46 L 14.36,22 Z M 13.13,31.28 L 24.46,22.62 L 24.74,22.99 L 13.4,31.65 L 13.13,31.28 Z M 31.43,18.77 L 35.39,16.47 L 35.62,16.87 L 31.65,19.17 L 31.42,18.77 Z M 31.57,20.47 L 41.77,22.2 L 41.7,22.66 L 31.5,20.93 L 31.57,20.47 Z M 31.67,22.82 L 43.01,31.48 L 42.73,31.85 L 31.4,23.19 L 31.67,22.82 Z" fill="rgb(26, 74, 121)" fill-rule="evenodd"/>
</svg>
