<?xml version="1.0" encoding="UTF-8"?>
<!-- generated by Finnhub -->
<svg viewBox="0 0 55.5 55.5" xmlns="http://www.w3.org/2000/svg">
<path d="M 0,0 H 55.5 V 55.5 H 0 Z" fill="rgb(239, 242, 248)"/>
<path d="M 4.99,31.985 L 9.56,24 H 12.43 L 17,32 H 13.96 L 10.4,25.1 H 11.55 L 7.98,32 H 5 Z M 7.7,31 L 8.46,29 H 13.5 L 14.25,31 H 7.71 Z M 32.5,30 V 27 L 36.5,24 H 40 L 32.5,30 Z M 30,32 V 24 H 33 V 32 H 30 Z M 36.5,32 L 33.5,28.5 L 35.5,27 L 40,32 H 36.5 Z" fill="rgb(1, 22, 138)"/>
<path d="M 17.99,23.985 V 32 H 21 V 30 H 24 C 24.33,30 25,30.2 25,31 V 32 H 28.5 C 28.33,32 28,31.3 28,30.5 V 29.5 C 28,29.17 27.8,28.5 27,28.5 C 27.33,28.5 28,28.1 28,26.5 C 28,24.5 27,24 25,24 H 18 Z M 21,26 V 28 H 24 C 24.5,28 25,27.6 25,27 S 24.5,26 24,26 H 21 Z" fill="rgb(1, 20, 137)" fill-rule="evenodd"/>
<path d="M 44.99,23.985 H 47 C 49.5,24 51,24.89 51,27.11 V 28.89 C 51,29.78 50,32 47,32 H 45 C 42.5,32 41,31.02 41,28.89 V 27.1 C 41,25.77 42.5,23.99 45,23.99 Z M 46,26 C 44.5,26 44,26.7 44,27.5 V 28.5 C 44,29.3 44.4,30 46,30 S 48,29.3 48,28.5 V 27.5 C 48,26.7 47.5,26 46,26 Z" fill="rgb(1, 20, 137)"/>
</svg>
