<?xml version="1.0" encoding="UTF-8"?>
<!-- generated by Finnhub -->
<svg viewBox="0 0 55.5 55.5" xmlns="http://www.w3.org/2000/svg">
<path d="M 0,0 H 55.5 V 55.5 H 0 Z" fill="rgb(1, 143, 189)"/>
<path d="M 15.99,21.985 H 19 V 34 H 16 V 32.1 A 3.91,3.91 0 0,1 12.5,34 C 9.63,34 7,31.37 7,28 C 6.96,24.67 9.64,21.94 12.5,22 A 3.9,3.9 0 0,1 16,23.9 V 22 Z M 16,28 C 16,25.9 14.7,24.52 13,24.52 C 11.11,24.52 10,26.28 10,28 C 10,29.97 11.26,31.48 13,31.48 C 14.7,31.48 16,30.1 16,28 Z M 30,22.36 L 28.77,24.79 C 28.36,24.68 27.98,24.5 27.12,24.5 C 25.19,24.5 25,26.14 25,28.07 V 34 H 22 V 22 H 25 V 23.29 C 25.91,22.19 26.82,22 28.3,22 C 28.85,22 29.65,22.23 30,22.36 Z M 49,27.4 V 34 H 46 V 27.6 C 46,25.63 45.3,24.59 44.02,24.59 C 42.72,24.59 42,25.96 42,27.89 V 34 H 39 V 27.6 C 39,25.63 38.54,24.59 37.26,24.59 C 35.61,24.59 35,26.54 35,27.89 V 34 H 32 V 22 H 35 V 23.98 A 3.13,3.13 0 0,1 37.85,22 C 39.4,22 40.55,22.8 41.19,24.28 C 41.83,22.89 42.99,22 44.56,22 C 47,22 49,24.02 49,27.4 Z" fill="rgb(253, 254, 253)"/>
</svg>
