<?xml version="1.0" encoding="UTF-8"?>
<!-- generated by Finnhub -->
<svg viewBox="0 0 55.5 55.5" xmlns="http://www.w3.org/2000/svg">
<path d="M 0,0 H 55.5 V 55.5 H 0 Z" fill="rgb(30, 71, 132)"/>
<path d="M 13.26,12.985 L 14.07,13.77 C 14.63,14.32 16.97,16 20.5,16 C 24,16 26.78,13.99 27.72,13.23 L 28,13 L 28.31,13.19 C 30.44,14.48 32.98,16 35.5,16 C 38.23,16 40.86,14.64 41.82,14.17 L 42.45,13.87 L 42.55,14.54 C 43.23,19.33 43.34,26.69 41.42,33.21 C 39.51,39.74 35.67,45.55 28.12,46.98 L 28,47 L 27.88,46.97 C 21.38,45.2 17.33,41.15 15.19,35.44 C 13.07,29.76 12.69,22.44 13.2,14.09 L 13.27,13 Z M 28,14.17 C 26.73,15.08 24,16.98 20.5,16.98 C 17.62,16.98 15.33,15.78 14.16,15.07 C 13.74,23 14.16,29.83 16.14,35.11 A 16.81,16.81 0 0,0 28.04,45.99 C 35,44.63 38.6,39.27 40.45,32.95 C 42.23,26.87 42.22,20.02 41.64,15.33 C 40.31,15.86 37.96,16.98 35.5,16.98 C 32.88,16.98 30.25,15.45 28,14.18 Z" fill="rgb(246, 246, 245)"/>
<path d="M 26.99,21.105 V 29.62 C 27,31.29 26.63,35 22.5,35 C 21.47,35 19,33.7 19,30.5 C 19,26.5 23.39,22.12 27,21.12 Z" fill="rgb(246, 246, 245)"/>
<path d="M 19.99,17.985 A 15.1,15.1 0 0,1 15,17 C 14.54,36.7 21.13,40.76 26.21,43.91 C 26.81,44.28 27.46,44.63 28,45 L 29,44.5 V 35 L 31.5,36.5 V 43 C 39.5,41 41.69,23 41,17 C 40.48,17.33 38.55,18 35.66,18 C 32.77,18 29.38,16.17 28,15.5 C 26.97,16 22.58,18 20,18 Z M 28.95,18.5 C 28,18.5 27.6,19.6 27.4,20 C 20.7,21.5 18,27.96 18,31 C 18,34 20,36 23,36 C 25.89,36 28.14,34.83 29,34 L 31.53,35.5 L 35,34 L 33.5,32 H 32.05 C 30.5,32 30,25 30,23.5 C 30,22.3 30.83,21.67 31,21.5 V 19.5 C 31,19 29.78,18.5 28.95,18.5 Z" fill="rgb(246, 246, 245)" fill-rule="evenodd"/>
</svg>
