<?xml version="1.0" encoding="UTF-8"?>
<!-- generated by Finnhub -->
<svg viewBox="0 0 55.5 55.5" xmlns="http://www.w3.org/2000/svg">
<path d="M 0,0 H 55.5 V 55.5 H 0 Z" fill="rgb(239, 242, 248)"/>
<path d="M 45.85,17.685 C 40.62,23.93 38.15,29.88 38.44,35.56 C 38.47,36.08 38.26,36.3 37.8,36.2 A 60.6,60.6 0 0,0 28.97,35.05 A 65.24,65.24 0 0,0 8.29,37 C 8.19,37.03 8.12,37 8.05,36.92 A 0.24,0.24 0 0,1 8.03,36.65 C 8.16,36.37 8.29,36.15 8.42,36.01 C 12.94,30.87 18.74,26.63 25.8,23.28 A 76.4,76.4 0 0,1 45.68,17.02 C 45.83,16.99 45.92,17.05 45.98,17.2 A 0.5,0.5 0 0,1 45.86,17.7 Z M 41.73,20.32 C 38.85,24.74 37.19,29.12 36.75,33.46 C 36.7,33.96 36.45,34.16 35.97,34.07 A 70.98,70.98 0 0,0 20.52,33.31 C 18.3,33.41 16.13,33.63 14.02,33.96 C 13.86,33.99 13.7,33.98 13.54,33.95 C 13.37,33.91 13.32,33.8 13.4,33.63 C 13.5,33.43 13.62,33.25 13.75,33.13 C 14.3,32.61 14.89,32.1 15.54,31.59 A 53.14,53.14 0 0,1 22.64,26.85 A 71.97,71.97 0 0,1 41.31,19.7 C 41.44,19.67 41.56,19.7 41.65,19.78 C 41.84,19.93 41.86,20.11 41.73,20.32 Z M 37.65,24.14 A 29.43,29.43 0 0,0 35.28,31.56 C 35.2,31.94 34.98,32.1 34.62,32.06 C 33.42,31.92 32.16,31.79 30.82,31.66 A 97.92,97.92 0 0,0 19.45,31.54 C 19.35,31.54 19.25,31.53 19.15,31.49 C 19.05,31.45 19.04,31.39 19.1,31.29 C 19.24,31.09 19.4,30.92 19.6,30.79 C 23.4,28.24 27.4,26.16 31.57,24.56 C 33.48,23.83 35.52,23.14 37.69,22.5 C 37.87,22.45 38.02,22.46 38.13,22.55 C 38.25,22.65 38.26,22.79 38.17,22.99 C 38.01,23.37 37.83,23.75 37.65,24.14 Z M 27.93,28.05 A 62.8,62.8 0 0,1 34.61,25.33 C 34.85,25.25 35,25.34 35.06,25.59 C 35.09,25.72 35.08,25.84 35.04,25.96 C 34.61,27.16 34.27,28.32 34.01,29.45 C 33.89,29.94 33.61,30.16 33.18,30.12 C 30.95,29.89 28.56,29.73 26,29.63 C 25.78,29.63 25.71,29.51 25.8,29.29 C 25.86,29.19 25.93,29.1 26.03,29.05 C 26.64,28.69 27.27,28.36 27.93,28.05 Z" fill="rgb(1, 65, 115)" fill-rule="evenodd"/>
</svg>
