<?xml version="1.0" encoding="UTF-8"?>
<!-- generated by Finnhub -->
<svg viewBox="0 0 55.5 55.5" xmlns="http://www.w3.org/2000/svg">
<path d="M 0,0 H 55.5 V 55.5 H 0 Z" fill="rgb(239, 242, 248)"/>
<path d="M 12.99,19.739 V 32 C 30.703,28.355 41.723,19.399 45,15.325 C 44.436,14.167 42.825,13.963 42.09,14.005 C 34.744,14.815 19.327,16.5 16.435,16.773 C 13.544,17.046 13,18.844 13,19.753 Z" fill="rgb(68, 166, 188)"/>
<path d="M 43.99,22.985 C 32.957,30.235 18.859,33.4 13,34 V 38.387 C 13,41.414 15.14,42.017 16.206,41.94 C 22.16,41.986 34.728,42.05 37.365,41.94 C 40.001,41.829 40.915,40.417 41.042,39.725 L 44,23 Z" fill="rgb(5, 83, 125)"/>
</svg>
