<?xml version="1.0" encoding="UTF-8"?>
<!-- generated by Finnhub -->
<svg viewBox="0 0 55.5 55.5" xmlns="http://www.w3.org/2000/svg">
<path d="M 0,0 H 55.5 V 55.5 H 0 Z" fill="rgb(239, 242, 248)"/>
<path d="M 22.49,26.044999999999998 V 29 H 21.2 V 26.43 C 21.22,26.21 21.14,25.97 20.89,25.97 S 20.55,26.22 20.57,26.43 V 29 H 19.27 V 25 H 20.53 V 25.58 H 20.54 C 20.69,25.21 21.09,24.98 21.48,25 C 22.13,25 22.52,25.44 22.5,26.06 Z M 18.64,27.23 H 16.72 V 27.73 C 16.72,27.96 16.82,28.24 17.08,28.25 C 17.4,28.25 17.46,27.83 17.44,27.58 H 18.61 C 18.66,28.53 17.95,29 17.08,29 C 16.36,29.02 15.66,28.73 15.51,27.94 A 4.55,4.55 0 0,1 15.52,26.08 C 15.68,25.33 16.35,24.98 17.08,25 C 17.75,24.99 18.38,25.28 18.55,25.96 C 18.65,26.38 18.65,26.8 18.65,27.23 Z M 17.44,26.53 C 17.44,26.27 17.47,25.78 17.08,25.78 C 16.7,25.78 16.72,26.28 16.72,26.53 H 17.43 Z M 14.82,27.03 C 14.8,27.83 14.67,29.02 13.61,29 C 13.26,29 12.89,28.85 12.79,28.49 V 28.52 L 12.81,30 H 11.51 L 11.5,25 H 12.75 V 25.63 H 12.77 A 0.86,0.86 0 0,1 13.65,25 C 14.68,24.92 14.85,26.28 14.82,27.03 Z M 13.52,27.03 V 26.51 C 13.5,26.29 13.45,25.93 13.16,25.96 C 12.86,25.95 12.82,26.29 12.81,26.51 A 7.4,7.4 0 0,0 12.81,27.55 C 12.82,27.76 12.86,28.08 13.14,28.07 C 13.44,28.09 13.5,27.77 13.51,27.55 L 13.52,27.03 Z" fill="rgb(123, 123, 121)"/>
<path d="M 27.95,30.275 C 27.96,30.44 28,30.5 28.13,30.5 H 28.29 V 30.93 A 1.9,1.9 0 0,1 27.86,31 C 27.58,31 27.38,30.91 27.33,30.65 C 27.03,30.89 26.63,31.01 26.24,31 C 25.68,31 25.17,30.72 25.17,30.17 C 25.17,29.46 25.79,29.34 26.37,29.28 C 26.87,29.2 27.31,29.25 27.31,28.88 C 27.31,28.56 26.94,28.5 26.66,28.5 C 26.28,28.5 26,28.64 25.97,28.95 H 25.28 C 25.33,28.22 26.02,28 26.71,28 C 27.32,28 27.96,28.23 27.96,28.83 V 30.29 Z M 27.27,29.49 C 27,29.6 26.71,29.66 26.42,29.67 C 26.12,29.71 25.86,29.81 25.86,30.14 C 25.86,30.42 26.26,30.5 26.5,30.5 C 26.8,30.5 27.27,30.36 27.27,29.96 V 29.5 Z M 29.69,29.66 C 29.69,30.11 29.96,30.5 30.53,30.5 C 30.7,30.52 30.86,30.48 31,30.4 A 0.67,0.67 0 0,0 31.3,30.03 H 31.94 C 31.87,30.32 31.69,30.57 31.44,30.75 C 31.17,30.93 30.85,31.02 30.53,31 C 29.55,31 29,30.38 29,29.5 C 29,28.7 29.58,28 30.51,28 C 31.5,28 32.11,28.8 31.99,29.66 H 29.69 Z M 31.29,29.25 C 31.3,29.15 31.29,29.05 31.24,28.96 A 0.73,0.73 0 0,0 31.07,28.72 A 0.87,0.87 0 0,0 29.92,28.72 A 0.73,0.73 0 0,0 29.74,28.96 A 0.67,0.67 0 0,0 29.69,29.25 H 31.29 Z M 33,28 H 33.65 V 28.69 H 33.66 A 1,1 0 0,1 34.58,28 C 34.66,28 34.75,28 34.84,28.02 V 28.68 L 34.54,28.65 C 34.07,28.65 33.7,28.93 33.7,29.61 V 31 H 33 V 28 Z M 35.36,29.5 C 35.36,28.63 35.93,28 36.94,28 C 37.94,28 38.52,28.63 38.52,29.5 C 38.52,30.38 37.95,31 36.94,31 C 35.94,31 35.36,30.38 35.36,29.5 Z M 37.83,29.5 C 37.83,29.01 37.56,28.5 36.94,28.5 S 36.05,29.01 36.05,29.5 C 36.05,30 36.32,30.5 36.95,30.5 C 37.55,30.5 37.83,30 37.83,29.5 Z M 42.5,30.85 C 42.5,31.69 41.96,32.11 40.98,32.11 C 40.36,32.11 39.67,31.89 39.61,31.23 H 40.29 C 40.37,31.59 40.69,31.65 41.03,31.65 C 41.57,31.65 41.82,31.39 41.82,30.93 V 30.5 H 41.81 A 1.14,1.14 0 0,1 40.89,31 C 39.91,31 39.5,30.26 39.5,29.46 C 39.5,28.7 40.02,28 40.9,28 C 41.08,28 41.26,28.03 41.43,28.11 C 41.59,28.19 41.72,28.31 41.81,28.46 H 41.82 V 28 H 42.5 V 30.85 Z M 41.82,29.47 C 41.82,28.99 41.58,28.49 40.99,28.49 C 40.39,28.49 40.19,29.03 40.19,29.5 C 40.19,29.96 40.42,30.5 40.99,30.5 C 41.59,30.5 41.82,29.95 41.82,29.47 Z M 44.16,29.66 C 44.16,30.11 44.42,30.5 45,30.5 C 45.17,30.52 45.33,30.48 45.47,30.4 A 0.67,0.67 0 0,0 45.76,30.03 H 46.41 C 46.34,30.32 46.16,30.57 45.91,30.75 C 45.64,30.93 45.32,31.02 45,31 C 44.02,31 43.47,30.38 43.47,29.5 C 43.47,28.7 44.05,28 44.98,28 C 45.97,28 46.57,28.81 46.45,29.66 H 44.15 Z M 45.76,29.25 C 45.76,29.15 45.75,29.05 45.71,28.96 A 0.73,0.73 0 0,0 45.54,28.72 A 0.87,0.87 0 0,0 44.39,28.72 A 0.73,0.73 0 0,0 44.21,28.96 A 0.67,0.67 0 0,0 44.16,29.25 H 45.76 Z M 48.16,27 H 47.47 V 31 H 48.17 V 27 Z M 49.9,30 C 49.94,30.37 50.24,30.5 50.61,30.5 C 50.87,30.5 51.33,30.46 51.31,30.13 C 51.29,29.8 50.79,29.76 50.29,29.66 C 49.78,29.56 49.28,29.39 49.28,28.81 C 49.28,28.19 50.02,28 50.58,28 C 51.23,28 51.81,28.24 51.9,28.88 H 51.18 C 51.11,28.58 50.84,28.5 50.54,28.5 C 50.34,28.5 49.97,28.54 49.97,28.79 C 49.97,29.09 50.47,29.14 50.99,29.24 C 51.49,29.34 52,29.51 52,30.08 C 52,30.75 51.25,31 50.6,31 C 49.81,31 49.22,30.68 49.21,30 H 49.91 Z" fill="rgb(28, 28, 25)"/>
<path d="M 10.91,26.185 H 9.8 A 0.47,0.47 0 0,0 9.7,25.86 A 0.35,0.35 0 0,0 9.45,25.77 A 0.36,0.36 0 0,0 9.22,25.85 A 0.27,0.27 0 0,0 9.12,26.07 A 0.26,0.26 0 0,0 9.26,26.31 C 9.37,26.38 9.49,26.42 9.61,26.46 L 9.83,26.52 L 10.06,26.59 C 10.22,26.64 10.37,26.71 10.51,26.79 C 10.65,26.89 10.77,27 10.86,27.15 C 10.96,27.33 11.01,27.53 11,27.74 C 11,27.91 10.97,28.09 10.9,28.25 C 10.82,28.41 10.72,28.55 10.59,28.65 C 10.44,28.77 10.28,28.85 10.09,28.91 C 9.89,28.97 9.66,29 9.44,28.99 C 8.86,29.04 8.21,28.82 7.99,28.24 A 1.19,1.19 0 0,1 7.91,27.73 H 9.05 A 1,1 0 0,0 9.07,27.94 C 9.08,28 9.11,28.06 9.14,28.1 A 0.3,0.3 0 0,0 9.42,28.24 C 9.52,28.24 9.6,28.21 9.68,28.15 A 0.29,0.29 0 0,0 9.79,27.91 A 0.3,0.3 0 0,0 9.65,27.65 C 9.55,27.58 9.42,27.53 9.3,27.49 L 9.2,27.46 L 8.85,27.34 A 1.95,1.95 0 0,1 8.4,27.14 A 1.08,1.08 0 0,1 7.91,26.2 C 7.91,26.03 7.94,25.87 8.01,25.72 C 8.07,25.58 8.17,25.45 8.29,25.35 C 8.43,25.23 8.59,25.15 8.77,25.09 C 9,25.03 9.23,24.99 9.47,25 C 10.43,25 10.92,25.4 10.92,26.2 M 7.3,29 H 6.08 C 6.02,28.84 6.02,28.66 6,28.5 H 5.96 A 0.75,0.75 0 0,1 5.62,28.87 A 1.1,1.1 0 0,1 5.08,29 C 4.91,29 4.74,28.98 4.58,28.93 A 0.79,0.79 0 0,1 4.24,28.7 A 0.92,0.92 0 0,1 4.06,28.35 A 1.7,1.7 0 0,1 4,27.9 C 4,27.74 4.02,27.58 4.05,27.43 A 0.88,0.88 0 0,1 4.56,26.84 C 4.73,26.76 4.9,26.7 5.08,26.67 L 5.35,26.6 L 5.59,26.55 C 5.79,26.51 6.01,26.35 5.99,26.13 C 5.99,25.89 5.86,25.78 5.64,25.78 C 5.59,25.78 5.54,25.78 5.49,25.8 C 5.3,25.87 5.26,26.1 5.27,26.29 H 4.15 C 4.15,26.06 4.19,25.82 4.3,25.62 C 4.4,25.46 4.52,25.32 4.68,25.23 C 4.82,25.13 4.98,25.08 5.16,25.05 A 3.35,3.35 0 0,1 6.26,25.05 C 6.44,25.08 6.61,25.15 6.76,25.25 C 6.89,25.34 7,25.47 7.07,25.62 C 7.15,25.82 7.19,26.02 7.18,26.22 V 28.1 C 7.18,28.25 7.18,28.41 7.2,28.57 C 7.21,28.69 7.25,28.89 7.3,29 Z M 6,27.54 V 27.08 H 5.96 A 0.25,0.25 0 0,1 5.78,27.18 C 5.69,27.18 5.6,27.22 5.52,27.25 A 0.42,0.42 0 0,0 5.31,27.45 C 5.27,27.54 5.25,27.65 5.25,27.75 C 5.25,27.85 5.28,27.96 5.34,28.05 A 0.27,0.27 0 0,0 5.57,28.17 C 5.63,28.17 5.69,28.16 5.75,28.13 C 5.97,28.02 6,27.76 6,27.53 Z" fill="rgb(123, 123, 121)"/>
<path d="M 24.279999999999998,23.345 C 24.29,23.16 24.13,23 23.92,23 C 23.72,23 23.56,23.16 23.56,23.36 V 33.64 A 0.36,0.36 0 0,0 24.29,33.64 V 23.36 Z" fill="url(#a)"/>
<defs>
<linearGradient id="a" x1="23.92" x2="23.92" y1="23" y2="34" gradientUnits="userSpaceOnUse">
<stop stop-color="rgb(220, 41, 37)" offset="0"/>
<stop stop-color="rgb(207, 192, 199)" offset=".49"/>
<stop stop-color="rgb(3, 32, 108)" offset="1"/>
</linearGradient>
</defs>
</svg>
