<?xml version="1.0" encoding="UTF-8"?>
<!-- generated by Finnhub -->
<svg viewBox="0 0 55.5 55.5" xmlns="http://www.w3.org/2000/svg">
<path d="M 0,0 H 55.5 V 55.5 H 0 Z" fill="url(#a)"/>
<path d="M 10.99,18.985 A 3,3 0 0,0 8,22 V 29 H 10 V 22 A 1,1 0 0,1 11,21 H 18 A 1,1 0 0,1 19,22 V 23 H 12 V 25 H 19 V 29 H 21 V 22 A 3,3 0 0,0 18,19 H 11 Z M 49,19 H 37 V 21 H 42 V 29 H 44 V 21 H 49 V 19 Z M 24,22 A 3,3 0 0,1 27,19 H 35 V 21 H 27 A 1,1 0 1,0 27,23 H 32 A 3,3 0 1,1 32,29 H 24 V 27 H 32 A 1,1 0 1,0 32,25 H 27 A 3,3 0 0,1 24,22 Z" fill="rgb(254, 254, 253)"/>
<path d="M 42.49,30.985 A 0.5,0.5 0 1,1 42.5,32 A 0.5,0.5 0 0,1 42.5,31 Z M 10.86,31.71 C 10.71,31.49 10.16,31.04 9.16,31.01 C 7.93,30.96 7.18,31.65 7.18,32.48 C 7.18,33.23 7.64,33.72 9.08,33.88 C 10.5,34.04 10.09,35.05 9.28,35.05 C 8.43,35.05 7.97,34.69 7.66,34.39 L 7,35.05 C 7.2,35.37 7.91,36.02 9.17,36 C 10.73,35.97 11.13,34.94 11.1,34.46 C 11.07,33.98 10.9,33.13 9.28,32.98 C 8.94,32.98 8.25,32.88 8.23,32.48 C 8.2,32 8.77,31.91 9.17,31.92 C 9.56,31.94 9.93,32.13 10.2,32.31 L 10.86,31.71 Z M 13.57,36 C 14.54,36 15.33,35.23 15.33,34.28 S 14.54,32.55 13.57,32.55 C 13.15,32.55 12.77,32.7 12.47,32.94 L 12.39,32.62 H 11.53 V 37.4 H 12.5 V 35.65 C 12.8,35.87 13.17,36 13.57,36 Z M 13.42,35.1 C 13.89,35.1 14.27,34.73 14.27,34.27 A 0.84,0.84 0 0,0 13.42,33.45 A 0.84,0.84 0 0,0 12.57,34.27 C 12.57,34.73 12.95,35.1 13.42,35.1 Z M 37.73,36 H 38.59 L 38.67,35.62 A 1.76,1.76 0 0,0 41.51,34.28 C 41.51,33.33 40.73,32.56 39.76,32.56 C 39.36,32.56 39,32.69 38.7,32.91 V 31.3 H 37.73 V 36 Z M 40.46,34.28 A 0.84,0.84 0 0,0 39.62,33.46 A 0.84,0.84 0 0,0 38.77,34.28 C 38.77,34.73 39.15,35.1 39.62,35.1 C 40.08,35.1 40.46,34.73 40.46,34.28 Z M 15.77,34.28 C 15.77,35.23 16.56,36 17.53,36 C 17.93,36 18.31,35.86 18.61,35.63 V 36 H 19.56 V 32.63 H 18.68 L 18.62,32.93 A 1.77,1.77 0 0,0 15.77,34.28 Z M 18.61,34.28 C 18.61,33.81 18.21,33.43 17.74,33.43 A 0.86,0.86 0 0,0 16.86,34.28 C 16.86,34.75 17.26,35.13 17.74,35.13 S 18.61,34.75 18.61,34.29 V 34.27 Z M 37.12,34.28 C 37.12,35.23 36.32,36 35.32,36 S 33.5,35.23 33.5,34.28 S 34.31,32.56 35.31,32.56 S 37.12,33.33 37.12,34.28 Z M 36.18,34.28 C 36.18,34.75 35.79,35.12 35.31,35.12 A 0.86,0.86 0 0,1 34.44,34.28 C 34.44,33.82 34.84,33.44 35.31,33.44 C 35.79,33.44 36.18,33.82 36.18,34.28 Z M 23.24,35.44 C 22.9,35.78 22.41,36 21.86,36 C 20.83,36 20,35.23 20,34.28 S 20.83,32.56 21.86,32.56 C 22.36,32.56 22.81,32.74 23.14,33.03 L 22.54,33.69 A 0.92,0.92 0 0,0 21.9,33.44 C 21.4,33.44 21,33.82 21,34.28 C 21,34.74 21.4,35.12 21.9,35.12 C 22.16,35.12 22.4,35.02 22.56,34.84 L 23.24,35.44 Z M 27,34.42 V 34.58 H 24.4 A 0.92,0.92 0 0,0 25.32,35.15 C 25.62,35.15 25.92,35.09 26.21,34.9 L 26.77,35.5 L 26.75,35.53 C 26.17,35.93 25.81,36 25.21,36 C 24.21,36 23.41,35.22 23.41,34.25 C 23.41,33.29 24.21,32.51 25.21,32.51 C 26.2,32.51 27.01,33.29 27.01,34.25 V 34.42 Z M 26.1,33.9 A 0.92,0.92 0 0,0 25.25,33.36 C 24.87,33.36 24.55,33.58 24.4,33.9 H 26.1 Z M 48.99,34.42 V 34.25 C 48.99,33.29 48.18,32.51 47.19,32.51 C 46.19,32.51 45.39,33.29 45.39,34.25 C 45.39,35.22 46.19,36 47.19,36 A 2.3,2.3 0 0,0 48.75,35.5 L 48.19,34.9 C 47.89,35.1 47.59,35.15 47.29,35.15 A 0.92,0.92 0 0,1 46.37,34.58 H 49 V 34.42 Z M 47.24,33.36 C 47.61,33.36 47.94,33.58 48.08,33.9 H 46.4 A 0.92,0.92 0 0,1 47.25,33.36 Z M 28,31 H 29.15 L 30.48,32.91 L 31.85,31 H 33 V 36 H 32 V 32.59 L 30.59,34.45 H 30.39 L 29,32.59 V 36 H 28 V 31 Z M 42,32.64 H 43 V 36 H 42 V 32.64 Z M 45,31.3 H 44 V 36 H 45 V 31.3 Z" fill="rgb(251, 154, 33)" fill-rule="evenodd"/>
<defs>
<linearGradient id="a" x1="10.42" x2="68.15" y1="9.71" y2="76.02" gradientUnits="userSpaceOnUse">
<stop stop-color="rgb(25, 29, 31)" offset="0"/>
<stop stop-color="rgb(5, 5, 8)" offset="1"/>
</linearGradient>
</defs>
</svg>
