<?xml version="1.0" encoding="UTF-8"?>
<!-- generated by Finnhub -->
<svg viewBox="0 0 55.5 55.5" xmlns="http://www.w3.org/2000/svg">
<path d="M 0,0 H 55.5 V 55.5 H 0 Z" fill="rgb(239, 242, 248)"/>
<path d="M 28.99,34.565 C 32.06,34.29 33.35,32.02 34,30.87 L 34.12,30.67 L 32.62,29.78 L 32.51,29.96 C 31.87,31.07 31.01,32.55 29,32.81 V 28 H 26.15 L 29.19,17.3 C 31.99,18.33 38,21.67 38,27 C 38,33.63 33.83,38 29,38 V 34.58 Z M 29,34.58 A 8.77,8.77 0 0,1 21.83,31.98 L 23.16,30.84 A 7.07,7.07 0 0,0 29,32.81 V 34.58 Z M 23.65,16.47 L 27.05,11 L 30.29,16.47 L 36.29,12.92 L 35.55,19.68 L 43.23,18.95 L 38.83,25.21 L 46,28.25 L 37.97,31.25 L 43.23,38.18 L 34.63,36.6 L 35.95,43.87 L 28.62,39.02 L 25.79,45 L 23.65,38.57 L 18.05,41.79 L 19.49,35.41 L 12.96,36.09 L 17.46,30.62 L 11,28.25 L 16.72,25.21 L 12.96,20.36 H 19.49 L 18.05,14.44 L 23.65,16.47 Z M 26,23 A 1,1 0 1,1 24,23 A 1,1 0 0,1 26,23 Z M 31,24 A 1,1 0 1,0 31,22 A 1,1 0 0,0 31,24 Z" fill-rule="evenodd"/>
</svg>
