<?xml version="1.0" encoding="UTF-8"?>
<!-- generated by Finnhub -->
<svg viewBox="0 0 55.5 55.5" xmlns="http://www.w3.org/2000/svg">
<path d="M 0,0 H 55.5 V 55.5 H 0 Z" fill="rgb(1, 123, 192)"/>
<path d="M 15.99,22.985 H 23.49 V 25.997 L 21.546,26 V 33 H 18 V 26 L 16,25.997 V 23 Z M 27.398,29.276 L 26.873,33 H 23.145 L 24.588,23 H 27.809 L 29.352,26.234 L 30.894,23 H 34.115 L 35.557,33 H 31.83 L 31.307,29.277 L 29.352,33 L 27.398,29.276 Z M 40.606,29.674 C 39.67,29.674 38.911,28.924 38.911,28 C 38.911,27.075 39.671,26.326 40.606,26.326 S 42.3,27.076 42.3,28 C 42.3,28.925 41.542,29.674 40.606,29.674 Z M 40.606,23 C 37.812,23 35.548,25.239 35.548,28 S 37.812,33 40.606,33 C 43.399,33 45.664,30.761 45.664,28 S 43.399,23 40.606,23 Z M 6.01,26.552 L 14.847,26.964 L 14.545,26.122 L 6.009,26.537 V 26.552 Z M 5.655,27.56 L 15.209,27.973 L 14.908,27.133 L 5.655,27.546 V 27.561 Z M 5.308,28.572 L 15.572,28.984 L 15.271,28.142 L 5.308,28.557 V 28.572 Z M 6.598,25.785 L 8.318,21 H 12.706 L 14.488,25.955 L 6.598,25.785 Z M 5.327,29.297 L 4,33 H 9.152 L 10.411,29.224 L 5.327,29.297 Z M 15.62,29.148 L 17,33 H 11.848 L 10.584,29.223 L 15.62,29.148 Z M 47.627,30.294 C 46.771,30.294 46,29.757 46,29.757 V 32.504 S 46.928,33 48.544,33 C 50.428,33 52,31.59 52,29.859 C 52,29.172 51.76,28.541 51.351,28.025 C 51.351,28.025 50.882,27.423 50.204,27.008 C 49.954,26.838 49.414,26.533 49.414,26.25 C 49.414,25.825 49.774,25.578 50.322,25.578 C 51.056,25.578 51.81,25.878 52,26.02 V 23.3 S 51.2,23 49.584,23 C 47.7,23 46.003,24.29 46.003,26.021 C 46.003,26.972 46.523,27.988 47.708,28.748 C 47.708,28.748 48.268,29.128 48.455,29.518 C 48.539,29.683 48.5,29.831 48.5,29.831 C 48.414,30.218 48.1,30.319 47.627,30.294 Z" fill="rgb(254, 254, 253)"/>
</svg>
