<?xml version="1.0" encoding="UTF-8"?>
<!-- generated by Finnhub -->
<svg viewBox="0 0 55.5 55.5" xmlns="http://www.w3.org/2000/svg">
<path d="M 0,0 H 55.5 V 55.5 H 0 Z" fill="rgb(239, 242, 248)"/>
<circle cx="12" cy="28" r="4" fill="rgb(85, 85, 84)"/>
<circle cx="44" cy="28" r="4" fill="rgb(85, 85, 84)"/>
<path d="M 23.18,25.405 A 4,4 0 1,0 16.76,25.34 L 17.84,26.96 C 17.99,27.19 18.29,27.72 18.26,28.05 C 18.21,28.53 17.93,28.92 17.53,29.49 L 17.45,29.59 C 17.25,29.86 17.05,30.19 16.89,30.45 L 16.76,30.66 A 4,4 0 1,0 23.21,30.61 L 22.24,29.22 C 22.06,28.96 21.68,28.42 21.68,28 C 21.68,27.58 22.01,27.1 22.18,26.87 L 23.18,25.42 Z M 39.19,25.42 A 4,4 0 1,0 32.76,25.34 L 33.84,26.96 C 33.99,27.19 34.29,27.72 34.26,28.05 C 34.21,28.53 33.93,28.92 33.53,29.49 L 33.45,29.59 C 33.25,29.86 33.05,30.19 32.89,30.45 L 32.76,30.66 A 4,4 0 1,0 39.21,30.61 L 38.24,29.22 C 38.06,28.96 37.68,28.42 37.68,28 C 37.68,27.58 38.01,27.1 38.18,26.87 L 39.18,25.42 Z" fill="rgb(51, 141, 203)"/>
<path d="M 31.99,18.985 C 32,19.9 31.7,20.75 31.18,21.42 L 30.18,22.87 C 30.01,23.1 29.68,23.57 29.68,24 C 29.68,24.42 30.06,24.96 30.24,25.22 L 31.2,26.6 A 3.98,3.98 0 0,1 31.34,31.2 L 30.18,32.88 C 30.01,33.11 29.68,33.59 29.68,34.01 C 29.68,34.44 30.06,34.97 30.24,35.23 L 31.12,36.5 A 4,4 0 1,1 24.81,36.6 L 24.89,36.46 L 25.44,35.61 L 25.53,35.5 C 25.93,34.93 26.21,34.54 26.25,34.06 C 26.28,33.73 25.99,33.2 25.84,32.98 L 24.69,31.26 H 24.7 A 3.98,3.98 0 0,1 24.76,26.66 L 24.89,26.45 C 25.05,26.19 25.26,25.86 25.45,25.6 L 25.53,25.48 C 25.93,24.92 26.21,24.53 26.26,24.04 C 26.29,23.72 25.99,23.19 25.84,22.96 L 24.75,21.34 A 4,4 0 1,1 32,19 Z" fill="rgb(85, 85, 84)"/>
</svg>
