<?xml version="1.0" encoding="UTF-8"?>
<!-- generated by Finnhub -->
<svg viewBox="0 0 55.5 55.5" xmlns="http://www.w3.org/2000/svg">
<path d="M 0,0 H 55.5 V 55.5 H 0 Z" fill="rgb(224, 139, 29)"/>
<path d="M 44.989000000000004,40.257 H 44.891 C 45.127,40.437 45.427,40.602 45.427,40.644 L 42.173,39.112 C 42.066,39.153 42.001,39.153 41.98,39.112 L 41.894,38.988 C 41.873,38.947 41.766,38.947 41.574,39.029 C 41.552,39.071 41.424,38.946 41.209,38.739 C 41.124,38.698 40.974,38.781 40.845,38.739 L 39.925,38.449 L 39.839,38.367 L 39.561,38.408 C 39.518,38.408 39.497,38.284 39.475,38.284 L 38.79,38.201 L 38.705,38.077 L 38.255,38.16 L 37.485,38.118 L 37.463,38.035 H 37.377 C 37.313,38.118 37.206,37.995 37.227,38.077 C 37.998,38.532 38.769,38.491 39.561,38.698 C 42.408,39.112 44.378,40.768 47.268,42.218 C 47.246,42.259 47.161,42.259 47.054,42.259 C 47.374,42.466 48.06,42.963 47.996,43.004 C 47.846,43.087 47.739,43.087 47.632,43.046 C 47.503,43.005 47.353,42.963 47.161,42.88 L 47.032,42.715 C 46.968,42.715 46.904,42.673 46.818,42.632 L 46.797,42.549 L 46.711,42.466 H 46.561 L 46.519,42.508 L 46.561,42.549 L 46.583,42.632 C 46.561,42.673 46.347,42.466 46.005,42.301 C 45.962,42.259 46.09,42.135 46.069,42.135 C 45.94,42.176 45.876,42.176 45.833,42.176 L 44.913,41.721 C 44.87,41.721 44.827,41.762 44.806,41.721 L 44.72,41.597 C 44.485,41.514 44.335,41.472 44.356,41.389 C 44.399,41.349 44.442,41.307 44.442,41.224 A 0.995,0.995 0 0,1 43.928,41.183 A 1.004,1.004 0 0,1 43.885,40.934 L 43.693,41.017 L 43.65,40.851 L 43.628,40.893 V 40.975 L 43.607,41.017 L 43.564,40.893 L 43.521,40.851 L 43.5,40.893 V 41.058 C 43.479,41.182 43.072,40.975 42.322,40.603 L 42.43,40.727 L 42.408,40.81 C 42.194,40.727 41.938,40.768 41.938,40.686 V 40.603 L 41.916,40.52 H 41.745 L 41.637,40.603 C 41.53,40.603 41.402,40.561 41.295,40.52 C 40.245,39.775 38.725,39.36 37.635,39.36 C 37.142,39.07 36.863,38.947 36.821,38.988 C 36.799,39.029 36.778,39.029 36.714,39.071 C 36.649,39.071 36.499,39.071 36.243,38.988 L 36.221,38.947 L 36.136,38.864 H 36.071 L 36.007,38.905 L 35.986,38.988 L 36.05,39.154 H 35.622 C 34.123,38.822 32.988,38.864 32.41,38.781 L 32.432,38.201 L 32.603,36.835 C 33.395,36.255 33.759,36.876 34.701,36.793 H 35.044 L 35.194,36.835 H 35.344 L 35.472,36.876 L 35.579,36.959 C 35.6,36.959 35.664,36.959 35.729,36.876 L 35.857,36.835 L 35.964,36.793 H 36.157 L 36.178,36.876 L 39.154,37.663 L 39.218,37.828 C 39.304,37.87 39.368,37.787 39.432,37.787 L 39.732,37.911 L 40.224,37.994 H 40.117 L 40.075,38.035 L 40.117,38.077 H 40.16 C 40.225,38.036 40.267,38.036 40.31,37.994 C 40.353,37.994 40.439,38.035 40.567,38.077 L 40.546,37.994 V 37.911 H 40.631 L 40.674,37.953 L 40.738,37.994 L 40.824,38.077 L 40.738,38.118 H 40.696 L 40.738,38.201 C 40.91,38.242 41.209,38.077 41.273,38.201 L 41.253,38.284 L 41.273,38.367 L 41.338,38.408 H 41.445 C 41.552,38.325 41.659,38.284 41.745,38.242 C 41.852,38.242 41.98,38.242 42.001,38.284 L 42.044,38.698 H 42.151 L 42.173,38.615 V 38.864 L 42.108,38.781 L 42.087,38.739 L 42.044,38.615 L 42.108,38.574 C 42.344,38.615 42.622,38.739 42.943,38.905 C 43.008,39.029 42.858,39.195 42.922,39.195 C 43.115,39.071 43.222,39.112 43.372,39.112 C 43.5,39.153 43.672,39.319 43.864,39.568 V 39.65 L 43.885,39.733 L 43.928,39.692 V 39.609 L 43.971,39.568 H 44.078 L 44.099,39.65 C 44.207,39.65 44.271,39.65 44.292,39.692 L 44.271,39.775 L 44.356,39.609 H 44.399 L 44.442,39.65 L 44.463,39.816 V 39.899 H 44.549 C 44.742,39.899 44.913,39.94 44.913,39.982 L 44.892,40.065 L 44.934,40.23 L 44.999,40.272 Z M 17.116,39.816 C 16.672,40.23 16.247,39.899 15.859,40.52 L 15.785,40.644 L 15.711,40.81 L 15.655,40.975 C 15.637,41.017 15.507,41.058 15.249,41.1 C 14.269,41.597 13.307,42.135 12.623,42.715 C 11.865,43.335 10.866,44.04 10.053,43.998 C 9.923,43.998 9.609,43.212 9.516,43.253 C 9.294,43.253 9.054,43.212 8.796,43.087 L 8.703,43.004 C 8.463,43.129 8.296,43.17 8.166,43.17 C 8.056,43.087 8,43.046 8,42.922 C 8.48,42.011 9.146,41.886 9.72,41.472 C 11.014,40.81 12.42,39.733 13.75,39.443 L 13.788,39.278 C 13.825,39.195 13.936,39.195 14.102,39.236 L 14.139,39.195 L 14.158,39.112 C 14.176,39.029 14.601,39.153 14.601,39.071 A 0.666,0.666 0 0,1 14.657,38.864 C 15.415,38.698 16.137,38.243 16.894,38.036 C 16.876,38.781 16.931,39.361 17.116,39.816 Z M 27.465,39.154 H 27.381 L 26.501,39.112 C 25.035,39.071 23.904,39.154 22.521,39.278 L 21.223,39.402 L 21.306,38.077 L 20.971,37.58 H 21.181 L 21.935,37.414 C 22.982,37.207 23.443,37.166 24.281,37.084 C 25.119,37 26.124,36.959 26.837,37.124 V 37.207 C 27.381,37.414 27.675,37.663 27.842,38.118 L 27.465,39.154 Z M 30.567,15.84 C 29.812,15.137 29.142,15.178 28.43,14.764 C 28.01,14.143 28.22,12.776 29.058,12.28 A 1.12,1.12 0 0,1 29.478,12.031 C 29.645,11.99 29.854,11.99 30.064,12.031 C 31.237,12.031 31.404,12.611 32.034,13.315 C 33.039,14.35 34.338,14.557 35.469,15.758 C 37.564,17.994 38.821,20.975 35.93,23.004 C 35.511,23.335 35.176,23.832 34.84,24.454 L 34.757,24.868 C 34.883,25.365 34.924,25.861 34.924,26.4 C 34.883,26.648 34.799,26.814 34.714,27.02 L 34.673,27.27 C 34.631,27.435 34.38,27.518 34.38,27.642 V 27.683 L 34.296,27.849 L 34.212,27.89 C 34.128,28.097 34.044,28.222 33.919,28.429 L 33.751,28.512 V 28.594 L 33.709,28.677 H 33.667 L 33.626,28.636 L 33.5,28.719 V 28.76 L 33.458,28.801 A 1.18,1.18 0 0,1 33.081,29.216 A 4.224,4.224 0 0,1 32.745,29.34 C 32.495,29.547 32.243,29.671 31.908,29.795 L 31.447,29.919 H 31.363 L 31.321,29.878 A 1.108,1.108 0 0,0 31.069,30.085 L 30.483,30.209 L 30.441,30.168 H 30.231 L 30.189,30.251 L 30.148,30.209 C 30.064,30.126 29.938,30.126 29.812,30.209 L 29.561,30.085 C 29.435,29.961 30.064,29.629 30.483,29.381 C 31.111,28.677 31.195,27.931 31.195,27.931 C 31.949,26.193 30.818,24.536 31.321,23.17 L 31.614,22.466 L 32.243,21.348 L 32.494,20.851 L 32.704,20.354 V 19.9 C 32.745,19.361 32.327,18.16 32.034,17.705 C 31.907,17.498 32.075,17.374 32.243,17.084 L 32.453,17.001 C 32.745,16.753 33.123,15.883 32.159,15.138 C 32.075,15.055 31.782,15.055 31.572,15.22 C 31.53,15.386 31.112,16.338 30.567,15.842 Z" fill="rgb(254, 254, 253)"/>
<path d="M 25.569999999999997,27.213 C 25.245,28.968 25.078,30.996 25.497,32.777 C 25.497,33.108 25.455,33.232 25.622,33.563 C 26.167,35.096 26.879,36.379 28.011,37.539 C 28.136,37.539 28.221,37.456 28.304,37.29 C 28.346,36.835 28.472,36.504 28.597,36.338 L 28.765,36.296 C 28.975,35.468 29.184,34.557 29.058,33.688 C 29.016,33.398 28.932,33.067 28.89,32.777 L 28.849,32.653 V 32.487 L 28.89,32.446 H 29.016 L 29.603,34.185 L 29.561,34.971 L 29.645,35.137 L 29.729,35.634 L 29.687,36.296 L 29.729,37 V 37.166 C 29.729,37.87 29.1,38.408 28.891,39.112 L 28.597,39.775 L 28.346,40.479 L 28.22,40.644 L 28.136,41.472 L 28.262,41.638 L 28.22,41.969 L 28.262,42.011 C 28.346,42.466 28.849,42.756 29.226,42.383 C 29.436,41.638 28.723,41.224 29.1,40.893 L 29.268,40.934 L 29.478,41.017 L 29.687,41.183 L 29.812,41.348 L 29.98,41.679 V 41.845 L 29.938,42.052 L 29.854,42.259 L 29.729,42.466 L 29.435,42.715 L 29.268,42.839 L 29.1,42.922 V 42.963 C 28.723,42.963 28.555,42.963 28.22,42.797 C 27.717,42.467 27.76,42.301 27.466,41.927 C 27.298,41.721 27.131,41.431 27.131,41.183 V 40.644 L 27.173,40.354 L 27.34,39.982 L 27.508,39.071 L 27.592,38.822 C 27.717,38.532 27.843,38.036 27.592,37.787 C 26.963,37.332 26.502,36.959 25.957,36.379 C 24.868,35.179 24.407,33.978 24.114,32.404 A 2.396,2.396 0 0,1 24.03,31.866 C 24.03,31.617 24.03,31.452 23.988,31.327 C 23.528,31.369 23.192,31.41 23.024,31.493 C 22.94,31.535 22.857,31.617 22.773,31.7 C 22.731,31.824 22.731,31.99 22.773,32.197 L 22.857,32.363 L 22.815,32.528 C 22.773,32.984 22.521,33.936 22.27,34.308 C 21.977,34.93 21.642,35.303 21.18,35.8 L 20.803,36.13 V 36.38 L 20.887,36.628 L 20.929,36.835 C 21.181,37.373 21.264,37.455 21.683,37.87 C 22.186,38.325 22.27,39.112 22.103,39.733 C 22.06,39.899 21.39,39.94 20.971,39.94 C 20.594,39.94 20.175,39.816 19.672,39.775 C 19.588,39.733 19.546,39.733 19.672,39.692 L 19.798,39.651 L 20.133,39.485 L 20.217,39.402 L 20.301,39.361 V 39.319 C 20.511,39.029 20.468,38.988 20.511,38.657 A 0.383,0.383 0 0,1 20.804,38.533 C 21.013,38.657 21.054,38.988 21.181,38.988 C 21.222,38.822 21.264,38.947 21.222,38.74 V 38.657 C 21.139,37.746 20.51,37.414 20.175,36.669 C 19.463,35.427 21.265,34.267 21.6,32.529 C 21.683,32.114 21.516,31.576 21.725,31.12 L 21.851,30.83 L 22.186,30.334 L 22.396,30.127 L 22.606,29.961 L 22.856,29.795 L 23.108,29.671 L 23.401,29.547 L 24.323,29.423 C 24.784,28.47 24.7,27.021 25.245,25.572 C 25.287,25.572 25.371,25.654 25.413,25.903 C 25.497,26.234 25.58,26.731 25.58,27.228 Z M 35.386,27.228 L 35.26,27.518 V 29.919 L 35.553,31.659 V 32.279 L 35.511,32.569 C 35.469,33.398 35.176,34.392 34.799,35.095 C 34.296,36.089 33.584,36.71 33.249,37.787 C 32.787,38.284 32.704,39.029 32.955,39.65 H 32.913 V 39.692 L 33.039,39.899 L 33.081,39.982 L 33.123,40.023 V 40.064 L 33.165,40.106 L 33.248,40.313 C 33.374,40.603 33.416,40.893 33.458,41.223 L 33.374,41.555 L 33.332,41.597 V 41.638 L 33.29,41.721 L 33.165,41.762 L 32.913,42.011 L 32.829,42.052 L 32.745,42.135 V 42.176 L 32.662,42.218 V 42.259 C 32.327,42.466 31.992,42.632 31.572,42.715 C 31.447,42.632 31.405,42.508 31.447,42.342 A 1.47,1.47 0 0,0 31.824,42.052 C 32.075,41.762 32.201,41.555 32.284,41.265 C 32.284,40.189 31.824,37.745 32.284,36.835 C 32.41,36.586 32.829,35.841 32.787,35.551 L 32.829,35.468 L 32.871,35.137 L 33.374,34.392 L 33.584,33.977 L 33.794,33.605 L 33.961,33.191 C 34.338,32.321 34.547,31.617 34.631,30.665 A 8.05,8.05 0 0,0 34.673,28.925 L 34.631,28.47 L 34.589,28.18 L 34.631,27.932 L 34.715,27.601 L 34.841,27.311 L 34.967,27.062 L 35.134,26.855 V 26.814 H 35.176 C 35.344,26.855 35.427,27.021 35.386,27.228 Z" fill="rgb(254, 254, 253)"/>
<path d="M 31.52,41.995 C 31.154,42.3 30.902,42.425 30.483,42.632 V 42.673 L 30.315,42.715 L 30.19,42.632 V 42.549 L 30.315,42.383 L 30.357,42.3 L 30.441,42.26 L 30.651,41.97 V 41.804 C 30.609,41.679 30.609,41.596 30.651,41.555 H 30.735 V 41.472 V 41.224 L 30.776,41.183 H 30.818 V 41.058 V 40.81 H 30.902 L 30.986,40.851 V 40.893 L 31.196,41.1 C 31.279,41.224 31.447,41.265 31.531,41.555 C 31.573,41.721 31.615,41.886 31.531,42.011 Z M 18.038,36.876 C 18.08,36.959 17.744,37.207 17.703,37.373 C 17.954,37.993 18.163,38.781 18.163,39.195 L 18.122,39.278 L 17.954,39.402 C 17.87,39.774 17.786,39.982 17.661,40.064 A 1.563,1.563 0 0,1 16.948,39.733 L 16.823,39.567 L 16.655,39.237 L 16.613,39.071 L 16.571,38.822 V 38.325 L 16.613,38.077 L 16.655,38.035 C 17.032,37.663 17.367,36.875 17.703,36.752 C 17.786,36.752 17.954,36.793 18.038,36.876 Z M 19.043,38.118 C 19.127,37.994 19.169,37.911 19.295,38.035 L 19.337,38.118 L 19.378,38.242 L 19.504,38.739 L 19.546,38.781 C 19.672,38.946 19.63,39.195 19.588,39.401 V 39.484 L 19.504,39.567 H 19.42 C 18.96,39.484 18.792,39.774 18.499,39.733 V 39.692 L 18.666,39.526 L 18.75,39.484 L 18.792,39.402 L 18.876,39.319 L 18.96,39.153 V 38.988 C 18.918,38.863 18.918,38.822 18.96,38.739 H 19.043 V 38.574 H 19.002 L 18.96,38.408 V 38.242 H 19.043 V 38.118 Z M 27.802,13.687 L 27.718,13.646 C 27.34,13.646 27.173,13.77 26.963,14.101 C 26.503,15.054 25.623,15.551 25.078,16.711 C 24.868,17.041 24.785,17.331 24.701,17.538 C 24.659,17.994 24.826,18.449 25.036,18.822 C 25.12,19.029 25.162,19.195 25.203,19.36 C 25.455,20.644 24.659,21.348 25.623,22.631 C 26.586,23.915 28.137,26.027 27.885,27.435 V 27.601 L 27.801,27.766 L 27.76,27.932 S 27.676,27.973 27.634,28.097 C 27.634,28.263 27.676,28.47 27.466,28.884 C 27.382,28.967 27.299,29.008 27.173,28.967 C 27.089,28.843 27.089,28.677 27.173,28.429 C 27.257,28.346 27.257,28.304 27.341,28.18 C 27.424,28.056 27.341,27.766 27.341,27.766 C 26.88,25.572 24.324,24.909 23.988,22.549 C 23.653,22.88 23.067,23.294 22.27,23.791 C 20.385,25.199 19.924,27.518 19.589,29.712 C 19.589,30.126 19.547,30.416 19.463,30.623 C 19.379,30.83 19.295,30.996 19.17,31.12 H 19.128 L 19.086,31.162 V 31.369 A 0.645,0.645 0 0,1 18.834,31.699 C 18.709,31.824 18.583,31.907 18.415,32.031 C 18.332,32.114 18.332,32.28 18.29,32.445 L 18.164,32.652 V 32.694 L 18.206,32.735 V 32.776 L 18.164,32.818 L 18.08,32.859 C 17.996,32.942 17.913,33.025 17.913,33.108 L 17.619,33.273 A 0.594,0.594 0 0,1 17.535,33.563 H 17.41 L 17.284,33.605 L 16.991,33.729 L 16.739,33.895 L 16.529,34.019 H 16.446 L 16.404,34.06 L 16.32,34.102 L 16.195,34.143 H 16.111 L 16.069,34.184 L 15.859,34.226 C 15.566,34.267 15.147,34.267 14.519,34.267 C 14.435,34.226 14.351,34.184 14.267,34.102 L 14.141,34.019 L 14.016,33.977 L 13.848,33.895 L 13.513,33.646 C 12.759,32.776 12.591,31.451 13.764,30.747 V 30.582 L 13.848,30.499 H 13.974 C 14.309,30.541 14.686,30.458 14.896,30.789 C 15.021,30.789 15.147,30.83 15.273,30.872 C 15.44,30.996 15.524,31.41 15.273,31.617 C 14.98,31.865 14.644,32.031 14.351,32.28 C 14.058,32.445 13.931,32.362 13.848,32.528 C 13.764,32.859 13.848,33.066 14.058,33.315 C 14.268,33.563 14.56,33.729 14.896,33.688 C 15.021,33.728 15.106,33.728 15.189,33.728 A 0.865,0.865 0 0,1 15.357,33.48 C 15.44,33.439 15.692,33.356 16.027,33.273 C 16.153,33.232 16.237,33.232 16.32,33.149 C 16.488,33.066 16.614,32.984 16.781,32.901 C 16.907,32.818 17.075,32.694 17.201,32.528 L 17.242,32.487 H 17.284 L 17.452,32.321 L 17.535,32.197 L 17.619,32.114 L 17.703,31.866 V 31.783 L 17.745,31.741 L 17.787,31.617 C 18.625,28.346 17.41,26.4 19.421,23.957 C 19.924,23.294 21.181,22.59 22.019,22.3 C 22.479,22.176 22.857,22.176 23.318,22.259 C 23.653,22.259 23.611,22.217 23.863,22.093 C 23.443,20.188 23.863,20.768 22.606,19.195 A 2.465,2.465 0 0,1 22.228,18.573 C 21.684,16.544 23.569,16.089 24.784,14.888 C 25.413,14.433 26.251,13.438 26.964,13.273 H 27.173 L 27.424,13.315 L 27.592,13.356 L 27.76,13.439 L 27.843,13.522 L 27.885,13.604 V 13.687 H 27.801 Z" fill="rgb(254, 254, 253)"/>
<path d="M 26.701999999999998,16.529 C 26.795,16.669 26.125,17.538 26.125,17.663 L 25.999,17.703 C 25.916,17.497 26.083,17.207 26.041,17.166 C 25.958,17.041 25.79,17.166 25.79,17 C 25.706,16.917 25.58,16.876 25.622,16.752 C 25.622,16.42 26.502,16.255 26.712,16.545 Z M 30.149,16.669 L 30.065,16.71 C 30.107,16.793 30.023,16.793 30.023,16.917 C 29.981,17.083 29.73,17.166 29.603,17.166 C 29.52,17.166 29.268,17.538 28.807,17.373 C 28.556,17.331 28.472,17.745 28.179,17.745 C 28.053,17.745 28.262,17.497 28.262,17.415 C 28.43,17.165 28.514,16.959 28.64,16.71 L 28.807,16.627 C 29.059,16.627 29.31,16.586 29.604,16.71 L 29.73,16.751 L 29.855,16.711 C 29.939,16.545 30.065,16.503 30.149,16.669 Z M 27.34,18.076 C 27.592,18.366 28.01,17.911 28.053,18.201 C 28.094,18.325 27.466,18.615 27.383,18.615 L 27.089,18.781 C 26.837,18.946 26.879,19.236 26.795,19.401 C 26.795,19.567 27.047,19.65 27.173,19.733 C 27.424,19.898 27.633,20.437 28.011,20.313 C 28.388,20.271 28.555,20.147 28.849,20.23 C 28.849,20.395 29.016,20.188 29.059,20.354 L 29.184,20.478 C 29.184,20.602 29.016,20.685 28.891,20.727 C 28.597,20.851 28.388,20.892 28.095,20.809 C 27.717,20.892 27.508,20.519 27.215,20.395 C 27.131,20.271 26.963,20.23 26.879,20.147 C 26.753,20.064 26.712,20.106 26.544,20.188 C 26.167,20.354 25.999,20.685 25.79,20.561 C 25.832,20.313 25.915,20.147 26.209,19.816 C 26.293,19.733 26.544,19.691 26.544,19.443 C 26.544,19.277 26.334,18.863 26.334,18.822 C 26.209,18.739 26.251,18.656 26.167,18.615 C 25.622,18.242 25.747,18.118 25.873,18.077 C 26.167,18.035 26.837,17.787 27.34,18.077 Z M 28.304,21.555 L 29.142,21.182 C 29.267,21.182 28.89,21.514 28.806,21.679 C 28.596,21.969 28.304,22.052 27.968,22.3 C 27.927,22.383 27.801,22.466 27.843,22.673 C 27.801,22.797 27.717,22.88 27.675,22.921 C 27.549,22.963 27.047,22.714 26.963,22.591 C 26.67,22.217 26.503,22.135 26.293,21.928 A 0.662,0.662 0 0,1 26.083,21.472 L 26.125,21.431 L 26.376,21.555 L 27.172,21.679 C 27.466,21.762 28.094,21.679 28.304,21.555 Z" fill="rgb(254, 254, 253)"/>
</svg>
