<?xml version="1.0" encoding="UTF-8"?>
<!-- generated by Finnhub -->
<svg viewBox="0 0 55.5 55.5" xmlns="http://www.w3.org/2000/svg">
<path d="M 0,0 H 55.5 V 55.5 H 0 Z" fill="rgb(203, 8, 45)"/>
<path d="M 42.263000000000005,35.223 C 39.631,40.438 34.232,44 28,44 C 21.768,44 16.369,40.437 13.727,35.238 C 14.119,35.045 14.529,34.857 14.947,34.733 A 3.09,3.09 0 0,1 16.834,34.747 C 17.38,34.93 17.873,35.242 18.358,35.549 L 18.509,35.645 H 18.511 C 19.518,36.281 20.661,37 22.113,37 C 24.267,37 25.779,35.71 26.262,33.462 A 730.924,730.924 0 0,0 28,25 S 29.365,31.72 29.738,33.462 C 30.221,35.711 31.734,37 33.888,37 C 35.341,37 36.482,36.28 37.49,35.646 L 37.492,35.645 L 37.642,35.549 C 38.128,35.242 38.62,34.93 39.167,34.746 C 39.787,34.538 40.428,34.548 41.053,34.733 C 41.471,34.857 41.881,35.046 42.273,35.238 Z M 43.226,32.93 A 18.12,18.12 0 0,0 42.098,32.429 C 40.268,31.698 38.592,31.943 36.913,32.963 C 36.913,32.963 36.301,33.338 36.118,33.453 L 36.106,33.461 C 35.328,33.95 34.594,34.411 33.888,34.411 C 33.211,34.411 32.545,34.23 32.263,32.917 C 31.823,30.869 30.751,25.837 30.283,23.344 C 30.008,21.879 29.857,21.089 29.701,20.553 C 29.425,19.61 28.921,19.098 28.204,19.016 C 28.204,19.016 28.091,19 28,19 C 27.91,19 27.785,19.018 27.785,19.018 C 27.075,19.103 26.574,19.616 26.3,20.553 C 26.143,21.09 25.992,21.879 25.718,23.343 C 25.25,25.836 24.178,30.869 23.738,32.917 C 23.456,34.23 22.79,34.412 22.113,34.412 C 21.407,34.412 20.673,33.95 19.894,33.461 L 19.883,33.453 C 19.7,33.338 19.087,32.963 19.087,32.963 C 17.408,31.943 15.732,31.698 13.903,32.429 C 13.517,32.583 13.137,32.756 12.774,32.93 A 15.988,15.988 0 0,1 12,28 C 12,19.163 19.163,12 28,12 C 36.837,12 44,19.163 44,28 C 44,29.72 43.728,31.377 43.226,32.93 Z" fill="rgb(254, 254, 253)"/>
</svg>
