<?xml version="1.0" encoding="UTF-8"?>
<!-- generated by Finnhub -->
<svg viewBox="0 0 55.5 55.5" xmlns="http://www.w3.org/2000/svg">
<path d="M 0,0 H 55.5 V 55.5 H 0 Z" fill="rgb(1, 84, 147)"/>
<path d="M 43.986000000000004,23.656 V 22.407 C 43.709,22.639 42.956,23.183 42.194,23.183 C 41.229,23.183 40.264,22.301 40.264,22.301 L 40.231,22.329 C 40.083,22.458 39.403,23.013 38.656,23.151 C 38.604,23.161 38.549,23.169 38.497,23.174 H 38.487 A 1.39,1.39 0 0,1 38.332,23.183 C 37.368,23.183 36.406,22.301 36.406,22.301 S 35.438,23.183 34.472,23.183 C 34.028,23.183 33.589,22.994 33.239,22.793 A 2.068,2.068 0 0,1 32.684,22.3 A 2.03,2.03 0 0,1 32.339,21.667 L 28.859,10.668 L 24.941,23 H 12 L 22.522,30.415 L 18.441,42.668 L 28.859,35.007 L 39.275,42.668 L 35.618,31.692 C 35.282,31.859 34.877,32.007 34.467,32.007 C 33.504,32.007 32.537,31.199 32.537,31.199 S 31.573,32.007 30.609,32.007 S 28.679,31.126 28.679,31.126 L 28.677,31.199 V 29.761 S 29.645,30.644 30.609,30.644 S 32.537,29.761 32.537,29.761 S 33.504,30.644 34.467,30.644 C 35.309,30.644 36.151,29.972 36.352,29.801 V 28.276 C 36.146,28.436 35.309,29.046 34.47,29.046 C 33.504,29.046 32.542,28.238 32.542,28.238 S 31.575,29.045 30.612,29.045 C 29.647,29.045 28.682,28.165 28.682,28.165 L 28.68,28.238 V 26.801 S 29.647,27.683 30.611,27.683 C 31.575,27.683 32.541,26.801 32.541,26.801 S 33.504,27.683 34.47,27.683 C 35.435,27.683 36.4,26.801 36.4,26.801 S 37.365,27.683 38.329,27.683 A 1.4,1.4 0 0,0 38.486,27.675 L 38.495,27.674 C 38.547,27.67 38.6,27.662 38.653,27.652 A 2.89,2.89 0 0,0 39.512,27.324 L 40.212,26.824 V 25.28 C 40.036,25.414 39.378,25.885 38.654,26.02 C 38.601,26.03 38.547,26.037 38.494,26.04 L 38.486,26.042 A 1.624,1.624 0 0,1 38.331,26.05 C 37.367,26.05 36.4,25.242 36.4,25.242 S 35.435,26.05 34.47,26.05 C 33.504,26.05 32.542,25.242 32.542,25.242 S 31.575,26.05 30.612,26.05 C 29.647,26.05 28.682,25.17 28.682,25.17 L 28.68,25.242 V 23.805 L 28.682,23.846 S 28.68,23.826 28.68,23.805 C 28.69,23.815 29.65,24.687 30.611,24.687 C 31.044,24.687 31.473,24.508 31.821,24.312 C 32.245,24.091 32.543,23.846 32.543,23.846 S 32.814,24.07 33.209,24.282 C 33.563,24.492 34.014,24.687 34.47,24.687 C 34.902,24.687 35.33,24.508 35.676,24.313 C 36.102,24.093 36.402,23.846 36.402,23.846 S 36.693,24.086 37.11,24.304 C 37.457,24.503 37.892,24.687 38.329,24.687 C 38.383,24.687 38.435,24.684 38.486,24.679 H 38.495 C 38.547,24.674 38.6,24.666 38.653,24.657 C 39.036,24.587 39.403,24.403 39.687,24.227 C 40.033,24.032 40.264,23.847 40.264,23.847 S 40.539,24.074 40.939,24.287 C 41.291,24.493 41.739,24.687 42.192,24.687 C 42.608,24.687 43.019,24.522 43.358,24.335 C 43.636,24.195 43.865,24.041 43.996,23.944 V 23.672 Z" fill="rgb(254, 254, 253)"/>
</svg>
