<?xml version="1.0" encoding="UTF-8"?>
<!-- generated by Finnhub -->
<svg viewBox="0 0 55.5 55.5" xmlns="http://www.w3.org/2000/svg">
<path d="M 0,0 H 55.5 V 55.5 H 0 Z" fill="gold"/>
<path d="M 43.821000000000005,35.929 C 43.939,36.079 44.128,35.917 44.047,35.783 L 31.563,14.253 L 29.212,10.188 A 0.42,0.42 0 0,0 28.86,10 A 0.322,0.322 0 0,0 28.563,10.242 L 25.158,21.546 C 24.618,23.322 25.968,25.098 27.806,25.098 H 31.211 C 33.184,25.098 35.076,25.96 36.373,27.44 L 43.831,35.944 Z" fill="rgb(7, 8, 11)"/>
<path d="M 22.796999999999997,22.258 L 25.455,13.472 C 25.51,13.31 25.293,13.23 25.212,13.364 L 10.052,39.497 C 9.944,39.685 10.025,39.82 10.106,39.901 C 10.187,39.981 10.322,40.062 10.511,39.981 L 10.566,39.955 L 24.023,35.029 A 2.73,2.73 0 0,0 25.456,31.073 L 23.429,27.628 A 6.862,6.862 0 0,1 22.807,22.273 Z" fill="rgb(7, 8, 11)"/>
<path d="M 45.632000000000005,41.958 C 45.831,41.973 45.939,41.839 45.966,41.758 C 45.993,41.677 46.047,41.542 45.912,41.381 L 35.778,29.835 C 34.535,28.409 32.238,28.625 31.292,30.265 L 29.374,33.603 A 6.944,6.944 0 0,1 25.807,36.59 L 11.727,41.73 C 11.592,41.785 11.619,42 11.781,42 L 45.641,41.973 Z" fill="rgb(7, 8, 11)"/>
</svg>
