<?xml version="1.0" encoding="UTF-8"?>
<!-- generated by Finnhub -->
<svg viewBox="0 0 55.5 55.5" xmlns="http://www.w3.org/2000/svg">
<path d="M 0,0 H 55.5 V 55.5 H 0 Z" fill="rgb(0, 110, 206)"/>
<path d="M 22.156,10.987 L 25,17.922 V 11 H 32.858 L 34.35,15.228 L 35.623,11 H 44 V 26 H 45.291 L 38.149,34.505 L 45.221,43 H 35.707 L 33.49,40.225 L 31.328,43 H 14 V 28.002 H 8.474 L 15.442,11.002 H 22.166 Z M 26,41 V 38.178 H 19.333 V 35.868 H 26 V 33.132 H 19.333 V 30.908 H 26 V 28 L 21.31,28.002 L 21.31,28 H 16.216 L 16.214,28.002 H 16 V 41 H 26 Z M 26,28 L 31.531,34.58 L 26.13,41 H 30.352 L 33.473,36.996 L 36.671,41 H 40.954 L 35.541,34.5 L 41,28 H 36.884 L 33.578,32.068 L 30.284,28 H 26 Z M 26.147,26 L 20.824,13.002 H 16.784 L 11.455,26.002 H 14 V 26 H 14.925 L 15.908,24 H 21.624 L 22.601,26 H 26.147 Z M 27,26 H 30 V 16.54 L 33,26 H 36 L 39,16.54 V 26 H 42 V 13 H 37.11 L 34.5,21.667 L 31.443,13 H 27 V 26 Z M 18.756,16.134 L 17.008,21 H 20.498 L 18.756,16.134 Z" fill="rgb(254, 254, 253)"/>
</svg>
