<?xml version="1.0" encoding="UTF-8"?>
<!-- generated by Finnhub -->
<svg viewBox="0 0 55.5 55.5" xmlns="http://www.w3.org/2000/svg">
<path d="M 0,0 H 55.5 V 55.5 H 0 Z" fill="rgb(137, 1, 79)"/>
<path d="M 41.973,28.807 A 1.557,1.557 0 0,0 41.95,28.607 A 3.513,3.513 0 0,0 41.82,28.183 A 3.594,3.594 0 0,0 41.612,27.761 A 5.05,5.05 0 0,0 41.329,27.325 A 2.114,2.114 0 0,0 41.132,27.093 A 2.65,2.65 0 0,0 40.885,26.859 C 40.685,26.699 40.487,26.535 40.27,26.401 C 39.794,26.106 39.32,25.799 38.81,25.571 C 38.194,25.297 37.597,24.972 36.962,24.749 L 32.677,23.244 C 32.677,22.419 32.7,21.595 32.677,20.771 A 77.44,77.44 0 0,0 32.498,17.106 A 32.992,32.992 0 0,0 32.201,14.569 C 32.099,13.913 31.945,13.265 31.801,12.618 C 31.768,12.468 31.719,12.325 31.67,12.182 A 5.838,5.838 0 0,0 31.372,11.46 A 3.931,3.931 0 0,0 31.036,10.919 A 2.708,2.708 0 0,0 30.509,10.389 A 1.962,1.962 0 0,0 29.575,10.019 A 1.706,1.706 0 0,0 29.369,10.002 C 29.251,10 29.133,9.998 29.016,10.006 A 3.006,3.006 0 0,0 28.254,10.158 C 28.117,10.204 27.984,10.26 27.855,10.324 A 6.362,6.362 0 0,0 27.015,10.856 C 26.776,11.037 26.533,11.214 26.315,11.42 A 90.667,90.667 0 0,0 23.683,14.024 C 23.225,14.497 22.781,14.985 22.366,15.495 C 20.715,17.517 19.071,19.545 17.483,21.619 C 16.778,22.539 16.144,23.512 15.491,24.469 A 9.68,9.68 0 0,0 15.035,25.209 C 14.791,25.652 14.562,26.103 14.338,26.557 A 3.48,3.48 0 0,0 14.19,26.924 A 4.032,4.032 0 0,0 14.077,27.284 A 1.968,1.968 0 0,0 14.004,27.961 C 14.008,28.016 14.024,28.071 14.041,28.121 C 14.061,28.178 14.086,28.231 14.114,28.284 C 14.146,28.34 14.184,28.393 14.223,28.444 C 14.265,28.499 14.309,28.554 14.357,28.603 C 14.463,28.708 14.571,28.811 14.687,28.907 C 14.805,29.005 14.927,29.099 15.054,29.184 C 15.277,29.332 15.508,29.47 15.737,29.606 C 15.837,29.665 15.944,29.716 16.046,29.77 C 16.082,29.788 15.973,29.731 15.938,29.711 C 15.933,29.71 15.922,29.703 15.925,29.704 C 15.931,29.706 15.938,29.71 15.943,29.714 L 16.113,29.803 C 17.523,30.548 18.94,31.283 20.345,32.041 C 21.756,32.801 23.168,33.565 24.562,34.358 L 27.697,36.14 C 26.608,36.974 25.499,37.779 24.432,38.64 A 14.307,14.307 0 0,0 22.428,40.66 A 8.836,8.836 0 0,0 21.839,41.497 A 6.196,6.196 0 0,0 21.46,42.201 A 4.548,4.548 0 0,0 21.246,42.769 A 3.1,3.1 0 0,0 21.15,43.184 C 21.136,43.268 21.133,43.354 21.128,43.441 C 21.127,43.471 21.132,43.5 21.132,43.529 C 21.134,43.607 21.13,43.684 21.134,43.761 A 1.997,1.997 0 0,0 21.343,44.541 C 21.372,44.597 21.401,44.654 21.439,44.704 C 21.511,44.804 21.584,44.904 21.67,44.991 C 21.756,45.079 21.85,45.159 21.95,45.232 C 22.049,45.306 22.155,45.371 22.264,45.431 C 22.374,45.491 22.487,45.543 22.602,45.592 C 22.717,45.641 22.833,45.692 22.955,45.719 C 23.393,45.817 23.834,45.906 24.279,45.967 C 24.496,45.997 24.718,46.01 24.936,45.992 C 25.694,45.932 26.451,45.854 27.202,45.734 C 28.078,45.595 28.948,45.409 29.815,45.217 A 75.61,75.61 0 0,0 32.871,44.482 C 33.587,44.292 34.315,44.122 35,43.839 C 35.54,43.617 36.085,43.404 36.62,43.171 C 36.74,43.119 36.854,43.051 36.967,42.984 C 37.069,42.924 37.17,42.859 37.266,42.789 C 37.35,42.729 37.434,42.664 37.509,42.591 A 1.42,1.42 0 0,0 37.684,42.391 A 1.06,1.06 0 0,0 37.859,41.997 A 0.86,0.86 0 0,0 37.861,41.628 A 1.156,1.156 0 0,0 37.733,41.293 A 1.664,1.664 0 0,0 37.523,40.999 A 2.677,2.677 0 0,0 37.047,40.574 A 4.092,4.092 0 0,0 36.805,40.414 C 36.247,40.074 35.691,39.727 35.129,39.392 L 32.776,37.986 C 34.205,37.006 35.647,36.043 37.064,35.042 C 37.669,34.614 38.264,34.172 38.839,33.702 C 39.331,33.3 39.799,32.869 40.258,32.43 C 40.476,32.221 40.67,31.99 40.868,31.76 C 40.958,31.656 41.041,31.545 41.12,31.432 C 41.192,31.33 41.265,31.227 41.322,31.114 C 41.506,30.744 41.688,30.372 41.842,29.988 C 41.903,29.832 41.929,29.663 41.964,29.498 A 2.522,2.522 0 0,0 42,29.04 A 3.495,3.495 0 0,0 41.983,28.822 Z M 24.413,19.09 C 25.211,18.253 26.011,17.417 26.823,16.593 C 26.971,16.443 27.135,16.308 27.293,16.168 C 27.348,16.12 27.407,16.074 27.465,16.028 C 27.51,15.994 27.555,15.958 27.603,15.927 A 0.712,0.712 0 0,1 27.833,15.832 A 0.606,0.606 0 0,1 27.968,15.827 C 27.991,15.827 28.014,15.834 28.036,15.842 A 0.434,0.434 0 0,1 28.169,15.917 A 0.653,0.653 0 0,1 28.297,16.064 C 28.318,16.098 28.341,16.133 28.355,16.171 C 28.394,16.272 28.429,16.376 28.455,16.483 C 28.492,16.634 28.521,16.788 28.545,16.944 C 28.602,17.324 28.655,17.703 28.698,18.084 C 28.753,18.577 28.792,19.071 28.837,19.565 L 29.079,22.195 L 26.183,21.52 L 23.48,21.07 L 22.826,21.02 L 22.614,21.014 C 23.214,20.372 23.808,19.726 24.414,19.09 Z M 22.597,22.747 L 22.607,22.731 L 22.623,22.722 L 22.645,22.72 L 22.68,22.725 L 22.781,22.755 L 23.043,22.856 L 23.4,23.016 L 26.16,24.21 C 26.77,24.473 27.381,24.734 27.99,24.998 L 29.196,25.518 L 29.303,25.568 C 29.368,26.531 29.447,27.494 29.497,28.458 C 29.537,29.212 29.553,29.967 29.571,30.721 C 29.573,30.817 29.566,30.911 29.559,31.006 A 1.89,1.89 0 0,1 29.543,31.166 A 1.208,1.208 0 0,1 29.509,31.323 A 0.783,0.783 0 0,1 29.452,31.471 A 0.767,0.767 0 0,1 29.363,31.598 A 0.642,0.642 0 0,1 29.235,31.698 A 0.578,0.578 0 0,1 29.061,31.76 A 0.866,0.866 0 0,1 28.821,31.766 A 1.003,1.003 0 0,1 28.691,31.741 A 0.963,0.963 0 0,1 28.558,31.7 A 2.591,2.591 0 0,1 28.283,31.566 A 3.043,3.043 0 0,1 27.992,31.374 A 4.341,4.341 0 0,1 27.693,31.129 A 4.548,4.548 0 0,1 27.39,30.837 A 13.804,13.804 0 0,1 26.782,30.142 C 26.432,29.71 26.069,29.285 25.762,28.822 C 25.339,28.182 24.904,27.55 24.492,26.903 C 24.247,26.517 23.994,26.133 23.79,25.721 L 22.86,23.858 L 22.66,23.264 L 22.614,23.087 L 22.586,22.917 L 22.584,22.794 L 22.597,22.747 Z M 32.871,39.265 C 33.122,39.425 33.374,39.583 33.621,39.748 C 33.94,39.96 34.26,40.172 34.569,40.398 C 34.791,40.56 35.004,40.736 35.214,40.916 C 35.307,40.996 35.394,41.082 35.478,41.173 C 35.546,41.248 35.605,41.329 35.666,41.411 A 0.026,0.026 0 0,1 35.669,41.429 A 0.134,0.134 0 0,1 35.663,41.472 A 0.053,0.053 0 0,1 35.648,41.495 A 0.107,0.107 0 0,1 35.618,41.515 A 0.497,0.497 0 0,1 35.505,41.538 C 34.285,41.631 33.061,41.716 31.84,41.813 L 27.068,42.193 L 26.919,42.202 L 26.988,42.127 L 27.288,41.857 C 27.908,41.393 28.506,40.899 29.145,40.461 L 31.847,38.608 C 32.187,38.826 32.53,39.045 32.871,39.265 Z M 36.547,29.76 A 0.762,0.762 0 0,1 36.409,30.024 A 3.111,3.111 0 0,1 36.149,30.304 C 35.949,30.488 35.752,30.677 35.532,30.835 C 34.773,31.379 34.022,31.936 33.255,32.467 C 32.727,32.833 32.182,33.175 31.642,33.525 L 28.507,35.563 L 27.175,34.791 L 21.497,31.508 C 20.215,30.733 18.925,29.971 17.651,29.182 C 17.411,29.033 17.186,28.861 16.956,28.696 C 16.883,28.643 16.816,28.583 16.746,28.528 C 16.724,28.511 16.699,28.495 16.679,28.477 A 2.463,2.463 0 0,1 16.537,28.337 A 0.847,0.847 0 0,1 16.404,28.124 A 0.565,0.565 0 0,1 16.368,27.995 A 0.472,0.472 0 0,1 16.368,27.856 A 0.831,0.831 0 0,1 16.475,27.559 A 2.744,2.744 0 0,1 16.913,26.98 C 17.646,26.217 18.391,25.464 19.128,24.703 L 21.116,22.652 L 21.21,22.983 L 21.452,23.566 L 21.468,23.601 C 21.993,24.523 22.487,25.463 23.044,26.365 C 23.684,27.402 24.372,28.409 25.059,29.415 C 25.382,29.885 25.719,30.347 26.073,30.795 C 26.382,31.183 26.701,31.565 27.047,31.921 C 27.351,32.233 27.684,32.518 28.022,32.793 C 28.19,32.929 28.378,33.038 28.562,33.15 A 2.914,2.914 0 0,0 29.382,33.466 A 1.833,1.833 0 0,0 30.284,33.446 A 1.442,1.442 0 0,0 30.765,33.213 C 30.847,33.15 30.93,33.085 31.005,33.013 C 31.068,32.951 31.127,32.883 31.18,32.813 A 2.8,2.8 0 0,0 31.368,32.529 A 4.151,4.151 0 0,0 31.731,31.733 C 31.83,31.428 31.924,31.121 32,30.808 C 32.1,30.386 32.213,29.963 32.258,29.53 L 32.515,27.025 C 33.102,27.302 33.703,27.553 34.277,27.856 C 34.837,28.152 35.375,28.494 35.919,28.82 C 35.983,28.859 36.042,28.904 36.099,28.951 C 36.18,29.019 36.258,29.091 36.332,29.167 A 0.903,0.903 0 0,1 36.513,29.443 C 36.533,29.493 36.545,29.545 36.555,29.598 C 36.56,29.624 36.558,29.651 36.557,29.678 A 0.26,0.26 0 0,1 36.547,29.76 Z" fill="rgb(233, 192, 0)"/>
</svg>
