<?xml version="1.0" encoding="UTF-8"?>
<!-- generated by Finnhub -->
<svg viewBox="0 0 55.5 55.5" xmlns="http://www.w3.org/2000/svg">
<path d="M 0,0 H 55.5 V 55.5 H 0 Z" fill="rgb(212, 42, 28)"/>
<path d="M 49.876000000000005,27.985 H 48.874 C 49.237,27.375 49.609,26.993 49.928,27.049 C 50.265,27.109 50.154,27.456 49.886,28 Z M 50.447,25.671 C 48.65,25.578 47.07,26.963 46.295,29.096 C 45.741,30.623 45.866,31.906 47.567,31.995 C 48.998,32.069 50.27,31.702 51.222,30 H 49.028 C 48.728,30.446 48.411,30.494 48.139,30.442 C 47.758,30.37 48.199,29.315 48.418,29 H 51.608 C 51.732,28.748 51.848,28.479 51.953,28.188 C 52.507,26.661 52.007,25.752 50.447,25.671 Z M 45.749,26.059 C 44.677,25.803 43.972,26.463 43.972,26.463 L 44.207,26 H 42.17 L 38.666,31.998 H 40.903 L 43.008,28.421 C 43.156,28.167 43.357,27.876 43.657,27.939 C 43.925,27.995 44.004,28.235 43.917,28.396 L 41.797,32 H 44.017 L 46.559,27.668 C 46.91,27.039 46.333,26.198 45.748,26.058 Z M 37.819,28.603 C 37.269,29.605 36.895,30.105 36.433,30.019 C 36.096,29.957 36.223,29.505 36.553,28.899 C 37.017,28.053 37.513,27.437 37.927,27.505 C 38.313,27.569 38.15,27.997 37.818,28.603 Z M 38.651,25.671 C 36.805,25.578 35.071,26.963 34.276,29.096 C 33.706,30.623 33.946,31.906 35.693,31.995 C 37.457,32.084 39.146,31.041 40.09,28.511 C 40.66,26.984 40.253,25.752 38.651,25.671 Z" fill="rgb(254, 254, 253)"/>
<path d="M 36.027,26.189999999999998 L 37.334,24 H 30.714 L 29.6,26 H 32.857 L 27.26,29.874 L 26,32 H 32.63 L 33.74,30 H 30.627 L 36.037,26.205 Z M 25.152,28.603 C 24.602,29.605 24.228,30.105 23.766,30.019 C 23.43,29.957 23.556,29.505 23.886,28.899 C 24.349,28.053 24.846,27.437 25.26,27.505 C 25.647,27.569 25.482,27.997 25.152,28.603 Z M 25.983,25.671 C 24.138,25.578 22.404,26.963 21.609,29.096 C 21.039,30.623 21.28,31.906 23.026,31.995 C 24.791,32.085 26.479,31.041 27.423,28.512 C 27.993,26.984 27.585,25.752 25.983,25.672 Z M 20.615,27.998 H 21.809 L 23,26 H 21.81 L 22.328,25 H 19.982 L 17.17,29.981 C 16.913,30.458 16.937,30.992 17.311,31.474 C 17.578,31.824 17.858,32 18.363,32 H 19.693 L 20.823,30.02 H 19.818 C 19.741,30.02 19.653,30.032 19.621,29.958 C 19.604,29.912 19.594,29.864 19.615,29.822 L 20.615,27.998 Z M 16.765,26 L 14.475,29.862 C 14.288,30.182 14.094,30.272 13.797,30.217 C 13.426,30.147 13.581,29.879 13.687,29.695 L 15.946,26 H 13.702 S 11.149,30.211 11.15,30.213 C 10.695,31.003 11.293,31.797 12.771,31.971 C 13.611,32.071 15.374,31.975 16.205,30.628 L 16.209,30.624 L 19,26 H 16.765 Z M 10.517,26.703 L 9.733,28 H 8.59 L 9.464,26.546 A 0.799,0.799 0 0,1 10.273,26.136 C 10.618,26.169 10.729,26.346 10.516,26.703 Z M 11.432,24.033 C 10.487,23.915 8.478,24.033 7.597,25.716 L 4,32 H 6.344 L 7.597,30 H 8.737 L 7.483,32 H 9.81 L 13.124,26.228 C 13.676,25.21 13.144,24.248 11.432,24.033 Z" fill="rgb(254, 254, 253)"/>
</svg>
