<?xml version="1.0" encoding="UTF-8"?>
<!-- generated by Finnhub -->
<svg viewBox="0 0 55.5 55.5" xmlns="http://www.w3.org/2000/svg">
<path d="M 0,0 H 55.5 V 55.5 H 0 Z" fill="rgb(1, 84, 127)"/>
<path d="M 13.863,24.985 H 15.023 L 18.24,30.995 H 16.718 L 16.153,30 H 12.639 L 12.11,30.995 H 10.626 L 13.873,25 Z M 15.693,29 L 14.411,26.282 L 13.103,29 H 15.693 Z M 27,25 H 29.535 C 30.935,25 31.861,25.578 31.861,26.92 C 31.861,27.78 31.519,28.63 30.561,28.888 L 32.218,31 H 30.829 L 29.42,29 H 28 V 31 H 27 V 25 Z M 29.305,28 C 30.035,28 30.699,27.694 30.699,26.92 C 30.699,26.213 30.089,26 29.42,26 H 28 V 28 H 29.305 Z M 20,25 H 22.535 C 23.935,25 24.861,25.578 24.861,26.92 C 24.861,27.78 24.519,28.63 23.561,28.888 L 25.218,31 H 23.829 L 22.42,29 H 21 V 31 H 20 V 25 Z M 22.305,28 C 23.035,28 23.699,27.694 23.699,26.92 C 23.699,26.213 23.089,26 22.42,26 H 21 V 28 H 22.305 Z M 34,25 H 35 V 31 H 34 V 25 Z M 42.794,26.42 C 42.225,25.958 41.701,25.832 41.171,25.832 C 39.58,25.832 38.353,26.774 38.353,27.964 C 38.353,29.24 39.58,30.189 41.171,30.189 C 41.791,30.189 42.391,29.97 42.903,29.461 L 44.033,30.089 C 43.337,30.829 42.289,31.154 41.158,31.154 C 38.781,31.154 37.081,29.904 37.081,28.04 C 37.081,26.123 38.781,24.874 41.158,24.874 C 42.206,24.874 43.101,25.138 43.861,25.819 L 42.794,26.42 Z M 46,25 H 47 V 27.551 L 50.2,25 H 51.752 L 48.254,27.782 L 51.988,30.995 H 50.362 L 47,28.06 V 30.995 H 46 V 25 Z M 4,25 H 6.957 C 8.149,25 9.16,25.455 9.16,26.539 C 9.16,27.213 8.824,27.663 8.005,27.848 V 27.868 C 9.001,27.953 9.495,28.542 9.495,29.308 C 9.495,30.611 8.215,31 6.722,31 H 4 V 25 Z M 5,27.464 H 6.571 C 7.508,27.464 7.979,27.16 7.979,26.711 C 7.979,26.195 7.508,26 6.447,26 H 5 V 27.464 Z M 5,30 H 6.584 C 7.311,30 8.313,30.01 8.313,29.223 C 8.313,28.595 7.776,28.413 6.637,28.413 H 5 V 30 Z" fill="rgb(254, 254, 253)"/>
<path d="M 49.971000000000004,32.979 C 50.407,32.819 51.501,32.141 51.988,31.997 C 36.026,31.997 3.968,32.034 3.968,32.034 S 34.691,32.907 49.981,32.994 Z" fill="rgb(162, 144, 95)"/>
</svg>
