<?xml version="1.0" encoding="UTF-8"?>
<!-- generated by Finnhub -->
<svg viewBox="0 0 55.5 55.5" xmlns="http://www.w3.org/2000/svg">
<path d="M 0,0 H 55.5 V 55.5 H 0 Z" fill="rgb(1, 100, 177)"/>
<path d="M 24.959,38.074 C 21.922,42.399 17.397,43.984 15.829,42.399 C 14.532,41.089 14.671,37.74 16.717,33.491 A 12.18,12.18 0 0,1 14,25.84 C 14,19.232 19.387,14 26.033,14 C 27.966,14 29.786,14.442 31.397,15.232 C 33.574,13.402 35.613,11.936 37.157,11 C 36.635,11.527 36.009,12.134 35.309,12.813 A 199.68,199.68 0 0,0 32.333,15.745 A 11.744,11.744 0 0,1 38,25.839 C 38,27.757 37.552,29.586 36.753,31.216 C 42.709,33.116 53,33.78 53,33.78 L 34.543,34.363 C 32.38,36.597 29.373,38 26.033,38 C 23.218,38 20.628,37.003 18.578,35.351 C 17.303,38.949 18.067,40.356 19.484,40.551 C 21.16,40.782 23.75,39.321 24.969,38.089 Z M 18.959,34.357 C 20.851,35.953 23.305,36.909 26.033,36.909 C 28.892,36.909 31.435,35.86 33.344,34.125 L 29.234,27.007 S 31.967,29.308 35.328,30.701 C 35.474,30.761 35.625,30.821 35.78,30.88 A 11.402,11.402 0 0,0 36.933,25.839 C 36.933,21.729 34.832,18.315 31.593,16.501 C 29.797,18.351 27.896,20.448 26.188,22.697 L 25.978,22.974 C 23.17,26.669 21.463,28.915 19.484,33.164 C 19.289,33.582 19.114,33.98 18.959,34.357 Z M 17.221,32.5 C 17.534,31.914 17.882,31.314 18.266,30.702 C 20.59,26.993 22.018,24.802 24.969,21.467 A 61.03,61.03 0 0,1 30.525,15.979 A 11.508,11.508 0 0,0 26.033,15.092 C 19.845,15.092 15.067,19.687 15.067,25.84 C 15.067,28.348 15.861,30.652 17.221,32.5 Z" fill="rgb(254, 254, 253)"/>
</svg>
