<?xml version="1.0" encoding="UTF-8"?>
<!-- generated by Finnhub -->
<svg viewBox="0 0 55.5 55.5" xmlns="http://www.w3.org/2000/svg">
<path d="M 0,0 H 55.5 V 55.5 H 0 Z" fill="rgb(254, 101, 2)"/>
<path d="M 13.13,36.435 C 12.94,36.4 12.67,36.25 12.44,36.07 C 10.46,34.13 12.98,31.87 15.91,30.55 V 26.82 C 16.61,27.24 16.95,27.28 17,27.36 L 19.22,25.09 L 18.48,23.19 C 25.02,20.87 27.66,19.99 32.98,19.07 L 32.03,18.19 L 33.6,17.26 C 37.18,18.48 40.52,18.79 39.95,21.84 C 40.1,19.79 37.59,19 33.71,17.88 L 32.99,18.34 L 34.41,19.54 A 85.6,85.6 0 0,0 19.47,23.57 L 20.09,25.26 L 17.78,27.59 C 18.17,27.7 22.22,29.1 26.48,26.08 C 26.5,26.05 26.57,26.04 26.57,25.98 C 26.42,25.78 26.15,25.57 25.8,25.23 A 2.06,2.06 0 0,1 27.67,27.59 H 27.11 C 27.17,27.23 27.08,26.81 26.93,26.54 A 10.9,10.9 0 0,1 16.61,28.19 V 31.09 C 15.01,31.64 12.21,33.42 12.23,35.13 C 12.33,35.93 12.75,36.23 13.14,36.45 Z" fill="rgb(0, 0, 3)"/>
<path d="M 26.419999999999998,35.685 C 22.91,37.54 19.56,38.99 14.33,39.2 C 7.58,39.06 6.53,34.48 9.74,29.69 C 12.75,24.86 17.55,20.49 25.2,17.74 A 27.73,27.73 0 0,1 33.79,16 C 38.31,15.96 42.69,17.4 42.39,21.79 C 42.25,25.17 37.46,29.96 34.97,33.38 C 33.87,34.86 33.7,35.82 35.53,35.76 C 42.19,35.31 46.17,33.86 51.75,31.42 C 48,34.02 30.43,43.06 30.32,36.27 C 30.35,35.43 30.76,34.52 31.39,33.56 A 31.2,31.2 0 0,1 33.79,30.53 C 35.12,28.97 38.43,25.25 39.55,22.99 C 41.42,18.77 37.21,18.55 33.6,17.23 L 32.03,18.16 L 32.97,19.05 C 27.67,19.95 25.03,20.85 18.49,23.15 L 19.23,25.07 L 17.01,27.33 C 16.97,27.27 16.62,27.22 15.91,26.8 V 30.53 C 12.99,31.84 10.47,34.12 12.45,36.05 C 12.67,36.23 12.95,36.39 13.15,36.44 H 13.13 C 16.73,38.53 26.45,35.7 26.43,35.7 Z" fill="rgb(254, 254, 253)"/>
</svg>
