<?xml version="1.0" encoding="UTF-8"?>
<!-- generated by Finnhub -->
<svg viewBox="0 0 55.5 55.5" xmlns="http://www.w3.org/2000/svg">
<path d="M 0,0 H 55.5 V 55.5 H 0 Z" fill="rgb(20, 126, 194)"/>
<path d="M 23.395,22.953 L 26.9,24.497 C 23.146,26.026 19.65,27.682 16.285,29.72 L 12.79,28.064 C 16.155,26.026 19.65,24.369 23.405,22.968 Z M 19.003,21.312 C 15.12,22.46 11.495,23.987 8,26.025 L 11.236,27.299 C 14.602,25.389 18.226,23.733 21.981,22.331 L 19.003,21.312 Z" fill="rgb(254, 254, 253)"/>
<path d="M 31.419999999999998,22.698 C 28.453,21.313 25.346,20.166 22.11,19.146 L 18.744,20.166 C 22.11,21.185 25.346,22.331 28.454,23.86 L 31.43,22.713 Z M 36.35,21.312 C 33.243,19.911 30.006,18.892 26.77,18 L 23.663,18.764 C 26.9,19.656 30.136,20.93 33.113,22.331 L 36.349,21.312 Z M 44.375,23.987 C 36.48,26.662 29.36,30.23 22.757,34.815 L 27.547,38 C 33.76,33.16 40.62,29.21 48,26.026 L 44.375,23.987 Z M 38.939,21.44 C 30.783,23.605 23.275,26.917 16.414,31.376 L 20.945,33.796 C 27.676,29.21 35.055,25.771 42.952,23.35 L 38.939,21.44 Z" fill="rgb(226, 84, 88)"/>
</svg>
