<?xml version="1.0" encoding="UTF-8"?>
<!-- generated by Finnhub -->
<svg viewBox="0 0 55.5 55.5" xmlns="http://www.w3.org/2000/svg">
<path d="M 0,0 H 55.5 V 55.5 H 0 Z" fill="rgb(1, 124, 118)"/>
<path d="M 12.093,14.302 V 14 H 15.409 A 4.3,4.3 0 0,1 16.79,14.212 C 17.209,14.347 17.568,14.541 17.868,14.794 A 2.5,2.5 0 0,1 18.578,15.701 C 18.753,16.054 18.84,16.448 18.84,16.883 V 17.897 C 18.84,18.15 18.788,18.387 18.684,18.611 A 2.185,2.185 0 0,1 18.297,19.211 A 2.18,2.18 0 0,1 17.773,19.651 C 17.578,19.763 17.383,19.831 17.188,19.854 C 17.355,19.884 17.547,19.948 17.763,20.048 C 17.979,20.142 18.185,20.286 18.38,20.48 C 18.582,20.668 18.75,20.912 18.882,21.212 C 19.022,21.512 19.092,21.879 19.092,22.314 V 23.389 C 19.092,23.813 19.001,24.198 18.82,24.544 C 18.645,24.891 18.405,24.994 18.098,25.242 C 17.791,25.482 17.435,25.671 17.031,25.806 A 4.15,4.15 0 0,1 15.754,26 H 12.103 V 14.317 Z M 14.096,20.612 V 24.685 H 15.546 C 15.817,24.685 16.051,24.641 16.246,24.553 A 1.41,1.41 0 0,0 16.727,24.209 A 1.393,1.393 0 0,0 17.114,23.257 V 22.2 C 17.114,21.912 17.065,21.668 16.968,21.468 A 1.345,1.345 0 0,0 16.581,20.984 A 1.442,1.442 0 0,0 16.047,20.701 A 2.057,2.057 0 0,0 15.451,20.613 H 14.096 Z M 14.096,15.525 V 19.237 H 15.263 C 15.403,19.237 15.566,19.219 15.754,19.184 C 15.95,19.149 16.134,19.084 16.309,18.99 C 16.49,18.896 16.643,18.77 16.769,18.61 C 16.895,18.446 16.957,18.235 16.957,17.976 V 16.971 C 16.957,16.477 16.804,16.113 16.497,15.878 C 16.19,15.643 15.797,15.525 15.315,15.525 H 14.095 Z M 43.764,16.006 C 43.974,16.006 43.98,16 43.98,16 L 43.984,16.236 V 17.02 A 0.476,0.476 0 0,1 43.974,17.108 C 43.974,17.138 43.963,17.173 43.942,17.214 L 43.932,17.223 L 40.364,24.359 L 40.134,24.632 H 43.98 V 26.034 H 43.837 L 38.003,26 C 38.066,26 37.933,26 38.003,26 C 38.003,26.065 38.003,25.94 38.003,26 V 25 C 38.003,25.101 37.998,25.098 38.003,25 C 37.983,25.041 38.024,24.953 38.003,25 L 41.693,17.646 L 41.871,17.426 H 38.004 V 16 L 38.408,16.006 H 43.764 Z M 20.073,42 H 18.08 L 17.084,38.592 H 15.092 L 14.096,42 H 12.103 L 15.092,30 H 17.084 L 20.073,42 Z M 15.092,37 H 17.084 L 16.294,33.254 L 16.198,32.877 L 16.088,32.5 L 15.908,33.254 L 15.093,37 Z M 22.065,30.09 V 30 H 24.057 V 42 H 22.065 V 30.089 Z M 26.05,30.09 V 30 H 28.042 V 40.5 C 28.042,40.535 28.042,40.685 28.042,40.5 V 42 H 26.049 V 30.089 Z M 39.996,41.694 V 42 H 38.003 V 32 H 40.027 V 33 C 40.027,32.496 40.489,32.315 40.762,32.178 C 40.992,32.065 41.307,32 41.627,32 C 41.975,32 42.291,32.06 42.577,32.178 C 42.867,32.298 43.116,32.465 43.321,32.68 C 43.533,32.895 43.695,33.295 43.809,33.595 C 43.923,33.895 43.981,34.227 43.981,34.59 V 42 H 41.996 V 34.598 A 1.24,1.24 0 0,0 41.91,34.19 A 1.01,1.01 0 0,0 41.705,33.833 A 0.851,0.851 0 0,0 41.371,33.595 A 1.066,1.066 0 0,0 40.909,33.502 C 40.766,33.502 40.368,33.532 40.237,33.595 C 40.071,33.675 39.996,33.833 39.996,33.833 V 41.694 Z M 29.934,34.841 C 29.934,34.451 30.016,34.086 30.178,33.743 A 2.84,2.84 0 0,1 30.838,32.836 C 31.122,32.574 31.453,32.369 31.832,32.222 A 3.29,3.29 0 0,1 33.039,32 C 33.472,32 33.871,32.074 34.236,32.222 C 34.601,32.369 34.916,32.574 35.179,32.836 C 35.443,33.092 35.646,33.394 35.788,33.743 C 35.937,34.086 36.011,34.452 36.011,34.841 V 36.701 C 36.011,36.794 35.991,36.899 35.991,37.013 H 31.76 V 39.159 A 1.278,1.278 0 0,0 32.135,40.045 C 32.257,40.159 32.395,40.254 32.551,40.327 C 32.713,40.395 32.889,40.428 33.078,40.428 C 33.268,40.428 33.44,40.395 33.596,40.328 C 33.751,40.253 33.883,40.156 33.991,40.035 A 1.364,1.364 0 0,0 34.336,39.139 V 38.534 H 35.991 V 39.159 C 35.991,39.555 35.916,39.924 35.768,40.267 A 2.83,2.83 0 0,1 35.169,41.174 A 2.793,2.793 0 0,1 34.236,41.778 A 3.162,3.162 0 0,1 33.039,42 A 3.29,3.29 0 0,1 30.837,41.174 A 3.012,3.012 0 0,1 30.178,40.267 A 2.556,2.556 0 0,1 29.934,39.159 V 34.84 Z M 31.761,35.733 H 34.337 V 34.851 A 1.307,1.307 0 0,0 33.982,33.955 A 1.185,1.185 0 0,0 33.587,33.683 A 1.26,1.26 0 0,0 32.552,33.683 A 1.436,1.436 0 0,0 32.136,33.955 A 1.262,1.262 0 0,0 31.862,34.368 A 1.194,1.194 0 0,0 31.761,34.851 V 35.733 Z M 21.069,18.841 C 21.069,18.445 21.149,18.076 21.312,17.733 A 2.83,2.83 0 0,1 21.972,16.826 A 3.253,3.253 0 0,1 24.162,16 C 24.596,16 25.002,16.07 25.38,16.212 C 25.766,16.352 26.1,16.551 26.385,16.806 A 2.676,2.676 0 0,1 27.297,18.841 V 23.159 C 27.297,23.575 27.217,23.958 27.054,24.307 A 2.816,2.816 0 0,1 26.384,25.204 A 3.18,3.18 0 0,1 25.39,25.788 A 3.459,3.459 0 0,1 24.173,26 A 3.43,3.43 0 0,1 22.966,25.788 A 3.178,3.178 0 0,1 21.972,25.204 A 2.888,2.888 0 0,1 21.312,24.307 A 2.692,2.692 0 0,1 21.069,23.159 V 18.84 Z M 22.885,23.118 C 22.885,23.286 22.915,23.448 22.975,23.602 C 23.044,23.756 23.135,23.894 23.25,24.015 C 23.372,24.129 23.51,24.223 23.666,24.297 C 23.828,24.364 24,24.398 24.183,24.398 C 24.373,24.398 24.545,24.364 24.701,24.298 C 24.856,24.223 24.991,24.129 25.106,24.015 A 1.27,1.27 0 0,0 25.37,23.602 C 25.438,23.448 25.471,23.286 25.471,23.118 V 18.892 C 25.471,18.724 25.438,18.562 25.37,18.408 A 1.142,1.142 0 0,0 25.106,17.995 A 1.198,1.198 0 0,0 24.69,17.713 A 1.167,1.167 0 0,0 24.183,17.602 C 23.993,17.602 23.818,17.639 23.656,17.712 A 1.232,1.232 0 0,0 23.25,17.995 A 1.29,1.29 0 0,0 22.976,18.398 A 1.304,1.304 0 0,0 22.885,18.882 V 23.118 Z M 28.95,18.841 C 28.95,18.445 29.032,18.076 29.194,17.733 A 2.83,2.83 0 0,1 29.854,16.826 A 3.253,3.253 0 0,1 32.044,16 C 32.478,16 32.884,16.07 33.262,16.212 C 33.648,16.352 33.982,16.551 34.266,16.806 A 2.676,2.676 0 0,1 35.179,18.841 V 23.159 C 35.179,23.575 35.099,23.958 34.936,24.307 A 2.816,2.816 0 0,1 34.266,25.204 A 3.18,3.18 0 0,1 33.272,25.788 A 3.459,3.459 0 0,1 32.055,26 A 3.43,3.43 0 0,1 30.848,25.788 A 3.178,3.178 0 0,1 29.853,25.204 A 2.888,2.888 0 0,1 29.194,24.307 A 2.692,2.692 0 0,1 28.951,23.159 V 18.84 Z M 30.766,23.118 C 30.766,23.286 30.796,23.448 30.858,23.602 C 30.925,23.756 31.017,23.894 31.132,24.015 C 31.253,24.129 31.392,24.223 31.547,24.297 C 31.71,24.364 31.882,24.398 32.065,24.398 C 32.255,24.398 32.427,24.364 32.582,24.298 C 32.738,24.223 32.873,24.129 32.988,24.015 A 1.27,1.27 0 0,0 33.252,23.602 C 33.319,23.448 33.353,23.286 33.353,23.118 V 18.892 C 33.353,18.724 33.319,18.562 33.252,18.408 A 1.142,1.142 0 0,0 32.988,17.995 A 1.198,1.198 0 0,0 32.572,17.713 A 1.167,1.167 0 0,0 32.065,17.602 A 1.274,1.274 0 0,0 31.132,17.995 A 1.29,1.29 0 0,0 30.858,18.398 A 1.305,1.305 0 0,0 30.766,18.882 V 23.118 Z" fill="rgb(254, 254, 253)"/>
</svg>
