<?xml version="1.0" encoding="UTF-8"?>
<!-- generated by Finnhub -->
<svg viewBox="0 0 55.5 55.5" xmlns="http://www.w3.org/2000/svg">
<path d="M 0,0 H 55.5 V 55.5 H 0 Z" fill="rgb(36, 40, 103)"/>
<path d="M 32.387,24.985 H 35.26 S 35.091,25.588 35,26 H 37.372 L 37.117,27 H 34.735 C 34.408,28.021 34.172,29.363 33.893,30.408 C 33.773,30.857 34.297,31 34.297,31 H 36.521 L 36.22,32 H 32.261 C 31.721,31.911 31.121,31.387 31.013,30.857 V 30.188 C 31.476,28.558 32.397,25 32.397,25 Z M 23.213,26 L 25.188,29.41 L 21.816,32 H 23.672 L 25.772,30.38 L 26.559,32 H 30.124 L 28.186,28.655 L 31.708,26 H 29.581 L 27.58,27.673 L 26.814,26 H 23.213 Z M 46.353,26 L 44.929,32 H 47.995 L 48.721,28.505 C 48.896,27.495 50.892,27.242 51.586,27.673 L 52,26.007 C 50.946,26.181 49.462,25.514 48.855,26.687 V 25.997 L 46.353,26 Z M 12.996,24 L 6.21,24.03 L 6.222,24.588 L 4.479,31.074 L 4,32 L 11.252,31.996 C 11.908,32.011 12.47,31.795 12.769,31.247 C 12.987,30.442 13.378,29.686 13.289,28.789 A 1.695,1.695 0 0,0 12.622,27.907 C 12.929,27.817 13.235,27.7 13.476,27.454 C 13.991,26.768 14.148,25.904 14.169,25.057 C 14.052,24.538 13.529,24.089 12.996,24 Z M 9.15,25 H 11.104 C 11.49,25 11.157,26.303 11.157,26.303 S 10.986,27 10.694,27 H 8.654 L 9.15,25 Z M 8.295,28.5 H 10.186 C 10.538,28.508 10.372,29.719 10.372,29.719 S 10.067,30.99 9.716,31 H 7.618 L 8.294,28.5 Z M 21.026,26 H 15.073 L 14.749,27 H 19.075 C 19.381,27.148 19.306,27.867 19.028,28.002 H 15.164 C 14.825,28.002 14.428,28.429 14.428,28.429 C 13.872,29.034 13.751,29.812 13.703,30.623 C 13.736,31.095 14.12,31.755 14.53,32.003 H 17.737 C 17.985,31.937 18.142,31.563 18.26,31.355 C 18.35,31.525 18.418,31.819 18.471,32 H 21.273 L 21.183,31.513 L 22.009,28.302 C 22.139,27.887 22.347,26.936 22.067,26.565 C 21.802,26.215 21.399,26 21.026,26 Z M 18.816,29 L 18.314,31 H 16.805 C 16.11,31 16.77,29.238 16.805,29.204 L 17.07,29 H 18.817 Z M 44.307,26 H 38.934 C 38.528,26.079 38.164,26.353 37.914,26.719 C 37.542,27.937 37.194,29.169 36.984,30.454 C 37.079,31.047 37.512,31.864 38.132,32 H 44.031 L 44.491,31 H 40.153 L 39.942,30.86 C 39.617,30.465 40.022,29 40.063,29 H 44.929 S 45.599,27.703 45.204,26.825 C 45.038,26.475 44.666,26.101 44.307,26 Z M 40.87,27 H 42.174 C 42.295,27.033 42.37,27.248 42.412,27.383 C 42.402,27.671 42.412,27.733 42.302,28 H 40.385 S 40.492,27.237 40.87,27 Z" fill="rgb(254, 254, 253)"/>
</svg>
