<?xml version="1.0" encoding="UTF-8"?>
<!-- generated by Finnhub -->
<svg viewBox="0 0 55.5 55.5" xmlns="http://www.w3.org/2000/svg">
<path d="M 0,0 H 55.5 V 55.5 H 0 Z" fill="url(#a)"/>
<path d="M 40.35,27.985 H 36.003 L 37,22 H 41.456 C 44.089,22 45.016,23.419 45.016,24.552 C 45.016,26.154 43.974,28 40.359,28 Z M 42.982,33.487 C 42.982,35.09 42.052,37 38.638,37 H 34 L 35,31 H 39.516 C 42.172,31 42.982,32.359 42.982,33.487 Z M 29.596,23 H 25 L 26,17 H 30.67 C 32.979,17 34,18.431 34,19.564 C 34,21.167 33.043,23 29.596,23 Z M 31.96,28.434 C 31.96,29.617 30.963,32 27.992,32 H 22.915 L 23.915,26 H 29.07 C 31.08,26 31.96,27.658 31.96,28.434 Z M 30,37.462 C 30,39.069 28.944,41 26.286,41 H 21 L 22,35 H 27.356 C 29.07,35 29.999,36.33 29.999,37.462 Z M 17.225,23 H 13 L 14,17 H 18.302 C 20.985,17 22,18.431 22,19.564 C 22,21.167 20.84,23 17.225,23 Z M 20,28.434 C 20,30.036 18.965,32 15.63,32 H 11 L 12,26 H 16.699 C 18.997,26 20,27.3 20,28.434 Z" fill="rgb(245, 247, 251)"/>
<defs>
<linearGradient id="a" x1="10.418" x2="68.147" y1="9.712" y2="76.017" gradientUnits="userSpaceOnUse">
<stop stop-color="rgb(25, 29, 31)" offset="0"/>
<stop stop-color="rgb(5, 5, 8)" offset="1"/>
</linearGradient>
</defs>
</svg>
