<?xml version="1.0" encoding="UTF-8"?>
<!-- generated by Finnhub -->
<svg viewBox="0 0 55.5 55.5" xmlns="http://www.w3.org/2000/svg">
<path d="M 0,0 H 55.5 V 55.5 H 0 Z" fill="rgb(239, 242, 248)"/>
<path d="M 14.77,40.985 C 16.43,40.96 18.08,41.05 19.72,40.84 C 20.53,40.69 21.32,40.48 22.1,40.21 A 1.41,1.41 0 0,0 22.9,39.71 L 24.38,38.25 L 25.22,38.22 L 26.04,37.17 C 26.04,36.06 25.97,35.1 25.9,34.37 C 25.8,33.37 25.58,32.4 25.25,31.47 C 25.12,31.07 24.88,30.72 24.55,30.45 A 2.9,2.9 0 0,0 23.95,30.12 A 5.5,5.5 0 0,0 22.39,29.61 C 22.02,29.49 21.62,29.51 21.26,29.65 C 21.1,29.74 20.95,29.89 20.7,30.35 A 6.05,6.05 0 0,0 20.05,33.97 C 20.19,34.45 20.34,34.87 20.46,35.2 C 20.58,35.58 20.76,35.94 20.98,36.27 C 21.09,36.43 21.12,36.43 21.22,36.59 C 21.4,36.87 21.55,37.18 21.65,37.49 C 21.7,37.69 21.78,37.89 21.89,38.06 L 22.08,38.29 L 22.98,39.11 L 22.5,39.15 A 5.44,5.44 0 0,1 21.73,38.75 L 21.29,39.25 L 22.08,39.96 A 1.16,1.16 0 0,1 20.9,39.53 L 20.44,39.63 L 20.25,39.66 L 20.83,40.27 C 20.7,40.31 20.56,40.32 20.43,40.3 C 20.17,40.26 19.93,40.14 19.73,39.96 L 19.56,39.8 L 19.1,39.83 L 19.65,40.41 C 19.5,40.41 19.35,40.39 19.21,40.35 A 3.84,3.84 0 0,1 17.51,39.15 C 16.64,38.33 16.69,38.55 16.31,38.13 A 5.09,5.09 0 0,1 15.21,35.63 C 15.11,34.74 15.11,33.85 15.19,32.96 L 15.29,31.24 C 15.39,30.64 15.44,30.04 15.44,29.44 C 15.44,29.31 15.37,28.87 15.25,27.97 A 7.92,7.92 0 0,1 15.17,25.57 C 15.25,24.9 15.34,24.77 15.42,24.25 C 15.5,23.59 15.52,22.92 15.45,22.26 C 15.4,21.16 15.33,21.25 15.35,20.69 C 15.35,19.99 15.5,19.31 15.79,18.68 C 16.06,18.18 16.41,17.72 16.82,17.32 A 46.04,46.04 0 0,1 18.45,15.54 C 19.5,14.49 20.85,13.14 22.48,11.54 A 2.32,2.32 0 0,1 24.13,11.01 C 24.46,11.04 24.78,11.14 25.07,11.31 C 27.35,12.56 28.37,13.26 28.37,13.26 L 29.45,14.04 A 3.05,3.05 0 0,0 27.85,15.07 C 27.7,15.22 27.57,15.37 27.45,15.54 A 6.4,6.4 0 0,0 25.82,15.39 A 8.36,8.36 0 0,0 23.07,15.99 C 22.74,15.51 22.28,15.11 21.74,14.85 A 1.82,1.82 0 0,0 20.28,14.62 C 19.93,14.8 19.65,15.1 19.51,15.46 A 3.05,3.05 0 0,0 19.75,18.42 C 19.65,17.71 19.69,16.98 19.87,16.28 C 19.92,16.06 20.04,15.85 20.2,15.68 A 1.18,1.18 0 0,1 21.12,15.35 C 21.37,15.39 21.55,15.54 21.89,15.83 C 22.11,16.01 22.31,16.22 22.49,16.43 C 22.19,16.53 21.91,16.66 21.65,16.82 A 4.3,4.3 0 0,0 20.04,18.81 A 5.13,5.13 0 0,0 19.78,22.74 C 19.88,22.99 20,23.23 20.14,23.45 A 5.09,5.09 0 0,1 20.2,19.79 A 4.8,4.8 0 0,1 21.46,18.1 A 6.04,6.04 0 0,1 23.68,16.83 L 22.56,18.01 L 21.49,19.13 A 2.54,2.54 0 0,0 21.04,20.94 A 1.37,1.37 0 0,0 21.57,21.96 A 1.29,1.29 0 0,0 22.64,22.08 A 3.72,3.72 0 0,1 23.43,21.84 C 23.7,22.32 24.09,22.72 24.57,23.01 A 1.3,1.3 0 0,1 24.23,21.59 C 24.37,21.37 24.58,21.2 24.83,21.12 A 1.91,1.91 0 0,1 26.43,21.26 C 26.51,21.31 27.18,21.68 27.13,22.09 A 0.68,0.68 0 0,1 26.88,22.47 C 26.61,22.74 26.38,22.75 26.15,23.05 C 26.1,23.11 26.05,23.18 26.02,23.25 C 26.32,23.21 26.62,23.27 26.88,23.41 A 1.56,1.56 0 0,1 27.61,24.56 A 1.08,1.08 0 0,0 26.47,24.38 A 0.84,0.84 0 0,0 26.15,24.71 A 1.3,1.3 0 0,0 26.06,25.53 L 26.11,25.79 C 26.68,25.84 26.9,26.01 26.99,26.17 C 27.04,26.27 27.09,26.37 27.17,26.45 C 27.31,26.61 27.53,26.73 27.58,26.69 C 27.63,26.65 27.55,26.47 27.49,26.36 C 27.39,26.16 27.34,26.16 27.31,26.03 C 27.28,25.89 27.31,25.73 27.39,25.61 C 27.49,25.47 27.63,25.35 27.79,25.28 C 27.99,25.18 28.17,25.1 28.38,25.04 C 28.12,25.14 27.91,25.34 27.8,25.58 C 27.77,25.64 27.7,25.83 27.77,25.9 C 27.81,25.93 27.88,25.92 27.92,25.9 C 28.03,25.88 28.13,25.8 28.21,25.71 C 28.36,25.56 28.56,25.46 28.77,25.41 C 29.06,25.33 29.37,25.36 29.64,25.5 C 29.71,25.54 29.78,25.6 29.84,25.65 C 29.86,25.55 29.84,25.45 29.8,25.35 A 0.64,0.64 0 0,0 29.53,25.09 A 1.15,1.15 0 0,0 29.32,24.99 A 0.64,0.64 0 0,1 29.72,24.99 C 29.88,25.05 30.01,25.17 30.08,25.33 C 30.16,25.5 30.19,25.69 30.15,25.87 L 30.2,25.74 C 30.33,25.25 30.34,24.74 30.21,24.26 C 30.11,23.93 29.99,23.61 29.83,23.3 A 3.3,3.3 0 0,1 29.29,21.84 A 0.75,0.75 0 0,0 30.16,22.04 A 0.77,0.77 0 0,0 30.51,21.47 A 0.79,0.79 0 0,0 30.47,21.12 C 30.45,21.17 30.21,21.7 29.79,21.73 A 0.45,0.45 0 0,1 29.41,21.61 A 0.36,0.36 0 0,1 29.36,21.31 A 2.54,2.54 0 0,1 30.21,20.55 C 30.41,20.45 30.51,20.41 30.6,20.45 C 30.71,20.51 30.73,20.68 30.75,20.87 C 30.76,21.03 30.75,21.2 30.73,21.37 A 5.77,5.77 0 0,0 30.94,23.55 C 31.56,22.67 31.9,21.65 31.92,20.59 A 2.8,2.8 0 0,0 31.37,18.67 C 31.19,18.47 30.98,18.31 30.76,18.17 C 30.37,17.8 29.86,17.58 29.33,17.57 C 29.05,17.59 28.79,17.72 28.6,17.92 C 28.44,18.13 28.35,18.38 28.35,18.64 C 28.36,19.27 28.41,19.9 28.49,20.52 C 28.49,20.8 28.45,21.07 28.39,21.33 A 3.46,3.46 0 0,0 27.23,18.91 A 2.97,2.97 0 0,0 25.83,17.87 A 4.1,4.1 0 0,0 24.43,17.84 C 24.17,17.86 23.95,17.9 23.79,17.92 C 24.13,17.6 24.54,17.37 24.99,17.24 A 4.54,4.54 0 0,1 26.72,17.18 C 27.02,17.2 27.32,17.24 27.62,17.3 C 27.89,17.08 28.21,16.93 28.54,16.85 A 2.7,2.7 0 0,1 29.84,16.91 C 30.08,16.96 30.3,17.04 30.52,17.15 A 2.8,2.8 0 0,0 28.82,16.05 A 2.35,2.35 0 0,0 28.42,16.01 C 28.52,15.83 29.25,14.6 30.03,14.43 A 0.75,0.75 0 0,1 30.64,14.49 C 30.75,14.59 30.82,14.73 30.86,14.88 C 30.92,15.05 30.96,15.23 30.98,15.41 C 31.06,16.08 31.18,16.74 31.34,17.39 C 31.51,18.1 31.8,18.79 32.19,19.42 L 33.11,20.85 C 33.41,21.25 33.64,21.71 33.77,22.2 C 33.82,22.51 33.84,22.83 33.84,23.15 C 33.96,23.9 34.01,24.66 33.99,25.42 C 33.95,25.73 33.87,26.03 33.77,26.32 C 33.55,26.96 33.35,27.07 33.1,27.66 C 32.87,28.22 33.04,28.13 32.74,29.07 A 4.58,4.58 0 0,0 32.31,31.07 A 8.69,8.69 0 0,0 33.62,28.57 C 33.66,28.31 33.77,28.07 33.92,27.87 C 34.04,27.74 34.17,27.63 34.32,27.55 C 34.52,27.35 34.68,27.15 34.84,26.92 A 4.4,4.4 0 0,0 35.66,24.41 L 35.42,19.39 C 35.63,19.56 35.82,19.77 36,19.99 C 36.46,20.67 36.72,21.47 36.75,22.29 C 36.85,23.24 36.68,23.24 36.75,24.44 C 36.8,25.08 36.88,25.72 37,26.35 C 37.21,27.2 37.33,28.05 37.36,28.92 C 37.36,29.19 37.34,29.46 37.3,29.73 C 37.8,29.19 38.1,28.51 38.18,27.79 C 38.21,27.29 38.18,26.79 38.1,26.29 C 38,25.49 37.95,25.47 37.91,25.01 C 37.91,24.37 37.97,23.73 38.1,23.1 A 9.7,9.7 0 0,0 38.25,21.13 A 5.76,5.76 0 0,0 38,19.84 A 10.15,10.15 0 0,0 36.18,16.58 A 19.81,19.81 0 0,0 30.82,11.71 C 34.64,13.75 37.17,16.26 37.94,18.08 C 38.34,18.92 38.61,19.81 38.77,20.73 C 38.76,21.55 38.87,22.37 39.09,23.16 C 39.29,23.73 39.39,23.76 39.58,24.36 C 39.8,25.14 39.88,25.96 39.82,26.78 C 39.78,27.29 39.72,27.8 39.62,28.3 C 39.52,28.85 39.48,28.85 39.45,29.1 C 39.47,29.7 39.59,30.32 39.82,30.89 C 39.84,31.57 39.82,32.25 39.77,32.93 L 39.67,34.99 C 39.67,35.95 39.7,35.89 39.71,36.84 C 39.71,37.08 39.73,37.32 39.77,37.56 L 39.83,37.86 L 42.78,40.1 L 44,43 H 13 L 14.78,41 Z M 35.81,37.17 C 35.74,36.67 35.6,36.17 35.39,35.71 A 3.53,3.53 0 0,0 34.78,34.75 C 34.64,34.61 34.63,34.63 34.35,34.37 A 4.62,4.62 0 0,1 32.95,32.67 A 1.9,1.9 0 0,0 32.4,32.27 L 32.12,32.15 A 37.8,37.8 0 0,0 30.73,37.65 A 5.16,5.16 0 0,0 31.87,37.41 C 32.91,37.19 33.97,37.1 35.03,37.15 L 35.53,37.17 H 35.81 Z" fill="rgb(15, 23, 71)"/>
</svg>
