<?xml version="1.0" encoding="UTF-8"?>
<!-- generated by Finnhub -->
<svg viewBox="0 0 55.5 55.5" xmlns="http://www.w3.org/2000/svg">
<path d="M 0,0 H 55.5 V 55.5 H 0 Z" fill="rgb(239, 242, 248)"/>
<path d="M 9.34,39.985 L 9,39.24 C 19.56,35.09 23.85,20.68 24.68,14 H 25 V 23.28 C 23.01,32.15 13.52,38.97 9.35,40 Z" fill="rgb(162, 220, 243)"/>
<path d="M 27.169999999999998,11.985 C 27.08,12 27,12.08 27,12.18 V 39.78 C 27,39.88 27.08,40 27.18,40 H 29.83 C 29.93,40 30,39.88 30,39.78 V 37.66 C 30,37.42 30.64,37.31 30.8,37.49 A 7.23,7.23 0 0,0 36.19,40 C 40.5,40 44,35.9 44,30.85 C 44,25.8 40.5,22 36.18,22 C 33.98,22 31.98,22.78 30.56,24.5 C 30.48,24.6 30,24.55 30,24.43 V 12.18 C 30,12.08 29.93,12 29.83,12 H 27.18 Z M 30,32.85 V 29.13 A 5.78,5.78 0 0,1 35.4,25 C 38.36,25 41,27.67 41,31 S 38.36,37 35.4,37 A 5.8,5.8 0 0,1 30,32.85 Z" fill="rgb(13, 41, 89)"/>
</svg>
