<?xml version="1.0" encoding="UTF-8"?>
<!-- generated by Finnhub -->
<svg viewBox="0 0 55.5 55.5" xmlns="http://www.w3.org/2000/svg">
<path d="M 0,0 H 55.5 V 55.5 H 0 Z" fill="rgb(25, 84, 153)"/>
<path d="M 46.31,29.985 H 42.224 L 44.257,23.543 L 46.32,30 Z M 45.676,21 C 46.778,21 47.061,21.261 47.48,22.43 L 52,35 H 47.973 L 46.991,32 H 41.571 L 40.594,35 H 38.27 L 42.829,21 H 45.676 Z M 22.116,27.16 L 23.359,25.418 C 23.674,24.98 23.739,24.706 23.739,24.399 C 23.739,23.545 22.94,23 22.017,23 H 20 V 33 H 21.165 C 22.937,33 24.281,32.222 24.281,30.117 C 24.281,28.382 23.415,27.455 22.116,27.159 Z M 22.86,35 H 17 V 21 H 23.088 C 26.129,21 27.188,23.328 25.649,25.475 L 24.921,26.49 C 30.023,28.978 28.363,35 22.86,35 Z M 9.515,27.16 L 10.757,25.418 C 11.071,24.98 11.137,24.706 11.137,24.399 C 11.137,23.545 10.337,23 9.417,23 H 7 V 33 H 8.563 C 10.334,33 11.679,32.222 11.679,30.117 C 11.679,28.382 10.811,27.455 9.515,27.159 Z M 10.258,35 H 4 V 21 H 10.487 C 13.527,21 14.587,23.328 13.047,25.475 L 12.319,26.49 C 17.419,28.978 15.761,35 10.258,35 Z" fill="rgb(254, 254, 253)" fill-rule="evenodd"/>
<path d="M 37.653,20.985 H 40.015 L 35.475,34.993 L 31.899,34.991 L 27.028,21.001 L 29.66,21 C 30.675,21 30.943,21.246 31.475,22.831 L 34.294,31.629 L 37.663,21 Z" fill="rgb(254, 254, 253)"/>
</svg>
