<?xml version="1.0" encoding="UTF-8"?>
<!-- generated by Finnhub -->
<svg viewBox="0 0 55.5 55.5" xmlns="http://www.w3.org/2000/svg">
<path d="M 0,0 H 55.5 V 55.5 H 0 Z" fill="rgb(1, 85, 151)"/>
<path d="M 8.71,23.945 V 23.94 C 9.38,23.77 9.68,23.21 9.68,22.62 C 9.68,21.74 9.22,21 8.14,21 H 5 V 27 H 8.07 C 8.92,27 9.89,26.76 9.89,25.46 C 9.9,24.68 9.46,24.09 8.72,23.96 Z M 5.57,21.64 H 8.03 C 8.65,21.64 9.11,21.88 9.11,22.64 C 9.11,23.46 8.61,23.74 7.84,23.74 H 5.57 V 21.64 Z M 7.99,26.4 H 5.57 V 24.33 H 8.1 C 8.77,24.33 9.27,24.58 9.27,25.48 C 9.27,26.33 8.71,26.4 7.97,26.4 Z M 14.31,25.95 V 23.37 C 14.31,22.51 13.81,22 12.46,22 C 11.08,22 10.63,22.81 10.54,23.75 L 11.07,23.55 C 11.11,22.83 11.54,22.55 12.45,22.55 C 13.39,22.55 13.78,22.8 13.78,23.44 C 13.78,23.88 13.63,24.17 12.38,24.24 C 11.5,24.28 10.38,24.43 10.38,25.64 C 10.38,26.65 11.25,27 11.94,27 C 13.26,27 13.64,26.4 13.81,26.1 H 13.83 C 13.84,26.46 13.87,26.9 14.45,26.9 C 14.64,26.9 14.82,26.86 14.94,26.84 V 26.41 C 14.84,26.43 14.74,26.43 14.64,26.43 C 14.4,26.44 14.31,26.31 14.31,25.95 Z M 13.78,25.16 C 13.78,26.09 12.88,26.56 12.11,26.56 C 11.48,26.56 10.94,26.35 10.94,25.64 C 10.94,25.1 11.33,24.87 11.99,24.81 C 13.15,24.68 13.53,24.65 13.79,24.47 V 25.17 Z M 16.28,21 H 15.72 V 22.4 H 14.84 V 22.87 H 15.72 V 25.85 C 15.72,26.59 15.92,26.97 16.8,26.97 C 16.98,26.97 17.21,26.95 17.42,26.92 V 26.38 C 17.31,26.41 17.14,26.43 16.86,26.43 C 16.39,26.43 16.29,26.25 16.29,25.85 V 22.87 H 17.42 V 22.39 H 16.3 V 21 Z M 20.47,22.25 C 19.57,22.25 18.97,22.79 18.8,23.27 H 18.79 V 21 H 18.22 V 27 H 18.79 V 24.46 C 18.79,23.43 19.3,22.79 20.42,22.79 C 21.15,22.79 21.63,23.11 21.63,23.99 V 27 H 22.2 V 24.1 C 22.2,23.03 21.8,22.25 20.47,22.25 Z M 28.65,24.17 H 28.13 C 28.1,24.42 28,24.95 27.83,25.21 L 26.13,23.81 C 26.71,23.54 27.29,23.11 27.29,22.31 C 27.29,21.74 26.95,21 25.94,21 C 25.13,21 24.59,21.58 24.59,22.33 C 24.59,22.9 24.89,23.27 25.29,23.69 C 24.22,24.2 23.76,24.59 23.76,25.46 C 23.76,26.52 24.45,27 25.86,27 C 26.73,27 27.5,26.65 27.9,26.09 L 28.98,27 H 29.76 L 28.23,25.6 C 28.51,25.11 28.65,24.5 28.65,24.17 Z M 25.13,22.31 C 25.13,21.86 25.51,21.59 25.9,21.59 C 26.52,21.59 26.76,21.94 26.76,22.34 C 26.76,22.79 26.46,23.14 25.8,23.48 C 25.19,22.79 25.13,22.57 25.13,22.31 Z M 25.88,26.46 C 24.8,26.46 24.33,26.15 24.33,25.49 C 24.33,24.81 24.74,24.44 25.61,24.07 L 27.51,25.7 C 27.03,26.28 26.54,26.46 25.88,26.46 Z M 34.85,23.96 V 23.94 C 35.51,23.77 35.8,23.21 35.8,22.62 C 35.8,21.74 35.35,21 34.27,21 H 31 V 27 H 34.19 C 35.04,27 36.01,26.76 36.01,25.46 C 36.01,24.68 35.57,24.09 34.84,23.96 Z M 31.7,21.64 H 34.16 C 34.78,21.64 35.24,21.88 35.24,22.64 C 35.24,23.46 34.74,23.74 33.97,23.74 H 31.7 V 21.64 Z M 34.1,26.42 H 31.7 V 24.32 H 34.24 C 34.91,24.32 35.41,24.58 35.41,25.48 C 35.39,26.33 34.84,26.42 34.1,26.42 Z M 38.79,22.6 C 37.24,22.6 36.5,23.52 36.5,24.78 C 36.5,26.04 37.24,27 38.79,27 S 41.08,26.04 41.08,24.78 C 41.08,23.52 40.34,22.6 38.78,22.6 Z M 38.79,26.46 C 37.71,26.46 37.09,25.86 37.09,24.78 C 37.09,23.69 37.71,23.14 38.79,23.14 S 40.49,23.69 40.49,24.78 C 40.51,25.85 39.89,26.46 38.79,26.46 Z M 45.46,23.44 C 45.19,22.86 44.65,22.6 43.89,22.6 C 42.39,22.6 41.7,23.74 41.7,25 C 41.7,26.1 42.24,27 43.9,27 C 44.58,27 45.2,26.86 45.46,26.4 V 27 H 46.11 V 21 H 45.46 V 23.44 Z M 43.89,26.46 C 42.73,26.46 42.27,25.9 42.27,25 C 42.27,23.85 42.98,23.14 43.89,23.14 C 45.06,23.14 45.59,24.07 45.59,25 C 45.57,26.17 44.83,26.46 43.89,26.46 Z M 48.85,26.49 L 47.22,22.73 H 46.59 L 48.55,27.27 L 48.28,27.9 C 48.1,28.34 47.9,28.46 47.48,28.46 L 47.08,28.44 V 28.98 C 47.25,29 47.45,29 47.63,29 C 48.27,29 48.51,28.8 48.81,28.09 L 51,22.73 H 50.37 L 48.85,26.49 Z M 23.87,30.05 L 22.29,35.05 H 22.28 L 20.6,30 H 19.87 L 18.21,35.05 H 18.19 L 16.65,30 H 16 L 17.87,36 H 18.55 L 20.22,30.9 H 20.23 L 21.93,36 H 22.61 L 24.51,30 H 23.87 V 30.05 Z M 26.78,31.5 C 25.2,31.5 24.45,32.56 24.45,33.75 S 25.2,36 26.78,36 S 29.12,34.94 29.12,33.75 S 28.36,31.5 26.78,31.5 Z M 26.78,35.49 C 25.68,35.49 25.04,34.77 25.04,33.75 S 25.68,32.01 26.78,32.01 S 28.52,32.73 28.52,33.75 C 28.52,34.75 27.88,35.49 26.78,35.49 Z M 30.55,32.59 H 30.54 V 31.62 H 30 V 36 H 30.54 V 33.7 C 30.54,32.5 31.3,32.1 31.93,32.1 C 32.12,32.1 32.28,32.12 32.46,32.15 V 31.53 A 1.88,1.88 0 0,0 32.12,31.5 C 31.14,31.5 30.75,32.09 30.55,32.6 Z M 36.88,31.62 H 36.01 L 33.51,33.67 V 30 H 33 V 36 H 33.5 V 34.35 L 34.43,33.63 L 36.26,36 H 37.03 L 34.87,33.24 L 36.88,31.62 Z M 39.23,33.42 C 37.99,33.26 37.71,33.16 37.71,32.72 C 37.71,32.13 38.28,32 38.9,32 C 39.75,32 40.16,32.19 40.3,32.88 H 40.84 C 40.77,31.99 40.24,31.5 38.9,31.5 C 37.71,31.5 37.13,32.02 37.13,32.76 C 37.13,33.51 37.58,33.83 38.86,33.95 C 40.13,34.08 40.42,34.26 40.42,34.68 C 40.42,35.31 39.87,35.49 39.06,35.49 C 38.01,35.49 37.62,35.25 37.52,34.54 H 37 C 37,35.56 37.76,36 39.07,36 C 40.36,36 41.01,35.49 41.01,34.65 C 41.01,33.83 40.49,33.6 39.24,33.42 Z" fill="rgb(254, 254, 253)"/>
</svg>
