<?xml version="1.0" encoding="UTF-8"?>
<!-- generated by Finnhub -->
<svg viewBox="0 0 55.5 55.5" xmlns="http://www.w3.org/2000/svg">
<path d="M 0,0 H 55.5 V 55.5 H 0 Z" fill="rgb(1, 69, 188)"/>
<path d="M 41.99,34.985 H 49 V 41 H 42 L 40,39 V 37 L 42,35 Z" fill="rgb(254, 237, 51)"/>
<path d="M 14.952,25.985 H 13 V 24 H 14.962 C 15.48,24 15.928,24.48 15.928,25.007 C 15.928,25.529 15.458,26 14.962,26 Z M 13,20 H 14.662 C 15.407,20 15.617,20.614 15.617,21.048 C 15.617,21.486 15.367,22 14.662,22 H 13 V 20 Z M 17.262,22.726 L 17.395,22.657 C 17.495,22.623 17.595,22.52 17.728,22.417 C 17.862,22.315 17.995,22.178 18.128,22.007 C 18.262,21.87 18.362,21.664 18.462,21.425 C 18.562,21.185 18.595,20.911 18.595,20.637 C 18.595,19.917 18.262,19.301 17.628,18.787 C 16.995,18.274 16.128,18 15.028,18 H 10 V 28 H 15.362 C 16.662,28 19.328,27.76 19.328,25.123 C 19.328,23.137 17.295,22.726 17.262,22.726 Z M 16.962,37.006 H 15 V 35.006 H 16.962 C 17.48,35.006 17.928,35.485 17.928,36.012 C 17.928,36.534 17.458,37.006 16.962,37.006 Z M 15,31.006 H 16.537 C 17.282,31.006 17.617,31.62 17.617,32.053 C 17.617,32.492 17.242,33.006 16.537,33.006 H 15 V 31.006 Z M 19.262,33.732 L 19.395,33.663 C 19.495,33.629 19.595,33.526 19.728,33.423 C 19.862,33.321 19.995,33.183 20.128,33.013 C 20.262,32.875 20.362,32.67 20.462,32.43 C 20.562,32.19 20.595,31.916 20.595,31.642 C 20.595,30.923 20.262,30.307 19.628,29.793 C 18.995,29.279 18.128,29.006 17.028,29.006 H 12 V 39.006 H 17.362 C 18.662,39.006 21.328,38.766 21.328,36.129 C 21.328,34.143 19.295,33.732 19.262,33.732 Z M 28,26 H 23 V 23.993 H 27 V 22 H 23 V 20 H 28 V 18 H 20 V 28 H 28 V 26 Z M 36,18 V 20 H 39 V 28 H 42 V 20 H 45 V 18 H 36 Z M 32.782,25.757 C 32.187,26.263 30.822,26.048 29.886,24.924 L 28.282,26.828 C 29.399,28.013 30.512,28.604 32.142,28.604 C 34.128,28.604 36.013,27.35 36.013,25.103 C 36.013,23.529 35.193,22.901 33.903,22.279 C 33.309,22.027 32.687,21.831 32.133,21.495 C 31.578,21.159 31.768,20.169 32.575,20.082 C 33.61,19.971 33.827,20.637 34.029,20.852 L 35.724,19.155 C 34.764,18.136 33.727,17.565 32.344,17.565 C 30.482,17.565 28.714,18.713 28.714,20.851 C 28.714,21.648 28.958,22.487 29.555,23.031 C 30.275,23.685 31.517,24.305 32.143,24.459 C 32.768,24.614 33.383,25.119 32.782,25.757 Z M 28,35.036 C 28,35.806 27.198,36.383 26.535,36.383 C 25.837,36.383 25,35.807 25,35.036 V 29 H 22 V 34.897 A 4.4,4.4 0 0,0 26.395,39.293 H 26.605 A 4.4,4.4 0 0,0 31,34.897 V 29 H 28 V 35.036 Z M 36.5,32.39 L 34.328,29 H 31 L 35,35.438 V 39 H 38 V 35.438 L 42,29 H 38.672 L 36.5,32.39 Z" fill="rgb(254, 254, 253)"/>
<path d="M 41.755,37.985 A 0.38,0.38 0 0,1 41.005,38 A 0.38,0.38 0 0,1 41.765,38 Z" fill="rgb(27, 36, 42)"/>
</svg>
