<?xml version="1.0" encoding="UTF-8"?>
<!-- generated by Finnhub -->
<svg viewBox="0 0 55.5 55.5" xmlns="http://www.w3.org/2000/svg">
<path d="M 0,0 H 55.5 V 55.5 H 0 Z" fill="rgb(29, 52, 100)"/>
<path d="M 49.02,27.655 L 51.843,25.142 H 51.031 L 48.377,27.646 H 48.369 V 25.142 H 47.8 V 30.999 H 48.368 V 27.749 H 48.376 L 51.164,30.999 H 52 L 49.03,27.669 Z M 44.39,30.503 C 42.957,30.503 42.099,29.228 42.099,27.929 C 42.099,26.629 42.973,25.496 44.415,25.496 C 45.124,25.496 45.683,25.866 45.919,26.228 L 46.392,25.882 C 46.006,25.338 45.226,25 44.407,25 C 42.745,25 41.5,26.236 41.5,27.93 C 41.5,29.622 42.697,30.999 44.383,30.999 C 45.383,30.999 46.1,30.519 46.47,29.959 L 46.03,29.676 C 45.643,30.251 45.029,30.503 44.39,30.503 Z M 39.42,31 H 40 V 25.142 H 39.42 V 31 Z M 36.28,30.215 H 36.264 L 34.868,25.142 H 34.191 L 32.797,30.215 H 32.782 L 31.402,25.142 H 30.804 L 32.45,31 H 33.112 L 34.513,25.93 H 34.529 L 35.933,31 H 36.594 L 38.24,25.142 H 37.641 L 36.279,30.215 Z M 28.236,27.622 C 27.614,27.417 27.023,27.236 27.023,26.528 C 27.023,25.811 27.661,25.48 28.213,25.48 C 28.74,25.48 29.126,25.7 29.363,26.04 L 29.812,25.677 C 29.544,25.315 28.985,25 28.236,25 C 27.417,25 26.456,25.457 26.456,26.535 C 26.456,27.543 27.212,27.866 27.953,28.095 C 28.662,28.315 29.329,28.654 29.329,29.433 C 29.329,30.15 28.668,30.512 28.093,30.512 A 1.483,1.483 0 0,1 26.816,29.812 L 26.328,30.173 C 26.73,30.725 27.408,31 28.085,31 C 28.967,31 29.905,30.512 29.905,29.394 S 29.024,27.882 28.236,27.622 Z M 24.283,30.173 H 24.267 L 21.02,25 H 20.311 V 31 H 20.878 V 25.78 H 20.894 L 24.141,31 H 24.85 V 25 H 24.283 V 30.173 Z M 17.944,28.721 C 17.944,29.618 17.558,30.501 16.424,30.501 S 14.904,29.618 14.904,28.721 L 14.924,25 H 14.358 L 14.336,28.784 C 14.336,29.713 14.754,31.004 16.424,31.004 C 18.094,31.004 18.511,29.713 18.511,28.784 L 18.533,25 H 17.965 L 17.945,28.72 Z M 9.907,27.622 V 25.488 H 10.916 C 11.759,25.488 12.318,25.756 12.318,26.488 C 12.318,27.15 11.798,27.622 10.892,27.622 H 9.907 Z M 12.885,26.488 C 12.885,25.402 12.082,25 10.979,25 H 9.34 V 31.004 H 9.907 V 28.11 H 10.853 L 12.397,31.004 H 13.09 L 11.46,28.063 A 1.576,1.576 0 0,0 12.885,26.488 Z M 5.595,30.52 H 4.539 L 4.567,28.047 H 5.725 C 6.631,28.047 7.131,28.701 7.131,29.433 C 7.131,30.213 6.414,30.52 5.595,30.52 Z M 4.539,25.488 H 5.524 C 6.256,25.488 6.863,25.756 6.863,26.465 C 6.863,27.205 6.253,27.583 5.709,27.583 H 4.567 L 4.539,25.488 Z M 6.473,27.78 V 27.764 C 7.064,27.63 7.43,27.008 7.43,26.425 C 7.43,25.307 6.485,25 5.634,25 H 4 V 31 H 5.626 C 6.91,31 7.706,30.394 7.706,29.465 C 7.706,28.654 7.198,27.858 6.473,27.78 Z" fill="rgb(254, 254, 253)"/>
</svg>
