<?xml version="1.0" encoding="UTF-8"?>
<!-- generated by Finnhub -->
<svg viewBox="0 0 55.5 55.5" xmlns="http://www.w3.org/2000/svg">
<path d="M 0,0 H 55.5 V 55.5 H 0 Z" fill="url(#a)"/>
<path d="M 42.817,19.401 C 42.48,18.732 41.902,17.819 41.093,17.134 C 40.746,16.792 40.284,16.564 39.706,16.45 C 39.244,16.336 38.782,16.221 38.319,16.221 H 38.204 C 37.626,16.221 36.471,16.336 35.777,17.248 C 35.43,17.591 35.315,18.161 35.43,18.731 C 35.546,19.188 35.777,19.531 36.24,19.644 C 36.24,19.644 36.355,19.644 36.586,19.758 C 36.471,19.758 36.355,19.987 36.355,19.987 C 36.124,20.329 35.546,20.899 33.928,20.899 H 33.813 C 33.003,20.899 32.31,20.671 31.501,19.644 C 31.039,18.96 30.692,17.933 30.692,16.107 C 30.692,15.195 30.577,14.396 30.346,13.826 C 30.23,13.369 29.883,13.026 29.536,12.799 C 29.306,12.57 28.959,12.456 28.496,12.342 C 28.035,12 27.342,12 26.764,12 C 26.071,12 25.724,12.114 25.493,12.456 C 25.493,12.456 25.493,12.57 25.377,12.57 H 24.915 C 24.568,12.57 24.222,12.685 23.875,12.685 C 23.182,12.799 22.835,13.027 22.373,13.369 C 22.257,13.483 21.911,13.826 21.795,14.282 C 21.679,14.624 21.795,14.852 21.911,14.966 C 21.911,14.966 21.911,15.081 22.026,15.081 C 22.257,14.852 22.604,14.738 23.182,14.738 C 23.875,14.738 24.915,15.081 25.262,15.651 C 25.724,16.45 25.609,17.021 25.493,17.819 C 25.262,19.759 24.453,20.785 22.951,21.013 H 22.141 C 20.986,21.013 20.177,20.671 19.831,19.987 C 19.599,19.758 19.599,19.644 19.599,19.644 S 19.715,19.644 19.83,19.53 C 20.293,19.302 20.524,19.074 20.64,18.617 C 20.755,18.161 20.64,17.591 20.293,17.134 C 19.715,16.564 18.906,16.221 17.866,16.221 A 4.36,4.36 0 0,0 16.479,16.45 C 15.092,16.792 14.052,17.705 13.243,19.416 C 12.665,20.557 12.203,22.154 12.088,23.752 C 11.972,25.349 11.972,26.718 12.088,27.973 C 12.318,30.027 12.666,31.282 13.128,32.537 C 13.59,33.906 14.283,35.161 14.977,36.302 C 15.207,36.758 15.323,36.987 15.439,37.101 C 15.555,36.987 15.67,36.873 15.786,36.644 C 16.016,36.416 16.826,35.389 17.056,35.047 C 17.404,34.819 17.75,34.134 17.981,33.677 L 18.097,33.45 L 18.328,33.678 C 18.559,33.906 18.675,34.134 18.675,34.477 C 18.675,34.819 18.559,35.161 18.444,35.846 C 18.212,36.53 17.866,37.443 17.404,38.128 C 17.404,38.242 17.288,38.356 17.288,38.356 C 17.057,38.812 16.941,39.04 17.057,39.154 C 17.173,39.154 17.519,39.04 17.866,38.698 C 18.213,38.47 19.021,37.785 20.062,36.302 C 20.87,35.275 21.448,34.134 22.026,32.879 L 22.142,32.651 L 22.372,32.765 C 22.488,32.765 22.604,32.879 22.604,32.993 C 22.719,33.221 22.719,33.45 22.719,33.792 C 22.604,34.591 22.142,35.732 21.795,36.53 C 21.217,37.9 20.062,39.497 19.253,40.638 C 19.253,40.638 19.021,40.866 19.021,40.98 C 19.137,41.094 19.253,41.208 19.484,41.322 L 19.83,41.55 C 20.986,42.463 22.026,43.262 23.413,43.946 C 24.453,44.516 26.649,45.658 28.035,46 C 29.422,45.658 31.618,44.517 32.658,43.946 C 34.045,43.148 35.085,42.463 36.24,41.55 L 36.587,41.322 C 36.818,41.208 36.934,40.98 37.049,40.98 C 37.049,40.98 36.934,40.866 36.934,40.752 L 36.818,40.638 C 36.009,39.497 34.854,37.899 34.276,36.53 C 33.929,35.731 33.466,34.477 33.351,33.792 C 33.351,33.45 33.351,33.222 33.467,32.993 C 33.467,32.879 33.582,32.879 33.698,32.765 S 33.929,32.651 33.929,32.651 L 34.045,32.879 C 34.623,34.134 35.315,35.161 36.009,36.302 C 37.049,37.785 37.859,38.47 38.205,38.698 C 38.552,38.926 38.898,39.154 39.014,39.154 H 39.13 C 39.245,39.04 39.13,38.812 38.898,38.356 C 38.898,38.242 38.783,38.127 38.783,38.127 A 12.838,12.838 0 0,1 37.743,35.846 C 37.512,35.161 37.396,34.819 37.396,34.476 C 37.396,34.134 37.512,33.792 37.743,33.678 L 37.973,33.564 L 38.089,33.792 C 38.32,34.248 38.783,34.932 38.899,35.162 C 39.129,35.503 39.939,36.416 40.169,36.758 L 40.516,37.101 C 40.632,36.987 40.747,36.758 40.978,36.416 V 36.302 C 41.672,35.162 42.25,33.906 42.828,32.537 C 43.29,31.167 43.636,30.027 43.868,27.973 C 43.983,26.718 44.098,25.349 43.868,23.752 C 43.868,22.154 43.521,20.557 42.828,19.416 Z" fill="rgb(254, 254, 253)"/>
<defs>
<linearGradient id="a" x1="4.956" x2="47.413" y1="13.278" y2="49.204" gradientUnits="userSpaceOnUse">
<stop stop-color="rgb(31, 195, 242)" offset="0"/>
<stop stop-color="rgb(1, 109, 150)" offset="1"/>
</linearGradient>
</defs>
</svg>
