<?xml version="1.0" encoding="UTF-8"?>
<!-- generated by Finnhub -->
<svg viewBox="0 0 55.5 55.5" xmlns="http://www.w3.org/2000/svg">
<path d="M 0,0 H 55.5 V 55.5 H 0 Z" fill="rgb(240, 104, 33)"/>
<circle cx="28" cy="28" r="16.5" fill="rgb(240, 104, 33)" stroke="rgb(254, 254, 253)"/>
<path d="M 27.99,11.985 L 30,22 L 36.65,14.54 L 33,24 L 42.554,21.353 L 34,27 L 44,30 H 12 L 22,27 L 13.446,21.353 L 23,23.998 L 19.35,14.54 L 26,22 L 28,12 Z M 27.872,30.002 A 4,4 0 1,0 28.128,30.002 H 38 C 37.195,34.542 33.025,38.002 28,38.002 C 22.976,38.002 18.805,34.542 18,30.002 C 24.709,29.999 25.343,30 26.02,30.001 L 27.872,30.002 Z" fill="rgb(254, 254, 253)"/>
</svg>
