<?xml version="1.0" encoding="UTF-8"?>
<!-- generated by Finnhub -->
<svg viewBox="0 0 55.5 55.5" xmlns="http://www.w3.org/2000/svg">
<path d="M 0,0 H 55.5 V 55.5 H 0 Z" fill="rgb(53, 114, 233)"/>
<path d="M 12.99,20.485 A 7.5,7.5 0 0,1 20.5,13 H 35.5 A 7.5,7.5 0 0,1 43,20.5 V 35.5 A 7.5,7.5 0 0,1 35.5,43 H 20.5 A 7.5,7.5 0 0,1 13,35.5 V 20.5 Z M 28.898,22.302 A 1.5,1.5 0 0,0 27.104,22.302 L 19.714,27.812 A 1.5,1.5 0 0,1 17.921,25.408 L 25.311,19.897 A 4.5,4.5 0 0,1 30.691,19.897 L 38.08,25.407 A 1.5,1.5 0 1,1 36.286,27.812 L 28.898,22.302 Z M 22.231,30.808 A 1.5,1.5 0 1,0 19.366,31.696 C 20.521,35.424 23.964,38.001 27.999,38.001 C 32.034,38.001 35.477,35.424 36.632,31.696 A 1.5,1.5 0 1,0 33.767,30.808 C 33.002,33.276 30.724,35.001 27.999,35.001 C 25.274,35.001 22.996,33.276 22.231,30.808 Z" clip-rule="evenodd" fill="rgb(254, 254, 253)" fill-rule="evenodd"/>
</svg>
