<?xml version="1.0" encoding="UTF-8"?>
<!-- generated by Finnhub -->
<svg viewBox="0 0 55.5 55.5" xmlns="http://www.w3.org/2000/svg">
<path d="M 0,0 H 55.5 V 55.5 H 0 Z" fill="url(#a)"/>
<path d="M 5.99,33.475 C 6,33.711 5.88,33.809 5.738,33.84 A 1,1 0 0,1 5.492,33.863 C 5.404,33.863 5.381,33.902 5.381,33.933 C 5.381,33.98 5.428,34.003 5.515,34.003 H 7.555 C 7.634,34.003 7.69,33.98 7.69,33.933 C 7.69,33.902 7.658,33.863 7.578,33.863 C 7.475,33.863 7.317,33.855 7.221,33.84 C 7.015,33.809 7.024,33.684 7,33.498 V 29.412 L 7.793,29.428 C 8.42,29.436 8.602,29.638 8.618,29.808 L 8.626,29.878 C 8.634,29.979 8.65,30.01 8.706,30.01 C 8.745,30.01 8.761,29.971 8.769,29.901 C 8.769,29.731 8.785,29.241 8.785,29.101 C 8.785,29.001 8.777,28.961 8.729,28.961 C 8.705,28.961 8.649,28.977 8.539,28.993 C 8.435,29.008 8.285,29 8.062,29 H 5.23 C 5,29 4.532,28.993 4.532,28.993 C 4.357,28.969 4.286,28.915 4.23,28.915 C 4.19,28.915 4.167,28.954 4.15,29.039 C 4.135,29.094 4,29.731 4,29.839 C 4,29.909 4.016,29.949 4.063,29.949 C 4.111,29.949 4.127,29.917 4.143,29.863 A 0.766,0.766 0 0,1 4.262,29.637 C 4.365,29.49 4.532,29.443 4.936,29.436 L 6,29.412 V 33.49 Z M 10,33.49 C 9.976,33.684 9.973,33.809 9.83,33.84 A 1.046,1.046 0 0,1 9.584,33.863 C 9.497,33.863 9.474,33.902 9.474,33.933 C 9.474,33.98 9.521,34.003 9.608,34.003 L 12.584,34.018 C 12.845,34.018 12.909,34.018 12.957,33.848 C 12.997,33.715 13.052,33.265 13.052,33.118 C 13.052,33.048 13.044,32.962 12.988,32.962 C 12.941,32.962 12.925,32.993 12.909,33.063 C 12.861,33.335 12.782,33.475 12.607,33.553 C 12.425,33.63 12.131,33.638 11.949,33.638 C 11.235,33.638 11.021,33.537 11.005,33.086 C 10.985,32.586 11.005,32.081 11.005,31.579 C 11.005,31.541 11.013,31.509 11.045,31.509 C 11.219,31.509 12.012,31.525 12.139,31.541 C 12.401,31.564 12.489,31.665 12.529,31.797 C 12.544,31.882 12.544,31.967 12.552,32.037 C 12.552,32.069 12.568,32.092 12.615,32.092 C 12.679,32.092 12.687,31.999 12.687,31.944 C 12.687,31.898 12.703,31.634 12.719,31.502 C 12.759,31.168 12.774,31.059 12.774,31.02 C 12.774,30.981 12.75,30.95 12.719,30.95 C 12.687,30.95 12.663,30.989 12.608,31.036 C 12.536,31.098 12.441,31.121 12.274,31.136 C 12.116,31.152 11.211,31.152 11.052,31.152 C 11.012,31.152 11.005,31.121 11.005,31.082 V 29.451 C 11.005,29.412 11.021,29.389 11.052,29.389 C 11.195,29.389 12.028,29.404 12.147,29.419 C 12.497,29.451 12.552,29.544 12.607,29.661 C 12.647,29.738 12.655,29.855 12.655,29.901 C 12.655,29.956 12.663,29.987 12.711,29.987 C 12.766,29.987 12.782,29.909 12.79,29.878 C 12.806,29.8 12.822,29.513 12.83,29.443 C 12.845,29.14 12.885,29.063 12.885,29.016 C 12.885,28.985 12.877,28.954 12.838,28.954 C 12.806,28.954 12.766,28.977 12.727,28.984 C 12.671,28.993 12.56,29.016 12.433,29.024 L 9.521,29.008 C 9.418,29.008 9.362,29.024 9.362,29.07 C 9.362,29.117 9.41,29.14 9.482,29.14 C 9.584,29.14 9.703,29.148 9.759,29.164 C 9.981,29.226 9.984,29.296 10,29.521 V 33.491 Z M 14.212,33.343 C 14.18,33.56 14.116,33.824 13.926,33.847 C 13.815,33.863 13.767,33.863 13.712,33.863 C 13.64,33.863 13.601,33.894 13.601,33.925 C 13.601,33.987 13.656,34.003 13.728,34.003 H 15.156 C 15.259,34.003 15.322,33.987 15.322,33.925 C 15.322,33.895 15.275,33.863 15.212,33.863 A 1.23,1.23 0 0,1 14.965,33.832 C 14.846,33.809 14.751,33.762 14.751,33.638 C 14.751,33.529 14.759,33.444 14.775,33.328 L 15.108,30.779 H 15.132 C 15.362,31.238 15.775,32.038 15.83,32.162 C 15.91,32.348 16.465,33.358 16.632,33.662 C 16.742,33.863 16.822,33.995 16.909,33.995 C 16.989,33.995 17.029,33.933 17.187,33.622 L 18.687,30.702 H 18.71 L 19.1,33.552 C 19.123,33.739 19.107,33.816 19.068,33.832 C 19.02,33.847 18.988,33.871 18.988,33.902 C 18.988,33.941 19.028,33.992 19.195,34 H 20.639 C 20.742,34 20.821,33.995 20.821,33.94 C 20.821,33.902 20.773,33.879 20.71,33.879 C 20.623,33.879 20.512,33.871 20.313,33.816 C 20.099,33.754 20.036,33.576 19.973,33.164 L 19.337,29.101 C 19.314,28.961 19.234,28.891 19.179,28.891 C 19.115,28.891 19.052,28.946 18.996,29.055 L 17.124,32.752 L 15.251,29.102 C 15.156,28.922 15.108,28.892 15.037,28.892 C 14.981,28.892 14.917,28.954 14.902,29.062 L 14.212,33.342 Z M 22.003,33.49 C 22.003,33.693 21.916,33.809 21.773,33.84 A 1.045,1.045 0 0,1 21.527,33.863 C 21.439,33.863 21.416,33.902 21.416,33.933 C 21.416,33.98 21.463,34.003 21.551,34.003 H 23.574 C 23.645,34.003 23.701,33.98 23.701,33.933 C 23.701,33.902 23.669,33.863 23.59,33.863 C 23.487,33.863 23.336,33.855 23.233,33.84 C 23.026,33.809 23.016,33.684 22.993,33.498 V 29.467 C 22.993,29.397 23.008,29.357 23.048,29.342 A 0.692,0.692 0 0,1 23.288,29.312 C 23.447,29.312 23.733,29.342 23.986,29.56 C 24.376,29.886 24.399,30.321 24.399,30.539 C 24.399,31.214 23.852,31.61 23.463,31.61 C 23.312,31.61 23.233,31.642 23.233,31.696 C 23.233,31.742 23.28,31.766 23.32,31.766 C 23.352,31.774 23.494,31.774 23.526,31.774 C 24.518,31.774 25.28,31.105 25.28,30.174 C 25.28,29.816 25.081,29.521 24.93,29.381 C 24.82,29.288 24.502,29 23.63,29 H 21.463 C 21.36,29 21.305,29.024 21.305,29.07 C 21.305,29.117 21.352,29.14 21.424,29.14 C 21.527,29.14 21.646,29.148 21.701,29.164 C 21.924,29.226 21.987,29.296 22.003,29.521 V 33.491 Z M 27.625,30.92 C 27.625,29.917 27.625,29.73 27.641,29.52 C 27.657,29.288 27.713,29.195 27.903,29.164 C 27.983,29.148 28.093,29.14 28.173,29.14 C 28.26,29.14 28.3,29.117 28.3,29.07 C 28.3,29.024 28.252,29 28.15,29 H 26.18 C 26.077,29 26.03,29.024 26.03,29.07 C 26.03,29.117 26.07,29.14 26.149,29.14 C 26.236,29.14 26.323,29.148 26.379,29.164 C 26.601,29.226 26.664,29.296 26.68,29.521 C 26.688,29.731 26.688,29.917 26.688,30.919 V 32.084 C 26.688,32.69 26.688,33.211 26.656,33.49 C 26.633,33.684 26.593,33.809 26.45,33.84 A 1.046,1.046 0 0,1 26.204,33.863 C 26.117,33.863 26.093,33.902 26.093,33.933 C 26.093,33.98 26.141,34.003 26.228,34.003 L 29.292,34 C 29.657,34 29.688,33.987 29.736,33.84 C 29.791,33.645 29.839,33.156 29.839,33.078 C 29.839,33.001 29.823,32.931 29.776,32.931 C 29.72,32.931 29.704,32.97 29.696,33.031 C 29.68,33.156 29.609,33.343 29.522,33.428 C 29.347,33.607 29.077,33.615 28.705,33.615 C 28.165,33.615 27.895,33.575 27.776,33.475 C 27.626,33.35 27.626,32.931 27.626,32.085 V 30.919 Z M 31,33.49 C 30.976,33.684 30.972,33.809 30.829,33.84 A 1.046,1.046 0 0,1 30.583,33.863 C 30.496,33.863 30.472,33.902 30.472,33.933 C 30.472,33.98 30.52,34.003 30.607,34.003 L 33.582,34.018 C 33.844,34.018 33.908,34.018 33.955,33.848 C 33.995,33.715 34.05,33.265 34.05,33.118 C 34.05,33.048 34.042,32.962 33.987,32.962 C 33.939,32.962 33.923,32.993 33.907,33.063 C 33.86,33.335 33.781,33.475 33.607,33.553 C 33.424,33.63 33.13,33.638 32.947,33.638 C 32.233,33.638 32.019,33.537 32.003,33.086 C 31.983,32.586 32.003,32.081 32.003,31.579 C 32.003,31.541 32.011,31.509 32.043,31.509 C 32.218,31.509 33.011,31.525 33.138,31.541 C 33.4,31.564 33.488,31.665 33.527,31.797 C 33.543,31.882 33.543,31.967 33.551,32.037 C 33.551,32.069 33.566,32.092 33.614,32.092 C 33.678,32.092 33.685,31.999 33.685,31.944 C 33.685,31.898 33.701,31.634 33.717,31.502 C 33.757,31.168 33.773,31.059 33.773,31.02 C 33.773,30.981 33.749,30.95 33.717,30.95 S 33.662,30.989 33.607,31.036 C 33.535,31.098 33.44,31.121 33.273,31.136 C 33.114,31.152 32.21,31.152 32.051,31.152 C 32.011,31.152 32.003,31.121 32.003,31.082 L 32.004,29.482 C 32.004,29.443 32.02,29.42 32.052,29.42 H 33.146 C 33.495,29.451 33.551,29.544 33.606,29.66 C 33.646,29.738 33.654,29.855 33.654,29.901 C 33.654,29.956 33.662,29.987 33.709,29.987 C 33.765,29.987 33.781,29.909 33.789,29.878 C 33.804,29.8 33.82,29.513 33.829,29.443 C 33.844,29.14 33.884,29.063 33.884,29.016 C 33.884,28.985 33.876,28.954 33.836,28.954 C 33.804,28.954 33.765,28.977 33.726,28.984 C 33.67,28.993 33.559,28.992 33.432,29 L 30.52,29.008 C 30.416,29.008 30.36,29.024 30.36,29.07 C 30.36,29.117 30.409,29.14 30.48,29.14 C 30.583,29.14 30.702,29.148 30.758,29.164 C 30.98,29.226 30.984,29.296 31,29.521 V 33.491 Z M 36.567,32.084 C 36.567,32.69 36.567,33.211 36.535,33.49 C 36.512,33.684 36.472,33.809 36.329,33.84 A 1,1 0 0,1 36.083,33.863 C 35.996,33.863 35.972,33.902 35.972,33.933 C 35.972,33.98 36.02,34.003 36.107,34.003 H 38.146 C 38.226,34.003 38.281,33.98 38.281,33.933 C 38.281,33.902 38.249,33.863 38.17,33.863 C 38.067,33.863 37.908,33.855 37.813,33.84 C 37.606,33.809 37.567,33.684 37.543,33.498 C 37.511,33.211 37.503,32.69 37.503,32.084 V 29.412 L 38.384,29.428 C 39.011,29.436 39.194,29.638 39.209,29.808 L 39.217,29.878 C 39.225,29.979 39.241,30.01 39.297,30.01 C 39.337,30.01 39.352,29.971 39.36,29.901 C 39.36,29.731 39.376,29.241 39.376,29.101 C 39.376,29.001 39.368,28.961 39.32,28.961 C 39.297,28.961 39.241,28.977 39.13,28.993 C 39.027,29.008 38.876,29 38.654,29 H 35.82 C 35.59,29 35.328,29.016 35.122,28.993 C 34.947,28.969 34.876,28.915 34.82,28.915 C 34.78,28.915 34.757,28.954 34.741,29.039 C 34.725,29.094 34.591,29.731 34.591,29.839 C 34.591,29.909 34.606,29.949 34.654,29.949 C 34.701,29.949 34.717,29.917 34.734,29.863 A 0.764,0.764 0 0,1 34.852,29.637 C 34.955,29.49 35.122,29.443 35.527,29.436 L 36.567,29.412 V 32.084 Z M 42.654,34.088 C 44.454,34.088 45.582,32.9 45.582,31.385 S 44.487,28.915 42.725,28.915 C 40.607,28.915 39.797,30.375 39.797,31.502 C 39.797,32.675 40.623,34.088 42.654,34.088 Z M 42.939,33.731 C 41.622,33.731 40.829,32.659 40.829,31.3 C 40.829,29.669 41.741,29.265 42.519,29.265 C 43.646,29.265 44.542,30.165 44.542,31.625 C 44.542,33.505 43.432,33.731 42.939,33.731 Z M 47.239,30.406 H 47.263 C 47.398,30.523 48.136,31.323 48.897,32.038 C 49.627,32.729 50.5,33.545 50.937,33.941 C 51.007,34.011 51.103,34.081 51.222,34.081 C 51.278,34.081 51.333,34.018 51.333,33.871 L 51.413,29.707 C 51.42,29.334 51.476,29.218 51.666,29.164 C 51.754,29.14 51.809,29.14 51.881,29.14 C 51.96,29.14 52,29.11 52,29.07 C 52,29.016 51.936,29 51.841,29 H 50.27 C 50.167,29 50.095,29.016 50.095,29.07 C 50.095,29.11 50.119,29.14 50.206,29.14 C 50.302,29.14 50.468,29.14 50.571,29.18 C 50.738,29.241 50.801,29.358 50.81,29.762 L 50.88,32.698 H 50.85 C 50.746,32.605 49.818,31.672 49.342,31.214 C 48.326,30.244 47.279,29.194 47.192,29.109 C 47.072,28.993 46.977,28.892 46.89,28.892 C 46.818,28.892 46.77,28.985 46.77,29.117 L 46.707,33.032 C 46.699,33.607 46.676,33.785 46.493,33.832 A 1.466,1.466 0 0,1 46.176,33.863 C 46.112,33.863 46.065,33.894 46.065,33.933 C 46.065,33.995 46.128,34.003 46.223,34.003 H 47.882 C 47.977,34.003 48.04,33.987 48.04,33.933 C 48.04,33.894 48,33.863 47.921,33.863 C 47.811,33.863 47.675,33.855 47.556,33.816 C 47.421,33.77 47.334,33.614 47.318,33.102 L 47.238,30.406 Z M 10.004,23.567 C 10.004,23.52 10.019,23.512 10.051,23.512 C 10.169,23.512 10.894,23.52 11.067,23.535 C 11.279,23.551 11.366,23.683 11.397,23.776 A 0.6,0.6 0 0,1 11.444,23.978 C 11.444,24.024 11.468,24.071 11.507,24.071 C 11.578,24.071 11.586,23.978 11.586,23.923 C 11.586,23.877 11.594,23.574 11.61,23.443 C 11.633,23.233 11.665,23.055 11.665,23.016 C 11.665,22.977 11.649,22.954 11.625,22.954 C 11.586,22.954 11.57,22.984 11.531,23.024 C 11.468,23.109 11.366,23.132 11.24,23.14 C 11.137,23.148 11.043,23.148 10.925,23.148 L 10.051,23.156 C 10.011,23.156 10.004,23.132 10.004,23.093 V 21.52 C 10.004,21.442 10.027,21.427 10.067,21.427 H 11.122 C 11.382,21.435 11.515,21.535 11.562,21.629 C 11.61,21.722 11.602,21.822 11.602,21.877 C 11.602,21.954 11.642,21.985 11.688,21.985 C 11.735,21.985 11.751,21.908 11.759,21.853 C 11.767,21.776 11.783,21.388 11.791,21.318 C 11.814,21.148 11.846,21.07 11.846,21.024 C 11.846,20.992 11.822,20.961 11.798,20.961 C 11.759,20.961 11.728,20.992 11.688,21.001 H 8.446 C 8.336,21.001 8.281,21.031 8.281,21.078 C 8.281,21.124 8.336,21.148 8.399,21.148 C 8.502,21.148 8.619,21.155 8.675,21.171 C 8.895,21.225 8.985,21.303 9,21.528 V 25.491 C 9,25.688 8.887,25.809 8.745,25.841 A 1.034,1.034 0 0,1 8.502,25.863 C 8.422,25.863 8.399,25.903 8.399,25.933 C 8.399,25.988 8.446,26.003 8.541,26.003 H 10.531 C 10.634,26.003 10.681,25.98 10.681,25.933 C 10.681,25.903 10.65,25.863 10.563,25.863 C 10.469,25.863 10.319,25.856 10.225,25.84 C 10.02,25.81 10,25.696 10,25.491 C 10,25.491 10.004,24.203 10.004,23.568 Z M 13,25.49 C 12.976,25.684 12.905,25.808 12.763,25.84 A 1.033,1.033 0 0,1 12.519,25.862 C 12.432,25.862 12.409,25.902 12.409,25.932 C 12.409,25.979 12.456,26.002 12.543,26.002 H 14.47 C 14.557,26.002 14.612,25.979 14.612,25.932 C 14.612,25.902 14.581,25.862 14.525,25.862 C 14.439,25.862 14.289,25.855 14.187,25.839 C 13.975,25.809 14,25.709 14,25.49 V 23.993 C 14,23.954 14.042,23.939 14.073,23.939 L 14.557,23.954 C 14.604,23.954 14.643,23.962 14.683,24.001 C 14.769,24.101 15.06,24.544 15.336,24.901 C 15.721,25.413 15.981,25.723 16.28,25.871 C 16.461,25.963 16.65,26.002 17.035,26.002 H 17.696 C 17.783,26.002 17.83,25.987 17.83,25.932 C 17.83,25.902 17.799,25.862 17.744,25.862 C 17.689,25.862 17.649,25.862 17.578,25.847 C 17.468,25.824 17.224,25.793 16.838,25.413 C 16.422,25.001 15.934,24.404 15.32,23.66 C 15.997,23.124 16.28,22.69 16.28,22.201 C 16.28,21.759 15.989,21.426 15.792,21.294 C 15.422,21.054 14.919,21.014 14.478,21.014 H 12.456 C 12.354,21.014 12.299,21.03 12.299,21.077 C 12.299,21.123 12.346,21.147 12.417,21.147 C 12.519,21.147 12.637,21.154 12.692,21.17 C 12.912,21.232 12.984,21.302 13,21.527 V 25.49 Z M 14,21.472 C 14,21.418 14.034,21.395 14.081,21.379 C 14.151,21.364 14.179,21.356 14.352,21.356 C 14.762,21.356 15.407,21.596 15.407,22.527 C 15.407,23.07 15.171,23.357 14.958,23.504 C 14.84,23.59 14.746,23.614 14.47,23.614 A 1.05,1.05 0 0,1 14.081,23.551 C 14.034,23.528 14.001,23.505 14.001,23.435 V 21.472 Z" fill="rgb(254, 254, 253)"/>
<path d="M 20.31,24.319 C 20.352,24.334 20.376,24.342 20.392,24.381 L 20.927,25.715 C 20.958,25.793 20.911,25.855 20.864,25.862 C 20.793,25.87 20.777,25.893 20.777,25.932 C 20.777,25.979 20.856,25.992 20.982,26 H 22.312 C 22.572,26 22.611,25.986 22.611,25.932 C 22.611,25.886 22.579,25.862 22.516,25.862 C 22.438,25.862 22.359,25.855 22.256,25.839 C 22.131,25.816 21.934,25.731 21.666,25.133 C 21.226,24.133 20.069,21.465 19.904,21.1 C 19.834,20.953 19.802,20.89 19.699,20.89 C 19.629,20.89 19.573,20.968 19.495,21.154 L 17.685,25.273 C 17.543,25.606 17.425,25.808 17.111,25.855 C 17.048,25.855 16.969,25.862 16.906,25.862 C 16.851,25.862 16.827,25.893 16.827,25.932 C 16.827,25.987 16.867,26.002 16.953,26.002 H 18.527 C 18.597,26.002 18.637,25.987 18.637,25.932 C 18.637,25.893 18.621,25.862 18.535,25.862 H 18.433 C 18.22,25.862 18.157,25.792 18.157,25.676 C 18.157,25.599 18.189,25.436 18.259,25.273 L 18.629,24.381 C 18.645,24.342 18.653,24.334 18.692,24.334 H 20.321 Z M 18.857,24.004 C 18.834,24.004 18.818,23.988 18.834,23.957 L 19.479,22.279 C 19.487,22.256 19.495,22.217 19.519,22.217 C 19.534,22.217 19.542,22.256 19.549,22.279 L 20.227,23.965 C 20.234,23.988 20.227,24.004 20.195,24.004 H 18.857 Z" fill="rgb(254, 254, 253)"/>
<path d="M 23.709,22.395 H 23.742 C 23.876,22.527 24.608,23.326 25.363,24.04 C 26.087,24.73 26.953,25.544 27.386,25.94 C 27.456,26.01 27.551,26.08 27.669,26.08 C 27.724,26.08 27.779,26.017 27.779,25.87 L 27.858,21.713 C 27.865,21.34 27.921,21.224 28.109,21.17 C 28.196,21.147 28.251,21.147 28.322,21.147 C 28.401,21.147 28.44,21.116 28.44,21.077 C 28.44,21.022 28.377,21 28.282,21 H 26.724 C 26.622,21 26.551,21.023 26.551,21.077 C 26.551,21.116 26.575,21.147 26.661,21.147 C 26.756,21.147 26.921,21.147 27.023,21.185 C 27.189,21.247 27.252,21.364 27.26,21.767 L 27.33,24.699 H 27.3 C 27.198,24.606 26.277,23.675 25.805,23.217 C 24.798,22.248 23.759,21.201 23.673,21.116 C 23.554,20.999 23.46,20.898 23.373,20.898 C 23.303,20.898 23.256,20.991 23.256,21.123 L 23.193,25.033 C 23.185,25.606 23.161,25.785 22.98,25.831 C 22.886,25.855 22.76,25.862 22.665,25.862 C 22.602,25.862 22.555,25.893 22.555,25.932 C 22.555,25.994 22.618,26.002 22.713,26.002 H 24.357 C 24.452,26.002 24.514,25.987 24.514,25.932 C 24.514,25.893 24.475,25.862 24.396,25.862 C 24.286,25.862 24.152,25.855 24.035,25.816 C 23.901,25.769 23.815,25.614 23.799,25.102 L 23.719,22.411 Z M 31,21.527 C 31.016,21.294 31.147,21.201 31.336,21.17 C 31.423,21.154 31.462,21.147 31.533,21.147 C 31.588,21.147 31.627,21.123 31.627,21.077 C 31.627,21.03 31.627,21 31.477,21 H 29.437 C 29.335,21 29.28,21.03 29.28,21.077 C 29.28,21.123 29.327,21.147 29.398,21.147 C 29.501,21.147 29.618,21.154 29.674,21.17 C 29.894,21.232 29.984,21.302 30,21.527 V 25.49 C 29.977,25.684 29.886,25.808 29.745,25.84 A 1.035,1.035 0 0,1 29.501,25.862 C 29.414,25.862 29.391,25.902 29.391,25.932 C 29.391,25.979 29.438,26.002 29.524,26.002 H 31.566 C 31.646,26.002 31.7,25.979 31.7,25.932 C 31.7,25.902 31.66,25.862 31.606,25.862 A 2.57,2.57 0 0,1 31.267,25.839 C 31.094,25.809 31.016,25.684 31,25.498 V 23.489 H 31.031 L 31.102,23.582 C 31.252,23.784 32.467,25.304 32.766,25.56 C 33.065,25.816 33.293,25.969 33.663,26 L 34.749,26.002 C 34.875,26.002 34.914,26 34.914,25.932 C 34.914,25.893 34.874,25.862 34.82,25.862 C 34.741,25.862 34.6,25.862 34.395,25.777 C 34.025,25.63 33.757,25.343 33.451,25.071 C 33.183,24.823 31.936,23.427 31.692,23.117 A 38.79,38.79 0 0,1 33.042,21.713 C 33.332,21.441 33.552,21.302 33.773,21.224 C 33.899,21.178 34.073,21.147 34.174,21.147 C 34.237,21.147 34.277,21.123 34.277,21.077 C 34.277,21.03 34.23,21 34.159,21 H 32.632 C 32.562,21 32.522,21.03 32.522,21.077 C 32.522,21.116 32.554,21.131 32.617,21.147 C 32.68,21.162 32.711,21.209 32.711,21.278 C 32.711,21.395 32.561,21.55 32.365,21.768 C 32.16,21.992 31.267,22.969 31.031,23.218 H 31 V 21.527 Z" fill="rgb(254, 254, 253)"/>
<path d="M 36.286,22.907999999999998 C 36.296,21.923 36.296,21.736 36.311,21.527 C 36.327,21.294 36.382,21.201 36.571,21.17 A 1.55,1.55 0 0,1 36.839,21.147 C 36.925,21.147 36.964,21.123 36.964,21.077 C 36.964,21.03 36.917,21 36.814,21 H 34.864 C 34.761,21 34.714,21.03 34.714,21.077 C 34.714,21.123 34.754,21.147 34.832,21.147 A 0.93,0.93 0 0,1 35.06,21.17 C 35.28,21.232 35.343,21.302 35.36,21.527 C 35.367,21.737 35.367,21.922 35.367,22.923 V 24.086 C 35.367,24.691 35.367,25.211 35.336,25.49 C 35.312,25.684 35.273,25.808 35.131,25.84 A 1.035,1.035 0 0,1 34.887,25.862 C 34.801,25.862 34.777,25.902 34.777,25.932 C 34.777,25.979 34.824,26.002 34.911,26.002 L 37.948,26 C 38.31,26 38.341,25.986 38.388,25.84 A 4.95,4.95 0 0,0 38.491,25.079 C 38.491,25.001 38.475,24.932 38.428,24.932 C 38.373,24.932 38.358,24.97 38.349,25.032 C 38.334,25.157 38.263,25.342 38.176,25.428 C 38.003,25.606 37.736,25.614 37.366,25.614 C 36.831,25.614 36.563,25.575 36.446,25.474 C 36.296,25.351 36.296,24.932 36.296,24.086 V 22.923 Z M 40.002,25.521 C 39.978,25.715 39.939,25.808 39.797,25.839 A 1.033,1.033 0 0,1 39.554,25.862 C 39.467,25.862 39.444,25.902 39.444,25.932 C 39.444,25.979 39.491,26.002 39.577,26.002 H 41.6 C 41.679,26.002 41.734,25.979 41.734,25.932 C 41.734,25.902 41.703,25.862 41.624,25.862 C 41.522,25.862 41.364,25.855 41.27,25.839 C 41.065,25.809 41.025,25.707 41.001,25.529 V 21.527 C 41.001,21.297 41.049,21.201 41.238,21.17 A 0.97,0.97 0 0,1 41.443,21.147 C 41.513,21.147 41.553,21.131 41.553,21.069 C 41.553,21.03 41.498,21 41.411,21 H 39.594 C 39.484,21 39.429,21.03 39.429,21.069 C 39.429,21.131 39.468,21.147 39.539,21.147 C 39.625,21.147 39.712,21.154 39.791,21.177 C 39.941,21.224 40.001,21.297 40.001,21.527 L 40.003,25.521 Z M 43.267,22.41 H 43.29 C 43.424,22.527 44.156,23.326 44.911,24.04 C 45.635,24.73 46.501,25.544 46.934,25.94 C 47.004,26.01 47.099,26.08 47.217,26.08 C 47.272,26.08 47.327,26.017 47.327,25.87 L 47.406,21.713 C 47.414,21.34 47.469,21.224 47.658,21.17 C 47.744,21.147 47.799,21.147 47.87,21.147 C 47.949,21.147 47.988,21.116 47.988,21.077 C 47.988,21.022 47.925,21 47.831,21 H 46.273 C 46.17,21 46.099,21.023 46.099,21.077 C 46.099,21.116 46.123,21.147 46.209,21.147 C 46.304,21.147 46.469,21.147 46.572,21.185 C 46.737,21.247 46.8,21.364 46.808,21.767 L 46.878,24.699 H 46.847 C 46.745,24.606 45.824,23.675 45.352,23.217 C 44.345,22.248 43.306,21.201 43.22,21.116 C 43.102,20.999 43.007,20.898 42.92,20.898 C 42.85,20.898 42.803,20.991 42.803,21.123 L 42.74,25.033 C 42.732,25.606 42.708,25.785 42.527,25.831 C 42.433,25.855 42.307,25.862 42.212,25.862 C 42.15,25.862 42.102,25.893 42.102,25.932 C 42.102,25.994 42.165,26.002 42.26,26.002 H 43.904 C 43.999,26.002 44.062,25.987 44.062,25.932 C 44.062,25.893 44.022,25.862 43.944,25.862 C 43.834,25.862 43.7,25.855 43.582,25.816 C 43.448,25.769 43.362,25.614 43.346,25.102 L 43.266,22.411 Z" fill="rgb(254, 254, 253)"/>
<defs>
<linearGradient id="a" x1="10.418" x2="68.147" y1="9.712" y2="76.017" gradientUnits="userSpaceOnUse">
<stop stop-color="rgb(25, 29, 31)" offset="0"/>
<stop stop-color="rgb(5, 5, 8)" offset="1"/>
</linearGradient>
</defs>
</svg>
