<?xml version="1.0" encoding="UTF-8"?>
<!-- generated by Finnhub -->
<svg viewBox="0 0 55.5 55.5" xmlns="http://www.w3.org/2000/svg">
<path d="M 0,0 H 55.5 V 55.5 H 0 Z" fill="rgb(154, 101, 31)"/>
<path d="M 32.99,11.985 H 23 V 18.544 A 7,7 0 0,0 24.534,22.917 L 25.466,24.083 A 7,7 0 0,1 27,28.456 V 41 A 1,1 0 0,1 26,42 H 23.609 A 1,1 0 1,0 23.609,44 H 32.391 A 1,1 0 1,0 32.391,42 H 30 A 1,1 0 0,1 29,41 V 28.456 A 7,7 0 0,1 30.534,24.083 L 31.466,22.917 A 7,7 0 0,0 33,18.544 V 12 Z" fill="rgb(254, 254, 253)"/>
<path d="M 18.991999999999997,11.985 V 18.842 A 7,7 0 0,1 17.65,22.977 L 16.782,24.163 C 16.154,25.02 16,26.055 16,27.117 V 43.996 H 14 V 27.117 C 14,25.63 14.29,24.182 15.168,22.982 L 16.037,21.795 A 5,5 0 0,0 17.002,18.842 V 12 H 19.002 Z M 36.996,12 V 18.842 A 7,7 0 0,0 38.347,22.977 L 39.217,24.163 C 39.843,25.02 40,26.055 40,27.117 V 43.996 H 42 V 27.117 C 42,25.63 41.708,24.182 40.83,22.982 L 39.961,21.795 A 5,5 0 0,1 38.996,18.842 V 12 H 36.996 Z" fill="rgb(254, 254, 253)"/>
</svg>
