<?xml version="1.0" encoding="UTF-8"?>
<!-- generated by Finnhub -->
<svg viewBox="0 0 55.5 55.5" xmlns="http://www.w3.org/2000/svg">
<path d="M 0,0 H 55.5 V 55.5 H 0 Z" fill="rgb(229, 83, 2)"/>
<path d="M 29.526,17.851 C 31.639,17.866 33.814,19.572 33.814,22.179 C 33.814,25.394 31.306,25.613 30.484,28.065 C 29.685,30.437 31.745,32.672 31.745,35.309 C 31.745,38.677 29.015,41 26.191,41 C 23.185,41 20.601,38.63 20.601,35.32 C 20.601,30.22 25.539,30.079 26.052,27.088 C 26.451,24.762 25.359,24.121 25.359,22.151 C 25.359,19.634 27.557,17.866 29.536,17.866 Z M 39.668,17.334 C 38.001,21.21 34.785,29.738 33.52,33.84 C 32.662,36.622 34.178,40.093 36.987,40.821 C 40.501,41.73 42.897,38.956 43.505,36.771 C 44.101,34.628 46.318,24.465 46.955,19.601 C 47.245,17.388 46.103,15.693 44.202,15.152 C 42.279,14.605 40.423,15.58 39.668,17.334 Z M 9,35.514 C 9,38.387 11.277,40.717 14.087,40.717 C 16.895,40.717 19.172,38.387 19.172,35.515 C 19.172,32.642 16.895,30.312 14.087,30.312 C 11.277,30.312 9,32.642 9,35.515 Z M 14.092,25.477 C 14.092,27.469 15.672,29.085 17.62,29.085 C 19.567,29.085 21.148,27.469 21.148,25.478 C 21.148,23.486 19.568,21.872 17.621,21.872 C 15.671,21.872 14.091,23.486 14.091,25.477 Z" fill="rgb(254, 254, 253)"/>
</svg>
