<?xml version="1.0" encoding="UTF-8"?>
<!-- generated by Finnhub -->
<svg viewBox="0 0 55.5 55.5" xmlns="http://www.w3.org/2000/svg">
<path d="M 0,0 H 55.5 V 55.5 H 0 Z" fill="rgb(34, 24, 218)"/>
<path d="M 18.241999999999997,27.293 C 21.567,26.608 21.116,22.709 21.017,21.857 C 20.854,20.543 19.283,18.247 17.15,18.429 C 14.467,18.665 14.074,22.479 14.074,22.479 C 13.71,24.243 14.944,28.009 18.252,27.309 Z M 24.407,20.771 C 26.238,20.771 27.719,18.698 27.719,16.134 C 27.719,13.573 26.239,11.5 24.407,11.5 C 22.578,11.5 21.094,13.573 21.094,16.134 C 21.094,18.698 22.578,20.771 24.407,20.771 Z M 32.295,21.077 C 34.744,21.39 36.318,18.82 36.631,16.872 C 36.951,14.928 35.371,12.668 33.637,12.28 C 31.9,11.888 29.732,14.624 29.534,16.408 C 29.298,18.589 29.852,20.768 32.295,21.077 Z M 42,24.347 C 42,23.417 41.213,20.61 38.295,20.61 C 35.37,20.61 34.98,23.258 34.98,25.13 C 34.98,26.917 35.133,29.41 38.765,29.332 C 42.398,29.253 42,25.285 42,24.347 Z" fill="rgb(254, 254, 253)"/>
<path d="M 38.272,33.011 S 34.494,30.144 32.282,27.029 C 29.285,22.435 25.027,24.305 23.603,26.64 C 22.539,28.393 21.029,29.663 20.209,30.353 C 19.936,30.583 19.739,30.748 19.661,30.845 C 19.613,30.903 19.475,31.005 19.278,31.148 C 18.176,31.956 15.228,34.114 16.031,37.62 C 16.975,41.746 20.295,41.666 20.295,41.666 C 22.065,41.786 23.845,41.655 25.579,41.278 A 11.328,11.328 0 0,1 30.862,41.433 S 37.492,43.617 39.306,39.412 C 41.119,35.208 38.282,33.026 38.282,33.026 Z M 25,30 H 27 V 39 H 23 A 3,3 0 0,1 20,36 V 35 A 3,3 0 0,1 23,32 H 25 V 30 Z M 30,32 H 28 V 36 A 3,3 0 0,0 31,39 H 35 V 32 H 33 V 37 H 31.5 A 1.5,1.5 0 0,1 30,35.5 V 32 Z M 23.2,34 A 1.2,1.2 0 0,0 22,35.2 V 35.8 A 1.2,1.2 0 0,0 23.2,37 H 25 V 34 H 23.2 Z" fill="rgb(254, 254, 253)" fill-rule="evenodd"/>
</svg>
