<?xml version="1.0" encoding="UTF-8"?>
<!-- generated by Finnhub -->
<svg viewBox="0 0 55.5 55.5" xmlns="http://www.w3.org/2000/svg">
<path d="M 0,0 H 55.5 V 55.5 H 0 Z" fill="url(#e)"/>
<mask id="a" x="13" y="13" width="30" height="30" maskUnits="userSpaceOnUse">
<ellipse cx="28.15" cy="28" rx="14.85" ry="15" fill="rgb(195, 195, 194)"/>
</mask>
<g mask="url(#a)">
<path d="M 30.505,31.555 C 30.171,31.925 29.827,32.16 29.827,32.16 C 25.24,35.586 18.25,38.354 18.25,38.354 L 17.333,38.591 C 19.971,41.307 24.136,44.667 28.15,44.667 C 31.59,44.667 35.527,43.459 38.05,41.333 C 38.279,41.097 38.898,38.591 39.242,38.354 C 39.356,38.236 39.471,38.118 39.7,38 C 39.93,37.764 40.044,37.528 40.274,37.41 C 40.388,37.173 40.618,37.055 40.733,36.819 C 40.847,36.7 40.847,36.583 40.962,36.465 C 38.324,37.173 34.07,34.759 30.515,31.57 Z" fill="url(#d)"/>
<path d="M 41.958000000000006,22.145 C 41.968,22.042 41.853,21.924 41.853,21.805 C 41.623,21.334 41.394,20.742 41.165,20.27 C 41.165,20.27 41.165,20.152 41.05,20.152 C 37.414,23.577 36.4,24.667 32.334,26.819 C 32.564,27.646 31.679,28.473 31.45,29.418 C 31.106,30.598 31.073,31.898 30.385,32.488 C 33.94,35.678 39.49,37.278 42.127,36.333 C 42.242,36.215 42.242,36.097 42.357,35.979 C 42.471,35.861 42.471,35.743 42.586,35.624 C 42.7,35.388 42.93,35.152 43.044,34.916 C 43.159,34.798 43.274,34.562 43.274,34.444 L 43.618,33.734 C 43.732,33.498 43.848,33.262 43.848,33.144 C 43.962,32.908 43.962,32.79 44.076,32.554 C 44.118,32.467 44.153,32.384 44.182,32.306 C 45.225,29.403 42.675,25.074 41.968,22.16 Z" fill="url(#c)"/>
<path d="M 23.189999999999998,12.985 C 23.773,13.945 25.912,15.244 25.912,15.244 S 29.926,19.968 31.875,25.52 V 25.638 C 31.99,25.874 32.105,26.346 32.219,27.055 C 36.348,25.401 40.202,22.147 41.349,19.667 C 41.348,15.867 34.879,13.49 29.799,13 C 27.53,12.78 24.537,12.625 23.199,13 Z" fill="url(#b)"/>
<path d="M 24.25,13.104999999999999 C 22.99,13.12 18.75,14.777 17.748,15.52 C 14.09,18.23 13.986,22.6 13.986,28 C 13.986,29.127 16.628,34.739 14.231,35.95 C 14.285,36.033 15.191,37.992 15.253,38.057 C 16.723,39.572 16.316,37.454 17.026,38.921 C 17.714,38.684 19.146,38.275 19.146,38.275 C 23.225,37.122 30.836,34.408 32.22,29.653 C 34.493,24.193 27.94,16.91 24.26,13.12 Z" fill="rgb(66, 104, 137)"/>
</g>
<path d="M 19.136999999999997,13.575 S 12.495,16.661 10.546,23.512 C 8.596,30.362 12.496,36.622 12.496,36.622 S 18.344,34.968 22.931,31.425 C 22.931,31.425 24.995,29.89 25.569,28.118 C 26.142,26.228 25.109,23.866 25.109,23.866 C 23.16,18.316 19.147,13.59 19.147,13.59 Z" fill="rgb(189, 213, 232)"/>
<defs>
<linearGradient id="e" x1="10.418" x2="68.147" y1="9.712" y2="76.017" gradientUnits="userSpaceOnUse">
<stop stop-color="rgb(25, 29, 31)" offset="0"/>
<stop stop-color="rgb(5, 5, 8)" offset="1"/>
</linearGradient>
<linearGradient id="d" x1="35.139" x2="22.84" y1="42.992" y2="32.972" gradientUnits="userSpaceOnUse">
<stop stop-color="rgb(195, 201, 126)" offset="0"/>
<stop stop-color="rgb(218, 223, 138)" offset=".505"/>
</linearGradient>
<linearGradient id="c" x1="43.233" x2="33.704" y1="33.002" y2="25.24" gradientUnits="userSpaceOnUse">
<stop stop-color="rgb(158, 187, 108)" offset="0"/>
<stop stop-color="rgb(174, 205, 119)" offset=".403"/>
</linearGradient>
<linearGradient id="b" x1="38.181" x2="24.661" y1="24.459" y2="13.443" gradientUnits="userSpaceOnUse">
<stop stop-color="rgb(157, 194, 127)" offset="0"/>
<stop stop-color="rgb(131, 176, 105)" offset=".161"/>
<stop stop-color="rgb(112, 163, 88)" offset=".321"/>
<stop stop-color="rgb(105, 158, 82)" offset=".432"/>
</linearGradient>
</defs>
</svg>
