<?xml version="1.0" encoding="UTF-8"?>
<!-- generated by Finnhub -->
<svg viewBox="0 0 55.5 55.5" xmlns="http://www.w3.org/2000/svg">
<path d="M 0,0 H 55.5 V 55.5 H 0 Z" fill="rgb(239, 109, 2)"/>
<path d="M 26.99,19.985 V 12.27 L 35.54,18.47 C 37.32,19.77 38.53,21.27 39,23.4 C 37.08,21.15 34.5,20.03 32.75,20 H 27 Z" fill="rgb(247, 183, 122)"/>
<path d="M 32.99,36.485 C 32.93,37.5 31.7,38 30.7,38 H 25 V 28 H 30.7 C 31.7,28 32.93,28.66 33,29.66 V 36.5 Z M 25,22 V 12 H 19 V 44 H 32.24 C 34.02,44 35.76,43.3 37.03,42.04 A 6.65,6.65 0 0,0 39,37.3 V 28.97 C 39,25.29 35.99,22.01 32.24,22.01 H 25 Z" fill="rgb(254, 254, 253)"/>
</svg>
