<?xml version="1.0" encoding="UTF-8"?>
<!-- generated by Finnhub -->
<svg viewBox="0 0 55.5 55.5" xmlns="http://www.w3.org/2000/svg">
<path d="M 0,0 H 55.5 V 55.5 H 0 Z" fill="rgb(3, 149, 61)"/>
<path d="M 23.148999999999997,26.602999999999998 C 23.8,27.314 23.373,28.763 22.945,29.575 C 22.465,30.387 21.93,30.561 21.717,30.619 C 20.969,30.792 20.541,30.503 20.327,30.097 C 19.953,29.517 20.221,27.661 20.969,26.85 C 21.449,26.154 22.571,25.98 23.159,26.618 Z M 12.804,26 C 14.034,26 13.489,27.662 12.848,27.662 H 10.978 L 11.255,26 H 12.805 Z M 12.42,30.56 C 13.703,30.677 13.917,28.942 12.26,29 H 10.711 L 10.391,30.56 H 12.421 Z M 32.456,28 C 33.31,27.942 33.578,26.328 32.349,26.27 H 30.959 L 30.64,28 H 32.457 Z M 43.912,31 C 46.797,30.942 46.987,26 45.011,26 H 43.835 L 42.844,31 H 43.912 Z M 36.918,30 L 38.438,26.85 L 38.92,30 H 36.918 Z" fill="rgb(254, 254, 253)"/>
<path d="M 51.732,30.719 C 52.276,28.821 52.704,22.058 45.171,22 H 10.444 C 4.3,22.29 3.392,27.893 4.3,30.619 C 4.834,33.112 7.239,34.884 10.765,35 H 44.69 C 48.857,35.058 50.94,33.17 51.742,30.734 Z M 24.388,30.56 C 23.319,32.01 21.343,32.3 19.847,31.952 C 18.885,31.604 18.404,30.908 18.19,30.039 C 17.977,28.357 18.564,26.792 19.633,25.632 C 20.595,24.646 22.037,24.415 23.373,24.704 C 25.903,25.62 25.913,28.63 24.388,30.561 Z M 13.917,31.662 C 13.382,31.894 13.008,32 12.1,32 H 8.36 L 9.696,25 H 13.65 C 15.199,25 15.626,26.27 15.092,27.314 C 14.825,27.835 14.451,28.125 14.077,28.241 C 15.68,28.879 15.252,30.966 13.917,31.662 Z M 15.252,32 H 17.069 L 18.458,25 H 16.642 L 15.252,32 Z M 32.936,25 C 36.142,24.942 35.286,28.241 33.47,28.763 C 34.257,29.019 34.407,29.967 34.41,30.935 L 37.743,25 H 39.773 C 39.858,25 40.74,29.302 41.109,31.146 L 42.34,25 H 45.705 C 47.361,25.116 47.949,26.096 48.163,27.082 C 48.43,28.705 48.163,31.942 44.476,32 H 39.454 S 39.187,31.058 39.187,31 H 36.248 L 35.554,32 H 32.594 L 32.686,31.527 C 32.897,30.701 33.016,28.953 31.814,29 H 30.372 S 29.998,31.072 29.837,32 H 28 L 28.555,29 H 26.632 L 26.899,28 H 28.769 L 29.357,25 H 32.936 Z" fill="rgb(254, 254, 253)" fill-rule="evenodd"/>
</svg>
