<?xml version="1.0" encoding="UTF-8"?>
<!-- generated by Finnhub -->
<svg viewBox="0 0 55.5 55.5" xmlns="http://www.w3.org/2000/svg">
<path d="M 0,0 H 55.5 V 55.5 H 0 Z" fill="url(#a)"/>
<path d="M 50.870000000000005,28.115 C 51.41,29.09 52,30.18 52,31.38 C 52,33.13 51.14,34.17 50.17,34.69 A 3.5,3.5 0 0,1 49.17,35 H 49.08 A 0.62,0.62 0 0,1 48.48,34.53 A 0.54,0.54 0 0,1 48.47,34.29 A 0.62,0.62 0 0,1 48.99,33.79 C 49.41,33.72 50.76,33.38 50.76,31.42 A 4.6,4.6 0 0,0 50.14,29.41 L 49.85,28.87 L 49.79,28.74 L 49.37,27.95 L 49.32,27.84 L 49.26,27.72 L 49.01,28.38 C 48.68,29.19 48.28,30.28 48.26,30.34 A 2.57,2.57 0 0,1 45.82,32 C 45.12,32 44.46,31.71 44.05,31.13 L 43.97,30.99 A 3.99,3.99 0 0,1 41.42,31.99 A 3,3 0 0,1 39.26,31.15 A 2.86,2.86 0 0,1 37.28,32 C 36.73,32 36.22,31.82 35.85,31.5 C 35.72,31.39 35.61,31.27 35.51,31.13 A 1.94,1.94 0 0,1 35.21,30.41 C 35.13,30 35.19,29.54 35.38,29.07 L 35.6,28.45 L 36.03,27.25 L 35.87,27.19 A 0.6,0.6 0 0,0 35.84,27.17 L 35.8,27.16 C 35.33,26.96 34.84,26.63 34.48,26.19 L 34.44,26.29 A 4.9,4.9 0 0,0 34.37,26.47 L 33.69,28.23 C 33.51,28.73 33.34,29.18 33.19,29.53 L 33.16,29.63 L 32.89,30.33 A 2.57,2.57 0 0,1 30.45,32 C 30,32 29.58,31.87 29.23,31.65 A 1.9,1.9 0 0,1 28.69,31.13 C 28.29,30.56 28.25,29.83 28.55,29.07 L 28.71,28.64 C 28.8,28.37 28.91,28.04 29.04,27.72 L 29.06,27.67 L 29.08,27.61 A 5.37,5.37 0 0,1 27.24,28.18 A 3.71,3.71 0 0,1 26.54,30.17 A 4.17,4.17 0 0,1 23.34,32 C 22.4,32 21.58,31.64 21,30.99 L 20.94,30.91 A 3.08,3.08 0 0,1 20.88,30.83 L 20.8,30.71 A 1.09,1.09 0 0,0 20.77,30.66 L 20.74,30.61 C 20.35,31.32 19.74,31.79 18.98,31.94 A 2.3,2.3 0 0,1 17.44,31.78 C 17.18,31.65 16.95,31.47 16.77,31.25 C 16.25,31.78 15.55,32 14.82,32 C 14.22,32 13.64,31.73 13.27,31.25 C 12.8,31.75 12.12,32 11.44,32 A 2.2,2.2 0 0,1 10,31.5 L 9.98,31.48 A 1.79,1.79 0 0,1 9.59,31.01 C 8.89,31.61 7.99,32 7.05,32 A 3.18,3.18 0 0,1 4.72,30.98 A 3.22,3.22 0 0,1 4.04,28.41 C 4.1,28.01 4.24,27.63 4.42,27.28 C 5.1,26.02 6.27,25 7.91,25 A 3.16,3.16 0 0,1 10.37,26.2 L 10.49,26.4 L 10.7,25.86 L 10.83,25.52 A 0.4,0.4 0 0,1 10.95,25.35 C 11.05,25.27 11.18,25.21 11.3,25.21 H 11.94 C 12.14,25.21 12.23,25.35 12.16,25.53 L 10.84,29.08 V 29.1 C 10.8,29.17 10.6,29.67 10.57,29.85 C 10.51,30.2 10.63,30.48 10.88,30.65 C 11.03,30.72 11.21,30.77 11.41,30.77 C 12.16,30.77 12.51,30.3 12.68,29.89 L 14.53,25.26 L 15.71,22.31 C 15.8,22.15 16.01,22.01 16.18,22.01 H 16.83 C 17.03,22.01 17.1,22.17 17.05,22.32 L 15.78,25.47 L 14.38,28.96 L 14.34,29.09 C 14.26,29.31 14.11,29.72 14.08,29.86 C 14.04,30.1 14.08,30.3 14.18,30.46 L 14.29,30.56 C 14.44,30.7 14.66,30.78 14.93,30.78 C 15.21,30.78 15.44,30.7 15.63,30.59 C 15.85,30.46 16,30.27 16.11,30.07 L 16.2,29.89 L 16.33,29.56 C 16.67,28.66 17.59,26.25 18.41,24.16 L 19.46,21.5 L 19.93,20.32 A 0.54,0.54 0 0,1 20.4,20 H 21.04 C 21.24,20 21.33,20.14 21.26,20.32 L 20.69,21.77 A 2295.52,2295.52 0 0,1 18.52,27.25 C 18.12,28.25 17.85,29.07 17.85,29.07 L 17.7,29.47 C 17.64,29.61 17.6,29.75 17.58,29.84 A 0.81,0.81 0 0,0 17.63,30.33 L 17.69,30.43 C 17.8,30.61 18,30.71 18.24,30.75 L 18.43,30.76 C 19.17,30.76 19.53,30.28 19.69,29.88 L 19.81,29.58 L 20.03,29.02 L 20.8,27.04 C 21.39,25.51 22.09,23.69 22.64,22.31 C 22.7,22.13 22.92,22 23.11,22 H 23.75 C 23.95,22 24.05,22.14 23.97,22.31 C 23.69,23.05 23.4,23.77 23.04,24.67 L 22.74,25.44 C 23.2,25.25 23.68,25.14 24.18,25.14 A 3.04,3.04 0 0,1 26.73,26.44 V 26.46 H 26.74 C 26.86,26.63 26.94,26.8 27.01,26.98 C 27.5,26.93 28.01,26.78 28.47,26.55 C 28.88,26.35 29.32,25.82 29.64,25.43 L 29.78,25.26 C 29.87,25.16 30.04,25.06 30.18,25.01 L 30.38,25 H 31.03 C 31.23,25 31.33,25.13 31.25,25.3 L 30.87,26.33 C 30.71,26.78 30.54,27.26 30.39,27.63 C 30.19,28.13 30.01,28.63 29.87,29.03 L 29.67,29.53 C 29.61,29.7 29.58,29.85 29.57,30 C 29.57,30.18 29.61,30.34 29.69,30.46 C 29.83,30.66 30.09,30.78 30.42,30.78 C 31.18,30.78 31.53,30.3 31.7,29.9 L 31.72,29.84 L 32.12,28.77 L 33.26,25.84 L 33.69,24.77 L 33.74,24.64 A 0.54,0.54 0 0,1 34.21,24.32 H 34.84 A 0.3,0.3 0 0,1 34.95,24.34 H 34.98 L 34.99,24.36 H 35.02 C 35.08,24.41 35.12,24.48 35.13,24.61 V 24.71 C 35.13,25.52 36.07,25.95 36.26,26.03 H 36.27 A 3.15,3.15 0 0,0 36.76,26.21 C 36.9,26.26 37.04,26.33 37.16,26.44 C 37.21,26.51 37.26,26.57 37.3,26.66 A 0.8,0.8 0 0,1 37.3,27.33 L 37.28,27.37 L 36.96,28.22 C 36.8,28.62 36.64,29.11 36.56,29.36 L 36.5,29.51 C 36.36,29.88 36.36,30.21 36.52,30.43 C 36.6,30.55 36.72,30.63 36.87,30.69 C 36.99,30.73 37.12,30.76 37.26,30.76 H 37.36 A 1.59,1.59 0 0,0 38.54,30.06 A 3.09,3.09 0 0,1 38.36,28.92 L 38.4,28.42 C 38.42,28.26 38.46,28.12 38.5,27.98 L 38.53,27.88 A 2.73,2.73 0 0,1 38.58,27.73 A 4.05,4.05 0 0,1 39.65,26.18 L 39.68,26.15 A 0.37,0.37 0 0,0 39.71,26.12 A 3.9,3.9 0 0,1 42.27,25.12 A 3.12,3.12 0 0,1 44.6,26.13 C 44.7,26.26 44.8,26.38 44.88,26.52 L 45.9,24.06 L 46.62,22.32 A 0.56,0.56 0 0,1 47.09,22 H 47.73 C 47.93,22 48.03,22.14 47.95,22.32 L 46.48,25.99 L 45.17,29.25 A 3.59,3.59 0 0,0 44.99,29.79 V 29.82 A 0.83,0.83 0 0,0 45.02,30.3 L 45.09,30.42 C 45.24,30.62 45.49,30.74 45.82,30.74 C 46.57,30.74 46.92,30.26 47.09,29.86 L 48.49,26.19 C 49.19,24.5 49.99,24.29 50.63,24.29 A 1.45,1.45 0 0,1 51.26,24.45 C 51.29,24.48 51.32,24.5 51.33,24.53 C 51.35,24.57 51.34,24.61 51.33,24.67 L 51.1,25.24 V 25.25 A 0.1,0.1 0 0,1 51.05,25.31 A 0.28,0.28 0 0,1 50.99,25.34 H 50.97 H 50.95 C 50.5,25.37 50.21,25.6 50.13,26 C 50.03,26.56 50.43,27.3 50.88,28.13 Z M 42.72,30.4 A 2.91,2.91 0 0,0 44.06,28.09 A 1.82,1.82 0 0,0 43.66,26.93 A 1.7,1.7 0 0,0 42.34,26.34 C 41.84,26.34 41.37,26.51 40.96,26.79 C 40.62,27.03 40.33,27.34 40.13,27.71 A 3.02,3.02 0 0,0 39.81,29.3 C 39.86,29.63 39.98,29.92 40.18,30.16 C 40.38,30.4 40.65,30.56 40.96,30.66 C 41.13,30.72 41.32,30.74 41.51,30.74 C 41.92,30.74 42.33,30.63 42.68,30.42 H 42.69 S 42.71,30.42 42.72,30.4 Z M 21.92,30.17 C 22.14,30.44 22.42,30.61 22.77,30.7 C 22.92,30.74 23.07,30.76 23.25,30.76 C 24.45,30.76 25.59,29.63 25.78,28.4 C 25.86,27.83 25.73,27.3 25.4,26.92 A 1.59,1.59 0 0,0 24.82,26.49 A 1.9,1.9 0 0,0 24.08,26.34 C 23.48,26.34 22.91,26.58 22.45,26.97 C 22.24,27.17 22.05,27.39 21.9,27.64 L 21.89,27.66 L 21.88,27.67 L 21.85,27.72 A 0.77,0.77 0 0,1 21.81,27.8 L 21.79,27.83 A 8.94,8.94 0 0,0 21.64,28.21 C 21.61,28.31 21.57,28.43 21.55,28.58 C 21.47,29.15 21.6,29.78 21.92,30.18 Z M 5.78,30.18 C 6.1,30.55 6.58,30.76 7.12,30.76 C 8.24,30.76 9.3,29.78 9.6,28.68 L 9.66,28.4 A 2.03,2.03 0 0,0 9.29,26.83 A 1.71,1.71 0 0,0 7.96,26.24 C 6.6,26.21 5.6,27.34 5.41,28.58 A 2.17,2.17 0 0,0 5.78,30.18 Z M 31.28,24.18 C 31.25,24.2 31.21,24.2 31.18,24.2 A 0.76,0.76 0 0,1 30.59,23.92 A 0.8,0.8 0 0,1 30.43,23.3 C 30.5,22.83 30.91,22.46 31.36,22.4 H 31.46 A 0.4,0.4 0 0,1 31.5,22.4 H 31.54 C 31.99,22.46 32.28,22.84 32.21,23.3 C 32.14,23.76 31.73,24.14 31.27,24.19 Z" fill="rgb(254, 254, 253)"/>
<defs>
<linearGradient id="a" x1="10.42" x2="68.15" y1="9.71" y2="76.02" gradientUnits="userSpaceOnUse">
<stop stop-color="rgb(25, 29, 31)" offset="0"/>
<stop stop-color="rgb(5, 5, 8)" offset="1"/>
</linearGradient>
</defs>
</svg>
