<?xml version="1.0" encoding="UTF-8"?>
<!-- generated by Finnhub -->
<svg viewBox="0 0 55.5 55.5" xmlns="http://www.w3.org/2000/svg">
<path d="M 0,0 H 55.5 V 55.5 H 0 Z" fill="url(#a)"/>
<path d="M 7.99,15.985 H 17.81 C 23.181,16 26.911,18.163 26.911,22.287 A 5.469,5.469 0 0,1 26.097,25.191 A 6.197,6.197 0 0,1 23.815,27.358 C 25.077,27.718 26.172,28.448 26.928,29.433 A 5.063,5.063 0 0,1 27.993,32.8 C 27.993,38.073 23.143,40 17.866,40 H 8 V 16 Z M 17.884,25.346 C 18.207,25.363 18.53,25.316 18.831,25.207 C 19.132,25.099 19.403,24.934 19.627,24.722 C 19.85,24.51 20.02,24.256 20.125,23.979 A 1.85,1.85 0 0,0 20.235,23.116 A 1.797,1.797 0 0,0 20.076,22.27 A 1.97,1.97 0 0,0 19.536,21.567 A 2.227,2.227 0 0,0 18.716,21.14 A 2.378,2.378 0 0,0 17.772,21.07 H 14.667 V 25.346 H 17.884 Z M 18.444,35.082 C 18.824,35.114 19.207,35.072 19.567,34.957 S 20.254,34.657 20.527,34.417 C 20.801,34.175 21.013,33.883 21.149,33.56 A 2.18,2.18 0 0,0 21.316,32.546 A 2.117,2.117 0 0,0 21.156,31.563 A 2.307,2.307 0 0,0 20.556,30.731 A 2.606,2.606 0 0,0 19.626,30.204 A 2.802,2.802 0 0,0 18.537,30.079 H 14.667 V 35.149 L 18.444,35.082 Z" fill="rgb(254, 254, 253)"/>
<path d="M 30.99,24.985 V 16 H 34 V 25 H 45 V 16 H 48 V 40 H 45 V 28 H 34 V 40 H 31 V 25 Z" fill="rgb(1, 173, 237)"/>
<defs>
<linearGradient id="a" x1="10.418" x2="68.147" y1="9.712" y2="76.017" gradientUnits="userSpaceOnUse">
<stop stop-color="rgb(25, 29, 31)" offset="0"/>
<stop stop-color="rgb(5, 5, 8)" offset="1"/>
</linearGradient>
</defs>
</svg>
