<?xml version="1.0" encoding="UTF-8"?>
<!-- generated by Finnhub -->
<svg viewBox="0 0 55.5 55.5" xmlns="http://www.w3.org/2000/svg">
<path d="M 0,0 H 55.5 V 55.5 H 0 Z" fill="rgb(1, 60, 45)"/>
<path d="M 15.0,15.961 A 6.706,6.706 0 0,1 23.493,12.35 L 41.893,19.16 C 45.833,20.618 45.803,26.203 41.845,27.617 L 40.972,27.93 L 42.076,28.346 C 45.966,29.812 45.958,35.318 42.063,36.772 L 23.715,43.625 A 6.987,6.987 0 1,1 18.919,30.501 L 26.465,27.804 L 18.8,24.914 A 6.706,6.706 0 0,1 15.01,15.976 Z M 33.741,25.204 L 38.868,23.372 L 21.758,17.039 A 1.707,1.707 0 0,0 20.563,20.236 L 33.741,25.204 Z M 33.695,30.53 L 20.602,35.21 A 1.987,1.987 0 1,0 21.966,38.941 L 39.066,32.554 L 33.696,30.53 Z" fill="rgb(21, 116, 99)"/>
<path d="M 23.482999999999997,12.334999999999999 A 6.706,6.706 0 0,0 16.667,23.616 A 4.605,4.605 0 0,1 23.282,17.603 L 38.868,23.372 L 36.458,24.233 L 36.57,24.289 L 26.312,27.877 L 26.285,27.869 L 18.919,30.501 A 6.987,6.987 0 1,0 23.715,43.625 L 42.063,36.772 C 45.958,35.318 45.966,29.812 42.076,28.346 L 40.972,27.93 L 41.845,27.617 C 45.802,26.203 45.834,20.618 41.893,19.16 L 23.493,12.35 Z M 20.602,35.21 L 33.695,30.53 L 39.065,32.554 L 21.965,38.941 A 1.987,1.987 0 1,1 20.602,35.209 Z" fill="rgb(33, 195, 152)"/>
<path d="M 42.469,27.323999999999998 L 42.469,27.337 L 29.13,32.104 L 29.01,32.204 L 33.695,30.53 L 39.065,32.554 L 23.486,38.374 L 23.459,38.454 L 22.692,38.741 A 4.516,4.516 0 1,1 19.117,30.479 A 6.838,6.838 0 0,0 18.317,30.748 A 6.987,6.987 0 0,0 20.588,44.035 A 7.015,7.015 0 0,0 21.575,44.011 L 21.565,44.043 H 21.865 A 6.993,6.993 0 0,0 23.715,43.625 L 42.063,36.772 C 45.958,35.318 45.966,29.812 42.076,28.346 L 40.972,27.93 L 41.845,27.617 C 42.069,27.537 42.28,27.444 42.479,27.339 Z" fill="rgb(21, 116, 99)"/>
</svg>
