<?xml version="1.0" encoding="UTF-8"?>
<!-- generated by Finnhub -->
<svg viewBox="0 0 55.5 55.5" xmlns="http://www.w3.org/2000/svg">
<path d="M 0,0 H 55.5 V 55.5 H 0 Z" fill="url(#a)"/>
<path d="M 25.99,21.485 C 26,24.74 24.569,26.343 22.497,27.08 C 25.972,27.668 28,29.964 28,33.5 C 28,39.908 21.227,41 17.084,41 H 10 V 15 H 17.418 C 19.623,15 26,15.166 26,21.5 Z M 22,21.5 C 22,18.407 20.14,18 17,18 H 14 V 25.606 H 16.416 L 16.684,25.607 C 18.633,25.617 22,25.507 22,21.5 Z M 14,38 H 16.95 C 21.027,38 24,37.11 24,33.5 C 24,29.817 20.492,29 16.75,29 H 14 V 38 Z M 46,22.5 C 46,26.404 43.456,28.552 40.983,29.584 L 48,41 H 43.255 L 36.5,30 H 34 V 41 H 30 V 15 H 37.107 C 42.52,15 46,17.639 46,22.5 Z M 34,27.006 L 36.5,27 C 40.042,27 42,25.962 42,22.5 C 42,19.26 40.408,18 37,18 H 34 V 27.006 Z" fill="rgb(254, 254, 253)"/>
<defs>
<linearGradient id="a" x1="10.418" x2="68.147" y1="9.712" y2="76.017" gradientUnits="userSpaceOnUse">
<stop stop-color="rgb(25, 29, 31)" offset="0"/>
<stop stop-color="rgb(5, 5, 8)" offset="1"/>
</linearGradient>
</defs>
</svg>
