<?xml version="1.0" encoding="UTF-8"?>
<!-- generated by Finnhub -->
<svg viewBox="0 0 55.5 55.5" xmlns="http://www.w3.org/2000/svg">
<path d="M 0,0 H 55.5 V 55.5 H 0 Z" fill="rgb(254, 190, 35)"/>
<path d="M 11.620000000000001,26.945 A 2,2 0 0,0 11.63,29.04 L 18.92,41.04 A 2,2 0 0,0 20.62,42 H 35.37 A 2,2 0 0,0 37.08,41.04 L 44.37,29.04 A 2,2 0 0,0 44.37,26.96 L 37.08,14.96 A 2,2 0 0,0 35.38,14 H 20.62 A 2,2 0 0,0 18.91,14.96 L 11.62,26.96 Z M 24,20 A 2,2 0 1,0 24,24 H 32 A 2,2 0 1,0 32,20 H 24 Z M 21,26 A 2,2 0 1,0 21,30 H 35 A 2,2 0 1,0 35,26 H 21 Z M 22,34 C 22,32.9 22.9,32 24,32 H 32 A 2,2 0 1,1 32,36 H 24 A 2,2 0 0,1 22,34 Z" fill="rgb(254, 254, 253)" fill-rule="evenodd"/>
</svg>
