<?xml version="1.0" encoding="UTF-8"?>
<!-- generated by Finnhub -->
<svg viewBox="0 0 55.5 55.5" xmlns="http://www.w3.org/2000/svg">
<path d="M 0,0 H 55.5 V 55.5 H 0 Z" fill="rgb(236, 53, 27)"/>
<path d="M 13.99,32.985 H 42 V 42 H 14 Z M 14,21 L 20.305,13.344 A 0.9,0.9 0 0,1 21.695,13.344 L 26.688,19.407 A 1.7,1.7 0 0,0 29.312,19.407 L 34.305,13.344 A 0.9,0.9 0 0,1 35.695,13.344 L 42,21 V 33 L 35.695,25.344 A 0.9,0.9 0 0,0 34.305,25.344 L 29.312,31.407 A 1.7,1.7 0 0,1 26.688,31.407 L 21.695,25.344 A 0.9,0.9 0 0,0 20.305,25.344 L 14,33 V 21 Z" fill="rgb(254, 254, 253)"/>
</svg>
