<?xml version="1.0" encoding="UTF-8"?>
<!-- generated by Finnhub -->
<svg viewBox="0 0 55.5 55.5" xmlns="http://www.w3.org/2000/svg">
<path d="M 0,0 H 55.5 V 55.5 H 0 Z" fill="url(#a)"/>
<path d="M 27.659,25.415 L 21.199,14.528 L 27.669,18.079 V 25.429 Z M 28,17.52 L 21.587,14 H 34.413 L 28,17.52 Z M 34.8,14.528 L 28.332,18.079 V 25.429 L 34.8,14.529 Z M 18.344,15.407 L 11.874,26.309 L 18.344,22.757 V 15.407 Z M 18.676,23.316 L 12.263,26.989 H 25.089 L 18.676,23.316 Z M 25.477,26.31 L 19,22.756 V 15.406 L 25.477,26.308 Z M 21.2,41.472 L 27.669,30.57 V 37.92 L 21.199,41.472 Z M 21.587,42 L 28,38.48 L 34.413,42 H 21.587 Z M 28.331,37.92 L 34.801,41.472 L 28.331,30.57 V 37.92 Z M 30.524,26.303 L 37,15.4 V 22.75 L 30.524,26.302 Z M 30.912,26.982 L 37.325,23.31 L 43.738,26.982 H 30.912 Z M 37.657,22.75 L 44.127,26.303 L 37.657,15.401 V 22.751 Z M 18.346,40.595 L 11.876,29.693 L 18.346,33.245 V 40.595 Z M 18.677,32.686 L 12.264,29.014 H 25.09 L 18.677,32.686 Z M 25.478,29.693 L 19,33.245 V 40.595 L 25.478,29.693 Z M 37,40.581 L 30.525,29.68 L 37,33.232 V 40.582 Z M 37.326,32.673 L 30.913,29 H 43.739 L 37.326,32.673 Z M 44.127,29.68 L 37.657,33.231 V 40.581 L 44.127,29.679 Z" fill="rgb(254, 254, 253)"/>
<defs>
<linearGradient id="a" x1="10.418" x2="68.147" y1="9.712" y2="76.017" gradientUnits="userSpaceOnUse">
<stop stop-color="rgb(25, 29, 31)" offset="0"/>
<stop stop-color="rgb(5, 5, 8)" offset="1"/>
</linearGradient>
</defs>
</svg>
