<?xml version="1.0" encoding="UTF-8"?>
<!-- generated by Finnhub -->
<svg viewBox="0 0 55.5 55.5" xmlns="http://www.w3.org/2000/svg">
<path d="M 0,0 H 55.5 V 55.5 H 0 Z" fill="rgb(1, 164, 225)"/>
<path d="M 18.49,24.985 A 3.5,3.5 0 1,1 18.5,32 A 3.5,3.5 0 0,1 18.5,25 Z M 18.5,26 A 2.43,2.43 0 0,0 16,28.5 A 2.45,2.45 0 0,0 18.5,31 C 19.95,31.03 21,29.96 21,28.5 S 19.94,26 18.5,26 Z M 48.5,25 A 3.5,3.5 0 1,1 48.5,32 A 3.5,3.5 0 0,1 48.5,25 Z M 48.5,26 A 2.43,2.43 0 0,0 46,28.5 A 2.45,2.45 0 0,0 48.5,31 C 49.95,31.03 51,29.96 51,28.5 S 49.94,26 48.5,26 Z M 8.5,25 C 7.7,25 6.57,25.35 6,25.75 V 22 H 5 V 28.5 C 5,30.4 6.58,32 8.5,32 C 10.4,32 12,30.44 12,28.5 C 12,26.59 10.43,25 8.5,25 Z M 8.5,31 C 7.1,30.98 6,29.9 6,28.5 S 7.06,26.01 8.5,26 C 9.94,25.99 11,27.08 11,28.5 S 9.9,31.02 8.5,31 Z M 23,28.07 C 23,26.36 24.21,25 26,25 C 27.73,25 29,26.31 29,28.07 V 32 H 28 V 28.2 C 28,27.24 27.56,26 26,26 C 24.43,26 24,27.2 24,28.2 V 32 H 23 V 28.07 Z M 38,28.07 C 38,26.36 39.21,25 41,25 C 42.73,25 44,26.31 44,28.07 V 32 H 43 V 28.2 C 43,27.24 42.56,26 41,26 C 39.43,26 39,27.2 39,28.2 V 32 H 38 V 28.07 Z M 14,32 H 13 V 25 H 14 V 32 Z M 13.5,24 A 0.5,0.5 0 1,0 13.5,23 A 0.5,0.5 0 0,0 13.5,24 Z" fill="rgb(254, 254, 253)"/>
<path d="M 22.58,34.765 C 22.59,34.1 23.11,33.55 23.83,33.55 C 24.19,33.55 24.43,33.63 24.63,33.78 A 0.26,0.26 0 0,1 24.49,34.24 A 0.27,0.27 0 0,1 24.33,34.19 A 0.83,0.83 0 0,0 23.81,34.03 C 23.43,34.03 23.13,34.36 23.13,34.77 C 23.13,35.21 23.43,35.53 23.85,35.53 A 0.84,0.84 0 0,0 24.35,35.39 V 35.05 H 23.99 A 0.23,0.23 0 0,1 23.76,34.83 C 23.76,34.71 23.86,34.6 23.99,34.6 H 24.59 C 24.73,34.6 24.85,34.71 24.85,34.86 V 35.43 C 24.85,35.59 24.79,35.69 24.66,35.76 A 1.55,1.55 0 0,1 23.84,36 C 23.09,36 22.59,35.48 22.59,34.78 Z M 26.83,35.74 V 33.9 C 26.83,33.75 26.94,33.64 27.09,33.64 H 28.4 C 28.53,33.64 28.64,33.74 28.64,33.88 A 0.23,0.23 0 0,1 28.4,34.11 H 27.34 V 34.58 H 28.24 C 28.37,34.58 28.48,34.69 28.48,34.82 A 0.23,0.23 0 0,1 28.25,35.05 H 27.35 V 35.55 H 28.41 C 28.54,35.55 28.65,35.65 28.65,35.78 A 0.23,0.23 0 0,1 28.41,36.01 H 27.08 A 0.25,0.25 0 0,1 26.83,35.75 Z M 30.57,33.86 C 30.57,33.71 30.68,33.6 30.83,33.6 H 30.88 C 31.01,33.6 31.08,33.66 31.15,33.75 L 32.15,35.07 V 33.85 A 0.26,0.26 0 1,1 32.67,33.85 V 35.73 A 0.26,0.26 0 0,1 32.4,35.99 H 32.39 C 32.26,35.99 32.19,35.93 32.11,35.84 L 31.07,34.47 V 35.75 A 0.26,0.26 0 1,1 30.57,35.75 V 33.86 Z M 34.57,34.78 C 34.57,34.1 35.11,33.55 35.84,33.55 C 36.58,33.55 37.1,34.1 37.1,34.77 C 37.1,35.45 36.57,36 35.84,36 C 35.1,36 34.58,35.45 34.58,34.78 Z M 36.55,34.78 C 36.55,34.38 36.25,34.03 35.83,34.03 S 35.12,34.36 35.12,34.77 C 35.12,35.17 35.42,35.52 35.84,35.52 S 36.55,35.19 36.55,34.78 Z M 39.02,33.86 C 39.02,33.71 39.14,33.6 39.28,33.6 H 39.34 C 39.46,33.6 39.54,33.66 39.58,33.73 L 40.21,34.76 L 40.85,33.73 A 0.26,0.26 0 0,1 41.08,33.59 H 41.14 C 41.29,33.59 41.4,33.71 41.4,33.85 V 35.74 A 0.26,0.26 0 1,1 40.89,35.74 V 34.56 L 40.43,35.26 C 40.37,35.35 40.31,35.4 40.21,35.4 S 40.05,35.35 40,35.27 L 39.55,34.57 V 35.75 A 0.26,0.26 0 1,1 39.04,35.75 V 33.86 H 39.02 Z M 43.47,33.86 C 43.47,33.71 43.59,33.59 43.74,33.59 C 43.89,33.59 44,33.71 44,33.85 V 35.74 A 0.26,0.26 0 0,1 43.74,36 A 0.26,0.26 0 0,1 43.47,35.74 V 33.85 Z M 45.91,34.77 C 45.91,34.09 46.41,33.54 47.15,33.54 C 47.5,33.54 47.74,33.64 47.95,33.79 C 47.99,33.82 48.05,33.9 48.05,33.99 A 0.26,0.26 0 0,1 47.63,34.19 A 0.79,0.79 0 0,0 47.15,34.03 C 46.75,34.03 46.46,34.36 46.46,34.77 C 46.46,35.17 46.74,35.52 47.15,35.52 A 0.74,0.74 0 0,0 47.65,35.33 A 0.25,0.25 0 0,1 47.81,35.27 C 47.95,35.27 48.06,35.38 48.06,35.51 C 48.06,35.6 48.02,35.66 47.96,35.71 C 47.76,35.89 47.5,36 47.13,36 A 1.2,1.2 0 0,1 45.91,34.77 Z M 50.01,35.72 A 0.24,0.24 0 0,1 50.15,35.28 C 50.22,35.28 50.26,35.31 50.3,35.33 A 1,1 0 0,0 50.9,35.54 C 51.12,35.54 51.25,35.46 51.25,35.32 S 51.17,35.12 50.77,35.02 C 50.29,34.89 49.98,34.75 49.98,34.28 C 49.98,33.85 50.32,33.56 50.81,33.56 C 51.1,33.56 51.35,33.64 51.56,33.77 C 51.62,33.81 51.68,33.88 51.68,33.98 A 0.24,0.24 0 0,1 51.44,34.22 A 0.23,0.23 0 0,1 51.3,34.18 A 1,1 0 0,0 50.8,34.02 C 50.6,34.02 50.5,34.12 50.5,34.23 C 50.5,34.39 50.6,34.45 51.01,34.55 C 51.49,34.67 51.76,34.85 51.76,35.26 C 51.76,35.74 51.41,36 50.9,36 C 50.59,36 50.27,35.9 50,35.72 Z" fill="rgb(72, 75, 77)"/>
<path d="M 36.99,28.485 A 3.56,3.56 0 0,0 33.5,25 A 3.5,3.5 0 1,0 33.5,32 C 34.5,32 35.6,31.59 36,31.18 V 32 H 37 V 28.5 Z M 33.5,31 A 2.49,2.49 0 0,1 31,28.5 C 31,27.1 32.08,26.01 33.5,26 S 36,27 36,28.5 S 34.9,31.03 33.5,31 Z" fill="rgb(254, 254, 253)"/>
</svg>
