<?xml version="1.0" encoding="UTF-8"?>
<!-- generated by Finnhub -->
<svg viewBox="0 0 55.5 55.5" xmlns="http://www.w3.org/2000/svg">
<path d="M 0,0 H 55.5 V 55.5 H 0 Z" fill="rgb(237, 49, 34)"/>
<path d="M 37.582,27.997 C 37.702,33.484 32.758,38 28.625,38 H 18.409 L 12,44 H 28.514 C 33.786,44 38.844,39.257 38.844,33.595 C 38.844,31.932 38.642,29.766 37.592,28.124 V 28.012 Z M 35.839,32 C 36.476,30.861 36.789,30.217 36.866,29 H 32.231 C 32.231,30.129 32.043,30.75 31.619,32 H 35.839 Z M 31.317,33 C 30.791,34.339 29.541,36.05 28.325,37 C 30.68,37 33.371,36.002 35.338,33 H 31.317 Z M 30.791,32 C 31.205,30.861 31.394,30.217 31.506,29 H 24.494 C 24.606,30.217 24.795,30.861 25.208,32 H 30.791 Z M 24.406,32 C 23.993,30.75 23.769,30.13 23.769,29 H 19.135 C 19.246,30.217 19.548,30.861 20.161,32 H 24.406 Z M 28,36.5 C 28.915,35.673 29.954,34.139 30.479,33 H 25.52 C 26.046,34.139 27.061,35.673 27.999,36.5 Z M 20.575,33 C 22.629,36.002 25.32,37 27.71,37 C 26.458,36.049 25.131,34.339 24.705,33 H 20.575 Z M 31.619,24 C 32.043,25.105 32.231,26.75 32.231,28 H 36.866 C 36.789,26.75 36.476,25.105 35.839,24 H 31.619 Z M 35.338,23 C 33.371,20.12 30.68,19.247 28.325,19.247 C 29.541,20.163 30.791,21.639 31.317,23 H 35.337 Z M 25.208,24 C 24.795,25.105 24.606,26.75 24.494,28 H 31.506 C 31.394,26.75 31.204,25.105 30.791,24 H 25.208 Z M 20.162,24 C 19.549,25.105 19.247,26.75 19.136,28 H 23.769 C 23.769,26.75 23.993,25.105 24.407,24 H 20.162 Z M 28.012,20.05 C 27.074,20.877 26.047,21.861 25.522,23 H 30.48 C 29.954,21.861 28.927,20.877 28.012,20.05 Z M 24.706,23 C 25.132,21.638 26.459,20.162 27.711,19.247 C 25.321,19.247 22.629,20.119 20.576,23 H 24.706 Z M 18.409,27.9 C 17.383,26.27 17,24.164 17,22.5 C 17,16.838 22.217,12 27.485,12 H 44.002 L 37.592,18 H 27.375 C 23.267,18 18.296,22.63 18.409,27.9 Z" fill="rgb(254, 254, 253)"/>
</svg>
