<?xml version="1.0" encoding="UTF-8"?>
<!-- generated by Finnhub -->
<svg viewBox="0 0 55.5 55.5" xmlns="http://www.w3.org/2000/svg">
<path d="M 0,0 H 55.5 V 55.5 H 0 Z" fill="rgb(239, 242, 248)"/>
<path d="M 10.99,30.985 H 12 V 25 H 11 V 31 Z M 16,25 C 14.1,25 13,26.2 13,28.03 C 13,29.86 14.19,31 16,31 C 17.87,31 19,29.91 19,28 C 19,26.11 17.83,25 16,25 Z M 16,30 C 14.64,30 14,29.28 14,28.03 C 14,26.65 14.65,26 16,26 C 17.35,26 18,26.6 18,28 C 18.03,29.37 17.33,30 16,30 Z M 51,25 V 27.5 H 46 V 31 H 47 V 28.45 H 51 V 31 H 52 V 25 H 51 Z M 33,26 H 37 V 25 H 33 V 26 Z M 39.15,25.75 C 38.67,26.24 38.42,26.96 38.42,28 C 38.42,28.54 38.49,29.03 38.62,29.41 C 38.73,29.78 38.91,30.09 39.15,30.31 C 39.38,30.55 39.69,30.72 40.07,30.83 C 40.45,30.94 40.9,31 41.43,31 H 45 V 30 H 41.67 C 40.89,30 40.27,29.93 39.92,29.6 C 39.56,29.26 39.42,28.7 39.42,28 C 39.42,27.31 39.56,26.8 39.92,26.45 C 40.27,26.09 41.15,26 41.92,26 H 45 V 25 H 41.44 C 40.41,25 39.64,25.26 39.15,25.75 Z M 31,28.5 H 37 V 27.5 H 31 V 28.5 Z M 31,31 H 37 V 30 H 31 V 31 Z M 9.64,25.45 A 1.2,1.2 0 0,0 9.18,25.13 A 1.78,1.78 0 0,0 8.5,25 H 4 V 26 H 8.34 C 8.79,26 8.99,26.32 8.99,26.73 C 8.99,27.15 8.81,27.5 8.34,27.5 H 4 V 31 H 8.5 C 8.77,31 9,30.96 9.18,30.88 C 9.37,30.81 9.52,30.7 9.64,30.58 C 9.76,30.44 9.85,30.28 9.91,30.11 C 9.97,29.93 10,29.74 10,29.53 V 29 C 10,28.4 9.37,28.02 9.13,28.02 L 9.12,28 L 9.13,27.99 C 9.38,27.99 10,27.61 10,27 V 26.49 C 10,26.29 9.97,26.09 9.91,25.92 A 1.3,1.3 0 0,0 9.64,25.44 Z M 9,29.28 C 9,29.8 8.84,30 8.35,30 H 5 V 28.5 H 8.45 C 8.84,28.53 9,28.78 9,29.28 Z" fill="rgb(59, 149, 113)"/>
<path d="M 28.49,30.985 H 27.5 V 26 H 25 V 25 H 31 V 26 H 28.5 V 31 Z M 20,31 V 25 H 21 L 25,29.5 V 27 H 26 V 31 H 25 L 21,26.5 V 31 H 20 Z" fill="rgb(189, 204, 49)"/>
</svg>
