<?xml version="1.0" encoding="UTF-8"?>
<!-- generated by Finnhub -->
<svg viewBox="0 0 55.5 55.5" xmlns="http://www.w3.org/2000/svg">
<path d="M 0,0 H 55.5 V 55.5 H 0 Z" fill="rgb(1, 112, 245)"/>
<path d="M 48.637,34.522 C 49.147,35.25 49.047,36.166 48.447,36.674 C 47.748,37.183 46.75,37.081 46.25,36.471 L 43,32 L 39.36,36.369 C 38.86,37.081 37.85,37.183 37.15,36.674 C 36.452,36.166 36.364,35.148 36.863,34.436 L 41,29 L 37.18,24.527 C 36.681,23.815 36.881,22.797 37.48,22.289 C 38.18,21.78 39.178,21.984 39.677,22.594 L 43,26.655 L 46.25,22.595 C 46.75,21.882 47.649,21.78 48.447,22.289 C 49.147,22.798 49.147,23.815 48.647,24.527 L 45,29 L 48.647,34.537 Z M 30.471,34 C 26.98,34 26,31.202 26,29.348 C 26,27.493 27.416,25 30.471,25 C 33.527,25 34.991,27.316 35,29.246 C 35.009,31.176 33.964,34 30.471,34 Z M 16.69,34 C 13.892,34.073 12,32.237 12,29.503 S 13.762,25 16.69,25 C 19.617,25 20.973,27.7 20.973,29.503 C 20.973,31.307 19.488,33.927 16.69,34 Z M 30.47,22 C 27.574,22 24.978,23.14 23.68,25.583 C 22.381,23.14 19.995,22 17,22 C 15.202,22 13.294,22.611 11.996,23.527 L 12,16.527 C 12,15.712 11.397,15 10.598,15 C 9.699,15 9,15.712 9,16.526 V 29.348 C 9.1,33.62 12.495,37 16.69,37 C 19.686,37 22.282,35.25 23.58,32.807 C 24.879,35.25 27.475,36.979 30.372,36.979 C 34.666,36.979 38,33.519 38,29.144 C 38.1,24.972 34.766,22 30.471,22 Z" fill="rgb(254, 254, 253)"/>
</svg>
