<?xml version="1.0" encoding="UTF-8"?>
<!-- generated by Finnhub -->
<svg viewBox="0 0 55.5 55.5" xmlns="http://www.w3.org/2000/svg">
<path d="M 0,0 H 55.5 V 55.5 H 0 Z" fill="rgb(42, 48, 143)"/>
<path d="M 44.402,19.317999999999998 C 44.729,19 44.942,18.778 45.788,18.778 H 46 V 18 H 37.529 V 18.778 H 37.741 C 38.588,18.778 38.8,19 39.118,19.333 C 39.435,19.667 39.647,20.333 39.647,21.223 V 26.889 H 33.294 V 21.11 C 33.294,20.221 33.506,19.666 33.824,19.332 C 34.141,18.999 34.353,18.777 35.2,18.777 H 35.412 V 18 H 26.94 V 18.778 H 27.152 C 27.999,18.778 28.211,19 28.528,19.333 C 28.846,19.667 29.058,20.333 29.058,21.223 V 34.667 C 29.058,35.556 28.846,36.111 28.528,36.444 C 28.211,36.778 27.999,37 27.152,37 H 26.94 V 38 H 35.411 V 37 H 35.2 C 34.353,37 34.141,36.778 33.823,36.444 C 33.506,36.111 33.294,35.556 33.294,34.667 V 28 H 39.647 V 34.667 C 39.647,35.556 39.435,36.111 39.117,36.444 C 38.8,36.778 38.588,37 37.741,37 H 37.529 V 38 H 46 V 37 H 45.788 C 44.941,37 44.835,36.778 44.412,36.444 C 44.094,36.111 43.882,35.556 43.882,34.667 V 21.222 C 43.882,20.333 44.094,19.667 44.412,19.333 Z M 23.659,28.444 C 22.918,27.889 22.177,27.444 21.224,27.334 C 22.177,26.889 22.177,26.889 22.812,26.556 C 24.188,25.666 24.823,24.444 24.823,23 C 24.823,21.333 23.765,20.222 22.812,19.444 C 21.859,18.667 20.271,18 17.942,18 H 10 V 19 H 10.212 C 11.059,19 11.271,19.111 11.588,19.444 C 11.906,19.889 12.118,20.444 12.118,21.334 V 34.778 C 12.118,35.667 11.906,36.222 11.588,36.556 C 11.271,36.889 11.058,37.111 10.212,37.111 H 10 V 38 H 18.259 C 20.8,38 22.389,37.444 23.765,36.444 C 25.141,35.444 25.882,34.111 25.882,32.444 C 25.882,30.778 25.142,29.334 23.659,28.444 Z M 16.353,21 C 16.353,20.222 16.459,19.778 16.671,19.556 C 16.882,19.333 17.306,19 17.941,19.111 C 18.788,19.222 19.529,19.778 19.953,20.333 C 20.377,21 20.694,22 20.694,23.333 C 20.694,24.556 20.377,25.444 19.741,26.111 C 19.106,26.667 18.153,26.889 16.882,26.889 H 16.352 V 21 Z M 20.694,35.778 C 20.164,36.444 19.318,36.888 18.259,36.888 H 17.941 C 17.306,36.888 16.776,36.667 16.565,36.444 C 16.459,36.222 16.353,35.778 16.353,35.111 V 28 H 16.988 C 18.576,28 19.741,28.444 20.377,29.222 C 21.117,30 21.541,31.112 21.541,32.667 C 21.541,34 21.224,35.111 20.694,35.777 Z" fill="rgb(254, 254, 253)"/>
</svg>
