<?xml version="1.0" encoding="UTF-8"?>
<!-- generated by Finnhub -->
<svg viewBox="0 0 55.5 55.5" xmlns="http://www.w3.org/2000/svg">
<path d="M 0,0 H 55.5 V 55.5 H 0 Z" fill="rgb(239, 242, 248)"/>
<path d="M 44.99,27.985 A 17,17 0 1,1 11,28 A 17,17 0 0,1 45,28 Z M 43,28 A 15,15 0 0,1 16.44,37.56 C 17.59,37.77 19.34,37.88 20.83,37.36 A 8.55,8.55 0 0,0 24.63,34.66 C 25.66,37 27.42,37.82 29.58,37.82 C 32.03,37.82 33.82,35.41 34.43,34.22 C 35.12,32.86 35.43,31.07 35.43,29.65 C 35.43,25.67 33.09,23.2 30.13,23.2 C 29.23,23.2 28.28,23.5 27.38,24.05 C 27.65,22.43 27.93,21.01 28.12,20.02 L 28.32,18.89 C 28.45,18.19 27.99,17 27.14,17 H 22.77 C 22.52,17 22.34,17.18 22.27,17.46 C 22.2,17.78 22.05,18.63 22.03,19.02 C 22.01,19.36 22.24,19.5 22.53,19.5 H 25.71 C 25.21,22.63 24.21,28.4 23.92,29.92 C 23.55,31.85 22.17,34.22 19.86,35.07 C 17.32,35.74 15.66,34.66 14.56,33.93 L 14.09,33.63 A 15,15 0 1,1 43,28 Z M 29.18,35.36 C 29.91,35.36 30.64,35.04 31.23,34.46 C 33.59,32.09 33.49,28 31.92,26.41 C 31.42,25.91 30.83,25.61 30.15,25.61 C 29.39,25.61 28.65,25.97 28.04,26.58 C 25.88,28.75 25.74,32.88 27.41,34.56 C 27.91,35.06 28.49,35.36 29.18,35.36 Z" fill-rule="evenodd"/>
</svg>
