<?xml version="1.0" encoding="UTF-8"?>
<!-- generated by Finnhub -->
<svg viewBox="0 0 55.5 55.5" xmlns="http://www.w3.org/2000/svg">
<path d="M 0,0 H 55.5 V 55.5 H 0 Z" fill="rgb(19, 71, 122)"/>
<path d="M 37.99,33.658 H 37 V 33.998 H 40 V 33.673 H 39.05 V 27.7 C 38.79,27.972 38.568,27.999 38.153,27.999 H 37 V 28.316 H 38 V 33.672 Z M 18.003,33.674 H 16.957 V 34 H 20 V 33.674 H 19 L 18.969,27.701 C 18.707,27.973 18.54,28 18.126,28 H 16.957 V 28.317 H 17.972 L 18.003,33.674 Z M 42.045,33.674 H 41 V 34 H 44 V 33.674 H 43.009 V 28.313 H 45 V 33.674 H 44.441 V 34 H 47.01 V 33.674 H 46 V 27.698 C 45.739,27.968 45.585,27.996 45.161,27.996 H 43 V 27 C 43,25.779 43.155,24.539 44.544,24.539 C 45.094,24.539 45.5,24.765 45.5,25 C 45.5,25.154 45.365,25.208 45.257,25.271 C 45.085,25.361 44.923,25.534 44.923,25.787 C 44.923,26.131 45.257,26.366 45.545,26.366 C 45.969,26.366 46.275,26.031 46.275,25.534 C 46.275,24.946 45.671,24.214 44.409,24.214 C 42.218,24.214 42.019,25.809 42.019,27.5 V 28.005 L 41,27.996 V 28.313 L 42.018,28.322 V 33.674 M 8.187,29.71 C 9.531,29.993 10.137,30.825 10.137,31.731 C 10.137,32.774 9.327,33.616 8.089,33.616 C 6.825,33.616 5.605,32.554 5.409,30.423 H 5.062 V 33.863 H 5.41 C 5.436,33.634 5.525,33.46 5.792,33.46 C 6.291,33.46 6.825,34 8.107,34 C 9.977,34 11,32.838 11,31.063 C 11,29.673 10.323,28.639 8.525,28.19 L 7.84,28.026 C 6.255,27.65 5.792,26.9 5.792,26.14 C 5.792,25.097 6.576,24.392 7.528,24.392 C 9.015,24.392 9.896,25.627 10.074,27.174 H 10.439 V 24.32 H 10.109 C 10.074,24.494 9.985,24.668 9.719,24.668 C 9.264,24.668 8.89,24 7.493,24 C 6.103,24 5,25.043 5,26.598 C 5,28.264 5.81,29.142 7.501,29.544 L 8.187,29.709 Z M 34,32.5 C 34,33.423 34.181,33.99 35.01,33.99 C 36.012,33.99 36.345,33.44 36.499,33.105 L 36.246,32.933 C 36.084,33.213 35.933,33.5 35.5,33.5 C 35.166,33.5 35.002,33.164 35.002,32.64 L 34.992,28.317 H 35.991 V 28 H 35 L 35.01,26.5 H 34.766 C 34.55,27.802 34.207,28 32.99,28 V 28.317 L 33.99,28.327 L 34,32.5 Z M 30.071,33.674 H 31 V 29.734 C 31,29 30.146,28.624 29.686,28.624 C 28.866,28.624 28.306,29.266 28.036,29.646 V 33.674 H 29 V 34 H 26 V 33.674 H 26.983 V 28.326 H 26 V 28 H 27.028 C 27.65,28 27.766,28 28,27.701 V 29.094 H 28.027 C 28.297,28.77 28.891,28 30,28 C 31.181,28 31.997,28.769 31.997,29.691 V 33.674 H 32.98 V 34 H 30.07 V 33.674 Z M 16.446,31.907 C 16.301,32.622 15.742,33.499 14.768,33.499 C 13.822,33.499 13.362,32.939 13.362,31.69 V 30.424 C 13.362,29.203 13.812,28.326 14.841,28.326 C 15.454,28.326 15.796,28.624 15.796,28.859 C 15.796,28.986 15.716,29.059 15.634,29.149 A 0.598,0.598 0 0,0 15.472,29.547 C 15.472,29.827 15.688,30.107 16.085,30.107 C 16.455,30.107 16.752,29.818 16.752,29.366 C 16.752,28.696 15.968,28 14.742,28 C 13.198,28 12,29.185 12,30.976 C 12,32.613 12.839,33.951 14.642,33.951 C 15.86,33.951 16.644,32.965 16.806,31.898 H 16.446 M 51.625,31.94 C 51.485,32.66 50.893,33.544 49.88,33.544 C 48.895,33.544 48.416,32.979 48.416,31.72 V 30.444 C 48.416,29.213 48.886,28.328 49.955,28.328 C 50.593,28.328 50.949,28.629 50.949,28.866 C 50.949,28.994 50.865,29.066 50.781,29.158 C 50.696,29.258 50.611,29.377 50.611,29.559 C 50.611,29.842 50.837,30.125 51.25,30.125 C 51.625,30.125 51.944,29.833 51.944,29.377 C 51.944,28.702 51.128,28 49.852,28 C 48.248,28 47,29.195 47,31 C 47,32.65 47.872,34 49.749,34 C 51.015,34 51.831,33.006 52,31.93 H 51.625 M 24.965,32 C 24.821,32.796 24.235,33.548 23.315,33.548 C 22.386,33.548 22,32.978 22,31.829 V 30.527 H 25.308 C 25.389,30.527 25.425,30.491 25.425,30.409 V 30.21 C 25.425,29.378 24.677,28.04 23.017,28.04 C 21.575,28.04 20.511,29.46 20.511,31.015 C 20.511,32.878 21.593,33.991 23.071,33.991 C 24.235,33.991 25.082,33.239 25.308,32 H 24.965 Z M 24.19,29.91 C 24.19,29.964 24.163,30 24.1,30 H 22 V 29.767 C 22,28.89 22.413,28.357 23.09,28.357 C 23.784,28.357 24.19,28.854 24.19,29.767 V 29.91 Z M 14.296,18.299 H 14.63 C 15.892,18.299 16.569,19.013 16.569,19.899 C 16.569,21.166 15.712,21.599 14.675,21.599 H 14.018 V 18.299 H 14.296 Z M 13.006,25.751 H 12.15 V 26.059 H 15.63 C 16.812,26.059 18,25.371 18,23.789 C 18,22.531 17.092,21.862 15.992,21.799 V 21.744 C 16.92,21.664 17.648,21.057 17.648,19.809 C 17.648,18.733 16.948,18 15.279,18 H 12.15 V 18.299 H 13.016 V 25.751 H 13.006 Z M 14,22 H 14.891 C 16.171,22 16.866,22.748 16.866,23.789 C 16.866,24.929 16.181,25.751 15.009,25.751 H 13.999 V 21.907 M 19,23.5 C 19,24.867 19.825,26 21,26 C 22.167,26 23,24.858 23,23.5 S 22.175,21 21,21 C 19.825,21.009 19,22.133 19,23.5 Z M 21.989,23.785 C 21.989,24.737 21.892,25.671 21,25.671 C 20.1,25.671 20.011,24.737 20.011,23.785 V 23.223 C 20.011,22.272 20.086,21.337 21,21.337 C 21.944,21.337 21.989,22.272 21.989,23.223 V 23.786 Z M 32,23.5 C 32,24.867 32.825,26 34,26 C 35.167,26 36,24.858 36,23.5 S 35.175,21 34,21 S 32,22.125 32,23.5 Z M 34.989,23.777 C 34.989,24.728 34.892,25.663 34,25.663 C 33.1,25.663 33.004,24.728 33.004,23.777 V 23.214 C 33.004,22.263 33.078,21.329 34,21.329 C 34.937,21.329 34.989,22.263 34.989,23.215 V 23.777 Z" fill="rgb(254, 254, 253)"/>
<path d="M 39.365,25.677 H 40 V 22.332 C 40,21.753 39.562,21.545 39.165,21.545 C 38.651,21.545 38.28,22.025 38.036,22.558 V 25.692 H 39 V 26 H 36 V 25.692 H 37 V 21.546 H 36 V 21.238 H 36.973 C 37.496,21.238 37.802,21.238 38,20.976 V 21.907 H 38.018 C 38.469,21.355 38.922,20.994 39.634,20.994 C 40.744,20.994 41,21.762 41,22.423 V 25.693 H 41.727 V 26 H 39.367 V 25.692 M 25.803,23.83 C 26.471,23.92 26.75,24.318 26.75,24.743 C 26.75,25.349 26.263,25.665 25.722,25.665 C 24.694,25.665 24.325,24.752 24.262,24.145 H 24 V 26 H 24.253 C 24.27,25.82 24.37,25.674 24.487,25.674 C 24.73,25.674 25.01,26 25.74,26 C 26.823,26 27.48,25.322 27.48,24.3 C 27.48,23.567 27.012,23.136 26.092,23 L 25.542,22.91 C 24.812,22.792 24.559,22.539 24.559,22.105 C 24.559,21.68 24.919,21.318 25.533,21.318 C 26.245,21.318 26.66,21.761 26.777,22.466 H 27.03 L 27.003,20.992 H 26.777 C 26.768,21.101 26.723,21.272 26.607,21.272 C 26.399,21.272 26.119,20.992 25.515,20.992 C 24.658,20.992 24,21.589 24,22.439 C 24,23.515 24.758,23.685 25.488,23.784 L 25.804,23.829 Z M 31.273,25.053 C 31.156,25.243 30.913,25.542 30.552,25.542 C 30.245,25.542 30,25.397 30,24.918 V 21.289 L 31,21.298 V 20.99 L 30,20.982 V 19.49 L 29.767,19.499 C 29.578,20.657 28.937,20.999 28,20.999 V 21.298 H 29 V 24.917 C 29,25.713 29.38,26.011 30.164,26.011 C 30.886,26.011 31.264,25.641 31.463,25.333 L 31.273,25.053 Z" fill="rgb(254, 254, 253)"/>
</svg>
