<?xml version="1.0" encoding="UTF-8"?>
<!-- generated by Finnhub -->
<svg viewBox="0 0 55.5 55.5" xmlns="http://www.w3.org/2000/svg">
<path d="M 0,0 H 55.5 V 55.5 H 0 Z" fill="rgb(4, 192, 159)"/>
<path d="M 8.41,26.785 V 26.03 A 2,2 0 0,0 7.88,24.55 C 7.52,24.18 7,24 6.29,24 H 4 V 33 H 6.37 C 7.07,33 7.6,32.82 7.96,32.46 C 8.32,32.1 8.5,31.6 8.5,30.96 V 30.16 C 8.5,29.26 8.15,28.7 7.44,28.46 C 8.09,28.21 8.42,27.66 8.42,26.8 Z M 5,25 H 6.21 C 6.95,25 7.44,25.4 7.44,26.22 V 26.69 C 7.44,27.51 7.06,28 6.21,28 H 5 V 25 Z M 7.5,30.39 V 30.76 C 7.5,31.58 7,32 6.29,32 H 5 V 29 H 6.29 C 7.14,29 7.5,29.56 7.5,30.39 Z M 11,23.99 H 10 V 32.99 H 11 V 23.99 Z M 17,24 V 25 H 15 V 33 H 14 V 25 H 12 V 24 H 17 Z M 42,25 V 24 H 37 V 25 H 39 V 33 H 40 V 25 H 42 Z M 20,24 H 22.34 C 23.05,24 23.59,24.18 23.95,24.55 A 2,2 0 0,1 24.5,26.02 V 30.95 C 24.5,31.58 24.32,32.08 23.97,32.45 C 23.61,32.82 23.08,33 22.37,33 H 20 V 24 Z M 23.55,26.28 C 23.55,25.48 23.13,25 22.29,25 H 21 V 32 H 22.29 C 23.13,32 23.55,31.61 23.55,30.79 V 26.28 Z M 27,24 H 26 V 33 H 27 V 24 Z M 29,25.95 C 29,25.35 29.2,24.87 29.62,24.53 C 30.04,24.18 30.68,24 31.55,24 A 6,6 0 0,1 33.21,24.22 V 25.27 A 5.6,5.6 0 0,0 31.55,25 C 30.98,25 30.58,25.11 30.33,25.3 C 30.09,25.5 30,25.77 30,26.15 V 30.95 C 30,31.67 30.41,32 31.3,32 C 31.87,32 32.25,31.93 32.5,31.75 V 28.58 H 33.5 V 32.48 A 4.4,4.4 0 0,1 31.37,33 C 29.8,33 29,32.38 29,31.13 V 25.95 Z M 36,24 H 35 V 33 H 36 V 24 Z M 41.5,33 L 43.57,24 H 44.93 L 47,33 H 46 L 44.24,25 L 42.5,33 H 41.5 Z M 49,24 H 48 V 33 H 52 V 32 H 49 V 24 Z" fill="rgb(254, 254, 253)"/>
</svg>
