<?xml version="1.0" encoding="UTF-8"?>
<!-- generated by Finnhub -->
<svg viewBox="0 0 55.5 55.5" xmlns="http://www.w3.org/2000/svg">
<path d="M 0,0 H 55.5 V 55.5 H 0 Z" fill="rgb(239, 242, 248)"/>
<path d="M 27.38,12.655 S 28.29,12.12 29.24,12.04 A 10.56,10.56 0 0,1 36.25,14.19 S 38.24,22.09 38.31,22.3 C 38.38,22.52 38.24,28.41 38.31,28.98 C 38.38,29.55 37.3,32.67 37.23,33.74 C 37.15,34.81 33.97,38.28 33.1,39.12 C 32.12,40.05 20.35,43.09 13.42,38.65 L 18.4,23.8 L 24.03,14.92 L 27.39,12.68 Z" fill="rgb(254, 254, 253)"/>
<path d="M 28.99,26.055 A 4.31,4.31 0 0,1 26.3,24.02 A 0.24,0.24 0 0,1 26.3,23.77 A 0.24,0.24 0 0,1 26.52,23.66 H 27.69 A 6.9,6.9 0 0,1 24.91,18.1 A 6.73,6.73 0 0,1 28.24,12.54 C 28.56,12.34 28.89,12.17 29.24,12.02 C 26.88,12.17 24.64,13.12 22.91,14.69 A 10.18,10.18 0 0,0 19.68,20.67 L 18.97,20.65 C 16.32,20.65 13.79,21.68 11.92,23.52 A 9.73,9.73 0 0,0 14.47,39.23 C 14.57,37.57 15.33,36.01 16.57,34.89 A 6.6,6.6 0 0,1 21.16,33.19 L 25.1,33.29 A 3.93,3.93 0 0,0 29,29.82 L 29.34,26.54 A 0.44,0.44 0 0,0 29.27,26.24 A 0.54,0.54 0 0,0 29.01,26.07 Z M 40.22,21.38 A 10.26,10.26 0 0,0 34.93,13.32 A 6.22,6.22 0 0,0 28.94,13.69 A 5.51,5.51 0 0,0 26.24,18.13 C 26.23,19.06 26.46,19.98 26.9,20.79 V 20.6 A 4.38,4.38 0 0,1 29.67,16.5 A 4.6,4.6 0 0,1 31.39,16.18 H 31.93 L 31.39,17.5 C 30.56,17.5 29.77,17.82 29.19,18.4 A 3.04,3.04 0 0,0 29.15,22.71 C 29.71,23.29 30.48,23.62 31.28,23.65 H 35.25 A 0.62,0.62 0 0,1 35.8,24.05 C 35.85,24.15 35.86,24.27 35.83,24.39 A 0.58,0.58 0 0,1 35.65,24.69 L 34.21,25.95 A 2.07,2.07 0 0,0 33.55,27.95 C 33.85,29.28 34.29,31.4 34.45,32.37 A 9.02,9.02 0 0,1 33.1,39.1 A 9.82,9.82 0 0,0 44.15,37.23 A 9.48,9.48 0 0,0 40.23,21.35 V 21.38 Z" fill="url(#a)"/>
<defs>
<linearGradient id="a" x1="17.35" x2="49.08" y1="19.51" y2="49.95" gradientUnits="userSpaceOnUse">
<stop stop-color="rgb(53, 205, 168)" offset="0"/>
<stop stop-color="rgb(94, 244, 110)" offset=".98"/>
</linearGradient>
</defs>
</svg>
