<?xml version="1.0" encoding="UTF-8"?>
<!-- generated by Finnhub -->
<svg viewBox="0 0 55.5 55.5" xmlns="http://www.w3.org/2000/svg">
<path d="M 0,0 H 55.5 V 55.5 H 0 Z" fill="rgb(22, 69, 137)"/>
<path d="M 27.99,20.923 L 27.29,38.636 L 24.186,29.943 L 25.804,38.733 L 20.761,31.429 L 24.317,38.942 L 11.837,29.395 L 22.832,39.313 L 15.813,36.485 L 21.453,40 C 16.208,40 9.93,35.512 8,26.202 C 8,26.202 19.211,26.341 22.954,31.734 C 22.249,24.138 27.097,16.977 28,16 C 28.903,16.977 33.75,24.138 33.046,31.734 C 36.789,26.341 48,26.202 48,26.202 C 46.072,35.512 39.792,40 34.547,40 L 40.187,36.485 L 33.167,39.313 L 44.163,29.395 L 31.683,38.942 L 35.239,31.429 L 30.197,38.733 L 31.814,29.943 L 28.71,38.636 L 28,20.938 Z" fill="rgb(249, 179, 27)"/>
</svg>
