<?xml version="1.0" encoding="UTF-8"?>
<!-- generated by Finnhub -->
<svg viewBox="0 0 55.5 55.5" xmlns="http://www.w3.org/2000/svg">
<path d="M 0,0 H 55.5 V 55.5 H 0 Z" fill="url(#r)"/>
<path d="M 35.043,30.829 S 36.865,28.961 37.357,28.91 C 37.514,28.894 37.583,29.162 37.402,29.46 C 37.357,29.542 37.41,29.645 37.708,29.333 C 38.006,29.02 38.619,28.06 37.805,27.591 C 37.132,27.205 36.462,27.413 36.462,27.413 S 35.805,26.304 34.013,27.16 C 32.729,27.774 32.2,27.911 31.053,27.957 C 29.672,28.009 27.015,27.474 23.716,23.991 L 17.798,22.056 S 11.499,18.861 8.81,15.468 C 8.706,15.25 9.243,18.733 13.988,21.973 C 14.003,22.002 9.546,20.438 6.451,17.223 C 6.378,17.134 7.173,20.151 11.073,22.264 C 11.008,22.28 7.93,21.53 5.585,19.723 C 5.571,19.709 6.257,22.403 10.898,23.609 C 10.928,23.623 8.108,23.117 5.661,22.091 C 5.451,21.927 7.004,24.159 10.481,24.83 C 10.481,24.83 9.609,24.743 8.74,24.592 C 8.053,24.472 6.71,24.155 6.71,24.155 S 7.003,25.034 10.377,25.708 L 7.735,25.376 S 7.869,26.176 11.555,26.787 C 11.449,26.869 10.002,26.705 8.89,26.317 C 8.89,26.317 9.159,27.153 11.726,27.911 C 12.196,28.045 12.778,28.141 13.449,28.156 C 13.479,28.156 15.121,29.876 15.911,30.159 C 16.15,30.247 16.217,30.163 16.313,30.225 C 16.403,30.283 16.353,30.344 16.486,30.441 C 16.62,30.538 16.711,30.423 16.84,30.496 C 16.979,30.576 16.915,30.664 17.07,30.756 C 17.228,30.849 17.353,30.708 17.472,30.783 C 17.592,30.857 17.528,31.005 17.694,31.093 C 17.859,31.183 18.004,31.036 18.152,31.12 C 18.303,31.208 18.181,31.35 18.398,31.46 C 18.614,31.572 18.697,31.452 18.861,31.532 C 19.018,31.608 18.898,31.767 19.137,31.887 C 19.374,32.007 19.509,31.833 19.637,31.937 C 19.764,32.04 19.745,32.207 19.994,32.412 C 20.254,32.629 20.782,32.946 21.21,33.128 C 21.21,33.128 16.32,33.816 14.17,34.485 C 14.152,34.845 14.555,35.305 15.335,35.631 C 15.495,35.701 16.323,36.034 17.065,36.071 C 17.065,36.081 14.957,36.991 14.592,37.454 C 14.657,37.544 15.327,38.035 18.248,37.503 C 18.248,37.513 16.513,38.604 16.174,39.125 C 16.196,39.17 17.861,39.821 19.766,38.742 C 19.766,38.752 19.245,39.26 19.084,39.726 C 19.077,39.75 20.331,39.746 21.219,38.985 C 21.209,39.003 21.031,39.868 22.275,38.885 C 22.275,38.902 22.789,39.415 24.661,36.864 C 24.908,36.512 25.161,36.142 25.381,35.654 C 26.152,35.534 27.101,35.368 27.946,35.105 C 27.964,35.115 28.553,35.308 29.129,35.263 C 29.71,35.22 29.492,35.393 30.049,35.493 C 30.467,35.567 30.576,35.422 30.801,35.443 C 31.01,35.462 31.033,35.59 31.414,35.633 C 31.758,35.673 31.88,35.556 32.151,35.619 C 32.468,35.693 32.735,35.939 34.183,36.098 C 35.485,36.24 36.342,36.023 36.748,35.725 C 36.738,35.735 39.006,36.067 39.351,35.345 C 39.351,35.345 41.687,35.614 41.605,35.006 C 41.73,34.992 44.749,35.542 45.257,34.599 C 45.266,34.589 43.501,34.332 43.645,34.277 C 43.957,34.277 47.743,34.929 48.578,33.782 C 48.231,33.761 45.768,33.358 45.803,33.336 C 45.85,33.306 50.39,33.899 51.168,32.361 C 51.004,32.347 47.52,32.227 47.474,32.143 C 47.447,32.105 51.571,32.347 51.824,30.764 C 51.572,30.809 49.677,30.993 47.63,30.884 C 47.691,30.792 51.594,30.516 51.983,28.651 C 51.803,28.648 50.035,30.048 44.283,29.676 C 43.605,29.646 42.013,29.297 40.103,29.906 C 38.163,30.486 36.929,30.273 36.901,30.273 C 36.87,30.273 35.761,30.046 35.053,30.844 Z" fill="rgb(254, 254, 253)"/>
<path d="M 23.872,32.811 S 16.2,33.973 14.453,34.533 C 14.419,34.545 14.362,34.561 14.331,34.572 C 14.327,34.632 14.388,34.854 14.621,35.046 C 15.213,35.559 16.665,36.054 17.516,35.95 C 17.486,35.968 15.913,36.736 15.402,37.016 C 14.891,37.298 14.744,37.434 14.744,37.434 S 15.232,37.929 18.694,37.317 C 18.577,37.377 16.482,38.832 16.373,39.063 C 16.388,39.125 18.191,39.754 20.3,38.299 C 20.32,38.301 19.87,38.727 19.52,39.18 A 4.467,4.467 0 0,0 19.296,39.498 A 0.504,0.504 0 0,0 19.224,39.643 H 19.246 C 19.263,39.643 19.288,39.645 19.313,39.643 C 19.609,39.627 20.493,39.513 21.388,38.745 C 21.342,38.823 21.001,39.807 22.292,38.739 C 22.312,38.774 22.62,39.224 24.066,37.456 C 25.481,35.686 25.388,35.219 25.388,35.219 L 23.882,32.826 Z" fill="url(#h)"/>
<path d="M 24.105999999999998,32.984 C 24.115,32.999 17.18,34.369 15.91,34.823 C 15.886,34.835 17.077,35.644 18.838,35.565 C 18.28,35.908 16.281,36.909 16.06,37.155 C 16.163,37.219 18.465,37.039 19.904,36.753 C 19.332,37.267 18.254,38.145 17.812,38.661 C 17.838,38.643 19.109,38.709 21.087,37.49 C 20.797,38.258 19.971,39.197 19.971,39.197 S 21.166,38.778 21.985,37.852 C 21.945,37.919 21.241,39.477 22.788,37.931 C 22.788,38.011 22.828,38.756 24.272,36.798 C 25.396,35.172 24.959,34.689 24.959,34.689 L 24.116,33 Z" fill="url(#g)"/>
<path d="M 44.098,30.93 S 50.34,30.558 51.818,28.845 C 51.817,28.845 51.339,30.975 44.108,30.945 Z" fill="rgb(190, 29, 43)"/>
<path d="M 34.505,30.607 C 33.407,31.759 27.177,34.368 26.715,34.728 L 27.675,34.856 C 27.95,35.052 28.477,35.128 28.702,35.141 C 28.925,35.153 28.967,35.16 29.053,35.152 L 29.343,35.13 C 29.471,35.118 29.54,35.13 29.623,35.186 C 29.833,35.327 29.924,35.374 30.186,35.398 C 30.344,35.412 30.464,35.386 30.571,35.358 C 30.711,35.322 30.82,35.287 30.928,35.342 C 31.252,35.512 31.571,35.545 31.926,35.482 A 0.5,0.5 0 0,1 32.25,35.509 C 32.642,35.692 33.098,35.803 33.522,35.883 C 33.755,35.926 34.025,35.976 34.382,36 C 34.735,36.026 34.92,36.02 35.492,35.99 C 36.063,35.959 36.575,35.75 36.484,35.71 C 35.067,35.57 34.618,35.181 34.8,35.225 C 38.24,36.077 39.244,35.503 39.09,35.42 C 37.325,35.04 36.946,34.765 37.009,34.74 C 39.898,35.54 41.562,35.259 41.371,35.124 C 39.85,34.72 38.258,33.947 38.258,33.947 C 42.373,35.269 44.108,35.051 44.741,34.834 C 44.991,34.75 45.071,34.671 45.059,34.678 C 41.121,34.121 40.451,33.454 40.451,33.428 C 45.094,34.602 47.109,34.348 47.91,34.092 C 48.247,33.983 48.367,33.875 48.379,33.875 C 43.34,33.16 43.272,32.855 43.196,32.825 C 49.965,34.14 51.034,32.447 50.996,32.446 C 47.257,32.393 45.068,31.94 44.696,31.877 C 51.193,32.506 51.67,30.901 51.67,30.901 C 49.867,31.153 46.927,30.991 45.026,30.873 C 43.05,30.726 42.329,30.766 39.564,31.13 C 34.354,31.84 34.515,30.622 34.515,30.622 Z" fill="url(#f)"/>
<path d="M 34.522,30.73 C 34.129,31.168 28.454,33.471 27.38,34.31 L 31.274,34.996 C 33.672,36.046 36.054,35.846 35.876,35.771 C 34.084,35.494 33.536,34.651 33.801,34.767 C 36.944,35.74 38.814,35.551 38.671,35.476 C 36.344,35.017 36.497,34.398 36.429,34.366 C 37.917,34.998 40.749,35.195 40.574,35.069 C 37.837,34.3 37.734,33.651 37.734,33.651 C 41.996,34.791 43.571,34.744 43.999,34.695 C 44.077,34.687 44.116,34.675 44.127,34.672 C 39.927,34.072 39.542,33.011 39.542,32.988 C 44.104,34.061 46.487,33.986 47.28,33.914 C 47.48,33.894 47.574,33.88 47.58,33.88 C 42.484,33.415 42.262,32.472 42.192,32.446 C 46.708,33.288 49.983,32.587 49.946,32.586 C 44.603,32.518 43.346,31.612 43.274,31.582 C 48.436,32.097 50.582,31.169 50.582,31.169 C 49.641,31.378 44.977,30.956 43.229,30.845 C 41.407,30.711 41.627,30.779 39.079,31.113 C 35.295,31.481 34.532,30.745 34.532,30.745 Z" fill="url(#e)"/>
<path d="M 43.186,32.808 S 49.084,33.438 50.997,32.447 C 50.997,32.447 50.07,34.124 43.196,32.823 Z M 40.45,33.426 S 46.19,34.52 48.382,33.874 C 48.341,33.874 47.27,35.186 40.449,33.426 Z M 38.258,33.946 S 43.032,35.266 45.056,34.675 C 45.056,34.675 44.018,35.823 38.258,33.945 Z M 44.694,31.88 S 50.896,32.589 51.671,30.902 C 51.671,30.902 50.231,32.05 44.694,31.879 Z" fill="rgb(190, 29, 43)"/>
<path d="M 9.06,15.974 S 10.54,20.249 15.893,22.784 C 15.597,22.688 10.136,21.32 6.671,17.612 C 6.686,17.642 8.587,21.686 12.881,22.745 C 12.626,22.7 9.023,22.393 5.845,20.067 C 5.937,20.151 7.215,23.041 12.819,23.844 C 12.819,23.844 10.215,24.147 6.019,22.382 C 6.097,22.439 8.445,24.912 12.562,24.915 C 12.562,24.915 10.174,25.229 7.022,24.34 C 6.93,24.407 9.345,25.809 12.646,25.78 C 12.683,25.783 11.559,26.118 8.016,25.523 C 7.869,25.533 9.922,26.713 13.059,26.762 C 13.096,26.765 11.624,27.34 9.154,26.511 C 9.053,26.555 11.133,28.018 13.522,28.011 L 13.929,28.391 S 15.57,30.105 16.228,30.031 C 16.329,30.019 16.458,30.064 16.49,30.165 C 16.51,30.228 16.534,30.266 16.596,30.299 C 16.646,30.326 16.696,30.317 16.746,30.309 C 16.798,30.302 16.853,30.291 16.919,30.321 C 17.064,30.387 17.026,30.489 17.103,30.555 C 17.188,30.631 17.31,30.633 17.416,30.611 C 17.594,30.574 17.654,30.737 17.712,30.851 C 17.767,30.959 17.902,30.988 18.074,30.935 A 0.22,0.22 0 0,1 18.331,31.052 C 18.371,31.134 18.368,31.24 18.442,31.302 C 18.52,31.369 18.64,31.382 18.738,31.364 C 18.811,31.351 18.913,31.352 18.972,31.398 C 19.049,31.455 19.057,31.565 19.101,31.638 C 19.145,31.711 19.246,31.83 19.581,31.777 C 19.778,31.75 19.846,31.934 19.915,32.089 C 20.009,32.305 20.448,32.567 20.59,32.659 C 20.847,32.824 21.431,33.114 21.628,33.183 L 22.118,33.116 H 22.13 S 23.313,33.557 21.059,35.392 C 21.449,36.059 28.88,36.012 33.149,32.335 C 33.495,32.036 33.889,31.61 34.259,31.269 C 34.264,31.216 34.355,28.566 33.846,27.386 C 33.846,27.386 29.192,30.35 23.815,24.151 C 23.706,24.087 23.353,24.127 22.917,24.161 C 22.196,24.22 21.257,24.276 20.869,23.894 C 20.869,23.894 11.871,19.624 9.069,15.989 Z" fill="url(#d)"/>
<path d="M 31.904999999999998,31.081 L 30.203,31.398 C 28.335,33.67 22.657,34.888 22.247,34.968 C 22.645,34.99 22.56,35.135 22.56,35.135 C 22.662,35.49 22.52,35.61 22.52,35.61 C 23.295,35.608 23.755,35.28 23.932,35.175 C 23.975,35.417 23.954,35.705 23.954,35.705 C 30.572,35.209 33.399,32.089 33.399,32.089 L 32.546,32.458 C 32.36,32.543 32.535,32.413 32.535,32.413 L 33.075,31.861 L 32.311,32.073 L 32.791,31.621 L 31.241,31.961 L 31.915,31.096 Z" fill="url(#c)"/>
<path d="M 36.415,27.704 S 35.802,26.279 33.375,27.645 C 33.386,27.645 33.795,27.465 33.906,27.559 C 33.916,27.539 33.476,27.625 32.7,28.19 C 32.7,28.19 32.899,28.13 32.93,28.19 C 32.94,28.18 32.075,28.745 30.493,28.687 C 30.493,28.676 30.628,28.805 31.306,28.843 C 31.314,28.843 30.68,29.111 29.65,28.932 C 29.643,28.932 29.69,29.164 30.273,29.283 C 30.273,29.273 29.653,29.457 29.149,29.446 C 29.149,29.46 29.277,29.616 29.976,29.653 C 29.986,29.653 29.71,29.885 29.096,30.055 C 29.096,30.055 29.463,30.161 30.508,29.885 C 30.516,29.885 30.022,30.219 29.216,30.606 C 29.216,30.613 29.649,30.666 30.516,30.502 C 30.516,30.51 30.388,30.696 29.844,30.963 C 29.851,30.963 30.307,30.978 30.874,30.822 C 30.874,30.815 30.673,31.113 30.113,31.455 C 30.127,31.447 30.56,31.462 31.822,31.156 C 31.828,31.156 31.292,31.863 31.097,32.042 C 31.113,32.02 31.739,31.932 32.27,31.774 C 32.477,31.723 32.768,31.619 32.493,31.864 C 32.215,32.109 32.201,32.154 32.201,32.154 S 32.694,32.042 32.881,31.96 C 32.888,31.96 32.485,32.452 32.27,32.577 C 32.29,32.586 32.91,32.444 33.238,32.251 C 33.246,32.251 33.289,32.577 33.455,32.69 C 33.448,32.69 34.335,31.433 35.053,30.844 C 35.514,30.301 36.581,29.296 36.663,29.104 C 36.901,28.634 36.469,27.823 36.425,27.719 Z" fill="rgb(254, 254, 253)"/>
<path d="M 34.699000000000005,27.838 S 34.651,28.199 35.363,28.065 C 35.363,28.065 34.819,28.297 34.592,27.942 C 34.592,27.942 34.388,27.93 34.189,27.99 C 34.189,27.99 34.447,27.878 34.709,27.853 Z M 34.727,27.79 S 34.964,27.618 35.396,27.773 C 35.429,27.785 35.421,27.799 35.456,27.813 C 35.472,27.818 35.497,27.819 35.514,27.823 A 0.88,0.88 0 0,0 35.648,27.837 A 0.64,0.64 0 0,0 35.773,27.834 C 35.809,27.829 35.85,27.808 35.847,27.768 C 35.847,27.707 35.796,27.661 35.746,27.634 C 35.679,27.599 35.61,27.607 35.61,27.607 S 35.66,27.637 35.684,27.669 C 35.721,27.72 35.698,27.779 35.471,27.699 C 35.47,27.7 34.796,27.429 34.727,27.79 Z"/>
<path d="M 35.480000000000004,27.855 C 35.49,27.97 35.344,28.051 35.164,28.051 C 34.987,28.051 34.841,27.971 34.841,27.87 C 34.841,27.769 34.987,27.688 35.164,27.688 C 35.344,27.688 35.489,27.768 35.489,27.87 Z"/>
<path d="M 35.386,27.842 C 35.396,27.931 35.298,27.991 35.18,27.991 C 35.06,27.991 34.964,27.931 34.964,27.857 C 34.964,27.784 35.061,27.723 35.18,27.723 C 35.298,27.723 35.396,27.783 35.396,27.857 Z" fill="rgb(254, 241, 2)"/>
<path d="M 35.286,27.842 C 35.296,27.897 35.245,27.929 35.18,27.929 S 35.062,27.897 35.062,27.857 C 35.062,27.817 35.115,27.784 35.18,27.784 S 35.296,27.817 35.296,27.857 Z M 35.207,27.698 S 35.291,27.813 35.394,27.845 C 35.497,27.877 35.396,27.714 35.396,27.714 L 35.207,27.698 Z"/>
<path d="M 34.135000000000005,27.232 C 33.87,27.359 33.603,27.487 33.335,27.614 C 33,27.774 32.468,27.916 32.417,27.932 C 32.43,27.926 33.007,27.838 33.454,27.632 C 33.572,27.577 33.694,27.529 33.814,27.48 A 9.34,9.34 0 0,1 34.469,27.235 C 34.867,27.104 35.379,27.095 35.774,27.323 C 36.021,27.465 36.09,27.671 36.092,27.693 L 36.093,27.704 A 0.92,0.92 0 0,1 36.423,27.582 C 36.397,27.559 36.403,27.555 36.376,27.534 A 1.322,1.322 0 0,0 35.525,27.009 A 2.26,2.26 0 0,0 34.595,27.09 A 5.12,5.12 0 0,0 34.145,27.247 Z" fill="rgb(166, 168, 170)"/>
<path d="M 35.27,28.833 C 35.279,28.848 34.751,29.2 33.963,29.534 C 34.364,29.427 34.796,29.564 34.615,29.769 C 34.503,29.895 33.794,30.159 33.589,30.249 C 34.266,30.097 34.183,30.348 33.634,30.578 C 33.377,30.718 32.424,31.02 32.278,31.068 C 32.27,31.074 32.421,31.05 32.596,31.024 C 32.861,30.985 33.183,30.944 33.07,31.013 C 32.707,31.23 32.153,31.513 31.452,31.822 C 31.452,31.822 32.152,31.729 32.925,31.442 C 33.055,31.392 32.952,31.525 32.835,31.66 C 32.719,31.793 32.583,31.925 32.652,31.877 C 33.2,31.787 33.279,31.674 33.282,31.693 A 5.186,5.186 0 0,1 32.696,32.323 C 32.823,32.29 33.115,32.19 33.489,32.006 C 33.459,32.074 33.361,32.349 33.449,32.474 C 33.467,32.499 33.811,31.876 34.298,31.42 C 34.646,31.072 34.982,30.721 35.564,30.153 C 36.03,29.743 36.497,29.241 37.059,28.887 C 37.046,28.853 36.745,28.881 36.395,28.91 C 35.898,28.95 35.299,28.99 35.279,28.848 Z" fill="url(#b)" opacity=".55"/>
<path d="M 36.898,27.477 C 36.501,27.493 36.129,27.596 36.055,27.66 C 35.889,27.8 35.889,28.33 35.692,28.536 C 35.496,28.74 34.92,28.618 34.788,28.848 C 34.502,29.386 35.631,29.218 36.468,28.998 C 36.858,28.912 36.551,29.261 36.551,29.261 L 36.691,29.149 C 36.741,29.112 36.791,29.078 36.841,29.043 C 36.937,28.98 37.035,28.915 37.137,28.865 A 0.609,0.609 0 0,1 37.321,28.804 C 37.358,28.798 37.433,28.779 37.466,28.798 C 37.799,28.966 37.481,29.395 37.494,29.418 C 37.756,29.223 38.392,28.399 37.89,27.838 C 37.656,27.574 37.269,27.492 36.908,27.492 Z" fill="url(#a)"/>
<path d="M 37.094,28.588 C 36.97,28.603 36.84,28.637 36.714,28.664 C 36.513,28.707 36.313,28.749 36.111,28.775 C 35.971,28.794 35.828,28.813 35.687,28.815 C 35.547,28.815 35.395,28.817 35.257,28.848 C 35.215,28.857 35.038,28.894 35.134,28.96 C 35.2,29.003 35.321,28.989 35.397,28.982 C 35.5,28.972 35.599,28.947 35.703,28.932 C 35.779,28.922 35.857,28.912 35.933,28.898 C 36.017,28.881 36.097,28.864 36.183,28.848 C 36.327,28.818 36.473,28.793 36.618,28.764 C 36.871,28.718 37.136,28.681 37.383,28.776 C 37.477,28.812 37.583,28.83 37.617,29.004 A 0.325,0.325 0 0,0 37.522,28.731 C 37.416,28.618 37.242,28.603 37.104,28.603 Z" fill="url(#q)"/>
<path d="M 36.505,27.77 C 36.557,27.818 36.522,27.931 36.441,28.005 C 36.362,28.079 36.261,28.112 36.216,28.079 C 36.173,28.049 36.196,27.941 36.275,27.867 C 36.355,27.794 36.469,27.755 36.515,27.785 Z" fill="rgb(254, 254, 253)"/>
<path d="M 36.498000000000005,27.753999999999998 C 36.552,27.801 36.525,27.887 36.445,27.961 C 36.367,28.034 36.265,28.067 36.22,28.035 C 36.176,28.003 36.204,27.916 36.283,27.844 C 36.363,27.77 36.462,27.736 36.508,27.769 Z" fill="rgb(95, 56, 17)"/>
<path d="M 36.566,27.608999999999998 S 37.522,27.379 37.784,28.08 C 37.796,28.093 37.614,27.654 36.576,27.624 Z" fill="rgb(254, 254, 253)"/>
<path d="M 51.81,28.828 C 51.82,28.844 50.174,29.696 47.804,29.803 C 47.677,29.807 47.55,29.813 47.424,29.819 C 46.834,29.846 46.246,29.861 45.656,29.863 C 44.994,29.866 44.346,29.829 43.659,29.769 C 43.342,29.743 43.024,29.696 42.705,29.691 C 42.25,29.681 41.795,29.708 41.349,29.78 C 40.886,29.853 40.447,29.996 39.994,30.109 C 39.07,30.34 38.061,30.547 37.104,30.432 C 35.61,30.253 35.174,30.89 35.174,30.89 C 35.566,31.039 35.99,31.119 36.551,31.158 C 36.828,31.178 37.736,31.193 38.777,31.096 C 39.522,31.029 40.071,30.901 40.63,30.801 C 40.987,30.738 41.283,30.705 41.645,30.661 C 41.945,30.623 42.309,30.615 42.61,30.622 C 42.962,30.631 43.603,30.702 44.317,30.734 C 44.863,30.756 45.539,30.719 46.102,30.684 C 46.521,30.658 47.715,30.471 48.072,30.41 C 48.17,30.395 51.433,29.756 51.821,28.843 Z" fill="url(#p)"/>
<path d="M 35.158,30.874 S 35.603,30.253 37.098,30.432 C 38.053,30.547 39.066,30.344 39.989,30.112 C 40.442,30.001 40.879,29.855 41.341,29.782 A 7.703,7.703 0 0,1 42.698,29.693 C 43.02,29.7 43.335,29.741 43.655,29.769 C 44.341,29.828 44.985,29.868 45.649,29.865 C 46.239,29.861 46.829,29.845 47.418,29.817 C 47.546,29.812 47.672,29.805 47.799,29.801 C 47.792,30.041 47.249,30.097 47.076,30.126 C 46.718,30.186 46.296,30.194 45.876,30.201 C 45.33,30.213 44.784,30.222 44.238,30.199 C 43.706,30.177 43.175,30.115 42.643,30.101 C 42.34,30.092 42.037,30.101 41.739,30.138 C 41.375,30.182 41.018,30.25 40.659,30.314 C 40.102,30.414 39.584,30.592 38.839,30.661 C 38.094,30.731 37.596,30.731 37.036,30.651 C 36.481,30.571 35.814,30.561 35.168,30.889 Z" fill="rgb(166, 168, 170)"/>
<path d="M 16.814999999999998,23.314999999999998 C 16.515,23.332 16.226,23.371 15.96,23.459 C 15.644,23.563 15.31,23.746 15.084,24.034 C 14.832,24.354 14.635,24.855 14.627,25.467 V 25.551 C 14.632,25.981 14.731,26.461 14.961,26.968 C 15.246,27.588 15.831,28.308 16.646,29.066 C 17.066,29.456 17.567,29.869 18.169,30.282 C 18.529,30.531 19.093,30.792 19.525,31.057 C 19.525,31.057 25.869,29.964 28.255,30.41 C 29.069,30.564 29.104,30.895 29.104,30.895 S 29.164,30.491 28.484,29.835 A 13.715,13.715 0 0,0 26.376,28.206 C 25.673,27.764 25.094,27.306 24.256,26.778 C 24.158,26.718 19.707,23.331 16.825,23.331 Z" fill="url(#o)"/>
<path d="M 10.293000000000001,17.636 C 10.303,17.696 12.371,20.9 17.103,23.101 C 17.103,23.116 13.762,23.104 8.523,19.665 C 8.538,19.695 10.786,22.159 14.515,23.024 C 14.493,23.023 14.418,23.033 14.292,23.041 C 13.616,23.086 11.443,23.129 8.043,21.685 C 8.074,21.7 9.375,23.112 14.437,23.872 C 14.45,23.867 14.264,23.94 13.884,24.012 C 13.027,24.172 11.198,24.334 8.551,23.621 C 8.581,23.637 10.029,24.549 14.147,24.787 C 14.147,24.801 12.523,25.478 9.494,25.121 C 9.55,25.131 11,25.639 14.164,25.668 C 14.192,25.668 12.846,26.234 10.414,26.114 C 10.475,26.174 12.644,26.654 14.331,26.594 C 14.344,26.608 13.283,27.447 11.357,27.253 C 11.357,27.269 12.625,27.786 14.057,27.665 C 14.088,27.695 15.664,29.65 16.585,29.557 C 16.723,29.557 16.8,29.631 16.852,29.73 C 16.911,29.837 16.978,29.875 17.132,29.88 C 17.16,29.881 17.187,29.883 17.209,29.88 C 17.316,29.875 17.378,29.869 17.461,30.02 C 17.549,30.179 17.549,30.203 17.79,30.21 C 18.02,30.22 18.066,30.306 18.119,30.393 C 18.209,30.543 18.289,30.619 18.476,30.605 C 18.67,30.605 18.771,30.667 18.839,30.789 C 18.907,30.912 19.134,31.2 19.525,31.057 C 19.525,31.057 15.125,28.357 14.766,26.037 C 14.646,25.183 14.703,23.29 16.97,23.459 C 19.24,23.628 22.248,25.53 22.437,25.669 L 19.815,22.979 S 15.281,22.069 10.303,17.651 Z" fill="url(#n)"/>
<path d="M 17.278,23.477 S 22.859,27.758 21.913,33.138 C 21.913,33.138 26.106,32.682 26.163,30.131 V 30.031 C 26.148,29.316 25.816,28.441 24.992,27.375 C 24.992,27.375 20.456,23.891 17.288,23.492 Z" fill="url(#m)"/>
<path d="M 12.266,15.046999999999999 S 10.624,16.649 18.266,22.623 C 20.833,24.608 25.767,28.736 28.989,28.696 C 29.727,28.656 30.017,28.451 28.929,28.08 C 27.91,27.733 25.229,26.423 23.866,24.181 C 23.657,23.725 22.633,23.446 21.012,22.365 C 21.012,22.365 14.386,18.435 12.276,15.062 Z" fill="rgb(254, 254, 253)"/>
<path d="M 12.290000000000001,15.349 C 12.291,15.369 12.293,15.791 12.428,16.178 C 12.674,16.885 13.499,18.318 15.798,20.262 C 18.903,22.888 22.288,25.483 24.038,26.578 C 25.788,27.673 27.726,28.355 28.702,28.435 C 29.312,28.435 28.222,28.045 28.222,28.045 S 26.795,27.609 24.629,25.908 C 24.487,25.793 24.194,25.505 23.826,25.127 C 23.584,24.874 23.376,24.485 22.426,23.872 A 39.443,39.443 0 0,1 20.892,22.84 C 19.845,22.112 13.637,18.005 12.612,15.955 C 12.544,15.837 12.322,15.511 12.3,15.364 Z" fill="url(#l)"/>
<path d="M 34.795,28.811 A 0.287,0.287 0 0,0 34.721,29.049 C 34.724,29.221 34.989,29.256 35.274,29.244 C 35.641,29.228 36.054,29.099 36.054,29.099 C 34.614,29.322 34.805,28.826 34.805,28.826 Z" fill="url(#k)"/>
<path d="M 23.91,35.232 C 22.248,36.071 21.99,35.347 21.99,35.347 S 21.842,35.568 21.885,35.822 C 21.89,35.85 21.87,36.382 22.905,36.117 C 23.21,36.039 23.24,36.049 23.608,35.905 C 24.018,35.743 23.921,35.247 23.921,35.247 Z" fill="url(#j)"/>
<path d="M 22.319999999999997,34.992 A 0.302,0.302 0 0,0 22.175,35.057 C 21.899,35.273 20.963,35.517 20.947,35.515 C 20.953,35.407 20.694,35.379 20.417,35.576 C 20.071,35.833 20.64,36 20.64,36 C 20.714,36.425 21.481,36.147 21.594,36.09 C 21.768,35.999 22.102,35.855 22.325,35.704 C 22.667,35.419 22.565,35.164 22.565,35.164 S 22.485,35.007 22.331,35.007 Z" fill="url(#i)"/>
<path d="M 23.942999999999998,34.979 C 23.284,35.47 22.657,35.424 22.643,35.439 C 22.669,35.413 22.68,35.337 22.687,35.303 A 0.353,0.353 0 0,0 22.686,35.173 C 22.638,34.908 22.34,34.923 22.148,34.998 A 1.24,1.24 0 0,0 21.918,35.122 C 21.603,35.33 20.918,35.413 20.908,35.408 C 20.903,35.216 20.508,35.429 20.518,35.419 C 20.238,35.319 20.502,35.038 20.502,35.038 C 19.795,35.198 20.2,35.632 20.2,35.628 C 20.11,35.728 20.264,35.861 20.28,35.852 C 20.315,36.089 20.622,36.118 20.611,36.118 C 20.733,36.347 21.109,36.345 21.309,36.276 C 21.462,36.226 21.84,36.064 21.872,36.06 C 22.056,36.351 22.625,36.251 22.817,36.215 C 23.129,36.153 23.437,36.085 23.72,35.935 C 24.192,35.683 24.007,35.047 23.953,34.995 Z M 23.249,35.979 C 23.181,35.995 22.999,35.949 22.976,35.806 C 22.982,35.806 22.854,35.936 23.028,36.034 C 23.024,36.045 22.767,36.099 22.638,36.108 C 22.618,36.118 22.394,36.089 22.408,35.92 C 22.404,35.915 22.258,35.999 22.391,36.128 C 22.391,36.128 22.019,36.184 21.938,35.92 C 21.943,35.905 21.678,36.02 21.663,36.025 C 21.647,36.029 21.499,36.032 21.499,35.937 C 21.499,35.943 21.394,36.022 21.499,36.094 C 21.499,36.094 20.942,36.311 20.928,36.06 C 20.922,36.054 21.652,35.916 22.325,35.44 C 22.32,35.433 21.897,35.667 21.682,35.717 C 21.64,35.727 21.419,35.677 21.424,35.533 C 21.424,35.519 21.234,35.628 21.484,35.785 L 21.358,35.835 L 21.224,35.875 S 20.992,35.866 20.964,35.689 C 20.957,35.689 20.8,35.827 21.04,35.936 C 21.04,35.936 20.608,36.116 20.404,35.813 C 20.33,35.7 20.479,35.569 20.604,35.519 C 20.728,35.469 20.904,35.438 20.878,35.571 C 20.89,35.566 21.743,35.405 22.136,35.173 C 22.381,35.028 22.696,35.221 22.354,35.677 C 22.345,35.687 23.006,35.794 23.868,35.313 C 23.868,35.318 24.015,35.801 23.249,35.979 Z" fill="rgb(38, 10, 2)"/>
<path d="M 21.944999999999997,35.795 S 21.992,35.871 22.201,35.783 C 22.201,35.78 22.028,35.789 21.99,35.679 C 21.99,35.676 21.906,35.759 21.955,35.81 Z"/>
<path d="M 34.785000000000004,31.047 S 36.239,31.816 40.845,30.978 C 40.845,30.978 41.791,30.798 42.887,30.858 C 42.887,30.858 45.896,31.142 48.416,30.34 C 48.416,30.34 45.706,30.847 43.544,30.68 C 43.544,30.68 42.065,30.468 40.844,30.747 C 40.844,30.747 36.773,31.552 35.033,30.833 L 34.795,31.063 Z" fill="rgb(254, 254, 253)"/>
<path d="M 12.287,15.350999999999999 S 14.307,18.868 23.28,23.91 C 23.484,24.014 23.678,24.153 23.797,24.352 C 23.937,24.585 24.057,24.822 24.217,25.042 C 24.483,25.409 24.793,25.747 25.113,26.064 C 25.475,26.419 25.865,26.744 26.276,27.041 C 26.54,27.229 26.916,27.438 27.2,27.594 C 27.18,27.594 25.21,26.807 23.28,24.604 C 22.886,24.18 21.465,23.343 21.389,23.294 C 21.337,23.26 12.858,17.745 12.297,15.366 Z" fill="rgb(166, 168, 170)"/>
<defs>
<linearGradient id="a" x1="33.961" x2="39.527" y1="28.839" y2="27.974" gradientUnits="userSpaceOnUse">
<stop stop-color="rgb(254, 241, 2)" offset=".116"/>
<stop stop-color="rgb(254, 233, 2)" offset=".24"/>
<stop stop-color="rgb(254, 216, 2)" offset=".438"/>
<stop stop-color="rgb(253, 188, 15)" offset=".686"/>
<stop stop-color="rgb(247, 151, 27)" offset=".97"/>
</linearGradient>
<linearGradient id="r" x1="10.418" x2="68.147" y1="9.712" y2="76.017" gradientUnits="userSpaceOnUse">
<stop stop-color="rgb(25, 29, 31)" offset="0"/>
<stop stop-color="rgb(5, 5, 8)" offset="1"/>
</linearGradient>
<linearGradient id="j" x1="19.459" x2="26.432" y1="36.592" y2="35.019" gradientUnits="userSpaceOnUse">
<stop stop-color="rgb(192, 38, 43)" offset=".177"/>
<stop stop-color="rgb(246, 146, 28)" offset=".453"/>
<stop stop-color="rgb(248, 156, 26)" offset=".491"/>
<stop stop-color="rgb(253, 191, 13)" offset=".658"/>
</linearGradient>
<linearGradient id="k" x1="34.534" x2="37.56" y1="29.204" y2="28.713" gradientUnits="userSpaceOnUse">
<stop stop-color="rgb(246, 146, 28)" offset="0"/>
<stop stop-color="rgb(246, 142, 28)" offset=".197"/>
<stop stop-color="rgb(241, 100, 32)" offset="1"/>
</linearGradient>
<linearGradient id="f" x1="26.715" x2="51.673" y1="33.354" y2="33.354" gradientUnits="userSpaceOnUse">
<stop stop-color="rgb(150, 26, 28)" offset=".005"/>
<stop stop-color="rgb(192, 38, 43)" offset=".177"/>
<stop stop-color="rgb(246, 146, 28)" offset=".453"/>
<stop stop-color="rgb(248, 156, 26)" offset=".491"/>
<stop stop-color="rgb(253, 191, 13)" offset=".658"/>
<stop stop-color="rgb(254, 217, 2)" offset=".804"/>
<stop stop-color="rgb(254, 233, 2)" offset=".923"/>
<stop stop-color="rgb(254, 241, 2)" offset="1"/>
</linearGradient>
<linearGradient id="e" x1="27.984" x2="46.675" y1="36.183" y2="31.425" gradientUnits="userSpaceOnUse">
<stop stop-color="rgb(150, 26, 28)" offset=".005"/>
<stop stop-color="rgb(192, 38, 43)" offset=".177"/>
<stop stop-color="rgb(246, 146, 28)" offset=".453"/>
<stop stop-color="rgb(248, 156, 26)" offset=".491"/>
<stop stop-color="rgb(253, 191, 13)" offset=".658"/>
<stop stop-color="rgb(254, 217, 2)" offset=".804"/>
<stop stop-color="rgb(254, 233, 2)" offset=".923"/>
<stop stop-color="rgb(254, 241, 2)" offset="1"/>
</linearGradient>
<linearGradient id="l" x1="19.309" x2="20.605" y1="23.931" y2="22.168" gradientUnits="userSpaceOnUse">
<stop stop-color="rgb(242, 242, 241)" offset=".145"/>
<stop stop-color="rgb(212, 214, 214)" offset=".511"/>
<stop stop-color="rgb(194, 196, 197)" offset=".809"/>
<stop stop-color="rgb(187, 189, 190)" offset="1"/>
</linearGradient>
<linearGradient id="c" x1="21.378" x2="34.875" y1="35.992" y2="30.563" gradientUnits="userSpaceOnUse">
<stop stop-color="rgb(150, 26, 28)" offset=".005"/>
<stop stop-color="rgb(192, 38, 43)" offset=".177"/>
<stop stop-color="rgb(246, 146, 28)" offset=".453"/>
<stop stop-color="rgb(248, 156, 26)" offset=".491"/>
<stop stop-color="rgb(253, 191, 13)" offset=".658"/>
<stop stop-color="rgb(254, 217, 2)" offset=".804"/>
<stop stop-color="rgb(254, 241, 2)" offset="1"/>
</linearGradient>
<linearGradient id="b" x1="32.246" x2="39.024" y1="32.078" y2="27.333" gradientUnits="userSpaceOnUse">
<stop stop-color="rgb(243, 244, 243)" offset="0"/>
<stop offset="1"/>
</linearGradient>
<linearGradient id="q" x1="35.12" x2="37.565" y1="28.999" y2="28.602" gradientUnits="userSpaceOnUse">
<stop stop-color="rgb(246, 146, 28)" offset="0"/>
<stop stop-color="rgb(246, 142, 28)" offset=".197"/>
<stop stop-color="rgb(244, 129, 30)" offset=".475"/>
<stop stop-color="rgb(242, 107, 31)" offset=".801"/>
<stop stop-color="rgb(241, 100, 32)" offset=".878"/>
</linearGradient>
<linearGradient id="p" x1="35.175" x2="51.827" y1="30.027" y2="30.027" gradientUnits="userSpaceOnUse">
<stop stop-color="rgb(247, 247, 247)" offset=".034"/>
<stop stop-color="rgb(214, 215, 216)" offset=".455"/>
<stop stop-color="rgb(194, 196, 197)" offset=".791"/>
<stop stop-color="rgb(187, 189, 190)" offset="1"/>
</linearGradient>
<linearGradient id="o" x1="15.941" x2="36.016" y1="25.541" y2="31.111" gradientUnits="userSpaceOnUse">
<stop stop-color="rgb(192, 38, 43)" offset=".005"/>
<stop stop-color="rgb(207, 77, 41)" offset=".057"/>
<stop stop-color="rgb(222, 108, 37)" offset=".118"/>
<stop stop-color="rgb(234, 129, 33)" offset=".174"/>
<stop stop-color="rgb(242, 142, 30)" offset=".223"/>
<stop stop-color="rgb(246, 146, 28)" offset=".26"/>
<stop stop-color="rgb(251, 174, 21)" offset=".368"/>
<stop stop-color="rgb(254, 198, 7)" offset=".482"/>
<stop stop-color="rgb(254, 216, 2)" offset=".6"/>
<stop stop-color="rgb(254, 228, 2)" offset=".722"/>
</linearGradient>
<linearGradient id="n" x1="8.045" x2="22.452" y1="24.418" y2="24.418" gradientUnits="userSpaceOnUse">
<stop stop-color="rgb(59, 35, 19)" offset=".039"/>
<stop stop-color="rgb(166, 50, 34)" offset=".155"/>
<stop stop-color="rgb(201, 42, 35)" offset=".276"/>
<stop stop-color="rgb(236, 27, 34)" offset=".541"/>
<stop stop-color="rgb(253, 193, 49)" offset=".95"/>
</linearGradient>
<linearGradient id="m" x1="17.286" x2="26.166" y1="28.311" y2="28.311" gradientUnits="userSpaceOnUse">
<stop stop-color="rgb(150, 26, 28)" offset=".005"/>
<stop stop-color="rgb(192, 38, 43)" offset=".177"/>
<stop stop-color="rgb(246, 146, 28)" offset=".453"/>
<stop stop-color="rgb(247, 153, 26)" offset=".53"/>
<stop stop-color="rgb(250, 169, 23)" offset=".652"/>
<stop stop-color="rgb(254, 196, 9)" offset=".804"/>
<stop stop-color="rgb(254, 234, 2)" offset=".978"/>
<stop stop-color="rgb(254, 241, 2)" offset="1"/>
</linearGradient>
<linearGradient id="i" x1="19.409" x2="26.538" y1="36.159" y2="34.55" gradientUnits="userSpaceOnUse">
<stop stop-color="rgb(150, 26, 28)" offset=".005"/>
<stop stop-color="rgb(192, 38, 43)" offset=".177"/>
<stop stop-color="rgb(246, 146, 28)" offset=".453"/>
</linearGradient>
<radialGradient id="d" cx="0" cy="0" r="1" gradientTransform="matrix(40.205 0 0 40.1 43.168 18.86)" gradientUnits="userSpaceOnUse">
<stop stop-color="rgb(254, 225, 2)" offset=".268"/>
<stop stop-color="rgb(254, 209, 34)" offset=".397"/>
<stop stop-color="rgb(253, 193, 49)" offset=".494"/>
<stop stop-color="rgb(247, 152, 43)" offset=".539"/>
<stop stop-color="rgb(236, 27, 34)" offset=".637"/>
<stop stop-color="rgb(201, 42, 35)" offset=".681"/>
<stop stop-color="rgb(59, 35, 19)" offset=".857"/>
</radialGradient>
<radialGradient id="g" cx="0" cy="0" r="1" gradientTransform="matrix(26.868 0 0 26.798 6.467 35.996)" gradientUnits="userSpaceOnUse">
<stop stop-color="rgb(168, 32, 35)" offset=".29"/>
<stop stop-color="rgb(152, 27, 29)" offset=".382"/>
<stop stop-color="rgb(150, 26, 28)" offset=".387"/>
<stop stop-color="rgb(145, 28, 28)" offset=".437"/>
<stop stop-color="rgb(127, 30, 26)" offset=".511"/>
<stop stop-color="rgb(101, 29, 24)" offset=".6"/>
<stop stop-color="rgb(69, 22, 18)" offset=".7"/>
</radialGradient>
<radialGradient id="h" cx="0" cy="0" r="1" gradientTransform="matrix(21.755 0 0 21.698 36.405 33.327)" gradientUnits="userSpaceOnUse">
<stop stop-color="rgb(253, 193, 49)" offset=".494"/>
<stop stop-color="rgb(247, 152, 43)" offset=".539"/>
<stop stop-color="rgb(236, 27, 34)" offset=".637"/>
<stop stop-color="rgb(201, 42, 35)" offset=".681"/>
<stop stop-color="rgb(59, 35, 19)" offset=".857"/>
</radialGradient>
</defs>
</svg>
