<?xml version="1.0" encoding="UTF-8"?>
<!-- generated by Finnhub -->
<svg viewBox="0 0 55.5 55.5" xmlns="http://www.w3.org/2000/svg">
<path d="M 0,0 H 55.5 V 55.5 H 0 Z" fill="url(#a)"/>
<path d="M 8.848,28.230999999999998 C 9.801,28.452 10.602,29.413 10.452,30.318 C 10.329,31.063 9.69,31.569 9.223,31.753 C 8.827,31.91 8.223,32 7.41,32 H 4 V 31.785 H 4.271 C 4.698,31.785 5.045,31.53 5.045,31.111 V 26.278 C 5.045,25.816 4.995,25.523 4.891,25.403 C 4.753,25.241 4.545,25.16 4.273,25.16 H 4 V 24.955 H 7.121 C 7.704,24.955 8.172,25 8.523,25.088 C 9.168,25.248 10.121,25.8 10.121,26.571 C 10.121,27.406 9.639,27.981 8.857,28.246 Z M 6.001,27.946 C 6.001,27.973 6.348,27.991 6.518,28.004 C 7.075,28.049 7.726,28.082 8.244,27.85 C 8.764,27.622 9.058,27.274 9.058,26.619 C 8.986,25.617 7.688,25.326 7.027,25.326 C 6.67,25.326 6.287,25.365 6.001,25.446 V 27.946 Z M 6,31.447 C 6.413,31.547 6.886,31.597 7.286,31.597 C 7.93,31.597 8.419,31.446 8.758,31.146 C 9.588,30.406 9.213,29.052 8.289,28.637 C 7.714,28.378 7.064,28.392 6.445,28.415 C 6.289,28.423 6.097,28.435 6.001,28.455 L 6,31.447 Z M 12.996,23.987 V 30.863 C 12.996,31.179 13.02,31.389 13.064,31.491 C 13.107,31.594 13.177,31.672 13.269,31.725 C 13.361,31.777 13.533,31.806 13.785,31.806 V 32.004 H 11.294 V 31.806 C 11.517,31.806 11.67,31.782 11.75,31.733 A 0.466,0.466 0 0,0 11.943,31.495 C 11.988,31.386 12.011,31.175 12.011,30.863 V 26.273 C 12.011,25.702 11.999,25.352 11.975,25.223 C 11.95,25.092 11.91,25.002 11.855,24.955 A 0.307,0.307 0 0,0 11.645,24.883 A 0.934,0.934 0 0,0 11.294,24.972 L 11.202,24.777 L 12.758,23.988 H 12.996 Z M 17.006,31.17 C 16.506,31.571 16.303,31.803 16.174,31.865 C 15.984,31.958 15.78,32.005 15.564,32.005 C 15.225,32.005 14.947,31.885 14.729,31.645 C 14.51,31.405 14.401,31.091 14.401,30.702 C 14.401,30.455 14.454,30.242 14.561,30.061 C 14.706,29.813 14.959,29.577 15.319,29.356 C 15.679,29.136 16.167,28.873 17.005,28.556 V 28.357 C 17.005,27.854 16.929,27.507 16.775,27.32 C 16.62,27.134 16.507,27.033 16.212,27.033 C 15.988,27.033 15.81,27.096 15.68,27.222 A 0.57,0.57 0 0,0 15.477,27.652 L 15.488,27.971 C 15.488,28.141 15.446,28.271 15.363,28.363 A 0.42,0.42 0 0,1 15.036,28.5 A 0.409,0.409 0 0,1 14.711,28.357 A 0.577,0.577 0 0,1 14.586,27.966 C 14.586,27.649 14.742,27.36 15.056,27.094 C 15.369,26.83 15.806,26.696 16.372,26.696 C 16.806,26.696 17.16,26.771 17.438,26.922 C 17.648,27.037 17.802,27.216 17.902,27.459 C 17.966,27.617 17.997,27.939 17.997,28.429 V 30.143 C 17.997,30.626 18.007,30.921 18.024,31.031 C 18.042,31.138 18.071,31.211 18.111,31.247 A 0.206,0.206 0 0,0 18.253,31.303 A 0.273,0.273 0 0,0 18.403,31.264 C 18.477,31.217 18.778,31.159 18.991,30.938 V 31.247 C 18.594,31.799 18.057,31.997 17.693,31.997 C 17.52,31.997 17.269,31.936 17.165,31.809 C 17.061,31.685 17.009,31.471 17.005,31.169 Z M 17.006,30.86 V 28.934 C 16.469,29.156 16.236,29.265 16.08,29.356 C 15.798,29.516 15.599,29.686 15.479,29.864 A 0.994,0.994 0 0,0 15.297,30.443 C 15.297,30.707 15.372,30.927 15.525,31.103 C 15.678,31.275 15.855,31.363 16.053,31.363 C 16.324,31.365 16.565,31.227 17.005,30.859 Z M 23.549,29.923 C 23.419,30.589 23.161,31.101 22.776,31.46 C 22.393,31.819 21.969,31.998 21.504,31.998 C 20.949,31.998 20.464,31.758 20.054,31.274 C 19.641,30.793 19.436,30.144 19.436,29.322 C 19.436,28.527 19.665,27.882 20.121,27.386 C 20.578,26.889 21.125,26.641 21.763,26.641 C 22.243,26.641 22.638,26.772 22.947,27.035 C 23.257,27.298 23.411,27.571 23.411,27.855 C 23.411,27.995 23.367,28.108 23.281,28.195 A 0.499,0.499 0 0,1 22.915,28.325 C 22.705,28.325 22.547,28.255 22.44,28.115 C 22.38,28.037 22.34,27.889 22.322,27.673 C 22.302,27.456 22.229,27.291 22.105,27.176 C 21.98,27.066 21.809,27.012 21.589,27.012 A 1.04,1.04 0 0,0 20.731,27.418 C 20.444,27.779 20.299,28.256 20.299,28.847 C 20.299,29.45 20.441,29.983 20.729,30.444 C 21.014,30.905 21.399,31.137 21.887,31.137 C 22.234,31.137 22.547,31.014 22.823,30.767 C 23.02,30.597 23.209,30.291 23.394,29.845 L 23.549,29.923 Z M 26.019,24.017 V 29.191 C 26.425,28.671 26.979,28.176 27.329,27.627 A 0.238,0.238 0 0,0 27.371,27.495 A 0.254,0.254 0 0,0 27.283,27.302 C 27.225,27.25 27.129,27.22 26.993,27.212 V 27.035 L 29.239,27.026 V 27.203 A 1.94,1.94 0 0,0 28.514,27.341 A 2.303,2.303 0 0,0 27.876,27.795 L 26.87,28.887 L 27.851,30.526 C 28.201,30.98 28.435,31.266 28.555,31.388 C 28.725,31.56 28.875,31.672 29.003,31.724 C 29.092,31.761 29.246,31.78 29.466,31.78 V 31.978 L 26.968,31.988 V 31.79 C 27.104,31.785 27.195,31.763 27.242,31.726 A 0.196,0.196 0 0,0 27.315,31.562 C 27.315,31.477 27.244,31.342 27.102,31.155 L 26.019,29.191 V 30.867 C 26.019,31.195 26.042,31.411 26.086,31.513 A 0.424,0.424 0 0,0 26.275,31.733 C 26.357,31.778 26.427,31.803 26.7,31.807 V 32.005 L 24,31.987 V 31.79 C 24.25,31.79 24.615,31.758 24.739,31.695 A 0.396,0.396 0 0,0 24.91,31.507 C 24.963,31.387 24.99,31.175 24.99,30.878 V 26.28 C 24.99,25.695 24.978,25.336 24.954,25.207 C 24.929,25.077 24.887,24.987 24.83,24.936 A 0.328,0.328 0 0,0 24.607,24.863 A 0.944,0.944 0 0,0 24.273,24.957 L 24.182,24.762 L 25.776,24.018 H 26.019 Z M 32.987,26.795 V 28.515 H 32.81 C 32.675,27.975 32.503,27.608 32.292,27.413 C 32.079,27.219 31.81,27.121 31.484,27.121 C 31.234,27.121 31.035,27.189 30.883,27.326 C 30.73,27.462 30.653,27.612 30.653,27.778 C 30.653,27.984 30.71,28.16 30.823,28.308 C 30.933,28.458 31.157,28.618 31.495,28.788 L 32.271,29.18 C 32.993,29.543 33.354,30.023 33.354,30.62 C 33.354,31.08 33.186,31.449 32.85,31.731 A 1.707,1.707 0 0,1 31.724,32.153 C 31.424,32.153 31.084,32.098 30.701,31.988 A 1.025,1.025 0 0,0 30.413,31.933 C 30.331,31.933 30.268,31.98 30.22,32.077 H 30.045 V 30.272 H 30.22 C 30.32,30.786 30.511,31.174 30.79,31.436 C 31.07,31.697 31.386,31.828 31.733,31.828 A 0.83,0.83 0 0,0 32.333,31.605 C 32.488,31.455 32.563,31.275 32.563,31.067 A 0.867,0.867 0 0,0 32.305,30.427 C 32.135,30.253 31.791,30.035 31.275,29.769 C 30.759,29.506 30.423,29.267 30.263,29.054 C 30.103,28.844 30.023,28.579 30.023,28.26 C 30.023,27.843 30.162,27.495 30.436,27.216 C 30.711,26.936 31.067,26.796 31.504,26.796 C 31.697,26.796 31.93,26.839 32.202,26.924 C 32.384,26.979 32.504,27.008 32.564,27.008 A 0.208,0.208 0 0,0 32.699,26.968 A 0.562,0.562 0 0,0 32.809,26.797 H 32.987 V 26.795 Z M 36.005,25.015 V 27.008 H 37.145 V 27.394 H 36.005 V 30.591 C 36.005,30.919 36.051,31.139 36.141,31.252 A 0.419,0.419 0 0,0 36.488,31.424 A 0.6,0.6 0 0,0 36.83,31.311 A 0.738,0.738 0 0,0 37.087,30.978 H 37.294 C 37.168,31.338 36.994,31.608 36.766,31.791 C 36.54,31.974 36.304,32.064 36.063,32.064 C 35.298,32.064 35,31.323 35,30.711 V 27.394 H 34.354 V 27.214 C 34.548,27.133 34.748,26.995 34.952,26.804 C 35.156,26.61 35.339,26.299 35.498,26.035 C 35.58,25.896 35.738,25.488 35.839,25.015 H 36.005 Z M 40.282,26.785 C 41.021,26.785 41.613,27.076 42.062,27.657 C 42.442,28.154 42.632,28.725 42.632,29.367 C 42.632,29.822 42.526,30.278 42.317,30.741 C 42.107,31.204 41.819,31.555 41.451,31.791 A 2.228,2.228 0 0,1 40.224,32.142 C 39.487,32.142 38.904,31.839 38.47,31.232 A 2.895,2.895 0 0,1 37.922,29.512 C 37.922,29.047 38.032,28.588 38.254,28.13 C 38.476,27.672 38.769,27.334 39.131,27.114 C 39.492,26.895 39.876,26.785 40.281,26.785 Z M 40.116,27.145 C 39.929,27.145 39.74,27.201 39.55,27.317 C 39.36,27.435 39.205,27.637 39.089,27.927 C 38.971,28.217 38.913,28.591 38.913,29.047 C 38.913,29.783 39.054,30.417 39.336,30.95 C 39.618,31.483 39.99,31.75 40.453,31.75 C 40.796,31.75 41.08,31.604 41.305,31.31 C 41.529,31.014 41.64,30.51 41.64,29.793 C 41.64,28.893 41.455,28.188 41.08,27.674 C 40.83,27.32 40.507,27.145 40.116,27.145 Z M 44.774,27.857 C 45.345,27.143 46.1,26.785 46.619,26.785 C 47.149,26.785 47.714,27.17 47.896,27.674 C 47.974,27.894 48.011,28.233 48.011,28.689 V 30.846 C 48.011,31.165 48.037,31.384 48.088,31.496 A 0.45,0.45 0 0,0 48.277,31.713 C 48.362,31.763 48.525,31.79 48.759,31.79 V 31.988 H 46.214 V 31.79 H 46.316 C 46.543,31.79 46.704,31.752 46.792,31.68 A 0.558,0.558 0 0,0 46.982,31.364 C 46.996,31.31 47.002,31.137 47.002,30.846 V 28.776 C 47.002,28.318 46.945,27.984 46.83,27.776 C 46.714,27.568 46.519,27.466 46.247,27.466 C 45.825,27.466 45.193,27.704 44.775,28.182 V 30.847 C 44.775,31.187 44.793,31.399 44.834,31.479 A 0.49,0.49 0 0,0 45.038,31.714 C 45.125,31.764 45.302,31.79 45.568,31.79 V 31.988 H 43.267 V 31.79 H 43.374 C 43.621,31.79 43.79,31.724 43.877,31.594 C 43.963,31.462 44.007,31.214 44.007,30.846 V 28.97 C 44.007,28.364 43.994,27.995 43.967,27.863 C 43.941,27.729 43.9,27.639 43.845,27.592 A 0.332,0.332 0 0,0 43.623,27.52 A 1,1 0 0,0 43.267,27.604 L 43.187,27.404 L 44.545,26.786 H 44.775 V 27.858 Z M 49.629,28.999 C 49.625,29.751 49.799,30.177 50.156,30.603 C 50.51,31.029 50.929,31.243 51.406,31.243 C 51.726,31.243 52.006,31.152 52.241,30.969 C 52.478,30.789 52.674,30.475 52.834,30.035 L 53,30.145 A 2.666,2.666 0 0,1 52.35,31.521 C 51.99,31.934 51.541,32.142 51.003,32.142 C 50.415,32.142 49.913,31.907 49.497,31.434 C 49.079,30.962 48.871,30.326 48.871,29.527 C 48.871,28.663 49.084,27.987 49.513,27.507 A 2.058,2.058 0 0,1 51.124,26.78 C 51.672,26.78 52.121,26.967 52.471,27.341 C 52.823,27.714 53,28.374 53,28.999 H 49.629 Z M 49.629,28.679 H 51.888 C 51.859,28.174 51.838,27.657 51.378,27.349 A 0.99,0.99 0 0,0 50.826,27.172 C 50.532,27.172 50.268,27.29 50.036,27.527 C 49.803,27.764 49.666,28.257 49.629,28.679 Z" fill="rgb(254, 254, 253)"/>
<defs>
<linearGradient id="a" x1="10.418" x2="68.147" y1="9.712" y2="76.017" gradientUnits="userSpaceOnUse">
<stop stop-color="rgb(25, 29, 31)" offset="0"/>
<stop stop-color="rgb(5, 5, 8)" offset="1"/>
</linearGradient>
</defs>
</svg>
