<?xml version="1.0" encoding="UTF-8"?>
<!-- generated by Finnhub -->
<svg viewBox="0 0 55.5 55.5" xmlns="http://www.w3.org/2000/svg">
<path d="M 0,0 H 55.5 V 55.5 H 0 Z" fill="url(#a)"/>
<path d="M 38.52,28.165 L 38.475,28.185 A 9.154,9.154 0 0,1 38.006,28.218 H 37.981 A 13.185,13.185 0 0,1 37.534,28.228 H 37.526 C 37.436,28.228 37.345,28.227 37.254,28.224 C 37.235,28.224 37.217,28.222 37.199,28.221 A 9.164,9.164 0 0,1 36.959,28.209 C 36.945,28.209 36.932,28.207 36.919,28.206 A 9.27,9.27 0 0,1 36.338,28.148 L 36.319,28.145 L 36.303,28.144 C 35.316,28.01 34.391,27.73 33.505,27.405 L 33.495,27.401 L 33.159,27.266 L 32.45,26.97 C 31.64,26.63 30.802,26.278 29.941,26.006 A 7.004,7.004 0 0,0 27.969,25.68 H 27.918 L 27.902,25.679 H 27.897 C 27.577,25.669 27.257,25.687 26.94,25.735 A 7.558,7.558 0 0,0 25.826,25.961 C 25.937,25.82 26.047,25.677 26.154,25.533 C 26.358,25.261 26.518,24.916 26.642,24.479 C 26.686,24.325 26.789,23.967 26.663,23.611 C 26.687,23.59 26.71,23.567 26.735,23.546 C 26.935,23.418 27.119,23.266 27.282,23.093 A 8.873,8.873 0 0,1 29.274,21.943 C 30.374,21.487 31.704,21.193 33.206,21.343 C 37.196,21.746 38.733,22.593 41.546,19.483 C 38.714,14.988 33.706,12 28,12 C 21.6,12 16.077,15.76 13.519,21.19 C 14.224,21.872 15.642,22.548 18.406,21.927 A 3.879,3.879 0 0,1 20.258,21.46 A 3.869,3.869 0 0,1 22.109,21.927 C 26.893,23.002 27.649,20.191 27.649,20.191 C 27.649,22.181 26.855,23.057 25.652,23.423 C 25.755,23.463 25.841,23.503 25.911,23.549 C 26.167,23.713 26.213,23.927 26.099,24.324 C 26.012,24.629 25.889,24.944 25.702,25.195 C 25.245,25.809 24.74,26.387 24.254,26.98 C 24.251,26.984 24.249,26.982 24.25,26.996 C 24.26,27.095 24.345,27.144 24.435,27.102 L 24.513,27.064 C 25.332,26.669 26.166,26.401 27.015,26.294 A 6.42,6.42 0 0,1 29.771,26.546 C 30.852,26.886 31.893,27.357 32.944,27.789 L 33.287,27.927 C 34.247,28.311 35.223,28.638 36.263,28.707 A 9.55,9.55 0 0,0 37.533,28.794 C 37.876,28.794 38.279,28.778 38.599,28.748 C 38.602,29.474 38.602,30.2 38.599,30.924 V 38.064 A 0.732,0.732 0 0,1 37.849,38.822 C 37.464,38.812 37.159,38.49 37.137,38.106 L 37.089,37.245 A 13.702,13.702 0 0,0 35.888,33.172 L 35.193,35.376 C 34.965,36.097 34.741,36.808 34.518,37.52 L 34.268,38.361 A 0.657,0.657 0 0,1 33.39,38.781 A 0.648,0.648 0 0,1 32.991,38.122 S 33.423,34.562 33.222,32.686 C 31.4,33.84 29.416,34.291 27.294,34.326 L 27.13,38.075 V 38.155 A 0.677,0.677 0 0,1 26.391,38.83 A 0.697,0.697 0 0,1 25.777,38.217 L 25.62,37.094 L 25.218,34.512 H 25.128 L 24.775,37.026 L 24.633,38.19 A 0.693,0.693 0 0,1 23.82,38.788 A 0.708,0.708 0 0,1 23.252,38.112 L 23.197,36.749 C 23.152,35.822 23.107,34.909 23.057,33.997 C 23.052,33.9 22.97,33.804 22.911,33.715 L 22.903,33.702 A 10.05,10.05 0 0,1 21.657,31.035 C 21.457,30.363 21.257,29.69 21.06,29.017 C 21.582,28.815 22.071,28.425 22.139,28.312 C 22.208,28.198 22.069,28.075 21.935,28.156 C 21.781,28.252 21.355,28.426 21.154,28.443 C 20.674,28.484 20.189,28.468 19.706,28.462 C 19.116,28.454 18.746,28.072 18.724,27.481 C 18.716,27.236 18.734,26.971 18.648,26.752 C 18.295,25.846 18.043,24.922 18.026,23.944 C 18.022,23.754 17.962,23.671 17.828,23.646 C 17.46,23.659 17.098,23.666 16.751,23.661 C 15.116,23.637 13.759,23.334 13.175,21.974 A 15.95,15.95 0 0,0 12,28 C 12,36.837 19.164,44 28,44 C 36.837,44 44,36.836 44,28 C 44,27.294 43.954,26.6 43.865,25.918 C 42.702,26.891 40.927,27.945 38.531,28.18" fill="rgb(116, 192, 82)"/>
<defs>
<linearGradient id="a" x1="10.418" x2="68.147" y1="9.712" y2="76.017" gradientUnits="userSpaceOnUse">
<stop stop-color="rgb(25, 29, 31)" offset="0"/>
<stop stop-color="rgb(5, 5, 8)" offset="1"/>
</linearGradient>
</defs>
</svg>
