<?xml version="1.0" encoding="UTF-8"?>
<!-- generated by Finnhub -->
<svg viewBox="0 0 55.5 55.5" xmlns="http://www.w3.org/2000/svg">
<path d="M 0,0 H 55.5 V 55.5 H 0 Z" fill="rgb(1, 57, 112)"/>
<path d="M 20.278,32.442 L 20.222,32.526 C 19.154,33.593 17.857,33.818 16.583,33.818 C 13.923,33.818 12.049,32.2 12.049,29.502 C 12.049,26.797 13.922,24.734 16.583,24.734 C 17.857,24.734 19.154,25.402 20.223,26.476 L 20.288,26.536 L 22,24.508 L 21.958,24.456 C 20.534,22.806 18.825,22 16.728,22 C 14.62,22 12.695,22.694 11.3,23.95 C 9.794,25.313 9,27.228 9,29.501 C 9,31.77 9.794,33.685 11.3,35.046 C 12.695,36.31 14.62,37 16.728,37 C 18.825,37 20.533,36.197 21.958,34.543 L 22,34.489 L 20.288,32.457 Z M 27,22 H 24 V 37 H 27 V 22 Z M 38.516,33.696 C 37.716,34.161 37.327,34.353 36.116,34.353 C 35.147,34.353 35,33.543 35,32.817 V 25 H 38 V 22.014 L 35,22 V 18 L 32,19.5 V 22 H 29 V 25 H 32 V 33.266 C 32,35.421 33.512,36.96 35.5,37 C 36.85,37.025 37.444,36.6 37.935,36.312 L 37.967,36.294 L 38.687,33.591 L 38.516,33.696 Z M 43,22 H 40 V 37 H 43 V 22 Z" fill="rgb(239, 242, 248)"/>
<path d="M 44.99,18.985 C 42.544,15.338 38.014,12.997 33.174,13 C 28.41,13.002 24.153,15.262 21.617,19 H 25 C 27.31,16.633 30.025,15.687 33.174,15.687 C 36.264,15.685 39.688,16.633 42,19 H 45 Z" fill="rgb(236, 26, 44)"/>
</svg>
