<?xml version="1.0" encoding="UTF-8"?>
<!-- generated by Finnhub -->
<svg viewBox="0 0 55.5 55.5" xmlns="http://www.w3.org/2000/svg">
<path d="M 0,0 H 55.5 V 55.5 H 0 Z" fill="rgb(239, 242, 248)"/>
<path d="M 11.49,31.285 L 10.6,31.77 C 10.26,31.27 9.75,31 9,31 C 7.64,31 7,31.88 7,33 C 7,34.17 7.86,35 9,35 A 1.9,1.9 0 0,0 10.6,34.26 L 11.46,34.78 A 2.88,2.88 0 0,1 9.02,36 A 2.88,2.88 0 0,1 6,33 C 6,31.26 7.23,30 9.01,30 A 2.8,2.8 0 0,1 11.5,31.3 Z" fill="rgb(35, 31, 30)"/>
<path d="M 14.99,35.985 C 16.74,36 18,34.73 18,33 S 16.74,30 15,30 A 2.9,2.9 0 0,0 12,33 C 12,34.73 13.26,36 15,36 Z M 15,35 A 2,2 0 1,0 15,31 A 2,2 0 0,0 15,35 Z" fill="rgb(35, 31, 30)" fill-rule="evenodd"/>
<path d="M 23.99,35.985 H 23 L 20,32 V 36 H 19 V 30 H 20 L 23,34 V 30 H 24 V 36 Z M 27.53,33.6 H 29.38 L 28.51,31 L 27.53,33.6 Z M 31.55,36 H 30.45 L 29.82,34.5 H 27.1 L 26.55,36 H 25.46 L 27.86,30 H 29.2 L 31.56,36 Z M 45.98,33.6 H 47.84 L 46.96,31 L 45.98,33.6 Z M 50,36 H 48.9 L 48.27,34.5 H 45.55 L 45,36 H 43.9 L 46.3,30 H 47.64 L 50,36 Z M 35,32.7 V 33.5 H 36.88 C 36.88,34.2 36.18,35 35,35 C 33.8,35 33,34.18 33,33 A 2,2 0 0,1 35,31 C 35.6,31 36.26,31.24 36.6,31.61 L 37.36,30.9 A 3.32,3.32 0 0,0 35,30 C 33.33,30 32,31.25 32,33 C 32,34.86 33.38,36 35,36 C 36.66,36 38,34.8 38,33.01 V 32.71 H 35 Z M 42,32 A 1,1 0 0,1 41.06,33 H 40 V 31 H 41.06 A 1,1 0 0,1 42,32 Z M 43,32 C 43,30.6 41.99,30 41.06,30 H 39 V 36 H 40 V 34 H 41.06 L 41.98,36 H 43 L 41.98,33.8 C 42.59,33.5 43,32.8 43,32 Z" fill="rgb(35, 31, 30)"/>
<path d="M 19.61,39.665 C 19.87,39.68 20.03,39.59 20.03,39.41 C 20.03,39.24 19.89,39.14 19.59,39.14 H 19 V 39.68 H 19.62 Z M 19.52,38.85 C 19.75,38.85 19.92,38.76 19.92,38.58 C 19.92,38.42 19.78,38.32 19.54,38.32 H 19 V 38.85 H 19.51 Z M 18.6,38.29 C 18.6,38.11 18.72,38 18.82,38 H 19.59 A 0.8,0.8 0 0,1 20.14,38.2 C 20.24,38.28 20.29,38.39 20.29,38.52 C 20.29,38.76 20.19,38.9 20.03,38.98 C 20.28,39.06 20.4,39.18 20.4,39.44 C 20.4,39.8 20.1,40 19.62,40 H 18.82 C 18.72,40 18.6,39.91 18.6,39.82 V 38.29 Z M 22.93,39 C 23.19,39 23.36,38.86 23.36,38.66 C 23.36,38.44 23.2,38.33 22.92,38.33 H 22.39 V 39 H 22.93 Z M 22,38.19 C 22,38.09 22.1,38 22.2,38 H 22.95 A 0.9,0.9 0 0,1 23.56,38.21 C 23.67,38.31 23.74,38.46 23.74,38.64 C 23.74,38.96 23.54,39.14 23.26,39.23 L 23.66,39.71 C 23.7,39.75 23.72,39.79 23.72,39.84 C 23.72,39.94 23.63,40 23.54,40 A 0.21,0.21 0 0,1 23.36,39.91 L 22.86,39.3 H 22.39 V 39.83 C 22.39,39.93 22.31,40 22.2,40 C 22.1,40 22,39.92 22,39.83 V 38.19 Z M 26.5,39.21 L 26.14,38.43 L 25.78,39.21 H 26.5 Z M 25.16,39.76 L 25.92,38.15 C 25.96,38.06 26.03,38 26.14,38 H 26.15 C 26.25,38 26.32,38.06 26.36,38.15 L 27.12,39.76 C 27.14,39.79 27.14,39.81 27.14,39.84 C 27.14,39.93 27.07,40 26.97,40 C 26.89,40 26.83,39.95 26.8,39.88 L 26.63,39.52 H 25.64 L 25.47,39.89 A 0.17,0.17 0 0,1 25.31,40 A 0.16,0.16 0 0,1 25.14,39.84 L 25.16,39.76 Z M 28.55,38.18 C 28.55,38.08 28.63,38 28.73,38 H 28.77 C 28.87,38 28.91,38.04 28.97,38.1 L 30,39.38 V 38.17 C 30,38.07 30.1,38 30.2,38 S 30.38,38.08 30.38,38.17 V 39.83 C 30.38,39.93 30.3,40 30.2,40 H 30.18 C 30.1,40 30.04,39.96 29.99,39.9 L 28.88,38.58 V 39.83 C 28.88,39.93 28.83,40 28.73,40 C 28.63,40 28.55,39.92 28.55,39.83 V 38.18 Z M 32.82,39.68 C 33.29,39.68 33.59,39.4 33.59,39.01 V 39 C 33.59,38.6 33.29,38.32 32.82,38.32 H 32.39 V 39.68 H 32.82 Z M 32,38.18 C 32,38.08 32.08,38 32.2,38 H 32.82 C 33.52,38 34,38.43 34,39 C 34,39.56 33.52,40 32.82,40 H 32.19 C 32.09,40 31.99,39.92 31.99,39.82 V 38.18 Z M 35.5,39.76 A 0.16,0.16 0 0,1 35.42,39.63 C 35.42,39.53 35.5,39.47 35.59,39.47 C 35.64,39.47 35.68,39.48 35.69,39.5 C 35.87,39.63 36.05,39.7 36.28,39.7 C 36.5,39.7 36.64,39.6 36.64,39.46 V 39.45 C 36.64,39.31 36.56,39.24 36.18,39.15 C 35.74,39.05 35.48,38.93 35.48,38.58 V 38.57 C 35.49,38.24 35.78,38 36.19,38 C 36.45,38 36.66,38.07 36.85,38.19 C 36.89,38.21 36.93,38.26 36.93,38.32 C 36.93,38.42 36.85,38.48 36.76,38.48 C 36.72,38.48 36.69,38.48 36.66,38.46 A 0.9,0.9 0 0,0 36.19,38.31 C 35.98,38.31 35.85,38.41 35.85,38.54 C 35.85,38.69 35.95,38.76 36.35,38.84 C 36.78,38.94 37,39.09 37,39.42 C 37,39.78 36.7,40 36.27,40 C 35.99,40 35.72,39.92 35.49,39.76 Z" fill="rgb(106, 203, 74)"/>
<path d="M 28.49,12.905 C 28.53,13.01 28.6,13.02 28.68,12.98 L 30.44,11.25 S 30.5,11.2 30.5,11.16 C 30.5,11.12 30.44,11.07 30.44,11.07 L 28.67,9.02 C 28.59,8.99 28.53,9 28.5,9.08 V 12.92 Z" fill="rgb(97, 186, 68)"/>
<path d="M 27.49,12.895 C 27.5,13.01 27.39,13.03 27.33,12.94 L 25.78,11.24 S 25.74,11.19 25.74,11.15 C 25.74,11.12 25.77,11.07 25.77,11.07 L 27.35,9.03 C 27.42,8.97 27.5,9.01 27.5,9.1 V 12.91 Z M 28.5,17.03 C 28.53,17.12 28.6,17.15 28.68,17.09 L 32.11,13.65 S 32.15,13.6 32.14,13.56 C 32.14,13.53 32.1,13.48 32.1,13.48 L 31,11.92 S 30.95,11.86 30.91,11.86 C 30.84,11.86 30.8,11.9 30.8,11.9 L 28.57,14.22 C 28.52,14.26 28.5,14.29 28.5,14.34 V 17.04 Z" fill="rgb(164, 206, 77)"/>
<path d="M 27.49,17.015 C 27.48,17.13 27.41,17.15 27.33,17.09 L 23.91,13.65 S 23.87,13.6 23.87,13.56 C 23.87,13.53 23.91,13.48 23.91,13.48 L 25.01,11.92 S 25.06,11.86 25.11,11.86 C 25.15,11.86 25.21,11.9 25.21,11.9 L 27.43,14.2 C 27.47,14.24 27.49,14.29 27.5,14.34 V 17.04 Z" fill="rgb(1, 120, 49)"/>
<path d="M 33.95,17.585 L 33.94,17.46 S 33.9,17.38 33.87,17.37 C 33.83,17.37 33.77,17.4 33.77,17.4 L 33.65,17.5 L 28.6,22.67 C 28.51,22.77 28.5,22.9 28.5,22.9 V 23.9 C 28.54,23.97 28.6,23.99 28.68,24 C 28.68,24 30.59,23.97 32.08,22.55 A 5.8,5.8 0 0,0 33.96,17.59 Z" fill="rgb(97, 186, 68)"/>
<path d="M 22.049999999999997,17.585 L 22.09,17.46 S 22.12,17.38 22.16,17.37 C 22.2,17.37 22.26,17.4 22.26,17.4 L 22.38,17.5 L 27.42,22.67 C 27.51,22.77 27.5,22.9 27.5,22.9 V 23.9 C 27.48,23.98 27.42,24 27.34,24 C 27.34,24 25.44,23.97 23.94,22.55 A 5.97,5.97 0 0,1 22,18.2 C 22,17.82 22.06,17.6 22.06,17.6 Z" fill="rgb(164, 206, 77)"/>
<path d="M 28.49,21.415 C 28.5,21.52 28.61,21.57 28.68,21.5 L 33.63,16.43 S 33.68,16.35 33.68,16.3 C 33.68,16.24 33.63,16.16 33.63,16.16 L 32.67,14.34 S 32.62,14.27 32.57,14.26 C 32.51,14.25 32.47,14.3 32.47,14.3 L 28.65,18.24 A 0.4,0.4 0 0,0 28.5,18.54 V 21.43 Z" fill="rgb(1, 120, 49)"/>
<path d="M 27.49,21.415 C 27.5,21.53 27.41,21.56 27.35,21.5 L 22.4,16.43 S 22.35,16.35 22.35,16.3 A 0.4,0.4 0 0,1 22.39,16.16 L 23.36,14.34 S 23.4,14.27 23.45,14.26 C 23.52,14.25 23.57,14.3 23.57,14.3 L 27.38,18.24 C 27.47,18.31 27.5,18.43 27.5,18.54 V 21.43 Z" fill="rgb(97, 186, 68)"/>
<path d="M 30.419999999999998,26.384999999999998 L 29,27.84 S 29.55,27.97 29.9,28 C 30.66,28.06 31.05,27.64 31.8,27.65 C 32.52,27.66 32.89,27.97 33.6,28 C 34.5,28.04 34.99,27.63 35.9,27.65 C 36.7,27.67 37.12,28 37.92,28 S 39.15,27.65 39.95,27.65 C 40.76,27.65 42,28 42,28 S 41.98,27.63 41.89,27.17 C 41.79,26.72 41.67,26.4 41.67,26.4 S 40.6,26 39.86,26 C 39.09,25.99 38.7,26.4 37.92,26.4 C 37.12,26.4 36.7,26.01 35.9,26 C 35.03,25.99 34.59,26.44 33.73,26.4 C 33.04,26.36 32.71,25.99 32.03,26 C 31.38,26.01 30.43,26.4 30.43,26.4 Z" fill="rgb(66, 196, 226)"/>
<path d="M 33.49,22.985 S 35.05,22.5 35.97,22.63 C 36.37,22.68 37.05,23 37.65,23 C 38.42,23 39.07,22.72 39,22.68 A 4.46,4.46 0 0,0 36.7,22 C 35.27,22 34.09,22.67 33.5,23 Z" fill="rgb(147, 214, 231)"/>
<path d="M 32.870000000000005,23.785 L 31.23,25.2 S 32.78,25.54 33.75,25.5 C 34.55,25.47 34.95,25.21 35.75,25.2 C 36.55,25.17 36.98,25.49 37.78,25.5 C 38.65,25.51 39.12,25.12 39.98,25.2 C 40.58,25.24 41.48,25.56 41.48,25.56 S 41.15,24.81 40.86,24.4 C 40.56,23.98 39.99,23.5 39.99,23.5 S 38.7,24 37.86,24 C 37.02,24 36.59,23.49 35.75,23.5 C 34.95,23.51 34.55,24.05 33.75,24 C 33.41,23.98 32.88,23.8 32.88,23.8 Z" fill="rgb(1, 125, 195)"/>
<path d="M 24.939999999999998,26.005 L 23.35,27.89 C 23.32,27.94 23.35,28 23.41,28 H 26.93 C 26.99,28 27.03,27.92 26.98,27.88 L 25.06,26.02 A 0.07,0.07 0 0,0 24.96,26.02 Z" fill="rgb(231, 43, 40)"/>
<path d="M 22.11,27.985 H 19.55 C 19.49,28 19.45,27.93 19.5,27.88 L 22.77,24.02 A 0.07,0.07 0 0,1 22.87,24.02 L 24.38,25.34 C 24.41,25.37 24.42,25.41 24.38,25.44 L 22.19,27.97 A 0.1,0.1 0 0,1 22.12,28 Z" fill="rgb(194, 38, 25)"/>
<path d="M 18.189999999999998,27.985 H 15.38 A 0.1,0.1 0 0,1 15.3,27.84 L 20.04,22.34 A 0.1,0.1 0 0,1 20.16,22.33 L 22.11,23.51 C 22.17,23.54 22.18,23.61 22.14,23.66 L 18.34,27.94 A 0.2,0.2 0 0,1 18.19,28 Z" fill="rgb(231, 43, 40)"/>
<path d="M 14.040000000000001,27.985 H 13.19 A 0.2,0.2 0 0,1 12.99,27.8 C 12.99,27.21 13.26,25.37 14.52,24 C 16.05,22.34 17.56,22 18.47,22 C 18.8,22 19.05,22.03 19.2,22.06 C 19.27,22.08 19.3,22.16 19.25,22.21 L 14.2,27.94 A 0.2,0.2 0 0,1 14.05,28 Z" fill="rgb(233, 82, 39)"/>
<circle cx="17" cy="39" r=".5" fill="rgb(35, 31, 30)"/>
<circle cx="39" cy="39" r=".5" fill="rgb(35, 31, 30)"/>
</svg>
