<?xml version="1.0" encoding="UTF-8"?>
<!-- generated by Finnhub -->
<svg viewBox="0 0 55.5 55.5" xmlns="http://www.w3.org/2000/svg">
<path d="M 0,0 H 55.5 V 55.5 H 0 Z" fill="rgb(227, 29, 51)"/>
<path d="M 52.99,25.735 C 43.743,26.125 35.103,29 29.302,32.625 C 29.055,32.25 28.809,31.875 28.438,31.5 C 33.622,28.25 40.904,25.5 47.076,24.75 H 46.952 C 40.287,25.375 33.869,27.5 29.302,30 C 29.179,29.625 28.932,29.375 28.685,29 C 32.758,26.625 37.942,24.75 42.879,23.875 H 42.756 C 36.955,24.75 31.771,26.375 28.191,28.5 C 27.945,28.25 27.698,27.875 27.328,27.625 C 27.698,27.375 28.068,27.125 28.562,27 C 28.685,27.125 28.932,27.375 29.055,27.625 L 29.302,27.375 C 29.179,27.125 29.055,27 28.932,26.75 C 31.894,25.25 35.597,24 38.436,23.5 H 38.312 C 35.35,24 31.524,24.875 28.562,26.375 C 26.093,23.375 21.156,21.375 13.874,20 H 13.751 C 20.292,21.5 25.106,23.75 28.068,26.5 C 27.698,26.75 27.204,27 26.834,27.25 C 23.378,24.375 17.207,21.75 9.184,20.625 H 9.06 C 16.22,21.875 22.144,24.5 26.217,27.75 C 25.847,28 25.477,28.375 25.106,28.75 C 20.662,25.5 13.627,22.875 4.123,21.625 H 4 C 11.776,22.875 19.922,25.625 25.476,30.375 C 24.736,31 24.118,31.625 23.748,32.375 L 23.995,32.625 C 24.612,32 25.229,31.5 26.093,30.875 C 26.34,31.125 26.71,31.375 26.957,31.625 C 25.106,33 23.748,34.375 23.131,35.75 L 23.378,36 C 24.488,34.75 25.846,33.5 27.698,32.375 C 28.068,32.75 28.315,33.125 28.562,33.375 C 24.982,35.75 22.637,38.375 22.144,40.75 L 22.39,41 C 23.872,38.375 26.34,36.25 29.179,34.25 C 29.673,34.875 30.043,35.5 30.413,36.25 L 30.66,36.125 C 30.537,35.375 30.29,34.625 29.92,33.875 C 37.202,28.75 47.076,26.125 53,25.75 Z M 25.6,28.625 C 25.97,28.375 26.34,28 26.71,27.75 C 27.08,28 27.327,28.25 27.574,28.5 L 26.464,29.25 A 3.75,3.75 0 0,1 25.6,28.625 Z M 27.08,29.875 L 28.191,29.125 L 29.055,30 C 28.685,30.25 28.315,30.375 27.945,30.625 C 27.698,30.5 27.451,30.125 27.081,29.875 Z" fill="rgb(254, 254, 253)"/>
</svg>
