<?xml version="1.0" encoding="UTF-8"?>
<!-- generated by Finnhub -->
<svg viewBox="0 0 55.5 55.5" xmlns="http://www.w3.org/2000/svg">
<path d="M 0,0 H 55.5 V 55.5 H 0 Z" fill="rgb(7, 8, 11)"/>
<path d="M 41.238,39.985 L 29.171,30 L 16.657,40 H 41.248 Z" fill="rgb(254, 195, 2)"/>
<path d="M 19.983999999999998,33.498 C 19.994,34.353 19.844,35.289 18.968,36.044 L 14.252,40 H 12.78 C 10.098,40 8,37.93 8,35.195 V 21.042 C 8,18.282 9.646,16 14.003,16 C 18.245,16.005 19.987,18.276 19.987,21.037 L 19.994,26 H 15.003 L 14.996,21.217 C 14.996,20.533 14.704,19.977 14.043,19.977 C 13.383,19.977 12.997,20.533 12.997,21.217 V 34.77 C 12.997,35.455 13.383,36.01 14.043,36.01 S 14.996,35.455 14.996,34.77 L 15.003,30 H 20 L 19.994,33.513 Z M 27.834,27 L 29.174,19.986 L 30.5,27 H 27.833 Z M 32.618,16 H 25.7 L 21.669,34.356 L 29.174,28.369 L 36.998,34.849 L 32.618,16 Z M 39.026,36.605 V 21 H 36 V 16 H 48 V 21 H 45 V 39.965 H 43.087 L 39.026,36.605 Z" fill="rgb(254, 254, 253)"/>
</svg>
