<?xml version="1.0" encoding="UTF-8"?>
<!-- generated by Finnhub -->
<svg viewBox="0 0 55.5 55.5" xmlns="http://www.w3.org/2000/svg">
<path d="M 0,0 H 55.5 V 55.5 H 0 Z" fill="rgb(249, 207, 2)"/>
<path d="M 10.56,20.985 A 4.5,4.5 0 0,0 6,25.42 V 30.58 A 4.5,4.5 0 0,0 10.57,35 H 11.43 A 4.5,4.5 0 0,0 16,30.58 V 29 H 13 V 30.43 C 13,31.3 12.1,32 11,32 S 9,31.3 9,30.43 V 25.57 C 9,24.7 9.9,24 11,24 S 13,24.7 13,25.57 V 27 H 16 V 25.42 A 4.5,4.5 0 0,0 11.43,21 H 10.57 Z M 19.87,21 L 16.45,35 H 20.25 L 20.79,32 H 23.97 L 24.5,35 H 28.45 L 25.07,21 H 19.87 Z M 23.61,30 H 21.15 L 22.18,24.28 H 22.6 L 23.61,30 Z M 38,35 L 41.42,21 H 46.62 L 50,35 H 46.05 L 45.52,32 H 42.34 L 41.8,35 H 38 Z M 42.7,30 H 45.16 L 44.16,24.28 H 43.73 L 42.7,30 Z M 27,21 L 30.42,35 H 35.62 L 39,21 H 35.05 L 33.15,31.72 H 32.73 L 30.8,21 H 27 Z" fill="rgb(254, 254, 253)"/>
</svg>
