<?xml version="1.0" encoding="UTF-8"?>
<!-- generated by Finnhub -->
<svg viewBox="0 0 55.5 55.5" xmlns="http://www.w3.org/2000/svg">
<path d="M 0,0 H 55.5 V 55.5 H 0 Z" fill="rgb(81, 9, 142)"/>
<path d="M 45.63,34.045 C 46.2,33.56 47.08,33.58 47.6,34.12 C 48.13,34.65 48.1,35.5 47.55,36 A 11.6,11.6 0 0,1 39.71,39 C 36.81,39 34.05,37.95 31.93,36.05 A 1.3,1.3 0 0,1 31.86,34.17 C 32.38,33.63 33.26,33.6 33.82,34.1 A 8.8,8.8 0 0,0 39.71,36.33 A 8.8,8.8 0 0,0 45.64,34.06 Z M 39.57,19.66 C 34.92,19.66 31.12,23.17 30.93,27.64 V 27.71 L 30.77,29.21 A 10.85,10.85 0 0,1 27.07,36.17 A 11.65,11.65 0 0,1 19.42,38.99 A 11.73,11.73 0 0,1 11.35,35.77 C 10.3,34.77 9.47,33.59 8.9,32.27 A 10.58,10.58 0 0,1 8.9,23.72 A 11.41,11.41 0 0,1 14.98,17.87 C 16.38,17.29 17.88,17 19.42,17 C 22.42,17 25.27,18.12 27.42,20.15 C 27.96,20.66 27.97,21.51 27.43,22.03 C 26.9,22.56 26.03,22.57 25.47,22.05 A 8.77,8.77 0 0,0 19.42,19.67 C 14.65,19.67 10.77,23.4 10.77,28 C 10.77,32.59 14.65,36.33 19.42,36.33 A 8.52,8.52 0 0,0 28.02,28.93 L 28.16,27.49 A 10.77,10.77 0 0,1 31.66,20.07 A 11.6,11.6 0 0,1 39.57,17 C 42.57,17 45.42,18.12 47.57,20.15 C 48.11,20.66 48.16,21.52 47.62,22.05 A 1.46,1.46 0 0,1 45.62,22.05 A 8.78,8.78 0 0,0 39.57,19.67 Z" fill="rgb(254, 254, 253)"/>
</svg>
