<?xml version="1.0" encoding="UTF-8"?>
<!-- generated by Finnhub -->
<svg viewBox="0 0 55.5 55.5" xmlns="http://www.w3.org/2000/svg">
<path d="M 0,0 H 55.5 V 55.5 H 0 Z" fill="rgb(239, 242, 248)"/>
<path d="M 9.99,17.645 L 13.257,16.55 L 10.058,11 L 10,17.66 Z" fill="rgb(34, 30, 30)"/>
<path d="M 12.055,16.506 C 13.083,16.521 13.897,17.375 13.897,18.399 C 13.897,19.424 13.083,20.278 12.065,20.278 S 10.233,19.424 10.233,18.399 C 10.233,17.375 11.047,16.521 12.065,16.521 Z" fill="rgb(34, 30, 30)"/>
<path d="M 14.294,19.523 C 15.234,18.94 15.671,18.57 17.037,17.916 C 18.404,17.261 19.625,17.005 20.905,16.72 C 21.515,16.55 23.376,16.407 23.522,16.891 C 23.812,17.517 23.115,17.631 23.347,18.314 C 23.58,19.025 31.17,17.289 33.729,17.602 C 36.84,17.659 41.871,18.684 41.871,18.684 C 41.464,19.282 41.318,23.778 42.365,27.563 C 43.238,32.088 46,36.357 46,36.357 C 46,36.499 42.423,35.447 39.428,35.56 C 36.433,35.674 34.63,37.552 30.705,37.58 C 26.808,37.58 26.197,36.215 24.627,35.902 C 23.057,35.617 20.265,36.328 20.265,36.328 C 20.207,36.357 19.335,31.49 18.695,28.986 C 17.532,24.347 14.304,19.538 14.304,19.538 Z" fill="rgb(230, 28, 26)"/>
<path d="M 12.782,16.961 C 12.763,16.976 13.577,17.546 13.49,18.371 C 13.432,19.253 12.618,19.595 12.618,19.595 S 13.083,18.115 12.734,17.773 C 13.083,17.517 12.821,16.976 12.792,16.976 Z" fill="rgb(254, 254, 253)" stroke="rgb(34, 30, 30)" stroke-width=".55"/>
<path d="M 29.153,20.177 C 33.002,19.993 36.375,23.01 36.637,26.908 C 36.898,30.808 33.99,34.137 30.123,34.336 C 26.285,34.536 22.911,31.519 22.649,27.62 C 22.388,23.75 25.325,20.391 29.163,20.192 Z" fill="rgb(254, 254, 253)"/>
<path d="M 29.328,21.059 C 32.042,20.932 34.427,23.607 34.66,27.051 C 34.892,30.466 32.886,33.369 30.182,33.511 C 27.477,33.653 25.092,30.978 24.86,27.534 C 24.627,24.119 26.663,21.217 29.338,21.074 Z" fill="rgb(1, 89, 154)"/>
<path d="M 11.531,16.648 L 10.495,12.281 L 12.617,16.293 L 11.541,16.663 Z" fill="rgb(254, 254, 253)"/>
<path d="M 12.355,19.813 L 21.763,45" stroke="rgb(1, 1, 2)"/>
</svg>
