<?xml version="1.0" encoding="UTF-8"?>
<!-- generated by Finnhub -->
<svg viewBox="0 0 55.5 55.5" xmlns="http://www.w3.org/2000/svg">
<path d="M 0,0 H 55.5 V 55.5 H 0 Z" fill="url(#a)"/>
<path d="M 14.99,21.985 H 11 V 23 H 15 V 22 Z" fill="rgb(228, 21, 52)"/>
<path d="M 7.99,31.761 C 7.777,31.888 7.38,32 6.847,32 C 5.137,32 4,30.804 4,28.567 C 4,26.531 5.194,25 7.103,25 C 7.528,25 7.803,25.098 8,25.197 V 26.381 A 2.744,2.744 0 0,0 7.134,26.229 C 6.106,26.229 5.576,27.286 5.576,28.538 C 5.576,29.929 6.169,30.777 7.135,30.777 C 7.425,30.777 7.769,30.723 8,30.615 V 31.776 Z M 14.989,30.339 C 14.989,30.87 15.02,31.546 15.091,32 H 12.241 C 11.287,32 10.569,31.186 10.569,29.985 C 10.569,28.227 12.012,27.483 13.516,27.47 V 27.35 C 13.516,26.635 13.245,26.134 12.523,26.134 C 12.048,26.134 11.36,26.278 11,26.514 V 25.49 C 11.328,25.277 12.03,25 12.84,25 C 14.551,25 14.989,26.146 14.989,27.603 V 30.339 Z M 13.553,31 L 13.555,28.469 C 12.988,28.478 11.96,28.639 11.96,29.831 C 11.96,30.604 12.36,31 12.679,31 H 13.553 Z M 22.452,30.343 L 22.449,23.004 H 20.999 V 25.744 H 20.971 C 20.76,25.274 20.357,25.003 19.809,25.003 C 18.735,25.003 17.732,26.153 17.732,28.548 C 17.732,30.605 18.455,31.998 19.74,31.998 L 22.554,32 C 22.483,31.547 22.452,30.873 22.452,30.343 Z M 20.999,31 H 20.151 C 19.54,31 19.186,29.93 19.186,28.567 C 19.186,27.347 19.449,26.27 20.186,26.27 C 20.616,26.27 20.916,26.755 20.978,27.304 C 20.999,27.442 20.999,27.595 20.999,27.724 V 31 Z M 27.168,29 C 27.183,30.52 27.872,30.848 28.649,30.848 C 29.135,30.848 29.704,30.737 30,30.607 V 31.68 C 29.584,31.88 28.992,32 28.385,32 C 26.671,32 25.751,30.728 25.751,28.621 C 25.751,26.37 26.805,25 28.224,25 C 29.622,25 30.328,26.393 30.328,28.218 C 30.328,28.606 30.31,28.811 30.288,29 H 27.168 Z M 28.976,28 C 28.987,26.908 28.638,26.111 28.121,26.111 C 27.487,26.111 27.202,27.201 27.173,28 H 28.976 Z M 48.837,29 C 48.852,30.52 49.542,30.848 50.318,30.848 C 50.804,30.848 51.374,30.737 51.669,30.607 V 31.68 C 51.254,31.88 50.661,32 50.054,32 C 48.34,32 47.42,30.728 47.42,28.621 C 47.42,26.37 48.474,25 49.894,25 C 51.291,25 51.997,26.393 51.997,28.218 C 51.997,28.606 51.979,28.811 51.957,29 H 48.837 Z M 50.645,28 C 50.656,26.908 50.307,26.111 49.79,26.111 C 49.157,26.111 48.872,27.201 48.843,28 H 50.645 Z M 35,26 V 32 H 33.55 V 26.815 C 33.55,26.032 33.511,25.615 33.49,25 H 36.213 C 37.323,25 38.001,25.644 38.001,27.254 V 32 H 36.524 V 27.4 C 36.524,26.705 36.384,26 35.748,26 H 35 Z M 45,31.776 C 44.777,31.888 44.377,32 43.846,32 C 42.136,32 41,30.804 41,28.567 C 41,26.531 42.193,25 44.102,25 C 44.526,25 44.802,25.098 45,25.197 V 26.381 A 2.767,2.767 0 0,0 44.132,26.229 C 43.105,26.229 42.576,27.286 42.576,28.538 C 42.576,29.929 43.168,30.777 44.133,30.777 C 44.425,30.777 44.768,30.723 45,30.615 V 31.776 Z" fill="rgb(254, 254, 253)"/>
<defs>
<linearGradient id="a" x1="10.418" x2="68.147" y1="9.712" y2="76.017" gradientUnits="userSpaceOnUse">
<stop stop-color="rgb(25, 29, 31)" offset="0"/>
<stop stop-color="rgb(5, 5, 8)" offset="1"/>
</linearGradient>
</defs>
</svg>
