<?xml version="1.0" encoding="UTF-8"?>
<!-- generated by Finnhub -->
<svg viewBox="0 0 55.5 55.5" xmlns="http://www.w3.org/2000/svg">
<path d="M 0,0 H 55.5 V 55.5 H 0 Z" fill="rgb(226, 23, 52)"/>
<path d="M 13.131,30.192 C 12.23,31.846 11.884,33.454 12.523,34.697 C 14.515,38.577 23.769,38.522 32.662,34.826 C 34.899,33.896 36.926,32.812 38.678,31.648 C 43.889,28.184 45.909,24.277 44.418,21.373 C 42.425,17.493 34.34,17.082 25.447,20.777 C 24.495,21.173 23.581,21.594 22.711,22.034 L 21.963,22.039 A 44.056,44.056 0 0,1 26.08,20.044 C 36.19,15.842 46.222,16.011 48.487,20.422 C 50.187,23.732 47.597,28.359 41.637,32.303 C 39.659,33.613 37.18,34.952 34.661,35.999 C 24.551,40.2 14.421,39.941 12.156,35.531 C 11.354,33.969 11.492,32.138 12.554,30.201 L 13.141,30.207 Z M 15.213,27.397 C 15.792,26.76 16.393,26.252 17.142,25.634 L 17.161,25.161 A 24.407,24.407 0 0,0 14.661,27.414 L 15.214,27.397 Z" fill="rgb(254, 254, 253)"/>
<path d="M 16.026,27.335 C 15.3,29.969 13.06,31 10.805,31 C 7.616,31 6.554,29.174 7.165,26.465 C 7.677,23.802 9.773,22 12.847,22 C 15.142,22 16.887,23.06 16.292,26 H 12.987 C 13.196,24.602 12.861,24.23 12.419,24.235 C 11.488,24.235 11.197,25.131 10.889,26.5 C 10.596,27.798 10.453,28.765 11.359,28.765 C 11.825,28.765 12.198,28.505 12.654,27.351 H 16.036 Z M 20.766,24 H 21.118 C 21.697,24 21.991,24.212 22.14,24.573 C 22.298,24.948 22.237,25.627 22.05,26.5 C 21.862,27.373 21.65,28.052 21.331,28.426 C 21.027,28.788 20.643,29 20.064,29 H 19.712 L 20.766,24 Z M 15.752,31 H 20.229 C 23.026,31 25.177,29.318 25.76,26.6 C 26.333,23.93 25.587,22 21.946,22 H 17.683 L 15.753,31 Z M 26.557,22 H 29.779 L 29.335,27.65 H 29.36 L 31.416,22 H 35.141 L 34.773,27.65 H 34.798 L 36.778,22 H 40 L 36.105,31 H 32.203 L 32.613,25.16 H 32.587 L 30.492,31 H 26.59 L 26.557,22 Z" fill="rgb(254, 254, 253)"/>
</svg>
