<?xml version="1.0" encoding="UTF-8"?>
<!-- generated by Finnhub -->
<svg viewBox="0 0 55.5 55.5" xmlns="http://www.w3.org/2000/svg">
<path d="M 0,0 H 55.5 V 55.5 H 0 Z" fill="rgb(239, 242, 248)"/>
<path d="M 17.27,25.485 S 20.18,25.2 23.05,25.2 C 25.92,25.2 33.71,26.13 35.58,26.13 C 37.45,26.13 41.77,25.63 43,25 C 42.84,25.12 38.72,30.52 38.72,30.52 S 35.47,30.92 33,30.92 C 30.54,30.92 24,30.03 19.98,30.03 S 13,31 13,31 L 17.28,25.5 Z" fill="url(#e)"/>
<path d="M 19.99,23.384999999999998 S 24.72,19.07 29.67,19.07 C 34.61,19.07 36.73,19.51 40.14,19.51 C 43.54,19.51 45.8,19.14 47,18 C 45.96,20.23 44.38,22.73 44.38,22.73 S 42.32,24.16 37.32,24.16 S 28.62,23.48 25.15,23.38 C 21.69,23.28 20.01,23.4 20.01,23.4 Z" fill="url(#d)"/>
<path d="M 44.34,22.735 C 44.13,22.89 42.28,24 39.12,23.4 C 35.76,22.75 32.05,21.13 28.19,21.17 S 20.22,23.24 20,23.4 C 20,23.4 21.69,23.28 25.15,23.38 S 32.31,24.16 37.32,24.16 C 42.02,24.16 44.12,22.89 44.35,22.75 Z" fill="url(#c)"/>
<path d="M 35.99,32.585 S 31.28,36.93 26.33,36.93 C 21.39,36.93 19.27,36.49 15.86,36.49 C 12.46,36.49 10.2,36.86 9,38 C 10.04,35.77 11.62,33.27 11.62,33.27 S 13.68,31.84 18.68,31.84 C 23.68,31.84 27.38,32.52 30.85,32.62 C 34.31,32.72 35.99,32.6 35.99,32.6 Z" fill="url(#b)"/>
<path d="M 11.64,33.235 C 11.87,33.11 13.72,32 16.88,32.6 C 20.24,33.25 23.95,34.87 27.81,34.83 S 35.78,32.76 36,32.6 C 36,32.6 34.31,32.72 30.85,32.62 S 23.69,31.84 18.68,31.84 C 13.98,31.84 11.88,33.1 11.65,33.25 Z" fill="url(#a)"/>
<defs>
<linearGradient id="e" x1="13.76" x2="43.72" y1="29.67" y2="28.81" gradientUnits="userSpaceOnUse">
<stop stop-color="rgb(239, 84, 33)" offset="0"/>
<stop stop-color="rgb(247, 155, 45)" offset="1"/>
</linearGradient>
<linearGradient id="d" x1="20" x2="47.48" y1="22.5" y2="21.57" gradientUnits="userSpaceOnUse">
<stop stop-color="rgb(13, 146, 209)" offset="0"/>
<stop stop-color="rgb(21, 71, 151)" offset="1"/>
</linearGradient>
<linearGradient id="c" x1="19.52" x2="43.63" y1="23.5" y2="23.96" gradientUnits="userSpaceOnUse">
<stop stop-color="rgb(14, 147, 209)" offset="0"/>
<stop stop-color="rgb(21, 71, 151)" offset=".6"/>
</linearGradient>
<linearGradient id="b" x1="9" x2="36.01" y1="37.5" y2="35.64" gradientUnits="userSpaceOnUse">
<stop stop-color="rgb(1, 144, 70)" offset="0"/>
<stop stop-color="rgb(178, 194, 59)" offset="1"/>
</linearGradient>
<linearGradient id="a" x1="10.93" x2="37.45" y1="34" y2="33.54" gradientUnits="userSpaceOnUse">
<stop stop-color="rgb(1, 142, 70)" offset=".32"/>
<stop stop-color="rgb(176, 193, 60)" offset=".89"/>
</linearGradient>
</defs>
</svg>
