<?xml version="1.0" encoding="UTF-8"?>
<!-- generated by Finnhub -->
<svg viewBox="0 0 55.5 55.5" xmlns="http://www.w3.org/2000/svg">
<path d="M 0,0 H 55.5 V 55.5 H 0 Z" fill="url(#d)"/>
<path d="M 13.49,20.985 A 3.5,3.5 0 1,0 13.5,14 A 3.5,3.5 0 0,0 13.5,21 Z M 13.5,19 A 1.5,1.5 0 1,0 13.5,16 A 1.5,1.5 0 0,0 13.5,19 Z" fill="url(#c)" fill-rule="evenodd"/>
<path d="M 35.690000000000005,35.205 C 36.85,35.3 39.28,36.45 41.04,38.95 A 14.83,14.83 0 0,1 29.88,44 A 14.9,14.9 0 0,1 15,29.1 A 14.9,14.9 0 0,1 38.94,17.26 C 40.23,18.26 33.58,22.15 30.05,22.15 C 28.08,22.15 22.77,24.17 22.77,29.09 C 22.77,31.41 24.17,36.28 29.88,36.28 C 31.87,36.28 32.6,34.98 35.69,35.22 Z" fill="url(#b)"/>
<path d="M 30.049999999999997,13.985 H 42 C 39.93,20.34 34.92,21.82 32.66,21.82 H 28.3 C 21.1,21.99 16.44,26.36 15,28.54 C 15.5,16.92 25.68,14 30.06,14 Z" fill="url(#a)"/>
<defs>
<linearGradient id="d" x1="10.42" x2="68.15" y1="9.71" y2="76.02" gradientUnits="userSpaceOnUse">
<stop stop-color="rgb(25, 29, 31)" offset="0"/>
<stop stop-color="rgb(5, 5, 8)" offset="1"/>
</linearGradient>
<linearGradient id="c" x1="10" x2="17" y1="17.5" y2="17.5" gradientUnits="userSpaceOnUse">
<stop stop-color="rgb(204, 205, 206)" offset="0"/>
<stop stop-color="rgb(161, 162, 163)" offset=".5"/>
<stop stop-color="rgb(204, 204, 205)" offset="1"/>
</linearGradient>
<linearGradient id="b" x1="23.33" x2="39.31" y1="23.23" y2="40.57" gradientUnits="userSpaceOnUse">
<stop stop-color="rgb(87, 89, 89)" offset="0"/>
<stop stop-color="rgb(224, 224, 225)" offset="1"/>
</linearGradient>
<linearGradient id="a" x1="41.22" x2="15.08" y1="16.49" y2="23.12" gradientUnits="userSpaceOnUse">
<stop stop-color="rgb(246, 142, 28)" offset="0"/>
<stop stop-color="rgb(254, 211, 118)" offset="1"/>
</linearGradient>
</defs>
</svg>
