<?xml version="1.0" encoding="UTF-8"?>
<!-- generated by Finnhub -->
<svg viewBox="0 0 55.5 55.5" xmlns="http://www.w3.org/2000/svg">
<path d="M 0,0 H 55.5 V 55.5 H 0 Z" fill="rgb(20, 115, 194)"/>
<path d="M 35.99,35.635 C 34.865,35.95 33.624,36.294 31.59,36.294 C 27.605,36.294 23,34.134 23,28.069 C 23,22.486 26.641,19.706 31.567,19.706 C 33.087,19.706 34.564,19.89 36,20.35 V 23.7 C 34.715,22.943 33.152,22.876 31.781,22.876 C 28.954,22.877 27,25.014 27,28 C 27,31.148 29.19,33.123 32.103,33.123 C 33.409,33.123 34.907,32.756 36,32.296 V 35.651 Z M 38,20 H 48 V 23 H 42 V 26 H 48 V 29 H 42 V 36 H 38 V 20 Z" fill="rgb(254, 254, 253)"/>
<path d="M 21.212999999999997,27.983 C 21.223,32.417 17.592,35.998 13.112,35.998 S 5,32.417 5,27.998 C 5,23.58 8.632,20 13.112,20 C 17.592,20 21.223,23.581 21.223,27.998 Z" fill="rgb(126, 203, 38)"/>
<path d="M 12.651,35.985 A 7.9,7.9 0 0,0 13.343,36 C 13.782,33.028 15.047,29.552 18.703,29.315 C 21.684,29.122 16.888,29 16.888,29 C 15.365,29.113 14.188,30.142 13.5,32.012 C 14.027,29.217 15.318,26.467 18.703,26.248 C 21.684,26.054 16.888,26 16.888,26 C 14.935,26.145 13.482,27.925 13,31 C 12.517,27.932 11.065,26.145 9.113,26 C 9.113,26 4.317,26.054 7.297,26.248 C 10.68,26.468 11.971,29.209 12.501,32.002 C 11.816,30.122 10.641,29.112 9.113,29 C 9.113,29 4.317,29.122 7.297,29.315 C 10.965,29.553 12.227,33.021 12.661,36 Z" fill="rgb(254, 254, 253)"/>
<path d="M 12.99,27.979 C 12.806,28.133 12.093,25.834 12.042,25.554 C 11.772,24.066 12.893,21.849 12.99,22.008 H 13.01 C 13.107,21.849 14.228,24.066 13.958,25.555 C 13.908,25.835 13.194,28.133 12.999,27.994 H 13" fill="rgb(254, 254, 253)"/>
</svg>
