<?xml version="1.0" encoding="UTF-8"?>
<!-- generated by Finnhub -->
<svg viewBox="0 0 55.5 55.5" xmlns="http://www.w3.org/2000/svg">
<path d="M 0,0 H 55.5 V 55.5 H 0 Z" fill="rgb(26, 47, 86)"/>
<path d="M 37.99,28.985 V 28 H 28 V 18 H 27 S 27.02,22.95 27,25.42 C 26.71,24.75 26.32,24.09 26.02,23.42 L 24.95,21.03 C 24.57,20.24 24.22,19.44 23.82,18.66 L 23.14,18.94 C 23.42,19.77 23.73,20.59 24.02,21.42 L 24.96,23.87 C 25.22,24.55 25.48,25.22 25.76,25.89 L 24.19,24.38 L 22.29,22.58 C 21.64,21.98 21,21.38 20.34,20.81 L 19.81,21.34 C 20.39,22 20.99,22.64 21.58,23.29 L 23.38,25.19 L 24.88,26.75 L 22.87,25.95 L 20.42,25.02 C 19.59,24.72 18.77,24.42 17.94,24.14 L 17.66,24.82 C 18.44,25.22 19.24,25.57 20.03,25.95 L 22.43,27.02 C 23.09,27.32 23.75,27.72 24.42,28 H 17 V 29 H 27 V 39 H 28 V 31.53 C 28.3,32.21 28.69,32.89 29,33.56 L 30.07,35.96 C 30.45,36.75 30.81,37.55 31.21,38.33 L 31.83,38.07 C 31.55,37.24 31.24,36.42 30.95,35.59 L 30.02,33.14 L 29.22,31.07 L 30.82,32.61 L 32.73,34.41 C 33.38,34.99 34.03,35.59 34.69,36.16 L 35.16,35.69 C 34.59,35.02 33.99,34.39 33.4,33.73 L 31.6,31.82 C 31.1,31.28 30.58,30.75 30.07,30.22 L 32.14,31.02 L 34.59,31.95 C 35.42,32.25 36.24,32.55 37.07,32.83 L 37.33,32.21 C 36.54,31.81 35.75,31.45 34.96,31.07 L 32.56,30 C 31.89,29.7 31.21,29.3 30.53,29.01 H 38 Z" fill="rgb(254, 254, 253)"/>
<path d="M 27.99,44.985 C 18.63,45 11,37.37 11,28 S 18.63,11 28,11 C 37.37,11 45,18.63 45,28 C 45,37.37 37.37,45 28,45 Z M 28,13 C 19.5,13 13,19.5 13,28 S 19.5,43 28,43 S 43,36.5 43,28 S 36.5,13 28,13 Z" fill="rgb(254, 254, 253)"/>
</svg>
