<?xml version="1.0" encoding="UTF-8"?>
<!-- generated by Finnhub -->
<svg viewBox="0 0 55.5 55.5" xmlns="http://www.w3.org/2000/svg">
<path d="M 0,0 H 55.5 V 55.5 H 0 Z" fill="rgb(26, 119, 178)"/>
<path d="M 6.142,29.294999999999998 C 6.152,29.522 6.142,29.667 6.109,29.73 C 6.081,29.786 6.025,29.808 5.912,29.815 L 5.687,29.832 V 30 C 6.147,29.977 6.609,29.977 7.07,30 V 29.832 L 6.842,29.815 C 6.729,29.808 6.672,29.786 6.645,29.731 C 6.612,29.67 6.602,29.524 6.602,29.311 L 6.588,26.831 C 6.588,26.617 6.592,26.439 6.607,26.271 H 7.339 C 7.481,26.271 7.518,26.323 7.528,26.456 L 7.546,26.898 H 7.692 C 7.692,26.598 7.7,26.288 7.725,26 C 7.385,26 7.045,26.017 6.705,26.017 H 6.02 C 5.68,26.017 5.34,26 5,26 C 5.025,26.291 5.033,26.597 5.033,26.898 H 5.179 L 5.197,26.456 C 5.207,26.323 5.244,26.272 5.386,26.272 H 6.118 C 6.133,26.439 6.137,26.619 6.137,26.83 L 6.15,29.31 H 6.152 Z M 8.336,29.466 C 8.336,29.779 8.28,29.84 7.911,29.84 V 29.995 C 8.11,29.99 8.307,29.978 8.506,29.978 C 8.728,29.978 8.953,29.988 9.166,29.995 V 29.84 C 8.826,29.84 8.76,29.81 8.76,29.466 V 28.633 C 8.95,28.628 9.146,28.621 9.368,28.621 C 9.589,28.621 9.788,28.626 9.978,28.633 V 29.466 C 9.978,29.813 9.911,29.84 9.571,29.84 V 29.995 C 9.784,29.99 10.01,29.978 10.231,29.978 C 10.431,29.978 10.606,29.988 10.805,29.995 V 29.84 C 10.438,29.84 10.402,29.777 10.402,29.466 V 27.502 C 10.402,27.172 10.424,27.179 10.802,27.179 V 27.021 C 10.609,27.026 10.402,27.021 10.217,27.021 C 10,27.021 9.815,27.009 9.571,27.004 V 27.162 C 9.924,27.162 9.977,27.172 9.977,27.502 V 28.179 C 9.788,28.184 9.589,28.189 9.367,28.189 C 9.147,28.189 8.947,28.184 8.76,28.179 V 27.502 C 8.76,27.172 8.812,27.162 9.167,27.162 V 27.004 C 8.92,27.009 8.737,27.021 8.52,27.021 C 8.336,27.021 8.104,27.026 7.91,27.021 V 27.179 C 8.288,27.179 8.336,27.172 8.336,27.502 V 29.466 Z M 11.696,29.379 C 11.696,29.774 11.668,29.842 11.29,29.842 V 29.998 C 11.522,29.993 11.686,29.981 11.9,29.981 C 12.125,29.981 12.357,29.998 12.63,29.998 C 12.852,29.998 13.084,29.993 13.273,29.971 C 13.291,29.752 13.305,29.497 13.309,29.211 H 13.186 A 2.832,2.832 0 0,1 13.082,29.714 A 1.873,1.873 0 0,1 12.552,29.779 C 12.392,29.779 12.265,29.769 12.136,29.757 A 21.696,21.696 0 0,1 12.117,28.679 C 12.193,28.675 12.269,28.669 12.386,28.669 C 12.796,28.669 12.833,28.735 12.833,29.087 H 12.975 C 12.971,28.932 12.979,28.512 12.979,28.337 C 12.979,28.187 12.983,28.014 12.989,27.864 H 12.848 C 12.848,28.177 12.811,28.237 12.583,28.237 C 12.366,28.237 12.238,28.233 12.13,28.225 C 12.13,27.902 12.125,27.538 12.14,27.25 A 1.48,1.48 0 0,1 12.437,27.216 C 12.663,27.216 12.891,27.233 13.073,27.271 C 13.103,27.388 13.106,27.504 13.121,27.718 H 13.254 C 13.261,27.494 13.28,27.27 13.309,27.048 A 3.416,3.416 0 0,0 12.739,27.004 C 12.569,27.004 12.394,27.016 12.224,27.026 A 7.26,7.26 0 0,1 11.709,27.048 C 11.545,27.048 11.411,27.036 11.266,27.031 V 27.181 C 11.619,27.181 11.705,27.203 11.705,27.572 L 11.69,29.379 H 11.697 Z M 17.996,29.417 L 17.953,29.362 C 17.735,29.551 17.335,29.697 16.995,29.697 C 16.059,29.697 15.476,29.077 15.476,27.971 C 15.476,27.021 15.944,26.257 16.83,26.257 A 1.5,1.5 0 0,1 17.358,26.352 C 17.575,26.446 17.764,26.541 17.764,26.699 V 27.099 H 17.91 C 17.91,26.81 17.953,26.514 18,26.249 A 3.02,3.02 0 0,0 16.908,26.021 C 16.381,26.021 15.898,26.211 15.544,26.558 C 15.181,26.91 14.967,27.418 14.967,28.06 C 14.967,29.328 15.697,29.998 16.83,29.998 C 17.118,29.998 17.586,29.891 17.86,29.697 L 17.996,29.417 Z" fill="rgb(254, 254, 253)"/>
<path d="M 19.412999999999997,26.988 L 18.555,29.188 C 18.32,29.798 18.236,29.834 18,29.834 V 30 C 18.234,29.995 18.355,29.982 18.511,29.982 C 18.7,29.982 18.881,29.992 19.055,30 V 29.834 C 18.789,29.834 18.668,29.787 18.668,29.618 C 18.668,29.396 18.798,29.198 18.846,29.071 C 19.023,29.066 19.2,29.061 19.373,29.061 C 19.557,29.061 19.734,29.066 19.911,29.071 C 19.98,29.241 20.121,29.539 20.121,29.67 C 20.121,29.784 20.041,29.83 19.734,29.83 V 29.997 C 19.964,29.992 20.157,29.979 20.377,29.979 C 20.602,29.979 20.916,29.989 21,29.997 V 29.831 C 20.802,29.831 20.69,29.808 20.53,29.365 L 19.62,27 H 19.423 V 27.003 Z M 19.398,27.648 L 19.836,28.821 C 19.664,28.826 19.527,28.834 19.361,28.834 C 19.209,28.834 19.073,28.826 18.939,28.821 L 19.398,27.648 Z" fill="rgb(254, 254, 253)"/>
<path d="M 20.99,29.985 C 21.221,29.995 21.438,29.983 21.653,29.983 C 22.003,29.983 22.173,29.993 22.287,30 V 29.844 C 21.922,29.844 21.866,29.832 21.866,29.568 V 27.265 A 0.705,0.705 0 0,1 22.173,27.209 C 22.519,27.209 22.682,27.372 22.682,27.736 C 22.682,28.073 22.461,28.319 22.172,28.319 A 1.7,1.7 0 0,1 22,28.309 L 21.98,28.399 L 22.94,29.985 H 23.535 V 29.844 C 23.387,29.844 23.347,29.8 23.253,29.664 L 22.519,28.388 C 22.749,28.288 23.162,28.153 23.162,27.631 C 23.162,27.165 22.845,27.026 22.417,27.026 C 22.162,27.026 21.885,27.043 21.634,27.043 C 21.404,27.043 21.207,27.026 21,27.026 V 27.182 C 21.394,27.182 21.432,27.222 21.432,27.514 V 29.502 C 21.432,29.834 21.346,29.844 21,29.844 V 30 Z M 24.349,29.4 C 24.349,29.77 24.282,29.805 24.069,29.844 V 30 C 24.239,29.995 24.368,29.983 24.569,29.983 C 24.793,29.983 24.933,30 25.394,30 C 25.605,30 25.826,29.995 25.984,29.983 C 25.999,29.719 26.024,29.483 26.066,29.241 H 25.922 L 25.826,29.697 C 25.691,29.753 25.424,29.776 25.126,29.776 C 24.992,29.776 24.894,29.771 24.8,29.763 A 6.095,6.095 0 0,1 24.78,29.241 V 27.552 C 24.78,27.211 24.887,27.203 25.194,27.203 V 27.044 C 24.929,27.049 24.695,27.062 24.531,27.062 C 24.309,27.062 24.138,27.049 23.917,27.044 V 27.204 C 24.272,27.204 24.349,27.208 24.349,27.467 V 29.4 Z M 26.573,30 C 26.782,29.995 26.955,29.983 27.203,29.983 C 27.377,29.983 27.625,29.993 27.838,30 V 29.844 C 27.55,29.844 27.425,29.832 27.425,29.451 V 28.872 C 27.694,28.316 28.025,27.499 28.308,27.122 V 27.044 H 27.983 A 91.572,91.572 0 0,1 27.345,28.421 L 26.915,27.489 C 26.805,27.247 26.682,27.096 26.559,27.044 C 26.425,27.091 26.214,27.113 26.066,27.14 V 27.296 C 26.239,27.296 26.292,27.33 26.494,27.66 C 26.624,27.874 26.784,28.382 26.999,28.836 V 29.573 C 26.999,29.758 26.932,29.841 26.579,29.841 V 30 H 26.573 Z M 29.071,29.4 C 29.071,29.77 29.004,29.805 28.793,29.844 V 30 C 28.96,29.995 29.092,29.983 29.293,29.983 C 29.517,29.983 29.657,30 30.118,30 C 30.329,30 30.55,29.995 30.708,29.983 C 30.724,29.719 30.747,29.483 30.79,29.241 H 30.646 L 30.55,29.697 C 30.417,29.753 30.148,29.776 29.85,29.776 C 29.714,29.776 29.618,29.771 29.522,29.763 A 6.096,6.096 0 0,1 29.502,29.241 L 29.505,27.555 C 29.505,27.213 29.611,27.205 29.918,27.205 V 27.047 C 29.653,27.052 29.418,27.064 29.255,27.064 C 29.033,27.064 28.86,27.052 28.639,27.047 V 27.206 C 28.994,27.206 29.071,27.211 29.071,27.469 L 29.069,29.399 H 29.071 Z M 31.379,29.378 C 31.379,29.776 31.349,29.844 30.966,29.844 V 30 C 31.201,29.995 31.368,29.983 31.586,29.983 C 31.816,29.983 32.051,30 32.328,30 C 32.553,30 32.789,29.995 32.981,29.973 C 33,29.753 33.015,29.497 33.019,29.209 H 32.894 A 3.019,3.019 0 0,1 32.787,29.715 A 1.915,1.915 0 0,1 32.249,29.78 C 32.086,29.78 31.957,29.77 31.825,29.758 A 24.532,24.532 0 0,1 31.807,28.675 C 31.884,28.67 31.961,28.665 32.08,28.665 C 32.497,28.665 32.537,28.731 32.537,29.085 H 32.681 C 32.677,28.929 32.683,28.562 32.683,28.387 C 32.683,28.235 32.687,28.062 32.691,27.911 H 32.547 C 32.547,28.226 32.51,28.287 32.278,28.287 C 32.057,28.287 31.928,28.282 31.817,28.275 C 31.817,27.95 31.813,27.584 31.827,27.294 A 1.46,1.46 0 0,1 32.13,27.259 C 32.36,27.259 32.591,27.276 32.779,27.315 C 32.808,27.433 32.812,27.55 32.827,27.765 H 32.96 C 32.97,27.496 32.99,27.281 33.019,27.091 A 3.5,3.5 0 0,0 32.439,27.047 C 32.266,27.047 32.089,27.059 31.915,27.069 A 7.411,7.411 0 0,1 31.391,27.091 C 31.224,27.091 31.089,27.079 30.941,27.074 V 27.225 C 31.299,27.225 31.387,27.247 31.387,27.618 L 31.377,29.378 H 31.379 Z M 37.336,29.343 C 37.336,29.483 37.332,29.512 37.311,29.573 C 37.284,29.673 37.008,29.768 36.639,29.768 C 35.652,29.768 35.129,29.055 35.129,27.938 C 35.129,26.94 35.604,26.237 36.516,26.237 C 36.829,26.237 37.033,26.276 37.188,26.337 C 37.413,26.434 37.586,26.522 37.586,26.786 V 27.084 H 37.734 C 37.734,26.794 37.774,26.495 37.83,26.229 C 37.61,26.156 37.236,26 36.641,26 C 35.485,26 34.615,26.798 34.615,28.03 C 34.615,29.439 35.445,30 36.515,30 C 36.848,30 37.365,29.854 37.778,29.715 V 28.772 C 37.778,28.609 37.778,28.587 37.831,28.565 L 37.971,28.509 L 37.951,28.369 C 37.753,28.375 37.559,28.382 37.361,28.382 C 37.169,28.382 36.973,28.375 36.775,28.37 V 28.538 L 37.173,28.578 C 37.298,28.589 37.336,28.645 37.336,28.772 V 29.344 Z M 38.465,30 C 38.686,29.995 38.901,29.983 39.118,29.983 C 39.468,29.983 39.638,29.993 39.75,30 V 29.844 C 39.385,29.844 39.329,29.832 39.329,29.568 V 27.282 A 0.708,0.708 0 0,1 39.638,27.226 C 39.982,27.226 40.145,27.39 40.145,27.753 C 40.145,28.09 39.923,28.337 39.637,28.337 C 39.569,28.337 39.517,28.332 39.464,28.327 L 39.446,28.417 L 40.406,29.985 H 41 V 29.844 C 40.852,29.844 40.812,29.8 40.716,29.664 L 39.982,28.405 C 40.212,28.305 40.624,28.171 40.624,27.648 C 40.624,27.182 40.307,27.043 39.882,27.043 C 39.627,27.043 39.35,27.06 39.099,27.06 C 38.869,27.06 38.673,27.043 38.467,27.043 V 27.2 C 38.861,27.2 38.899,27.238 38.899,27.531 V 29.502 C 38.899,29.834 38.811,29.844 38.467,29.844 V 30 H 38.465 Z" fill="rgb(254, 254, 253)"/>
<path d="M 43.534,26.985 C 42.723,27 42,27.527 42,28.536 C 42,29.473 42.78,30 43.46,30 C 44.422,30 45,29.193 45,28.4 C 44.998,27.677 44.516,27 43.544,27 Z M 43.436,27.199 C 44.136,27.199 44.432,27.807 44.432,28.536 C 44.432,29.099 44.262,29.766 43.596,29.766 C 42.802,29.766 42.566,29.004 42.566,28.36 C 42.566,27.619 42.949,27.199 43.436,27.199 Z" fill="rgb(254, 254, 253)"/>
<path d="M 3.99,23.985 H 52 V 24.248 H 4 V 24 Z M 4,31.752 H 52 V 32 H 4 V 31.752 Z M 46.019,27.358 C 46.019,27.192 46.076,27.13 46.391,27.12 V 26.971 C 46.108,26.976 45.951,26.988 45.796,26.988 C 45.589,26.988 45.379,26.976 45.169,26.971 V 27.13 C 45.453,27.13 45.579,27.157 45.579,27.416 L 45.582,28.913 C 45.582,29.603 45.767,29.993 46.579,29.993 C 47.399,29.993 47.542,29.452 47.542,28.863 L 47.538,27.473 C 47.538,27.17 47.6,27.13 47.955,27.13 V 26.971 C 47.827,26.976 47.665,26.988 47.451,26.988 C 47.281,26.988 47.105,26.976 46.928,26.971 V 27.13 C 47.308,27.13 47.345,27.182 47.345,27.495 L 47.348,28.89 C 47.348,29.471 47.108,29.695 46.683,29.695 C 46.18,29.695 46.023,29.392 46.023,28.9 L 46.019,27.358 Z M 48.742,29.486 C 48.742,29.75 48.655,29.834 48.302,29.834 V 29.994 C 48.528,29.988 48.749,29.976 48.968,29.976 C 49.325,29.976 49.497,29.986 49.614,29.993 V 29.834 C 49.242,29.812 49.182,29.747 49.182,29.486 L 49.173,27.234 C 49.256,27.207 49.35,27.164 49.477,27.164 C 49.771,27.164 50.004,27.384 50.004,27.724 C 50.004,28.079 49.858,28.317 49.516,28.317 A 0.288,0.288 0 0,1 49.358,28.272 L 49.388,28.444 A 0.517,0.517 0 0,0 49.603,28.491 C 50.189,28.491 50.461,28.039 50.461,27.657 C 50.461,27.269 50.295,26.971 49.637,26.971 C 49.509,26.971 49.382,26.983 49.261,26.993 A 3.512,3.512 0 0,1 48.895,27.016 C 48.693,27.016 48.432,27.003 48.294,26.998 V 27.16 C 48.694,27.16 48.734,27.2 48.734,27.497 L 48.742,29.487 Z" fill="rgb(254, 254, 253)"/>
</svg>
