<?xml version="1.0" encoding="UTF-8"?>
<!-- generated by Finnhub -->
<svg viewBox="0 0 55.5 55.5" xmlns="http://www.w3.org/2000/svg">
<path d="M 0,0 H 55.5 V 55.5 H 0 Z" fill="rgb(159, 127, 52)"/>
<path d="M 10.68,28.666 C 10.51,29.066 10.137,29.429 9.61,29.429 C 9.093,29.429 8.487,29.062 8.487,28.024 C 8.487,26.934 8.992,26.505 9.527,26.505 C 9.983,26.505 10.317,26.804 10.532,27.388 H 10.585 V 26.398 H 10.541 L 10.357,26.592 A 1.708,1.708 0 0,0 9.575,26.423 C 8.698,26.423 8,27.12 8,28.041 C 8,28.971 8.619,29.585 9.492,29.585 C 10.172,29.585 10.572,29.144 10.76,28.72 L 10.69,28.681 Z M 11.685,28.267 L 12.199,26.965 H 12.216 L 12.676,28.267 H 11.686 Z M 13.401,29.007 L 12.427,26.402 H 12.33 L 11.382,28.742 C 11.185,29.227 11.036,29.378 10.751,29.456 V 29.512 H 11.768 V 29.456 C 11.369,29.391 11.299,29.253 11.51,28.712 L 11.65,28.353 H 12.708 L 12.971,29.089 C 13.063,29.344 13.011,29.439 12.594,29.456 V 29.512 H 13.932 V 29.456 C 13.59,29.413 13.524,29.331 13.401,29.006 Z M 16.072,26.497 V 26.549 C 16.511,26.614 16.647,26.787 16.647,27.206 V 28.867 H 16.642 L 14.861,26.497 H 14.005 V 26.549 C 14.382,26.557 14.535,26.778 14.535,27.042 V 28.798 C 14.535,29.218 14.417,29.387 14.005,29.456 V 29.512 H 15.181 V 29.456 C 14.733,29.391 14.641,29.218 14.641,28.798 V 26.938 H 14.646 L 16.656,29.586 H 16.752 V 27.206 C 16.752,26.786 16.84,26.622 17.252,26.549 V 26.497 H 16.072 Z M 19.69,29.227 L 19.683,29.237 C 19.693,29.235 19.703,29.237 19.708,29.24 L 19.691,29.227 Z M 19.618,29.305 L 19.648,29.293 V 29.276 L 19.618,29.305 Z M 18.92,26.506 A 0.092,0.092 0 0,0 18.902,26.509 L 18.932,26.507 L 18.92,26.506 Z M 19.03,29.504 C 18.648,29.504 18.327,29.352 18.16,28.888 L 18.134,28.808 L 18.102,28.685 C 18.092,28.635 18.082,28.584 18.075,28.528 A 13.623,13.623 0 0,1 18.056,28.387 A 3.824,3.824 0 0,1 18.038,28.003 V 27.955 A 3.086,3.086 0 0,1 18.095,27.339 A 1.733,1.733 0 0,1 18.157,27.109 C 18.294,26.708 18.545,26.545 18.863,26.512 L 18.886,26.51 L 18.902,26.509 L 18.932,26.507 H 18.94 L 18.99,26.506 C 19.556,26.506 19.986,26.835 19.986,28.007 C 19.986,28.342 19.954,28.605 19.894,28.814 V 28.817 A 1.355,1.355 0 0,1 19.827,29.001 A 0.92,0.92 0 0,1 19.691,29.227 L 19.683,29.237 C 19.672,29.251 19.66,29.263 19.648,29.276 L 19.618,29.305 L 19.616,29.306 A 0.405,0.405 0 0,1 19.578,29.338 C 19.426,29.458 19.24,29.504 19.03,29.504 Z M 19.584,26.546 A 0.649,0.649 0 0,0 19.528,26.523 L 19.498,26.512 C 19.476,26.503 19.454,26.496 19.432,26.489 C 19.412,26.481 19.391,26.476 19.37,26.469 L 19.308,26.455 A 1.35,1.35 0 0,0 19.012,26.424 L 18.974,26.425 C 18.923,26.425 18.872,26.431 18.82,26.438 A 1.468,1.468 0 0,0 17.905,26.973 C 17.893,26.989 17.881,27.005 17.868,27.019 V 27.021 A 1.62,1.62 0 0,0 17.63,27.491 L 17.624,27.507 V 27.51 A 0.898,0.898 0 0,0 17.612,27.554 A 0.977,0.977 0 0,0 17.568,27.769 A 0.463,0.463 0 0,0 17.56,27.834 C 17.558,27.844 17.558,27.854 17.558,27.864 V 27.866 C 17.56,27.877 17.558,27.886 17.555,27.893 L 17.554,27.906 L 17.552,27.941 L 17.551,28.011 A 1.71,1.71 0 0,0 17.573,28.297 L 17.574,28.308 C 17.59,28.407 17.615,28.502 17.646,28.59 V 28.591 A 1.436,1.436 0 0,0 17.779,28.872 V 28.874 L 17.805,28.918 H 17.807 A 1.263,1.263 0 0,0 17.952,29.108 A 1.265,1.265 0 0,0 18.186,29.318 A 1.423,1.423 0 0,0 19.012,29.586 C 19.303,29.586 19.592,29.486 19.834,29.305 H 19.836 A 1.571,1.571 0 0,0 20.401,28.498 C 20.447,28.343 20.473,28.176 20.473,27.998 C 20.473,27.295 20.09,26.771 19.584,26.546 Z M 18.902,26.509 L 18.932,26.507 L 18.92,26.506 A 0.092,0.092 0 0,0 18.902,26.509 Z M 19.648,29.293 V 29.276 L 19.618,29.305 L 19.648,29.293 Z M 19.691,29.227 L 19.683,29.237 C 19.693,29.235 19.703,29.237 19.708,29.24 L 19.691,29.227 Z M 22.252,28.076 A 1.81,1.81 0 0,1 22.12,28.081 H 21.777 V 26.584 H 22.133 C 22.186,26.584 22.235,26.587 22.283,26.591 A 0.866,0.866 0 0,1 22.562,26.664 C 22.806,26.781 22.87,27.019 22.87,27.306 C 22.87,27.346 22.869,27.386 22.867,27.424 C 22.848,27.798 22.721,28.039 22.251,28.076 Z M 22.61,26.542 V 26.54 C 22.58,26.535 22.548,26.529 22.516,26.525 A 2.66,2.66 0 0,0 22.137,26.498 H 20.865 V 26.549 C 21.255,26.562 21.361,26.675 21.361,26.861 V 29.145 C 21.361,29.195 21.353,29.24 21.336,29.277 A 0.178,0.178 0 0,1 21.293,29.337 V 29.339 A 0.324,0.324 0 0,1 21.203,29.399 A 0.497,0.497 0 0,1 21.123,29.424 A 1.28,1.28 0 0,1 20.865,29.456 V 29.512 H 22.305 V 29.456 C 21.887,29.443 21.778,29.344 21.778,29.145 V 28.167 H 22.089 L 22.186,28.166 C 22.234,28.164 22.281,28.161 22.325,28.157 C 23.088,28.091 23.345,27.697 23.345,27.315 C 23.345,26.955 23.157,26.65 22.61,26.542 Z M 25.441,26.497 V 26.549 C 25.871,26.614 25.871,26.722 25.661,27.076 L 25.085,28.058 L 24.723,27.423 L 24.573,27.159 L 24.541,27.104 V 27.102 L 24.441,26.925 L 24.427,26.902 C 24.31,26.687 24.345,26.573 24.765,26.549 V 26.497 H 23.45 V 26.549 C 23.713,26.601 23.818,26.683 23.95,26.908 L 24.731,28.24 V 29.144 C 24.731,29.334 24.639,29.443 24.222,29.456 V 29.512 H 25.652 V 29.456 C 25.236,29.443 25.144,29.335 25.144,29.144 V 28.154 L 25.771,27.107 C 26.021,26.687 26.161,26.601 26.456,26.549 V 26.497 H 25.44 Z M 29.203,28.158 V 28.214 C 29.594,28.227 29.699,28.366 29.699,28.552 V 29.3 C 29.554,29.43 29.331,29.503 29.045,29.503 C 28.537,29.503 27.965,29.118 27.965,28.003 C 27.965,27.508 28.07,27.159 28.229,26.923 L 28.251,26.891 C 28.281,26.851 28.311,26.814 28.343,26.782 A 0.826,0.826 0 0,1 28.75,26.539 L 28.776,26.533 A 0.903,0.903 0 0,1 29.006,26.506 C 29.432,26.506 29.796,26.796 30.011,27.353 H 30.064 V 26.397 H 30.02 L 29.836,26.592 A 1.413,1.413 0 0,0 29.36,26.445 A 1.657,1.657 0 0,0 29.095,26.425 C 29.082,26.423 29.067,26.423 29.055,26.423 C 29,26.423 28.947,26.426 28.893,26.432 C 28.165,26.512 27.479,27.132 27.479,28.011 C 27.479,29.054 28.291,29.586 29.081,29.586 C 29.383,29.586 29.809,29.508 30.116,29.313 V 28.552 C 30.116,28.309 30.173,28.232 30.467,28.214 V 28.158 H 29.203 Z M 31.664,27.96 V 26.583 H 32.014 C 32.297,26.583 32.489,26.635 32.614,26.731 A 0.346,0.346 0 0,1 32.705,26.819 V 26.82 C 32.793,26.93 32.827,27.072 32.827,27.241 C 32.827,27.669 32.704,27.959 32.081,27.959 H 31.664 Z M 33.65,29.426 A 0.482,0.482 0 0,1 33.567,29.416 A 0.33,0.33 0 0,1 33.427,29.366 C 33.334,29.306 33.295,29.189 33.257,28.967 L 33.23,28.79 A 1.51,1.51 0 0,0 33.214,28.7 C 33.213,28.683 33.208,28.666 33.205,28.65 H 33.204 C 33.125,28.27 32.951,28.038 32.37,28.011 V 27.998 C 33.037,27.903 33.3,27.604 33.3,27.228 C 33.3,26.813 32.94,26.498 32.046,26.498 H 30.75 V 26.548 C 31.14,26.562 31.246,26.674 31.246,26.86 V 29.144 C 31.246,29.243 31.218,29.319 31.138,29.371 A 0.404,0.404 0 0,1 31.013,29.423 A 0.768,0.768 0 0,1 30.867,29.447 C 30.863,29.449 30.857,29.449 30.851,29.449 L 30.821,29.451 H 30.819 C 30.797,29.454 30.773,29.454 30.75,29.456 V 29.512 H 32.145 V 29.456 C 31.733,29.443 31.663,29.343 31.663,29.144 V 28.046 H 32.058 C 32.58,28.046 32.698,28.136 32.751,28.569 L 32.799,28.98 A 2.03,2.03 0 0,0 32.817,29.102 C 32.826,29.153 32.836,29.198 32.849,29.238 V 29.24 A 0.067,0.067 0 0,0 32.855,29.258 H 32.856 C 32.856,29.264 32.859,29.27 32.861,29.276 C 32.867,29.288 32.871,29.302 32.877,29.313 L 32.881,29.322 C 32.943,29.452 33.047,29.518 33.24,29.534 C 33.272,29.537 33.307,29.538 33.343,29.538 H 33.355 A 1.449,1.449 0 0,0 33.61,29.517 C 33.673,29.507 33.734,29.493 33.791,29.477 V 29.43 C 33.738,29.43 33.691,29.428 33.649,29.426 Z M 36.285,28.927 C 36.261,28.986 36.238,29.039 36.21,29.088 A 0.882,0.882 0 0,1 36.05,29.298 A 0.729,0.729 0 0,1 35.68,29.482 C 35.609,29.497 35.533,29.503 35.455,29.503 A 0.917,0.917 0 0,1 34.919,29.355 A 0.788,0.788 0 0,1 34.758,29.203 A 1.102,1.102 0 0,1 34.579,28.866 V 28.864 L 34.559,28.803 A 2.85,2.85 0 0,1 34.464,28.003 C 34.464,26.839 34.854,26.505 35.416,26.505 C 35.982,26.505 36.412,26.835 36.412,28.007 A 4.357,4.357 0 0,1 36.389,28.457 C 36.367,28.642 36.331,28.798 36.285,28.927 Z M 35.438,26.423 C 34.696,26.423 33.977,27.068 33.977,28.011 C 33.977,28.484 34.147,28.875 34.417,29.149 V 29.15 A 1.318,1.318 0 0,0 34.707,29.38 V 29.382 C 34.725,29.392 34.742,29.401 34.759,29.412 H 34.761 C 34.967,29.525 35.199,29.586 35.438,29.586 A 1.303,1.303 0 0,0 35.947,29.482 A 1.535,1.535 0 0,0 36.719,28.764 V 28.762 C 36.833,28.542 36.899,28.283 36.899,27.998 C 36.899,27.046 36.197,26.423 35.438,26.423 Z M 40.461,26.497 V 26.549 C 40.851,26.618 40.94,26.748 40.795,27.193 L 40.242,28.919 H 40.224 L 39.571,26.916 C 39.478,26.64 39.535,26.57 39.904,26.549 V 26.497 H 38.644 V 26.549 C 38.952,26.583 39.035,26.631 39.154,26.999 L 39.233,27.241 L 38.752,28.495 L 38.744,28.514 L 38.687,28.661 L 38.61,28.864 L 38.583,28.932 H 38.566 L 38.542,28.856 L 38.498,28.709 L 38.463,28.588 L 38.455,28.558 H 38.453 L 38.447,28.533 H 38.446 L 38.377,28.299 L 38.332,28.148 L 38.255,27.891 L 38.245,27.861 V 27.856 L 38.234,27.818 L 38.224,27.792 L 38.214,27.757 L 38.194,27.687 L 38.166,27.593 L 38.165,27.591 L 38.001,27.036 L 37.964,26.916 C 37.926,26.791 37.918,26.7 37.978,26.64 A 0.186,0.186 0 0,1 38.044,26.596 A 0.884,0.884 0 0,1 38.294,26.548 V 26.497 H 37.004 V 26.549 L 37.08,26.562 C 37.355,26.614 37.433,26.7 37.53,26.999 L 37.782,27.789 L 37.811,27.879 L 37.925,28.24 L 37.96,28.351 L 37.962,28.353 L 38.046,28.621 L 38.048,28.622 L 38.054,28.642 V 28.644 L 38.077,28.716 L 38.097,28.779 L 38.102,28.795 L 38.136,28.902 L 38.359,29.602 H 38.456 L 38.52,29.43 L 38.693,28.97 L 38.702,28.944 L 38.721,28.894 L 38.886,28.451 L 38.892,28.439 L 38.896,28.426 L 39.286,27.384 L 40.031,29.603 H 40.128 L 40.892,27.253 C 41.041,26.795 41.194,26.601 41.519,26.549 V 26.497 H 40.46 Z M 44.353,26.497 H 41.71 L 41.684,27.392 L 41.741,27.397 C 41.995,26.852 42.289,26.583 42.61,26.583 H 42.824 V 29.144 C 42.824,29.334 42.684,29.443 42.294,29.456 V 29.512 H 43.768 V 29.456 C 43.378,29.443 43.237,29.335 43.237,29.144 V 26.584 H 43.452 C 43.786,26.584 44.075,26.886 44.321,27.397 L 44.378,27.392 L 44.352,26.497 Z M 48,26.549 V 26.497 H 46.631 V 26.549 C 47.044,26.562 47.087,26.661 47.087,26.856 V 27.903 H 45.626 V 26.856 C 45.626,26.661 45.67,26.562 46.086,26.549 V 26.497 H 44.713 V 26.549 C 45.103,26.562 45.209,26.67 45.209,26.856 V 29.149 C 45.209,29.339 45.104,29.443 44.713,29.456 V 29.512 H 46.087 V 29.456 C 45.67,29.443 45.626,29.348 45.626,29.149 V 27.994 H 47.087 V 29.149 C 47.087,29.348 47.043,29.443 46.631,29.456 V 29.512 H 48.001 V 29.456 C 47.61,29.443 47.504,29.339 47.504,29.149 V 26.856 C 47.504,26.67 47.61,26.562 48,26.549 Z" fill="rgb(254, 254, 253)"/>
<path d="M 19.99,23.985 C 20.36,24.14 20,24.5 20,24.5 V 24.59 H 13 V 25 H 43 V 24.59 H 37.41 L 37.5,24.5 C 37.667,24.333 38,23.8 38,23 S 37,22.333 36.5,22.5 C 36.5,22.333 36.4,21.9 36,21.5 C 35.5,21 35,21 34.5,21 C 34.25,21 34.125,20.75 33.937,20.375 C 33.75,20 33.5,19.5 33,19 C 32.303,18.303 31.849,18.578 31.468,18.808 C 31.303,18.908 31.151,19 31,19 C 30.5,19 30,18.5 29.5,18 C 29.167,17.667 28.833,17.778 28.5,17.889 C 28.333,17.944 28.167,18 28,18 C 27.75,18 27.625,17.75 27.5,17.5 S 27.25,17 27,17 S 26.625,17.125 26.5,17.25 S 26.25,17.5 26,17.5 C 25.809,17.5 25.764,17.427 25.725,17.365 C 25.663,17.264 25.618,17.191 25,17.5 C 24.36,17.82 24.334,17.935 24.268,18.24 C 24.23,18.41 24.18,18.64 24,19 C 23.72,19.561 23.596,19.492 23.454,19.412 C 23.342,19.35 23.219,19.281 23,19.5 C 22.75,19.75 22.5,19.625 22.25,19.5 S 21.75,19.25 21.5,19.5 C 21.16,19.84 21.123,20.04 21.083,20.26 C 21.064,20.364 21.045,20.472 20.993,20.602 C 20.947,20.714 20.885,20.799 20.821,20.887 C 20.668,21.098 20.5,21.329 20.5,22 C 20.5,22.951 20.902,23.098 21.196,23.206 C 21.366,23.268 21.5,23.317 21.5,23.5 C 21.5,23.885 20.922,23.305 20.62,23.003 L 20.586,22.969 C 20.296,22.679 19.586,23.031 19.289,23.203 C 18.992,23.375 18.829,23.794 19.172,24 C 19.566,24.236 19.657,24.143 19.742,24.057 C 19.799,23.998 19.854,23.943 20,24 Z M 30.05,24.59 H 28.813 C 29.011,24.392 29.197,24.181 29,24 C 28.652,23.68 28.936,23.533 29.516,23.4 C 29.806,23.4 30.384,23.48 30.384,23.8 C 30.384,24 30.214,24.316 30.051,24.59 Z M 30.274,24.59 H 30.41 C 30.436,24.561 30.466,24.531 30.5,24.5 C 30.634,24.377 30.756,24.301 30.85,24.244 C 31.06,24.114 31.12,24.077 30.819,23.8 C 30.549,23.552 30.35,24.088 30.274,24.59 Z M 13,31 H 43 V 31.41 H 38.702 C 38.752,31.502 38.77,31.642 38.652,31.809 C 38.48,32.052 38.01,32.012 37.797,31.961 C 37.763,32.227 37.643,32.795 37.434,32.945 C 37.215,33.102 36.861,32.954 36.624,32.855 C 36.578,32.835 36.536,32.818 36.5,32.805 A 0.971,0.971 0 0,1 36.129,32.535 C 36.016,32.669 35.744,32.895 35.563,32.727 C 35.443,32.617 35.47,32.512 35.491,32.429 C 35.51,32.352 35.524,32.293 35.421,32.262 C 35.312,32.228 35.246,32.262 35.186,32.292 C 35.129,32.321 35.076,32.347 34.996,32.309 C 34.901,32.263 34.908,32.219 34.918,32.157 C 34.925,32.112 34.934,32.057 34.906,31.984 C 34.84,31.812 34.633,31.727 34.34,31.871 C 34.16,31.96 34.247,32.134 34.319,32.279 C 34.364,32.369 34.403,32.449 34.367,32.489 C 34.273,32.589 34.039,32.359 34.012,32.262 C 33.984,32.164 33.872,32.141 33.793,32.219 C 33.73,32.281 33.473,32.357 33.352,32.387 A 4.04,4.04 0 0,0 33.094,32.973 C 33.063,33.073 32.994,33.176 32.921,33.288 C 32.817,33.444 32.703,33.617 32.664,33.824 C 32.598,34.18 32.594,34.711 32.633,34.914 C 32.672,35.117 32.727,35.422 32.695,35.734 A 0.986,0.986 0 0,0 32.805,36.324 L 32.82,36.356 C 32.877,36.477 33.068,36.45 33.156,36.422 A 0.372,0.372 0 0,1 33.395,36.203 C 33.538,36.163 33.611,36.332 33.629,36.422 C 33.932,36.385 34.531,36.362 34.5,36.562 C 34.472,36.741 34.277,36.651 34.134,36.585 C 34.076,36.558 34.027,36.535 34,36.535 C 33.925,36.535 33.69,36.595 33.582,36.625 C 33.529,36.643 33.403,36.669 33.328,36.625 A 1.123,1.123 0 0,0 33.031,36.535 A 1.493,1.493 0 0,1 32.356,36.535 A 1.47,1.47 0 0,0 31.574,36.557 L 31.551,36.562 A 0.818,0.818 0 0,0 31.305,36.652 C 31.289,36.595 31.235,36.474 31.148,36.449 C 31.039,36.418 30.949,36.589 30.984,36.679 L 31.002,36.723 C 31.048,36.828 31.122,37 31,37 C 30.881,37 30.604,36.876 30.58,36.86 C 30.578,36.87 30.512,36.923 30.352,36.86 A 0.361,0.361 0 0,1 30.137,36.652 C 30.049,36.611 29.852,36.546 29.762,36.622 C 29.672,36.696 29.779,36.84 29.844,36.902 L 29.578,36.719 C 29.494,36.762 29.304,36.836 29.223,36.789 C 29.184,36.767 29.178,36.729 29.173,36.693 C 29.163,36.636 29.156,36.585 29.008,36.621 C 28.818,36.668 28.814,36.753 28.836,36.789 L 28.66,36.652 A 1.914,1.914 0 0,0 28.008,36.652 C 27.714,36.702 27.313,36.574 27.148,36.504 A 2.316,2.316 0 0,1 27.016,36.652 C 26.953,36.715 26.77,36.805 26.836,36.652 C 26.884,36.542 26.806,36.54 26.686,36.537 A 1.263,1.263 0 0,1 26.536,36.527 C 26.441,36.514 26.404,36.557 26.366,36.6 C 26.326,36.646 26.286,36.692 26.18,36.676 C 26.014,36.651 25.994,36.53 26.004,36.473 C 25.941,36.608 25.789,36.857 25.68,36.77 C 25.57,36.682 25.668,36.535 25.73,36.473 L 25.477,36.503 C 25.415,36.623 25.251,36.873 25.082,36.91 C 24.909,36.949 24.834,36.853 24.762,36.764 A 1.014,1.014 0 0,0 24.715,36.707 A 0.204,0.204 0 0,1 24.665,36.549 C 24.635,36.662 24.574,36.805 24.488,36.805 C 24.403,36.805 24.384,36.847 24.362,36.895 C 24.35,36.921 24.338,36.949 24.312,36.973 C 24.262,37.021 24.214,36.956 24.162,36.883 A 0.874,0.874 0 0,0 24.102,36.805 C 24.062,36.76 24.066,36.718 24.07,36.68 C 24.073,36.645 24.077,36.614 24.043,36.59 C 24.001,36.56 23.956,36.557 23.864,36.552 C 23.801,36.548 23.717,36.543 23.598,36.527 C 23.305,36.488 22.625,36.527 22.426,36.567 C 22.337,36.584 22.188,36.627 22.031,36.672 C 21.836,36.728 21.631,36.787 21.516,36.805 C 21.309,36.835 21.094,36.789 21.106,36.641 C 21.117,36.492 21.23,36.449 21.324,36.473 C 21.365,36.483 21.402,36.451 21.459,36.402 C 21.53,36.339 21.633,36.249 21.816,36.184 C 22.031,36.107 22.038,36.193 22.044,36.261 C 22.047,36.297 22.05,36.328 22.082,36.328 C 22.109,36.328 22.147,36.324 22.191,36.318 C 22.301,36.306 22.449,36.289 22.535,36.328 C 22.656,36.383 23.039,36.301 23.098,36.184 C 23.156,36.066 23.109,35.566 23.078,35.418 C 23.047,35.27 23.028,34.93 23.078,34.258 L 23.09,34.106 C 23.113,33.801 23.123,33.681 23.099,33.569 A 1.481,1.481 0 0,0 23.006,33.313 L 22.996,33.289 C 22.881,33.014 22.508,32.732 22.336,32.625 C 22.328,32.617 22.302,32.617 22.258,32.68 C 22.233,32.716 22.234,32.798 22.236,32.918 C 22.238,33.059 22.241,33.252 22.203,33.484 C 22.133,33.914 21.617,33.914 21.305,33.898 C 21.006,33.883 21.115,33.661 21.233,33.417 L 21.25,33.383 C 21.336,33.205 21.267,33.109 21.151,32.95 A 2.387,2.387 0 0,1 20.977,32.68 C 20.877,32.497 21.01,32.351 21.123,32.226 C 21.233,32.104 21.326,32.002 21.172,31.906 C 20.974,31.783 20.829,32.126 20.716,32.394 C 20.651,32.549 20.596,32.68 20.546,32.68 A 0.685,0.685 0 0,1 20.425,32.665 C 20.325,32.647 20.202,32.625 20,32.68 C 19.883,32.711 19.796,32.798 19.698,32.897 C 19.554,33.042 19.384,33.213 19.055,33.273 C 18.678,33.343 18.597,33.159 18.512,32.968 C 18.472,32.878 18.432,32.786 18.359,32.718 C 18.246,32.614 18.194,32.627 18.119,32.645 C 18.046,32.664 17.949,32.688 17.75,32.602 C 17.44,32.468 17.524,31.769 17.61,31.41 H 13 V 31 Z M 33.123,31.41 C 33.085,31.74 33.055,32.195 33.145,32.219 C 33.271,32.252 33.423,31.841 33.481,31.685 L 33.488,31.665 C 33.511,31.603 33.539,31.503 33.563,31.41 H 33.123 Z M 27.953,32.945 C 27.87,33.089 27.702,33.419 27.695,33.594 C 27.692,33.698 27.725,33.898 27.76,34.109 C 27.8,34.339 27.84,34.583 27.836,34.727 C 27.828,35 27.82,36.047 27.953,36.211 C 28.059,36.342 28.44,36.349 28.617,36.336 C 28.537,36.263 28.413,36.092 28.562,35.992 C 28.75,35.867 28.812,35.922 28.82,35.992 C 28.823,36.019 28.803,36.049 28.782,36.082 C 28.746,36.136 28.707,36.196 28.766,36.25 C 28.841,36.319 29.078,36.336 29.188,36.336 C 29.172,36.247 29.181,36.072 29.344,36.078 C 29.506,36.084 29.547,36.299 29.547,36.406 C 29.682,36.383 29.998,36.336 30.18,36.336 H 30.26 C 30.461,36.338 30.672,36.34 30.906,36.25 L 30.976,36.223 C 31.077,36.184 31.104,36.173 31.126,36.179 C 31.135,36.18 31.143,36.184 31.153,36.189 C 31.166,36.194 31.183,36.202 31.211,36.211 A 0.515,0.515 0 0,1 31.321,36.266 C 31.402,36.316 31.49,36.368 31.641,36.336 C 31.816,36.298 31.839,36.367 31.828,36.406 C 31.896,36.388 32.047,36.331 32.109,36.25 C 32.169,36.148 32.266,35.848 32.172,35.46 C 32.078,35.073 32.132,34.148 32.172,33.734 C 32.224,33.602 32.191,33.222 31.641,32.766 C 31.421,32.622 31.336,32.664 31.321,32.703 C 31.281,33.151 31.05,34.022 30.437,33.922 C 29.977,33.847 30.137,33.685 30.313,33.506 C 30.43,33.387 30.555,33.261 30.508,33.148 C 30.453,33.016 30.342,32.96 30.241,32.908 C 30.127,32.85 30.023,32.798 30.023,32.648 C 30.023,32.528 30.092,32.414 30.153,32.314 C 30.233,32.182 30.3,32.072 30.18,31.992 C 29.969,31.852 29.43,32.227 29.602,32.437 C 29.773,32.648 28.93,33.336 28.508,33.313 A 0.631,0.631 0 0,1 27.953,32.945 Z M 22.895,32.93 A 5.71,5.71 0 0,0 22.305,32.492 C 22.295,32.479 22.298,32.456 22.383,32.469 C 22.488,32.484 22.981,32.492 23.055,32.359 C 23.115,32.253 23.46,32.211 23.625,32.203 C 23.642,32.299 23.673,32.527 23.665,32.664 C 23.655,32.802 23.415,33.271 23.297,33.488 C 23.217,33.354 23.026,33.055 22.895,32.93 Z M 24.297,32.5 C 24.247,32.583 24.128,32.797 24.047,32.984 C 24.017,33.054 23.963,33.136 23.901,33.231 C 23.756,33.453 23.567,33.743 23.539,34.094 C 23.5,34.594 23.57,35.164 23.594,35.204 C 23.611,35.232 23.637,35.462 23.659,35.656 L 23.679,35.836 C 23.685,35.879 23.688,35.929 23.691,35.98 C 23.701,36.152 23.712,36.341 23.821,36.36 C 23.961,36.383 24.414,36.367 24.594,36.29 C 24.648,36.266 24.728,36.217 24.82,36.161 C 25.035,36.031 25.313,35.863 25.46,35.891 C 25.57,35.911 25.597,35.989 25.622,36.059 C 25.646,36.125 25.667,36.184 25.75,36.179 C 25.777,36.179 25.803,36.177 25.828,36.175 A 0.855,0.855 0 0,1 26.234,36.219 C 26.414,36.289 26.742,36.359 26.852,36.289 L 26.872,36.276 C 26.986,36.203 27.182,36.078 27.203,35.961 C 27.227,35.836 27.328,35.242 27.266,35.031 C 27.203,34.821 27.156,34.313 27.156,34.148 C 27.156,34.09 27.168,33.972 27.181,33.841 C 27.205,33.605 27.233,33.327 27.203,33.281 C 27.166,33.225 27.188,32.909 27.203,32.758 C 27.138,32.708 26.97,32.639 26.82,32.758 C 26.633,32.906 26.234,32.718 26.234,32.555 C 26.234,32.391 26.047,32.313 25.898,32.313 C 25.85,32.313 25.838,32.378 25.822,32.456 C 25.79,32.619 25.748,32.836 25.352,32.625 C 24.766,32.312 24.5,32.335 24.453,32.367 A 1.87,1.87 0 0,0 24.297,32.5 Z M 32.781,32.484 C 32.756,32.216 32.49,32.008 32.359,31.937 C 32.372,32.065 32.331,32.353 32.062,32.484 C 31.794,32.616 31.596,32.508 31.532,32.437 C 31.49,32.453 31.482,32.534 31.789,32.734 C 32.095,32.934 32.297,33.297 32.359,33.454 C 32.51,33.242 32.806,32.754 32.781,32.484 Z" fill="rgb(254, 254, 253)" fill-rule="evenodd"/>
</svg>
