<?xml version="1.0" encoding="UTF-8"?>
<!-- generated by Finnhub -->
<svg viewBox="0 0 55.5 55.5" xmlns="http://www.w3.org/2000/svg">
<path d="M 0,0 H 55.5 V 55.5 H 0 Z" fill="rgb(185, 11, 45)"/>
<path d="M 12.3,30.623 C 13.16,35.747 16.498,40.199 21.157,42.443 C 25.495,44.533 30.591,44.493 34.927,42.455 C 39.003,40.539 42.319,36.649 43.458,32.22 C 44.404,28.543 44.111,24.592 42.444,21.157 C 40.144,16.42 35.816,13.173 30.638,12.311 A 15.832,15.832 0 0,0 25.442,12.315 C 20.292,13.171 15.833,16.533 13.652,21.181 C 12.267,24.135 11.775,27.425 12.31,30.638 Z" fill="rgb(254, 254, 253)"/>
<path d="M 27.185,13.075 C 24.005,13.283 21.36,14.34 18.977,16.121 A 14.254,14.254 0 0,0 16.583,18.403 C 16.43,18.585 16.309,18.721 16.168,18.914 C 15.298,20.1 14.706,21.028 14.121,22.504 A 15.176,15.176 0 0,0 13.087,28.942 C 13.54,36.912 20.383,43.513 28.942,43.02 C 36.924,42.56 43.517,35.718 43.02,27.165 C 42.834,23.962 41.74,21.367 39.986,18.975 L 38.688,17.49 C 37.9,16.698 37.04,15.976 36.084,15.386 C 33.44,13.756 30.486,12.89 27.194,13.089 Z" fill="rgb(200, 34, 73)"/>
<path d="M 27.197,13.365 C 23.881,13.604 21.077,14.75 18.651,16.76 A 14.767,14.767 0 0,0 15.628,20.194 C 14.038,22.719 13.178,25.779 13.378,28.919 C 13.588,32.195 14.778,35.065 16.76,37.455 A 14.66,14.66 0 0,0 28.91,42.729 A 14.66,14.66 0 0,0 37.457,39.347 L 38.431,38.467 C 38.593,38.303 38.721,38.141 38.88,37.987 C 39.99,36.897 41.142,34.928 41.72,33.478 A 14.69,14.69 0 0,0 39.348,18.65 L 38.468,17.675 C 35.543,14.763 31.453,13.095 27.208,13.381 Z" fill="rgb(254, 254, 253)"/>
<path d="M 27.360999999999997,18.672 C 22.458,19.079 18.468,23.307 18.843,28.66 C 19.185,33.531 23.508,37.656 28.876,37.208 C 33.731,36.803 37.782,32.581 37.373,27.233 C 37,22.347 32.74,18.259 27.371,18.687 Z" fill="rgb(200, 34, 73)"/>
<path d="M 24.096999999999998,23.99 L 24.025,24.053 C 23.65,24.047 23.902,23.913 23.642,23.832 C 23.413,23.76 23.274,23.857 23.17,23.955 C 23.017,24.1 22.949,24.082 22.741,24.167 C 22.485,24.273 22.582,24.344 22.338,24.405 C 22.088,24.469 22.11,24.471 21.984,24.66 C 21.878,24.82 21.819,24.874 21.704,25.022 C 21.497,25.292 21.367,25.488 21.339,25.948 C 21.073,26.21 20.509,26.256 20.791,26.93 C 21.101,27.67 21.413,27.338 21.774,27.21 C 21.964,27.316 22.585,27.972 22.684,28.429 C 22.894,29.403 23.179,30.381 23.429,31.322 C 23.651,32.158 23.86,32.699 24.243,33.397 C 24.488,33.845 25.793,35.642 26.212,35.78 C 27.08,36.065 27.732,35.303 28.246,34.989 C 28.996,34.53 29.66,34.021 30.301,33.439 C 30.684,33.093 31.041,32.696 31.355,32.282 C 31.472,32.128 31.869,31.499 31.977,31.433 C 32.167,31.498 32.237,31.628 32.535,31.501 A 0.761,0.761 0 0,0 32.927,31.134 C 33.581,31.164 33.461,30.859 33.903,30.767 C 34.072,30.732 34.117,30.717 34.259,30.651 C 34.226,30.564 34.201,30.557 34.197,30.448 L 34.435,30.241 C 34.425,30.105 34.425,30.201 34.405,30.15 C 34.307,29.887 34.503,29.82 34.425,29.529 L 34.294,29.945 L 34.239,29.811 C 34.158,29.864 34.174,29.921 34.093,29.935 L 34.128,29.689 C 34.058,29.745 34.003,29.815 33.999,29.885 C 33.991,29.592 34.057,29.287 34.038,28.943 C 34.024,28.685 33.972,28.272 33.876,28.081 C 33.89,28.255 33.966,28.453 33.94,28.658 C 33.919,28.826 33.87,28.783 33.828,28.889 A 0.224,0.224 0 0,0 33.822,28.909 L 33.698,29.357 C 33.666,29.455 33.709,29.311 33.69,29.475 C 33.676,29.598 33.575,29.659 33.513,29.763 C 33.449,29.871 33.557,29.776 33.44,29.882 L 33.4,29.81 L 33.388,29.785 C 33.348,29.701 33.39,29.744 33.333,29.669 C 33.319,29.695 33.325,29.697 33.308,29.739 L 33.298,29.765 L 33.287,29.792 L 33.203,29.576 C 33.155,29.59 33.219,29.579 33.164,29.606 C 33.05,29.663 33.211,29.667 33.1,29.622 C 33.06,29.404 33.095,29.306 33.186,29.164 C 33.286,29.245 33.353,29.396 33.53,29.194 C 33.45,28.964 33.295,29.049 33.1,28.963 C 33.047,28.94 33.07,28.94 33.02,29.004 C 33.016,29.009 33.01,29.022 33.003,29.03 C 32.959,28.914 32.975,28.923 32.874,28.866 L 33.025,29.272 C 32.877,29.117 32.692,28.837 32.65,28.578 C 32.753,28.671 32.873,28.67 33.005,28.59 C 33.014,28.35 32.947,28.445 32.769,28.33 C 32.643,28.248 32.599,28.161 32.495,28.07 C 32.373,27.961 32.32,27.94 32.295,27.728 C 32.273,27.529 32.282,27.508 32.434,27.452 L 32.457,27.442 C 32.462,27.441 32.474,27.438 32.481,27.432 C 32.093,27.061 32.276,27.806 31.275,27.077 C 30.632,26.609 30.373,26.938 29.719,26.743 A 0.53,0.53 0 0,1 29.741,26.387 C 29.783,26.304 29.906,26.212 29.976,26.13 C 29.846,26.153 29.699,26.225 29.654,26.3 C 29.441,26.65 29.63,26.626 28.954,27.134 C 27.972,27.872 28.647,28.189 28.624,28.514 C 28.602,28.827 28.104,28.974 27.835,29.76 C 27.699,30.157 27.629,31.122 27.375,31.361 C 27.154,31.169 27.098,30.871 26.904,30.699 C 26.666,30.489 26.557,30.343 26.342,30.12 C 25.979,29.744 25.658,29.218 25.405,28.737 C 25.269,28.477 24.675,27.334 24.81,27.095 L 25.032,26.742 C 25.832,25.042 24.534,25.705 26.026,24.882 C 26.286,24.739 26.528,24.6 26.78,24.46 L 27.908,23.84 C 28.097,23.74 28.116,23.671 28.374,23.695 C 28.593,23.964 28.767,24.271 29.015,24.52 C 29.157,24.663 29.207,24.738 29.413,24.838 C 29.699,24.978 29.679,24.95 29.91,24.808 C 30.193,24.633 30.532,24.452 30.854,24.29 A 7.15,7.15 0 0,0 31.76,23.742 C 31.696,23.061 31.392,22.424 31.343,21.987 C 31.435,21.893 31.458,21.909 31.56,21.809 C 31.562,21.399 31.124,20.489 30.635,20.83 C 30.288,20.485 30.099,20.019 29.617,19.811 C 29.445,19.737 29.306,19.862 29.157,19.951 C 28.873,20.119 28.593,20.281 28.293,20.443 C 28.027,20.588 27.659,20.841 27.41,20.935 C 27.41,21.5 27.58,21.972 27.752,22.435 C 27.204,22.819 25.984,23.433 25.347,23.776 C 25.091,23.914 24.772,24.096 24.52,24.192 C 24.387,23.962 24.41,24.025 24.107,24.004 V 24.005 Z" fill="rgb(254, 254, 253)"/>
<path d="M 23.366,37.511 C 22.526,37.674 22.033,38.746 21.971,39.438 C 21.916,40.042 22.128,40.37 22.435,40.628 C 22.709,40.858 23.256,41.083 23.735,41 C 24.834,40.809 25.698,38.635 24.639,37.89 C 24.329,37.671 23.864,37.442 23.376,37.526 Z M 23.529,38.212 C 22.902,38.389 22.426,39.537 22.836,40.084 A 0.71,0.71 0 0,0 23.582,40.316 C 23.972,40.196 24.293,39.686 24.382,39.191 C 24.492,38.586 24.115,38.046 23.529,38.211 Z M 31.89,37.952 L 32.513,40.139 C 32.266,39.938 30.873,38.47 30.658,38.317 L 29.96,38.521 L 30.877,41.693 L 31.48,41.53 L 30.86,39.358 C 31.012,39.437 32.447,40.897 32.727,41.148 L 33.411,40.967 L 32.491,37.792 L 31.89,37.952 Z M 21.642,38.78 C 21.464,38.687 21.292,38.515 21.097,38.383 C 20.907,38.493 20.413,38.954 19.973,38.38 C 19.601,37.895 20.232,37.06 20.61,36.806 C 21.1,36.478 21.553,36.673 21.688,37.061 C 21.794,37.365 21.652,37.525 21.588,37.757 C 21.693,37.858 22.018,38.131 22.139,38.181 C 22.302,37.831 22.557,37.501 22.388,36.964 C 22.269,36.586 21.971,36.31 21.683,36.136 C 20.403,35.363 19.273,37.049 19.153,37.801 C 19.014,38.686 19.939,39.381 20.631,39.349 C 21.057,39.329 21.484,39.043 21.641,38.779 Z M 36.048,38.039 L 35.438,38.391 C 35.48,38.636 35.593,38.781 35.492,39.057 A 0.699,0.699 0 0,1 35.063,39.451 C 34.316,39.669 33.455,38.231 33.887,37.632 A 0.681,0.681 0 0,1 34.475,37.388 C 34.741,37.417 34.854,37.574 35.01,37.716 C 35.121,37.691 35.517,37.453 35.603,37.364 C 35.503,37.14 35.102,36.799 34.761,36.722 C 33.975,36.545 32.328,37.389 33.408,39.146 C 33.75,39.702 34.333,40.469 35.337,40.045 C 35.672,39.903 35.989,39.62 36.134,39.309 C 36.367,38.811 36.184,38.466 36.048,38.039 Z M 30.036,26.91 L 30.274,27.006 C 30.091,27.14 30.001,26.96 29.728,27.011 C 29.25,27.099 29.14,26.984 28.733,27.449 C 28.642,27.553 28.551,27.821 28.546,27.991 C 28.767,28.094 28.696,28.103 29.017,28.084 C 29.265,28.069 29.366,28.111 29.462,28.249 C 29.462,28.096 29.459,28.182 29.496,28.126 C 29.68,28.097 29.629,28.064 29.781,28.146 C 29.849,28.183 29.819,28.176 29.908,28.199 C 30.15,28.261 30.139,28.302 30.338,28.309 C 30.621,28.317 30.473,28.263 30.603,28.216 C 30.734,28.33 30.713,28.443 30.823,28.548 L 30.95,28.448 L 30.971,28.429 L 30.992,28.411 C 31.046,28.461 31.072,28.491 31.126,28.547 C 31.16,28.581 31.17,28.584 31.199,28.618 C 31.333,28.778 31.322,29.06 31.594,28.888 C 31.621,29.014 31.804,29.266 31.859,29.528 C 31.831,29.395 31.877,29.393 31.906,29.358 C 32.004,29.818 32.03,29.688 32.099,29.859 C 32.177,30.053 32.097,30.274 32.156,30.469 C 32.229,30.355 32.218,30.054 32.228,29.872 C 32.234,29.777 32.236,29.68 32.265,29.584 C 32.295,29.48 32.275,29.514 32.315,29.516 C 32.532,29.523 32.211,29.664 32.368,29.552 C 32.368,29.395 32.356,29.184 32.41,29.058 L 32.494,28.924 C 32.52,28.894 32.524,28.9 32.561,28.864 C 32.707,28.997 32.676,29.33 32.686,29.517 C 32.687,29.534 32.692,29.611 32.694,29.624 L 32.735,29.75 C 32.775,28.74 32.623,28.858 32.405,28.742 L 32.401,28.178 C 32.277,28.083 32.381,28.175 32.25,28.128 C 31.963,28.024 31.954,27.914 31.939,27.768 C 31.809,27.85 31.862,27.841 31.753,27.712 L 31.615,27.61 C 31.449,27.54 31.405,27.441 31.343,27.406 L 31.073,27.279 C 30.966,27.218 30.837,27.299 30.598,27.045 C 30.328,26.757 30.472,26.928 30.237,26.936 C 30.203,26.937 30.11,26.914 30.036,26.911 Z M 37.398,32.047 C 37.505,32.137 39.915,33.086 40.183,33.155 L 39.837,34.077 L 40.508,34.354 L 41.494,31.803 L 40.829,31.561 L 40.46,32.47 C 39.973,32.328 37.92,31.41 37.65,31.41 L 37.398,32.047 Z M 38.248,28.242 L 39.842,28.395 L 39.713,29.878 C 39.303,29.888 38.416,29.698 38.103,29.755 L 38.036,30.468 L 41.716,30.821 C 41.803,30.641 41.786,30.311 41.813,30.097 L 40.445,29.96 C 40.422,29.832 40.535,28.626 40.575,28.485 L 41.958,28.597 L 42.023,27.877 L 38.329,27.511 L 38.248,28.242 Z M 38.586,26.769 L 38.254,26.943 L 38.316,27.302 C 38.566,27.29 40.179,26.934 40.336,26.84 L 40.048,25.527 L 39.417,25.661 L 39.547,26.296 C 38.967,26.322 38.541,26.089 38.565,25.484 C 38.585,24.994 39.047,24.734 39.479,24.602 C 39.979,24.449 40.625,24.511 40.869,24.835 C 40.993,24.999 41.094,25.269 41.009,25.525 A 0.678,0.678 0 0,1 40.837,25.783 L 40.597,25.966 A 0.219,0.219 0 0,0 40.581,25.984 L 40.75,26.746 C 42.343,26.342 42.093,23.559 39.896,23.736 C 39.081,23.802 38.231,24.159 37.959,24.723 C 37.775,25.104 37.783,25.549 37.917,25.966 C 38.097,26.523 38.4,26.604 38.586,26.769 Z M 37.12,23.385 C 37.163,23.529 37.342,23.942 37.436,24.043 L 40.787,22.48 L 40.483,21.815 L 37.12,23.385 Z M 35.094,20.568 C 35.156,20.69 35.467,21.058 35.581,21.151 L 37.923,19.948 C 37.821,20.176 36.464,21.74 36.294,22.025 C 36.372,22.195 36.624,22.456 36.758,22.604 C 36.942,22.563 37.415,22.296 37.611,22.199 L 40.173,20.913 L 39.728,20.353 C 39.58,20.397 39.291,20.571 39.138,20.658 L 37.337,21.622 L 39.033,19.535 C 38.978,19.427 38.906,19.351 38.821,19.249 C 38.73,19.139 38.662,19.048 38.589,18.961 L 36.191,20.213 C 36.213,20.148 37.686,18.339 37.891,18.143 A 3.832,3.832 0 0,0 37.436,17.58 L 35.094,20.567 Z M 32.037,18.564 C 32.221,18.714 33.565,19.522 33.809,19.586 C 34.651,19.807 35.254,18.976 35.534,18.517 C 35.891,17.931 36.224,17.055 35.673,16.475 C 35.443,16.233 34.763,15.86 34.397,15.646 C 34.257,15.564 34.078,15.441 33.94,15.382 C 33.853,15.456 33.763,15.634 33.693,15.749 L 32.036,18.564 Z M 33.031,18.313 C 33.041,18.322 33.051,18.322 33.054,18.334 C 33.058,18.346 33.07,18.349 33.074,18.354 L 33.499,18.613 C 34.074,18.954 34.363,18.96 34.884,18.116 C 35.293,17.454 35.341,17.043 34.699,16.662 C 34.568,16.584 34.322,16.417 34.189,16.382 L 33.03,18.313 Z M 28.507,15.705 C 28.15,15.842 27.919,15.994 27.781,16.33 C 27.315,17.464 28.3,18.317 29.313,17.933 C 29.514,17.857 29.638,17.723 29.766,17.679 C 29.979,17.919 29.758,18.111 30.868,18.111 C 30.756,17.813 30.434,17.472 30.306,17.173 C 30.359,17.063 30.462,16.969 30.539,16.842 A 1.94,1.94 0 0,0 30.736,16.424 C 30.644,16.304 30.488,16.212 30.372,16.116 C 30.282,16.199 30.224,16.418 29.98,16.674 L 29.856,16.512 L 29.732,16.314 C 29.647,16.178 29.55,16.069 29.498,15.9 C 30.313,15.659 30.395,14.473 29.479,14.248 C 28.697,14.056 27.969,14.631 28.507,15.706 V 15.705 Z M 29.159,15.505 C 29.562,15.383 29.662,14.861 29.331,14.779 C 29.125,14.729 28.985,14.844 28.97,15.031 C 28.952,15.256 29.051,15.385 29.16,15.505 Z M 29.453,17.173 L 28.861,16.221 C 28.824,16.178 28.84,16.195 28.803,16.165 C 28.492,16.317 28.262,16.697 28.477,17.107 C 28.652,17.439 29.163,17.458 29.453,17.173 Z M 24.171,14.708 L 24.631,16.025 L 23.241,16.519 C 23.089,16.296 22.892,15.439 22.738,15.226 L 22.066,15.453 L 23.304,18.96 L 23.993,18.723 L 23.458,17.192 L 24.882,16.701 L 25.405,18.203 C 25.62,18.18 25.941,18.069 26.095,17.958 C 25.975,17.486 25.226,15.504 24.95,14.712 L 24.858,14.504 A 0.571,0.571 0 0,0 24.843,14.478 L 24.172,14.708 Z M 22.383,17.851 C 22.156,17.955 21.959,18.202 21.734,18.306 C 21.879,18.672 22.117,19.304 21.414,19.559 C 20.611,19.85 19.494,18.329 19.927,17.644 A 0.763,0.763 0 0,1 20.526,17.307 C 20.83,17.302 21.036,17.487 21.203,17.617 C 21.416,17.487 21.628,17.264 21.819,17.181 C 21.758,17.035 21.534,16.857 21.373,16.753 C 20.689,16.313 20.028,16.554 19.507,17.011 C 18.692,17.725 19.022,18.716 19.584,19.434 C 20.047,20.025 20.82,20.772 21.866,20.154 C 22.166,19.976 22.523,19.615 22.643,19.219 C 22.823,18.622 22.573,18.27 22.383,17.851 Z M 16.061,21.026 C 16.066,21.033 16.076,21.034 16.078,21.046 L 19.063,23.196 C 19.205,23.051 19.368,22.806 19.485,22.631 C 19.366,22.463 18.607,22.026 18.411,21.811 C 18.521,21.631 18.631,21.489 18.749,21.319 C 18.859,21.161 18.967,20.933 19.204,20.944 C 19.594,20.963 19.884,21.454 20.321,21.504 C 20.405,21.305 20.626,21.086 20.736,20.884 C 20.616,20.805 20.425,20.765 20.296,20.684 C 19.904,20.44 19.462,20.017 18.997,20.203 C 19.024,19.379 17.912,18.767 17.327,19.29 C 17.202,19.402 17.111,19.546 16.995,19.707 L 16.061,21.026 Z M 17.076,20.847 C 17.176,20.956 17.296,21.025 17.431,21.125 L 17.815,21.377 C 17.982,21.197 18.121,20.955 18.267,20.765 C 18.487,20.477 18.469,20.267 18.199,20.071 C 17.869,19.833 17.693,19.958 17.51,20.222 C 17.382,20.408 17.18,20.656 17.076,20.848 Z M 14.262,26.893 L 15.632,26.931 C 15.689,27.149 15.617,28.128 15.612,28.429 L 14.212,28.392 L 14.197,29.126 L 17.922,29.231 C 17.922,29.011 17.97,28.699 17.914,28.498 L 16.329,28.453 L 16.369,26.968 L 17.983,26.995 L 18.001,26.27 L 14.284,26.158 L 14.262,26.893 Z M 16.537,29.703 L 16.75,30.46 C 17.02,30.453 17.288,30.443 17.49,30.59 C 17.97,30.944 17.974,31.766 16.81,32.116 C 15.112,32.626 14.964,31.002 15.906,30.738 C 15.875,30.515 15.778,30.125 15.674,29.97 C 15.288,30.077 14.886,30.413 14.729,30.71 C 14.509,31.127 14.574,31.69 14.751,32.116 C 15.129,33.019 15.944,33.186 17.054,32.858 C 19.207,32.219 18.577,30.455 17.904,29.927 C 17.598,29.687 17.014,29.569 16.537,29.703 Z M 15.205,22.893 C 15.74,23.05 16.315,23.276 16.852,23.452 C 17.382,23.626 18.172,23.804 17.929,24.531 C 17.569,25.615 15.764,24.29 14.761,24.177 L 14.535,24.841 C 14.741,24.983 16.361,25.484 16.726,25.611 C 17.723,25.955 18.298,25.645 18.594,24.801 C 19.151,23.211 17.826,23.003 16.557,22.569 C 16.239,22.461 15.734,22.257 15.428,22.199 L 15.205,22.893 Z M 29.036,38.577 L 29.364,41.837 L 30.006,41.781 C 30.008,41.468 29.72,38.631 29.659,38.495 L 29.186,38.532 C 29.1,38.547 29.231,38.517 29.126,38.545 L 29.036,38.577 Z M 27.886,20.788 C 27.912,20.844 27.936,20.89 27.973,20.908 C 28.107,20.973 27.823,20.829 28.101,20.9 L 28.167,21.093 L 28.074,21.083 C 28.114,21.251 28.186,21.392 28.253,21.504 L 28.527,21.894 C 28.453,21.639 28.332,21.616 28.283,21.344 C 28.587,21.526 28.411,21.864 28.813,21.932 C 28.756,21.749 28.687,21.722 28.648,21.512 L 28.768,21.634 C 28.802,21.684 28.824,21.734 28.855,21.794 C 28.919,21.918 28.968,22.02 29.053,22.107 L 28.95,21.823 C 29.172,22.04 29.518,22.773 29.692,23.1 C 29.803,23.312 29.916,23.546 30.041,23.748 C 30.185,23.985 30.292,24.162 30.431,24.371 C 30.275,22.977 30.147,23.216 29.68,22.396 C 29.5,22.08 29.365,21.981 29.363,21.766 C 29.37,21.773 29.381,21.774 29.384,21.787 L 29.525,21.981 C 29.575,22.074 29.618,22.148 29.664,22.234 C 29.764,22.427 29.851,22.551 29.967,22.699 C 29.85,22.214 29.254,21.327 28.887,20.976 C 28.457,20.563 28.522,20.313 27.886,20.788 Z M 30.671,31.585 C 30.636,31.92 30.571,31.741 30.428,31.965 L 30.286,32.114 L 30.266,32.13 L 30.176,32.28 C 30.081,32.41 30.04,32.337 29.963,32.503 C 29.87,32.705 29.863,32.864 29.686,32.961 C 29.737,33.01 29.857,33.082 29.927,33.064 C 29.985,33.048 29.94,32.99 30.133,32.99 L 30.001,32.833 C 30.189,32.849 30.141,32.842 30.327,32.79 L 30.413,32.764 C 30.322,32.72 30.235,32.66 30.14,32.63 C 30.218,32.574 30.09,32.573 30.28,32.6 C 30.315,32.605 30.352,32.638 30.444,32.653 L 30.262,32.487 L 30.584,32.572 C 30.51,32.466 30.46,32.466 30.409,32.375 C 30.525,32.392 30.486,32.397 30.587,32.435 C 30.686,32.317 30.606,32.32 30.785,32.312 C 30.731,32.25 30.723,32.248 30.679,32.175 A 0.508,0.508 0 0,0 30.911,32.052 C 31.005,31.907 30.866,31.9 31.097,31.842 C 31.101,31.84 31.113,31.839 31.12,31.835 C 31.088,31.719 31.124,31.766 31.11,31.611 C 31.172,31.624 31.24,31.655 31.307,31.609 L 31.157,31.542 C 31.162,31.542 31.177,31.528 31.18,31.535 L 31.374,31.398 C 31.425,31.36 31.371,31.418 31.42,31.367 C 31.54,31.241 31.44,31.044 31.437,31.011 C 31.433,30.942 31.495,30.885 31.474,30.733 C 31.188,31.083 31.421,30.59 31.033,31.138 L 31.017,31.159 L 30.862,31.396 C 30.715,31.655 30.732,31.553 30.672,31.585 Z M 26.507,41.751 L 26.791,41.804 C 26.771,42.081 26.679,42.211 26.444,42.278 L 26.414,42.608 C 27.094,42.542 27.252,41.745 27.226,41.05 L 26.582,40.98 L 26.507,41.751 Z M 21.656,25.45 C 21.552,25.467 21.63,25.326 21.562,25.485 C 21.562,25.732 21.526,25.665 21.483,25.883 C 22.03,25.642 21.68,25.689 21.893,25.531 C 21.947,25.492 21.9,25.528 21.964,25.495 L 22.061,25.446 C 22.265,25.544 22.384,25.662 22.558,25.771 C 22.751,25.891 23.088,25.968 22.934,25.574 C 22.754,25.548 22.804,25.648 22.607,25.617 C 22.605,25.477 22.67,25.379 22.633,25.294 C 22.533,25.064 22.564,25.335 22.453,25.098 L 22.306,25.146 L 22.291,25.018 C 22.272,25.02 22.196,25.042 22.191,25.042 C 22.129,25.046 22.181,25.074 22.011,24.969 C 21.93,24.919 22.019,24.942 21.915,24.919 C 21.728,25.129 21.689,25.061 21.656,25.449 Z" fill="rgb(200, 34, 73)" fill-rule="evenodd"/>
<path d="M 22.113,24.685 C 22.308,24.959 22.782,24.713 22.994,25.585 C 23.034,25.745 23.002,25.703 23.113,25.766 C 23.196,25.821 23.415,25.806 23.496,25.77 C 23.556,25.62 23.493,25.5 23.415,25.424 C 23.292,25.461 23.398,25.457 23.345,25.556 L 23.075,25.598 C 23.116,25.387 23.207,25.336 23.415,25.276 C 23.357,25.122 23.416,25.282 23.317,25.166 L 23.252,25.083 L 23.212,25.057 L 23.164,25.03 C 22.998,24.932 22.938,24.911 23.03,24.807 C 22.785,24.79 22.667,24.61 22.465,24.648 L 22.499,24.533 C 22.123,24.594 22.174,24.528 22.123,24.7 Z M 25.056,41.503 L 25.689,41.637 L 25.865,40.855 L 25.237,40.731 L 25.056,41.503 Z M 36.737,38.002 C 36.815,38.093 36.901,38.174 36.987,38.276 C 37.101,38.409 37.114,38.443 37.257,38.562 C 37.399,38.469 37.611,38.278 37.729,38.149 L 37.213,37.559 C 37.093,37.696 36.867,37.829 36.736,38.002 Z M 22.703,27.625 C 22.755,27.537 22.951,27.315 23.02,27.267 C 22.91,27.044 22.977,27.06 22.799,26.877 C 22.832,26.7 22.846,26.724 22.912,26.599 C 22.577,26.736 22.268,26.929 22.158,27.243 C 22.257,27.193 22.335,27.117 22.399,27.038 C 22.356,27.197 22.274,27.173 22.21,27.376 C 22.215,27.379 22.224,27.374 22.225,27.38 C 22.252,27.513 22.187,27.26 22.335,27.496 L 22.355,27.531 C 22.427,27.63 22.387,27.538 22.509,27.608 C 22.635,27.682 22.558,27.598 22.585,27.721 C 22.665,27.581 22.592,27.657 22.702,27.625 Z" fill="rgb(200, 34, 73)"/>
<path d="M 30.52,30.822 L 30.529,30.836 C 30.579,30.811 30.549,30.826 30.529,30.836 Z M 30.534,30.841 C 30.504,30.851 30.515,30.845 30.53,30.836 L 30.534,30.841 Z M 27.894,34.481 C 28.011,34.411 27.962,34.433 28.021,34.359 C 28.092,34.269 28.116,34.309 28.216,34.244 L 28.414,34.084 L 28.43,34.065 L 28.691,33.757 C 28.793,33.662 28.771,33.78 28.875,33.668 L 28.852,33.476 L 29.013,33.426 L 28.91,33.35 C 29.165,33.247 28.817,33.223 29.202,33.225 C 29.11,33.063 29.128,33.172 29.158,32.963 L 29.385,33.02 L 29.252,32.85 C 29.256,32.853 29.298,32.842 29.306,32.838 C 29.359,32.813 29.353,32.814 29.374,32.798 L 29.231,32.696 C 29.318,32.622 29.393,32.683 29.311,32.522 C 29.427,32.538 29.409,32.572 29.507,32.519 C 29.442,32.475 29.374,32.437 29.319,32.369 C 29.376,32.339 29.412,32.379 29.479,32.329 L 29.379,32.209 L 29.643,32.253 L 29.405,32.075 L 29.795,32.192 C 29.745,32.057 29.627,32.039 29.48,31.984 C 29.487,31.978 29.5,31.964 29.504,31.971 L 29.61,31.951 C 29.621,31.953 29.73,31.981 29.77,31.988 C 29.764,31.98 29.754,31.961 29.751,31.967 L 29.631,31.855 C 29.577,31.804 29.615,31.853 29.568,31.789 C 29.74,31.833 29.778,31.911 29.962,31.886 C 29.919,31.863 29.874,31.826 29.813,31.792 L 29.673,31.709 C 29.611,31.653 29.665,31.718 29.613,31.641 L 29.956,31.735 C 29.891,31.627 29.931,31.693 29.864,31.627 C 29.788,31.552 29.824,31.626 29.776,31.523 L 30.048,31.589 L 29.952,31.455 L 30.188,31.481 C 30.128,31.416 30.032,31.331 29.978,31.261 L 30.223,31.311 L 30.144,31.158 L 30.37,31.23 C 30.336,31.113 30.314,31.131 30.263,31.027 L 30.509,31.092 C 30.465,30.959 30.465,31.036 30.409,30.912 C 30.595,30.909 30.508,30.934 30.679,30.987 L 30.533,30.84 L 30.594,30.815 L 30.619,30.805 L 30.693,30.764 C 30.651,30.725 30.618,30.703 30.587,30.631 L 30.799,30.621 C 30.735,30.542 30.719,30.556 30.651,30.479 C 30.787,30.417 30.765,30.493 30.907,30.549 C 30.837,30.395 30.757,30.409 30.687,30.274 C 30.915,30.339 30.904,30.301 31.075,30.432 C 30.979,30.239 30.855,30.286 30.745,30.062 C 30.898,30.076 30.897,30.222 31.097,30.206 A 1.68,1.68 0 0,1 30.767,29.846 C 30.959,29.922 31.019,30.024 31.189,30.096 C 31.104,29.923 30.956,29.901 30.826,29.698 C 31.024,29.763 31.002,29.86 31.218,29.895 C 31.141,29.69 30.866,29.652 30.773,29.448 L 31.044,29.541 C 30.939,29.353 30.845,29.361 30.721,29.237 C 30.721,29.137 30.686,29.237 30.829,29.167 L 30.315,28.891 C 30.501,28.851 30.546,28.944 30.725,28.973 A 1.133,1.133 0 0,0 30.304,28.756 C 30.374,28.726 30.358,28.745 30.41,28.73 L 30.44,28.722 L 30.47,28.712 L 30.53,28.689 C 30.16,28.62 30.173,28.506 30.122,28.49 C 29.952,28.472 29.636,28.426 29.478,28.431 C 29.083,28.445 29.335,28.65 29.091,28.506 C 29.136,28.737 29.093,28.604 29.064,28.638 L 29.046,28.652 L 28.889,28.802 C 28.877,28.808 28.871,28.809 28.869,28.808 L 28.864,28.813 L 28.684,28.783 L 28.779,29.045 C 28.672,29.004 28.677,28.977 28.601,28.885 C 28.605,29.019 28.633,29.013 28.678,29.123 L 28.555,29.103 L 28.598,29.266 C 28.546,29.236 28.527,29.226 28.478,29.196 C 28.542,29.483 28.488,29.24 28.421,29.449 L 28.417,29.466 L 28.411,29.479 C 28.339,29.603 28.419,29.46 28.382,29.503 C 28.302,29.593 28.318,29.775 28.232,29.871 L 28.075,29.715 C 28.11,29.919 28.18,29.886 28.184,30.075 C 28.059,30.011 28.077,29.83 28.024,29.989 C 27.982,30.117 28.054,30.195 28.081,30.328 C 27.986,30.297 28.065,30.348 27.988,30.261 L 27.925,30.174 C 27.921,30.169 27.915,30.159 27.908,30.152 C 27.948,30.322 27.993,30.365 27.932,30.498 C 27.893,30.584 27.967,30.452 27.915,30.549 C 27.879,30.616 27.909,30.579 27.852,30.585 C 27.912,30.748 27.918,30.658 27.929,30.847 L 27.967,31.043 C 27.967,31.049 27.967,31.06 27.969,31.067 C 27.981,31.17 28.245,31.523 28.332,31.62 C 28.327,31.623 28.317,31.618 28.315,31.625 C 28.292,31.714 28.231,31.559 28.209,31.721 C 28.207,31.733 28.218,31.799 28.222,31.824 L 28.064,31.754 L 28.173,31.947 L 27.982,31.798 C 27.909,31.726 27.88,31.714 27.832,31.618 C 27.815,31.677 27.796,31.773 27.761,31.824 C 27.677,31.799 27.666,31.835 27.605,31.78 C 27.58,31.758 27.497,31.63 27.488,31.618 C 27.508,31.766 27.598,31.906 27.554,32 A 0.457,0.457 0 0,1 27.429,31.779 C 27.429,31.881 27.445,31.876 27.452,31.969 L 27.401,32.643 C 27.219,33.38 27.131,33.207 27.075,33.418 L 27.16,32.936 L 27.006,33.378 C 26.956,33.321 26.956,33.311 26.978,33.192 C 26.994,33.104 27.006,33.084 27.011,32.978 L 26.888,33.113 A 0.553,0.553 0 0,1 26.865,33.133 L 26.939,32.778 C 26.892,32.841 26.827,32.973 26.749,32.998 L 26.812,32.748 L 26.649,32.888 L 26.739,32.541 L 26.572,32.607 C 26.606,32.477 26.628,32.477 26.676,32.357 C 26.576,32.406 26.568,32.44 26.493,32.523 C 26.452,32.569 26.481,32.544 26.434,32.58 L 26.549,32.273 C 26.489,32.329 26.461,32.371 26.391,32.409 C 26.307,32.455 26.299,32.409 26.238,32.559 C 26.231,32.552 26.223,32.529 26.219,32.535 L 26.081,32.415 C 26.025,32.372 26.059,32.412 26.026,32.368 C 26.212,32.118 26.107,32.254 26.243,32.26 H 26.317 C 26.444,32.253 26.47,32.203 26.544,32.083 C 26.517,32.003 26.521,32.051 26.484,32.004 L 26.454,31.964 C 26.357,31.825 26.341,31.649 26.277,31.51 L 26.255,31.427 C 26.234,31.332 26.021,31.137 25.951,31.047 L 25.881,30.938 L 25.867,30.915 C 25.797,30.783 25.831,30.827 25.861,30.671 C 25.675,30.711 25.835,30.785 25.616,30.836 C 25.674,30.619 25.739,30.694 25.818,30.504 C 25.669,30.574 25.775,30.54 25.68,30.605 C 25.57,30.681 25.7,30.662 25.51,30.661 C 25.526,30.432 25.665,30.491 25.708,30.228 C 25.701,30.222 25.689,30.205 25.686,30.212 L 25.524,30.045 C 25.489,29.973 25.451,29.845 25.43,29.789 C 25.264,29.834 25.196,29.939 25.06,30.003 L 25.175,29.795 L 24.973,29.912 C 25.027,29.701 25.09,29.776 25.185,29.599 L 24.935,29.749 C 24.995,29.599 25.028,29.592 25.087,29.481 C 24.93,29.536 24.974,29.616 24.808,29.685 C 24.822,29.398 25.188,29.489 25.021,29.222 C 24.88,29.265 24.834,29.362 24.716,29.427 C 24.728,29.198 25.144,29.226 24.925,28.863 L 24.745,28.572 C 24.701,28.525 24.549,28.502 24.689,28.329 L 24.551,28.366 C 24.616,28.142 24.488,28.136 24.51,28.056 C 24.512,28.047 24.56,27.972 24.575,27.945 L 24.449,27.909 C 24.485,27.6 24.409,27.689 24.366,27.497 C 24.338,27.373 24.386,27.402 24.349,27.326 C 24.302,27.23 24.306,27.341 24.221,27.183 L 24.593,27.153 L 24.726,26.923 C 24.546,26.933 24.506,26.968 24.396,26.862 C 24.484,26.822 24.476,26.848 24.539,26.82 C 24.677,26.76 24.622,26.754 24.672,26.703 L 24.805,26.623 C 24.954,26.559 24.882,26.632 24.945,26.522 C 24.669,26.597 24.753,26.562 24.699,26.507 L 24.971,26.418 C 24.881,26.357 24.731,26.401 24.769,26.284 C 24.789,26.224 24.944,26.185 25.021,26.154 L 24.953,26.074 L 25.149,25.994 L 25.003,25.951 C 24.999,25.951 24.988,25.949 24.982,25.946 C 25.057,25.866 25.082,25.854 25.096,25.768 L 25.122,25.686 C 25.128,25.65 25.13,25.69 25.12,25.614 L 25.084,25.231 C 25.089,25.089 25.104,25.005 25.002,24.917 L 24.76,24.742 C 24.63,24.608 24.723,24.724 24.737,24.524 C 24.566,24.606 24.707,24.632 24.536,24.547 A 1.202,1.202 0 0,1 24.317,24.402 C 24.237,24.329 24.191,24.272 24.197,24.181 C 24.199,24.142 24.205,24.136 24.211,24.139 A 0.608,0.608 0 0,1 24.199,24.114 C 24.172,24.079 24.109,24.067 24.085,24.034 C 23.871,24.188 23.966,24.556 24.082,24.709 C 24.345,25.056 24.555,24.882 24.597,25.232 C 24.625,25.467 24.526,25.476 24.386,25.738 L 24.362,25.785 L 24.349,25.809 C 24.224,26.062 24.294,25.956 24.287,26.059 C 24.274,26.267 24.052,26.244 23.884,26.346 C 23.752,26.425 23.791,26.485 23.789,26.496 L 23.773,26.561 C 23.738,26.625 23.629,26.66 23.571,26.733 C 23.571,26.743 23.571,26.754 23.569,26.77 C 23.559,26.855 23.536,26.864 23.464,26.935 C 23.707,26.803 23.648,26.904 23.67,26.92 C 23.594,26.958 23.542,27.015 23.47,27.07 C 23.475,27.07 23.546,27.053 23.602,27.087 L 23.484,27.192 C 23.487,27.192 23.499,27.185 23.502,27.192 C 23.505,27.2 23.519,27.195 23.523,27.196 L 23.667,27.231 L 23.527,27.306 L 23.663,27.382 C 23.589,27.444 23.614,27.417 23.569,27.48 C 23.732,27.638 23.646,27.613 23.702,27.711 C 23.722,27.745 23.812,27.826 23.807,27.903 C 23.799,28.011 23.639,28.042 23.872,28.193 C 23.762,28.319 23.824,28.269 23.812,28.377 C 23.796,28.515 23.776,28.441 23.738,28.594 C 23.913,28.514 23.747,28.52 23.955,28.474 C 23.922,28.551 23.894,28.587 23.857,28.65 C 23.957,28.594 23.901,28.582 24.009,28.645 C 23.927,28.727 23.789,28.969 23.649,29 C 23.475,29.039 23.637,29.02 23.486,28.95 L 23.611,28.732 C 23.568,28.709 23.614,28.682 23.414,28.744 C 23.45,28.635 23.469,28.654 23.448,28.584 L 23.372,28.452 C 23.252,28.253 23.339,28.272 23.292,28.064 C 23.268,27.956 23.189,27.858 23.157,27.739 C 23.141,27.679 23.136,27.592 23.109,27.536 A 0.315,0.315 0 0,0 23.063,27.476 C 23.005,27.417 23.016,27.441 22.977,27.414 L 22.702,27.623 L 22.622,27.827 L 22.768,27.747 C 22.793,27.801 22.772,27.81 22.741,27.883 C 22.921,27.797 22.846,27.824 22.878,27.92 L 22.861,28.087 L 22.959,28.107 C 22.883,28.283 22.877,28.289 22.921,28.439 L 23.047,28.985 C 23.067,29.142 23.093,29.091 23.14,29.205 C 23.147,29.221 23.253,29.129 23.129,29.365 L 23.272,29.297 C 23.249,29.44 23.294,29.337 23.288,29.475 L 23.285,29.497 C 23.274,29.635 23.387,29.892 23.302,30.117 L 23.435,30.024 C 23.435,30.202 23.375,30.154 23.362,30.276 L 23.476,30.182 L 23.384,30.439 C 23.497,30.498 23.402,30.392 23.516,30.441 L 23.42,30.761 C 23.514,30.651 23.489,30.572 23.597,30.491 C 23.671,30.639 23.492,30.731 23.494,30.93 C 23.562,30.823 23.538,30.786 23.653,30.738 L 23.573,31.038 C 23.656,30.924 23.629,30.918 23.753,30.863 L 23.676,31.083 C 23.678,31.087 23.686,31.085 23.688,31.091 C 23.703,31.151 23.71,31.088 23.767,31.119 L 23.675,31.334 C 23.715,31.361 23.729,31.288 23.799,31.332 L 23.736,31.512 C 23.807,31.551 23.72,31.512 23.781,31.512 L 23.831,31.51 C 23.834,31.51 23.844,31.508 23.849,31.511 L 23.769,31.689 C 23.776,31.692 23.788,31.686 23.79,31.693 C 23.794,31.709 23.894,31.671 23.856,31.861 C 23.906,31.807 23.918,31.771 23.969,31.797 L 23.905,32.011 C 23.95,32.027 23.915,32.041 24.007,31.951 L 23.912,32.429 L 24.067,32.126 C 24.111,32.299 24,32.441 24.004,32.636 C 24.037,32.539 24.162,32.358 24.18,32.278 L 24.115,32.651 C 24.205,32.578 24.235,32.488 24.298,32.406 L 24.23,32.724 L 24.428,32.796 L 24.374,33.08 L 24.469,33.039 L 24.427,33.314 C 24.455,33.224 24.484,33.206 24.543,33.159 L 24.509,33.402 C 24.559,33.425 24.546,33.419 24.611,33.382 C 24.617,33.378 24.627,33.367 24.636,33.362 C 24.613,33.766 24.694,33.314 24.698,33.747 C 24.733,33.719 24.718,33.73 24.75,33.701 L 24.815,33.643 C 24.817,33.754 24.826,33.75 24.835,33.757 L 24.918,33.759 L 24.881,33.976 C 25.036,33.865 25.07,33.912 25.078,34.14 L 25.13,34.097 C 25.172,34.067 25.147,34.081 25.184,34.061 L 25.2,34.299 C 25.294,34.214 25.224,34.235 25.288,34.268 L 25.307,34.654 C 25.349,34.572 25.331,34.512 25.377,34.438 L 25.423,34.635 C 25.543,34.562 25.446,34.57 25.528,34.579 L 25.51,34.821 L 25.642,34.687 C 25.625,34.962 25.688,34.817 25.758,35.057 C 25.794,35.183 25.797,35.277 25.907,35.37 C 26.004,35.454 26.126,35.582 26.252,35.6 C 26.282,35.603 26.272,35.595 26.343,35.61 C 26.436,35.629 26.479,35.648 26.59,35.647 C 26.91,35.647 27.464,35.372 27.549,35.073 C 27.613,34.848 27.584,34.83 27.785,34.847 C 27.792,34.677 27.649,34.623 27.893,34.478 V 34.481 Z" fill="rgb(200, 34, 73)"/>
</svg>
