<?xml version="1.0" encoding="UTF-8"?>
<!-- generated by Finnhub -->
<svg viewBox="0 0 55.5 55.5" xmlns="http://www.w3.org/2000/svg">
<path d="M 0,0 H 55.5 V 55.5 H 0 Z" fill="rgb(38, 172, 232)"/>
<path d="M 27.99,10.985 L 13,19.5 V 36.5 L 28,45 L 43,36.5 V 19.5 L 28,11 Z M 14.474,35.665 V 20.335 L 28,12.67 L 41.526,20.335 V 35.665 L 28,43.33 L 14.474,35.665 Z" fill="rgb(254, 254, 253)"/>
<path d="M 24.136,18.955 L 27.283,17.116 V 24.838 L 27.998,25.261 L 28.716,24.837 V 17.117 L 31.852,18.97 L 32.568,17.7 L 28,15 L 23.43,17.7 L 24.147,18.97 Z" fill="rgb(254, 254, 253)"/>
<path d="M 33.704,20.055 L 36.851,21.923 L 28,27.153 L 19.148,21.923 L 22.285,20.07 L 21.569,18.8 L 17,21.5 V 27 H 18.432 V 23.193 L 27.284,28.423 V 38.883 L 24.147,37.03 L 23.43,38.3 L 28,41 L 32.569,38.3 L 31.852,37.03 L 28.716,38.884 V 28.422 L 37.567,23.192 V 27 H 39 V 21.5 L 34.43,18.8 L 33.714,20.07 Z" fill="rgb(254, 254, 253)"/>
<path d="M 22.276,35.924 L 19.149,34.097 L 25.683,30.262 V 29.422 L 24.966,29 L 18.433,32.834 V 29 H 17 V 34.517 L 21.57,37.2 L 22.286,35.939 Z M 37.567,29 V 32.836 L 31.034,29 L 30.317,29.42 V 30.262 L 36.851,34.098 L 33.714,35.938 L 34.431,37.2 L 39,34.518 V 29 H 37.567 Z" fill="rgb(254, 254, 253)"/>
</svg>
