<?xml version="1.0" encoding="UTF-8"?>
<!-- generated by Finnhub -->
<svg viewBox="0 0 55.5 55.5" xmlns="http://www.w3.org/2000/svg">
<path d="M 0,0 H 55.5 V 55.5 H 0 Z" fill="rgb(26, 96, 152)"/>
<path d="M 9.02,30.482 C 9.933,30.497 10.668,30.203 11.414,29.545 L 11.655,29.332 L 12.633,30.369 L 12.365,30.627 C 11.754,31.217 10.74,32 9.002,32 C 6.15,32 4,29.428 4,26.016 C 4,22.586 6.168,20 9.044,20 C 10.746,20 11.725,20.7 12.314,21.228 L 12.601,21.484 L 11.562,22.587 L 11.322,22.384 C 10.602,21.774 9.895,21.504 9.03,21.504 C 6.983,21.504 5.44,23.429 5.44,25.984 C 5.44,28.514 7.017,30.497 9.03,30.497 Z M 16.71,23.121 C 15.78,23.121 14.994,23.456 14.387,24.091 V 20 H 13 V 32 H 14.387 V 27.03 C 14.387,25.596 15.322,24.555 16.609,24.555 C 17.863,24.555 18.613,25.433 18.613,26.905 V 32 H 20 V 26.765 C 20,24.585 18.678,23.121 16.71,23.121 Z M 22.422,29.061 C 22.422,28.127 23.198,27.57 24.5,27.57 C 25.385,27.57 26.094,27.71 26.65,27.852 V 28.467 C 26.65,29.655 25.602,30.551 24.212,30.551 C 23.322,30.551 22.422,30.05 22.422,29.091 V 29.061 Z M 24.6,23 C 23.442,23 22.563,23.364 21.856,23.72 L 21.562,23.869 L 22.086,25.229 L 22.41,25.049 C 23.148,24.639 23.83,24.449 24.558,24.449 C 25.481,24.449 26.575,24.793 26.631,26.393 A 8.437,8.437 0 0,0 24.543,26.151 C 22.39,26.15 21,27.31 21,29.107 V 29.138 C 21,30.998 22.633,32 24.17,32 C 25.312,32 26.107,31.54 26.636,31.05 V 31.813 H 28 V 26.486 C 28,24.303 26.729,23 24.6,23 Z M 30.198,23.125 V 24.507 C 30.958,23.519 32.048,23 33.183,23 H 33.513 V 24.605 H 33.096 C 31.653,24.605 30.198,25.746 30.198,28.295 V 32 H 28.79 V 23.125 H 30.197 Z M 37.478,30.519 C 36.681,30.519 36.326,30.162 36.326,29.359 V 24.682 H 38.952 V 23.135 H 36.326 V 20.752 H 34.92 V 23.135 H 33.97 V 24.682 H 34.92 V 29.436 C 34.92,30.984 35.855,31.946 37.362,31.946 C 37.861,31.946 38.281,31.85 38.723,31.636 L 38.923,31.54 V 30.047 L 38.439,30.274 C 38.059,30.453 37.799,30.519 37.479,30.519 Z M 45.164,26.765 C 44.982,25.572 44.306,24.424 42.865,24.424 C 41.695,24.424 40.754,25.39 40.509,26.765 H 45.164 Z M 39,27.485 C 39,24.97 40.71,23 42.894,23 C 45.119,23 46.672,24.85 46.672,27.5 V 27.531 L 46.655,27.854 L 46.639,28.174 H 40.496 C 40.764,29.81 41.966,30.561 43.041,30.561 C 43.944,30.561 44.68,30.203 45.358,29.437 L 45.586,29.179 L 46.6,30.123 L 46.36,30.397 C 45.704,31.143 44.73,32 43.012,32 C 40.725,32 39,30.072 39,27.515 V 27.485 Z M 51.67,23.003 C 50.528,22.953 49.445,23.524 48.684,24.512 V 23.13 H 47.277 V 32 H 48.684 V 28.297 C 48.684,25.75 50.14,24.61 51.583,24.61 H 52 V 23.017 L 51.67,23.003 Z" fill="rgb(254, 254, 253)"/>
<path d="M 5.99,34.985 V 35.006 C 6,35.561 6.464,36 7.087,36 C 7.487,36 7.731,35.867 7.954,35.657 L 7.712,35.437 C 7.529,35.591 7.362,35.685 7.099,35.685 A 0.683,0.683 0 0,1 6.394,35 V 34.994 C 6.394,34.616 6.693,34.312 7.099,34.312 C 7.343,34.312 7.526,34.409 7.697,34.552 L 7.938,34.302 C 7.734,34.124 7.496,34 7.102,34 C 6.455,34 6,34.45 6,35 Z M 11.132,35 V 35.006 C 11.132,35.381 10.836,35.685 10.412,35.685 C 9.987,35.685 9.685,35.375 9.685,35 V 34.994 C 9.685,34.619 9.981,34.312 10.405,34.312 S 11.132,34.625 11.132,35 Z M 9.29,35 V 35.006 C 9.29,35.55 9.748,36 10.404,36 C 11.06,36 11.524,35.544 11.524,35 V 34.994 C 11.524,34.45 11.067,34 10.41,34 C 9.754,34 9.29,34.456 9.29,35 Z M 13.079,34.033 H 13.479 L 14.129,34.948 L 14.779,34.033 H 15.179 V 35.967 H 14.803 V 34.58 L 14.129,35.492 H 14.116 L 13.448,34.586 V 35.966 H 13.078 V 34.033 Z M 17.224,34.033 H 16.824 V 35.967 H 17.194 V 34.586 L 17.862,35.492 H 17.875 L 18.549,34.58 V 35.967 H 18.925 V 34.033 H 18.525 L 17.875,34.948 L 17.225,34.033 Z M 20.537,35.146 V 34.033 H 20.913 V 35.133 C 20.913,35.492 21.117,35.683 21.453,35.683 C 21.786,35.683 21.99,35.503 21.99,35.146 V 34.033 H 22.365 V 35.13 C 22.365,35.707 22.005,35.997 21.447,35.997 C 20.891,35.997 20.537,35.707 20.537,35.147 Z M 24.327,34.033 H 23.978 V 35.967 H 24.348 V 34.59 L 25.525,35.966 H 25.84 V 34.032 H 25.47 V 35.369 L 24.326,34.032 Z M 27.511,34.033 H 27.886 V 35.967 H 27.511 V 34.033 Z M 29.461,35 V 35.006 C 29.461,35.561 29.926,36 30.548,36 C 30.948,36 31.193,35.867 31.416,35.657 L 31.174,35.437 C 30.991,35.591 30.824,35.685 30.561,35.685 A 0.683,0.683 0 0,1 29.856,35 V 34.994 C 29.856,34.616 30.155,34.312 30.561,34.312 C 30.805,34.312 30.988,34.409 31.159,34.552 L 31.4,34.302 C 31.196,34.124 30.958,34 30.564,34 C 29.917,34 29.462,34.45 29.462,35 Z M 34.202,35.2 L 33.832,34.426 L 33.467,35.199 H 34.202 Z M 33.665,34.02 H 34.013 L 34.953,35.967 H 34.557 L 34.34,35.5 H 33.33 L 33.11,35.967 H 32.725 L 33.665,34.02 Z M 35.992,34.348 H 36.669 V 35.967 H 37.048 V 34.348 H 37.726 V 34.033 H 35.992 V 34.348 Z M 39.24,34.033 H 39.616 V 35.967 H 39.24 V 34.033 Z M 43.031,35 V 35.006 C 43.031,35.381 42.735,35.685 42.311,35.685 S 41.585,35.375 41.585,35 V 34.994 C 41.585,34.619 41.881,34.312 42.305,34.312 S 43.031,34.625 43.031,35 Z M 41.191,35 V 35.006 C 41.191,35.55 41.649,36 42.305,36 C 42.961,36 43.425,35.544 43.425,35 V 34.994 C 43.425,34.45 42.967,34 42.311,34 C 41.655,34 41.191,34.456 41.191,35 Z M 44.979,34.033 H 45.328 L 46.472,35.37 V 34.033 H 46.842 V 35.967 H 46.527 L 45.35,34.59 V 35.966 H 44.98 V 34.032 Z M 48.571,35.443 L 48.345,35.685 C 48.601,35.892 48.909,35.995 49.236,35.995 C 49.685,35.995 49.999,35.779 49.999,35.417 V 35.412 C 49.999,35.092 49.767,34.945 49.315,34.846 C 48.903,34.757 48.805,34.691 48.805,34.542 V 34.536 C 48.805,34.409 48.934,34.306 49.154,34.306 C 49.349,34.306 49.541,34.376 49.734,34.506 L 49.935,34.249 A 1.266,1.266 0 0,0 49.16,34.006 C 48.735,34.006 48.43,34.235 48.43,34.566 V 34.572 C 48.43,34.928 48.687,35.05 49.141,35.149 C 49.538,35.232 49.623,35.307 49.623,35.445 V 35.45 C 49.623,35.594 49.477,35.693 49.245,35.693 C 48.983,35.693 48.775,35.603 48.571,35.443 Z" fill="rgb(170, 164, 166)"/>
</svg>
