<?xml version="1.0" encoding="UTF-8"?>
<!-- generated by Finnhub -->
<svg viewBox="0 0 55.5 55.5" xmlns="http://www.w3.org/2000/svg">
<path d="M 0,0 H 55.5 V 55.5 H 0 Z" fill="rgb(17, 72, 190)"/>
<path d="M 28.569999999999997,28.805 C 28.28,29.43 28.16,30.05 27.12,30.46 A 1.85,1.85 0 0,1 24.87,29.72 S 28.23,28.22 29.22,27.63 C 29.52,27.46 29.75,27.25 29.9,27.03 L 30.33,28.06 C 29.68,27.82 28.94,28.08 28.58,28.82 Z M 24.96,25.92 C 26.35,25.29 27.12,26.6 27.12,26.6 L 24.07,28 S 23.57,26.56 24.96,25.92 Z M 50.93,24.8 C 50.06,24.51 49.23,24.99 48.97,25.78 L 47.5,30.22 H 47.47 L 46.37,25.68 A 1.52,1.52 0 0,0 44.49,24.54 C 44.17,24.62 43.87,24.8 43.66,25.04 A 1.46,1.46 0 0,0 42.35,23.81 C 41.45,23.7 40.75,24.31 40.65,25.13 L 40.04,29.7 H 40 L 38.75,26.34 C 38.25,24.97 37.83,24.26 36.57,24.4 C 35.3,24.54 35.05,25.32 34.87,26.77 L 34.39,30.32 H 34.35 L 32.75,26 A 1.51,1.51 0 0,0 30.79,25.08 C 30.45,25.2 30.17,25.43 29.99,25.73 C 29.35,24.13 26.9,22.58 23.89,24.18 A 4.57,4.57 0 0,0 21.35,27.32 C 20.91,26.32 20.01,25.62 18.81,25.52 C 17.19,25.38 16.29,26.31 16.29,26.31 H 16.25 L 16.49,23.68 C 16.56,22.83 15.99,22.08 15.07,22.01 A 1.53,1.53 0 0,0 13.37,23.41 L 12.81,29.66 A 1.2,1.2 0 0,0 11.61,29.32 C 10.62,29.55 10.37,30.72 9.31,30.94 C 8.11,31.18 7.35,30.26 7.12,29.14 C 6.93,28.23 7.09,26.88 8.42,26.68 C 9.6,26.51 9.87,27.72 11.17,27.46 C 11.94,27.31 12.31,26.71 12.13,25.94 C 11.85,24.78 9.99,23.92 7.94,24.34 A 4.76,4.76 0 0,0 4.11,30.12 C 4.71,33.13 7.58,34.11 9.86,33.62 C 11.26,33.31 12.11,32.68 12.6,32.02 L 12.56,32.37 C 12.49,33.21 13.06,33.95 13.99,34.04 C 14.91,34.12 15.61,33.47 15.69,32.64 L 16.01,29.07 C 16.09,28.07 16.77,27.7 17.37,27.75 C 17.97,27.81 18.56,28.35 18.47,29.29 L 18.16,32.86 C 18.08,33.7 18.66,34.45 19.58,34.53 C 20.51,34.61 21.2,33.96 21.28,33.13 L 21.56,29.97 L 21.77,30.49 C 23.16,33.45 25.99,33.64 28.2,32.62 A 5.86,5.86 0 0,0 30.7,30.65 C 30.9,30.35 31.03,30.08 31.1,29.83 L 31.6,30.91 C 32.66,33.15 33.04,33.71 34.74,33.56 C 36.43,33.33 36.59,32.64 37.04,28.81 H 37.08 C 38.37,32.45 38.68,33.08 40.38,32.94 C 42.08,32.71 42.31,32.09 42.86,29.67 C 43.07,28.67 43.27,27.69 43.45,26.69 L 43.82,27.89 C 44.73,30.79 45.68,32.71 45.11,32.99 C 44.61,33.24 44.31,32.37 43.34,32.43 C 42.67,32.47 42.08,33.16 42.29,34.02 C 42.59,35.2 44.46,36.46 46.61,35.83 C 48.78,35.2 49.41,33.46 51.91,26.75 C 52.19,25.95 51.81,25.08 50.93,24.8" fill="rgb(254, 254, 253)"/>
</svg>
