<?xml version="1.0" encoding="UTF-8"?>
<!-- generated by Finnhub -->
<svg viewBox="0 0 55.5 55.5" xmlns="http://www.w3.org/2000/svg">
<path d="M 0,0 H 55.5 V 55.5 H 0 Z" fill="rgb(8, 129, 196)"/>
<path d="M 21.706999999999997,25.482 C 22.499,25.497 27.574,27.887 27.574,36.475 C 27.574,40.579 26.28,44 25.515,44 C 25.179,44 25.051,43.64 25.051,42.95 C 25.051,41.431 25.552,40.085 25.552,36.842 C 25.552,30.579 23.136,28.052 22.054,26.631 C 21.734,26.21 21.492,25.935 21.492,25.688 C 21.492,25.588 21.559,25.497 21.717,25.497 Z M 34.509,25.688 C 34.509,25.935 34.267,26.21 33.947,26.631 C 32.866,28.053 30.45,30.579 30.45,36.841 C 30.45,40.085 30.95,41.431 30.95,42.951 C 30.95,43.641 30.823,44 30.486,44 C 29.722,44 28.427,40.579 28.427,36.475 C 28.427,27.887 33.503,25.496 34.286,25.496 C 34.442,25.496 34.509,25.587 34.509,25.688 Z" fill="rgb(254, 254, 253)"/>
<path d="M 26.136999999999997,27.201 C 26.147,28.336 26.977,29.245 27.999,29.245 C 29.025,29.245 29.855,28.337 29.855,27.215 S 29.025,25.185 27.999,25.185 C 26.976,25.185 26.147,26.093 26.147,27.215 Z" fill="rgb(247, 150, 29)"/>
<path d="M 18.363,23.992 C 17.404,23.54 16.679,22.602 16.561,21.694 C 17.28,21.188 18.416,21.15 19.386,21.617 C 20.4,22.107 20.637,22.935 20.643,23.663 C 20.127,24.14 19.388,24.498 18.373,24.007 Z M 21.153,18.542 C 20.529,17.52 20.383,16.225 20.769,15.331 C 21.693,15.318 22.742,15.987 23.364,17.008 C 24.016,18.078 23.78,18.974 23.39,19.635 C 22.663,19.747 21.802,19.613 21.152,18.542 Z M 22.595,23.956 C 21.825,23.261 21.395,22.206 21.509,21.346 C 22.286,21.084 23.332,21.366 24.101,22.06 C 24.906,22.79 24.919,23.608 24.746,24.274 C 24.159,24.564 23.4,24.684 22.595,23.956 Z M 24.946,21.339 C 24.616,20.199 24.802,18.936 25.39,18.201 C 26.264,18.451 27.086,19.384 27.416,20.525 C 27.762,21.72 27.316,22.497 26.782,23.009 C 26.072,22.907 25.291,22.535 24.946,21.339 Z M 20.896,29.672 C 20.131,29.83 19.323,29.596 18.89,29.106 C 19.118,28.476 19.787,27.937 20.555,27.778 C 21.356,27.612 21.828,28.001 22.122,28.435 C 22.002,28.956 21.702,29.504 20.897,29.672 Z M 18.873,27.252 C 18.002,27.151 17.207,26.616 16.895,25.935 C 17.335,25.34 18.22,24.997 19.093,25.098 C 20.006,25.204 20.393,25.788 20.573,26.358 C 20.281,26.875 19.788,27.358 18.873,27.251 Z M 18.795,20.339 C 18.111,19.719 17.727,18.783 17.829,18.017 C 18.52,17.785 19.449,18.035 20.134,18.652 C 20.848,19.301 20.862,20.029 20.708,20.622 C 20.186,20.88 19.511,20.986 18.795,20.339 Z M 23.459,15.427 C 23.182,14.476 23.339,13.423 23.829,12.81 C 24.559,13.021 25.243,13.798 25.519,14.747 C 25.808,15.744 25.434,16.39 24.989,16.819 C 24.396,16.733 23.748,16.423 23.459,15.427 Z M 12,40.1 C 12,40.126 12.015,40.147 12.046,40.147 C 12.075,40.147 12.126,40.121 12.182,40.1 C 14.92,39.052 18.963,37.766 24.637,37.373 C 24.644,37.319 24.678,37.049 24.678,36.841 C 24.678,36.403 24.629,35.946 24.617,35.87 C 18.802,36.44 14.79,38.238 12.153,39.968 C 12.046,40.038 12,40.055 12,40.1 Z M 35.357,23.663 C 35.363,22.935 35.6,22.107 36.614,21.617 C 37.582,21.15 38.72,21.188 39.439,21.694 C 39.319,22.603 38.595,23.54 37.627,24.007 C 36.611,24.497 35.873,24.14 35.357,23.663 Z M 32.61,19.635 C 32.22,18.974 31.985,18.079 32.636,17.008 C 33.258,15.987 34.307,15.318 35.231,15.331 C 35.616,16.225 35.47,17.52 34.848,18.542 C 34.198,19.613 33.336,19.747 32.61,19.635 Z M 31.253,24.275 C 31.081,23.608 31.094,22.789 31.899,22.06 C 32.669,21.365 33.713,21.084 34.492,21.345 C 34.605,22.206 34.173,23.261 33.405,23.956 C 32.601,24.684 31.839,24.564 31.253,24.274 Z M 29.216,23.009 C 28.683,22.497 28.237,21.72 28.583,20.525 C 28.913,19.385 29.736,18.452 30.61,18.201 C 31.198,18.936 31.385,20.199 31.054,21.339 C 30.708,22.535 29.93,22.908 29.216,23.009 Z M 33.878,28.435 C 34.173,28.001 34.642,27.612 35.446,27.778 C 36.214,27.938 36.881,28.477 37.11,29.106 C 36.677,29.596 35.87,29.83 35.102,29.672 C 34.298,29.504 33.997,28.956 33.878,28.435 Z M 35.427,26.359 C 35.607,25.789 35.994,25.204 36.907,25.099 C 37.78,24.997 38.664,25.34 39.105,25.935 C 38.793,26.615 37.998,27.151 37.127,27.251 C 36.212,27.357 35.717,26.875 35.427,26.359 Z M 35.291,20.621 C 35.138,20.029 35.15,19.301 35.866,18.652 C 36.55,18.035 37.48,17.785 38.171,18.017 C 38.272,18.783 37.888,19.72 37.204,20.339 C 36.489,20.986 35.814,20.879 35.291,20.621 Z M 31.01,16.82 C 30.565,16.39 30.192,15.745 30.48,14.748 C 30.757,13.798 31.442,13.022 32.168,12.811 C 32.661,13.424 32.816,14.477 32.541,15.428 C 32.252,16.424 31.603,16.734 31.01,16.82 Z M 43.846,39.969 C 41.211,38.239 37.197,36.44 31.383,35.871 A 8.563,8.563 0 0,0 31.322,36.842 C 31.322,37.05 31.355,37.32 31.362,37.374 C 37.036,37.768 41.078,39.053 43.818,40.101 C 43.874,40.122 43.927,40.148 43.952,40.148 C 43.985,40.148 44,40.127 44,40.101 C 44,40.056 43.952,40.039 43.846,39.968 Z M 28,17.818 C 27.247,17.444 26.505,16.749 26.505,15.304 C 26.505,13.924 27.115,12.596 28,12 C 28.885,12.596 29.495,13.923 29.495,15.304 C 29.495,16.749 28.755,17.444 28,17.819 Z" fill="rgb(85, 184, 70)"/>
</svg>
