<?xml version="1.0" encoding="UTF-8"?>
<!-- generated by Finnhub -->
<svg viewBox="0 0 55.5 55.5" xmlns="http://www.w3.org/2000/svg">
<path d="M 0,0 H 55.5 V 55.5 H 0 Z" fill="rgb(239, 242, 248)"/>
<path d="M 9.99,29.985 H 46 V 38 H 10 Z" fill="rgb(243, 188, 4)"/>
<path d="M 15.540000000000001,25.985 C 16.67,26 17.56,25.79 18,25.58 L 17.71,24.53 C 17.23,24.75 16.54,25 15.81,25 C 13.57,25 12,23.68 12,21.54 C 12,19.24 13.65,18 15.81,18 C 16.58,18 17.26,18.23 17.71,18.44 L 18,17.38 A 5.21,5.21 0 0,0 15.81,17 C 12.96,17 11,18.85 11,21.58 C 11,24.44 12.96,26 15.55,26 Z M 20,19.4 C 20.45,19.4 20.71,19.04 20.7,18.69 A 0.68,0.68 0 0,0 20,18 C 19.59,18 19.3,18.32 19.3,18.69 C 19.3,19.05 19.6,19.4 20,19.4 Z M 19.5,20 V 26 H 20.5 V 20 H 19.5 Z M 22,20 H 23 V 21 A 2.5,2.5 0 0,1 25,20 C 26.42,20 27.5,21.07 27.5,22.78 C 27.5,24.81 26.38,25.98 25,25.98 C 24.2,25.98 23.35,25.55 23,25 V 28 H 22 V 20 Z M 23.08,23.85 C 23.28,24.56 24.04,25.2 24.81,25.2 C 25.94,25.2 26.5,24.12 26.5,22.83 C 26.5,21.7 25.94,20.8 24.8,20.8 C 24.08,20.8 23.28,21.45 23.08,22.21 C 23.04,22.34 23,22.5 23,22.64 V 23.41 L 23.07,23.79 V 23.85 Z M 30,18 H 29 V 26 H 30 V 22.33 C 30,21.53 30.8,20.8 31.56,20.8 C 32.57,20.8 33,21.6 33,22.48 V 26 H 34 V 22.36 C 34,20.48 32.62,20 31.94,20 C 31.26,20 30.36,20.4 30,21 V 18 Z M 36,23.3 C 36,24.72 37.09,25.2 38.22,25.2 C 39.03,25.2 39.41,25.07 39.83,24.9 L 40,25.64 C 39.6,25.81 39.09,26 38.1,26 C 36.17,26 35,24.84 35,23.1 C 35,21.37 36.1,20 37.92,20 C 39.96,20 40.5,21.79 40.5,22.85 V 23.3 H 36 Z M 39.49,22.6 C 39.49,21.94 39.11,20.8 37.83,20.8 C 36.69,20.8 36,21.86 36,22.6 H 39.49 Z M 43,20 H 42 V 26 H 43 V 22.87 C 43,22.69 43.01,22.52 43.04,22.37 C 43.18,21.57 43.86,21 44.63,21 H 45 V 20 H 44.7 C 43.88,20 43.19,20.62 43,21.28 V 20 Z M 15.4,34.2 V 34.24 L 15.5,36 H 16 L 15.76,32 H 15.11 L 14.41,33.94 C 14.24,34.44 14.1,34.88 14,35.28 H 13.98 C 13.88,34.87 13.75,34.43 13.58,33.94 L 12.93,32 H 12.28 L 12,36 H 12.48 L 12.58,34.29 C 12.62,33.69 12.65,33.02 12.66,32.52 H 12.67 C 12.78,32.99 12.94,33.51 13.13,34.07 L 13.76,35.97 H 14.15 L 14.84,34.03 C 15.04,33.48 15.2,32.98 15.34,32.51 C 15.34,33.01 15.38,33.65 15.41,34.21 Z M 20,36 V 32 H 19.5 V 36 H 20 Z M 31,32 V 36 H 30.5 V 32 H 31 Z M 35,32 V 36 H 35.5 V 32.8 L 37.54,36 H 38 V 32 H 37.5 V 35.12 L 35.5,32 H 35 Z M 24,36 V 32 H 24.5 L 26.5,35.12 V 32 H 27 V 36 H 26.54 L 24.5,32.8 V 36 H 24 Z M 42.88,36 C 43.37,36 43.78,35.87 44,35.78 V 34 H 42.8 V 34.43 H 43.54 V 35.48 C 43.44,35.54 43.22,35.58 42.91,35.58 C 42.06,35.58 41.5,34.99 41.5,34 C 41.5,33.02 42.08,32.42 42.97,32.42 C 43.34,32.42 43.58,32.5 43.77,32.59 L 43.89,32.18 A 2.12,2.12 0 0,0 42.98,32 C 41.75,32 41.01,32.85 41,34.02 C 41,34.63 41.2,35.16 41.51,35.48 C 41.87,35.85 42.32,36 42.88,36 Z"/>
</svg>
