<?xml version="1.0" encoding="UTF-8"?>
<!-- generated by Finnhub -->
<svg viewBox="0 0 55.5 55.5" xmlns="http://www.w3.org/2000/svg">
<path d="M 0,0 H 55.5 V 55.5 H 0 Z" fill="rgb(20, 55, 103)"/>
<path d="M 20.99,15.985 H 22 V 32.106 C 22.335,32.078 22.668,32.052 23,32.028 V 16 H 25 V 31.902 C 25.323,31.885 25.644,31.87 25.963,31.856 V 23.578 A 2.033,2.033 0 0,1 30.03,23.578 V 31.762 C 30.355,31.76 30.679,31.76 31,31.762 V 17 H 31.83 A 0.497,0.497 0 0,1 31.928,17 H 32 V 17.013 C 32.066,17.029 32.13,17.059 32.186,17.103 C 34.278,18.737 37.742,21.189 41.449,23.408 C 45.169,25.634 49.081,27.595 52.081,28.288 A 0.5,0.5 0 0,1 51.871,29.265 C 48.201,28.531 43.64,26.92 39.727,25.285 A 84.59,84.59 0 0,1 34.504,22.907 C 33.492,22.398 32.631,21.929 32,21.535 V 31.772 C 43.657,31.939 52.105,33.926 52.02,33.926 A 243.359,243.359 0 0,0 32,33.085 V 36 H 31 V 33.088 C 28.894,33.098 26.892,33.14 25,33.206 V 36 H 23 V 33.285 L 22,33.333 V 36 H 21 V 33.387 C 12.958,33.842 7.359,34.72 4.664,35.39 C 10.143,33.676 15.706,32.694 21,32.195 V 24.868 C 17.513,27.668 13.474,29.793 10.26,31.234 A 64.196,64.196 0 0,1 6.048,32.948 A 47.799,47.799 0 0,1 4.398,33.516 L 4.376,33.523 L 4.37,33.525 H 4.368 L 4.22,33.048 L 4.368,33.525 A 0.5,0.5 0 0,1 3.977,32.611 C 12.557,27.838 18.14,20.831 19.839,17.962 A 0.5,0.5 0 1,1 20.699,18.472 C 19.224,20.964 15.036,26.317 8.639,30.85 C 9.027,30.685 9.432,30.509 9.851,30.321 C 13.193,28.823 17.397,26.592 20.903,23.654 A 0.503,0.503 0 0,1 21,23.59 V 16 Z M 29.03,31.77 V 23.578 A 1.033,1.033 0 1,0 26.963,23.578 V 31.818 C 27.66,31.795 28.349,31.779 29.03,31.77 Z M 32,20.333 V 18.223 C 34.148,19.869 37.434,22.17 40.936,24.266 C 41.716,24.733 42.508,25.191 43.303,25.63 A 96.757,96.757 0 0,1 40.113,24.363 A 83.57,83.57 0 0,1 34.953,22.013 C 33.572,21.32 32.542,20.73 32,20.333 Z" fill="rgb(254, 254, 253)" fill-rule="evenodd"/>
<path d="M 29.99,33.985 H 26 V 36 H 30 V 34 Z M 26,18 V 21 C 27.657,20.129 29.357,20.637 30,21 V 19.548 C 29.059,18.388 26.941,18.032 26,18 Z M 26.58,17.433 C 26.866,17.373 27.365,17.319 27.886,17.359 C 28.416,17.4 28.899,17.533 29.22,17.787 A 0.5,0.5 0 0,0 29.84,17.003 C 29.293,16.57 28.577,16.41 27.963,16.363 A 6,6 0 0,0 26.377,16.453 A 0.5,0.5 0 1,0 26.58,17.433 Z" fill="rgb(254, 254, 253)"/>
</svg>
