<?xml version="1.0" encoding="UTF-8"?>
<!-- generated by Finnhub -->
<svg viewBox="0 0 55.5 55.5" xmlns="http://www.w3.org/2000/svg">
<path d="M 0,0 H 55.5 V 55.5 H 0 Z" fill="rgb(1, 121, 192)"/>
<path d="M 26.144,35.985 H 26.143 L 27.558,29.917 L 28,28 H 35 A 2,2 0 1,0 35,24 H 29 L 31,16 H 36 C 41.523,16 46,20.477 46,26 S 41.523,36 36,36 H 33.154 L 32,41 H 25 L 26.154,36 Z M 20,24 H 27 L 29,16 H 20 C 14.477,16 10,20.477 10,26 S 14.477,36 20,36 H 24 L 26,28 H 20 A 2,2 0 1,1 20,24 Z" fill="rgb(254, 254, 253)"/>
</svg>
