<?xml version="1.0" encoding="UTF-8"?>
<!-- generated by Finnhub -->
<svg viewBox="0 0 55.5 55.5" xmlns="http://www.w3.org/2000/svg">
<path d="M 0,0 H 55.5 V 55.5 H 0 Z" fill="rgb(18, 130, 192)"/>
<path d="M 9.99,27.185 C 13.77,26.83 21.82,25.56 23.86,23.43 C 25.9,21.31 26.88,13.59 27.12,10 H 27.31 V 19.37 C 27.31,21.04 27.26,24.86 26.73,26.7 C 25.68,27 22.3,27.55 17.2,27.4 H 10 V 27.2 Z M 10,28.8 C 13.77,29.18 21.82,30.45 23.86,32.57 C 25.9,34.69 26.88,42.41 27.12,46 H 27.31 V 36.64 C 27.31,34.96 27.26,31.14 26.73,29.3 C 25.68,29 22.3,28.46 17.2,28.61 H 10 V 28.81 Z M 32.14,23.43 C 34.18,25.56 42.23,26.83 46,27.2 V 27.4 H 38.8 C 33.7,27.55 30.32,27 29.27,26.7 C 28.74,24.86 28.69,21.04 28.69,19.37 V 10 H 28.89 C 29.12,13.6 30.09,21.31 32.14,23.43 Z M 46,28.81 C 42.23,29.18 34.18,30.45 32.14,32.57 C 30.1,34.69 29.12,42.41 28.88,46 H 28.69 V 36.64 C 28.69,34.96 28.74,31.14 29.27,29.3 C 30.32,29 33.7,28.46 38.8,28.61 H 46 V 28.81 Z" fill="rgb(254, 254, 253)"/>
</svg>
