<?xml version="1.0" encoding="UTF-8"?>
<!-- generated by Finnhub -->
<svg viewBox="0 0 55.5 55.5" xmlns="http://www.w3.org/2000/svg">
<path d="M 0,0 H 55.5 V 55.5 H 0 Z" fill="rgb(239, 242, 248)"/>
<path d="M 51.99,31.733 V 24.006 C 45.122,19.732 37.93,16.666 28.767,13.166 C 28.18,12.944 27.82,12.944 27.227,13.166 C 18.063,16.666 10.867,19.979 4,24.252 V 31.748 C 10.873,36.021 18.063,39.334 27.227,42.833 C 27.814,43.056 28.174,43.056 28.767,42.833 C 37.931,39.334 45.123,36.022 52,31.748 Z" fill="rgb(225, 89, 68)"/>
<path d="M 27.570999999999998,16.519 C 18.639,20.003 12.261,23.118 5.574,27.289 A 0.83,0.83 0 0,0 5.184,27.997 C 5.184,28.291 5.33,28.555 5.574,28.705 C 12.261,32.876 18.639,35.997 27.581,39.46 C 27.907,39.586 28.087,39.586 28.407,39.46 C 37.35,35.997 43.727,32.876 50.42,28.705 A 0.817,0.817 0 0,0 50.804,27.997 A 0.824,0.824 0 0,0 50.42,27.289 C 43.728,23.111 37.35,19.997 28.407,16.527 C 28.087,16.407 27.913,16.407 27.581,16.533 Z" fill="rgb(251, 206, 36)"/>
<path d="M 27.787,17.383 C 19.011,20.813 12.772,23.856 6.249,27.907 L 6.202,27.997 L 6.249,28.087 A 108.628,108.628 0 0,0 11.144,30.967 C 11.394,31.106 11.394,31.34 11.394,32.108 V 35.073 C 11.394,35.277 11.511,35.457 11.737,35.421 C 11.917,35.391 12.197,35.367 12.732,35.157 C 13.267,34.953 13.372,34.581 13.372,34.059 V 32.589 C 13.372,32.474 13.412,32.379 13.482,32.33 C 13.522,32.306 13.592,32.282 13.697,32.33 C 17.79,34.455 22.273,36.447 27.802,38.596 A 0.503,0.503 0 0,0 28.198,38.596 C 36.978,35.187 43.222,32.138 49.745,28.087 L 49.792,27.997 L 49.745,27.907 A 109.83,109.83 0 0,0 41.245,23.117 C 41.071,23.027 40.885,22.637 40.576,21.941 L 40.268,21.257 C 40.204,21.131 39.884,21.011 39.739,21.071 C 39.71,21.083 39.687,21.089 39.704,21.173 C 39.739,21.329 39.914,22.103 39.727,22.259 L 39.553,22.283 C 36.181,20.645 32.57,19.096 28.192,17.392 A 0.53,0.53 0 0,0 27.797,17.398 Z" fill="rgb(1, 129, 190)"/>
<path d="M 30.933999999999997,33.708 S 34.334,32.949 34.51,32.913 C 34.647,32.931 34.79,32.943 34.938,32.943 C 35.843,32.943 37.056,32.636 37.912,31.97 C 37.884,32.06 37.852,32.18 37.852,32.18 L 38.433,32.042 L 40.583,31.55 C 41.1,31.43 41.544,31.04 41.703,30.542 C 41.709,30.53 41.714,30.512 41.994,29.443 L 42.114,29.845 C 42.219,30.158 42.494,30.404 42.812,30.505 C 43.162,30.854 43.629,30.854 43.903,30.794 L 46.312,30.248 S 44.238,24.522 44.145,24.258 L 46.57,17.674 S 46.136,17.776 46.021,17.8 L 46.169,17.404 L 43.245,18.07 C 42.724,18.19 42.285,18.586 42.12,19.084 L 41.807,20.033 C 41.769,19.937 41.703,19.756 41.703,19.756 C 41.471,19.153 40.543,18.686 39.925,18.82 L 37.352,19.408 S 37.418,19.564 37.478,19.69 A 2.42,2.42 0 0,0 36.524,19.51 C 34.324,19.51 32.87,20.663 32.42,21.983 A 2.283,2.283 0 0,0 31.871,21.581 A 2.22,2.22 0 0,0 30.554,21.071 A 5.27,5.27 0 0,0 29.1,21.203 L 25.945,21.917 V 23.039 A 2.289,2.289 0 0,0 25.622,22.841 C 25.331,22.607 24.897,22.337 24.102,22.337 C 22.719,22.337 21.474,22.841 20.672,23.712 C 20.152,24.282 19.866,24.978 19.866,25.662 V 32.36 C 19.685,32.51 19.482,32.666 19.147,32.798 L 19.142,23.832 L 18.736,23.922 V 23.556 L 15.241,24.354 V 25.338 L 15.076,25.23 C 14.686,24.894 14.149,24.708 13.534,24.708 C 11.312,24.708 9.041,26.076 9.041,28.153 V 35.799 C 9.041,37.274 10.531,38.164 11.795,38.164 C 12.827,38.164 14.297,37.756 15.191,36.952 L 15.669,36.838 V 37.186 L 20.991,35.973 V 35.259 C 21.737,35.805 22.324,35.769 22.598,35.769 C 23.817,35.769 25.133,35.223 25.83,34.533 L 26.379,34.413 V 34.761 L 29.748,33.993 V 33.063 C 29.885,33.183 30.028,33.285 30.203,33.351 C 30.269,33.435 30.631,33.669 30.943,33.723 Z" fill="rgb(1, 129, 190)"/>
<path d="M 12.986,34.868 C 12.996,35.255 12.54,35.387 12.265,35.387 C 12.045,35.387 12,35.219 12,35.153 V 28.045 C 12,27.535 12.645,27.499 12.745,27.499 C 12.89,27.499 13,27.595 13,27.733 V 29.647 C 13,29.93 13.23,30.104 13.53,30.026 L 15,29.666 V 26.815 C 15,26.095 14.622,25.368 13.561,25.368 C 11.98,25.368 10,26.328 10,28.171 V 35.799 C 10,36.603 10.584,37.239 11.54,37.239 C 13.06,37.239 15,36.364 15,34.479 V 31.809 L 13.661,32.169 C 13.361,32.24 13.001,32.534 13.001,32.81 L 12.996,34.883 Z M 20,33.099 C 19.613,33.411 19.12,33.543 18.6,33.669 L 18,33.759 V 24.384 L 16,24.906 V 36.117 L 20,35.181 V 33.1 Z M 38,29.341 C 38,30.89 36.565,32.024 34.547,32.024 C 33.361,32.024 32.964,31.16 32.97,30.428 L 33,22.703 C 33,21.479 34.045,20.067 36.545,20.067 C 37.603,20.067 38,20.831 38,21.647 V 29.341 Z M 35.996,22.231 C 35.996,22.111 35.909,21.996 35.729,21.996 C 35.333,21.996 35.018,22.223 35.012,22.566 V 29.93 C 35.012,29.99 35.047,30.158 35.292,30.158 C 35.942,30.158 35.996,29.811 35.996,29.583 V 22.23 Z M 26,32.307 C 26,33.862 24.573,35 22.568,35 C 21.388,35 20.994,34.133 21,33.398 V 25.645 C 21,24.417 22.069,23 24.554,23 C 25.606,23 26,23.766 26,24.585 V 32.307 Z M 24,25.171 C 24,25.051 23.922,24.936 23.742,24.936 C 23.349,24.936 23.006,25.164 23,25.506 V 32.898 C 23,32.958 23.065,33.127 23.308,33.127 C 23.955,33.127 24,32.778 24,32.55 V 25.17 Z M 43.42,24 L 45.53,29.51 L 43.728,29.9 C 43.391,29.972 43.106,29.852 43.008,29.623 L 41.967,26.328 L 40.926,30.074 C 40.833,30.35 40.548,30.584 40.211,30.662 L 38.403,31.046 L 40.513,24.63 L 38.292,19.895 L 40.211,19.48 C 40.548,19.408 40.833,19.528 40.926,19.756 L 41.966,22.301 L 43.007,19.306 C 43.1,19.036 43.385,18.796 43.728,18.724 L 45.641,18.31 L 43.421,24 Z M 29,26.863 L 29.661,26.695 C 29.934,26.629 30,26.358 30,26.088 V 23.814 C 30,23.589 29.946,23.308 29.656,23.382 L 29,23.544 V 26.863 Z M 30,28.489 C 30,28.267 29.96,27.976 29.666,28.057 L 29,28.219 V 33.206 L 27.002,33.699 V 22.469 L 29.469,21.863 C 29.889,21.761 30.329,21.719 30.669,21.743 C 31.464,21.803 32,22.355 32,23.177 V 25.272 C 32,25.938 31.656,26.61 31.1,27.072 C 31.646,27.162 32,27.571 32,28.165 V 31.382 C 32,31.796 32.203,32.138 32.497,32.336 L 30.679,32.786 A 0.93,0.93 0 0,1 30,31.874 V 28.49 Z" fill="rgb(254, 254, 253)"/>
</svg>
