<?xml version="1.0" encoding="UTF-8"?>
<!-- generated by Finnhub -->
<svg viewBox="0 0 55.5 55.5" xmlns="http://www.w3.org/2000/svg">
<path d="M 0,0 H 55.5 V 55.5 H 0 Z" fill="url(#a)"/>
<path d="M 36.268,21.149 L 31,34 L 36.278,21.164 Z M 12.543,29.09 L 11.888,28.61 L 11.854,28.58 C 10.292,27.193 9.66,25.086 10.177,23.015 C 10.569,21.418 11.801,19.951 13.313,19.353 L 13.322,19.349 A 5.16,5.16 0 0,1 18.57,20.265 L 18.519,20.133 L 18.507,20.093 A 5.827,5.827 0 0,1 19.763,14.571 C 21.148,13.006 23.423,12.576 25.239,13.439 C 26.193,13.887 27.076,14.717 27.614,15.732 L 27.624,15.752 L 27.634,15.772 C 27.758,16.034 27.87,16.308 27.965,16.594 A 5.298,5.298 0 0,1 30.34,13.674 C 32.159,12.563 34.64,12.871 36.184,14.276 A 5.304,5.304 0 0,1 37.607,16.245 C 38.142,17.418 38.109,18.76 37.812,19.941 C 38.886,19.186 40.214,18.864 41.586,19.055 L 41.611,19.058 L 41.637,19.063 C 43.137,19.351 44.656,20.367 45.417,21.932 C 45.887,22.79 46.047,23.812 45.988,24.762 C 45.93,25.718 45.649,26.696 45.138,27.48 C 44.798,28.044 44.368,28.45 43.964,28.773 C 43.825,28.883 43.685,28.988 43.552,29.085 C 44.362,29.049 45.182,29.2 45.895,29.556 C 47.069,30.066 48.096,31.209 48.575,32.366 C 49.335,34.1 49.046,36.38 47.953,37.858 L 47.945,37.868 L 47.936,37.88 C 46.886,39.22 45.434,40.022 43.703,39.984 H 27.525 L 27.5,40 L 27.475,39.983 H 12.297 C 10.567,40.021 9.114,39.218 8.064,37.879 L 8.055,37.868 L 8.047,37.857 C 6.954,36.379 6.667,34.099 7.425,32.365 C 7.905,31.208 8.931,30.065 10.105,29.555 C 10.845,29.185 11.701,29.037 12.543,29.089 Z M 26.73,16.2 C 27.137,17.06 27.38,18.022 27.228,19.086 L 24.97,34 L 27.228,19.085 C 27.379,18.022 27.138,17.059 26.73,16.199 C 26.292,15.372 25.567,14.696 24.812,14.342 C 25.567,14.696 26.292,15.372 26.73,16.199 Z M 38.186,20.91 A 4.47,4.47 0 0,0 37.026,22.324 L 31.128,36.613 L 31,37 L 31.128,36.612 L 37.026,22.323 A 4.472,4.472 0 0,1 38.186,20.909 Z M 15.111,20.002 C 14.633,20.011 14.15,20.102 13.681,20.282 C 12.486,20.756 11.466,21.955 11.148,23.255 C 10.718,24.977 11.243,26.7 12.518,27.831 L 25,37 L 12.518,27.83 C 11.243,26.699 10.718,24.976 11.148,23.254 C 11.466,21.954 12.486,20.754 13.681,20.282 C 14.15,20.102 14.633,20.01 15.111,20.001 Z M 47.655,32.758 C 48.272,34.158 48.035,36.065 47.149,37.263 C 46.33,38.307 45.269,38.919 44.027,38.98 C 45.269,38.92 46.331,38.307 47.149,37.263 C 48.035,36.065 48.273,34.158 47.656,32.758 C 47.26,31.796 46.389,30.851 45.472,30.463 C 46.389,30.851 47.26,31.796 47.655,32.758 Z M 30,38.983 H 43.715 H 30 Z M 8.851,37.262 Z M 10.78,38.734 C 11.247,38.91 11.75,38.996 12.285,38.984 H 25 H 12.285 A 3.963,3.963 0 0,1 10.78,38.734 Z" fill="rgb(254, 254, 253)" fill-rule="evenodd"/>
<path d="M 36.68,16.627 C 37.338,18.042 36.959,19.899 36.278,21.164 L 31,34 L 29.03,21.063 C 28.872,19.831 30.122,19.308 30.85,18.701 C 30.818,18.515 30.628,18.448 30.502,18.448 L 28.714,18.431 L 28.666,18.38 C 28.682,16.777 29.489,15.309 30.85,14.533 C 32.274,13.655 34.284,13.892 35.519,15.023 C 36.025,15.461 36.436,16.018 36.689,16.642 Z" fill="rgb(99, 94, 168)"/>
<path d="M 26.72,16.184 C 27.137,17.059 27.38,18.021 27.228,19.085 L 24.97,34 L 19.466,19.81 A 4.827,4.827 0 0,1 20.508,15.237 C 21.596,14.005 23.392,13.667 24.812,14.342 C 25.567,14.696 26.292,15.372 26.73,16.199 Z" fill="rgb(200, 34, 72)"/>
<path d="M 44.52,22.375 C 45.264,23.707 45.104,25.716 44.29,26.948 C 43.779,27.809 42.949,28.248 42.246,28.805 L 31.032,37 H 31 L 31.128,36.612 L 37.026,22.323 C 37.92,20.635 39.628,19.791 41.448,20.044 C 42.678,20.28 43.923,21.124 44.529,22.391 Z" fill="rgb(1, 136, 205)"/>
<path d="M 18.927999999999997,22.293 L 25,36.991 V 37 L 12.518,27.83 C 11.243,26.699 10.718,24.976 11.148,23.254 C 11.466,21.954 12.486,20.754 13.681,20.282 C 15.656,19.522 17.887,20.332 18.938,22.308 Z" fill="rgb(242, 110, 31)"/>
<path d="M 47.645,32.742 C 48.272,34.157 48.035,36.064 47.149,37.262 C 46.263,38.392 45.092,39.017 43.715,38.983 H 30 L 41.547,30.732 C 42.639,29.989 44.285,29.854 45.471,30.462 C 46.389,30.85 47.26,31.795 47.655,32.757 Z" fill="rgb(12, 176, 73)"/>
<path d="M 8.335,32.742 C 7.727,34.157 7.965,36.064 8.851,37.262 C 9.737,38.392 10.908,39.017 12.285,38.983 H 25 L 14.453,30.732 C 13.361,29.989 11.716,29.854 10.529,30.462 C 9.611,30.85 8.74,31.795 8.345,32.757 Z" fill="rgb(252, 184, 17)"/>
<defs>
<linearGradient id="a" x1="10.418" x2="68.147" y1="9.712" y2="76.017" gradientUnits="userSpaceOnUse">
<stop stop-color="rgb(25, 29, 31)" offset="0"/>
<stop stop-color="rgb(5, 5, 8)" offset="1"/>
</linearGradient>
</defs>
</svg>
