<?xml version="1.0" encoding="UTF-8"?>
<!-- generated by Finnhub -->
<svg viewBox="0 0 55.5 55.5" xmlns="http://www.w3.org/2000/svg">
<path d="M 0,0 H 55.5 V 55.5 H 0 Z" fill="rgb(68, 19, 2)"/>
<path d="M 45.758,28.309 C 45.768,38.212 37.631,46.212 27.64,46.212 C 17.62,46.212 9.512,38.184 9.512,28.324 C 9.512,18.437 17.648,10.436 27.64,10.436 C 37.631,10.436 45.768,18.436 45.768,28.324 Z" fill="rgb(167, 21, 16)"/>
<path d="M 37.963,28.309 C 37.973,33.96 33.351,38.52 27.64,38.52 S 17.307,33.96 17.307,28.324 C 17.307,22.689 21.929,18.128 27.64,18.128 C 33.334,18.128 37.973,22.688 37.973,28.324 Z" fill="rgb(68, 19, 2)"/>
<path d="M 16.208,23.697 C 16.077,23.989 15.901,24.215 15.69,24.405 C 15.48,24.596 15.233,24.735 14.97,24.822 A 2.646,2.646 0 0,1 14.144,24.943 A 2.412,2.412 0 0,1 13.3,24.735 H 13.283 A 2.07,2.07 0 0,1 12.58,24.232 A 2.095,2.095 0 0,1 12,22.723 C 12.018,22.429 12.088,22.151 12.229,21.856 A 3.02,3.02 0 0,1 12.509,21.388 C 12.615,21.249 12.72,21.145 12.826,21.041 A 2.52,2.52 0 0,1 13.177,20.799 C 13.3,20.729 13.423,20.677 13.564,20.625 L 13.933,21.44 A 3.17,3.17 0 0,0 13.388,21.735 C 13.23,21.856 13.125,22.012 13.019,22.185 C 12.949,22.342 12.896,22.498 12.896,22.671 C 12.896,22.828 12.931,22.984 12.984,23.14 C 13.054,23.278 13.142,23.417 13.265,23.538 C 13.388,23.66 13.529,23.764 13.687,23.833 H 13.705 C 13.863,23.903 14.039,23.955 14.215,23.972 C 14.39,23.989 14.548,23.972 14.706,23.92 C 14.864,23.868 15.005,23.798 15.128,23.694 C 15.251,23.59 15.356,23.452 15.444,23.296 C 15.55,23.088 15.602,22.88 15.584,22.689 A 2.528,2.528 0 0,0 15.462,22.099 L 16.27,21.822 C 16.323,21.96 16.376,22.116 16.41,22.255 C 16.446,22.394 16.463,22.55 16.463,22.689 C 16.463,22.845 16.446,23.001 16.411,23.157 A 2.088,2.088 0 0,1 16.217,23.712 Z M 14.355,18.232 L 15.005,17.556 L 16.411,18.943 L 17.764,17.556 L 16.358,16.134 L 16.938,15.597 L 19.943,18.527 L 19.469,19.134 L 18.326,18.094 L 16.956,19.411 L 18.08,20.486 L 17.43,21.163 L 14.355,18.233 Z M 19.45,13.932 L 20.154,13.55 L 22.174,17.261 L 21.472,17.643 L 19.451,13.932 Z M 24.81,14.261 C 25.056,14.209 25.25,14.123 25.355,13.984 C 25.461,13.845 25.495,13.689 25.461,13.516 V 13.498 C 25.425,13.29 25.32,13.152 25.161,13.082 C 25.004,13.012 24.775,12.995 24.547,13.03 L 23.809,13.169 L 24.072,14.4 L 24.81,14.261 Z M 22.667,12.545 L 24.441,12.215 C 24.705,12.163 24.933,12.163 25.161,12.181 C 25.373,12.215 25.601,12.267 25.759,12.371 C 25.935,12.475 26.076,12.597 26.181,12.753 C 26.286,12.909 26.374,13.1 26.427,13.308 V 13.325 C 26.48,13.568 26.48,13.775 26.427,13.967 A 1.26,1.26 0 0,1 26.146,14.487 C 26.006,14.643 25.83,14.764 25.619,14.851 A 2.513,2.513 0 0,1 24.951,15.076 L 24.09,15.25 L 24.336,16.533 L 23.51,16.672 L 22.666,12.545 Z M 30.68,12.926 A 1.47,1.47 0 0,0 30.135,12.892 A 1.406,1.406 0 0,0 29.661,13.065 C 29.521,13.152 29.397,13.273 29.309,13.412 A 1.113,1.113 0 0,0 29.099,13.897 V 13.915 A 1.376,1.376 0 0,0 29.081,14.452 C 29.116,14.626 29.169,14.782 29.256,14.938 C 29.344,15.094 29.467,15.215 29.608,15.319 C 29.748,15.423 29.924,15.509 30.1,15.562 C 30.293,15.614 30.469,15.632 30.645,15.597 A 1.19,1.19 0 0,0 31.453,15.077 A 1.11,1.11 0 0,0 31.663,14.591 V 14.573 C 31.699,14.4 31.717,14.209 31.681,14.036 A 1.61,1.61 0 0,0 31.506,13.55 A 1.225,1.225 0 0,0 31.154,13.169 A 1.221,1.221 0 0,0 30.68,12.926 Z M 30.873,12.094 C 31.207,12.181 31.488,12.319 31.752,12.493 C 31.998,12.683 32.209,12.892 32.367,13.134 C 32.525,13.377 32.63,13.637 32.683,13.932 C 32.736,14.227 32.736,14.522 32.666,14.816 V 14.834 C 32.596,15.128 32.472,15.389 32.314,15.631 A 2.136,2.136 0 0,1 31.681,16.186 A 2.214,2.214 0 0,1 30.856,16.464 A 2.567,2.567 0 0,1 29.906,16.394 A 2.893,2.893 0 0,1 29.028,15.995 A 2.667,2.667 0 0,1 28.413,15.354 A 2.115,2.115 0 0,1 28.097,14.556 A 2.142,2.142 0 0,1 28.114,13.672 V 13.654 C 28.184,13.36 28.308,13.1 28.466,12.857 C 28.641,12.631 28.852,12.441 29.098,12.302 C 29.344,12.163 29.625,12.059 29.924,12.024 C 30.223,11.972 30.539,12.007 30.874,12.094 Z M 35.635,14.626 L 34.37,13.88 L 34.774,13.273 L 37.867,15.093 L 37.463,15.718 L 36.391,15.042 L 34.528,18.007 L 33.79,17.591 L 35.635,14.625 Z M 39.642,16.654 L 40.222,17.296 L 37.532,19.533 L 39.027,21.198 L 38.359,21.7 L 36.426,19.446 L 39.642,16.654 Z M 42.858,21.041 L 44,23.92 L 43.297,24.163 L 42.437,22.064 L 41.312,22.498 L 41.98,24.18 L 41.242,24.423 L 40.574,22.741 L 39.818,23.036 L 40.749,25.203 L 40.011,25.446 L 38.851,22.481 L 42.858,21.041 Z M 13.406,28.532 A 0.432,0.432 0 0,1 12.966,28.966 A 0.432,0.432 0 0,1 12.527,28.532 C 12.527,28.29 12.721,28.099 12.967,28.099 C 13.213,28.116 13.406,28.307 13.406,28.532 Z M 42.893,28.532 A 0.432,0.432 0 0,1 42.453,28.966 A 0.432,0.432 0 0,1 42.014,28.532 C 42.014,28.29 42.208,28.099 42.454,28.099 C 42.699,28.116 42.893,28.307 42.893,28.532 Z M 14.794,31.914 L 14.988,32.434 L 14.268,33.354 L 15.427,33.578 L 15.62,34.098 L 13.406,34.914 L 13.23,34.428 L 14.689,33.891 L 13.511,33.631 V 33.613 L 14.214,32.66 L 12.774,33.197 L 12.598,32.729 L 14.794,31.914 Z M 16.218,35.156 L 17.219,36.613 L 16.833,36.873 L 16.113,35.833 L 15.708,36.093 L 16.341,37.012 L 15.954,37.272 L 15.321,36.352 L 14.917,36.63 L 15.637,37.688 L 15.251,37.948 L 14.231,36.474 L 16.218,35.156 Z M 17.711,38.78 L 17.904,37.41 L 18.361,37.81 L 18.203,38.694 L 19.099,38.468 L 19.539,38.868 L 18.168,39.179 L 17.957,40.619 L 17.5,40.219 L 17.658,39.266 L 16.709,39.509 L 16.27,39.11 L 17.711,38.78 Z M 20.505,39.578 L 20.945,39.856 L 19.697,41.85 L 19.257,41.572 L 20.505,39.578 Z M 22.35,43.098 A 1.273,1.273 0 0,1 21.93,42.856 A 1.134,1.134 0 0,1 21.648,42.491 A 0.95,0.95 0 0,1 21.543,42.041 A 1.248,1.248 0 0,1 21.859,41.157 C 21.964,41.035 22.087,40.948 22.228,40.879 C 22.368,40.809 22.527,40.775 22.685,40.757 C 22.843,40.74 23.019,40.775 23.195,40.827 C 23.3,40.861 23.388,40.897 23.475,40.948 C 23.563,41 23.634,41.052 23.686,41.104 C 23.739,41.156 23.792,41.208 23.845,41.278 C 23.897,41.347 23.932,41.399 23.968,41.468 L 23.528,41.711 A 0.835,0.835 0 0,0 23.318,41.434 A 0.765,0.765 0 0,0 23.036,41.26 C 22.948,41.226 22.843,41.208 22.755,41.226 A 0.744,0.744 0 0,0 22.491,41.295 A 0.516,0.516 0 0,0 22.281,41.468 C 22.228,41.538 22.175,41.624 22.14,41.711 A 0.775,0.775 0 0,0 22.087,41.989 A 0.66,0.66 0 0,0 22.297,42.475 C 22.368,42.543 22.439,42.595 22.544,42.613 A 0.63,0.63 0 0,0 22.896,42.648 C 23.001,42.63 23.106,42.595 23.23,42.543 L 23.44,42.96 C 23.352,42.994 23.282,43.029 23.194,43.064 A 0.567,0.567 0 0,1 22.948,43.116 C 22.86,43.133 22.773,43.116 22.685,43.116 A 0.544,0.544 0 0,1 22.351,43.098 Z M 26.34,42.908 L 26.11,42.11 L 25.707,42.82 L 26.339,42.908 Z M 25.953,41.486 L 26.427,41.538 L 27.147,44 L 26.603,43.93 L 26.445,43.376 L 25.443,43.254 L 25.162,43.757 L 24.635,43.687 L 25.953,41.486 Z M 28.484,41.624 L 28.958,41.572 L 30.206,42.89 L 30.066,41.451 L 30.575,41.399 L 30.804,43.723 L 30.364,43.757 L 29.064,42.387 L 29.204,43.861 L 28.694,43.913 L 28.484,41.624 Z M 34.51,42.596 C 34.335,42.665 34.177,42.716 34.019,42.716 C 33.861,42.716 33.702,42.699 33.562,42.647 A 1.117,1.117 0 0,1 33.175,42.405 A 1.1,1.1 0 0,1 32.894,42.005 A 1.132,1.132 0 0,1 32.789,41.538 C 32.789,41.382 32.806,41.226 32.859,41.087 C 32.912,40.948 32.999,40.809 33.105,40.688 C 33.21,40.567 33.351,40.48 33.527,40.393 C 33.632,40.359 33.72,40.323 33.807,40.289 C 33.896,40.272 33.983,40.254 34.054,40.254 H 34.282 C 34.352,40.272 34.44,40.289 34.511,40.307 L 34.371,40.792 A 0.517,0.517 0 0,0 34.212,40.757 C 34.159,40.757 34.106,40.74 34.054,40.74 C 34.001,40.74 33.948,40.74 33.896,40.757 C 33.843,40.775 33.773,40.792 33.72,40.809 A 0.48,0.48 0 0,0 33.51,40.966 A 0.975,0.975 0 0,0 33.368,41.191 C 33.333,41.278 33.333,41.364 33.333,41.468 C 33.333,41.555 33.368,41.659 33.403,41.746 A 0.87,0.87 0 0,0 33.579,41.988 A 0.667,0.667 0 0,0 34.071,42.197 A 0.563,0.563 0 0,0 34.353,42.127 C 34.528,42.041 34.669,41.937 34.739,41.797 L 34.599,41.486 L 34.124,41.694 L 33.948,41.294 L 34.898,40.879 L 35.319,41.815 C 35.249,41.954 35.161,42.093 35.038,42.231 A 1.588,1.588 0 0,1 34.511,42.595 Z M 36.988,39.613 A 0.38,0.38 0 0,0 37.164,39.37 A 0.3,0.3 0 0,0 37.094,39.11 C 37.024,39.023 36.936,38.971 36.848,38.971 A 0.478,0.478 0 0,0 36.549,39.093 L 36.145,39.405 L 36.567,39.942 L 36.988,39.612 Z M 35.442,39.353 L 36.303,38.693 C 36.549,38.521 36.777,38.433 36.988,38.469 C 37.182,38.486 37.34,38.589 37.48,38.763 C 37.603,38.919 37.656,39.058 37.656,39.214 A 0.775,0.775 0 0,1 37.533,39.648 L 38.517,39.96 L 38.043,40.324 L 37.182,40.046 L 36.865,40.289 L 37.34,40.879 L 36.936,41.191 L 35.442,39.353 Z M 37.885,37.307 L 38.219,36.925 L 40.011,38.451 L 39.677,38.833 L 37.885,37.307 Z M 39.044,35.815 L 39.308,35.365 L 40.942,36.318 L 41.54,35.313 L 41.944,35.555 L 41.083,37.012 L 39.044,35.815 Z M 40.31,33.37 L 40.468,32.885 L 42.278,33.475 L 42.647,32.365 L 43.104,32.503 L 42.577,34.099 L 40.31,33.37 Z M 25.46,32.573 C 25.46,32.159 24.892,31.639 24.723,31.273 C 24.566,30.654 24.193,30.096 24.143,29.451 C 24.049,28.615 23.994,27.559 24.547,26.868 C 24.799,26.642 25.584,26.573 26.199,26.504 C 27.057,26.522 27.606,26.68 28.308,27.128 C 28.444,27.195 27.215,29.701 27.025,30.076 C 26.806,30.579 27.144,31.31 27.288,31.81 C 27.411,32.243 27.57,32.625 27.728,32.954 C 27.833,33.197 27.974,33.284 27.675,33.214 C 26.848,33.01 26.305,31.414 25.971,30.752 C 25.577,29.898 25.135,29.185 25.496,28.168 C 25.514,27.683 25.9,27.787 26.216,27.804 C 26.739,27.804 26.849,28.02 26.849,28.48 C 26.849,28.847 26.613,29.195 26.462,29.52 C 26.459,29.528 26.462,28.852 26.146,28.931 C 25.703,29.004 25.864,29.515 25.9,29.798 C 25.97,30.128 26.234,30.388 26.55,30.249 C 26.656,30.145 26.744,30.024 26.744,29.885 C 26.744,29.57 27.01,29.065 27.183,28.81 C 27.36,28.286 27.513,27.41 26.743,27.232 C 26.158,27.149 25.606,27.338 25.039,27.44 C 24.695,27.537 24.842,28.724 24.74,28.966 C 24.66,30.128 25.904,31.551 26.445,32.694 C 26.771,33.338 28.151,34.477 28.817,33.908 C 28.94,33.786 28.677,33.578 28.624,33.544 C 28.171,33.131 28.066,32.444 27.798,31.914 C 27.621,31.364 27.454,30.779 27.552,30.197 C 27.674,29.075 28.846,28.234 29.152,27.18 C 29.204,26.97 28.532,26.308 28.378,26.157 C 28.29,26.07 28.097,25.931 27.991,25.983 C 27.851,26.053 27.816,26.192 27.657,26.192 C 27.083,26.192 26.441,26.138 25.917,25.879 C 25.795,25.81 25.584,25.879 25.426,25.897 C 24.617,26.07 23.774,25.775 23.721,26.729 C 23.549,27.706 23.511,28.595 23.511,29.59 C 23.511,30.883 24.685,31.807 25.461,32.573 Z" fill="rgb(254, 254, 253)"/>
<path d="M 26.558,24.841 L 25.408,23.92 C 25.373,23.92 25.32,23.937 25.285,23.937 C 24.881,24.041 24.09,23.972 23.739,24.197 C 23.176,24.51 22.807,25.064 22.403,25.463 C 22.28,25.533 22.333,25.827 22.28,25.966 C 21.836,27.193 21.824,28.953 22.175,30.197 C 22.175,31.029 24.072,32.954 25.145,34.792 C 25.302,35.104 25.408,35.104 25.689,35.139 C 26.269,35.329 26.888,35.43 27.482,35.59 C 28.172,35.776 29.086,35.59 29.802,35.59 C 29.802,35.59 30.612,35.748 31.418,35.174 C 31.812,35.028 32.137,34.347 32.244,33.96 C 32.297,33.77 32.244,33.578 32.033,33.526 C 31.815,33.462 31.413,33.341 31.243,33.197 C 31.013,33.024 30.733,32.85 30.504,32.659 C 30.291,32.498 29.67,31.954 29.379,32.018 C 29.221,32.053 29.133,31.636 29.204,31.307 C 29.256,31.064 29.151,31.03 29.081,30.857 C 28.905,30.457 28.711,30.665 29.133,30.301 C 29.764,29.834 30.932,27.799 30.697,26.989 C 30.662,26.402 29.689,24.674 29.151,24.44 C 29.046,24.423 28.87,24.44 28.799,24.457 C 28.694,24.492 28.536,24.857 28.413,24.857 C 28.817,25.273 29.116,25.723 29.415,26.14 C 29.643,26.59 29.907,26.885 29.872,27.405 C 29.757,28.535 28.831,29.303 28.342,30.266 C 28.272,30.406 28.342,30.839 28.36,30.995 C 28.413,31.22 28.589,31.168 28.641,31.394 C 28.747,31.74 28.659,32.277 28.659,32.642 C 28.659,32.815 28.905,32.677 29.046,32.712 C 29.5,32.815 30.181,33.543 30.556,33.822 C 30.768,33.977 30.574,33.734 30.504,33.995 C 29.784,34.515 28.852,34.567 27.974,34.498 C 26.234,34.358 26.111,34.515 25.444,33.734 C 24.582,32.555 23.704,31.428 22.86,30.094 C 22.807,28.814 23.036,27.556 23.036,26.295 C 23.159,25.619 23.756,25.185 24.283,25.012 C 25.039,24.874 25.795,24.856 26.568,24.856 Z" fill="rgb(254, 254, 253)"/>
<path d="M 24.959,23.575 C 24.649,23.37 24.336,23.504 24.055,23.556 C 24.03,23.551 24.814,23.043 24.863,23.018 C 25.127,23.053 25.513,23.174 25.759,23.278 C 25.988,23.33 26.322,23.434 26.568,23.434 C 27.464,22.619 28.501,21.804 29.52,21.059 C 29.678,20.989 31.049,20.799 31.418,20.799 C 31.863,21.004 33.09,21.503 32.876,22.221 C 32.876,22.585 32.753,22.949 32.666,23.331 C 32.666,23.336 31.476,23.325 31.471,23.313 C 31.716,23.14 31.857,23.018 32.086,22.758 C 32.286,22.56 31.709,21.796 31.664,21.596 C 31.224,21.614 30.644,21.614 30.205,21.718 C 29.734,21.924 29.385,22.25 29.028,22.619 C 29.063,23.001 28.835,23.365 28.888,23.764 C 29.098,24.197 29.01,24.094 29.713,24.145 C 29.836,24.163 30.047,24.128 30.117,24.163 C 30.238,24.223 29.995,24.564 29.924,24.596 C 29.184,24.961 28.614,24.896 27.886,25.359 C 27.542,25.585 26.782,25.533 26.691,25.082 C 26.614,24.779 25.33,23.944 24.969,23.59 Z" fill="rgb(254, 254, 253)"/>
</svg>
