<?xml version="1.0" encoding="UTF-8"?>
<!-- generated by Finnhub -->
<svg viewBox="0 0 55.5 55.5" xmlns="http://www.w3.org/2000/svg">
<path d="M 0,0 H 55.5 V 55.5 H 0 Z" fill="rgb(7, 64, 102)"/>
<path d="M 29.99,25.985 H 32 V 24 H 26 V 26 H 28 V 34 H 30 M 7.819,31.994 C 5.314,31.871 4.363,30.181 4.363,27.853 C 4.363,25.378 5.701,23.7 7.732,23.798 C 9.709,23.798 11.012,24.6 11.149,27 H 9.05 C 8.941,25.897 8.304,25.82 7.735,25.82 C 6.775,25.82 6.545,26.917 6.545,27.93 C 6.545,28.942 6.865,30.008 7.797,30.008 C 8.393,30.008 9.05,29.887 9.064,29 H 11.164 C 11.164,30.968 9.54,32.078 7.819,31.994 Z M 12,32.004 V 24.004 H 17 V 26 H 14 V 27 H 16.5 V 29 H 14 V 30 H 17 V 32.004 H 12 Z M 23,32 L 20,27.481 V 32 H 18 V 24 H 20 L 23,28.616 V 24 H 25 V 32 H 23 Z M 33,32 V 24 H 38 V 26 H 35 V 27 H 37.5 V 29 H 35 V 30 H 38 V 32 H 33 Z M 47.004,32 V 24 H 52.004 V 26 H 49 V 27 H 51.5 V 29 H 49 V 30 H 52.004 V 32 H 47.004 Z M 44,32 L 41,27.526 V 32 H 39 V 24 H 41 L 44,28.453 V 24 H 46 V 32 H 44 Z" fill="rgb(254, 254, 253)"/>
</svg>
