<?xml version="1.0" encoding="UTF-8"?>
<!-- generated by Finnhub -->
<svg viewBox="0 0 55.5 55.5" xmlns="http://www.w3.org/2000/svg">
<path d="M 0,0 H 55.5 V 55.5 H 0 Z" fill="rgb(217, 40, 26)"/>
<path d="M 5.99,22.985 A 5,5 0 0,1 11,18 H 25 V 22 H 11 A 1,1 0 0,0 10,23 V 33 A 1,1 0 0,0 11,34 H 27 A 1,1 0 0,0 28,33 V 21.93 A 3.93,3.93 0 0,1 35.263,19.847 L 43.815,33.53 A 1,1 0 0,0 44.663,34 H 45 A 1,1 0 0,0 46,33 V 18 H 50 V 33 A 5,5 0 0,1 45,38 H 44.663 A 5,5 0 0,1 40.423,35.65 L 32,22.174 V 33 A 5,5 0 0,1 27,38 H 11 A 5,5 0 0,1 6,33 V 23 Z" fill="rgb(254, 254, 253)"/>
</svg>
