<?xml version="1.0" encoding="UTF-8"?>
<!-- generated by Finnhub -->
<svg viewBox="0 0 55.5 55.5" xmlns="http://www.w3.org/2000/svg">
<path d="M 0,0 H 55.5 V 55.5 H 0 Z" fill="rgb(239, 242, 248)"/>
<path d="M 33.638000000000005,34.905 C 33.94,34.842 34.179,34.744 34.399,34.551 C 34.467,34.223 34.132,33.28 33.915,32.596 C 34.587,32.67 35.006,32.946 35.515,32.851 C 35.738,32.555 35.825,32.218 35.986,31.881 L 37.48,33.501 C 37.572,33.606 37.798,33.681 37.886,33.394 L 37.209,29.995 C 37.754,30.211 37.944,30.627 38.605,30.658 C 39.021,29.995 39.322,29.218 39.731,28.411 C 40.007,29.157 40.336,29.863 40.726,30.693 C 41.389,30.685 41.666,30.276 42.217,30.079 L 41.31,33.452 C 41.389,33.742 41.617,33.674 41.713,33.572 L 43.25,32.002 C 43.4,32.344 43.487,32.747 43.699,33.05 C 44.204,33.16 44.697,32.84 45.297,32.788 C 45.057,33.464 44.69,34.395 44.747,34.725 C 44.961,34.924 45.207,35.032 45.485,35.119 C 44.554,35.751 43.217,36.954 42.495,37.539 C 42.474,37.719 42.505,37.861 42.553,38 H 48 S 42.744,18 29.136,18 H 17.641 C 28.699,20.417 33.529,38 33.529,38 H 36.438 C 36.534,37.835 36.616,37.676 36.596,37.44 C 35.894,36.831 34.558,35.584 33.648,34.92 Z" fill="rgb(35, 117, 183)"/>
<path d="M 7.99,27.985 C 8,33.327 12.11,37.556 17.348,38 H 26.857 C 15.993,35.31 14.943,24.13 22.232,20.022 C 20.812,19.067 19.326,18.379 17.641,18 C 12.26,18.302 8,22.574 8,28 Z" fill="rgb(0, 0, 3)"/>
</svg>
