<?xml version="1.0" encoding="UTF-8"?>
<!-- generated by Finnhub -->
<svg viewBox="0 0 55.5 55.5" xmlns="http://www.w3.org/2000/svg">
<path d="M 0,0 H 55.5 V 55.5 H 0 Z" fill="rgb(1, 58, 112)"/>
<path d="M 36.567,32.003 C 36.574,32.021 36.571,32.021 36.571,32.024 C 34.526,33.535 32.106,35.124 29.501,36.79 L 29.398,36.853 A 0.084,0.084 0 0,0 29.379,36.966 A 0.076,0.076 0 0,0 29.487,36.986 L 29.574,36.937 A 382.655,382.655 0 0,0 36.874,32.837 C 36.888,32.829 36.901,32.82 36.914,32.815 A 3.456,3.456 0 0,1 36.577,32.018 Z M 49.993,20.673 C 46.771,16.96 26.039,20.3 17.223,22.312 L 17.018,22.357 A 0.08,0.08 0 0,0 16.956,22.45 C 16.964,22.496 17.005,22.524 17.046,22.515 L 17.248,22.473 C 24.551,21.113 39.741,19.232 43.008,22.617 C 44.007,23.651 43.768,24.979 42.611,26.55 C 43.233,26.968 43.677,27.627 43.877,28.45 C 48.394,25.318 51.426,22.326 49.992,20.673 Z" fill="rgb(254, 68, 56)"/>
<path d="M 37.870000000000005,31.027 C 37.921,32.348 38.714,33.419 39.744,33.419 C 41.743,33.419 42.594,30.853 42.535,29.141 C 42.492,27.832 41.681,26.764 40.65,26.764 C 38.933,26.762 37.82,29.316 37.88,31.042 Z M 36.825,30.972 C 36.752,28.742 38.425,26.462 40.853,26.462 C 42.476,26.462 43.539,27.592 43.598,29.324 C 43.677,31.675 42.113,33.834 39.574,33.834 C 37.945,33.834 36.882,32.707 36.826,30.972 Z M 13.803,30.04 A 2.27,2.27 0 0,1 13.465,30.14 C 13.327,30.174 13.073,30.219 12.705,30.281 C 12.451,30.324 12.275,30.377 12.175,30.453 A 0.41,0.41 0 0,0 12.007,30.725 A 0.272,0.272 0 0,0 12.118,31.005 C 12.215,31.075 12.378,31.112 12.608,31.112 C 12.781,31.112 12.948,31.084 13.111,31.027 A 1.17,1.17 0 0,0 13.521,30.798 A 0.697,0.697 0 0,0 13.701,30.527 A 3.24,3.24 0 0,0 13.803,30.041 Z M 15.913,28.67 C 15.905,28.874 15.87,29.055 15.818,29.368 L 15.461,31.462 C 15.431,31.649 15.496,31.792 15.661,31.895 L 15.651,32 H 13.606 L 13.586,31.442 A 4.022,4.022 0 0,1 12.605,31.88 A 3.415,3.415 0 0,1 11.625,32.005 C 10.965,32.005 10.587,31.935 10.325,31.694 C 10.06,31.448 9.93,31.284 9.943,30.945 A 1.21,1.21 0 0,1 10.19,30.323 C 10.33,30.145 10.525,30.03 10.733,29.925 C 10.944,29.82 11.193,29.745 11.553,29.685 C 11.915,29.623 12.418,29.563 13.092,29.505 C 13.446,29.473 13.662,29.388 13.762,29.345 C 13.903,29.289 13.96,29.225 13.979,29.105 C 14.017,28.891 13.952,28.767 13.676,28.71 C 12.94,28.558 11.558,28.809 10.846,28.993 L 11.233,27.902 C 12.173,27.758 13.051,27.667 13.979,27.667 C 15.459,27.667 15.929,28.105 15.913,28.67 Z M 21.877,32 L 22.563,27.999 H 24.521 L 23.835,32 H 21.877 Z M 22.677,26.64 C 22.737,26.294 23.257,26.017 23.835,26.017 C 24.417,26.017 24.841,26.297 24.785,26.639 C 24.722,26.984 24.205,27.264 23.622,27.264 C 23.042,27.264 22.621,26.984 22.678,26.639 Z M 31.543,30.039 A 3.83,3.83 0 0,1 31.203,30.138 C 31.064,30.172 30.81,30.214 30.442,30.276 C 30.19,30.319 30.012,30.372 29.915,30.449 A 0.43,0.43 0 0,0 29.745,30.717 A 0.27,0.27 0 0,0 29.855,30.997 C 29.955,31.067 30.117,31.102 30.347,31.102 C 30.517,31.102 30.685,31.076 30.85,31.022 C 31.018,30.963 31.156,30.89 31.264,30.794 A 0.709,0.709 0 0,0 31.437,30.522 C 31.464,30.452 31.5,30.291 31.543,30.039 Z M 33.653,28.666 C 33.645,28.872 33.609,29.053 33.555,29.364 L 33.201,31.46 C 33.171,31.644 33.236,31.79 33.401,31.893 L 33.391,32 H 31.345 L 31.329,31.435 C 31.032,31.625 30.669,31.782 30.347,31.873 C 30.023,31.963 29.76,32 29.363,32 C 28.703,32 28.327,31.932 28.064,31.69 C 27.797,31.44 27.67,31.28 27.684,30.94 C 27.691,30.743 27.789,30.491 27.929,30.319 C 28.069,30.138 28.265,30.025 28.476,29.92 C 28.686,29.816 28.936,29.74 29.293,29.677 C 29.655,29.618 30.161,29.556 30.834,29.497 A 2.16,2.16 0 0,0 31.502,29.341 C 31.646,29.285 31.7,29.22 31.722,29.098 C 31.756,28.886 31.694,28.762 31.422,28.703 C 30.68,28.55 29.303,28.801 28.592,28.985 L 28.976,27.895 C 29.917,27.75 30.794,27.66 31.721,27.66 C 33.196,27.663 33.666,28.103 33.653,28.666 Z M 9.657,30.408 C 9.018,30.541 8.661,30.592 8.031,30.592 C 7.095,30.592 6.351,30.106 6.392,29.216 C 6.422,28.622 7.092,27.373 8.799,27.373 C 9.338,27.373 9.757,27.473 10.322,27.809 L 10.571,26.356 C 9.803,26.054 9.294,26.009 8.634,26.014 C 6.394,26.04 4.247,27.102 3.979,29.264 C 3.709,31.459 6.276,32.01 7.414,32.004 A 19.9,19.9 0 0,0 9.394,31.906 L 9.657,30.408 Z M 25.632,28 L 25.772,27.168 L 27.82,26.702 L 27.601,28 H 28.605 L 28.415,29 H 27.442 L 26.849,32 S 24.877,31.986 24.869,32 L 25.459,29 H 24.718 L 24.869,28 H 25.632 Z M 36.598,26 L 35.646,32 H 33.653 L 34.656,26 H 36.598 Z M 19.269,29.03 C 19.012,29.03 18.779,29.117 18.574,29.29 C 18.368,29.465 18.238,29.718 18.187,30.054 C 18.125,30.444 18.163,30.724 18.301,30.897 C 18.441,31.069 18.641,31.157 18.907,31.157 C 19.085,31.157 19.269,31.12 19.404,31.045 C 19.572,30.945 19.688,30.842 19.788,30.676 C 19.896,30.504 19.967,30.311 20.005,30.087 C 20.061,29.734 20.013,29.471 19.867,29.296 C 19.723,29.12 19.526,29.03 19.269,29.03 Z M 15.704,34 L 16.659,28 H 18.379 L 18.247,28.77 C 18.395,28.54 18.633,28.353 18.963,28.202 A 2.684,2.684 0 0,1 20.075,27.939 C 20.525,27.939 20.8,27.966 21.135,28.159 C 21.468,28.356 21.703,28.639 21.828,29.009 C 21.958,29.371 21.985,29.782 21.914,30.226 C 21.798,30.966 21.476,31.546 20.946,31.976 C 20.421,32.405 19.948,32.516 19.274,32.52 A 2.28,2.28 0 0,1 18.671,32.447 A 1.321,1.321 0 0,1 18.281,32.272 A 1.793,1.793 0 0,1 17.96,31.946 L 17.64,34 H 15.704 Z M 51.25,29.805 C 51.239,29.469 51.077,29.24 50.744,29.24 C 49.941,29.24 49.086,30.885 48.94,31.546 C 50.257,31.549 51.282,30.729 51.25,29.806 Z M 51.423,32.382 L 51.577,32.492 C 51.185,33.326 50.387,33.996 49.451,33.996 C 48.685,33.996 48.055,33.462 48.023,32.461 C 47.96,30.667 49.57,29.003 50.887,29.003 C 51.452,29.003 51.977,29.26 51.999,29.896 C 52.047,31.323 50.129,31.758 48.867,31.789 C 48.827,31.939 48.81,32.089 48.818,32.315 C 48.84,32.905 49.18,33.402 49.889,33.402 C 50.5,33.402 51.112,32.888 51.423,32.382 Z" fill="rgb(254, 254, 253)"/>
<path d="M 43.558,29.745 C 43.703,29.74 43.922,29.715 44.017,29.715 C 44.16,29.715 44.296,29.743 44.304,29.893 C 44.306,29.98 44.155,30.616 44.123,30.763 L 43.817,32.17 C 43.693,32.747 43.56,33.522 43.441,34 H 44.225 L 44.666,31.597 C 46.011,30.133 46.53,29.655 46.846,29.655 C 46.99,29.655 47.087,29.735 47.096,29.913 C 47.103,30.17 46.949,30.755 46.898,30.924 L 46.448,32.549 C 46.346,32.913 46.27,33.244 46.278,33.479 C 46.292,33.835 46.498,33.993 46.806,33.993 C 47.379,33.993 47.796,33.368 48.158,32.755 L 48.053,32.555 C 47.907,32.8 47.566,33.34 47.298,33.34 C 47.214,33.34 47.133,33.28 47.13,33.134 C 47.122,32.944 47.198,32.659 47.252,32.47 L 47.752,30.565 C 47.888,30.04 47.95,29.704 47.947,29.523 C 47.934,29.167 47.737,29 47.43,29 C 46.914,29 46.23,29.396 44.777,31.139 H 44.755 L 44.939,30.289 C 45.039,29.822 45.137,29.336 45.229,29 C 44.726,29.19 44.006,29.401 43.563,29.492 L 43.568,29.76 Z" fill="rgb(254, 254, 253)"/>
</svg>
