<?xml version="1.0" encoding="UTF-8"?>
<!-- generated by Finnhub -->
<svg viewBox="0 0 55.5 55.5" xmlns="http://www.w3.org/2000/svg">
<path d="M 0,0 H 55.5 V 55.5 H 0 Z" fill="rgb(239, 242, 248)"/>
<path d="M 37.57,29.985 L 33.33,38 H 22.73 L 17,28 L 22.73,17.98 L 33.33,18 L 37.58,25.98 L 45,26 L 37.6,12.99 C 37.24,12.38 36.6,12 35.9,12 H 20 C 19.3,12 18.65,12.38 18.3,12.99 L 10.26,26.99 A 2.01,2.01 0 0,0 10.26,29.01 L 18.3,43.01 C 18.65,43.62 19.3,44 20,44 H 35.9 C 36.6,44 37.24,43.62 37.6,43.01 L 45,30 H 37.58 Z" fill="rgb(1, 56, 110)"/>
<path d="M 34.99,27.985 L 31.5,22 H 24.5 L 28,28 H 35 Z" fill="rgb(51, 151, 217)"/>
<path d="M 27.99,27.985 L 24.5,34 H 31.5 L 35,28 H 28 Z" fill="rgb(1, 56, 110)"/>
<path d="M 24.49,21.985 L 21,28 L 24.5,34 L 28,28 L 24.5,22 Z" fill="rgb(1, 116, 166)"/>
</svg>
