<?xml version="1.0" encoding="UTF-8"?>
<!-- generated by Finnhub -->
<svg viewBox="0 0 55.5 55.5" xmlns="http://www.w3.org/2000/svg">
<path d="M 0,0 H 55.5 V 55.5 H 0 Z" fill="url(#a)"/>
<path d="M 22.145,26.97 A 4.33,4.33 0 0,1 20.626,28.93 L 20.608,28.943 C 19.632,29.64 18.365,30 17.039,30 C 15.501,30 14.226,29.515 13.539,28.584 A 2.824,2.824 0 0,1 13.009,27.173 A 3.878,3.878 0 0,1 13.027,26.265 L 12.287,29.62 C 11.625,29.886 10.18,30 9.495,30 C 6.49,30 4.595,27.744 5.071,25.019 C 5.557,22.23 8.403,20 11.492,20 C 12.359,20 13.229,20.14 13.995,20.393 L 13.434,24.03 A 4.185,4.185 0 0,0 13.006,23.658 A 3.267,3.267 0 0,0 12.526,23.356 A 2.56,2.56 0 0,0 11.352,23.066 C 10.206,23.066 9.126,23.891 8.944,24.93 C 8.761,25.982 9.611,26.793 10.757,26.793 A 3.318,3.318 0 0,0 11.997,26.553 A 4.16,4.16 0 0,0 12.661,26.216 L 12.699,26.192 L 12.734,26.17 C 12.853,26.093 12.97,26.01 13.086,25.922 A 4.499,4.499 0 0,1 13.922,24.105 C 14.105,23.865 14.312,23.643 14.537,23.439 C 15.55,22.526 16.955,22 18.419,22 C 19.969,22 21.252,22.589 21.932,23.603 C 22.186,23.981 22.356,24.419 22.425,24.907 A 3.771,3.771 0 0,1 22.399,26.1 A 4.511,4.511 0 0,1 22.155,26.985 Z M 22.554,25.688 C 22.599,25.864 22.674,26.022 22.774,26.163 C 22.904,26.347 23.077,26.501 23.279,26.628 L 23.308,26.645 A 2.4,2.4 0 0,0 23.432,26.715 L 23.438,26.718 C 23.715,26.863 24.038,26.963 24.386,27.023 L 24.984,27.127 L 25.068,27.142 C 25.33,27.189 25.648,27.246 25.594,27.567 C 25.544,27.859 25.199,27.989 24.91,28.027 A 1.475,1.475 0 0,1 24.837,28.035 H 24.826 L 24.806,28.037 A 2.327,2.327 0 0,1 24.221,27.983 H 24.218 A 2.66,2.66 0 0,1 23.624,27.769 A 3.445,3.445 0 0,1 22.935,27.316 L 22.798,27.201 L 21.479,29.434 L 21.558,29.474 C 21.834,29.607 22.128,29.71 22.432,29.787 C 23.077,29.95 23.774,30 24.475,30 C 26.045,30 27.835,29.428 28.511,28.07 A 2.615,2.615 0 0,0 28.781,27.054 C 28.808,26.614 28.709,26.258 28.511,25.972 A 1.665,1.665 0 0,0 28.151,25.6 A 2.403,2.403 0 0,0 27.549,25.268 A 4.212,4.212 0 0,0 26.89,25.072 L 26.22,24.925 L 26.141,24.908 C 25.917,24.86 25.625,24.798 25.67,24.538 C 25.718,24.248 26.047,24.141 26.308,24.121 L 26.398,24.117 H 26.408 L 26.507,24.12 C 26.707,24.128 26.897,24.16 27.077,24.212 H 27.079 C 27.202,24.247 27.321,24.29 27.435,24.341 C 27.544,24.388 27.649,24.441 27.75,24.501 C 27.865,24.567 27.976,24.639 28.082,24.715 L 29.254,22.692 A 4.37,4.37 0 0,0 28.349,22.259 L 28.339,22.255 A 5.076,5.076 0 0,0 26.692,22 C 25.332,22 23.88,22.574 23.089,23.634 A 2.97,2.97 0 0,0 22.532,24.925 A 1.81,1.81 0 0,0 22.552,25.688 Z M 22.534,22.737 C 22.82,22.418 23.149,22.145 23.501,21.918 C 24.445,21.31 25.597,21 26.693,21 C 27.357,21 27.992,21.09 28.593,21.286 L 28.667,21 H 37.19 L 37,21.727 A 6.244,6.244 0 0,1 39.898,21 C 40.698,21 41.506,21.132 42.228,21.379 L 43.009,21.645 L 42.936,22.175 A 6.98,6.98 0 0,1 46.823,21 C 48.287,21 49.683,21.431 50.673,22.327 C 51.697,23.254 52.193,24.6 51.927,26.167 C 51.389,29.349 48.327,31 45.448,31 C 44.005,31 42.627,30.62 41.655,29.744 L 41.65,29.739 L 41.51,30.407 L 41.023,30.609 C 40.62,30.776 40.079,30.866 39.646,30.919 C 39.214,30.971 38.775,30.997 38.459,31 H 39.093 L 39.083,31.06 C 39.283,31.02 39.479,31 39.667,31 C 40.176,31 40.666,31.11 41.117,31.354 L 41.287,31 H 51.178 L 50.686,34 H 50.7 L 50.207,37 H 38.413 L 38.419,36.987 A 4.07,4.07 0 0,1 38.215,36.964 L 38.21,37 H 30.772 L 30.79,36.88 C 30.479,36.96 30.158,37 29.84,37 C 29.432,37 29.027,36.931 28.652,36.784 L 28.62,37 H 4 V 31 H 27.732 L 27.982,30.062 C 27.873,30.132 27.762,30.197 27.651,30.257 C 26.672,30.783 25.513,31 24.475,31 C 23.363,31 22.113,30.884 21.022,30.323 L 20.618,30.116 C 19.548,30.707 18.288,31 17.039,31 C 15.626,31 14.279,30.637 13.312,29.8 L 13.278,29.77 L 13.149,30.351 L 12.659,30.548 C 12.195,30.735 11.552,30.84 11.015,30.903 C 10.451,30.969 9.88,31 9.495,31 C 7.735,31 6.225,30.334 5.225,29.189 C 4.223,28.042 3.799,26.487 4.085,24.847 C 4.667,21.521 7.98,19 11.493,19 A 9.09,9.09 0 0,1 14.31,19.444 L 15.114,19.709 L 14.755,22.031 A 7.004,7.004 0 0,1 18.42,21 C 19.903,21 21.277,21.467 22.231,22.405 C 22.339,22.511 22.441,22.621 22.535,22.737 Z M 34.822,29.613 C 35.686,30.515 36.944,30.987 38.341,31 H 32.873 L 33.788,27.556 A 3.913,3.913 0 0,0 34.822,29.613 Z M 30.457,31 H 31.67 L 31.635,31.235 A 2.998,2.998 0 0,0 30.457,31 Z M 30.457,31 C 30.131,31 29.808,31.046 29.498,31.134 L 29.518,31 H 30.457 Z M 29.033,30 L 29.698,27.498 L 30.469,24.6 H 28.757 L 29.439,22 H 35.894 L 35.213,24.6 H 33.539 L 32.104,30 H 29.033 Z M 34.912,25.6 C 34.857,25.78 34.812,25.965 34.781,26.152 C 34.399,28.407 35.99,30 38.4,30 C 38.949,30 40.108,29.906 40.638,29.686 L 41.223,26.886 C 40.968,27.088 40.705,27.256 40.429,27.381 A 2.564,2.564 0 0,1 39.339,27.621 C 38.421,27.621 37.739,26.949 37.886,26.079 C 38.032,25.219 38.898,24.539 39.816,24.539 C 40.088,24.539 40.338,24.594 40.567,24.689 C 40.643,24.719 40.717,24.755 40.789,24.794 C 41.053,24.937 41.285,25.129 41.487,25.335 L 41.905,22.325 A 6.305,6.305 0 0,0 39.9,22 C 38.691,22 37.537,22.44 36.625,23.157 A 5.225,5.225 0 0,0 35.213,24.86 A 4.594,4.594 0 0,0 34.913,25.6 Z M 42.058,24.495 A 4.507,4.507 0 0,0 41.397,26.672 A 3.795,3.795 0 0,0 41.407,27.118 C 41.431,27.388 41.486,27.642 41.569,27.876 C 41.653,28.112 41.765,28.329 41.903,28.526 C 42.581,29.494 43.879,30 45.448,30 C 48.026,30 50.512,28.537 50.941,26 C 51.361,23.515 49.389,22 46.823,22 C 45.256,22 43.758,22.602 42.733,23.637 C 42.477,23.897 42.249,24.184 42.058,24.495 Z M 40.496,25.79 A 5.951,5.951 0 0,0 40.428,26.234 C 40.044,26.502 39.698,26.62 39.341,26.62 C 39.123,26.62 38.992,26.542 38.933,26.481 C 38.886,26.432 38.853,26.366 38.873,26.247 C 38.929,25.919 39.333,25.538 39.818,25.538 C 40.044,25.538 40.268,25.621 40.496,25.79 Z M 12.5,24.531 A 5.496,5.496 0 0,0 12.206,25.321 C 11.72,25.637 11.255,25.793 10.757,25.793 C 10.416,25.793 10.183,25.673 10.061,25.55 A 0.476,0.476 0 0,1 9.929,25.102 C 10.015,24.612 10.616,24.066 11.352,24.066 C 11.762,24.066 12.142,24.236 12.5,24.531 Z M 46.716,25.974 C 46.749,25.782 46.697,25.701 46.683,25.684 A 0.156,0.156 0 0,0 46.62,25.639 A 0.595,0.595 0 0,0 46.383,25.6 C 45.926,25.6 45.593,25.921 45.528,26.308 A 0.557,0.557 0 0,0 45.526,26.527 A 0.12,0.12 0 0,0 45.551,26.582 C 45.553,26.585 45.62,26.662 45.865,26.662 C 46.328,26.662 46.649,26.374 46.716,25.974 Z M 44.542,26.141 A 1.852,1.852 0 0,1 46.383,24.601 C 47.358,24.601 47.845,25.302 47.703,26.141 C 47.55,27.043 46.795,27.661 45.865,27.661 S 44.389,27.043 44.542,26.141 Z M 19.298,26.141 C 19.441,25.303 18.954,24.601 17.979,24.601 A 1.85,1.85 0 0,0 16.139,26.141 C 15.986,27.043 16.532,27.662 17.461,27.662 C 18.391,27.662 19.146,27.044 19.299,26.142 Z M 17.124,26.308 A 0.85,0.85 0 0,1 17.979,25.601 C 18.102,25.601 18.177,25.623 18.216,25.64 A 0.155,0.155 0 0,1 18.279,25.684 C 18.293,25.702 18.345,25.784 18.313,25.974 C 18.245,26.376 17.923,26.662 17.461,26.662 C 17.217,26.662 17.151,26.586 17.147,26.582 A 0.124,0.124 0 0,1 17.123,26.527 A 0.556,0.556 0 0,1 17.124,26.308 Z M 19.727,36 H 20.897 L 21.514,34.43 C 21.568,34.288 21.604,34.144 21.637,33.996 L 21.639,33.986 L 21.641,33.98 L 21.661,33.892 L 21.675,33.825 H 21.72 L 21.724,33.903 V 33.906 L 21.73,34.023 L 21.826,36 H 23.026 L 24.816,32.3 L 24.262,36 H 25.588 L 25.796,34.61 H 26.64 L 26.432,36 H 27.758 L 28.033,34.166 C 27.966,34.91 28.278,35.458 28.806,35.753 A 2.11,2.11 0 0,0 29.838,36 C 30.233,36 30.616,35.922 30.955,35.77 C 31.057,35.725 31.155,35.673 31.248,35.614 A 1.864,1.864 0 0,1 30.555,35.746 C 29.607,35.746 28.838,35.049 28.838,34.189 S 29.607,32.632 30.555,32.632 C 31.504,32.632 32.273,33.329 32.273,34.189 C 32.273,34.432 32.211,34.662 32.102,34.867 L 31.932,36 H 34.463 L 34.656,34.776 H 33.5 L 33.907,32 H 32.531 L 32.254,33.845 C 32.286,33.151 31.981,32.592 31.478,32.278 A 1.915,1.915 0 0,0 30.457,32 A 2.51,2.51 0 0,0 29.328,32.268 A 2.34,2.34 0 0,0 28.075,33.881 L 28.357,32 H 27.031 L 26.829,33.347 H 25.986 L 26.188,32 H 23.53 L 22.896,33.682 A 5.08,5.08 0 0,0 22.739,34.205 L 22.695,34.385 V 34.387 H 22.665 L 22.643,34.066 L 22.506,32 H 21.451 L 20.802,33.65 A 2.868,2.868 0 0,0 20.783,33.699 L 20.77,33.734 A 4.785,4.785 0 0,0 20.654,34.092 L 20.652,34.102 C 20.625,34.197 20.6,34.292 20.577,34.386 V 34.387 H 20.546 L 20.427,32 H 19 L 19.727,36 Z M 19.342,35 H 5 V 36 H 19.54 L 19.539,35.993 H 19.527 L 19.342,35 Z M 19.079,33.5 H 5 V 34.5 H 19.264 L 19.079,33.5 Z M 18.932,32.718 L 18.995,33 H 5 V 32 H 18.804 L 18.932,32.718 Z M 34.782,36 H 37.359 L 37.41,35.688 C 37.447,35.707 37.484,35.724 37.523,35.742 A 3.08,3.08 0 0,0 38.732,36 A 2.222,2.222 0 0,0 39.618,35.817 C 39.754,35.757 39.883,35.682 40.001,35.593 A 1.521,1.521 0 0,0 40.548,34.803 C 40.565,34.743 40.578,34.681 40.588,34.617 C 40.666,34.115 40.468,33.811 40.12,33.636 A 1.186,1.186 0 0,0 40.042,33.599 A 1.781,1.781 0 0,0 39.756,33.506 L 39.455,33.434 L 39.445,33.432 L 39.42,33.426 C 39.32,33.403 39.188,33.373 39.208,33.244 C 39.231,33.097 39.388,33.047 39.508,33.04 H 39.51 L 39.536,33.039 H 39.555 A 1.011,1.011 0 0,1 39.855,33.09 C 39.98,33.131 40.095,33.193 40.201,33.267 L 40.206,33.271 C 40.235,33.291 40.262,33.311 40.289,33.332 L 40.815,32.34 A 1.964,1.964 0 0,0 40.425,32.133 A 2,2 0 0,0 39.859,32.008 A 2.112,2.112 0 0,0 38.907,32.145 L 38.876,32.156 C 38.686,32.234 38.506,32.34 38.35,32.473 A 1.611,1.611 0 0,0 37.876,33.145 A 1.561,1.561 0 0,0 37.794,33.502 A 0.835,0.835 0 0,0 37.886,34 A 0.811,0.811 0 0,0 38.235,34.328 L 38.239,34.331 L 38.26,34.341 A 1.294,1.294 0 0,0 38.624,34.461 L 38.633,34.463 L 38.901,34.514 L 38.939,34.522 C 39.056,34.545 39.199,34.573 39.174,34.73 C 39.151,34.879 38.986,34.942 38.854,34.958 A 0.541,0.541 0 0,1 38.816,34.961 H 38.786 A 0.955,0.955 0 0,1 38.547,34.931 H 38.544 A 1.07,1.07 0 0,1 38.397,34.881 A 1.31,1.31 0 0,1 38.179,34.761 C 38.109,34.715 38.044,34.662 37.983,34.607 L 37.921,34.55 L 37.455,35.414 L 37.523,35 H 36.327 L 36.385,34.51 H 37.441 L 37.596,33.473 H 36.54 L 36.597,33 H 37.754 L 37.917,32 H 35.38 L 34.782,36 Z M 40.658,34.628 L 40,36 H 41.456 L 41.642,35.501 H 42.681 L 42.731,36 H 46.6 L 46.792,34.716 H 45.637 L 46.043,32 H 44.667 L 44.121,35.64 L 43.438,32 H 41.916 L 40.658,34.628 Z M 42.587,33.349 V 33.331 H 42.537 L 42.534,33.339 L 42.103,34.552 H 42.655 L 42.6,33.846 A 3.991,3.991 0 0,1 42.587,33.552 V 33.538 V 33.349 Z M 46.854,36 H 49.358 L 49.523,35 H 48.404 L 48.463,34.515 H 49.523 L 49.678,33.475 H 48.618 L 48.676,33 H 49.836 L 50.001,32 H 47.454 L 46.854,36 Z" fill="rgb(254, 254, 253)" fill-rule="evenodd"/>
<path d="M 24.465999999999998,29.985 C 23.411,30 22.356,29.884 21.479,29.434 L 22.8,27.2 L 22.936,27.315 C 23.418,27.713 24.024,28.038 24.73,28.038 C 25.033,28.038 25.534,27.923 25.595,27.566 C 25.649,27.246 25.331,27.188 25.069,27.141 A 5.217,5.217 0 0,1 24.985,27.126 L 24.387,27.022 C 23.222,26.822 22.325,26.162 22.534,24.924 C 22.851,23.047 24.856,21.999 26.694,21.999 C 27.658,21.999 28.505,22.219 29.255,22.691 L 28.084,24.714 C 27.614,24.379 27.064,24.116 26.403,24.116 C 26.133,24.116 25.726,24.211 25.671,24.536 C 25.626,24.798 25.918,24.859 26.142,24.907 L 26.222,24.924 L 26.892,25.071 C 28.146,25.344 28.977,25.994 28.75,27.336 C 28.43,29.223 26.303,29.999 24.477,29.999 Z M 39.899,22 C 40.594,22 41.292,22.115 41.906,22.325 L 41.488,25.335 C 41.067,24.905 40.513,24.538 39.818,24.538 C 38.899,24.538 38.033,25.219 37.888,26.079 C 37.74,26.949 38.422,27.62 39.341,27.62 C 40.047,27.62 40.654,27.337 41.224,26.887 L 40.64,29.686 C 40.109,29.906 38.95,30 38.4,30 C 35.991,30 34.4,28.407 34.781,26.152 C 35.171,23.845 37.423,22 39.899,22 Z M 41.456,26.1 C 41.876,23.614 44.257,22 46.823,22 S 51.361,23.515 50.941,26 C 50.512,28.537 48.026,30 45.449,30 C 42.871,30 41.027,28.637 41.456,26.1 Z M 47.702,26.141 C 47.845,25.302 47.358,24.601 46.383,24.601 S 44.684,25.303 44.543,26.141 C 44.389,27.043 44.935,27.661 45.865,27.661 S 47.55,27.043 47.702,26.141 Z M 11.492,20 C 12.359,20 13.229,20.14 13.995,20.393 L 13.435,24.03 C 12.91,23.51 12.219,23.066 11.352,23.066 C 10.206,23.066 9.126,23.891 8.944,24.93 C 8.761,25.982 9.611,26.793 10.757,26.793 C 11.63,26.793 12.382,26.458 13.087,25.922 C 13.587,23.538 15.915,22 18.42,22 C 20.986,22 22.82,23.615 22.399,26.1 C 21.969,28.637 19.617,30 17.039,30 C 14.519,30 12.704,28.696 13.028,26.265 L 12.287,29.62 C 11.625,29.886 10.18,30 9.495,30 C 6.49,30 4.595,27.744 5.071,25.019 C 5.558,22.23 8.403,20 11.492,20 Z M 30.469,24.6 H 28.758 L 29.438,22 H 35.894 L 35.213,24.6 H 33.54 L 32.104,30 H 29.033 L 30.469,24.6 Z M 17.461,27.662 C 16.531,27.662 15.986,27.043 16.138,26.142 A 1.85,1.85 0 0,1 17.98,24.6 C 18.955,24.6 19.442,25.302 19.3,26.14 C 19.147,27.043 18.392,27.661 17.462,27.661 Z" fill="rgb(226, 23, 53)" fill-rule="evenodd"/>
<path d="M 19.528,35.985 H 5 V 35 H 19.341 L 19.525,35.993 H 19.537 L 19.538,36 Z M 19.264,34.5 H 5 V 33.5 H 19.078 L 19.264,34.5 Z M 18.994,33 H 5 V 32 H 18.803 L 18.932,32.718 L 18.995,33 Z M 37.916,32 H 35.38 L 34.782,36 H 37.36 L 37.41,35.688 C 37.794,35.883 38.287,36 38.732,36 C 39.551,36 40.445,35.542 40.589,34.617 C 40.69,33.959 40.317,33.641 39.756,33.507 L 39.456,33.435 A 2.377,2.377 0 0,0 39.421,33.426 C 39.32,33.403 39.189,33.373 39.209,33.244 C 39.233,33.084 39.416,33.039 39.537,33.039 C 39.833,33.039 40.079,33.168 40.29,33.332 L 40.815,32.34 A 1.965,1.965 0 0,0 39.667,32 C 38.844,32 37.946,32.515 37.803,33.435 C 37.71,34.041 38.111,34.365 38.633,34.463 L 38.902,34.514 L 38.939,34.522 C 39.056,34.545 39.199,34.573 39.174,34.73 C 39.147,34.905 38.923,34.962 38.787,34.962 C 38.47,34.962 38.199,34.802 37.983,34.607 L 37.922,34.55 L 37.456,35.414 L 37.523,35 H 36.327 L 36.386,34.51 H 37.441 L 37.597,33.473 H 36.54 L 36.597,33 H 37.753 L 37.916,32 Z M 20.546,34.387 L 20.426,32 H 19 L 19.726,36 H 20.896 L 21.514,34.43 C 21.58,34.255 21.619,34.076 21.66,33.892 L 21.675,33.825 H 21.72 L 21.826,36 H 23.026 L 24.816,32.3 L 24.262,36 H 25.588 L 25.796,34.61 H 26.64 L 26.43,36 H 27.756 L 28.031,34.166 C 27.928,35.316 28.731,36 29.837,36 C 30.918,36 31.903,35.418 32.182,34.322 L 31.931,36 H 34.463 L 34.655,34.776 H 33.5 L 33.907,32 H 32.531 L 32.255,33.845 C 32.304,32.758 31.527,32 30.456,32 C 29.348,32 28.316,32.736 28.075,33.88 L 28.357,32 H 27.03 L 26.828,33.347 H 25.984 L 26.187,32 H 23.531 L 22.896,33.682 A 6.015,6.015 0 0,0 22.696,34.387 H 22.666 L 22.505,32 H 21.45 L 20.8,33.65 A 5.752,5.752 0 0,0 20.575,34.387 H 20.545 Z M 29.434,34.031 C 29.365,34.473 29.61,34.776 30.027,34.776 S 30.782,34.473 30.851,34.031 C 30.914,33.619 30.696,33.275 30.259,33.275 C 29.822,33.275 29.498,33.62 29.434,34.031 Z M 42.599,33.846 L 42.654,34.552 H 42.102 L 42.536,33.332 H 42.586 V 33.339 C 42.586,33.507 42.585,33.679 42.599,33.846 Z M 40,36 H 41.456 L 41.642,35.501 H 42.682 L 42.732,36 H 46.598 L 46.791,34.716 H 45.636 L 46.042,32 H 44.666 L 44.12,35.64 L 43.436,32 H 41.915 L 40,36 Z M 47.453,32 H 50 L 49.836,33 H 48.676 L 48.618,33.475 H 49.678 L 49.522,34.515 H 48.462 L 48.404,35 H 49.522 L 49.358,36 H 46.854 L 47.454,32 Z" fill="rgb(1, 92, 168)" fill-rule="evenodd"/>
<defs>
<linearGradient id="a" x1="10.418" x2="68.147" y1="9.712" y2="76.017" gradientUnits="userSpaceOnUse">
<stop stop-color="rgb(25, 29, 31)" offset="0"/>
<stop stop-color="rgb(5, 5, 8)" offset="1"/>
</linearGradient>
</defs>
</svg>
