<?xml version="1.0" encoding="UTF-8"?>
<!-- generated by Finnhub -->
<svg viewBox="0 0 55.5 55.5" xmlns="http://www.w3.org/2000/svg">
<path d="M 0,0 H 55.5 V 55.5 H 0 Z" fill="rgb(1, 85, 208)"/>
<path d="M 11.35,27.965 A 3.21,3.21 0 0,1 14.64,24.84 C 16.48,24.84 17.94,26.24 17.94,27.98 A 3.23,3.23 0 0,1 14.64,31.15 A 3.23,3.23 0 0,1 11.36,27.98 Z M 16.36,27.98 A 1.7,1.7 0 0,0 14.64,26.35 C 13.71,26.35 12.94,27.11 12.94,27.98 C 12.94,28.87 13.71,29.64 14.64,29.64 A 1.7,1.7 0 0,0 16.36,27.98 Z M 44.46,28.04 C 44.46,26.13 46.04,24.84 47.47,24.84 C 48.45,24.84 49.01,25.13 49.38,25.69 L 49.53,25 H 51 V 31 H 49.53 L 49.35,30.4 C 48.92,30.87 48.38,31.15 47.47,31.15 C 46.07,31.15 44.47,29.93 44.47,28.04 Z M 49.46,28.02 A 1.7,1.7 0 0,0 47.76,26.35 C 46.81,26.35 46,27.11 46,28.03 C 46,28.88 46.8,29.63 47.75,29.63 C 48.69,29.63 49.46,28.88 49.46,28.03 Z M 42.66,25.65 V 25 H 41 V 31 H 42.66 V 27.75 C 42.66,26.77 43.16,26.25 44.01,26.25 L 44.18,26.27 L 44.48,24.8 C 43.64,24.8 43.04,25.08 42.66,25.65 Z M 26.56,25.65 V 25 H 25 V 31 H 26.58 L 26.57,27.75 C 26.57,26.77 27.06,26.25 27.92,26.25 L 28.08,26.26 L 28.38,24.79 C 27.54,24.8 26.94,25.09 26.56,25.66 Z M 18.49,28.68 V 25 H 20 V 28.48 C 20,29.26 20.54,29.73 21.3,29.73 C 22.17,29.73 22.66,29.21 22.66,28.23 V 25 H 24.26 V 31 H 22.66 V 30.33 C 22.28,30.9 21.67,31.18 20.83,31.18 C 19.39,31.18 18.49,30.16 18.49,28.68 Z M 34.09,27.99 C 34.09,26.29 35.34,24.83 37.3,24.84 A 3.07,3.07 0 0,1 40.37,28.47 L 35.65,28.46 C 35.84,29.19 36.45,29.71 37.37,29.71 C 37.93,29.71 38.53,29.51 38.9,29.05 L 39.99,29.91 A 3.2,3.2 0 0,1 37.39,31.15 C 35.52,31.15 34.09,29.77 34.09,27.99 Z M 38.79,27.36 C 38.71,26.75 38.06,26.27 37.29,26.27 C 36.55,26.27 35.95,26.7 35.71,27.35 L 38.8,27.36 Z M 28.39,29.71 L 29.81,28.97 C 30.05,29.47 30.51,29.77 31.18,29.77 C 31.8,29.77 32.03,29.57 32.03,29.31 C 32.03,28.33 28.66,28.92 28.66,26.69 C 28.66,25.45 29.76,24.79 31.12,24.79 C 32.15,24.79 33.07,25.25 33.56,26.09 L 32.16,26.82 C 31.94,26.4 31.56,26.17 31.06,26.17 C 30.57,26.17 30.34,26.34 30.34,26.62 C 30.34,27.57 33.71,26.97 33.71,29.24 C 33.71,30.43 32.73,31.14 31.15,31.14 C 29.8,31.14 28.85,30.71 28.39,29.71 Z M 5,27.98 A 3.21,3.21 0 0,1 8.28,24.82 C 9.4,24.82 10.44,25.36 11.06,26.27 L 9.69,27.05 A 1.7,1.7 0 0,0 8.29,26.33 C 7.34,26.33 6.58,27.1 6.58,27.98 A 1.72,1.72 0 1,0 9.73,28.85 L 11.08,29.65 A 3.32,3.32 0 0,1 8.28,31.15 A 3.23,3.23 0 0,1 5,27.98 Z" fill="rgb(254, 254, 253)"/>
</svg>
