<?xml version="1.0" encoding="UTF-8"?>
<!-- generated by Finnhub -->
<svg viewBox="0 0 55.5 55.5" xmlns="http://www.w3.org/2000/svg">
<path d="M 0,0 H 55.5 V 55.5 H 0 Z" fill="rgb(204, 24, 44)"/>
<path d="M 8.986,24.325 C 10.034,24.212 11.245,23.9 12.6,23.097 C 13.665,22.472 15.06,21.179 14.084,20.792 C 13.446,20.537 11.968,21.337 10.541,22.63 C 10.308,22.836 9.27,24.038 9.141,24.173 L 8.996,24.34 Z M 8.83,22.223 C 10.765,20.969 12.93,20.008 14.466,20.3 C 15.33,20.465 15.608,21.375 14.756,22.375 C 14.143,23.098 12.511,23.91 11.549,24.213 C 11.143,24.339 9.859,24.732 8.568,24.879 C 7.403,26.369 6.872,27.002 6.196,28.745 C 5.694,30.043 5.87,31.338 6.921,31.555 C 7.831,31.75 8.978,30.325 9.226,29.863 C 10.879,26.783 9.214,26.938 8.464,28.127 C 8.014,28.84 8.197,29.472 7.994,29.499 C 7.864,29.516 7.818,28.977 7.902,28.515 C 8.119,27.352 9.14,26.189 10.216,26.395 C 10.852,26.519 11.022,27.228 10.86,28.101 C 10.614,29.419 9.4,30.973 8.6,31.532 C 8.17,31.83 7.153,32.472 5.953,32.242 C 5.217,32.102 4.238,31.482 4.042,30.057 C 3.89,28.948 4.172,27.922 4.546,27.151 C 4.952,26.319 5.443,25.496 6.074,24.707 C 5.734,24.591 5.404,24.427 5.172,24.201 C 4.126,23.189 4.925,22.241 5.262,22.03 C 5.934,21.607 7.245,21.763 7.231,22.03 C 7.225,22.151 5.864,22.073 5.694,23.069 C 5.579,23.749 5.977,24.097 6.442,24.272 A 11.61,11.61 0 0,1 8.83,22.222 Z" fill="rgb(254, 254, 253)"/>
<path d="M 50.022,23.474999999999998 C 49.523,22.604 50.204,21.924 50.854,22.12 C 51.442,22.298 51.534,22.904 51.25,23.267 C 50.908,23.703 49.733,24.143 49.733,24.143 C 49.64,24.143 50.14,23.677 50.033,23.49 Z" fill="rgb(254, 254, 253)"/>
<path d="M 37.517,27.555 C 37.331,26.827 38.24,26.003 39.142,25.713 C 40.092,25.403 41.447,25.282 41.647,25.913 C 41.879,26.653 40.801,27.139 40.15,27.345 C 39.988,27.393 39.834,27.448 39.736,27.465 C 39.546,27.505 39.356,27.544 39.161,27.581 C 39.514,28.02 40.313,27.981 40.452,28.031 C 40.433,28.096 40.13,28.612 40.13,28.612 C 39.911,28.595 39.051,28.686 38.536,29.002 C 37.89,29.395 37.309,30.154 37.691,30.585 C 38.129,31.075 38.975,30.505 39.554,30.067 C 40.226,29.561 40.627,29.167 41.254,28.209 C 42.742,25.593 44.956,22.031 45.022,22 H 46.603 S 42.279,29.306 42.19,29.487 C 41.962,29.941 41.525,30.621 41.97,30.725 C 42.178,30.772 42.71,30.834 43.908,28.955 C 45.314,26.569 47.992,22.037 48.068,22 H 49.65 S 45.325,29.306 45.235,29.487 C 45.008,29.941 44.614,30.609 45,30.725 C 45.758,30.953 48.464,27.27 49.272,25.973 L 50.712,25.803 C 50.292,27.836 50.579,27.723 50.511,28.915 C 50.464,29.745 50.221,30.434 49.797,31 C 50.807,31.037 51.807,30.98 51.925,31.013 C 52.261,31.111 51.382,31.923 50.907,32.054 C 50.251,32.236 49.407,31.981 49.085,31.728 A 1.974,1.974 0 0,1 48.854,31.844 C 48.129,32.147 47.398,32.207 46.782,32.009 C 46.359,31.873 45.89,31.629 45.789,31.274 C 45.132,31.867 44.519,32.217 43.989,32.112 C 43.365,31.991 43.063,31.429 42.993,30.936 C 42.34,31.598 41.514,32.222 40.805,32.119 C 39.95,31.995 39.695,31.043 39.945,30.539 C 39.76,30.713 39.547,30.913 39.336,31.087 C 38.594,31.697 38.046,31.915 37.723,32.017 C 36.603,32.372 36.119,31.855 35.947,31.305 C 35.525,29.942 37.967,28.431 38.703,28.323 C 38.703,28.323 37.985,28.156 37.683,27.855 A 11.06,11.06 0 0,0 36.526,28.125 A 6.826,6.826 0 0,1 36.238,28.68 C 35.438,30.068 34.227,31.466 33.186,31.915 C 31.638,32.585 31.301,31.571 31.259,31.351 C 31.059,30.273 31.651,28.493 32.482,27.068 C 32.052,27.25 31.63,27.413 31.242,27.548 C 30.977,29.015 29.858,31.411 28.156,32.042 C 27.035,32.458 26.852,31.164 26.973,30.672 L 24.977,35 S 23.449,35.007 23.445,35 C 24.24,33.342 26.361,28.958 26.361,28.945 C 25.631,30.195 25.028,31.241 24.327,31.771 C 23.78,32.184 22.552,32.469 22.417,31.461 C 22.282,30.444 24.795,26.946 23.698,26.946 C 23.101,26.946 22.753,28.101 22.555,28.536 C 22.385,28.911 20.853,32 20.853,32 H 19.413 C 20.756,28.95 21.107,28.404 21.475,27.488 C 21.605,27.158 21.337,26.936 21.153,26.945 C 20.517,26.98 19.873,28.692 18.366,32 H 16.878 L 18.388,28.67 C 17.858,29.344 16.431,31.88 15.139,32.121 C 14.47,32.246 14.033,31.537 14.142,30.688 C 13.767,31.416 12.211,32.827 11.148,31.711 C 10.288,30.808 11.56,28.595 12.238,27.817 C 13.458,26.242 14.502,25.897 14.922,25.801 C 15.403,25.694 15.927,25.889 16.149,26.289 C 16.23,26.113 16.279,26.003 16.284,26 H 17.846 C 16.174,29.636 15.481,30.72 15.694,30.943 C 16.248,31.524 18.922,27.579 19.619,26 H 21.121 L 20.869,26.545 C 21.083,26.364 21.949,25.715 22.587,25.775 C 23.142,25.829 23.27,26.375 23.317,26.589 C 23.39,26.533 24.365,25.473 25.363,25.824 C 26.11,26.087 25.509,27.656 25.096,28.519 C 24.864,29.003 24.292,29.979 24.024,30.611 C 23.806,31.124 24.192,31.404 24.764,30.763 C 26.163,29.199 26.889,27.448 28.086,25 H 29.54 L 28.789,26.697 C 29.244,26.25 30.029,25.729 30.615,25.876 C 31.059,25.988 31.3,26.359 31.3,26.976 L 31.299,27.062 A 28.216,28.216 0 0,0 32.779,26.584 C 34.239,24.283 35.544,23.104 36.023,22.659 C 37.126,21.634 38.373,20.998 38.851,21.538 C 39.678,22.472 37.799,24.078 36.405,25.027 C 35.961,25.33 35.361,25.678 34.695,26.027 L 34.466,26.404 C 34.973,26.086 35.699,25.72 36.131,25.844 C 36.989,26.088 36.98,26.891 36.698,27.697 C 36.948,27.659 37.228,27.621 37.527,27.57 Z M 28.211,27.97 L 27.714,29.059 C 27.608,29.285 27.003,30.619 27.39,30.931 C 27.838,31.289 28.833,29.954 29.34,29.006 C 29.824,28.101 30.375,26.853 29.742,26.654 C 29.196,26.483 28.556,27.249 28.211,27.969 Z M 15.497,27.629 C 15.697,27.249 15.741,26.773 15.555,26.546 C 15.213,26.139 14.192,27.122 13.459,28.486 C 12.949,29.317 12.303,30.626 12.801,30.906 C 13.233,31.149 13.922,30.396 14.344,29.777 C 14.761,29.17 15.169,28.267 15.497,27.629 Z M 48.191,30.849 C 48.444,30.602 48.654,30.296 48.705,29.977 C 48.841,29.139 48.792,28.467 48.817,27.817 C 48.029,28.76 47.229,29.785 46.469,30.599 C 46.934,30.579 47.569,30.717 48.191,30.849 Z M 39.006,27.221 C 39.124,27.182 39.243,27.141 39.362,27.096 C 40.155,26.793 40.917,26.181 40.562,25.912 C 40.268,25.689 38.903,26.408 39.006,27.221 Z M 33.286,28.485 C 33.008,29.095 32.236,30.601 32.882,30.775 C 33.56,30.957 34.198,29.878 34.636,29.032 C 35.073,28.197 35.669,26.895 35.056,26.671 C 34.576,26.499 33.968,27.321 33.673,27.776 C 33.527,28.041 33.395,28.278 33.287,28.485 Z M 34.992,25.539 L 35.146,25.439 C 36.396,24.599 37.313,23.751 37.954,22.7 C 38.057,22.532 38.225,21.884 37.793,21.962 C 37.285,22.06 36.075,23.791 34.993,25.539 Z" fill="rgb(254, 254, 253)"/>
</svg>
