<?xml version="1.0" encoding="UTF-8"?>
<!-- generated by Finnhub -->
<svg fill="none" viewBox="0 0 55.5 55.5" xmlns="http://www.w3.org/2000/svg">
<path d="M 0,0 H 55.5 V 55.5 H 0 Z" fill="rgb(239, 242, 248)"/>
<path d="M 30.241999999999997,12.485 L 28,10 L 25.748,12.5 L 22.877,10.73 L 21.427,13.755 L 18.168,12.857 L 17.639,16.165 L 14.257,16.212 L 14.691,19.534 L 11.458,20.523 L 12.82,23.588 L 10,25.438 L 12.179,28 L 10,30.562 L 12.82,32.412 L 11.458,35.478 L 14.69,36.466 L 14.257,39.788 L 17.639,39.835 L 18.169,43.143 L 21.428,42.245 L 22.877,45.271 L 25.748,43.501 L 28,46 L 30.252,43.5 L 33.123,45.27 L 34.573,42.245 L 37.832,43.143 L 38.361,39.835 L 41.743,39.788 L 41.309,36.466 L 44.542,35.477 L 43.18,32.412 L 46,30.562 L 43.821,28 L 46,25.438 L 43.18,23.588 L 44.542,20.522 L 41.309,19.534 L 41.743,16.212 L 38.361,16.165 L 37.831,12.857 L 34.572,13.755 L 33.123,10.729 L 30.252,12.499 Z M 17,28 A 2,2 0 1,1 21,28 V 29 A 2,2 0 1,1 17,29 V 28 Z M 18,28 A 1,1 0 1,1 20,28 V 29 A 1,1 0 1,1 18,29 V 28 Z M 13,27.975 A 1.975,1.975 0 0,1 16.717,27.045 L 15.86,27.487 A 1,1 0 0,0 14,28 V 29 A 1,1 0 0,0 15.87,29.495 L 16.697,29.99 A 1.974,1.974 0 0,1 13,29.025 V 27.975 Z M 22.45,26 H 21.45 V 29.147 A 1.853,1.853 0 0,0 24.45,30.603 V 31 H 25.45 V 26 H 24.452 V 29 A 1,1 0 1,1 22.452,29 V 26 Z M 38.549,31 H 37.549 V 28 A 1,1 0 1,0 35.549,28 V 31 H 34.549 V 26 H 35.549 V 26.397 A 1.853,1.853 0 0,1 38.549,27.853 V 31 Z M 28.239,26 C 27.756,26 27.319,26.195 27,26.51 V 26 H 26 V 32.5 H 27 V 30.49 A 1.76,1.76 0 0,0 30,29.239 V 27.761 A 1.76,1.76 0 0,0 28.24,26 Z M 27,29 V 28 A 1,1 0 1,1 29,28 V 29 A 1,1 0 1,1 27,29 Z M 34,31 V 27.487 C 34,26.935 33.47,25.994 32.107,26.001 C 31.82,25.987 31.134,26.083 30.394,26.46 L 30.738,27.285 C 30.952,27.155 31.452,26.871 32.038,26.871 C 32.735,26.871 33.018,27.229 33,28.136 V 28.176 A 1.652,1.652 0 1,0 33,30.521 V 31 H 34 Z M 32.969,29.376 A 0.928,0.928 0 1,1 31.113,29.376 A 0.928,0.928 0 0,1 32.969,29.376 Z M 40.902,29.568 C 41.952,29.568 42.803,28.769 42.803,27.784 C 42.803,27.504 42.734,27.237 42.611,27.001 A 1.36,1.36 0 0,1 43.109,26.869 V 26.107 A 1.5,1.5 0 0,0 42.139,26.429 A 1.97,1.97 0 0,0 40.901,26 C 39.851,26 38.999,26.799 38.999,27.784 C 38.999,28.314 39.245,28.789 39.635,29.116 C 39.352,29.296 38.999,29.614 38.999,30 V 31 H 41.504 A 0.5,0.5 0 1,1 41.504,32 H 41.447 L 41.989,32.918 A 1.5,1.5 0 0,0 41.5,30 H 39.844 C 39.83,29.92 39.899,29.708 40.217,29.45 C 40.429,29.526 40.66,29.568 40.902,29.568 Z M 40.918,28.733 C 41.458,28.733 41.897,28.308 41.897,27.784 S 41.459,26.836 40.918,26.836 C 40.378,26.836 39.94,27.26 39.94,27.784 S 40.378,28.734 40.918,28.734 Z" clip-rule="evenodd" fill="url(#a)" fill-rule="evenodd"/>
<defs>
<linearGradient id="a" x1="28" x2="28" y1="10" y2="46" gradientUnits="userSpaceOnUse">
<stop stop-color="rgb(242, 63, 48)" offset="0"/>
<stop stop-color="rgb(192, 26, 0)" offset="1"/>
</linearGradient>
</defs>
</svg>
