<?xml version="1.0" encoding="UTF-8"?>
<!-- generated by Finnhub -->
<svg viewBox="0 0 55.5 55.5" xmlns="http://www.w3.org/2000/svg">
<path d="M 0,0 H 55.5 V 55.5 H 0 Z" fill="rgb(239, 242, 248)"/>
<path d="M 10.962,23.955 C 12.05,23.97 13.002,24.41 13.686,25.122 L 14.422,24.372 C 13.522,23.505 12.355,23 10.972,23 C 8.106,23 6,25.122 6,27.994 C 6,31.047 8.258,33 10.972,33 C 12.405,33 13.636,32.444 14.498,31.538 L 13.801,30.788 C 13.103,31.538 12.126,31.991 10.972,31.991 C 8.879,31.991 7.078,30.426 7.078,27.994 C 7.078,25.587 8.867,23.97 10.972,23.97 Z M 24.854,31 L 25.791,33 H 26.894 L 22.14,22.913 L 17.5,33 H 18.565 L 19.522,31 H 24.854 Z M 24.354,30 H 19.978 L 22.14,25.122 L 24.354,30 Z M 32.917,23 C 32.105,23.013 31.027,23 30,23 V 33 H 30.99 V 29.5 H 32.917 C 35.003,29.5 36.291,28.485 36.291,26.338 C 36.291,24.242 34.909,22.961 32.917,23 Z M 32.917,24 C 34.021,23.974 35.003,24.708 35.003,26.338 C 35.003,27.605 34.743,28.5 32.917,28.5 H 31.003 L 30.99,24 H 32.918 Z M 44.295,33 H 45.5 L 43.395,29.365 C 44.612,28.925 45.259,27.683 45.259,26.208 C 45.259,24.061 43.889,22.961 41.859,23 H 39.082 V 33 H 40.084 V 29.598 H 41.999 C 42.126,29.598 42.253,29.598 42.367,29.585 L 44.295,33 Z M 40.084,28.627 V 23.997 H 41.86 C 43.14,23.97 44.18,24.669 44.18,26.208 C 44.18,27.295 43.75,28.628 41.91,28.628 H 40.084 Z M 50.002,33 V 23 H 49.002 L 49,33 H 50.002 Z"/>
</svg>
