<?xml version="1.0" encoding="UTF-8"?>
<!-- generated by Finnhub -->
<svg viewBox="0 0 55.5 55.5" xmlns="http://www.w3.org/2000/svg">
<path d="M 0,0 H 55.5 V 55.5 H 0 Z" fill="rgb(239, 242, 248)"/>
<path d="M 28.49,43.985 A 3.5,3.5 0 1,0 28.5,37 A 3.5,3.5 0 0,0 28.5,44 Z M 23.3,39.42 C 24.36,38.44 24.2,36.56 22.93,35.22 C 21.66,33.89 19.77,33.6 18.7,34.58 C 17.64,35.56 17.8,37.44 19.07,38.78 C 20.34,40.11 22.23,40.4 23.3,39.42 Z" fill="rgb(1, 104, 169)"/>
<path d="M 39.300000000000004,37.305 C 40.37,35.83 40.19,34.04 38.91,33.31 C 37.64,32.58 35.75,33.19 34.69,34.68 C 33.63,36.17 33.81,37.96 35.09,38.69 C 36.36,39.42 38.25,38.81 39.31,37.32 Z" fill="rgb(136, 191, 230)"/>
<path d="M 21.02,30.075 C 21.08,28.46 20.11,27.1 18.86,27.07 C 17.61,27.03 16.56,28.32 16.51,29.95 C 16.46,31.59 17.43,32.94 18.68,32.98 C 19.93,33.01 20.98,31.72 21.03,30.08 Z" fill="rgb(1, 104, 169)"/>
<path d="M 38.79,29.845 C 39.98,29.4 40.35,27.96 39.63,26.66 S 37.37,24.68 36.2,25.14 C 35.02,25.6 34.65,27.04 35.37,28.34 S 37.63,30.32 38.8,29.86 Z" fill="rgb(136, 191, 230)"/>
<path d="M 23.069999999999997,25.215 C 24.01,24.35 24.28,23.1 23.68,22.42 C 23.08,21.74 21.85,21.9 20.92,22.77 C 19.99,23.65 19.72,24.9 20.32,25.58 C 20.92,26.26 22.15,26.1 23.08,25.23 Z" fill="rgb(1, 104, 169)"/>
<path d="M 33.77,22.585 C 34.28,22.02 33.9,21.08 32.92,20.47 C 31.94,19.87 30.73,19.84 30.22,20.41 C 29.72,20.98 30.1,21.92 31.08,22.53 C 32.06,23.13 33.27,23.16 33.78,22.59 Z" fill="rgb(136, 191, 230)"/>
<path d="M 26.939999999999998,20.785 C 27.74,20.47 28.18,19.84 27.93,19.4 C 27.68,18.96 26.84,18.87 26.05,19.2 C 25.26,19.53 24.82,20.16 25.07,20.6 C 25.32,21.04 26.16,21.13 26.95,20.8 Z M 31.82,18.88 C 32.63,18.63 33.14,18.02 32.96,17.53 C 32.79,17.05 31.99,16.86 31.18,17.11 C 30.37,17.37 29.86,17.98 30.04,18.47 C 30.21,18.95 31.01,19.14 31.82,18.88 Z M 36.58,17.98 C 37.41,17.88 38.04,17.37 38,16.83 C 37.95,16.28 37.25,15.92 36.42,16.02 C 35.59,16.12 34.96,16.63 35,17.17 C 35.05,17.72 35.75,18.08 36.58,17.98 Z" fill="rgb(1, 104, 169)"/>
<path d="M 25.95,17.485 C 26.16,17.03 25.66,16.42 24.86,16.14 S 23.24,16.02 23.04,16.49 C 22.84,16.97 23.34,17.59 24.14,17.86 C 24.94,18.14 25.76,17.98 25.96,17.51 Z M 21.02,16.25 C 21.12,15.75 20.51,15.22 19.67,15.08 C 18.83,14.94 18.07,15.24 17.97,15.75 C 17.89,16.25 18.49,16.78 19.33,16.92 C 20.17,17.06 20.93,16.76 21.03,16.25 Z M 14.54,17 C 15.37,16.97 16.02,16.5 16,15.94 C 15.98,15.39 15.28,14.97 14.46,15 C 13.63,15.03 12.98,15.5 13,16.06 C 13.02,16.61 13.72,17.03 14.54,17 Z" fill="rgb(136, 191, 230)"/>
</svg>
