<?xml version="1.0" encoding="UTF-8"?>
<!-- generated by Finnhub -->
<svg viewBox="0 0 55.5 55.5" xmlns="http://www.w3.org/2000/svg">
<path d="M 0,0 H 55.5 V 55.5 H 0 Z" fill="rgb(1, 70, 184)"/>
<path d="M 34.284,26.974 C 36.625,25.733 38.568,25.244 41.132,25.454 C 34.682,21.128 32.196,28.105 25.436,26.291 C 22.872,25.593 21.396,23.64 18.287,24.058 C 14.247,24.547 11.372,28.594 5,25.314 C 8.574,29.85 13.159,28.594 16.345,26.919 C 17.899,26.082 21.162,24.686 22.949,25.593 C 23.493,25.873 23.804,26.221 24.193,26.57 C 24.581,26.919 24.97,27.268 25.358,27.477 C 25.668,27.687 25.902,27.827 26.213,27.966 C 23.027,29.082 20.074,31.594 14.713,28.803 C 18.287,33.339 22.872,32.083 26.057,30.408 C 27.612,29.57 30.875,28.175 32.662,29.082 C 33.206,29.362 33.517,29.71 33.905,30.059 C 34.294,30.408 34.682,30.757 35.071,30.966 C 37.946,32.78 41.365,31.943 44.162,30.478 C 46.493,29.222 48.436,28.733 51,28.943 C 44.55,24.616 42.064,31.594 35.304,29.78 C 33.984,29.431 32.895,28.733 31.807,28.175 C 32.507,27.826 33.439,27.407 34.294,26.989 Z" fill="rgb(254, 254, 253)"/>
</svg>
