<?xml version="1.0" encoding="UTF-8"?>
<!-- generated by Finnhub -->
<svg viewBox="0 0 55.5 55.5" xmlns="http://www.w3.org/2000/svg">
<path d="M 0,0 H 55.5 V 55.5 H 0 Z" fill="rgb(1, 155, 217)"/>
<path d="M 26.962,16.349999999999998 L 27.598,16.135 L 28.257,15.939 A 6.373,6.373 0 0,1 29.631,15.797 A 6.742,6.742 0 0,1 35.495,19.193 A 8.372,8.372 0 0,1 38.813,18.505 C 43.336,18.505 47,22.12 47,26.585 C 47,31.052 43.336,34.666 38.812,34.666 A 8.722,8.722 0 0,1 37.204,34.514 A 6.013,6.013 0 0,1 31.977,37.517 C 31.027,37.517 30.145,37.309 29.352,36.927 C 28.312,39.318 25.889,41 23.062,41 C 20.125,41 17.612,39.187 16.652,36.632 C 16.227,36.719 15.792,36.763 15.344,36.763 C 11.837,36.763 9,33.957 9,30.495 A 6.247,6.247 0 0,1 12.172,25.068 A 6.994,6.994 0 0,1 11.569,22.208 C 11.569,18.221 14.875,15 18.952,15 A 7.429,7.429 0 0,1 24.817,17.84 A 6.652,6.652 0 0,1 26.972,16.365 Z M 29.732,24.538 L 29.754,24.396 L 29.798,24.101 L 29.898,23.839 L 30.022,23.609 L 30.178,23.424 C 30.39,23.205 30.703,23.096 31.105,23.096 L 31.407,23.118 L 31.63,23.173 C 31.653,23.183 31.697,23.205 31.675,23.249 L 31.507,23.697 L 31.504,23.701 C 31.484,23.731 31.471,23.751 31.407,23.73 L 31.295,23.708 L 31.116,23.686 L 30.882,23.719 A 0.411,0.411 0 0,0 30.692,23.828 A 0.601,0.601 0 0,0 30.535,24.058 C 30.457,24.276 30.424,24.527 30.424,24.538 H 31.128 C 31.183,24.538 31.195,24.559 31.195,24.603 L 31.116,25.051 C 31.094,25.116 31.038,25.116 31.038,25.116 H 30.312 L 29.821,27.857 A 3.378,3.378 0 0,1 29.631,28.577 A 1.395,1.395 0 0,1 29.341,29.058 C 29.229,29.178 29.095,29.277 28.938,29.331 A 1.57,1.57 0 0,1 28.402,29.419 C 28.302,29.419 28.201,29.419 28.078,29.386 L 27.878,29.331 C 27.855,29.321 27.832,29.288 27.843,29.244 L 28.011,28.807 C 28.033,28.753 28.089,28.775 28.089,28.775 L 28.212,28.818 L 28.391,28.84 A 0.97,0.97 0 0,0 28.648,28.807 A 0.467,0.467 0 0,0 28.848,28.654 C 28.905,28.578 28.961,28.48 29.005,28.349 C 29.061,28.207 29.105,28.032 29.139,27.814 L 29.631,25.116 H 29.139 C 29.083,25.116 29.072,25.095 29.072,25.051 L 29.15,24.603 C 29.173,24.538 29.229,24.538 29.229,24.538 H 29.731 Z M 14.507,27.645 L 14.529,27.664 L 14.741,27.776 C 15.132,27.944 15.49,28 15.881,28 C 16.663,28 17.143,27.654 17.143,27.093 V 27.084 C 17.143,26.57 16.596,26.384 16.082,26.243 L 16.015,26.224 C 15.624,26.122 15.3,26.028 15.3,25.814 V 25.804 C 15.3,25.617 15.49,25.486 15.802,25.486 C 16.137,25.486 16.54,25.579 16.797,25.701 C 16.797,25.701 16.875,25.738 16.897,25.682 L 17.054,25.327 C 17.064,25.29 17.042,25.271 17.02,25.252 A 2.552,2.552 0 0,0 15.903,25 H 15.825 C 15.11,25 14.618,25.364 14.618,25.878 V 25.888 C 14.618,26.43 15.166,26.608 15.68,26.729 L 15.758,26.748 C 16.138,26.841 16.461,26.925 16.461,27.149 V 27.159 C 16.461,27.365 16.249,27.514 15.914,27.514 H 15.769 L 15.534,27.486 A 2.073,2.073 0 0,1 14.909,27.271 L 14.775,27.206 C 14.752,27.196 14.697,27.178 14.675,27.234 L 14.518,27.589 L 14.507,27.645 Z M 25.911,27.645 L 25.934,27.664 L 26.146,27.776 C 26.436,27.906 26.716,27.963 26.995,27.991 L 27.274,28 L 27.554,27.981 C 28.168,27.906 28.536,27.579 28.536,27.093 V 27.084 C 28.536,26.57 27.989,26.384 27.475,26.243 L 27.408,26.224 C 27.018,26.122 26.693,26.028 26.693,25.814 V 25.804 C 26.693,25.617 26.883,25.486 27.196,25.486 C 27.531,25.486 27.933,25.579 28.19,25.701 C 28.19,25.701 28.268,25.738 28.29,25.682 L 28.447,25.327 C 28.458,25.29 28.436,25.271 28.413,25.252 A 2.553,2.553 0 0,0 27.296,25 H 27.218 C 26.503,25 26.012,25.364 26.012,25.878 V 25.888 C 26.012,26.43 26.559,26.608 27.072,26.729 L 27.152,26.748 C 27.531,26.841 27.855,26.925 27.855,27.149 V 27.159 C 27.855,27.365 27.643,27.514 27.308,27.514 C 27.174,27.514 26.76,27.514 26.302,27.271 L 26.168,27.206 C 26.157,27.196 26.09,27.178 26.068,27.234 L 25.911,27.589 V 27.645 Z M 33.228,25.563 L 33.06,25.516 L 32.848,25.506 C 32.568,25.506 32.356,25.591 32.222,25.759 C 32.088,25.937 32.022,26.181 32.022,26.5 C 32.022,26.81 32.088,27.063 32.222,27.24 C 32.356,27.419 32.557,27.503 32.848,27.503 C 33.138,27.503 33.35,27.419 33.485,27.241 C 33.63,27.063 33.697,26.819 33.697,26.5 S 33.619,25.937 33.485,25.76 A 0.617,0.617 0 0,0 33.228,25.562 Z M 32.49,25.028 L 32.86,25 L 33.239,25.028 L 33.563,25.113 C 33.763,25.188 33.931,25.3 34.065,25.431 C 34.188,25.571 34.289,25.731 34.355,25.909 C 34.423,26.097 34.456,26.294 34.456,26.5 C 34.456,26.716 34.423,26.913 34.356,27.09 A 1.104,1.104 0 0,1 34.066,27.569 A 1.31,1.31 0 0,1 33.563,27.888 C 33.373,27.962 33.127,28 32.87,28 C 32.613,28 32.379,27.962 32.178,27.887 A 1.43,1.43 0 0,1 31.675,27.569 C 31.541,27.429 31.44,27.269 31.373,27.091 A 1.742,1.742 0 0,1 31.273,26.5 C 31.273,26.284 31.307,26.087 31.373,25.91 C 31.429,25.722 31.53,25.562 31.663,25.431 A 1.43,1.43 0 0,1 32.166,25.112 L 32.491,25.028 Z M 38.477,25.047 L 38.142,25.131 C 37.93,25.206 37.762,25.318 37.617,25.449 C 37.483,25.579 37.372,25.739 37.304,25.925 C 37.237,26.103 37.204,26.299 37.204,26.514 C 37.204,26.963 37.349,27.327 37.64,27.598 C 37.93,27.869 38.366,28 38.924,28 C 39.259,28 39.594,27.944 39.84,27.86 C 39.84,27.86 39.885,27.841 39.862,27.794 L 39.706,27.421 C 39.684,27.365 39.628,27.383 39.628,27.383 L 39.326,27.458 L 38.969,27.477 C 38.656,27.477 38.399,27.402 38.22,27.243 C 38.042,27.084 37.941,26.841 37.941,26.495 C 37.941,26.187 38.031,25.953 38.187,25.775 C 38.343,25.598 38.589,25.514 38.913,25.514 C 39.181,25.514 39.383,25.542 39.606,25.598 C 39.606,25.598 39.661,25.617 39.684,25.561 L 39.84,25.187 C 39.862,25.149 39.818,25.131 39.795,25.121 L 39.605,25.075 L 39.36,25.028 L 38.868,25 L 38.478,25.047 Z M 43.102,26.097 L 43.112,26.35 L 43.124,26.622 C 43.113,26.669 43.057,26.669 43.057,26.669 H 40.857 C 40.867,26.95 40.946,27.156 41.113,27.288 C 41.27,27.418 41.516,27.503 41.862,27.503 C 42.325,27.503 42.553,27.43 42.708,27.381 L 42.732,27.373 L 42.767,27.363 S 42.822,27.343 42.845,27.391 L 42.99,27.728 C 43.012,27.784 42.99,27.803 42.968,27.812 C 42.834,27.878 42.498,28 41.862,28 A 2.54,2.54 0 0,1 41.058,27.887 A 1.62,1.62 0 0,1 40.51,27.578 A 1.207,1.207 0 0,1 40.186,27.109 A 1.666,1.666 0 0,1 40.086,26.519 C 40.086,26.313 40.119,26.106 40.186,25.929 C 40.253,25.75 40.354,25.581 40.488,25.45 A 1.45,1.45 0 0,1 40.991,25.122 L 41.147,25.066 L 41.326,25.028 L 41.716,25 L 42.052,25.028 L 42.342,25.103 C 42.476,25.15 42.61,25.234 42.755,25.366 C 42.845,25.441 42.979,25.619 43.035,25.796 C 43.068,25.9 43.091,26.003 43.102,26.096 Z M 40.837,26.181 H 42.398 L 42.353,25.947 L 42.309,25.844 L 42.253,25.75 C 42.119,25.572 41.929,25.478 41.638,25.478 C 41.348,25.478 41.147,25.581 41.013,25.75 A 0.9,0.9 0 0,0 40.901,25.947 L 40.837,26.181 Z M 24.76,26.164 H 23.2 L 23.264,25.927 A 0.913,0.913 0 0,1 23.375,25.729 C 23.509,25.559 23.711,25.454 24.001,25.454 S 24.481,25.549 24.615,25.729 L 24.671,25.823 L 24.716,25.927 L 24.76,26.164 Z M 23.666,25 L 23.487,25.038 C 23.471,25.044 23.454,25.048 23.437,25.053 A 0.402,0.402 0 0,0 23.331,25.095 C 23.13,25.18 22.962,25.284 22.828,25.425 A 1.333,1.333 0 0,0 22.527,25.908 C 22.459,26.088 22.426,26.297 22.426,26.505 C 22.426,26.722 22.46,26.921 22.526,27.101 C 22.594,27.281 22.706,27.441 22.851,27.574 C 22.996,27.707 23.186,27.811 23.409,27.886 C 23.632,27.962 23.901,28 24.213,28 C 24.85,28 25.185,27.877 25.319,27.81 C 25.341,27.801 25.364,27.782 25.341,27.726 L 25.196,27.385 C 25.174,27.337 25.118,27.356 25.118,27.356 A 3.253,3.253 0 0,0 25.059,27.375 C 24.904,27.425 24.676,27.498 24.213,27.498 C 23.867,27.498 23.621,27.413 23.465,27.281 C 23.297,27.148 23.219,26.941 23.208,26.656 H 25.408 S 25.464,26.656 25.475,26.609 L 25.477,26.591 C 25.489,26.506 25.539,26.131 25.408,25.757 A 0.872,0.872 0 0,0 25.129,25.369 A 1.227,1.227 0 0,0 24.716,25.104 L 24.426,25.028 L 24.09,25 H 23.666 Z M 19.488,26.585 L 19.075,26.566 L 18.785,26.576 C 18.55,26.613 18.439,26.689 18.439,26.689 A 0.385,0.385 0 0,0 18.238,27.047 C 18.238,27.151 18.26,27.236 18.305,27.292 C 18.327,27.33 18.338,27.349 18.427,27.406 C 18.427,27.406 18.628,27.538 19.075,27.519 C 19.388,27.5 19.667,27.453 19.667,27.453 V 26.603 L 19.488,26.585 Z M 18.428,26.16 L 18.695,26.113 L 18.952,26.103 L 19.299,26.113 L 19.656,26.151 V 26.076 C 19.656,25.83 19.6,25.707 19.477,25.632 C 19.354,25.547 19.165,25.509 18.93,25.509 C 18.93,25.509 18.394,25.5 17.97,25.699 L 17.936,25.717 S 17.891,25.736 17.869,25.689 L 17.712,25.33 C 17.69,25.274 17.735,25.255 17.735,25.255 C 17.935,25.123 18.416,25.047 18.416,25.047 C 18.573,25.019 18.841,25 19.008,25 C 19.455,25 19.79,25.085 20.025,25.255 C 20.248,25.425 20.371,25.698 20.371,26.075 V 27.774 S 20.382,27.821 20.326,27.83 L 20.17,27.859 L 19.611,27.953 A 5.335,5.335 0 0,1 18.941,28 C 18.729,28 18.539,27.99 18.361,27.953 A 1.197,1.197 0 0,1 17.913,27.793 A 0.868,0.868 0 0,1 17.623,27.5 A 0.846,0.846 0 0,1 17.523,27.076 C 17.523,26.916 17.567,26.774 17.645,26.651 C 17.724,26.528 17.835,26.424 17.969,26.34 C 18.103,26.264 18.259,26.198 18.427,26.16 Z M 35.898,25.184 L 35.73,25.32 V 25.087 C 35.73,25.058 35.707,25.029 35.663,25.029 H 35.093 C 35.059,25.029 35.026,25.059 35.026,25.087 V 27.942 C 35.026,27.971 35.059,28 35.093,28 H 35.673 C 35.707,28 35.741,27.97 35.741,27.942 V 26.515 C 35.741,26.32 35.763,26.135 35.808,26.01 A 0.708,0.708 0 0,1 35.998,25.728 A 0.7,0.7 0 0,1 36.266,25.582 A 1.106,1.106 0 0,1 36.802,25.572 C 36.847,25.572 36.869,25.553 36.88,25.524 L 37.048,25.126 C 37.058,25.087 37.025,25.058 37.014,25.058 A 2.519,2.519 0 0,0 36.645,25 H 36.455 L 36.31,25.02 L 36.076,25.087 L 35.897,25.185 Z M 21.812,23.227 A 0.064,0.064 0 0,0 21.745,23.162 H 21.164 C 21.13,23.162 21.097,23.194 21.097,23.227 V 27.824 C 21.097,27.857 21.119,27.89 21.164,27.89 H 21.744 C 21.778,27.89 21.812,27.857 21.812,27.824 V 23.227 Z" fill="rgb(254, 254, 253)" fill-rule="evenodd"/>
</svg>
