<?xml version="1.0" encoding="UTF-8"?>
<!-- generated by Finnhub -->
<svg viewBox="0 0 55.5 55.5" xmlns="http://www.w3.org/2000/svg">
<path d="M 0,0 H 55.5 V 55.5 H 0 Z" fill="url(#a)"/>
<path d="M 8.125,32.985 C 9.299,33 10.338,32.607 11.039,31.843 L 10.396,31.23 C 9.751,31.893 9.05,32 8.146,32 C 6.237,32 5,30.865 5,29 S 6.237,25.996 8.146,25.996 C 9.05,25.996 9.751,26.106 10.396,26.758 L 11.039,26.146 C 10.338,25.382 9.299,25 8.146,25 C 5.762,25 4,26.697 4,29 S 5.762,33 8.135,33 Z M 18.003,33 L 16.456,30.175 C 17.486,29.717 18.003,28.915 18.003,27.678 C 18.003,26.146 17.01,25 14.999,25 H 12 V 33 H 13 V 30.37 H 15.526 L 17,33 H 18.003 Z M 14.999,29.456 H 13.023 L 13,25.996 H 14.976 C 16.061,25.996 17,26.614 17,27.678 C 17,28.858 16.047,29.456 14.999,29.456 Z M 35,25 V 31.349 L 29,25 H 28 V 33 H 29 V 26.654 L 35,33 H 36 V 25 H 35 Z M 49.051,33 C 51.074,33 52,32.011 52,30.854 C 52,27.989 47,29.02 47,27.134 C 47,26.348 47.735,26 49.22,26 C 49.921,26 50.619,26.128 51.297,26.567 L 51.672,25.697 C 51.04,25.258 50.113,25 49.221,25 C 47.21,25 46,25.977 46,27.135 C 46,30.045 50.91,29.081 51,30.854 C 51,31.629 50.531,32 49.051,32 C 48.011,32 47.231,31.734 46.666,31.184 L 46.114,31.977 C 46.7,32.584 47.864,33 49.05,33 Z" fill="rgb(245, 247, 251)"/>
<path d="M 40.995000000000005,32.985 C 43.291,33 45,31.303 45,29 S 43.291,25 41.005,25 C 38.698,25 37,26.708 37,29 S 38.698,33 41.005,33 Z M 41,32 C 39.16,32 38,30.876 38,29 S 39.16,26 41,26 C 42.829,26 44,27.124 44,29 S 42.829,32 41,32 Z" fill="rgb(139, 197, 61)"/>
<path d="M 22.994999999999997,32.985 C 25.291,33 27,31.303 27,29 S 25.291,25 23.005,25 C 20.698,25 19,26.708 19,29 S 20.698,33 23.005,33 Z M 23,32 C 21.16,32 20,30.876 20,29 S 21.16,26 23,26 C 24.829,26 26,27.124 26,29 S 24.829,32 23,32 Z" fill="rgb(245, 247, 251)"/>
<defs>
<linearGradient id="a" x1="10.418" x2="68.147" y1="9.712" y2="76.017" gradientUnits="userSpaceOnUse">
<stop stop-color="rgb(25, 29, 31)" offset="0"/>
<stop stop-color="rgb(5, 5, 8)" offset="1"/>
</linearGradient>
</defs>
</svg>
