<?xml version="1.0" encoding="UTF-8"?>
<!-- generated by Finnhub -->
<svg viewBox="0 0 55.5 55.5" xmlns="http://www.w3.org/2000/svg">
<path d="M 0,0 H 55.5 V 55.5 H 0 Z" fill="url(#a)"/>
<path d="M 9.413,26.375999999999998 C 10.103,26.391 10.749,26.732 11.108,27.211 L 11.143,27.245 C 11.161,27.262 11.179,27.279 11.179,27.296 C 11.412,27.586 11.789,27.757 12.201,27.757 A 1.35,1.35 0 0,0 13.124,27.39 C 13.369,27.156 13.507,26.84 13.509,26.51 C 13.509,26.186 13.384,25.895 13.169,25.673 C 12.273,24.615 11.197,24 9.405,24 C 6.591,24 4.475,25.861 4.475,28.475 C 4.475,31.122 6.591,32.983 9.423,32.983 C 11.233,32.983 12.29,32.385 13.186,31.429 C 13.383,31.207 13.509,30.934 13.509,30.626 C 13.509,30.465 13.477,30.304 13.412,30.155 A 1.223,1.223 0 0,0 13.132,29.755 A 1.292,1.292 0 0,0 12.713,29.489 A 1.344,1.344 0 0,0 12.219,29.397 C 11.824,29.397 11.484,29.567 11.25,29.824 C 10.82,30.234 10.337,30.626 9.44,30.626 C 8.15,30.626 7.415,29.738 7.415,28.475 C 7.397,27.262 8.115,26.391 9.423,26.391 Z M 21.629,24.564 C 21.181,24.341 20.876,24.29 20.213,24.341 C 19.03,24.444 18.116,25.23 17.954,25.417 C 17.901,24.7 17.274,24.119 16.503,24.119 C 16.119,24.119 15.751,24.262 15.476,24.517 A 1.37,1.37 0 0,0 15.033,25.486 V 31.583 C 15.051,32.334 15.696,32.933 16.503,32.933 C 16.886,32.933 17.255,32.79 17.53,32.534 A 1.37,1.37 0 0,0 17.972,31.566 V 29.909 C 17.972,27.655 19.352,27.074 20.123,27.057 C 20.19,27.057 20.295,27.079 20.42,27.105 C 20.662,27.155 20.98,27.222 21.252,27.177 C 21.442,27.144 21.623,27.077 21.786,26.977 C 21.948,26.879 22.088,26.75 22.198,26.599 A 1.33,1.33 0 0,0 22.436,25.553 A 1.446,1.446 0 0,0 22.148,24.973 A 1.533,1.533 0 0,0 21.628,24.563 Z M 30.089,28.526 C 30.071,29.806 29.319,30.695 28.046,30.695 C 26.773,30.695 25.984,29.789 25.984,28.525 C 25.984,27.228 26.773,26.357 28.046,26.357 C 29.318,26.357 30.089,27.227 30.089,28.526 Z M 33.01,28.509 C 33.01,25.879 30.842,24 28.045,24 C 25.25,24 23.063,25.878 23.063,28.509 C 23.063,31.122 25.249,32.983 28.046,32.983 C 30.842,32.983 33.01,31.122 33.01,28.509 Z M 39.463,26.391 C 40.144,26.391 40.789,26.732 41.147,27.211 L 41.183,27.245 C 41.202,27.262 41.219,27.279 41.219,27.296 C 41.452,27.586 41.829,27.757 42.241,27.757 C 42.587,27.755 42.919,27.623 43.164,27.39 C 43.409,27.157 43.548,26.84 43.55,26.51 C 43.55,26.186 43.424,25.895 43.209,25.673 C 42.313,24.615 41.237,24 39.463,24 C 36.649,24 34.516,25.861 34.516,28.475 C 34.516,31.122 36.631,32.983 39.463,32.983 C 41.273,32.983 42.331,32.385 43.227,31.429 C 43.424,31.207 43.55,30.934 43.55,30.626 C 43.55,30.465 43.517,30.304 43.453,30.155 A 1.224,1.224 0 0,0 43.173,29.755 A 1.293,1.293 0 0,0 42.753,29.489 A 1.344,1.344 0 0,0 42.259,29.397 A 1.3,1.3 0 0,0 41.291,29.824 C 40.861,30.234 40.377,30.626 39.463,30.626 C 38.172,30.626 37.437,29.738 37.437,28.475 C 37.456,27.262 38.172,26.391 39.463,26.391 Z M 52.475,30.131 C 52.475,28.287 50.827,27.706 49.518,27.415 L 49.195,27.349 C 48.181,27.143 47.708,27.047 47.708,26.613 C 47.708,26.271 48.03,26.101 48.676,26.101 C 49.356,26.101 49.984,26.408 50.414,26.75 C 50.611,26.938 50.88,27.04 51.185,27.04 C 51.333,27.04 51.48,27.013 51.618,26.96 A 1.13,1.13 0 0,0 51.985,26.726 C 52.09,26.626 52.173,26.507 52.229,26.376 A 1.015,1.015 0 0,0 51.937,25.178 C 51.203,24.461 50.145,24 48.657,24 C 46.722,24 45.162,24.785 45.162,26.732 C 45.162,28.525 46.542,29.175 47.779,29.482 C 48.087,29.557 48.356,29.617 48.589,29.668 C 49.465,29.862 49.823,29.941 49.823,30.318 C 49.823,30.678 49.518,30.848 48.586,30.848 C 47.851,30.848 47.17,30.592 46.596,30.165 L 46.615,30.183 A 1.19,1.19 0 0,0 45.019,30.233 A 1.024,1.024 0 0,0 44.84,31.497 C 44.84,31.514 44.858,31.531 44.858,31.531 A 0.36,0.36 0 0,0 44.93,31.634 C 44.94,31.644 44.948,31.656 44.956,31.668 A 0.237,0.237 0 0,0 44.993,31.713 L 45,31.721 C 45.014,31.738 45.03,31.759 45.055,31.771 L 45.109,31.821 C 45.898,32.488 47.027,33 48.765,33 C 51.615,33 52.475,31.702 52.475,30.131 Z" fill="rgb(254, 254, 253)"/>
<defs>
<linearGradient id="a" x1="10.418" x2="68.147" y1="9.712" y2="76.017" gradientUnits="userSpaceOnUse">
<stop stop-color="rgb(25, 29, 31)" offset="0"/>
<stop stop-color="rgb(5, 5, 8)" offset="1"/>
</linearGradient>
</defs>
</svg>
