<?xml version="1.0" encoding="UTF-8"?>
<!-- generated by Finnhub -->
<svg viewBox="0 0 55.5 55.5" xmlns="http://www.w3.org/2000/svg">
<path d="M 0,0 H 55.5 V 55.5 H 0 Z" fill="url(#a)"/>
<path d="M 11.99,27.985 V 44 H 44 V 37 H 13 V 13 L 28,13.126 L 43,13 V 34 C 42.869,34 42.631,34.003 42.5,34 C 41.931,33.981 41.26,33.123 41.078,32.978 C 40.978,32.898 40.301,32.214 40.294,32.186 A 0.69,0.69 0 0,1 40.412,32.101 C 40.558,32.008 40.774,31.799 40.875,31.654 A 1.816,1.816 0 0,0 41.17,30.233 C 40.988,29.403 40.492,29.199 39.73,29.043 C 39.542,29.005 39.379,29 38.228,29 H 37 V 35 H 38 V 32.421 H 38.945 L 39.36,32.855 C 40,33.525 41.095,34.86 42.068,34.975 C 42.198,34.99 42.401,34.995 43.115,35 L 44,35.006 V 12 H 12 V 28 Z M 40.06,30.424 A 0.945,0.945 0 0,1 40.06,30.779 C 39.979,31.097 39.723,31.271 39.431,31.372 L 38,31.379 V 30 H 39 C 39.373,30.003 39.936,29.946 40.06,30.424 Z M 38.738,39.028 A 0.951,0.951 0 0,1 39.054,39.169 C 39.228,39.299 39.354,39.546 39.374,39.796 L 39.381,39.887 L 39.171,39.885 L 38.961,39.882 L 38.935,39.792 C 38.875,39.582 38.755,39.468 38.562,39.435 C 38.262,39.384 38.002,39.597 37.906,39.976 C 37.882,40.071 37.879,40.11 37.88,40.338 C 37.88,40.575 37.882,40.601 37.91,40.708 C 38.005,41.058 38.22,41.24 38.52,41.224 C 38.784,41.211 38.916,41.058 38.969,40.702 L 38.976,40.658 H 39.414 V 40.715 C 39.414,40.87 39.346,41.125 39.268,41.265 C 39.088,41.587 38.698,41.727 38.24,41.633 C 37.689,41.522 37.351,41.028 37.351,40.331 C 37.351,39.515 37.823,38.98 38.519,39.003 C 38.591,39.007 38.689,39.017 38.738,39.028 Z M 41.011,39.016 C 41.301,39.064 41.517,39.212 41.63,39.441 C 41.676,39.534 41.69,39.591 41.707,39.737 L 41.714,39.804 L 41.474,39.802 L 41.234,39.798 L 41.224,39.748 C 41.196,39.58 41.088,39.474 40.913,39.437 C 40.742,39.402 40.54,39.473 40.481,39.589 C 40.429,39.693 40.44,39.776 40.516,39.845 C 40.578,39.902 40.629,39.925 40.976,40.064 C 41.139,40.129 41.312,40.203 41.358,40.225 A 0.99,0.99 0 0,1 41.636,40.423 C 41.799,40.615 41.831,40.963 41.708,41.222 A 0.783,0.783 0 0,1 41.414,41.532 C 41.116,41.701 40.614,41.703 40.296,41.537 A 0.817,0.817 0 0,1 39.912,41.036 A 2.125,2.125 0 0,1 39.864,40.744 A 3.7,3.7 0 0,1 40.106,40.741 H 40.347 L 40.356,40.791 C 40.386,40.993 40.486,41.131 40.644,41.192 A 0.845,0.845 0 0,0 41.029,41.212 C 41.223,41.16 41.317,41.02 41.255,40.873 C 41.214,40.773 41.133,40.722 40.789,40.578 C 40.273,40.364 40.124,40.264 40.022,40.063 A 0.756,0.756 0 0,1 40.031,39.419 C 40.181,39.114 40.586,38.948 41.011,39.016 Z M 16.217,39.262 L 16.219,39.472 H 15.544 L 15.541,40.542 L 15.538,41.612 H 15.04 L 15.036,40.542 L 15.034,39.472 H 14.37 V 39.046 L 15.292,39.048 L 16.213,39.052 L 16.217,39.262 Z M 17.307,39.558 L 17.31,40.065 H 18.317 V 39.045 H 18.815 L 18.812,40.328 L 18.809,41.612 L 18.564,41.615 L 18.317,41.618 V 40.48 H 17.31 L 17.307,41.045 L 17.304,41.612 L 17.058,41.615 L 16.812,41.618 V 39.046 L 17.058,39.048 L 17.304,39.052 L 17.307,39.558 Z M 21.114,39.259 V 39.473 H 20 V 40.065 H 21.007 V 40.492 H 20 V 41.192 H 21.15 V 41.618 H 19.502 V 39.046 H 21.114 V 39.259 Z M 22.803,39.059 C 22.976,39.073 23.07,39.094 23.169,39.139 C 23.375,39.233 23.52,39.409 23.574,39.634 C 23.601,39.74 23.601,39.937 23.574,40.046 A 0.725,0.725 0 0,1 23.243,40.496 A 1.67,1.67 0 0,0 23.153,40.548 C 23.151,40.548 23.281,40.787 23.442,41.076 C 23.602,41.366 23.733,41.606 23.733,41.611 C 23.733,41.614 23.604,41.617 23.446,41.615 L 23.161,41.612 L 22.898,41.126 L 22.636,40.64 L 22.462,40.636 L 22.287,40.633 L 22.285,41.123 L 22.282,41.612 L 22.036,41.615 L 21.79,41.618 V 39.046 H 22.226 C 22.466,39.046 22.725,39.052 22.803,39.059 Z M 25.483,39.226 L 26.103,41.049 C 26.203,41.339 26.286,41.586 26.29,41.598 C 26.296,41.617 26.28,41.618 26.037,41.615 L 25.779,41.612 L 25.701,41.349 L 25.624,41.084 H 24.722 L 24.702,41.146 L 24.621,41.413 L 24.559,41.618 H 24.313 C 24.178,41.618 24.064,41.614 24.062,41.608 C 24.058,41.604 24.155,41.31 24.275,40.954 L 24.683,39.745 C 24.787,39.435 24.883,39.151 24.897,39.114 L 24.922,39.046 H 25.422 L 25.484,39.226 Z M 27.881,39.074 C 28.171,39.125 28.345,39.238 28.455,39.448 C 28.525,39.58 28.55,39.692 28.55,39.864 C 28.55,40.111 28.488,40.275 28.338,40.428 A 0.665,0.665 0 0,1 27.99,40.616 A 3.5,3.5 0 0,1 27.423,40.658 H 27.253 L 27.251,41.135 L 27.247,41.612 H 26.749 L 26.746,40.344 C 26.745,39.646 26.746,39.068 26.75,39.059 C 26.76,39.034 27.725,39.047 27.881,39.074 Z M 30.678,39.259 V 39.473 H 29.564 V 40.065 L 30.072,40.068 L 30.578,40.071 L 30.581,40.281 L 30.584,40.491 H 29.564 V 41.191 H 30.725 L 30.724,41.401 L 30.72,41.611 H 29.073 L 29.069,40.328 L 29.067,39.046 H 30.678 V 39.259 Z M 31.721,39.964 C 31.727,40.863 31.727,40.878 31.752,40.939 C 31.803,41.063 31.882,41.14 32.006,41.194 C 32.063,41.217 32.091,41.22 32.231,41.22 C 32.369,41.22 32.401,41.216 32.456,41.194 A 0.416,0.416 0 0,0 32.719,40.907 C 32.745,40.831 32.745,40.819 32.75,39.937 L 32.754,39.046 H 33.25 V 39.878 C 33.25,40.745 33.243,40.908 33.202,41.045 A 0.807,0.807 0 0,1 32.787,41.54 C 32.462,41.7 32.013,41.702 31.692,41.547 A 0.813,0.813 0 0,1 31.253,41.016 A 1.905,1.905 0 0,1 31.223,40.774 C 31.211,40.584 31.207,39.066 31.22,39.053 C 31.225,39.05 31.337,39.047 31.471,39.048 L 31.716,39.052 L 31.721,39.964 Z M 35.644,39.259 V 39.473 H 34.969 V 41.618 L 34.724,41.615 L 34.477,41.612 L 34.474,40.542 L 34.471,39.472 L 34.136,39.47 L 33.801,39.467 L 33.798,39.271 C 33.797,39.164 33.798,39.07 33.8,39.061 C 33.805,39.05 33.986,39.046 34.726,39.046 H 35.644 V 39.259 Z M 36.756,40.329 L 36.753,41.612 H 36.267 L 36.263,40.328 L 36.261,39.046 H 36.758 L 36.756,40.328 Z" fill="rgb(254, 254, 253)"/>
<path d="M 22.276999999999997,39.825 V 40.207 H 22.457 C 22.827,40.207 22.985,40.157 23.061,40.013 A 0.524,0.524 0 0,0 23.065,39.686 A 0.314,0.314 0 0,0 22.911,39.532 C 22.82,39.487 22.719,39.474 22.475,39.472 H 22.287 V 39.84 Z M 25.164,39.647 C 25.161,39.652 25.09,39.874 25.007,40.142 L 24.851,40.642 C 24.846,40.654 24.914,40.658 25.166,40.658 C 25.436,40.658 25.487,40.655 25.487,40.641 C 25.487,40.624 25.18,39.648 25.173,39.641 C 25.171,39.639 25.167,39.641 25.163,39.647 Z M 27.241,39.853 V 40.233 L 27.488,40.229 C 27.703,40.224 27.744,40.219 27.816,40.196 C 27.971,40.146 28.047,40.033 28.047,39.852 C 28.047,39.567 27.885,39.472 27.393,39.472 H 27.241 V 39.853 Z M 16.703,29.006 C 16.268,29.047 15.963,29.13 15.612,29.306 A 2.91,2.91 0 0,0 14.284,30.639 C 14.142,30.929 14.054,31.216 14.006,31.552 C 13.981,31.722 13.977,32.112 14,32.281 C 14.055,32.71 14.203,33.135 14.422,33.49 C 14.726,33.981 15.212,34.402 15.732,34.628 C 16.091,34.784 16.428,34.859 16.822,34.873 C 17.622,34.899 18.356,34.621 18.948,34.068 L 19.042,33.98 L 18.644,33.61 C 18.424,33.407 18.239,33.24 18.234,33.24 C 18.229,33.24 18.212,33.255 18.196,33.271 A 1.809,1.809 0 0,1 16.488,33.743 A 1.796,1.796 0 0,1 15.409,32.973 C 14.979,32.307 15.009,31.427 15.483,30.796 A 1.807,1.807 0 0,1 18.172,30.581 L 18.237,30.643 L 18.551,30.35 A 55.84,55.84 0 0,0 18.973,29.959 L 19.044,29.895 L 18.955,29.813 A 2.954,2.954 0 0,0 16.703,29.006 Z M 29.684,29.008 A 1.92,1.92 0 0,0 29.323,29.085 C 28.729,29.275 28.317,29.729 28.201,30.321 A 2.318,2.318 0 0,0 28.201,30.948 C 28.26,31.239 28.367,31.46 28.56,31.69 C 28.755,31.922 29.003,32.223 29.602,32.556 C 29.739,32.632 29.912,32.736 29.987,32.785 C 30.313,32.999 30.452,33.225 30.413,33.477 A 0.463,0.463 0 0,1 30.278,33.754 C 30.16,33.872 30.016,33.919 29.779,33.918 C 29.415,33.917 29.076,33.782 28.636,33.465 C 28.616,33.451 28.589,33.482 28.31,33.854 C 28.142,34.077 28.004,34.265 28,34.274 C 27.99,34.298 28.215,34.501 28.351,34.591 C 28.562,34.731 28.832,34.851 29.086,34.919 C 29.287,34.973 29.416,34.992 29.613,35 C 30.214,35.024 30.765,34.83 31.124,34.47 C 31.379,34.217 31.526,33.912 31.576,33.54 A 2.58,2.58 0 0,0 31.557,32.965 A 2.03,2.03 0 0,0 30.697,31.681 A 7.288,7.288 0 0,0 30.135,31.35 C 29.65,31.082 29.485,30.954 29.391,30.774 C 29.355,30.704 29.353,30.693 29.353,30.576 C 29.353,30.461 29.355,30.446 29.391,30.372 C 29.491,30.161 29.711,30.054 29.976,30.088 C 30.231,30.122 30.497,30.237 30.701,30.403 C 30.739,30.433 30.775,30.455 30.781,30.451 C 30.786,30.448 30.906,30.297 31.049,30.116 C 31.189,29.936 31.338,29.748 31.377,29.7 L 31.448,29.61 L 31.396,29.565 A 2.022,2.022 0 0,0 30.674,29.124 A 2.656,2.656 0 0,0 29.684,29.008 Z M 20,29 C 19.995,29.005 19.992,30.29 19.992,31.858 V 34.995 L 20.437,35 H 21 V 32.636 H 21.573 L 21.685,32.752 C 22.552,33.654 23.034,34.659 24.365,34.916 C 24.625,34.966 25.017,35 25.343,35 H 25.5 V 33.969 L 25.474,33.964 A 3.014,3.014 0 0,0 25.257,33.952 C 24.008,33.913 23.672,33.178 22.915,32.402 L 23.013,32.339 A 1.8,1.8 0 0,0 23.813,31.125 A 2.17,2.17 0 0,0 23.807,30.482 A 1.72,1.72 0 0,0 23.309,29.542 A 1.797,1.797 0 0,0 22.344,29.031 C 22.214,29.005 22.339,29.005 21.124,29 C 20.445,28.999 20.004,28.995 20,29 Z M 22.072,30.019 C 22.125,30.029 22.211,30.06 22.275,30.091 C 22.492,30.196 22.655,30.444 22.697,30.672 A 0.628,0.628 0 0,1 22.697,30.962 A 0.79,0.79 0 0,1 22.096,31.57 C 22.005,31.59 21.956,31.593 21.426,31.593 H 21 V 30 H 21.417 C 21.881,30 21.997,30.004 22.072,30.019 Z M 26.374,31.856 V 35 H 27.5 V 29 H 26.374 V 31.856 Z M 32.326,35 H 33.452 V 32.421 H 34.06 C 34.665,32.421 34.808,32.414 34.987,32.378 C 35.422,32.29 35.832,32.028 36.091,31.674 C 36.341,31.332 36.467,30.876 36.428,30.454 C 36.385,29.994 36.223,29.817 35.906,29.501 C 35.586,29.182 35.213,29.052 34.764,29.011 A 38.513,38.513 0 0,0 33.479,29 H 32.326 V 35 Z M 35.303,30.518 A 0.768,0.768 0 0,1 34.873,31.288 C 34.692,31.375 34.676,31.378 34.024,31.378 H 33.452 V 30 H 34.015 C 34.417,30 35.23,29.95 35.303,30.518 Z" fill="rgb(254, 254, 253)"/>
<defs>
<linearGradient id="a" x1="10.418" x2="68.147" y1="9.712" y2="76.017" gradientUnits="userSpaceOnUse">
<stop stop-color="rgb(25, 29, 31)" offset="0"/>
<stop stop-color="rgb(5, 5, 8)" offset="1"/>
</linearGradient>
</defs>
</svg>
