<?xml version="1.0" encoding="UTF-8"?>
<!-- generated by Finnhub -->
<svg viewBox="0 0 55.5 55.5" xmlns="http://www.w3.org/2000/svg">
<path d="M 0,0 H 55.5 V 55.5 H 0 Z" fill="url(#a)"/>
<path d="M 31.5,18.345 C 31.98,16.19 29.43,11 29.43,11 C 42.54,19.26 38.9,24.07 38.9,24.07 C 38.16,20.51 31.51,18.36 31.51,18.36 Z M 28.19,23.13 C 27.89,21.65 27.45,20.19 26.87,18.79 L 22.54,15.89 S 24.78,19.4 24.44,21.71 L 28.19,23.13 Z M 20.14,22.37 A 27.3,27.3 0 0,1 21.29,26.09 L 17.87,25.24 C 18.23,22.94 16.05,20.14 16.05,20.14 L 20.15,22.37 Z M 43.84,31.72 C 42.84,27.56 27.59,16.82 27.59,16.82 A 18.99,18.99 0 0,1 27.81,35.26 A 23.75,23.75 0 0,0 28.58,26.22 L 28.53,25.72 L 21.21,20.82 A 18.8,18.8 0 0,1 22.72,26.8 A 18.8,18.8 0 0,1 20.98,36.63 C 21.63,34.01 21.83,31.3 21.58,28.62 C 21.54,28.5 21.54,28.4 21.54,28.29 L 14.7,24.64 A 15.6,15.6 0 0,1 15.34,36.39 C 14.64,38.47 13.49,40.39 12,42 C 41.21,29.58 42.4,37.76 42.4,37.76 S 44.6,34.86 43.84,31.72 Z" fill="rgb(254, 254, 253)"/>
<defs>
<linearGradient id="a" x1="10.42" x2="68.15" y1="9.71" y2="76.02" gradientUnits="userSpaceOnUse">
<stop stop-color="rgb(25, 29, 31)" offset="0"/>
<stop stop-color="rgb(5, 5, 8)" offset="1"/>
</linearGradient>
</defs>
</svg>
