<?xml version="1.0" encoding="UTF-8"?>
<!-- generated by Finnhub -->
<svg viewBox="0 0 55.5 55.5" xmlns="http://www.w3.org/2000/svg">
<path d="M 0,0 H 55.5 V 55.5 H 0 Z" fill="rgb(251, 1, 3)"/>
<path d="M 9.99,14.024999999999999 C 10,14.14 10.75,15.64 10.84,15.72 C 11.1,16.11 11.58,16.75 11.99,17.23 A 22.38,22.38 0 0,0 16.12,20.8 C 16.47,21.05 16.82,21.3 17.19,21.54 C 17.72,21.89 18.25,22.21 18.78,22.52 C 19.22,22.79 19.68,23.06 20.12,23.35 C 21.52,24.25 23.59,25.57 24.82,26.93 C 24.98,27.17 25.09,27.25 25.09,27.13 C 25.09,27.04 24.84,26.6 24.75,26.49 A 14.43,14.43 0 0,0 21.2,22.74 L 21,22.6 C 19.9,21.8 18.83,21.02 17.62,20.39 A 19.05,19.05 0 0,1 14.72,18.31 L 13.95,17.68 C 13.18,17.08 10.55,14.59 10.28,14.21 C 10.17,14.04 10,13.94 10,14.04 Z M 15.62,15.11 C 15.5,15.23 16.18,16.38 16.27,16.48 C 16.54,16.94 17.93,18.79 19.22,19.63 C 19.57,19.91 19.99,20.21 20.42,20.53 C 21.32,21.19 22.32,21.93 23.14,22.67 C 24.01,23.44 24.69,24.17 25.09,24.77 C 25.61,25.53 26.07,26.34 26.53,27.14 C 27,27.95 27.47,28.77 28,29.54 A 8.68,8.68 0 0,0 31.76,32.8 C 32.41,33.06 33.76,33.16 35.53,33.08 C 36.95,33.03 38.32,33.08 39.66,33.38 C 40.23,33.52 40.96,33.86 41.4,34.08 C 42.5,34.61 43.38,35.25 44.32,36.18 C 44.94,36.8 44.96,36.82 45,36.66 C 45,36.03 44.91,35.72 44.71,35.31 A 5.3,5.3 0 0,0 43.86,34.11 C 43.7,33.91 43.59,33.72 43.59,33.64 C 43.59,33.4 43.35,33.02 43.08,32.82 A 9.51,9.51 0 0,0 41.03,31.87 C 40.75,31.78 40.46,31.68 40.23,31.62 A 9.2,9.2 0 0,1 38.7,31.08 A 0.89,0.89 0 0,1 38.32,30.45 C 38.32,30.09 38.47,29.73 38.63,29.37 C 38.75,29.09 38.87,28.82 38.92,28.55 C 39.12,27.4 38.49,26.67 36.46,25.67 C 35.36,25.14 34.19,24.72 33.02,24.35 L 29.24,23.18 L 26.7,22.4 C 25.52,22.06 24.25,21.45 23.13,20.9 L 23.05,20.87 A 20.64,20.64 0 0,1 15.75,15.2 L 15.66,15.09 C 15.66,15.08 15.63,15.09 15.62,15.11 Z M 42.39,33.01 C 43,33.21 43.19,33.37 43.34,33.73 C 43.48,34.07 43.24,34.16 42.95,33.86 C 42.85,33.76 42.68,33.62 42.57,33.55 A 2.37,2.37 0 0,1 42.28,33.35 A 0.27,0.27 0 0,0 42.12,33.27 C 42.04,33.27 41.97,33.15 41.97,33 C 41.97,32.9 42.05,32.9 42.39,33.01 Z M 11.32,18.83 C 11.32,18.9 11.82,19.89 11.92,20 A 24.17,24.17 0 0,0 16.11,23.76 A 35.56,35.56 0 0,0 20.54,26.19 C 21.36,26.59 22.19,26.98 22.97,27.45 A 12.23,12.23 0 0,1 25.3,29.31 C 25.31,29.31 25.29,29.25 25.25,29.17 C 25.16,28.96 24.95,28.7 24.82,28.53 L 24.81,28.52 C 24.37,27.95 24.01,27.61 22.91,26.68 C 22.21,26.08 21.41,25.65 20.6,25.22 C 20.08,24.95 19.56,24.67 19.07,24.35 C 17.58,23.62 16.47,22.89 15.23,22.07 L 15.18,22.03 C 14.64,21.61 14.08,21.19 13.52,20.78 L 13.44,20.72 C 13.11,20.47 12.68,20.08 11.87,19.3 C 11.57,19 11.32,18.8 11.32,18.83 Z M 18.12,29.41 C 18.06,29.47 19.06,30.39 19.72,30.88 C 20.41,31.38 22.24,32.29 22.9,32.61 C 24.01,33.15 24.86,33.31 25.6,33.46 C 25.93,33.53 26.25,33.59 26.55,33.68 C 26.79,33.78 27.03,33.85 27.28,33.92 C 27.54,34 27.8,34.07 28.04,34.18 C 29.02,34.6 29.28,34.7 29.32,34.68 C 29.34,34.65 29.28,34.58 29.18,34.5 C 28.88,34.27 28.61,34.01 28.33,33.75 L 27.84,33.31 C 27.54,33.05 26.28,32.13 26.01,31.97 L 25.9,31.9 C 25.16,31.47 24.42,31.04 23.62,30.7 A 4.48,4.48 0 0,1 23.35,30.58 C 23.1,30.46 22.81,30.32 22.61,30.32 C 22.48,30.32 22.48,30.32 22.61,30.39 C 22.93,30.56 23.95,31.13 23.95,31.48 C 23.95,31.51 23.91,31.58 23.85,31.62 C 23.52,31.9 22.39,31.54 21.82,31.36 L 21.62,31.29 C 20.68,31.01 18.8,29.99 18.26,29.46 C 18.2,29.41 18.14,29.39 18.12,29.41 Z M 32.52,36.65 A 76.01,76.01 0 0,0 28.35,32.46 C 27.79,31.95 27.64,31.75 28.05,32.05 A 9.2,9.2 0 0,0 30.95,33.55 C 32.36,33.97 33.71,33.84 35.15,33.65 A 18.4,18.4 0 0,1 39.07,33.65 C 40.43,33.96 42.1,34.83 42.93,35.43 C 43.12,35.57 43.06,35.57 42.68,35.56 H 42.26 C 41.23,35.56 40.61,35.69 39.61,36.16 C 38.77,36.56 37.96,36.93 37.01,36.98 C 36.26,37.02 36.24,37.07 36.77,37.54 C 37.28,38 37.87,38.19 39.01,38.26 C 39.68,38.31 40.11,38.42 40.28,38.6 C 40.39,38.73 40.41,39.22 40.33,39.66 C 40.29,39.89 40.17,39.98 40.17,39.78 A 2,2 0 0,0 39.87,39.06 C 39.21,38.23 37.12,38.66 37.12,39.86 C 37.12,40.14 37.33,40.44 37.75,40.76 C 37.9,40.86 38.01,40.98 38,40.99 C 37.95,41.04 37.13,40.82 37.06,40.74 A 2.43,2.43 0 0,1 36.03,39.5 C 35.84,39.1 35.83,39.1 35.7,39.07 A 0.65,0.65 0 0,0 35.37,39.17 A 2.7,2.7 0 0,1 33.95,39.19 A 2.79,2.79 0 0,1 33.17,38.81 C 33.17,38.78 33.32,38.78 33.5,38.81 C 33.8,38.84 33.83,38.83 33.83,38.73 C 33.83,38.62 33.79,38.59 33.43,38.41 C 33.21,38.31 32.56,37.86 32.31,37.66 C 31.77,37.19 30.91,36.35 30.73,36.1 C 30.62,35.95 30.71,35.96 30.89,36.12 A 3.95,3.95 0 0,0 32.37,36.88 C 32.51,36.88 32.59,36.76 32.52,36.65 Z" fill="rgb(254, 254, 253)"/>
</svg>
