<?xml version="1.0" encoding="UTF-8"?>
<!-- generated by Finnhub -->
<svg viewBox="0 0 55.5 55.5" xmlns="http://www.w3.org/2000/svg">
<path d="M 0,0 H 55.5 V 55.5 H 0 Z" fill="rgb(26, 159, 213)"/>
<path d="M 18.569,31.308 H 20.508 V 38.818 H 18.578 V 31.323 Z M 35.95,33.424 C 35.888,33.364 35.28,33 34.305,33 C 33.086,33 32.173,33.849 32.173,35 S 33.025,37 34.305,37 C 35.218,37 35.828,36.636 35.949,36.576 V 38.636 C 35.706,38.697 35.036,38.879 34.183,38.879 C 31.99,38.879 30.102,37.424 30.102,34.939 C 30.102,32.697 31.807,31 34.182,31 C 35.096,31 35.766,31.242 35.949,31.242 V 33.424 Z M 15.848,33.424 C 15.787,33.364 15.178,33 14.203,33 C 12.985,33 12.071,33.849 12.071,35 S 12.924,37 14.203,37 C 15.117,37 15.726,36.636 15.848,36.576 V 38.636 C 15.604,38.697 14.934,38.879 14.081,38.879 C 11.949,38.879 10,37.424 10,34.939 C 10,32.697 11.706,31 14.081,31 C 14.995,31 15.665,31.242 15.848,31.242 V 33.424 Z M 46,35.06 C 46,37.242 44.294,39 41.98,39 C 39.665,39 37.96,37.242 37.96,35.06 C 37.96,32.879 39.665,31.121 41.98,31.121 C 44.355,31.121 46,32.879 46,35.061 Z M 41.98,33.06 C 40.822,33.06 39.97,33.97 39.97,35.06 C 39.97,36.151 40.822,37.06 41.98,37.06 C 43.137,37.06 43.99,36.151 43.99,35.06 C 43.99,33.97 43.137,33.06 41.98,33.06 Z M 27.726,33 S 26.873,32.758 26.203,32.758 C 25.411,32.758 24.985,33 24.985,33.364 C 24.985,33.849 25.533,33.97 25.838,34.091 L 26.386,34.273 C 27.604,34.697 28.213,35.545 28.213,36.454 C 28.213,38.334 26.508,39 25.046,39 C 24.01,39 23.036,38.818 22.975,38.818 V 37.061 C 23.157,37.121 23.949,37.364 24.802,37.364 C 25.777,37.364 26.203,37.061 26.203,36.636 C 26.203,36.273 25.838,36.03 25.35,35.909 A 1.134,1.134 0 0,0 24.924,35.788 C 23.828,35.424 22.974,34.818 22.974,33.546 C 22.974,32.151 24.071,31.182 25.838,31.182 C 26.751,31.182 27.665,31.424 27.726,31.424 V 33 Z" fill="rgb(254, 254, 253)"/>
<path d="M 17.99,17.985 V 28 M 38,18 V 28 M 33,21 V 26 M 23,21 V 26 M 43,21 V 26 M 13,21 V 26 M 8,24 V 26 M 48,24 V 26 M 28,24 V 26" stroke="rgb(254, 254, 253)" stroke-linecap="round" stroke-width="2"/>
</svg>
