<?xml version="1.0" encoding="UTF-8"?>
<!-- generated by Finnhub -->
<svg viewBox="0 0 55.5 55.5" xmlns="http://www.w3.org/2000/svg">
<path d="M 0,0 H 55.5 V 55.5 H 0 Z" fill="rgb(15, 78, 138)"/>
<path d="M 41.99,32.985 L 40.513,31 L 39.006,33 H 40.006 V 36 H 33.208 V 33.5 H 33.152 C 32.387,35.268 30.596,35.996 28.699,35.927 C 27.785,35.927 26.756,35.609 26.006,35.175 V 36 L 22.88,35.978 L 22.866,30.721 L 22.849,30.705 C 22.607,31.233 22.412,31.799 22.095,32.304 C 20.522,35.059 17.59,36.152 14.605,35.819 C 12.095,35.601 9.708,33.715 8.688,31.335 C 7.578,28.767 7.781,25.237 9.519,23.026 C 11.386,20.513 14.402,19.481 17.356,20.109 A 8.16,8.16 0 0,1 19.556,21 V 20 H 22.006 V 25.025 L 18.784,25 C 17.847,23.697 16.374,23.453 14.839,23.793 C 13.373,24.073 12.036,25.516 11.794,27.02 C 11.484,28.736 12.164,30.395 13.554,31.38 C 14.65,32.234 16.419,32.266 17.559,31.497 C 18.149,31.132 18.659,30.589 19.006,30 H 26.685 C 26.805,30.839 26.832,31.675 27.391,32.327 C 27.694,32.614 28.131,32.699 28.563,32.614 C 29.032,32.544 29.515,32.126 29.651,31.644 C 29.788,31.141 29.651,30.597 29.303,30.24 C 29.025,29.953 28.676,29.813 28.336,29.658 C 26.477,28.991 24.195,28.184 23.478,25.973 C 22.918,24.057 23.576,22.048 25.118,20.853 C 26.371,19.876 28.426,19.581 29.84,20.427 L 30.256,20.706 C 30.323,20.698 30.294,20.613 30.302,20.559 V 20 H 33.015 V 25.345 H 29.96 C 29.78,24.585 29.832,23.623 29.032,23.219 C 28.585,23.049 27.973,23.033 27.618,23.406 C 27.278,23.708 27.142,24.142 27.218,24.609 C 27.286,25.237 27.883,25.632 28.42,25.795 C 29.583,26.245 30.784,26.571 31.796,27.393 C 33.309,28.495 33.884,30.924 33.401,32.753 C 33.377,32.801 33.371,32.909 33.371,32.909 L 33.445,32.964 H 34.511 L 38.501,27.688 L 34.948,23.008 L 34,23 V 20 H 40 V 23 H 39.006 L 40.506,25 L 42.006,23 H 41 V 20 H 48 V 23 H 46.506 L 42.8,27.742 L 46.506,33 H 48.01 L 48.006,36 H 41.006 V 33 H 42 Z" fill="rgb(254, 254, 253)"/>
</svg>
