<?xml version="1.0" encoding="UTF-8"?>
<!-- generated by Finnhub -->
<svg viewBox="0 0 55.5 55.5" xmlns="http://www.w3.org/2000/svg">
<path d="M 0,0 H 55.5 V 55.5 H 0 Z" fill="rgb(1, 32, 103)"/>
<path d="M 12.99,26.477 C 12.007,25.837 11.466,25.471 10.15,25.471 C 8.55,25.471 7.253,26.831 7.253,28.509 C 7.253,30.188 8.551,31.548 10.15,31.548 C 11.408,31.548 11.665,31.431 13,30.568 V 33.585 A 6.53,6.53 0 0,1 10.15,34.233 C 6.732,34.233 3.96,31.67 3.96,28.509 S 6.732,22.787 10.15,22.787 A 6.62,6.62 0 0,1 13,23.423 V 26.493 Z M 17,23 H 14 V 34 H 17 V 23 Z M 15.5,22.371 C 16.471,22.371 17.256,21.617 17.256,20.687 C 17.256,19.758 16.471,19.004 15.501,19.004 C 14.531,19.004 13.744,19.758 13.744,20.687 C 13.744,21.617 14.531,22.371 15.501,22.371 Z M 49.439,27.253 C 49.026,27.092 47.878,26.765 47.689,26.69 C 46.189,26.101 46.735,25.004 47.846,25.004 C 48.668,25.004 49.441,25.331 50,25.688 V 23.058 C 48.914,22.742 48.218,22.624 47.318,22.624 C 44.9,22.624 43.658,24.318 43.652,26.027 C 43.649,27.228 44.622,28.547 45.756,28.948 C 46.756,29.301 46.906,29.359 47.504,29.556 C 48.698,29.951 48.701,31.58 47.07,31.58 C 46.542,31.58 45.232,31.431 44.456,29.824 L 39.86,18.648 L 34,33.49 V 26 H 36 V 23 H 26 V 29.547 L 21.123,23 H 18 V 34 H 21 V 27.299 L 26.102,34 H 29 V 26 H 31 V 34 H 37.095 L 37.812,32.008 H 41.277 L 40.452,30 H 38.587 L 39.859,25.938 L 41.574,30.508 C 42.661,33.306 44.71,34.272 47.007,34.272 C 49.304,34.272 51.632,32.979 51.632,30.332 C 51.632,28.437 50.474,27.654 49.439,27.252 Z" fill="rgb(254, 254, 253)"/>
</svg>
