<?xml version="1.0" encoding="UTF-8"?>
<!-- generated by Finnhub -->
<svg viewBox="0 0 55.5 55.5" xmlns="http://www.w3.org/2000/svg">
<path d="M 0,0 H 55.5 V 55.5 H 0 Z" fill="url(#a)"/>
<path d="M 37.446000000000005,25.985 C 35.758,24.467 33.661,22.98 31.276,21.683 C 23.7,17.566 16.216,16.921 14.4,20.253 C 12.583,23.586 17.122,29.634 24.698,33.751 C 32.273,37.868 39.748,38.504 41.565,35.171 C 42.313,33.798 42.099,31.967 40.897,30 H 32.683 C 33.75,31.599 34.177,32.903 33.677,33.412 C 32.837,34.269 29.692,32.554 26.654,29.582 C 23.617,26.609 21.836,23.505 22.677,22.648 C 23.471,21.838 26.323,23.326 29.197,26 H 37.456 Z" fill="rgb(111, 199, 42)"/>
<path d="M 27.009999999999998,11.985 A 7,7 0 0,0 20.02,19 V 37 A 7,7 0 0,0 27.02,44 H 29.02 A 7,7 0 0,0 36.02,37 V 31 H 29.02 V 38 A 1,1 0 1,1 27.02,38 V 18 A 1,1 0 1,1 29.02,18 V 23 H 36.02 V 19 A 7,7 0 0,0 29.02,12 H 27.02 Z" fill="rgb(8, 147, 219)"/>
<path d="M 33.498000000000005,22.985 A 35.306,35.306 0 0,0 29.019,20.553 V 23 H 33.508 Z M 27.019,19.721 C 24.502,18.771 22.109,18.238 20.072,18.142 A 7.058,7.058 0 0,0 20.02,19 V 30.677 A 33.668,33.668 0 0,0 24.716,33.751 C 25.486,34.17 26.256,34.553 27.019,34.899 V 29.919 C 26.903,29.808 26.786,29.696 26.67,29.582 C 23.637,26.609 21.859,23.505 22.698,22.648 C 23.286,22.048 25.002,22.709 27.02,24.181 V 19.721 Z M 29.019,31.625 V 35.728 C 31.559,36.682 33.969,37.211 36.013,37.296 C 36.018,37.198 36.02,37.099 36.02,37 V 31 H 33.293 C 33.897,32.13 34.073,33.014 33.683,33.412 C 33.062,34.046 31.183,33.273 29.02,31.625 Z" fill="rgb(128, 196, 236)"/>
<defs>
<linearGradient id="a" x1="10.418" x2="68.147" y1="9.712" y2="76.017" gradientUnits="userSpaceOnUse">
<stop stop-color="rgb(25, 29, 31)" offset="0"/>
<stop stop-color="rgb(5, 5, 8)" offset="1"/>
</linearGradient>
</defs>
</svg>
