<?xml version="1.0" encoding="UTF-8"?>
<!-- generated by Finnhub -->
<svg viewBox="0 0 55.5 55.5" xmlns="http://www.w3.org/2000/svg">
<path d="M 0,0 H 55.5 V 55.5 H 0 Z" fill="rgb(206, 29, 44)"/>
<path d="M 11.99,16.985 L 30.6,12 L 44,18.64 V 39 L 25.79,44 L 15,39 L 12,37.79 V 17 Z M 15,35.12 L 24,32.66 V 24.3 L 15,20.07 V 35.12 Z M 24,35.72 L 18,37.31 L 24,40.11 V 35.71 Z M 27,40.7 V 34.92 L 30.48,34 L 38,37.7 L 27,40.7 Z M 27,31.84 V 24.8 L 29,24.23 V 31.29 L 27,31.84 Z M 32,31.57 L 41,36.15 V 20.82 L 32,23.38 V 31.57 Z M 38,18.69 L 32,20.33 V 15.74 L 38,18.69 Z M 18,18.31 L 29,15.39 V 21.15 L 25.9,22 L 18,18.3 Z" fill="rgb(253, 252, 253)" fill-rule="evenodd"/>
</svg>
