<?xml version="1.0" encoding="UTF-8"?>
<!-- generated by Finnhub -->
<svg viewBox="0 0 55.5 55.5" xmlns="http://www.w3.org/2000/svg">
<path d="M 0,0 H 55.5 V 55.5 H 0 Z" fill="rgb(60, 86, 93)"/>
<path d="M 22.601,32.092 L 23.784,27.274 C 23.892,26.826 24,26.324 24,25.927 C 24,24.647 23.349,24 22.198,24 H 18.714 L 17,31 H 18.2 C 18.649,31 18.924,30.583 19.04,30.107 L 19.793,27.102 C 19.793,27.098 19.795,27.094 19.797,27.09 L 20.135,25.69 H 21.183 C 21.746,25.69 22.07,25.993 22.07,26.56 C 22.07,26.733 22.034,26.997 21.986,27.195 L 20.574,33 H 21.772 C 22.22,33 22.496,32.584 22.612,32.107 Z M 4,27.965 C 4,25.768 5.713,24 7.733,24 C 9.127,24 9.896,24.677 10.333,25.48 L 8.962,26.508 C 8.644,25.995 8.301,25.631 7.592,25.631 C 6.646,25.631 5.772,26.722 5.772,27.965 C 5.772,28.83 6.315,29.381 7.012,29.381 C 7.568,29.381 7.97,29.143 8.442,28.717 L 9.364,29.959 C 8.703,30.586 8.029,31 6.954,31 C 5.228,31 4,29.795 4,27.965 Z M 15.108,27 A 1.96,1.96 0 0,0 15.167,26.522 C 15.167,25.969 14.86,25.531 14.127,25.531 C 13.311,25.531 12.649,26.147 12.355,27 H 15.108 Z M 13.643,29.47 C 14.116,29.47 14.529,29.319 15.049,28.93 L 15.876,30.11 C 15.309,30.61 14.516,31 13.442,31 C 11.622,31 10.512,29.87 10.512,28.014 C 10.511,26.07 12,24 14.268,24 C 15.911,24 16.856,25.129 16.856,26.622 C 16.856,27.099 16.738,27.486 16.536,28 H 12.2 C 12.259,28.79 12.696,29.47 13.642,29.47 Z M 45.807,29.783 L 46.847,28.642 C 47.509,29.344 48.218,29.545 48.785,29.545 C 49.257,29.545 49.542,29.331 49.542,28.955 C 49.542,28.704 49.245,28.529 48.808,28.328 C 47.816,27.876 46.966,27.437 46.966,26.358 C 46.966,25.016 47.933,24 49.506,24 C 50.533,24 51.479,24.477 52,24.966 L 51.03,26.171 C 50.416,25.656 49.895,25.455 49.376,25.455 C 48.939,25.455 48.679,25.668 48.679,26.02 C 48.679,26.284 48.985,26.472 49.517,26.723 C 50.344,27.111 51.255,27.575 51.255,28.629 C 51.255,30.097 50.167,31 48.654,31 C 47.697,31 46.551,30.61 45.807,29.783 Z M 29.961,27.161 C 29.961,26.183 29.406,25.631 28.591,25.631 C 27.491,25.631 26.771,26.885 26.771,27.839 C 26.771,28.818 27.326,29.369 28.141,29.369 C 29.241,29.369 29.961,28.114 29.961,27.161 Z M 25.011,27.889 C 25.011,25.882 26.641,24 28.673,24 C 30.552,24 31.722,25.317 31.722,27.111 C 31.722,29.118 30.091,31 28.059,31 C 26.18,31 25.01,29.683 25.01,27.89 Z M 44.908,24 C 44.608,24.088 44.338,24.265 44.201,24.53 L 43.602,26.99 L 43.037,29.329 H 42.003 C 41.448,29.329 41.128,29.029 41.128,28.466 C 41.128,28.296 41.164,28.036 41.21,27.839 L 42.145,24 H 40.927 C 40.627,24.088 40.355,24.266 40.22,24.532 L 39.439,27.762 C 39.332,28.205 39.225,28.702 39.225,29.094 C 39.225,30.36 39.933,31 41.068,31 H 44.437 L 46.127,24 H 44.907 Z M 39.092,23 H 38.927 A 0.99,0.99 0 0,0 38.077,23.538 L 34.877,28.817 L 34.654,24.902 C 34.611,24.452 34.285,24 33.842,24 H 32.75 L 33.519,31 H 35.149 L 40.329,23 H 39.093 Z" fill="rgb(254, 254, 253)"/>
</svg>
