<?xml version="1.0" encoding="UTF-8"?>
<!-- generated by Finnhub -->
<svg viewBox="0 0 55.5 55.5" xmlns="http://www.w3.org/2000/svg">
<path d="M 0,0 H 55.5 V 55.5 H 0 Z" fill="rgb(56, 171, 212)"/>
<path d="M 28.183999999999997,13.254999999999999 C 26.334,13.26 24.477,13.387 22.637,13.652 C 21.778,13.751 20.939,13.976 20.147,14.321 H 20.302 A 8.435,8.435 0 0,0 22.058,14.818 C 24.085,15.155 26.138,15.315 28.194,15.296 C 30.047,15.315 31.898,15.186 33.731,14.914 A 9.116,9.116 0 0,0 36.22,14.264 H 36.066 A 8.549,8.549 0 0,0 34.329,13.766 A 35.76,35.76 0 0,0 28.193,13.288 V 13.269 Z M 28.194,16.654 A 37.608,37.608 0 0,1 22.405,16.252 A 7.357,7.357 0 0,1 19.009,15.143 A 1.276,1.276 0 0,1 18.623,14.34 C 18.646,14.034 18.783,13.747 19.009,13.537 C 19.215,13.349 19.449,13.194 19.704,13.078 A 9.852,9.852 0 0,1 21.749,12.504 A 35.035,35.035 0 0,1 28.136,12.007 A 37.764,37.764 0 0,1 33.924,12.39 A 6.947,6.947 0 0,1 37.281,13.575 A 1.09,1.09 0 0,1 37.686,14.378 A 1.12,1.12 0 0,1 37.281,15.181 C 37.079,15.354 36.851,15.496 36.606,15.601 A 9.418,9.418 0 0,1 34.561,16.195 A 36.69,36.69 0 0,1 28.194,16.692" fill="rgb(250, 181, 71)"/>
<path d="M 42.693000000000005,30.121 A 23.31,23.31 0 0,1 40.773,27.286 H 40.928 S 44.498,27.096 43.861,25.871 C 43.861,25.871 43.166,24.399 40.542,24.399 H 40.176 C 40.06,24.399 39.886,24.399 39.828,25.355 A 12.403,12.403 0 0,0 36.143,20.517 A 3.764,3.764 0 0,0 34.908,20.097 C 34.156,19.962 28.464,19.905 28.001,19.905 C 27.538,19.905 21.846,19.905 21.093,20.096 A 3.59,3.59 0 0,0 19.859,20.517 A 12.403,12.403 0 0,0 16.173,25.355 C 16.173,24.456 15.942,24.399 15.807,24.399 H 15.459 C 12.835,24.399 12.141,25.871 12.141,25.871 C 11.504,27.095 15.074,27.287 15.074,27.287 H 15.228 A 23.32,23.32 0 0,1 13.298,30.136 A 8.069,8.069 0 0,0 12.276,31.608 A 4.57,4.57 0 0,0 12.006,33.291 V 43.471 A 0.474,0.474 0 0,0 12.249,43.949 C 12.305,43.979 12.367,43.999 12.43,44.006 L 16.675,44 A 0.486,0.486 0 0,0 17.103,43.656 A 0.473,0.473 0 0,0 17.119,43.465 V 43 H 38.883 V 43.465 A 0.475,0.475 0 0,0 39.14,43.948 C 39.198,43.978 39.261,43.995 39.327,44 H 43.555 A 0.486,0.486 0 0,0 43.983,43.656 A 0.475,0.475 0 0,0 43.999,43.465 L 43.996,38.289 S 43.957,34.229 43.996,33.291 A 4.003,4.003 0 0,0 43.706,31.608 A 7.302,7.302 0 0,0 42.703,30.136 Z M 17.775,26.196 A 28.097,28.097 0 0,1 20.515,21.224 S 22.849,21.11 25.955,21.091 V 21.856 A 0.362,0.362 0 0,0 26.322,22.219 H 29.93 A 0.37,0.37 0 0,0 30.287,21.999 A 0.36,0.36 0 0,0 30.317,21.856 V 21.32 L 30.22,21.09 C 33.326,21.09 35.642,21.224 35.642,21.224 A 28.614,28.614 0 0,1 38.478,26.177 C 38.69,26.751 38.211,26.997 38.211,26.997 H 17.95 S 17.465,26.77 17.774,26.197 Z M 13.915,34.611 C 13.125,34.419 13.048,33.941 13.048,33.941 A 4.4,4.4 0 0,1 13.298,31.895 C 13.416,31.629 13.621,31.41 13.88,31.275 C 14.14,31.139 14.438,31.095 14.726,31.149 C 15.554,31.407 16.34,31.78 17.061,32.259 C 18.411,32.947 18.585,35.299 18.585,35.299 A 40.429,40.429 0 0,1 13.915,34.611 Z M 36.047,35.433 C 33.635,35.624 30.162,35.643 28.059,35.643 C 25.956,35.643 22.483,35.643 20.071,35.433 C 20.071,35.433 19.396,33.98 20.437,33.941 C 20.573,33.941 23.679,33.827 28.155,33.827 C 32.632,33.827 35.641,33.941 35.777,33.941 C 36.703,34.056 36.027,35.509 36.027,35.509 L 36.047,35.433 Z M 43.07,33.941 S 42.973,34.419 42.202,34.611 C 40.654,34.931 39.088,35.161 37.513,35.299 C 37.513,35.299 37.706,32.947 39.037,32.259 A 9.452,9.452 0 0,1 41.372,31.149 C 41.662,31.097 41.962,31.142 42.224,31.277 S 42.695,31.629 42.819,31.895 C 43.057,32.576 43.136,33.302 43.051,34.018 L 43.07,33.941 Z" fill="rgb(254, 254, 253)"/>
</svg>
