<?xml version="1.0" encoding="UTF-8"?>
<!-- generated by Finnhub -->
<svg viewBox="0 0 55.5 55.5" xmlns="http://www.w3.org/2000/svg">
<path d="M 0,0 H 55.5 V 55.5 H 0 Z" fill="url(#a)"/>
<path d="M 20.127,14.985 A 4.103,4.103 0 0,0 17.168,16.28 L 11.227,22.443 C 9.59,24.14 9.59,26.903 11.233,28.606 L 28.002,46 L 44.77,28.606 C 46.412,26.905 46.409,24.144 44.768,22.443 L 38.831,16.283 A 4.098,4.098 0 0,0 35.863,15.002 A 4.119,4.119 0 0,0 32.884,16.288 L 28.003,21.354 L 23.113,16.281 A 4.11,4.11 0 0,0 20.136,15 Z" fill="rgb(216, 36, 35)"/>
<defs>
<linearGradient id="a" x1="10.418" x2="68.147" y1="9.712" y2="76.017" gradientUnits="userSpaceOnUse">
<stop stop-color="rgb(25, 29, 31)" offset="0"/>
<stop stop-color="rgb(5, 5, 8)" offset="1"/>
</linearGradient>
</defs>
</svg>
