<?xml version="1.0" encoding="UTF-8"?>
<!-- generated by Finnhub -->
<svg viewBox="0 0 55.5 55.5" xmlns="http://www.w3.org/2000/svg">
<path d="M 0,0 H 55.5 V 55.5 H 0 Z" fill="rgb(239, 242, 248)"/>
<path d="M 20.41,34.285 A 12.33,12.33 0 0,1 18,26.79 A 11.6,11.6 0 0,1 20.75,19.39 C 20,19.75 19.29,20.19 18.63,20.69 C 13.25,24.79 12.09,32.39 16,37.63 C 19.92,42.88 27.5,43.8 32.91,39.69 C 33.53,39.19 34.11,38.64 34.66,38.05 C 33.1,38.76 31.41,39.01 29.72,39.01 C 26.04,39.01 22.62,37.31 20.42,34.31 Z" fill="rgb(95, 98, 104)"/>
<path d="M 43.21,25.655 A 7.27,7.27 0 0,1 41.26,27.81 C 40.54,28.35 39.73,28.77 38.88,29.06 A 3.16,3.16 0 0,0 36.62,31.63 A 11.49,11.49 0 0,1 33.83,37.68 C 31.53,40.27 28.7,42 25.2,42 C 19.26,42 14,36.35 14,30.6 C 14,28.34 14.42,26.09 15.59,24.14 A 11.41,11.41 0 0,1 20.51,19.68 C 21.58,19.18 22.71,19 23.87,19 C 24.93,19 26.01,19.12 27.07,19.28 A 2.7,2.7 0 0,0 28.63,19.08 C 29.83,18.52 29.98,17.24 30.83,16.35 C 31.72,15.4 32.83,14.45 34.06,14.05 C 34.49,13.93 34.92,13.85 35.34,13.75 A 16.44,16.44 0 0,0 27.81,12 C 19.44,12 12,19.44 12,27.81 C 12,36.67 19,44 28.42,44 C 37.13,44 44,36.24 44,27.8 C 44,26.8 43.89,25.8 43.7,24.8 C 43.52,25.06 43.4,25.36 43.22,25.66 Z" fill="rgb(158, 203, 57)"/>
<path d="M 35.09,17.215 C 34.4,17.46 33.78,17.86 33.27,18.4 C 33.08,18.63 32.88,18.86 32.69,19.14 A 4.47,4.47 0 0,0 38.71,25.4 A 4.59,4.59 0 0,0 40.73,23.04 A 4.48,4.48 0 0,0 35.11,17.24 Z" fill="rgb(95, 98, 104)"/>
</svg>
