<?xml version="1.0" encoding="UTF-8"?>
<!-- generated by Finnhub -->
<svg viewBox="0 0 55.5 55.5" xmlns="http://www.w3.org/2000/svg">
<path d="M 0,0 H 55.5 V 55.5 H 0 Z" fill="rgb(161, 40, 38)"/>
<path d="M 27.715,40.155 C 23.321,40.15 20.752,39.45 20.845,34.41 C 24.697,35.553 23.986,39.154 27.725,40.17 Z M 23.895,20.388 C 20.89,22.908 17.862,20.536 15.041,23.014 C 17.266,19.498 19.193,17.782 23.895,20.388 Z" fill="rgb(254, 254, 253)"/>
<path d="M 15.146,21.855 C 15.729,18.015 13.137,15.918 19.445,12 C 22.335,16.935 17.518,17.761 15.155,21.87 Z M 20.041,22.739 C 18.803,26.319 14.904,25.641 13.803,29.093 C 13.803,25.048 14.56,22.675 20.041,22.739 Z" fill="rgb(254, 254, 253)"/>
<path d="M 13.265,28.273 C 11.693,24.688 8.298,24.073 11.647,17.761 C 16.807,20.706 13.092,23.65 13.275,28.288 Z M 8,26.34 C 14.078,26.51 12.45,30.788 15.11,34.706 C 11.807,32.334 8.528,33.372 8,26.34 Z M 9.514,35.469 C 14.881,32.821 15.775,37.269 20.202,39.429 C 16.027,38.9 13.757,41.315 9.514,35.469 Z" fill="rgb(254, 254, 253)"/>
<path d="M 15.995,34.945 C 13.825,31.444 13.183,29.03 17.977,26.573 C 18.826,30.237 15.11,31.465 16.004,34.96 Z M 18.275,30.851 C 21.005,33.626 18.435,36.421 21.119,39.027 C 17.312,36.973 15.454,35.172 18.275,30.851 Z M 15.752,42.67 C 18.963,37.905 22.128,41.336 27.152,41.166 C 23.252,42.628 22.587,45.784 15.752,42.67 Z M 28.298,40.17 C 32.702,40.15 35.271,39.45 35.178,34.41 C 31.303,35.553 32.037,39.133 28.298,40.17 Z M 32.105,20.388 C 35.11,22.908 38.115,20.536 40.959,23.014 C 38.757,19.498 36.807,17.782 32.105,20.388 Z" fill="rgb(254, 254, 253)"/>
<path d="M 40.834,21.855 C 40.271,18.015 42.885,15.918 36.555,12 C 33.688,16.935 38.505,17.761 40.844,21.87 Z M 35.959,22.739 C 37.197,26.319 41.096,25.641 42.197,29.093 C 42.197,25.048 41.44,22.675 35.959,22.739 Z" fill="rgb(254, 254, 253)"/>
<path d="M 42.715,28.273 C 44.307,24.688 47.702,24.073 44.353,17.761 C 39.193,20.706 42.908,23.65 42.725,28.288 Z M 48,26.34 C 41.922,26.51 43.55,30.788 40.89,34.706 C 44.193,32.334 47.472,33.372 48,26.34 Z M 46.486,35.469 C 41.119,32.821 40.225,37.269 35.798,39.429 C 39.972,38.9 42.243,41.315 46.486,35.469 Z" fill="rgb(254, 254, 253)"/>
<path d="M 39.985,34.945 C 42.175,31.444 42.816,29.03 38.023,26.573 C 37.174,30.237 40.913,31.465 39.995,34.96 Z M 37.748,30.83 C 35.018,33.605 37.588,36.4 34.904,39.006 C 38.688,36.973 40.546,35.172 37.748,30.83 Z M 40.248,42.67 C 37.037,37.905 33.871,41.336 28.848,41.166 C 32.748,42.649 33.413,45.784 40.248,42.67 Z" fill="rgb(254, 254, 253)"/>
</svg>
