<?xml version="1.0" encoding="UTF-8"?>
<!-- generated by Finnhub -->
<svg viewBox="0 0 55.5 55.5" xmlns="http://www.w3.org/2000/svg">
<path d="M 0,0 H 55.5 V 55.5 H 0 Z" fill="rgb(225, 38, 55)"/>
<path d="M 34.495000000000005,26.122 V 33.148 C 34.505,34.727 33.322,34.98 32.077,35.042 C 30.832,35.105 29.649,34.916 29.649,33.4 V 26.137 H 30.956 V 33.021 C 30.956,33.716 31.579,33.778 32.077,33.778 C 32.637,33.715 33.197,33.653 33.197,33.021 V 26.137 H 34.504 Z M 34.505,26.137 H 33.198 V 22.979 C 33.198,22.348 32.638,22.284 32.077,22.284 C 31.58,22.221 30.957,22.284 30.957,22.979 V 26.137 H 29.65 V 22.6 C 29.65,21.084 30.833,20.894 32.078,20.958 C 33.323,21.021 34.506,21.274 34.506,22.789 V 26.137 H 34.504 Z M 28.342,26.137 V 29.357 C 28.342,30.685 27.222,31 26.413,31 H 24.733 V 35.042 C 24.483,35.042 23.736,34.978 23.425,34.978 V 26.137 H 24.732 V 29.674 H 26.476 C 26.786,29.674 26.974,29.61 26.974,29.105 V 26.137 H 28.342 Z M 23.426,26.137 V 21.084 C 24.297,20.958 25.666,20.894 26.911,20.894 C 27.533,20.894 28.342,21.21 28.342,22.347 V 26.137 H 26.974 V 22.537 C 26.974,22.284 26.848,22.221 26.724,22.221 C 26.599,22.221 24.856,22.284 24.732,22.284 V 26.137 H 23.426 Z M 45.149,32.453 C 44.714,32.642 44.403,32.768 43.904,32.957 V 24.431 A 11.562,11.562 0 0,0 42.099,23.863 V 22.537 C 44.403,23.105 45.586,23.737 46.892,24.557 V 26.137 C 46.457,25.758 45.834,25.379 45.149,25.063 V 32.453 Z M 37.182,34.473 C 36.683,34.6 36.435,34.6 35.875,34.727 V 21.337 C 36.435,21.4 36.745,21.4 37.245,21.526 L 39.422,29.674 V 21.84 C 39.982,21.967 40.232,22.03 40.73,22.157 V 33.904 C 40.232,34.031 39.858,34.031 39.361,34.156 L 37.181,26.388 V 34.473 Z M 20.25,21.273 V 32.831 C 20.25,34.599 19.067,34.599 17.822,34.411 C 16.578,34.157 15.457,34.031 15.457,32.453 V 22.159 L 16.702,21.842 V 32.327 C 16.702,32.895 17.262,32.958 17.822,33.084 C 18.382,33.148 18.943,33.274 18.943,32.579 V 21.463 L 20.25,21.273 Z M 14.025,26.137 V 31.821 C 14.025,32.705 13.279,33.337 12.595,33.084 C 11.848,32.832 10.291,32.264 9.482,31.695 V 26.137 H 10.789 V 31 C 11.225,31.126 11.723,31.38 12.097,31.569 C 12.594,31.696 12.719,31.505 12.719,31.189 V 26.137 H 14.025 Z M 12.719,26.137 V 24.81 C 12.719,24.557 12.532,24.304 12.222,24.43 C 11.972,24.557 11.225,24.81 10.789,25.062 V 26.136 H 9.482 V 24.304 C 10.354,23.736 11.722,23.167 12.345,22.978 C 13.03,22.726 14.026,23.105 14.026,24.178 V 26.136 H 12.72 Z M 28.032,19.947 C 15.209,19.947 5.934,23.106 5.934,27.967 C 5.934,32.894 15.209,36.053 28.032,36.053 V 37 C 14.71,37 5,33.462 5,27.968 C 5,22.537 14.71,19 28.032,19 V 19.947 Z M 28.032,36.053 C 40.854,36.053 50.13,32.894 50.13,27.968 C 50.13,23.106 40.855,19.948 28.031,19.948 V 19 C 41.352,19 51,22.537 51,27.968 C 51,33.464 41.352,37 28.032,37 V 36.053 Z" fill="rgb(254, 254, 253)"/>
</svg>
