<?xml version="1.0" encoding="UTF-8"?>
<!-- generated by Finnhub -->
<svg viewBox="0 0 55.5 55.5" xmlns="http://www.w3.org/2000/svg">
<path d="M 0,0 H 55.5 V 55.5 H 0 Z" fill="rgb(98, 43, 164)"/>
<path d="M 25.36,19.915 C 26.54,19.13 28.06,19.45 27.8,19.69 C 27.32,20.15 27.96,20.01 28.03,20.86 C 28.08,21.49 27.88,21.83 27.7,22.03 A 7.47,7.47 0 0,0 25.52,22.67 L 25.3,22.51 C 24.47,21.79 24.5,20.52 25.37,19.93 Z M 32.39,24.88 A 6.17,6.17 0 0,1 34.47,24.3 A 4,4 0 0,1 35.76,24.3 C 36.04,24.45 36.04,24.94 35.85,25.39 C 35.56,26.04 35.16,26.76 34.71,26.82 C 33.97,26.92 33.27,26.52 32.47,25.92 C 32.18,25.7 32,25.18 32.39,24.88 Z M 33.74,18.53 C 34.84,19.04 34.7,20.01 34.73,20.58 L 34.72,20.93 C 34.57,20.85 34.32,20.79 33.95,20.8 C 33.84,20.8 33.73,20.82 33.62,20.84 C 33.22,20.62 32.98,20.2 32.76,19.74 A 2.04,2.04 0 0,1 32.71,19.64 L 32.69,19.58 L 32.68,19.56 C 32.56,19.18 32.64,19.1 32.69,18.98 C 32.74,18.86 32.94,18.76 32.65,18.66 L 32.55,18.64 C 32.75,18.4 33.33,18.34 33.75,18.54 Z M 27.78,30.11 A 16.38,16.38 0 0,1 24.84,27.67 C 24.75,27.6 24.77,27.3 24.77,27.3 C 25.25,27.68 27.25,29.1 29.36,29.75 C 30.1,29.98 31.25,30.07 32.24,29.51 A 7.37,7.37 0 0,0 34.45,27.56 L 34.55,27.73 C 34.55,27.85 34.3,28.41 34.17,28.63 C 34.4,28.76 34.57,28.8 34.83,28.87 L 36.58,28.6 A 5.32,5.32 0 0,0 37.18,24.4 C 36.9,23.5 35.48,21.72 35.38,21.63 C 35.02,21.28 35.43,19.95 34.72,18.5 C 33.97,16.96 32.02,15.36 31.17,14.67 C 31.42,14.85 32.96,15.47 33.67,16.34 C 33.75,16.25 33.77,15.78 33.84,15.67 C 33.22,14.86 33.17,13.42 33.17,13.03 C 33.17,12.33 32.81,11.53 32.81,11.53 S 33.43,12.02 33.59,12.86 C 33.78,13.86 34.18,14.64 34.71,15.31 C 35.71,16.56 36.63,17.21 37.09,16.74 C 37.64,16.18 36.53,13.7 35.11,12.31 C 33.46,10.69 33.03,10.9 32.06,11.24 C 31.29,11.52 30.87,13.71 28.86,13.67 C 28.52,13.63 27.64,13.61 27.2,13.61 L 27.62,13.05 S 26.95,13.32 26.37,13.67 L 26.33,13.6 C 26.53,13.19 26.73,12.93 26.73,12.93 S 26.19,13.26 25.7,13.64 C 25.79,13.16 26.13,12.84 26.13,12.84 S 25.44,12.97 24.58,13.93 C 23.58,14.19 23.35,14.37 22.56,14.72 C 21.28,14.44 20.68,13.99 20.11,13.16 C 19.67,12.53 18.89,12.43 18.09,12.76 C 16.93,13.24 15.46,13.9 15.46,13.9 S 15.94,13.88 16.44,13.9 C 15.76,14.16 15.1,14.51 15.1,14.51 H 15.81 C 15.54,14.74 15.39,14.84 15.13,15.01 C 14.51,15.47 14,15.99 14,15.99 S 14.42,15.8 14.8,15.69 C 14.54,16.3 14.01,16.75 14.1,17.49 C 14.2,18.18 15.04,19.59 16.12,20.44 C 16.22,20.52 17.69,21.88 18.8,21.32 C 19.92,20.76 20.36,20.27 20.54,19.5 C 20.75,18.62 20.64,17.96 20.17,16.05 C 20.02,15.42 19.62,14.13 19.43,13.51 L 19.48,13.48 C 19.84,14.24 20.78,16.27 21.15,17.63 C 21.73,19.75 21.55,20.83 21.28,21.22 C 20.48,22.41 18.4,22.56 17.46,21.9 C 17.31,24.19 17.82,25.2 18,25.7 C 17.91,26.28 18.29,27.36 18.29,27.36 S 18.33,26.87 18.5,26.61 C 18.55,27.19 18.84,27.87 18.84,27.87 S 18.82,27.45 18.96,27.08 C 19.14,27.4 19.28,27.48 19.46,27.71 C 19.63,28.33 19.99,28.78 19.99,28.78 S 19.93,28.45 19.96,28.11 C 20.83,28.93 20.97,30.15 21.06,31.08 C 21.3,33.63 17.02,35.67 16.2,37.27 C 15.57,38.22 15.19,39.72 16.25,40.6 C 18.83,42.73 17.84,43.32 19.13,44.26 C 20.89,45.55 23.1,44.97 23.86,43.92 C 24.9,42.47 24.63,41.09 24.25,39.8 C 23.95,38.8 23.11,37.13 22.09,36.48 A 4.47,4.47 0 0,0 19.17,35.78 L 19.25,35.69 A 4.8,4.8 0 0,1 22.72,36.19 A 6.2,6.2 0 0,1 25.26,39.83 C 25.84,39.75 25.92,39.71 26.45,39.63 L 25.26,30.39 L 27.78,30.11 Z M 28.46,41.71 L 28.33,40.42 L 31,36.34 L 34.03,37.24 L 36.64,32.87 L 39.77,34.94 L 42.15,29.96 L 42.99,39.03 L 28.46,41.7 Z M 43.03,28.1 L 33.47,29.83 C 33.24,30.13 32.65,30.67 32.37,30.81 C 31.17,31.41 30.35,31.24 29.64,31.06 C 29.19,30.94 28.93,30.88 28.55,30.71 L 26.22,31.03 L 27.64,42.83 L 44,39.88 L 43.03,28.1 Z" fill="rgb(254, 254, 253)"/>
</svg>
