<?xml version="1.0" encoding="UTF-8"?>
<!-- generated by Finnhub -->
<svg viewBox="0 0 55.5 55.5" xmlns="http://www.w3.org/2000/svg">
<path d="M 0,0 H 55.5 V 55.5 H 0 Z" fill="rgb(251, 225, 74)"/>
<path d="M 44.300000000000004,14.658999999999999 C 39.578,12.39 34.336,11.16 29.072,11.014 C 23.775,10.868 18.446,11.822 13.561,13.851 C 12.973,14.095 12.392,14.355 11.819,14.629 C 11.73,14.672 11.69,14.675 11.652,14.768 A 28.117,28.117 0 0,0 11.388,15.418 A 34.221,34.221 0 0,0 9,28.084 C 9.007,30.756 9.323,33.427 9.948,36.028 A 34.272,34.272 0 0,0 11.678,41.302 L 11.953,41.434 C 12.528,41.707 13.111,41.964 13.701,42.206 C 18.598,44.216 23.934,45.149 29.235,44.979 A 38.227,38.227 0 0,0 37.175,43.888 A 37.218,37.218 0 0,0 42.71,42.048 A 33.872,33.872 0 0,0 43.968,41.488 L 44.174,41.389 C 44.299,41.329 44.32,41.306 44.372,41.179 A 34.447,34.447 0 0,0 46.914,25.557 A 34.36,34.36 0 0,0 44.31,14.673 Z" fill="url(#a)"/>
<path d="M 42.980000000000004,38.830999999999996 A 32.423,32.423 0 0,0 43.519,18.771 A 32.758,32.758 0 0,0 42.614,16.148 L 42.395,16.049 A 33.166,33.166 0 0,0 41.438,15.641 A 35.16,35.16 0 0,0 33.645,13.477 A 36.044,36.044 0 0,0 17.446,14.622 A 34.037,34.037 0 0,0 13.452,16.134 C 13.354,16.178 13.356,16.224 13.319,16.319 A 31.987,31.987 0 0,0 12.794,17.778 A 32.34,32.34 0 0,0 11.14,27.757 C 11.12,30.465 11.437,33.174 12.09,35.805 C 12.418,37.12 12.828,38.415 13.317,39.68 C 13.354,39.776 13.352,39.822 13.449,39.865 L 13.669,39.965 A 34.656,34.656 0 0,0 15.079,40.552 C 15.706,40.797 16.34,41.024 16.981,41.231 A 36.015,36.015 0 0,0 33.148,42.597 A 35.557,35.557 0 0,0 39.608,41.045 C 40.627,40.695 41.598,40.253 42.598,39.859 C 42.679,39.827 42.759,39.819 42.8,39.74 L 42.99,39.372 C 43.077,39.205 43.014,39.03 42.99,38.846 Z M 13.11,15.933 C 17.976,13.693 23.379,12.612 28.746,12.721 C 31.449,12.775 34.146,13.131 36.768,13.781 A 35.211,35.211 0 0,1 42.382,15.69 C 42.525,15.753 42.668,15.817 42.81,15.882 C 42.941,15.942 42.977,16.157 43.027,16.288 A 32.817,32.817 0 0,1 44.77,33.3 A 32.413,32.413 0 0,1 43.265,39.086 C 43.201,39.259 43.133,39.431 43.065,39.603 C 43.007,39.753 42.953,40.055 42.801,40.124 A 35.031,35.031 0 0,1 35.234,42.566 A 36.457,36.457 0 0,1 19.074,42.174 A 34.418,34.418 0 0,1 13.461,40.227 C 13.331,40.169 13.128,40.125 13.075,39.991 A 30.757,30.757 0 0,1 12.55,38.563 A 32.603,32.603 0 0,1 10.91,30.703 A 32.805,32.805 0 0,1 13.11,15.934 Z" fill="rgb(251, 225, 74)"/>
<path d="M 15.78,30.455 C 17.152,30.028 18.538,29.816 19.963,29.685 C 20.271,29.656 20.581,29.623 20.889,29.593 C 21.129,29.57 21.288,29.632 21.322,29.343 C 21.406,28.64 21.533,27.943 21.708,27.255 C 21.879,26.585 22.095,25.925 22.358,25.284 C 22.481,24.974 22.626,24.673 22.769,24.372 C 22.879,24.142 23.064,23.808 22.735,23.652 C 22.603,23.59 22.426,23.581 22.283,23.552 L 21.77,23.449 C 21.4,23.375 21.029,23.302 20.658,23.225 C 20.509,23.194 20.42,23.178 20.358,23.03 C 20.315,22.93 20.258,22.773 20.372,22.72 C 20.682,22.575 21.03,22.484 21.355,22.378 A 41.293,41.293 0 0,1 25.009,21.366 C 25.232,21.316 25.314,21.226 25.395,21.018 C 25.531,20.666 25.654,20.304 25.455,19.946 C 25.041,19.2 23.781,19.249 23.062,19.304 C 22.554,19.343 22.052,19.424 21.556,19.534 C 21.311,19.587 21.067,19.648 20.825,19.714 C 20.766,19.729 20.237,19.852 20.235,19.87 C 20.242,19.811 20.467,19.736 20.516,19.704 C 20.746,19.579 21.005,19.489 21.229,19.366 C 21.519,19.206 20.855,18.501 20.753,18.396 C 20.945,18.471 21.133,18.585 21.291,18.716 C 21.377,18.786 21.46,18.863 21.524,18.954 C 21.578,19.03 21.604,19.14 21.717,19.142 C 21.897,19.145 22.137,19.02 22.313,18.976 C 22.579,18.909 22.851,18.859 23.124,18.828 C 23.269,18.812 23.644,18.871 23.651,18.658 C 23.656,18.518 23.601,18.333 23.569,18.195 A 2.591,2.591 0 0,0 23.281,17.495 C 23.256,17.452 22.956,17.015 22.968,17.008 C 22.999,16.991 23.226,17.183 23.258,17.208 C 23.388,17.307 23.51,17.415 23.622,17.532 C 23.832,17.749 24.008,17.996 24.14,18.266 C 24.203,18.393 24.236,18.712 24.384,18.769 C 24.482,18.806 24.643,18.771 24.748,18.776 C 24.928,18.786 25.108,18.805 25.284,18.843 C 25.431,18.875 25.57,18.918 25.701,18.989 C 25.81,19.049 25.925,19.004 25.951,18.881 C 26.015,18.561 26.15,18.269 26.174,17.934 A 2.92,2.92 0 0,0 26.067,16.943 A 3.488,3.488 0 0,0 25.909,16.493 C 25.898,16.468 25.733,16.153 25.765,16.149 C 25.813,16.141 25.995,16.358 26.031,16.396 C 26.142,16.512 26.243,16.637 26.331,16.77 C 26.509,17.038 26.64,17.334 26.723,17.642 C 26.916,18.358 26.869,19.137 26.711,19.855 C 26.637,20.188 26.548,20.535 26.409,20.849 C 26.384,20.906 26.317,21.005 26.339,21.071 C 26.356,21.126 26.658,21.028 26.701,21.02 A 48.28,48.28 0 0,1 28.521,20.698 C 28.6,20.685 28.931,20.58 28.995,20.643 C 29.073,20.721 27.638,21.685 27.501,21.763 C 27.258,21.903 26.851,21.767 26.585,21.737 C 26.428,21.719 26.272,21.701 26.117,21.677 C 26.021,21.804 25.995,21.963 25.953,22.111 C 25.769,22.771 25.583,23.428 25.454,24.102 C 25.334,24.74 25.218,25.422 25.265,26.072 C 25.309,26.672 25.565,27.224 26.09,27.557 C 26.625,27.897 27.297,27.959 27.918,27.957 C 29.351,27.952 30.77,27.901 32.201,28.024 A 17.79,17.79 0 0,1 33.869,28.238 C 34.145,28.288 34.419,28.348 34.689,28.418 C 34.838,28.456 35.018,28.558 35.169,28.56 C 35.341,28.561 35.339,28.202 35.352,28.09 A 3.34,3.34 0 0,0 35.354,27.31 A 4.601,4.601 0 0,0 34.878,25.755 C 34.842,25.683 34.51,25.175 34.542,25.135 C 34.566,25.106 34.812,25.313 34.842,25.337 C 35.285,25.687 35.702,26.067 36.053,26.508 C 36.39,26.931 36.669,27.403 36.822,27.921 C 36.855,28.035 36.944,28.196 36.822,28.255 C 36.702,28.313 36.577,28.361 36.452,28.409 C 36.162,28.519 35.875,28.636 35.59,28.759 C 36.47,29.631 36.98,30.699 37.327,31.866 C 37.494,32.43 37.615,33.012 37.837,33.558 C 37.938,33.809 38.067,34.066 38.257,34.264 C 38.462,34.474 38.728,34.632 38.981,34.781 C 39.541,35.114 40.112,35.429 40.691,35.727 C 40.918,35.844 40.991,36.027 41.137,36.22 C 41.336,36.485 41.509,36.772 41.687,37.051 C 42.037,37.603 42.377,38.161 42.711,38.723 C 42.764,38.812 42.804,38.913 42.865,38.996 C 42.922,39.072 43.002,39.146 43.023,39.241 C 43.051,39.362 42.863,39.704 42.757,39.769 C 42.57,39.527 42.429,39.244 42.26,38.989 C 42.07,38.701 41.868,38.419 41.659,38.143 A 22.776,22.776 0 0,0 40.376,36.608 A 1.135,1.135 0 0,0 39.752,36.222 C 39.417,36.132 39.086,36.02 38.755,35.916 A 72.467,72.467 0 0,1 36.699,35.244 C 36.049,35.019 35.389,34.794 34.766,34.502 C 34.173,34.225 33.661,33.827 33.191,33.382 A 12.944,12.944 0 0,1 32.537,32.715 A 6.938,6.938 0 0,1 32.214,32.339 C 32.093,32.245 31.928,32.268 31.784,32.265 C 31.077,32.253 30.375,32.212 29.668,32.257 C 28.251,32.347 26.84,32.688 25.416,32.637 C 23.998,32.584 22.696,32.132 21.358,31.708 C 20.69,31.497 20.016,31.298 19.326,31.171 A 10.132,10.132 0 0,0 18.316,31.037 C 18.196,31.027 17.419,30.928 17.382,31.046 C 17.351,31.144 17.564,31.428 17.612,31.512 C 17.776,31.804 17.954,32.089 18.146,32.365 A 8.44,8.44 0 0,0 19.406,33.822 C 19.873,34.243 20.422,34.61 21.033,34.792 C 21.268,34.864 21.613,34.902 21.741,35.134 C 21.884,35.393 22.043,35.66 22.155,35.932 C 22.043,35.925 21.938,35.838 21.847,35.783 C 21.694,35.692 21.535,35.608 21.382,35.517 A 24.52,24.52 0 0,1 20.462,34.942 A 22.962,22.962 0 0,1 18.649,33.633 A 21.994,21.994 0 0,1 16.987,32.16 A 15.813,15.813 0 0,1 16.257,31.39 C 16.131,31.25 16.009,31.106 15.892,30.959 C 15.817,30.821 15.846,30.657 15.79,30.514" fill="rgb(251, 225, 74)"/>
<defs>
<radialGradient id="a" cx="0" cy="0" r="1" gradientTransform="matrix(-19.025 0 0 -21.278 28.026 27.98)" gradientUnits="userSpaceOnUse">
<stop stop-color="rgb(12, 132, 20)" offset="0"/>
<stop stop-color="rgb(24, 80, 40)" offset="1"/>
</radialGradient>
</defs>
</svg>
