<?xml version="1.0" encoding="UTF-8"?>
<!-- generated by Finnhub -->
<svg viewBox="0 0 55.5 55.5" xmlns="http://www.w3.org/2000/svg">
<path d="M 0,0 H 55.5 V 55.5 H 0 Z" fill="rgb(46, 70, 74)"/>
<path d="M 21.29,24.985 C 19.294,25 17.809,26.538 17.809,28.5 V 28.519 C 17.809,30.529 19.332,32 21.224,32 C 22.691,32 23.534,31.356 24.157,30.48 L 22.777,29.48 C 22.379,29.972 21.972,30.298 21.281,30.298 C 20.354,30.298 19.701,29.51 19.701,28.5 V 28.481 C 19.701,27.5 20.354,26.701 21.281,26.701 C 21.915,26.701 22.351,27.01 22.729,27.491 L 24.11,26.404 C 23.524,25.577 22.653,25 21.3,25 Z M 49.095,25.019 C 47.505,25.019 46.531,25.923 46.531,27.173 V 27.193 C 46.531,28.577 47.62,28.981 49.029,29.308 C 49.929,29.519 50.145,29.673 50.145,29.952 V 29.972 C 50.145,30.26 49.88,30.432 49.388,30.432 C 48.622,30.432 47.894,30.154 47.241,29.625 L 46.219,30.865 C 47.032,31.605 48.149,31.981 49.323,31.981 C 50.931,31.981 52,31.163 52,29.788 V 29.77 C 52,28.51 51.054,28.01 49.53,27.673 C 48.613,27.462 48.385,27.327 48.385,27.019 V 27 C 48.385,26.76 48.603,26.567 49.048,26.567 C 49.634,26.567 50.297,26.798 50.902,27.231 L 51.82,25.913 C 51.101,25.327 50.221,25.019 49.095,25.019 Z M 4,25 V 32 H 6.517 C 8.901,32 10.292,30.423 10.292,28.48 V 28.462 C 10.292,26.519 8.92,25 6.555,25 H 4 Z M 11.494,25 V 32 H 17 V 30.413 H 13.31 V 29.211 H 16.145 V 27.741 H 13.31 V 26.587 H 17 V 25 H 11.494 Z M 25,25 V 32 H 27.124 V 29.135 L 29.404,32 H 31.612 L 28.654,28.5 L 31.58,25 H 29.403 L 27.123,27.865 V 25 H 25 Z M 32.617,25 V 32 H 37.991 V 30.413 H 34.433 V 29.212 H 37.267 V 27.74 H 34.433 V 26.587 H 37.991 V 25 H 32.617 Z M 39.493,25 V 32 H 41.328 V 29.827 H 42.132 L 43.466,32 H 45.586 L 44.006,29.52 C 44.829,29.164 45.368,28.48 45.368,27.452 V 27.433 C 45.368,26.769 45.169,26.116 44.781,25.731 C 44.337,25.269 43.637,25 42.624,25 H 39.493 Z M 41.328,26.616 H 42.529 C 43.145,26.616 43.523,27.019 43.523,27.548 V 27.568 C 43.523,28.058 43.163,28.365 42.539,28.365 H 41.328 V 26.615 Z M 6,26.654 H 6.583 C 7.681,26.654 8.409,27.414 8.409,28.491 V 28.509 C 8.409,29.596 7.681,30.346 6.583,30.346 H 6 V 26.654 Z" fill="rgb(254, 254, 253)"/>
</svg>
