<?xml version="1.0" encoding="UTF-8"?>
<!-- generated by Finnhub -->
<svg viewBox="0 0 55.5 55.5" xmlns="http://www.w3.org/2000/svg">
<path d="M 0,0 H 55.5 V 55.5 H 0 Z" fill="rgb(0, 126, 192)"/>
<path d="M 51.99,34.985 V 32 H 46 V 21 H 43 V 35 H 52 Z" fill="rgb(254, 254, 253)"/>
<path d="M 17.294999999999998,26.221999999999998 L 25.17,20 H 25.175 L 27.393,21.868 L 19.931,27.688 L 21.544,29.143 L 29.008,23.121 L 31.226,24.989 L 27.393,28.105 L 23.762,31.015 L 25.375,32.47 L 33,26.233 V 21 H 36 V 32 H 42 V 35 H 33 V 29.767 L 25.17,36 L 17.305,29.767 V 29.647 A 7.004,7.004 0 0,1 11,34.981 V 35 H 5 V 21 H 11 V 21.018 A 7.004,7.004 0 0,1 17.305,26.354 V 26.237 Z M 8,24 H 10.5 A 4,4 0 0,1 10.5,32 H 8 V 24 Z" fill="rgb(254, 254, 253)" fill-rule="evenodd"/>
</svg>
