<?xml version="1.0" encoding="UTF-8"?>
<!-- generated by Finnhub -->
<svg viewBox="0 0 55.5 55.5" xmlns="http://www.w3.org/2000/svg">
<path d="M 0,0 H 55.5 V 55.5 H 0 Z" fill="rgb(199, 5, 79)"/>
<path d="M 18.904,29.185 C 18.944,29.14 18.996,29.04 19.016,28.99 L 20.27,26.03 L 21.504,29.02 C 21.524,29.07 21.565,29.15 21.596,29.22 L 21.442,29.25 C 21.092,29.34 20.702,29.4 20.302,29.4 C 19.9,29.4 19.531,29.35 19.14,29.25 C 19.068,29.23 18.965,29.2 18.914,29.2 Z M 6.158,24.5 C 7.556,24.5 8.543,24.97 9.16,25.5 C 9.9,26.13 10.27,26.96 10.27,28 C 10.27,28.99 9.91,29.81 9.2,30.45 C 8.584,31.02 7.577,31.478 6.158,31.478 H 5.706 V 24.5 H 6.158 Z M 49.328,25.54 C 50.027,26.2 50.366,27.03 50.366,28 C 50.366,28.96 50.016,29.78 49.327,30.46 A 3.454,3.454 0 0,1 46.83,31.47 C 44.867,31.47 43.305,29.9 43.305,28 C 43.305,27.04 43.655,26.21 44.343,25.53 C 45.021,24.86 45.863,24.53 46.83,24.53 C 47.796,24.53 48.629,24.87 49.327,25.54 Z M 32.769,26.12 L 34.013,25.08 C 32.943,23.69 31.515,23 29.829,23 C 26.962,23 24.649,25.23 24.649,28.02 C 24.649,30.75 26.951,33 29.758,33 C 30.467,33 31.145,32.85 31.803,32.56 A 4.695,4.695 0 0,0 33.447,31.38 C 33.879,30.91 34.157,30.37 34.321,29.78 A 5.61,5.61 0 0,0 34.496,27.97 L 34.476,27.68 H 29.994 V 29 H 32.748 C 32.677,29.6 32.358,30.33 31.803,30.76 C 31.197,31.24 30.508,31.47 29.737,31.47 C 28.843,31.47 28.041,31.11 27.301,30.4 C 26.633,29.74 26.294,28.95 26.294,28.03 C 26.294,27.06 26.644,26.22 27.363,25.52 C 28.041,24.85 28.863,24.53 29.809,24.53 C 31.022,24.53 31.978,25.07 32.769,26.12 Z M 22.234,30.73 L 23.149,33 H 24.958 L 20.713,23 H 19.89 L 15.532,33 H 17.332 L 18.287,30.69 C 18.307,30.63 18.317,30.59 18.328,30.55 C 18.369,30.57 18.431,30.59 18.502,30.62 A 5.374,5.374 0 0,0 21.884,30.69 C 22.07,30.63 22.131,30.6 22.182,30.57 C 22.192,30.61 22.223,30.7 22.234,30.73 Z M 6.107,33 C 7.937,33 9.345,32.45 10.29,31.62 C 11.37,30.68 11.915,29.48 11.915,28.01 C 11.915,26.48 11.359,25.25 10.249,24.33 C 9.314,23.55 7.926,22.97 6.127,22.97 H 4 V 33 H 6.107 Z M 15,23 H 13.25 V 33 H 15 V 23 Z M 37,28.33 H 40.683 V 26.81 H 37 V 24.69 H 40.992 V 23 H 35.564 V 33 H 41.002 V 31.32 H 37 V 28.33 Z M 43.18,24.47 C 42.164,25.44 41.66,26.63 41.66,28.01 C 41.66,30.8 43.973,33 46.83,33 C 49.697,33 52,30.81 52,28.01 C 52,26.64 51.486,25.47 50.489,24.48 C 49.481,23.49 48.259,23 46.829,23 C 45.412,23 44.189,23.49 43.181,24.47 Z" fill="rgb(254, 254, 253)"/>
</svg>
