<?xml version="1.0" encoding="UTF-8"?>
<!-- generated by Finnhub -->
<svg viewBox="0 0 55.5 55.5" xmlns="http://www.w3.org/2000/svg">
<path d="M 0,0 H 55.5 V 55.5 H 0 Z" fill="url(#a)"/>
<path d="M 7.99,16.985 V 21 H 10 V 37.996 H 16.342 C 23.312,37.996 28.442,35.331 28.442,27.516 C 28.441,18.968 23.894,17 15.695,17 H 8 Z M 16,21 H 16.398 C 20.058,21 22.142,21.996 22.142,27.126 C 22.142,31.196 21.393,34 16.912,34 H 16 V 21 Z" fill="rgb(254, 237, 2)"/>
<path d="M 37.677,16.985 C 31.117,17 27.316,20.84 27.316,27.503 C 27.316,33.397 30.124,38 37.117,38 C 39.26,38 41.399,37.425 42.756,36.587 L 43.472,38 H 47 V 27 H 39 V 30 H 41 V 33.237 A 6.39,6.39 0 0,1 38.543,33.743 C 35.255,33.743 33.671,31.509 33.671,27.29 C 33.671,23.46 35.147,21.252 37.353,21.252 C 39.091,21.252 39.922,22.308 40.373,24.244 L 46.585,23.254 C 45.69,19.161 42.555,17 37.687,17 Z" fill="rgb(254, 237, 2)"/>
<defs>
<linearGradient id="a" x1="10.418" x2="68.147" y1="9.712" y2="76.017" gradientUnits="userSpaceOnUse">
<stop stop-color="rgb(25, 29, 31)" offset="0"/>
<stop stop-color="rgb(5, 5, 8)" offset="1"/>
</linearGradient>
</defs>
</svg>
