<?xml version="1.0" encoding="UTF-8"?>
<!-- generated by Finnhub -->
<svg viewBox="0 0 55.5 55.5" xmlns="http://www.w3.org/2000/svg">
<path d="M 0,0 H 55.5 V 55.5 H 0 Z" fill="url(#a)"/>
<path d="M 40.704,37.7 A 15.93,15.93 0 0,0 44,28 C 44,24.76 43.036,21.743 41.38,19.223 C 42.479,21.492 42.726,24.118 42.31,26.689 C 41.83,29.652 40.464,32.669 38.342,35.342 L 40.714,37.715 Z M 37.136,41.137 L 34.849,38.849 C 32.142,41.019 29.077,42.409 26.069,42.888 A 14.064,14.064 0 0,1 22.432,43.004 C 24.166,43.648 26.042,44 28,44 C 31.397,44 34.546,42.942 37.136,41.137 Z M 12.878,33.24 A 15.979,15.979 0 0,1 12,28 C 12,19.163 19.163,12 28,12 C 31.144,12 34.076,12.907 36.55,14.473 C 34.325,13.44 31.769,13.209 29.263,13.608 C 25.57,14.196 21.789,16.16 18.691,19.25 C 15.593,22.34 13.62,26.116 13.022,29.808 A 14.153,14.153 0 0,0 12.878,33.24 Z M 30.005,18.57 C 27.473,18.974 24.643,20.376 22.222,22.79 C 19.802,25.205 18.392,28.03 17.982,30.562 C 17.572,33.096 18.172,35.138 19.462,36.432 C 20.752,37.725 22.792,38.329 25.327,37.925 C 27.245,37.62 29.333,36.742 31.285,35.285 L 28,32 H 34.607 C 36.121,30.02 37.033,27.889 37.349,25.934 C 37.759,23.401 37.161,21.358 35.871,20.064 C 34.581,18.771 32.539,18.167 30.005,18.571 Z" fill="rgb(254, 254, 253)"/>
<defs>
<linearGradient id="a" x1="66.5" x2="-7.5" y1="28" y2="28" gradientUnits="userSpaceOnUse">
<stop stop-color="rgb(197, 212, 45)" offset="0"/>
<stop stop-color="rgb(52, 120, 40)" offset="1"/>
</linearGradient>
</defs>
</svg>
