<?xml version="1.0" encoding="UTF-8"?>
<!-- generated by Finnhub -->
<svg viewBox="0 0 55.5 55.5" xmlns="http://www.w3.org/2000/svg">
<path d="M 0,0 H 55.5 V 55.5 H 0 Z" fill="rgb(40, 67, 88)"/>
<path d="M 6.833,25.303 C 7.038,25.36 7,25.498 7,25.498 V 31.073 C 7,31.682 6,31.668 6,31.668 V 25.318 H 6.843 Z M 6.148,25 H 3.878 S 3.682,25 3.682,25.166 C 3.682,25.318 3.777,25.332 4,25.332 V 31.682 S 3.64,31.668 3.64,31.82 C 3.64,32 3.766,32 3.905,32 H 7.137 S 9,31.917 9,30.63 V 26.26 S 8.836,25.04 7.54,25 H 6.149 Z M 10.759,28.864 C 11.051,28.864 11.289,28.645 11.289,28.373 C 11.289,28.1 11.051,27.882 10.759,27.882 C 10.466,27.882 10.229,28.1 10.229,28.372 C 10.229,28.645 10.466,28.864 10.759,28.864 Z M 18.195,28.864 C 18.488,28.864 18.725,28.645 18.725,28.373 C 18.725,28.1 18.488,27.882 18.195,27.882 C 17.903,27.882 17.666,28.1 17.666,28.372 C 17.68,28.645 17.916,28.864 18.196,28.864 Z M 15.726,25.003 C 16.088,25.003 16.72,25.615 16.776,26.102 V 27.103 C 16.776,28.16 15.866,28.411 15.866,28.411 C 16.032,28.466 16.241,28.481 16.575,28.689 C 16.909,28.884 17,29.343 17,29.343 V 31.747 H 17.34 C 17.395,31.747 17.509,31.733 17.522,31.872 C 17.536,32.067 17.27,32 17.27,32 H 15.462 C 15.239,32 15,31.796 15,31.663 V 28.94 C 15,28.732 14.667,28.704 14.667,28.704 H 14 V 31.72 H 14.216 C 14.258,31.72 14.431,31.678 14.431,31.859 C 14.445,32.068 14.258,32.001 14.258,32.001 H 11.715 C 11.645,32.001 11.589,31.971 11.589,31.859 C 11.589,31.719 11.715,31.719 11.715,31.719 H 12 V 25.296 C 11.752,25.296 11.645,25.311 11.645,25.157 C 11.645,25.004 11.77,25.004 11.77,25.004 H 15.726 Z M 14.472,25.295 H 14 V 28.327 H 14.862 S 15,28.313 15,28.049 V 25.489 S 15.014,25.295 14.807,25.295 H 14.472 Z M 35.59,25.003 C 35.947,25.003 36.645,25.615 36.7,26.102 C 36.741,26.422 36.7,26.825 36.7,27.103 C 36.7,28.16 35.741,28.411 35.741,28.411 C 35.906,28.466 36.276,28.481 36.604,28.689 C 36.999,28.939 37,29.343 37,29.343 V 31.693 H 37.332 C 37.387,31.693 37.522,31.68 37.536,31.819 C 37.549,32.014 37.371,31.999 37.371,31.999 H 35.411 C 35.061,31.999 35,31.61 35,31.61 V 28.94 C 35,28.73 34.616,28.703 34.616,28.703 H 34 V 31.706 H 34.22 C 34.262,31.706 34.424,31.664 34.424,31.845 C 34.424,32.035 34.25,31.998 34.25,31.998 H 31.66 C 31.591,31.998 31.537,31.956 31.537,31.845 C 31.537,31.747 31.66,31.705 31.66,31.705 H 32 V 25.295 H 31.746 S 31.578,25.295 31.578,25.168 C 31.578,25.003 31.701,25.003 31.701,25.003 H 35.591 Z M 34.358,25.295 H 34 V 28.327 H 34.794 S 35,28.313 35,28.049 V 25.489 S 34.945,25.295 34.726,25.295 H 34.358 Z M 22.587,28.754 H 22.911 L 23.004,28.836 V 31.883 C 23.017,31.992 23.097,32.005 23.097,32.005 H 25.265 C 25.385,32.005 25.438,31.924 25.438,31.883 C 25.438,31.842 25.425,31.692 25.212,31.692 H 25 V 25.304 H 25.198 C 25.372,25.304 25.398,25.222 25.398,25.127 C 25.398,25.004 25.265,25.004 25.265,25.004 H 23.07 C 23.004,25.004 22.99,25.127 22.99,25.127 V 28.087 L 22.897,28.182 H 22.103 L 22,28.086 V 25.126 S 21.996,25.004 21.93,25.004 H 19.777 S 19.643,25.031 19.643,25.127 C 19.643,25.222 19.67,25.304 19.843,25.304 H 20 V 31.542 S 20.03,31.692 19.83,31.692 S 19.603,31.842 19.603,31.882 C 19.603,31.924 19.657,32.005 19.776,32.005 H 21.903 S 21.986,31.992 22,31.883 C 22.013,31.773 22,28.836 22,28.836 L 22.09,28.754 H 22.587 Z M 28.44,32.153 C 27.273,32.153 26.928,31.969 26.517,31.558 C 26.119,31.146 26.053,30.353 26.027,30.012 C 26,29.686 26,29.46 26,28.297 C 26,27.376 26.066,26.908 26.212,26.27 C 26.398,25.434 26.729,25.278 27.141,25.08 C 27.539,24.881 28.481,24.867 28.481,24.867 L 28.613,24.853 S 29.462,24.881 29.859,25.08 C 30.271,25.278 30.602,25.448 30.788,26.27 C 30.934,26.908 31,27.376 31,28.297 C 31,29.46 31,29.672 30.974,30.012 C 30.947,30.338 30.894,31.132 30.483,31.558 C 30.085,31.968 29.767,32.153 28.599,32.153 H 28.44 Z M 28.52,31.94 C 29.037,31.94 29,31.543 29,31.543 V 25.633 C 29,25.093 28.706,25.066 28.546,25.066 H 28.454 C 28.308,25.066 28,25.094 28,25.633 V 31.543 S 27.959,31.94 28.427,31.94 H 28.52 Z M 44.445,32.152 C 43.278,32.152 42.933,31.968 42.522,31.557 C 42.124,31.146 42.057,30.352 42.031,30.012 C 42.004,29.686 42.004,29.459 42.004,28.297 C 42.004,27.375 42.071,26.907 42.217,26.27 C 42.402,25.433 42.734,25.277 43.145,25.079 C 43.543,24.881 44.485,24.866 44.485,24.866 H 44.617 S 45.466,24.881 45.864,25.079 C 46.274,25.277 46.606,25.448 46.792,26.269 C 46.938,26.908 47.004,27.375 47.004,28.297 C 47.004,29.459 47.004,29.672 46.978,30.012 C 46.951,30.338 46.885,31.132 46.488,31.557 C 46.089,31.967 45.771,32.152 44.591,32.152 H 44.445 Z M 44.538,31.939 C 45.033,31.939 45,31.543 45,31.543 V 25.632 C 45,25.093 44.71,25.065 44.564,25.065 H 44.471 C 44.325,25.065 44,25.093 44,25.632 V 31.542 S 43.914,31.939 44.445,31.939 H 44.538 Z M 41.896,25 S 41.993,25.083 41.993,25.153 V 25.889 S 41.979,26.056 41.84,26.056 C 41.7,26.069 41.673,26 41.673,25.861 C 41.659,25.708 41.673,25.639 41.673,25.639 H 40.558 S 40.419,25.625 40.419,25.75 V 31.694 H 40.611 C 40.751,31.694 40.795,31.75 40.795,31.847 S 40.709,32 40.597,32 H 38.277 C 38.167,32 38.058,31.944 38.058,31.847 S 38.111,31.694 38.25,31.694 H 38.42 V 25.75 C 38.42,25.625 38.281,25.639 38.281,25.639 H 37.324 V 25.861 C 37.31,26.014 37.269,26.056 37.156,26.056 C 37.017,26.042 37.003,25.889 37.003,25.889 V 25.153 C 37.003,25.083 37.101,25 37.101,25 H 41.896 Z M 50.358,32.004 H 52 V 25.32 H 52.113 C 52.323,25.32 52.323,25.198 52.323,25.143 C 52.323,25.089 52.239,25.007 52.141,25.007 H 51.273 S 51.097,25.007 51.097,25.157 C 51.097,25.279 51.204,25.334 51.273,25.334 H 51.417 C 51.431,25.484 51.417,29.449 51.417,29.449 L 49.731,25.32 H 49.899 C 50.024,25.32 50.094,25.252 50.094,25.143 C 50.094,25.034 50.024,25.007 49.968,25.007 H 47.405 S 47.266,25.037 47.266,25.132 S 47.294,25.307 47.406,25.307 H 47.614 V 31.689 H 47.447 C 47.238,31.689 47.238,31.812 47.238,31.866 C 47.238,31.921 47.322,32.003 47.419,32.003 H 48.291 S 48.464,32.003 48.464,31.853 C 48.464,31.73 48.388,31.675 48.319,31.675 H 48.144 C 48.13,31.539 48.144,26.531 48.144,26.531 L 50.358,32.003 Z M 52,23 H 4 V 24 H 52 V 23 Z" fill="rgb(254, 254, 253)"/>
</svg>
