<?xml version="1.0" encoding="UTF-8"?>
<!-- generated by Finnhub -->
<svg viewBox="0 0 55.5 55.5" xmlns="http://www.w3.org/2000/svg">
<path d="M 0,0 H 55.5 V 55.5 H 0 Z" fill="rgb(0, 59, 127)"/>
<path d="M 47.813,20.745 C 46.433,15.932 37.237,14.54 27.276,17.68 C 26.794,17.828 26.34,17.976 25.886,18.154 C 34.796,15.992 42.544,17.414 43.765,21.677 C 45.127,26.357 38.117,32.664 28.156,35.803 C 27.929,35.863 27.702,35.951 27.475,36.01 L 32.101,19.25 H 32.072 L 30.852,19.338 C 28.582,19.575 26.142,20.078 23.672,20.848 C 13.739,23.958 6.786,30.414 8.177,35.24 C 9.567,40.068 18.762,41.46 28.752,38.32 C 29.235,38.172 29.689,38.024 30.142,37.846 C 21.232,40.008 13.484,38.586 12.264,34.323 C 10.93,29.643 17.911,23.336 27.872,20.197 C 28.071,20.137 28.298,20.078 28.497,20.019 L 23.927,36.751 L 25.147,36.661 C 27.418,36.425 29.859,35.921 32.327,35.151 C 42.261,32.042 49.214,25.586 47.823,20.759 Z" fill="rgb(254, 254, 253)"/>
</svg>
