<?xml version="1.0" encoding="UTF-8"?>
<!-- generated by Finnhub -->
<svg viewBox="0 0 55.5 55.5" xmlns="http://www.w3.org/2000/svg">
<path d="M 0,0 H 55.5 V 55.5 H 0 Z" fill="rgb(23, 122, 222)"/>
<path d="M 38.199000000000005,20.171 C 31.198,14.011 23.073,12.226 18.065,12.021 C 12.501,11.815 12,13.187 12,13.736 C 12,14.422 12.835,15.109 13.113,15.246 C 13.447,15.452 14.393,15.658 14.393,15.315 C 14.393,14.697 13.224,14.354 13.224,14.217 C 13.224,14.011 13.113,13.53 17.286,13.874 C 30.864,14.903 41.046,23.892 40.991,31.166 C 40.936,35.351 37.541,39.4 30.53,39.263 C 29.083,39.194 27.636,38.988 26.3,38.577 C 26.356,36.587 26.356,34.185 26.356,31.646 V 29.587 H 26.468 C 31.81,29.519 33.312,30.067 33.535,30.137 C 33.813,30.205 33.702,30.342 33.646,30.411 C 33.535,30.479 32.533,31.371 32.533,31.577 C 32.533,31.715 32.422,32.195 33.368,32.057 C 34.314,31.92 35.649,30.548 35.649,29.519 C 35.594,28.489 32.7,26.362 26.301,26.499 C 26.134,22.657 25.633,20.599 25.299,20.599 C 24.743,20.599 24.409,23.412 24.186,26.637 C 18.344,27.323 16.786,30.205 16.619,31.509 C 16.452,35.42 19.957,38.233 23.852,39.88 C 23.964,42.145 24.242,43.929 24.965,43.997 C 25.689,44.066 26.023,42.762 26.19,40.772 C 27.915,41.322 29.64,41.596 30.975,41.596 C 37.541,41.802 43.885,38.851 43.996,31.783 C 44.107,26.705 41.826,23.274 38.209,20.186 Z M 17.843,32.332 C 17.954,30.822 20.18,29.93 24.019,29.656 C 23.964,30.96 23.909,32.195 23.909,33.224 C 23.853,34.597 23.853,36.174 23.853,37.684 C 20.235,36.038 17.731,33.636 17.843,32.332 Z" fill="rgb(254, 254, 253)"/>
</svg>
