<?xml version="1.0" encoding="UTF-8"?>
<!-- generated by Finnhub -->
<svg viewBox="0 0 55.5 55.5" xmlns="http://www.w3.org/2000/svg">
<path d="M 0,0 H 55.5 V 55.5 H 0 Z" fill="rgb(239, 242, 248)"/>
<path d="M 21.99,19.985 H 6 V 27 H 7.32 A 3,3 0 0,1 8.08,27.1 L 8.04,27 H 8.47 L 8.58,27.28 A 3,3 0 0,1 9.01,27.52 L 8.82,27 H 9.25 L 9.65,28.1 C 10.07,28.62 10.32,29.28 10.32,30 V 30.82 L 10.69,31.95 L 11.9,27 H 13.02 L 14.25,31.85 L 15.43,27 H 15.85 L 14.25,33.42 L 12.71,27.38 H 12.22 L 10.74,33.42 L 10.22,31.79 C 10.16,31.99 10.08,32.19 9.99,32.37 L 10.4,33.6 H 11.08 L 12.46,28.39 L 13.9,33.59 H 14.61 L 16.26,27 H 18.1 L 18.73,28.89 A 3.29,3.29 0 0,1 20.36,27.27 C 20.99,27 21.6,26.97 22,27.01 V 20 Z M 22,27.42 C 21.66,27.38 21.1,27.39 20.52,27.64 C 19.92,27.9 19.32,28.42 18.92,29.44 L 19.22,30.31 C 19.25,29.95 19.34,29.6 19.49,29.27 A 2.48,2.48 0 0,1 22,27.8 V 27.42 Z M 22,28.2 A 2.41,2.41 0 0,0 20.63,28.53 C 20.27,28.75 20.02,29.07 19.85,29.44 A 2.97,2.97 0 0,0 19.8,31.72 C 20.04,32.28 20.45,32.59 20.88,32.75 C 21.3,32.9 21.73,32.91 22,32.88 V 28.2 Z M 22,33.28 C 21.67,33.32 21.2,33.29 20.74,33.12 C 20.49,33.02 20.24,32.89 20.02,32.7 L 20.22,33.28 C 20.8,33.58 21.56,33.64 22,33.58 V 33.28 Z M 22,33.98 C 21.58,34.03 20.95,33.98 20.38,33.78 L 20.46,34 H 20.05 L 17.81,27.4 H 16.57 L 15.6,31.3 L 16.93,28 H 17.51 L 18.79,31.77 H 15.49 L 15.37,32.23 H 18.85 L 19.54,34 H 19.09 L 18.57,32.63 H 15.61 L 15.11,34 H 13.6 L 12.47,29.92 L 11.38,34 H 10.12 L 9.72,32.8 A 3,3 0 0,1 7.32,34 H 6 V 36 H 22 V 33.98 Z M 6,33.6 H 7.32 A 2.6,2.6 0 0,0 9.92,31 V 30 A 2.6,2.6 0 0,0 7.32,27.4 H 6 V 27.78 H 7.03 A 2.5,2.5 0 0,1 9.53,30.28 V 30.72 A 2.5,2.5 0 0,1 7.03,33.22 H 6 V 33.6 Z M 6,32.82 H 7.03 A 2.1,2.1 0 0,0 9.13,30.72 V 30.28 A 2.1,2.1 0 0,0 7.03,28.18 H 6 V 32.82 Z M 17.2,28.41 L 16,31.37 H 18.24 L 17.23,28.41 H 17.2 Z" fill="rgb(13, 51, 133)"/>
<path d="M 22.99,19.985 V 24 H 24.05 C 25.09,23.99 25.75,23.14 25.75,22.12 V 21.87 C 25.75,20.87 25.09,20 24.07,20 H 23 Z M 23.5,23.58 V 20.42 C 24.48,20.42 25.25,20.7 25.25,21.88 V 22.11 C 25.25,23.28 24.48,23.58 23.5,23.58 Z M 26.33,24 H 26.83 V 20 H 26.33 V 24 Z M 30.34,23.44 C 30.21,23.62 30.04,23.77 29.8,23.86 C 29.57,23.96 29.3,24 29,24 C 28.69,24 28.41,23.93 28.17,23.78 A 1.5,1.5 0 0,1 27.61,23.14 C 27.48,22.87 27.41,22.54 27.41,22.19 V 21.85 C 27.41,21.26 27.55,20.81 27.81,20.48 C 28.08,20.16 28.46,20 28.94,20 C 29.34,20 29.65,20.1 29.9,20.31 C 30.14,20.52 30.29,20.81 30.34,21.2 H 29.84 C 29.74,20.68 29.44,20.42 28.94,20.42 C 28.61,20.42 28.35,20.54 28.18,20.79 A 1.8,1.8 0 0,0 27.92,21.83 V 22.15 C 27.92,22.59 28.02,22.94 28.21,23.2 C 28.41,23.45 28.67,23.58 29,23.58 C 29.19,23.58 29.35,23.56 29.5,23.52 A 0.76,0.76 0 0,0 29.84,23.3 V 22.43 H 29 V 22 H 30.34 V 23.44 Z M 31,24 H 31.5 V 20 H 31 V 24 Z M 34.72,20.42 H 33.5 V 24 H 33 V 20.42 H 31.78 V 20 H 34.72 V 20.42 Z M 35.4,23 H 37 L 37.35,24 H 37.87 L 36.41,20 H 35.98 L 34.53,24 H 35.04 L 35.4,23 Z M 36.84,22.56 H 35.55 L 36.2,20.69 L 36.84,22.56 Z M 38.67,23.58 H 40.47 V 24 H 38.17 V 20 H 38.67 V 23.58 Z M 33.21,26.11 H 32.21 V 28 H 31.71 V 24 H 33.15 C 33.88,24 34.35,24.37 34.35,25.17 A 0.8,0.8 0 0,1 33.93,25.83 L 33.96,25.86 C 34.04,25.96 34.32,26.26 34.32,26.83 V 27.63 S 34.32,27.89 34.44,28 H 33.79 V 27.07 S 33.79,26.57 33.67,26.37 C 33.55,26.16 33.42,26.11 33.42,26.11 H 33.22 Z M 32.21,25.65 H 32.95 C 33.39,25.65 33.85,25.55 33.85,25.1 C 33.85,24.6 33.48,24.43 33.02,24.42 H 32.22 V 25.65 Z M 25.02,24 L 23.99,27.29 L 23.3,24 H 22.8 L 23.71,28 H 24.16 L 22.71,32 H 23.23 L 23.58,31 H 25.18 L 25.54,32 H 26.05 L 24.6,28 H 24.17 L 25.26,24.66 L 26.42,28 H 26.87 L 27.79,24 H 27.29 L 26.62,27.3 L 25.54,24 H 25 Z M 30.85,27.13 C 30.98,26.84 31.05,26.51 31.05,26.13 V 25.88 C 31.05,25.5 30.98,25.17 30.85,24.88 C 30.73,24.6 30.55,24.38 30.32,24.23 C 30.09,24.08 29.82,24 29.52,24 A 1.42,1.42 0 0,0 28.18,24.89 C 28.05,25.18 27.98,25.51 27.98,25.89 V 26.16 C 27.99,26.53 28.06,26.86 28.18,27.13 C 28.31,27.41 28.49,27.63 28.72,27.78 C 28.95,27.93 29.22,28 29.52,28 C 29.82,28 30.09,27.93 30.32,27.78 C 30.55,27.63 30.73,27.41 30.85,27.13 Z M 30.27,24.82 C 30.45,25.06 30.54,25.42 30.54,25.88 V 26.16 C 30.54,26.61 30.44,26.96 30.27,27.2 A 0.88,0.88 0 0,1 29.52,27.56 A 0.89,0.89 0 0,1 28.76,27.18 A 1.8,1.8 0 0,1 28.49,26.13 V 25.84 C 28.49,25.4 28.59,25.06 28.76,24.82 A 0.88,0.88 0 0,1 29.51,24.44 C 29.84,24.44 30.09,24.57 30.27,24.82 Z M 37.11,27.58 H 35.31 V 24 H 34.81 V 28 H 35.16 V 30.7 A 0.9,0.9 0 0,1 34.93,31.35 C 34.78,31.5 34.56,31.58 34.28,31.58 S 33.78,31.5 33.63,31.35 A 0.9,0.9 0 0,1 33.4,30.69 V 28 H 32.9 V 30.7 C 32.91,31.1 33.04,31.43 33.28,31.66 C 33.53,31.89 33.86,32 34.28,32 H 33.27 V 36 H 33.77 V 34.42 H 34.67 C 35.09,34.42 35.42,34.32 35.65,34.12 C 35.88,33.92 36,33.62 36,33.24 C 36,32.88 35.88,32.55 35.64,32.34 A 1.39,1.39 0 0,0 34.67,32 H 34.41 C 34.79,31.97 35.1,31.84 35.32,31.6 C 35.54,31.37 35.66,31.07 35.66,30.7 V 28 H 36.25 V 32 H 36.75 V 28 H 37.11 V 27.58 Z M 37.68,28 V 24 H 38.75 C 39.79,24 40.42,24.84 40.43,25.82 V 26.14 C 40.43,27.16 39.77,27.99 38.73,28 H 38.7 C 38.93,28.01 39.12,28.07 39.3,28.16 A 1.15,1.15 0 0,1 39.94,29.18 H 39.44 A 0.71,0.71 0 0,0 39.22,28.63 A 0.88,0.88 0 0,0 38.6,28.43 A 0.9,0.9 0 0,0 38.02,28.59 A 0.56,0.56 0 0,0 37.82,29.05 C 37.82,29.21 37.88,29.35 38.02,29.45 C 38.15,29.57 38.37,29.67 38.68,29.75 C 39,29.85 39.25,29.95 39.43,30.05 C 39.6,30.17 39.73,30.3 39.83,30.45 C 39.91,30.59 39.95,30.75 39.95,30.95 C 39.95,31.27 39.83,31.53 39.59,31.72 C 39.35,31.91 39.03,32 38.63,32 C 38.37,32 38.13,31.95 37.9,31.85 C 37.67,31.75 37.5,31.6 37.37,31.43 A 1.05,1.05 0 0,1 37.19,30.82 H 37.69 C 37.69,31.05 37.78,31.24 37.95,31.38 C 38.12,31.51 38.35,31.58 38.63,31.58 C 38.89,31.58 39.1,31.53 39.23,31.41 A 0.54,0.54 0 0,0 39.45,30.96 C 39.45,30.77 39.38,30.62 39.25,30.52 A 2.2,2.2 0 0,0 38.55,30.22 A 2.36,2.36 0 0,1 37.6,29.75 A 0.9,0.9 0 0,1 37.31,29.06 C 37.31,28.76 37.43,28.5 37.67,28.3 C 37.89,28.12 38.17,28.02 38.5,28 H 37.68 Z M 38.18,24.42 V 27.58 C 39.16,27.58 39.93,27.3 39.93,26.13 V 25.83 C 39.93,24.65 39.16,24.43 38.18,24.43 Z M 30.51,34.21 H 31.72 S 31.84,34.31 31.96,34.51 C 32.09,34.71 32.09,35.09 32.09,35.09 V 35.99 H 32.74 C 32.62,35.89 32.62,35.62 32.62,35.62 V 34.85 C 32.62,34.29 32.34,34.04 32.25,33.96 L 32.23,33.93 C 32.47,33.83 32.65,33.39 32.65,33.16 C 32.65,32.38 32.17,32 31.45,32 H 30.93 C 31.15,32 31.36,31.95 31.55,31.86 H 32.86 V 31.39 H 32.11 C 32.18,31.29 32.23,31.2 32.28,31.09 C 32.39,30.83 32.45,30.5 32.45,30.13 V 29.88 C 32.45,29.5 32.39,29.17 32.26,28.88 C 32.14,28.6 31.96,28.38 31.73,28.23 C 31.5,28.08 31.23,28 30.93,28 A 1.42,1.42 0 0,0 29.58,28.89 C 29.46,29.17 29.39,29.51 29.39,29.88 V 30.16 C 29.39,30.53 29.46,30.86 29.59,31.13 C 29.84,31.67 30.34,32 30.93,32 H 30 V 36 H 30.5 V 34.2 Z M 31.25,33.76 H 30.51 V 32.43 H 31.32 C 31.78,32.43 32.14,32.61 32.14,33.1 C 32.14,33.53 31.69,33.76 31.24,33.76 Z M 25.49,35.66 C 25.74,35.44 25.89,35.12 25.93,34.71 H 25.43 C 25.38,35.03 25.28,35.26 25.13,35.39 C 24.99,35.52 24.77,35.58 24.49,35.58 A 0.83,0.83 0 0,1 23.77,35.21 A 1.75,1.75 0 0,1 23.51,34.2 V 33.82 C 23.51,33.37 23.61,33.02 23.78,32.79 A 0.9,0.9 0 0,1 24.54,32.42 C 24.8,32.42 25,32.49 25.14,32.63 C 25.29,32.77 25.39,32.99 25.44,33.3 H 25.94 C 25.89,32.9 25.75,32.58 25.51,32.35 A 1.35,1.35 0 0,0 24.54,32 C 24.24,32 23.97,32.07 23.74,32.22 C 23.5,32.37 23.32,32.58 23.2,32.85 C 23.07,33.13 23.01,33.45 23.01,33.81 V 34.18 C 23.01,34.73 23.14,35.18 23.41,35.51 C 23.69,35.84 24.05,36 24.49,36 C 24.91,36 25.24,35.89 25.49,35.67 Z M 29.25,35.13 C 29.37,34.84 29.44,34.51 29.44,34.13 V 33.88 C 29.44,33.5 29.37,33.17 29.24,32.88 C 29.12,32.6 28.94,32.38 28.71,32.23 C 28.48,32.08 28.21,32 27.91,32 A 1.42,1.42 0 0,0 26.57,32.89 C 26.44,33.17 26.38,33.51 26.38,33.88 V 34.16 C 26.38,34.53 26.45,34.86 26.58,35.13 C 26.71,35.41 26.88,35.63 27.12,35.78 C 27.35,35.93 27.62,36 27.92,36 C 28.22,36 28.49,35.93 28.72,35.78 C 28.95,35.63 29.12,35.41 29.25,35.13 Z M 28.67,32.81 C 28.85,33.06 28.94,33.41 28.94,33.87 V 34.17 C 28.94,34.61 28.84,34.97 28.66,35.2 A 0.88,0.88 0 0,1 27.91,35.56 A 0.89,0.89 0 0,1 27.15,35.18 A 1.8,1.8 0 0,1 26.88,34.13 V 33.84 C 26.88,33.4 26.98,33.06 27.16,32.81 A 0.88,0.88 0 0,1 27.91,32.44 C 28.23,32.44 28.49,32.57 28.67,32.81 Z M 33.77,34.01 H 34.67 C 34.94,34.01 35.14,33.94 35.28,33.81 C 35.43,33.68 35.5,33.49 35.5,33.25 A 0.84,0.84 0 0,0 35.28,32.65 A 0.83,0.83 0 0,0 34.7,32.43 H 33.77 V 34 Z M 23.75,30.56 H 25.05 L 24.4,28.69 L 23.75,30.56 Z M 29.11,30.71 C 29.06,31.12 28.91,31.44 28.66,31.67 C 28.41,31.89 28.08,32 27.66,32 C 27.22,32 26.86,31.84 26.58,31.5 C 26.32,31.18 26.18,30.73 26.18,30.18 V 29.81 C 26.18,29.45 26.24,29.13 26.37,28.85 C 26.5,28.58 26.67,28.37 26.91,28.22 C 27.14,28.07 27.41,28 27.71,28 C 28.11,28 28.44,28.12 28.68,28.35 C 28.92,28.58 29.07,28.9 29.11,29.3 H 28.61 C 28.56,29 28.46,28.77 28.31,28.63 A 0.84,0.84 0 0,0 27.71,28.43 A 0.9,0.9 0 0,0 26.96,28.79 A 1.7,1.7 0 0,0 26.68,29.82 V 30.2 C 26.68,30.62 26.77,30.96 26.94,31.2 C 27.11,31.46 27.36,31.58 27.67,31.58 C 27.94,31.58 28.16,31.52 28.3,31.38 C 28.45,31.26 28.55,31.03 28.6,30.71 H 29.1 Z M 31.68,28.81 C 31.86,29.06 31.95,29.41 31.95,29.87 V 30.17 C 31.95,30.61 31.85,30.97 31.68,31.2 A 0.88,0.88 0 0,1 30.93,31.56 A 0.88,0.88 0 0,1 30.17,31.18 A 1.8,1.8 0 0,1 29.9,30.13 V 29.84 C 29.9,29.4 30,29.06 30.17,28.81 A 0.88,0.88 0 0,1 30.92,28.44 C 31.25,28.44 31.51,28.57 31.68,28.82 Z M 40.38,32 H 40.88 V 28 H 40.38 V 32 Z M 44.11,28.42 H 42.89 V 32 H 42.39 V 28.42 H 41.17 V 28 H 44.11 V 28.42 Z M 44.51,32 H 45 V 28 H 44.5 V 32 Z M 48.57,30.13 C 48.57,30.51 48.51,30.84 48.38,31.13 C 48.26,31.41 48.08,31.63 47.85,31.78 C 47.62,31.93 47.35,32 47.05,32 C 46.75,32 46.48,31.93 46.25,31.78 A 1.5,1.5 0 0,1 45.71,31.13 C 45.58,30.85 45.51,30.53 45.51,30.16 V 29.88 C 45.51,29.51 45.58,29.18 45.71,28.88 C 45.83,28.6 46.01,28.38 46.24,28.23 C 46.48,28.08 46.74,28 47.04,28 C 47.34,28 47.61,28.08 47.84,28.23 C 48.08,28.38 48.26,28.6 48.38,28.88 C 48.51,29.17 48.57,29.5 48.57,29.88 V 30.13 Z M 48.07,29.87 C 48.07,29.41 47.98,29.06 47.8,28.81 A 0.89,0.89 0 0,0 47.04,28.44 A 0.88,0.88 0 0,0 46.29,28.81 C 46.11,29.06 46.02,29.41 46.01,29.84 V 30.13 C 46.01,30.57 46.11,30.93 46.29,31.18 C 46.47,31.44 46.72,31.56 47.05,31.56 C 47.37,31.56 47.62,31.44 47.8,31.2 C 47.97,30.96 48.07,30.61 48.07,30.16 V 29.87 Z M 51.5,32 H 52 V 28 H 51.5 V 31.07 L 49.58,28 H 49.08 V 32 H 49.58 V 28.95 L 51.5,32 Z" fill="rgb(13, 51, 133)" fill-rule="evenodd"/>
</svg>
