<?xml version="1.0" encoding="UTF-8"?>
<!-- generated by Finnhub -->
<svg viewBox="0 0 55.5 55.5" xmlns="http://www.w3.org/2000/svg">
<path d="M 0,0 H 55.5 V 55.5 H 0 Z" fill="url(#a)"/>
<path d="M 40.99,22.985 H 35.22 C 35.718,23.183 35.97,23.755 36,24.253 V 27.761 C 35.95,28.268 35.664,28.763 35.22,28.999 H 38.842 C 38.249,28.855 38.001,28.179 38,27.634 V 26.284 C 38.769,26.284 39.844,26.431 40,27.289 V 24.545 C 39.692,25.315 38.8,25.496 38,25.497 V 24 C 38.812,24 40.703,23.821 41,24.845 V 23 Z M 42,23 V 25.272 C 42.121,24.336 43.136,23.923 44,24 V 27.837 C 43.951,28.368 43.64,28.86 43.15,28.999 H 46.9 C 46.269,28.886 46,28.425 46,27.837 V 24 C 46.87,24 47.846,24.277 48,25.25 V 23 H 42 Z M 31.563,28.691 C 31.469,28.778 31.363,28.851 31.249,28.905 L 31.049,28.999 H 35.219 A 0.695,0.695 0 0,1 35.024,28.924 A 2.137,2.137 0 0,1 34.452,28.44 A 2.67,2.67 0 0,1 34.164,28.006 A 3.981,3.981 0 0,1 33.939,27.496 L 33.636,26.581 L 33.226,25.347 L 32.438,23 H 28.977 C 29.087,23.028 29.192,23.07 29.291,23.124 C 29.379,23.177 29.46,23.243 29.531,23.319 A 0.716,0.716 0 0,1 29.701,23.968 A 2.13,2.13 0 0,1 29.604,24.29 C 29.506,24.55 29.431,24.756 29.379,24.908 C 29.364,24.955 29.347,24.998 29.329,25.04 L 28.704,26.682 L 28.549,27.102 A 12.42,12.42 0 0,1 28.316,27.679 C 28.23,27.879 28.139,28.067 28.043,28.242 C 27.973,28.381 27.883,28.507 27.773,28.616 A 3.753,3.753 0 0,1 27.305,28.946 A 0.841,0.841 0 0,0 27.221,28.999 H 30.335 A 0.954,0.954 0 0,1 29.777,28.646 A 1.115,1.115 0 0,1 29.567,28.009 A 0.945,0.945 0 0,1 29.601,27.799 A 3.613,3.613 0 0,1 29.781,27.259 A 3.79,3.79 0 0,0 29.855,27.064 H 31.605 L 31.663,27.233 C 31.688,27.305 31.713,27.379 31.741,27.454 A 6.064,6.064 0 0,1 31.863,27.829 A 0.76,0.76 0 0,1 31.826,28.339 A 1.149,1.149 0 0,1 31.564,28.692 Z M 30.046,26.351 L 30.666,24.403 L 31.316,26.352 H 30.046 Z" fill="rgb(96, 180, 14)"/>
<path d="M 25.497999999999998,25.992 C 26.098,25.732 26.523,25.056 26.464,24.402 C 26.401,23.311 25.208,22.999 24.29,23 H 20.233 C 20.955,23.185 20.999,23.937 21,24.552 V 27.626 C 20.997,28.166 20.76,28.761 20.248,28.999 H 23.849 C 23.045,28.701 22.986,27.864 23,27.116 V 26.292 C 23.184,26.292 23.33,26.292 23.514,26.29 C 24.438,28.485 24.76,29 25.68,29 H 27.703 C 27.011,29 26.125,27.35 25.508,26.008 Z M 23,25.475 V 24 H 23.38 C 23.903,23.97 24.499,24.145 24.499,24.754 C 24.499,25.364 23.833,25.5 23.346,25.482 C 23.169,25.477 23.163,25.475 23,25.475 Z" fill="rgb(96, 180, 14)"/>
<path d="M 21.125,16.491 A 1.587,1.587 0 0,0 20.223,17.856 H 20.221 A 1.553,1.553 0 0,0 18.745,17.678 A 1.574,1.574 0 0,0 19.208,18.403 C 19.374,18.55 19.57,18.66 19.782,18.725 C 19.547,19.092 19.237,19.405 18.872,19.643 A 1.099,1.099 0 0,1 18.345,19.819 A 1.18,1.18 0 0,1 17.159,19.199 A 1.179,1.179 0 0,1 15.659,19.718 A 3.076,3.076 0 0,1 14.257,17.9 L 14.284,17.898 A 1.55,1.55 0 0,0 15.452,17.138 C 15.479,17.093 15.503,17.047 15.525,16.999 A 1.553,1.553 0 0,0 14.009,16.805 C 14.025,16.253 13.614,15.421 13.109,15.119 A 1.994,1.994 0 0,0 12.911,15.019 L 12.866,15 L 12.836,15.04 C 12.796,15.091 12.759,15.146 12.726,15.202 C 12.429,15.712 12.511,16.629 12.789,17.106 A 1.552,1.552 0 0,0 11.553,18.013 A 1.548,1.548 0 0,0 13.07,18.197 L 13.095,18.186 A 3.095,3.095 0 0,1 12.925,20.086 C 12.923,20.084 12.923,20.081 12.922,20.078 L 12.908,20.124 A 2.968,2.968 0 0,1 12.705,20.509 A 1.186,1.186 0 0,1 11.136,20.774 A 1.206,1.206 0 0,1 10.382,21.886 A 1.168,1.168 0 0,1 10.052,21.964 A 3.046,3.046 0 0,1 8.648,21.594 A 1.572,1.572 0 0,0 9.085,20.376 A 2.79,2.79 0 0,0 9.056,20.113 C 8.517,20.181 8.072,20.666 7.848,20.926 H 7.846 C 7.549,20.666 7.002,20.201 6.402,20.247 A 1.57,1.57 0 0,0 6.002,20.367 A 20.231,20.231 0 0,1 9.125,23.297 C 9.663,23.919 10.582,25.173 10.583,25.172 C 10.823,25.397 11.141,25.517 11.468,25.507 A 0.088,0.088 0 0,0 11.543,25.424 C 11.547,25.391 11.491,25.372 11.462,25.359 A 0.703,0.703 0 0,1 11.017,24.86 C 10.843,24.313 12.466,23.326 14.837,22.72 C 17.207,22.113 19.112,22.186 19.222,22.75 A 0.716,0.716 0 0,1 19.07,23.404 C 19.05,23.429 19.01,23.474 19.031,23.501 A 0.088,0.088 0 0,0 19.136,23.539 C 19.428,23.389 19.649,23.129 19.752,22.817 C 19.752,22.817 20.007,21.263 20.182,20.457 A 20.174,20.174 0 0,1 21.529,16.391 A 1.54,1.54 0 0,0 21.135,16.506" fill="rgb(246, 117, 11)"/>
<path d="M 12.99,23.838 C 14.28,23.301 15.387,23.003 16.767,22.817 C 16.767,22.817 19.459,23.084 19.459,26.271 C 19.459,29.458 17.211,31.277 14.152,31.277 C 11.092,31.277 9.479,29.917 9.479,28.468 S 10.512,26.788 10.993,26.788 C 11.473,26.788 12.341,27.226 12.341,28.361 C 12.341,28.361 11.476,28.147 11.476,28.901 C 11.476,29.656 12.498,30.125 13.9,30.125 C 15.3,30.125 17.28,29.506 17.28,26.747 C 17.28,23.803 15.939,23.672 15,23.672 V 28.722 A 0.47,0.47 0 0,0 15.145,29.045 A 0.468,0.468 0 0,0 15.481,29.165 S 15.121,29.568 13.9,29.568 C 12.678,29.568 12.34,29.165 12.34,29.165 S 13,29.235 13,28.721 V 23.853 Z" fill="rgb(96, 180, 14)"/>
<path d="M 43.753,33.083 C 43.422,33.02 42.952,32.798 43,32.348 C 43.052,31.859 43.667,31.704 44.071,31.712 C 44.95,31.724 45.397,32.311 46,32.87 V 30.756 S 45.846,31.16 45.19,31.16 C 44.608,31.145 44.172,30.947 43.574,30.965 C 42.469,30.963 40.954,31.597 41,32.87 C 40.975,33.376 41.385,33.877 41.851,34.102 C 42.759,34.539 43.808,34.62 44.655,35.057 C 44.835,35.146 45.075,35.327 45.002,35.558 C 44.924,35.916 44.405,35.988 44.072,36 C 43.712,36.018 43.353,35.904 43.012,35.79 C 42.279,35.525 41.438,35.138 41,34.48 V 37 C 41.386,36.782 41.877,36.713 42.316,36.705 C 42.986,36.695 43.628,36.969 44.304,36.969 C 45.43,36.967 47.064,36.394 47,35.056 C 46.816,33.472 44.992,33.38 43.763,33.098 Z M 33.01,32.282 C 33.01,32.187 33.016,32.085 33.025,31.975 C 33.035,31.865 33.055,31.758 33.085,31.652 C 33.113,31.55 33.154,31.452 33.206,31.36 A 0.81,0.81 0 0,1 33.409,31.127 A 0.63,0.63 0 0,1 33.704,31 H 30.997 C 31.147,31.008 31.289,31.063 31.407,31.157 A 0.955,0.955 0 0,1 31.657,31.491 C 31.72,31.628 31.762,31.773 31.782,31.922 C 31.804,32.066 31.815,32.212 31.816,32.358 V 35.043 L 29.278,31 H 26.21 A 0.643,0.643 0 0,1 26.615,31.153 C 26.719,31.247 26.8,31.363 26.851,31.495 C 26.907,31.635 26.944,31.78 26.962,31.93 A 3.4,3.4 0 0,1 26.992,32.358 C 26.992,32.418 26.992,32.506 26.995,32.624 V 35.467 A 6.483,6.483 0 0,1 26.962,36.137 C 26.952,36.236 26.932,36.333 26.902,36.427 A 0.945,0.945 0 0,1 26.778,36.685 A 0.705,0.705 0 0,1 26.498,36.922 C 26.468,36.934 26.437,36.945 26.405,36.955 A 0.985,0.985 0 0,0 26.32,36.985 A 0.178,0.178 0 0,1 26.276,37 H 28.924 A 3.39,3.39 0 0,1 28.736,36.892 A 1.59,1.59 0 0,1 28.581,36.779 A 1.022,1.022 0 0,1 28.452,36.655 A 1.079,1.079 0 0,1 28.231,36.16 A 3.079,3.079 0 0,1 28.179,35.613 V 32.97 L 30.676,37 H 33.704 A 0.632,0.632 0 0,1 33.409,36.873 A 0.81,0.81 0 0,1 33.206,36.64 A 1.271,1.271 0 0,1 33.084,36.348 A 1.783,1.783 0 0,1 33.025,36.025 A 3.482,3.482 0 0,1 33.011,35.718 V 32.282 Z M 25,32.313 C 25.02,31.799 25.181,31.18 25.716,31 H 22.189 C 22.762,31.163 23.021,31.918 23,32.438 V 35.466 C 23,35.946 22.949,36.433 22.577,36.779 L 22.518,36.825 C 21.654,36.458 20.753,35.552 20.087,34.467 C 19.694,33.827 19.25,32.981 18.881,32.242 C 19.228,31.789 19.561,31.368 19.828,31.046 A 3.81,3.81 0 0,1 21.727,30 H 18.849 S 19.113,30.394 18.732,30.874 L 17,33.278 V 31.263 C 16.377,31.543 15.695,31.745 15,31.796 V 35.396 C 14.973,35.996 14.64,36.906 13.9,36.998 H 17.918 C 17.113,36.83 17,35.656 17,35.023 L 17.457,34.14 C 17.603,34.396 17.757,34.662 17.918,34.926 C 18.682,36.186 19.291,37 20.258,37 L 25.701,36.998 C 25.196,36.788 25.006,36.255 25,35.722 V 32.312 Z M 38,34.91 V 35.744 C 37.911,35.984 37.475,36.141 37.218,36.123 C 36.688,36.123 36.24,35.687 36.136,35.163 V 35.167 A 5.14,5.14 0 0,1 36.118,32.877 C 36.228,32.367 36.794,31.858 37.348,31.849 C 38.294,31.806 39.653,32.44 40,33.383 V 30.733 C 39.913,30.997 39.82,31.169 39.55,31.286 C 39.305,31.369 39.055,31.353 38.802,31.313 C 38.352,31.247 37.935,31.048 37.479,31.002 A 4.346,4.346 0 0,0 37.04,30.98 A 3.892,3.892 0 0,0 36.155,31.079 A 3.144,3.144 0 0,0 35.363,31.379 A 2.72,2.72 0 0,0 34.701,31.882 A 2.581,2.581 0 0,0 34.305,32.422 L 34.301,32.429 A 4.265,4.265 0 0,0 34.03,34.909 A 3.172,3.172 0 0,0 34.305,35.636 A 2.485,2.485 0 0,0 35.791,36.855 C 36.151,36.964 36.526,37.012 36.901,36.998 C 37.071,36.992 37.241,36.968 37.406,36.925 C 37.577,36.881 37.751,36.832 37.926,36.779 C 38.1,36.725 38.275,36.674 38.452,36.625 C 38.622,36.578 38.796,36.549 38.972,36.541 C 39.14,36.534 39.309,36.554 39.472,36.6 C 39.647,36.652 39.866,36.877 40,37 V 35.264 C 40.002,34.758 40.097,34.162 40.642,34 H 37.348 C 37.845,34.047 38.021,34.445 38,34.91 Z" fill="rgb(254, 254, 253)"/>
<defs>
<linearGradient id="a" x1="10.418" x2="68.147" y1="9.712" y2="76.017" gradientUnits="userSpaceOnUse">
<stop stop-color="rgb(25, 29, 31)" offset="0"/>
<stop stop-color="rgb(5, 5, 8)" offset="1"/>
</linearGradient>
</defs>
</svg>
