<?xml version="1.0" encoding="UTF-8"?>
<!-- generated by Finnhub -->
<svg viewBox="0 0 55.5 55.5" xmlns="http://www.w3.org/2000/svg">
<path d="M 0,0 H 55.5 V 55.5 H 0 Z" fill="rgb(239, 242, 248)"/>
<path d="M 24.99,10.985 V 45 L 13,38.54 V 17.46 L 25,11 Z" fill="rgb(27, 76, 162)"/>
<path d="M 26.99,10.985 V 44.9 L 29,44.15 V 40.65 L 31,40 V 43.4 L 44,38.47 V 17.44 L 40,15.93 V 18 L 42,18.73 V 22 L 40,21.27 V 19 L 38,18.32 V 15.17 L 31,12.52 V 18 L 29,17.32 V 11.76 L 27,11 Z M 40,37.27 L 38,38 V 34.73 L 40,34 V 37.27 Z M 40,34 V 25 H 42 V 33.64 L 40,34 Z M 35,16.77 L 33,16 V 20.23 L 35,21 V 16.77 Z M 29,21 H 31 V 25 H 29 V 21 Z M 37,24 H 35 V 27 H 37 V 24 Z M 31,27 H 33 V 30 H 31 V 27 Z M 33,30 H 35 V 36.64 L 33,37 V 30 Z M 31,32 L 29,32.32 V 36 L 31,35.68 V 32 Z" fill="rgb(50, 139, 200)" fill-rule="evenodd"/>
</svg>
