<?xml version="1.0" encoding="UTF-8"?>
<!-- generated by Finnhub -->
<svg viewBox="0 0 55.5 55.5" xmlns="http://www.w3.org/2000/svg">
<path d="M 0,0 H 55.5 V 55.5 H 0 Z" fill="rgb(239, 242, 248)"/>
<path d="M 25.99,32.324 V 40.891 C 25.944,43.008 25.925,43.055 25.892,43.123 C 25.692,43.688 24.808,43.984 24.824,44 H 31.24 A 3.01,3.01 0 0,1 30.241,43.08 C 30.191,43.007 30.001,42.941 30.001,39.66 V 23.66 L 24.656,29.263 C 25.014,29.103 25.532,29.193 25.779,29.501 C 26.026,29.776 26,29.925 26,32.339 Z"/>
<path d="M 11.99,28.169 C 12,27.621 12.028,27.064 12.085,26.517 L 26.325,12.086 A 15.827,15.827 0 0,1 30.241,12.164 L 12.161,30.487 A 16.47,16.47 0 0,1 12,28.184 M 17.53,40.431 A 16.37,16.37 0 0,1 15.561,38.375 L 23.671,30.209 C 24.03,30.052 24.547,30.136 24.793,30.443 C 24.97,30.689 24.976,30.894 25,32.778 L 17.53,40.431 Z M 38.027,15.609 A 16.153,16.153 0 0,1 40.057,17.601 L 31,26.517 V 22.466 L 38.027,15.609 Z M 34.935,13.616 C 35.815,14.048 36.649,14.558 37.429,15.14 L 15.099,37.767 A 16.362,16.362 0 0,1 13.594,35.241 L 34.935,13.616 Z M 31.148,12.32 C 32.208,12.537 33.233,12.86 34.206,13.28 L 13.263,34.502 A 16.242,16.242 0 0,1 12.316,31.405 L 31.148,12.32 Z M 12.259,25.264 C 13.444,18.667 18.577,13.466 25.088,12.264 L 12.258,25.264 Z" fill="rgb(110, 189, 72)"/>
<path d="M 40.443000000000005,38.109 C 39.862,38.874 39.207,39.57 38.497,40.204 L 31,32.85 V 28.79 L 40.453,38.124 Z M 42.453,35.099 C 42.036,35.984 41.632,36.751 41.069,37.539 L 31.259,27.599 L 33.154,25.679 L 42.453,35.099 Z M 43.706,31.248 A 16.273,16.273 0 0,1 42.781,34.355 L 33.684,25.142 L 35.682,23.116 L 43.706,31.248 Z M 38.743,20.015 L 40.546,18.19 C 42.084,20.172 43.219,22.48 43.71,25.054 L 38.743,20.014 Z M 38.213,20.553 L 43.901,26.323 A 16.599,16.599 0 0,1 43.855,30.325 L 36.215,22.578 L 38.213,20.553 Z" fill="rgb(1, 148, 74)"/>
</svg>
