<?xml version="1.0" encoding="UTF-8"?>
<!-- generated by Finnhub -->
<svg viewBox="0 0 55.5 55.5" xmlns="http://www.w3.org/2000/svg">
<path d="M 0,0 H 55.5 V 55.5 H 0 Z" fill="rgb(239, 242, 248)"/>
<path d="M 6.946000000000001,34.514 C 7.183,35.516 7.838,36 8.933,36 H 46.966 C 48.056,36 48.703,35.516 48.937,34.529 A 9620.98,9620.98 0 0,1 51.984,21.706 A 0.572,0.572 0 0,0 51.356,21.004 L 27.96,23.628 L 4.644,21.004 A 0.57,0.57 0 0,0 4.016,21.7 L 4.653,24.486 C 5.278,27.228 6.163,31.108 6.956,34.529 Z M 48.053,34.179 C 47.9,34.812 47.573,34.999 46.862,34.993 L 9.045,35 C 8.333,35.006 8.001,34.812 7.848,34.179 C 6.404,28.179 5,22 5,22 L 27.973,24.528 L 51,22 S 49.496,28.18 48.053,34.179 Z" clip-rule="evenodd" fill="rgb(50, 101, 49)" fill-rule="evenodd"/>
<path d="M 42.480000000000004,35.705 C 42.49,36.428 41.882,37 41.128,37 H 14.772 C 14.024,37 13.409,36.428 13.409,35.72 V 35.28 C 13.409,34.572 14.017,34 14.772,34 H 41.128 C 41.876,34 42.49,34.572 42.49,35.28 V 35.72 Z" fill="rgb(50, 101, 49)"/>
<path d="M 15.71,34.586999999999996 C 15.72,34.576 15.74,34.557 15.768,34.557 H 16.376 C 16.856,34.557 17.251,34.934 17.251,35.401 A 0.866,0.866 0 0,1 16.376,36.253 H 15.768 A 0.045,0.045 0 0,1 15.721,36.207 V 34.602 Z M 16.356,35.889 A 0.48,0.48 0 0,0 16.843,35.395 A 0.478,0.478 0 0,0 16.356,34.908 H 16.116 V 35.888 H 16.356 Z" fill="rgb(254, 254, 253)"/>
<path d="M 15.75,34.580999999999996 C 15.758,34.597 15.757,34.599 15.757,34.602 V 36.207 C 15.757,36.211 15.758,36.212 15.76,36.214 C 15.76,36.214 15.763,36.216 15.768,36.216 H 16.376 A 0.83,0.83 0 0,0 17.214,35.401 C 17.214,34.955 16.838,34.593 16.376,34.593 H 15.768 C 15.763,34.593 15.761,34.595 15.76,34.596 Z M 15.685,34.602 C 15.685,34.555 15.722,34.521 15.768,34.521 H 16.376 C 16.876,34.521 17.287,34.912 17.287,35.401 A 0.903,0.903 0 0,1 16.376,36.289 H 15.768 A 0.081,0.081 0 0,1 15.685,36.207 V 34.602 Z M 16.079,34.908 C 16.079,34.888 16.095,34.871 16.115,34.871 H 16.355 C 16.657,34.871 16.879,35.102 16.879,35.395 C 16.879,35.694 16.657,35.925 16.356,35.925 H 16.116 A 0.036,0.036 0 0,1 16.079,35.889 V 34.908 Z M 16.151,34.944 V 35.852 H 16.356 C 16.616,35.852 16.807,35.655 16.807,35.395 A 0.442,0.442 0 0,0 16.356,34.944 H 16.151 Z" clip-rule="evenodd" fill="rgb(254, 254, 253)" fill-rule="evenodd"/>
<path d="M 19.471999999999998,34.516 C 19.983,34.531 20.384,34.921 20.384,35.401 C 20.384,35.882 19.984,36.272 19.482,36.272 C 18.982,36.272 18.587,35.889 18.587,35.402 C 18.587,34.921 18.981,34.532 19.482,34.532 Z M 19.482,35.883 A 0.492,0.492 0 0,0 19.983,35.402 A 0.498,0.498 0 0,0 18.988,35.402 C 18.981,35.668 19.208,35.882 19.482,35.882 Z" fill="rgb(254, 254, 253)"/>
<path d="M 19.471999999999998,34.552 A 0.843,0.843 0 0,0 18.623,35.402 C 18.623,35.868 19,36.236 19.483,36.236 C 19.964,36.236 20.348,35.861 20.348,35.402 C 20.348,34.942 19.964,34.567 19.482,34.567 Z M 18.551,35.402 C 18.551,34.9 18.961,34.495 19.482,34.495 C 20.002,34.495 20.42,34.9 20.42,35.402 S 20.002,36.309 19.482,36.309 S 18.551,35.91 18.551,35.402 Z M 18.951,35.402 A 0.534,0.534 0 0,1 20.019,35.402 A 0.529,0.529 0 0,1 19.482,35.919 C 19.19,35.919 18.945,35.69 18.952,35.401 Z M 19.482,34.951 A 0.456,0.456 0 0,0 19.024,35.401 V 35.403 C 19.018,35.647 19.227,35.846 19.482,35.846 C 19.738,35.846 19.947,35.646 19.947,35.402 A 0.462,0.462 0 0,0 19.482,34.951 Z" clip-rule="evenodd" fill="rgb(254, 254, 253)" fill-rule="evenodd"/>
<path d="M 21.79,34.586999999999996 C 21.8,34.576 21.82,34.557 21.847,34.557 H 22.155 C 22.181,34.557 22.201,34.577 22.201,34.602 V 35.583 A 0.3,0.3 0 0,0 22.509,35.889 C 22.689,35.889 22.823,35.752 22.823,35.583 V 34.603 C 22.823,34.576 22.843,34.557 22.869,34.557 H 23.177 C 23.203,34.557 23.223,34.577 23.223,34.602 V 35.602 C 23.223,35.973 22.903,36.272 22.509,36.272 C 22.114,36.272 21.8,35.967 21.8,35.602 V 34.602 Z" fill="rgb(254, 254, 253)"/>
<path d="M 21.83,34.580999999999996 C 21.838,34.596 21.837,34.599 21.837,34.602 V 35.602 C 21.837,35.945 22.133,36.236 22.509,36.236 C 22.885,36.236 23.187,35.951 23.187,35.603 V 34.603 A 0.009,0.009 0 0,0 23.185,34.596 A 0.011,0.011 0 0,0 23.177,34.593 H 22.869 C 22.865,34.593 22.863,34.594 22.861,34.596 L 22.859,34.602 V 35.583 C 22.859,35.773 22.709,35.925 22.509,35.925 A 0.336,0.336 0 0,1 22.165,35.583 V 34.603 A 0.009,0.009 0 0,0 22.163,34.596 C 22.161,34.594 22.159,34.593 22.155,34.593 H 21.847 C 21.843,34.593 21.84,34.594 21.839,34.596 Z M 21.764,34.602 C 21.764,34.555 21.802,34.52 21.847,34.52 H 22.155 C 22.2,34.52 22.238,34.555 22.238,34.602 V 35.583 C 22.238,35.733 22.348,35.853 22.508,35.853 C 22.67,35.853 22.786,35.732 22.786,35.583 V 34.603 C 22.786,34.555 22.824,34.52 22.869,34.52 H 23.177 C 23.223,34.52 23.26,34.555 23.26,34.602 V 35.602 C 23.26,35.995 22.92,36.308 22.509,36.308 C 22.096,36.308 21.764,35.988 21.764,35.603 V 34.603 Z" clip-rule="evenodd" fill="rgb(254, 254, 253)" fill-rule="evenodd"/>
<path d="M 25.525,34.516 C 25.742,34.531 25.975,34.616 26.143,34.758 C 26.163,34.778 26.169,34.804 26.149,34.824 L 25.949,35.024 A 0.046,0.046 0 0,1 25.882,35.024 A 0.472,0.472 0 0,0 25.555,34.908 A 0.492,0.492 0 0,0 25.061,35.395 C 25.061,35.662 25.281,35.876 25.555,35.876 A 0.528,0.528 0 0,0 25.775,35.837 V 35.694 H 25.615 A 0.045,0.045 0 0,1 25.568,35.649 V 35.421 C 25.568,35.395 25.588,35.376 25.615,35.376 H 26.116 C 26.143,35.376 26.163,35.396 26.163,35.421 V 36.071 C 26.163,36.084 26.156,36.103 26.143,36.11 C 26.143,36.11 25.889,36.266 25.522,36.266 C 25.027,36.266 24.626,35.883 24.626,35.402 A 0.904,0.904 0 0,1 25.535,34.532 Z" fill="rgb(254, 254, 253)" stroke="rgb(254, 254, 253)" stroke-linecap="round" stroke-linejoin="round" stroke-miterlimit="10" stroke-width=".073"/>
<path d="M 27.662999999999997,34.586999999999996 C 27.673,34.576 27.693,34.557 27.72,34.557 H 28.014 C 28.04,34.557 28.06,34.577 28.06,34.602 V 35.212 H 28.782 V 34.602 C 28.782,34.576 28.802,34.557 28.828,34.557 H 29.122 C 29.149,34.557 29.169,34.577 29.169,34.602 V 36.2 C 29.169,36.226 29.149,36.246 29.122,36.246 H 28.828 A 0.045,0.045 0 0,1 28.782,36.2 V 35.564 H 28.067 V 36.2 C 28.067,36.226 28.047,36.246 28.02,36.246 H 27.726 A 0.045,0.045 0 0,1 27.679,36.2 V 34.602 H 27.673 Z" fill="rgb(254, 254, 253)"/>
<path d="M 27.705,34.579 V 36.2 C 27.715,36.204 27.717,36.206 27.718,36.207 S 27.722,36.21 27.726,36.21 H 28.02 A 0.012,0.012 0 0,0 28.028,36.207 C 28.03,36.206 28.031,36.204 28.031,36.2 V 35.564 C 28.031,35.544 28.047,35.527 28.067,35.527 H 28.782 C 28.802,35.527 28.818,35.544 28.818,35.564 V 36.2 C 28.818,36.204 28.819,36.206 28.82,36.207 C 28.822,36.208 28.824,36.21 28.828,36.21 H 29.122 C 29.127,36.21 29.129,36.208 29.131,36.207 A 0.009,0.009 0 0,0 29.133,36.2 V 34.602 A 0.009,0.009 0 0,0 29.131,34.596 C 29.129,34.594 29.127,34.593 29.122,34.593 H 28.828 C 28.824,34.593 28.822,34.594 28.82,34.596 L 28.818,34.602 V 35.212 C 28.818,35.232 28.802,35.249 28.782,35.249 H 28.06 A 0.036,0.036 0 0,1 28.024,35.213 V 34.603 C 28.024,34.599 28.023,34.597 28.022,34.596 C 28.02,34.594 28.018,34.593 28.014,34.593 H 27.715 Z M 27.643,34.624 A 0.036,0.036 0 0,1 27.637,34.602 C 27.637,34.555 27.674,34.52 27.72,34.52 H 28.014 C 28.059,34.52 28.097,34.555 28.097,34.602 V 35.177 H 28.745 V 34.602 C 28.745,34.555 28.783,34.52 28.828,34.52 H 29.122 C 29.168,34.52 29.206,34.555 29.206,34.602 V 36.2 A 0.081,0.081 0 0,1 29.122,36.282 H 28.828 A 0.081,0.081 0 0,1 28.745,36.2 V 35.6 H 28.103 V 36.2 A 0.081,0.081 0 0,1 28.02,36.282 H 27.726 A 0.081,0.081 0 0,1 27.643,36.2 V 34.623 Z" clip-rule="evenodd" fill="rgb(254, 254, 253)" fill-rule="evenodd"/>
<path d="M 30.723,34.555 C 30.733,34.544 30.753,34.524 30.779,34.524 H 30.839 L 31.835,35.454 V 34.596 C 31.835,34.57 31.855,34.55 31.882,34.55 H 32.182 C 32.209,34.55 32.229,34.57 32.229,34.596 V 36.22 C 32.229,36.246 32.209,36.266 32.182,36.266 H 32.142 A 0.071,0.071 0 0,1 32.109,36.253 L 31.119,35.291 V 36.201 C 31.119,36.227 31.1,36.246 31.073,36.246 H 30.779 A 0.045,0.045 0 0,1 30.733,36.201 V 34.57 Z" fill="rgb(254, 254, 253)"/>
<path d="M 30.761,34.548 C 30.77,34.565 30.769,34.566 30.769,34.57 V 36.2 C 30.769,36.204 30.77,36.206 30.771,36.207 C 30.773,36.208 30.775,36.21 30.779,36.21 H 31.073 C 31.078,36.21 31.08,36.208 31.081,36.207 A 0.009,0.009 0 0,0 31.084,36.201 V 35.291 A 0.036,0.036 0 0,1 31.145,35.265 L 32.133,36.225 L 32.138,36.227 L 32.144,36.229 H 32.182 C 32.187,36.229 32.189,36.228 32.19,36.227 A 0.009,0.009 0 0,0 32.193,36.22 V 34.596 A 0.009,0.009 0 0,0 32.19,34.589 S 32.187,34.587 32.182,34.587 H 31.882 C 31.877,34.587 31.875,34.588 31.873,34.589 A 0.009,0.009 0 0,0 31.871,34.596 V 35.453 A 0.036,0.036 0 0,1 31.81,35.48 L 30.825,34.56 H 30.779 C 30.775,34.56 30.773,34.562 30.771,34.563 Z M 32.145,36.229 Z M 32.145,36.229 Z M 32.135,36.227 Z M 30.696,34.57 C 30.696,34.523 30.733,34.488 30.779,34.488 H 30.839 C 30.849,34.488 30.858,34.492 30.864,34.498 L 31.799,35.37 V 34.596 C 31.799,34.549 31.836,34.514 31.882,34.514 H 32.182 C 32.228,34.514 32.265,34.549 32.265,34.596 V 36.22 A 0.081,0.081 0 0,1 32.182,36.302 H 32.142 A 0.068,0.068 0 0,1 32.126,36.3 A 0.146,0.146 0 0,1 32.113,36.296 A 0.087,0.087 0 0,1 32.083,36.279 M 32.083,36.279 L 31.156,35.377 V 36.201 A 0.081,0.081 0 0,1 31.073,36.282 H 30.779 A 0.081,0.081 0 0,1 30.696,36.201 V 34.57" clip-rule="evenodd" fill="rgb(254, 254, 253)" fill-rule="evenodd"/>
<path d="M 33.769000000000005,34.586999999999996 C 33.779,34.576 33.799,34.557 33.826,34.557 H 34.133 C 34.16,34.557 34.18,34.577 34.18,34.602 V 35.583 A 0.3,0.3 0 0,0 34.487,35.889 C 34.667,35.889 34.801,35.752 34.801,35.583 V 34.603 C 34.801,34.576 34.821,34.557 34.848,34.557 H 35.155 C 35.182,34.557 35.202,34.577 35.202,34.602 V 35.602 C 35.202,35.973 34.882,36.272 34.487,36.272 C 34.093,36.272 33.779,35.967 33.779,35.602 V 34.602 Z" fill="rgb(254, 254, 253)"/>
<path d="M 33.808,34.580999999999996 A 0.009,0.009 0 0,0 33.815,34.602 V 35.602 C 33.815,35.945 34.111,36.236 34.487,36.236 C 34.864,36.236 35.166,35.951 35.166,35.603 V 34.603 A 0.008,0.008 0 0,0 35.163,34.596 C 35.162,34.594 35.159,34.593 35.155,34.593 H 34.848 C 34.843,34.593 34.841,34.594 34.84,34.596 C 34.838,34.596 34.837,34.599 34.837,34.602 V 35.583 C 34.837,35.773 34.687,35.925 34.487,35.925 A 0.336,0.336 0 0,1 34.144,35.583 V 34.603 A 0.009,0.009 0 0,0 34.141,34.596 C 34.14,34.594 34.137,34.593 34.133,34.593 H 33.826 C 33.821,34.593 33.819,34.594 33.818,34.596 Z M 33.743,34.602 C 33.743,34.555 33.78,34.52 33.826,34.52 H 34.133 C 34.179,34.52 34.216,34.555 34.216,34.602 V 35.583 C 34.216,35.733 34.327,35.853 34.487,35.853 A 0.27,0.27 0 0,0 34.765,35.583 V 34.603 C 34.765,34.555 34.802,34.52 34.848,34.52 H 35.155 C 35.201,34.52 35.238,34.555 35.238,34.602 V 35.602 C 35.238,35.995 34.898,36.308 34.487,36.308 C 34.074,36.308 33.743,35.988 33.743,35.603 V 34.603 Z" clip-rule="evenodd" fill="rgb(254, 254, 253)" fill-rule="evenodd"/>
<path d="M 36.942,34.893 H 36.598 A 0.045,0.045 0 0,1 36.551,34.862 V 34.596 C 36.551,34.57 36.571,34.55 36.598,34.55 H 37.707 C 37.734,34.55 37.754,34.57 37.754,34.596 V 34.862 C 37.754,34.888 37.734,34.908 37.707,34.908 H 37.353 V 36.2 C 37.353,36.226 37.333,36.245 37.306,36.245 H 37.006 A 0.045,0.045 0 0,1 36.959,36.2 V 34.907 H 36.952 Z" fill="rgb(254, 254, 253)"/>
<path d="M 36.580000000000005,34.575 L 36.588,34.596 V 34.862 C 36.588,34.865 36.588,34.867 36.59,34.869 L 36.598,34.871 H 36.958 C 36.978,34.871 36.995,34.888 36.995,34.908 V 36.2 C 36.995,36.203 36.996,36.205 36.998,36.206 C 36.998,36.207 37.001,36.209 37.006,36.209 H 37.306 C 37.311,36.209 37.313,36.207 37.314,36.206 C 37.316,36.205 37.317,36.203 37.317,36.2 V 34.907 C 37.317,34.887 37.333,34.87 37.353,34.87 H 37.707 C 37.712,34.87 37.714,34.869 37.715,34.868 S 37.718,34.865 37.718,34.861 V 34.595 C 37.718,34.592 37.716,34.59 37.715,34.588 L 37.707,34.586 H 36.598 L 36.59,34.588 Z M 36.515,34.596 C 36.515,34.549 36.553,34.514 36.598,34.514 H 37.707 C 37.753,34.514 37.79,34.549 37.79,34.596 V 34.862 A 0.081,0.081 0 0,1 37.707,34.944 H 37.389 V 36.201 A 0.081,0.081 0 0,1 37.306,36.282 H 37.006 A 0.081,0.081 0 0,1 36.923,36.201 V 34.944 H 36.598 A 0.081,0.081 0 0,1 36.515,34.862 V 34.596 Z" clip-rule="evenodd" fill="rgb(254, 254, 253)" fill-rule="evenodd"/>
<path d="M 39.06,36.004 L 39.19,35.818 C 39.21,35.785 39.257,35.792 39.277,35.805 C 39.284,35.811 39.464,35.935 39.631,35.935 C 39.731,35.935 39.805,35.876 39.805,35.792 C 39.805,35.688 39.718,35.61 39.551,35.545 C 39.337,35.46 39.071,35.298 39.071,35.012 C 39.071,34.772 39.264,34.532 39.645,34.532 C 39.905,34.532 40.105,34.662 40.179,34.713 C 40.206,34.733 40.206,34.772 40.192,34.791 L 40.065,34.979 C 40.045,35.005 40.005,35.025 39.979,35.012 C 39.959,34.999 39.772,34.869 39.625,34.869 C 39.538,34.869 39.465,34.928 39.465,34.992 C 39.465,35.083 39.538,35.148 39.738,35.226 C 39.932,35.304 40.239,35.447 40.239,35.779 C 40.239,36.025 40.019,36.279 39.651,36.279 C 39.324,36.279 39.151,36.149 39.091,36.09 C 39.057,36.058 39.05,36.051 39.071,36.019 Z" fill="rgb(254, 254, 253)" stroke="rgb(254, 254, 253)" stroke-linecap="round" stroke-linejoin="round" stroke-miterlimit="10" stroke-width=".073"/>
<path d="M 35.319,26.523 H 47.702 C 48.376,26.538 48.917,25.992 48.904,25.317 C 48.904,25.317 48.904,25.265 48.897,25.239 C 48.884,25.148 48.757,25.076 48.703,25.148 C 48.557,25.356 48.056,25.356 47.735,25.356 H 35.315 C 33.245,25.356 31.488,27.766 31.08,28.273 C 31.28,27.714 31.675,26.42 31.668,25.973 C 31.655,25.3 31.134,25.038 30.598,25 A 1.993,1.993 0 0,0 29.791,25.108 C 29.724,25.134 29.751,25.244 29.817,25.258 C 30.024,25.296 30.419,25.446 30.272,26.018 C 30.258,26.102 28.622,31.877 28.622,31.877 C 28.602,31.935 28.648,32 28.715,32 H 29.871 C 29.911,32 29.951,31.974 29.958,31.935 C 30.071,31.539 30.532,30.138 30.538,30.125 C 30.8,29.319 31.274,28.793 31.641,28.793 C 31.815,28.793 31.895,28.89 31.901,29.007 C 31.908,29.273 31.528,30.097 31.367,30.701 C 31.167,31.461 31.634,32 32.383,32 C 33.164,32 33.512,31.604 33.926,30.843 C 34.1,30.525 34.774,28.903 34.901,28.5 C 35.028,28.526 35.235,28.552 35.402,28.565 L 35.115,29.715 C 35.035,30.027 34.948,30.332 34.948,30.664 C 34.941,31.138 35.115,31.68 35.69,31.658 C 36.324,31.658 36.718,31.248 36.952,30.969 A 1.21,1.21 0 0,0 38.062,31.658 C 38.662,31.658 39.164,31.437 39.532,30.976 L 39.377,31.502 A 0.088,0.088 0 0,0 39.464,31.612 H 40.306 C 40.346,31.612 40.38,31.586 40.386,31.547 L 41.014,29.287 C 41.134,28.968 41.529,28.741 41.749,28.741 C 41.856,28.741 41.916,28.806 41.876,28.955 L 41.181,31.495 A 0.088,0.088 0 0,0 41.268,31.605 H 42.117 C 42.157,31.605 42.19,31.58 42.197,31.541 L 42.805,29.319 C 42.945,29.014 43.319,28.734 43.539,28.734 C 43.639,28.734 43.693,28.806 43.659,28.955 C 43.653,28.981 43.446,29.709 43.386,29.93 C 43.026,31.255 43.359,31.645 44.067,31.645 C 44.562,31.645 44.962,31.378 45.217,31.035 C 45.423,31.515 45.897,31.645 46.319,31.645 C 47.207,31.645 47.661,31.067 47.855,30.775 C 47.889,30.729 47.875,30.664 47.842,30.631 A 0.809,0.809 0 0,0 47.715,30.547 C 47.675,30.521 47.615,30.527 47.588,30.56 C 47.374,30.82 47.107,31.047 46.619,31.047 C 46.192,31.047 46.031,30.618 46.025,30.319 C 46.025,30.274 46.025,30.241 46.031,30.209 C 47.247,30.209 47.801,29.488 47.788,28.916 C 47.782,28.461 47.548,28 46.86,28 C 45.684,28 45.016,29.215 45.036,30.203 C 45.036,30.261 45.056,30.547 45.083,30.677 C 44.969,30.82 44.742,30.995 44.542,30.995 S 44.294,30.781 44.322,30.54 C 44.395,29.858 44.708,29.124 44.702,28.604 C 44.695,28.384 44.588,28 44.054,28 C 43.62,28 43.159,28.26 42.871,28.61 C 42.845,28.39 42.818,28 42.271,28 A 1.47,1.47 0 0,0 41.195,28.494 L 41.301,28.11 A 0.088,0.088 0 0,0 41.214,28 H 40.413 A 0.079,0.079 0 0,0 40.333,28.065 S 39.865,29.728 39.852,29.78 C 39.344,30.956 38.776,31.054 38.349,31.054 C 37.954,31.054 37.747,30.514 37.781,30.138 C 38.789,30.138 39.551,29.675 39.538,28.908 C 39.531,28.414 39.258,28.005 38.589,28.005 C 37.306,28.005 36.785,29.397 36.799,30.151 C 36.799,30.274 36.812,30.475 36.825,30.573 C 36.785,30.651 36.571,30.891 36.311,30.891 C 35.924,30.891 35.931,29.969 36.545,28.175 L 36.571,28.11 C 36.591,28.058 36.551,28 36.491,28 C 36.224,28.006 35.476,28.078 35.055,27.922 C 35.055,27.915 35.195,27.272 34.52,27.272 C 34.193,27.272 33.953,27.48 33.96,27.753 C 33.966,28.156 34.273,28.312 34.447,28.39 C 34.16,29.234 33.859,29.784 33.578,30.408 C 33.311,30.999 33.071,31.168 32.898,31.168 C 32.737,31.168 32.69,31.058 32.683,30.928 C 32.677,30.467 33.345,29.598 33.325,28.552 C 33.318,28.142 33.011,27.902 32.617,27.902 A 1.43,1.43 0 0,0 31.782,28.169 C 31.788,28.156 32.971,26.539 35.329,26.539 Z M 46.846,28.435 C 46.986,28.435 47.026,28.611 47.026,28.735 C 47.04,29.397 46.613,29.832 46.031,29.871 C 46.125,29.118 46.446,28.435 46.846,28.435 Z M 38.596,28.434 C 38.79,28.434 38.796,28.7 38.783,28.862 C 38.749,29.311 38.475,29.715 37.787,29.787 C 37.881,29.04 38.222,28.434 38.596,28.434 Z M 18.908,26.455 H 27.88 C 28.555,26.455 29.096,25.909 29.082,25.234 C 29.082,25.234 29.082,25.181 29.076,25.155 C 29.062,25.065 28.942,24.974 28.882,25.065 C 28.755,25.259 28.354,25.272 28.033,25.272 H 18.901 A 0.956,0.956 0 0,1 19.095,25.864 A 0.966,0.966 0 0,1 18.908,26.454 Z M 18.052,26.455 A 0.6,0.6 0 0,0 18.66,25.864 A 0.6,0.6 0 0,0 18.052,25.273 A 0.6,0.6 0 0,0 17.445,25.863 A 0.6,0.6 0 0,0 18.052,26.455 Z" fill="rgb(190, 1, 29)"/>
<path d="M 28.063,27.985 H 27.238 A 0.092,0.092 0 0,0 27.151,28.065 L 26.577,30.015 C 26.39,30.62 26.149,30.931 25.909,30.931 C 25.662,30.931 25.635,30.633 25.689,30.373 L 26.343,28.117 C 26.357,28.059 26.317,28 26.257,28 H 25.422 A 0.092,0.092 0 0,0 25.334,28.065 L 25.294,28.201 L 24.967,29.301 C 24.907,29.535 24.84,29.756 24.787,29.957 C 24.667,30.392 24.312,30.659 24.239,30.704 A 2.28,2.28 0 0,1 23.811,30.931 C 24.045,30.587 24.199,30.261 24.312,29.741 C 24.512,28.767 24.286,28.001 23.551,28.001 C 23.271,28.001 22.963,28.085 22.702,28.396 L 22.769,28.111 A 0.088,0.088 0 0,0 22.682,28.001 H 21.894 C 21.854,28.001 21.82,28.026 21.814,28.059 L 21.78,28.156 L 21.22,30.132 C 21.132,30.451 20.898,30.652 20.772,30.743 C 20.685,30.802 20.592,30.853 20.498,30.893 C 20.645,30.613 20.658,30.327 20.658,30.21 C 20.645,29.47 20.338,29.105 20.331,28.591 A 0.758,0.758 0 0,1 20.464,28.111 C 20.498,28.059 20.471,28.001 20.418,28.001 H 19.956 A 0.176,0.176 0 0,0 19.81,28.078 C 19.602,28.416 18.874,29.333 18.433,30.035 C 18.146,30.074 17.873,30.379 17.986,30.717 C 17.939,30.776 17.812,30.937 17.632,30.937 C 17.498,30.937 17.458,30.711 17.585,30.237 C 17.591,30.21 17.591,30.197 17.591,30.197 L 18.199,28.104 A 0.084,0.084 0 0,0 18.119,28 H 17.338 C 17.271,28 17.198,28.026 17.171,28.098 L 17.144,28.202 S 16.643,29.937 16.556,30.249 C 16.469,30.561 16.196,30.815 15.981,30.815 C 15.601,30.815 15.614,29.904 16.201,28.175 L 16.229,28.111 C 16.249,28.059 16.209,28.001 16.149,28.001 C 15.881,28.007 15.139,28.041 14.719,27.884 C 14.746,27.754 14.772,27.234 14.144,27.234 C 13.817,27.234 13.556,27.494 13.617,27.826 C 13.663,28.112 13.93,28.274 14.111,28.352 C 13.817,29.255 13.363,30.174 13.135,30.636 C 13.049,30.818 12.795,31.169 12.535,31.169 C 12.216,31.169 12.376,30.686 12.432,30.528 C 12.611,30.028 12.987,29.197 12.982,28.521 C 12.982,28.301 12.848,27.819 12.287,27.819 C 11.927,27.819 11.672,27.917 11.432,28.092 C 11.432,28.092 12.574,26.468 14.932,26.468 H 17.211 A 1.013,1.013 0 0,1 17.017,25.877 A 0.984,0.984 0 0,1 17.211,25.286 H 14.913 C 12.842,25.286 11.125,27.696 10.717,28.203 C 10.917,27.643 11.312,26.423 11.305,25.973 C 11.292,25.29 10.753,25.031 10.209,25 A 1.987,1.987 0 0,0 9.428,25.11 C 9.361,25.136 9.388,25.246 9.454,25.26 C 9.662,25.298 10.056,25.448 9.909,26.02 C 9.895,26.104 8.259,31.877 8.259,31.877 C 8.239,31.935 8.285,32 8.352,32 H 9.508 C 9.548,32 9.588,31.974 9.595,31.935 L 10.339,29.669 C 10.6,29 10.946,28.722 11.279,28.722 C 11.632,28.722 11.546,29.06 11.465,29.333 C 11.298,29.879 11.158,30.155 11.005,30.713 C 10.764,31.591 11.479,32 12.1,32 C 12.975,32 13.303,31.383 13.563,30.844 C 13.857,30.239 14.418,28.872 14.539,28.469 C 14.665,28.495 14.879,28.521 15.046,28.534 C 15.04,28.554 14.832,29.34 14.759,29.639 C 14.679,29.95 14.592,30.256 14.592,30.587 C 14.585,30.997 14.746,31.594 15.38,31.594 C 15.794,31.594 16.122,31.425 16.356,31.159 C 16.376,31.133 16.396,31.113 16.416,31.087 C 16.436,31.172 16.476,31.257 16.529,31.321 C 16.689,31.516 16.937,31.588 17.197,31.588 C 17.618,31.588 17.992,31.308 18.139,31.133 C 18.286,31.367 18.594,31.588 19.182,31.588 C 19.228,31.588 19.275,31.588 19.322,31.581 C 19.903,31.555 20.524,31.367 20.972,31.061 L 20.898,31.315 L 20.524,32.666 C 20.504,32.725 20.551,32.79 20.618,32.79 H 21.446 C 21.486,32.79 21.526,32.764 21.533,32.725 L 21.921,31.295 C 22.054,31.484 22.288,31.588 22.782,31.588 C 23.524,31.588 24.219,31.308 24.66,30.847 C 24.713,31.302 25.054,31.587 25.395,31.587 C 25.608,31.587 25.962,31.562 26.25,31.23 C 26.25,31.23 26.143,31.62 26.103,31.718 C 25.187,31.718 24.499,32.205 24.513,32.738 C 24.519,33.102 24.94,33.361 25.394,33.361 C 26.444,33.361 26.771,32.686 26.998,32.159 C 27.151,32.185 27.546,32.283 27.653,32.315 C 27.699,32.328 27.74,32.302 27.753,32.257 L 27.806,32.094 C 27.82,32.049 27.8,31.984 27.76,31.971 L 27.125,31.802 L 28.167,28.143 C 28.174,28.059 28.134,28 28.073,28 Z M 19.108,31.152 C 18.961,31.152 18.834,31.074 18.834,31.002 C 18.834,30.892 19.001,30.821 18.994,30.562 C 18.994,30.425 18.928,30.217 18.794,30.152 C 18.888,30.015 19.495,29.28 19.495,29.28 C 19.592,29.778 19.822,30.32 19.562,30.818 C 19.455,31.025 19.284,31.152 19.108,31.152 Z M 23.323,29.352 C 23.163,30.307 22.876,30.983 22.408,30.983 C 22.161,30.983 22.061,30.723 22.161,30.353 C 22.301,29.859 22.401,29.546 22.435,29.429 C 22.549,29.033 22.742,28.63 23.09,28.63 C 23.277,28.63 23.41,28.825 23.323,29.352 Z M 25.274,32.796 C 25.154,32.796 25.074,32.718 25.067,32.621 C 25.061,32.276 25.602,32.081 25.956,32.068 C 25.769,32.517 25.636,32.796 25.274,32.796 Z" fill="rgb(190, 1, 29)"/>
</svg>
