<?xml version="1.0" encoding="UTF-8"?>
<!-- generated by Finnhub -->
<svg viewBox="0 0 55.5 55.5" xmlns="http://www.w3.org/2000/svg">
<path d="M 0,0 H 55.5 V 55.5 H 0 Z" fill="rgb(29, 74, 159)"/>
<path d="M 14.09,29.756999999999998 C 14.531,29.772 14.863,29.615 15.094,29.3 C 15.324,28.986 15.44,28.54 15.44,27.96 C 15.44,27.381 15.325,26.936 15.094,26.625 C 14.863,26.311 14.531,26.154 14.1,26.154 C 13.669,26.154 13.336,26.311 13.102,26.625 C 12.87,26.936 12.755,27.381 12.755,27.96 C 12.755,28.54 12.87,28.986 13.102,29.3 C 13.336,29.615 13.669,29.772 14.1,29.772 Z M 16.987,27.96 C 16.987,28.808 16.749,29.533 16.273,30.137 C 15.797,30.737 15.075,31.037 14.105,31.037 C 13.136,31.037 12.413,30.737 11.937,30.137 C 11.461,29.533 11.223,28.807 11.223,27.96 C 11.223,27.127 11.461,26.405 11.937,25.794 S 13.137,24.878 14.105,24.878 C 15.075,24.878 15.797,25.183 16.273,25.794 C 16.749,26.404 16.987,27.127 16.987,27.96 Z M 21.385,27 C 21.357,26.785 21.287,26.724 21.173,26.551 C 21.007,26.318 20.75,26.201 20.402,26.201 C 19.905,26.201 19.565,26.454 19.382,26.959 C 19.286,27.227 19.238,27.584 19.238,28.029 C 19.238,28.453 19.286,28.794 19.383,29.051 C 19.559,29.531 19.89,29.771 20.376,29.771 C 20.721,29.771 20.966,29.676 21.111,29.486 C 21.256,29.296 21.344,29.048 21.375,28.744 H 22.88 A 2.562,2.562 0 0,1 22.394,30.047 C 21.932,30.707 21.247,31.037 20.34,31.037 C 19.433,31.037 18.765,30.762 18.337,30.211 C 17.91,29.661 17.696,28.946 17.696,28.066 C 17.696,27.074 17.932,26.302 18.405,25.752 C 18.877,25.201 19.529,24.925 20.361,24.925 C 21.068,24.925 21.645,25.088 22.094,25.413 C 22.546,25.737 22.824,26.406 22.896,27 H 21.385 Z M 31.666,28.426 C 31.714,28.783 31.809,29.05 31.951,29.226 C 32.209,29.548 32.653,29.708 33.281,29.708 C 33.656,29.708 33.961,29.666 34.196,29.581 C 34.641,29.419 34.864,29.117 34.864,28.675 A 0.671,0.671 0 0,0 34.532,28.077 C 34.312,27.939 33.965,27.817 33.492,27.711 L 32.685,27.526 C 31.892,27.342 31.343,27.143 31.04,26.927 C 30.526,26.567 30.269,26.004 30.269,25.237 C 30.269,24.539 30.517,23.957 31.014,23.495 C 31.511,23.032 32.24,22.801 33.203,22.801 C 34.006,22.801 34.691,23.021 35.257,23.458 C 35.826,23.892 36.124,24.524 36.152,25.354 H 34.62 C 34.593,24.884 34.393,24.551 34.02,24.354 C 33.772,24.223 33.463,24.157 33.094,24.157 C 32.684,24.157 32.356,24.242 32.111,24.411 A 0.815,0.815 0 0,0 31.744,25.121 C 31.744,25.401 31.864,25.609 32.106,25.746 C 32.261,25.838 32.592,25.946 33.099,26.069 L 34.413,26.392 C 34.989,26.534 35.424,26.722 35.717,26.959 C 36.173,27.326 36.4,27.858 36.4,28.554 C 36.4,29.267 36.133,29.86 35.598,30.334 C 35.068,30.803 34.315,31.038 33.342,31.038 C 32.349,31.038 31.568,30.806 30.999,30.344 C 30.429,29.878 30.145,29.239 30.145,28.426 H 31.666 Z M 39,24.374 H 37.5 V 23 H 39 V 24.374 Z M 37.5,25 H 39 V 31 H 37.5 V 25 Z M 42.832,29.597 C 43.177,29.597 43.468,29.465 43.706,29.2 C 43.944,28.931 44.063,28.506 44.063,27.923 C 44.063,27.376 43.949,26.959 43.722,26.673 A 1.09,1.09 0 0,0 42.816,26.244 C 42.299,26.244 41.942,26.493 41.746,26.991 C 41.642,27.256 41.59,27.582 41.59,27.971 C 41.59,28.306 41.645,28.605 41.755,28.866 C 41.955,29.353 42.315,29.597 42.832,29.597 Z M 42.464,24.925 C 42.747,24.925 42.994,24.969 43.204,25.058 C 43.563,25.209 43.779,25.488 44,25.895 V 25 H 45.507 V 30.54 C 45.507,31.285 45.384,31.846 45.139,32.224 C 44.719,32.874 43.911,33.199 42.718,33.199 C 41.997,33.199 41.408,33.054 40.953,32.765 C 40.498,32.475 40.246,32.042 40.198,31.467 H 41.802 C 41.843,31.643 41.911,31.77 42.004,31.848 C 42.162,31.986 42.43,32.055 42.806,32.055 C 43.337,32.055 43.692,31.873 43.872,31.509 C 43.989,31.276 44,30.884 44,30.333 V 29.963 C 43.859,30.21 43.754,30.395 43.592,30.519 C 43.299,30.749 42.918,30.863 42.449,30.863 C 41.724,30.863 41.145,30.603 40.71,30.084 C 40.28,29.562 40.063,28.855 40.063,27.966 C 40.063,27.108 40.273,26.387 40.69,25.804 C 41.107,25.218 41.699,24.925 42.464,24.925 Z M 50.013,24.925 C 50.596,24.925 51.073,25.082 51.441,25.397 C 51.814,25.707 52.001,26.225 52.001,26.949 V 31 H 50.489 V 27.325 C 50.489,27.021 50.449,26.788 50.37,26.625 C 50.225,26.329 49.95,26.18 49.542,26.18 C 49.042,26.18 48.699,26.398 48.512,26.832 C 48.416,27.062 48.368,27.355 48.368,27.712 V 31 H 47 V 25 H 48.321 V 25.916 C 48.511,25.619 48.691,25.406 48.859,25.275 C 49.163,25.042 49.548,24.925 50.013,24.925 Z M 5.5,24.413 V 29.613 H 7.016 C 7.768,29.613 8.293,29.225 8.589,28.45 C 8.752,28.025 8.833,27.519 8.833,26.932 C 8.833,26.121 8.71,25.499 8.465,25.067 C 8.224,24.631 7.741,24.413 7.016,24.413 H 5.5 Z M 7.286,23 C 7.758,23.007 8.151,23.094 8.466,23.203 C 9,23.386 9.433,23.723 9.764,24.213 C 10.03,24.609 10.211,25.038 10.307,25.499 C 10.404,25.961 10.452,26.4 10.452,26.818 C 10.452,27.878 10.249,28.774 9.842,29.509 C 9.29,30.5 8.438,30.996 7.286,30.996 H 4 V 23 H 7.286 Z M 25.474,25 V 28.565 C 25.474,28.895 25.511,29.144 25.584,29.311 C 25.716,29.605 25.974,29.753 26.357,29.753 C 26.848,29.753 27.184,29.543 27.367,29.124 C 27.46,28.897 27.507,28.597 27.507,28.224 V 25 H 29 V 31 H 27.568 V 30.051 A 2.866,2.866 0 0,0 27.467,30.211 A 1.056,1.056 0 0,1 27.275,30.446 C 27.05,30.659 26.831,30.805 26.619,30.883 A 2.1,2.1 0 0,1 25.882,31 C 25.068,31 24.52,30.69 24.237,30.073 C 24.079,29.732 24,29.229 24,28.565 V 25 H 25.474 Z" fill="rgb(254, 254, 253)"/>
</svg>
