<?xml version="1.0" encoding="UTF-8"?>
<!-- generated by Finnhub -->
<svg viewBox="0 0 55.5 55.5" xmlns="http://www.w3.org/2000/svg">
<path d="M 0,0 H 55.5 V 55.5 H 0 Z" fill="rgb(1, 75, 152)"/>
<path d="M 16.884999999999998,25.985 H 16.5 V 30 H 16.895 C 17.343,30 17.5,29.813 17.5,29.278 V 26.722 C 17.5,26.184 17.343,26 16.895,26 Z M 23.497,26 C 23.153,26 23,26.208 23,26.52 V 29.48 C 23,29.79 23.153,30 23.497,30 C 23.843,30 24,29.79 24,29.48 V 26.52 C 24,26.208 23.843,26 23.497,26 Z" fill="rgb(254, 254, 253)"/>
<path d="M 44.194,19.985 H 5 V 25 H 10 V 31 H 5 V 36 H 44.288 S 51,36.024 51,27.675 C 51,20.015 44.204,20 44.204,20 Z M 20,29.237 C 20,31.006 19.292,32 17.524,32 H 14.092 L 14,24 H 17.524 C 19.292,24 20,24.904 20,26.673 V 29.237 Z M 23.559,32.015 C 21.079,32.015 20.407,31.295 20.407,28.115 C 20.407,24.935 21.08,24 23.559,24 C 26.043,24 26.717,24.936 26.717,28.114 C 26.717,31.294 26.043,32.015 23.559,32.015 Z M 31.554,32 H 28.199 L 26.537,24.026 H 29.236 L 29.874,29.323 H 29.893 L 30.557,24.026 H 33.267 L 31.553,32 Z M 38.385,26 H 36 V 27 H 38 V 29 H 36 V 30 H 38.385 V 32 H 33.473 V 24.026 H 38.385 V 26 Z M 45.333,32 H 42.887 C 42.66,32 42.517,31.556 42.517,31.21 V 29.922 C 42.517,29.261 42.337,29 41.859,29 H 41.5 V 32 H 39 V 24.026 H 42.813 C 44.297,24.026 45,24.656 45,26.176 C 45,27.15 44.505,27.77 43.668,27.866 V 27.892 C 44.201,27.955 45,28.345 45,29.302 V 31.048 C 45,31.473 45.17,31.935 45.34,32" fill="rgb(254, 254, 253)"/>
<path d="M 41.84,25.985 H 41.5 V 27.564 H 41.908 C 42.375,27.564 42.547,27.172 42.547,26.729 C 42.547,26.173 42.24,26 41.85,26 Z" fill="rgb(254, 254, 253)"/>
</svg>
