<?xml version="1.0" encoding="UTF-8"?>
<!-- generated by Finnhub -->
<svg viewBox="0 0 55.5 55.5" xmlns="http://www.w3.org/2000/svg">
<path d="M 0,0 H 55.5 V 55.5 H 0 Z" fill="rgb(231, 1, 49)"/>
<path d="M 27.97,19.985 L 33.38,21.79 L 52,27.93 L 27.98,36 L 4,27.96 L 27.98,20 Z M 26.14,28.04 C 26.14,28.92 27.01,29.46 28.02,29.46 C 29.08,29.46 29.91,28.88 29.91,28.04 C 29.91,27.19 29.08,26.58 28.02,26.58 C 26.97,26.58 26.14,27.15 26.14,28.04 Z M 24.52,28.04 C 24.52,26.19 26.02,25 28.06,25 C 30.02,25 31.6,26.23 31.6,28.04 C 31.57,29.92 29.95,31 28.02,31 C 26.1,31 24.52,29.88 24.52,28.04 Z M 31.49,25.77 H 34.45 V 26.14 H 34.3 C 34.15,26.14 34,26.26 33.97,26.41 A 0.35,0.35 0 0,0 33.97,26.78 L 34.85,28.93 L 36.07,25.77 H 37.7 L 38.96,28.93 L 39.88,26.71 A 0.3,0.3 0 0,0 39.81,26.41 C 39.73,26.29 39.62,26.21 39.51,26.21 H 39.33 V 25.84 H 42.24 V 26.22 H 42.06 C 41.91,26.22 41.76,26.29 41.66,26.41 A 0.6,0.6 0 0,0 41.39,26.75 L 39.95,30.13 A 0.53,0.53 0 0,0 39.95,30.47 C 40.03,30.55 40.1,30.62 40.21,30.62 H 40.43 V 31 H 37.51 V 30.66 H 37.74 C 37.84,30.66 37.92,30.59 37.96,30.51 A 0.33,0.33 0 0,0 37.96,30.25 L 36.89,27.76 L 35.85,30.21 A 0.24,0.24 0 0,0 35.82,30.47 C 35.85,30.55 35.92,30.62 36.04,30.62 H 36.14 V 31 H 33.27 V 30.62 H 33.41 C 33.52,30.62 33.64,30.55 33.67,30.47 A 0.29,0.29 0 0,0 33.67,30.13 L 32.23,26.63 C 32.19,26.48 32.12,26.37 31.97,26.33 A 0.415,0.415 0 0,1 31.84,26.26 C 31.77,26.22 31.71,26.18 31.64,26.18 H 31.49 V 25.77 Z M 18.24,29.6 H 20.54 A 1.74,1.74 0 0,0 22.04,27.72 C 21.94,26.41 21.35,25.88 20.36,25.88 H 18.24 V 29.6 Z M 16,24.54 H 20.4 C 21.79,24.54 23.58,25.82 23.66,27.74 A 3.28,3.28 0 0,1 20.47,31 H 16 V 30.63 H 16.26 C 16.4,30.63 16.51,30.55 16.59,30.44 C 16.66,30.4 16.69,30.25 16.69,30.14 V 25.33 A 0.51,0.51 0 0,0 16.22,24.92 H 16 V 24.54 Z" fill="rgb(254, 254, 253)" fill-rule="evenodd"/>
</svg>
