<?xml version="1.0" encoding="UTF-8"?>
<!-- generated by Finnhub -->
<svg viewBox="0 0 55.5 55.5" xmlns="http://www.w3.org/2000/svg">
<path d="M 0,0 H 55.5 V 55.5 H 0 Z" fill="rgb(1, 99, 143)"/>
<path d="M 22.284,22.284 L 32.041,12.595 C 32.768,11.871 33.593,11.735 34.477,12.595 L 43.536,21.614 C 44.184,22.26 44.125,23.238 43.536,23.824 L 23.826,43.427 C 23.119,44.131 22.196,44.249 21.371,43.427 L 12.509,34.604 C 11.801,33.9 11.86,32.784 12.509,32.139 L 22.294,22.299 Z" fill="rgb(254, 254, 253)"/>
<path d="M 22.441,23.281 L 32.65,33.45 L 23.375,42.683 C 22.805,43.251 22.215,43.27 21.626,42.683 L 13.137,34.233 C 12.607,33.704 12.647,33.117 13.137,32.628 L 22.451,23.296 Z" fill="rgb(1, 99, 143)"/>
<path d="M 33.288000000000004,32.828 L 23.1,22.69 L 32.374,13.456 C 32.944,12.889 33.534,12.869 34.124,13.456 L 42.612,21.907 C 43.142,22.436 43.103,23.023 42.612,23.512 L 33.298,32.843 Z" fill="rgb(226, 23, 53)"/>
<path d="M 33.49,24.985 A 2.5,2.5 0 1,0 33.5,20 A 2.5,2.5 0 0,0 33.5,25 Z M 26.5,36 A 2.5,2.5 0 1,0 26.5,31 A 2.5,2.5 0 0,0 26.5,36 Z M 18.515,36.008 A 2.51,2.51 0 0,0 21.03,33.504 A 2.51,2.51 0 0,0 18.515,31 A 2.51,2.51 0 0,0 16,33.504 A 2.51,2.51 0 0,0 18.515,36.008 Z" fill="rgb(254, 254, 253)"/>
</svg>
