<?xml version="1.0" encoding="UTF-8"?>
<!-- generated by Finnhub -->
<svg viewBox="0 0 55.5 55.5" xmlns="http://www.w3.org/2000/svg">
<path d="M 0,0 H 55.5 V 55.5 H 0 Z" fill="url(#a)"/>
<path d="M 32.77,40.641 A 5.03,5.03 0 0,1 29.886,42.109 C 28.208,42.206 26.572,41.213 26.077,37.605 L 19.298,35.683 C 22.26,45.832 30.456,45.476 33.276,41.06 C 33.468,40.77 33.409,40.624 33.276,40.552 C 33.141,40.479 32.974,40.479 32.78,40.656 Z M 32.78,14.014 C 30.054,8.767 20.39,13.95 18.712,27.497 C 18.572,28.118 18.877,28.753 19.458,29.055 A 8.4,8.4 0 0,0 22.218,29.935 C 22.959,30.102 23.723,30.164 24.483,30.121 C 25.165,30.092 25.73,29.601 25.825,28.95 C 27.268,14.418 30.717,11.124 32.319,14.248 C 32.503,14.611 32.974,14.418 32.772,14.014 H 32.78 Z" fill="rgb(1, 111, 164)"/>
<path d="M 31.101,18.585 A 1.781,1.781 0 0,0 29.375,19.335 C 28.975,20.028 28.713,20.785 28.602,21.571 A 7.803,7.803 0 0,0 28.442,23.993 C 28.573,24.425 28.982,24.724 29.45,24.728 C 32.537,24.913 41.597,26.157 42.873,28.692 C 43.713,30.436 41.195,30.88 39.333,31.34 A 1.481,1.481 0 0,0 38.116,32.51 A 3.268,3.268 0 0,0 38.62,35.127 C 38.856,35.509 39.37,35.636 39.769,35.409 L 39.879,35.336 C 40.838,34.728 41.689,33.973 42.395,33.1 C 48.452,24.97 35.751,18.688 31.111,18.6 Z" fill="rgb(83, 184, 70)"/>
<path d="M 34.214,31.898 C 19.031,33.527 7.042,26.843 16.119,25.22 C 16.119,25.22 17.277,24.962 17.495,24.332 C 17.713,23.702 17.78,23.525 18.032,22.596 C 18.192,22.023 18.334,21.7 18.486,21.256 C 18.728,20.57 18.276,20.158 17.269,20.635 C 8.972,24.534 11.397,31.816 18.167,35.465 C 22.6,37.959 27.829,38.801 32.865,37.83 A 2.999,2.999 0 0,0 34.87,36.49 C 35.553,35.504 35.85,34.317 35.709,33.14 A 1.173,1.173 0 0,0 35.27,32.19 A 1.276,1.276 0 0,0 34.224,31.929 V 31.913 Z" fill="rgb(37, 187, 213)"/>
<defs>
<linearGradient id="a" x1="10.418" x2="68.147" y1="9.712" y2="76.017" gradientUnits="userSpaceOnUse">
<stop stop-color="rgb(25, 29, 31)" offset="0"/>
<stop stop-color="rgb(5, 5, 8)" offset="1"/>
</linearGradient>
</defs>
</svg>
