<?xml version="1.0" encoding="UTF-8"?>
<!-- generated by Finnhub -->
<svg viewBox="0 0 55.5 55.5" xmlns="http://www.w3.org/2000/svg">
<path d="M 0,0 H 55.5 V 55.5 H 0 Z" fill="rgb(239, 242, 248)"/>
<path d="M 18.09,11.985 H 37.9 A 6.09,6.09 0 0,1 44,18.09 V 37.91 A 6.09,6.09 0 0,1 37.9,44 H 18.1 A 6.1,6.1 0 0,1 12,37.9 V 18.1 A 6.09,6.09 0 0,1 18.1,12 Z" fill="rgb(79, 199, 2)"/>
<path d="M 43.99,32.505 V 23.29 A 7.23,7.23 0 0,0 42.44,20.94 C 42.5,19.95 42.28,18.94 41.76,18.05 A 1,1 0 0,0 40.16,17.89 L 39.12,19.03 H 39.1 A 5.16,5.16 0 0,0 38.54,15.94 C 38.23,15.34 37.54,15.24 37.06,15.72 L 32.09,20.74 L 31.92,20.91 H 31.91 C 29.75,22.87 26.38,22.95 24.33,21.16 A 7,7 0 0,0 23.93,20.76 L 18.95,15.72 C 18.47,15.24 17.78,15.34 17.46,15.94 C 16.96,16.9 16.77,17.97 16.9,19.01 H 16.87 L 15.85,17.89 A 1,1 0 0,0 14.24,18.05 C 13.74,18.93 13.51,19.91 13.56,20.88 A 7.3,7.3 0 0,0 12,23.14 V 32.66 A 7.26,7.26 0 0,0 18.65,37 H 18.97 A 7.26,7.26 0 0,0 25.59,32.73 L 27.96,32.72 H 30.44 A 7.26,7.26 0 0,0 37.07,37 H 37.29 A 7.26,7.26 0 0,0 44,32.52 Z" fill="rgb(141, 223, 2)"/>
<path d="M 18.99,21.485 C 21.76,21.5 24,23.76 24,26.55 V 29.54 A 5.02,5.02 0 0,1 19,34.59 C 16.24,34.59 14,32.33 14,29.54 V 26.54 A 5.02,5.02 0 0,1 19,21.5 Z M 37,21.5 C 39.76,21.5 42,23.76 42,26.55 V 29.54 A 5.02,5.02 0 0,1 37,34.59 C 34.24,34.59 32,32.33 32,29.54 V 26.54 A 5.02,5.02 0 0,1 37,21.5 Z" fill="rgb(239, 242, 248)"/>
<path d="M 19.49,24.384999999999998 C 20.88,24.4 22,25.47 22,26.8 V 29.35 C 22,30.68 20.88,31.75 19.5,31.75 A 2.45,2.45 0 0,1 17,29.35 V 26.8 C 17,25.47 18.12,24.4 19.5,24.4 Z" fill="rgb(74, 74, 73)"/>
<path d="M 27.99,30.185 A 2.74,2.74 0 0,1 30.75,32.95 V 33.91 A 2.74,2.74 0 1,1 25.25,33.91 V 32.95 A 2.74,2.74 0 0,1 28,30.21 Z" fill="rgb(243, 127, 2)"/>
<path d="M 24.2,33.195 A 3.85,3.85 0 0,1 28.11,30.21 C 29.87,30.21 31.47,31.5 31.79,33.21 V 33.36 C 31.79,33.46 31.75,33.51 31.65,33.5 L 28.11,34.13 H 27.9 L 24.35,33.49 C 24.25,33.51 24.21,33.46 24.21,33.35 V 33.21 Z" fill="rgb(254, 193, 2)"/>
<path d="M 27.41,30.785 A 2.46,2.46 0 0,1 28.6,30.82 C 29.01,30.92 29.3,31.3 29.3,31.72 C 29.3,32.06 29.02,32.34 28.68,32.34 H 27.32 A 0.62,0.62 0 0,1 26.7,31.72 C 26.7,31.29 27,30.92 27.42,30.81 Z" fill="rgb(254, 230, 69)"/>
<path d="M 36.49,24.384999999999998 C 37.88,24.4 39,25.47 39,26.8 V 29.35 C 39,30.68 37.88,31.75 36.5,31.75 A 2.45,2.45 0 0,1 34,29.35 V 26.8 C 34,25.47 35.12,24.4 36.5,24.4 Z" fill="rgb(74, 74, 73)"/>
<path d="M 17.549999999999997,27.285 A 1.54,1.54 0 1,0 17.56,24.22 A 1.54,1.54 0 0,0 17.56,27.31 Z M 34.16,27.3 A 1.54,1.54 0 1,0 34.16,24.22 A 1.54,1.54 0 0,0 34.16,27.31 Z" fill="rgb(239, 242, 248)"/>
</svg>
