<?xml version="1.0" encoding="UTF-8"?>
<!-- generated by Finnhub -->
<svg viewBox="0 0 55.5 55.5" xmlns="http://www.w3.org/2000/svg">
<path d="M 0,0 H 55.5 V 55.5 H 0 Z" fill="rgb(0, 89, 150)"/>
<path d="M 11.303,28.294999999999998 C 11.313,25.877 10.156,24.546 7.703,24.546 C 7.333,24.546 6.87,24.546 6.5,24.592 V 32 H 7.61 C 9.554,32 11.313,31.338 11.313,28.31 Z M 14,28.31 C 14,31.66 11.823,34 7.98,34 H 4 V 22.985 C 4.787,22.894 5.713,22.802 7.518,22.802 C 11.73,22.756 14,24.775 14,28.309 Z M 37,31.017 V 22.982 C 37.185,22.936 37.485,22.89 37.856,22.89 C 38.689,22.89 39.522,23.166 39.522,24.313 V 25 H 42 V 27 H 39.522 V 30.88 C 39.522,31.705 40.283,32.118 40.932,32.118 C 41.672,32.118 42.227,31.705 42.366,31.613 C 42.505,31.797 42.876,32.302 42.876,32.715 A 0.654,0.654 0 0,1 42.69,33.174 C 42.551,33.312 41.605,34 39.939,34 C 37.485,33.954 37,32.53 37,31.017 Z M 28.718,27.804 L 27.838,30.787 L 27.051,28.539 C 24.181,20.094 19.136,17.983 15.155,17.983 C 11.869,17.983 9.647,19.406 8.165,21.012 C 8.073,21.104 8.073,21.15 8.073,21.196 C 8.073,21.287 8.12,21.333 8.213,21.333 C 8.258,21.333 8.305,21.333 8.351,21.287 C 9.878,20.002 11.776,18.855 14.507,18.855 C 22.047,18.855 24.772,27.967 26.217,34 H 29.042 L 30.384,30.007 L 32.143,25.005 C 30.153,25.142 29.18,26.106 28.718,27.805 Z M 32.998,25 C 34.526,25.367 35.544,26.427 35.544,27.85 V 34.004 H 34.433 C 33.507,34.004 32.998,33.545 32.998,32.581 V 25 Z M 20.411,29.64 C 19.022,29.64 17.314,30.007 17.314,31.154 C 17.314,31.889 18.096,32.394 18.976,32.394 C 19.902,32.394 20.411,31.889 20.503,31.751 C 20.596,31.659 20.643,31.476 20.643,31.201 V 29.64 H 20.411 Z M 23,31.705 C 23,32.623 23.188,33.312 23.466,33.725 C 23.234,33.816 22.864,33.954 22.216,33.954 C 21.012,33.954 20.827,33.312 20.735,32.99 C 20.457,33.266 19.717,33.954 18.004,33.954 C 16.615,33.954 14.861,33.128 14.861,31.246 C 14.861,29.089 17.356,28.355 20.133,28.355 H 20.55 V 28.171 C 20.55,27.254 19.81,26.795 18.698,26.795 C 17.495,26.795 16.384,27.391 16.152,27.529 C 15.967,27.254 15.736,26.886 15.736,26.473 C 15.736,25.693 17.171,25.097 19.068,25.097 C 21.614,25.097 23,25.968 23,28.355 V 31.705 Z M 49.324,29.64 C 47.935,29.64 46.23,30.007 46.23,31.154 C 46.23,31.889 47.01,32.394 47.889,32.394 C 48.632,32.394 49.555,32.042 49.555,31.2 V 29.64 H 49.324 Z M 52,31.705 C 52,32.623 52.147,33.312 52.425,33.725 C 51.484,34.098 50.031,34.159 49.694,32.99 C 49.416,33.266 48.676,33.954 46.964,33.954 C 45.574,33.954 43.824,33.036 43.824,31.154 C 43.824,28.997 46.315,28.355 49.092,28.355 H 49.509 C 49.509,27.258 48.7,26.795 47.657,26.795 C 46.454,26.795 45.343,27.391 45.112,27.529 C 44.926,27.254 44.695,26.886 44.695,26.473 C 44.695,25.693 46.13,25.097 48.028,25.097 C 50.574,25.097 52,25.968 52,28.355 V 31.705 Z" fill="rgb(254, 254, 253)"/>
<path d="M 32.503,21.043 S 31.263,22.848 28.995,24.638 C 28.995,24.638 30.939,21.838 31.17,20.048 C 31.17,20.048 29.273,19.314 28.44,18.488 C 28.44,18.488 30.013,19.314 31.587,18.258 C 31.587,18.258 31.957,17.157 31.818,15.551 C 31.818,15.551 32.744,16.744 32.837,18.029 C 32.837,18.029 34.642,17.341 35.151,15 C 35.151,15 35.845,17.34 33.67,19.36 C 33.67,19.36 35.521,19.956 36.123,22.48 C 36.123,22.573 35.336,20.783 32.513,21.058 Z" fill="rgb(244, 177, 28)"/>
</svg>
