<?xml version="1.0" encoding="UTF-8"?>
<!-- generated by Finnhub -->
<svg viewBox="0 0 55.5 55.5" xmlns="http://www.w3.org/2000/svg">
<path d="M 0,0 H 55.5 V 55.5 H 0 Z" fill="rgb(240, 70, 27)"/>
<path d="M 8.36,32.483 C 7.034,32.498 6.23,31.384 6.23,29.657 C 6.23,28.171 6.838,26.817 8.517,26.817 C 10.135,26.817 10.834,28.089 10.834,29.574 C 10.834,31.278 10.208,32.498 8.37,32.498 Z M 13,22 H 9.442 V 23.445 H 11 V 26.852 H 10.963 C 10.541,25.953 9.296,25.312 7.929,25.312 C 5.6,25.313 4,26.876 4,29.74 C 4,32.035 5.232,34 7.83,34 C 9.283,34 10.302,33.461 10.963,32.338 H 11 V 34 H 14.156 V 32.331 H 13 V 22 Z" fill="rgb(254, 254, 253)"/>
<path d="M 16.174,29.25 C 16.184,28.12 17.066,27.33 18.371,27.33 C 19.763,27.33 20.486,28.083 20.516,29.265 H 16.184 Z M 22.511,28.859 C 22.134,27.074 20.627,26 18.481,26 C 15.761,26 13.953,27.52 13.953,29.935 C 13.953,32.447 15.602,34 18.518,34 C 20.418,34 22.263,33.281 22.551,31.438 H 20.504 C 20.207,32.19 19.497,32.617 18.454,32.658 H 18.39 C 16.983,32.601 16.184,31.843 16.184,30.54 H 22.649 C 22.649,29.994 22.629,29.423 22.511,28.859 M 32.766,26 H 28.37 V 27.403 H 29.738 L 27.666,32.31 L 25.656,27.403 H 27.022 V 26 H 22.439 V 27.403 H 23.394 L 26.288,34 H 28.861 L 31.808,27.403 H 32.766 V 26 Z M 36.943,32.616 C 35.269,32.616 34.62,31.319 34.62,30 C 34.62,28.681 35.27,27.385 36.943,27.385 S 39.24,28.68 39.24,30 C 39.24,31.319 38.615,32.616 36.942,32.616 Z M 36.943,26 C 34.233,26 32.389,27.488 32.389,30 S 34.234,34 36.942,34 C 39.651,34 41.472,32.512 41.472,30 S 39.651,26 36.942,26 Z M 50.719,32.635 V 28.987 C 50.719,27.057 49.897,26 47.68,26 C 46.44,26 45.32,26.566 44.793,27.561 H 44.756 V 26 H 41.489 V 27.366 H 42.771 V 32.635 H 41.489 V 34 H 46.123 V 32.635 H 45 V 29.632 C 45,28.507 45.516,27.422 46.937,27.422 C 48.089,27.422 48.587,28.194 48.587,29.139 V 32.635 H 47.367 V 34 H 52 V 32.635 H 50.719 Z" fill="rgb(254, 254, 253)"/>
</svg>
