<?xml version="1.0" encoding="UTF-8"?>
<!-- generated by Finnhub -->
<svg viewBox="0 0 55.5 55.5" xmlns="http://www.w3.org/2000/svg">
<path d="M 0,0 H 55.5 V 55.5 H 0 Z" fill="rgb(98, 167, 66)"/>
<path d="M 22.151999999999997,29.569 L 22.079,29.667 C 22.037,29.707 21.096,30.928 20.71,32 H 18.807 C 19.235,30.4 21.182,28.611 21.199,28.595 L 21.307,28.512 L 21.199,28.43 C 21.173,28.405 19.363,26.674 18.676,25 H 20.596 C 21.048,26.327 22.003,27.342 22.046,27.358 L 22.112,27.424 L 22.179,27.358 C 22.221,27.317 23.202,26.303 23.671,25 H 25.591 C 24.861,26.682 23.051,28.413 23.026,28.43 L 22.916,28.512 L 23.026,28.595 C 23.051,28.62 25.286,30.384 25.756,32 H 23.853 C 23.493,30.953 22.213,29.708 22.163,29.667 V 29.584 Z M 14.98,32 C 16.413,32 17.326,31.398 17.653,31.142 C 17.443,31.035 16.689,30.681 16.589,30.615 C 16.438,30.78 15.952,30.953 15.139,30.953 C 14.133,30.953 13.706,30.533 13.706,29.106 V 28.999 H 13.815 C 15.457,28.999 16.698,28.702 17.771,28.034 C 17.796,27.952 17.854,27.68 17.854,27.449 C 17.854,26.352 17.108,25 15.014,25 C 12.792,25 11.703,26.237 11.703,28.545 C 11.694,30.953 12.675,32 14.98,32 Z M 13.697,28.05 C 13.697,27.045 13.848,26.055 15.047,26.055 C 15.667,26.055 16.094,26.352 16.094,27.102 C 16.094,27.333 15.969,27.589 15.969,27.605 L 15.943,27.647 L 15.876,27.687 C 15.281,28.001 14.954,28.174 13.806,28.174 H 13.697 V 28.051 Z M 10.277,28.471 C 10.278,26.138 9.08,25 6.65,25 H 4 V 31.975 H 6.649 C 9.087,31.959 10.278,30.829 10.278,28.471 Z M 5.945,26 H 6.717 C 6.884,26 7.06,26.025 7.253,26.082 C 7.873,26.396 8.175,27.086 8.175,28.496 C 8.175,30.054 7.815,30.744 7.043,30.976 L 6.724,31 H 6 V 26 H 5.944 Z M 50.149,32 V 26.979 C 50.149,26.286 50.065,26.072 49.554,26.072 C 48.657,26.072 48.296,26.682 48.271,26.699 L 48.246,26.723 V 32 H 46.344 V 26.97 C 46.344,26.278 46.26,26.064 45.748,26.064 C 44.852,26.064 44.491,26.674 44.466,26.69 L 44.441,26.715 V 32 H 42.564 V 26.567 C 42.564,26.121 42.111,25.709 41.624,25.453 C 42.01,25.346 43.074,25.025 43.142,25 C 43.352,25.082 43.872,25.322 44.014,25.536 L 44.081,25.618 L 44.164,25.552 S 45.018,25 46.125,25 C 46.938,25 47.516,25.173 47.851,25.486 L 47.918,25.528 L 47.985,25.503 C 48.689,25.19 49.335,25 49.905,25 C 51.447,25 52,25.627 52,26.195 V 32 H 50.148 Z M 28.759,28.537 C 28.759,30.302 29.254,30.953 30.302,30.953 C 31.09,30.953 31.5,30.805 31.652,30.64 C 31.777,30.706 32.522,31.085 32.741,31.184 C 32.464,31.414 31.609,32 30.26,32 C 27.93,32 26.714,30.805 26.714,28.554 C 26.714,26.286 27.93,25 30.26,25 A 3.81,3.81 0 0,1 32.74,25.923 C 32.531,26.031 31.777,26.41 31.651,26.468 C 31.501,26.303 31.115,26.154 30.327,26.154 C 29.254,26.121 28.76,26.748 28.76,28.537 Z M 37.098,25 C 34.986,25 33.638,26.344 33.638,28.512 C 33.638,30.681 34.895,32 37.032,32 C 39.144,32 40.384,30.68 40.384,28.512 C 40.4,26.37 39.21,25 37.097,25 Z M 37.032,30.87 C 36.11,30.87 35.708,30.301 35.708,28.537 C 35.708,26.773 36.11,26.204 37.032,26.204 C 37.929,26.204 38.314,26.748 38.314,28.537 C 38.331,30.318 37.945,30.87 37.032,30.87 Z" fill="rgb(254, 254, 253)"/>
</svg>
