<?xml version="1.0" encoding="UTF-8"?>
<!-- generated by Finnhub -->
<svg viewBox="0 0 55.5 55.5" xmlns="http://www.w3.org/2000/svg">
<path d="M 0,0 H 55.5 V 55.5 H 0 Z" fill="rgb(254, 211, 29)"/>
<path d="M 32.42,16.422 C 32.43,16.241 32.234,15.951 32.078,15.851 C 31.138,15.17 30.194,16.047 29.253,16.047 C 28.899,16.047 28.546,16.145 28.272,15.901 C 28.272,15.705 28.43,15.655 28.43,15.462 C 28.196,15.462 27.918,15.364 27.647,15.316 C 27.645,15.316 27.057,15.268 26.703,15.121 C 25.408,14.441 24.195,14.095 22.705,14.974 C 22.233,15.218 21.765,15.462 21.254,15.462 C 21.018,15.462 21.606,16.047 21.529,16.339 C 20.744,16.487 20.039,16.778 19.372,17.559 V 17.607 C 19.842,18.34 20.548,18.436 21.254,18.436 C 21.489,18.436 21.92,19.119 23.017,19.313 C 24.625,19.702 25.567,18.581 26.703,19.165 C 26.626,18.923 26.626,18.776 26.626,18.58 C 27.961,19.023 29.018,18.97 30.039,18.34 C 30.979,18.044 31.411,16.387 32.431,16.437 Z" fill="rgb(204, 15, 63)"/>
<path d="M 28.97,24.223 C 28.845,24.012 28.9,23.651 28.75,23.835 C 28.448,24.21 28.505,24.776 28.542,25.265 C 28.559,25.502 28.411,25.478 28.352,25.404 C 28.01,25.001 27.881,24.676 27.725,24.14 C 27.333,24.284 27.29,24.645 27.275,25.04 C 27.261,25.375 27.49,25.894 27.253,25.844 C 26.823,25.75 26.626,24.871 26.587,24.238 C 26.433,24.238 26.317,24.355 26.142,24.754 C 26.024,25.046 25.959,25.505 25.608,25.455 C 25.255,25.407 25.14,24.788 25.102,24.283 C 25.088,24.019 24.872,24.279 24.794,24.377 C 24.623,24.59 24.342,25.069 24.157,25.456 C 23.881,25.066 23.881,24.484 23.843,23.799 L 23.803,23.796 C 23.373,24.042 22.863,25.798 22.235,25.798 C 22.156,25.798 22.13,25.7 22.156,25.652 C 22.455,25.102 22.437,24.478 22.398,23.796 C 22.388,23.572 22.3,23.183 22.174,23.338 C 22.174,23.338 21.66,24.058 21.451,24.284 C 21.261,24.489 20.901,24.871 20.55,24.967 C 20.55,24.578 21.177,23.651 20.824,22.191 C 20.55,22.58 20.432,22.896 19.612,23.191 C 19.139,23.336 18.776,23.241 18.425,23.044 C 18.397,23.479 18.315,24.023 18.002,24.391 C 18.002,24.391 16.918,23.698 16.604,23.748 C 16.329,23.796 15.924,25.165 15.726,25.992 C 15.258,26.012 14.671,25.454 14.573,24.852 C 14.198,26.085 14.226,27.576 14.45,29.042 C 15.034,32.87 16.073,35.402 16.662,39.782 C 16.888,41.472 15.409,42.592 14.858,43.982 C 15.486,43.982 16.033,44.019 16.738,43.987 C 16.913,43.977 17.178,43.741 17.228,43.469 C 17.379,42.657 17.412,41.687 17.648,40.859 C 18.313,40.714 18.508,39.737 19.098,39.299 C 19.138,39.006 18.785,38.957 18.744,38.617 C 18.941,38.374 19.216,38.079 19.411,37.738 C 19.491,37.446 19.097,37.396 19.097,37.153 C 19.097,36.911 19.167,36.803 19.248,36.656 C 19.403,36.377 19.808,36.34 19.608,35.959 C 19.42,35.602 19.058,35.741 18.862,35.447 C 18.98,34.958 19.334,34.375 19.687,34.181 A 1.236,1.236 0 0,0 18.507,33.593 V 32.573 C 18.507,32.437 18.627,32.525 18.627,32.525 C 19.175,32.865 19.569,33.106 20.118,33.402 C 20.077,33.987 20.235,34.523 20.313,35.058 C 20.391,35.886 20.838,36.413 20.746,37.346 C 20.683,37.966 20.161,38.247 19.849,38.56 C 19.717,38.693 19.49,38.811 19.49,39.105 C 19.842,39.688 20.424,40.149 20.856,40.636 C 21.181,40.142 21.333,39.346 21.606,38.811 C 21.882,38.717 22.117,38.667 22.314,38.521 C 22.47,38.423 22.628,38.422 22.783,38.324 C 22.667,37.838 22.273,37.594 22.001,37.301 C 22.156,37.105 22.398,37.117 22.628,37.057 C 22.755,37.021 22.902,36.961 22.981,36.763 C 22.705,36.663 22.391,36.423 22.351,36.03 C 22.667,35.741 23.177,35.4 23.295,34.764 C 23.137,34.524 22.863,34.524 22.667,34.375 C 22.627,34.033 22.739,33.641 22.798,33.338 C 22.828,33.178 22.921,33.017 23.038,33.017 C 23.862,33.209 24.731,33.154 25.514,33.011 C 25.514,33.011 25.854,32.924 25.794,33.307 C 25.559,34.575 25.215,35.741 25.059,37.057 C 24.706,37.593 24.236,37.837 23.881,38.225 C 23.609,38.521 23.255,38.567 23.137,39.055 L 24.707,40.629 C 24.989,40.215 25.255,39.494 25.452,39.006 C 25.528,38.811 25.452,38.521 25.608,38.325 C 25.959,38.375 26.314,38.225 26.626,38.178 C 26.666,37.738 26.354,37.544 26.196,37.201 C 26.471,37.105 26.823,37.187 27.059,37.014 C 27.209,36.902 27.412,36.663 27.412,36.422 H 27.135 C 27.059,36.422 26.94,36.422 26.98,36.278 C 27.45,36.13 27.961,36.03 28.274,35.497 A 0.215,0.215 0 0,1 28.079,35.352 C 28.111,35.216 28.274,35.156 28.274,35.156 C 28.587,35.008 28.864,34.57 28.864,34.181 C 28.587,34.181 28.235,34.081 28.156,33.742 C 28.314,33.402 28.628,33.202 28.942,33.154 C 29.372,34.375 29.96,35.497 30.625,36.568 A 0.62,0.62 0 0,1 30.665,36.961 L 29.175,39.201 C 29.097,39.3 29.097,39.494 29.215,39.494 L 31.333,39.398 C 31.483,39.374 31.608,39.3 31.646,39.153 C 31.686,38.423 31.686,37.69 31.763,36.961 C 32.078,36.663 32.313,36.03 32.745,36.03 C 32.704,35.741 32.471,35.691 32.314,35.497 C 32.274,35.105 32.547,34.909 32.704,34.62 C 32.509,34.473 32.234,34.814 32.038,34.668 C 32.235,34.473 32.391,34.375 32.548,33.937 C 32.588,33.817 32.508,33.841 32.508,33.841 C 32.314,33.937 32.142,33.863 32,33.792 C 31.813,33.679 31.645,33.498 31.645,33.254 C 31.763,32.767 32.083,32.384 32.357,32.041 C 32.467,31.914 32.579,31.856 32.63,32.001 C 32.75,32.394 32.821,32.719 33.018,33.061 C 33.058,33.302 33.058,33.593 33.174,33.792 C 33.684,34.181 34.155,34.714 34.585,35.4 C 34.782,35.84 35.097,36.18 35.018,36.713 L 33.762,39.056 C 33.71,39.154 33.732,39.266 33.732,39.266 C 33.746,39.339 33.818,39.463 33.903,39.437 L 35.88,38.861 L 35.979,38.801 L 36.001,38.717 L 35.921,36.911 C 36.117,36.618 36.431,36.469 36.665,36.18 C 36.587,36.03 36.51,35.983 36.431,35.886 C 36.431,35.591 36.665,35.496 36.823,35.352 C 36.743,35.058 36.393,35.105 36.312,34.764 C 36.626,34.524 36.862,34.181 36.902,33.693 C 36.785,33.593 36.518,33.683 36.362,33.691 C 36.212,33.696 35.592,33.603 35.397,33.351 C 35.248,33.156 35.215,32.719 35.177,32.329 C 35.177,32.329 35.18,32.201 35.255,32.23 A 31.307,31.307 0 0,0 39.802,33.646 S 40.007,33.686 40.078,33.84 C 40.705,35.206 41.333,36.448 42.006,37.788 C 42.164,38.103 42.275,38.392 42.33,38.662 C 41.977,39.444 41.434,39.945 40.923,40.679 C 40.729,41.006 40.981,41.279 41.135,41.249 L 43.018,40.859 S 43.149,40.842 43.177,40.66 C 43.217,40.08 43.371,39.544 43.293,38.957 C 43.449,38.617 43.841,38.617 44,38.275 A 2.13,2.13 0 0,0 43.377,37.626 C 42.904,37.304 42.797,36.663 42.697,36.261 C 42.442,35.259 43.177,35.547 43.177,34.908 A 3.682,3.682 0 0,0 42.667,34.281 C 42.667,33.937 42.901,33.841 43.137,33.742 A 0.655,0.655 0 0,0 42.863,33.349 C 42.705,33.254 42.471,33.202 42.313,33.061 C 42.235,32.817 42.901,32.623 42.821,31.89 C 42.626,32.036 42.312,31.94 42.117,31.842 C 41.881,31.598 42.272,31.353 42.156,31.112 C 41.686,30.915 41.215,30.624 40.783,30.33 C 40.478,30.125 40.336,29.523 40.195,29.11 C 39.645,27.404 39.215,25.7 38.235,24.238 C 38,23.898 37.921,23.846 37.607,23.553 C 37.506,23.457 37.545,23.247 37.757,23.033 C 37.953,22.839 38.153,22.53 38.235,22.285 C 38.667,21.214 38.625,19.654 38.153,18.631 C 37.607,17.361 36.823,16.924 35.88,16.924 C 34.432,16.924 33.49,18.386 32.98,19.898 C 32.353,21.798 32.548,22.74 31.53,23.665 C 31.366,23.795 30.948,23.905 30.625,23.457 C 30.47,23.214 30.273,22.822 30.391,22.482 C 30.51,22.58 30.629,22.842 30.775,22.972 A 0.408,0.408 0 0,0 31.295,23.018 C 31.505,22.872 31.611,22.581 31.611,22.289 C 31.611,21.933 31.451,21.623 31.255,21.409 C 30.941,21.069 30.429,21.118 30.077,21.362 C 29.607,21.652 29.332,22.286 29.411,23.018 C 29.45,23.507 29.669,23.846 29.826,24.332 C 29.869,24.466 29.823,24.608 29.646,24.628 C 29.372,24.652 29.166,24.542 28.98,24.238 Z M 18.47,16.778 L 19.53,16.048 C 19.725,16.095 19.725,16.338 19.842,16.488 C 20.118,16.388 19.999,15.899 20.157,15.655 C 20.313,15.655 20.313,15.949 20.431,16.095 C 20.705,16.095 20.626,15.56 20.746,15.316 C 20.901,15.024 21.333,15.122 21.256,14.633 L 20.863,12.439 C 20.816,12.179 20.703,12.059 20.626,12.098 C 19.216,12.731 18.116,13.366 16.783,13.948 C 16.666,13.998 16.549,13.998 16.353,13.998 L 14.195,12 C 14.312,13.17 14.43,14.245 14.509,14.927 C 14.547,15.072 14.509,15.122 14.429,15.122 C 13.999,15.122 13.607,15.56 13.333,16.047 C 13.019,16.877 12.627,17.559 11.999,17.9 C 12.117,18.242 12.35,18.436 12.587,18.53 C 12.783,18.63 12.98,18.58 13.177,18.727 C 13.177,18.825 13.137,18.877 13.097,18.971 C 12.587,20.093 13.371,21.604 12.392,22.433 C 12.824,22.676 13.332,22.433 13.685,21.947 L 13.763,21.995 A 6.888,6.888 0 0,0 13.41,24.53 S 13.44,24.733 13.371,24.986 C 13.371,24.986 13.298,25.268 13.254,25.407 C 14.513,25.151 14.986,23.147 15.081,22.803 L 15.126,22.759 L 15.136,22.822 S 14.773,24.289 15.136,24.919 C 15.218,25.059 15.358,25.201 15.496,25.184 C 15.645,24.484 15.96,23.601 16.469,23.116 C 16.939,23.163 17.411,23.456 17.882,23.699 C 18.157,22.872 17.646,21.702 17.646,21.702 L 17.651,21.678 L 17.685,21.702 S 18.077,22.236 18.275,22.433 C 18.507,22.628 19.215,22.823 19.607,22.53 C 19.745,22.428 19.96,22.19 19.998,21.995 C 18.743,22.093 18.663,20.142 18.077,19.215 L 18.115,19.165 C 18.431,19.362 18.589,19.898 18.9,20.093 L 20.614,20.533 C 20.73,20.563 20.774,20.337 20.774,20.337 C 20.79,20.268 20.949,19.494 20.862,19.119 C 20.667,18.971 20.588,19.361 20.43,19.361 C 19.998,19.215 19.724,19.165 19.254,18.923 L 18.47,16.973 C 18.412,16.825 18.47,16.778 18.47,16.778 Z M 32.264,24.2 L 32.314,24.14 C 33.217,22.97 33.726,21.02 34.116,20.093 C 34.586,19.023 35.058,18.531 35.764,18.484 C 36.354,18.436 37.136,19.069 37.373,19.802 C 37.608,20.435 37.452,21.262 37.176,21.752 C 36.864,22.335 36.276,22.482 35.764,22.335 C 35.451,22.235 35.177,21.995 34.942,21.702 C 34.586,22.385 34.116,23.162 33.568,23.602 C 33.175,23.945 32.705,24.284 32.275,24.284 L 32.264,24.2 Z M 17.844,15.509 C 17.844,15.851 17.648,16.095 17.374,16.095 C 17.136,16.095 16.941,15.851 16.941,15.509 C 16.941,15.169 17.136,14.927 17.373,14.927 C 17.648,14.927 17.845,15.17 17.845,15.509 Z" fill="rgb(34, 30, 30)"/>
</svg>
