<?xml version="1.0" encoding="UTF-8"?>
<!-- generated by Finnhub -->
<svg viewBox="0 0 55.5 55.5" xmlns="http://www.w3.org/2000/svg">
<path d="M 0,0 H 55.5 V 55.5 H 0 Z" fill="rgb(239, 242, 248)"/>
<path d="M 10.197000000000001,23.058 C 6.821,23.073 4,24.567 4,29.073 C 4,32.643 5.897,34.891 10.294,34.891 C 15.47,34.891 15.802,31 15.802,31 H 13.294 S 12.756,33.255 10.141,33.255 C 8.011,33.255 6.48,32.092 6.48,29.995 H 16 V 28.346 C 16,26.271 14.797,23.073 10.207,23.073 Z M 10.119,24.755 C 12.147,24.755 13.529,26.065 13.529,28 H 6.535 C 6.535,25.945 8.339,24.755 10.119,24.755 Z" fill="rgb(228, 49, 54)"/>
<path d="M 15.99,18.985 V 35 H 19 V 33.293 S 19.668,35.215 22.88,35.215 C 26.265,35.215 28.563,32.772 28.563,29.272 C 28.563,26.016 26.452,23.398 22.886,23.398 C 19.547,23.398 18.969,25.273 18.969,25.273 V 19 H 16 Z M 22.494,25.112 C 24.792,25.112 26.028,26.892 26.028,29.272 C 26.028,31.825 24.549,33.515 22.494,33.515 C 20.042,33.515 18.969,31.57 18.969,29.363 C 18.969,27.306 19.922,25.112 22.494,25.112 Z" fill="rgb(1, 99, 208)"/>
<path d="M 34.498000000000005,23.348 C 29.414,23.363 29.088,26.537 29.088,27 H 31.623 S 31.756,25.034 34.333,25.034 C 36.007,25.034 36.999,25.831 36.999,27.364 V 28.014 H 34.333 C 30.387,28.014 28.301,29.109 28.301,31.545 C 28.301,33.942 30.228,35.247 32.833,35.247 C 36.383,35.247 36.999,33.207 36.999,33.207 V 35 H 40 V 27.713 C 40,24.12 36.966,23.363 34.508,23.363 Z M 36.999,29.545 V 30.272 C 36.999,31.221 36.742,33.579 33.429,33.579 C 31.614,33.579 30.836,32.638 30.836,31.545 C 30.836,29.558 33.15,29.545 36.999,29.545 Z" fill="rgb(244, 174, 0)"/>
<path d="M 38.671,23.985 H 41.471 L 45.477,32.346 L 49.472,24 H 52 L 44.722,39 H 42.07 L 44.17,34.768 L 38.682,24 Z" fill="rgb(133, 183, 21)"/>
</svg>
