<?xml version="1.0" encoding="UTF-8"?>
<!-- generated by Finnhub -->
<svg viewBox="0 0 55.5 55.5" xmlns="http://www.w3.org/2000/svg">
<path d="M 0,0 H 55.5 V 55.5 H 0 Z" fill="rgb(1, 67, 54)"/>
<path d="M 24.206,24.985 C 25.446,25 26.181,26.01 26.181,27.072 S 25.445,29.006 24.216,29.006 H 23 V 31 H 21.574 V 25 H 24.216 Z M 23,26.272 V 27.619 H 24.216 A 0.612,0.612 0 0,0 24.676,27.399 C 24.734,27.331 24.78,27.279 24.807,27.192 A 0.84,0.84 0 0,0 24.807,26.722 A 0.658,0.658 0 0,0 24.678,26.488 A 0.628,0.628 0 0,0 24.216,26.272 H 23 Z M 27.845,28.503 C 27.889,29.349 28.515,29.796 29.218,29.796 C 29.476,29.799 29.731,29.739 29.962,29.621 C 30.193,29.502 30.394,29.328 30.548,29.113 L 31.422,29.846 C 30.928,30.508 30.28,30.983 29.062,30.983 C 27.402,30.983 26.469,29.597 26.469,27.961 C 26.463,26.444 27.362,25.001 29.033,25.001 C 30.186,25.001 31.448,25.847 31.448,28.057 C 31.448,28.205 31.437,28.355 31.426,28.512 L 27.845,28.503 Z M 27.867,27.365 H 30.02 A 1.203,1.203 0 0,0 29.739,26.501 C 29.638,26.384 29.515,26.29 29.379,26.224 A 1.072,1.072 0 0,0 28.943,26.118 C 28.793,26.126 28.646,26.164 28.511,26.231 A 1.135,1.135 0 0,0 28.153,26.509 A 1.223,1.223 0 0,0 27.866,27.369 V 27.365 Z M 36,25 V 26 H 34.5 V 31 H 33 V 26 H 31.561 V 25 H 36 Z M 38.379,29 H 38 V 31 H 36.444 V 25 H 39.064 C 40.294,25 41.029,25.824 41.029,26.82 C 41,28 40.423,28.45 39.894,28.642 L 41.283,31 H 39.647 L 38.379,29 Z M 38,26.19 V 27.508 H 39.064 A 0.583,0.583 0 0,0 39.513,27.323 A 0.636,0.636 0 0,0 39.689,26.855 A 0.65,0.65 0 0,0 39.523,26.381 A 0.6,0.6 0 0,0 39.075,26.191 H 38 Z M 41.775,27.977 C 41.775,26.444 42.71,25.001 44.455,25.001 C 46.199,25.001 47.155,26.387 47.155,28.023 C 47.155,29.557 46.223,30.999 44.477,30.999 C 42.73,30.999 41.775,29.613 41.775,27.977 Z M 43.182,27.955 C 43.182,29.35 43.896,29.795 44.509,29.795 C 45.259,29.795 45.752,29.065 45.752,28.045 C 45.752,26.708 45.059,26.202 44.455,26.202 C 43.675,26.202 43.182,26.912 43.182,27.959 V 27.955 Z M 48,25 H 49.5 V 29.5 H 52 V 31 H 48.002 L 48,25 Z" fill="rgb(254, 254, 253)"/>
<path d="M 15.522,27.962 C 15.532,26.444 16.466,25.001 18.213,25.001 C 19.96,25.001 20.914,26.387 20.914,28.023 C 20.914,29.557 19.98,30.999 18.235,30.999 C 16.49,30.999 15.532,29.613 15.532,27.977 Z M 16.938,27.955 C 16.938,29.35 17.652,29.795 18.268,29.795 C 19.015,29.795 19.508,29.065 19.508,28.045 C 19.508,26.708 18.816,26.202 18.213,26.202 C 17.433,26.202 16.938,26.912 16.938,27.959 V 27.955 Z M 14.767,29.659 A 2.462,2.462 0 0,1 13.858,30.654 A 2.327,2.327 0 0,1 12.583,30.999 C 10.921,31 10,29.613 10,27.978 C 10,26.444 10.889,25.001 12.557,25.001 C 13.023,24.987 13.483,25.113 13.882,25.365 C 14.28,25.617 14.601,25.984 14.804,26.421 L 13.723,26.981 A 1.274,1.274 0 0,0 13.281,26.423 A 1.198,1.198 0 0,0 12.621,26.203 C 11.851,26.203 11.38,26.913 11.38,27.955 C 11.38,29.35 12.07,29.795 12.675,29.795 C 12.896,29.795 13.112,29.725 13.297,29.597 C 13.481,29.47 13.625,29.289 13.712,29.077 L 14.767,29.659 Z M 5.384,28.502 C 5.428,29.349 6.054,29.795 6.756,29.795 C 7.013,29.798 7.268,29.738 7.499,29.62 C 7.73,29.501 7.931,29.327 8.085,29.112 L 8.959,29.845 C 8.465,30.507 7.817,30.982 6.599,30.982 C 4.934,30.998 4,29.612 4,27.976 C 4,26.443 4.9,25 6.57,25 C 7.723,25 8.985,25.846 8.985,28.056 C 8.985,28.204 8.985,28.354 8.963,28.511 L 5.384,28.502 Z M 5.406,27.364 H 7.56 A 1.204,1.204 0 0,0 7.278,26.5 C 7.178,26.384 7.055,26.29 6.918,26.224 A 1.073,1.073 0 0,0 6.484,26.117 C 6.334,26.124 6.186,26.162 6.051,26.229 A 1.133,1.133 0 0,0 5.693,26.507 A 1.223,1.223 0 0,0 5.407,27.368 V 27.364 Z" fill="rgb(252, 216, 1)"/>
</svg>
