<?xml version="1.0" encoding="UTF-8"?>
<!-- generated by Finnhub -->
<svg viewBox="0 0 55.5 55.5" xmlns="http://www.w3.org/2000/svg">
<path d="M 0,0 H 55.5 V 55.5 H 0 Z" fill="rgb(1, 151, 202)"/>
<path d="M 40.697,22.985 H 36.5 L 34,32 H 37.026 S 37.206,31.381 37.334,31 H 40.17 C 40.28,31.363 40.41,31.632 40.5,32 H 43.522 C 42.589,28.998 41.618,26.01 40.707,23 Z M 39.629,29 H 38 L 38.768,25.55 L 39.629,29 Z" fill="rgb(254, 254, 253)"/>
<path d="M 3.99,22.985 C 6.333,23.022 8.667,22.994 11,23 V 25.509 H 7 V 26.332 H 10 V 28.5 H 7 V 29.505 H 11 V 32 H 4 V 23 Z" fill="rgb(254, 254, 253)"/>
<path d="M 17.99,25.566 V 23 C 14,23 12.387,23.432 11.46,25.454 C 10.804,26.882 10.866,28.906 11.714,30.234 C 12.77,31.888 15,32 18,32 V 29.5 C 17.15,29.514 15.959,29.642 15.185,29.215 C 14.567,28.872 14,28.5 14,27.5 C 14,25.454 16.703,25.509 18,25.581 Z M 28,23 H 31 V 29.502 C 32.07,29.508 34,29.5 34,29.5 L 33.312,32 H 34 H 28 V 23 Z" fill="rgb(254, 254, 253)"/>
<path d="M 44.49,22.985 H 44 V 32 C 44.7,31.964 45.468,31.985 46.24,32.006 C 49.131,32.085 52.158,32.28 51.993,29.374 C 51.932,28.281 51.208,27.749 50.4,27.398 C 50.872,27.228 51.203,27.001 51.42,26.634 C 52.138,25.412 51.398,24.017 50.5,23.5 C 49.374,22.852 46.851,23.015 44.5,23 Z M 48.775,28.688 C 49.005,28.972 49.055,29.54 48.775,29.82 C 48.538,30.057 47.603,30 47.603,30 H 47 V 28.452 H 47.603 S 48.549,28.408 48.775,28.687 Z M 48.456,25.135 C 48.806,25.328 48.896,25.981 48.552,26.282 C 48.312,26.492 47.872,26.453 47.4,26.453 C 47.271,26.448 47.121,26.453 47,26.453 V 25 C 47.5,25 48.168,24.976 48.456,25.135 Z M 22.75,32.3 A 4.75,4.75 0 1,0 22.75,22.8 A 4.75,4.75 0 0,0 22.75,32.3 Z M 23.348,26.567 L 24.861,23.724 L 22.803,26.401 A 1.168,1.168 0 0,0 22.351,26.471 L 19.109,24.767 L 21.841,26.845 A 1.145,1.145 0 0,0 21.723,27.033 L 18.746,25.468 L 21.604,27.642 C 21.609,27.708 21.62,27.774 21.636,27.837 L 20.063,30.831 L 21.938,28.364 C 22.005,28.431 22.078,28.489 22.16,28.537 L 20.764,31.194 L 22.662,28.697 A 1.158,1.158 0 0,0 23.052,28.66 L 26.045,30.254 L 23.573,28.353 C 23.635,28.289 23.69,28.219 23.736,28.143 L 26.53,29.631 L 23.899,27.607 A 1.198,1.198 0 0,0 23.862,27.257 L 25.484,24.209 L 23.55,26.724 A 1.155,1.155 0 0,0 23.348,26.567 Z" fill="rgb(254, 254, 253)" fill-rule="evenodd"/>
</svg>
