<?xml version="1.0" encoding="UTF-8"?>
<!-- generated by Finnhub -->
<svg viewBox="0 0 55.5 55.5" xmlns="http://www.w3.org/2000/svg">
<path d="M 0,0 H 55.5 V 55.5 H 0 Z" fill="rgb(1, 152, 214)"/>
<path d="M 8.99,27.985 C 9,20.268 15.268,14 23,14 H 42 V 18 H 23 C 17.477,18 13,22.477 13,28 C 13,33.523 17.477,38 23,38 H 42 V 42 H 23 C 15.268,42 9,35.732 9,28 Z" fill="rgb(254, 254, 253)"/>
<path d="M 14.99,27.985 A 8,8 0 0,1 23,20 H 42 V 24 H 23 A 4,4 0 0,0 23,32 H 42 V 36 H 23 A 8,8 0 0,1 15,28 Z" fill="rgb(254, 254, 253)"/>
<path d="M 21.468,27.985 A 2,2 0 0,1 23.478,26 H 42 V 30 H 23.478 A 2,2 0 0,1 21.478,28 Z" fill="rgb(254, 254, 253)"/>
</svg>
