<?xml version="1.0" encoding="UTF-8"?>
<!-- generated by Finnhub -->
<svg viewBox="0 0 55.5 55.5" xmlns="http://www.w3.org/2000/svg">
<path d="M 0,28 A 28,28 0 1,1 56,28 A 28,28 0 1,1 0,28 Z" fill="url(#a)"/>
<path d="M 16.88,18.085 C 10.17,24.67 10.38,31.48 17.51,38.53 C 24.64,45.58 31.56,45.82 38.27,39.24 L 46,31.68 L 41.32,27.05 L 33.6,34.62 C 30.16,37.96 26.22,37.89 22.2,33.92 C 18.2,29.96 17.98,26.27 21.34,22.94 L 25.09,19.27 C 26.11,18.27 27.76,18.27 28.78,19.28 C 29.79,20.28 30.12,21.91 29.1,22.91 L 23.88,28 L 28.56,32.63 L 33.78,27.53 C 37.4,23.98 37.08,18.23 33.48,14.67 A 9.35,9.35 0 0,0 20.41,14.64 L 16.9,18.1 Z" fill="rgb(254, 254, 253)"/>
<defs>
<linearGradient id="a" x1="10.42" x2="68.15" y1="9.71" y2="76.02" gradientUnits="userSpaceOnUse">
<stop stop-color="rgb(25, 29, 31)" offset="0"/>
<stop stop-color="rgb(5, 5, 8)" offset="1"/>
</linearGradient>
</defs>
</svg>
