<?xml version="1.0" encoding="UTF-8"?>
<!-- generated by Finnhub -->
<svg viewBox="0 0 55.5 55.5" xmlns="http://www.w3.org/2000/svg">
<path d="M 0,0 H 55.5 V 55.5 H 0 Z" fill="rgb(12, 51, 103)"/>
<path d="M 34.99,15.485 H 31 V 16 H 35 V 15.5 Z M 23.037,18.235 L 22.94,17.978 C 22.732,17.553 22.33,17.155 21.915,17 C 21.122,16.704 20.182,16.884 19.572,17.476 A 1.958,1.958 0 0,0 19.108,19.38 C 19.452,20.173 20.097,20.555 20.745,20.94 C 21.337,21.29 21.932,21.643 22.305,22.312 C 22.488,22.71 22.488,23.636 22.244,23.996 C 21.792,24.601 21.048,24.768 20.34,24.575 C 19.84,24.459 19.413,23.919 19.242,23.443 C 19.085,23.481 18.927,23.533 18.771,23.583 L 18.766,23.585 C 18.908,24.007 19.156,24.381 19.486,24.665 C 20.121,25.192 21.109,25.283 21.866,24.987 C 22.525,24.768 23.172,24.087 23.256,23.353 C 23.427,21.943 22.48,20.966 21.517,20.353 C 20.962,19.998 20.401,19.64 20.047,19.123 C 19.84,18.775 19.865,18.222 20.097,17.888 C 20.438,17.424 20.963,17.258 21.512,17.36 C 22.012,17.437 22.464,17.952 22.635,18.44 L 23.037,18.235 Z M 14,17.628 H 17 V 17 H 13 V 25 H 17 V 24.511 H 14 L 14.012,20.989 L 16.012,20.987 V 20.511 L 14,20.5 V 17.628 Z M 27,17.628 H 29 V 17 H 24 V 17.628 H 26 V 25 H 27 V 17.628 Z M 13,36.511 H 11 V 29.038 H 10 V 37.038 H 13 V 36.511 Z" fill="rgb(254, 254, 253)"/>
<path d="M 19.49,36.985 H 20.635 L 17.627,29 H 17.249 L 14,37 H 14.5 L 16.016,33.244 H 18.256 L 19.5,37 Z M 17.176,30.492 L 16.212,32.602 H 18.091 L 17.176,30.492 Z" fill="rgb(254, 254, 253)" fill-rule="evenodd"/>
<path d="M 23.892999999999997,36.406 C 23.318,36.048 23.098,35.405 23.012,34.736 L 22.988,29 H 21.988 L 22,34.273 C 22.012,35.058 22.207,35.753 22.707,36.318 C 23.44,37.18 24.84,37.322 25.853,36.974 C 26.743,36.692 27.439,35.727 27.513,34.762 V 29 H 26.988 L 27,33.502 C 27,34.592 26.976,35.676 26.085,36.332 C 25.548,36.743 24.477,36.782 23.903,36.422 Z" fill="rgb(254, 254, 253)"/>
<path d="M 34.652,32.766999999999996 C 34.711,31.29 33.893,29.836 32.575,29.296 C 31.865,28.952 31.01,28.977 30.157,29.002 L 29,29 V 36.974 H 30 C 30.949,36.994 31.96,36.986 32.722,36.537 C 33.942,35.894 34.662,34.184 34.662,32.782 Z M 32.734,35.727 C 33.747,34.621 33.832,32.37 33.295,31.007 C 32.709,29.63 31.367,29.427 30,29.529 V 36.5 C 31.037,36.526 32.014,36.511 32.734,35.727 Z M 46.148,31.894 C 46.465,31.315 46.441,30.428 46.038,29.888 C 45.32,28.984 44.049,29.015 42.933,29.046 H 41.986 L 42,36.994 L 43,37 L 42.986,32.974 H 44 L 44.037,33 L 46,37 H 47 L 44.915,32.846 L 44.903,32.782 C 45.379,32.652 45.855,32.382 46.148,31.894 Z M 45.355,31.74 C 45.562,31.354 45.575,30.775 45.379,30.363 C 44.979,29.531 43.819,29.649 42.986,29.653 C 42.931,29.653 43.041,29.653 42.986,29.653 V 32.548 C 43.865,32.586 44.891,32.589 45.355,31.74 Z" fill="rgb(254, 254, 253)" fill-rule="evenodd"/>
<path d="M 31.99,17.613 H 35 V 17 H 31 V 25 H 35 V 24.511 H 32 L 32.012,20.989 H 34.012 V 20.513 L 32,20.5 V 17.628 Z M 38,17.628 H 41 V 17 H 37 V 25 H 41 V 24.511 H 38 L 38.012,20.989 H 40.012 V 20.513 L 38,20.5 V 17.628 Z M 37,29.601 H 40 V 29 H 36 V 37 H 40 V 36.511 H 37 V 33 H 39 V 32.524 L 36.988,32.511 L 37,29.601 Z" fill="rgb(254, 254, 253)"/>
</svg>
