<?xml version="1.0" encoding="UTF-8"?>
<!-- generated by Finnhub -->
<svg viewBox="0 0 55.5 55.5" xmlns="http://www.w3.org/2000/svg">
<path d="M 0,0 H 55.5 V 55.5 H 0 Z" fill="rgb(159, 171, 186)"/>
<path d="M 27.438,9.985 C 27.378,10.293 28.044,11.032 28.044,11.032 L 39.604,24.625 S 40.048,25.142 39.976,25.289 L 38.479,27.964 L 37.935,28.226 L 25.855,13.876 S 25.495,13.506 25.64,13.286 C 25.66,13.257 27.448,10 27.448,10 Z M 25.1,14.555 C 25.03,14.848 25.696,15.587 25.696,15.587 L 37.256,29.18 S 37.701,29.698 37.629,29.844 L 36.173,32.459 L 35.608,32.805 L 23.508,18.43 S 23.148,18.06 23.293,17.842 C 23.313,17.812 25.101,14.555 25.101,14.555 Z M 22.911,19.192 L 34.96,33.348 S 35.404,33.865 35.332,34.011 L 33.801,36.762 L 33.335,37.001 L 21.211,22.598 S 20.825,22.191 20.97,21.972 C 20.984,21.951 21.885,20.328 22.37,19.454 C 22.55,19.13 22.911,19.192 22.911,19.192 Z M 20.206,23.439 C 20.136,23.732 21.026,24.034 21.026,24.034 L 32.586,37.627 S 33.031,38.144 32.959,38.29 L 31.075,41.776 C 31.052,41.409 30.348,40.551 30.348,40.551 L 18.838,26.877 S 18.478,26.507 18.623,26.289 C 18.643,26.259 20.206,23.439 20.206,23.439 Z M 17.653,27.64 C 17.582,27.933 18.438,28.216 18.438,28.216 L 29.998,41.809 S 30.442,42.326 30.37,42.472 C 30.37,42.472 28.442,46.035 28.445,46 C 28.483,45.53 27.907,44.907 27.907,44.907 L 16.248,31.06 S 15.888,30.69 16.034,30.471 C 16.054,30.441 17.652,27.641 17.652,27.641 Z" fill="rgb(254, 254, 253)"/>
<path d="M 23.497,18.869 L 38.503,24.91 S 39.903,25.508 40,25.254 L 38.478,27.964 C 38.174,28.507 37.513,28.288 37.513,28.288 L 21.9,22.061 S 21.08,21.703 20.912,22.019 C 20.912,22.019 21.855,20.222 22.496,19.152 C 22.812,18.624 23.507,18.884 23.507,18.884 Z M 21.18,23.241 L 36.16,29.474 S 37.56,30.072 37.657,29.817 L 36.134,32.527 C 35.83,33.071 35.17,32.852 35.17,32.852 L 19.572,26.418 S 18.752,26.06 18.585,26.376 C 18.585,26.376 19.528,24.579 20.169,23.509 C 20.485,22.981 21.18,23.241 21.18,23.241 Z M 18.62,27.355 L 33.855,33.663 S 35.254,34.261 35.351,34.007 L 33.829,36.717 C 33.525,37.261 32.865,37.042 32.865,37.042 L 17.012,30.532 S 16.192,30.173 16.025,30.489 C 16.025,30.489 16.968,28.692 17.609,27.622 C 17.925,27.094 18.62,27.355 18.62,27.355 Z" fill="rgb(23, 69, 126)"/>
</svg>
