<?xml version="1.0" encoding="UTF-8"?>
<!-- generated by Finnhub -->
<svg viewBox="0 0 55.5 55.5" xmlns="http://www.w3.org/2000/svg">
<path d="M 0,0 H 55.5 V 55.5 H 0 Z" fill="rgb(52, 52, 51)"/>
<path d="M 36.223,11.985 C 24.709,12 13.493,22.25 13.493,23.983 C 13.493,24.24 13.646,24.344 13.823,24.344 C 14.124,24.344 14.485,23.779 15.312,22.923 C 21.153,16.864 29.753,13.299 35.724,13.299 C 40.039,13.299 41.887,15.763 41.887,18.77 C 41.887,27.413 26.087,40.238 17.927,40.238 C 15.803,40.238 14.392,39.14 14.392,37.26 C 14.392,36.208 14.8,35.1 15.478,34.013 C 15.984,34.507 16.964,34.923 18.215,34.923 C 23.515,34.923 29.384,30.34 29.372,27.18 C 29.369,26.267 28.64,25.281 27.038,25.281 C 24.385,25.281 19.684,27.658 16.286,31.002 C 15.883,29.918 16.567,28.182 17.848,26.682 C 20.497,23.58 25.551,20.67 28.247,20.67 C 28.512,20.67 28.625,20.818 28.625,20.985 C 28.625,21.249 28.278,21.386 28.278,21.73 A 0.33,0.33 0 0,0 28.62,22.065 C 29.091,22.065 29.762,21.235 29.762,20.513 C 29.762,19.963 29.349,19.573 28.586,19.573 C 25.783,19.573 20.152,22.317 16.823,25.903 C 14.828,28.05 13.661,30.768 14.607,32.854 C 13.038,34.84 12,37.048 12,39.27 C 12,42.046 13.905,44 17.314,44 C 23.131,44 29.548,40.547 34.632,35.83 L 35.466,35.031 C 40.477,30.1 44,23.988 44,18.991 C 44,15.445 41.914,12 36.233,12 Z M 26.666,26.445 C 27.459,26.445 27.72,26.905 27.72,27.322 C 27.72,29.128 22.83,32.748 18.719,32.748 C 17.85,32.748 17.135,32.385 16.941,32.116 C 19.782,28.976 24.287,26.445 26.666,26.445 Z" fill="rgb(252, 190, 85)"/>
</svg>
