<?xml version="1.0" encoding="UTF-8"?>
<!-- generated by Finnhub -->
<svg viewBox="0 0 55.5 55.5" xmlns="http://www.w3.org/2000/svg">
<path d="M 0,0 H 55.5 V 55.5 H 0 Z" fill="rgb(242, 114, 30)"/>
<path d="M 13.972,29.985 H 42.019 C 42.544,30 43.049,29.793 43.422,29.427 C 43.794,29.057 44.002,28.557 44,28.039 C 43.985,19.194 36.69,11.999 27.738,11.999 C 21.669,11.999 16.148,15.301 13.328,20.615 A 1.946,1.946 0 0,0 14.164,23.259 A 1.99,1.99 0 0,0 16.839,22.433 C 18.97,18.413 23.149,16 27.738,16 C 33.831,16 38.91,20.242 39.872,26 H 13.982 C 12.887,26 12,26.961 12,28.042 A 1.97,1.97 0 0,0 13.982,30 Z M 13.192,34.812 C 15.915,40.448 21.672,44 27.99,44 C 28.216,44 28.445,43.996 28.673,43.986 C 34.779,43.738 40.197,40.216 42.808,34.794 A 1.94,1.94 0 0,0 41.855,32.188 C 40.861,31.726 39.67,32.144 39.2,33.122 C 37.223,37.222 33.125,39.814 28.508,40 C 23.531,40.202 18.933,37.551 16.799,33.135 C 16.328,32.158 15.137,31.74 14.141,32.205 A 1.942,1.942 0 0,0 13.192,34.812 Z" fill="rgb(254, 254, 253)"/>
</svg>
