<?xml version="1.0" encoding="UTF-8"?>
<!-- generated by Finnhub -->
<svg viewBox="0 0 55.5 55.5" xmlns="http://www.w3.org/2000/svg">
<path d="M 0,0 H 55.5 V 55.5 H 0 Z" fill="rgb(170, 13, 26)"/>
<path d="M 31.031,21.867 C 30.975,20.102 30.425,18.588 29.305,17.519 C 28.205,16.473 26.667,15.939 24.842,16.006 C 21.237,16.116 16.862,18.476 13.411,22.172 C 9.981,25.867 7.893,30.43 8.003,34.08 C 8.069,35.928 8.663,37.442 9.761,38.488 C 12.751,41.359 18.731,40.002 23.809,35.594 A 7.679,7.679 0 0,1 22.863,34.859 C 20.555,36.751 18.049,37.886 15.983,37.953 C 14.817,37.976 13.828,37.663 13.146,36.996 C 12.465,36.351 12.069,35.371 12.047,34.192 C 11.959,31.432 13.652,27.87 16.465,24.865 C 19.258,21.838 22.687,19.924 25.391,19.857 C 26.556,19.812 27.545,20.147 28.227,20.792 C 28.591,21.137 28.869,21.564 29.04,22.038 C 29.15,22.35 29.238,22.684 29.282,23.04 C 29.304,23.218 29.326,23.419 29.326,23.62 C 29.413,26.134 27.984,29.362 25.566,32.211 C 25.874,32.434 26.182,32.634 26.511,32.835 C 29.237,29.562 30.798,25.935 31.018,22.862 C 31.041,22.527 31.041,22.193 31.041,21.882 Z" fill="rgb(254, 254, 253)"/>
<path d="M 46.596000000000004,27.988 C 44.452,25.087 40.011,22.817 35.043,22.105 A 22.47,22.47 0 0,0 31.041,21.882 C 31.041,22.193 31.041,22.527 31.02,22.862 C 32.207,22.817 33.482,22.862 34.757,23.062 C 40.847,23.93 45.419,27.335 44.957,30.63 C 44.496,33.947 39.154,35.928 33.064,35.037 C 30.58,34.681 28.294,33.902 26.513,32.834 A 14.04,14.04 0 0,1 25.568,32.21 C 24.842,31.676 24.227,31.097 23.765,30.474 C 23.039,29.494 22.732,28.448 22.864,27.447 C 22.996,26.467 23.589,25.555 24.557,24.82 C 25.744,23.93 27.392,23.328 29.283,23.04 A 4.78,4.78 0 0,0 29.041,22.037 C 24.007,22.683 20.247,25.109 19.764,28.493 C 19.456,30.741 20.644,33.011 22.864,34.859 C 23.149,35.126 23.479,35.371 23.809,35.594 C 26.095,37.219 29.194,38.444 32.669,38.933 C 40.451,40.068 47.309,37.197 47.947,32.544 C 48.166,31.054 47.704,29.473 46.606,28.004 Z" fill="rgb(254, 254, 253)"/>
</svg>
