<?xml version="1.0" encoding="UTF-8"?>
<!-- generated by Finnhub -->
<svg viewBox="0 0 55.5 55.5" xmlns="http://www.w3.org/2000/svg">
<path d="M 0,0 H 55.5 V 55.5 H 0 Z" fill="rgb(239, 242, 248)"/>
<path d="M 29.99,13.985 H 26 V 25 H 30 V 14 Z M 44,27.39 L 42,31 L 40,27 C 40,33.78 40.02,37.92 31.96,38 H 24 C 18.63,38.14 16,36.4 16,31.03 L 14,27.39 L 12.01,31.03 V 33.96 A 7.32,7.32 0 0,0 14.58,39.93 C 17.4,42.23 23.63,41.99 23.98,41.98 H 31.96 S 38.46,42.32 41.36,39.94 A 7.19,7.19 0 0,0 43.93,34.26 L 44,27.39 Z" fill="rgb(76, 169, 78)"/>
<path d="M 41.4,17.085 C 38.49,14.7 32,15.02 32,15.02 V 19.02 C 34.46,19.08 40.12,19.56 40,23.22 V 24.34 L 42,28 L 44,24.32 V 22.92 A 7.58,7.58 0 0,0 41.41,17.1 Z M 14.58,17.1 A 7.26,7.26 0 0,0 12,23.03 V 28.03 L 13.99,24.33 L 15.99,28.03 V 23.19 C 15.95,19.52 21.48,19.1 23.99,19.02 V 15.02 S 17.49,14.71 14.57,17.12 Z" fill="rgb(34, 90, 166)"/>
</svg>
