<?xml version="1.0" encoding="UTF-8"?>
<!-- generated by Finnhub -->
<svg viewBox="0 0 55.5 55.5" xmlns="http://www.w3.org/2000/svg">
<path d="M 0,0 H 55.5 V 55.5 H 0 Z" fill="rgb(239, 242, 248)"/>
<path d="M 33.59,22.076999999999998 A 9.932,9.932 0 0,1 32.897,16.358 C 33.487,12.932 35.36,9.943 38,8 C 32.881,8.613 28.375,13.104 27.516,18.548 C 27.193,20.607 27.03,23.802 30.346,27.131 C 32.346,29.138 34.374,31.331 33.791,35.238 C 33.192,39.238 29.634,42.469 25.83,42.455 C 22.023,42.437 19.497,39.191 20.01,35.179 C 20.67,30.037 26.19,28.454 26.71,25.276 C 26.907,24.061 26.612,22.806 26.325,21.756 C 25.887,20.332 25.081,18 26.077,15.153 C 26.077,15.153 23.125,17.438 22.404,22.243 C 22.25,23.286 21.962,24.778 20.523,26.267 C 19.085,27.758 17.524,30.302 17.106,33.377 C 16.312,39.233 20.045,43.975 25.6,44 C 31.156,44.023 36.329,39.303 37.223,33.465 C 38,28.407 34.783,24.713 33.599,22.092 Z" fill="rgb(227, 52, 55)"/>
<path d="M 25.837999999999997,40.445 H 25.868 C 28.651,40.46 31.378,37.94 31.826,34.944 C 32.251,32.105 30.989,30.534 28.94,28.538 C 26.879,26.53 26.937,25.572 26.778,24.243 C 26.823,27.12 26.955,28.909 25.363,30.415 C 23.797,31.895 22.281,33.255 22.001,35.433 C 21.811,36.926 22.162,38.27 22.993,39.215 C 23.701,40.024 24.688,40.454 25.848,40.46 Z" fill="rgb(54, 52, 51)"/>
</svg>
