<?xml version="1.0" encoding="UTF-8"?>
<!-- generated by Finnhub -->
<svg viewBox="0 0 55.5 55.5" xmlns="http://www.w3.org/2000/svg">
<path d="M 0,0 H 55.5 V 55.5 H 0 Z" fill="rgb(239, 242, 248)"/>
<path d="M 33.02,26.335 L 31.57,30.48 C 31.42,30.88 31.33,31.41 29.68,30.48 A 29.43,29.43 0 0,0 24.27,28.38 A 9.6,9.6 0 0,0 27.55,25.32 C 27.75,24.96 27.95,24.32 27.13,24.58 C 26.3,24.84 25.31,24.98 24.92,25 C 22.62,25.11 20.01,23.4 18.98,22.53 C 18.46,22.11 17.19,21.25 16.25,21.16 C 15.3,21.08 14.35,21.89 14,22.31 C 14.28,18.04 18.62,18.31 19.58,18.75 C 20.35,19.09 21.06,19.15 21.31,19.14 A 2.48,2.48 0 0,0 23.13,17.82 C 22.41,18.24 21.39,18.21 21.31,18.21 C 19.81,18.11 19.05,17.07 18.21,16.23 C 17.54,15.55 16.46,15.6 16.01,15.71 C 17.06,14.09 18.91,14.78 19.13,14.98 C 19.36,15.18 20.55,15.41 21.31,14.98 A 5.63,5.63 0 0,1 22.95,14.41 C 21.42,13.95 21.22,12.89 21.31,12.41 C 23.55,13.12 25.21,12.5 27.5,11.71 A 13.8,13.8 0 0,1 32.06,11.01 C 36.04,11.21 36.3,13.07 35.94,13.98 C 36.97,14.83 37.09,17.27 36.89,18 C 36.69,18.74 37.09,19.28 37.35,19.67 C 37.61,20.07 37.98,20.33 38,20.77 C 38.01,21.22 37.54,21.22 37.26,21.4 C 37.03,21.55 37.05,21.75 37.09,21.83 C 37.19,21.88 37.37,22.05 37.35,22.31 C 37.32,22.57 36.8,22.69 36.55,22.72 C 36.72,22.78 37.08,22.96 37.09,23.2 C 37.1,23.43 36.82,23.62 36.69,23.69 C 37.23,25.43 35.59,25.67 34.49,25.32 C 33.59,25.04 33.14,25.89 33.03,26.35 Z" fill="rgb(120, 203, 2)"/>
<path d="M 22.7,40.464999999999996 L 22.24,42.48 C 21.86,42.64 20.8,42.98 19.61,43 C 18.11,43.03 14.76,42.32 15.01,38.66 C 15.26,35 17.5,33.14 20.41,33.01 C 23.31,32.88 23.78,35.1 23.78,35.78 C 23.78,36.25 23.63,38.74 18.88,38.79 H 17.35 C 17.35,39.55 17.86,40.99 19.95,41 C 20.63,40.98 22.12,40.92 22.71,40.48 Z M 17.64,37.06 C 17.88,36.33 18.74,34.86 20.3,34.8 C 21.65,34.76 21.78,35.8 21.4,36.29 C 21.08,36.71 20.53,37.06 19.1,37.06 H 17.64 Z M 25.06,41.84 C 26.87,43.61 29.94,43.33 31.91,41.21 C 33.88,39.09 34.01,35.94 32.19,34.16 C 30.38,32.39 27.31,32.67 25.34,34.79 C 23.38,36.91 23.24,40.06 25.06,41.84 Z M 27.48,40.88 C 28.67,41.38 30.16,40.52 30.81,38.93 C 31.46,37.34 31.02,35.63 29.83,35.13 C 28.65,34.62 27.16,35.49 26.51,37.08 C 25.86,38.66 26.29,40.37 27.48,40.88 Z M 41,33.76 A 6.06,6.06 0 0,0 38.31,33 C 36.87,32.98 34.31,33.6 34.21,36.12 C 34.11,38.13 36.31,38.85 37.24,39.08 C 37.6,39.18 38.31,39.52 38.31,40.21 C 38.31,41.06 36.87,41.19 36.48,41.19 C 36.28,41.19 34.66,41.04 33.68,40.36 L 33,42.16 A 7.4,7.4 0 0,0 36.48,42.99 C 38.18,42.88 40.61,42.29 40.65,39.8 C 40.69,37.81 38.48,36.9 37.37,36.68 C 37.09,36.61 36.54,36.31 36.61,35.74 C 36.69,35.02 37.52,34.73 38.31,34.75 C 38.94,34.77 39.97,35.18 40.41,35.38 L 41,33.76 Z" fill="rgb(8, 69, 51)" fill-rule="evenodd"/>
</svg>
