<?xml version="1.0" encoding="UTF-8"?>
<!-- generated by Finnhub -->
<svg viewBox="0 0 55.5 55.5" xmlns="http://www.w3.org/2000/svg">
<path d="M 0,0 H 55.5 V 55.5 H 0 Z" fill="rgb(72, 193, 208)"/>
<path d="M 13.99,27.015 H 16 V 24.157 C 16,23.327 15.745,23 15,23 C 14.263,23 14,23.328 14,24.157 V 27.03 Z M 14,29 V 31.93 C 14,32.76 14.264,33.17 15,33.17 C 15.737,33.17 16,32.76 16,31.93 V 30 H 18 V 31.85 C 18,33.946 17.057,35 15.186,35 H 14.814 C 12.944,35 12,33.955 12,32.1 V 24.407 C 12,22.06 12.943,21 14.814,21 H 15.186 C 17.056,21 18,22.061 18,24.157 L 17.992,29 H 14 Z M 21,32.701 C 21.093,33.185 21.333,33.426 21.947,33.426 C 22.631,33.426 23.026,33.086 23.026,32.28 V 23.955 C 23.026,23.15 22.631,22.81 21.946,22.81 C 21.333,22.81 21,23.255 21,23.535 V 32.7 Z M 19,21 H 21 V 22.022 C 21.154,21.576 21.43,20.957 22.508,20.957 C 24.096,20.957 25,22.076 25,23.741 V 32.531 C 25,34.196 24.096,35.315 22.508,35.315 C 21.429,35.315 21.151,34.818 21,34.303 V 39 H 19 V 21 Z M 30,32.65 V 28.022 L 28.823,28.702 C 28.218,28.989 28,29.356 28,30.162 V 32.292 C 28,32.972 28.303,33.304 28.823,33.304 C 29.159,33.304 29.465,33.098 30,32.65 Z M 26.008,30.126 C 26.008,28.38 26.481,27.682 27.738,27.163 L 30,26.25 V 23.914 C 30,23.081 29.686,22.648 28.996,22.648 S 28,23.081 28,23.914 V 26 H 26 V 23.994 C 26,21.89 26.884,20.825 28.637,20.825 H 29.4 C 31.153,20.825 32,21.891 32,23.995 V 35.022 H 30 V 34.136 C 29.55,34.656 28.878,35.175 27.931,35.175 C 26.613,35.175 26.008,34.262 26.008,32.704 V 30.126 Z M 39,35 H 37 V 23.84 C 37,23.14 36.67,22.828 36.149,22.828 C 35.676,22.828 35,23.526 35,23.526 V 35 H 33 V 21 H 34.73 V 22.022 C 35.235,21.476 35.887,20.948 36.842,20.948 C 37.731,20.948 38.318,21.368 38.636,22.093 C 39.256,21.493 39.982,20.948 40.977,20.948 C 42.315,20.948 43,21.888 43,23.418 V 35 H 41 V 23.84 C 41,23.14 40.625,22.828 40.103,22.828 C 39.63,22.828 39,23.526 39,23.526 V 35 Z M 4,27 V 29 L 10,33.5 V 31 L 6,28 L 10,25 V 22.5 L 4,27 Z M 51,27 V 29 L 45,33.5 V 31 L 49,28 L 45,25 V 22.5 L 51,27 Z" fill="rgb(254, 254, 253)"/>
</svg>
