<?xml version="1.0" encoding="UTF-8"?>
<!-- generated by Finnhub -->
<svg viewBox="0 0 55.5 55.5" xmlns="http://www.w3.org/2000/svg">
<path d="M 0,0 H 55.5 V 55.5 H 0 Z" fill="rgb(254, 2, 60)"/>
<path d="M 41.925000000000004,11.017 C 41.93,10.057 41.383,9.764 40.729,10.191 L 30.646,16.78 C 30.099,17.137 29.999,17.28 30.001,18.022 L 30.039,31.133 C 30.042,31.878 30.581,32.231 31.181,31.836 L 41.237,25.216 L 41.296,25.177 C 41.649,24.945 41.826,24.827 41.916,24.663 C 42.005,24.496 42.003,24.281 42,23.848 L 41.999,23.701 L 41.936,11.031 Z M 14.254,36.912 C 13.914,36.689 13.929,36.376 14.217,36.178 L 18.664,33.13 C 18.905,32.965 18.977,32.952 19.235,33.121 L 23.802,36.117 C 24.062,36.287 24.07,36.611 23.804,36.791 L 19.352,39.82 L 19.326,39.837 C 19.166,39.947 19.086,40 19.008,40 C 18.933,40 18.858,39.95 18.712,39.853 L 18.661,39.819 L 14.254,36.913 Z M 33.13,35.362 C 32.957,35.447 32.949,35.581 33.152,35.677 L 35.797,36.922 L 35.827,36.937 C 35.915,36.979 35.96,37 36.005,37 C 36.052,37 36.099,36.977 36.195,36.93 L 36.211,36.923 L 38.883,35.625 C 39.042,35.547 39.037,35.409 38.881,35.335 L 36.141,34.052 C 35.986,33.979 35.943,33.985 35.799,34.056 L 33.13,35.362 Z M 30,40.238 C 29.998,40.015 30.133,39.946 30.296,40.042 L 32.808,41.517 C 32.944,41.597 32.969,41.629 32.971,41.799 L 33,44.799 C 33.002,44.969 32.87,45.053 32.72,44.964 L 30.214,43.482 L 30.2,43.473 C 30.11,43.42 30.065,43.394 30.044,43.355 C 30.022,43.318 30.022,43.269 30.022,43.172 V 43.138 L 30,40.238 Z M 25.704,40.05 C 25.867,39.936 26.002,40.018 26,40.286 L 25.979,43.766 V 43.806 C 25.978,43.928 25.978,43.987 25.953,44.033 C 25.93,44.076 25.886,44.108 25.8,44.168 L 25.786,44.178 L 23.28,45.957 C 23.13,46.063 22.998,45.964 23,45.759 L 23.029,42.159 C 23.031,41.955 23.056,41.916 23.192,41.82 L 25.704,40.05 Z M 17,16.715 C 16.995,16.045 17.398,15.839 17.887,16.125 L 25.424,20.55 C 25.833,20.79 25.908,20.888 25.914,21.397 L 26,30.398 C 26.005,30.91 25.608,31.158 25.16,30.892 L 17.643,26.447 C 17.343,26.269 17.2,26.188 17.131,26.066 C 17.061,25.941 17.067,25.772 17.064,25.414 L 17,16.715 Z" fill="rgb(254, 254, 253)"/>
</svg>
