<?xml version="1.0" encoding="UTF-8"?>
<!-- generated by Finnhub -->
<svg viewBox="0 0 55.5 55.5" xmlns="http://www.w3.org/2000/svg">
<path d="M 0,0 H 55.5 V 55.5 H 0 Z" fill="rgb(1, 129, 141)"/>
<path d="M 12.43,30.974999999999998 C 12.17,31.79 11.84,32.02 11.54,32.4 C 11.15,32.87 10.59,33 9.56,33 C 8.86,33 8.7,32.98 8.41,32.8 C 8.08,32.6 8,32.16 8,31.3 V 28 H 8.88 C 10.05,28 10.23,28.1 10.44,29.42 H 11 V 25.58 H 10.44 C 10.24,26.88 10.34,27 8.88,27 H 8 V 23.62 C 8,23.05 8.05,23 8.62,23 H 9.2 C 10.25,23 10.7,23.13 10.97,23.49 C 11.23,23.87 11.43,24.12 11.59,24.83 L 12,24.74 C 11.94,23.67 12.02,22.4 12,22 H 4 V 22.6 C 5.24,22.73 6,22.8 6,24.43 V 31.6 C 6,33.15 5.49,33.27 4,33.42 V 34 H 12.41 C 12.54,33.44 12.89,31.73 13,30.99 H 12.44 Z M 38.44,30.99 C 38.17,31.79 37.84,32.02 37.54,32.4 C 37.15,32.87 36.59,33 35.56,33 C 34.86,33 34.7,32.98 34.41,32.8 C 34.08,32.6 34,32.16 34,31.3 V 28 H 34.88 C 36.05,28 36.23,28.1 36.44,29.42 H 37 V 25.58 H 36.44 C 36.24,26.88 36.34,27 34.88,27 H 34 V 23.62 C 34,23.05 34.05,23 34.62,23 H 35.2 C 36.25,23 36.7,23.13 36.97,23.49 C 37.23,23.87 37.43,24.12 37.59,24.83 L 38,24.74 C 37.94,23.67 38.02,22.4 38,22 H 30 V 22.6 C 31.24,22.73 32,22.8 32,24.43 V 31.6 C 32,33.15 31.49,33.27 30,33.42 V 34 H 38.41 C 38.54,33.44 38.89,31.73 39,30.99 H 38.44 Z M 20.5,24.95 L 20.2,22.43 A 6.82,6.82 0 0,0 17.95,22 C 15.68,22 14,23.48 14,25.33 C 14,27.14 15.68,28.06 17.13,28.86 C 18.41,29.56 19,30.2 19,31.34 C 19,32.54 18.52,33 17.4,33 C 15.73,33 14.83,31.4 14.54,30.28 L 14,30.46 C 14.1,31.43 14.33,32.96 14.47,33.37 C 15.28,33.77 16.17,34 17.07,34 C 19.43,34 21,32.47 21,30.5 C 21,28.67 19.65,27.75 18.06,26.93 C 16.64,26.2 16,25.6 16,24.5 C 16,23.51 16.6,23 17.69,23 C 19.07,23 19.65,23.96 19.96,25.07 L 20.49,24.95 Z M 28.5,24.95 L 28.2,22.43 A 6.82,6.82 0 0,0 25.95,22 C 23.68,22 22,23.48 22,25.33 C 22,27.14 23.68,28.06 25.13,28.86 C 26.41,29.56 27,30.2 27,31.34 C 27,32.54 26.52,33 25.4,33 C 23.73,33 22.83,31.4 22.54,30.28 L 22,30.46 C 22.1,31.43 22.33,32.96 22.47,33.37 C 23.28,33.77 24.17,34 25.07,34 C 27.43,34 29,32.47 29,30.5 C 29,28.67 27.65,27.75 26.06,26.93 C 24.64,26.2 24,25.6 24,24.5 C 24,23.51 24.6,23 25.69,23 C 27.07,23 27.65,23.96 27.96,25.07 L 28.49,24.95 Z M 52,34 V 33.42 C 50.77,33.27 50.38,33.04 49.6,31.8 C 48.63,30.28 47.74,28.75 46.72,27.08 C 47.72,25.58 48.39,24.58 48.91,23.94 C 49.67,22.96 50.11,22.76 51.31,22.62 V 22 H 47 V 22.62 C 48.16,22.8 48.34,22.98 47.96,23.72 C 47.51,24.56 46.92,25.52 46.28,26.47 A 68.55,68.55 0 0,1 44.51,23.43 C 44.26,22.98 44.25,22.8 45.28,22.62 V 22 H 40.31 V 22.62 C 41.55,22.74 41.95,23.02 42.56,24.03 C 43.36,25.34 44.16,26.67 45.02,28.15 A 63.67,63.67 0 0,1 42.11,32.38 C 41.59,33 41.01,33.29 40,33.42 V 34 H 44.3 V 33.42 C 43.1,33.2 42.99,33.06 43.42,32.28 A 38.3,38.3 0 0,1 45.47,28.83 L 47.57,32.4 C 47.87,32.98 47.87,33.2 46.73,33.42 V 34 H 52 Z" fill="rgb(248, 241, 238)"/>
</svg>
