<?xml version="1.0" encoding="UTF-8"?>
<!-- generated by Finnhub -->
<svg viewBox="0 0 55.5 55.5" xmlns="http://www.w3.org/2000/svg">
<path d="M 0,0 H 55.5 V 55.5 H 0 Z" fill="rgb(240, 100, 29)"/>
<path d="M 24.99,18.985 V 23 H 28 V 24 H 25 V 30.303 C 25,32.053 25.573,32.757 26.556,32.757 C 27.45,32.757 28.165,32.181 28.388,31.789 L 29,32.5 C 28.5,33.5 27.025,34.185 25.707,34.185 C 24.009,34.185 23,32.981 23,31 V 24 H 21 V 23 C 23,23 24,21.5 24,19 H 25 Z M 31,30 H 30 V 33 S 31.986,34.14 33.706,34.14 C 36.03,34.14 37.884,32.987 37.884,30.753 C 37.884,26.836 32.254,26.959 32.254,24.333 C 32.254,23.25 33.214,22.835 34.197,22.835 C 35.5,22.835 36,23.777 36,26 H 37 V 22.5 S 35.248,21.913 34.31,21.913 C 32.12,21.913 30.354,22.903 30.354,25.116 C 30.354,28.986 35.851,28.633 35.851,31.536 C 35.851,32.504 35.248,33.241 33.907,33.241 C 32.036,33.24 31,32 31,30 Z M 40.275,37.687 C 39.06,37.687 39,37 39,35 H 38 V 38 C 38.5,38.5 39.247,39 40.275,39 C 41.795,39 43.649,38.562 45.705,33.563 L 49.247,23.866 C 49.537,23.175 49.5,23 50.5,23 H 51 V 22 H 47 V 23 H 47.5 C 48,23 48,23.269 48,23.866 C 48,24.119 47.85,24.556 47.85,24.556 C 47.604,25.202 45.235,31.697 45.235,31.697 C 44.252,29.163 43.235,24.608 43,23.777 C 42.765,22.946 44,23 44.5,23 H 45 V 22 H 39 V 23 H 39.5 C 40,23 40.243,23.251 40.4,23.777 C 41.5,27.5 43.403,32.987 43.962,34.485 C 42.755,36.995 41.325,37.687 40.275,37.687 Z M 10,18.359 C 10,18.129 10.022,17.99 10.402,17.99 C 10.402,17.99 13,18 15.5,18 S 18,22 18,22 H 19 V 17 H 5 V 18 S 7,17.806 7,19.271 V 31.651 C 7,32.987 5,32.987 5,32.987 V 34 H 19 C 19.067,33.17 18.933,29.415 19,29 H 18 S 18,33 15,33 H 11.48 C 10.362,33 10,32.757 10,31.766 V 26 H 13.11 C 14.223,26.082 15,26.848 15,28 H 16 V 23 H 15 C 15,24.133 14.327,24.871 13.11,25 H 10 V 18.359 Z" fill="rgb(254, 254, 253)"/>
</svg>
