<?xml version="1.0" encoding="UTF-8"?>
<!-- generated by Finnhub -->
<svg viewBox="0 0 55.5 55.5" xmlns="http://www.w3.org/2000/svg">
<path d="M 0,0 H 55.5 V 55.5 H 0 Z" fill="rgb(239, 242, 248)"/>
<path d="M 22.99,35.985 H 33 V 33 H 27 V 29.5 H 32 V 26.5 H 27 V 23 H 33 V 20 H 23 V 36 Z"/>
<path d="M 19.24,38.915 L 17.12,41.06 A 16.88,16.88 0 0,0 28,45 C 32.22,45 36.06,43.47 39.02,40.95 L 36.88,38.82 A 13.94,13.94 0 0,1 28,42 C 24.69,42 21.65,40.85 19.25,38.93 Z" fill="rgb(0, 132, 253)"/>
<path d="M 38.81,36.865 A 13.94,13.94 0 0,0 42,28 C 42,24.69 40.85,21.65 38.93,19.25 L 41.06,17.12 A 16.92,16.92 0 0,1 45,28 C 45,32.22 43.47,36.06 40.95,39.02 L 38.82,36.88 Z" fill="rgb(2, 211, 122)"/>
<path d="M 17.279999999999998,36.995 A 14,14 0 0,1 37.02,17.28 L 39.15,15.15 A 17.03,17.03 0 0,0 15.15,39.15 L 17.29,37.01 Z" fill="rgb(253, 213, 5)"/>
</svg>
