<?xml version="1.0" encoding="UTF-8"?>
<!-- generated by Finnhub -->
<svg viewBox="0 0 55.5 55.5" xmlns="http://www.w3.org/2000/svg">
<path d="M 0,0 H 55.5 V 55.5 H 0 Z" fill="rgb(122, 46, 59)"/>
<path d="M 27.99,10.985 A 17,17 0 0,0 15.31,39.31 L 14.56,39.98 A 17.93,17.93 0 0,1 10,28 A 18,18 0 1,1 42,39.32 L 41.22,38.69 A 16.93,16.93 0 0,0 45,28 A 17,17 0 0,0 28,11 Z" fill="rgb(140, 149, 148)"/>
<path d="M 43.99,28.025 A 16,16 0 0,1 40.8,37.67 L 40.65,37.48 C 39.47,36.05 37.51,33.66 34.07,33.66 L 33.13,33.78 C 31.63,33.96 30.16,34.15 29.09,33.87 A 23.9,23.9 0 0,1 30.56,40.61 C 30.56,41.43 30.56,43.11 30.39,44 H 28 A 8.51,8.51 0 0,0 23.66,39.49 C 22.08,38.89 20.78,39.03 19.54,39.17 C 18.48,39.29 17.47,39.4 16.37,39.04 A 16,16 0 0,1 12,28.04 C 12,19.18 19.16,12 28,12 C 36.84,12 44,19.18 44,28.04 Z M 31.74,19.3 C 35.52,19.71 37.44,18.25 37.94,17.47 V 21.65 C 37.15,20.76 35.48,20.34 33.94,19.95 C 33.12,19.75 32.34,19.55 31.74,19.3 Z M 25.01,24.56 C 24.59,25.16 22.93,26.3 19.67,25.98 C 20.19,26.18 20.86,26.33 21.57,26.48 C 22.89,26.78 24.33,27.11 25.01,27.8 V 24.56 Z M 18.01,37.58 C 20.57,34.62 18.55,29.27 17.22,26.96 C 19.86,27.87 25.52,30.34 27.1,32.91 C 28.68,35.49 27.94,38.96 27.38,40.38 C 24.43,37.14 19.91,37.16 18.02,37.58 Z M 30.47,20.9 C 31.8,23.33 33.79,29.31 31.23,32.43 C 33.12,31.99 38.16,31.53 40.6,35.38 C 41.17,33.88 41.93,29.89 40.35,27.18 C 38.77,24.46 33.1,21.86 30.47,20.9 Z" fill="rgb(254, 254, 253)" fill-rule="evenodd"/>
</svg>
