<?xml version="1.0" encoding="UTF-8"?>
<!-- generated by Finnhub -->
<svg viewBox="0 0 55.5 55.5" xmlns="http://www.w3.org/2000/svg">
<path d="M 0,0 H 55.5 V 55.5 H 0 Z" fill="url(#a)"/>
<path d="M 32.99,26.985 V 22 L 36,19 H 45 L 40,24 H 36 L 38,22 H 35.5 L 37.5,20 H 35 V 25 L 33,27 Z" fill="red"/>
<path d="M 17.458,26.923 C 17.598,26.859 17.687,26.722 17.835,26.672 C 17.93,26.644 18.006,26.734 18,26.817 L 17.998,27.572 C 18.171,27.534 18.253,27.445 18.416,27.382 C 19.003,27.146 19.675,27.122 20.289,27.273 C 20.795,27.398 21.246,27.723 21.483,28.167 C 21.761,28.67 21.826,29.272 21.667,29.818 A 2.347,2.347 0 0,1 20.43,31.281 C 19.901,31.544 19.278,31.608 18.693,31.51 C 18.5,31.476 18.439,31.42 18.265,31.332 C 18.198,31.304 18.118,31.247 18.045,31.295 C 17.992,31.33 18.005,31.399 18,31.452 C 18.002,32.093 18,32.734 18,33.375 C 17.996,33.466 18.024,33.57 18.12,33.61 C 18.375,33.723 18.538,33.694 18.808,33.745 C 18.896,33.753 18.942,33.855 18.896,33.923 C 18.853,33.984 18.766,33.987 18.696,33.995 C 18,34 16.976,34.011 16.126,34 C 15.998,33.996 15.941,33.79 16.074,33.746 C 16.34,33.676 16.658,33.722 16.876,33.53 C 16.98,33.434 17.001,33.289 17,33.158 V 28.01 C 16.995,27.889 17.003,27.737 16.885,27.66 C 16.726,27.558 16.518,27.596 16.351,27.515 C 16.256,27.465 16.317,27.349 16.399,27.323 C 16.725,27.171 17.171,27.148 17.468,26.937 Z M 18.563,27.641 A 0.823,0.823 0 0,0 18.086,27.857 C 18.013,27.912 17.993,28.002 17.998,28.085 C 18,28.883 17.996,29.681 18,30.478 C 18.002,30.679 18.12,30.843 18.285,30.953 C 18.557,31.13 18.752,31.234 19.079,31.27 C 19.65,31.3 20.243,31.075 20.599,30.645 C 20.896,30.293 21.015,29.83 20.99,29.387 A 1.845,1.845 0 0,0 19.982,27.881 A 2.531,2.531 0 0,0 18.562,27.641 Z M 30.343,24.06 C 30.434,23.997 30.553,24.003 30.66,24 C 31.022,24.003 31.542,23.997 31.903,24.003 C 32.003,23.993 32.008,24.103 32,24.184 V 31.294 C 32.006,31.375 32,31.494 32.095,31.527 C 32.288,31.568 32.411,31.487 32.604,31.481 C 32.676,31.488 32.709,31.568 32.696,31.631 C 32.621,31.74 32.485,31.778 32.365,31.818 C 32.04,31.91 31.611,31.96 31.275,31.994 C 31.177,32.007 31.049,31.995 31,31.897 V 31.442 C 30.766,31.541 30.52,31.668 30.271,31.734 C 29.604,31.92 28.951,31.9 28.321,31.599 C 27.861,31.381 27.475,31.003 27.287,30.533 A 2.297,2.297 0 0,1 27.343,28.71 C 27.569,28.23 27.973,27.84 28.447,27.595 A 2.508,2.508 0 0,1 30.629,27.504 C 30.719,27.534 30.816,27.595 30.915,27.564 C 31.005,27.52 30.995,27.405 31,27.322 V 24.826 C 31.002,24.726 30.986,24.616 30.904,24.549 C 30.747,24.419 30.525,24.427 30.35,24.333 C 30.244,24.281 30.25,24.122 30.343,24.06 Z M 29.46,27.616 A 1.627,1.627 0 0,0 28.303,28.404 A 2.221,2.221 0 0,0 28.148,30.254 C 28.318,30.726 28.719,31.105 29.206,31.259 C 29.675,31.406 30.1,31.445 30.579,31.318 A 0.53,0.53 0 0,0 30.943,30.932 C 31.005,30.672 30.992,30.401 31,30.135 C 30.996,29.603 31.02,29.065 30.915,28.54 C 30.849,28.229 30.775,27.967 30.493,27.787 C 30.163,27.577 29.838,27.562 29.46,27.616 Z M 4.207,24.03 A 0.911,0.911 0 0,1 4.464,24 C 6.033,24.013 7.726,24.006 9.361,24 C 9.423,24 9.501,24.007 9.531,24.074 C 9.573,24.167 9.564,24.274 9.568,24.373 C 9.567,24.791 9.571,25.21 9.567,25.629 C 9.591,25.773 9.373,25.771 9.339,25.656 C 9.225,25.406 9.151,25.136 9.012,24.898 C 8.884,24.699 8.649,24.633 8.437,24.589 C 7.903,24.492 7.086,24.502 6.545,24.493 C 6.398,24.498 6.228,24.493 6.113,24.607 C 6.003,24.728 6.007,24.909 6,25.065 C 5.998,25.807 6,26.55 5.998,27.293 C 6.002,27.38 5.996,27.487 6.07,27.546 C 6.175,27.626 6.31,27.626 6.434,27.634 C 6.844,27.642 7.528,27.637 7.938,27.638 C 8.146,27.642 8.373,27.581 8.505,27.4 C 8.685,27.174 8.683,26.864 8.789,26.604 C 8.837,26.471 9.049,26.504 9.063,26.644 C 9.088,26.82 9.063,26.997 9.053,27.173 C 9.008,27.713 9.027,28.255 9.063,28.794 C 9.065,28.954 9.092,29.118 9.056,29.276 C 9.006,29.4 8.818,29.358 8.781,29.243 C 8.67,28.953 8.699,28.618 8.56,28.337 C 8.458,28.137 8.23,28.079 8.034,28.048 C 7.643,27.998 6.974,28.003 6.581,28.001 C 6.42,28.009 6.247,28.002 6.099,28.081 C 5.996,28.141 6.002,28.28 5.999,28.386 C 6,29.236 5.997,30.086 6,30.936 C 6,31.096 6.012,31.299 6.166,31.381 C 6.376,31.491 6.62,31.483 6.85,31.497 C 7.251,31.507 7.928,31.523 8.328,31.476 C 8.594,31.445 8.868,31.356 9.058,31.15 C 9.313,30.877 9.516,30.554 9.679,30.212 C 9.726,30.122 9.783,29.99 9.905,30.015 C 9.979,30.013 10.016,30.103 9.993,30.169 C 9.899,30.592 9.786,31.073 9.706,31.499 C 9.677,31.636 9.673,31.786 9.602,31.909 C 9.547,31.994 9.352,32 9.352,32 L 4.39,31.994 S 4.167,32.014 4.068,31.963 C 3.963,31.911 3.986,31.732 4.094,31.699 C 4.38,31.605 4.474,31.566 4.758,31.468 C 4.935,31.406 5.005,31.199 5,31.018 C 5.002,28.994 5,26.968 5,24.943 C 5,24.813 4.988,24.654 4.873,24.575 C 4.593,24.394 4.449,24.425 4.156,24.283 C 4.042,24.223 4.082,24.042 4.206,24.03 Z M 37.387,26.38 C 37.459,26.343 37.58,26.364 37.594,26.456 C 37.626,26.684 37.584,26.916 37.617,27.144 C 37.644,27.219 37.738,27.214 37.803,27.219 C 38.241,27.222 38.68,27.219 39.118,27.219 C 39.198,27.218 39.302,27.229 39.333,27.319 A 0.592,0.592 0 0,1 39.333,27.679 C 39.295,27.759 39.196,27.763 39.119,27.764 C 38.707,27.764 38.295,27.761 37.884,27.764 C 37.78,27.77 37.654,27.769 37.584,27.859 C 37.514,27.969 37.524,28.107 37.519,28.233 C 37.516,29.044 37.483,29.855 37.483,30.666 C 37.481,30.902 37.536,31.172 37.746,31.313 C 38.001,31.478 38.325,31.467 38.616,31.436 C 38.799,31.419 38.966,31.294 39.154,31.326 C 39.249,31.343 39.254,31.469 39.201,31.532 C 39.047,31.755 38.781,31.869 38.528,31.936 C 38.178,32.019 37.808,32.019 37.455,31.95 C 37.173,31.895 36.899,31.736 36.767,31.473 C 36.613,31.179 36.613,30.836 36.617,30.512 C 36.621,29.687 36.643,28.862 36.64,28.037 C 36.644,27.961 36.615,27.867 36.53,27.854 C 36.377,27.824 36.22,27.85 36.068,27.832 C 35.978,27.808 35.983,27.686 36.052,27.64 C 36.208,27.515 36.402,27.451 36.572,27.347 C 36.909,27.162 37.138,26.831 37.306,26.493 C 37.329,26.453 37.348,26.407 37.387,26.38 Z M 46.015,27.024 C 46.092,26.969 46.23,27.014 46.232,27.114 C 46.254,27.321 46.216,27.532 46.256,27.738 C 46.266,27.814 46.358,27.822 46.409,27.776 C 46.641,27.614 46.848,27.413 47.111,27.296 C 47.409,27.156 47.785,27.152 48.068,27.328 C 48.35,27.508 48.345,27.97 48.068,28.153 A 0.76,0.76 0 0,1 47.582,28.269 C 47.346,28.233 47.154,28.077 46.927,28.014 A 0.489,0.489 0 0,0 46.416,28.194 C 46.283,28.368 46.249,28.594 46.25,28.805 V 30.946 C 46.252,31.081 46.242,31.218 46.276,31.35 A 0.39,0.39 0 0,0 46.516,31.608 C 46.778,31.718 47.07,31.697 47.348,31.718 C 47.456,31.72 47.51,31.862 47.448,31.94 C 47.382,32.002 47.198,32 47.198,32 S 45.705,31.992 44.957,32 C 44.861,31.997 44.752,31.997 44.677,31.932 C 44.602,31.857 44.668,31.715 44.77,31.704 C 44.947,31.657 45.16,31.634 45.273,31.474 C 45.41,31.263 45.398,31.001 45.408,30.76 C 45.411,30.121 45.41,29.482 45.408,28.842 C 45.408,28.604 45.348,28.332 45.128,28.193 C 45.051,28.129 44.904,28.079 44.932,27.957 C 45.058,27.822 45.251,27.773 45.389,27.651 C 45.629,27.471 45.777,27.202 46.015,27.024 Z M 23.535,27.34 C 24.043,26.998 24.712,26.92 25.301,27.08 A 1.8,1.8 0 0,1 26.437,28.054 C 26.551,28.3 26.634,28.575 26.593,28.847 C 26.581,28.963 26.449,29.003 26.353,29 H 23.337 A 4.08,4.08 0 0,0 23.372,30.071 C 23.438,30.451 23.604,30.835 23.919,31.081 C 24.244,31.336 24.672,31.417 25.079,31.42 C 25.37,31.42 25.68,31.386 25.925,31.219 C 26.042,31.141 26.122,31.021 26.24,30.945 C 26.333,30.902 26.443,31.01 26.372,31.094 C 26.126,31.524 25.667,31.81 25.184,31.929 C 24.673,32.048 24.114,32.024 23.633,31.807 C 23.117,31.579 22.757,31.099 22.6,30.577 C 22.39,29.878 22.396,29.107 22.678,28.427 C 22.855,27.999 23.139,27.602 23.535,27.34 Z M 23.976,27.624 C 23.7,27.86 23.47,28.184 23.447,28.552 C 23.608,28.619 23.787,28.606 23.957,28.613 C 24.353,28.616 24.75,28.63 25.145,28.592 C 25.322,28.567 25.512,28.542 25.653,28.426 C 25.789,28.308 25.799,28.112 25.783,27.946 C 25.75,27.656 25.503,27.43 25.228,27.346 C 24.798,27.209 24.312,27.339 23.976,27.624 Z M 34.891,27.027 C 34.942,26.983 35.013,26.987 35,27.077 C 35.004,27.291 34.999,27.501 35,27.714 V 31.244 C 35.002,31.36 35.006,31.5 35.115,31.572 C 35.304,31.687 35.536,31.699 35.735,31.792 C 35.827,31.862 35.738,32 35.641,32 H 33.344 C 33.275,32 33.184,31.985 33.164,31.908 C 33.138,31.83 33.208,31.763 33.28,31.742 C 33.486,31.674 33.668,31.664 33.842,31.52 C 33.987,31.396 34,31.194 34.002,31.017 V 28.314 C 34.004,28.221 33.986,28.114 33.904,28.056 C 33.779,27.968 33.616,27.971 33.479,27.911 C 33.405,27.883 33.384,27.767 33.458,27.727 C 33.624,27.641 33.818,27.622 33.982,27.527 C 34.244,27.379 34.642,27.195 34.892,27.027 Z M 41.694,27.023 A 2.42,2.42 0 0,1 43.194,27.29 A 2.54,2.54 0 0,1 44.459,29.15 A 2.855,2.855 0 0,1 44.105,30.918 A 2.17,2.17 0 0,1 42.645,31.94 C 42.05,32.053 41.407,32.015 40.855,31.756 A 2.061,2.061 0 0,1 39.811,30.589 A 3.113,3.113 0 0,1 39.761,28.627 C 39.921,28.102 40.259,27.619 40.744,27.334 A 2.41,2.41 0 0,1 41.694,27.023 Z M 41.738,27.333 C 41.222,27.467 40.892,27.94 40.738,28.413 C 40.516,29.118 40.488,29.903 40.77,30.597 C 40.923,30.977 41.158,31.347 41.522,31.565 C 41.899,31.793 42.408,31.737 42.758,31.484 C 43.108,31.234 43.308,30.834 43.418,30.434 C 43.58,29.814 43.598,29.144 43.383,28.534 C 43.236,28.112 42.997,27.694 42.605,27.447 A 1.098,1.098 0 0,0 41.738,27.333 Z M 49.998,27.01 C 50.272,26.967 50.55,26.986 50.826,26.994 C 51.05,27.01 51.286,27.022 51.486,27.133 C 51.606,27.2 51.663,27.338 51.671,27.469 C 51.684,27.686 51.682,27.905 51.668,28.123 C 51.658,28.176 51.658,28.249 51.6,28.276 C 51.492,28.297 51.409,28.207 51.362,28.124 C 51.238,27.91 51.148,27.664 50.944,27.506 C 50.682,27.304 50.307,27.274 49.998,27.38 A 0.692,0.692 0 0,0 49.542,28.041 C 49.534,28.301 49.729,28.508 49.924,28.659 C 50.397,29.017 50.952,29.254 51.42,29.619 C 51.683,29.823 51.928,30.088 51.986,30.422 A 1.329,1.329 0 0,1 51.306,31.769 C 50.87,32.008 50.351,32.021 49.865,31.983 C 49.571,31.956 49.269,31.926 48.998,31.805 C 48.885,31.751 48.755,31.662 48.753,31.525 C 48.749,31.273 48.749,31.02 48.755,30.768 C 48.762,30.687 48.764,30.569 48.859,30.539 C 48.959,30.505 49.003,30.624 49.035,30.694 C 49.152,31.014 49.351,31.317 49.645,31.506 C 49.981,31.722 50.435,31.699 50.778,31.514 A 0.736,0.736 0 0,0 51.16,30.841 C 51.163,30.579 50.992,30.351 50.787,30.201 C 50.259,29.807 49.581,29.626 49.124,29.139 C 48.701,28.694 48.753,27.962 49.113,27.498 C 49.324,27.225 49.657,27.063 49.998,27.011 Z M 10.597,27.242 C 10.507,27.148 10.597,26.998 10.713,27.007 C 11.178,26.985 11.643,27.047 12.108,27.017 C 12.329,27.02 12.556,26.972 12.775,27.026 C 12.863,27.041 12.91,27.174 12.829,27.231 C 12.681,27.324 12.466,27.304 12.364,27.47 C 12.295,27.612 12.426,27.74 12.485,27.857 C 12.695,28.185 12.923,28.503 13.183,28.79 C 13.236,28.836 13.291,28.92 13.37,28.893 C 13.493,28.839 13.56,28.707 13.627,28.594 C 13.779,28.31 13.942,28.032 14.089,27.744 C 14.129,27.639 14.199,27.498 14.124,27.395 C 13.984,27.295 13.798,27.325 13.654,27.238 C 13.582,27.177 13.607,27.028 13.704,27.016 C 13.98,26.977 14.26,27.021 14.536,27.022 C 14.897,27.041 15.258,26.982 15.618,27.008 C 15.7,27.018 15.825,27.047 15.823,27.158 C 15.832,27.276 15.691,27.276 15.615,27.296 C 15.243,27.369 14.849,27.507 14.621,27.847 C 14.313,28.257 14.006,28.665 13.696,29.073 C 13.656,29.133 13.605,29.193 13.601,29.27 C 13.633,29.388 13.707,29.488 13.771,29.59 C 14.088,30.064 14.451,30.501 14.788,30.959 C 14.937,31.166 15.084,31.384 15.295,31.528 C 15.445,31.639 15.624,31.693 15.78,31.793 C 15.838,31.823 15.814,32 15.814,32 H 13.644 S 13.491,31.865 13.552,31.802 C 13.687,31.667 13.901,31.644 14.014,31.482 C 14.062,31.416 14.004,31.346 13.971,31.291 C 13.705,30.918 13.455,30.532 13.201,30.151 C 13.166,30.101 13.13,30.051 13.073,30.031 C 12.958,30.06 12.88,30.161 12.804,30.249 C 12.604,30.497 12.435,30.774 12.31,31.072 C 12.253,31.203 12.225,31.368 12.314,31.492 C 12.42,31.671 12.638,31.689 12.787,31.808 C 12.859,31.866 12.736,31.998 12.736,31.998 H 10.986 S 10.699,32.01 10.594,31.911 C 10.556,31.801 10.668,31.732 10.751,31.701 C 11.024,31.593 11.319,31.489 11.518,31.25 C 11.885,30.822 12.238,30.383 12.584,29.935 C 12.645,29.85 12.714,29.768 12.759,29.672 C 12.756,29.579 12.693,29.507 12.643,29.436 L 11.23,27.63 C 11.143,27.52 11.059,27.391 10.922,27.348 C 10.815,27.307 10.693,27.308 10.597,27.242 Z" fill="rgb(254, 254, 253)"/>
<defs>
<linearGradient id="a" x1="10.418" x2="68.147" y1="9.712" y2="76.017" gradientUnits="userSpaceOnUse">
<stop stop-color="rgb(25, 29, 31)" offset="0"/>
<stop stop-color="rgb(5, 5, 8)" offset="1"/>
</linearGradient>
</defs>
</svg>
