<?xml version="1.0" encoding="UTF-8"?>
<!-- generated by Finnhub -->
<svg viewBox="0 0 55.5 55.5" xmlns="http://www.w3.org/2000/svg">
<path d="M 0,0 H 55.5 V 55.5 H 0 Z" fill="rgb(1, 1, 151)"/>
<path d="M 36.266000000000005,26.755 C 36.276,23.66 33.42,19.19 27.903,19.19 C 22.905,19.19 19.529,23.466 19.529,27.87 C 19.529,33.117 23.165,37 29.395,37 H 41.21 C 38.419,41.34 33.551,44 27.968,44 C 19.14,44 12,36.81 12,28 C 12,19.19 19.14,12 27.967,12 C 36.795,12 44,19.19 44,28 C 44,29.749 43.675,31.445 43.221,33 H 25 V 31.062 L 31.667,30.869 C 34.847,30.739 36.276,29.296 36.276,26.769 Z" fill="rgb(254, 254, 253)"/>
</svg>
