<?xml version="1.0" encoding="UTF-8"?>
<!-- generated by Finnhub -->
<svg viewBox="0 0 55.5 55.5" xmlns="http://www.w3.org/2000/svg">
<path d="M 0,0 H 55.5 V 55.5 H 0 Z" fill="rgb(145, 196, 38)"/>
<path d="M 17.29,29.985 C 16.54,30 15.68,29.82 15,29.47 L 15.15,28.07 C 15.85,28.42 16.64,28.73 17.45,28.73 C 18.13,28.73 18.42,28.46 18.42,27.89 C 18.42,27.11 17.62,26.93 17,26.71 C 15.95,26.33 15,25.71 15,24.54 C 15,23.18 16.19,22.48 17.53,22.48 C 18.29,22.48 19.05,22.65 19.73,22.94 L 19.6,24.29 A 4.94,4.94 0 0,0 17.46,23.74 C 16.71,23.74 16.5,23.84 16.5,24.36 C 16.5,25.06 17.43,25.11 18,25.3 C 19.5,25.77 20,26.58 20,27.9 C 20,29.37 18.75,30 17.3,30 Z" fill="rgb(31, 46, 8)"/>
<path d="M 17.29,29.505 C 16.54,29.52 15.68,29.34 15,29 L 15.15,27.6 C 15.85,27.95 16.64,28.25 17.45,28.25 C 18.13,28.25 18.42,27.98 18.42,27.42 C 18.42,26.64 17.62,26.46 17,26.23 C 15.95,25.85 15,25.23 15,24.07 C 15,22.7 16.19,22 17.53,22 C 18.29,22 19.05,22.18 19.73,22.47 L 19.6,23.82 A 4.94,4.94 0 0,0 17.46,23.26 C 16.71,23.26 16.5,23.37 16.5,23.88 C 16.5,24.58 17.43,24.63 18,24.82 C 19.5,25.29 20,26.1 20,27.42 C 20,28.89 18.75,29.52 17.3,29.52 Z" fill="rgb(249, 249, 252)"/>
<path d="M 27.45,29.985 C 26.66,30 26,29.3 26,28.36 C 26,27.06 27.18,26.76 28.07,26.6 C 28.29,26.57 28.54,26.54 28.7,26.54 C 28.68,25.94 28.4,25.67 27.86,25.67 C 27.48,25.67 27.15,25.8 26.68,26.07 L 26.58,25.01 A 3,3 0 0,1 28.15,24.55 C 29.29,24.55 30.2,25.55 30.2,26.66 V 28.08 C 30.2,28.45 30.13,28.93 30.56,28.93 H 30.7 L 30.6,30 H 30.22 C 29.82,30 28.88,29.8 28.7,29.39 C 28.4,29.81 27.94,30 27.46,30 Z M 27.91,29 C 28.1,29 28.48,28.88 28.7,28.62 V 27.42 C 28.5,27.43 28.24,27.47 28.04,27.54 C 27.64,27.68 27.46,27.95 27.46,28.36 C 27.46,28.79 27.51,29 27.91,29 Z" fill="rgb(31, 46, 8)"/>
<path d="M 27.45,29.435 C 26.66,29.45 26,28.75 26,27.82 C 26,26.52 27.18,26.22 28.07,26.06 C 28.29,26.02 28.54,26 28.7,25.99 C 28.68,25.39 28.4,25.13 27.86,25.13 C 27.48,25.13 27.15,25.25 26.68,25.53 L 26.58,24.46 A 3,3 0 0,1 28.15,24 C 29.29,24 30.2,25 30.2,26.12 V 27.54 C 30.2,27.9 30.13,28.38 30.56,28.38 H 30.7 L 30.6,29.45 H 30.22 C 29.82,29.45 28.88,29.25 28.7,28.85 C 28.4,29.27 27.95,29.45 27.46,29.45 Z M 27.91,28.45 C 28.1,28.45 28.48,28.33 28.7,28.08 V 26.88 C 28.5,26.88 28.24,26.93 28.04,27 C 27.64,27.14 27.46,27.4 27.46,27.82 C 27.46,28.24 27.51,28.45 27.91,28.45 Z" fill="rgb(249, 249, 252)"/>
<path d="M 20.99,31.985 V 24.53 H 22.5 V 25.6 L 21.72,25.31 C 22.09,24.84 22.56,24.53 23.15,24.53 C 24.44,24.53 25,25.91 25,27.11 C 25,28.31 24.29,29.87 23,29.87 C 22.43,29.87 22,29.62 21.6,29.18 L 22.5,28.8 V 32 H 21 Z M 23,28.8 C 23.64,28.8 23.64,27.76 23.64,27.11 C 23.64,26.47 23.64,25.6 23,25.6 C 22.5,25.6 22.5,26.4 22.5,27.11 C 22.5,27.81 22.5,28.8 23,28.8 Z" fill="rgb(31, 46, 8)"/>
<path d="M 20.99,31.455 V 24 H 22.5 V 25.07 L 21.72,24.77 C 22.09,24.31 22.56,24 23.15,24 C 24.44,24 25,25.38 25,26.58 C 25,27.78 24.29,29.33 23,29.33 C 22.43,29.33 22,29.09 21.6,28.65 L 22.5,28.27 V 31.47 H 21 Z M 23,28.27 C 23.64,28.27 23.64,27.22 23.64,26.57 C 23.64,25.93 23.64,25.07 23,25.07 C 22.5,25.07 22.5,25.87 22.5,26.57 C 22.5,27.28 22.5,28.27 23,28.27 Z" fill="rgb(249, 249, 252)"/>
<path d="M 32.99,29.985 C 31.5,30 31,28.57 31,27.27 C 31,25.94 31.63,24.55 33,24.55 C 33.6,24.55 34.25,24.69 34.49,24.88 L 34.41,25.93 C 34.18,25.76 33.81,25.63 33.5,25.63 C 32.68,25.63 32.5,26.52 32.5,27.28 C 32.5,28.02 32.71,28.91 33.5,28.91 C 33.8,28.91 34.15,28.8 34.42,28.58 L 34.5,29.68 C 34.24,29.88 33.4,30 33,30 Z" fill="rgb(31, 46, 8)"/>
<path d="M 32.99,29.435 C 31.5,29.45 31,28.03 31,26.73 C 31,25.4 31.63,24 33,24 C 33.6,24 34.25,24.15 34.49,24.34 L 34.41,25.38 C 34.18,25.22 33.81,25.09 33.5,25.09 C 32.68,25.09 32.5,25.97 32.5,26.74 C 32.5,27.48 32.71,28.36 33.5,28.36 C 33.8,28.36 34.15,28.26 34.42,28.04 L 34.5,29.14 C 34.24,29.33 33.4,29.45 33,29.45 Z" fill="rgb(249, 249, 252)"/>
<path d="M 37.35,29.985 C 35.9,30 35,28.76 35,27.23 C 35,25.86 35.77,24.55 37.12,24.55 C 38.32,24.55 39,25.6 39,26.83 V 27.82 H 36.5 C 36.5,28.36 37,28.91 37.45,28.92 C 37.95,28.92 38.39,28.75 38.75,28.49 L 38.81,29.6 C 38.48,29.81 37.98,30 37.36,30 Z M 36.5,26.73 H 37.5 C 37.5,26.21 37.45,25.63 37,25.63 S 36.5,26.18 36.5,26.73 Z" fill="rgb(31, 46, 8)"/>
<path d="M 37.35,29.435 C 35.9,29.45 35,28.22 35,26.69 C 35,25.32 35.77,24 37.12,24 C 38.32,24 39,25.06 39,26.29 V 27.27 H 36.5 C 36.5,27.82 37,28.37 37.45,28.38 C 37.95,28.38 38.39,28.21 38.75,27.95 L 38.81,29.05 C 38.48,29.26 37.98,29.45 37.36,29.45 Z M 36.5,26.18 H 37.5 C 37.5,25.66 37.45,25.09 37,25.09 S 36.5,25.64 36.5,26.19 Z" fill="rgb(249, 249, 252)"/>
<path d="M 13.290000000000001,38.985 C 12.53,39 11.7,38.86 11,38.57 L 11.14,37.53 A 5.9,5.9 0 0,0 13.48,38.09 C 14.28,38.09 15,37.79 15,37.21 C 15,36.41 13.72,36.24 13.07,36.05 C 12.07,35.76 11.02,35.32 11.02,34.2 C 11.02,32.94 12.37,32.47 13.53,32.47 C 14.28,32.47 15.05,32.61 15.73,32.88 L 15.63,33.91 A 4.74,4.74 0 0,0 13.48,33.38 C 12.92,33.38 12,33.56 12,34.2 C 12,34.91 13.1,35.06 13.68,35.22 C 14.76,35.52 16,36 16,37.22 C 16,38.59 14.53,39 13.3,39 Z" fill="rgb(31, 46, 8)"/>
<path d="M 13.290000000000001,38.515 C 12.53,38.53 11.7,38.4 11,38.11 L 11.14,37.07 A 5.9,5.9 0 0,0 13.48,37.62 C 14.28,37.62 15,37.32 15,36.75 C 15,35.95 13.72,35.77 13.07,35.59 C 12.07,35.29 11.02,34.85 11.02,33.74 C 11.02,32.47 12.37,32 13.53,32 C 14.28,32 15.05,32.15 15.73,32.42 L 15.63,33.44 A 4.74,4.74 0 0,0 13.48,32.91 C 12.92,32.91 12,33.09 12,33.74 C 12,34.44 13.1,34.59 13.68,34.76 C 14.76,35.05 16,35.53 16,36.75 C 16,38.12 14.53,38.53 13.3,38.53 Z" fill="rgb(249, 249, 252)"/>
<path d="M 19.049999999999997,38.985 C 18.36,39 18,38.6 18,37.92 V 35.32 H 17 L 17.08,34.38 H 17.98 L 18,33.56 L 19,33.46 V 34.38 H 19.99 L 20,35.31 H 19 V 37.46 C 19,38.13 18.99,38.26 19.7,38.26 H 20 L 19.9,39 H 19.07 Z" fill="rgb(31, 46, 8)"/>
<path d="M 19.049999999999997,38.525 C 18.36,38.54 18,38.14 18,37.46 V 34.85 H 17 L 17.1,34 H 18 V 33.1 L 19,33 V 34 H 20 V 34.85 H 19 V 36.99 C 19,37.67 18.99,37.79 19.7,37.79 H 20 L 19.9,38.54 H 19.07 Z" fill="rgb(249, 249, 252)"/>
<path d="M 22.99,38.985 C 21.85,39 21,38.04 21,36.73 C 21,35.43 21.85,34.46 23,34.46 S 25,35.43 25,36.73 C 25,38.04 24.15,39 23,39 Z M 23,38.1 C 23.75,38.1 24,37.54 24,36.73 C 24,35.93 23.76,35.37 23,35.37 S 22,35.93 22,36.73 S 22.25,38.09 23,38.09 Z" fill="rgb(31, 46, 8)"/>
<path d="M 22.959999999999997,38.525 C 21.82,38.54 20.97,37.58 20.97,36.28 C 20.97,34.97 21.81,34 22.97,34 C 24.12,34 24.97,34.97 24.97,36.28 C 24.97,37.58 24.11,38.54 22.97,38.54 Z M 22.97,37.64 C 23.72,37.64 24,37.08 24,36.28 S 23.76,35 23,35 S 22,35.48 22,36.28 S 22.21,37.63 22.97,37.63 Z" fill="rgb(249, 249, 252)"/>
<path d="M 25.99,38.985 V 34.48 H 27 V 35.17 C 27.23,34.95 27.62,34.77 27.88,34.65 A 1.93,1.93 0 0,1 29,34.48 L 28.9,35.46 A 2.14,2.14 0 0,0 27.73,35.56 C 27.5,35.66 27.1,35.77 27,35.9 V 39 H 26 Z" fill="rgb(31, 46, 8)"/>
<path d="M 25.99,38.535 V 34 H 27 V 34.71 C 27,34.5 27.62,34.32 27.88,34.19 A 1.93,1.93 0 0,1 29,34.02 L 28.9,35 A 2.14,2.14 0 0,0 27.73,35.11 C 27.5,35.21 27.1,35.32 27,35.44 V 38.54 H 26 Z" fill="rgb(249, 249, 252)"/>
<path d="M 31.759999999999998,38.995 C 31.02,39.01 30,38.55 30,37.73 C 30,36.67 31.28,36.33 32.12,36.23 C 32.37,36.19 32.92,36.11 33.15,36.11 C 33.15,35.47 32.45,35.29 31.85,35.29 C 31.46,35.29 31.07,35.37 30.55,35.66 L 30.43,34.91 A 3.59,3.59 0 0,1 32.13,34.48 C 33.35,34.48 34,35.1 34,36.28 V 37.3 C 34,37.7 34.05,38.3 34.36,38.27 H 34.48 L 34.35,39.01 H 34.13 C 33.63,39.01 33.51,38.83 33.27,38.37 C 32.92,38.72 32.39,39.01 31.77,39.01 Z M 31.77,38.29 C 32.17,38.29 32.89,38.05 33.15,37.76 V 36.74 C 32.79,36.75 32.15,36.85 31.89,36.92 C 31.37,37.04 31.07,37.29 31.07,37.69 C 31.07,38.11 31.33,38.29 31.77,38.29 Z" fill="rgb(31, 46, 8)"/>
<path d="M 31.759999999999998,38.515 C 31.02,38.53 30,38.06 30,37.25 C 30,36.19 31.28,35.85 32.12,35.75 C 32.37,35.71 32.92,35.63 33.15,35.63 C 33.15,34.99 32.45,34.81 31.85,34.81 C 31.46,34.81 31.07,34.89 30.55,35.17 L 30.43,34.42 A 3.59,3.59 0 0,1 32.13,34 C 33.35,34 34,34.62 34,35.8 V 36.81 C 34,37.23 34.05,37.81 34.36,37.79 H 34.48 L 34.35,38.53 H 34.13 C 33.63,38.53 33.51,38.35 33.27,37.89 C 32.92,38.24 32.39,38.53 31.77,38.53 Z M 31.77,37.81 C 32.17,37.81 32.89,37.57 33.15,37.28 V 36.25 C 32.79,36.27 32.15,36.37 31.89,36.44 C 31.37,36.56 31.07,36.81 31.07,37.2 C 31.07,37.62 31.33,37.8 31.77,37.8 Z" fill="rgb(249, 249, 252)"/>
<path d="M 37.440000000000005,40.985 C 36.97,41 36.55,40.95 36.18,40.85 A 2.1,2.1 0 0,1 35.31,40.42 A 0.88,0.88 0 0,1 35,39.75 C 35,39.52 35.08,39.32 35.23,39.15 C 35.39,38.99 35.6,38.85 35.88,38.75 A 1.1,1.1 0 0,1 35.52,38.49 A 0.49,0.49 0 0,1 35.39,38.17 C 35.39,38.04 35.44,37.92 35.53,37.82 C 35.63,37.72 35.78,37.62 35.97,37.56 A 1.57,1.57 0 0,1 35.35,35.3 C 35.52,35.04 35.76,34.84 36.08,34.7 C 36.4,34.54 36.78,34.47 37.24,34.47 A 2.6,2.6 0 0,1 38.47,34.77 A 3.27,3.27 0 0,1 39.69,34.54 H 39.89 L 39.78,35.12 H 39.44 A 3.83,3.83 0 0,0 38.97,35.16 A 1.45,1.45 0 0,1 39.37,36.15 C 39.37,36.47 39.28,36.75 39.12,37.01 C 38.95,37.27 38.71,37.47 38.39,37.63 A 3.15,3.15 0 0,1 36.6,37.79 C 36.47,37.82 36.41,37.89 36.41,37.97 C 36.41,38.04 36.46,38.1 36.56,38.14 A 2,2 0 0,0 37.05,38.25 L 38.23,38.4 C 38.79,38.46 39.23,38.6 39.53,38.8 C 39.84,38.99 40,39.27 40,39.63 A 1,1 0 0,1 39.69,40.37 C 39.49,40.57 39.19,40.73 38.81,40.84 C 38.43,40.94 37.97,41 37.45,41 Z M 37.52,40.26 A 3,3 0 0,0 38.59,40.11 C 38.84,40.01 38.96,39.87 38.96,39.68 C 38.96,39.51 38.88,39.39 38.72,39.31 C 38.55,39.22 38.32,39.16 37.99,39.11 L 36.65,38.94 C 36.47,39 36.31,39.09 36.18,39.2 A 0.5,0.5 0 0,0 35.98,39.6 C 35.98,39.82 36.12,39.99 36.39,40.1 C 36.67,40.2 37.05,40.26 37.52,40.26 Z M 37.24,37.16 C 37.6,37.16 37.88,37.06 38.06,36.88 A 0.98,0.98 0 0,0 38.35,36.15 C 38.35,35.85 38.25,35.62 38.06,35.44 C 37.88,35.25 37.6,35.16 37.24,35.16 C 36.87,35.16 36.59,35.26 36.41,35.44 A 0.95,0.95 0 0,0 36.13,36.15 C 36.13,36.45 36.22,36.69 36.41,36.88 C 36.59,37.07 36.87,37.16 37.24,37.16 Z" fill="rgb(31, 46, 8)"/>
<path d="M 37.440000000000005,40.515 C 36.97,40.53 36.55,40.48 36.18,40.39 A 2.1,2.1 0 0,1 35.31,39.96 A 0.88,0.88 0 0,1 35,39.28 C 35,39.05 35.08,38.86 35.23,38.69 C 35.39,38.53 35.6,38.39 35.88,38.27 A 1.1,1.1 0 0,1 35.52,38.03 A 0.49,0.49 0 0,1 35.39,37.7 C 35.39,37.57 35.44,37.45 35.53,37.35 C 35.63,37.25 35.78,37.16 35.97,37.09 A 1.57,1.57 0 0,1 35.35,34.83 C 35.52,34.58 35.76,34.37 36.08,34.23 C 36.4,34.08 36.78,34 37.24,34 A 2.6,2.6 0 0,1 38.47,34.3 A 3.27,3.27 0 0,1 39.69,34.07 H 39.89 L 39.78,34.66 H 39.44 A 3.79,3.79 0 0,0 38.97,34.7 A 1.45,1.45 0 0,1 39.37,35.68 C 39.37,36 39.28,36.28 39.12,36.54 C 38.95,36.8 38.71,37.01 38.39,37.16 A 3.15,3.15 0 0,1 36.6,37.32 C 36.47,37.35 36.41,37.42 36.41,37.5 C 36.41,37.57 36.46,37.63 36.56,37.68 A 2,2 0 0,0 37.05,37.78 L 38.23,37.93 C 38.79,38 39.23,38.13 39.53,38.33 C 39.84,38.53 40,38.8 40,39.17 A 1,1 0 0,1 39.69,39.91 C 39.49,40.11 39.19,40.27 38.81,40.37 C 38.43,40.48 37.97,40.53 37.45,40.53 Z M 37.52,39.79 A 3,3 0 0,0 38.59,39.64 C 38.84,39.54 38.96,39.4 38.96,39.21 C 38.96,39.05 38.88,38.93 38.72,38.84 C 38.55,38.76 38.32,38.69 37.99,38.64 L 36.65,38.47 C 36.47,38.54 36.31,38.62 36.18,38.73 A 0.5,0.5 0 0,0 35.98,39.13 C 35.98,39.35 36.12,39.53 36.39,39.63 C 36.67,39.73 37.05,39.79 37.52,39.79 Z M 37.24,36.69 C 37.6,36.69 37.88,36.59 38.06,36.41 A 0.98,0.98 0 0,0 38.35,35.68 C 38.35,35.38 38.25,35.15 38.06,34.97 C 37.88,34.78 37.6,34.69 37.24,34.69 C 36.87,34.69 36.59,34.79 36.41,34.97 A 0.95,0.95 0 0,0 36.13,35.68 C 36.13,35.98 36.22,36.23 36.41,36.41 C 36.59,36.6 36.87,36.69 37.24,36.69 Z" fill="rgb(249, 249, 252)"/>
<path d="M 43.370000000000005,38.985 C 42.18,39 41.05,38.2 41.05,36.7 C 41.05,35.33 42.02,34.45 43.15,34.45 C 44.13,34.45 45,35.12 45,36.33 A 2.28,2.28 0 0,1 44.95,36.83 H 42 C 42.1,37.75 42.7,38.21 43.48,38.21 C 43.92,38.21 44.36,38.11 44.74,37.91 L 44.82,38.66 C 44.49,38.82 44.01,39 43.39,39 Z M 42.04,36.27 H 44.07 C 44.07,35.65 43.65,35.25 43.14,35.25 C 42.51,35.25 42.17,35.69 42.04,36.27 Z" fill="rgb(31, 46, 8)"/>
<path d="M 43.32,38.535 C 42.13,38.55 41,37.74 41,36.24 C 41,34.88 41.97,34 43.1,34 C 44.08,34 44.95,34.67 44.95,35.87 A 2.28,2.28 0 0,1 44.9,36.37 H 41.94 C 42.04,37.3 42.64,37.75 43.42,37.75 C 43.86,37.75 44.3,37.65 44.68,37.45 L 44.76,38.21 C 44.43,38.37 43.95,38.55 43.33,38.55 Z M 41.99,35.82 H 44.02 C 44.02,35.2 43.6,34.79 43.09,34.79 C 42.46,34.79 42.12,35.24 41.99,35.82 Z" fill="rgb(249, 249, 252)"/>
<path d="M 16.99,20.985 V 13.53 H 21 V 15 H 18.5 V 16.47 H 20 V 18 H 18.5 V 19.4 H 21 V 21 H 17 Z" fill="rgb(31, 46, 8)"/>
<path d="M 16.99,20.455 V 13 H 21 V 14.5 H 18.5 V 16 H 20 V 17.53 H 18.5 V 19 H 21 V 20.47 H 17 Z" fill="rgb(249, 249, 252)"/>
<path d="M 21.99,20.985 L 23.26,18.27 L 22,15.55 H 23.5 L 24,16.64 L 24.5,15.54 H 26 L 24.74,18.17 L 26,21 H 24.5 L 24,19.9 L 23.5,21 H 22 Z" fill="rgb(31, 46, 8)"/>
<path d="M 21.99,20.435 L 23.26,17.73 L 22,15 H 23.5 L 24,16.1 L 24.5,15 H 26 L 24.74,17.63 L 26,20.45 H 24.5 L 24,19.36 L 23.5,20.46 H 22 Z" fill="rgb(249, 249, 252)"/>
<path d="M 29.15,20.985 C 28.53,21 28,20.48 28,19.66 V 17 H 27.06 L 27.43,15.62 H 27.86 V 14.67 L 29.16,14.54 V 15.62 H 30 V 17 H 29.16 V 19.14 C 29.16,19.81 29.19,19.96 29.71,19.96 H 30 L 29.9,21 H 29.16 Z" fill="rgb(31, 46, 8)"/>
<path d="M 29.15,20.445 C 28.53,20.46 28,19.94 28,19.12 V 16.7 H 27 L 27.43,15 H 27.86 V 14.14 L 29.16,14.01 V 15.01 H 30 V 16.71 H 29.4 V 18.61 C 29.4,19.28 29.4,19.43 29.71,19.43 H 30 L 29.9,20.47 H 29.16 Z" fill="rgb(249, 249, 252)"/>
<path d="M 30.99,20.985 V 15.55 H 32.5 V 16.09 C 32.88,15.69 33.23,15.55 33.76,15.55 C 33.84,15.55 33.93,15.55 34,15.57 L 33.9,16.87 A 0.98,0.98 0 0,0 32.5,17.35 V 21 H 31 Z" fill="rgb(31, 46, 8)"/>
<path d="M 30.99,20.435 V 15 H 32.5 V 15.55 C 32.88,15.15 33.23,15 33.76,15 C 33.84,15 33.93,15 34,15.02 L 33.9,16.32 A 0.98,0.98 0 0,0 32.5,16.8 V 20.45 H 31 Z" fill="rgb(249, 249, 252)"/>
<path d="M 36.45,20.985 C 35.66,21 35,20.31 35,19.39 C 35,18.11 36.18,17.81 37.07,17.65 C 37.29,17.61 37.54,17.59 37.7,17.58 C 37.68,16.98 37.4,16.73 36.86,16.73 C 36.48,16.73 36.15,16.85 35.68,17.13 L 35.58,16.08 C 36.11,15.77 36.62,15.62 37.15,15.62 A 2.1,2.1 0 0,1 39.2,17.71 V 19.11 C 39.2,19.47 39.13,19.94 39.56,19.94 H 39.7 L 39.6,21 H 39.22 C 38.82,21 37.88,20.8 37.7,20.4 C 37.4,20.81 36.94,21 36.46,21 Z M 36.91,20.01 C 37.1,20.01 37.48,19.89 37.7,19.64 V 18.45 C 37.5,18.47 37.24,18.51 37.04,18.57 C 36.64,18.71 36.46,18.97 36.46,19.39 C 36.46,19.8 36.51,20.01 36.91,20.01 Z" fill="rgb(31, 46, 8)"/>
<path d="M 36.45,20.365 C 35.66,20.38 35,19.69 35,18.77 C 35,17.49 36.18,17.19 37.07,17.03 C 37.29,16.99 37.54,16.97 37.7,16.96 C 37.68,16.36 37.4,16.11 36.86,16.11 C 36.48,16.11 36.15,16.23 35.68,16.51 L 35.58,15.46 C 36.11,15.16 36.62,15 37.15,15 A 2.1,2.1 0 0,1 39.2,17.09 V 18.49 C 39.2,18.85 39.13,19.32 39.56,19.32 H 39.7 L 39.6,20.38 H 39.22 C 38.82,20.38 37.88,20.18 37.7,19.78 C 37.4,20.2 36.94,20.38 36.46,20.38 Z M 36.91,19.39 C 37.1,19.39 37.48,19.28 37.7,19.02 V 17.84 C 37.5,17.84 37.24,17.89 37.04,17.96 C 36.64,18.09 36.46,18.36 36.46,18.76 C 36.46,19.19 36.51,19.39 36.91,19.39 Z" fill="rgb(249, 249, 252)"/>
</svg>
