<?xml version="1.0" encoding="UTF-8"?>
<!-- generated by Finnhub -->
<svg viewBox="0 0 55.5 55.5" xmlns="http://www.w3.org/2000/svg">
<path d="M 0,0 H 55.5 V 55.5 H 0 Z" fill="rgb(1, 37, 94)"/>
<path d="M 3.99,27.974999999999998 C 4,32.962 14.753,37 28,37 C 41.264,37 52,32.961 52,27.99 C 52.017,23.02 41.28,19 28.017,19 C 14.753,19 4,23.02 4,27.99 Z M 4.848,27.99 C 4.848,23.44 15.211,19.767 28.017,19.767 C 40.806,19.767 51.186,23.441 51.186,27.991 C 51.186,32.541 40.823,36.214 28.017,36.214 C 15.228,36.214 4.848,32.541 4.848,27.991 Z" fill="rgb(254, 254, 253)"/>
<path d="M 20.714,21.271 C 21.08,21.248 21.436,21.23 21.792,21.23 C 23.367,21.23 24.905,21.518 26.465,21.811 C 27.257,21.96 28.055,22.11 28.865,22.223 C 30.968,22.504 32.987,22.523 35.09,21.979 C 35.344,21.923 35.514,22.092 35.497,22.373 C 35.48,22.767 35.191,23.16 34.496,23.573 C 33.716,24.06 32.885,24.21 32.02,24.21 C 30.585,24.223 29.223,23.802 27.855,23.379 C 27.235,23.186 26.612,22.994 25.982,22.842 V 22.898 C 25.985,22.991 25.987,23.076 25.931,23.123 C 24.811,24.042 23.811,24.96 23.132,26.253 C 23.115,26.291 23.132,26.31 23.166,26.31 C 23.394,26.296 23.613,26.287 23.826,26.278 C 24.166,26.264 24.494,26.251 24.828,26.216 C 24.913,26.216 24.913,26.179 24.913,26.104 C 24.863,25.654 24.981,25.148 25.337,24.791 C 25.693,24.416 26.151,24.379 26.457,24.641 C 26.796,24.923 26.762,25.466 26.575,25.86 A 1.416,1.416 0 0,1 25.761,26.591 S 25.693,26.61 25.711,26.666 C 25.72,26.719 25.852,26.819 25.973,26.909 C 26.067,26.98 26.153,27.046 26.168,27.079 C 26.202,27.154 26.185,27.247 26.118,27.322 C 26.066,27.378 25.998,27.435 25.914,27.435 C 25.846,27.435 25.794,27.416 25.71,27.36 A 2.13,2.13 0 0,1 25.134,26.854 C 25.083,26.779 25.066,26.779 24.93,26.779 C 24.336,26.816 23.42,26.909 22.793,27.004 C 22.646,27.022 22.625,27.057 22.593,27.11 L 22.589,27.116 C 21.606,28.935 20.537,30.884 19.367,32.196 C 18.128,33.603 17.077,33.959 15.974,33.978 C 14.584,33.978 13.362,33.04 13.227,31.39 C 13.159,30.49 13.397,29.684 13.854,29.01 C 14.278,28.41 14.974,27.903 15.567,27.791 C 15.754,27.753 16.025,27.772 16.127,27.922 C 16.297,28.128 16.246,28.372 16.077,28.466 C 15.618,28.728 15.075,29.16 14.804,29.759 C 14.584,30.247 14.533,30.828 14.872,31.39 C 15.432,32.328 16.992,32.346 18.434,30.866 A 12.05,12.05 0 0,0 19.434,29.741 C 20.079,28.935 20.283,28.635 21.131,27.341 V 27.304 C 21.114,27.284 21.097,27.284 21.08,27.284 C 20.503,27.304 20.011,27.491 19.536,27.884 C 19.401,27.997 19.197,27.979 19.112,27.828 C 19.028,27.66 19.095,27.435 19.248,27.322 C 19.936,26.792 20.665,26.658 21.421,26.517 L 21.724,26.46 S 21.775,26.46 21.826,26.385 C 21.977,26.17 22.113,25.965 22.248,25.763 C 22.431,25.487 22.612,25.214 22.827,24.923 C 23.197,24.419 23.687,23.953 24.059,23.598 L 24.065,23.592 C 24.51,23.179 24.822,22.994 25.113,22.822 C 25.166,22.792 25.217,22.761 25.269,22.729 C 25.371,22.673 25.269,22.617 25.235,22.617 L 24.835,22.533 C 23.058,22.158 21.219,21.771 19.468,22.485 C 18.162,23.029 17.586,24.173 17.858,24.941 C 18.044,25.485 18.688,25.561 19.298,25.241 A 3.489,3.489 0 0,0 20.588,23.967 C 20.758,23.647 21.148,23.873 20.944,24.417 C 20.384,25.86 19.333,26.985 18.044,27.041 C 16.958,27.079 16.246,26.198 16.246,25.091 C 16.263,22.917 18.434,21.492 20.724,21.286 Z M 25.71,25.091 A 0.928,0.928 0 0,0 25.422,25.897 C 25.439,25.991 25.472,26.01 25.49,25.991 H 25.507 C 25.693,25.954 25.914,25.785 26.032,25.579 C 26.134,25.41 26.202,25.148 26.083,25.035 C 25.999,24.941 25.829,24.979 25.71,25.091 Z" fill="rgb(254, 254, 253)"/>
<path d="M 41.393,25.087 C 41.454,25.008 41.488,25 41.59,25 H 42.879 C 42.947,25 42.981,25.064 42.947,25.12 C 42.887,25.24 42.474,26.014 41.917,26.968 C 40.737,28.984 38.965,32.014 38.804,32.459 C 38.736,32.665 38.736,32.815 38.804,32.928 C 38.991,33.208 39.432,33.04 39.704,32.834 C 40.281,32.394 40.723,31.898 41.154,31.413 C 41.331,31.215 41.506,31.018 41.687,30.828 C 41.721,30.809 41.789,30.791 41.823,30.828 L 41.889,30.888 C 41.979,30.968 42.078,31.058 42.145,31.147 C 42.179,31.203 42.162,31.24 42.145,31.277 C 41.535,32.103 40.873,32.871 40.229,33.415 C 39.245,34.278 38.244,34.484 37.752,33.94 A 1.408,1.408 0 0,1 37.464,33.19 C 37.464,33.059 37.396,33.059 37.346,33.115 C 36.752,33.753 35.734,34.465 34.801,33.959 C 34.021,33.546 33.834,32.515 33.987,31.653 C 34.004,31.634 33.987,31.503 33.885,31.578 C 33.715,31.709 33.512,31.84 33.241,31.953 C 32.919,32.103 32.766,32.14 32.461,32.14 C 32.088,32.122 31.748,31.953 31.511,31.54 C 31.375,31.315 31.324,30.978 31.307,30.734 C 31.307,30.697 31.273,30.659 31.24,30.715 A 417.14,417.14 0 0,0 29.39,33.903 C 29.374,33.959 29.34,33.996 29.272,33.996 H 28.034 C 27.966,33.996 27.932,33.921 27.966,33.846 C 28.049,33.67 28.271,33.284 28.559,32.783 C 29.037,31.953 29.697,30.807 30.205,29.778 C 30.425,29.328 30.375,29.084 30.239,28.991 C 30.069,28.878 29.713,29.066 29.425,29.31 C 28.749,29.882 28.158,30.724 27.787,31.252 C 27.721,31.347 27.661,31.432 27.61,31.502 A 5.53,5.53 0 0,0 27.41,31.81 C 27.253,32.06 27.052,32.38 26.694,32.815 C 25.863,33.809 24.76,34.371 23.709,33.978 C 23.132,33.753 22.708,33.246 22.555,32.609 C 22.521,32.496 22.454,32.459 22.403,32.534 C 22.233,32.778 21.877,33.115 21.589,33.34 L 21.579,33.346 C 21.539,33.368 21.464,33.412 21.402,33.378 C 21.334,33.34 21.131,33.003 21.08,32.908 C 21.046,32.834 21.08,32.759 21.114,32.721 C 21.538,32.328 21.758,32.103 21.944,31.841 C 22.08,31.653 22.182,31.447 22.301,31.109 C 22.555,30.397 23.132,29.066 24.285,28.391 C 24.743,28.128 25.185,27.941 25.676,27.885 C 25.896,27.866 26.066,27.885 26.134,28.072 C 26.142,28.108 26.161,28.163 26.183,28.227 C 26.207,28.297 26.235,28.377 26.253,28.447 C 26.287,28.522 26.27,28.578 26.185,28.616 C 25.507,28.897 24.828,29.347 24.353,30.041 C 23.81,30.847 23.675,31.803 24.031,32.346 C 24.285,32.74 24.709,32.816 25.116,32.666 C 25.727,32.44 26.253,31.822 26.524,31.109 C 26.813,30.341 26.864,29.441 26.643,28.635 C 26.609,28.503 26.643,28.391 26.728,28.315 C 26.88,28.182 27.072,28.077 27.16,28.03 L 27.186,28.016 C 27.321,27.941 27.491,27.997 27.576,28.128 C 27.796,28.503 27.916,29.009 27.932,29.553 C 27.932,29.666 27.982,29.666 28.034,29.609 C 28.152,29.474 28.267,29.335 28.381,29.197 C 28.661,28.859 28.937,28.527 29.238,28.26 C 29.628,27.903 30.12,27.622 30.595,27.641 C 31.189,27.66 31.494,28.11 31.477,28.916 C 31.46,29.009 31.527,29.009 31.579,28.935 C 31.765,28.653 31.884,28.503 32.087,28.315 C 32.495,27.922 32.936,27.753 33.377,27.791 C 33.919,27.847 34.36,28.391 34.275,29.028 C 34.225,29.441 34.021,29.797 33.682,29.984 A 0.741,0.741 0 0,1 32.817,29.872 C 32.63,29.684 32.562,29.403 32.613,29.122 C 32.613,29.047 32.545,29.009 32.495,29.066 C 31.969,29.684 31.918,30.491 32.275,30.846 C 32.665,31.259 33.241,30.978 33.665,30.678 C 34.099,30.358 34.484,29.972 34.863,29.591 C 35.15,29.302 35.434,29.016 35.734,28.766 C 36.192,28.372 36.718,28.035 37.312,27.941 C 37.634,27.904 37.956,27.922 38.278,28.072 C 38.702,28.26 38.974,28.653 39.008,28.991 C 39.025,29.084 39.092,29.103 39.143,29.009 C 39.287,28.749 39.726,28.014 40.181,27.251 A 51.041,51.041 0 0,0 41.403,25.101 Z M 35.429,32.102 C 35.429,32.328 35.514,32.628 35.7,32.74 A 0.59,0.59 0 0,0 36.005,32.834 C 36.362,32.834 36.735,32.553 37.023,32.29 A 3.37,3.37 0 0,0 37.668,31.522 L 37.72,31.44 C 37.898,31.163 38.037,30.945 38.177,30.603 C 38.194,30.547 38.177,30.528 38.16,30.528 C 38.109,30.509 38.04,30.472 38.04,30.416 C 38.024,30.396 38.024,30.359 38.04,30.322 C 38.244,29.853 38.397,29.272 37.94,29.028 C 37.498,28.803 36.82,29.235 36.21,30.059 C 35.717,30.734 35.446,31.428 35.429,32.103 Z" fill="rgb(254, 254, 253)"/>
</svg>
