<?xml version="1.0" encoding="UTF-8"?>
<!-- generated by Finnhub -->
<svg viewBox="0 0 55.5 55.5" xmlns="http://www.w3.org/2000/svg">
<path d="M 0,0 H 55.5 V 55.5 H 0 Z" fill="url(#n)"/>
<path d="M 21.535,25.985 L 20.59,29.947 H 19.54 L 20.183,27.186 H 20.106 L 18.378,29.726 A 0.937,0.937 0 0,1 17.94,29.974 A 0.91,0.91 0 0,1 17.442,29.956 A 0.534,0.534 0 0,1 17.337,29.655 C 17.17,28.931 17.012,28.206 16.849,27.482 C 16.824,27.381 16.788,27.279 16.727,27.088 L 16.056,29.951 H 15.446 L 16.259,26 H 17.642 L 18.284,28.918 L 20.244,26 H 21.545 Z" fill="url(#h)"/>
<path d="M 38.589,25.985 A 0.63,0.63 0 0,1 38.847,26.136 C 38.92,26.2 38.977,26.279 39.017,26.369 A 0.69,0.69 0 0,1 39.005,26.94 C 38.903,27.292 38.777,27.635 38.627,28.092 C 38.96,28.876 38.293,29.964 37.326,29.968 H 34.443 C 34.419,29.968 34.394,29.968 34.443,29.968 L 35.187,26 H 38.6 Z M 37.537,28.215 H 36.061 A 0.297,0.297 0 0,0 35.936,28.282 A 0.314,0.314 0 0,0 35.854,28.402 C 35.764,28.71 35.704,29.028 35.622,29.397 H 36.382 C 37.432,29.397 37.432,29.397 37.602,28.329 C 37.586,28.325 37.574,28.312 37.537,28.215 Z M 36.248,26.61 L 36.013,27.673 H 37.549 A 0.308,0.308 0 0,0 37.685,27.609 A 0.324,0.324 0 0,0 37.777,27.486 C 37.862,27.211 37.911,26.923 37.98,26.614 L 36.248,26.61 Z" fill="url(#g)"/>
<path d="M 8.296,25.985 C 8.818,26.254 8.855,26.335 8.713,26.953 C 8.563,27.652 8.416,28.346 8.245,29.041 C 8.075,29.735 7.818,29.964 7.115,29.968 L 4,29.977 V 29.892 C 4.093,29.762 4.168,29.62 4.224,29.469 C 4.362,28.901 4.48,28.329 4.59,27.774 C 4.7,27.22 4.793,26.589 4.895,26 H 8.306 Z M 5.952,26.606 L 5.322,29.405 H 6.89 C 6.983,29.405 7.122,29.235 7.15,29.117 C 7.293,28.562 7.406,27.999 7.528,27.423 C 7.585,27.16 7.638,26.893 7.699,26.606 H 5.952 Z" fill="url(#f)"/>
<path d="M 34.205000000000005,25.985 C 34.711,26.263 34.752,26.335 34.622,26.927 A 89.9,89.9 0 0,1 34.126,29.147 A 0.92,0.92 0 0,1 33.829,29.74 A 0.848,0.848 0 0,1 33.223,29.96 C 32.142,29.985 31.064,29.96 29.995,29.96 C 30.259,28.8 30.523,27.652 30.755,26.504 C 30.785,26.338 30.801,26.169 30.804,26 H 34.215 Z M 31.218,29.388 H 32.694 C 32.942,29.388 33.028,29.282 33.073,29.058 C 33.17,28.575 33.284,28.101 33.386,27.618 C 33.459,27.283 33.524,26.944 33.597,26.584 H 31.85 L 31.22,29.388 Z" fill="url(#e)"/>
<path d="M 25.349,25.985 C 25.798,26.186 25.847,26.538 25.765,26.961 C 25.603,27.673 25.452,28.384 25.285,29.079 C 25.255,29.337 25.13,29.573 24.937,29.739 A 0.95,0.95 0 0,1 24.249,29.969 H 21.935 C 21.407,29.969 21.203,29.693 21.309,29.147 C 21.463,28.363 21.642,27.584 21.813,26.8 C 21.865,26.602 21.968,26.422 22.111,26.28 C 22.255,26.14 22.433,26.042 22.626,26 H 25.359 Z M 24.724,26.614 H 22.927 L 22.305,29.405 H 23.907 A 0.328,0.328 0 0,0 24.052,29.332 A 0.347,0.347 0 0,0 24.147,29.198 C 24.35,28.342 24.529,27.495 24.725,26.614 Z" fill="url(#d)"/>
<path d="M 30.468,25.985 L 29.58,29.579 L 29.49,29.939 A 0.393,0.393 0 0,1 29.4,29.964 C 28.307,30.002 28.303,30.006 27.807,28.99 C 27.497,28.355 27.193,27.72 26.835,26.978 L 26.172,29.943 H 25.571 L 26.335,26 H 27.636 L 29.047,28.922 H 29.165 L 29.665,26 H 30.478 Z" fill="url(#c)"/>
<path d="M 51.99,25.985 L 50.17,27.368 L 51.227,29.948 H 49.975 L 49.251,28.151 C 48.434,28.456 48.239,29.151 48.239,29.947 H 47.089 C 47.328,28.867 47.576,27.787 47.808,26.703 C 47.841,26.47 47.858,26.235 47.857,26 H 49.157 L 48.645,27.758 L 48.759,27.83 L 50.943,26 H 52 Z" fill="url(#b)"/>
<path d="M 47.603,25.985 L 47.588,26.593 H 45.604 C 45.498,26.593 45.319,26.686 45.299,26.767 A 65.626,65.626 0 0,0 44.709,29.363 H 46.974 L 46.751,29.956 H 44.246 C 43.75,29.956 43.575,29.642 43.685,29.109 C 43.835,28.409 44.006,27.715 44.14,26.991 C 44.168,26.751 44.268,26.527 44.425,26.349 A 1.1,1.1 0 0,1 45.015,26 H 47.613 Z" fill="url(#a)"/>
<path d="M 10.732000000000001,25.985 C 10.587,26.487 10.424,26.97 10.286,27.47 C 10.083,28.283 9.92,29.104 9.733,29.951 H 8.627 C 8.879,28.816 9.14,27.673 9.379,26.529 A 2.157,2.157 0 0,0 9.379,26 H 10.742 Z" fill="url(#m)"/>
<path d="M 14.969,29.925 H 14.117 C 13.803,29.016 13.617,28.034 13.072,27.11 C 12.803,27.458 12.572,27.73 12.372,28.026 C 12.042,28.489 11.737,28.972 11.457,29.47 A 0.782,0.782 0 0,1 11.107,29.878 A 0.733,0.733 0 0,1 10.587,29.953 A 2.935,2.935 0 0,0 10.181,29.953 C 10.356,29.673 10.49,29.453 10.628,29.237 C 11.23,28.305 11.848,27.377 12.438,26.437 A 0.64,0.64 0 0,1 12.74,26.117 A 0.603,0.603 0 0,1 13.17,26.077 C 13.399,26.162 13.59,26.335 13.702,26.56 C 14.145,27.661 14.544,28.775 14.979,29.94 Z" fill="url(#l)"/>
<path d="M 41.443000000000005,27.091 C 41.168,27.492 40.928,27.792 40.713,28.11 A 38.61,38.61 0 0,0 39.923,29.334 C 39.493,30.02 39.497,30.024 38.619,29.91 C 38.649,29.837 38.682,29.766 38.72,29.698 C 39.428,28.601 40.143,27.508 40.843,26.408 A 0.715,0.715 0 0,1 41.151,26.118 A 0.679,0.679 0 0,1 41.562,26.06 C 41.691,26.072 41.812,26.126 41.91,26.213 A 0.648,0.648 0 0,1 42.107,26.547 C 42.514,27.657 42.921,28.767 43.327,29.859 C 43.27,29.906 43.25,29.935 43.23,29.935 C 42.547,29.982 42.547,29.982 42.319,29.305 C 42.139,28.72 41.932,28.157 41.733,27.61 A 3.865,3.865 0 0,0 41.453,27.106 Z" fill="url(#k)"/>
<path d="M 12.758000000000001,29.808 C 12.63,29.489 12.495,29.212 12.384,28.91 A 0.406,0.406 0 0,1 12.414,28.625 C 12.586,28.331 12.778,28.053 12.98,27.74 C 13.027,27.84 13.061,27.905 13.088,27.97 C 13.506,28.979 13.506,28.979 12.768,29.823 Z" fill="url(#j)"/>
<path d="M 41.38,27.724999999999998 C 41.542,28.135 41.674,28.432 41.787,28.756 A 0.428,0.428 0 0,1 41.751,29.056 C 41.584,29.309 41.397,29.542 41.188,29.823 C 41.052,29.495 40.924,29.203 40.814,28.898 A 0.398,0.398 0 0,1 40.837,28.625 C 40.995,28.341 41.185,28.068 41.391,27.74 Z" fill="url(#i)"/>
<defs>
<linearGradient id="n" x1="10.418" x2="68.147" y1="9.712" y2="76.017" gradientUnits="userSpaceOnUse">
<stop stop-color="rgb(25, 29, 31)" offset="0"/>
<stop stop-color="rgb(5, 5, 8)" offset="1"/>
</linearGradient>
<linearGradient id="h" x1="18.496" x2="18.496" y1="26" y2="30" gradientUnits="userSpaceOnUse">
<stop stop-color="rgb(254, 254, 253)" offset="0"/>
<stop stop-color="rgb(198, 198, 197)" offset="1"/>
</linearGradient>
<linearGradient id="g" x1="36.744" x2="36.744" y1="26" y2="29.968" gradientUnits="userSpaceOnUse">
<stop stop-color="rgb(254, 254, 253)" offset="0"/>
<stop stop-color="rgb(198, 198, 197)" offset="1"/>
</linearGradient>
<linearGradient id="f" x1="6.392" x2="6.392" y1="26" y2="29.977" gradientUnits="userSpaceOnUse">
<stop stop-color="rgb(254, 254, 253)" offset="0"/>
<stop stop-color="rgb(198, 198, 197)" offset="1"/>
</linearGradient>
<linearGradient id="e" x1="32.34" x2="32.34" y1="26" y2="29.971" gradientUnits="userSpaceOnUse">
<stop stop-color="rgb(254, 254, 253)" offset="0"/>
<stop stop-color="rgb(198, 198, 197)" offset="1"/>
</linearGradient>
<linearGradient id="d" x1="23.54" x2="23.54" y1="26" y2="29.971" gradientUnits="userSpaceOnUse">
<stop stop-color="rgb(254, 254, 253)" offset="0"/>
<stop stop-color="rgb(198, 198, 197)" offset="1"/>
</linearGradient>
<linearGradient id="c" x1="28.024" x2="28.024" y1="26" y2="29.976" gradientUnits="userSpaceOnUse">
<stop stop-color="rgb(254, 254, 253)" offset="0"/>
<stop stop-color="rgb(198, 198, 197)" offset="1"/>
</linearGradient>
<linearGradient id="b" x1="49.544" x2="49.544" y1="26" y2="29.947" gradientUnits="userSpaceOnUse">
<stop stop-color="rgb(254, 254, 253)" offset="0"/>
<stop stop-color="rgb(198, 198, 197)" offset="1"/>
</linearGradient>
<linearGradient id="a" x1="45.633" x2="45.633" y1="26" y2="29.956" gradientUnits="userSpaceOnUse">
<stop stop-color="rgb(254, 254, 253)" offset="0"/>
<stop stop-color="rgb(198, 198, 197)" offset="1"/>
</linearGradient>
<linearGradient id="m" x1="9.684" x2="9.684" y1="26" y2="29.951" gradientUnits="userSpaceOnUse">
<stop stop-color="rgb(254, 254, 253)" offset="0"/>
<stop stop-color="rgb(198, 198, 197)" offset="1"/>
</linearGradient>
<linearGradient id="l" x1="12.58" x2="12.58" y1="26.055" y2="29.971" gradientUnits="userSpaceOnUse">
<stop stop-color="rgb(254, 254, 253)" offset="0"/>
<stop stop-color="rgb(198, 198, 197)" offset="1"/>
</linearGradient>
<linearGradient id="k" x1="40.973" x2="40.973" y1="26.05" y2="29.966" gradientUnits="userSpaceOnUse">
<stop stop-color="rgb(254, 254, 253)" offset="0"/>
<stop stop-color="rgb(198, 198, 197)" offset="1"/>
</linearGradient>
<linearGradient id="j" x1="12.87" x2="12.87" y1="27.74" y2="29.823" gradientUnits="userSpaceOnUse">
<stop stop-color="rgb(254, 254, 253)" offset="0"/>
<stop stop-color="rgb(198, 198, 197)" offset="1"/>
</linearGradient>
<linearGradient id="i" x1="41.3" x2="41.3" y1="27.74" y2="29.823" gradientUnits="userSpaceOnUse">
<stop stop-color="rgb(254, 254, 253)" offset="0"/>
<stop stop-color="rgb(198, 198, 197)" offset="1"/>
</linearGradient>
</defs>
</svg>
