<?xml version="1.0" encoding="UTF-8"?>
<!-- generated by Finnhub -->
<svg viewBox="0 0 55.5 55.5" xmlns="http://www.w3.org/2000/svg">
<path d="M 0,0 H 55.5 V 55.5 H 0 Z" fill="rgb(239, 242, 248)"/>
<path d="M 32.034,30.985 L 32.534,28.064 H 33.442 L 33.38,28.365 C 33.848,28.044 34.29,27.989 34.453,28.002 C 35.45,28.012 35.534,28.706 35.473,29.085 L 35.148,31 H 34.274 L 34.535,29.37 C 34.645,28.75 34.331,28.652 34.129,28.661 A 0.993,0.993 0 0,0 33.207,29.409 L 32.932,31 H 32.044 Z M 39.343,31 L 39.805,28.05 H 40.533 L 40.473,28.44 C 40.861,27.928 41.301,27.966 41.473,28.05 L 41.177,28.69 C 40.71,28.538 40.472,29.006 40.427,29.356 L 40.16,31 H 39.341 Z M 45.684,30.512 L 44.737,28 H 45.551 L 46.224,29.71 L 47.354,28 H 48.236 L 45.6,31.997 H 44.736 L 45.683,30.512 Z" fill="rgb(0, 167, 76)"/>
<path d="M 8.38,28.205 L 8,31.004 H 8.916 L 9.313,28.222 H 9.848 L 9.962,27.472 H 9.402 C 9.452,26.978 9.565,26.763 9.742,26.763 C 9.886,26.763 10.046,26.875 10.108,26.931 L 10.197,26.237 C 9.905,26.059 9.662,26.006 9.459,26.006 C 8.752,25.949 8.522,26.96 8.495,27.472 H 8.105 L 8,28.222 H 8.39 Z M 10.049,29.61 L 10.329,28 H 11.22 A 45.715,45.715 0 0,1 10.94,29.61 C 10.868,29.934 10.934,30.283 11.509,30.318 C 11.969,30.346 12.191,29.998 12.226,29.819 L 12.55,28 H 13.434 L 13.182,29.47 C 13.096,30.052 12.829,31.032 11.472,31 C 10.115,30.967 9.958,30.06 10.049,29.61 Z M 17.138,31 L 17.846,26 H 18.724 L 18.034,31 H 17.138 Z M 25.328,30.997 L 26.036,25.997 H 26.914 L 26.224,30.997 H 25.328 Z M 26.914,31 L 27.622,26 H 28.5 L 27.81,31 H 26.914 Z M 20.515,28 C 21.294,28.012 21.711,28.447 21.823,28.663 L 21.213,28.995 C 21.18,28.942 20.984,28.692 20.515,28.663 C 19.927,28.628 19.534,29.093 19.475,29.559 C 19.415,30.025 19.838,30.406 20.344,30.356 C 20.748,30.317 21.017,30.114 21.102,30.018 L 21.659,30.406 C 21.491,30.592 20.979,30.97 20.284,30.998 C 19.414,31.034 18.642,30.469 18.731,29.559 C 18.821,28.649 19.541,27.986 20.515,28 Z" fill="rgb(24, 65, 152)"/>
<path d="M 16.907999999999998,29.678 C 17.018,29.159 16.811,28.03 15.466,28.001 C 14.158,27.972 13.664,28.989 13.639,29.529 C 13.587,30.012 13.838,30.982 15.259,31 C 15.542,31 16.119,30.92 16.63,30.4 L 15.96,30.083 C 15.854,30.172 15.565,30.349 15.26,30.349 C 14.878,30.349 14.484,30.23 14.409,29.693 H 16.918 Z M 14.512,29.187 A 0.941,0.941 0 0,1 15.377,28.654 C 15.872,28.668 16.111,29.014 16.168,29.187 H 14.512 Z M 25.108,29.696 C 25.208,29.162 25.002,28.033 23.656,28.004 C 22.348,27.976 21.854,28.992 21.829,29.532 C 21.777,30.015 22.028,30.985 23.449,31.003 C 23.732,31.003 24.309,30.924 24.82,30.403 L 24.15,30.087 C 24.044,30.175 23.755,30.352 23.45,30.352 C 23.068,30.352 22.674,30.234 22.599,29.696 H 25.109 Z M 22.702,29.19 A 0.942,0.942 0 0,1 23.567,28.657 A 0.845,0.845 0 0,1 24.358,29.19 H 22.702 Z" fill="rgb(24, 65, 152)"/>
<path d="M 31.776,29.678 C 31.886,29.159 31.679,28.03 30.334,28.001 C 29.026,27.972 28.532,28.989 28.506,29.529 C 28.454,30.012 28.706,30.982 30.127,31 C 30.409,31 30.987,30.92 31.497,30.4 L 30.828,30.083 C 30.722,30.172 30.433,30.349 30.128,30.349 C 29.746,30.349 29.351,30.23 29.276,29.693 H 31.786 Z M 29.38,29.187 A 0.942,0.942 0 0,1 30.245,28.654 C 30.74,28.668 30.979,29.014 31.035,29.187 H 29.38 Z M 39.084,29.693 C 39.184,29.159 38.977,28.03 37.632,28.001 C 36.324,27.972 35.83,28.989 35.805,29.529 C 35.752,30.012 36.004,30.982 37.425,31 C 37.708,31 38.285,30.92 38.795,30.4 L 38.126,30.083 C 38.02,30.172 37.731,30.349 37.426,30.349 C 37.044,30.349 36.649,30.23 36.574,29.693 H 39.084 Z M 36.678,29.187 A 0.942,0.942 0 0,1 37.543,28.654 C 38.038,28.668 38.277,29.014 38.333,29.187 H 36.678 Z M 43.798,28.069 L 43.752,28.395 C 43.654,28.265 43.362,28.006 42.975,28 C 42.492,27.993 41.538,28.206 41.368,29.392 C 41.292,29.922 41.548,30.826 42.635,30.899 C 42.789,30.902 43.171,30.839 43.473,30.565 C 43.476,30.801 43.321,31.288 42.68,31.355 C 42.524,31.367 42.149,31.329 41.895,31.074 L 41.306,31.4 C 41.412,31.595 41.826,31.988 42.636,32 C 43.646,32.015 44.024,31.226 44.069,30.96 C 44.106,30.747 44.371,28.944 44.499,28.068 H 43.798 Z M 42.386,30.199 C 42.741,30.429 43.241,30.285 43.502,29.878 C 43.763,29.47 43.686,28.953 43.331,28.723 C 42.975,28.493 42.475,28.637 42.214,29.043 C 41.954,29.451 42.03,29.968 42.386,30.198 Z" fill="rgb(0, 167, 76)" fill-rule="evenodd"/>
<path d="M 30.037999999999997,26.188 L 51.389,21.703 L 50.617,23.096 L 30.047,26.203 Z" fill="rgb(24, 65, 152)"/>
<path d="M 33.580000000000005,26.116 L 50.39,23.696 L 49.691,24.894 L 33.591,26.131 Z" fill="rgb(1, 174, 238)"/>
<path d="M 36.304,26.509 L 49.5,25.467 L 48.983,26.373 L 36.314,26.523 Z" fill="rgb(0, 167, 76)"/>
</svg>
