<?xml version="1.0" encoding="UTF-8"?>
<!-- generated by Finnhub -->
<svg viewBox="0 0 55.5 55.5" xmlns="http://www.w3.org/2000/svg">
<path d="M 0,0 H 55.5 V 55.5 H 0 Z" fill="rgb(69, 26, 133)"/>
<path d="M 39.99,34.985 L 43.922,30.5 L 40,26 H 44 L 46.081,28.186 L 48,26 H 51.946 L 48.042,30.482 L 52,35 H 48 L 45.92,32.796 L 44.011,35 H 40 Z M 40,23 H 35 V 26 H 40 V 29 H 35 V 32 H 40 V 35 H 32 V 20 H 40 V 23 Z" fill="rgb(237, 110, 43)"/>
<path d="M 28.99,25.909 V 20 H 32 V 35 H 29 V 33.538 C 28.39,34.456 27.017,35 25.928,35 C 23.402,35 21.562,32.932 21.276,30.533 H 14.666 C 14.666,31.602 15.544,32.503 16.562,32.503 C 17.269,32.503 17.66,32.381 18,32 H 21.319 C 20.439,33.914 18.874,35 16.562,35 C 13.662,35 11.39,32.84 11.39,29.82 C 11.39,29.596 11.407,29.3 11.436,29 H 7 V 35 H 4 V 20 H 12.036 V 23 H 7 V 26 H 12.036 V 27.183 C 12.883,25.657 14.506,24.72 16.562,24.72 C 19.092,24.72 20.8,26.072 21.462,28.279 C 22.042,26.276 23.695,24.762 25.89,24.762 C 26.962,24.762 28.26,25.062 29,25.924 Z M 16.562,26.914 C 15.685,26.914 14.982,27.514 14.772,28.434 H 18.369 C 18.194,27.496 17.527,26.914 16.562,26.914 Z M 24.505,29.62 C 24.505,30.836 25.269,32 26.5,32 C 27.846,32 28.429,30.852 28.429,29.62 C 28.429,28.321 27.879,27.072 26.5,27.072 C 25.17,27.072 24.505,28.322 24.505,29.621 Z" fill="rgb(254, 254, 253)"/>
</svg>
