<?xml version="1.0" encoding="UTF-8"?>
<!-- generated by Finnhub -->
<svg viewBox="0 0 55.5 55.5" xmlns="http://www.w3.org/2000/svg">
<path d="M 0,0 H 55.5 V 55.5 H 0 Z" fill="url(#a)"/>
<path d="M 2.0250000000000004,31.47 C 14.967,30.409 38.701,29.39 46.6,32.943 L 46.352,34.307 C 37.905,29.687 3.802,31.395 2.035,31.484 Z" fill="rgb(254, 254, 253)"/>
<path d="M 10.054,29.983 H 11.361 L 12.081,24.998 H 10.784 L 10.064,29.998 Z M 11.818,30 H 13.115 L 13.464,27.594 C 13.62,26.5 14.474,26.112 15.355,26.112 L 15.532,24.879 C 14.777,24.879 14.148,25.117 13.757,25.694 H 13.736 L 13.836,24.998 H 12.538 L 11.818,30 Z" fill="rgb(254, 254, 253)"/>
<path d="M 19.903,25.682 C 19.701,25.399 19.108,24.782 17.822,24.782 C 16.493,24.782 15.369,25.28 15.207,26.413 C 14.934,28.323 18.363,27.617 18.24,28.473 C 18.202,28.741 17.731,29.059 17.114,29.059 C 16.424,29.059 15.891,28.84 15.652,28.432 L 14.572,29.138 C 14.979,29.646 15.782,30.053 17.047,30.053 C 18.28,30.053 19.517,29.506 19.69,28.293 C 19.962,26.393 16.464,27.139 16.59,26.264 C 16.632,25.966 17.043,25.767 17.648,25.777 C 18.413,25.777 18.783,26.165 18.895,26.493 L 19.913,25.697 Z M 19.761,28.71 C 19.651,29.524 19.949,30 21.012,30 C 21.416,30 21.744,29.937 22.061,29.873 L 22.203,28.817 C 22.009,28.837 21.801,28.88 21.62,28.88 C 21.12,28.88 21.067,28.647 21.124,28.225 L 21.488,25.52 H 22.647 L 22.772,24.59 H 21.613 L 21.827,23 H 20.53 L 19.761,28.71 Z M 4.706,30 H 6.134 L 6.578,26.964 H 10.193 L 10.361,25.806 H 6.746 L 6.976,24.216 H 10.91 L 11.086,23 H 5.728 L 4.706,30 Z M 22.41,30 H 28.044 L 28.221,28.78 H 24.011 L 24.272,26.972 H 27.887 L 28.055,25.812 H 24.44 L 24.67,24.219 H 28.604 L 28.781,23 H 23.423 L 22.41,30 Z M 28.332,30 H 29.63 L 30.01,27.375 C 30.142,26.45 30.72,26.052 31.347,26.052 C 32.017,26.052 32.176,26.5 32.11,26.957 L 31.67,30 H 32.967 L 33.46,26.59 C 33.618,25.485 33.13,24.879 31.855,24.879 C 31.334,24.879 30.745,25.058 30.3,25.495 H 30.278 L 30.35,24.998 H 29.052 L 28.332,30 Z M 34.995,26.993 C 35.21,26.456 35.61,25.873 36.53,25.873 C 37.544,25.873 37.649,26.724 37.61,26.993 H 34.995 Z M 38.837,27.831 C 39.094,26.031 38.469,24.782 36.672,24.782 C 34.929,24.782 33.757,25.916 33.542,27.418 C 33.327,28.92 34.175,30.053 35.918,30.053 C 37.385,30.053 38.255,29.397 38.742,28.82 L 37.732,28.224 C 37.58,28.392 37.098,28.939 36.078,28.939 C 35.376,28.939 34.776,28.578 34.861,27.831 H 38.837 Z M 38.79,30 H 40.087 L 40.436,27.594 C 40.592,26.5 41.446,26.112 42.328,26.112 L 42.504,24.879 C 41.749,24.879 41.12,25.117 40.729,25.694 H 40.708 L 40.808,24.998 H 39.51 L 38.79,30 Z" fill="rgb(254, 254, 253)"/>
<path d="M 45.649,27.31 C 45.572,27.862 45.17,28.658 44.192,28.658 C 43.215,28.658 43.042,27.862 43.107,27.325 C 43.195,26.788 43.596,25.993 44.574,25.993 C 45.552,25.993 45.725,26.788 45.659,27.325 Z M 47.246,24.998 H 45.95 L 45.88,25.485 H 45.86 C 45.592,25.127 45.213,24.879 44.436,24.879 C 43.097,24.879 41.964,25.813 41.748,27.325 C 41.532,28.837 42.397,29.772 43.737,29.772 C 44.204,29.772 44.873,29.632 45.347,29.215 L 45.27,29.752 C 45.182,30.369 44.742,30.767 43.902,30.767 C 43.254,30.767 42.932,30.348 42.886,30 H 41.526 C 41.436,30.627 41.791,31.701 43.492,31.701 C 45.13,31.701 46.338,31.353 46.542,29.921 L 47.247,24.998 Z" fill="rgb(254, 254, 253)"/>
<path d="M 51.99,24.983 H 50.66 L 49.127,28.658 H 49.106 L 48.47,24.998 H 47.078 L 48.274,30.16 C 48.069,30.478 47.904,30.587 47.49,30.587 L 46.979,30.593 L 46.821,31.696 L 47.597,31.701 C 48.532,31.701 49.021,31.403 49.451,30.478 L 52.001,24.998 Z" fill="rgb(254, 254, 253)"/>
<defs>
<linearGradient id="a" x1="10.418" x2="68.147" y1="9.712" y2="76.017" gradientUnits="userSpaceOnUse">
<stop stop-color="rgb(25, 29, 31)" offset="0"/>
<stop stop-color="rgb(5, 5, 8)" offset="1"/>
</linearGradient>
</defs>
</svg>
