<?xml version="1.0" encoding="UTF-8"?>
<!-- generated by Finnhub -->
<svg viewBox="0 0 55.5 55.5" xmlns="http://www.w3.org/2000/svg">
<path d="M 0,0 H 55.5 V 55.5 H 0 Z" fill="rgb(225, 28, 54)"/>
<path d="M 43.99,27.985 C 44,36.837 36.837,44 28,44 C 23.33,44 19.127,42 16.202,38.808 C 18.935,39.314 22.169,39.666 25.847,39.742 V 38.66 C 23.685,38.52 22.679,38.228 22.529,37.796 C 22.244,36.978 21.929,29.424 22,26 H 25.8 C 26.094,25.867 26.446,25.74 26.797,25.612 C 27.217,25.459 27.634,25.307 27.952,25.148 V 24 H 22 S 22.096,20.79 22.172,19.417 C 22.247,18.477 23.112,17.828 23.685,17.828 C 24.691,17.753 25.631,18.186 26.571,18.618 C 26.825,18.726 27.076,18.853 27.328,18.98 C 27.579,19.107 27.831,19.234 28.085,19.342 C 28.301,19.417 28.592,19.483 28.808,19.267 L 28.965,19.074 C 29.201,18.781 29.435,18.492 29.673,18.261 C 29.814,18.045 29.749,17.904 29.673,17.828 C 29.233,17.483 28.826,17.173 28.407,16.853 L 27.803,16.39 C 27.445,16.099 26.797,16.099 26.213,16.099 C 26.056,16.049 25.907,16.065 25.761,16.082 A 1.885,1.885 0 0,1 25.546,16.099 C 24.973,16.099 24.174,16.239 22.876,16.531 C 20.066,17.321 16.606,19.267 16.24,22.51 C 16.165,23.018 16,24.317 16,24.317 C 15.566,24.359 15.167,24.41 14.775,24.46 C 14.455,24.5 14.139,24.54 13.813,24.575 C 13.773,24.922 13.754,25.248 13.735,25.575 C 13.719,25.859 13.703,26.144 13.672,26.445 C 14.066,26.405 14.484,26.385 14.912,26.367 C 15.27,26.351 15.636,26.334 16,26.304 C 15.981,29.192 16.143,32.942 16.253,35.494 C 16.282,36.161 16.307,36.746 16.324,37.213 C 16.249,37.504 15.971,37.649 15.247,37.649 L 16.077,38.67 A 15.94,15.94 0 0,1 12,28 C 12,19.163 19.163,12 28,12 C 33.091,12 37.627,14.378 40.557,18.084 C 40.047,18.017 39.545,17.927 39.038,17.837 A 27.964,27.964 0 0,0 37.1,17.537 A 58.47,58.47 0 0,0 31.835,17.105 C 30.595,20.564 29.147,24.964 27.633,29.579 C 35.493,30.228 38.519,32.39 38.378,35.342 C 38.238,36.931 36.724,38.444 34.778,38.585 C 32.475,38.726 31.394,37.795 30.745,36.78 C 30.405,36.223 30.039,35.67 29.662,35.099 C 29.402,34.707 29.139,34.308 28.874,33.894 C 28.738,33.612 28.46,33.806 28.247,33.954 L 28.226,33.969 C 27.884,34.26 27.576,34.585 27.28,34.899 C 27.136,35.051 26.995,35.2 26.853,35.342 C 26.562,35.633 26.637,35.85 26.713,36.066 L 26.842,36.368 C 27.232,37.274 27.62,38.18 28.009,39.018 C 28.733,39.45 31.977,40.023 34.355,39.808 C 36.009,39.666 38.031,39.018 39.76,37.786 C 41.415,36.489 42.646,34.759 42.862,31.948 C 42.938,30.218 42.646,28.414 41.132,26.759 C 39.619,25.105 37.025,23.732 31.76,23.375 C 31.892,22.984 32.008,22.608 32.123,22.24 C 32.261,21.794 32.395,21.359 32.55,20.921 C 35.718,21.062 38.529,21.279 40.917,21.57 C 41.02,21.122 41.091,20.69 41.16,20.268 C 41.22,19.903 41.28,19.545 41.357,19.188 A 15.925,15.925 0 0,1 44,28 Z" fill="rgb(254, 254, 253)"/>
</svg>
