<?xml version="1.0" encoding="UTF-8"?>
<!-- generated by Finnhub -->
<svg viewBox="0 0 55.5 55.5" xmlns="http://www.w3.org/2000/svg">
<path d="M 0,0 H 55.5 V 55.5 H 0 Z" fill="rgb(239, 242, 248)"/>
<path d="M 25.99,25.985 V 21 H 30 V 26 C 34.886,26.07 35,30 35,30 H 30 V 35 H 26 V 30 C 21.492,29.715 21,26 21,26 H 26 Z M 22.832,45.164 C 24.295,45.721 25.978,46 27.855,46 H 28.145 C 30.058,46 31.775,45.705 33.265,45.136 C 37.395,43.598 40,39.96 40,34.303 V 21.597 C 40,15.904 37.355,12.351 33.171,10.835 C 31.706,10.283 30.028,10 28.146,10 H 27.856 C 25.942,10 24.222,10.293 22.739,10.867 C 18.605,12.405 16,15.942 16,21.597 V 34.303 C 16,40.003 18.648,43.652 22.832,45.163 Z" clip-rule="evenodd" fill="rgb(99, 100, 104)" fill-rule="evenodd"/>
</svg>
