<?xml version="1.0" encoding="UTF-8"?>
<!-- generated by Finnhub -->
<svg viewBox="0 0 55.5 55.5" xmlns="http://www.w3.org/2000/svg">
<path d="M 0,0 H 55.5 V 55.5 H 0 Z" fill="rgb(121, 182, 36)"/>
<path d="M 49.99,23.985 C 50,23.444 49.616,23 49.093,23 H 37.612 C 35.62,23 34,24.38 34,26.5 S 35.62,30 37.612,30 H 46.387 C 47.446,30 48,31.118 48,32.026 C 48,32.935 47.24,33.986 46.387,33.986 H 34.947 C 34.424,33.986 34,34.438 34,34.993 C 34,35.55 34.424,36 34.946,36 H 46.386 C 48.38,36 50,34.146 50,32.026 S 48.379,28 46.387,28 H 37.612 C 36.759,28 36,27.408 36,26.5 S 36.76,25.016 37.612,25.016 H 49.093 C 49.616,25.016 50,24.556 50,24 Z M 29.667,19.253 A 1.404,1.404 0 1,0 26.858,19.253 A 1.404,1.404 0 0,0 29.667,19.253 Z M 23.788,20.657 A 1.404,1.404 0 1,1 23.788,17.85 A 1.404,1.404 0 0,1 23.788,20.657 Z M 19.313,20.657 A 1.403,1.403 0 1,1 19.311,17.85 A 1.403,1.403 0 0,1 19.313,20.657 Z M 14.838,20.657 A 1.404,1.404 0 1,1 14.838,17.849 A 1.404,1.404 0 0,1 14.838,20.657 Z M 10.364,20.657 A 1.404,1.404 0 1,1 10.362,17.849 A 1.404,1.404 0 0,1 10.364,20.657 Z M 22.027,23 C 18.82,23 15.609,23.003 12.401,23 C 8.61,23 6,25.593 6,29.517 V 35.004 C 6,35.609 6.415,36.1 7,36.1 C 7.586,36.1 8,35.609 8,35.004 V 29.517 C 8,26.797 9.752,25 12.4,25 H 22.027 A 0.985,0.985 0 0,0 22.998,24 C 22.998,23.445 22.563,23 22.028,23 Z" fill="rgb(254, 254, 253)"/>
<path d="M 9.99,29.986 C 10,30.535 10.415,31 10.948,31 H 20.058 C 20.592,31 21,30.535 21,30.001 C 21,29.468 20.592,29 20.058,29 H 10.948 C 10.415,29 10,29.468 10,30.001 Z M 27,24.083 V 34.916 C 27,35.514 27.448,36 28,36 S 29,35.514 29,34.916 V 24.083 C 29,23.484 28.552,23 28,23 S 27,23.484 27,24.083 Z" fill="rgb(254, 254, 253)"/>
</svg>
