<?xml version="1.0" encoding="UTF-8"?>
<!-- generated by Finnhub -->
<svg viewBox="0 0 55.5 55.5" xmlns="http://www.w3.org/2000/svg">
<path d="M 0,0 H 55.5 V 55.5 H 0 Z" fill="rgb(5, 93, 238)"/>
<path d="M 6.456,27.985 V 31 H 4.796 V 28 H 4 V 26.8 H 4.796 C 4.796,26.444 4.813,26.15 4.848,25.98 C 4.882,25.807 4.967,25.643 5.103,25.488 A 1.27,1.27 0 0,1 5.652,25.128 C 5.882,25.042 6.19,25 6.577,25 C 6.993,25 7.318,25.03 7.699,25.09 V 26.091 H 7.186 C 6.672,26.091 6.466,26.064 6.466,26.4 V 26.8 H 7.7 V 28 H 6.466 Z M 10.166,25 V 26.2 H 8.31 V 25 H 10.166 Z M 10.166,26.794 V 31 H 8.31 V 26.794 H 10.166 Z M 17.106,25 L 14.793,31 H 12.945 L 10.589,25 H 13.131 L 14.031,27.773 C 14.104,27.973 14.171,28.171 14.228,28.367 C 14.249,28.299 14.28,28.213 14.322,28.107 C 14.33,28.092 14.357,28.02 14.402,27.892 L 15.332,25 H 17.105 Z M 21.687,29.154 L 23.91,29.288 C 23.91,29.675 23.386,30.171 23.064,30.4 C 22.506,30.796 21.631,31 20.677,31 C 19.614,31 18.767,30.71 18.135,30.151 C 17.502,29.59 17.186,28.894 17.186,28.065 C 17.186,27.205 17.498,26.48 18.122,25.888 C 18.746,25.296 19.579,25 20.621,25 C 21.629,25 22.444,25.279 23.064,25.837 C 23.688,26.395 24,27.154 24,28.116 C 24,28.195 23.998,28.461 23.994,28.6 H 19.722 C 19.731,28.962 19.796,29.11 19.928,29.288 C 20.061,29.461 20.353,29.675 20.725,29.675 C 21.113,29.675 21.521,29.576 21.687,29.154 Z M 21.521,27.389 C 21.517,27 21.435,26.664 21.266,26.532 A 0.945,0.945 0 0,0 20.646,26.329 C 20.059,26.329 19.766,26.733 19.766,27.389 H 21.521 Z M 27,31 V 25 H 30.022 C 30.65,25 31.108,25.16 31.396,25.48 C 31.683,25.799 31.827,26.136 31.827,26.546 C 31.827,26.845 31.743,27.116 31.574,27.359 C 31.409,27.599 31.16,27.793 30.829,27.883 C 31.599,28.071 31.984,28.537 31.984,29.281 C 31.984,29.727 31.848,30.125 31.574,30.477 C 31.304,30.826 30.724,31 29.834,31 H 27 Z M 28.627,27.271 H 29.529 C 29.741,27.271 29.891,27.217 29.979,27.108 A 0.544,0.544 0 0,0 30.109,26.761 C 30.109,26.427 29.919,26.327 29.512,26.327 H 28.627 V 27.271 Z M 28.627,29.664 H 29.573 C 29.793,29.664 29.955,29.609 30.057,29.501 A 0.533,0.533 0 0,0 30.061,28.749 C 29.962,28.632 29.779,28.574 29.511,28.574 H 28.627 V 29.664 Z M 37.077,29.673 V 31 H 32.67 V 25 H 37.079 V 26.355 H 34.184 V 27.255 H 36.624 V 28.587 H 34.184 V 29.673 H 37.079 Z M 42.117,29.286 V 31 H 37.946 V 25 H 39.773 V 29.286 H 42.117 Z M 52,25 L 50.421,31 H 48.886 L 48.054,27.69 L 47.269,31 H 45.669 L 44.085,25 H 45.803 L 46.636,28.46 L 47.447,25 H 48.887 L 49.767,28.46 L 50.6,25 H 52 Z" fill="rgb(254, 254, 253)"/>
<path d="M 41.99,28.413999999999998 A 1.714,1.714 0 1,0 42,25 A 1.714,1.714 0 0,0 42,28.429 Z M 42,27.571 A 0.857,0.857 0 1,0 42,25.857 A 0.857,0.857 0 0,0 42,27.571 Z" fill="rgb(254, 254, 253)" fill-rule="evenodd"/>
</svg>
