<?xml version="1.0" encoding="UTF-8"?>
<!-- generated by Finnhub -->
<svg viewBox="0 0 55.5 55.5" xmlns="http://www.w3.org/2000/svg">
<path d="M 0,0 H 55.5 V 55.5 H 0 Z" fill="rgb(40, 77, 212)"/>
<path d="M 9.99,26.985 H 14.47 C 14.562,26.287 14.746,25.666 15,25 H 8 V 37 H 10 V 32 H 14 V 30 H 10 V 27 Z M 18,27 C 18.157,26.25 18.504,25.37 18.95,24.756 A 5.183,5.183 0 0,1 20.617,23.272 A 4.99,4.99 0 0,1 22.729,22.647 C 23.469,22.6 24.309,22.722 25,23 C 25.194,21.364 25.86,19.856 27.05,18.765 C 28.242,17.674 29.776,16.998 31.366,17 C 32.956,17.002 34.489,17.68 35.678,18.773 C 36.867,19.867 37.808,21.364 38,23 C 38.894,22.606 39.689,22.457 40.656,22.549 C 41.624,22.641 42.554,22.979 43.364,23.535 A 6.02,6.02 0 0,1 45.299,25.733 C 45.759,26.62 45.979,28.01 46,28.619 C 46.02,29.227 45.94,31.749 45,33 H 47 C 47.839,31.705 48.008,30.179 48,28.619 A 8.407,8.407 0 0,0 47.319,25.279 A 8.142,8.142 0 0,0 45.378,22.521 A 7.796,7.796 0 0,0 42.518,20.829 A 7.596,7.596 0 0,0 39.24,20.499 A 8.766,8.766 0 0,0 36.092,16.492 A 8.295,8.295 0 0,0 31.319,15 A 8.3,8.3 0 0,0 26.559,16.536 A 8.775,8.775 0 0,0 23.445,20.573 A 7.007,7.007 0 0,0 18.415,22.345 C 17.121,23.494 16.264,25.255 15.999,27 H 18 Z M 18,28 H 16 V 37 H 18 V 28 Z" fill="rgb(254, 254, 253)"/>
<path d="M 18.99,27.985 H 21 L 23,34 L 25,28 H 27 L 24,37 H 22 L 19,28 Z M 38,37 L 40.356,33 C 40.172,33.04 39.604,33.01 39.416,33 C 37.663,32.914 36,31.589 36,29.233 C 36,26.734 37.894,25 40,25 C 42.074,25 44,26.639 44,29.217 C 43.995,29.717 43.905,30.213 43.735,30.682 A 6.94,6.94 0 0,1 43.065,32.002 L 40,37 H 38 Z M 40,27.005 C 38.736,27.005 38,28.076 38,29 C 38,30.194 38.865,31 40,31 C 41.247,31 42,29.875 42,29 C 42,27.842 41.091,27.005 40,27.005 Z M 34,34 C 33.597,34.554 32.558,35 31.74,35 C 30.26,35 29.093,33.974 29,33.43 H 36 C 36,33.055 35.997,32.758 36,32.416 C 36,30.3 34.274,28 31.538,28 C 28.881,28 27,30.178 27,32.553 A 4.31,4.31 0 0,0 27.337,34.257 C 27.564,34.797 27.899,35.289 28.323,35.703 C 28.747,36.116 29.251,36.444 29.806,36.667 C 30.361,36.889 30.956,37.003 31.556,37 C 33.48,37 35.64,35.889 36,34 H 34 Z M 31.554,30 C 32.579,30 33.767,30.654 34,32 H 29 C 29.39,30.44 30.792,30 31.554,30 Z" fill="rgb(254, 254, 253)"/>
</svg>
