<?xml version="1.0" encoding="UTF-8"?>
<!-- generated by Finnhub -->
<svg viewBox="0 0 55.5 55.5" xmlns="http://www.w3.org/2000/svg">
<path d="M 0,0 H 55.5 V 55.5 H 0 Z" fill="rgb(187, 27, 26)"/>
<path d="M 25.775,20.432 L 25.765,20.609 L 25.24,24.944 L 25.211,25.144 C 25.186,25.33 25.161,25.506 25.146,25.659 C 25.127,25.708 25.109,25.754 25.096,25.797 C 25.044,25.949 25.023,26.014 24.855,26.057 C 24.793,26.072 24.752,26.067 24.742,26.061 A 0.111,0.111 0 0,1 24.732,26.036 C 24.7,25.863 24.692,25.658 24.755,25.207 L 25.135,22.412 L 23.727,22.767 L 23.573,22.807 L 23.567,22.849 A 0.828,0.828 0 0,0 23.109,22.791 C 22.409,22.911 21.799,23.323 21.343,23.981 C 20.725,24.869 20.476,26.119 20.692,27.242 C 20.767,27.637 20.972,27.84 21.129,27.94 C 21.364,28.09 21.673,28.125 21.999,28.044 A 2.507,2.507 0 0,0 23.452,27.017 C 23.525,27.177 23.642,27.32 23.827,27.396 C 24.073,27.498 24.354,27.462 24.547,27.413 C 25.119,27.269 25.305,26.99 25.486,26.719 L 25.507,26.689 C 25.692,26.873 26.004,26.979 26.527,26.869 C 27.075,26.752 27.626,26.345 28.028,25.937 C 28.094,26.06 28.188,26.164 28.31,26.242 C 28.697,26.492 29.191,26.399 29.335,26.366 C 29.789,26.254 30.141,26.055 30.372,25.779 C 30.76,26.071 31.389,26.067 31.917,25.941 C 32.513,25.8 33.053,25.354 33.439,24.686 C 33.965,23.776 34.126,22.59 33.846,21.661 C 33.715,21.226 33.496,20.929 33.196,20.774 C 32.906,20.624 32.557,20.615 32.161,20.749 C 30.792,21.209 29.781,23.142 29.995,24.886 C 29.996,24.902 30.001,24.916 30.005,24.93 C 29.955,24.977 29.865,25.03 29.688,25.073 C 29.651,25.083 29.609,25.073 29.572,25.05 A 0.248,0.248 0 0,1 29.468,24.88 C 29.45,24.784 29.48,24.593 29.508,24.405 L 29.528,24.272 L 29.881,21.618 L 29.926,21.283 L 29.598,21.364 L 29.415,21.408 C 29.908,21.266 30.219,20.702 30.115,20.131 C 30.068,19.883 29.952,19.691 29.779,19.578 A 0.73,0.73 0 0,0 29.201,19.498 C 28.626,19.637 28.369,20.27 28.463,20.775 C 28.523,21.099 28.68,21.26 28.803,21.339 A 0.708,0.708 0 0,0 29.326,21.431 L 28.474,21.635 L 28.318,21.673 L 28.298,21.833 L 27.998,24.363 L 27.991,24.423 C 27.973,24.577 27.951,24.765 27.937,24.943 L 27.868,25.002 C 27.634,25.203 27.24,25.539 26.95,25.6 C 26.874,25.614 26.82,25.602 26.799,25.587 C 26.787,25.581 26.787,25.576 26.787,25.573 C 26.757,25.384 26.773,25.045 26.833,24.615 L 27.037,23.095 L 28.059,22.852 L 28.076,22.692 L 28.162,21.975 L 28.201,21.653 L 27.882,21.721 L 27.172,21.88 L 27.326,20.418 L 27.358,20.098 L 27.044,20.168 L 25.944,20.412 L 25.789,20.448 H 25.784 Z M 22.479,26.689 C 22.419,26.704 22.391,26.699 22.385,26.694 C 22.38,26.692 22.335,26.657 22.294,26.442 C 22.144,25.662 22.415,24.447 22.841,23.989 C 22.943,23.879 23.038,23.831 23.123,23.847 C 23.227,23.865 23.343,23.977 23.419,24.135 C 23.321,25.322 22.97,26.565 22.479,26.689 Z M 32.221,21.688 C 32.243,21.685 32.258,21.687 32.276,21.7 C 32.36,21.76 32.442,21.957 32.477,22.18 C 32.585,22.876 32.27,24.96 31.82,25.046 C 31.8,25.049 31.79,25.048 31.775,25.038 C 31.697,24.984 31.62,24.796 31.588,24.594 C 31.452,23.709 31.878,21.754 32.221,21.688 Z" fill="rgb(254, 254, 253)"/>
<path d="M 33.515,25.596 L 33.842,25.568 L 34.984,25.415 L 35.144,25.392 L 35.179,25.237 C 35.247,24.942 35.312,24.589 35.374,24.25 C 35.472,23.734 35.57,23.2 35.67,22.897 C 35.853,22.337 36.36,21.606 36.666,21.581 C 36.691,21.579 36.703,21.583 36.706,21.586 C 36.712,21.591 36.726,21.616 36.728,21.666 C 36.738,21.804 36.594,22.356 36.48,22.799 C 36.282,23.562 36.153,24.083 36.17,24.346 A 0.937,0.937 0 0,0 36.49,25.011 C 36.703,25.194 37.002,25.291 37.29,25.269 C 37.674,25.238 38.017,25.002 38.295,24.773 C 38.515,25.038 38.875,25.17 39.288,25.123 A 2.431,2.431 0 0,0 40.737,24.39 C 40.75,24.54 40.787,24.68 40.857,24.788 A 0.456,0.456 0 0,0 41.167,24.991 C 41.308,25.015 41.539,25.029 41.821,24.96 C 42.262,24.852 42.554,24.615 42.791,24.424 L 42.792,24.422 C 42.962,24.68 43.257,24.994 43.735,24.979 C 44.33,24.961 44.875,24.469 45.146,24.174 C 45.283,24.028 45.586,23.677 45.61,23.44 A 0.282,0.282 0 0,0 45.539,23.2 A 0.295,0.295 0 0,0 45.295,23.11 C 45.151,23.117 45.071,23.226 44.978,23.351 C 44.855,23.518 44.685,23.746 44.422,23.762 A 0.233,0.233 0 0,1 44.269,23.713 A 0.095,0.095 0 0,1 44.234,23.639 C 44.226,23.444 44.3,23.189 44.401,22.833 L 44.412,22.797 L 45.13,20.364 C 45.483,19.184 45.849,17.963 46.186,16.738 L 46.27,16.426 L 45.947,16.446 L 44.781,16.518 L 44.614,16.528 L 44.571,16.69 C 44.3,17.727 43.986,18.83 43.683,19.898 C 43.345,21.085 42.995,22.31 42.707,23.444 L 42.681,23.532 A 0.634,0.634 0 0,1 42.375,23.626 C 42.301,23.636 42.242,23.617 42.23,23.606 C 42.23,23.605 42.227,23.601 42.226,23.586 C 42.221,23.475 42.221,23.162 42.361,22.657 L 43.031,20.334 L 43.117,20.032 L 42.8,20.042 L 41.691,20.069 L 41.514,20.074 L 41.494,20.16 A 0.859,0.859 0 0,0 41.048,20.044 C 39.263,20.114 38.075,22.079 38.06,23.874 C 37.868,23.908 37.752,23.89 37.728,23.867 L 37.724,23.843 C 37.722,23.739 37.848,23.255 37.952,22.866 C 38.168,22.041 38.32,21.436 38.303,21.139 C 38.264,20.502 37.733,20.223 37.253,20.233 C 36.678,20.244 36.303,20.422 36.021,20.701 L 36.071,20.406 L 34.633,20.552 L 34.461,20.57 L 34.428,20.739 L 33.584,25.296 L 33.524,25.611 H 33.525 Z M 40.625,21.198 C 40.741,21.102 40.841,21.068 40.923,21.093 C 41.023,21.126 41.124,21.253 41.18,21.417 C 40.927,22.579 40.413,23.769 39.91,23.827 C 39.85,23.833 39.823,23.825 39.818,23.821 C 39.812,23.817 39.771,23.776 39.758,23.557 C 39.714,22.766 40.142,21.597 40.625,21.198 Z" fill="rgb(254, 254, 253)"/>
<path d="M 47.63,29.992 C 47.517,30.017 47.443,30.099 47.32,30.233 C 47.118,30.453 46.784,30.82 46.305,30.86 C 46.109,30.876 45.966,30.846 45.875,30.77 C 45.785,30.691 45.732,30.546 45.72,30.34 A 2.107,2.107 0 0,1 45.734,30.003 C 45.734,29.987 45.734,29.97 45.736,29.953 C 46.599,29.701 48.066,28.946 47.998,27.871 C 47.979,27.581 47.881,27.359 47.708,27.209 C 47.543,27.067 47.316,27.003 47.051,27.026 C 46.219,27.096 45.181,27.956 44.581,29 C 44.681,28.4 44.783,27.781 44.886,27.229 L 44.982,26.735 L 44.544,26.987 L 43.932,27.338 A 9.914,9.914 0 0,1 43.686,27.473 L 43.628,27.448 C 43.474,27.382 43.215,27.27 42.919,27.3 C 41.352,27.462 40.487,29.352 40.345,31.044 C 40.339,31.095 40.305,31.317 40.327,31.576 C 40.316,31.588 40.302,31.599 40.29,31.61 C 40.24,31.654 40.16,31.73 40.124,31.734 C 40.098,31.737 40.061,31.738 40.041,31.722 C 40.013,31.699 39.981,31.62 39.977,31.474 A 3.342,3.342 0 0,1 40.096,30.53 L 40.799,27.8 L 39.359,27.99 L 39.201,28.01 L 39.19,28.051 A 0.839,0.839 0 0,0 38.742,27.941 C 38.034,27.981 37.379,28.319 36.85,28.919 C 36.806,28.969 36.763,29.021 36.72,29.074 A 1.362,1.362 0 0,0 36.713,28.83 A 0.978,0.978 0 0,0 36.34,28.153 A 0.775,0.775 0 0,0 35.75,28.011 C 35.504,28.053 35.276,28.161 35.07,28.331 L 35.09,28.255 L 33.405,28.538 L 33.379,28.704 L 32.914,31.684 C 32.661,31.959 32.11,32.54 31.662,32.636 C 31.468,32.677 31.322,32.665 31.23,32.602 C 31.134,32.537 31.068,32.4 31.035,32.199 C 31.019,32.1 31.019,31.981 31.017,31.863 C 31.017,31.844 31.017,31.825 31.015,31.808 C 31.675,31.514 33.248,30.596 33.063,29.458 C 33.018,29.17 32.898,28.961 32.712,28.832 C 32.531,28.71 32.297,28.676 32.032,28.731 C 31.321,28.881 30.512,29.647 29.99,30.573 A 1.575,1.575 0 0,0 29.967,30.352 C 29.902,30.018 29.735,29.744 29.504,29.597 A 0.781,0.781 0 0,0 28.884,29.502 C 28.432,29.615 28.198,29.982 28.284,30.433 C 28.315,30.594 28.395,30.733 28.481,30.882 C 28.572,31.04 28.666,31.204 28.705,31.408 C 28.795,31.881 28.599,32.321 28.353,32.747 C 28.297,32.574 28.233,32.403 28.172,32.237 C 28.047,31.903 27.929,31.59 27.866,31.258 C 27.766,30.744 27.91,30.488 28.004,30.32 C 28.058,30.22 28.116,30.121 28.092,29.997 A 0.277,0.277 0 0,0 27.972,29.813 A 0.255,0.255 0 0,0 27.771,29.782 C 27.282,29.904 26.86,30.399 26.635,30.994 C 26.567,30.756 26.445,30.582 26.271,30.479 C 26.141,30.401 25.914,30.328 25.585,30.423 C 24.345,30.78 22.904,33.082 23.255,34.673 C 23.295,34.853 23.352,35.008 23.427,35.143 C 22.997,34.824 22.442,34.67 21.781,34.693 C 22.84,33.963 23.781,32.822 23.307,31.413 C 22.97,30.412 22.22,29.802 21.023,29.556 C 21.403,29.154 21.943,28.859 22.667,28.662 L 22.905,28.598 L 22.827,28.365 L 22.767,28.188 L 22.694,27.97 L 22.47,28.04 A 8.71,8.71 0 0,0 20.923,28.707 C 20.683,28.832 20.446,28.979 20.203,29.154 C 20.323,25.332 21.105,18.66 23.355,17.895 C 23.67,17.787 23.95,17.785 24.165,17.889 C 24.363,17.989 24.514,18.179 24.61,18.459 C 24.758,18.892 24.551,19.368 24.084,19.671 L 23.801,19.855 L 24.076,20.053 L 24.186,20.132 L 24.3,20.214 L 24.428,20.149 C 25.491,19.608 26.345,18.326 25.932,17.12 C 25.597,16.142 24.761,15.775 23.694,16.136 C 20.897,17.088 19.977,23.407 19.75,25.459 C 18.993,24.356 17.26,21.752 16.773,20.333 C 16.605,19.843 16.618,19.292 16.813,18.597 L 16.933,18.173 L 16.515,18.315 C 15.726,18.584 15.182,19.012 14.897,19.588 C 14.587,20.216 14.592,21 14.907,21.924 C 14.95,22.046 14.997,22.152 15.049,22.26 C 15.002,22.587 14.955,22.944 14.905,23.323 C 14.505,26.396 13.899,31.04 11.121,31.985 C 10.601,32.162 10.182,32.115 9.954,31.864 C 10.373,31.578 10.507,31.12 10.32,30.574 C 10.109,29.958 9.502,29.666 8.876,29.88 C 8.125,30.135 7.816,30.88 8.11,31.737 C 8.27,32.206 8.607,32.587 9.058,32.807 C 9.601,33.072 10.282,33.09 10.973,32.854 C 14.414,31.684 15.133,26.693 15.562,23.712 C 15.587,23.535 15.612,23.363 15.638,23.197 C 16.448,24.253 18.519,27.054 19.123,28.816 C 19.21,29.069 19.283,29.284 19.353,29.507 C 18.555,29.61 17.529,29.854 16.595,30.164 C 13.985,31.038 11.527,33.034 10.478,35.129 C 9.876,36.335 9.751,37.549 10.118,38.645 C 10.626,40.15 12.048,40.891 13.5,40.407 C 15.937,39.594 16.374,37.223 15.749,35.367 C 15.446,34.467 15.021,34.037 14.571,33.581 L 14.508,33.517 L 14.356,33.365 L 14.192,33.504 L 13.867,33.778 L 14.053,33.955 C 14.537,34.415 14.94,35.005 15.106,35.496 C 15.502,36.68 15.477,38.633 14.159,39.074 C 12.949,39.477 12.45,38.424 12.291,37.95 C 11.829,36.577 12.041,35.078 12.889,33.734 C 13.737,32.391 15.116,31.344 16.773,30.791 C 17.662,30.494 18.343,30.414 18.809,30.408 C 17.127,32.27 16.651,34.988 16.229,37.404 C 15.748,40.162 15.332,42.543 13.352,43.063 C 12.76,43.218 12.454,43.131 12.219,42.716 C 12.544,42.397 12.635,42.016 12.49,41.586 A 1.132,1.132 0 0,0 11.924,40.909 C 11.638,40.766 11.294,40.754 10.932,40.875 C 10.588,40.99 10.323,41.215 10.169,41.525 C 10.003,41.856 9.98,42.257 10.105,42.629 C 10.59,44.072 12.302,44.232 13.687,43.768 C 15.932,43.018 17.14,41.775 17.86,40.269 C 17.873,40.361 17.895,40.451 17.926,40.544 C 18.333,41.752 19.891,41.793 20.777,41.536 C 22.122,41.146 23.297,40.203 23.92,39.016 C 24.398,38.104 24.502,37.132 24.213,36.273 A 2.596,2.596 0 0,0 23.86,35.579 C 24.143,35.729 24.499,35.745 24.917,35.624 C 25.787,35.372 26.673,34.547 27.154,33.987 C 27.211,34.127 27.259,34.28 27.297,34.476 C 27.309,34.539 27.334,34.668 27.449,34.742 C 27.497,34.772 27.575,34.802 27.682,34.775 C 27.839,34.735 27.952,34.577 28.212,34.167 L 28.313,34.008 L 29.233,32.62 C 29.303,32.516 29.371,32.405 29.44,32.287 C 29.43,32.464 29.436,32.637 29.463,32.804 C 29.533,33.232 29.706,33.543 29.977,33.728 C 30.257,33.919 30.623,33.968 31.07,33.872 C 31.71,33.737 32.318,33.263 32.754,32.845 L 32.706,33.23 L 32.667,33.536 L 34.055,33.302 L 34.225,33.275 L 34.247,33.104 C 34.327,32.482 34.52,31.248 34.589,31.017 C 34.612,30.95 34.633,30.866 34.66,30.767 C 34.738,30.48 34.967,29.624 35.219,29.52 C 35.258,29.685 35.333,29.863 35.491,29.98 C 35.63,30.083 35.805,30.118 36.011,30.083 C 36.065,30.074 36.112,30.057 36.159,30.04 A 4.514,4.514 0 0,0 35.821,32.082 C 35.851,32.485 36.029,32.709 36.174,32.825 C 36.39,33.001 36.693,33.074 37.027,33.03 A 2.525,2.525 0 0,0 38.518,32.257 A 0.82,0.82 0 0,0 38.608,32.469 A 0.658,0.658 0 0,0 39.094,32.773 C 39.371,32.815 39.539,32.826 39.642,32.814 C 40.116,32.752 40.5,32.508 40.769,32.314 C 40.927,32.412 41.157,32.48 41.487,32.426 C 41.858,32.366 42.232,32.188 42.554,31.936 C 42.181,33.088 41.714,34.092 41.396,34.143 C 41.308,34.157 41.284,34.161 41.209,33.8 L 41.206,33.786 C 41.166,33.58 41.07,33.1 40.406,33.206 C 40.006,33.27 39.776,33.732 39.818,34.106 C 39.858,34.44 40.002,34.711 40.234,34.889 C 40.501,35.089 40.862,35.154 41.306,35.084 C 42.658,34.866 43.611,33.631 44.139,31.414 L 44.183,31.217 C 44.253,31.431 44.367,31.605 44.52,31.737 C 44.775,31.957 45.135,32.051 45.585,32.013 C 46.873,31.906 47.952,30.643 47.929,30.293 A 0.309,0.309 0 0,0 47.83,30.067 A 0.276,0.276 0 0,0 47.634,30.007 H 47.639 Z M 20.942,31.74 C 21.434,33.204 20.747,34.55 19.055,35.435 C 19.299,33.857 19.568,32.241 20.243,30.768 C 20.566,30.98 20.792,31.293 20.943,31.74 Z M 21.465,39.781 C 21.218,40.274 20.88,40.614 20.514,40.736 C 20.302,40.806 20.028,40.823 19.919,40.503 C 19.774,40.069 20.031,39.506 20.199,39.209 L 20.308,39.014 L 20.114,38.898 A 1.615,1.615 0 0,0 18.338,39.024 C 18.613,38.122 18.783,37.159 18.939,36.17 L 19.259,35.994 C 19.784,35.709 20.335,35.642 20.77,35.812 C 21.19,35.976 21.5,36.342 21.688,36.902 C 21.98,37.774 21.89,38.931 21.465,39.782 Z M 25.215,31.594 C 25.253,31.803 25.229,32.01 24.866,32.349 C 24.995,31.799 25.119,31.629 25.214,31.594 Z M 25.426,34.344 C 25.236,34.399 25.089,34.399 24.994,34.342 C 24.897,34.285 24.824,34.156 24.781,33.958 A 2.273,2.273 0 0,1 24.746,33.624 C 24.744,33.604 24.741,33.587 24.74,33.567 C 25.188,33.329 26.065,32.754 26.467,32.045 C 26.474,32.125 26.483,32.205 26.497,32.282 C 26.591,32.767 26.715,33.085 26.834,33.337 C 26.508,33.648 25.919,34.203 25.428,34.342 L 25.426,34.344 Z M 31.596,29.869 C 31.623,30.077 31.589,30.283 31.198,30.6 C 31.368,30.027 31.511,29.89 31.595,29.869 Z M 37.662,31.738 C 37.599,31.745 37.572,31.737 37.568,31.732 C 37.562,31.728 37.521,31.689 37.505,31.471 C 37.446,30.679 37.858,29.503 38.334,29.097 C 38.449,28.999 38.547,28.964 38.63,28.987 C 38.732,29.018 38.833,29.145 38.893,29.309 C 38.657,30.477 38.165,31.672 37.663,31.739 L 37.662,31.738 Z M 42.052,31.163 A 0.085,0.085 0 0,1 42.033,31.166 A 1.045,1.045 0 0,1 41.995,30.969 C 41.929,30.398 42.19,28.959 42.572,28.493 C 42.626,28.43 42.678,28.389 42.712,28.386 C 42.875,28.373 43.014,28.41 43.147,28.611 C 42.806,30.81 42.269,31.13 42.053,31.163 Z M 46.501,28.101 C 46.509,28.313 46.456,28.511 46.011,28.784 C 46.285,28.142 46.476,28.102 46.501,28.101 Z" fill="rgb(254, 254, 253)"/>
</svg>
