<?xml version="1.0" encoding="UTF-8"?>
<!-- generated by Finnhub -->
<svg viewBox="0 0 55.5 55.5" xmlns="http://www.w3.org/2000/svg">
<path d="M 0,0 H 55.5 V 55.5 H 0 Z" fill="rgb(237, 45, 46)"/>
<path d="M 51.99,34.985 H 46.821 C 44.001,35 41.005,33.075 41,27.873 C 40.996,23.613 43.72,21 46.821,21 H 52 V 26 H 48 A 2,2 0 1,0 48,30 H 52 V 35 Z M 4,28 A 2,2 0 0,1 6,26 H 9 V 21 H 20 V 25 H 14 V 26 H 18 A 2,2 0 1,1 18,30 H 14 V 35 H 9 V 30 H 6 A 2,2 0 0,1 4,28 Z M 33,35 L 35,24.916 V 35 H 40 V 21 H 35.146 C 32.297,21 31.981,22.372 31.597,24.041 L 31.576,24.137 L 30.5,29 L 29.667,24.137 L 29.645,24.044 C 29.263,22.374 28.948,21 26.096,21 H 21 V 35 H 26 V 24.916 L 28,35 H 33 Z" fill="rgb(254, 254, 253)"/>
</svg>
