<?xml version="1.0" encoding="UTF-8"?>
<!-- generated by Finnhub -->
<svg viewBox="0 0 55.5 55.5" xmlns="http://www.w3.org/2000/svg">
<path d="M 0,0 H 55.5 V 55.5 H 0 Z" fill="rgb(1, 117, 227)"/>
<path d="M 19.549999999999997,26.115 C 19.26,25.84 18.32,25.96 16.52,26.06 C 16.88,24.54 17.13,23.21 17.8,22.18 C 20.89,22.35 24.68,22.79 29.04,22.78 C 37.6,22.75 37.68,19.54 37.68,19.54 C 34.03,20.6 29.03,20.28 25.24,19.94 C 20.49,19.49 15.74,18.39 11.81,19.44 C 7.17,20.7 6.72,24.17 6.89,25.66 C 8.75,23.2 11.27,22.32 14.49,22.14 A 20,20 0 0,1 15.45,22.11 C 14.86,22.73 14.41,23.71 13.94,25.23 L 13.64,26.19 C 9.67,26.54 8.9,28.37 9.13,28.85 C 9.37,29.35 10.78,28.69 12.53,28.49 L 12.86,28.46 C 12.18,30.25 11.42,31.52 10.2,32.27 C 8.34,33.41 6.39,32.88 6,32.57 C 6.15,34.65 9.26,35.79 11.9,34.33 C 14.02,33.17 15.24,30.39 15.9,28.31 C 16.49,28.31 17.07,28.29 17.65,28.25 C 19.25,28.15 19.95,26.5 19.55,26.13 Z M 51.56,23.79 A 0.62,0.62 0 0,0 50.77,24.21 A 0.65,0.65 0 0,0 50.8,24.67 C 50.2,25.22 49.65,25.63 49.35,25.54 C 48.98,25.41 49.26,24.38 49.63,23.44 A 0.68,0.68 0 0,0 50.39,22.96 A 0.7,0.7 0 0,0 49.94,22.08 A 0.68,0.68 0 0,0 49.08,22.53 A 0.7,0.7 0 0,0 49.26,23.24 C 48.76,24.15 48.26,24.94 47.81,24.8 H 47.79 C 47.34,24.65 47.37,23.7 47.49,22.67 A 0.69,0.69 0 0,0 48.04,22.19 A 0.7,0.7 0 0,0 47.6,21.31 A 0.68,0.68 0 0,0 46.74,21.76 A 0.7,0.7 0 0,0 47.07,22.6 C 46.84,23.58 46.47,24.6 46.1,24.47 C 45.81,24.37 45.6,23.72 45.42,22.92 A 0.64,0.64 0 0,0 45.74,22.29 A 0.65,0.65 0 0,0 45.31,21.74 A 0.62,0.62 0 0,0 44.51,22.16 A 0.65,0.65 0 0,0 44.75,22.88 A 0.6,0.6 0 0,0 45,22.98 L 45.1,25.68 L 49.48,27.11 L 51.1,24.98 A 0.62,0.62 0 0,0 51.97,24.6 A 0.64,0.64 0 0,0 51.57,23.8 Z" fill="rgb(254, 254, 253)"/>
<path d="M 46.54,31.285 C 45.74,32.74 44.58,33.48 43.96,32.95 C 43.34,32.41 43.5,30.79 44.31,29.35 C 45.12,27.89 46.28,27.15 46.9,27.69 C 47.51,28.23 47.36,29.84 46.55,31.29 Z M 45.45,26.3 S 44.41,26.7 43.69,27.39 C 43.44,27.62 43.2,27.87 42.99,28.14 A 7.8,7.8 0 0,0 41.87,30.21 S 41.45,31.1 41.14,31.54 C 40.84,31.98 40.28,32.39 40.05,32.54 C 39.79,32.67 39.52,32.77 39.24,32.86 C 37.39,33.4 37.04,32.06 37.46,31.42 C 37.61,31.19 38.63,30.4 39.34,29.81 C 40.69,28.67 41.62,27.95 42.26,27.29 C 42.94,26.6 42.5,26.22 41.98,26.13 C 40.67,25.9 40.07,26.25 39.68,26.58 C 39.23,26.98 36.48,30.32 36.48,30.32 S 40.95,21.61 41.68,20.11 C 42.28,18.87 39.38,18.71 38.58,20.48 C 38.12,21.51 34.92,28.98 34.53,29.91 C 33.81,31.61 33.77,31.87 33.41,32.16 V 32.18 L 33.38,32.19 C 33.03,32.49 32.55,32.74 32.23,32.74 C 32.03,32.74 31.92,32.62 31.89,32.38 C 31.85,32.14 31.89,31.84 31.97,31.46 A 18.3,18.3 0 0,1 32.81,29.15 L 33.11,28.45 A 42.56,42.56 0 0,0 33.47,27.55 C 33.58,27.11 33.56,26.72 33.45,26.46 C 33.33,26.21 33.13,26.09 32.84,26.09 C 32.54,26.09 32.27,26.17 32.01,26.32 C 31.73,26.48 31.47,26.66 31.21,26.98 A 30.15,30.15 0 0,0 30.07,28.44 A 64.8,64.8 0 0,0 28.97,29.87 H 28.8 L 28.89,29.62 L 29.06,29.19 A 83.48,83.48 0 0,0 29.68,27.59 C 29.73,27.43 29.78,27.31 29.79,27.22 C 29.87,26.9 29.87,26.63 29.79,26.44 C 29.72,26.24 29.53,26.14 29.21,26.14 C 28.89,26.14 28.61,26.24 28.39,26.42 C 28.16,26.6 27.97,26.84 27.85,27.11 A 46.15,46.15 0 0,0 25.9,32.18 C 25.48,32.39 25.05,32.58 24.6,32.71 C 24.43,32.76 24.22,32.8 24.1,32.67 C 24,32.57 24,32.42 24.01,32.28 C 24.08,31.58 24.38,30.92 24.66,30.27 C 25.14,29.17 25.59,28.07 26.01,26.95 C 26.06,26.81 26.11,26.65 26.06,26.52 C 25.99,26.29 25.73,26.22 25.5,26.18 C 25.01,26.12 24.45,26.17 24.13,26.55 C 24.03,26.68 23.96,26.84 23.89,26.99 L 22.26,30.74 C 21.92,31.53 21.5,32.39 20.7,32.67 C 20.56,32.72 20.4,32.75 20.27,32.69 C 20.1,32.61 20.01,32.41 20.01,32.22 C 20.01,32.02 20.08,31.84 20.16,31.67 L 21.99,27.17 C 22.03,27.09 22.19,26.7 22.19,26.52 A 0.32,0.32 0 0,0 22.02,26.24 C 21.59,26.04 21.07,26.17 20.69,26.44 C 20.08,26.87 19.74,27.57 19.44,28.24 C 19.11,28.97 18.77,29.71 18.47,30.46 C 18.12,31.32 17.75,32.16 17.57,33.06 C 17.47,33.53 17.49,34.13 17.82,34.46 C 18.04,34.68 18.36,34.75 18.67,34.76 C 19.9,34.8 21.06,34.14 21.96,33.28 C 21.99,33.74 22.06,34.26 22.43,34.51 C 22.67,34.67 22.97,34.67 23.25,34.64 A 6.2,6.2 0 0,0 24.91,34.18 C 25.13,34.09 25.35,34 25.57,33.89 C 25.57,33.99 25.57,34.09 25.6,34.17 C 25.63,34.34 25.71,34.48 25.83,34.59 C 25.95,34.69 26.13,34.75 26.38,34.75 C 26.57,34.75 26.75,34.7 26.92,34.61 C 27.09,34.52 27.26,34.35 27.44,34.11 L 30.88,29.45 H 31.02 C 30.84,29.89 30.68,30.34 30.52,30.79 C 30.38,31.17 30.26,31.56 30.16,31.95 A 4.97,4.97 0 0,0 29.99,34.03 C 30.09,34.51 30.31,34.75 30.63,34.75 S 31.27,34.7 31.59,34.61 A 6.16,6.16 0 0,0 33.15,33.91 L 33.12,34.21 C 33.12,34.47 33.15,34.52 33.27,34.64 C 33.38,34.74 33.51,34.76 33.76,34.76 C 33.95,34.76 34.01,34.74 34.18,34.62 C 34.34,34.5 34.9,33.65 35.34,33.04 L 35.58,32.74 C 35.42,33.49 35.76,34.59 36.78,34.76 C 37.79,34.92 39.42,34.69 41.52,33.04 C 41.56,33.27 41.62,33.49 41.69,33.69 C 41.84,34.08 42.09,34.39 42.41,34.64 C 42.74,34.88 43.17,35 43.71,35 C 44.09,35 44.46,34.93 44.83,34.8 C 45.2,34.67 45.55,34.49 45.88,34.27 C 46.22,34.03 46.54,33.77 46.82,33.47 A 7.56,7.56 0 0,0 48.9,28.29 S 48.86,27.44 48.75,27.36 C 48.63,27.28 45.45,26.3 45.45,26.3" fill="rgb(254, 254, 253)"/>
</svg>
