<?xml version="1.0" encoding="UTF-8"?>
<!-- generated by Finnhub -->
<svg viewBox="0 0 55.5 55.5" xmlns="http://www.w3.org/2000/svg">
<path d="M 0,0 H 55.5 V 55.5 H 0 Z" fill="rgb(64, 33, 152)"/>
<path d="M 27.994999999999997,11.985 A 16.47,16.47 0 0,0 25.04,12.268 L 30.295,32.29 L 40.343,17.818 A 15.94,15.94 0 0,0 28.005,12 Z M 18.649,15.03 C 14.623,17.928 12,22.656 12,27.994 C 12,35.004 16.497,40.961 22.768,43.122 L 28.346,35.087 L 18.649,15.028 Z M 43.529,24.089 L 31.255,35.947 L 33.149,43.16 C 39.465,41.017 44,35.042 44,28.005 C 44,26.647 43.843,25.335 43.529,24.089 Z M 29.565,37.59 L 23.572,43.38 C 24.976,43.787 26.472,43.999 28.005,43.999 A 16.13,16.13 0 0,0 32.364,43.399 L 29.565,37.589 Z" fill="rgb(254, 254, 253)"/>
</svg>
