<?xml version="1.0" encoding="UTF-8"?>
<!-- generated by Finnhub -->
<svg viewBox="0 0 55.5 55.5" xmlns="http://www.w3.org/2000/svg">
<path d="M 0,0 H 55.5 V 55.5 H 0 Z" fill="rgb(239, 242, 248)"/>
<path d="M 22.169999999999998,33.805 C 19.72,33.82 17.25,33.22 14.96,31.86 C 14.36,31.52 13.76,31.09 13.17,30.66 A 14.17,14.17 0 0,0 17.25,38.75 L 22.18,33.82 Z" fill="rgb(154, 100, 193)"/>
<path d="M 24.13,41.025 A 14.02,14.02 0 0,1 22.18,33.82 L 17.25,38.75 A 14.17,14.17 0 0,0 25.33,42.83 A 9.32,9.32 0 0,1 24.14,41.04 Z" fill="rgb(190, 98, 196)"/>
<path d="M 14.950000000000001,31.845 A 14.02,14.02 0 0,0 22.18,33.82 C 22.18,28.8 24.82,23.95 29.41,21.22 L 13.17,30.67 C 13.68,31.09 14.27,31.52 14.96,31.86 Z" fill="rgb(49, 119, 176)"/>
<path d="M 14.950000000000001,21.215 A 14.04,14.04 0 0,0 13.17,30.67 L 29.41,21.23 A 14.2,14.2 0 0,1 14.96,21.23 Z" fill="rgb(68, 163, 234)"/>
<path d="M 29.4,21.215 L 40.64,14.77 C 40.47,14.68 40.38,14.51 40.21,14.43 L 14.94,21.25 A 14.23,14.23 0 0,0 29.41,21.23 Z" fill="rgb(7, 198, 249)"/>
<path d="M 38.330000000000005,13.985 H 27.46 A 14.5,14.5 0 0,0 14.94,21.26 L 40.23,14.43 A 4.39,4.39 0 0,0 38.34,14 Z" fill="rgb(88, 241, 244)"/>
<path d="M 22.169999999999998,33.805 C 22.18,36.28 22.78,38.75 24.14,41.04 C 24.48,41.64 24.91,42.24 25.34,42.83 L 34.77,26.59 A 14.66,14.66 0 0,1 22.18,33.82 Z" fill="rgb(210, 59, 76)"/>
<path d="M 34.760000000000005,26.575 L 25.33,42.83 A 13.95,13.95 0 0,0 34.68,41.04 A 14.4,14.4 0 0,1 34.78,26.59 Z" fill="rgb(237, 89, 34)"/>
<path d="M 40.59,14.715 L 29.34,21.22 A 14.44,14.44 0 0,0 22.18,33.82 L 40.93,15.07 A 0.76,0.76 0 0,0 40.6,14.73 Z" fill="rgb(36, 192, 109)"/>
<path d="M 22.169999999999998,33.805 C 27.2,33.82 32.05,31.18 34.78,26.59 L 41.23,15.36 C 41.15,15.28 41.01,15.24 40.93,15.06 L 22.18,33.83 Z" fill="rgb(138, 222, 83)"/>
<path d="M 41.22,15.344999999999999 L 34.67,26.6 A 14.38,14.38 0 0,0 34.68,41.05 L 41.52,15.82 C 41.42,15.6 41.32,15.53 41.23,15.36 Z" fill="rgb(254, 186, 2)"/>
<path d="M 34.68,41.025 A 14.54,14.54 0 0,0 42,28.46 V 17.66 A 3.3,3.3 0 0,0 41.52,15.82 L 34.69,41.04 Z" fill="rgb(254, 167, 2)"/>
</svg>
