<?xml version="1.0" encoding="UTF-8"?>
<!-- generated by Finnhub -->
<svg viewBox="0 0 55.5 55.5" xmlns="http://www.w3.org/2000/svg">
<path d="M 0,0 H 55.5 V 55.5 H 0 Z" fill="rgb(239, 242, 248)"/>
<path d="M 29.99,20.485 A 8.5,8.5 0 1,1 13,20.5 A 8.5,8.5 0 0,1 30,20.5 Z" fill="rgb(211, 45, 34)"/>
<path d="M 10.99,27.75 S 17.13,31.049 22.081,30.918 C 25.168,30.836 27.305,30.224 29.807,29.675 C 32.309,29.127 36.001,28.335 38.344,28.414 C 40.497,28.486 44.797,29.664 47.999,33.085 C 47.999,33.085 44.234,29.875 38.021,29.959 C 38.021,29.959 35.047,30.022 30.224,31.263 C 24.38,32.767 21.246,32.46 21.246,32.46 S 15.09,32.452 11,27.765" fill="rgb(211, 45, 34)"/>
<path d="M 10.99,30.366 S 17.13,33.665 22.081,33.534 C 25.168,33.452 27.305,32.839 29.807,32.291 S 36.001,30.951 38.344,31.029 C 40.497,31.102 44.797,32.281 47.999,35.701 C 47.999,35.701 44.234,32.491 38.021,32.575 C 38.021,32.575 35.047,32.638 30.224,33.879 C 24.38,35.383 21.246,35.076 21.246,35.076 S 15.09,35.068 11,30.38" fill="rgb(211, 45, 34)"/>
<path d="M 11.99,40.985 H 13 V 39 H 15 V 38 H 13 V 36.63 H 15 V 36 H 12 V 41 Z M 17,35.74 H 16 V 36.504 H 17 V 35.741 Z M 16,41 H 17 V 37 H 16 V 41 Z M 17.716,41 H 18.676 V 39.222 C 18.676,38.241 19.095,37.664 19.872,37.664 C 20.02,37.664 20.196,37.68 20.352,37.734 V 37.054 C 20.168,37.022 20.038,37 19.779,37 C 19.279,37 18.871,37.291 18.639,37.697 H 18.621 V 37 H 17.716 V 41 Z" fill="rgb(114, 115, 117)"/>
<path d="M 20.508,40.839999999999996 L 20.472,40.835 L 20.53,40.05 L 20.625,40.1 C 20.955,40.273 21.435,40.36 21.675,40.36 C 21.868,40.36 22.078,40.328 22.237,40.249 C 22.394,40.171 22.493,40.055 22.493,39.884 C 22.493,39.751 22.397,39.642 22.209,39.534 A 4.301,4.301 0 0,0 21.682,39.302 L 21.515,39.235 C 21.259,39.132 20.995,39.015 20.794,38.851 C 20.59,38.686 20.448,38.471 20.448,38.176 C 20.448,37.754 20.645,37.438 20.962,37.232 C 21.277,37.027 21.709,36.93 22.184,36.93 C 22.599,36.93 22.938,36.999 23.282,37.082 L 23.343,37.096 L 23.25,37.871 L 23.16,37.826 A 2.077,2.077 0 0,0 22.724,37.699 A 2.666,2.666 0 0,0 22.276,37.639 C 22.061,37.639 21.864,37.676 21.725,37.746 C 21.587,37.816 21.514,37.912 21.514,38.034 C 21.514,38.19 21.614,38.304 21.797,38.407 C 21.941,38.487 22.121,38.553 22.315,38.625 L 22.491,38.69 C 22.747,38.787 23.012,38.902 23.214,39.073 A 0.922,0.922 0 0,1 23.558,39.809 C 23.558,40.245 23.342,40.563 23.018,40.769 C 22.698,40.975 22.271,41.069 21.841,41.069 C 21.395,41.069 20.929,41.033 20.518,40.854 Z" fill="rgb(114, 115, 117)"/>
<path d="M 26.669999999999998,36.994 H 25.483 V 35.999 L 24.488,36.225 V 37.009 H 23.602 V 37.686 H 24.488 V 39.931 C 24.488,40.699 25.115,41.045 26.013,41.045 C 26.29,41.045 26.559,40.985 26.753,40.94 V 40.337 C 26.623,40.405 26.43,40.473 26.161,40.473 C 25.763,40.473 25.483,40.232 25.483,39.788 V 37.686 H 26.679 V 37.009 Z" fill="rgb(114, 115, 117)"/>
<path d="M 32.57,35.896 L 32.642,35.928 L 32.485,36.731 L 32.411,36.709 C 31.941,36.565 31.691,36.503 31.219,36.503 C 30.964,36.503 30.694,36.539 30.49,36.634 C 30.29,36.728 30.16,36.874 30.16,37.102 C 30.16,37.302 30.302,37.452 30.557,37.59 C 30.743,37.69 30.973,37.777 31.221,37.87 C 31.313,37.904 31.408,37.94 31.504,37.978 C 31.852,38.114 32.208,38.275 32.479,38.511 C 32.752,38.749 32.936,39.064 32.936,39.502 C 32.936,40.068 32.654,40.464 32.206,40.715 C 31.764,40.963 31.16,41.07 30.506,41.07 C 30.044,41.07 29.592,40.967 29.166,40.86 L 29.106,40.844 L 29.218,40.029 L 29.298,40.054 C 29.61,40.154 30.157,40.296 30.618,40.296 C 30.873,40.296 31.178,40.24 31.417,40.116 C 31.654,39.991 31.815,39.805 31.815,39.545 C 31.815,39.3 31.667,39.127 31.415,38.979 C 31.205,38.855 30.934,38.756 30.645,38.65 L 30.473,38.586 C 30.126,38.457 29.769,38.311 29.499,38.095 C 29.226,37.875 29.039,37.583 29.039,37.167 C 29.039,36.693 29.282,36.33 29.672,36.089 C 30.059,35.849 30.591,35.729 31.182,35.729 C 31.613,35.729 32.128,35.787 32.58,35.911 Z M 35.67,41.07 C 34.216,41.07 33.194,40.142 33.194,39 C 33.194,38.399 33.444,37.879 33.88,37.511 C 34.316,37.144 34.935,36.931 35.67,36.931 C 36.4,36.931 37.016,37.144 37.451,37.511 C 37.886,37.879 38.136,38.399 38.136,39.001 C 38.136,40.141 37.114,41.071 35.67,41.071 Z M 35.67,37.64 C 34.777,37.64 34.26,38.309 34.26,39 C 34.26,39.326 34.368,39.667 34.597,39.925 C 34.824,40.181 35.175,40.361 35.67,40.361 C 36.16,40.361 36.508,40.181 36.734,39.925 C 36.962,39.667 37.071,39.326 37.071,39 C 37.071,38.308 36.552,37.64 35.67,37.64 Z" fill="rgb(114, 115, 117)"/>
<path d="M 38.488,40.985 H 39.498 V 35.5 H 38.498 V 41 Z" fill="rgb(114, 115, 117)"/>
<path d="M 40.522,38.119 L 40.434,38.199 L 40.374,37.456 L 40.419,37.436 C 40.861,37.23 41.389,37.083 42.003,37.083 C 42.685,37.083 43.203,37.213 43.553,37.483 C 43.906,37.753 44,38.156 44,38.673 V 40.193 C 44,40.611 44.013,40.898 44.03,41 H 43 V 40.588 C 42.75,40.81 42.347,41.07 41.642,41.07 C 41.127,41.07 40.679,40.983 40.358,40.787 A 1.034,1.034 0 0,1 39.841,39.855 C 39.841,39.352 40.196,39.031 40.644,38.839 C 41.091,38.647 41.65,38.574 42.104,38.574 C 42.421,38.574 42.698,38.574 43,38.586 A 0.831,0.831 0 0,0 42.71,37.994 C 42.555,37.851 42.292,37.771 41.864,37.771 C 41.384,37.771 40.871,37.911 40.532,38.134 Z M 41.716,40.382 C 42.136,40.382 42.439,40.281 42.636,40.121 C 42.832,39.962 43,39.741 43,39.487 V 39.232 A 15.675,15.675 0 0,1 42.734,39.226 C 42.649,39.222 42.565,39.219 42.474,39.219 C 42.24,39.219 41.838,39.233 41.497,39.326 C 41.327,39.373 41.177,39.437 41.071,39.525 A 0.412,0.412 0 0,0 40.907,39.855 C 40.907,40.015 41.005,40.145 41.163,40.239 C 41.32,40.333 41.528,40.382 41.716,40.382 Z" fill="rgb(114, 115, 117)"/>
<path d="M 44.99,40.985 H 46 V 39.222 C 46,38.241 46.378,37.628 47.156,37.628 C 47.304,37.628 47.479,37.643 47.636,37.698 V 37.053 C 47.452,37.023 47.322,37 47.064,37 C 46.564,37 46.232,37.291 46,37.697 V 37 H 45 V 41 Z" fill="rgb(114, 115, 117)"/>
</svg>
