<?xml version="1.0" encoding="UTF-8"?>
<!-- generated by Finnhub -->
<svg viewBox="0 0 55.5 55.5" xmlns="http://www.w3.org/2000/svg">
<path d="M 0,0 H 55.5 V 55.5 H 0 Z" fill="rgb(254, 39, 43)"/>
<path d="M 37.99,21.844 V 34.06 H 42 V 32 H 41 V 20 H 38 V 21.859 Z M 5,32 H 6 V 25.982 H 5 V 24.362 L 6,24 V 22.847 C 6,20.86 6.722,20 9.32,20 C 9.882,20 10.547,20.08 11.13,20.183 L 10.784,22.178 A 4.817,4.817 0 0,0 9.944,22.107 C 9.029,22.107 9,22.196 9,23.067 V 24 H 11 V 25.982 H 9 V 32 H 10 V 34 H 5 V 32 Z M 36.454,31.607 C 36.06,31.687 35.715,31.678 35.466,31.684 C 35,31.684 35,31.377 35,30.425 V 26 H 37 V 24 H 35 V 20 H 32 V 30.934 C 32,33.081 32.544,34.06 34.914,34.06 C 35.475,34.06 36.246,33.92 36.828,33.798 L 36.454,31.607 Z M 28.787,26.306 V 25.98 C 28.024,25.844 27.267,25.842 26.857,25.842 C 25.685,25.842 25.542,26.448 25.542,26.776 C 25.542,27.241 25.704,27.492 26.975,27.763 C 28.831,28.169 30.695,28.593 30.695,30.835 C 30.695,32.962 29.572,34.061 27.207,34.061 C 25.625,34.061 24.089,33.73 22.917,33.441 V 31.607 H 24.825 L 24.824,31.933 C 25.644,32.087 26.505,32.072 26.954,32.072 C 28.205,32.072 28.408,31.417 28.408,31.069 C 28.408,30.585 28.049,30.353 26.877,30.122 C 24.669,29.754 22.916,29.02 22.916,26.834 C 22.916,24.765 24.336,23.954 26.701,23.954 C 28.303,23.954 29.521,24.196 30.694,24.486 V 26.306 H 28.787 Z M 17.197,27.917 L 17.005,27.73 L 16.031,28.557 A 0.475,0.475 0 1,0 15.875,29.482 A 0.476,0.476 0 0,0 16.328,28.862 L 17.197,27.917 Z M 48,24 H 53 V 26 H 51.82 L 48.79,33.81 C 47.922,36.025 46.496,38.11 44.325,38.11 C 43.791,38.11 43.08,38.048 42.587,37.922 L 42.803,35.622 C 43.12,35.685 43.534,35.726 43.751,35.726 C 44.759,35.726 45.895,35.066 46.25,33.916 L 43.18,26 H 42 V 24 H 47 V 26 H 45.761 L 47.501,30.452 L 49.238,26 H 48 V 24 Z" fill="rgb(254, 254, 253)"/>
<path d="M 14.99,21.985 H 14 V 23.013 H 15 V 24.055 H 14.884 C 12.474,24.487 10.648,26.542 10.648,29.015 C 10.648,31.801 12.967,34.06 15.827,34.06 C 16.803,34.06 17.715,33.796 18.495,33.339 L 18.948,34 H 22 V 32 H 21.007 L 21.006,24 H 18.486 V 24.686 A 5.226,5.226 0 0,0 17,24.1 V 23.012 H 18 V 22 H 15 Z M 15.977,31.602 V 31.313 H 15.676 V 31.601 C 14.324,31.524 13.242,30.466 13.172,29.146 H 13.472 V 28.852 H 13.173 C 13.253,27.542 14.33,26.494 15.676,26.417 V 26.707 H 15.977 V 26.417 C 17.303,26.485 18.372,27.499 18.487,28.779 V 28.863 H 18.185 V 29.157 H 18.487 V 29.237 C 18.372,30.518 17.304,31.533 15.977,31.602 Z" fill="rgb(254, 254, 253)"/>
</svg>
