<?xml version="1.0" encoding="UTF-8"?>
<!-- generated by Finnhub -->
<svg viewBox="0 0 55.5 55.5" xmlns="http://www.w3.org/2000/svg">
<path d="M 0,0 H 55.5 V 55.5 H 0 Z" fill="red"/>
<path d="M 42.068000000000005,40.985 C 44.073,40.314 45.625,37.989 45.998,35.064 V 34 H 36 V 41 H 42.078 Z M 45.999,22 V 21.02 C 45.607,17.969 43.939,15.565 41.813,15 H 36 V 22 H 46 Z M 10,34 V 35.057 C 10.37,37.984 11.923,40.314 13.923,41 H 20 V 34 H 10 Z M 14.185,15 C 12.062,15.566 10.389,17.971 10.001,21.026 V 22 H 20 V 15 H 14.185 Z M 46,25 H 36 V 31 H 46 V 25 Z M 22.982,41 L 33,41.011 V 34.012 L 22.982,34 V 41 Z M 32.987,15 H 23 V 22 H 32.987 V 15 Z M 10,31 H 20 V 25 H 10 V 31 Z" fill="rgb(254, 254, 253)"/>
</svg>
