<?xml version="1.0" encoding="UTF-8"?>
<!-- generated by Finnhub -->
<svg viewBox="0 0 55.5 55.5" xmlns="http://www.w3.org/2000/svg">
<path d="M 0,0 H 55.5 V 55.5 H 0 Z" fill="rgb(249, 68, 20)"/>
<path d="M 7.99,26.985 L 8.608,24.51 L 10.072,24.541 C 10.516,21.83 12.34,20.677 15.482,21.086 L 15.002,23.566 L 13.822,23.546 C 13.238,23.567 12.944,23.99 12.857,24.541 L 14.387,24.531 L 13.887,27 H 12.325 L 10.742,35 H 8 L 9.553,27 H 8 Z M 15.266,24 H 18.149 L 17.046,29.848 C 16.828,31.019 16.598,32.318 18.029,32.563 C 18.426,32.619 18.835,32.563 19.221,32.387 C 20.386,31.855 20.669,30.73 20.905,29.6 L 22.005,24 H 24.769 L 22.649,35 H 20.115 L 20.225,34.214 C 18.539,35.297 16.49,35.152 15.267,34.364 C 14.079,33.548 13.809,32.119 14.107,30.309 L 15.265,24 Z M 23.586,35 L 26.296,21 H 29.016 L 28.284,24.77 C 29.663,23.937 31.659,23.989 33.078,24.7 C 33.734,25.028 34.375,25.583 34.77,26.191 C 35.346,27.076 35.471,28.171 35.493,29.69 C 35.583,31.212 36.58,32.676 38.446,32.395 C 39.506,32.235 40.344,31.711 40.804,30.743 C 41.397,29.495 41.176,27.909 40.386,27.23 C 39.465,26.435 37.496,26.28 36.476,27.592 C 36.28,26.69 36.001,25.836 35.383,25.09 C 37.839,23.253 41.812,23.886 43.273,26.479 C 44.156,28.045 44.097,30.128 43.256,31.815 A 5.726,5.726 0 0,1 39.707,34.77 C 38.38,35.146 36.945,35.051 35.771,34.558 C 34.795,34.148 33.877,33.346 33.413,32.402 C 32.631,30.816 33.529,29.342 32.413,27.571 C 31.749,26.714 30.397,26.431 29.27,26.873 C 28.317,27.245 27.665,28.103 27.454,29.071 C 27.221,30.143 27.454,31.38 28.349,32.001 C 29.303,32.717 31.153,32.571 32.096,31.372 C 32.214,32.3 32.523,33.166 33.254,33.895 C 31.928,35.049 28.124,35.627 26.46,33.875 L 26.296,35 H 23.586 Z M 43.258,21 H 47.975 L 48.244,23.726 L 49.834,21 H 51 L 48.434,25 L 47.448,25.003 L 46.94,22 H 45.287 L 44.502,25 L 43.416,25.003 L 44.19,22 H 43 L 43.258,21 Z" fill="rgb(254, 254, 253)"/>
</svg>
