<?xml version="1.0" encoding="UTF-8"?>
<!-- generated by Finnhub -->
<svg viewBox="0 0 55.5 55.5" xmlns="http://www.w3.org/2000/svg">
<path d="M 0,0 H 55.5 V 55.5 H 0 Z" fill="rgb(8, 93, 201)"/>
<path d="M 40.940000000000005,12.985 H 15.03 A 2.04,2.04 0 0,0 13,15.04 V 40.96 A 2.04,2.04 0 0,0 15.04,43 H 40.96 A 2.04,2.04 0 0,0 43,40.96 V 15.04 A 2.04,2.04 0 0,0 40.95,13 Z M 33,32.33 C 33,32.69 32.7,33 32.33,33 H 28.67 A 0.68,0.68 0 0,1 28,32.33 V 28.67 C 28,28.31 28.3,28 28.67,28 H 32.33 C 32.68,28 33,28.3 33,28.66 V 32.33 Z M 38,22.35 C 38,22.7 37.68,23 37.33,23 H 26.73 A 3.78,3.78 0 0,0 23,26.75 V 37.35 C 23,37.72 22.69,38 22.33,38 H 18.66 A 0.65,0.65 0 0,1 18,37.36 V 25.49 A 7.47,7.47 0 0,1 25.47,18 H 37.34 A 0.7,0.7 0 0,1 38,18.68 V 22.35 Z" fill="rgb(254, 254, 253)"/>
</svg>
