<?xml version="1.0" encoding="UTF-8"?>
<!-- generated by Finnhub -->
<svg viewBox="0 0 55.5 55.5" xmlns="http://www.w3.org/2000/svg">
<path d="M 0,0 H 55.5 V 55.5 H 0 Z" fill="rgb(17, 34, 66)"/>
<path d="M 40.5,15.985 H 36 V 17 H 37.017 V 38.35 C 36.987,38.813 36.813,39 36.115,39 H 36 V 40 H 41 V 39 H 40.217 C 39.402,39 39.029,38.668 39,37.944 V 30 H 40.83 C 42.867,30 44,28.855 44,27.552 V 18.665 C 44,17.362 43.041,16 40.51,16 Z M 41.942,22.834 V 27.639 C 41.942,28.362 41.529,29.029 40.627,29 H 39 V 17 H 40.51 C 41.325,17 41.942,17.535 41.942,18.346 V 22.833 Z M 16,30 H 17 V 38.118 C 17.03,38.842 15.985,39.45 15.258,39.478 H 15.229 C 14.502,39.478 14,38.871 14,38.118 V 18.345 C 14,17.795 14.356,16.521 15.287,16.55 C 16.044,16.55 16.5,17.245 16.733,18.316 C 16.995,19.416 17.313,21.273 17.51,23.479 C 17.51,23.856 17.655,24 18.063,24 H 19 V 16 H 18 V 16.55 C 18,16.926 17.797,16.898 17.594,16.782 C 16.895,16.319 15.811,16 15.054,16 C 13.804,16 12,16.55 12,18.924 V 36.381 C 12.03,39.421 13.63,39.971 15.23,40 C 16.45,40 17.488,39.363 17.954,39.132 C 18.274,38.987 18.507,39.537 18.507,40 H 19 V 30 H 20 V 29 H 16 V 30 Z M 26.73,29 L 27.865,19.503 L 29.145,29 H 26.731 Z M 32.316,38.024 L 29.582,16 H 27.429 L 24.695,38.082 C 24.549,38.777 24.047,38.942 23,39 V 40 H 27 V 39 C 26.622,39.029 26.09,38.98 25.8,38.748 A 0.708,0.708 0 0,1 25.625,38.284 L 26.644,30 H 29.262 L 30.338,38.284 C 30.338,38.834 30.28,38.971 29.611,39 H 29 V 40 H 34 V 39 H 33.48 C 32.636,39 32.375,38.545 32.316,38.024 Z" fill="rgb(254, 254, 253)"/>
</svg>
