<?xml version="1.0" encoding="UTF-8"?>
<!-- generated by Finnhub -->
<svg viewBox="0 0 55.5 55.5" xmlns="http://www.w3.org/2000/svg">
<path d="M 0,0 H 55.5 V 55.5 H 0 Z" fill="rgb(25, 71, 152)"/>
<path d="M 43.538000000000004,19.985 H 30 V 36 H 44.362 C 49.872,36 51,32.77 51,28 S 48.9,20 43.548,20 Z M 43,32 H 34 V 24 H 43.29 C 45.82,24 46,25.903 46,28 C 46,29.92 45.959,32 43,32 Z M 5,28 C 5,31.71 5.769,36 11.64,36 H 26 V 26 H 15 V 30 H 22 V 32 H 12.585 C 10,32 10,28.948 10,28 C 10,25.637 10.125,24 12.383,24 H 25.999 V 20 H 12.451 C 7.101,20 5,23.23 5,28 Z" fill="rgb(254, 254, 253)"/>
</svg>
