<?xml version="1.0" encoding="UTF-8"?>
<!-- generated by Finnhub -->
<svg viewBox="0 0 55.5 55.5" xmlns="http://www.w3.org/2000/svg">
<path d="M 0,0 H 55.5 V 55.5 H 0 Z" fill="rgb(1, 165, 61)"/>
<path d="M 24.703999999999997,27.965 C 24.714,26.848 23.952,25.885 22.871,25.885 H 21.35 V 30.115 H 22.872 C 23.954,30.157 24.715,29.11 24.715,27.979 Z M 26.797,27.98 C 26.797,30.364 25.194,32 22.911,32 H 19.626 A 0.263,0.263 0 0,1 19.426,31.916 A 0.288,0.288 0 0,1 19.346,31.706 V 24.294 A 0.296,0.296 0 0,1 19.426,24.084 A 0.273,0.273 0 0,1 19.626,24 H 22.911 C 25.192,24 26.797,25.592 26.797,27.98 Z M 36.293,30.14 C 36.588,30.133 36.87,30.006 37.079,29.785 C 37.289,29.565 37.409,29.267 37.415,28.955 C 37.415,28.8 37.386,28.645 37.33,28.502 A 1.188,1.188 0 0,0 37.087,28.117 A 1.118,1.118 0 0,0 36.722,27.861 A 1.068,1.068 0 0,0 36.292,27.771 A 1.118,1.118 0 0,0 35.507,28.125 C 35.297,28.346 35.177,28.643 35.171,28.955 C 35.211,29.59 35.691,30.14 36.293,30.14 Z M 35.973,26 C 36.653,26 37.175,26.163 37.415,26.502 V 24.253 A 0.254,0.254 0 0,1 37.482,24.071 A 0.23,0.23 0 0,1 37.655,24 H 39.057 A 0.222,0.222 0 0,1 39.23,24.071 A 0.246,0.246 0 0,1 39.297,24.253 L 39.265,31.745 A 0.256,0.256 0 0,1 39.198,31.927 A 0.22,0.22 0 0,1 39.026,31.998 H 37.624 A 0.22,0.22 0 0,1 37.451,31.928 A 0.246,0.246 0 0,1 37.384,31.745 L 37.416,31.365 A 1.848,1.848 0 0,1 36.78,31.843 C 36.538,31.953 36.276,32.006 36.013,32 C 34.611,32 33.289,30.816 33.289,28.955 C 33.289,27.095 34.611,26.001 35.972,26.001 M 50.274,32.985 C 49.921,34.283 49.137,35 47.921,35 C 47.254,35 46.588,34.732 46.196,34.328 A 0.384,0.384 0 0,1 46.114,34.208 A 0.428,0.428 0 0,1 46.079,34.06 A 0.696,0.696 0 0,1 46.157,33.792 L 46.667,32.896 A 0.28,0.28 0 0,1 46.769,32.794 A 0.238,0.238 0 0,1 46.902,32.764 C 47.019,32.764 47.059,32.808 47.176,32.897 C 47.356,33.058 47.576,33.152 47.804,33.166 A 0.544,0.544 0 0,0 48.161,33.054 A 0.676,0.676 0 0,0 48.391,32.722 L 48.549,32.095 H 47.726 A 0.312,0.312 0 0,1 47.521,32.001 A 0.397,0.397 0 0,1 47.412,31.781 L 46.04,26.49 A 0.89,0.89 0 0,1 46.001,26.222 C 46.001,26.088 46.08,26 46.236,26 H 47.843 C 48.001,26 48.078,26.134 48.118,26.314 L 49.02,30.12 H 49.097 L 49.841,26.314 C 49.88,26.18 49.959,26 50.116,26 H 51.766 C 51.923,26 52.001,26.09 52.001,26.222 A 0.887,0.887 0 0,1 51.962,26.49 L 50.275,32.985 Z M 10.646,30.76 C 9.966,31.679 8.884,31.999 7.922,31.999 C 5.641,31.999 3.995,30.316 3.995,27.999 C 3.995,25.759 5.798,23.999 8.122,23.999 C 9.845,23.999 11.248,24.719 11.892,26.119 C 11.972,26.279 12.012,26.559 11.571,26.639 L 10.329,26.836 A 0.46,0.46 0 0,1 9.849,26.638 A 2.082,2.082 0 0,0 8.206,25.798 C 6.964,25.798 6.123,26.718 6.123,27.958 C 6.123,29.318 7.124,30.118 8.206,30.118 C 8.926,30.118 9.528,29.838 9.928,29.358 H 8.846 A 0.274,0.274 0 0,1 8.566,29.077 V 28.037 A 0.273,0.273 0 0,1 8.846,27.757 H 12.172 A 0.272,0.272 0 0,1 12.452,28.037 V 31.72 A 0.275,0.275 0 0,1 12.172,32 H 11.01 A 0.272,0.272 0 0,1 10.73,31.72 V 30.757 M 42.584,30.14 C 42.88,30.133 43.162,30.006 43.371,29.785 C 43.58,29.565 43.7,29.267 43.706,28.955 C 43.706,28.8 43.678,28.645 43.621,28.502 A 1.19,1.19 0 0,0 43.378,28.117 A 1.118,1.118 0 0,0 43.014,27.861 A 1.068,1.068 0 0,0 42.584,27.771 A 1.118,1.118 0 0,0 41.798,28.125 C 41.589,28.346 41.469,28.643 41.463,28.955 C 41.503,29.59 41.983,30.14 42.584,30.14 Z M 42.264,26 C 42.945,26 43.466,26.163 43.706,26.502 V 24.253 A 0.256,0.256 0 0,1 43.774,24.071 A 0.23,0.23 0 0,1 43.946,24 H 45.349 A 0.222,0.222 0 0,1 45.521,24.071 A 0.246,0.246 0 0,1 45.589,24.253 L 45.557,31.745 A 0.256,0.256 0 0,1 45.489,31.927 A 0.22,0.22 0 0,1 45.316,31.998 H 43.916 A 0.22,0.22 0 0,1 43.743,31.928 A 0.245,0.245 0 0,1 43.675,31.745 L 43.707,31.365 A 1.847,1.847 0 0,1 43.071,31.843 C 42.829,31.953 42.568,32.006 42.305,32 C 40.902,32 39.58,30.816 39.58,28.955 C 39.58,27.095 40.902,26.001 42.264,26.001 M 17.152,28.997 C 17.152,28.842 17.123,28.687 17.067,28.544 A 1.19,1.19 0 0,0 16.824,28.159 A 1.118,1.118 0 0,0 16.459,27.903 A 1.069,1.069 0 0,0 16.029,27.813 A 1.118,1.118 0 0,0 15.244,28.167 C 15.034,28.387 14.914,28.685 14.908,28.997 C 14.908,29.311 15.026,29.612 15.237,29.834 C 15.447,30.057 15.732,30.181 16.03,30.181 C 16.327,30.181 16.613,30.057 16.823,29.834 C 17.033,29.612 17.152,29.311 17.152,28.997 Z M 19.075,28.997 C 19.075,30.689 17.713,32 16.03,32 C 14.347,32 12.985,30.646 12.985,28.997 C 12.985,27.305 14.347,26 16.03,26 C 17.753,26 19.075,27.306 19.075,28.997 Z M 30.003,30.14 C 30.298,30.134 30.58,30.007 30.789,29.786 C 30.998,29.566 31.119,29.268 31.124,28.956 C 31.124,28.801 31.096,28.646 31.04,28.503 A 1.19,1.19 0 0,0 30.797,28.118 A 1.118,1.118 0 0,0 30.432,27.862 A 1.067,1.067 0 0,0 30.002,27.772 A 1.118,1.118 0 0,0 29.217,28.126 C 29.007,28.347 28.887,28.644 28.881,28.956 C 28.921,29.591 29.401,30.14 30.003,30.14 Z M 29.723,26 C 30.363,26 30.883,26.164 31.125,26.545 V 26.375 A 0.304,0.304 0 0,1 31.205,26.164 A 0.273,0.273 0 0,1 31.405,26.079 H 32.76 A 0.22,0.22 0 0,1 32.932,26.15 A 0.246,0.246 0 0,1 33,26.333 V 31.535 A 0.255,0.255 0 0,1 32.932,31.717 A 0.23,0.23 0 0,1 32.76,31.789 H 31.405 A 0.22,0.22 0 0,1 31.233,31.717 A 0.245,0.245 0 0,1 31.165,31.535 V 31.365 C 30.925,31.704 30.405,32 29.763,32 C 28.36,32 27.038,30.816 27.038,28.955 C 27.038,27.095 28.321,26 29.722,26 Z" fill="rgb(254, 254, 253)"/>
</svg>
