<?xml version="1.0" encoding="UTF-8"?>
<!-- generated by Finnhub -->
<svg viewBox="0 0 55.5 55.5" xmlns="http://www.w3.org/2000/svg">
<path d="M 0,0 H 55.5 V 55.5 H 0 Z" fill="rgb(58, 114, 183)"/>
<path d="M 42.074000000000005,35.585 A 15.93,15.93 0 0,0 44,28 C 44,19.209 36.837,12 28.001,12 C 19.163,12 12,19.16 12,28.001 C 12,36.839 19.163,44 28.001,44 C 30.751,44 33.339,43.306 35.599,42.084 A 16.531,16.531 0 0,0 42.085,35.599 Z M 31.917,23.7 C 31.917,21.79 33.209,19.938 33.915,20.287 C 34.719,20.69 33.312,22.489 31.917,23.7 Z M 23.127,24.395 C 23.127,22.86 24.642,19.943 25.567,20.252 C 26.661,20.616 24.661,23.558 23.127,24.395 Z M 20.428,34.218 C 20.428,34.961 20.838,35.631 21.535,35.599 C 23.925,35.492 24.923,32.076 25.295,29.286 C 23.201,30.311 20.428,32.22 20.428,34.218 Z M 31.592,31.423 C 31.592,30.028 32.8,28.865 34.382,28.865 C 36.429,28.865 37.499,30.631 37.5,32.536 C 37.5,34.63 35.63,37.041 32.98,37.041 C 29.768,37.041 28.197,34.118 28.197,31.7 C 28.197,28.305 30.523,26.862 31.499,26.35 C 31.314,26.21 31.174,26.025 31.035,25.793 C 29.918,26.585 28.903,27.283 26.766,28.494 C 26.671,29.984 26.522,31.609 26.151,32.724 C 25.304,35.322 23.674,37.042 21.536,37.042 C 19.722,37.042 18.896,35.516 18.896,34.119 C 18.896,33.097 19.5,31.796 20.567,30.817 C 21.831,29.684 23.218,28.96 25.073,27.992 L 25.453,27.792 C 25.501,27.515 25.546,27.235 25.591,26.91 C 25.079,27.374 24.336,27.56 23.73,27.56 C 22.754,27.56 21.964,26.723 21.778,25.838 C 20.476,25.747 19.5,24.814 19.452,23.326 C 19.452,22.256 19.872,21.326 20.567,21.326 C 20.847,21.326 20.941,21.557 20.941,21.744 C 20.941,21.81 20.911,21.93 20.873,22.084 C 20.805,22.362 20.709,22.75 20.709,23.139 C 20.709,23.744 20.986,24.534 21.733,24.534 C 21.733,22.118 23.498,19 25.591,19 C 26.986,19 27,20.025 27,20.489 C 27,22.675 24.986,25.094 23.218,25.699 C 23.265,25.886 23.452,26.399 24.009,26.399 C 24.709,26.399 25.546,25.747 25.965,25.233 C 26.151,24.256 26.848,22.859 27.776,22.859 C 28.152,22.859 28.336,23.139 28.336,23.465 C 28.336,24.163 27.571,25.07 27.014,25.675 C 26.877,26.355 26.834,26.881 26.834,27.085 C 28.46,26.108 29.36,25.557 30.571,24.675 C 30.475,24.349 30.475,23.975 30.475,23.605 C 30.475,21.419 31.917,19 33.825,19 C 34.895,19 35.453,19.744 35.453,20.581 C 35.453,22.163 34.105,23.557 32.197,25.001 C 32.337,25.371 32.561,25.692 32.885,25.857 C 32.885,25.857 33.508,25.634 34.125,25.659 C 34.681,25.679 35.449,25.879 35.488,26.395 C 35.568,27.529 33.09,27.128 32.907,27.098 C 32.9,27.098 32.897,27.096 32.897,27.096 C 31.872,27.374 30,28.536 30,31.516 C 30,33.516 31.117,35.599 33.072,35.599 C 34.558,35.599 35.882,34.179 35.927,32.456 C 35.927,31.341 35.406,30.26 34.29,30.26 C 33.732,30.26 33.17,30.66 33.13,31.255 C 33.096,31.76 33.332,32.029 33.546,32.273 C 33.716,32.467 33.872,32.645 33.872,32.913 C 33.872,33.329 33.547,33.516 33.218,33.516 C 32.291,33.516 31.592,32.586 31.592,31.423 Z M 42.143,32.806 C 42.196,32.823 42.223,32.804 42.229,32.789 C 42.237,32.772 43.002,30.717 42.975,28.001 C 42.925,22.697 40.278,17.208 34.462,15.441 C 33.254,15.067 32.229,14.837 31.069,14.837 C 29.465,14.837 28.781,15.38 28.227,15.819 C 27.849,16.119 27.53,16.371 27.021,16.371 C 26.325,16.371 25.858,15.859 25.858,15.256 C 25.858,14.185 27.115,13.347 29.115,13.35 C 31.065,13.35 32.413,13.84 32.657,13.93 L 32.697,13.943 C 32.71,13.946 32.739,13.941 32.759,13.896 C 32.773,13.858 32.759,13.826 32.745,13.814 C 32.661,13.748 30.486,13.004 28,13.023 C 22.65,13.064 17.208,15.768 15.44,21.536 C 15.069,22.744 14.834,23.768 14.834,24.931 C 14.834,26.535 15.377,27.234 15.817,27.802 C 16.117,28.19 16.37,28.516 16.37,29.026 A 1.1,1.1 0 0,1 15.255,30.142 C 14.185,30.142 13.348,28.933 13.348,26.885 C 13.348,26.383 13.384,25.908 13.437,25.477 C 13.573,24.372 13.825,23.558 13.893,23.337 L 13.903,23.305 C 13.905,23.293 13.896,23.259 13.855,23.245 C 13.815,23.231 13.782,23.245 13.772,23.259 C 13.761,23.279 13.023,25.373 13.022,28.002 C 13.019,33.397 15.765,38.838 21.535,40.605 C 22.743,40.978 23.767,41.211 24.93,41.211 C 26.533,41.211 27.217,40.651 27.771,40.199 C 28.151,39.889 28.469,39.629 28.978,39.629 C 29.628,39.629 30.141,40.141 30.141,40.792 C 30.141,41.816 28.931,42.653 26.885,42.653 C 25.023,42.653 23.519,42.18 23.307,42.098 C 23.287,42.088 23.25,42.112 23.238,42.143 C 23.221,42.184 23.241,42.225 23.262,42.237 C 23.783,42.471 25.535,42.978 28.002,42.978 C 33.348,42.978 38.837,40.279 40.56,34.466 C 40.93,33.303 41.162,32.233 41.162,31.118 C 41.162,29.482 40.617,28.788 40.176,28.228 C 39.878,27.849 39.629,27.532 39.629,27.025 C 39.629,26.325 40.093,25.859 40.746,25.859 C 41.814,25.859 42.646,27.115 42.65,29.166 C 42.655,30.89 42.193,32.416 42.107,32.699 L 42.093,32.745 C 42.093,32.772 42.103,32.791 42.143,32.805 Z" fill="rgb(254, 254, 253)" fill-rule="evenodd"/>
</svg>
