<?xml version="1.0" encoding="UTF-8"?>
<!-- generated by Finnhub -->
<svg viewBox="0 0 55.5 55.5" xmlns="http://www.w3.org/2000/svg">
<path d="M 0,0 H 55.5 V 55.5 H 0 Z" fill="rgb(239, 242, 248)"/>
<path d="M 11.99,28.313 C 12,19.668 19.07,12.651 27.793,12.651 C 36.515,12.651 43.587,19.668 43.587,28.328 C 43.587,36.983 36.515,44 27.793,44 S 12,36.983 12,28.328 Z" fill="rgb(27, 50, 95)"/>
<path d="M 13.558,27.194 C 13.568,18.936 20.324,12.226 28.667,12.226 S 43.765,18.936 43.765,27.209 C 43.765,35.488 37.01,42.192 28.667,42.192 S 13.568,35.488 13.568,27.209 Z" fill="rgb(254, 254, 253)"/>
<path d="M 28.61,27.3 L 28.615,27.96 H 28.529 L 28.137,27.328 H 27.054 L 27.849,23.723 L 28.405,23.449 L 24.835,22.958 L 24.33,23.473 L 24.518,23.541 S 25.953,24.899 26.736,24.568 A 0.53,0.53 0 0,1 27.022,24.784 L 26.599,25.098 L 26.146,27.04 A 5.357,5.357 0 0,0 24.236,27.929 L 24.011,28.632 L 22.793,24.916 L 25.269,21.091 H 31.863 L 34.351,24.916 L 33.953,25.046 L 33.005,27.929 C 32.467,27.508 31.695,27.171 31.108,27.039 L 30.71,27.329 L 30.11,24.784 C 30.207,24.664 30.294,24.597 30.396,24.568 C 31.19,24.9 32.625,23.541 32.625,23.541 L 32.915,23.447 L 32.419,22.958 L 28.849,23.448 L 29.624,26.994 H 28.826 L 28.62,27.315 Z M 25.052,18.451 C 25.688,18.451 25.979,19.029 25.979,19.029 S 26.592,20.072 26.919,20.324 L 26.326,20.076 C 25.219,19.786 24.863,19.153 24.628,18.876 L 23.808,18.426 S 24.418,18.451 25.052,18.451 Z M 30.798,28.009 S 32.656,28.631 32.637,29.435 L 32.285,29.554 C 32.252,30.164 31.568,30.779 31.218,31.057 L 29.486,29.96 L 29.012,30.11 V 28.828 L 30.738,28.542 L 30.798,28.009 Z M 28.555,30.349 L 30.817,31.888 L 30.267,32.048 C 29.894,32.485 29.181,33.208 28.61,33.208 C 28.028,33.208 27.316,32.485 26.94,32.048 L 26.281,31.888 L 28.555,30.349 Z M 29.951,33.904 L 29.681,34.619 C 29.704,35.163 30.154,35.675 30.126,36.413 C 30.104,36.913 29.738,37.3 29.439,37.558 L 28.795,37.967 C 29.625,37.069 27.607,34.987 29.951,33.904 Z M 31.881,31.981 L 31.588,32.591 C 31.596,33.893 32.224,34.161 32.238,35.513 C 32.256,36.188 31.827,36.835 31.485,37.073 L 30.661,37.583 C 32.304,35.896 28.855,33.22 31.881,31.981 Z M 33.023,30.515 L 33.101,31.321 C 34.031,32.757 35.203,34.299 33.641,35.953 L 32.997,36.715 C 34.283,33.51 31.458,33.234 33.023,30.515 Z M 33.937,28.378 L 34.005,29.328 C 34.25,29.994 36.613,31.258 35.719,33.074 L 35.397,34.264 C 35.667,32.882 33.371,30.964 33.556,29.435 C 33.616,28.897 33.937,28.378 33.937,28.378 Z M 36.273,25.876 C 36.537,26.326 36.615,27.763 36.615,27.8 L 36.189,26.932 C 35.957,26.722 35.612,26.562 35.496,26.347 C 35.396,26.179 35.371,25.835 35.346,25.535 L 34.94,24.77 S 36.006,25.423 36.273,25.876 Z M 33.34,18.426 L 32.606,18.876 C 32.384,19.153 32.016,19.786 30.921,20.076 L 30.231,20.324 C 30.556,20.072 31.171,19.029 31.171,19.029 S 31.461,18.451 32.095,18.451 C 32.731,18.451 33.34,18.426 33.34,18.426 Z M 30.935,18.451 L 30.316,18.883 C 30.154,19.173 29.673,19.928 29.331,19.996 L 28.834,20.324 C 29.196,19.785 28.779,18.451 29.837,18.451 H 30.935 Z M 36.827,19.81 C 36.887,20.878 36.778,21.209 36.776,21.221 L 36.536,20.493 C 36.294,20.259 35.949,19.999 35.559,19.94 C 34.806,19.812 33.983,20.06 32.822,20.414 L 32.384,20.388 C 33.136,19.613 33.821,18.08 34.962,18.08 C 36.037,18.08 36.75,18.596 36.827,19.81 Z M 32.731,21.192 C 33.379,21.497 34.648,20.729 35.472,21.022 C 36.8,21.499 36.618,22.774 36.616,22.802 L 36.082,22.115 C 35.707,21.841 33.908,22.09 33.449,21.653 L 32.731,21.193 Z M 33.876,22.734 C 34.548,23.24 36.29,22.919 36.616,23.908 C 36.806,24.491 36.644,25.306 36.641,25.322 L 36.343,24.572 C 36.19,24.322 34.866,23.581 34.749,23.392 L 33.876,22.734 Z M 34.521,26.548 S 36.114,27.929 36.399,28.761 C 36.779,29.908 36.619,30.687 36.616,30.703 L 36.303,29.845 C 35.843,29.183 34.858,28.699 34.763,28.009 A 2.648,2.648 0 0,1 34.782,27.374 L 34.522,26.548 Z M 20.698,20.492 L 20.372,21.221 S 20.247,20.903 20.321,19.81 C 20.399,18.596 21.099,18.08 22.187,18.08 C 23.327,18.08 24.012,19.614 24.765,20.388 L 24.413,20.414 C 23.253,20.059 22.428,19.812 21.676,19.94 C 21.286,19.999 20.94,20.259 20.698,20.492 Z M 20.903,24.572 L 20.509,25.322 S 20.329,24.502 20.534,23.909 C 20.86,22.919 22.604,23.242 23.276,22.726 L 22.497,23.392 C 22.367,23.582 21.045,24.323 20.903,24.572 Z M 21.046,26.932 L 20.538,27.786 C 20.534,27.8 20.609,26.335 20.875,25.876 C 21.142,25.424 22.209,24.771 22.209,24.771 L 21.889,25.535 C 21.863,25.836 21.839,26.18 21.751,26.348 C 21.623,26.561 21.278,26.723 21.046,26.932 Z M 20.932,29.846 L 20.534,30.704 S 20.354,29.924 20.749,28.762 C 21.035,27.93 22.616,26.549 22.616,26.549 L 22.453,27.375 C 22.476,27.574 22.498,27.799 22.473,28.01 C 22.391,28.7 21.393,29.184 20.933,29.845 Z M 21.516,33.074 L 21.736,34.237 L 21.752,34.263 S 21.014,33.523 20.901,32.511 C 20.665,30.476 22.934,29.895 23.2,28.379 L 23.243,29.329 C 23.119,30.89 21.599,32.221 21.516,33.074 Z M 23.595,35.953 L 24.151,36.715 C 20.644,34.673 22.88,32.427 24.125,30.515 L 24.145,31.321 C 24.625,33.313 22.9,33.51 23.595,35.953 Z M 25.775,37.073 L 26.487,37.583 C 25.214,37.286 24.556,36.624 24.494,35.514 C 24.392,33.894 25.187,33.751 25.269,31.981 L 25.671,32.592 C 26.97,33.737 25.13,35.374 25.774,37.073 Z M 27.796,37.557 L 28.353,37.967 S 26.916,37.905 26.703,36.377 C 26.645,35.499 27.259,34.767 27.186,33.904 L 27.555,34.619 C 28.531,35.289 27.396,36.649 27.796,37.557 Z M 21.153,22.115 L 20.535,22.8 C 20.534,22.802 20.329,21.508 21.676,21.022 C 22.499,20.729 23.758,21.496 24.418,21.192 L 23.798,21.653 C 23.327,22.09 21.54,21.841 21.153,22.115 Z M 26.202,18.451 H 27.312 C 28.358,18.451 27.952,19.785 28.302,20.324 L 27.904,19.996 C 27.574,19.928 27.082,19.174 26.918,18.883 L 26.202,18.451 Z M 25.991,31.057 L 25.926,31.48 S 24.463,30.52 24.463,29.435 C 24.441,28.632 26.299,28.01 26.299,28.01 L 26.011,28.66 L 26.044,28.97 L 26.36,28.542 L 28.085,28.829 L 27.733,29.248 V 29.961" fill="rgb(27, 50, 95)"/>
<path d="M 27.544999999999998,34.604 C 28.531,35.29 27.396,36.649 27.795,37.558 C 27.497,37.299 27.13,36.915 27.121,36.413 C 27.094,35.677 27.531,35.163 27.555,34.619 Z M 29.68,34.619 C 28.716,35.29 29.838,36.649 29.44,37.558 C 29.738,37.299 30.104,36.915 30.126,36.413 C 30.154,35.677 29.704,35.163 29.68,34.619 Z M 33.48,33.535 C 33.748,34.119 33.98,34.777 33.64,35.953 C 34.431,35.119 34.517,34.313 34.299,33.535 H 33.479 Z M 31.115,33.535 C 31.055,34.554 31.969,35.795 31.485,37.074 C 31.826,36.834 32.256,36.188 32.237,35.512 C 32.273,34.569 32.013,34.142 31.725,33.535 H 31.115 Z M 26.145,33.535 C 26.203,34.554 25.291,35.795 25.775,37.074 C 25.433,36.834 25.004,36.188 25.021,35.512 C 25.031,34.564 25.347,34.147 25.534,33.535 H 26.144 Z M 23.885,33.503 C 23.616,34.087 23.395,34.785 23.595,35.953 C 22.815,35.119 22.717,34.313 22.948,33.535" fill="rgb(188, 156, 81)"/>
<path d="M 27.894,19.980999999999998 C 27.574,19.928 27.082,19.175 26.918,18.884 H 27.386 C 27.904,18.884 27.717,19.504 27.904,19.996 Z M 23.798,21.654 C 23.303,22.147 21.676,22.047 21.153,22.116 C 21.338,21.863 21.492,21.55 21.915,21.406 C 22.399,21.246 22.931,21.591 23.798,21.654 Z M 23.242,29.328 C 23.119,30.891 21.599,32.221 21.516,33.075 C 20.622,31.258 22.984,29.995 23.242,29.328 Z M 22.452,27.375 C 22.476,27.575 22.498,27.799 22.472,28.011 C 22.39,28.701 21.392,29.185 20.932,29.846 C 20.962,29.594 21.018,29.293 21.146,28.963 C 21.329,28.484 21.948,27.897 22.452,27.375 Z M 21.246,26.139 C 21.336,25.969 21.62,25.74 21.889,25.535 C 21.863,25.836 21.884,26.215 21.797,26.383 C 21.669,26.597 21.278,26.723 21.046,26.933 C 21.046,26.933 21.15,26.283 21.246,26.139 Z M 22.497,23.392 C 22.112,23.883 21.153,24.359 20.903,24.572 C 20.906,24.422 20.887,24.239 20.939,24.042 C 21.067,23.592 22.179,23.504 22.497,23.392 Z M 26.326,20.076 C 25.232,19.92 24.862,19.153 24.628,18.876 C 24.786,18.883 24.95,18.884 25.127,18.884 C 25.322,18.884 25.484,18.941 25.583,19.074 C 25.618,19.136 26.119,19.837 26.326,20.076 Z M 24.413,20.416 C 23.251,20.059 22.433,19.904 21.681,20.032 A 1.82,1.82 0 0,0 20.698,20.493 C 20.719,19.124 21.098,18.606 22.077,18.523 C 22.895,18.46 23.699,19.689 24.412,20.416 Z M 34.004,29.328 C 34.116,30.891 35.634,32.221 35.719,33.075 C 36.679,31.24 34.251,29.995 34.004,29.328 Z M 34.781,27.375 C 34.759,27.575 34.735,27.799 34.761,28.011 C 34.857,28.701 35.843,29.185 36.302,29.846 A 3.566,3.566 0 0,0 36.088,28.963 C 35.906,28.484 35.285,27.897 34.781,27.375 Z M 36,26.14 C 35.898,25.97 35.627,25.741 35.345,25.536 C 35.371,25.837 35.395,26.181 35.495,26.349 C 35.612,26.563 35.956,26.724 36.189,26.934 C 36.189,26.934 36.083,26.284 35.999,26.14 Z M 34.749,23.393 C 34.866,23.583 36.189,24.324 36.343,24.573 C 36.329,24.423 36.348,24.24 36.295,24.043 C 36.168,23.593 35.068,23.505 34.749,23.393 Z M 33.449,21.655 C 33.907,22.092 35.707,21.843 36.082,22.117 C 35.895,21.864 35.742,21.551 35.319,21.407 C 34.835,21.247 34.302,21.592 33.449,21.655 Z M 30.92,20.077 C 32.04,19.851 32.45,19.223 32.607,18.877 A 9.994,9.994 0 0,1 32.119,18.885 C 31.912,18.885 31.751,18.942 31.651,19.075 C 31.615,19.137 31.116,19.838 30.921,20.077 Z M 29.33,19.997 C 29.77,19.939 30.228,19.199 30.316,18.885 H 29.859 C 29.329,18.885 29.517,19.505 29.33,19.997 Z M 32.822,20.417 C 34.052,20.173 34.663,20.012 35.517,20.012 C 35.908,20.071 36.294,20.262 36.537,20.494 C 36.515,19.125 36.137,18.607 35.157,18.524 C 34.352,18.461 33.537,19.69 32.822,20.417 Z M 32.285,29.503 V 29.556 C 32.252,30.166 31.568,30.781 31.218,31.059 L 29.486,29.963 V 29.25 L 31.164,28.97 L 31.196,28.662 C 31.669,28.873 32.288,29.215 32.285,29.503 Z M 30.267,32.049 C 29.893,32.487 29.18,33.21 28.609,33.21 C 28.027,33.21 27.315,32.487 26.94,32.049 L 28.61,30.917 L 30.267,32.049 Z M 26.043,28.971 L 27.733,29.25 V 29.963 L 25.99,31.059 C 25.634,30.77 24.924,30.134 24.924,29.503 C 24.92,29.215 25.538,28.873 26.011,28.662 L 26.043,28.971 Z M 28.621,27.317 L 28.428,26.996 H 27.63 L 28.405,23.449 L 24.835,22.96 L 24.329,23.475 L 25.556,21.575 H 31.697 L 32.916,23.449 L 32.419,22.96 L 28.849,23.45 L 29.624,26.996 H 28.826 L 28.621,27.316 Z M 33.081,23.701 L 33.969,25.043 L 33.034,27.979 C 32.494,27.559 31.694,27.173 31.108,27.041 L 30.656,25.096 C 31.62,25.126 32.952,23.819 33.081,23.701 Z M 24.129,23.765 C 24.258,23.879 25.614,25.193 26.599,25.099 L 26.209,27.104 C 25.602,27.333 24.86,27.584 24.237,27.93 L 23.3,25.048 L 24.129,23.765 Z M 34.299,33.536 C 34.132,32.728 33.637,31.983 33.1,31.322 C 32.844,32.353 33.187,32.905 33.479,33.536 H 34.299 Z M 31.822,33.536 A 9.582,9.582 0 0,1 31.588,32.594 C 31.268,32.882 31.137,33.196 31.114,33.536 H 31.822 Z M 25.534,33.536 C 25.614,33.275 25.669,32.983 25.671,32.594 C 26.004,32.882 26.121,33.196 26.145,33.536 H 25.534 Z M 22.947,33.536 C 23.164,32.772 23.677,32.034 24.147,31.322 C 24.469,32.446 24.168,32.962 23.756,33.536" fill="rgb(188, 156, 81)"/>
<path d="M 13.325000000000001,27.194 C 13.335,18.807 20.195,12 28.668,12 C 37.127,12 44,18.808 44,27.209 C 44,35.609 37.127,42.417 28.668,42.417 C 20.196,42.417 13.335,35.609 13.335,27.209 Z M 13.865,27.209 C 13.865,35.319 20.488,41.897 28.668,41.897 C 36.835,41.897 43.468,35.32 43.468,27.209 C 43.468,19.099 36.835,12.525 28.668,12.525 C 20.488,12.525 13.865,19.098 13.865,27.209 Z" fill="rgb(188, 156, 81)"/>
<path d="M 34.567,35.265 C 34.302,35.767 33.799,36.244 32.997,36.715 L 33.641,35.953 A 3.38,3.38 0 0,0 34.139,35.28 H 34.577 Z M 32.659,35.28 C 32.659,35.358 32.657,35.435 32.654,35.515 C 32.581,36.625 31.934,37.285 30.661,37.584 L 31.485,37.074 C 31.827,36.834 32.255,36.188 32.238,35.514 C 32.237,35.428 32.24,35.224 32.238,35.148 L 32.659,35.28 Z M 30.243,35.28 C 30.368,35.636 30.473,35.991 30.446,36.377 C 30.232,37.906 28.795,37.967 28.795,37.967 L 29.439,37.559 C 29.695,37.234 30.016,36.871 30.127,36.414 C 30.135,35.978 29.941,35.514 29.809,35.176 L 30.243,35.28 Z M 27.953,35.28 C 27.953,35.992 27.503,36.89 27.796,37.558 L 28.354,37.966 C 27.813,37.374 28.487,36.277 28.354,35.28 H 27.954 Z M 25.777,35.28 C 25.635,35.858 25.537,36.464 25.774,37.074 L 26.487,37.583 C 25.847,36.916 25.984,36.106 26.202,35.281 H 25.777 Z M 23.457,35.28 A 5.4,5.4 0 0,0 23.594,35.953 L 24.151,36.715 C 23.931,36.16 23.829,35.689 23.806,35.28" fill="rgb(188, 156, 81)"/>
<path d="M 29.849999999999998,35.265 C 29.765,35.056 29.686,34.841 29.68,34.62 L 29.95,33.905 C 29.919,34.392 30.1,34.831 30.244,35.28 H 29.86 Z M 28.354,35.28 C 28.292,34.764 27.999,34.275 27.186,33.905 L 27.555,34.62 A 0.875,0.875 0 0,1 27.954,35.28 H 28.354 Z M 36.241,32.6 C 36.087,33.565 35.398,34.264 35.398,34.264 L 35.72,33.074 C 35.799,32.914 35.851,32.756 35.893,32.601 H 36.241 Z M 34.387,32.6 C 34.863,33.483 35.1,34.392 34.577,35.28 L 34.027,35.437 C 34.516,34.51 34.362,33.458 33.9,32.601 H 34.387 Z M 31.941,32.6 C 32.145,33.747 32.678,34.068 32.66,35.28 H 32.232 C 32.149,34.131 31.597,33.817 31.589,32.6 H 31.941 Z M 26.892,32.6 C 27.34,33.05 27.958,33.549 28.555,33.549 C 29.14,33.549 29.757,33.051 30.205,32.601 L 29.68,32.554 C 29.33,32.874 28.968,33.151 28.61,33.151 C 28.243,33.151 27.91,32.602 27.472,32.601 H 26.892 Z M 25.687,32.6 C 26.107,33.549 26.043,34.263 25.777,35.28 H 26.203 C 26.468,34.317 26.858,33.341 26.203,32.6 H 25.687 Z M 24.149,32.6 C 23.915,33.444 23.295,33.99 23.457,35.28 H 23.806 C 23.75,34.117 24.339,33.443 24.547,32.602 L 24.149,32.601 Z M 21.673,32.6 C 21.578,32.773 21.523,32.93 21.516,33.075 L 21.752,34.264 C 21.65,33.764 21.889,33.196 22.216,32.601" fill="rgb(188, 156, 81)"/>
<path d="M 20.523999999999997,22.787 C 21.49,21.907 23.986,23.012 24.418,21.192 L 23.799,21.652 C 23.327,22.09 21.54,21.842 21.154,22.116 L 20.534,22.802 Z M 20.374,21.222 C 20.741,20.722 21.385,20.336 21.764,20.272 C 22.64,20.126 24.314,20.748 24.334,20.755 C 24.47,20.637 24.765,20.389 24.765,20.389 L 24.413,20.414 C 23.253,20.059 22.429,19.812 21.677,19.94 C 21.287,19.999 20.941,20.26 20.699,20.494 L 20.373,21.222 Z M 22.497,23.392 C 22.368,23.581 21.046,24.322 20.904,24.572 L 20.508,25.323 C 21.301,24.361 23.058,23.7 23.276,22.727 L 22.497,23.392 Z M 20.534,27.8 C 20.91,27.182 21.918,26.788 22.044,26.335 C 22.159,25.875 22.21,24.77 22.21,24.77 L 21.89,25.535 C 21.863,25.835 21.84,26.179 21.752,26.347 C 21.624,26.562 21.279,26.723 21.047,26.932 L 20.534,27.8 Z M 20.534,30.705 C 21.551,29.249 22.658,29.185 22.743,27.945 C 22.793,27.297 22.617,26.548 22.617,26.548 L 22.454,27.375 C 22.477,27.573 22.381,27.808 22.355,28.02 C 22.273,28.709 21.393,29.184 20.932,29.845 L 20.534,30.705 Z M 23.81,18.425 C 24.471,19.213 25.028,20.521 26.92,20.325 L 26.326,20.077 C 25.22,19.786 24.863,19.154 24.63,18.876 L 23.81,18.426 Z M 26.202,18.451 C 26.862,19.436 27.289,20.519 28.303,20.326 L 27.905,19.996 C 27.575,19.928 27.083,19.175 26.919,18.884 L 26.202,18.451 Z M 34.749,23.392 C 34.867,23.581 36.191,24.322 36.344,24.572 L 36.642,25.323 C 35.85,24.361 34.092,23.7 33.874,22.727 L 34.749,23.392 Z M 36.617,22.802 C 35.661,21.907 33.164,23.012 32.731,21.192 L 33.449,21.652 C 33.909,22.09 35.707,21.842 36.083,22.116 L 36.617,22.802 Z M 36.777,21.222 C 36.408,20.722 35.764,20.336 35.375,20.272 C 34.497,20.126 32.823,20.748 32.815,20.755 A 32.68,32.68 0 0,0 32.385,20.389 L 32.823,20.414 C 33.983,20.059 34.806,19.812 35.559,19.94 C 35.949,19.999 36.295,20.26 36.537,20.494 L 36.777,21.222 Z M 33.341,18.426 C 32.679,19.213 32.121,20.521 30.219,20.326 L 30.921,20.077 C 32.016,19.786 32.384,19.154 32.608,18.876 L 33.341,18.426 Z M 30.935,18.451 C 30.288,19.436 29.862,20.519 28.835,20.326 L 29.331,19.996 C 29.673,19.928 30.155,19.175 30.317,18.884 L 30.935,18.451 Z M 36.617,27.8 C 36.241,27.182 35.232,26.788 35.105,26.335 C 34.991,25.875 34.941,24.77 34.941,24.77 L 35.346,25.535 C 35.372,25.835 35.396,26.179 35.496,26.347 C 35.613,26.562 35.958,26.723 36.19,26.932 L 36.617,27.8 Z M 36.617,30.705 C 35.587,29.249 34.492,29.185 34.408,27.945 C 34.358,27.297 34.521,26.548 34.521,26.548 L 34.782,27.375 A 2.731,2.731 0 0,0 34.762,28.01 C 34.858,28.699 35.844,29.184 36.303,29.845 L 36.617,30.705 Z M 27.734,29.249 V 29.961 L 25.991,31.057 L 25.927,31.481 L 28.086,30.111 V 28.83 L 27.734,29.25 Z M 26.044,28.969 L 26.012,28.661 L 26.3,28.01 L 26.361,28.542 L 26.044,28.97 Z M 24.237,27.93 A 5.348,5.348 0 0,1 26.147,27.04 L 26.599,25.098 L 27.022,24.791 L 26.433,27.328 C 25.688,27.405 24.361,28.037 24.012,28.632 L 24.237,27.93 Z M 31.109,27.04 C 31.696,27.17 32.467,27.508 33.006,27.93 L 33.955,25.046 L 34.351,24.915 L 33.134,28.631 C 32.784,28.036 31.457,27.405 30.71,27.328 L 31.108,27.04 Z M 27.849,23.723 L 24.714,23.291 C 24.714,23.305 24.519,23.541 24.519,23.541 L 24.331,23.473 L 24.858,22.873 L 28.406,23.449 L 27.85,23.723 Z M 28.616,27.961 L 28.995,27.328 H 30.077 L 29.283,23.723 L 32.419,23.291 C 32.419,23.304 32.625,23.541 32.625,23.541 L 32.916,23.447 L 32.419,22.909 L 28.794,23.323 L 29.624,26.993 H 28.827 L 28.621,27.315 L 28.616,27.96 Z M 29.014,30.111 L 31.173,31.48 S 32.636,30.52 32.636,29.435 L 32.285,29.554 C 32.253,30.164 31.568,30.779 31.218,31.057 L 29.486,29.961 L 29.014,30.111 Z M 35.893,32.601 C 36.213,31.041 34.227,29.938 34.005,29.329 L 33.937,28.379 C 34.202,29.895 36.485,30.477 36.248,32.51 L 36.241,32.6 H 35.893 Z M 33.901,32.601 C 33.661,32.165 33.369,31.734 33.101,31.321 L 33.024,30.516 C 33.451,31.176 34.006,31.878 34.388,32.601 H 33.9 Z M 31.589,32.601 V 32.591 L 31.881,31.981 C 31.886,32.215 31.911,32.417 31.941,32.601 H 31.589 Z M 30.206,32.601 C 30.563,32.23 30.817,31.889 30.817,31.889 L 30.267,32.049 C 30.133,32.208 29.677,32.414 29.467,32.601 H 30.206 Z M 27.769,32.651 C 27.559,32.463 27.078,32.208 26.941,32.048 L 26.281,31.888 S 26.536,32.23 26.893,32.601 L 27.769,32.651 Z M 26.204,32.601 C 26.009,32.367 25.712,32.156 25.269,31.981 L 25.672,32.592 C 25.673,32.599 25.687,32.602 25.687,32.602 L 26.204,32.601 Z M 24.548,32.601 C 24.682,32.045 24.649,31.413 24.127,30.516 L 24.146,31.321 A 2.81,2.81 0 0,1 24.126,32.723 L 24.548,32.601 Z M 22.217,32.601 C 22.817,31.547 23.705,30.411 23.593,29.435 C 23.533,28.898 23.2,28.379 23.2,28.379 L 23.243,29.329 C 22.925,30.705 21.947,31.89 21.543,32.723" fill="rgb(188, 156, 81)"/>
</svg>
