<?xml version="1.0" encoding="UTF-8"?>
<!-- generated by Finnhub -->
<svg viewBox="0 0 55.5 55.5" xmlns="http://www.w3.org/2000/svg">
<path d="M 0,0 H 55.5 V 55.5 H 0 Z" fill="rgb(211, 29, 62)"/>
<path d="M 42.889,8.987 A 0.105,0.105 0 0,1 43,9.107 C 43,9.161 42.96,9.204 42.907,9.21 L 42.908,9.213 C 35.33,11.87 27.812,22.046 24.775,33.71 A 44.557,44.557 0 0,0 23.733,39 S 22.482,39.139 23.824,33.155 C 16.04,27.864 19.076,11.287 42.884,9.002 L 42.889,9 L 42.894,9 H 42.899 V 9.002 Z M 40.896,13 C 40.953,13 41,13.045 41,13.103 H 41.002 V 31.125 C 41.002,41.172 27.998,47 27.998,47 S 14.01,41.368 14.01,31.228 L 14,13.1 H 25.243 V 13.103 C 25.299,13.106 25.35,13.257 25.35,13.311 A 0.102,0.102 0 0,1 25.247,13.415 H 25.243 L 15,14.1 V 31.228 C 15,40.241 28,46.003 28,46.003 V 34.039 C 32.633,34.344 35.138,31.353 36.827,26.586 C 37.431,24.88 37.882,22.941 38.337,20.986 C 38.992,18.168 39.655,15.314 40.798,13.069 A 0.104,0.104 0 0,1 40.896,13 Z" fill="rgb(254, 254, 253)"/>
</svg>
