<?xml version="1.0" encoding="UTF-8"?>
<!-- generated by Finnhub -->
<svg viewBox="0 0 55.5 55.5" xmlns="http://www.w3.org/2000/svg">
<path d="M 0,0 H 55.5 V 55.5 H 0 Z" fill="rgb(15, 96, 166)"/>
<path d="M 27.936999999999998,11.985 C 26.327,11.988 24.637,12.519 23.363,13.53 C 20.223,16.02 19.74,21.595 26.176,25.028 L 26.145,25.045 L 25.345,27.385 C 20.1,26.949 14.97,29.377 15,34.822 C 14.96,40.91 21.72,44.034 26.207,43.998 C 35.247,44.106 40.019,39.468 39.995,33.441 C 40.144,28.791 37.177,22.711 39.932,18 H 35.169 C 35.021,19.601 34.19,20.704 32.24,21.507 L 31.85,21.734 L 32.052,21.446 C 32.953,20.445 33.247,18.312 33.162,16.889 C 33.142,13.554 30.645,12.021 27.947,12 Z M 27.213,16.157 C 29.61,16.154 28.628,19.743 27.62,21.267 C 24.14,19.836 25.47,16.138 26.967,16.17 C 27.052,16.162 27.137,16.157 27.213,16.157 Z M 34.024,24.566 C 33.764,27.725 35.501,30.703 35.134,34.042 C 34.754,37.933 31.224,39.989 26.454,39.742 C 17.251,39.081 18.729,31.193 23.806,31.402 L 21.826,36 H 26.453 L 28.113,31.942 C 29.361,32.562 30.115,33.183 30.885,33.802 L 32.423,29.903 C 31.487,29.308 30.617,28.583 29.53,28.283 L 30.639,25.407 C 31.699,25.459 32.801,25.308 34.024,24.566 Z" fill="rgb(254, 254, 253)"/>
</svg>
