<?xml version="1.0" encoding="UTF-8"?>
<!-- generated by Finnhub -->
<svg viewBox="0 0 55.5 55.5" xmlns="http://www.w3.org/2000/svg">
<path d="M 0,0 H 55.5 V 55.5 H 0 Z" fill="rgb(1, 65, 192)"/>
<path d="M 10.102,30.011 C 9.902,30.751 9.594,31.709 8.032,31.709 C 6.552,31.709 5.571,30.389 5.559,28.534 C 5.547,26.566 6.472,25.284 8.096,25.284 C 9.469,25.284 9.965,25.972 10.112,26.912 H 10.5 V 25.33 C 10.121,25.1 8.951,24.793 8.075,24.793 C 5.938,24.793 4.473,26.315 4.5,28.575 C 4.529,30.764 5.817,32.201 7.936,32.201 C 9.136,32.201 9.796,31.867 10.421,31.531 C 10.425,31.531 10.575,29.635 10.575,29.635 H 10.221 L 10.111,30.025 Z M 15.047,31.71 C 13.52,31.71 12.574,30.475 12.574,28.486 C 12.574,26.51 13.52,25.284 15.047,25.284 C 16.622,25.284 17.564,26.487 17.564,28.507 C 17.564,30.512 16.622,31.709 15.047,31.709 Z M 18.62,28.386 C 18.62,26.169 17.316,24.794 15.215,24.794 C 12.969,24.794 11.515,26.264 11.515,28.541 C 11.515,30.831 12.792,32.201 14.93,32.201 C 17.206,32.201 18.62,30.738 18.62,28.386 Z M 30.5,25.314 L 31.69,25.574 L 31.852,30.147 L 27.779,25 H 25.5 V 25.31 L 26.826,25.569 L 26.783,31.416 L 25.799,31.66 C 25.522,31.578 25.081,31.458 24.495,30.706 L 22.78,28.517 C 23.384,28.345 24.36,27.886 24.36,26.707 C 24.36,25.934 23.953,25.017 22.015,25.017 H 18.99 V 25.31 L 20,25.569 V 31.415 L 18.99,31.677 V 32 H 21.992 V 31.68 L 21,31.417 V 25.533 C 21.29,25.483 21.596,25.451 21.79,25.451 C 22.866,25.451 23.388,25.866 23.388,26.717 C 23.388,28.037 22.355,28.227 21.932,28.285 A 3.257,3.257 0 0,1 21.5,28.313 V 28.606 L 21.844,28.729 L 23.432,30.854 C 23.962,31.564 24.348,32 26.145,32 H 28.8 V 31.676 L 27.5,31.411 L 27.315,25.923 L 32.173,32.118 H 32.303 L 32.385,25.568 L 33.275,25.306 V 25 H 30.5 V 25.314 Z M 37.032,31.709 L 36,31.456 V 25.536 L 37.033,25.286 V 25.003 H 33.903 V 25.287 L 34.999,25.536 V 31.456 L 33.902,31.709 V 32 H 37.032 V 31.709 Z M 40.631,31.704 L 39.308,31.451 L 39.145,25.894 L 44.002,31.99 H 44.13 L 44.215,25.53 L 45.393,25.279 V 25 H 42 V 25.286 L 43.517,25.537 L 43.681,30.09 L 39.61,25 H 37.393 V 25.302 L 38.651,25.552 L 38.611,31.452 L 37.555,31.705 V 32 H 40.631 V 31.704 Z M 51,29.52 L 52,29.27 V 28.99 H 49 V 29.273 L 50,29.523 V 30.988 C 49.547,31.345 49.286,31.56 48.5,31.534 C 47.092,31.49 46.098,30.291 46.098,28.539 C 46.099,26.603 47.014,25.467 48.677,25.467 C 50.14,25.467 50.548,26.23 50.694,27 H 51 V 25.523 C 50.564,25.278 49.624,25.004 48.535,25.004 C 46.397,25.004 45.03,26.4 45.042,28.581 C 45.05,30.605 46.383,31.967 48.44,31.999 C 49.851,32.022 50.418,31.623 51,31.279 V 29.519 Z" fill="rgb(254, 254, 253)"/>
</svg>
