<?xml version="1.0" encoding="UTF-8"?>
<!-- generated by Finnhub -->
<svg fill="none" viewBox="0 0 55.5 55.5" xmlns="http://www.w3.org/2000/svg">
<path d="M 0,0 H 55.5 V 55.5 H 0 Z" fill="rgb(239, 242, 248)"/>
<path d="M 26.99,35.985 H 38 V 33.5 H 27 V 36 Z" fill="url(#a)"/>
<path d="M 17.99,23.235 A 3.25,3.25 0 0,1 21.25,20 H 25 V 31.25 A 4.75,4.75 0 0,1 20.25,36 H 19 V 33.5 H 20.25 A 2.25,2.25 0 0,0 22.5,31.25 V 31.004 H 21.25 A 3.25,3.25 0 0,1 18,27.754 V 23.25 Z M 22.5,28.504 V 22.5 H 21.25 A 0.75,0.75 0 0,0 20.5,23.25 V 27.754 C 20.5,28.169 20.836,28.504 21.25,28.504 H 22.5 Z" clip-rule="evenodd" fill="url(#a)" fill-rule="evenodd"/>
<path d="M 26.99,19.985 V 31 H 29.5 V 22.5 H 31.288 V 31 H 33.788 V 22.5 H 34.75 A 0.75,0.75 0 0,1 35.5,23.25 V 31 H 38 V 23.25 A 3.25,3.25 0 0,0 34.75,20 H 27 Z" fill="url(#a)"/>
<path d="M 11.99,16.985 A 5,5 0 0,1 17,12 H 39 A 5,5 0 0,1 44,17 V 39 A 5,5 0 0,1 39,44 H 17 A 5,5 0 0,1 12,39 V 17 Z M 17,14 H 39 A 3,3 0 0,1 42,17 V 39 A 3,3 0 0,1 39,42 H 17 A 3,3 0 0,1 14,39 V 17 A 3,3 0 0,1 17,14 Z" clip-rule="evenodd" fill="url(#a)" fill-rule="evenodd"/>
<defs>
<linearGradient id="a" x1="28" x2="28" y1="12" y2="44" gradientUnits="userSpaceOnUse">
<stop stop-color="rgb(73, 221, 253)" offset="0"/>
<stop stop-color="rgb(13, 141, 211)" offset="1"/>
</linearGradient>
</defs>
</svg>
