<?xml version="1.0" encoding="UTF-8"?>
<!-- generated by Finnhub -->
<svg viewBox="0 0 55.5 55.5" xmlns="http://www.w3.org/2000/svg">
<path d="M 0,0 H 55.5 V 55.5 H 0 Z" fill="url(#a)"/>
<path d="M 8.99,26.985 H 7 V 25.419 C 7,25.087 7.001,24.384 6.5,24.384 C 6.044,24.384 6,24.984 6,25.293 V 29.815 C 6,30.128 6.05,30.707 6.5,30.707 C 6.986,30.707 7,30.093 7,29.749 V 29 H 6.743 V 27.548 H 9 V 32 H 8 L 7.812,31.333 C 7.542,31.737 6.996,32 6.324,32 C 5.301,32 4.24,31.447 4.068,30.385 C 4.023,30.105 4,29.685 4,29.125 V 26.092 C 4,24.246 4.54,23 6.5,23 C 8.546,23 9,23.974 9,25.805 V 27 Z M 12,27.83 H 10 C 10,27.283 9.96,26.693 10.2,26.188 C 10.604,25.346 11.69,25 12.522,25 C 13.434,25 14.642,25.29 14.887,26.384 C 14.967,26.738 15,27.465 15,28.568 V 32 H 13 V 31.323 C 12.721,31.799 12.303,32 11.692,32 C 11.292,32 10.925,31.937 10.592,31.737 C 9.986,31.376 10,30.49 10,29.88 C 10,28.8 10.732,28.55 11.675,28.226 C 12.425,27.965 12.868,27.774 12.921,27.683 C 12.974,27.593 13,27.409 13,27.13 C 13,26.844 12.937,26.306 12.522,26.306 C 12.092,26.306 12,26.825 12,27.13 V 27.83 Z M 13,28.744 C 12.634,28.982 12.146,29.179 12.088,29.34 C 12.029,29.501 12,29.732 12,30.034 C 12,30.339 12.096,30.843 12.522,30.843 C 12.922,30.843 13,30.413 13,30.116 V 28.744 Z M 18,25 V 25.879 C 18.354,25.376 18.969,25 19.595,25 C 20.205,25 20.649,25.376 21,25.879 C 21.385,25.376 21.883,25 22.471,25 C 23.711,25 24,26.075 24,27.176 V 32 H 22 V 27.568 C 22,27.265 22,26.306 21.5,26.306 S 21,27.251 21,27.568 V 32 H 19 V 27.41 C 19,27.105 18.953,26.306 18.5,26.306 S 18,26.976 18,27.291 V 32 H 16 V 25 H 18 Z M 30,28.699 H 27 V 30.141 C 27,30.428 27.114,30.855 27.5,30.855 C 27.956,30.855 28,30.351 28,30.011 V 29 H 30 C 30,29.477 30.035,30.108 29.912,30.574 C 29.628,31.649 28.578,32.036 27.584,32.036 C 26,32.036 25,31.181 25,29.493 V 27.548 C 25,25.975 25.923,25 27.426,25 C 29.212,25 30,26.116 30,27.814 V 28.699 Z M 28,27.613 V 27.125 C 28,26.873 27.889,26.306 27.5,26.306 S 27,26.81 27,27.126 V 27.613 H 28 Z" fill="rgb(254, 254, 253)"/>
<path d="M 35.99,25.985 H 34 V 25.167 C 34,24.879 33.87,24.52 33.501,24.52 C 33.215,24.52 33,24.72 33,25.142 C 33,25.738 33.292,26.174 33.803,26.442 C 35.241,27.202 36,27.939 36,29.663 C 36,31.26 34.98,32 33.562,32 C 31.678,32 31,30.86 31,29 H 33 V 29.804 C 33,30.138 33.1,30.519 33.519,30.519 C 33.835,30.519 34,30.299 34,29.864 C 34,29.384 33.868,29.072 33.72,28.924 C 33.57,28.777 33.3,28.329 32.709,27.984 C 31.638,27.354 31,26.857 31,25.448 C 31,23.77 31.885,23 33.356,23 C 35.121,23 36,23.724 36,25.448 V 26 Z M 39,24 V 25 H 40 V 26 H 39 V 30.115 C 39,30.554 39.155,30.728 39.206,30.778 C 39.256,30.828 39.626,31 40,31 V 32 H 39.088 C 38.568,32 38.196,31.98 37.974,31.942 A 1.248,1.248 0 0,1 37.386,31.676 A 0.871,0.871 0 0,1 37.069,31.198 C 37.028,31.019 37,30.598 37,29.934 V 26 H 36.515 V 25 H 37 V 24 H 39 Z M 46,27.463 V 29.097 C 46,30.77 45.379,32 43.5,32 C 41.82,32 41,31.1 41,29.318 V 27.608 C 41,25.995 41.772,25 43.5,25 C 45.139,25 46,25.86 46,27.463 Z M 44,26.96 C 44,26.687 43.894,26.24 43.5,26.24 C 43.102,26.24 43,26.681 43,26.96 V 29.971 C 43,30.236 43.12,30.778 43.5,30.778 C 43.87,30.778 44,30.307 44,30.037 V 26.96 Z M 49,25 V 25.569 C 49.21,25.259 49.54,25 50.155,25 C 51.511,24.95 51.984,25.631 52,26.903 V 29.713 C 52,31.24 51.027,32.622 49.52,31.781 C 49.279,31.664 49,31.289 49,31.151 V 33 H 47 V 25 H 49 Z M 50,26.999 C 50,26.693 49.939,26.136 49.497,26.136 C 49.06,26.136 49,26.699 49,26.999 V 29.859 C 49,30.163 49.073,30.667 49.52,30.667 C 49.93,30.667 50,30.144 50,29.859 V 27 Z" fill="rgb(254, 76, 66)"/>
<defs>
<linearGradient id="a" x1="10.418" x2="68.147" y1="9.712" y2="76.017" gradientUnits="userSpaceOnUse">
<stop stop-color="rgb(25, 29, 31)" offset="0"/>
<stop stop-color="rgb(5, 5, 8)" offset="1"/>
</linearGradient>
</defs>
</svg>
