<?xml version="1.0" encoding="UTF-8"?>
<!-- generated by Finnhub -->
<svg viewBox="0 0 55.5 55.5" xmlns="http://www.w3.org/2000/svg">
<path d="M 0,0 H 55.5 V 55.5 H 0 Z" fill="rgb(239, 242, 248)"/>
<path d="M 43.678000000000004,25.698999999999998 H 28 V 31.456 H 37.044 C 35.722,35.181 32.178,37.6 28,37.6 A 9.599,9.599 0 0,1 18.4,28 C 18.4,22.697 22.697,18.4 28,18.4 A 9.54,9.54 0 0,1 34.369,20.831 L 38.894,16.306 C 36.038,13.644 32.216,12 28,12 C 19.163,12 12,19.163 12,28 C 12,36.837 19.163,44 28,44 C 36.837,44 44,36.837 44,28 C 44,27.135 43.89,26.73 43.687,25.714 Z" fill="rgb(254, 192, 5)"/>
<path d="M 13.834,20.538 L 19.104,24.409 C 20.524,20.888 23.968,18.4 28,18.4 A 9.54,9.54 0 0,1 34.369,20.831 L 38.894,16.306 C 36.038,13.644 32.216,12 28,12 C 21.853,12 16.525,15.469 13.844,20.553 Z" fill="rgb(254, 60, 2)"/>
<path d="M 27.99,43.985 C 32.131,44 35.888,42.419 38.728,39.847 L 33.775,35.657 A 9.535,9.535 0 0,1 28,37.6 C 23.837,37.6 20.306,34.947 18.975,31.244 L 13.756,35.263 C 16.403,40.443 21.781,44 28,44 Z" fill="rgb(75, 174, 78)"/>
<path d="M 43.678000000000004,25.698999999999998 H 28 V 31.456 H 37.044 C 36.409,33.246 35.256,34.531 33.772,35.656 H 33.775 L 38.728,39.846 C 38.378,40.164 44,36 44,28 C 44,26.928 43.89,26.73 43.687,25.714 Z" fill="rgb(24, 117, 208)"/>
</svg>
