<?xml version="1.0" encoding="UTF-8"?>
<!-- generated by Finnhub -->
<svg viewBox="0 0 55.5 55.5" xmlns="http://www.w3.org/2000/svg">
<path d="M 0,0 H 55.5 V 55.5 H 0 Z" fill="rgb(15, 45, 133)"/>
<path d="M 15.738,20.623 L 40.204,20.664 L 41.187,22.376 V 33.643 L 40.28,35.282 H 15.745 L 14.595,33.304 V 22.75 L 15.748,20.638 Z" fill="rgb(254, 254, 253)"/>
<path d="M 20.06,14.985 H 35.86 C 36.583,15.054 37.3,15.665 37.642,16.266 A 298.417,298.417 0 0,1 40.401,21 H 15.544 S 17.406,17.753 18.191,16.398 C 18.565,15.77 19.275,15.042 20.07,15 Z" fill="rgb(252, 178, 18)"/>
<path d="M 21.482,22.006 C 22.544,22.107 23.975,22.531 24,23.816 V 26 H 22.005 V 24.172 C 21.98,23.648 21.555,23.395 21.009,23.395 C 20.507,23.395 20,23.584 20,24.172 V 31.802 C 20.022,32.31 20.436,32.602 20.99,32.626 C 21.445,32.626 22.005,32.416 22.005,31.95 V 30 H 21 V 28.013 H 24 V 32.201 C 23.951,33.213 23.015,33.736 22.117,33.901 C 21.587,34.005 21.047,34.014 20.517,33.988 C 19.644,33.921 18.486,33.654 18.133,32.73 A 2.085,2.085 0 0,1 18.001,31.933 V 23.929 C 17.96,22.202 20.194,21.9 21.492,22.022 Z M 33.805,22.117 A 6.095,6.095 0 0,1 35.94,22.074 C 36.903,22.226 37.976,22.736 38,23.85 V 26 H 36 V 24.14 C 35.976,23.672 35.46,23.404 35.005,23.382 C 34.495,23.406 34.019,23.73 33.997,24.226 V 31.787 C 34.018,32.277 34.425,32.586 34.967,32.61 C 35.427,32.61 35.97,32.432 35.997,31.96 V 29 H 38 V 32.16 C 37.96,33.871 35.72,34.066 34.457,33.98 C 33.359,33.879 32.027,33.408 32,32.108 V 23.876 C 32.023,22.855 32.908,22.327 33.805,22.117 Z" fill="rgb(15, 45, 133)"/>
<path d="M 39.99,21.985 H 40.969 S 42.697,24.947 43.506,26.312 C 43.637,26.532 43.743,26.769 43.839,27.006 C 43.865,27.103 43.901,27.2 43.927,27.296 L 43.953,27.436 C 44.023,27.771 44.006,28.122 43.953,28.466 C 43.936,28.544 43.909,28.623 43.892,28.702 A 3.777,3.777 0 0,1 43.795,28.992 A 0.165,0.165 0 0,1 43.778,29.054 C 43.734,29.142 43.698,29.23 43.664,29.318 C 43.488,29.687 43.269,30.03 43.076,30.39 C 42.733,30.961 42.408,31.55 42.075,32.121 C 41.733,32.693 41.344,33.437 41.001,34 H 40 V 22 Z M 15,22 H 16 V 34 H 15 S 13.32,31.076 12.53,29.713 C 12.223,29.168 11.968,28.562 12.003,27.92 C 11.986,27.577 12.073,27.235 12.188,26.918 C 12.214,26.848 12.249,26.786 12.275,26.716 C 12.46,26.329 12.697,25.969 12.907,25.6 C 13.583,24.466 14.342,23.125 15.001,22 Z" fill="rgb(252, 178, 18)"/>
<path d="M 29.436999999999998,22.211 C 28.769,22.028 28.063,21.992 27.357,22.001 H 25 V 34 H 27 V 29.522 S 28.6,29.567 29.23,29.423 C 30.353,29.18 30.98,28.154 31,27.031 V 24.395 C 31,23.333 30.486,22.53 29.447,22.226 Z M 29,24.64 V 27.263 C 29,28.181 27.535,28 27,28 V 23.5 C 28.295,23.5 29,23.446 29,24.64 Z" fill="rgb(15, 45, 133)"/>
<path d="M 15.578,34.989 H 40.447 C 39.97,35.834 37.226,40.334 37.226,40.334 C 36.777,40.926 36.021,40.989 35.748,40.989 C 35.475,40.99 25.545,40.999 20.518,40.999 C 19.605,41.031 18.706,40.461 18.187,39.717 C 17.327,38.181 15.587,35.004 15.587,35.004 Z" fill="rgb(252, 178, 18)"/>
</svg>
