<?xml version="1.0" encoding="UTF-8"?>
<!-- generated by Finnhub -->
<svg viewBox="0 0 55.5 55.5" xmlns="http://www.w3.org/2000/svg">
<path d="M 0,0 H 55.5 V 55.5 H 0 Z" fill="rgb(1, 69, 125)"/>
<path d="M 36.787,14.617999999999999 A 3.145,3.145 0 1,1 31.004,12.282 A 16.088,16.088 0 0,0 28,12 C 19.163,12 12,19.163 12,28 C 12,36.837 19.163,44 28,44 C 36.837,44 44,36.837 44,28 C 44,22.413 41.136,17.495 36.797,14.633 Z M 21.09,29.461 C 21.09,28.266 21.965,27.088 23.615,26.246 C 22.066,25.32 21.258,23.789 21.258,21.82 C 21.258,18.353 23.85,15.912 27.704,15.912 C 29.286,15.912 30.868,16.417 32.08,17.461 A 5.912,5.912 0 0,1 33.847,20.036 C 34.083,20.709 34.15,21.433 34.15,22.14 C 34.167,25.421 31.76,27.559 27.805,27.559 C 27.098,27.559 26.475,27.491 25.954,27.357 C 25.214,27.643 24.86,28.03 24.86,28.484 C 24.86,29.454 26.005,29.528 28.186,29.668 C 28.543,29.691 28.926,29.716 29.336,29.747 C 33.713,30.067 35.564,30.907 35.564,34.157 C 35.564,37.489 32.804,39.407 27.587,39.407 C 22.824,39.407 20.383,37.909 20.383,35.166 C 20.383,33.584 21.326,32.709 23.328,32.052 C 21.814,31.312 21.09,30.639 21.09,29.461 Z M 24.204,34.695 C 24.204,35.805 25.432,36.58 27.519,36.58 C 30.347,36.58 31.929,35.67 31.929,34.476 C 31.929,33.533 31.189,33.18 29.657,33.113 L 25.92,32.911 C 24.759,33.449 24.204,33.971 24.204,34.695 Z M 27.805,24.512 C 29.455,24.512 30.565,23.435 30.565,21.786 C 30.565,20.136 29.438,18.992 27.705,18.992 C 26.155,18.992 25.045,20.103 25.045,21.853 C 25.045,23.536 26.089,24.513 27.805,24.513 Z" fill="rgb(254, 254, 253)"/>
<path d="M 33.763000000000005,15.875 A 2.118,2.118 0 1,0 33.773,11.655 A 2.118,2.118 0 0,0 33.773,15.89 Z" fill="rgb(35, 221, 120)"/>
</svg>
