<?xml version="1.0" encoding="UTF-8"?>
<!-- generated by Finnhub -->
<svg viewBox="0 0 55.5 55.5" xmlns="http://www.w3.org/2000/svg">
<path d="M 0,0 H 55.5 V 55.5 H 0 Z" fill="url(#a)"/>
<path d="M 4.99,35.985 H 15 V 29 H 5 V 36 Z M 17,36 H 27 V 29 H 17 V 36 Z" fill="rgb(74, 157, 215)"/>
<path d="M 28.99,35.985 H 39 V 29 H 29 V 36 Z" fill="rgb(40, 92, 164)"/>
<path d="M 40.99,35.985 H 51 V 29 H 41 V 36 Z M 9.5,21 A 0.5,0.5 0 0,1 9.5,22 H 7 A 1,1 0 0,0 6,23 V 25 A 1,1 0 0,0 7,26 H 13.5 C 14,26 14,25.55 14,25 H 12 A 0.5,0.5 0 0,1 12,24 H 14.5 A 0.5,0.5 0 0,1 15,24.5 V 25 C 15,26.1 14.6,27 13.5,27 H 7 A 2,2 0 0,1 5,25 V 23 A 2,2 0 0,1 7,21 H 9.5 Z" fill="rgb(254, 254, 253)"/>
<path d="M 17.99,21.985 A 2,2 0 0,0 16,24 V 25 A 2,2 0 0,0 18,27 H 23 A 2,2 0 0,0 25,25 V 24 A 2,2 0 0,0 23,22 H 18 Z M 18,23 A 1,1 0 0,0 17,24 V 25 A 1,1 0 0,0 18,26 H 23 A 1,1 0 0,0 24,25 V 24 A 1,1 0 0,0 23,23 H 18 Z M 44,22 A 2,2 0 0,0 42,24 V 25 A 2,2 0 0,0 44,27 H 49 A 2,2 0 0,0 51,25 V 24 A 2,2 0 0,0 49,22 H 44 Z M 44,23 A 1,1 0 0,0 43,24 V 25 A 1,1 0 0,0 44,26 H 49 A 1,1 0 0,0 50,25 V 24 A 1,1 0 0,0 49,23 H 44 Z M 26.57,21 A 0.57,0.57 0 0,0 26,21.57 V 26.5 A 0.5,0.5 0 0,0 27,26.5 V 25 H 34 A 2,2 0 1,0 34,21 H 26.57 Z M 27,24 H 34 A 1,1 0 1,0 34,22 H 27 V 24 Z" fill="rgb(254, 254, 253)" fill-rule="evenodd"/>
<path d="M 38.99,21.985 A 2,2 0 0,0 37,24 V 26.5 A 0.5,0.5 0 0,0 38,26.5 V 24 A 1,1 0 0,1 39,23 H 40.5 A 0.5,0.5 0 0,0 40.5,22 H 39 Z" fill="rgb(254, 254, 253)"/>
<defs>
<linearGradient id="a" x1="10.42" x2="68.15" y1="9.71" y2="76.02" gradientUnits="userSpaceOnUse">
<stop stop-color="rgb(25, 29, 31)" offset="0"/>
<stop stop-color="rgb(5, 5, 8)" offset="1"/>
</linearGradient>
</defs>
</svg>
