<?xml version="1.0" encoding="UTF-8"?>
<!-- generated by Finnhub -->
<svg viewBox="0 0 55.5 55.5" xmlns="http://www.w3.org/2000/svg">
<path d="M 0,0 H 55.5 V 55.5 H 0 Z" fill="rgb(1, 176, 77)"/>
<path d="M 38.99,18.985 H 38 V 25.28 C 38.3,24.97 38.63,24.64 39,24.32 V 19 Z M 41,19 V 23 C 40.65,23.17 40.32,23.36 40,23.57 V 19 H 41 Z M 17,21 A 7.3,7.3 0 0,0 12.9,20 C 10.8,20 9.02,20.78 7.79,22.19 A 7.95,7.95 0 0,0 6,27.49 C 6,31.78 9.8,34 12.9,34 C 14.5,34 16.14,33.56 17.35,32.4 A 5.95,5.95 0 0,0 19.13,27.37 L 19.02,26 H 13 V 27 H 18.13 C 18.37,30.97 16.07,33.1 12.91,33.1 C 10.26,33.1 7.01,30.9 7.01,27.5 C 7.01,24.14 9.19,21 12.91,21 C 14.35,21 15.76,21.37 17,22.1 V 21 Z M 17,23.27 L 16.97,23.25 A 6.58,6.58 0 0,0 12.9,22 C 10.08,22 8,24.05 8,27.5 C 8,30.61 10.41,32 12.9,32 C 14.22,32 15.4,31.68 16.22,30.9 C 17.06,30.1 17.25,29.15 17.17,28 H 13 V 29 H 16.22 C 15.98,30.4 14.17,31 12.91,31 C 10.87,31 9,29.75 9,27.5 C 9,25 10.21,23 12.9,23 C 14.59,23 15.73,23.41 17,24.37 V 23.27 Z M 27.5,23.75 A 3.92,3.92 0 0,0 25.2,23 H 24.63 A 4.74,4.74 0 0,0 20,27.85 V 34 H 21 V 27.85 C 21,25.86 22.74,24 24.63,24 H 25.2 C 25.73,24 26.32,24.25 26.74,24.51 C 26.97,24.2 27.15,24.04 27.43,23.81 L 27.5,23.75 Z M 25.86,26.22 C 25.66,26.09 25.46,26 25.2,26 H 24.63 C 23.62,26 23,26.79 23,27.85 V 34 H 22 V 27.85 C 22,26.09 22.96,25 24.63,25 H 25.2 C 25.64,25 25.9,25.13 26.25,25.35 C 26.04,25.7 25.99,25.82 25.85,26.22 Z M 37,28.26 V 34 H 36 V 28.26 C 36,26 33.85,24 31.5,24 S 27,26.01 27,28.26 V 28.88 C 27,31.24 28.9,33 31.36,33 A 4.4,4.4 0 0,0 33.5,32.47 V 33.47 A 5.24,5.24 0 0,1 26,28.87 V 28.26 C 26,25.36 28.46,23 31.5,23 S 37,25.35 37,28.26 Z M 31.5,26 C 32.93,26 34,26.9 34,28.26 V 34 H 35 V 28.26 C 35,26.23 33.62,25 31.5,25 S 28,26.23 28,28.26 V 28.88 C 28,30.83 29.32,32 31.36,32 A 3.8,3.8 0 0,0 33.5,31.31 V 30.29 C 32.8,30.76 32.15,31 31.36,31 C 30,31 29,30.17 29,28.88 V 28.26 C 29,26.89 30.07,26 31.5,26 Z M 40.8,27.56 L 40.4,28.06 H 40.42 L 38.74,30.23 V 30.22 L 38.7,30.27 L 38.44,30.63 L 38.06,31.12 L 38,31.22 V 29.56 C 38.69,28.64 39.51,27.59 40.18,26.74 A 4.21,4.21 0 0,1 43.74,25 C 45.72,25 47,26.17 47,28.25 V 28.95 C 47,30.8 45.85,32 44,32 C 41.53,32 40.42,30.35 40.13,29.36 L 40.88,28.39 L 41.14,29.09 C 41.34,29.79 42.25,31 44,31 C 45.2,31 46,30.15 46,28.95 V 28.25 C 46,26.95 45.11,26 43.74,26 C 42.45,25.94 41.6,26.63 40.85,27.5 L 40.8,27.56 Z M 39.65,30 C 39.72,30.15 39.83,30.32 39.94,30.49 L 40.07,30.69 A 4.72,4.72 0 0,0 44,33 C 46.07,33 48,31.24 48,28.95 V 28.25 A 4.23,4.23 0 0,0 43.76,24 C 42.76,24 41.01,24.35 39.61,26.12 L 38.61,27.36 C 38.37,27.63 38.17,27.88 38,28.09 V 26.59 L 38.85,25.5 A 6.19,6.19 0 0,1 43.81,23 A 5.23,5.23 0 0,1 49,28.25 V 28.95 A 4.96,4.96 0 0,1 44.06,33.93 A 5.57,5.57 0 0,1 39.01,30.83 L 39.65,29.99 Z" fill="rgb(253, 253, 253)"/>
</svg>
