<?xml version="1.0" encoding="UTF-8"?>
<!-- generated by Finnhub -->
<svg viewBox="0 0 55.5 55.5" xmlns="http://www.w3.org/2000/svg">
<path d="M 0,0 H 55.5 V 55.5 H 0 Z" fill="url(#a)"/>
<path d="M 17.171,25.291999999999998 A 0.609,0.609 0 0,0 16.685,25.005 H 16.3 A 0.598,0.598 0 0,0 15.809,25.31 L 12.762,31.715 C 12.677,31.881 12.769,32 12.958,32 H 13.662 C 13.94,32 14.068,31.875 14.143,31.723 L 14.419,31.171 C 14.462,31.08 14.596,31 14.785,31 H 18.064 C 18.253,31 18.374,31.061 18.43,31.171 C 18.467,31.243 18.634,31.541 18.717,31.704 A 0.508,0.508 0 0,0 19.21,32 H 20.232 C 20.421,32 20.503,31.859 20.436,31.728 C 20.367,31.596 17.181,25.307 17.181,25.307 Z M 15.256,30 C 15.067,30 14.978,29.875 15.058,29.707 L 16.258,26.954 C 16.338,26.785 16.468,26.787 16.546,26.955 L 17.715,29.708 C 17.793,29.878 17.702,30 17.514,30 H 15.256 Z M 40.491,25.355 V 31.711 C 40.491,31.883 40.646,32 40.835,32 H 41.668 C 41.857,32 42,31.881 42,31.695 V 25.343 C 42,25.157 41.89,25.005 41.7,25.005 H 40.835 C 40.645,25.005 40.491,25.119 40.491,25.355 Z M 26.774,29.125 C 26.665,28.974 26.725,28.805 26.906,28.752 C 26.906,28.752 27.626,28.54 27.97,28.236 C 28.314,27.931 28.487,27.491 28.487,26.917 C 28.487,26.542 28.421,26.227 28.288,25.97 C 28.155,25.714 27.965,25.629 27.718,25.469 A 2.626,2.626 0 0,0 26.829,25.115 A 6.06,6.06 0 0,0 26.017,25.02 A 18.496,18.496 0 0,0 25.331,25.005 H 21.873 A 0.341,0.341 0 0,0 21.53,25.343 V 31.695 C 21.53,31.881 21.684,32 21.873,32 H 22.692 C 22.881,32 23,31.881 23,31.695 V 29 H 24.59 C 24.78,29 25.023,29.079 25.132,29.23 L 26.742,31.725 C 26.892,31.923 27.035,32 27.224,32 H 28.294 C 28.482,32 28.512,31.825 28.446,31.733 C 28.382,31.643 26.774,29.126 26.774,29.126 Z M 26.123,27.931 C 25.911,27.98 25.673,27.989 25.673,27.989 C 25.483,27.997 25.175,28.004 24.986,28.004 H 23.383 C 23.193,28.004 23,27.852 23,27.666 V 26.339 C 23,26.153 23.194,26.001 23.383,26.001 H 24.986 C 25.175,26.001 25.484,26.007 25.672,26.015 C 25.672,26.015 25.911,26.025 26.122,26.073 C 26.335,26.121 26.502,26.188 26.626,26.275 C 26.749,26.362 26.837,26.465 26.891,26.582 C 26.943,26.7 26.971,26.896 26.971,27.036 C 26.971,27.175 26.943,27.304 26.891,27.421 A 0.764,0.764 0 0,1 26.626,27.729 A 1.397,1.397 0 0,1 26.123,27.932 Z M 50.953,24.881 C 50.765,24.881 50.613,25.003 50.613,25.182 L 50.615,29.157 C 50.615,29.344 50.507,29.386 50.376,29.252 L 46.333,25.123 A 0.796,0.796 0 0,0 45.751,24.88 H 44.991 C 44.751,24.88 44.647,25.006 44.647,25.133 V 31.753 C 44.647,31.879 44.77,32 44.959,32 H 45.721 C 45.909,32 46,31.899 46,31.728 V 27.278 C 46,27.092 46.152,27.049 46.282,27.184 L 50.5,31.76 C 50.633,31.892 50.796,32 51.085,32 H 51.658 C 51.847,32 52.001,31.848 52.001,31.662 V 25.218 A 0.341,0.341 0 0,0 51.657,24.881 H 50.955 Z M 34.47,28.755 C 34.378,28.918 34.227,28.917 34.137,28.755 L 31.917,25.305 A 0.545,0.545 0 0,0 31.42,25.004 H 30.348 A 0.342,0.342 0 0,0 30.005,25.342 V 31.686 C 30.005,31.872 30.129,31.999 30.349,31.999 H 31.015 C 31.205,31.999 31.34,31.882 31.34,31.702 C 31.34,31.616 31.343,26.926 31.35,26.926 S 34.06,31.701 34.06,31.701 A 0.223,0.223 0 0,0 34.459,31.702 L 37,26.94 V 31.703 C 37,31.883 37.096,32 37.286,32 H 38.053 C 38.243,32 38.396,31.907 38.396,31.662 V 25.342 A 0.341,0.341 0 0,0 38.053,25.005 H 37.025 A 0.56,0.56 0 0,0 36.511,25.298 L 34.47,28.757 Z M 4,28.303 C 4,31.652 7.479,31.821 8.177,31.821 C 10.485,31.821 11.642,31.207 11.682,31.181 A 0.598,0.598 0 0,0 12.002,30.634 V 28.374 C 12.002,28.16 11.826,28 11.61,28 H 8.529 C 8.312,28 8.169,28.16 8.169,28.373 V 28.613 C 8.169,28.826 8.312,29 8.529,29 H 10.387 C 10.549,29 10.681,29.13 10.681,29.289 L 10.679,30.316 C 10.348,30.449 8.657,30.883 7.444,30.598 C 5.684,30.184 5.548,28.755 5.548,28.327 C 5.548,27.967 5.658,26.167 7.818,25.986 C 9.568,25.838 10.718,26.534 10.73,26.54 C 10.936,26.645 11.149,26.57 11.263,26.356 L 11.482,25.921 C 11.572,25.742 11.542,25.557 11.32,25.41 C 11.306,25.401 10.08,24.747 8.177,24.747 C 4.117,24.747 4,27.939 4,28.303 Z M 50.502,23 H 45.504 A 0.494,0.494 0 0,1 45.072,22.765 A 0.433,0.433 0 0,1 45.072,22.297 L 47.572,18.234 A 0.494,0.494 0 0,1 48.003,18 C 48.186,18 48.343,18.085 48.435,18.234 L 50.934,22.297 A 0.433,0.433 0 0,1 50.934,22.766 A 0.494,0.494 0 0,1 50.502,23 Z" fill="rgb(254, 254, 253)"/>
<defs>
<linearGradient id="a" x1="10.418" x2="68.147" y1="9.712" y2="76.017" gradientUnits="userSpaceOnUse">
<stop stop-color="rgb(25, 29, 31)" offset="0"/>
<stop stop-color="rgb(5, 5, 8)" offset="1"/>
</linearGradient>
</defs>
</svg>
