<?xml version="1.0" encoding="UTF-8"?>
<!-- generated by Finnhub -->
<svg viewBox="0 0 55.5 55.5" xmlns="http://www.w3.org/2000/svg">
<path d="M 0,0 H 55.5 V 55.5 H 0 Z" fill="rgb(99, 167, 238)"/>
<path d="M 36.99,5.985 V 13.105 H 35.386 C 34.463,9.615 32.464,6.997 29.696,6.872 C 27.85,6.748 26.775,7.62 25.851,8.867 C 24.929,10.362 24.467,13.479 24.467,17.218 C 24.467,20.708 24.621,23.325 25.083,25.195 C 25.39,26.068 26.159,27.439 28.158,27.439 C 29.234,27.439 30.004,27.189 30.465,26.691 C 31.235,25.943 31,24.447 31,23.451 V 20.085 C 31,18.838 30.926,18.091 30.157,17.717 C 29.542,17.467 28.461,17.467 28,17.343 V 16 H 37 V 34 H 35.693 C 35.233,32.63 34.925,31.926 34.156,30.804 C 33.386,29.683 32.003,28.437 29.696,28.437 C 27.236,28.311 25.39,29.558 25.39,31.427 C 25.39,33.921 27.235,34.544 30.619,36.039 C 33.849,37.535 38,38.782 38,43.144 C 38,47.382 33.54,50 28.466,50 H 20 V 41 H 21.391 C 22.776,47.481 26.159,49.002 28.466,49.002 C 31.388,49.002 32.771,47.507 32.771,45.388 C 32.618,42.645 30.311,41.648 27.081,40.278 C 22.469,38.158 20.315,37.161 20.315,33.671 C 20.469,30.68 23.391,28.81 26.62,28.063 C 19.854,27.439 17.855,22.453 18.008,17.093 C 18.008,11.733 21.853,6 29.388,6 H 37 Z" fill="rgb(254, 254, 253)"/>
</svg>
