<?xml version="1.0" encoding="UTF-8"?>
<!-- generated by Finnhub -->
<svg viewBox="0 0 55.5 55.5" xmlns="http://www.w3.org/2000/svg">
<path d="M 0,0 H 55.5 V 55.5 H 0 Z" fill="url(#a)"/>
<path d="M 37.378,14.286999999999999 C 42.038,15.058 46,17.322 46,23.089 C 46,30.274 39.31,39.341 34.16,43.296 C 31.924,44.988 29.481,46 26.569,46 C 22.802,46 19.274,44.471 16.041,40.934 C 12.604,37.174 10.001,31.904 10.001,26.984 C 10.001,25.655 10.385,24.024 10.943,22.847 C 14.591,15.088 25.657,14 32.307,14 C 33.955,14 35.74,14.06 37.387,14.302 Z M 27.997,28.369 L 28.099,28.422 C 29.353,29.071 30.666,29.811 30.666,31.23 C 30.666,33.298 28.667,34 26.996,34 C 25.95,34 25.026,33.792 24.07,33.39 V 31.972 C 25.056,32.526 26.279,32.866 27.055,32.866 C 27.891,32.866 28.935,32.65 28.935,31.631 C 28.935,30.631 27.93,30.138 26.822,29.594 L 26.757,29.563 C 25.504,28.946 24.16,28.268 24.16,26.693 C 24.16,24.78 25.95,24 27.562,24 C 28.428,24 29.254,24.162 30,24.594 V 25.983 C 29.283,25.396 28.457,25 27.532,25 C 26.636,25 25.772,25.428 25.772,26.26 C 25.772,27.22 26.842,27.772 27.997,28.368 Z M 26.9,45.18 H 26.857 C 21.343,45.171 16.576,41.07 13.893,36.323 C 14.49,36.785 15.176,37.187 15.893,37.403 C 16.878,37.712 17.982,37.866 18.817,37.866 C 21.981,37.866 23.295,36.631 23.354,34.933 C 23.384,33.453 22.31,32.619 20.309,32.495 L 18.25,32.371 C 17.295,32.31 17.086,32.001 17.086,31.598 C 17.086,31.36 17.204,31.086 17.457,30.875 C 17.627,30.73 17.847,30.621 18.09,30.572 C 18.342,30.602 18.558,30.611 18.758,30.611 C 21.086,30.611 22.398,29.161 22.398,27.433 C 22.398,26.693 22.131,25.921 21.653,25.364 C 22.16,25.364 23.115,25.427 23.414,25.489 V 24.254 C 22.876,24.408 22.22,24.438 21.653,24.438 C 21.176,24.438 20.728,24.346 20.309,24.222 A 5.764,5.764 0 0,0 18.702,24 C 16.363,24 15,25.43 15,27.348 C 15,28.67 15.743,29.84 16.937,30.304 C 16.042,30.736 15.564,31.354 15.564,32.064 C 15.564,32.866 16.191,33.7 17.415,33.823 H 17.416 C 18.191,33.884 18.579,33.915 19.683,33.978 C 20.787,34.04 21.146,34.071 21.563,34.225 C 21.951,34.379 22.22,34.78 22.22,35.149 C 22.22,35.891 21.712,36.292 21.206,36.509 C 20.698,36.693 19.892,36.786 18.996,36.786 C 15.773,36.786 13.416,35.058 12.103,32.033 C 11.338,30.27 11.066,28.597 11.057,26.75 V 26.604 C 11.067,25.381 11.364,23.93 11.863,22.896 C 15.266,15.612 25.861,14.377 32.726,14.377 C 34.366,14.377 35.859,14.408 37.5,14.686 C 42.038,15.426 45.649,17.711 45.649,22.866 C 45.649,29.749 39.142,38.608 34.009,42.56 C 31.867,44.19 29.576,45.175 26.9,45.181 Z M 38.188,31.816 C 39.291,33.052 40.128,33.42 40.635,33.42 C 40.725,33.42 40.844,33.39 40.933,33.358 C 40.485,33.698 39.829,33.999 39.113,33.999 C 38.188,33.999 37.412,33.359 36.457,32.186 L 33.711,28.791 V 31.261 C 33.711,32.988 33.801,33.597 33.95,33.999 H 31.74 C 31.92,33.506 31.999,32.989 31.999,31.261 V 22.711 C 31.999,21.322 31.919,20.704 31.649,20.333 L 33.709,19.778 V 28.05 L 36.426,25.427 S 37.163,24.647 37.64,23.999 H 40 C 39.88,24.029 39.262,24.409 37.77,25.859 L 35.232,28.328 S 36.755,30.18 38.188,31.816 Z M 16.548,27.091 C 16.548,28.511 17.348,29.623 18.811,29.623 C 20.093,29.623 20.758,28.722 20.758,27.455 C 20.758,26.067 19.988,24.999 18.556,24.999 C 17.302,24.999 16.549,25.826 16.549,27.091 Z" fill="rgb(254, 254, 253)" fill-rule="evenodd"/>
<defs>
<linearGradient id="a" x1="58.5" x2="0" y1="-3" y2="46" gradientUnits="userSpaceOnUse">
<stop stop-color="rgb(252, 211, 68)" offset="0"/>
<stop stop-color="rgb(242, 110, 31)" offset=".516"/>
<stop stop-color="rgb(238, 62, 33)" offset="1"/>
</linearGradient>
</defs>
</svg>
