<?xml version="1.0" encoding="UTF-8"?>
<!-- generated by Finnhub -->
<svg viewBox="0 0 55.5 55.5" xmlns="http://www.w3.org/2000/svg">
<path d="M 0,0 H 55.5 V 55.5 H 0 Z" fill="rgb(34, 66, 148)"/>
<path d="M 8.715,26.384 A 0.17,0.17 0 0,1 8.781,26.629 L 8.466,27.171 C 8.428,27.234 8.373,27.276 8.261,27.192 C 8.039,27.046 7.686,26.999 7.371,26.999 C 7,26.999 6.727,27.224 6.653,27.516 L 5.991,30.618 C 5.935,30.889 6.097,31.035 6.356,31.035 H 6.523 C 6.598,31.035 6.635,30.994 6.653,30.931 L 7.053,29.156 C 7.073,29.073 7.147,29 7.221,29 H 9.076 C 9.15,29 9.188,29.094 9.169,29.156 L 8.567,31.847 C 8.548,31.931 8.474,32 8.4,32 H 5.765 C 4.485,32 4,30.764 4,29.7 C 4.068,27.067 5.571,26.002 7.37,26.002 C 7.872,26.002 8.336,26.128 8.725,26.399 Z M 15,28.85 C 15,30.5 13.908,31.996 11.978,31.996 C 10.661,31.996 9.633,30.941 9.633,29.375 C 9.633,27.433 10.948,26.002 12.692,26.002 C 14.009,26.002 15,27.284 15,28.85 Z M 13.007,27.38 C 13.081,27.004 12.989,26.837 12.729,26.837 C 12.432,26.837 12.339,26.983 12.246,27.443 L 11.589,30.618 C 11.514,30.973 11.57,31.161 11.867,31.161 C 12.145,31.161 12.257,31.015 12.331,30.639 L 13.007,27.38 Z M 20.699,28.85 C 20.699,30.5 19.659,31.996 17.73,31.996 C 16.413,31.996 15.363,30.941 15.363,29.375 C 15.363,27.433 16.696,26.005 18.44,26.005 C 19.757,26.005 20.699,27.285 20.699,28.85 Z M 18.755,27.382 C 18.829,27.006 18.737,26.839 18.477,26.839 C 18.18,26.839 18.087,26.985 17.994,27.445 L 17.34,30.618 C 17.266,30.973 17.322,31.161 17.619,31.161 C 17.897,31.161 18.009,31.015 18.083,30.639 L 18.755,27.382 Z M 24.639,26.004 C 25.975,26.004 26.476,27.006 26.476,28.008 C 26.476,29.658 25.393,31.996 23.686,31.996 H 20.792 C 20.717,31.996 20.68,31.912 20.699,31.85 L 21.856,26.15 C 21.875,26.046 21.93,26.004 22.023,26.004 H 24.639 Z M 24.491,27.257 C 24.559,26.939 23.976,26.997 23.976,26.997 C 23.902,26.997 23.846,27.04 23.846,27.102 L 23.036,30.91 C 23.018,31.015 23.051,31.003 23.126,31.003 C 23.57,31.003 23.705,31.056 23.779,30.723 L 24.491,27.257 Z M 27.211,32.455 C 26.691,32.998 26.005,33.457 25.727,33.457 C 25.634,33.457 25.597,33.374 25.597,33.29 C 25.597,32.664 26.209,32.35 26.432,31.85 C 26.655,31.37 26.729,30.89 26.896,30.41 C 27.063,29.929 27.211,29.323 27.526,28.906 C 27.824,29.553 28.195,30.346 28.473,31.015 C 28.121,31.411 27.675,31.954 27.211,32.455 Z M 30.83,29.365 A 0.36,0.36 0 0,1 30.96,29.637 C 28.993,30.722 27.954,33.207 25.95,34 C 25.875,33.896 25.857,33.812 25.82,33.708 C 27.768,32.935 28.751,30.43 30.83,29.365 Z M 27.007,26.38 C 27.694,25.879 28.343,25.503 28.955,25.127 A 2.627,2.627 0 0,0 28.881,25.795 C 28.881,25.962 28.9,26.15 28.956,26.317 L 27.508,27.257 A 4.847,4.847 0 0,1 27.008,26.38 Z M 27.638,28.405 C 27.657,28.217 27.675,28.008 27.675,27.82 C 27.675,27.737 27.675,27.674 27.657,27.59 C 28.177,27.59 28.399,27.653 28.807,27.695 V 27.758 C 28.417,27.988 28.027,28.238 27.638,28.405 Z M 29.104,27.945 C 29.234,28.322 29.419,28.635 29.679,28.948 C 29.958,28.843 30.013,28.468 30.254,28.342 L 30.7,29.136 C 29.995,29.636 29.29,30.159 28.677,30.826 A 28.9,28.9 0 0,1 27.731,28.781 C 28.195,28.468 28.641,28.154 29.104,27.946 Z M 29.03,26.589 H 29.104 L 29.048,27.361 C 28.956,27.382 28.844,27.382 28.733,27.382 C 28.492,27.382 28.25,27.362 27.935,27.34 L 29.03,26.589 Z M 36,23.415 C 36,24.375 34.8,24.647 33.965,24.647 C 33.538,24.647 33.112,24.605 32.703,24.584 V 24.647 L 33.075,24.814 C 33.056,25.127 32.611,25.086 32.369,25.211 C 32.425,25.273 32.518,25.231 32.518,25.315 V 25.336 C 32.351,25.545 32.128,25.608 31.906,25.608 A 0.872,0.872 0 0,1 31.46,25.503 L 31.405,25.566 V 25.754 C 31.405,25.9 31.145,27.174 30.978,27.174 C 30.885,27.174 30.829,27.09 30.737,27.027 C 30.663,27.236 30.7,27.528 30.551,27.695 C 30.421,27.695 30.329,27.507 30.236,27.465 C 30.106,27.799 30.013,28.134 29.809,28.425 C 29.401,28.342 29.327,27.612 29.327,27.173 C 29.327,27.006 29.345,26.818 29.382,26.63 C 29.234,26.38 29.104,26.046 29.104,25.712 C 29.104,24.501 30.477,23.478 31.294,23.478 C 32.11,23.478 32.908,23.582 33.743,23.582 C 34.485,23.582 35.313,23.499 36,23.352 V 23.415 Z M 30.236,25.795 L 30.162,25.378 L 29.865,25.357 L 29.902,25.42 C 30.106,25.44 30.069,25.733 30.236,25.795 Z M 31.664,24.083 C 31.627,24.104 31.59,24.104 31.554,24.104 C 31.46,24.104 31.349,24.042 31.256,24.042 C 31.201,24.042 31.145,24.083 31.108,24.167 C 30.997,24.292 30.811,24.271 30.663,24.292 A 0.503,0.503 0 0,1 30.273,24.626 A 0.468,0.468 0 0,0 30.514,24.689 C 30.551,24.689 30.607,24.689 30.644,24.668 C 30.737,24.522 30.904,24.501 31.052,24.501 C 31.275,24.501 31.238,24.23 31.386,24.23 C 31.405,24.23 31.423,24.23 31.442,24.25 C 31.553,24.209 31.665,24.146 31.665,24.084 Z M 32.648,29.574 L 31.819,26.152 C 31.8,26.048 31.819,26 31.912,26 H 33.879 C 33.971,26 34.027,26.069 34.045,26.152 L 34.509,27.802 L 35.697,26.152 C 35.771,26.069 35.845,26 35.938,26 H 36.884 C 36.959,26 36.977,26.069 36.903,26.152 L 34.8,29.595 L 34.32,31.855 C 34.3,31.939 34.226,32.001 34.152,32.001 H 32.242 C 32.167,32.001 32.13,31.918 32.148,31.855 L 32.648,29.575 Z M 41.216,26 C 41.291,26 41.328,26.084 41.309,26.146 L 41.174,26.852 A 0.19,0.19 0 0,1 41,26.998 H 39.578 C 39.522,26.998 39.429,27.081 39.411,27.144 L 39.157,28.19 C 39.157,28.253 39.176,28.273 39.231,28.273 H 40.121 C 40.196,28.273 40.233,28.357 40.215,28.419 L 40.081,29.294 C 40.062,29.378 39.988,29.44 39.914,29.44 H 39.042 C 38.986,29.44 38.931,29.461 38.912,29.524 L 38.582,30.902 C 38.563,30.986 38.582,31 38.656,31 H 40.122 C 40.196,31 40.229,31.14 40.211,31.203 L 40.081,31.85 C 40.062,31.933 39.988,31.996 39.914,31.996 H 36.314 C 36.24,31.996 36.203,31.912 36.222,31.85 L 37.432,26.146 C 37.45,26.042 37.505,26 37.598,26 H 41.216 Z M 45.689,31.857 C 45.689,31.94 45.634,32.003 45.559,32.003 H 43.704 C 43.611,32.003 43.556,31.94 43.556,31.857 L 43.484,31.104 C 43.484,31.021 43.428,31 43.372,31 H 41.944 C 41.869,31 41.814,31.042 41.777,31.104 L 41.477,31.857 A 0.234,0.234 0 0,1 41.255,32.003 H 40.568 C 40.494,32.003 40.476,31.919 40.513,31.857 L 43.193,26.147 A 0.224,0.224 0 0,1 43.415,26 H 45.011 A 0.15,0.15 0 0,1 45.159,26.146 L 45.689,31.856 Z M 43.28,30 C 43.355,30 43.373,29.966 43.373,29.903 L 43.237,28.053 C 43.237,27.99 43.181,27.969 43.144,28.053 L 42.464,29.903 C 42.427,29.987 42.445,30 42.501,30 H 43.281 Z M 50.3,26 C 51.58,26 52.001,26.689 52.001,27.461 C 52.001,27.921 51.853,29.428 51.073,29.95 C 51.036,29.97 50.98,30.013 50.999,30.138 L 51.233,31.836 C 51.252,31.919 51.215,32.003 51.14,32.003 H 49.155 C 49.081,32.003 49.007,31.961 48.988,31.857 L 48.828,30.451 C 48.81,30.367 48.81,30.305 48.735,30.305 H 48.661 C 48.587,30.305 48.55,30.346 48.531,30.451 L 48.171,31.857 C 48.153,31.94 48.079,32.003 48.005,32.003 H 46.094 C 46.02,32.003 45.982,31.919 46.001,31.857 L 47.146,26.167 C 47.165,26.063 47.22,26 47.313,26 H 50.3 Z M 49.78,27.253 C 49.855,26.898 49.762,26.835 49.28,26.835 C 49.206,26.835 49.15,26.877 49.15,26.939 L 48.754,29.323 C 48.735,29.428 48.754,29.47 48.828,29.47 C 49.274,29.47 49.422,29.47 49.496,29.136 L 49.781,27.253 Z" fill="rgb(254, 220, 2)"/>
</svg>
