<?xml version="1.0" encoding="UTF-8"?>
<!-- generated by Finnhub -->
<svg viewBox="0 0 55.5 55.5" xmlns="http://www.w3.org/2000/svg">
<path d="M 0,0 H 55.5 V 55.5 H 0 Z" fill="rgb(55, 12, 116)"/>
<path d="M 27.99,43.985 L 33.9,26 H 22.1 L 28,44 Z" fill="rgb(226, 66, 39)"/>
<path d="M 13.85,25.985 L 12.06,31.47 C 11.9,31.97 12.07,32.51 12.5,32.82 L 28,44 L 13.86,26 Z" fill="rgb(251, 162, 35)"/>
<path d="M 13.85,25.985 H 22.11 L 18.56,14.44 A 0.6,0.6 0 0,0 17.4,14.44 L 13.86,26 Z" fill="rgb(226, 66, 39)"/>
<path d="M 42.14,25.985 L 43.94,31.47 A 1.2,1.2 0 0,1 43.5,32.82 L 28,44 L 42.15,26 Z" fill="rgb(251, 162, 35)"/>
<path d="M 42.14,25.985 H 33.9 L 37.45,14.44 A 0.6,0.6 0 0,1 38.61,14.44 L 42.15,26 Z" fill="rgb(226, 66, 39)"/>
<path d="M 27.99,43.985 L 33.9,26 H 42.15 L 28,44 Z M 28,44 L 13.86,26 H 22.11 L 28,44 Z" fill="rgb(251, 109, 36)"/>
</svg>
