<?xml version="1.0" encoding="UTF-8"?>
<!-- generated by Finnhub -->
<svg viewBox="0 0 55.5 55.5" xmlns="http://www.w3.org/2000/svg">
<path d="M 0,0 H 55.5 V 55.5 H 0 Z" fill="rgb(64, 121, 172)"/>
<path d="M 48.99,31.985 H 48 V 23 H 45 V 22 H 52 V 23 H 49 V 32 Z M 39,30.308 C 41.874,31.121 44.563,32.304 47.286,33.862 V 34.124 A 44.961,44.961 0 0,0 32.674,30.408 L 34.38,35 H 33.06 L 31.375,30.317 A 51.533,51.533 0 0,0 26.411,30.277 L 24.711,35 H 23.39 L 25.12,30.346 C 19.176,30.741 14.114,32.168 9.668,34.123 V 33.859 A 38.809,38.809 0 0,1 19,30.112 V 27.536 L 15.446,22 H 16.58 L 19.411,26.598 L 22.16,22 H 23.232 L 20,27.536 V 29.829 A 36.08,36.08 0 0,1 25.65,29.042 L 28.695,22 H 29.285 L 32.144,29.1 C 34.133,29.261 36.213,29.557 38,29.991 V 23 H 35 V 22 H 42 V 23 H 39 V 30.308 Z M 29,23.978 L 26.92,29 C 28.234,28.959 29.55,28.933 30.865,29 L 29,23.978 Z M 10,27 H 5 V 32 H 4 V 22 H 5 V 26 H 10 V 22 H 11 V 32 H 10 V 27 Z" fill="rgb(254, 254, 253)"/>
</svg>
