<?xml version="1.0" encoding="UTF-8"?>
<!-- generated by Finnhub -->
<svg viewBox="0 0 55.5 55.5" xmlns="http://www.w3.org/2000/svg">
<path d="M 0,0 H 55.5 V 55.5 H 0 Z" fill="rgb(193, 41, 51)"/>
<path d="M 27.99,43.985 C 36.837,44 44,36.837 44,28 C 44,26.619 43.825,25.279 43.496,24 H 36.284 C 36.026,24 35.804,24.238 35.762,24.493 L 34.456,31.804 C 34.141,33.671 32.524,35 30.631,35 H 27.44 L 28.283,30.195 A 0.493,0.493 0 1,0 27.311,30.03 L 26.439,35 H 19.439 L 21.102,25.338 C 21.39,23.64 22.858,22 24.58,22 H 28.6 L 27.754,27.404 A 0.493,0.493 0 0,0 28.727,27.568 L 29.599,22 H 42.837 C 40.463,16.136 34.715,12 28,12 C 19.163,12 12,19.163 12,28 C 12,36.837 19.163,44 28,44 Z" fill="rgb(254, 254, 253)"/>
</svg>
