<?xml version="1.0" encoding="UTF-8"?>
<!-- generated by Finnhub -->
<svg viewBox="0 0 55.5 55.5" xmlns="http://www.w3.org/2000/svg">
<path d="M 0,0 H 55.5 V 55.5 H 0 Z" fill="url(#a)"/>
<path d="M 12.078,26.320999999999998 S 9.172,27.162 7.818,27.908 C 7.299,28.174 6.137,29.386 8.094,29.386 A 7.711,7.711 0 0,0 9.733,29.104 L 12.366,28.39 L 12.806,31.376 S 12.887,31.872 12.936,32.036 C 12.936,32.036 13.036,32.886 13.701,32.766 A 5.015,5.015 0 0,0 15.098,32.526 C 15.203,32.476 15.478,32.412 15.351,31.996 C 15.333,31.789 14.686,27.789 14.686,27.789 L 16.977,27.208 L 17.596,31.231 S 17.712,32.153 18.419,31.982 C 18.632,31.949 19.157,31.878 19.479,31.697 C 19.557,31.642 19.739,31.579 19.522,31.167 C 19.456,30.953 18.758,28.461 18.624,26.873 C 18.773,26.846 21.344,26.387 21.246,26.498 A 6.07,6.07 0 0,0 19.993,28.574 C 19.699,29.209 19.975,31.168 21.858,30.628 C 22.181,30.508 22.936,30.27 23.779,29.181 C 23.821,29.285 24.357,30.694 25.879,30.299 C 26.039,30.255 26.272,30.224 26.039,30.022 C 25.923,29.948 25.345,29.642 25.373,28.445 C 25.433,27.661 25.538,26.882 25.686,26.111 C 25.702,25.991 25.735,25.56 25.27,25.665 A 3.66,3.66 0 0,0 24.097,26.232 C 23.991,26.322 23.868,26.389 23.786,26.784 C 23.723,26.982 23.072,29.011 22.01,29.734 C 21.826,29.85 21.483,30.091 21.462,29.598 C 21.442,29.328 21.661,27.828 23.492,26.179 C 23.713,25.992 24.249,25.594 24.461,25.533 C 24.64,25.502 24.845,25.271 24.495,25.175 C 24.495,25.175 23.91,25.03 21.973,25.305 C 21.783,25.33 20.197,25.545 18.503,25.907 C 18.485,25.694 18.295,23.053 18.445,21.713 C 18.469,21.453 18.742,20.538 17.838,20.694 C 17.676,20.714 16.785,20.846 16.333,21.142 C 16.212,21.215 16.047,21.269 16.234,21.402 C 16.31,21.49 16.446,21.619 16.475,22.116 C 16.495,22.305 16.841,26.29 16.841,26.29 L 14.542,26.894 S 14.11,23.561 14.087,22.153 C 14.071,21.922 14.208,20.947 13.177,21.31 C 12.944,21.372 11.885,21.652 11.139,22.238 C 11.139,22.238 10.719,22.491 11.149,22.595 A 0.67,0.67 0 0,1 11.507,23.143 C 11.55,23.368 12.074,26.339 12.074,26.339 L 12.088,26.336 Z M 9.06,28.224 C 8.78,28.247 8.873,28.017 9.015,27.933 C 10.131,27.229 12.135,26.723 12.135,26.723 L 12.245,27.515 C 10.793,27.951 9.432,28.225 9.059,28.224 H 9.06 Z M 30.73,24.706 S 30.852,24.747 30.833,24.561 C 30.813,24.374 30.773,23.745 30.255,23.457 C 30.134,23.403 29.915,23.254 29.37,23.446 C 29.208,23.504 27.245,24.236 26.312,25.986 C 26.241,26.139 25.622,27.496 26.796,27.866 C 27.261,28 27.734,28.104 28.212,28.177 C 28.212,28.177 29.892,28.343 28.894,29.755 A 8.766,8.766 0 0,1 27.279,31.454 C 27.118,31.571 26.427,32.078 25.624,31.634 C 25.488,31.574 25.234,31.497 25.324,31.817 C 25.388,31.949 25.808,32.684 26.438,33.027 C 26.58,33.092 27.018,33.462 28.468,32.638 C 28.779,32.473 30.384,31.229 31.028,29.831 C 31.115,29.579 31.634,28.359 30.507,27.945 C 30.166,27.802 29.26,27.601 29.02,27.538 C 28.576,27.413 27.27,27.18 28.104,25.979 C 28.324,25.753 29.131,24.904 30.729,24.706 Z M 29.866,20.493 S 29.653,20.59 29.927,20.675 C 30.227,20.862 30.444,21.163 30.531,21.512 C 30.981,22.962 31.305,24.451 31.5,25.959 C 31.532,26.192 31.808,28.449 31.77,29.049 C 31.792,29.215 31.77,29.943 32.814,29.669 C 33.527,29.479 35.192,28.316 36.332,26.562 C 36.481,26.382 37.885,23.933 35.202,23.968 C 34.789,24.035 34.282,24.075 33.234,24.785 C 33.206,24.64 32.958,21.725 32.588,20.58 C 32.458,20.323 32.365,19.92 31.516,20.014 C 31.307,20.047 30.376,20.179 29.867,20.491 L 29.866,20.493 Z M 33.951,25.167 C 35.141,24.731 34.848,26.557 34.631,26.947 A 2.862,2.862 0 0,1 33.576,28.382 L 33.298,25.545 C 33.501,25.398 33.718,25.271 33.944,25.167 H 33.951 Z M 39.272,24.389 A 1.373,1.373 0 0,0 38.68,23.799 A 1.33,1.33 0 0,0 37.863,23.67 C 37.548,23.732 37.253,23.871 37.003,24.077 C 36.957,24.127 36.795,24.324 37.044,24.352 C 37.193,24.377 37.916,24.43 37.958,25.153 C 37.958,25.343 38.055,26.017 37.49,28.359 C 37.446,28.498 37.291,28.972 37.843,28.942 C 38.033,28.934 38.922,28.889 39.371,28.665 C 39.519,28.582 39.734,28.541 39.708,28.125 C 39.708,27.948 39.708,25.968 39.568,25.429 A 2.869,2.869 0 0,1 40.813,24.037 C 40.953,23.967 41.447,23.652 41.849,24.115 C 41.912,24.177 41.989,24.28 42.172,24.126 C 42.299,24.004 42.768,23.561 42.681,22.959 C 42.641,22.809 42.605,22.44 41.852,22.521 C 41.632,22.561 40.583,22.63 39.269,24.389 H 39.272 Z M 41.093,26.922 S 40.948,28.425 42.627,28.299 A 4.825,4.825 0 0,0 45.657,26.887 C 45.85,26.687 46.822,25.703 46.95,24.687 C 46.985,24.467 47.376,22.574 45.291,22.704 A 4.6,4.6 0 0,0 42.509,24.144 C 42.33,24.324 41.097,25.631 41.089,26.929 L 41.093,26.922 Z M 42.937,26.268 C 43.384,24.509 44.229,23.895 44.355,23.776 C 44.925,23.38 45.033,23.703 45.107,23.84 C 45.269,24.21 45.046,24.997 44.973,25.231 A 4.09,4.09 0 0,1 43.643,27.287 C 42.943,27.747 42.918,27.158 42.897,26.988 C 42.892,26.748 42.904,26.507 42.936,26.268" fill="rgb(254, 254, 253)"/>
<path d="M 36.242000000000004,29.598 A 0.65,0.65 0 0,1 36.22,29.697 C 35.251,31.863 32.77,33.698 32.545,33.852 A 13.727,13.727 0 0,1 27.455,36.247 C 25.622,36.712 23.728,36.877 21.845,36.732 C 22.464,38.763 25.698,40.063 25.825,40.116 A 8.813,8.813 0 0,0 32.398,40.256 C 35.002,39.335 35.832,37.086 36.002,36.696 C 36.927,34.356 36.583,31.933 36.53,31.49 A 8.577,8.577 0 0,0 36.326,30.275 C 36.286,30.004 36.578,30.047 36.583,30.214 C 36.923,31.425 37.1,32.679 37.106,33.939 C 37.098,36.547 36.366,37.716 36.254,37.966 C 35.303,39.839 34.035,40.56 33.812,40.694 C 31.662,42.147 29.088,42.005 28.685,41.989 C 24.95,41.815 22.622,39.946 22.192,39.597 C 19.79,37.664 19.58,35.219 19.575,35.067 C 19.57,34.916 19.609,34.975 19.875,35.041 C 24.023,36.215 27.648,35.041 27.85,34.993 C 33.263,33.659 36,29.543 36,29.543 C 36.19,29.244 36.323,29.5 36.247,29.609" fill="rgb(254, 254, 253)"/>
<defs>
<radialGradient id="a" cx="0" cy="0" r="1" gradientTransform="matrix(73.952 0 0 69.49 49.527 .431)" gradientUnits="userSpaceOnUse">
<stop stop-color="rgb(1, 167, 169)" offset=".09"/>
<stop stop-color="rgb(1, 114, 187)" offset=".59"/>
</radialGradient>
</defs>
</svg>
