<?xml version="1.0" encoding="UTF-8"?>
<!-- generated by Finnhub -->
<svg viewBox="0 0 55.5 55.5" xmlns="http://www.w3.org/2000/svg">
<path d="M 0,0 H 55.5 V 55.5 H 0 Z" fill="rgb(90, 165, 58)"/>
<path d="M 14.016,20.096999999999998 V 35.888 A 2,2 0 0,0 14.97,37.587 L 18.026,39.485 V 16.515 L 14.97,18.413 A 2,2 0 0,0 14.026,20.113 Z M 19,40.09 V 15.91 L 23,13.425 V 26.819 L 24,26.179 V 12.804 L 27.457,10.656 C 27.628,10.55 27.811,10.472 28,10.421 V 23.62 L 29,22.98 V 10.415 C 29.198,10.465 29.39,10.545 29.568,10.655 L 33,12.789 V 25.169 L 23,31.569 V 42.576 L 19,40.091 Z M 28,45.579 A 2.004,2.004 0 0,1 27.457,45.344 L 24,43.196 V 32.386 L 34,25.986 V 13.409 L 38,15.894 V 40.106 L 34,42.591 V 30.734 L 33,31.374 V 43.213 L 29.568,45.344 C 29.39,45.455 29.198,45.536 29,45.585 V 33.935 L 28,34.575 V 45.579 Z M 43,35.889 V 20.111 A 2,2 0 0,0 42.055,18.412 L 39,16.515 V 39.485 L 42.055,37.587 A 2,2 0 0,0 43,35.888 Z" fill="rgb(254, 254, 253)"/>
</svg>
