<?xml version="1.0" encoding="UTF-8"?>
<!-- generated by Finnhub -->
<svg viewBox="0 0 55.5 55.5" xmlns="http://www.w3.org/2000/svg">
<path d="M 0,0 H 55.5 V 55.5 H 0 Z" fill="rgb(223, 88, 39)"/>
<path d="M 25.99,11.985 C 23.545,12 23,14.045 23,16.5 V 20.5 C 23,21.727 21.672,23 20.444,23 H 16.444 C 13.99,23 12,23.545 12,26 H 21.778 C 24.723,26 26,24.723 26,21.778 V 12 Z M 12,30 C 12,32.455 13.934,33 16.389,33 H 20.389 C 21.616,33 23,34.328 23,35.556 V 39.556 C 23,42.01 23.545,44 26,44 V 34.222 C 26,31.277 24.723,30 21.778,30 H 12 Z M 44,26 C 44,23.545 41.955,23 39.5,23 H 35.5 C 34.273,23 33,21.727 33,20.5 V 16.5 C 33,14.045 32.455,12 30,12 V 21.778 C 30,24.723 31.277,26 34.222,26 H 44 Z M 30,44 C 32.455,44 33,42.01 33,39.556 V 35.556 C 33,34.328 34.273,33 35.5,33 H 39.5 C 41.955,33 44,32.455 44,30 H 34.222 C 31.277,30 30,31.277 30,34.222 V 44 Z M 25.438,28.08 A 0.102,0.102 0 0,1 25.438,27.92 C 25.818,27.623 27.14,26.554 27.915,25.457 A 0.104,0.104 0 0,1 28.085,25.457 C 28.86,26.554 30.182,27.623 30.562,27.919 A 0.102,0.102 0 0,1 30.562,28.081 C 30.182,28.377 28.86,29.446 28.085,30.543 A 0.104,0.104 0 0,1 27.915,30.543 C 27.14,29.446 25.818,28.377 25.438,28.081 Z" fill="rgb(254, 254, 253)"/>
</svg>
