<?xml version="1.0" encoding="UTF-8"?>
<!-- generated by Finnhub -->
<svg viewBox="0 0 55.5 55.5" xmlns="http://www.w3.org/2000/svg">
<path d="M 0,0 H 55.5 V 55.5 H 0 Z" fill="rgb(245, 129, 29)"/>
<path d="M 11.992,13.987 A 2,2 0 0,1 14.002,12.002 H 42 A 2,2 0 0,1 44,14.002 V 41.997 A 2,2 0 0,1 42,43.997 H 14.002 A 2,2 0 0,1 12.002,41.997 V 14.002 Z" fill="rgb(254, 254, 253)"/>
<path d="M 21.826999999999998,29.248 C 21.6,29.028 21.354,28.706 21.637,28.104 L 21.09,27.555 C 19.27,29.733 19.953,32.282 21.832,34.162 C 23.712,36.042 26.261,36.723 28.439,34.905 L 27.891,34.355 C 27.288,34.639 26.967,34.393 26.73,34.157 L 21.837,29.263 Z M 28.115,32.773 C 28.352,33.008 28.598,33.33 28.315,33.933 L 28.862,34.481 C 30.682,32.303 30,29.755 28.12,27.874 C 26.24,25.994 23.691,25.314 21.514,27.132 L 22.062,27.68 C 22.665,27.397 22.985,27.642 23.222,27.88 L 28.115,32.772 Z M 38.732,23.744 C 38.599,23.612 38.43,23.611 38.27,23.696 C 37.835,23.923 37.789,23.856 37.439,23.506 L 32.488,18.557 C 32.138,18.207 32.071,18.161 32.298,17.726 C 32.382,17.566 32.383,17.396 32.25,17.263 C 31.977,16.989 31.647,17.283 31.61,17.319 L 29.12,19.808 L 31.153,23.576 L 31.134,23.593 L 27.226,21.703 L 24.833,24.096 C 24.72,24.209 24.436,24.492 24.728,24.786 C 24.955,25.012 25.228,24.776 25.351,24.672 C 25.521,24.522 25.673,24.596 25.899,24.654 C 26.097,24.702 26.287,24.796 26.475,24.892 L 34.291,28.768 L 34.565,28.495 L 30.741,21.429 L 35.129,25.816 C 35.478,26.166 35.544,26.214 35.317,26.646 C 35.232,26.808 35.233,26.976 35.367,27.109 C 35.639,27.382 35.969,27.091 36.007,27.053 L 38.677,24.385 C 38.715,24.347 39.005,24.017 38.732,23.743 Z M 31.347,28.727 L 29.723,27.103 L 27.637,26.073 L 27.618,26.091 L 30.801,29.274 C 31.831,30.606 30.859,30.841 31.265,31.246 C 31.559,31.538 31.925,31.134 32.029,31.029 L 33.104,29.956 C 33.207,29.852 33.612,29.486 33.318,29.193 C 32.914,28.787 32.678,29.758 31.348,28.727 Z M 26.219,38.62 C 27.111,37.705 28.491,37.579 29.926,38.886 C 31.232,40.074 31.073,41.71 30.192,42.592 L 29.884,42.283 C 30.165,41.917 29.878,41.598 29.676,41.397 L 27.414,39.134 C 27.212,38.933 26.894,38.646 26.527,38.928 L 26.219,38.619 Z M 29.6,35.238 L 28.199,36.639 C 28.179,36.66 28.013,36.847 28.167,37.001 C 28.241,37.075 28.337,37.075 28.427,37.026 C 28.665,36.903 28.697,36.935 28.88,37.118 L 28.895,37.133 L 31.678,39.915 L 31.692,39.93 C 31.876,40.114 31.908,40.145 31.784,40.383 C 31.736,40.473 31.736,40.568 31.809,40.643 C 31.965,40.797 32.15,40.633 32.171,40.611 L 33.573,39.21 L 29.6,35.238 Z M 31.025,33.814 L 29.84,34.998 L 30.148,35.306 C 30.69,34.913 31.22,34.903 31.79,35.195 C 31.895,35.248 31.975,35.275 32.065,35.184 C 32.225,35.024 32.129,34.919 32.102,34.892 L 31.025,33.814 Z M 33.505,38.663 C 33.881,38.179 33.919,37.558 33.637,36.989 L 33.627,36.961 C 33.587,36.854 33.549,36.749 33.637,36.661 C 33.799,36.499 33.936,36.648 33.967,36.682 L 33.972,36.687 L 35.034,37.75 L 33.812,38.971 L 33.505,38.663 Z M 31.518,35.933 C 31.672,36.183 31.778,36.491 31.614,36.771 L 31.944,37.101 C 32.225,36.936 32.532,37.044 32.782,37.197 C 32.899,37.261 33.016,37.314 33.127,37.202 C 33.277,37.053 33.112,36.904 33.048,36.846 A 0.437,0.437 0 0,1 33.032,36.831 L 31.885,35.684 A 0.482,0.482 0 0,1 31.869,35.667 C 31.81,35.602 31.662,35.439 31.513,35.587 C 31.401,35.699 31.454,35.817 31.518,35.933 Z M 32.113,33.884 L 32.13,33.9 L 34.912,36.682 L 34.992,36.76 C 35.124,36.884 35.155,36.913 35.047,37.12 C 35,37.21 35.012,37.294 35.087,37.368 C 35.241,37.522 35.385,37.4 35.406,37.378 L 36.908,35.874 C 36.931,35.854 37.095,35.667 36.941,35.514 C 36.867,35.44 36.771,35.44 36.681,35.488 C 36.443,35.612 36.411,35.579 36.23,35.398 L 36.213,35.382 L 32.835,32.004 L 31.433,33.404 C 31.412,33.427 31.248,33.614 31.401,33.766 C 31.475,33.841 31.571,33.842 31.661,33.794 C 31.899,33.67 31.931,33.702 32.113,33.884 Z M 34.323,30.91 C 33.93,31.014 33.579,31.26 33.075,31.764 L 33.382,32.073 C 33.707,31.833 33.972,32.003 34.212,32.241 L 35.013,33.043 C 35.273,33.305 35.475,33.538 35.22,33.911 L 35.528,34.218 C 36.033,33.714 36.278,33.363 36.384,32.97 C 36.544,32.343 36.346,31.838 35.902,31.391 C 35.455,30.946 34.95,30.75 34.323,30.91 Z" fill="rgb(245, 129, 29)"/>
<path d="M 36.542,29.493 C 36.419,29.375 36.282,29.195 36.441,28.856 L 36.132,28.546 C 35.108,29.774 35.491,31.208 36.548,32.264 C 37.605,33.322 39.038,33.703 40.265,32.678 L 39.957,32.37 C 39.617,32.53 39.437,32.392 39.303,32.259 L 36.552,29.508 Z M 40.084,31.478 C 40.217,31.612 40.355,31.791 40.196,32.131 L 40.504,32.44 C 41.53,31.212 41.146,29.78 40.089,28.722 C 39.033,27.666 37.599,27.282 36.373,28.308 L 36.68,28.616 C 37.02,28.456 37.2,28.594 37.333,28.728 L 40.084,31.478 Z M 15.834,24.116 L 17.057,22.893 L 20.232,26.067 L 20.249,26.084 C 20.419,26.254 20.449,26.284 20.671,26.168 C 20.756,26.122 20.846,26.122 20.916,26.192 C 21.061,26.337 20.906,26.512 20.886,26.532 L 19.474,27.945 C 19.454,27.965 19.279,28.119 19.134,27.975 C 19.064,27.905 19.064,27.815 19.109,27.73 C 19.225,27.506 19.196,27.477 19.025,27.306 L 19.009,27.29 L 15.834,24.116 Z M 19.164,23.113 C 19.184,23.133 19.294,23.272 19.144,23.423 C 19.004,23.562 18.849,23.458 18.724,23.363 C 18.415,23.143 18.016,22.883 17.571,22.958 L 17.281,22.668 L 18.001,21.949 L 19.163,23.113 Z M 15.61,24.341 L 14.89,25.059 L 16.054,26.222 C 16.074,26.242 16.214,26.352 16.364,26.202 C 16.504,26.062 16.399,25.908 16.304,25.783 C 16.084,25.473 15.824,25.074 15.899,24.63 L 15.61,24.34 Z M 22.842,23.487 L 22.828,23.472 L 20.212,20.857 L 20.198,20.842 C 20.026,20.67 19.996,20.641 20.112,20.417 C 20.157,20.332 20.157,20.243 20.087,20.172 C 19.942,20.028 19.768,20.182 19.748,20.202 L 18.335,21.615 C 18.315,21.635 18.161,21.809 18.305,21.955 C 18.375,22.024 18.465,22.024 18.55,21.979 C 18.773,21.863 18.802,21.892 18.973,22.063 L 18.989,22.079 L 21.605,24.695 L 21.621,24.711 C 21.791,24.881 21.821,24.911 21.705,25.134 C 21.66,25.218 21.66,25.309 21.73,25.379 C 21.874,25.523 22.049,25.369 22.069,25.349 L 23.481,23.936 C 23.501,23.916 23.656,23.741 23.511,23.596 C 23.441,23.527 23.351,23.527 23.267,23.572 C 23.043,23.688 23.014,23.658 22.842,23.487 Z M 21.86,22.054 L 22.3,21.615 L 23.492,22.808 L 23.508,22.824 C 23.678,22.994 23.708,23.024 23.592,23.247 C 23.547,23.332 23.547,23.422 23.617,23.492 C 23.761,23.636 23.937,23.482 23.957,23.462 L 25.369,22.049 C 25.389,22.029 25.544,21.855 25.399,21.711 C 25.329,21.64 25.239,21.64 25.154,21.685 C 24.931,21.801 24.901,21.771 24.729,21.599 A 0.91,0.91 0 0,1 24.715,21.585 L 22.1,18.97 L 22.085,18.955 C 21.913,18.784 21.883,18.754 21.999,18.531 C 22.044,18.446 22.044,18.356 21.975,18.286 C 21.83,18.141 21.655,18.296 21.635,18.316 L 20.222,19.728 C 20.202,19.748 20.048,19.923 20.192,20.068 C 20.262,20.138 20.352,20.138 20.437,20.093 C 20.661,19.976 20.69,20.006 20.861,20.178 L 20.876,20.193 L 22.01,21.326 L 21.57,21.765 L 21.86,22.055 Z M 23.424,16.527 L 22.106,17.845 C 22.086,17.865 21.931,18.04 22.076,18.185 C 22.146,18.255 22.236,18.255 22.321,18.209 C 22.544,18.092 22.574,18.123 22.745,18.294 L 22.76,18.309 L 25.375,20.924 L 25.39,20.939 C 25.562,21.111 25.592,21.14 25.475,21.364 C 25.43,21.448 25.43,21.538 25.5,21.608 C 25.645,21.753 25.82,21.598 25.84,21.578 L 27.158,20.261 L 23.424,16.527 Z M 24.762,15.189 L 23.648,16.303 L 23.938,16.592 C 24.447,16.222 24.946,16.212 25.481,16.487 C 25.581,16.537 25.655,16.563 25.74,16.477 C 25.889,16.327 25.8,16.227 25.775,16.203 L 24.762,15.189 Z M 27.092,19.747 C 27.447,19.293 27.482,18.708 27.217,18.174 L 27.209,18.151 C 27.171,18.049 27.134,17.948 27.217,17.865 C 27.37,17.712 27.499,17.855 27.528,17.886 L 27.532,17.89 L 28.53,18.888 L 27.382,20.036 L 27.092,19.746 Z M 25.226,17.181 C 25.37,17.415 25.47,17.705 25.316,17.97 L 25.625,18.279 C 25.889,18.124 26.179,18.224 26.413,18.369 C 26.523,18.429 26.633,18.479 26.738,18.374 C 26.878,18.234 26.725,18.094 26.664,18.04 A 0.408,0.408 0 0,1 26.648,18.025 L 25.57,16.947 A 0.518,0.518 0 0,1 25.555,16.931 C 25.5,16.87 25.36,16.717 25.221,16.856 C 25.116,16.962 25.165,17.071 25.226,17.181 Z M 24.96,37.516 C 24.826,37.383 24.657,37.383 24.497,37.466 C 24.062,37.695 24.015,37.628 23.666,37.279 L 18.716,32.327 C 18.366,31.977 18.3,31.931 18.526,31.497 C 18.612,31.337 18.611,31.168 18.478,31.035 C 18.204,30.762 17.875,31.054 17.838,31.092 L 15.17,33.759 C 15.131,33.799 14.84,34.126 15.113,34.399 C 15.243,34.532 15.416,34.533 15.575,34.448 C 16.009,34.223 16.057,34.288 16.405,34.638 L 18.551,36.783 L 17.721,37.613 L 18.268,38.159 L 19.098,37.329 L 21.357,39.588 C 21.706,39.937 21.773,39.985 21.545,40.418 C 21.461,40.578 21.461,40.748 21.594,40.882 C 21.868,41.154 22.197,40.862 22.236,40.825 L 24.903,38.157 C 24.941,38.12 25.233,37.79 24.959,37.516 Z" fill="rgb(245, 129, 29)"/>
<path d="M 21.386,41.063 C 21.265,40.946 21.094,40.946 20.934,41.031 C 20.5,41.257 20.453,41.191 20.104,40.84 L 15.153,35.891 C 14.803,35.541 14.736,35.494 14.963,35.059 C 15.048,34.899 15.047,34.729 14.915,34.597 C 14.642,34.325 14.312,34.617 14.275,34.654 L 12,36.928 V 38.016 L 12.012,38.011 C 12.446,37.785 12.492,37.851 12.842,38.201 L 17.794,43.151 C 18.143,43.499 18.209,43.548 17.983,43.98 A 0.2,0.2 0 0,0 17.975,44 H 19.062 L 21.34,41.72 C 21.377,41.682 21.67,41.353 21.396,41.078 Z M 28.22,43.882 L 28.164,43.997 H 28.784 L 29.952,42.831 L 25.98,38.859 L 24.62,40.219 C 24.515,40.324 24.397,40.474 24.535,40.612 C 24.669,40.743 24.785,40.658 24.928,40.59 C 25.061,40.521 25.193,40.675 25.273,40.754 L 28.056,43.536 C 28.136,43.616 28.29,43.75 28.22,43.882 Z M 38.924,26.532 L 38.615,26.224 L 37.851,26.988 L 39.088,28.226 C 39.109,28.247 39.258,28.363 39.417,28.204 C 39.566,28.056 39.455,27.891 39.353,27.758 C 39.12,27.428 38.843,27.005 38.923,26.532 Z M 41.93,25.182 C 42.062,25.283 42.227,25.394 42.376,25.246 A 0.226,0.226 0 0,0 42.397,24.916 L 41.16,23.68 L 40.395,24.445 L 40.703,24.754 C 41.175,24.674 41.601,24.949 41.93,25.182 Z M 43.999,28.168 C 43.756,28.295 43.729,28.258 43.533,28.061 L 40.156,24.684 L 38.854,25.985 L 42.233,29.363 C 42.428,29.559 42.467,29.586 42.338,29.83 C 42.291,29.92 42.291,30.016 42.365,30.09 C 42.519,30.244 42.705,30.079 42.726,30.058 L 44,28.785 V 28.168 Z M 38.541,14.413 C 38.344,14.611 38.439,14.819 38.551,15.026 C 38.825,15.47 39.015,16.018 38.723,16.516 L 39.309,17.102 C 39.808,16.812 40.355,17.001 40.799,17.274 C 41.008,17.386 41.215,17.483 41.414,17.284 C 41.705,16.993 41.318,16.698 41.243,16.624 L 39.203,14.584 C 39.128,14.508 38.833,14.122 38.541,14.413 Z M 32.655,16.275 C 32.617,16.312 32.325,16.643 32.598,16.916 C 32.73,17.049 32.9,17.049 33.06,16.964 C 33.494,16.738 33.541,16.804 33.89,17.154 L 38.842,22.103 C 39.192,22.453 39.258,22.5 39.032,22.934 C 38.948,23.094 38.948,23.264 39.079,23.397 C 39.353,23.67 39.684,23.378 39.721,23.341 L 42.211,20.851 L 35.142,13.787 L 32.655,16.275 Z M 44,17.459 L 42.913,16.373 C 42.874,16.334 42.62,16.022 42.318,16.323 C 42.148,16.493 42.243,16.701 42.319,16.909 C 42.819,17.919 42.756,19.022 42.087,19.879 L 42.634,20.427 L 43.999,19.062 V 17.459 Z M 39.587,13.177 L 38.409,12 H 36.929 L 35.566,13.362 L 36.115,13.91 C 37.076,13.213 38.021,13.193 39.03,13.716 C 39.22,13.81 39.36,13.856 39.521,13.696 C 39.804,13.414 39.635,13.224 39.587,13.177 Z" fill="rgb(245, 129, 29)"/>
</svg>
