<?xml version="1.0" encoding="UTF-8"?>
<!-- generated by Finnhub -->
<svg viewBox="0 0 55.5 55.5" xmlns="http://www.w3.org/2000/svg">
<path d="M 0,0 H 55.5 V 55.5 H 0 Z" fill="rgb(234, 225, 215)"/>
<path d="M 40.52,31.125 C 40.53,30.54 40.89,30.14 41.6,30.14 C 42.42,30.14 42.66,30.44 42.95,31.65 C 43.05,32.07 43.29,32.32 43.94,32.32 C 44.81,32.32 45.29,31.84 45.29,31.12 C 45.29,30.49 44.66,29.98 43.44,29.19 C 42.1,28.35 41.37,27.55 41.37,26.37 C 41.37,24.55 43.35,23.46 45.17,23.46 C 47.22,23.46 48,24.35 48,25.19 C 48,25.75 47.64,26.05 47.03,26.05 C 46.25,26.05 46.01,25.74 45.76,24.79 C 45.64,24.32 45.4,24.13 44.93,24.13 C 44.2,24.13 43.7,24.51 43.7,25.21 C 43.7,25.88 44.35,26.29 45.77,27.21 C 47.11,28.01 47.7,28.89 47.7,29.92 C 47.7,31.62 45.9,33 43.66,33 C 41.43,32.97 40.53,32.04 40.53,31.14 Z" fill-opacity=".88"/>
<path d="M 8.99,21.384999999999998 C 8.94,21.06 8.73,21.04 8.22,20.9 C 8.04,20.86 8,20.73 8,20.6 C 8,20.4 8.02,20.39 8.57,20.28 C 9.64,20.02 10.72,19.65 11.59,19.13 C 11.77,19 11.81,19 11.85,19 C 12,19 12,19.17 12,19.4 V 24.56 C 12,24.96 12.03,24.84 12.28,24.61 A 4.1,4.1 0 0,1 15.08,23.48 C 15.91,23.48 16.67,23.74 17.23,24.36 C 17.73,24.89 18,25.66 18,26.53 V 31.53 C 18,32.15 18.3,32.36 18.92,32.36 C 19.25,32.36 19.38,32.31 19.38,32.31 C 19.98,32.13 20,31.97 20,31 C 19.99,29.37 20.08,27.58 20,26 C 19.94,25.67 19.75,25.53 19.24,25.4 C 19.06,25.36 19.02,25.23 19.02,25.09 C 19.02,24.91 19.04,24.89 19.59,24.77 A 9.42,9.42 0 0,0 22.43,23.63 C 22.6,23.5 22.64,23.5 22.68,23.5 C 22.83,23.5 23,23.67 23,23.9 V 31.08 C 23,31.96 22.9,32.12 23.53,32.29 C 23.46,32.32 24.11,32.35 24.28,32.29 C 25.01,32.11 25,31.9 25,31 V 26.22 C 24.98,25.54 24.91,25.53 24.04,25.38 C 23.82,25.34 23.8,25.23 23.8,25.08 C 23.8,24.86 23.9,24.84 24.22,24.78 C 24.99,24.6 26.18,24.28 27.22,23.67 C 27.56,23.47 27.77,23.47 27.82,23.47 C 27.95,23.47 28,23.62 28,23.73 V 24.53 C 28,24.81 28.12,24.69 28.32,24.49 A 3.9,3.9 0 0,1 31.15,23.45 C 32.07,23.45 32.8,23.75 33.34,24.49 C 33.61,24.87 33.64,24.89 33.7,24.89 C 33.74,24.89 33.77,24.89 34.11,24.57 A 4.82,4.82 0 0,1 37.17,23.43 C 39.52,23.43 40,25.9 40,27.74 V 31.47 C 40,31.78 39.96,32.09 40.54,32.24 C 40.76,32.3 40.89,32.34 40.89,32.59 C 40.89,32.77 40.85,32.98 40.59,33 H 36.53 C 36.36,33 36.13,32.86 36.13,32.54 C 36.13,32.36 36.23,32.32 36.43,32.26 C 36.8,32.15 37,32.09 37,31.18 V 26.14 C 36.98,25.83 36.9,24.72 35.66,24.72 C 35.29,24.72 34,25.01 34,26.05 V 31.42 C 34,31.97 34.01,32.1 34.6,32.24 C 34.8,32.3 34.92,32.34 34.92,32.54 C 34.92,32.86 34.76,33 34.27,33 H 30.57 C 30.32,33 30.12,32.88 30.12,32.58 C 30.12,32.4 30.19,32.36 30.38,32.3 C 31.04,32.1 31,31.84 31,31 C 31,30.11 31.09,26.47 31,25.87 C 30.87,25.1 30.18,24.86 29.7,24.86 C 29.07,24.86 28.18,25.3 28,25.78 V 31.58 C 28.04,32.08 28.33,32.2 28.72,32.29 C 28.9,32.35 28.99,32.36 28.99,32.59 C 28.99,32.89 28.76,33 28.49,33 H 14.18 C 14.03,32.98 13.98,32.74 13.98,32.6 C 13.98,32.42 14.07,32.36 14.23,32.32 C 14.91,32.15 14.98,31.45 15.01,30.82 C 15.03,28.99 15.01,28.95 15.01,26.89 C 15.01,26.09 14.9,24.79 13.52,24.79 C 12.89,24.79 12.44,25.17 12.29,25.32 C 11.94,25.66 12.01,25.79 12.01,26.49 V 31.46 C 12.01,31.93 12.14,32.2 12.49,32.28 C 12.66,32.32 12.83,32.35 12.83,32.54 C 12.83,32.88 12.6,33 12.27,33 H 8.49 C 8.16,33 8.01,32.9 8.01,32.6 C 8.01,32.41 8.11,32.37 8.31,32.31 C 8.92,32.09 9,31.85 9,30.92 V 21.4 Z" fill-opacity=".88"/>
<path d="M 21.41,19.675 C 20.52,19.69 19.84,20.48 19.84,21.32 C 19.84,22.35 20.64,22.89 21.36,22.89 C 22.19,22.89 22.94,22.2 22.94,21.24 C 22.94,20.42 22.3,19.69 21.42,19.69 Z" fill-opacity=".88"/>
</svg>
