<?xml version="1.0" encoding="UTF-8"?>
<!-- generated by Finnhub -->
<svg viewBox="0 0 55.5 55.5" xmlns="http://www.w3.org/2000/svg">
<path d="M 0,0 H 55.5 V 55.5 H 0 Z" fill="rgb(121, 192, 64)"/>
<path d="M 26.543,41.806 C 19.538,41.132 14.058,35.216 14.058,28.021 C 14.058,27.885 14.06,27.749 14.064,27.614 C 20.363,29.807 25.169,35.186 26.553,41.821 Z M 29.433,41.821 C 36.447,41.132 41.927,35.216 41.927,28.021 C 41.927,27.885 41.925,27.749 41.921,27.614 C 35.623,29.807 30.817,35.186 29.433,41.821 Z" fill="rgb(254, 254, 253)"/>
<path d="M 27.99,13.963999999999999 C 25.035,18.261 20.884,29.818 28,41.787 C 35.008,29.295 30.58,18.273 28,13.979 Z" fill="rgb(254, 254, 253)"/>
<path d="M 27.99,42.985 C 36.208,43 43,36.208 43,28 S 36.208,13 28,13 S 13,19.792 13,28 S 19.792,43 28,43 Z M 28,44 C 36.836,44 44,36.836 44,28 C 44,19.163 36.836,12 28,12 C 19.163,12 12,19.163 12,28 C 12,36.836 19.163,44 28,44 Z" fill="rgb(254, 254, 253)" fill-rule="evenodd"/>
</svg>
