<?xml version="1.0" encoding="UTF-8"?>
<!-- generated by Finnhub -->
<svg fill="none" viewBox="0 0 55.5 55.5" xmlns="http://www.w3.org/2000/svg">
<path d="M 0,0 H 55.5 V 55.5 H 0 Z" fill="url(#a)"/>
<path d="M 16.99,22.633 V 32.356 L 17.68,32.454 V 33 H 14.248 V 32.454 L 15,32.356 V 28 H 10 V 32.356 L 10.743,32.454 V 33 H 7.323 V 32.454 L 8.033,32.356 V 22.647 L 7.323,22.55 V 22 H 10.743 V 22.55 L 10,22.648 V 27 H 15 V 22.648 L 14.248,22.55 V 22 H 17.68 V 22.55 M 21.237,23.144 C 21.237,23.85 20.752,24.374 20.081,24.374 C 19.397,24.374 18.925,23.899 18.925,23.193 C 18.925,22.523 19.397,22 20.081,22 C 20.752,21.988 21.237,22.511 21.237,23.144 Z M 21,32.418 L 21.672,32.515 V 33 H 18.328 V 32.515 L 19,32.418 V 25.6 L 18.328,25.502 V 25 H 21 V 32.418 Z M 22.34,32.509 L 23,32.409 V 22.592 L 22.34,22.493 V 22 H 25 V 32.41 L 25.684,32.509 V 33.002 H 22.34 M 30,25.321 H 31.774 V 26 H 30 V 30.665 C 30,31.822 30.22,32.187 31.276,32.187 C 31.674,32.187 32.01,32.187 32.333,32.114 V 32.624 C 31.363,32.965 30.555,33.099 29.871,33.099 C 28.342,33.099 28.001,32.418 28.001,31.103 V 26 H 26.24 V 25.321 H 28 V 23.935 L 30,23.363 M 38.537,29.072 C 38.537,26.575 37.816,25.486 36.66,25.486 C 35.528,25.486 34.82,26.524 34.82,29.072 C 34.82,31.569 35.54,32.606 36.66,32.606 C 37.866,32.619 38.537,31.62 38.537,29.072 Z M 40.725,29.123 C 40.725,31.582 39.121,33.221 36.61,33.221 C 34.173,33.221 32.631,32.145 32.631,29.123 C 32.631,26.588 34.235,24.884 36.747,24.884 C 39.221,24.884 40.725,26.408 40.725,29.124 Z M 49.662,32.515 V 33 H 46.296 V 32.515 L 47,32.418 V 27.684 C 47,26.504 46.534,25.968 45.608,25.968 C 45.182,25.968 44.488,26.26 44,26.588 V 32.406 L 44.707,32.503 V 33 H 41.328 V 32.503 L 42,32.406 V 25.639 L 41.328,25.542 V 25.031 H 44 V 26.065 C 44.838,25.408 45.658,24.885 46.797,24.885 C 48.311,24.885 49,25.749 49,27.452 V 32.43" fill="rgb(254, 254, 253)"/>
<rect x="4.5" y="19.5" width="47" height="17" rx="1.5" stroke="rgb(254, 254, 253)"/>
<defs>
<linearGradient id="a" x1="10.418" x2="68.147" y1="9.712" y2="76.017" gradientUnits="userSpaceOnUse">
<stop stop-color="rgb(25, 29, 31)" offset="0"/>
<stop stop-color="rgb(5, 5, 8)" offset="1"/>
</linearGradient>
</defs>
</svg>
