<?xml version="1.0" encoding="UTF-8"?>
<!-- generated by Finnhub -->
<svg viewBox="0 0 55.5 55.5" xmlns="http://www.w3.org/2000/svg">
<path d="M 0,0 H 55.5 V 55.5 H 0 Z" fill="rgb(225, 31, 29)"/>
<path d="M 29.99,27.985 H 31.607 L 33.027,29.607 L 34.545,28 H 35.996 V 32 H 34 V 30 L 32.663,31.498 L 31,29.865 V 32 H 30.014 L 30,28 Z M 47,28 L 49.085,28.002 L 50.211,29.369 L 51.513,28 H 53 L 51,30.156 V 32 H 49 V 30.35 L 47,28 Z M 24.701,28.007 H 28.106 C 29.602,28.224 30.052,30.169 28.356,30.622 C 28.356,30.622 29.379,31.169 30,31.986 H 28.106 A 1.813,1.813 0 0,0 28.019,31.882 A 7.59,7.59 0 0,0 27.5,31.459 C 27.008,31.138 26.242,30.941 26.242,30.941 V 31.985 H 24.746 V 30.317 A 4.406,4.406 0 0,0 23.67,30.239 L 24.746,31.985 H 22.62 L 21.706,30.58 C 20.498,30.986 19.591,31.693 19.315,31.913 L 19.25,32 H 18 L 20.622,28.007 L 22.22,28 L 23.092,29.416 A 5.49,5.49 0 0,0 21.355,30.043 L 20.998,29.49 L 19.852,31.04 C 20.114,30.823 23.32,28.715 26.668,30.594 C 25.783,29.964 25.476,29.761 24.702,29.49 V 28.007 Z M 26.343,29.773 C 28.328,29.852 28.14,28.661 26.343,28.749 V 29.773 Z M 36,30 C 36,28.895 37.089,28 38.43,28 H 39.569 C 40.91,28 42,28.895 42,30 C 42,31.104 40.911,32 39.569,32 H 38.43 C 37.09,32 36,31.104 36,30 Z M 38,30.008 C 38,30.657 38.453,31 38.978,31 C 39.504,31 40,30.657 40,30.008 C 40,29.358 39.487,29.002 38.978,29 C 38.47,28.998 38,29.358 38,30.008 Z M 42,28.017 V 32 H 43 V 29.828 L 45.366,32 H 47 V 28.015 H 46 V 30 L 43.767,28 L 42,28.017 Z M 16,27 H 18 V 32 H 16 V 30 H 14 V 32 H 12 V 27 H 14 V 29 H 16 V 27 Z"/>
<path d="M 14.77,18.006 C 15.4,17.9 16,18.308 16.12,18.932 L 16.979,23.382 C 17.099,24.007 16.695,24.612 16.074,24.734 L 15.986,24.751 A 1.145,1.145 0 0,1 14.645,23.839 L 14.343,22.279 L 6.155,34.504 C 5.802,35.031 5.055,35.154 4.531,34.798 L 4.53,34.796 C 4.006,34.44 3.831,33.693 4.185,33.165 L 12.381,20.929 L 10.818,21.235 A 1.145,1.145 0 0,1 9.478,20.325 L 9.46,20.235 A 1.152,1.152 0 0,1 10.365,18.885 L 14.779,18.021 Z" fill="rgb(254, 254, 253)"/>
</svg>
