<?xml version="1.0" encoding="UTF-8"?>
<!-- generated by Finnhub -->
<svg viewBox="0 0 55.5 55.5" xmlns="http://www.w3.org/2000/svg">
<path d="M 0,0 H 55.5 V 55.5 H 0 Z" fill="rgb(239, 242, 248)"/>
<path d="M 11.99,28.095 C 12,19.5 19.27,12 28,12 C 36.61,12 44,19.5 44,28.11 C 44,36.73 36.61,44 28,44 C 19.27,44 12,36.73 12,28.11 Z M 11,28 C 11,37.4 18.7,45 28,45 C 37.3,45 44.89,37.4 45,28 C 45,18.6 37.3,11 28,11 C 18.6,11 11,18.6 11,28 Z M 29.88,27.69 C 30.22,23.36 33.41,20.4 39,20.4 V 20.83 C 39,24.87 39.01,28.48 32.96,28.48 H 30.56 C 30.79,27.92 31.13,27.35 31.48,26.89 C 31.82,26.32 32.28,25.75 32.73,25.19 C 33.3,24.61 33.76,24.16 34.33,23.7 C 34.78,23.25 35.47,22.9 36.15,22.68 C 35.51,22.86 35.02,23.11 34.5,23.38 L 34.1,23.58 L 32.39,24.95 A 10.55,10.55 0 0,0 30.34,27.12 C 30.19,27.32 30.05,27.52 29.88,27.69 Z M 21.78,23.7 C 22.36,24.16 22.93,24.61 23.38,25.18 C 23.84,25.75 24.3,26.32 24.64,27 L 25.09,27.8 L 25.55,28.6 H 23.05 C 16.99,28.6 16.99,24.88 17,20.83 V 20.4 C 22.47,20.4 25.78,23.36 26.12,27.69 L 25.92,27.42 C 25.68,27.09 25.48,26.82 25.21,26.55 L 24.66,25.97 A 9.95,9.95 0 0,0 23.61,24.95 A 5.05,5.05 0 0,0 21.91,23.59 A 5.43,5.43 0 0,0 19.85,22.68 C 20.65,22.91 21.22,23.25 21.79,23.7 Z M 32.28,30.08 C 36.61,30.08 36.95,32.58 36.95,35.88 C 31.36,35.88 29.99,33.49 29.88,30.65 L 31.93,32.35 A 7.32,7.32 0 0,0 34.78,33.72 A 7.73,7.73 0 0,1 32.16,32.12 A 29.49,29.49 0 0,1 30.34,30.08 H 32.27 Z M 24.18,32.47 C 24.64,32.13 25.09,31.79 25.44,31.45 C 25.66,31.22 25.89,30.99 26.24,30.76 C 26.12,33.61 24.87,36 19.17,36 C 19.17,32.7 19.51,30.2 23.84,30.2 H 25.78 C 25.21,30.99 24.64,31.67 23.95,32.24 C 23.15,32.93 22.35,33.49 21.33,33.84 C 22.36,33.61 23.27,33.04 24.18,32.47 Z M 29.54,22.22 C 29.65,22.34 29.77,22.56 29.65,22.68 C 29.65,22.68 28.28,25.41 28.4,25.41 L 28.57,26.32 L 28.74,27.23 C 28.85,28.14 28.85,29.05 28.85,29.96 C 28.85,30.88 28.85,31.79 28.75,32.7 C 28.66,33 28.6,33.3 28.54,33.6 C 28.41,34.22 28.28,34.82 28.06,35.43 A 23.3,23.3 0 0,1 27.49,32.7 A 21.92,21.92 0 0,1 27.49,27.23 L 27.66,26.33 L 27.83,25.41 L 26.46,22.68 C 26.35,22.45 26.46,22.34 26.58,22.22 C 26.68,22.11 26.92,22.22 27.03,22.34 L 28.06,24.39 L 29.08,22.34 C 29.2,22.22 29.42,22.11 29.54,22.22 Z"/>
</svg>
