<?xml version="1.0" encoding="UTF-8"?>
<!-- generated by Finnhub -->
<svg viewBox="0 0 55.5 55.5" xmlns="http://www.w3.org/2000/svg">
<path d="M 0,0 H 55.5 V 55.5 H 0 Z" fill="rgb(247, 102, 2)"/>
<path d="M 10.556000000000001,36.748 C 11.776,36.763 13.448,36.166 13.503,35 H 4 V 22 H 14.09 C 14.145,20.885 12.973,19.996 11.998,19.996 V 15.312 C 15.204,15.312 24.991,13.32 28.013,10 C 31.014,13.318 39.387,15.316 44.002,15.313 V 20 C 43.026,20 41.86,20.885 41.91,22 H 52 V 35 H 42.498 C 42.552,36.177 44.231,36.758 45.426,36.77 C 38.586,43.07 33.273,47 28.003,47 C 22.736,47 17.415,43.07 10.575,36.77 L 10.566,36.763 Z"/>
<path d="M 6.99,24.995 H 8.121 V 27.618 H 8.908 V 25.009 H 10.005 V 32 H 8.908 V 29 H 8.121 V 32 H 7 V 25.01 Z M 12.516,25.018 H 10.97 L 10.103,31.991 H 11.274 L 11.416,30.351 H 12.136 L 12.323,31.991 H 13.297 L 12.517,25.018 Z M 11.756,28.942 H 11.537 L 11.725,26.752 L 11.755,27.019 L 11.978,28.943 H 11.755 Z M 16.388,30.855 V 29.64 C 16.388,29.075 16.231,28.537 15.881,28.32 C 16.251,28.126 16.388,27.472 16.388,26.996 V 26.336 C 16.388,25.283 15.937,25.016 15.172,25.016 H 13.595 V 31.99 H 14.595 V 29.208 H 14.812 C 14.872,29.208 14.932,29.208 15.002,29.241 A 0.648,0.648 0 0,1 15.408,29.856 V 31.586 C 15.408,31.716 15.432,31.846 15.456,31.99 H 16.526 C 16.418,31.66 16.397,31.243 16.397,30.854 H 16.388 Z M 15.395,27.158 C 15.395,27.473 15.237,27.74 14.995,27.862 A 0.756,0.756 0 0,1 14.67,27.934 H 14.594 V 25.844 H 14.695 C 14.802,25.844 14.91,25.871 15.005,25.922 C 15.239,26.052 15.411,26.313 15.411,26.574 V 27.158 H 15.395 Z M 16.803,25.009 H 17.876 V 30.93 H 18.806 V 32 H 16.803 V 25.01 Z M 18.999,25 L 21.287,25.01 V 25.896 H 20.19 V 27.696 H 21.287 V 28.791 H 20.19 V 31.035 H 21.287 V 32 L 18.999,31.99 V 25 Z M 21.383,25.01 H 22.48 L 22.814,27.044 L 23.267,25.009 H 24.364 L 23.267,28.713 L 23.314,32 H 22.29 V 28.687 L 21.383,25.009 Z M 24,28.004 H 26.009 V 29.006 H 24 V 28.004 Z M 27.941,25.026 L 26.418,25.017 V 31.99 L 27.941,31.999 C 28.611,31.999 29.006,31.356 29.006,30.752 V 25.99 C 29.006,25.46 28.609,25.008 28.036,25.017 L 27.941,25.026 Z M 28.001,30.157 C 28.001,30.495 27.905,30.649 27.686,30.79 A 0.608,0.608 0 0,1 27.427,30.834 H 27.442 V 25.804 C 27.534,25.804 27.697,25.81 27.768,25.862 C 27.94,25.987 27.995,26.153 27.995,26.459 V 30.149 L 28,30.157 Z M 31.608,25.017 H 30.058 L 29.196,31.99 H 30.366 L 30.509,30.35 H 31.229 L 31.416,31.99 H 32.39 L 31.608,25.017 Z M 30.848,28.941 H 30.63 L 30.817,26.751 L 30.847,27.018 L 31.066,28.942 H 30.848 Z M 32.003,25.008 H 32.968 L 33.546,28.712 L 33.996,25.008 H 35 L 33.999,32 H 32.995 L 32.004,25.01 Z M 35.192,25.008 H 36.289 V 32 H 35.192 V 25.01 Z M 45.512,30.433 V 26.575 C 45.512,25.721 44.933,25.017 44.224,25.017 C 43.509,25.017 42.99,25.715 42.99,26.574 V 30.433 C 42.99,31.291 43.51,31.99 44.224,31.99 C 44.934,31.99 45.516,31.292 45.516,30.433 H 45.512 Z M 44.665,30.737 A 0.39,0.39 0 0,1 44.264,31.12 A 0.39,0.39 0 0,1 43.869,30.737 V 26.27 C 43.864,26.051 44.041,25.895 44.255,25.887 H 44.259 C 44.482,25.887 44.665,26.07 44.665,26.27 V 30.737 Z M 38.318,25.017 H 36.686 V 31.99 H 38.318 C 38.983,31.99 39.384,31.347 39.384,30.743 V 25.982 C 39.384,25.452 38.864,25.008 38.316,25.017 H 38.318 Z M 38.39,30.147 C 38.39,30.485 38.273,30.701 38.05,30.79 A 0.765,0.765 0 0,1 37.786,30.834 H 37.716 V 25.804 H 37.802 C 37.898,25.804 37.969,25.804 38.04,25.856 C 38.258,25.934 38.374,26.143 38.374,26.449 V 30.139 L 38.39,30.147 Z M 41.228,25.887 C 41.411,25.887 41.562,26.07 41.562,26.27 V 27.246 H 42.535 V 26.575 C 42.535,25.715 41.926,25.017 41.187,25.017 C 40.447,25.017 39.993,25.715 39.993,26.575 V 27.534 C 39.993,27.847 40.149,28.186 40.387,28.371 L 41.153,28.964 C 41.32,29.094 41.582,29.303 41.582,29.684 V 30.737 C 41.582,30.948 41.43,31.12 41.248,31.12 C 41.06,31.12 40.908,30.948 40.908,30.737 V 29.28 H 39.993 V 30.433 C 39.993,31.293 40.455,31.998 41.218,31.99 C 41.958,31.99 42.566,31.292 42.566,30.433 V 29.147 C 42.566,28.847 42.242,28.503 41.974,28.298 L 41.33,27.816 C 41.147,27.677 40.92,27.484 40.92,27.234 V 26.27 C 40.888,26.051 41.035,25.895 41.226,25.887 H 41.228 Z M 45.992,25.008 H 47.327 L 48,28.086 V 25.01 H 49 V 32 H 47.69 L 46.993,28.087 V 31.991 L 45.993,32 V 25.01 Z" fill="rgb(254, 254, 253)"/>
<path d="M 27.99,22.985 H 5 V 33 H 51 V 23 H 28 Z M 49.816,31.868 H 6.184 V 24.132 H 49.817 V 31.868 Z" fill="rgb(254, 254, 253)"/>
<path d="M 27.5,12.413 C 29.65,14.766 38.025,17.006 41.026,17.007 V 18.637 C 39.993,19.289 39.03,20.329 39.079,22 H 40.151 V 21.948 C 40.117,20.831 40.987,19.568 42,19.201 V 16.143 C 37.521,16.143 29.834,13.649 27.5,11 C 25.167,13.65 16.812,16.143 13,16.137 V 19.195 C 14.014,19.561 14.884,20.827 14.861,21.943 L 14.856,21.995 H 15.929 C 15.979,20.323 15.014,19.283 13.981,18.632 V 17.002 C 17.004,17.004 25.369,14.764 27.509,12.428 Z" fill="rgb(254, 254, 253)"/>
<path d="M 40.044000000000004,34.135 C 40.084,35.105 40.452,36.107 41.273,36.784 C 38.095,39.512 31.724,43.899 27.998,43.89 C 24.278,43.89 17.901,39.503 14.723,36.775 C 15.55,36.092 15.909,35.107 15.938,34.141 H 14.858 C 14.803,35.127 14.021,36.261 13,36.424 C 17.334,40.245 22.681,45 28.002,45 C 33.322,45 38.667,40.242 43,36.424 C 41.98,36.251 41.197,35.118 41.142,34.132 H 40.054 V 34.15 Z M 24.727,15.039 L 23.805,15.439 L 22.64,15.953 C 22.037,16.215 21.963,16.368 21.963,17.284 L 21.939,20.625 C 21.939,21.091 22.242,21.487 22.711,21.482 H 24.764 A 0.864,0.864 0 0,0 25.63,20.625 L 25.654,15.908 C 25.654,15.446 25.158,14.84 24.736,15.038 H 24.726 Z M 24.543,20.033 A 0.166,0.166 0 0,1 24.439,20.189 A 0.169,0.169 0 0,1 24.374,20.202 H 23.184 A 0.17,0.17 0 0,1 23.026,20.098 A 0.168,0.168 0 0,1 23.014,20.033 L 23.038,17.361 C 23.038,16.97 23.193,16.995 23.741,16.707 C 23.761,16.697 23.781,16.687 23.805,16.673 C 24.194,16.475 24.567,16.316 24.567,16.46 L 24.543,20.033 Z M 33.349,15.955 L 32.184,15.44 L 31.262,15.039 C 30.828,14.846 30.335,15.439 30.335,15.91 V 20.628 A 0.87,0.87 0 0,0 31.202,21.485 H 33.255 A 0.864,0.864 0 0,0 34.121,20.628 V 17.287 C 34.121,16.377 33.948,16.215 33.339,15.955 H 33.349 Z M 32.951,20.035 A 0.167,0.167 0 0,1 32.781,20.203 H 31.591 A 0.168,0.168 0 0,1 31.421,20.034 V 16.46 C 31.421,16.316 31.797,16.483 32.195,16.673 C 32.22,16.696 32.242,16.696 32.265,16.696 C 32.813,16.976 32.969,16.952 32.969,17.35 V 20.034 H 32.951 Z M 38.999,19.614 V 18.714 C 38.999,18.233 38.571,17.885 38.169,17.783 L 36.933,17.476 L 35,17 V 22 H 36.175 L 36.17,20.665 H 37.711 L 37.706,22 H 39 V 21.043 C 39,20.644 38.76,20.423 38.481,20.31 C 38.751,20.209 39.001,19.944 39.001,19.614 H 39 Z M 37.711,19.604 H 36.16 L 36.155,18.335 L 36.933,18.505 L 37.36,18.6 C 37.564,18.648 37.72,18.84 37.72,19.122 V 19.604 H 37.712 Z" fill="rgb(254, 254, 253)"/>
<path d="M 30.171999999999997,15.362 V 16.614 L 28.747,15.91 V 22.123 H 27.444 V 15.91 L 26.01,16.614 V 15.377 C 26.909,14.932 27.641,14.469 28.095,14 C 28.551,14.479 29.284,14.925 30.187,15.377 H 30.182 Z M 17,22.123 H 18.54 V 20.798 L 19.378,22.078 L 20.202,20.608 V 22.123 H 21.439 V 17.202 H 21.005 C 20.727,17.282 20.449,17.356 20.171,17.437 L 19.283,19.591 L 18.459,17.846 C 18.035,17.936 17.399,18.02 17,18.09 V 22.123 Z M 17.912,35.094 H 19.988 V 36.082 H 18.348 V 37.247 C 18.353,37.552 18.491,37.74 18.728,37.9 L 20.385,38.968 V 40.544 L 17.43,38.474 C 17.193,38.31 17.006,38.02 17.006,37.741 V 35.801 C 17.004,35.297 17.403,35.099 17.902,35.094 H 17.912 Z M 20.33,35.094 H 21.724 L 22.343,36.848 L 23.143,35.094 H 24.563 L 23.006,38.414 V 42.026 C 22.566,41.806 22.164,41.52 21.724,41.266 V 38.194 L 20.33,35.094 Z M 25.46,35.094 H 28 V 36.083 H 26.352 C 26.125,36.083 25.999,36.283 25.999,36.553 V 41.671 C 25.999,41.905 26.129,42.179 26.344,42.265 L 27.904,42.848 V 44 C 27.086,43.95 26.157,43.521 25.162,43.107 C 24.702,42.917 24.67,42.728 24.67,42.095 V 35.965 C 24.667,35.462 24.981,35.099 25.457,35.095 H 25.458 Z M 28.541,35.094 H 29.981 V 42.5 L 31.541,41.911 V 43.143 C 30.399,43.587 29.466,43.946 28.541,43.981 V 35.095 Z M 32.516,35.094 H 35.006 V 36.083 H 33.475 C 33.262,36.078 32.983,36.269 32.988,36.473 L 32.998,37.773 H 34.398 L 34.394,38.933 L 32.998,38.928 L 32.993,40.419 C 32.993,40.701 33.24,40.889 33.549,40.714 L 34.842,39.906 V 41.292 C 34.069,41.766 33.22,42.26 32.442,42.629 C 32.119,42.779 31.66,42.599 31.66,41.956 V 35.8 C 31.651,35.414 32.112,35.098 32.516,35.093 Z M 36.076,35.094 H 39 V 36.065 H 37.116 C 36.924,36.065 36.742,36.346 36.747,36.565 C 36.757,36.777 36.913,37.084 37.057,37.082 H 38.263 C 38.679,37.118 39,36.953 39,37.409 V 38.022 C 39,38.566 38.946,38.732 38.517,39.042 A 43.555,43.555 0 0,1 35.344,41.102 V 39.61 L 37.188,38.444 C 37.436,38.284 37.532,38.114 37.538,37.88 H 36.042 C 35.714,37.88 35.344,37.536 35.344,37.202 V 35.68 C 35.348,35.227 35.695,35.1 36.076,35.094 Z" fill="rgb(254, 254, 253)"/>
</svg>
