<?xml version="1.0" encoding="UTF-8"?>
<!-- generated by Finnhub -->
<svg viewBox="0 0 55.5 55.5" xmlns="http://www.w3.org/2000/svg">
<path d="M 0,0 H 55.5 V 55.5 H 0 Z" fill="rgb(36, 49, 131)"/>
<path d="M 10.648,19.985 H 11 V 28.62 H 9.323 V 25 H 5.593 V 28.62 H 4 V 20 H 5.592 V 23.412 H 9.322 V 20 H 10.658 Z M 19.075,22.147 C 19.409,22.809 19.583,23.564 19.583,24.399 C 19.583,25.241 19.403,26.009 19.05,26.679 C 18.69,27.354 18.177,27.877 17.522,28.229 A 4.426,4.426 0 0,1 15.422,28.745 C 14.613,28.745 13.875,28.553 13.232,28.169 A 3.762,3.762 0 0,1 11.756,26.585 A 4.69,4.69 0 0,1 11.262,24.485 C 11.262,23.101 11.653,22.001 12.43,21.205 C 13.207,20.411 14.215,20 15.429,20 C 16.225,20 16.95,20.192 17.592,20.563 A 3.858,3.858 0 0,1 19.075,22.147 Z M 17.65,22.816 A 2.239,2.239 0 0,0 16.758,21.809 A 2.527,2.527 0 0,0 15.422,21.451 C 14.709,21.451 14.119,21.676 13.605,22.153 C 13.111,22.61 12.86,23.405 12.86,24.518 C 12.86,25.4 13.104,26.102 13.586,26.598 C 14.074,27.102 14.671,27.348 15.409,27.348 C 16.16,27.348 16.764,27.102 17.246,26.592 C 17.721,26.089 17.965,25.353 17.965,24.406 C 17.965,23.79 17.862,23.26 17.65,22.816 Z M 21.509,27.006 V 20 H 20 V 28.62 H 25.535 V 27 C 25.528,27.007 21.952,27.007 21.509,27.007 Z M 32.546,22.146 C 32.88,22.809 33.053,23.564 33.053,24.399 C 33.053,25.241 32.873,26.009 32.52,26.679 C 32.16,27.354 31.647,27.877 30.992,28.229 A 4.426,4.426 0 0,1 28.892,28.745 C 28.084,28.745 27.345,28.553 26.703,28.169 A 3.762,3.762 0 0,1 25.226,26.585 A 4.69,4.69 0 0,1 24.732,24.485 C 24.732,23.101 25.124,22.001 25.901,21.205 C 26.671,20.411 27.685,20 28.899,20 C 29.695,20 30.42,20.192 31.063,20.563 A 3.858,3.858 0 0,1 32.546,22.147 Z M 31.12,22.816 A 2.239,2.239 0 0,0 30.228,21.809 A 2.527,2.527 0 0,0 28.892,21.451 C 28.18,21.451 27.589,21.676 27.075,22.153 C 26.581,22.61 26.331,23.405 26.331,24.518 C 26.331,25.413 26.568,26.095 27.056,26.598 C 27.544,27.102 28.135,27.348 28.873,27.348 C 29.624,27.348 30.228,27.102 30.709,26.592 C 31.185,26.089 31.429,25.353 31.429,24.406 C 31.435,23.79 31.332,23.26 31.12,22.816 Z M 37.54,24 V 25.499 H 39.942 V 26.592 A 3.433,3.433 0 0,1 39.088,27.049 A 3.457,3.457 0 0,1 37.804,27.294 C 37.304,27.294 36.828,27.188 36.385,26.97 A 2.14,2.14 0 0,1 35.403,26.016 C 35.172,25.578 35.056,25.022 35.056,24.359 C 35.056,23.823 35.153,23.319 35.346,22.862 C 35.454,22.604 35.615,22.365 35.814,22.147 C 36.006,21.935 36.27,21.762 36.597,21.63 C 36.925,21.497 37.329,21.431 37.785,21.431 C 38.164,21.431 38.51,21.497 38.819,21.617 C 39.114,21.736 39.339,21.895 39.499,22.094 C 39.659,22.299 39.801,22.59 39.91,22.961 L 39.98,23.2 L 41.432,22.802 L 41.362,22.551 C 41.214,21.981 40.989,21.511 40.693,21.153 C 40.398,20.788 39.981,20.497 39.467,20.298 A 4.601,4.601 0 0,0 37.78,20 C 36.932,20 36.168,20.172 35.513,20.517 A 3.524,3.524 0 0,0 33.966,22.127 A 5.11,5.11 0 0,0 33.439,24.406 C 33.439,25.227 33.619,25.983 33.972,26.652 C 34.332,27.327 34.865,27.851 35.564,28.209 C 36.251,28.559 37.022,28.739 37.863,28.739 C 38.486,28.739 39.096,28.633 39.686,28.414 A 6.528,6.528 0 0,0 41.394,27.447 L 41.497,27.367 V 24 H 37.542 Z M 43.486,20 H 42 V 28.62 H 43.737 V 20 H 43.487 Z M 50.414,25.26 L 50.356,25.519 C 50.221,26.122 49.965,26.579 49.592,26.884 C 49.214,27.188 48.764,27.341 48.212,27.341 C 47.762,27.341 47.332,27.228 46.947,27.003 A 1.959,1.959 0 0,1 46.112,26.003 C 45.926,25.533 45.83,24.969 45.83,24.326 C 45.83,23.836 45.913,23.352 46.074,22.889 C 46.228,22.445 46.484,22.1 46.864,21.842 C 47.242,21.583 47.724,21.451 48.302,21.451 C 48.79,21.451 49.201,21.571 49.522,21.795 C 49.836,22.021 50.08,22.405 50.254,22.928 L 50.324,23.147 L 51.872,22.796 L 51.794,22.524 C 51.551,21.729 51.127,21.106 50.524,20.669 C 49.926,20.232 49.181,20 48.314,20 C 47.557,20 46.851,20.186 46.215,20.523 A 3.577,3.577 0 0,0 44.725,22.033 C 44.379,22.683 44.205,23.458 44.205,24.326 A 5.6,5.6 0 0,0 44.661,26.566 C 44.969,27.275 45.425,27.818 46.022,28.196 C 46.613,28.566 47.377,28.759 48.302,28.759 C 49.207,28.759 49.984,28.514 50.613,28.029 C 51.249,27.546 51.692,26.831 51.929,25.916 L 52,25.658 L 50.414,25.26 Z M 4,36 H 5 V 30 H 4 V 36 Z M 5.734,36 H 6.76 V 30 H 5.734 V 36 Z M 7.531,36 H 8.623 V 30 H 7.53 V 36 Z M 9.265,36 H 10.485 V 30 H 9.265 V 36 Z M 11,36 H 12.347 V 30 H 11 V 36 Z M 12.796,36 H 14.145 V 30 H 12.796 V 36 Z M 14.594,36 H 16.071 V 30 H 14.594 V 36 Z M 16.392,36 H 17.868 V 30 H 16.392 V 36 Z M 18.202,36 H 19.743 V 30 H 18.203 V 36 Z M 52,30 V 36 H 20 V 30 H 52 Z" fill="rgb(254, 254, 253)"/>
</svg>
