<?xml version="1.0" encoding="UTF-8"?>
<!-- generated by Finnhub -->
<svg viewBox="0 0 55.5 55.5" xmlns="http://www.w3.org/2000/svg">
<path d="M 0,0 H 55.5 V 55.5 H 0 Z" fill="rgb(1, 199, 3)"/>
<path d="M 35.88,13.985 C 37.29,14.05 38.21,14.31 38.82,14.84 C 39.57,15.46 40.35,17.93 39.83,21.14 C 39.79,21.32 39.73,21.46 39.57,21.68 A 147,147 0 0,0 34.64,27.88 A 82.4,82.4 0 0,1 34.35,19.95 C 34.35,19.57 34.05,19.38 33.7,19.38 A 69,69 0 0,0 25.98,20.62 L 25.81,20.66 C 25.76,20.7 25.71,20.66 25.67,20.62 C 25.63,20.57 25.63,20.53 25.67,20.48 L 25.81,20.35 A 81.22,81.22 0 0,1 30.81,15.19 C 31.02,15.02 31.2,14.89 31.46,14.79 C 33.16,14.27 34.66,13.96 35.89,14 Z M 26.64,38.34 L 26.42,38.43 H 26.41 C 25.09,38.88 23.13,39.53 21.43,40.37 C 21.33,40.41 21.25,40.54 21.25,40.54 C 21.21,40.64 21.15,40.72 21.12,40.81 L 20.96,41.19 C 20.8,41.57 20.62,41.99 20.55,42.22 L 20.47,42.44 V 42.53 L 20.5,42.57 H 20.55 L 20.76,42.49 C 21.04,42.36 21.35,42.19 21.68,42.02 L 22.48,41.61 H 22.52 C 23.65,41.08 24.77,40.53 25.89,39.97 C 25.89,39.97 26.02,39.89 26.11,39.76 L 26.73,38.52 V 38.43 C 26.73,38.34 26.68,38.3 26.64,38.34 Z M 21.74,36.4 C 21.82,36.22 22.21,35.47 22.31,35.3 V 35.26 A 78.2,78.2 0 0,1 31.94,21.06 L 32.03,20.93 C 32.08,20.88 32.08,20.83 32.03,20.79 C 31.98,20.75 31.93,20.7 31.9,20.75 H 31.73 C 29.27,21.1 26.77,21.55 24.33,22.16 C 24.08,22.24 23.95,22.36 23.89,22.41 L 23.88,22.42 A 89.88,89.88 0 0,0 18.7,29.35 C 18.75,29.48 18.75,29.75 18.75,29.75 S 19.15,32.83 19.72,35.12 C 18.32,39.32 17,45 17,45 H 18.02 A 50.98,50.98 0 0,1 21.73,36.4 Z M 33.2,22 V 21.82 C 33.2,21.78 33.17,21.74 33.13,21.7 L 33.12,21.69 C 33.07,21.69 33.02,21.69 32.98,21.73 L 32.9,21.86 A 74.77,74.77 0 0,0 22,38.61 L 21.9,38.74 V 38.87 L 21.94,38.91 H 22.03 L 22.16,38.87 A 78.76,78.76 0 0,1 29.61,36.22 A 0.68,0.68 0 0,0 29.96,35.96 C 31.06,33.85 33.59,29.7 33.59,29.7 C 33.69,29.57 33.64,29.43 33.64,29.43 S 33.2,24.5 33.2,21.99 Z" fill="rgb(254, 254, 253)"/>
</svg>
