<?xml version="1.0" encoding="UTF-8"?>
<!-- generated by Finnhub -->
<svg viewBox="0 0 55.5 55.5" xmlns="http://www.w3.org/2000/svg">
<path d="M 0,0 H 55.5 V 55.5 H 0 Z" fill="rgb(1, 149, 212)"/>
<path d="M 27.99,43.985 C 27.841,44 27.683,43.997 27.524,43.993 L 30.794,35 H 35.294 C 36.084,35 36.951,34.399 37.221,33.657 L 40.769,23.913 C 41.349,22.318 40.436,21 38.738,21 H 32.495 L 27.257,35.406 H 27.255 L 24.285,43.566 C 17.24,41.89 12,35.558 12,28 C 12,20.66 16.942,14.476 23.68,12.59 L 20.616,21.012 L 15.521,35 H 18.912 L 23.278,23 H 25.826 L 21.461,35 H 24.851 L 28.887,23.913 C 29.468,22.318 28.554,21 26.858,21 H 24.008 L 27.281,12.017 C 27.52,12.007 27.759,12 28,12 C 36.837,12 44,19.163 44,28 C 44,36.837 36.837,44 28,44 Z M 37.68,23 H 35.133 L 31.565,33 H 34.113 L 37.681,23 Z" fill="rgb(254, 254, 253)"/>
</svg>
