<?xml version="1.0" encoding="UTF-8"?>
<!-- generated by Finnhub -->
<svg viewBox="0 0 55.5 55.5" xmlns="http://www.w3.org/2000/svg">
<path d="M 0,0 H 55.5 V 55.5 H 0 Z" fill="rgb(0, 141, 63)"/>
<path d="M 3.99,27.985 A 8,8 0 0,1 12,20 H 44 A 8,8 0 1,1 44,36 H 12 A 8,8 0 0,1 4,28 Z" fill="rgb(254, 254, 253)"/>
<path d="M 11.43,28.355999999999998 L 10.905,30.361 C 10.872,30.46 10.772,30.659 10.972,30.791 V 31.057 C 10.238,30.99 9.404,30.957 9.037,31.057 L 8.537,30.99 L 10.305,24.758 C 10.372,24.558 10.405,24.393 10.372,24.228 C 10.372,24.161 10.305,24.094 10.272,24.061 L 10.305,23.829 C 10.672,23.862 11.439,23.962 12.14,23.829 L 12.707,23.895 S 12.573,24.36 12.507,24.658 L 11.639,27.774 C 12.206,27.344 13.34,26.78 13.974,26.714 L 14.508,24.791 C 14.574,24.625 14.641,24.261 14.608,24.161 C 14.541,24.127 14.508,24.094 14.474,24.094 L 14.508,23.829 C 14.841,23.862 15.842,23.962 16.442,23.829 L 16.942,23.895 S 16.809,24.36 16.709,24.658 L 15.842,27.708 L 15.142,30.36 C 15.108,30.492 14.975,30.658 15.242,30.79 L 15.175,31.056 C 14.475,30.956 13.64,30.956 13.24,31.056 L 12.773,30.99 L 13.741,27.575 C 13.141,27.575 12.106,27.875 11.439,28.371 Z M 43.228,26.714 C 43.528,27.178 43.428,27.587 43.295,28.019 H 39.659 C 39.492,28.615 39.325,29.599 39.893,30.162 C 40.459,30.592 41.26,30.394 41.727,30.162 C 42.017,30.036 42.287,29.868 42.527,29.665 C 42.627,29.765 42.861,30.029 42.861,30.029 C 41.927,30.759 40.693,31.421 39.225,31.123 C 38.491,31.023 37.825,30.46 37.624,29.93 C 37.224,28.537 38.091,27.211 39.392,26.482 C 40.392,25.952 42.427,25.652 43.228,26.714 Z M 40.86,26.581 C 40.16,26.714 39.892,27.157 39.759,27.555 H 41.293 C 41.426,27.322 41.527,27.112 41.426,26.847 C 41.293,26.647 41.126,26.548 40.86,26.581 Z M 22.38,26.88 C 23.08,27.907 22.513,29.598 21.279,30.493 C 20.545,31.023 19.678,31.256 18.644,31.223 C 18.044,31.223 17.41,30.991 16.976,30.659 C 16.442,30.261 16.242,29.433 16.309,29.068 C 16.509,27.642 17.81,26.349 19.578,26.084 C 20.545,25.951 21.813,26.15 22.38,26.88 Z M 19.878,26.548 C 19.511,26.681 19.144,26.979 18.911,27.51 C 18.477,28.338 18.143,29.499 18.344,30.36 C 18.444,30.692 18.744,30.759 18.977,30.726 C 19.611,30.56 20.212,29.532 20.478,28.836 C 20.612,28.405 20.912,27.377 20.545,26.714 C 20.412,26.548 20.212,26.449 19.878,26.548 Z M 28.985,25.686 C 29.085,25.487 28.685,25.222 28.351,25.222 C 27.117,25.189 26.349,26.448 25.682,27.31 L 25.649,27.344 S 25.782,26.78 25.849,26.514 L 25.482,26.448 C 24.715,26.614 23.848,26.448 23.681,26.448 L 23.647,26.681 C 23.914,26.781 23.781,26.979 23.747,27.178 L 22.68,30.991 L 23.18,31.057 C 23.347,30.991 23.981,30.991 24.148,30.991 L 25.115,31.057 L 25.148,30.825 C 24.948,30.692 25.015,30.526 25.048,30.328 C 25.048,30.328 25.615,28.106 25.848,27.775 C 26.383,26.581 27.95,25.985 27.65,27.045 L 27.717,27.112 C 27.784,27.078 28.751,26.084 28.985,25.686 Z M 46.23,27.741 L 46.997,24.99 C 47.097,24.725 47.231,24.227 47.231,24.227 L 46.697,24.194 C 45.897,24.327 45.297,24.194 44.796,24.161 L 44.762,24.426 C 44.796,24.426 44.829,24.493 44.896,24.559 S 44.829,24.957 44.796,25.123 L 43.16,30.99 L 43.694,31.056 C 44.061,30.956 44.861,30.956 45.562,31.056 L 45.595,30.824 C 45.428,30.724 45.462,30.559 45.462,30.459 L 46.229,27.74 Z" fill="rgb(203, 33, 39)"/>
<path d="M 29.474999999999998,26.467 C 29.151,26.714 27.85,27.41 27.684,27.476 V 27.675 C 27.75,27.675 27.817,27.775 27.784,27.94 C 27.517,28.902 26.917,30.99 26.917,30.99 L 27.417,31.057 C 27.584,30.99 28.351,30.957 29.318,31.057 L 29.352,30.791 L 29.285,30.758 C 29.185,30.658 29.218,30.526 29.285,30.294 L 29.752,28.669 C 29.885,28.272 29.952,27.377 30.786,26.879 C 30.919,26.813 31.053,26.813 31.152,26.813 C 31.686,26.879 31.42,27.575 31.352,27.84 L 30.552,30.692 L 30.485,30.99 L 30.953,31.056 C 31.42,30.924 32.253,30.99 32.887,31.056 L 32.92,30.824 L 32.887,30.758 C 32.754,30.692 32.754,30.592 32.853,30.294 C 32.853,30.294 33.354,28.47 33.521,27.874 C 33.654,27.443 34.155,26.68 34.821,26.813 C 35.021,26.879 35.155,27.111 35.055,27.543 L 34.088,30.99 L 34.588,31.056 C 35.122,30.924 35.956,31.023 36.49,31.056 L 36.556,30.824 C 36.49,30.791 36.456,30.758 36.456,30.724 C 36.356,30.592 36.456,30.394 36.49,30.194 C 36.49,30.194 37.157,27.874 37.157,27.277 C 37.123,27.012 37.057,26.713 36.79,26.415 C 36.49,26.117 36.09,26.05 35.822,26.017 C 34.755,25.884 33.822,26.581 33.454,27.045 C 33.454,27.045 33.354,26.713 33.254,26.581 C 33.121,26.349 32.821,26.15 32.52,26.083 C 31.353,25.752 30.72,26.382 30.085,27.045 L 30.252,26.614 C 30.352,26.183 30.152,26.084 29.485,26.481 Z" fill="rgb(203, 33, 39)"/>
<path d="M 29.241999999999997,26.378999999999998 C 30.185,25.499 31.086,24.571 31.453,23.676 C 31.586,23.344 31.653,22.946 31.586,22.482 C 31.453,21.752 31.12,21.686 30.919,21.72 C 30.819,21.72 30.586,21.852 30.552,22.118 C 30.419,21.885 30.052,21.72 29.785,21.985 C 29.785,21.985 29.518,22.184 29.652,22.615 C 29.352,22.515 29.052,22.715 28.985,22.979 C 28.918,23.278 29.052,23.543 29.419,23.609 C 29.852,23.709 30.419,24.272 29.885,25.366 C 29.752,25.665 29.251,26.196 29.185,26.262 C 29.151,26.328 29.185,26.427 29.252,26.394 Z" fill="rgb(50, 163, 85)"/>
<path d="M 16.871,34.985 H 42.394 C 47.132,35 51,32.22 51,28.263 C 51,24.166 48.38,21 42.982,21 H 34.069 C 34.33,21.028 34.715,21.267 34.715,22 H 42.426 C 47.46,22 50,24.357 50,28.236 C 50,31.379 46.805,34 42.33,34 H 19.73 C 18.652,34.561 18.548,34.606 16.881,35 C 16.816,35 16.816,35 16.881,35 Z" fill="rgb(50, 163, 85)"/>
<path d="M 13.452,33.941 C 9.706,33.956 6.008,31.688 6.008,28.292 V 28.264 C 6.008,24.224 9.477,22 13.429,22 H 29.332 C 29.332,21.386 30.027,21 30.224,21 H 13.266 C 8.269,21 5.003,24.588 5.003,28.264 C 5.003,32.754 9.445,35 13.658,35 C 15.356,35 16.564,34.72 17.479,34.467 C 19.047,34.018 20.582,33.064 21.953,31.997 C 22.052,31.885 21.986,31.829 21.855,31.913 C 19.166,33.577 16.522,33.956 13.462,33.956 Z" fill="rgb(50, 163, 85)"/>
<path d="M 32.548,21.482 C 32.591,21 33.025,21 33.025,21 C 33.459,21 33.558,21.43 33.558,21.43 C 33.892,21.165 34.225,21.397 34.225,21.397 C 34.559,21.696 34.259,22.06 34.259,22.06 A 0.52,0.52 0 0,1 34.626,22.127 C 34.726,22.193 34.826,22.326 34.76,22.459 A 0.541,0.541 0 0,1 34.526,22.591 S 33.726,22.791 32.024,24.149 L 31.691,24.415 C 31.491,24.58 31.491,24.514 31.624,24.348 V 24.315 C 32.524,22.989 31.791,21.829 31.791,21.829 C 31.758,21.696 31.724,21.564 31.824,21.464 C 32.157,21.133 32.558,21.497 32.558,21.497 Z M 31.69,25.144 C 31.524,25.211 31.39,25.31 31.224,25.409 C 31.09,25.509 31.057,25.442 31.157,25.343 C 32.091,24.613 33.459,23.652 33.959,23.42 C 34.259,23.254 34.626,23.088 34.993,23.122 C 35.393,23.155 35.593,23.685 34.993,23.983 C 34.993,23.983 35.46,24.149 35.36,24.646 C 35.36,24.646 35.226,25.144 34.626,25.078 C 34.626,25.078 34.659,25.276 34.559,25.508 C 34.459,25.674 34.192,25.874 33.792,25.774 C 33.792,25.774 33.925,25.309 33.492,25.044 C 33.492,25.044 32.958,24.514 31.691,25.144 Z" fill="rgb(50, 163, 85)"/>
</svg>
