<?xml version="1.0" encoding="UTF-8"?>
<!-- generated by Finnhub -->
<svg viewBox="0 0 55.5 55.5" xmlns="http://www.w3.org/2000/svg">
<path d="M 0,0 H 55.5 V 55.5 H 0 Z" fill="rgb(239, 242, 248)"/>
<path d="M 25.194999999999997,33.413 L 22.219,33.03 C 21.616,33.03 21.679,33.507 21.786,33.746 C 22.439,34.928 23.818,37.537 24.113,38.516 C 24.483,39.742 25.06,39.551 25.863,39.535 C 26.505,39.522 26.612,39.127 26.585,38.93 C 26.521,37.966 26.373,35.794 26.296,34.827 C 26.219,33.86 25.536,33.491 25.205,33.427 Z" fill="rgb(80, 184, 70)"/>
<path d="M 27.112,28.224999999999998 L 22.479,28 C 21.871,28.112 22.039,28.87 22.199,29.236 C 22.719,30.506 23.816,33.233 24.04,33.983 C 24.264,34.733 24.88,34.973 25.16,35 H 26.521 C 27.321,35 27.642,34.535 27.702,34.302 C 27.949,33.252 28.422,30.852 28.342,29.655 C 28.262,28.459 27.495,28.213 27.122,28.239 Z M 31.056,34.221 C 30.409,34.305 29.095,34.466 29.016,34.435 C 28.484,34.473 28.298,34.969 28.271,35.212 C 28.219,35.75 28.044,37.07 27.761,38.05 C 27.479,39.03 27.722,39.287 27.879,39.294 C 27.997,39.314 28.33,39.364 28.722,39.41 A 0.814,0.814 0 0,0 29.468,39.1 C 29.938,38.037 30.978,35.749 31.37,35.096 C 31.762,34.443 31.324,34.241 31.056,34.221 Z" fill="rgb(80, 184, 70)"/>
<path d="M 25.877,42.991 C 25.603,42.462 25.224,42.585 25.069,42.715 C 24.742,43.445 26.023,44.613 26.704,45.105 C 26.549,44.632 26.17,43.55 25.887,43.006 Z M 31.02,39.025 H 30.366 C 30.173,39.025 30.02,39.749 29.366,41.368 C 28.843,42.664 29.507,42.428 29.904,42.149 C 30.212,41.533 30.896,40.191 31.174,39.749 C 31.45,39.307 31.186,39.082 31.019,39.025 Z" fill="rgb(1, 125, 193)"/>
<path d="M 30.419999999999998,37.829 A 91.841,91.841 0 0,1 29.249,37.711 C 28.866,37.666 28.646,37.984 28.583,38.149 C 28.325,39.152 27.81,41.532 27.81,43.025 C 27.81,44.519 28.325,44.029 28.583,43.597 C 28.977,42.397 29.898,39.795 30.431,38.987 C 30.964,38.179 30.653,37.888 30.431,37.844 Z M 25.872,37.711 H 24.792 C 24.53,37.711 24.529,38.036 24.562,38.198 C 24.732,39.134 25.178,41.346 25.61,42.709 C 26.043,44.072 26.325,43.699 26.413,43.342 C 26.358,42.006 26.255,39.162 26.282,38.474 C 26.308,37.786 26.02,37.679 25.872,37.711 Z" fill="rgb(1, 125, 193)"/>
<path d="M 28.25,35.985 H 25.702 C 25.02,36 24.96,36.526 25.016,36.789 C 25.442,39.845 26.347,46.209 26.555,47.211 C 26.762,48.214 27.037,48.051 27.148,47.845 C 27.624,44.695 28.646,38.162 28.928,37.222 C 29.209,36.282 28.6,36.016 28.26,36 Z" fill="rgb(1, 125, 193)"/>
<path d="M 38.289,32.545 L 35.245,33.049 C 34.539,33.136 34.215,33.538 34.005,33.773 C 33.587,34.243 32.761,35.534 32.12,36.54 C 31.415,37.648 31.658,37.875 31.956,37.914 H 33.906 C 34.789,37.914 35.245,37.557 35.362,37.379 C 36.224,36.369 38.097,34.161 38.698,33.398 C 39.3,32.634 38.683,32.521 38.298,32.56 Z" fill="rgb(80, 184, 70)"/>
<path d="M 39.17,27.991 L 33.808,29.261 C 33.091,29.261 32.698,29.679 32.591,29.888 A 688.82,688.82 0 0,0 30.088,35.048 C 29.775,35.717 30.371,35.961 30.708,36 H 32.591 C 33.821,36 34.511,35.504 34.703,35.256 C 36.249,33.483 39.447,29.73 39.87,28.912 C 40.292,28.094 39.587,27.967 39.18,28.006 Z M 20.329,29.183 L 15.604,28.119 C 14.333,27.72 14.488,28.421 14.724,28.82 C 15.919,30.435 18.439,33.837 18.954,34.526 C 19.47,35.214 20.343,35.673 20.715,35.816 C 21.03,35.854 21.931,35.943 23.013,35.997 C 24.095,36.051 24.051,35.34 23.893,34.978 C 23.507,34.02 22.593,31.836 22.025,30.768 C 21.458,29.698 20.658,29.266 20.329,29.183 Z" fill="rgb(80, 184, 70)"/>
<path d="M 18.755999999999997,33.05 L 15.684,32.559 C 15.05,32.455 15.311,33.042 15.52,33.348 A 1205.5,1205.5 0 0,0 18.766,37.333 C 19.142,37.786 19.631,37.886 19.828,37.879 H 21.727 C 22.512,37.879 22.339,37.319 22.155,37.009 C 21.685,36.146 20.641,34.303 20.215,33.833 C 19.791,33.364 19.073,33.125 18.766,33.065 Z" fill="rgb(80, 184, 70)"/>
<path d="M 14.113,31.677 L 12.358,31.325 C 11.924,31.235 11.997,31.532 12.088,31.692 C 12.482,32.106 13.305,33.051 13.625,33.356 C 13.995,33.708 14.379,33.892 14.578,33.948 C 14.631,33.962 14.954,34.016 15.831,34.118 C 16.707,34.219 16.585,33.888 16.414,33.708 C 16.13,33.361 15.455,32.569 15.034,32.185 C 14.613,31.802 14.251,31.697 14.123,31.692 Z M 12.39,34.503 H 11.506 C 11.215,34.503 11.53,34.831 11.724,34.996 L 12.209,35.536 C 12.391,35.716 12.556,35.976 13.215,36.005 C 13.875,36.033 13.861,35.825 13.773,35.716 A 30.341,30.341 0 0,0 13.045,34.839 C 12.793,34.551 12.504,34.495 12.391,34.503 Z M 41.531,31.366 L 39.774,31.696 C 39.528,31.743 39.226,31.985 39.106,32.1 C 39.039,32.215 38.732,32.603 38.046,33.236 C 37.361,33.869 37.432,34.037 37.553,34.042 C 37.713,34.032 38.206,34.019 38.903,34.042 C 39.6,34.065 39.92,33.898 39.993,33.812 C 40.505,33.337 41.607,32.272 41.909,31.812 C 42.211,31.352 41.783,31.322 41.531,31.366 Z M 42.343,34.483 L 41.599,34.561 C 41.416,34.561 41.239,34.712 41.172,34.787 C 41.122,34.85 40.898,35.082 40.398,35.515 C 39.898,35.947 40.08,35.986 40.269,35.986 C 40.399,35.986 40.629,35.974 40.805,35.986 C 41.368,36.026 41.523,35.924 41.529,35.869 C 41.741,35.629 42.251,35.079 42.6,34.787 C 42.95,34.497 42.574,34.463 42.343,34.483 Z" fill="rgb(80, 184, 70)"/>
<path d="M 23.66,37.013 L 23.085,37.395 C 22.931,37.492 23.021,37.736 23.085,37.846 C 23.38,38.462 24.005,39.781 24.141,40.131 C 24.313,40.568 24.555,40.483 24.841,40.342 C 25.069,40.229 25.003,39.862 24.941,39.693 C 24.731,39.106 24.279,37.823 24.141,37.395 C 24.005,36.966 23.771,36.972 23.671,37.028 Z" fill="rgb(1, 125, 193)"/>
<path d="M 20.869999999999997,26.529 L 17.567,26.014 C 16.937,25.913 16.957,26.403 17.045,26.66 C 17.55,27.705 18.74,29.996 19.467,30.805 C 20.375,31.817 20.358,31.336 22.141,31.867 C 23.567,32.291 23.564,31.601 23.385,31.203 A 70.742,70.742 0 0,0 22.393,28.169 C 21.989,27.041 21.216,26.616 20.879,26.544 Z M 29.933,15 H 23.98 C 22.98,15.184 22.933,16.451 23.035,17.062 C 23.35,19.307 24.016,24.078 24.164,25.206 C 24.311,26.334 25.082,26.851 25.449,26.969 C 26.066,26.992 27.543,27.025 28.521,26.969 C 29.499,26.912 29.869,26.052 29.931,25.629 C 30.193,23.49 30.766,18.825 30.966,17.274 C 31.166,15.722 30.36,15.112 29.932,15 Z" fill="rgb(27, 61, 147)"/>
<path d="M 34.123000000000005,22.021 L 27.571,22.546 C 26.359,22.546 26.019,23.78 26,24.396 C 26.16,26.55 26.49,31.182 26.537,32.478 C 26.583,33.774 27.31,34.031 27.667,33.998 A 60.348,60.348 0 0,0 30.371,33.835 C 31.536,33.738 32.076,33.215 32.201,32.967 C 33.301,30.797 35.59,25.975 35.944,24.035 C 36.298,22.095 34.884,21.895 34.133,22.036 Z M 39.461,12 H 36.888 C 36.402,12 36.09,12.61 35.995,12.915 C 35.741,13.729 35.337,15.71 35.084,16.737 C 34.819,17.81 35.239,18.012 35.548,18 H 37.353 C 38.11,18 38.443,17.512 38.514,17.268 A 674.3,674.3 0 0,1 39.944,13.024 C 40.158,12.41 39.711,12.085 39.461,12 Z M 45.607,21.004 L 44.049,21.284 C 43.767,21.284 43.589,21.497 43.533,21.577 C 43.263,21.942 42.616,22.805 42.188,23.329 C 41.76,23.853 42.161,23.994 42.415,24 C 42.747,24 43.285,23.856 43.653,23.732 C 43.975,23.624 44.206,23.599 44.408,23.329 C 44.808,22.794 45.669,21.647 45.915,21.337 C 46.162,21.027 45.813,20.985 45.607,21.004 Z M 12.718,19.457 L 10.378,19.017 C 9.82,18.912 10.007,19.317 10.169,19.533 C 10.796,20.295 12.109,21.879 12.342,22.11 C 12.576,22.341 13.107,22.533 13.325,22.6 C 13.436,22.626 13.902,22.787 15.031,22.952 C 16.167,23.119 16.075,22.81 15.894,22.6 C 15.388,21.888 14.281,20.372 13.902,20.01 C 13.523,19.648 12.955,19.49 12.718,19.457 Z" fill="rgb(27, 61, 147)"/>
</svg>
