<?xml version="1.0" encoding="UTF-8"?>
<!-- generated by Finnhub -->
<svg viewBox="0 0 55.5 55.5" xmlns="http://www.w3.org/2000/svg">
<path d="M 0,0 H 55.5 V 55.5 H 0 Z" fill="rgb(61, 1, 13)"/>
<path d="M 21.415999999999997,31.907999999999998 C 24.523,29.572 25.56,25.91 26,24.203 C 27.019,27.093 27.59,29.061 31.009,31.923 C 37.5,36.688 34.793,42 32.522,42 C 28.177,42.026 19.486,42.062 19.486,42 C 17.97,42 14.366,37.285 21.426,31.923 Z M 26,19.015 V 23.025 C 26.542,21.363 28.99,19.195 31.519,19.195 C 38.437,19.015 40.447,16.643 41.999,15.632 C 41.988,13.922 41.971,10.808 41.999,10.779 C 39.941,13.091 36.916,14.263 31.519,14.897 C 27.192,15.405 26.024,18.027 25.999,19.015 Z" fill="rgb(254, 254, 253)"/>
</svg>
