<?xml version="1.0" encoding="UTF-8"?>
<!-- generated by Finnhub -->
<svg viewBox="0 0 55.5 55.5" xmlns="http://www.w3.org/2000/svg">
<path d="M 0,0 H 55.5 V 55.5 H 0 Z" fill="rgb(254, 121, 87)"/>
<path d="M 35.794000000000004,23.521 V 19.726 C 36.314,19.49 36.747,19.116 37.051,18.648 A 2.905,2.905 0 0,0 37.52,17.081 V 16.993 C 37.52,16.214 37.206,15.468 36.648,14.918 A 2.998,2.998 0 0,0 34.544,14.058 H 34.454 C 33.665,14.058 32.908,14.368 32.35,14.918 A 2.914,2.914 0 0,0 31.478,16.993 V 17.081 C 31.481,17.637 31.644,18.181 31.948,18.648 C 32.251,19.117 32.684,19.49 33.195,19.726 V 23.536 A 8.488,8.488 0 0,0 29.187,25.276 L 18.587,17.136 C 18.662,16.867 18.702,16.59 18.707,16.312 A 3.272,3.272 0 0,0 18.144,14.474 A 3.343,3.343 0 0,0 16.642,13.254 A 3.398,3.398 0 0,0 14.704,13.063 C 14.054,13.189 13.455,13.503 12.986,13.965 C 12.516,14.427 12.196,15.015 12.066,15.656 A 3.262,3.262 0 0,0 12.254,17.567 A 3.317,3.317 0 0,0 13.487,19.053 C 14.037,19.417 14.686,19.611 15.349,19.613 A 3.353,3.353 0 0,0 17,19.17 L 27.439,27.177 A 8.251,8.251 0 0,0 26.034,31.891 A 8.256,8.256 0 0,0 27.568,36.567 L 24.393,39.697 A 2.76,2.76 0 0,0 23.599,39.569 C 23.055,39.569 22.523,39.729 22.07,40.028 A 2.724,2.724 0 0,0 21.056,41.247 A 2.68,2.68 0 0,0 20.9,42.815 C 21.007,43.342 21.269,43.825 21.654,44.205 A 2.79,2.79 0 0,0 24.654,44.794 A 2.747,2.747 0 0,0 25.89,43.794 C 26.193,43.348 26.355,42.824 26.355,42.287 A 2.645,2.645 0 0,0 26.226,41.504 L 29.367,38.408 A 8.524,8.524 0 0,0 32.849,39.973 A 8.585,8.585 0 0,0 36.674,39.868 A 8.508,8.508 0 0,0 40.062,38.114 A 8.356,8.356 0 0,0 42.321,35.068 A 8.245,8.245 0 0,0 41.929,27.727 A 8.392,8.392 0 0,0 39.359,24.931 A 8.536,8.536 0 0,0 35.804,23.536 Z M 34.502,36.068 A 4.39,4.39 0 0,1 32.089,35.344 A 4.297,4.297 0 0,1 30.491,33.421 A 4.227,4.227 0 0,1 30.245,30.946 A 4.265,4.265 0 0,1 31.435,28.754 A 4.365,4.365 0 0,1 33.659,27.582 A 4.403,4.403 0 0,1 36.169,27.826 A 4.333,4.333 0 0,1 38.119,29.403 C 38.596,30.107 38.851,30.935 38.851,31.782 A 4.254,4.254 0 0,1 37.579,34.812 A 4.377,4.377 0 0,1 34.506,36.066" fill="rgb(254, 254, 253)"/>
</svg>
