<?xml version="1.0" encoding="UTF-8"?>
<!-- generated by Finnhub -->
<svg viewBox="0 0 55.5 55.5" xmlns="http://www.w3.org/2000/svg">
<path d="M 0,0 H 55.5 V 55.5 H 0 Z" fill="rgb(112, 175, 14)"/>
<path d="M 27.104999999999997,24.982 C 26.285,24.997 25.498,25.323 25.151,25.571 C 24.617,25.16 23.889,24.997 22.983,24.997 C 21.612,24.997 20.161,25.426 20,25.494 V 32.991 H 21.75 C 21.893,32.991 22,32.871 22,32.708 V 26.625 C 22.313,26.54 22.653,26.497 22.907,26.497 C 23.923,26.497 24,26.985 24,28.013 V 32.708 C 24,32.837 24.102,32.991 24.263,32.991 H 25.738 C 25.907,32.991 26,32.862 26,32.708 V 26.857 C 26.271,26.617 26.582,26.505 26.938,26.505 C 27.725,26.505 28,26.934 28,27.911 V 32.708 C 28,32.828 28.085,32.991 28.263,32.991 H 30 V 27.602 C 30,25.666 28.597,24.997 27.115,24.997 Z M 5.003,32.991 H 6.741 C 6.859,32.991 7.003,32.889 7.003,32.734 V 29.01 H 9.165 C 9.648,29.01 9.995,29.404 9.995,29.806 L 10.003,32.736 C 10.003,32.881 10.122,33.001 10.266,33.001 H 12.003 L 11.995,23.001 H 10.265 C 10.13,23.001 10.003,23.135 10.003,23.263 V 26.983 H 7.723 A 0.724,0.724 0 0,1 7.003,26.28 V 23.263 C 7.003,23.169 6.91,23.001 6.741,23.001 H 5.003 V 32.992 Z M 49,31.055 C 49,31.363 48.7,31.501 48.014,31.526 C 47.04,31.526 47,30.926 47,29.641 V 28.341 C 47,26.868 47.158,26.457 48.014,26.457 C 48.734,26.457 48.856,26.517 49,26.551 V 31.055 Z M 48.014,24.975 C 46.1,24.975 45.022,26.088 45.022,28.342 V 29.727 C 45.022,32.303 46.6,32.991 48.014,32.991 C 48.708,32.991 48.763,32.478 49,32.161 V 32.709 C 49,32.829 49.123,32.991 49.275,32.991 H 51 V 25.403 S 49.554,24.974 48.014,24.974 Z M 34.986,31.07 C 34.986,31.361 34.803,31.517 34.118,31.543 C 33.144,31.543 33,30.969 33,29.683 V 28.393 C 33,26.919 33.262,26.657 34.118,26.657 C 34.5,26.657 34.842,26.705 34.986,26.739 V 31.07 Z M 34.118,25 C 32.204,25 30.993,26.053 30.993,28.307 V 29.684 C 30.993,32.177 32.306,32.991 33.72,32.991 C 34.422,32.991 34.762,32.489 35,32.172 V 32.725 C 35,32.845 35.1,32.991 35.262,32.991 H 37 V 25.462 C 36.992,25.462 35.65,24.999 34.118,24.999 Z M 39.762,32.991 C 39.906,32.991 40.004,32.871 40.004,32.708 V 26.632 C 40.436,26.529 40.615,26.474 41.055,26.474 C 42.029,26.474 42.004,26.911 42.004,27.982 V 32.688 C 42.004,32.868 42.155,32.991 42.282,32.991 H 44.004 V 27.981 C 44.004,25.78 42.969,24.974 41.106,24.974 C 39.616,24.974 38.122,25.411 38.004,25.446 V 32.991 H 39.762 Z M 17.272,25.004 A 0.277,0.277 0 0,0 17,25.287 V 31.293 C 16.568,31.396 16.491,31.495 16.05,31.495 C 15.077,31.495 15.015,31.127 15.015,30.055 V 25.285 C 15.015,25.105 14.879,25.002 14.752,25.002 H 12.986 V 30.064 C 12.986,32.266 14.137,32.991 16,32.991 C 17.49,32.991 18.882,32.554 19,32.52 V 24.998 L 17.271,24.995 V 25.004 Z" fill="rgb(254, 254, 253)"/>
</svg>
