<?xml version="1.0" encoding="UTF-8"?>
<!-- generated by Finnhub -->
<svg viewBox="0 0 55.5 55.5" xmlns="http://www.w3.org/2000/svg">
<path d="M 0,0 H 55.5 V 55.5 H 0 Z" fill="url(#a)"/>
<path d="M 37.99,15.084999999999999 L 28,9 L 18,15.1 V 26.56 L 21,24.74 V 16.9 L 28,12.73 L 35,16.9 V 24.75 L 32.47,26.2 L 35.63,28 L 32.47,29.81 L 35,31.26 V 39.09 L 28,43.51 L 21,39.09 V 31.26 L 22.1,30.62 L 19,28.8 L 18,29.44 V 40.91 L 28,47 L 38,40.91 V 29.4 L 35.58,28 L 38,26.56 V 15.1 Z" fill="rgb(254, 254, 253)"/>
<path d="M 17.99,26.544999999999998 L 21,24.73 L 23.53,26.19 L 28,23.52 L 35.63,28 L 32.47,29.81 L 27.95,27.25 L 26.63,28 L 31.05,30.67 L 28,32.43 L 18,26.56 Z" fill="rgb(1, 254, 204)"/>
<defs>
<linearGradient id="a" x1="10.42" x2="68.15" y1="9.71" y2="76.02" gradientUnits="userSpaceOnUse">
<stop stop-color="rgb(25, 29, 31)" offset="0"/>
<stop stop-color="rgb(5, 5, 8)" offset="1"/>
</linearGradient>
</defs>
</svg>
