<?xml version="1.0" encoding="UTF-8"?>
<!-- generated by Finnhub -->
<svg viewBox="0 0 55.5 55.5" xmlns="http://www.w3.org/2000/svg">
<path d="M 0,0 H 55.5 V 55.5 H 0 Z" fill="rgb(36, 62, 106)"/>
<path d="M 42.99,28.785999999999998 V 36 L 52,20.998 L 43,28.801 Z" fill="rgb(254, 241, 2)"/>
<path d="M 42.99,28.788 V 36 L 46.749,25.83 L 49.657,24.902 L 52,20.998 L 43,28.803 Z M 6,36 V 35.56 H 8.032 V 20.995 H 6 V 20.554 H 13 V 20.995 H 11 V 35.56 H 13 V 36 H 6 Z" fill="rgb(254, 254, 253)"/>
<path d="M 18.194999999999997,31.046 H 8.032 V 30.618 H 18.205 V 31.061 Z" fill="rgb(254, 241, 2)"/>
<path d="M 39.550000000000004,36.284 C 39.515,35.965 39.08,35.588 38.442,35.588 C 37.737,35.588 36.962,36.343 35.047,36.343 C 30.895,36.343 28,32.613 28,28.22 C 28,23.826 30.895,20.097 35.047,20.097 C 36.527,20.097 37.487,20.765 38.671,20.765 C 39.083,20.765 39.493,20.287 39.537,20 H 40 V 25 H 39.537 C 39.537,21.983 37.007,20.543 35.047,20.543 C 34.363,20.543 33.467,20.718 32.692,21.428 C 31.688,22.385 30.98,24.58 30.98,28.22 C 30.98,31.861 31.688,34.057 32.692,35.011 C 33.467,35.721 34.044,35.9 35.047,35.9 C 37.989,35.9 39.559,33.886 39.559,31 H 40 V 36.3 H 39.56 Z M 22.31,36 V 35.555 H 24.388 L 22.718,31.053 H 17.432 L 15.762,35.555 H 17.839 V 36 H 13.368 V 35.555 H 15.287 L 21,20 H 21.317 L 27.5,35.555 H 28.95 V 36 H 22.31 Z M 20.096,23.787 L 17.59,30.607 H 22.582 L 20.096,23.787 Z" fill="rgb(254, 254, 253)"/>
<path d="M 22.572,30.602999999999998 L 22.717,31.061 H 31.16 S 31.106,30.799 31.1,30.618 H 22.582 Z" fill="rgb(254, 241, 2)"/>
</svg>
