<?xml version="1.0" encoding="UTF-8"?>
<!-- generated by Finnhub -->
<svg viewBox="0 0 55.5 55.5" xmlns="http://www.w3.org/2000/svg">
<path d="M 0,0 H 55.5 V 55.5 H 0 Z" fill="rgb(243, 64, 66)"/>
<path d="M 7.99,23.985 H 5 V 32.998 H 8 V 24 Z M 25,31 V 29 H 22 V 33 H 32 V 31 H 25 Z M 16.177,31 H 12 V 29 H 9 V 33 H 16.623 C 19.369,33 21,31.713 21,29.409 V 29 H 18.253 C 18.219,30.27 17.331,31 16.177,31 Z M 12,26 H 16.177 C 17.327,26 18.214,26.785 18.253,28 H 21 V 27.468 C 21,25.242 19.369,24 16.623,24 H 9 V 28 L 12,28.025 V 26 Z M 22,28 H 25 V 26 H 32.027 V 24 H 22 V 28 Z" fill="rgb(254, 254, 253)"/>
<path d="M 31.99,27.485 H 26 V 29.5 H 32 V 27.5 Z M 49.605,29 H 45 L 42.46,32.054 L 39.92,29 H 35.326 L 32,32.998 H 35.407 L 37.621,30.116 L 39.84,33 H 45.08 L 47.295,30.117 L 49.514,33 H 53 L 49.605,29 Z M 42.5,24.968 L 44.977,28 H 49.738 L 53,24 H 49.58 L 47.356,26.95 L 45.132,24.002 L 39.873,24 L 37.643,26.95 L 35.42,24.002 H 32 L 35.263,28 H 40.028 L 42.501,24.968 Z" fill="rgb(254, 254, 253)"/>
</svg>
