<?xml version="1.0" encoding="UTF-8"?>
<!-- generated by Finnhub -->
<svg viewBox="0 0 55.5 55.5" xmlns="http://www.w3.org/2000/svg">
<path d="M 0,0 H 55.5 V 55.5 H 0 Z" fill="rgb(239, 242, 248)"/>
<path d="M 27.99,43.985 A 16,16 0 1,0 28,12 A 16,16 0 0,0 28,44 Z M 28,45 A 17,17 0 1,0 28,11 A 17,17 0 0,0 28,45 Z" fill="rgb(0, 36, 53)" fill-rule="evenodd"/>
<path d="M 17.99,18.985 H 22 V 23 H 18 Z M 24,19 H 28 V 23 H 24 Z" fill="rgb(246, 188, 13)"/>
<path d="M 17.99,25.985 H 22 V 38 H 18 Z M 30,19 H 35.5 A 5.5,5.5 0 0,1 35.5,30 H 29.44 C 28.96,30 28,30.26 28,31.38 V 38 H 24 V 26 H 35.5 A 1.5,1.5 0 0,0 35.5,23 H 30 V 19 Z" fill="rgb(0, 36, 53)"/>
</svg>
