<?xml version="1.0" encoding="UTF-8"?>
<!-- generated by Finnhub -->
<svg viewBox="0 0 55.5 55.5" xmlns="http://www.w3.org/2000/svg">
<path d="M 0,0 H 55.5 V 55.5 H 0 Z" fill="rgb(96, 96, 95)"/>
<path d="M 8.616,20.985 H 9.913 V 32 H 8.647 L 8.626,21 Z M 12.102,21 H 13.389 V 32 H 12.123 L 12.102,21 Z M 19.89,31.802 H 21.177 V 24.931 H 19.89 V 28.275 C 19.89,29.859 19.096,30.746 18.023,30.746 C 17.229,30.746 16.5,30.079 16.5,28.781 V 24.909 H 15.213 V 29.155 C 15.213,31.003 16.35,31.978 17.659,31.978 C 18.689,31.978 19.547,31.472 19.869,30.746 H 19.889 V 31.802 Z M 22.786,24.93 H 23.988 V 26.009 H 24.009 C 24.138,25.591 24.953,24.755 26.155,24.755 C 27.142,24.755 27.828,25.195 28.257,26.031 A 2.455,2.455 0 0,1 30.381,24.755 C 32.441,24.755 32.934,26.273 32.934,27.813 V 31.802 H 31.67 V 27.989 C 31.67,26.933 31.455,25.987 30.21,25.987 C 28.966,25.987 28.494,26.647 28.494,27.879 V 31.824 H 27.207 V 28.033 C 27.207,26.735 27.014,25.987 25.791,25.987 C 24.868,25.987 24.053,26.493 24.053,28.055 V 31.824 H 22.809 L 22.787,24.931 Z M 35.981,24.93 H 34.694 V 31.802 H 35.981 V 24.931 Z M 39.114,24.93 V 25.987 H 39.135 C 39.457,25.261 40.315,24.755 41.345,24.755 C 42.654,24.755 43.791,25.547 43.791,27.395 V 31.824 H 42.504 V 27.769 C 42.504,26.471 41.774,25.987 40.98,25.987 C 39.908,25.987 39.114,26.493 39.114,28.077 V 31.802 H 37.826 V 24.931 H 39.114 Z" fill="rgb(254, 254, 253)"/>
<path d="M 46.300000000000004,26.53 L 46.237,26.603 L 45.464,25.767 C 46.172,25.085 47.181,24.755 48.124,24.755 C 50.12,24.755 50.935,25.855 50.935,27.043 V 30.4 C 50.935,30.884 50.957,31.28 51,31.654 H 49.863 V 31.65 C 49.841,31.3 49.82,30.949 49.82,30.598 H 49.798 C 49.219,31.5 48.468,31.83 47.438,31.83 C 46.194,31.83 45.121,31.104 45.121,29.762 C 45.121,28.002 46.773,27.386 48.811,27.386 H 49.755 V 27.262 C 49.755,26.558 49.24,25.81 48.146,25.81 C 47.23,25.81 46.759,26.186 46.31,26.544 Z M 49.777,28.795 V 28.355 H 49.112 C 47.91,28.355 46.43,28.575 46.43,29.675 C 46.43,30.467 46.988,30.797 47.867,30.797 C 49.283,30.797 49.777,29.719 49.777,28.795 Z" fill="rgb(254, 254, 253)"/>
<path d="M 4.99,22.395 C 5,21.926 5.386,21.53 5.858,21.53 S 6.716,21.926 6.716,22.41 S 6.33,23.29 5.858,23.29 A 0.872,0.872 0 0,1 5,22.41 Z M 6.502,24.83 H 5.236 V 31.716 H 6.502 V 24.83 Z" fill="rgb(254, 179, 63)"/>
</svg>
