<?xml version="1.0" encoding="UTF-8"?>
<!-- generated by Finnhub -->
<svg viewBox="0 0 55.5 55.5" xmlns="http://www.w3.org/2000/svg">
<path d="M 0,0 H 55.5 V 55.5 H 0 Z" fill="rgb(59, 79, 156)"/>
<path d="M 27.918,29.627 C 27.27,29.968 26.934,30.048 26.403,30.048 C 25.657,30.048 24.933,29.436 24.933,28.474 C 24.933,27.471 25.62,26.869 26.447,26.869 C 26.9,26.869 27.319,26.955 27.743,27.195 C 27.785,27.222 27.821,27.229 27.821,27.175 V 26.117 C 27.641,26.047 26.987,25.872 26.299,25.872 C 24.685,25.872 23.558,26.99 23.558,28.474 C 23.558,29.956 24.668,31.074 26.346,31.074 C 27.149,31.074 27.776,30.884 28,30.77 V 29.671 C 28,29.618 27.956,29.618 27.928,29.642 M 38.36,28 C 38.372,27.69 38.666,26.82 39.42,26.82 C 40.309,26.82 40.48,27.72 40.48,28 H 38.36 Z M 41.505,29.642 A 3.561,3.561 0 0,1 39.649,30.137 C 38.651,30.137 38.329,29.413 38.329,29 H 41.783 V 28.702 C 41.783,27.222 41.039,25.949 39.42,25.949 C 37.869,25.949 36.952,27.195 36.952,28.603 C 36.952,30.033 38.062,31.073 39.591,31.073 C 40.639,31.073 41.321,30.783 41.592,30.676 V 29.67 C 41.592,29.618 41.538,29.618 41.505,29.642 Z M 14.656,31 H 16 V 24 H 14.656 V 31 Z" fill="rgb(254, 254, 253)"/>
<path d="M 36.415,29.873 C 35.992,30.084 35.409,30.09 35.207,29.94 C 35.072,29.84 35,29.664 35,29.419 L 35.01,27 H 36.418 V 26 H 35 V 24.324 C 35,24.29 34.975,24.279 34.946,24.287 L 33.65,24.929 C 34.535,28.651 33.39,32.732 30.486,35.636 C 26.034,40.087 18.816,40.087 14.363,35.636 C 9.911,31.184 9.911,23.966 14.363,19.514 A 11.388,11.388 0 0,1 25.083,16.491 L 25.106,16.407 A 11.997,11.997 0 0,0 13.514,19.514 C 8.829,24.2 8.829,31.798 13.514,36.484 C 18.201,41.171 25.799,41.584 30.486,36.898 C 32.273,35.111 33.516,32.84 33.94,30.53 C 33.979,30.577 34.023,30.621 34.071,30.661 C 34.498,31.017 35.516,31.089 36.425,30.847 V 29.888 C 36.445,29.873 36.425,29.86 36.425,29.888 Z" fill="rgb(254, 254, 253)"/>
<path d="M 42.476,19.5 C 37.799,14.829 30.202,14.829 25.514,19.515 C 23.545,21.484 22.406,24.489 22.091,27.053 C 21.796,26.555 21.301,26.286 20.481,26.286 C 19.884,26.286 19.385,26.62 19,26.968 V 26.496 H 17.697 V 30.997 H 19 V 27.976 C 19.202,27.756 19.623,27.265 20.16,27.265 C 20.694,27.265 21,27.635 21,28.021 V 30.997 H 22.365 C 21.716,27.44 22.764,23.114 25.514,20.364 C 29.967,15.911 37.184,15.911 41.637,20.364 C 46.09,24.814 46.09,32.034 41.637,36.486 A 11.387,11.387 0 0,1 30.917,39.509 L 30.894,39.593 A 11.997,11.997 0 0,0 42.486,36.486 C 47.172,31.8 47.172,24.202 42.486,19.516 Z" fill="rgb(254, 254, 253)"/>
<path d="M 32.046,25.985 L 30.838,28.412 L 29.648,26 H 28.34 L 30.212,29.653 L 28.522,33 H 29.806 L 33.34,26 H 32.056 Z" fill="rgb(254, 254, 253)"/>
</svg>
