<?xml version="1.0" encoding="UTF-8"?>
<!-- generated by Finnhub -->
<svg viewBox="0 0 55.5 55.5" xmlns="http://www.w3.org/2000/svg">
<path d="M 0,0 H 55.5 V 55.5 H 0 Z" fill="rgb(41, 123, 199)"/>
<path d="M 21.255,18.985 C 19.5,19 18.182,19.828 18.001,22 H 17 V 23 H 18.001 L 18,34 H 20 V 23 H 23.508 C 22.236,24.082 21.343,26.05 21.343,28.024 C 21.343,31.3 23.67,33.787 26.449,33.824 C 29.256,33.824 31.595,31.113 31.595,27.814 C 31.595,27.427 31.651,27.438 31.588,27.064 C 32.095,27.914 33.182,28.164 34.474,28.757 C 36.01,29.437 36.859,30.025 36.859,31.042 C 36.859,32.264 35.729,32.77 34.5,32.763 C 33.298,32.763 32.542,32.434 31.5,31.439 V 33.268 C 32.14,33.7 32.98,33.998 34.05,33.998 C 34.87,33.991 36.226,33.766 37.157,32.939 C 37.747,32.42 38.164,31.637 38.164,30.489 C 38.157,29.546 37.761,28.895 37.157,28.383 C 36.629,27.938 35.949,27.593 35.241,27.278 C 33.392,26.312 32.694,26.112 32.715,25.008 C 32.715,23.537 33.871,23 34.823,23 C 35.233,23 35.583,23.087 35.916,23.212 C 36.541,23.453 36.792,24.011 37.015,24.544 L 37.157,24.873 C 37.17,24.895 37.178,24.918 37.185,24.933 C 37.195,24.961 37.191,24.963 37.185,24.948 L 39.837,31.79 C 39.194,33.327 38.443,35.522 37.697,37 H 39.667 A 748.512,748.512 0 0,0 43.758,27.065 C 44.148,28.162 44.844,28.122 46.31,28.787 C 47.839,29.467 48.709,30.056 48.709,31.072 C 48.709,32.286 47.582,32.769 46.352,32.754 C 45.109,32.754 44.098,32.292 43,31.224 V 33.167 C 43.611,33.707 44.682,34 45.884,34 C 47.225,34 50,33.49 50,30.534 C 49.993,28.764 48.591,27.988 47.077,27.308 C 45.228,26.343 44.712,26.104 44.733,25.008 C 44.733,23.538 45.643,23 46.589,23 C 47.866,23 48.049,23.744 49,24.476 V 22.416 C 48.23,22.13 47.782,22 46.906,22 C 45.156,22 43.682,22.855 43.164,24.275 L 40.761,29.866 L 37.955,22.416 A 16.178,16.178 0 0,0 37.115,22.201 C 36.572,22.076 35.72,22.01 35.241,22.017 C 35.317,22.017 35.171,22.01 35.241,22.017 C 33.212,22.017 31.098,23.225 31.098,25.346 C 31.098,25.47 31.105,25.595 31.112,25.704 C 30.393,23.158 28.714,22 26.678,22 H 26.621 C 26.391,22.008 26.169,22 25.954,22 H 20 C 20,20.689 20.466,20 21.48,20 C 22.752,20 22.898,20.461 23.447,20.995 H 23.504 S 23.501,20.925 23.507,20.816 V 19.352 C 23.139,19.176 22.417,19 21.265,19 Z M 6,19 V 34 H 8 V 19 H 6 Z M 13.942,22 C 12.087,22 11.618,22.775 11,23.477 C 11.021,23.419 10.972,23.507 11,23.477 V 22 H 9 V 34 H 11 V 25.38 C 11,24.361 12.034,23.328 13.09,23.328 C 14.362,23.328 15,24.288 15,25.532 V 34.018 H 17 V 24.8 C 17,23.74 15.721,22 13.942,22 Z M 26.452,23.235 C 28.518,23.235 29.482,25.262 29.522,27.902 C 29.565,30.586 28.367,32.727 26.449,32.763 C 24.566,32.741 23.437,30.672 23.389,28.024 C 23.346,25.347 24.453,23.235 26.453,23.235 Z" fill="rgb(254, 254, 253)"/>
</svg>
