<?xml version="1.0" encoding="UTF-8"?>
<!-- generated by Finnhub -->
<svg viewBox="0 0 55.5 55.5" xmlns="http://www.w3.org/2000/svg">
<path d="M 0,0 H 55.5 V 55.5 H 0 Z" fill="rgb(254, 101, 2)"/>
<path d="M 45.921,26.905 C 46.079,27.265 46.214,27.624 46.335,27.998 C 46.983,30.01 47.213,32.374 46.775,34.486 C 46.682,34.936 46.559,35.371 46.404,35.792 C 46.195,36.472 45.872,37.039 45.464,37.647 A 9.339,9.339 0 0,1 43.79,39.513 A 5.713,5.713 0 0,1 39.484,40.561 C 39.19,40.849 38.816,40.895 38.442,40.941 A 7.07,7.07 0 0,0 38.183,40.977 H 34.078 C 34.048,40.819 34.094,40.71 34.141,40.598 A 0.714,0.714 0 0,0 34.217,40.258 C 34.27,39.952 34.354,39.574 34.672,39.483 A 0.127,0.127 0 0,1 34.68,39.474 C 34.688,39.467 34.694,39.461 34.69,39.452 C 34.792,39.739 34.92,40.049 35.074,40.331 C 35.282,40.208 35.397,39.97 35.42,39.727 C 35.378,39.458 35.196,39.245 35.004,39.043 L 34.947,39.025 C 35.044,38.95 35.107,38.845 35.17,38.736 C 35.216,38.659 35.261,38.581 35.321,38.512 L 35.392,38.595 C 35.527,38.755 35.686,38.944 35.892,38.867 L 35.905,38.861 C 35.985,38.825 36.093,38.775 36.098,38.659 C 36.088,38.644 36.085,38.624 36.081,38.605 C 36.075,38.572 36.07,38.539 36.029,38.531 C 35.916,38.455 35.807,38.338 35.696,38.218 C 35.426,37.926 35.145,37.624 34.769,37.896 C 34.28,38.464 33.865,39.086 33.762,39.83 L 33.663,40.978 A 2.295,2.295 0 0,0 33.371,40.988 A 1.393,1.393 0 0,1 32.933,40.978 C 32.963,40.732 32.949,40.486 32.934,40.24 C 32.916,39.943 32.898,39.645 32.962,39.348 C 33.05,39.316 33.126,39.388 33.202,39.46 C 33.24,39.496 33.279,39.532 33.319,39.557 C 33.336,39.592 33.389,39.592 33.406,39.557 A 0.62,0.62 0 0,1 33.496,39.381 C 33.569,39.271 33.642,39.159 33.556,39.026 C 33.506,38.896 33.391,38.786 33.281,38.682 C 33.246,38.65 33.212,38.618 33.181,38.586 C 33.21,38.439 33.293,38.312 33.377,38.186 A 2.87,2.87 0 0,0 33.475,38.031 C 33.504,38.035 33.508,38.051 33.512,38.07 A 0.094,0.094 0 0,0 33.526,38.104 A 0.38,0.38 0 0,0 33.872,38.22 C 33.884,38.215 33.901,38.213 33.919,38.21 C 33.98,38.2 34.056,38.188 33.999,38.104 A 0.422,0.422 0 0,0 33.955,37.989 C 33.919,37.916 33.885,37.844 33.941,37.781 C 34.025,37.749 34.121,37.777 34.216,37.805 C 34.356,37.846 34.494,37.886 34.584,37.733 A 0.621,0.621 0 0,0 34.621,37.653 C 34.258,37.422 33.889,37.19 33.406,37.329 C 33.231,37.304 33.146,37.425 33.059,37.549 C 33.012,37.617 32.963,37.686 32.899,37.733 A 0.47,0.47 0 0,1 32.836,37.769 C 32.566,37.719 32.288,37.762 32.02,37.802 C 31.855,37.827 31.694,37.852 31.541,37.854 L 30.804,39.044 C 30.809,39.147 30.808,39.259 30.807,39.374 C 30.804,39.69 30.801,40.032 30.919,40.301 C 31.063,40.532 31.184,40.727 31.288,40.978 H 23.402 C 23.517,40.71 23.742,40.435 23.925,40.228 C 23.94,40.283 23.991,40.303 24.042,40.322 A 0.323,0.323 0 0,1 24.122,40.362 L 24.674,40.478 L 24.764,40.445 C 24.927,40.384 25.094,40.322 25.226,40.197 A 5.229,5.229 0 0,0 24.736,39.963 A 4.717,4.717 0 0,1 24.202,39.703 C 24.209,39.613 24.222,39.519 24.234,39.421 C 24.285,39.023 24.344,38.578 24.052,38.293 C 23.904,38.173 23.719,38.141 23.535,38.108 C 23.477,38.098 23.418,38.088 23.361,38.074 C 23.09,38.172 22.785,38.306 22.641,38.604 C 22.428,38.373 22.191,38.159 21.911,38.074 C 21.919,37.964 21.939,37.85 21.961,37.734 L 21.97,37.687 C 21.988,37.592 22.006,37.497 22.02,37.403 C 22.355,37.199 22.739,37.331 23.098,37.453 C 23.202,37.489 23.304,37.523 23.402,37.55 C 23.442,37.55 23.48,37.56 23.517,37.57 C 23.571,37.584 23.624,37.598 23.678,37.581 C 23.693,37.54 23.666,37.52 23.636,37.498 C 23.609,37.478 23.58,37.457 23.58,37.416 C 23.177,36.776 22.47,36.702 21.756,36.8 C 21.625,36.813 21.55,36.945 21.482,37.064 C 21.392,37.222 21.314,37.358 21.133,37.166 C 21,37.128 20.875,37.173 20.747,37.218 A 0.912,0.912 0 0,1 20.442,37.288 L 19.976,37.478 C 19.926,37.562 19.878,37.648 19.83,37.735 C 19.594,38.168 19.383,38.615 19.176,39.057 C 19.183,39.185 19.173,39.323 19.163,39.461 C 19.141,39.759 19.119,40.065 19.268,40.302 C 19.372,40.528 19.511,40.791 19.66,40.979 H 9.488 C 9.131,40.472 8.913,39.787 9.034,39.128 C 9.119,38.835 9.258,38.542 9.517,38.353 C 9.507,38.143 9.539,37.951 9.607,37.773 C 9.707,37.519 9.883,37.301 10.109,37.12 C 10.426,36.895 10.841,36.822 11.245,36.901 C 11.698,36.395 12.418,36.255 13.041,36.474 C 13.191,36.541 13.333,36.614 13.466,36.713 C 13.655,36.321 13.762,35.893 13.869,35.465 C 13.948,35.148 14.027,34.831 14.139,34.528 C 14.172,34.443 14.206,34.36 14.243,34.278 C 14.348,34.046 14.439,33.801 14.531,33.555 C 14.671,33.179 14.811,32.799 15.004,32.457 C 14.537,31.097 14.129,29.67 13.871,28.224 A 0.449,0.449 0 0,1 13.987,27.997 A 1.07,1.07 0 0,1 14.163,27.845 A 6.63,6.63 0 0,0 14.45,26.949 C 14.38,26.959 14.311,26.997 14.24,27.037 C 14.179,27.072 14.116,27.108 14.048,27.126 C 14.02,27.173 13.986,27.216 13.953,27.261 A 0.75,0.75 0 0,0 13.803,27.522 C 13.744,27.502 13.723,27.396 13.704,27.301 C 13.7,27.28 13.696,27.259 13.691,27.241 A 1.67,1.67 0 0,0 13.651,26.829 C 13.601,26.553 13.551,26.277 13.772,26.07 L 14.106,25.778 C 14.111,25.543 14.135,25.313 14.159,25.084 L 14.175,24.93 H 14.117 C 14.067,24.98 14.007,25.028 13.945,25.077 C 13.792,25.199 13.631,25.327 13.593,25.515 H 13.565 L 13.553,24.271 C 13.597,24.234 13.648,24.2 13.701,24.164 C 13.778,24.112 13.858,24.058 13.927,23.99 C 13.875,22.599 13.967,21.239 14.324,20.013 C 14.397,19.813 14.521,19.641 14.644,19.47 C 14.707,19.384 14.769,19.298 14.824,19.208 C 14.829,19.122 14.831,19.035 14.834,18.948 C 14.842,18.684 14.849,18.422 14.905,18.183 C 15.013,18.115 15.115,18.021 15.217,17.927 C 15.317,17.834 15.419,17.74 15.527,17.671 C 15.455,17.607 15.344,17.594 15.237,17.581 C 15.2,17.577 15.164,17.573 15.13,17.566 C 15.32,17.018 15.723,16.559 16.12,16.146 L 16.178,16.097 C 16.336,15.967 16.492,15.837 16.672,15.767 C 16.728,15.761 16.761,15.797 16.795,15.835 L 16.811,15.852 C 16.972,15.869 17.128,15.906 17.282,15.944 C 17.512,16 17.74,16.055 17.984,16.04 C 17.852,15.815 17.621,15.59 17.351,15.59 L 17.401,15.56 C 17.765,15.394 18.015,15.284 18.407,15.205 C 18.439,15.397 18.558,15.553 18.677,15.708 C 18.769,15.828 18.861,15.948 18.911,16.084 L 19.148,16.291 A 3.007,3.007 0 0,1 19.142,15.95 C 19.148,15.618 19.154,15.27 18.878,15.058 C 18.861,14.979 18.948,14.998 18.988,15.016 C 19.425,15.205 19.856,15.455 20.265,15.706 C 20.32,15.676 20.376,15.648 20.433,15.618 C 20.633,15.514 20.838,15.408 21.04,15.328 A 5.65,5.65 0 0,1 20.939,15.719 C 20.859,16.005 20.773,16.307 20.776,16.626 C 20.886,16.542 20.976,16.415 21.069,16.284 C 21.131,16.196 21.194,16.107 21.265,16.028 C 21.255,15.85 21.35,15.698 21.443,15.551 C 21.497,15.467 21.549,15.383 21.581,15.297 C 21.887,15.205 22.382,15.144 22.681,15.297 C 22.401,15.345 22.411,15.568 22.421,15.772 L 22.424,15.84 L 22.452,15.863 C 22.688,15.808 23.02,15.712 23.204,15.516 C 23.522,15.571 23.73,15.62 23.984,15.821 A 5.468,5.468 0 0,1 23.882,15.871 C 23.684,15.966 23.465,16.071 23.333,16.279 A 8.932,8.932 0 0,0 24.409,16.187 L 24.565,16.084 C 25.386,16.627 25.703,17.537 26.005,18.404 L 26.097,18.664 A 0.691,0.691 0 0,1 25.93,18.598 C 25.861,18.563 25.79,18.528 25.71,18.518 L 25.727,18.597 C 25.76,18.767 25.8,18.977 25.998,19.03 C 26.203,19.052 26.292,19.205 26.385,19.364 C 26.42,19.424 26.456,19.486 26.499,19.542 C 26.635,19.684 26.793,19.809 26.949,19.933 C 27.258,20.176 27.565,20.42 27.714,20.799 C 27.99,21.282 28.097,21.841 28.204,22.399 C 28.267,22.735 28.332,23.073 28.434,23.392 C 28.354,23.279 28.22,23.244 28.084,23.207 C 27.955,23.173 27.823,23.138 27.726,23.037 C 27.759,23.3 27.903,23.587 28.128,23.746 C 28.262,23.822 28.402,23.88 28.544,23.938 C 28.609,23.965 28.674,23.992 28.739,24.021 C 28.963,24.435 29.049,24.905 29.124,25.381 A 2.356,2.356 0 0,0 28.613,25.118 L 28.583,25.148 C 28.607,25.544 28.871,25.881 29.193,26.058 C 29.199,26.242 29.207,26.415 29.215,26.587 C 29.221,26.727 29.228,26.867 29.233,27.009 C 29.793,27.486 30.531,27.901 31.261,27.997 C 31.4,28.016 31.543,28.023 31.691,28.016 C 31.779,28.016 31.867,27.997 31.954,27.979 C 32.018,27.965 32.081,27.952 32.144,27.946 A 3.463,3.463 0 0,0 33.802,27.378 C 33.756,26.945 33.888,26.549 34.205,26.256 C 34.648,25.738 35.374,25.767 35.961,25.932 C 36.919,26.31 37.666,27.069 38.267,27.946 C 38.771,28.682 39.171,29.501 39.507,30.253 C 40.033,31.561 40.317,32.923 40.377,34.437 L 40.379,34.491 L 40.383,34.571 A 13.624,13.624 0 0,1 40.059,38.166 C 40.042,38.261 40.114,38.292 40.18,38.322 A 0.4,0.4 0 0,1 40.244,38.355 C 41.342,38.675 42.407,38.361 43.271,37.648 C 43.545,37.423 43.798,37.158 44.026,36.861 C 44.63,36.16 45.006,35.349 45.348,34.488 C 45.991,32.42 45.869,29.98 45.228,27.997 C 45.193,27.89 45.158,27.785 45.12,27.68 C 44.354,25.509 42.593,23.22 40.53,22.22 C 40.132,22.147 39.751,22.208 39.367,22.269 C 38.942,22.337 38.514,22.405 38.057,22.293 C 37.452,22.103 36.86,21.785 36.428,21.248 L 36.444,21.194 C 36.784,21.238 37.106,21.321 37.412,21.457 C 37.418,21.372 37.377,21.297 37.334,21.221 C 37.301,21.159 37.266,21.097 37.256,21.029 A 5.934,5.934 0 0,1 38.35,20.828 C 38.223,20.535 37.97,20.515 37.718,20.495 C 37.56,20.482 37.402,20.469 37.274,20.39 A 1.084,1.084 0 0,1 37.167,20.377 C 37.078,20.364 36.988,20.35 36.911,20.39 C 36.921,20.445 36.941,20.497 36.96,20.549 C 36.991,20.637 37.023,20.725 37.02,20.828 C 36.914,20.857 36.811,20.82 36.706,20.782 C 36.633,20.756 36.56,20.729 36.485,20.724 A 0.55,0.55 0 0,1 36.355,20.716 C 36.265,20.702 36.173,20.689 36.111,20.768 A 3.793,3.793 0 0,1 35.796,20.218 C 35.6,19.828 35.401,19.43 34.977,19.23 L 34.995,19.17 C 35.293,19.09 35.585,18.986 35.877,18.882 C 36.595,18.626 37.317,18.369 38.143,18.468 L 38.187,18.478 C 38.3,18.504 38.415,18.53 38.517,18.584 L 38.212,18.876 C 38.488,19.151 38.805,19.377 39.208,19.365 L 39.231,19.334 C 39.205,19.146 39.113,18.986 39.021,18.826 L 38.983,18.761 C 39.286,18.815 39.527,19.062 39.762,19.303 C 39.821,19.364 39.88,19.425 39.939,19.481 C 40.479,20.493 41.359,21.472 42.318,22.105 C 44.018,23.229 45.12,25.144 45.931,26.919 Z M 19.918,39.32 C 19.981,39.277 20.054,39.244 20.129,39.21 C 20.321,39.122 20.519,39.032 20.556,38.777 L 20.493,38.724 A 0.529,0.529 0 0,0 20.28,38.588 L 20.044,38.66 C 20.055,38.563 20.093,38.457 20.13,38.35 C 20.149,38.297 20.168,38.244 20.183,38.191 L 20.943,37.929 C 20.838,38.295 20.798,38.752 20.763,39.173 C 20.833,39.796 20.919,40.461 21.218,40.979 H 20.4 C 20.365,40.756 20.257,40.557 20.15,40.357 C 19.98,40.044 19.811,39.73 19.918,39.32 Z M 21.685,38.588 H 21.73 L 22.282,39.118 L 22.362,39.1 A 29.639,29.639 0 0,0 22.282,40.98 H 21.684 A 16.61,16.61 0 0,0 21.587,40.54 C 21.479,40.07 21.367,39.584 21.384,39.089 C 21.422,39.029 21.454,38.964 21.487,38.899 C 21.545,38.784 21.603,38.669 21.685,38.588 Z M 23.002,39.023 C 22.975,39.077 22.948,39.13 22.916,39.174 L 22.709,40.98 H 23.291 C 23.417,40.595 23.556,40.169 23.637,39.76 C 23.652,39.705 23.673,39.646 23.694,39.585 C 23.774,39.353 23.865,39.094 23.706,38.882 C 23.59,38.765 23.446,38.74 23.29,38.736 C 23.135,38.756 23.067,38.892 23.002,39.023 Z M 31.649,38.984 C 31.697,39.05 31.733,39.124 31.769,39.199 C 31.828,39.321 31.888,39.445 32.006,39.539 C 32.173,39.296 32.213,38.917 32.132,38.606 L 31.966,38.429 A 4.04,4.04 0 0,1 32.353,38.358 C 32.442,38.344 32.53,38.331 32.616,38.314 C 32.59,38.405 32.558,38.494 32.525,38.584 C 32.442,38.81 32.359,39.037 32.38,39.308 C 32.384,39.668 32.422,40.028 32.461,40.394 C 32.481,40.587 32.502,40.782 32.518,40.979 H 31.885 L 31.859,40.919 C 31.638,40.403 31.425,39.907 31.441,39.308 C 31.464,39.273 31.483,39.236 31.503,39.198 A 0.774,0.774 0 0,1 31.649,38.984 Z M 23.914,21.898 C 24.052,21.868 24.219,21.831 24.329,21.678 C 24.362,21.778 24.336,21.89 24.306,21.995 A 2.202,2.202 0 0,0 24.272,22.105 C 24.342,22.474 24.097,22.757 23.876,23.012 C 23.842,23.052 23.808,23.09 23.776,23.129 C 23.666,23.569 23.339,24.075 22.878,24.154 A 0.312,0.312 0 0,0 22.918,24.344 C 23.868,24.355 24.737,24.654 25.531,25.105 L 25.543,25.544 A 5.44,5.44 0 0,0 23.005,24.721 C 23,24.87 22.975,25.006 22.95,25.143 L 22.935,25.222 C 23.707,25.569 24.449,26.014 25.117,26.642 L 25.09,27.156 L 25.008,27.083 C 24.329,26.476 23.618,25.839 22.797,25.543 V 25.545 C 22.682,25.722 22.557,25.917 22.395,26.087 C 21.917,25.764 21.433,25.466 20.886,25.324 C 20.684,25.372 20.646,25.186 20.614,25.032 A 1.85,1.85 0 0,0 20.598,24.959 L 20.559,24.605 C 20.875,24.507 21.031,24.172 21.122,23.873 L 21.147,23.884 C 21.257,23.938 21.39,24.003 21.508,23.934 C 21.608,23.864 21.618,23.757 21.628,23.649 L 21.636,23.581 C 21.532,23.205 21.146,23.164 20.818,23.13 C 20.762,23.124 20.708,23.118 20.656,23.11 C 20.184,23.074 19.7,23.087 19.326,23.331 C 19.236,23.402 19.252,23.53 19.266,23.64 C 19.27,23.67 19.274,23.7 19.275,23.726 C 19.315,23.824 19.402,23.849 19.493,23.873 A 0.722,0.722 0 0,0 19.798,23.789 A 0.85,0.85 0 0,0 20.224,24.575 C 20.245,24.57 20.258,24.583 20.269,24.595 A 0.12,0.12 0 0,0 20.281,24.605 L 20.184,25.161 C 20.101,25.323 19.944,25.343 19.785,25.362 A 0.703,0.703 0 0,0 19.493,25.442 A 3.77,3.77 0 0,0 18.359,25.966 C 18.162,25.851 18.006,25.656 17.857,25.471 L 17.834,25.441 C 17.254,25.667 16.724,26.015 16.218,26.424 L 15.693,26.874 A 1.149,1.149 0 0,1 15.665,26.511 A 2.532,2.532 0 0,0 15.665,26.308 C 16.085,25.863 16.588,25.624 17.091,25.385 C 17.291,25.29 17.49,25.195 17.684,25.088 L 17.656,24.562 C 17.472,24.508 17.263,24.532 17.062,24.554 C 16.992,24.562 16.922,24.57 16.855,24.574 C 16.251,24.691 15.705,24.953 15.198,25.307 C 15.202,25.257 15.2,25.2 15.198,25.142 C 15.191,24.986 15.184,24.823 15.318,24.752 C 16.038,24.319 16.838,24.082 17.737,24.112 A 0.3,0.3 0 0,0 17.707,23.892 C 17.686,23.85 17.676,23.8 17.666,23.75 C 17.646,23.656 17.628,23.562 17.529,23.526 A 2.732,2.732 0 0,1 16.771,21.996 L 16.77,21.993 V 21.99 L 16.774,21.993 L 16.776,21.995 H 16.778 C 16.813,22.018 16.858,22.015 16.902,22.014 A 0.85,0.85 0 0,1 16.937,22.013 S 16.956,21.997 16.956,21.995 C 16.956,21.997 16.965,21.988 16.965,21.988 A 3.797,3.797 0 0,1 16.965,20.056 C 16.615,19.896 16.2,19.585 16.067,19.189 C 15.917,18.925 15.791,18.652 15.75,18.341 C 15.884,17.963 16.08,17.615 16.286,17.273 C 16.356,17.229 16.433,17.205 16.51,17.18 C 16.561,17.164 16.612,17.148 16.66,17.127 L 16.774,17.047 C 17.018,16.87 17.28,16.681 17.598,16.834 C 17.708,16.859 17.814,16.898 17.92,16.937 C 18.046,16.984 18.172,17.03 18.306,17.054 C 18.306,17.188 18.334,17.341 18.466,17.39 C 18.712,17.434 18.817,17.654 18.922,17.875 C 18.977,17.99 19.032,18.105 19.107,18.195 C 19.199,18.27 19.325,18.268 19.457,18.267 C 19.537,18.265 19.62,18.264 19.699,18.281 C 19.766,18.301 19.834,18.319 19.902,18.336 C 20.118,18.392 20.332,18.447 20.517,18.592 C 20.971,18.25 21.587,18.182 22.157,18.268 C 22.203,18.068 22.274,17.873 22.343,17.688 L 22.393,17.548 C 22.468,17.551 22.483,17.504 22.497,17.454 C 22.511,17.408 22.525,17.359 22.588,17.347 L 22.719,17.255 C 22.989,17.062 23.282,16.851 23.649,16.982 C 23.763,17.038 23.891,17.07 24.019,17.101 C 24.249,17.158 24.481,17.216 24.633,17.421 L 24.616,17.433 C 24.803,17.612 24.898,17.841 24.993,18.071 C 25.05,18.209 25.108,18.347 25.185,18.476 C 25.131,18.628 25.115,18.799 25.1,18.97 C 25.071,19.283 25.043,19.596 24.771,19.793 L 24.455,20.086 L 24.466,20.099 C 24.386,20.147 24.298,20.174 24.212,20.201 A 2.116,2.116 0 0,0 24.082,20.245 C 24.272,20.775 24.156,21.429 23.914,21.898 Z M 14.991,20.568 L 15.446,20.288 V 19.574 C 15.321,19.654 15.233,19.771 15.146,19.888 C 15.1,19.949 15.054,20.011 15.002,20.068 L 14.992,20.568 Z M 15.101,23.57 L 14.767,22.472 C 14.778,22.136 14.893,21.855 15.031,21.575 L 15.555,21.404 L 15.308,21.794 C 15.34,22.138 15.274,22.447 15.208,22.758 C 15.153,23.021 15.098,23.285 15.1,23.57 Z M 34.343,27.427 A 0.833,0.833 0 0,0 34.373,27.264 A 1.34,1.34 0 0,1 34.758,26.812 C 34.8,26.809 34.846,26.801 34.896,26.792 C 35.046,26.764 35.218,26.732 35.34,26.842 C 35.371,27.131 35.575,27.125 35.785,27.119 A 0.932,0.932 0 0,1 36.053,27.136 C 36.131,27.244 36.191,27.366 36.252,27.489 C 36.294,27.576 36.337,27.663 36.387,27.746 C 36.307,27.726 36.227,27.704 36.147,27.682 C 35.745,27.572 35.335,27.461 34.908,27.502 C 34.85,27.525 34.786,27.54 34.723,27.556 C 34.587,27.588 34.45,27.622 34.355,27.734 C 34.29,27.644 34.317,27.535 34.344,27.426 Z M 18.871,27.419 L 19.216,27.066 C 19.246,27.066 19.269,27.072 19.286,27.096 L 19.257,27.773 C 19.424,27.937 19.63,27.991 19.849,28.005 C 19.861,27.884 19.922,27.786 19.985,27.689 C 20.017,27.639 20.049,27.589 20.074,27.535 A 0.573,0.573 0 0,0 20.116,27.37 C 20.131,27.276 20.146,27.183 20.223,27.127 L 20.264,27.169 C 20.276,27.233 20.284,27.299 20.291,27.365 C 20.307,27.509 20.323,27.652 20.391,27.773 L 20.421,28.016 L 20.43,28.078 C 20.683,28.09 20.914,28.017 21.11,27.918 A 1.505,1.505 0 0,1 21.164,27.491 C 21.18,27.423 21.195,27.356 21.206,27.286 C 21.228,27.256 21.222,27.216 21.216,27.18 C 21.208,27.127 21.201,27.08 21.287,27.084 C 21.325,27.169 21.377,27.257 21.43,27.345 C 21.489,27.445 21.55,27.547 21.593,27.651 C 21.926,27.291 22.066,26.822 22.145,26.333 C 22.085,26.249 22.008,26.216 21.93,26.183 A 0.629,0.629 0 0,1 21.782,26.102 C 20.803,25.767 19.549,25.7 18.605,26.218 C 18.542,26.631 18.622,27.088 18.871,27.419 Z M 9.74,40.1 C 9.714,39.687 9.689,39.29 9.72,38.868 L 10.353,38.115 C 10.716,38.359 10.815,38.83 10.746,39.232 A 2.709,2.709 0 0,0 10.286,39.012 C 10.146,39.235 10.171,39.492 10.196,39.756 C 10.214,39.927 10.231,40.101 10.204,40.271 L 10.176,40.583 C 10.009,40.572 9.841,40.395 9.749,40.243 L 9.739,40.1 Z M 11.142,38.208 C 10.918,38.922 10.751,39.801 11.022,40.554 L 11.088,40.507 C 11.222,40.412 11.358,40.317 11.476,40.187 L 11.466,40.009 C 11.436,39.489 11.406,38.953 11.695,38.524 C 11.976,38.616 12.167,38.904 12.275,39.183 C 12.467,38.927 12.529,38.573 12.455,38.233 C 12.463,38.055 12.34,38.021 12.215,37.988 C 12.152,37.97 12.087,37.953 12.04,37.915 C 12.049,37.873 12.055,37.83 12.062,37.787 C 12.092,37.597 12.122,37.404 12.305,37.299 L 11.615,37.372 L 11.532,37.495 C 11.379,37.722 11.226,37.949 11.142,38.208 Z M 12.58,40.392 C 12.578,40.365 12.575,40.337 12.564,40.316 C 12.587,39.486 12.644,38.714 12.994,38.032 A 1.54,1.54 0 0,1 14.042,37.476 L 14.388,37.604 L 14.14,37.941 C 14.418,38.111 14.843,38.38 14.79,38.795 L 14.751,39.142 L 14.725,39.186 C 14.511,39.56 14.308,39.914 14.015,40.243 H 13.975 C 13.957,39.977 14.008,39.745 14.06,39.507 C 14.091,39.361 14.124,39.214 14.14,39.057 C 14.143,39.034 14.16,39.012 14.175,38.992 C 14.201,38.958 14.225,38.926 14.182,38.892 A 0.833,0.833 0 0,1 13.897,38.797 C 13.797,38.75 13.696,38.702 13.577,38.702 C 13.475,38.773 13.437,38.882 13.4,38.989 C 13.376,39.057 13.353,39.125 13.313,39.183 C 13.233,39.353 13.126,39.507 13.021,39.659 C 12.847,39.911 12.676,40.161 12.622,40.481 C 12.587,40.473 12.583,40.434 12.58,40.392 Z M 14.113,36.695 C 14.176,36.715 14.235,36.7 14.295,36.685 C 14.362,36.668 14.428,36.651 14.498,36.683 L 14.515,36.689 C 15.04,36.895 15.585,37.109 15.978,37.573 L 16.45,38.848 L 16.686,38.06 L 16.531,37.635 C 16.412,37.363 16.111,37.353 15.871,37.345 C 15.843,37.345 15.815,37.343 15.788,37.342 C 15.708,37.248 15.754,37.145 15.795,37.049 C 15.808,37.019 15.82,36.991 15.828,36.964 C 15.911,36.666 15.7,36.584 15.495,36.504 A 0.843,0.843 0 0,1 15.247,36.378 C 15.256,36.18 15.087,36.184 14.931,36.187 A 0.916,0.916 0 0,1 14.791,36.183 L 14.735,36.11 C 14.7,36.054 14.615,36.054 14.567,36.097 C 14.565,36.092 14.561,36.087 14.557,36.084 C 14.547,36.071 14.537,36.059 14.545,36.037 L 14.419,36.067 A 0.876,0.876 0 0,0 14.113,36.695 Z M 14.567,35.499 A 0.404,0.404 0 0,1 14.447,35.292 C 14.54,35.222 14.604,35.112 14.667,35.002 C 14.774,34.817 14.877,34.637 15.122,34.677 C 15.329,34.724 15.524,34.779 15.703,34.883 C 15.873,34.923 15.983,35.051 16.096,35.182 C 16.156,35.25 16.215,35.319 16.284,35.377 C 16.41,35.501 16.551,35.589 16.691,35.677 C 16.827,35.761 16.962,35.846 17.083,35.963 A 0.385,0.385 0 0,0 17.292,36.316 C 17.56,36.334 17.587,36.558 17.614,36.778 C 17.625,36.87 17.636,36.961 17.664,37.036 L 17.251,37.621 C 17.183,37.518 17.162,37.395 17.141,37.271 C 17.113,37.102 17.084,36.933 16.935,36.816 A 0.567,0.567 0 0,1 17.01,36.69 C 17.068,36.61 17.126,36.53 17.083,36.42 C 17.028,36.322 16.944,36.299 16.86,36.275 C 16.839,36.269 16.817,36.263 16.796,36.255 L 16.629,36.285 C 16.169,36.093 15.771,35.723 15.389,35.367 L 15.373,35.353 C 15.156,35.268 14.965,35.346 14.777,35.423 C 14.707,35.451 14.637,35.48 14.567,35.499 Z M 15,34.09 L 15.068,34.208 C 15.2,34.198 15.326,34.166 15.45,34.134 C 15.598,34.095 15.744,34.057 15.897,34.06 C 15.998,34.126 16.117,34.154 16.235,34.182 C 16.337,34.207 16.439,34.232 16.53,34.28 L 16.557,34.319 C 16.705,34.535 16.866,34.769 17.082,34.914 C 17.549,34.987 17.807,35.519 17.968,35.908 V 35.72 C 18.037,35.457 17.962,35.151 17.872,34.914 C 17.807,34.846 17.727,34.791 17.647,34.737 A 1.606,1.606 0 0,1 17.468,34.604 C 17.447,34.531 17.459,34.494 17.479,34.432 L 17.485,34.414 C 17.369,34.283 17.215,34.19 17.063,34.098 C 16.981,34.048 16.899,33.999 16.823,33.944 C 16.61,33.615 16.26,33.58 15.909,33.544 C 15.757,33.528 15.606,33.513 15.465,33.474 L 15,34.09 Z M 15.139,30.245 A 7.56,7.56 0 0,0 14.99,29.615 C 15.024,29.478 15.143,29.367 15.255,29.265 C 15.291,29.231 15.327,29.198 15.358,29.165 V 29.177 C 15.536,29.213 15.737,29.269 15.898,29.385 C 15.806,29.487 15.709,29.575 15.615,29.659 C 15.425,29.831 15.246,29.991 15.139,30.244 Z M 16.035,31.623 L 16.293,31.343 C 16.553,31.061 16.767,30.737 16.806,30.378 C 16.622,30.263 16.38,30.342 16.202,30.409 C 16.186,30.514 16.167,30.618 16.147,30.723 C 16.094,31.013 16.039,31.308 16.035,31.623 Z M 16.421,32.499 C 16.356,32.493 16.291,32.487 16.225,32.484 C 16.71,32.233 17.135,31.738 17.348,31.239 C 17.413,31.213 17.481,31.227 17.549,31.241 C 17.584,31.248 17.619,31.255 17.654,31.257 L 17.331,32.354 C 17.061,32.554 16.748,32.526 16.421,32.499 Z M 16.343,28.591 C 16.602,28.994 17.034,29.444 17.476,29.573 C 17.443,29.242 17.259,28.977 17.074,28.713 C 16.974,28.568 16.873,28.423 16.797,28.268 L 16.786,28.122 A 2.104,2.104 0 0,0 16.244,27.743 C 16.222,27.983 16.268,28.214 16.314,28.442 L 16.343,28.592 Z M 18.66,32.44 C 18.378,32.532 18.05,32.587 17.745,32.532 L 17.81,32.477 C 17.987,32.327 18.173,32.17 18.367,32.062 L 18.919,31.489 H 19.431 C 19.294,31.86 19.068,32.335 18.66,32.439 Z M 17.684,28.036 C 17.771,28.513 17.961,28.946 18.22,29.354 L 18.288,28.444 L 17.684,28.036 Z M 19.507,29.776 C 19.55,29.99 19.593,30.21 19.57,30.409 C 19.225,30.098 18.87,29.689 18.858,29.209 C 18.946,29.268 19.05,29.295 19.153,29.322 C 19.258,29.35 19.363,29.377 19.451,29.439 C 19.462,29.547 19.485,29.661 19.507,29.775 Z M 19.047,33.508 A 5.578,5.578 0 0,0 20.094,33.056 C 20.154,32.966 20.223,32.876 20.291,32.788 C 20.466,32.561 20.642,32.334 20.676,32.062 A 1.196,1.196 0 0,1 20.345,32.101 C 20.206,32.103 20.073,32.106 19.933,32.178 C 19.898,32.244 19.867,32.312 19.835,32.38 C 19.73,32.608 19.625,32.837 19.403,32.996 C 19.374,33.124 19.281,33.227 19.191,33.326 C 19.136,33.386 19.083,33.446 19.046,33.507 Z M 20.043,34.856 L 19.611,34.258 C 19.939,34.314 20.302,34.349 20.608,34.228 L 20.762,34.771 A 0.834,0.834 0 0,1 20.042,34.855 Z M 20.329,29.939 L 20.496,30.744 C 20.899,30.397 20.982,29.891 20.97,29.354 L 20.945,29.385 C 20.73,29.647 20.596,29.81 20.329,29.939 Z M 21.561,31.677 A 0.603,0.603 0 0,1 21.464,31.36 L 22.5,31.622 C 22.493,31.781 22.615,31.86 22.736,31.915 C 22.83,32.037 22.932,32.136 23.034,32.235 C 23.12,32.319 23.206,32.402 23.288,32.5 L 23.277,32.505 C 23.043,32.621 22.737,32.774 22.472,32.646 C 22.275,32.542 22.161,32.357 22.047,32.173 C 21.922,31.97 21.797,31.767 21.561,31.677 Z M 21.821,34.24 C 22.017,34.477 22.281,34.6 22.557,34.666 C 22.533,34.631 22.543,34.633 22.559,34.636 C 22.573,34.639 22.593,34.644 22.598,34.624 L 22.252,33.818 A 3.01,3.01 0 0,0 22.05,33.835 A 1.755,1.755 0 0,1 21.74,33.85 C 21.753,33.984 21.78,34.118 21.822,34.24 Z M 22.157,29.165 C 22.204,29.603 22.271,30.086 22.433,30.482 A 1.754,1.754 0 0,0 22.187,30.357 C 21.913,30.233 21.589,30.086 21.645,29.75 C 21.732,29.629 21.825,29.532 21.918,29.434 C 21.998,29.351 22.078,29.266 22.157,29.165 Z M 23.133,30.066 C 23.342,30.355 23.796,30.256 24.049,30.171 C 23.994,30.071 23.883,29.989 23.771,29.908 C 23.639,29.811 23.507,29.714 23.469,29.586 A 5.468,5.468 0 0,0 23.221,28.372 L 23.217,28.382 C 23.017,28.898 22.779,29.51 23.133,30.066 Z M 23.641,31.473 L 23.496,31.36 C 23.831,31.318 24.164,31.274 24.476,31.165 H 24.602 L 24.878,31.591 C 24.973,31.649 25.07,31.703 25.168,31.757 C 25.316,31.84 25.465,31.923 25.608,32.019 C 25.601,32.069 25.557,32.086 25.511,32.102 A 0.276,0.276 0 0,0 25.441,32.134 C 24.704,32.308 24.169,31.887 23.641,31.474 Z M 23.508,36.307 H 23.55 C 23.861,36.043 24.225,35.937 24.593,35.83 H 24.594 L 24.712,35.795 C 24.769,35.817 24.778,35.862 24.787,35.907 C 24.795,35.949 24.803,35.991 24.851,36.014 C 24.983,35.956 25.131,35.936 25.278,35.915 C 25.405,35.898 25.533,35.88 25.65,35.838 H 25.675 C 25.969,35.85 26.21,35.859 26.451,35.995 C 26.567,36.158 26.741,36.213 26.918,36.269 C 27.041,36.309 27.165,36.348 27.268,36.423 L 27.228,35.996 C 26.693,35.331 25.858,35.282 25.087,35.295 L 25.07,35.209 C 24.886,35.209 24.678,35.251 24.506,35.337 C 24.33,35.346 24.16,35.413 23.992,35.479 A 4.16,4.16 0 0,1 23.786,35.556 C 23.696,35.746 23.622,35.968 23.554,36.172 C 23.538,36.218 23.524,36.264 23.508,36.307 Z M 24.908,29.281 C 24.528,29.361 24.194,29.122 23.97,28.811 C 23.839,28.595 23.8,28.342 23.763,28.089 A 3.968,3.968 0 0,0 23.693,27.712 C 23.782,27.802 23.899,27.867 24.017,27.932 C 24.267,28.072 24.515,28.21 24.476,28.579 C 24.486,28.846 24.683,29.049 24.868,29.24 L 24.908,29.281 Z M 23.911,37.386 H 23.98 C 24.13,37.288 24.312,37.275 24.495,37.261 C 24.685,37.248 24.875,37.234 25.028,37.125 C 25.133,37.067 25.176,37.143 25.223,37.223 C 25.25,37.271 25.278,37.32 25.321,37.345 C 25.428,37.414 25.499,37.535 25.569,37.653 C 25.682,37.846 25.789,38.028 26.035,37.948 C 26.423,38.162 26.415,38.61 26.409,39.013 C 26.407,39.104 26.406,39.193 26.409,39.277 L 26.853,38.985 A 1.126,1.126 0 0,1 26.855,38.699 C 26.87,38.54 26.885,38.381 26.795,38.253 C 26.735,38.108 26.615,38.036 26.496,37.964 C 26.401,37.906 26.306,37.849 26.242,37.754 C 26.355,37.551 26.228,37.418 26.103,37.287 A 0.68,0.68 0 0,1 25.943,37.07 L 25.966,37.04 L 26.576,37.125 C 26.784,37.259 26.859,37.503 26.922,37.729 C 27.306,37.799 27.456,38.184 27.587,38.522 C 27.618,38.604 27.649,38.682 27.681,38.753 C 27.731,38.63 27.765,38.501 27.799,38.373 C 27.834,38.243 27.869,38.113 27.918,37.991 C 27.922,37.853 27.805,37.81 27.69,37.767 A 0.635,0.635 0 0,1 27.544,37.698 C 27.51,37.386 27.377,37.094 27.118,36.906 A 4.985,4.985 0 0,1 26.575,36.715 C 26.246,36.585 25.918,36.455 25.541,36.455 L 25.058,36.612 A 1.417,1.417 0 0,1 24.775,36.646 C 24.604,36.654 24.439,36.663 24.309,36.789 C 24.065,36.809 24.005,37.041 23.951,37.248 C 23.938,37.296 23.925,37.344 23.911,37.387 Z M 24.326,34.929 L 24.216,34.874 C 24.25,34.653 24.402,34.484 24.55,34.319 L 24.642,34.216 C 24.863,34.322 25.044,34.182 25.216,34.048 C 25.422,33.889 25.617,33.738 25.858,34.02 C 25.948,34.079 26.05,34.102 26.152,34.126 C 26.23,34.144 26.309,34.162 26.382,34.196 C 26.786,34.25 26.94,34.693 27.059,35.036 L 27.073,35.074 A 1.956,1.956 0 0,0 26.883,35.032 C 26.683,34.994 26.475,34.954 26.369,34.752 L 26.322,34.712 C 26.242,34.64 26.154,34.56 26.054,34.636 C 25.874,34.799 25.702,34.728 25.518,34.653 C 25.371,34.593 25.217,34.53 25.046,34.581 C 24.873,34.649 24.706,34.735 24.541,34.821 C 24.469,34.857 24.398,34.894 24.326,34.929 Z M 24.326,37.845 C 24.365,37.879 24.403,37.918 24.443,37.959 C 24.593,38.113 24.761,38.283 24.989,38.253 C 25.2,38.358 25.234,38.577 25.267,38.793 C 25.289,38.94 25.311,39.087 25.391,39.193 L 25.598,38.998 L 25.581,38.985 L 25.61,38.955 L 25.622,38.972 C 25.679,38.79 25.599,38.467 25.5,38.252 C 25.434,38.202 25.36,38.205 25.289,38.208 C 25.219,38.21 25.149,38.212 25.086,38.167 C 25.07,37.979 24.964,37.883 24.84,37.769 L 24.822,37.753 C 24.764,37.707 24.696,37.727 24.627,37.747 A 0.37,0.37 0 0,1 24.504,37.77 L 24.327,37.845 Z M 25.684,31.025 C 25.442,30.849 25.191,30.666 25.045,30.409 C 25.202,30.265 25.415,30.234 25.628,30.203 A 3.5,3.5 0 0,0 25.828,30.17 C 25.892,30.234 25.925,30.314 25.958,30.393 C 25.98,30.449 26.002,30.504 26.036,30.555 C 26.242,30.81 26.466,31.055 26.715,31.268 C 26.455,31.33 26.14,31.299 25.897,31.183 C 25.829,31.13 25.757,31.077 25.684,31.024 Z M 25.364,28.225 C 25.564,28.49 25.85,28.472 26.139,28.454 C 26.23,28.448 26.322,28.443 26.411,28.445 V 28.402 L 25.835,27.89 C 25.674,27.944 25.502,28.097 25.363,28.226 Z M 25.128,23.248 L 25.599,23.088 L 25.652,22.809 C 25.752,22.501 25.616,22.251 25.484,22.009 C 25.441,21.929 25.398,21.851 25.364,21.771 L 25.128,23.248 Z M 26.437,25.328 C 26.397,25.278 26.357,25.226 26.319,25.18 C 26.321,25.11 26.319,25.032 26.318,24.954 C 26.314,24.784 26.311,24.604 26.341,24.449 C 26.375,24.498 26.401,24.552 26.428,24.605 C 26.48,24.71 26.532,24.815 26.636,24.888 C 26.779,24.798 26.84,24.948 26.898,25.09 A 0.702,0.702 0 0,0 26.981,25.254 C 27.001,25.309 27.025,25.362 27.049,25.417 C 27.095,25.517 27.14,25.62 27.159,25.736 C 26.832,25.841 26.625,25.573 26.437,25.329 Z M 26.399,26.968 C 26.442,27.031 26.469,27.103 26.496,27.173 C 26.524,27.246 26.551,27.318 26.595,27.377 C 26.75,27.486 26.981,27.467 27.172,27.45 C 27.248,27.431 27.312,27.46 27.374,27.488 C 27.451,27.523 27.524,27.557 27.614,27.493 A 1.362,1.362 0 0,1 27.316,27.183 A 2.116,2.116 0 0,0 27.103,26.937 C 26.931,26.794 26.751,26.855 26.569,26.917 C 26.513,26.936 26.456,26.955 26.399,26.967 Z M 28.137,30.214 C 27.607,30.299 27.102,30.054 26.705,29.805 C 26.697,29.788 26.683,29.77 26.668,29.751 C 26.641,29.716 26.61,29.676 26.607,29.629 C 26.699,29.638 26.792,29.587 26.882,29.538 C 27.029,29.458 27.169,29.381 27.286,29.574 C 27.48,29.614 27.673,29.742 27.864,29.868 C 28.013,29.966 28.16,30.063 28.304,30.117 C 28.296,30.167 28.248,30.18 28.199,30.193 C 28.177,30.199 28.155,30.204 28.137,30.213 Z M 27.9,35.191 L 27.986,35.386 C 28.016,35.596 28.076,35.801 28.137,36.006 C 28.26,36.42 28.384,36.836 28.245,37.301 C 28.362,37.388 28.423,37.513 28.485,37.637 C 28.515,37.698 28.544,37.758 28.58,37.814 H 28.608 C 28.729,37.329 28.663,36.827 28.598,36.338 L 28.58,36.203 C 28.623,35.804 28.313,35.543 28.052,35.323 A 4.454,4.454 0 0,1 27.9,35.191 Z M 29.122,29.091 C 28.777,29.213 28.299,29.189 28,28.945 L 28.483,28.652 C 28.662,28.822 28.903,28.964 29.123,29.092 Z M 29.42,30.817 C 29.392,31.074 29.552,31.287 29.725,31.416 C 29.745,31.368 29.769,31.323 29.792,31.278 C 29.844,31.179 29.895,31.081 29.903,30.964 C 29.851,30.702 29.713,30.464 29.488,30.286 L 29.475,30.342 A 1.425,1.425 0 0,0 29.42,30.817 Z M 29.657,33.95 C 29.534,33.87 29.41,33.79 29.437,33.6 C 29.427,33.404 29.528,33.26 29.631,33.117 C 29.688,33.037 29.745,32.957 29.783,32.868 C 29.828,32.843 29.881,32.928 29.903,32.97 C 29.916,33.02 29.932,33.07 29.948,33.122 C 30.019,33.354 30.095,33.6 30.001,33.85 C 29.967,34.01 30.066,34.068 30.17,34.129 C 30.26,34.182 30.353,34.237 30.364,34.362 C 30.334,34.61 30.268,34.845 30.202,35.08 C 30.166,35.21 30.129,35.34 30.099,35.471 C 30.099,35.074 29.972,34.734 29.753,34.435 A 0.28,0.28 0 0,1 29.805,34.297 C 29.845,34.229 29.885,34.163 29.822,34.081 C 29.78,34.029 29.719,33.989 29.657,33.95 Z M 30.227,32.147 L 30.525,32.763 C 30.625,32.749 30.698,32.67 30.772,32.59 A 1.58,1.58 0 0,1 30.847,32.513 C 30.9,32.343 30.824,32.213 30.749,32.084 C 30.711,32.019 30.673,31.954 30.652,31.884 C 30.63,31.824 30.627,31.756 30.622,31.687 C 30.617,31.589 30.612,31.49 30.553,31.415 L 30.513,31.387 C 30.448,31.341 30.378,31.29 30.307,31.311 L 30.227,32.147 Z M 31.245,31.165 C 31.118,30.895 30.848,30.677 30.611,30.525 C 30.894,30.531 31.228,30.597 31.453,30.8 C 31.47,30.97 31.51,31.153 31.677,31.226 C 31.974,31.287 32.08,31.523 32.189,31.768 C 32.256,31.916 32.324,32.068 32.436,32.187 C 32.486,32.267 32.416,32.322 32.356,32.369 C 32.333,32.386 32.312,32.402 32.298,32.419 C 32.178,32.399 32.097,32.523 32.073,32.626 V 32.669 C 32.115,32.697 32.157,32.723 32.199,32.749 C 32.338,32.836 32.475,32.922 32.586,33.077 A 7.84,7.84 0 0,1 32.504,33.997 C 32.484,34.154 32.464,34.31 32.448,34.467 C 32.33,34.481 32.31,34.37 32.293,34.267 C 32.286,34.229 32.28,34.192 32.268,34.163 C 32.183,33.837 32.122,33.535 32.058,33.216 V 33.215 L 32.004,32.951 C 31.906,32.7 31.792,32.456 31.679,32.211 C 31.521,31.87 31.362,31.528 31.245,31.165 Z M 30.888,33.831 C 31.133,34.069 31.102,34.398 31.071,34.723 C 31.065,34.788 31.059,34.853 31.055,34.917 C 31.028,35.054 31.113,35.063 31.205,35.072 C 31.269,35.079 31.336,35.086 31.372,35.136 C 31.538,35.397 31.46,35.77 31.398,36.066 L 31.384,36.13 C 31.434,36.052 31.484,35.976 31.535,35.9 C 31.646,35.736 31.755,35.574 31.838,35.385 C 31.836,35.337 31.863,35.3 31.891,35.261 C 31.923,35.218 31.957,35.172 31.954,35.104 C 31.991,34.976 31.898,34.983 31.814,34.989 A 0.32,0.32 0 0,1 31.729,34.989 C 31.659,34.971 31.585,34.922 31.609,34.824 C 31.729,34.578 31.662,34.294 31.602,34.032 C 31.587,33.969 31.573,33.908 31.562,33.848 C 31.532,33.738 31.534,33.608 31.536,33.482 C 31.539,33.322 31.542,33.165 31.481,33.042 C 31.417,33.136 31.31,33.204 31.203,33.272 C 31,33.402 30.797,33.532 30.888,33.831 Z M 32.018,30.191 C 31.828,29.961 31.638,29.731 31.423,29.501 C 31.66,29.45 31.831,29.603 32.005,29.758 C 32.147,29.885 32.292,30.014 32.476,30.033 L 32.546,30.099 C 32.654,30.201 32.768,30.307 32.834,30.443 L 32.848,30.655 C 32.859,30.812 32.871,30.967 32.863,31.132 C 32.541,30.824 32.281,30.508 32.018,30.19 Z M 32.764,32.407 C 32.774,32.454 32.793,32.497 32.812,32.541 L 32.823,32.565 C 33.047,32.956 33.26,33.359 33.416,33.779 C 33.4,33.629 33.422,33.466 33.444,33.304 C 33.487,32.978 33.53,32.651 33.276,32.419 C 33.232,32.292 33.099,32.311 32.992,32.326 L 32.965,32.33 L 32.943,32.333 L 32.763,32.407 Z M 34.647,36.719 C 34.495,36.815 34.3,36.939 34.147,36.862 C 34.29,36.787 34.363,36.668 34.441,36.542 C 34.513,36.426 34.589,36.303 34.727,36.204 C 34.789,36.114 34.854,36.144 34.926,36.177 C 34.948,36.187 34.97,36.197 34.993,36.204 C 35.147,36.3 35.269,36.362 35.459,36.362 C 35.465,36.472 35.465,36.619 35.407,36.716 C 35.457,36.784 35.538,36.797 35.621,36.811 C 35.681,36.821 35.741,36.831 35.792,36.862 C 35.977,37.009 36.172,37.199 36.149,37.461 L 36.052,37.564 A 3.392,3.392 0 0,0 35.062,37.114 A 0.408,0.408 0 0,1 35.062,37.001 A 0.308,0.308 0 0,0 35.045,36.832 C 34.935,36.754 34.815,36.667 34.671,36.704 L 34.648,36.719 Z M 34.55,29.187 L 34.569,29.181 C 34.706,29.139 34.849,29.096 34.964,28.991 C 35.24,28.725 35.602,28.776 35.951,28.825 C 36.091,28.845 36.229,28.865 36.358,28.863 A 3.33,3.33 0 0,0 36.041,28.393 L 35.967,28.361 C 35.832,28.303 35.701,28.247 35.546,28.247 C 35.248,28.061 35.024,28.253 34.801,28.445 C 34.731,28.505 34.661,28.565 34.59,28.612 C 34.509,28.777 34.47,29.021 34.55,29.187 Z M 34.578,30.4 C 34.561,30.405 34.561,30.424 34.561,30.443 C 34.503,30.287 34.516,30.085 34.527,29.903 L 34.532,29.813 C 34.697,29.83 34.823,29.743 34.952,29.655 C 35.025,29.605 35.1,29.555 35.182,29.521 C 35.553,29.557 35.898,29.443 36.232,29.333 L 36.289,29.315 C 36.407,29.32 36.435,29.443 36.461,29.559 C 36.495,29.707 36.526,29.844 36.743,29.699 C 36.875,29.589 37.018,29.485 37.203,29.552 C 37.531,29.729 37.854,30.09 37.893,30.485 C 37.342,30.157 36.715,30.022 36.08,29.9 C 35.892,29.9 35.74,29.998 35.587,30.097 C 35.433,30.197 35.279,30.297 35.085,30.297 L 35.034,30.335 A 2.878,2.878 0 0,1 34.659,30.589 C 34.61,30.576 34.608,30.533 34.605,30.489 C 34.603,30.455 34.601,30.421 34.578,30.4 Z M 34.826,31.802 C 34.918,31.906 35.056,31.916 35.195,31.926 C 35.237,31.929 35.28,31.932 35.321,31.938 L 35.821,31.729 C 35.824,31.685 35.793,31.656 35.762,31.627 C 35.725,31.592 35.688,31.557 35.707,31.498 C 35.79,31.398 35.892,31.402 35.998,31.405 C 36.068,31.407 36.138,31.409 36.208,31.383 C 36.286,31.37 36.366,31.335 36.446,31.299 C 36.61,31.226 36.776,31.152 36.938,31.279 C 36.935,31.29 36.936,31.304 36.938,31.318 C 36.938,31.34 36.94,31.363 36.926,31.383 C 36.851,31.572 36.977,31.688 37.116,31.761 C 37.218,31.781 37.316,31.829 37.416,31.877 C 37.591,31.962 37.764,32.047 37.945,31.967 C 37.921,31.755 37.872,31.558 37.823,31.357 L 37.796,31.247 C 37.66,31.223 37.546,31.144 37.433,31.065 C 37.35,31.007 37.266,30.949 37.173,30.912 C 37.077,31.01 36.949,31.082 36.828,31.07 C 36.733,31.047 36.634,31.015 36.532,30.982 C 36.161,30.862 35.758,30.732 35.406,30.967 C 35.303,31.1 35.148,31.123 34.993,31.146 C 34.905,31.159 34.817,31.172 34.738,31.205 C 34.751,31.412 34.774,31.614 34.826,31.802 Z M 34.998,35.476 L 35.006,35.456 A 0.81,0.81 0 0,0 35.016,35.429 C 35.043,35.392 35.068,35.353 35.092,35.315 A 1.03,1.03 0 0,1 35.211,35.149 C 35.291,35.149 35.366,35.115 35.441,35.082 C 35.534,35.041 35.625,35 35.723,35.023 C 35.904,34.997 36.041,35.096 36.177,35.195 C 36.297,35.282 36.416,35.368 36.565,35.368 A 0.865,0.865 0 0,1 36.859,35.88 C 36.855,36.06 36.815,36.222 36.776,36.385 A 4.37,4.37 0 0,0 36.719,36.643 L 36.236,36.216 A 1.09,1.09 0 0,1 36.242,36.148 C 36.254,36.05 36.269,35.932 36.191,35.868 C 35.987,35.652 35.691,35.69 35.405,35.726 C 35.287,35.741 35.17,35.756 35.062,35.752 C 34.909,35.71 34.959,35.578 34.998,35.476 Z M 35.154,32.553 L 35.191,32.638 C 35.258,32.797 35.339,32.988 35.459,33.004 C 35.799,32.847 36.294,32.748 36.674,32.92 C 36.8,32.943 36.8,33.096 36.773,33.193 C 36.864,33.251 36.966,33.303 37.069,33.356 C 37.184,33.416 37.302,33.476 37.411,33.546 L 37.353,33.18 C 37.347,32.98 37.223,32.871 37.099,32.762 C 36.977,32.656 36.855,32.55 36.841,32.357 A 2.15,2.15 0 0,0 35.615,32.284 C 35.519,32.377 35.391,32.394 35.267,32.409 A 1.5,1.5 0 0,0 35.132,32.431 A 0.13,0.13 0 0,0 35.142,32.511 C 35.147,32.524 35.152,32.538 35.154,32.553 Z M 35.522,34.359 C 35.437,34.429 35.352,34.499 35.251,34.529 C 35.248,34.463 35.279,34.414 35.311,34.364 C 35.325,34.341 35.339,34.318 35.35,34.293 C 35.36,34.231 35.362,34.163 35.365,34.093 C 35.373,33.872 35.382,33.639 35.615,33.578 L 36.04,33.548 C 36.158,33.809 36.377,33.844 36.595,33.878 C 36.793,33.91 36.99,33.941 37.105,34.145 C 37.109,34.274 37.095,34.397 37.082,34.519 A 1.74,1.74 0 0,0 37.077,35.024 C 36.974,35.024 36.94,34.941 36.903,34.852 C 36.876,34.787 36.847,34.718 36.789,34.677 A 1.108,1.108 0 0,0 35.862,34.176 C 35.729,34.189 35.625,34.274 35.522,34.36 Z M 37.364,37.199 C 37.432,37.342 37.53,37.472 37.629,37.602 C 37.789,37.815 37.949,38.027 37.974,38.296 C 38.062,38.186 38.124,38.057 38.184,37.934 L 38.192,37.918 C 38.189,37.848 38.144,37.818 38.096,37.787 A 0.248,0.248 0 0,1 38.003,37.698 C 37.965,37.586 37.995,37.483 38.023,37.383 C 38.035,37.341 38.047,37.3 38.053,37.259 A 1.183,1.183 0 0,0 37.599,36.685 L 37.364,37.198 Z M 38.487,36.832 L 38.073,36.234 C 38.128,36.149 38.163,36.052 38.199,35.954 C 38.244,35.828 38.29,35.703 38.379,35.606 C 38.481,35.556 38.557,35.666 38.596,35.734 C 38.665,36.094 38.665,36.534 38.487,36.832 Z M 36.385,19.537 C 36.535,19.617 36.679,19.69 36.858,19.702 C 36.978,19.635 37.135,19.585 37.284,19.629 C 37.417,19.721 37.569,19.686 37.724,19.649 C 37.817,19.628 37.911,19.606 38.004,19.611 C 37.784,19.391 37.536,19.256 37.284,19.128 C 37.114,19.167 36.961,19.253 36.808,19.34 C 36.671,19.417 36.535,19.494 36.385,19.537 Z M 39.315,20.603 C 39.123,20.38 38.915,20.137 38.637,20.109 C 38.877,19.995 39.149,19.969 39.425,19.95 L 39.428,19.954 C 39.622,20.209 39.812,20.458 39.88,20.781 L 39.977,21.103 C 39.822,20.903 39.627,20.707 39.367,20.665 L 39.314,20.603 Z M 17.154,17.434 L 17.321,17.454 C 17.417,17.504 17.525,17.55 17.637,17.597 C 18.047,17.769 18.503,17.96 18.536,18.502 C 18.08,18.692 17.643,18.947 17.28,19.338 C 17.17,19.218 17.015,19.173 16.863,19.128 C 16.633,19.061 16.409,18.995 16.353,18.679 C 16.44,18.184 16.606,17.561 17.153,17.434 Z M 18.306,20.431 C 18.565,20.439 18.826,20.446 19.096,20.422 C 19.227,20.482 19.366,20.604 19.429,20.745 C 19.42,21.081 19.366,21.41 19.312,21.742 C 19.26,22.059 19.207,22.378 19.194,22.709 C 18.957,22.812 18.727,23.021 18.669,23.295 C 18.527,23.339 18.395,23.414 18.261,23.489 A 4.58,4.58 0 0,1 18.058,23.599 C 17.968,23.392 17.984,23.081 18.145,22.909 C 18.233,22.779 18.375,22.71 18.514,22.645 C 18.729,22.542 18.934,22.445 18.906,22.122 C 19.006,21.951 18.975,21.746 18.944,21.549 A 1.717,1.717 0 0,1 18.916,21.269 C 18.882,21.149 18.848,21.195 18.806,21.251 C 18.778,21.289 18.746,21.332 18.709,21.329 C 18.525,21.371 18.336,21.384 18.174,21.286 C 18.148,21.256 18.12,21.228 18.093,21.201 C 17.994,21.101 17.897,21.001 17.869,20.859 C 17.707,20.774 17.519,20.64 17.437,20.463 L 17.524,20.441 C 17.787,20.416 18.045,20.424 18.306,20.431 Z M 18.51,24.501 A 1.205,1.205 0 0,1 18.22,24.503 C 18.222,24.53 18.218,24.567 18.213,24.606 C 18.199,24.72 18.183,24.861 18.289,24.888 L 18.675,24.699 C 18.773,24.675 18.895,24.639 18.94,24.553 C 18.81,24.474 18.662,24.487 18.51,24.501 Z M 19.226,19.411 C 19.286,19.391 19.346,19.364 19.408,19.338 C 19.601,19.256 19.803,19.17 20.003,19.233 C 19.824,19.424 19.681,19.668 19.545,19.9 L 19.52,19.941 L 18.732,19.923 C 18.819,19.703 19.037,19.521 19.226,19.411 Z M 21.865,19.405 C 21.786,19.29 21.71,19.178 21.535,19.21 C 21.404,19.191 21.236,19.173 21.109,19.221 C 21.053,19.245 21.097,19.317 21.12,19.354 V 19.355 C 21.359,19.338 21.402,19.491 21.447,19.652 C 21.479,19.768 21.513,19.889 21.622,19.953 C 21.706,19.933 21.802,19.927 21.897,19.923 C 22.021,19.916 22.145,19.909 22.244,19.868 C 22.268,19.775 22.22,19.713 22.172,19.652 A 1.217,1.217 0 0,1 22.145,19.617 C 22.005,19.609 21.934,19.506 21.865,19.405 Z M 21.328,20.843 C 21.456,20.653 21.642,20.619 21.828,20.583 L 21.898,20.57 L 23.389,20.599 C 23.426,20.635 23.4,20.669 23.372,20.705 C 23.352,20.731 23.332,20.758 23.332,20.789 A 0.606,0.606 0 0,1 23.173,20.893 A 0.534,0.534 0 0,0 23.026,20.99 C 22.91,20.993 22.869,21.081 22.826,21.174 C 22.796,21.237 22.766,21.302 22.71,21.344 C 22.53,21.535 22.28,21.49 22.057,21.45 A 3.26,3.26 0 0,0 21.938,21.43 A 0.706,0.706 0 0,1 21.713,21.167 L 21.644,21.24 C 21.693,21.431 21.707,21.633 21.721,21.835 C 21.732,21.995 21.744,22.155 21.772,22.308 L 22.129,22.558 C 22.132,22.902 22.367,22.978 22.61,23.056 C 22.764,23.106 22.922,23.157 23.026,23.278 C 22.963,23.48 22.836,23.65 22.698,23.821 A 1.936,1.936 0 0,0 21.968,23.351 C 21.948,23.084 21.72,22.904 21.534,22.758 A 2.973,2.973 0 0,1 21.416,22.662 A 25.406,25.406 0 0,1 21.372,22.049 C 21.346,21.653 21.321,21.257 21.26,20.875 L 21.328,20.843 Z M 22.56,24.608 H 21.869 C 21.829,24.602 21.765,24.62 21.781,24.681 L 22.473,24.991 L 22.56,24.608 Z M 23.112,17.697 L 23.625,17.527 C 23.919,17.672 24.195,17.855 24.465,18.063 C 24.678,18.477 24.644,19.038 24.545,19.502 C 24.478,19.582 24.375,19.592 24.27,19.602 C 24.134,19.616 23.995,19.629 23.924,19.795 H 23.9 C 23.71,19.222 23.17,18.708 22.669,18.447 C 22.749,18.154 22.836,17.867 23.112,17.697 Z" fill="rgb(254, 254, 253)" fill-rule="evenodd"/>
</svg>
