<?xml version="1.0" encoding="UTF-8"?>
<!-- generated by Finnhub -->
<svg viewBox="0 0 55.5 55.5" xmlns="http://www.w3.org/2000/svg">
<path d="M 0,0 H 55.5 V 55.5 H 0 Z" fill="rgb(239, 242, 248)"/>
<path d="M 19.872,25.701999999999998 C 20.995,25.887 21.645,25.647 21.83,25.504 C 21.424,25.869 20.967,26.119 20.727,26.109 C 19.627,25.991 19.037,26.192 18.851,26.29 L 20.406,27.076 C 20.34,27.705 19.746,28.32 19.456,28.549 C 20.479,29.125 20.341,30.394 20.144,30.956 C 21.572,30.786 22.081,31.856 22.158,32.413 C 23.245,31.47 24.291,32.02 24.679,32.413 C 25.019,31.038 26.229,30.869 26.791,30.956 C 26.346,29.62 27.141,28.795 27.593,28.549 C 27.161,28.301 26.966,28.009 26.922,27.895 A 1.704,1.704 0 0,1 26.922,26.863 L 28.297,26.29 C 27.659,26.094 27.347,26.192 26.677,26.143 C 26.139,26.103 25.715,25.881 25.578,25.717 C 26.098,25.903 26.771,25.717 27.348,25.717 C 28.068,25.717 28.936,26.077 28.936,27.076 C 28.936,27.875 28.51,28.391 28.297,28.549 C 28.887,28.995 28.968,29.706 28.936,30.006 C 28.766,31.015 27.806,31.376 27.348,31.431 C 27.446,31.758 27.498,32.534 26.922,33.019 C 26.346,33.504 25.339,33.276 24.908,33.101 C 24.761,33.445 24.27,34.132 23.484,34.132 C 22.698,34.132 22.119,33.445 21.928,33.101 C 21.09,33.468 20.39,33.199 20.144,33.019 C 19.594,32.626 19.511,31.731 19.538,31.333 C 19.194,31.202 18.196,30.923 18.048,30.007 C 17.931,29.273 18.425,28.664 18.687,28.451 C 18.045,27.927 17.994,27.316 18.048,27.076 C 18.048,26.47 18.768,25.546 19.882,25.717 Z" fill="rgb(58, 110, 168)"/>
<path d="M 19.831999999999997,26.131 C 20.137,26.834 20.225,27.382 20.156,27.564 C 20.594,27.269 20.361,26.492 20.266,26.146 C 21.696,26.268 22.261,25.079 22.316,24.546 C 23.3,25.509 24.421,24.947 24.858,24.546 C 25.022,25.563 25.695,25.882 26.023,25.896 L 27.045,24.82 C 27.045,25.017 26.981,25.467 26.949,25.667 C 26.589,26.684 26.726,27.276 26.84,27.444 C 26.96,26.679 27.264,25.941 27.4,25.667 C 27.543,24.847 27.159,24.25 26.95,24.054 C 26.446,23.464 25.464,23.735 25.036,23.945 C 24.872,23.726 24.503,22.947 23.491,22.933 C 22.682,22.923 22.225,23.603 22.097,23.945 C 21.673,23.685 20.839,23.535 20.197,23.945 C 19.555,24.355 19.473,25.285 19.842,26.145 Z" fill="rgb(8, 205, 16)"/>
<path d="M 24.081999999999997,24.628 L 24.178,23.45 C 24.365,23.612 24.61,23.975 24.708,24.136 C 24.678,24.23 24.285,24.513 24.092,24.643 Z M 27.352,27.862 L 28.517,27.592 C 28.417,27.819 28.143,28.159 28.019,28.301 C 27.919,28.299 27.533,28.008 27.352,27.862 Z M 27.05,30.262 L 28.13,30.775 C 27.912,30.89 27.485,30.986 27.3,31.02 C 27.223,30.957 27.102,30.488 27.05,30.262 Z M 25.333,31.942 L 25.903,32.994 C 25.657,32.958 25.256,32.783 25.086,32.7 C 25.062,32.604 25.241,32.155 25.333,31.942 Z M 22.983,32.396 L 22.757,33.571 C 22.59,33.388 22.391,32.999 22.312,32.827 C 22.354,32.737 22.777,32.503 22.983,32.397 Z M 20.8,31.305 L 19.944,32.14 C 19.912,31.895 19.97,31.461 20.004,31.275 C 20.089,31.226 20.57,31.275 20.8,31.305 Z M 19.573,29.187 L 18.397,29.406 C 18.507,29.184 18.795,28.856 18.927,28.719 C 19.025,28.726 19.398,29.034 19.573,29.187 Z M 25.41,24.958 L 26.113,23.991 C 25.865,23.994 25.444,24.114 25.265,24.174 C 25.228,24.265 25.345,24.734 25.409,24.958 Z M 22.993,24.643 L 22.907,23.45 C 22.72,23.612 22.476,23.975 22.377,24.136 C 22.408,24.23 22.801,24.513 22.993,24.643 Z M 27.352,29.244 L 28.536,29.412 C 28.417,29.194 28.114,28.879 27.978,28.749 C 27.88,28.759 27.52,29.083 27.352,29.244 Z M 26.179,31.299 L 27.035,32.134 C 27.067,31.888 27.009,31.454 26.975,31.269 C 26.89,31.219 26.409,31.269 26.179,31.299 Z M 24.045,32.434 L 24.179,33.623 C 24.359,33.453 24.589,33.081 24.681,32.916 C 24.646,32.824 24.242,32.556 24.045,32.434 Z M 21.65,31.942 L 21.082,32.994 C 21.327,32.958 21.728,32.783 21.898,32.7 C 21.922,32.604 21.743,32.155 21.651,31.942 Z M 19.926,30.189 L 18.869,30.748 C 19.093,30.854 19.523,30.931 19.71,30.956 C 19.783,30.89 19.884,30.416 19.926,30.189 Z M 19.6,27.85 L 18.416,27.676 C 18.535,27.894 18.836,28.21 18.972,28.341 C 19.07,28.331 19.432,28.009 19.6,27.849 Z M 23.89,23.232 A 1.056,1.056 0 0,0 23.157,23.232 L 23.305,24.783 A 0.438,0.438 0 0,0 23.757,24.783 L 23.89,23.231 Z M 26.963,24.53 A 1.057,1.057 0 0,0 26.412,24.048 L 25.502,25.314 C 25.583,25.534 25.762,25.604 25.842,25.611 L 26.964,24.531 Z M 28.648,27.313 A 1.057,1.057 0 0,0 28.49,26.598 L 27.006,27.076 A 0.438,0.438 0 0,0 27.104,27.518 L 28.648,27.313 Z M 28.441,30.503 A 1.06,1.06 0 0,0 28.649,29.8 L 27.119,29.503 A 0.438,0.438 0 0,0 26.991,29.937 L 28.441,30.503 Z M 26.313,32.958 C 26.633,32.863 26.835,32.622 26.896,32.513 L 25.836,31.37 A 0.439,0.439 0 0,0 25.477,31.644 L 26.313,32.958 Z M 23.098,33.803 C 23.406,33.933 23.715,33.873 23.831,33.828 L 23.735,32.273 A 0.438,0.438 0 0,0 23.283,32.257 L 23.098,33.803 Z M 20.092,32.526 C 20.271,32.807 20.558,32.936 20.679,32.964 L 21.489,31.633 A 0.438,0.438 0 0,0 21.126,31.362 L 20.092,32.526 Z M 18.305,29.808 C 18.298,30.142 18.465,30.408 18.55,30.499 L 19.963,29.841 A 0.438,0.438 0 0,0 19.812,29.415 L 18.305,29.808 Z M 18.517,26.585 A 1.057,1.057 0 0,0 18.307,27.287 L 19.835,27.591 A 0.438,0.438 0 0,0 19.965,27.158 L 18.517,26.585 Z M 20.654,23.988 A 1.583,1.583 0 0,0 20.077,24.354 L 21.27,25.695 L 21.512,25.422 L 20.654,23.988 Z" fill="rgb(239, 242, 248)"/>
<path d="M 6.99,22.985 V 34 H 8 V 24.573 L 16,34 H 17 V 23 H 16 V 32.392 L 8,23 H 7 Z M 5,23 H 6 V 34 H 5 Z M 40,23 H 41 V 34 H 40 Z M 33.5,34 L 29,23 H 30 L 34,33 L 38,23 H 39 L 34.5,34 H 33.5 Z" fill="rgb(108, 108, 107)"/>
<path d="M 47.49,32.985 A 4.5,4.5 0 1,0 47.5,24 A 4.5,4.5 0 0,0 47.5,33 Z M 47.5,34 A 5.5,5.5 0 1,0 47.5,23 A 5.5,5.5 0 0,0 47.5,34 Z" fill="rgb(108, 108, 107)" fill-rule="evenodd"/>
<path d="M 21.674,25.12 L 21.029,24.005 C 21.56,24.069 21.883,24.245 21.977,24.325 C 21.988,24.583 21.787,24.972 21.684,25.135 Z M 19.997,24.76 L 20.935,25.765 C 20.404,25.702 20.092,25.745 19.997,25.665 C 19.986,25.407 19.921,25.017 19.997,24.76 Z" fill="rgb(239, 242, 248)"/>
</svg>
