<?xml version="1.0" encoding="UTF-8"?>
<!-- generated by Finnhub -->
<svg viewBox="0 0 55.5 55.5" xmlns="http://www.w3.org/2000/svg">
<path d="M 0,0 H 55.5 V 55.5 H 0 Z" fill="rgb(1, 112, 195)"/>
<path d="M 20.06,26.250999999999998 L 20.065,32.289 H 18.204 L 18.209,24.552 L 22.304,24.582 C 24.108,24.582 24.722,25.837 24.722,26.888 V 32.289 H 22.86 V 26.966 C 22.86,26.526 22.303,26.292 21.46,26.292 L 20.069,26.266 Z M 33.746,26.098 C 33.043,26.098 32.589,26.427 32.362,26.873 C 32.227,27.141 32.181,27.346 32.165,27.674 H 35.239 C 35.199,26.874 34.799,26.098 33.746,26.098 Z M 32.165,28.863 C 32.165,29.819 32.729,30.607 33.896,30.607 C 34.805,30.607 35.021,30.377 35.546,29.902 L 36.816,31.004 C 36.003,31.734 35.4,32.289 33.896,32.289 C 31.928,32.289 30.304,31.279 30.304,28.434 C 30.304,26.004 31.674,24.552 33.834,24.552 C 36.026,24.552 36.817,26.079 36.817,28.189 V 28.863 H 32.165 Z M 28.293,32.289 C 26.617,32.289 25.653,31.229 25.653,30.182 V 22.462 H 27.535 V 24.579 H 29.374 V 26.292 H 27.513 V 29.827 C 27.513,30.256 27.978,30.576 28.673,30.576 H 29.373 V 32.289 H 28.293 Z M 16.348,23.722 H 14.488 L 14.482,22.009 H 16.343 L 16.348,23.722 Z M 16.348,32.289 C 14.798,32.154 14.485,31.121 14.485,30.134 L 14.482,24.579 H 16.348 V 32.289 Z M 40.56,31.981 C 39.012,31.845 38.677,30.991 38.677,30.006 V 22.009 H 40.56 V 31.981 Z M 47.804,22.827 C 45.926,14.501 27.804,13.954 16.348,20.295 V 20.995 C 27.793,15.647 44.372,15.699 45.851,23.367 C 46.346,25.903 45.205,28.662 42.399,30.182 V 32.17 C 45.777,31.046 48.81,27.287 47.804,22.827 Z M 26.98,37.394 C 19.073,38.058 10.834,37.014 9.681,31.397 C 9.117,28.627 10.787,25.974 12.628,24.151 V 23.175 C 9.314,25.818 7.233,28.88 8.268,32.832 C 9.59,37.9 16.661,40.772 27.455,39.818 C 31.725,39.439 37.584,38.084 41.47,36.145 V 33.39 C 37.944,35.299 31.84,36.984 26.98,37.394 Z" fill="rgb(254, 254, 253)"/>
</svg>
