<?xml version="1.0" encoding="UTF-8"?>
<!-- generated by Finnhub -->
<svg viewBox="0 0 55.5 55.5" xmlns="http://www.w3.org/2000/svg">
<path d="M 0,0 H 55.5 V 55.5 H 0 Z" fill="rgb(53, 93, 189)"/>
<path d="M 24.99,21.985 A 2,2 0 1,0 21,22 A 2,2 0 0,0 25,22 Z M 4,25.5 A 0.5,0.5 0 0,1 4.5,25 H 6.5 A 0.5,0.5 0 0,1 7,25.5 V 35.5 A 0.5,0.5 0 0,1 6.5,36 H 4.5 A 0.5,0.5 0 0,1 4,35.5 V 25.5 Z M 17.5,36 H 15.484 C 15.121,36 15,35.801 15,35.425 V 29.324 C 15.001,28.159 15.002,27.341 13.801,27.341 C 13.229,27.341 12.562,27.586 12,27.948 V 35.5 A 0.5,0.5 0 0,1 11.5,36 H 9.5 A 0.5,0.5 0 0,1 9,35.5 V 25.5 A 0.5,0.5 0 0,1 9.5,25 H 11.5 A 0.5,0.5 0 0,1 12,25.5 V 25.759 A 4.88,4.88 0 0,1 14.569,25 C 16.829,25 18,26.59 18,28.998 V 35.47 C 18,35.846 17.864,36 17.5,36 Z M 31.84,36 C 32.781,36 34.054,35.714 35,35.176 V 35.5 A 0.5,0.5 0 0,0 35.5,36 H 37.5 A 0.5,0.5 0 0,0 38,35.5 V 25.5 A 0.5,0.5 0 0,0 37.5,25 H 35.5 A 0.5,0.5 0 0,0 35,25.5 V 32.936 C 34.27,33.349 33.19,33.636 32.587,33.636 C 31.376,33.636 31.005,32.796 31.005,31.58 V 25.51 C 31.005,25.11 30.823,25.001 30.5,25.001 H 28.5 C 28.178,25.001 27.976,25.134 27.976,25.51 V 32.045 C 27.976,34.433 29.579,36.001 31.839,36.001 Z M 19,25.5 A 0.5,0.5 0 0,1 19.5,25 H 26.5 A 0.5,0.5 0 0,1 27,25.5 V 27.5 A 0.5,0.5 0 0,1 26.5,28 H 24.5 V 35.5 A 0.5,0.5 0 0,1 24,36 H 22 A 0.5,0.5 0 0,1 21.5,35.5 V 28 H 19.5 A 0.5,0.5 0 0,1 19,27.5 V 25.5 Z M 40.5,25 A 0.5,0.5 0 0,0 40,25.5 V 35.5 A 0.5,0.5 0 0,0 40.5,36 H 42.5 A 0.5,0.5 0 0,0 43,35.5 V 25.5 A 0.5,0.5 0 0,0 42.5,25 H 40.5 Z M 44,25.5 A 0.5,0.5 0 0,1 44.5,25 H 51.5 A 0.5,0.5 0 0,1 52,25.5 V 27.5 A 0.5,0.5 0 0,1 51.5,28 H 49.5 V 35.5 A 0.5,0.5 0 0,1 49,36 H 47 A 0.5,0.5 0 0,1 46.5,35.5 V 28 H 44.5 A 0.5,0.5 0 0,1 44,27.5 V 25.5 Z M 48,20 A 2,2 0 1,1 48,24 A 2,2 0 0,1 48,20 Z" fill="rgb(254, 254, 253)"/>
</svg>
