<?xml version="1.0" encoding="UTF-8"?>
<!-- generated by Finnhub -->
<svg viewBox="0 0 55.5 55.5" xmlns="http://www.w3.org/2000/svg">
<path d="M 0,0 H 55.5 V 55.5 H 0 Z" fill="url(#a)"/>
<path d="M 16.15,20.855 L 13,18.78 L 28.1,11 L 43,18.73 L 39.78,20.86 L 27.9,14.49 L 16.16,20.87 Z" fill="rgb(211, 211, 211)"/>
<path d="M 27.99,39.894999999999996 V 45 L 13.03,36.32 L 13,18.78 L 16.1,20.7 V 34.04 L 28,39.92 Z" fill="rgb(145, 145, 145)"/>
<path d="M 27.99,40.464999999999996 V 45 L 43,36.32 V 18.72 L 40,20.69 L 39.65,34.26 L 27.99,40.48 Z" fill="rgb(182, 182, 182)"/>
<path d="M 18.99,32.235 L 16,34.18 V 20.7 L 28,14.17 V 18.4 L 19,22.96 V 32.25 Z" fill="rgb(236, 123, 53)"/>
<path d="M 36.99,32.985 L 40,34.37 V 20.7 L 28,14.17 V 18.4 L 37,22.96 V 33 Z" fill="rgb(221, 80, 36)"/>
<path d="M 15.99,34.155 L 19,32.23 L 28,36.76 L 36.99,32.16 L 37.02,32.14 L 37.32,32.38 L 43,36.12 L 39.51,38.37 L 36.01,36.39 L 27.99,40.72 L 16,34.17 Z" fill="rgb(247, 154, 49)"/>
<path d="M 35.99,40.325 V 36.41 L 39.5,38.32 V 42.42 L 36,40.34 Z" fill="rgb(145, 145, 145)"/>
<path d="M 42.99,40.464999999999996 V 36.16 L 39.5,38.28 V 42.41 L 43,40.48 Z" fill="rgb(182, 182, 182)"/>
<defs>
<linearGradient id="a" x1="10.42" x2="68.15" y1="9.71" y2="76.02" gradientUnits="userSpaceOnUse">
<stop stop-color="rgb(25, 29, 31)" offset="0"/>
<stop stop-color="rgb(5, 5, 8)" offset="1"/>
</linearGradient>
</defs>
</svg>
