<?xml version="1.0" encoding="UTF-8"?>
<!-- generated by Finnhub -->
<svg viewBox="0 0 55.5 55.5" xmlns="http://www.w3.org/2000/svg">
<path d="M 0,0 H 55.5 V 55.5 H 0 Z" fill="rgb(239, 242, 248)"/>
<path d="M 14.99,22.255 C 15,14.95 20.83,9 28,9 S 41,14.95 41,22.27 V 33.73 C 41,41.05 35.17,47 28,47 S 15,41.05 15,33.73 V 22.27 Z M 18.5,36.93 C 18.8,36.93 19,36.67 19,36.36 V 35.61 C 19,35.29 18.8,35.05 18.5,35.05 S 18,35.29 18,35.61 V 36.36 C 18,36.67 18.2,36.93 18.5,36.93 Z M 18.49,33.53 C 18.79,33.53 19,33.29 19,32.98 V 32.23 C 19,31.91 18.8,31.68 18.49,31.68 C 18.19,31.68 18,31.91 18,32.23 V 32.98 C 18,33.29 18.18,33.54 18.49,33.54 Z M 21.49,41.99 C 21.81,41.99 22,41.74 22,41.43 V 40.68 C 22,40.36 21.8,40.11 21.5,40.11 S 21,40.36 21,40.68 V 41.43 C 21,41.74 21.2,41.99 21.5,41.99 Z M 21.51,38.61 C 21.81,38.61 22,38.36 22,38.05 V 37.3 C 22,36.98 21.81,36.73 21.5,36.73 C 21.2,36.73 21,36.98 21,37.3 V 38.05 C 21,38.36 21.2,38.61 21.5,38.61 Z M 24.51,43.68 C 24.81,43.68 25,43.43 25,43.12 V 42.37 C 25,42.05 24.8,41.8 24.5,41.8 S 24,42.05 24,42.37 V 43.12 C 24,43.43 24.2,43.68 24.5,43.68 Z M 24.51,40.3 C 24.81,40.3 25,40.05 25,39.74 V 38.99 C 25,38.67 24.8,38.42 24.5,38.42 S 24,38.67 24,38.99 V 39.74 C 24,40.05 24.2,40.3 24.5,40.3 Z M 27.99,42 C 28.29,42 28.5,41.74 28.5,41.43 V 40.68 C 28.5,40.36 28.3,40.11 27.99,40.11 C 27.69,40.11 27.5,40.36 27.5,40.68 V 41.43 C 27.5,41.74 27.68,41.99 27.99,41.99 Z M 27.99,38.61 C 28.3,38.61 28.5,38.36 28.5,38.05 V 37.3 C 28.5,36.98 28.3,36.73 28,36.73 C 27.69,36.73 27.5,36.98 27.5,37.3 V 38.05 C 27.5,38.36 27.69,38.61 28,38.61 Z M 31.51,43.68 C 31.81,43.68 32,43.43 32,43.12 V 42.37 C 32,42.05 31.82,41.8 31.51,41.8 C 31.21,41.8 31,42.05 31,42.37 V 43.12 C 31,43.43 31.2,43.68 31.51,43.68 Z M 31.51,40.3 C 31.81,40.3 32,40.05 32,39.74 V 38.99 C 32,38.67 31.82,38.42 31.51,38.42 C 31.21,38.42 31,38.67 31,38.99 V 39.74 C 31,40.05 31.2,40.3 31.51,40.3 Z M 34.5,42 C 34.8,42 35,41.74 35,41.43 V 40.68 C 35,40.36 34.8,40.11 34.5,40.11 S 34,40.36 34,40.68 V 41.43 C 34,41.74 34.2,41.99 34.5,41.99 Z M 34.5,38.61 C 34.82,38.61 35,38.36 35,38.05 V 37.3 C 35,36.98 34.82,36.73 34.5,36.73 C 34.2,36.73 34,36.98 34,37.3 V 38.05 C 34,38.36 34.2,38.61 34.5,38.61 Z M 37.5,36.92 C 37.8,36.92 38,36.67 38,36.36 V 35.61 C 38,35.29 37.8,35.04 37.5,35.04 C 37.19,35.04 37,35.29 37,35.61 V 36.36 C 37,36.67 37.19,36.92 37.5,36.92 Z M 37.5,33.54 C 37.8,33.54 38,33.29 38,32.98 V 32.23 C 38,31.91 37.8,31.66 37.5,31.66 C 37.19,31.66 37,31.91 37,32.23 V 32.98 C 37,33.29 37.19,33.54 37.5,33.54 Z M 28,34.48 C 28.12,34.48 28.3,34.48 28.43,34.42 C 34.68,32.92 39.06,27.72 39,21.77 C 39,16.32 35.17,11.75 30.58,11.75 C 29.78,11.75 28.92,11.95 28.12,12.19 C 28.06,12.26 27.94,12.26 27.82,12.19 A 6.77,6.77 0 0,0 25.36,11.75 C 20.76,11.75 17,16.32 17,21.77 C 17,27.72 21.32,32.91 27.57,34.42 C 27.69,34.48 27.87,34.48 28,34.48 Z M 28.49,13.19 A 6.67,6.67 0 0,1 30.62,12.82 C 34.59,12.82 38,16.89 38,21.77 C 38,27.22 33.98,31.97 28.18,33.42 H 27.82 C 22.02,31.98 18,27.16 18,21.77 C 18,16.95 21.35,12.82 25.38,12.82 C 26.11,12.82 26.78,12.94 27.51,13.19 C 27.81,13.32 28.18,13.32 28.49,13.19 Z M 33.79,22.96 A 3.29,3.29 0 0,0 35.26,21.27 C 35.84,19.83 34.66,18.45 33.3,18.33 A 3.14,3.14 0 0,0 30.74,19.27 C 29.77,20.21 29.4,21.77 29.28,22.46 C 29.25,22.69 28.98,23.81 28.67,25.19 C 28.37,26.46 28.02,27.95 27.76,29.16 C 27.21,26.66 26.36,22.9 26.23,22.46 L 26.15,22.16 A 6.51,6.51 0 0,0 24.77,19.26 C 24.1,18.58 23.18,18.26 22.21,18.33 C 20.77,18.48 20,19.98 20.5,21.27 C 20.87,21.96 21.35,22.52 21.96,22.97 C 22.57,23.27 23.18,23.52 23.86,23.52 C 24.16,23.52 24.4,23.34 24.4,23.02 C 24.4,22.71 24.22,22.46 23.91,22.46 A 3.4,3.4 0 0,1 22.57,22.02 C 22.15,21.71 21.78,21.27 21.54,20.77 C 21.41,20.46 21.41,20.14 21.6,19.83 C 21.78,19.52 22.09,19.33 22.39,19.33 C 23.12,19.27 23.73,19.52 24.16,19.96 C 24.89,20.71 25.2,22.08 25.32,22.65 C 25.35,22.9 25.72,24.49 26.13,26.25 C 26.43,27.5 26.73,28.84 26.96,29.85 L 27.15,30.66 C 27.27,30.97 27.51,31.22 27.88,31.22 C 28.24,31.22 28.55,30.97 28.61,30.66 C 29.1,28.47 30.31,23.15 30.44,22.65 C 30.56,22.08 30.87,20.71 31.6,19.95 A 2.22,2.22 0 0,1 33.37,19.33 C 34.06,19.47 34.49,20.08 34.22,20.77 C 33.82,21.69 32.89,22.46 31.84,22.46 C 31.6,22.46 31.35,22.71 31.35,23.02 C 31.35,23.27 31.6,23.52 31.9,23.52 C 32.57,23.52 33.24,23.34 33.8,22.96 Z" fill="rgb(1, 37, 62)"/>
</svg>
