<?xml version="1.0" encoding="UTF-8"?>
<!-- generated by Finnhub -->
<svg viewBox="0 0 55.5 55.5" xmlns="http://www.w3.org/2000/svg">
<path d="M 0,0 H 55.5 V 55.5 H 0 Z" fill="url(#a)"/>
<path d="M 43.99,21.244 A 0.255,0.255 0 0,0 43.748,21 H 41.25 A 0.256,0.256 0 0,0 41,21.259 V 34.744 C 41,34.888 41.113,35 41.25,35 H 43.748 C 43.888,35 44,34.888 44,34.744 V 21.259 Z M 30,21.259 A 0.255,0.255 0 0,0 29.748,21 H 27.25 A 0.256,0.256 0 0,0 27,21.259 V 34.744 C 27,34.888 27.113,35 27.25,35 H 29.748 C 29.888,35 30,34.888 30,34.744 V 21.259 Z M 22,32.797 C 22,33.427 21.613,33.704 21.003,33.679 C 20.411,33.703 20,33.419 20,32.796 V 23.22 C 20,22.575 20.41,22.344 21.003,22.344 C 21.631,22.344 21.993,22.559 22,23.22 V 32.798 Z M 24.75,35 H 23.929 C 23.644,35 23.491,34.948 23.472,34.855 C 24.352,34.517 25,34.001 25,32.989 V 23.046 C 25,21.029 22.549,20.636 20.973,20.656 C 19.449,20.656 17,21.059 17,23.044 V 32.99 C 17.047,35.094 20.175,35.628 21.841,35.315 C 21.897,36.435 22.694,36.981 23.726,37 H 24.75 C 24.888,37 25,36.884 25,36.74 V 35.253 A 0.25,0.25 0 0,0 24.75,35 Z M 14.75,21.003 H 12.25 A 0.25,0.25 0 0,0 12,21.253 V 23.751 C 12,23.891 12.112,24.003 12.25,24.003 H 14.75 A 0.25,0.25 0 0,0 15,23.751 V 21.252 A 0.25,0.25 0 0,0 14.75,21.003 Z M 14.75,25 H 12.25 C 12.113,25 12,25.12 12,25.267 V 34.734 C 12,34.88 12.113,35 12.25,35 H 14.75 C 14.888,35 15,34.88 15,34.733 V 25.267 C 15,25.119 14.888,25 14.75,25 Z M 39.984,21.348 A 0.255,0.255 0 0,0 39.774,21.003 V 21 H 39.761 L 39.75,21 H 37.189 A 0.251,0.251 0 0,0 36.959,21.154 V 21.155 L 36.953,21.172 S 35.627,25.435 35.501,26.162 C 35.374,25.435 34.051,21.172 34.051,21.172 C 34.048,21.168 34.048,21.162 34.042,21.155 A 0.25,0.25 0 0,0 33.813,21 H 31.227 V 21.002 A 0.255,0.255 0 0,0 31.017,21.347 L 31.015,21.348 L 34,29.856 V 34.732 C 34,34.875 34.107,35 34.246,35 H 36.755 C 36.894,35 37,34.875 37,34.732 C 37,34.734 37,34.728 37,34.732 V 29.856 L 39.984,21.348 Z M 43.427,17.92 C 43.185,17.413 42.77,16.904 42.306,16.593 C 40.594,15.449 31.594,15.037 29.999,15.012 C 29.376,15.002 28.721,14.999 28.006,15 H 27.973 C 27.963,15 26.57,15.002 25.948,15.012 C 24.351,15.036 15.352,15.449 13.64,16.593 C 13.176,16.904 12.76,17.413 12.52,17.92 C 12.16,18.685 12.023,19.395 12.023,20 H 15.019 C 15.028,19.79 15.125,19.562 15.369,19.18 C 15.759,18.567 16.501,18.37 17.175,18.273 A 66.664,66.664 0 0,1 24.882,17.601 C 25.899,17.573 27.962,17.561 27.972,17.561 L 28.006,17.56 C 29.026,17.559 30.045,17.573 31.063,17.601 C 33.619,17.677 36.043,17.882 38.77,18.273 C 39.445,18.37 40.185,18.567 40.576,19.179 C 40.822,19.563 40.919,19.791 40.928,20 H 43.923 C 43.923,19.395 43.786,18.685 43.427,17.92 Z" fill="rgb(1, 189, 4)"/>
<path d="M 12.508000000000001,38.065 C 12.759,38.587 13.174,39.096 13.639,39.407 C 15.351,40.551 24.35,40.964 25.946,40.988 C 26.568,40.998 27.223,41.001 27.938,41 H 27.972 C 27.982,41 29.375,40.998 29.997,40.988 C 31.593,40.964 40.593,40.551 42.304,39.407 C 42.768,39.096 43.184,38.587 43.425,38.08 C 43.785,37.315 43.922,36.605 43.922,36 H 40.926 C 40.916,36.21 40.819,36.438 40.576,36.82 C 40.185,37.434 39.444,37.63 38.769,37.727 A 66.664,66.664 0 0,1 31.062,38.399 C 30.045,38.428 27.982,38.439 27.972,38.439 L 27.938,38.44 C 26.918,38.441 25.9,38.428 24.881,38.399 A 66.628,66.628 0 0,1 17.175,37.727 C 16.5,37.63 15.759,37.434 15.368,36.821 C 15.123,36.438 15.026,36.209 15.016,36 H 12.022 C 12.022,36.605 12.158,37.315 12.517,38.08 Z" fill="rgb(1, 189, 4)"/>
<defs>
<linearGradient id="a" x1="10.418" x2="68.147" y1="9.712" y2="76.017" gradientUnits="userSpaceOnUse">
<stop stop-color="rgb(25, 29, 31)" offset="0"/>
<stop stop-color="rgb(5, 5, 8)" offset="1"/>
</linearGradient>
</defs>
</svg>
