<?xml version="1.0" encoding="UTF-8"?>
<!-- generated by Finnhub -->
<svg viewBox="0 0 55.5 55.5" xmlns="http://www.w3.org/2000/svg">
<path d="M 0,0 H 55.5 V 55.5 H 0 Z" fill="rgb(239, 242, 248)"/>
<path d="M 15.02,30.724999999999998 H 16.66 C 16.72,31.31 17.06,31.66 17.73,31.66 C 18.27,31.66 18.6,31.4 18.6,31.04 C 18.6,29.74 15.03,30.95 15.03,28.26 C 15.03,27.13 16.19,26.39 17.5,26.39 C 19.04,26.39 20.08,27.22 20.14,28.48 H 18.52 A 0.94,0.94 0 0,0 17.55,27.64 C 17.05,27.64 16.78,27.85 16.78,28.26 C 16.78,29.56 20.31,28.15 20.31,31.04 C 20.31,32.26 19.23,33 17.73,33 C 16.16,33 15.1,32.12 15.03,30.74 Z M 12,26.5 H 14 V 33 H 12 V 26.5 Z M 10.08,28 C 9.21,28 9,28.69 9,29.78 V 33 H 7 V 26.5 H 9 V 27.56 C 9.34,26.76 9.64,26.5 10.41,26.5 H 11 V 28 H 10.08 Z M 4,24 H 6 V 33 H 4 V 24 Z" fill="url(#c)"/>
<path d="M 26.389999999999997,23.985 H 22 V 31 H 26.5 V 30 H 23 V 28 H 26 V 27 H 23 V 25 H 26.4 V 24 Z M 28.5,26 H 27.5 V 31 H 28.5 V 28.47 C 28.5,27.61 29.04,27 29.83,27 C 30.55,27 31,27.51 31,28.3 V 31 H 32 V 27.97 C 32,26.8 31.25,26 30.1,26 C 29.35,26 28.77,26.33 28.5,26.95 V 26 Z M 34.03,28 H 36.66 C 36.6,27.26 36.14,26.75 35.34,26.75 C 34.7,26.75 34.17,27.19 34.03,28 Z M 37.68,29.35 H 36.75 C 36.62,29.9 36.15,30.2 35.44,30.2 C 34.59,30.2 34.08,29.58 34,28.66 H 37.63 L 37.65,28.3 C 37.65,27.07 36.85,26 35.35,26 C 33.85,26 33,27.11 33,28.47 C 33,29.82 33.94,31 35.44,31 C 36.64,31 37.51,30.35 37.68,29.35 Z M 39.5,28.74 C 39.5,27.64 39.81,27 40.72,27 H 41.44 V 26 H 40.84 C 40.14,26 39.73,26.3 39.5,26.96 V 26 H 38.5 V 31 H 39.5 V 28.74 Z M 46,28.54 C 46,27.51 45.49,26.84 44.54,26.84 C 43.61,26.84 43,27.51 43,28.54 C 43,29.58 43.6,30.19 44.53,30.19 C 45.48,30.19 46,29.58 46,28.54 Z M 47,26 V 31.24 C 47,32.28 46.23,33 45.12,33 H 42.52 V 32 H 45.02 C 45.61,32 46,31.78 46,31.18 V 30.38 C 45.76,30.8 45.13,31 44.42,31 C 42.86,31 42,29.91 42,28.54 C 42,27.08 42.87,26 44.42,26 C 45.09,26 45.69,26.3 46,26.73 V 26 H 47 Z M 49.84,29.36 L 50.94,26 H 52 L 50.35,30.8 L 49.65,33 H 48.65 L 49.39,30.8 L 47.68,26 H 48.74 L 49.84,29.36 Z" fill="rgb(25, 168, 73)" fill-rule="evenodd"/>
<path d="M 12.99,25.384999999999998 A 1.2,1.2 0 0,0 13,23 V 23.66 A 0.54,0.54 0 0,1 13,24.75 V 25.41 Z" fill="url(#b)"/>
<path d="M 11.790000000000001,24.185 C 11.8,23.54 12.34,23 13,23 V 23.66 A 0.54,0.54 0 0,0 13,24.75 A 0.33,0.33 0 1,1 13,25.41 A 1.2,1.2 0 0,1 11.8,24.21 Z" fill="url(#a)"/>
<circle cx="13" cy="23.33" r=".33" fill="rgb(33, 168, 81)"/>
<defs>
<linearGradient id="c" x1="4" x2="20.22" y1="28.5" y2="28.5" gradientUnits="userSpaceOnUse">
<stop stop-color="rgb(4, 26, 78)" offset="0"/>
<stop stop-color="rgb(30, 59, 128)" offset="1"/>
</linearGradient>
<linearGradient id="b" x1="13.6" x2="13.23" y1="23" y2="25.41" gradientUnits="userSpaceOnUse">
<stop stop-color="rgb(22, 166, 65)" offset="0"/>
<stop stop-color="rgb(98, 181, 181)" offset=".66"/>
<stop stop-color="rgb(231, 237, 245)" offset="1"/>
</linearGradient>
<linearGradient id="a" x1="12.34" x2="12.71" y1="25.14" y2="23.25" gradientUnits="userSpaceOnUse">
<stop stop-color="rgb(2, 22, 72)" offset="0"/>
<stop stop-color="rgb(9, 121, 185)" offset=".54"/>
<stop stop-color="rgb(228, 239, 246)" offset="1"/>
</linearGradient>
</defs>
</svg>
