<?xml version="1.0" encoding="UTF-8"?>
<!-- generated by Finnhub -->
<svg viewBox="0 0 55.5 55.5" xmlns="http://www.w3.org/2000/svg">
<path d="M 0,0 H 55.5 V 55.5 H 0 Z" fill="rgb(13, 34, 200)"/>
<path d="M 27.311,20.485 C 27.321,19.975 27.741,19.566 28.24,19.566 C 28.739,19.566 29.159,19.976 29.159,20.5 C 29.159,21.025 28.739,21.434 28.24,21.434 A 0.927,0.927 0 0,1 27.321,20.5 Z M 28.24,19 A 1.5,1.5 0 1,0 28.24,22 A 1.5,1.5 0 0,0 28.24,19 Z M 6.537,29 H 6 V 23 H 6.537 V 29 Z M 27.464,35.52 V 35.837 H 28.179 A 0.925,0.925 0 0,1 28.128,36.154 A 0.854,0.854 0 0,1 27.974,36.444 A 0.696,0.696 0 0,1 27.744,36.629 L 27.412,36.709 A 0.647,0.647 0 0,1 27.055,36.629 A 0.802,0.802 0 0,1 26.799,36.392 A 1.153,1.153 0 0,1 26.646,36.048 A 1.633,1.633 0 0,1 26.595,35.626 C 26.597,35.484 26.614,35.342 26.645,35.204 C 26.677,35.073 26.729,34.948 26.799,34.834 A 0.807,0.807 0 0,1 27.055,34.571 A 0.649,0.649 0 0,1 27.412,34.465 H 27.668 L 27.872,34.571 C 27.935,34.621 27.987,34.684 28.026,34.755 A 0.784,0.784 0 0,1 28.102,34.966 L 28.409,34.887 A 1.131,1.131 0 0,0 28.307,34.597 A 0.944,0.944 0 0,0 28.077,34.307 A 0.858,0.858 0 0,0 27.77,34.148 L 27.412,34.095 A 0.947,0.947 0 0,0 26.927,34.228 A 1.062,1.062 0 0,0 26.569,34.571 A 1.529,1.529 0 0,0 26.365,35.046 C 26.315,35.235 26.289,35.43 26.288,35.626 C 26.288,35.806 26.314,35.983 26.365,36.154 C 26.415,36.317 26.492,36.469 26.595,36.603 C 26.693,36.724 26.815,36.823 26.952,36.893 C 27.095,36.967 27.253,37.003 27.412,36.998 H 27.617 L 27.821,36.919 L 28,36.787 L 28.153,36.603 L 28.23,36.946 H 28.434 V 35.52 H 27.464 Z M 16.859,34.307 A 0.761,0.761 0 0,1 17.063,34.571 A 0.868,0.868 0 0,1 17.115,34.808 L 16.808,34.888 A 0.532,0.532 0 0,0 16.629,34.571 A 0.699,0.699 0 0,0 16.195,34.439 H 15.99 L 15.812,34.518 L 15.684,34.65 A 0.46,0.46 0 0,0 15.633,34.861 A 0.298,0.298 0 0,0 15.709,35.072 L 15.889,35.204 L 16.144,35.284 L 16.45,35.362 L 16.834,35.494 L 17.089,35.626 A 0.656,0.656 0 0,1 17.268,35.838 A 0.813,0.813 0 0,1 17.242,36.55 A 0.782,0.782 0 0,1 17.012,36.814 L 16.68,36.946 L 16.323,36.999 L 15.913,36.946 A 0.963,0.963 0 0,1 15.352,36.471 A 0.863,0.863 0 0,1 15.275,36.26 L 15.581,36.18 C 15.591,36.236 15.608,36.289 15.633,36.339 A 0.606,0.606 0 0,0 15.786,36.55 L 16.016,36.656 H 16.526 L 16.731,36.576 L 16.885,36.418 A 0.461,0.461 0 0,0 16.935,36.181 A 0.35,0.35 0 0,0 16.859,35.943 L 16.68,35.811 L 16.425,35.731 L 16.118,35.653 L 15.811,35.573 L 15.556,35.441 A 0.601,0.601 0 0,1 15.377,35.231 A 0.622,0.622 0 0,1 15.3,34.914 A 0.758,0.758 0 0,1 15.377,34.544 A 0.731,0.731 0 0,1 15.581,34.307 L 15.888,34.148 L 16.22,34.096 L 16.552,34.148 C 16.664,34.178 16.769,34.232 16.859,34.307 Z M 19.849,36.972 C 19.21,36.972 18.903,36.656 18.903,35.969 V 34.122 H 19.21 V 35.969 C 19.21,36.471 19.414,36.682 19.849,36.682 C 20.283,36.682 20.488,36.444 20.488,35.969 V 34.122 H 20.794 V 35.969 C 20.794,36.629 20.488,36.972 19.849,36.972 Z M 39.933,34.148 H 39.627 V 36.946 H 41.185 V 36.629 H 39.933 V 34.149 Z M 30.709,34.175 H 30.402 V 36.945 H 30.708 V 34.175 Z M 34.209,36.207 L 34.259,36.022 L 34.617,36.102 A 1.23,1.23 0 0,1 34.337,36.708 A 0.895,0.895 0 0,1 33.622,36.998 A 0.97,0.97 0 0,1 33.135,36.893 A 0.979,0.979 0 0,1 32.803,36.603 A 1.392,1.392 0 0,1 32.599,36.154 A 2.228,2.228 0 0,1 32.522,35.6 A 2.12,2.12 0 0,1 32.599,35.046 C 32.641,34.885 32.71,34.733 32.803,34.596 A 0.98,0.98 0 0,1 33.161,34.28 C 33.303,34.206 33.461,34.17 33.621,34.175 L 33.978,34.227 L 34.26,34.386 C 34.345,34.468 34.415,34.566 34.464,34.676 C 34.519,34.792 34.554,34.917 34.566,35.046 L 34.26,35.098 A 0.748,0.748 0 0,0 34.03,34.623 A 0.651,0.651 0 0,0 33.595,34.465 A 0.672,0.672 0 0,0 33.237,34.545 A 0.751,0.751 0 0,0 32.982,34.782 C 32.912,34.886 32.861,35.002 32.829,35.125 A 1.852,1.852 0 0,0 32.829,35.995 C 32.858,36.127 32.91,36.252 32.982,36.365 A 0.672,0.672 0 0,0 33.595,36.682 L 33.876,36.629 L 34.081,36.471 A 0.775,0.775 0 0,0 34.208,36.207 Z M 38.042,36.919 H 37.736 L 37.506,36.154 H 36.535 L 36.305,36.919 H 35.973 L 36.816,34.201 H 37.199 L 38.042,36.919 Z M 37.429,35.864 H 36.619 L 37.02,34.439 L 37.43,35.864 Z M 24.142,35.653 L 24.652,36.946 H 24.346 L 23.836,35.706 H 23.017 V 36.919 H 22.737 V 34.175 H 23.861 A 0.793,0.793 0 0,1 24.474,34.385 A 0.781,0.781 0 0,1 24.653,34.94 A 0.736,0.736 0 0,1 24.448,35.468 A 0.736,0.736 0 0,1 24.142,35.653 Z M 23.043,34.413 V 35.468 L 23.784,35.441 A 0.648,0.648 0 0,0 24.193,35.336 A 0.473,0.473 0 0,0 24.372,34.94 A 0.516,0.516 0 0,0 24.218,34.544 A 0.65,0.65 0 0,0 23.784,34.412 H 23.043 Z M 12.082,29 H 12.542 V 23 H 12.082 V 27 C 12.082,27.267 12.098,27.533 12.132,27.8 C 12.082,27.605 12.022,27.4 11.954,27.187 L 10.625,23 H 10.165 V 29 H 10.651 V 25.347 A 27.01,27.01 0 0,0 10.574,24.173 H 10.6 L 10.676,24.547 L 10.778,24.947 L 12.081,29 Z M 18.112,23.507 H 17.242 V 29 H 16.706 V 23.507 H 15.863 V 23 H 18.111 V 23.507 Z M 23.973,27.819 C 23.991,27.573 24,27.319 24,27.055 V 23 H 23.441 V 27.002 C 23.464,27.374 23.428,27.747 23.335,28.108 A 0.633,0.633 0 0,1 22.75,28.488 A 0.643,0.643 0 0,1 22.165,28.108 A 3.624,3.624 0 0,1 22.058,27.002 V 23 H 21.5 V 27.029 C 21.5,27.292 21.509,27.538 21.527,27.766 C 21.545,27.984 21.599,28.197 21.687,28.398 C 21.766,28.571 21.895,28.718 22.058,28.819 A 1.636,1.636 0 0,0 23.441,28.872 A 0.898,0.898 0 0,0 23.814,28.451 C 23.904,28.251 23.958,28.037 23.974,27.819 Z M 28.537,29 H 28 V 23 H 28.537 V 29 Z M 33.57,23.507 H 34.413 L 34.439,23 H 32.189 V 23.507 H 33.033 V 29 H 33.57 V 23.507 Z M 38.537,29 H 38 V 23 H 38.537 V 29 Z M 43.407,29 H 43.867 L 45.043,23 H 44.506 L 43.766,27.354 C 43.748,27.566 43.723,27.841 43.689,28.177 H 43.663 L 43.612,27.726 A 3.001,3.001 0 0,0 43.561,27.381 L 42.794,23.026 H 42.258 L 43.408,29 Z M 50,23.507 H 48.748 V 25.64 H 49.975 V 26.147 H 48.748 V 28.493 H 50 V 29 H 48.211 V 23 H 50 V 23.507 Z" fill="rgb(254, 254, 253)" fill-rule="evenodd"/>
</svg>
