<?xml version="1.0" encoding="UTF-8"?>
<!-- generated by Finnhub -->
<svg viewBox="0 0 55.5 55.5" xmlns="http://www.w3.org/2000/svg">
<path d="M 0,0 H 55.5 V 55.5 H 0 Z" fill="rgb(17, 42, 128)"/>
<path d="M 51.99,25.559 L 51.861,27.246 H 51.18 C 50.093,27.246 49.528,28.119 49.528,28.956 V 33 H 47.6 V 25.574 H 49.426 L 49.467,26.467 C 49.85,25.855 50.52,25.574 51.347,25.574 H 52 Z M 38.639,33 H 36.71 V 28.948 C 36.71,28.156 36.642,27.158 35.53,27.158 C 34.459,27.158 34.032,27.933 34.032,28.835 V 33 H 32 V 25.574 H 33.96 L 34,26.489 C 34.383,25.876 35.03,25.399 36.082,25.399 C 38.026,25.399 38.639,26.79 38.639,28.238 V 33 Z M 31.263,31.06 L 31.128,32.69 C 30.666,32.814 30.255,33 29.758,33 C 27.941,33 27.413,32.023 27.413,30.344 V 23.554 H 29.343 V 25.574 H 31.261 L 31.128,27.245 H 29.342 V 30.198 C 29.342,30.872 29.527,31.236 30.216,31.236 C 30.516,31.236 30.849,31.2 31.263,31.061 Z M 26.78,25.574 L 26.63,27.246 H 26.107 C 25.022,27.246 24.482,28.118 24.482,28.956 V 33 H 22.553 V 25.574 H 24.379 L 24.417,26.467 C 24.802,25.855 25.473,25.574 26.3,25.574 H 26.78 Z M 14,31.94 A 8.72,8.72 0 0,1 9.508,32.996 C 6.308,32.898 4,30.906 4,27.54 C 4,24.19 6.33,22.05 9.51,22 C 11.121,21.975 12.563,22.385 13.69,23.382 L 12.333,24.759 C 11.635,24.163 10.609,23.815 9.383,23.871 C 7.382,23.964 6.176,25.421 6.15,27.426 C 6.124,29.596 7.452,31.093 9.528,31.148 C 10.505,31.172 11.205,31.041 11.81,30.768 V 28.548 H 9.652 L 9.798,26.728 H 14 V 31.938 Z M 46.739,30 H 41.451 C 41.601,30.915 42.319,31.299 43.212,31.324 C 44.081,31.347 44.566,31.084 45.202,30.439 L 46.46,31.402 C 45.566,32.506 44.493,33 43.27,33 C 41.12,33 39.508,31.4 39.508,29.153 C 39.508,26.908 41.111,25.399 43.189,25.399 C 45.479,25.399 46.739,26.79 46.739,29.259 V 30 Z M 44.807,28.337 C 44.747,27.433 44.072,26.861 43.141,26.897 C 42.204,26.933 41.581,27.544 41.451,28.337 H 44.807 Z M 21.339,28.045 V 33 H 19.639 L 19.596,32.027 C 19.074,32.675 18.227,33 17.356,33 C 16.042,33 14.801,32.259 14.776,30.747 C 14.736,28.37 17.443,28.201 19.143,28.201 H 19.483 V 28.108 C 19.483,27.322 18.964,26.898 17.988,26.898 C 17.287,26.898 16.595,27.179 16.083,27.66 L 14.97,26.527 C 15.98,25.705 17.032,25.399 18.152,25.399 C 20.364,25.399 21.339,26.424 21.339,28.045 Z M 19.483,29.611 H 19.215 C 18.302,29.613 16.698,29.658 16.704,30.615 C 16.713,31.964 19.484,31.535 19.484,29.909 V 29.611 Z" fill="rgb(254, 254, 253)"/>
</svg>
