<?xml version="1.0" encoding="UTF-8"?>
<!-- generated by Finnhub -->
<svg viewBox="0 0 55.5 55.5" xmlns="http://www.w3.org/2000/svg">
<path d="M 0,0 H 55.5 V 55.5 H 0 Z" fill="rgb(190, 36, 23)"/>
<path d="M 5.775,35.985 L 10.85,20.002 H 10.065 L 5,36 H 5.785 Z M 7.071,36 L 12.136,20.002 H 11.351 L 6.286,36 H 7.071 Z M 8.357,36 L 13.422,20.002 H 12.637 L 7.572,36 H 8.357 Z M 9.643,36 L 14.708,20.002 H 13.923 L 8.858,36 H 9.643 Z M 20.125,36 L 24.16,23 H 28.275 L 29.31,20 L 15.49,20.005 L 14.456,23.006 L 19.447,23.009 L 15.413,36 H 20.125 Z M 46.958,20.005 C 45.43,23.177 42.925,29.005 42.925,29.005 L 43.469,20.01 L 38.663,20.006 L 33.849,29.006 L 34.963,20.009 L 30.193,20.01 L 29.57,36.004 H 34.177 L 39.395,26.005 L 39.312,35.996 L 43.737,35.999 L 52,20.01 L 46.958,20.005 Z M 43.314,34.998 L 40.102,35.005 L 40.31,23.5 C 40.31,23.193 40.014,23.279 39.9,23.505 C 37.85,27.535 35.84,31.02 33.706,35.005 H 30.32 L 30.824,21.005 H 34.053 L 33.069,31.741 C 33.069,31.829 33.214,31.926 33.306,31.739 C 35.134,28.026 37.098,24.651 39.051,21.002 L 42.632,21.005 C 42.547,23.591 42.289,31.83 42.289,31.83 C 42.289,31.923 42.42,32.005 42.516,31.726 C 42.516,31.726 45.761,24.656 47.519,20.997 L 50.487,21.005 L 43.314,34.998 Z" fill="rgb(254, 254, 253)"/>
</svg>
