<?xml version="1.0" encoding="UTF-8"?>
<!-- generated by Finnhub -->
<svg viewBox="0 0 55.5 55.5" xmlns="http://www.w3.org/2000/svg">
<path d="M 0,0 H 55.5 V 55.5 H 0 Z" fill="rgb(24, 56, 135)"/>
<path d="M 34.617000000000004,37.005 L 33.146,38.498 L 31.705,37.031 L 30.928,34.748 L 28.721,33.994 L 28.716,32.572 L 27.281,32.576 L 26.524,36.184 L 27.301,38.518 L 23.92,40 L 22.89,38.532 L 23.603,37.056 L 23.598,35.482 L 21.393,35.49 L 18.481,38.545 L 16.274,37.842 L 16.264,34.796 L 12.416,34.199 L 9.653,35.68 L 8.009,34.974 L 8,31.878 L 9.484,31.162 L 15.371,28.249 L 16.245,28.957 L 18.443,26.767 L 18.438,25.345 L 21.35,22.441 L 22.828,19.339 L 25.02,15.728 L 28.658,15.005 L 30.145,15 L 30.15,16.422 L 33.082,19.306 L 33.092,22.403 L 37.67,26.705 L 42.09,29.635 L 44.296,30.338 L 45.072,32.518 L 48,33.933 L 46.517,35.409 L 45.083,35.414 L 45.078,33.942 L 42.87,33.237 L 39.167,29.645 L 36.239,28.182 L 33.097,23.827 L 31.657,22.409 L 32.367,20.071 L 30.155,17.895 L 28.672,19.321 L 28.682,22.419 L 27.252,23.845 L 30.184,26.729 L 28.702,28.206 L 31.685,31.091 L 31.69,32.563 L 33.135,35.452 L 34.622,35.448 L 36.258,33.97 L 35.487,33.262 L 34.607,31.082 L 36.248,31.076 L 37.693,33.966 L 39.185,35.433 L 34.627,37.021 Z" fill="rgb(254, 254, 253)"/>
</svg>
