<?xml version="1.0" encoding="UTF-8"?>
<!-- generated by Finnhub -->
<svg fill="none" viewBox="0 0 55.5 55.5" xmlns="http://www.w3.org/2000/svg">
<path d="M 0,0 H 55.5 V 55.5 H 0 Z" fill="rgb(254, 225, 15)"/>
<path d="M 51.49,21.485 V 33.595 H 4.5 V 21.5 H 51.5 Z" stroke="rgb(28, 28, 25)"/>
<path d="M 5.07,32.994 H 50.92 V 22.086 H 5.08 V 33.01 Z" fill="rgb(254, 225, 15)"/>
<path d="M 8.200000000000001,26.727999999999998 C 7.837,26.423 6.963,25.593 6.98,24.76 C 6.98,24.498 7.268,23.992 8.024,24.012 C 8.78,24.032 9.478,24.481 10.444,25.527 C 11.41,26.573 13.982,29.585 14.336,29.997 C 14.801,30.519 15.026,31.025 17.037,31.025 H 48.013 M 47.755,28.312 C 48.128,28.599 49.002,29.462 48.985,30.275 C 48.985,30.563 48.697,31.06 47.941,31.023 C 47.185,30.985 46.49,30.574 45.521,29.508 C 44.553,28.441 41.983,25.449 41.629,25.055 C 41.164,24.512 40.939,24.009 38.948,24.009 H 7.966 M 8.136,26.689 C 7.371,26.033 7.056,25.36 7.371,24.986 C 7.633,24.725 8.693,24.854 9.533,25.659 C 10.372,26.464 10.463,27.174 10.277,27.384 C 10.09,27.594 9.084,27.441 8.489,26.973 A 3.733,3.733 0 0,1 8.136,26.685 V 26.688 Z M 47.846,28.349 C 48.591,29.022 48.907,29.677 48.611,30.051 C 48.324,30.313 47.269,30.183 46.432,29.396 C 45.596,28.608 45.518,27.861 45.688,27.656 C 45.858,27.453 46.881,27.599 47.476,28.088 C 47.606,28.166 47.731,28.253 47.849,28.349 H 47.846 Z" stroke="rgb(28, 28, 25)" stroke-width=".19"/>
<path d="M 46.25,30.162 H 48.289 M 7.705,24.872 H 9.717 H 7.705 Z M 10.125,27.458 H 12.154 H 10.124 Z M 43.82,27.591 H 45.923 H 43.82 Z" stroke="rgb(28, 28, 25)" stroke-width=".204"/>
<path d="M 17.99,28.541999999999998 V 25.415 H 17.236 V 28.407 C 17.236,28.764 16.845,28.913 16.603,28.913 A 2.69,2.69 0 0,1 15.764,28.557 L 15.428,29.212 C 15.782,29.52 16.227,29.704 16.695,29.735 A 1.355,1.355 0 0,0 17.793,29.267 C 17.962,29.067 17.982,28.817 18,28.557 Z M 18.957,29.735 A 0.471,0.471 0 0,0 19.443,29.249 A 0.482,0.482 0 0,0 18.618,28.909 A 0.482,0.482 0 0,0 18.958,29.735 Z M 24.295,29.735 A 0.486,0.486 0 0,0 24.798,29.249 A 0.494,0.494 0 0,0 23.812,29.249 A 0.484,0.484 0 0,0 24.295,29.735 Z M 21.42,29.718 H 20.558 V 25.406 H 22.234 A 1.15,1.15 0 0,1 23.406,26.436 C 23.406,26.723 23.461,27.182 22.904,27.502 A 1.034,1.034 0 0,1 23.556,28.51 A 1.257,1.257 0 0,1 22.196,29.706 L 21.42,29.718 Z M 22.09,28.998 C 22.216,28.998 22.338,28.903 22.428,28.815 A 0.477,0.477 0 0,0 22.573,28.482 A 0.494,0.494 0 0,0 22.09,27.996 H 21.42 V 28.997 H 22.09 Z M 22.015,27.211 A 0.444,0.444 0 0,0 22.331,26.447 A 0.454,0.454 0 0,0 22.015,26.314 H 21.42 V 27.211 H 22.015 Z M 28.549,25.415 V 27.229 H 27.302 V 25.415 H 26.425 V 29.718 H 27.302 V 28 H 28.549 V 29.718 H 29.405 V 25.415 H 28.549 Z M 31.845,28.913 A 0.575,0.575 0 0,0 32.403,28.338 V 25.421 H 33.223 V 28.008 C 33.223,28.68 33.297,28.999 32.981,29.335 A 1.557,1.557 0 0,1 31.831,29.841 A 1.63,1.63 0 0,1 30.681,29.335 C 30.365,28.999 30.44,28.68 30.44,28.007 V 25.421 H 31.259 V 28.321 C 31.259,28.473 31.319,28.619 31.427,28.727 A 0.62,0.62 0 0,0 31.845,28.913 Z M 40.21,25.415 H 37.525 V 26.22 H 38.419 V 29.718 H 39.313 V 26.22 H 40.209 V 25.415 Z M 36.11,29.698 L 34.955,27.341 V 29.718 H 34.136 V 25.415 H 34.956 L 36.073,27.49 V 25.415 H 36.893 V 29.718 H 36.111 V 29.698 Z" fill="rgb(28, 28, 25)"/>
</svg>
