<?xml version="1.0" encoding="UTF-8"?>
<!-- generated by Finnhub -->
<svg viewBox="0 0 55.5 55.5" xmlns="http://www.w3.org/2000/svg">
<path d="M 0,0 H 55.5 V 55.5 H 0 Z" fill="rgb(11, 51, 123)"/>
<path d="M 5.987,23.988 H 7.995 V 33.453 A 2.471,2.471 0 0,1 7.22,35.315 C 6.967,35.555 6.667,35.74 6.338,35.858 C 6.008,35.976 5.703,36.002 5.308,36.002 H 5.003 V 34 H 5.117 C 5.749,34 6,33.99 6,33.308 V 24.003 H 5.997 Z M 6,20.008 L 7.995,20 V 22.004 H 6 V 20.008 Z M 10.45,27.998 C 10.42,27.728 10.448,27.295 10.532,27.037 A 1.93,1.93 0 0,1 11.595,25.865 A 1.969,1.969 0 0,1 13.844,26.339 C 14.027,26.541 14.165,26.779 14.249,27.037 C 14.333,27.295 14.362,27.728 14.332,27.997 H 10.45 Z M 15.996,29.507 V 27.997 C 16.016,27.495 15.933,26.834 15.751,26.364 A 3.697,3.697 0 0,0 14.936,25.107 C 14.581,24.747 14.342,24.463 13.873,24.271 A 3.764,3.764 0 0,0 12.39,24 C 10.617,24 8.597,25.11 8.597,28.676 C 8.597,32.409 10.81,32.996 12.706,32.996 A 4.269,4.269 0 0,0 14.534,32.652 A 4.23,4.23 0 0,0 16.036,31.565 L 14.693,30.448 A 2.914,2.914 0 0,1 12.683,31.331 C 12.384,31.351 12.137,31.297 11.803,31.201 C 11.482,31.11 11.281,31.068 11.016,30.863 C 10.543,30.497 10.402,30.153 10.459,29.563 L 15.995,29.507 Z M 17.026,20.998 H 18.996 V 23.002 H 20.005 V 25 H 18.996 V 30.318 C 18.996,30.821 18.956,31 19.153,31 H 19.998 V 32.997 H 18.882 S 18.62,32.975 18.336,32.87 A 1.97,1.97 0 0,1 17.617,32.39 A 2.088,2.088 0 0,1 17.004,30.762 V 25 L 15.996,25.004 V 23 L 17.004,23.002 L 17.027,20.998 Z M 25.993,27 C 26.153,26.969 26.549,27.057 26.81,27.14 C 27.07,27.224 27.305,27.41 27.51,27.592 A 1.934,1.934 0 0,1 28.157,29.031 A 1.916,1.916 0 0,1 27.509,30.47 A 1.958,1.958 0 0,1 26.804,30.87 C 26.544,30.954 26.266,31.03 25.994,31 H 23 V 27 H 25.992 Z M 21,33 H 26.53 C 27.01,33.01 27.488,32.914 27.933,32.734 C 28.378,32.554 28.787,32.265 29.165,31.848 C 29.543,31.43 29.769,31.178 29.941,30.734 C 30.113,30.289 30.174,29.834 30.174,29.147 C 30.089,28.243 29.919,27.847 29.537,27.309 A 2.889,2.889 0 0,0 27.958,26.203 A 2.818,2.818 0 0,0 29.372,25.141 A 2.774,2.774 0 0,0 29.866,23.454 C 29.866,21.442 28.517,20 26,20 H 21.004 L 21,33 Z M 25.825,22 H 26.628 C 26.852,22 27.386,22.158 27.565,22.316 C 27.744,22.474 27.912,22.658 27.958,22.986 C 28.004,23.312 27.958,23.719 27.958,23.719 C 27.942,23.839 27.955,23.971 27.812,24.203 C 27.669,24.435 27.521,24.593 27.404,24.663 C 26.954,24.927 26.777,24.936 26.628,24.969 C 26.54,24.989 26.194,25.004 26,25.004 H 23 V 22 H 25.825 Z M 31,20 H 32.97 V 30.439 C 32.97,30.852 33.207,31 33.658,31 H 34.291 V 33 H 33.478 C 32.135,33 31,32.216 31,30.55 V 20 Z M 35,24 H 37 L 36.999,29.163 C 36.979,29.411 36.984,29.705 37.067,29.941 S 37.23,30.351 37.401,30.534 S 37.78,30.864 38.011,30.964 C 38.242,31.064 38.813,31.072 39.012,31.072 C 39.264,31.072 39.676,31.064 39.907,30.964 C 40.137,30.864 40.27,30.776 40.441,30.594 A 1.97,1.97 0 0,0 40.858,29.926 A 1.97,1.97 0 0,0 41,29.163 V 24.003 H 43 V 33 L 41,32.996 V 32 C 40.858,32.33 40.521,32.59 40.18,32.75 C 39.766,32.944 38.953,33.007 38.496,32.996 C 38.082,32.995 37.362,32.911 36.981,32.751 A 3.095,3.095 0 0,1 35.969,32.06 C 35.681,31.765 35.359,31.416 35.211,31.033 A 3.04,3.04 0 0,1 35,29.833 V 24 Z M 45.484,28.003 C 45.454,27.734 45.482,27.299 45.566,27.041 A 1.907,1.907 0 0,1 46.631,25.877 C 46.881,25.768 47.152,25.681 47.426,25.684 C 48.555,25.684 49.252,26.621 49.308,28.007 L 45.484,28.003 Z M 50.997,29.516 V 28.007 C 51.017,27.505 50.933,26.841 50.751,26.371 A 3.695,3.695 0 0,0 49.937,25.114 A 3.74,3.74 0 0,0 48.687,24.278 C 48.217,24.087 47.934,23.988 47.426,23.996 C 45.654,23.996 43.633,25.114 43.633,28.679 C 43.633,32.412 45.817,32.996 47.703,32.996 C 48.331,33.01 48.734,32.888 49.308,32.633 A 4.23,4.23 0 0,0 50.799,31.525 L 49.456,30.407 C 48.929,30.951 48.429,31.264 47.668,31.287 A 2.086,2.086 0 0,1 46.052,30.669 C 45.732,30.342 45.439,29.995 45.484,29.523 L 50.997,29.516 Z" fill="rgb(254, 254, 253)"/>
</svg>
