<?xml version="1.0" encoding="UTF-8"?>
<!-- generated by Finnhub -->
<svg viewBox="0 0 55.5 55.5" xmlns="http://www.w3.org/2000/svg">
<path d="M 0,0 H 55.5 V 55.5 H 0 Z" fill="rgb(239, 242, 248)"/>
<path d="M 39.440000000000005,16.785 L 39.28,16.64 L 39.11,16.48 L 38.94,16.3 L 38.76,16.14 L 38.29,16.36 L 37.84,16.6 L 37.39,16.84 L 36.95,17.09 L 36.53,17.34 L 36.11,17.6 L 35.71,17.87 L 35.32,18.14 L 34.94,18.43 L 34.57,18.72 L 34.21,19.01 L 33.86,19.31 L 33.52,19.61 L 33.2,19.93 L 32.88,20.25 L 32.58,20.58 L 32.66,21.09 L 32.72,21.61 L 32.78,22.14 L 32.84,22.67 L 32.89,23.19 L 32.92,23.72 L 32.97,24.26 L 32.99,24.79 L 33.01,25.26 V 25.72 L 33.03,26.18 V 26.63 L 33.02,27.08 V 27.52 L 33,27.95 L 32.98,28.39 L 32.96,28.82 L 32.92,29.24 L 32.89,29.66 L 32.85,30.07 L 32.8,30.48 L 32.75,30.89 L 32.69,31.29 L 32.63,31.68 L 32.57,32.08 L 32.5,32.46 L 32.43,32.84 L 32.35,33.21 L 32.26,33.59 L 32.18,33.95 L 32.08,34.32 L 31.98,34.67 L 31.88,35.03 L 31.77,35.38 L 31.66,35.72 L 31.54,36.05 L 31.42,36.4 L 31.29,36.72 L 31.17,37.05 L 31.03,37.36 L 31.24,37.71 L 31.45,38.04 L 31.69,38.37 L 31.91,38.7 L 32.16,39.01 L 32.41,39.33 L 32.68,39.64 L 32.95,39.96 L 33.24,40.25 L 33.53,40.55 L 33.83,40.84 L 34.15,41.12 L 34.48,41.4 L 34.82,41.66 L 35.16,41.93 L 35.51,42.19 L 35.72,42.08 L 35.92,41.96 L 36.12,41.85 L 36.32,41.73 L 36.52,41.6 L 36.71,41.47 L 36.91,41.35 L 37.09,41.22 L 36.82,40.89 L 36.56,40.57 L 36.3,40.24 L 36.07,39.9 L 35.83,39.57 L 35.6,39.22 L 35.4,38.87 L 35.19,38.52 L 34.99,38.16 L 34.79,37.8 L 34.61,37.44 L 34.44,37.07 L 34.28,36.7 L 34.13,36.32 L 33.99,35.94 L 33.85,35.56 L 33.73,35.18 L 33.61,34.78 L 33.51,34.4 L 33.41,34 L 33.32,33.61 L 33.24,33.21 L 33.17,32.81 L 33.12,32.41 L 33.07,31.99 L 33.03,31.59 L 33,31.18 L 32.97,30.76 V 29.51 L 32.99,29.08 L 33.02,28.63 L 33.07,28.18 L 33.13,27.73 L 33.2,27.29 L 33.27,26.85 L 33.37,26.41 L 33.47,25.97 L 33.58,25.55 L 33.71,25.13 L 33.84,24.71 L 34,24.29 L 34.16,23.89 L 34.33,23.48 L 34.51,23.08 L 34.71,22.68 L 34.91,22.28 L 35.12,21.91 L 35.34,21.52 L 35.57,21.15 L 35.82,20.78 L 36.08,20.42 L 36.34,20.06 L 36.61,19.71 L 36.89,19.36 L 37.18,19.02 L 37.48,18.69 L 37.79,18.35 L 38.1,18.05 L 38.43,17.72 L 38.76,17.42 L 39.11,17.12 L 39.45,16.81 Z" fill="rgb(40, 180, 128)"/>
<path d="M 35.72,13.945 L 35.52,13.85 L 35.3,13.73 L 35.08,13.63 L 34.87,13.51 L 34.41,13.73 L 33.96,13.95 L 33.53,14.18 L 33.1,14.41 L 32.68,14.66 L 32.26,14.92 L 31.86,15.18 L 31.45,15.45 L 31.53,15.72 L 31.61,16 L 31.68,16.27 L 31.76,16.55 L 31.83,16.83 L 31.89,17.11 L 31.96,17.39 L 32.03,17.68 L 32.47,17.18 L 32.92,16.7 L 33.39,16.22 L 33.84,15.75 L 34.31,15.29 L 34.79,14.84 L 35.25,14.4 L 35.73,13.96 Z M 31.09,43.77 L 31.34,43.71 L 31.6,43.66 L 31.84,43.61 L 32.09,43.53 L 32.33,43.47 L 32.58,43.39 L 32.82,43.32 L 33.06,43.24 L 32.66,42.79 L 32.28,42.34 L 31.88,41.86 L 31.51,41.38 L 31.13,40.89 L 30.76,40.39 L 30.41,39.87 L 30.06,39.36 L 29.88,39.66 L 29.7,39.96 L 29.52,40.25 L 29.33,40.54 L 29.14,40.82 L 28.94,41.09 L 28.75,41.36 L 28.55,41.63 L 28.84,41.91 L 29.14,42.19 L 29.45,42.47 L 29.77,42.74 L 30.08,43 L 30.42,43.26 L 30.75,43.52 L 31.09,43.77 Z" fill="rgb(1, 180, 192)"/>
<path d="M 43.57,24.325 L 43.27,24.6 L 42.97,24.88 L 42.71,25.18 L 42.44,25.47 L 42.32,25.62 L 42.19,25.77 L 42.08,25.93 L 41.96,26.08 L 41.85,26.25 L 41.73,26.41 L 41.63,26.57 L 41.53,26.73 L 41.43,26.9 L 41.34,27.08 L 41.25,27.24 L 41.16,27.41 L 41.07,27.59 L 41,27.76 L 40.93,27.95 L 40.86,28.14 L 40.79,28.31 L 40.73,28.5 L 40.67,28.68 L 40.61,28.88 L 40.56,29.06 L 40.51,29.26 L 40.48,29.45 L 40.43,29.63 L 40.4,29.85 L 40.37,30.05 L 40.35,30.26 L 40.33,30.48 L 40.32,30.68 L 40.31,30.89 V 31.51 L 40.33,31.73 L 40.35,31.93 L 40.37,32.14 L 40.39,32.34 L 40.43,32.54 L 40.46,32.75 L 40.51,32.95 L 40.56,33.15 L 40.62,33.36 L 40.67,33.56 L 40.74,33.76 L 40.8,33.96 L 40.87,34.16 L 40.95,34.36 L 41.03,34.56 L 41.12,34.74 L 41.2,34.94 L 41.3,35.14 L 41.39,35.32 L 41.49,35.52 L 41.6,35.7 L 41.7,35.9 L 41.83,36.08 L 42.08,35.63 L 42.32,35.17 L 42.43,34.94 L 42.54,34.71 L 42.64,34.48 L 42.75,34.23 L 42.85,34 L 42.94,33.75 L 43.04,33.52 L 43.12,33.27 L 43.2,33.02 L 43.28,32.76 L 43.36,32.52 L 43.43,32.27 L 43.49,32.01 L 43.55,31.74 L 43.62,31.5 L 43.68,31.23 L 43.72,30.97 L 43.77,30.71 L 43.81,30.45 L 43.85,30.18 L 43.88,29.92 L 43.91,29.65 L 43.94,29.38 L 43.96,29.11 L 43.97,28.84 L 43.99,28.56 V 28.29 L 44,28.01 V 27.54 L 43.97,27.08 L 43.94,26.61 L 43.89,26.15 L 43.83,25.69 L 43.75,25.23 L 43.67,24.79 L 43.57,24.34 Z" fill="rgb(124, 185, 2)"/>
<path d="M 38.64,29.335 L 38.69,29.06 L 38.72,28.76 L 38.76,28.48 L 38.81,28.18 L 38.86,27.9 L 38.92,27.6 L 38.98,27.32 L 39.05,27.02 L 39.12,26.74 L 39.2,26.45 L 39.28,26.17 L 39.36,25.87 L 39.46,25.59 L 39.56,25.31 L 39.66,25.03 L 39.77,24.75 L 39.88,24.47 L 40,24.19 L 40.11,23.91 L 40.24,23.64 L 40.38,23.37 L 40.51,23.1 L 40.67,22.84 L 40.81,22.58 L 40.97,22.31 L 41.13,22.06 L 41.29,21.81 L 41.45,21.56 L 41.63,21.31 L 41.82,21.07 L 41.99,20.84 L 42.19,20.61 L 42.06,20.37 L 41.95,20.14 L 41.82,19.92 L 41.69,19.7 L 41.32,19.9 L 40.97,20.12 L 40.61,20.34 L 40.27,20.58 L 39.94,20.81 L 39.61,21.05 L 39.3,21.3 L 39,21.56 L 38.7,21.82 L 38.41,22.09 L 38.13,22.37 L 37.87,22.65 L 37.61,22.93 L 37.36,23.23 L 37.12,23.53 L 36.9,23.84 L 36.68,24.16 L 36.47,24.47 L 36.27,24.8 L 36.1,25.13 L 35.92,25.47 L 35.76,25.81 L 35.6,26.15 L 35.47,26.51 L 35.34,26.87 L 35.22,27.22 L 35.12,27.6 L 35.03,27.98 L 34.96,28.34 L 34.89,28.74 L 34.84,29.11 L 34.79,29.51 L 34.77,29.87 L 34.76,30.2 V 30.9 L 34.78,31.25 L 34.82,31.6 L 34.86,31.95 L 34.92,32.28 L 34.98,32.63 L 35.06,32.97 L 35.15,33.3 L 35.25,33.65 L 35.35,33.98 L 35.47,34.32 L 35.59,34.64 L 35.73,34.96 L 35.87,35.29 L 36.03,35.61 L 36.18,35.92 L 36.36,36.24 L 36.54,36.54 L 36.74,36.84 L 36.92,37.14 L 37.13,37.44 L 37.35,37.73 L 37.57,38.02 L 37.8,38.3 L 38.03,38.58 L 38.28,38.84 L 38.53,39.1 L 38.79,39.36 L 39.05,39.61 L 39.21,39.45 L 39.37,39.29 L 39.53,39.13 L 39.69,38.96 L 39.85,38.8 L 40,38.63 L 40.15,38.45 L 40.3,38.28 L 40.17,38.03 L 40.05,37.78 L 39.93,37.52 L 39.82,37.27 L 39.72,37.01 L 39.6,36.75 L 39.5,36.49 L 39.41,36.22 L 39.31,35.96 L 39.23,35.7 L 39.15,35.42 L 39.08,35.16 L 39.01,34.88 L 38.95,34.61 L 38.88,34.33 L 38.83,34.05 L 38.78,33.77 L 38.73,33.49 L 38.69,33.2 L 38.66,32.91 L 38.63,32.63 L 38.6,32.34 L 38.58,32.04 L 38.57,31.76 L 38.56,31.46 V 30.56 L 38.58,30.26 L 38.6,29.96 L 38.62,29.65 L 38.65,29.35 Z" fill="rgb(83, 183, 62)"/>
<path d="M 16.849999999999998,16.445 L 16.6,16.71 L 16.35,16.97 L 16.1,17.23 L 15.87,17.51 L 15.63,17.77 L 15.4,18.07 L 15.18,18.35 L 14.98,18.64 L 14.76,18.94 L 14.56,19.24 L 14.36,19.55 L 14.18,19.85 L 14,20.17 L 13.82,20.49 L 13.65,20.82 L 13.5,21.15 L 13.34,21.48 L 13.19,21.81 L 13.06,22.16 L 12.93,22.5 L 12.81,22.85 L 12.69,23.2 L 12.59,23.55 L 12.49,23.91 L 12.39,24.28 L 12.32,24.64 L 12.24,25.01 L 12.17,25.38 L 12.12,25.75 L 12.07,26.13 L 12.03,26.51 L 12,26.89 L 12.24,26.65 L 12.49,26.4 L 12.72,26.13 L 12.95,25.87 L 13.17,25.59 L 13.39,25.3 L 13.61,25.01 L 13.81,24.71 L 14.01,24.41 L 14.21,24.11 L 14.39,23.79 L 14.57,23.46 L 14.74,23.14 L 14.92,22.8 L 15.07,22.47 L 15.23,22.13 L 15.38,21.79 L 15.53,21.44 L 15.66,21.09 L 15.79,20.74 L 15.91,20.39 L 16.04,20.04 L 16.14,19.68 L 16.26,19.32 L 16.36,18.96 L 16.45,18.6 L 16.52,18.24 L 16.6,17.88 L 16.68,17.52 L 16.74,17.16 L 16.8,16.81 L 16.86,16.46 Z" fill="rgb(1, 183, 222)"/>
<path d="M 19.99,14.065 L 19.83,14.18 L 19.65,14.3 L 19.46,14.4 L 19.29,14.53 L 19.13,15.2 L 18.98,15.85 L 18.82,16.49 L 18.66,17.13 L 18.49,17.73 L 18.33,18.34 L 18.14,18.93 L 17.96,19.51 L 17.76,20.07 L 17.57,20.63 L 17.37,21.17 L 17.17,21.7 L 16.96,22.22 L 16.74,22.72 L 16.52,23.22 L 16.29,23.7 L 16.06,24.18 L 15.82,24.64 L 15.59,25.1 L 15.34,25.54 L 15.1,25.97 L 14.84,26.41 L 14.59,26.82 L 14.33,27.24 L 14.06,27.64 L 13.8,28.02 L 13.52,28.41 L 13.25,28.78 L 12.97,29.16 L 12.69,29.52 L 12.4,29.87 L 12.1,30.22 L 12.16,30.52 L 12.2,30.82 L 12.26,31.12 L 12.32,31.42 L 12.39,31.72 L 12.46,32.02 L 12.53,32.3 L 12.62,32.59 L 13.22,32.19 L 13.79,31.78 L 14.33,31.32 L 14.83,30.86 L 15.33,30.36 L 15.78,29.85 L 16.2,29.32 L 16.61,28.76 L 16.99,28.2 L 17.34,27.6 L 17.67,27.01 L 17.97,26.41 L 18.27,25.78 L 18.52,25.15 L 18.75,24.52 L 18.97,23.87 L 19.17,23.23 L 19.34,22.58 L 19.5,21.93 L 19.63,21.28 L 19.75,20.63 L 19.85,19.98 L 19.93,19.34 L 20,18.72 L 20.05,18.09 L 20.09,17.48 L 20.1,16.87 L 20.12,16.29 L 20.1,15.71 V 15.15 L 20.06,14.6 L 20.01,14.08 Z" fill="rgb(2, 152, 202)"/>
<path d="M 33.32,24.785 L 33.3,24.36 L 33.28,23.94 L 33.25,23.51 L 33.22,23.08 L 33.17,22.67 L 33.14,22.24 L 33.09,21.82 L 33.03,21.41 L 32.98,21 L 32.93,20.58 L 32.86,20.17 L 32.79,19.77 L 32.72,19.36 L 32.65,18.96 L 32.55,18.54 L 32.48,18.15 L 32.39,17.75 L 32.29,17.36 L 32.2,16.96 L 32.1,16.58 L 32,16.19 L 31.9,15.81 L 31.79,15.43 L 31.67,15.05 L 31.56,14.68 L 31.43,14.3 L 31.31,13.93 L 31.19,13.56 L 31.05,13.21 L 30.92,12.84 L 30.79,12.48 L 30.64,12.13 L 30.41,12.09 L 30.18,12.07 L 29.94,12.04 L 29.71,12.02 L 29.83,13.16 L 29.94,14.3 L 30.04,15.43 L 30.11,16.56 L 30.16,17.68 L 30.2,18.79 L 30.21,19.91 V 21 L 30.18,22.09 L 30.13,23.17 L 30.07,24.25 L 29.97,25.3 L 29.87,26.35 L 29.73,27.39 L 29.56,28.42 L 29.38,29.42 L 29.17,30.42 L 28.93,31.4 L 28.66,32.36 L 28.38,33.31 L 28.06,34.23 L 27.72,35.15 L 27.35,36.04 L 26.95,36.9 L 26.52,37.75 L 26.06,38.58 L 25.56,39.38 L 25.04,40.17 L 24.5,40.92 L 23.91,41.66 L 23.29,42.36 L 22.64,43.04 L 22.89,43.13 L 23.12,43.22 L 23.37,43.3 L 23.61,43.38 L 23.86,43.45 L 24.11,43.52 L 24.36,43.58 L 24.61,43.65 L 24.86,43.7 L 25.11,43.75 L 25.37,43.81 L 25.63,43.85 L 25.89,43.89 L 26.15,43.93 L 26.42,43.96 L 26.68,43.99 L 27.08,43.61 L 27.48,43.23 L 27.86,42.83 L 28.23,42.43 L 28.59,42 L 28.94,41.55 L 29.29,41.1 L 29.61,40.62 L 29.93,40.14 L 30.23,39.64 L 30.52,39.12 L 30.8,38.58 L 31.07,38.04 L 31.32,37.48 L 31.56,36.89 L 31.78,36.31 L 32,35.71 L 32.2,35.08 L 32.37,34.44 L 32.55,33.78 L 32.69,33.12 L 32.84,32.43 L 32.96,31.73 L 33.06,31.03 L 33.16,30.3 L 33.23,29.56 L 33.29,28.8 L 33.33,28.03 L 33.35,27.23 V 25.61 L 33.33,24.78 Z" fill="rgb(7, 50, 141)"/>
<path d="M 26.79,11.985 L 26.58,12.01 L 26.35,12.04 L 26.11,12.06 L 25.89,12.09 L 25.92,12.85 V 15.29 L 25.88,16.14 L 25.85,17.02 L 25.8,17.92 L 25.72,18.83 L 25.64,19.75 L 25.54,20.69 L 25.42,21.64 L 25.28,22.59 L 25.12,23.54 L 24.93,24.5 L 24.73,25.47 L 24.5,26.42 L 24.25,27.38 L 23.97,28.33 L 23.67,29.27 L 23.35,30.2 L 23,31.11 L 22.61,32.01 L 22.21,32.9 L 21.76,33.76 L 21.28,34.61 L 20.78,35.42 L 20.24,36.22 L 19.67,36.99 L 19.07,37.73 L 18.43,38.43 L 17.76,39.1 L 17.04,39.74 L 17.31,40 L 17.6,40.24 L 17.88,40.48 L 18.18,40.71 L 18.47,40.93 L 18.77,41.15 L 19.07,41.36 L 19.39,41.56 L 20.31,40.91 L 21.17,40.2 L 21.97,39.47 L 22.72,38.7 L 23.42,37.9 L 24.06,37.07 L 24.66,36.21 L 25.19,35.33 L 25.69,34.43 L 26.13,33.51 L 26.53,32.56 L 26.88,31.6 L 27.19,30.64 L 27.47,29.64 L 27.7,28.66 L 27.89,27.64 L 28.05,26.64 L 28.16,25.62 L 28.24,24.59 L 28.29,23.58 L 28.31,22.56 L 28.3,21.54 L 28.26,20.54 L 28.18,19.53 L 28.09,18.53 L 27.97,17.55 L 27.83,16.58 L 27.67,15.62 L 27.47,14.69 L 27.27,13.77 L 27.04,12.87 L 26.81,12 Z" fill="rgb(4, 83, 161)"/>
<path d="M 23.25,12.645 L 23.06,12.73 L 22.86,12.79 L 22.66,12.86 L 22.46,12.93 L 22.42,13.69 L 22.36,14.46 L 22.29,15.23 L 22.21,16.01 L 22.11,16.78 L 22.01,17.55 L 21.89,18.32 L 21.76,19.09 L 21.62,19.85 L 21.46,20.62 L 21.29,21.38 L 21.11,22.13 L 20.9,22.89 L 20.68,23.63 L 20.45,24.37 L 20.21,25.1 L 19.94,25.83 L 19.66,26.54 L 19.36,27.24 L 19.04,27.95 L 18.71,28.63 L 18.36,29.31 L 17.98,29.97 L 17.6,30.62 L 17.18,31.27 L 16.75,31.89 L 16.29,32.5 L 15.82,33.1 L 15.32,33.68 L 14.82,34.24 L 14.28,34.79 L 13.71,35.32 L 13.86,35.62 L 14.02,35.9 L 14.18,36.19 L 14.36,36.47 L 14.54,36.75 L 14.72,37.02 L 14.9,37.28 L 15.09,37.55 L 15.85,37.06 L 16.56,36.53 L 17.25,35.96 L 17.9,35.37 L 18.5,34.74 L 19.08,34.07 L 19.62,33.39 L 20.12,32.67 L 20.58,31.93 L 21.02,31.16 L 21.42,30.38 L 21.8,29.58 L 22.13,28.76 L 22.43,27.92 L 22.72,27.08 L 22.96,26.22 L 23.17,25.36 L 23.37,24.48 L 23.52,23.61 L 23.66,22.73 L 23.76,21.84 L 23.83,20.96 L 23.89,20.09 L 23.91,19.21 V 18.35 L 23.89,17.5 L 23.84,16.65 L 23.77,15.82 L 23.67,15 L 23.56,14.2 L 23.42,13.42 L 23.26,12.66 Z" fill="rgb(4, 116, 182)"/>
</svg>
