<?xml version="1.0" encoding="UTF-8"?>
<!-- generated by Finnhub -->
<svg viewBox="0 0 55.5 55.5" xmlns="http://www.w3.org/2000/svg">
<path d="M 0,0 H 55.5 V 55.5 H 0 Z" fill="rgb(225, 35, 24)"/>
<path d="M 26.79,29.314999999999998 C 25.07,29.81 24.76,28.79 24.79,28.23 C 24.59,28.84 24.56,30.13 26.03,30.39 L 26.8,29.33 Z" fill="rgb(217, 218, 216)"/>
<path d="M 15.19,17.125 C 15.42,16.34 15.97,16.26 16.22,16.32 L 17.4,17.57 C 17.55,18.16 17.86,19.61 17.88,20.73 A 2.83,2.83 0 0,1 17.02,22.86 C 16.41,23.38 14.92,24.36 13.88,24.15 C 12.57,23.87 12.9,22.25 13.68,21.08 S 14.91,18.13 15.19,17.14 Z" fill="url(#e)"/>
<path d="M 38.370000000000005,20.345 C 40.61,16.5 40.17,14.12 39.23,13.44 C 34.93,10.34 21.43,12.42 18.08,18.04 C 17.24,19.46 19.6,21.88 20.64,22.67 C 25.19,26.11 29.46,26.26 31.02,25.9 C 32.55,25.66 36.15,24.23 38.38,20.36 Z" fill="url(#d)"/>
<path d="M 38.99,19.185 A 16.81,16.81 0 0,1 38.27,20.55 C 37.32,21.05 36.14,21.39 34.72,21.39 C 30.52,21.39 27.98,19.26 27.22,18.13 A 0.37,0.37 0 0,1 27.31,17.63 A 0.35,0.35 0 0,1 27.81,17.73 C 28.44,18.66 30.75,20.66 34.71,20.66 C 36.61,20.66 38.01,20.02 38.99,19.2 Z" fill="rgb(19, 19, 18)"/>
<path d="M 16.13,17.724999999999998 C 16.52,18.38 18.04,19.09 18.75,19.37 C 19,18.67 18.72,17.85 18.55,17.53 C 18.11,17.25 17.1,16.65 16.65,16.47 C 16.21,16.29 16.03,16.29 15.99,16.32 C 15.89,16.52 15.77,17.09 16.14,17.74 Z" fill="url(#c)"/>
<ellipse cx="27.85" cy="15.35" rx=".92" ry=".93" fill="rgb(19, 19, 18)"/>
<ellipse transform="rotate(-3.12 268.24 -663.74) skewX(-.1)" rx="2.26" ry=".93" fill="url(#b)"/>
<path d="M 31.31,26.255 C 30.1,27.03 28.18,26.37 28.12,26.41 L 24.3,33 H 24.89 C 26.32,31.13 27.21,30.63 27.48,30.62 L 27.43,33 H 28.11 C 28.19,32.1 28.56,30.32 29.38,30.32 C 30.2,30.32 30.53,32.11 30.58,33 H 31.32 V 26.27 Z" fill="url(#a)"/>
<path d="M 13.99,34.985 H 15 V 39.55 A 2.47,2.47 0 0,1 12.55,42 H 12 V 41 H 12.7 C 13.33,40.96 14,40.32 14,39.68 V 35 Z M 16,42 V 35 H 18.11 C 19.71,35 21,36.4 21,38.11 V 38.89 C 21,40.61 19.7,42 18.11,42 H 16 Z M 17,41.01 V 36.01 H 17.75 C 18.99,36.01 20,37.13 20,38.51 S 19,41.01 17.75,41.01 H 17 Z M 33,42 A 3.5,3.5 0 1,0 33,35 A 3.5,3.5 0 0,0 33,42 Z M 33,40.9 A 2.4,2.4 0 1,0 33,36.1 A 2.4,2.4 0 0,0 33,40.9 Z M 27.38,42 A 3.3,3.3 0 0,0 29.73,41.02 L 29.15,40.38 A 2.5,2.5 0 1,1 29.14,36.61 L 29.71,35.97 A 3.3,3.3 0 0,0 27.38,35 A 3.44,3.44 0 0,0 24,38.5 C 24,40.43 25.51,42 27.38,42 Z M 23.5,41.25 A 0.75,0.75 0 1,1 22,41.25 A 0.75,0.75 0 0,1 23.5,41.25 Z M 38,42 H 37 V 35 H 38.09 L 40.51,39.68 L 42.92,35 H 44 V 42 H 43 V 37.33 L 40.51,41.93 L 38,37.33 V 42 Z" fill="rgb(254, 254, 253)" fill-rule="evenodd"/>
<defs>
<linearGradient id="e" x1="13.41" x2="17.16" y1="19.73" y2="20.82" gradientUnits="userSpaceOnUse">
<stop stop-color="rgb(237, 236, 237)" offset=".39"/>
<stop stop-color="rgb(193, 191, 190)" offset=".55"/>
</linearGradient>
<linearGradient id="d" x1="34.25" x2="22.17" y1="12.77" y2="22.78" gradientUnits="userSpaceOnUse">
<stop stop-color="rgb(246, 247, 248)" offset="0"/>
<stop stop-color="rgb(213, 214, 211)" offset="1"/>
</linearGradient>
<linearGradient id="c" x1="17.82" x2="16.92" y1="16.94" y2="18.24" gradientUnits="userSpaceOnUse">
<stop stop-color="rgb(241, 242, 240)" offset=".2"/>
<stop stop-color="rgb(190, 188, 187)" offset="1"/>
</linearGradient>
<linearGradient id="b" x1="3.34" x2=".82" y1=".12" y2="1.47" gradientUnits="userSpaceOnUse">
<stop stop-color="rgb(74, 71, 69)" offset="0"/>
<stop stop-color="rgb(18, 18, 17)" offset="1"/>
</linearGradient>
<linearGradient id="a" x1="26.26" x2="29.34" y1="32" y2="26.89" gradientUnits="userSpaceOnUse">
<stop stop-color="rgb(222, 224, 223)" offset="0"/>
<stop stop-color="rgb(233, 235, 233)" offset="1"/>
</linearGradient>
</defs>
</svg>
