<?xml version="1.0" encoding="UTF-8"?>
<!-- generated by Finnhub -->
<svg viewBox="0 0 55.5 55.5" xmlns="http://www.w3.org/2000/svg">
<path d="M 0,0 H 55.5 V 55.5 H 0 Z" fill="rgb(226, 5, 17)"/>
<path d="M 30.084,17.576 C 29.981,17.364 29.951,17.229 29.829,17.007 C 29.317,17.982 28.993,19.105 28.653,20.157 C 31.37,27.564 30.003,38.865 23.255,43.865 C 23.219,43.892 23.185,43.92 23.148,43.946 V 43.99 C 34.198,40.198 32.883,24.102 30.094,17.591 Z" fill="rgb(254, 254, 253)"/>
<path d="M 31.988,13.622 C 31.599,14.082 31.228,14.551 30.884,15.041 C 35.628,23.021 35.166,37.726 28.108,43.868 L 28.002,43.949 V 43.993 C 39.837,40.389 38.692,19.316 31.998,13.637 Z" fill="rgb(254, 254, 253)"/>
<path d="M 32.84,11.985 V 12.043 C 41.2,18.569 41.047,37.553 32.85,43.946 V 43.99 C 45.405,43.662 44.807,12.043 32.85,12 Z M 19.465,13.378 C 18.058,14.463 17.002,15.983 16.213,17.585 A 21.362,21.362 0 0,0 14.301,23.847 A 27.703,27.703 0 0,0 14.001,27.995 A 27.86,27.86 0 0,0 14.302,32.142 C 14.615,34.322 15.26,36.438 16.213,38.412 C 17.007,40.012 18.063,41.534 19.47,42.622 C 20.52,43.432 21.836,43.965 23.155,44 V 43.957 C 14.302,37.145 15.733,17.585 23.151,12.043 V 12 C 21.831,12.034 20.515,12.568 19.465,13.378 Z" fill="rgb(254, 254, 253)"/>
<path d="M 27.99,43.985 V 43.957 C 19.146,37.145 20.781,17.443 27.996,12.043 V 12 C 16.193,12.237 15.813,43.66 28,44 Z" fill="rgb(254, 254, 253)"/>
<path d="M 32.9,43.985 V 43.957 C 24.058,37.145 26.02,17.54 32.907,12.043 V 12 C 21.287,12.043 20.724,43.66 32.911,44 Z" fill="rgb(254, 254, 253)"/>
<path d="M 28.84,42.336999999999996 C 29.249,41.908 29.62,41.439 29.964,40.948 C 29.844,40.778 29.727,40.608 29.614,40.438 C 29.491,40.249 29.384,40.055 29.27,39.858 A 12.002,12.002 0 0,1 27.997,41.529 C 28.264,41.819 28.548,42.093 28.847,42.349 M 31.474,42.764 A 6.876,6.876 0 0,1 30.424,43.386 A 6.05,6.05 0 0,0 32.849,43.99 V 43.947 C 32.359,43.592 31.9,43.197 31.475,42.764 Z M 27.543,43.957 C 27.674,43.943 27.805,43.92 27.936,43.897 A 9.757,9.757 0 0,1 27.543,43.596 C 27.223,43.336 26.917,43.058 26.626,42.764 A 6.928,6.928 0 0,1 25.576,43.386 C 26.078,43.624 26.607,43.796 27.151,43.897 C 27.281,43.92 27.411,43.943 27.543,43.957 Z M 28.001,43.99 V 43.947 C 27.979,43.93 27.958,43.912 27.935,43.897 A 5.246,5.246 0 0,1 27.543,43.957 C 27.695,43.974 27.849,43.987 28.001,43.99 Z M 27.15,13.639 C 26.751,14.084 26.38,14.552 26.036,15.043 C 26.156,15.213 26.272,15.383 26.385,15.553 C 26.508,15.743 26.615,15.966 26.731,16.163 C 27.106,15.568 27.531,14.931 28.003,14.413 C 27.736,14.123 27.452,13.898 27.153,13.643 M 24.527,13.226 A 6.88,6.88 0 0,1 25.577,12.604 A 6.062,6.062 0 0,0 23.15,12 V 12.043 C 23.64,12.398 24.1,12.793 24.526,13.227 Z M 30.425,12.604 A 6.418,6.418 0 0,0 28.85,12.094 C 28.715,12.07 28.592,12.047 28.458,12.034 A 5.471,5.471 0 0,0 28,12 V 12.043 C 28.022,12.06 28.043,12.078 28.066,12.093 A 11,11 0 0,1 28.458,12.393 C 28.778,12.653 29.084,12.932 29.375,13.226 A 6.939,6.939 0 0,1 30.425,12.604 Z" fill="rgb(254, 254, 253)"/>
</svg>
