<?xml version="1.0" encoding="UTF-8"?>
<!-- generated by Finnhub -->
<svg viewBox="0 0 55.5 55.5" xmlns="http://www.w3.org/2000/svg">
<path d="M 0,0 H 55.5 V 55.5 H 0 Z" fill="rgb(232, 35, 47)"/>
<path d="M 43.42,24.012999999999998 C 43.29,24.129 43.17,24.251 43.09,24.352 L 42.393,25.002 C 42.073,25.306 41.755,25.61 41.455,25.935 C 41.395,25.995 40.339,26.969 40.339,26.969 C 40.159,25.609 40.079,24.109 40.019,22.871 C 39.939,21.391 39.9,19.909 39.88,18.429 C 39.86,16.968 39.88,15.507 40.12,14.047 C 40.2,13.478 41.077,11.551 39.76,12.119 C 36.948,13.336 32.8,16.907 32.72,22.649 C 32.7,23.865 32.86,25.082 33.239,26.259 C 33.319,26.523 33.419,26.766 33.519,27.03 C 33.598,27.212 33.877,27.598 33.877,27.8 C 33.877,28.227 32.78,28.51 32.401,28.592 C 32.082,28.673 31.743,28.714 31.404,28.734 C 31.025,28.774 30.686,28.896 30.567,28.531 C 30.407,28.004 30.367,27.355 30.067,26.685 C 29.35,25.143 28.113,23.987 26.438,23.744 C 24.943,23.541 23.447,24.129 22.131,24.819 A 23.16,23.16 0 0,0 19.697,26.319 A 94.737,94.737 0 0,1 19.318,22.202 C 19.099,18.895 18.999,15.751 19.817,12.545 C 19.857,12.403 19.877,12.241 19.797,12.119 C 19.677,11.937 19.398,11.998 19.199,12.079 C 16.885,13.012 14.891,14.757 13.615,16.927 A 11.875,11.875 0 0,0 12.079,24.251 C 12.419,27.172 13.974,30.012 16.526,31.371 A 22.88,22.88 0 0,0 13.714,37.579 C 13.315,38.979 13.076,40.439 13.315,41.859 C 13.475,42.772 13.954,43.787 14.851,43.969 C 15.609,44.132 16.367,43.624 16.925,43.077 C 18.7,41.332 19.578,38.857 19.897,36.402 C 20.157,34.353 20.216,32.304 20.057,30.235 C 20.017,29.769 19.977,29.302 19.937,28.815 C 19.817,27.639 20.655,26.949 21.512,26.3 C 22.11,25.853 22.709,25.427 23.387,25.143 C 24.065,24.859 24.803,24.677 25.541,24.778 C 26.598,24.92 27.774,25.651 28.253,26.645 C 28.353,26.868 28.732,27.659 28.213,27.618 C 28.093,27.618 27.973,27.538 27.874,27.476 C 26.877,26.929 25.74,26.645 24.624,26.746 C 24.164,26.806 23.686,26.908 23.287,27.192 C 22.888,27.476 22.609,27.942 22.669,28.43 C 22.689,28.714 22.829,28.977 22.988,29.22 C 23.248,29.627 23.586,30.012 24.005,30.235 C 24.962,30.763 26.099,30.519 27.136,30.479 C 27.655,30.459 28.173,30.519 28.632,30.742 C 28.852,30.844 28.991,30.925 29.15,31.108 C 29.35,31.351 29.47,31.919 29.729,31.898 C 30.068,31.878 30.188,31.108 30.247,30.884 C 30.347,30.539 30.367,30.032 30.826,29.89 A 34.608,34.608 0 0,1 32.9,29.343 C 33.239,29.262 33.598,29.201 33.957,29.14 C 34.197,29.1 34.455,29.018 34.695,29.12 C 35.054,29.282 35.253,29.687 35.512,29.971 C 35.832,30.337 36.21,30.641 36.609,30.884 C 36.689,30.925 37.307,31.25 37.267,31.331 C 37.207,31.452 37.127,31.554 37.068,31.676 C 35.273,34.698 34.795,36.281 34.336,38.086 C 33.658,40.723 33.877,43.543 35.532,43.888 C 37.806,44.375 40.139,40.298 40.658,36.362 C 40.997,33.704 40.658,30.539 40.598,27.862 C 40.598,27.862 41.236,27.232 41.416,27.05 C 41.874,26.604 42.333,26.137 42.772,25.67 C 43.012,25.427 43.231,25.184 43.47,24.96 C 43.65,24.778 43.909,24.575 43.988,24.312 C 44.028,24.149 43.968,23.906 43.769,23.885 C 43.629,23.926 43.529,23.967 43.429,24.028 Z M 18.38,38.127 C 18.001,42.103 16.226,42.447 15.429,42.164 C 14.511,41.819 14.252,38.938 15.668,35.307 C 16.346,33.562 17.203,32.02 17.981,30.763 C 18.341,33.44 18.58,36.057 18.381,38.127 Z M 18.839,13.56 C 18.32,14.757 17.303,17.029 17.164,20.822 C 17.084,23.317 17.463,26.36 17.842,29.362 C 17.542,29.809 17.223,30.256 16.944,30.722 C 15.209,29.485 14.352,26.888 14.232,22.872 C 14.032,16.866 16.924,13.905 18.5,13.154 C 18.899,12.951 19.098,12.992 18.839,13.56 Z M 27.993,29.404 C 27.953,29.464 27.873,29.504 27.773,29.546 C 27.534,29.606 27.275,29.586 27.016,29.566 A 3.504,3.504 0 0,1 25.659,29.241 C 25.38,29.099 25.141,28.937 24.961,28.673 C 24.881,28.511 24.801,28.328 24.881,28.166 C 24.921,28.065 25.021,28.004 25.121,27.943 C 25.58,27.699 26.158,27.74 26.637,27.943 C 27.115,28.146 27.514,28.511 27.873,28.896 C 28.033,29.059 28.093,29.262 27.993,29.404 Z M 39.121,38.127 C 38.742,42.103 36.967,42.447 36.19,42.164 C 35.272,41.819 35.013,38.938 36.429,35.307 C 37.107,33.562 37.964,32.02 38.742,30.763 C 39.062,33.44 39.321,36.057 39.122,38.127 Z M 39.58,13.56 C 39.061,14.757 38.024,17.029 37.905,20.822 C 37.825,23.317 38.204,26.36 38.583,29.362 C 38.263,29.809 37.964,30.256 37.665,30.722 C 35.93,29.485 35.073,26.888 34.953,22.872 C 34.773,16.866 37.645,13.905 39.241,13.154 C 39.62,12.951 39.819,12.992 39.58,13.56 Z" fill="rgb(254, 254, 253)"/>
</svg>
