<?xml version="1.0" encoding="UTF-8"?>
<!-- generated by Finnhub -->
<svg viewBox="0 0 55.5 55.5" xmlns="http://www.w3.org/2000/svg">
<path d="M 0,0 H 55.5 V 55.5 H 0 Z" fill="url(#a)"/>
<path d="M 15.704,29.172 C 15.114,29.187 14.651,29.39 14.236,29.844 C 13.866,30.299 13.681,30.754 13.681,31.309 C 13.681,32.017 13.958,32.775 14.513,33.634 C 13.589,34.341 12.943,34.897 12.573,35.352 C 12.249,35.806 12.065,36.362 12.065,37.019 C 12.065,37.625 12.203,38.13 12.48,38.535 C 12.757,38.99 13.08,39.343 13.496,39.595 C 13.912,39.848 14.374,40 14.836,40 C 15.806,40 16.684,39.495 17.561,38.434 C 18.301,39.494 19.131,40 20.055,40 C 20.471,40 20.887,39.848 21.21,39.596 C 21.533,39.343 21.764,38.99 21.857,38.535 H 21.487 C 21.257,38.99 20.887,39.242 20.425,39.242 C 20.102,39.242 19.778,39.142 19.501,38.888 C 19.224,38.686 18.808,38.13 18.254,37.322 C 18.485,37.019 18.716,36.514 18.994,35.857 C 19.316,35.048 19.594,34.493 19.917,34.19 A 2.153,2.153 0 0,1 20.933,33.583 V 33.179 H 17.793 V 33.583 C 18.577,33.684 18.947,34.038 18.947,34.644 C 18.947,34.897 18.855,35.251 18.716,35.705 A 4.9,4.9 0 0,1 18.069,37.019 A 133.282,133.282 0 0,0 15.621,33.331 C 17.007,32.573 17.7,31.764 17.7,30.956 C 17.7,30.451 17.515,29.996 17.1,29.693 C 16.73,29.339 16.222,29.187 15.714,29.187 Z M 28.97,29.237 C 28.139,29.237 27.353,29.44 26.614,29.895 C 25.922,30.349 25.367,31.006 24.951,31.915 C 24.536,32.825 24.351,33.785 24.351,34.795 C 24.351,36.362 24.767,37.575 25.644,38.535 C 26.522,39.495 27.631,39.95 28.97,39.95 C 30.263,39.95 31.326,39.444 32.11,38.434 C 32.342,38.737 32.48,39.091 32.573,39.545 H 32.896 V 35.907 H 32.573 C 32.527,36.514 32.342,37.12 32.019,37.777 C 31.695,38.434 31.279,38.888 30.771,39.141 C 30.263,39.394 29.709,39.545 29.247,39.545 C 28.323,39.545 27.492,39.141 26.892,38.333 C 26.245,37.524 25.968,36.312 25.968,34.796 C 25.968,33.179 26.245,31.916 26.845,31.006 C 27.445,30.147 28.185,29.693 29.201,29.693 C 29.986,29.693 30.725,29.945 31.371,30.501 C 32.019,31.057 32.434,32.017 32.665,33.381 H 32.989 L 32.896,29.491 H 32.573 C 32.527,29.945 32.434,30.4 32.203,30.855 C 31.926,30.451 31.51,30.147 30.91,29.794 C 30.31,29.44 29.663,29.238 28.97,29.238 Z M 43.981,16 C 43.151,16 42.365,16.202 41.626,16.657 C 40.933,17.112 40.379,17.768 39.963,18.677 C 39.547,19.587 39.363,20.547 39.363,21.557 C 39.363,23.124 39.778,24.337 40.656,25.297 C 41.533,26.257 42.642,26.712 43.981,26.712 C 45.275,26.712 46.337,26.206 47.122,25.196 C 47.353,25.499 47.492,25.853 47.584,26.307 H 47.908 V 22.67 H 47.584 C 47.538,23.276 47.354,23.882 47.03,24.539 C 46.707,25.196 46.337,25.65 45.783,25.903 C 45.275,26.156 44.721,26.307 44.259,26.307 C 43.335,26.307 42.504,25.903 41.903,25.044 C 41.256,24.236 40.979,23.024 40.979,21.507 C 40.979,19.89 41.256,18.627 41.857,17.768 C 42.457,16.91 43.197,16.455 44.212,16.455 C 44.998,16.455 45.737,16.707 46.383,17.263 C 47.03,17.819 47.446,18.779 47.677,20.143 H 48 L 47.908,16.253 H 47.538 A 4.25,4.25 0 0,1 47.168,17.566 C 46.892,17.162 46.476,16.859 45.875,16.506 C 45.321,16.152 44.675,16 43.981,16 Z M 19.492,16 C 18.984,16 18.392,16.05 17.469,16.101 L 16.268,16.151 V 16.505 H 16.453 C 16.915,16.505 17.238,16.555 17.376,16.657 C 17.515,16.757 17.607,16.91 17.654,17.162 C 17.7,17.415 17.746,17.92 17.746,18.779 V 23.832 C 17.746,24.69 17.7,25.246 17.654,25.499 C 17.607,25.752 17.515,25.903 17.376,26.004 C 17.238,26.105 16.914,26.156 16.545,26.156 H 16.315 V 26.51 H 20.655 V 26.156 H 20.286 C 19.871,26.156 19.593,26.106 19.409,26.004 C 19.27,25.904 19.178,25.701 19.132,25.448 C 19.085,25.196 19.085,24.69 19.085,23.832 V 21.659 H 20.102 C 21.164,21.659 21.949,21.558 22.365,21.305 C 22.781,21.103 23.104,20.75 23.335,20.345 C 23.565,19.891 23.705,19.385 23.705,18.83 A 2.66,2.66 0 0,0 23.196,17.213 C 22.873,16.758 22.411,16.505 21.903,16.303 C 21.395,16.152 20.463,16 19.493,16 Z M 10.725,16 V 16.505 H 10.956 C 11.418,16.505 11.741,16.555 11.88,16.657 C 12.018,16.757 12.11,16.91 12.157,17.162 C 12.203,17.415 12.203,17.92 12.203,18.779 V 22.265 C 12.203,23.427 12.157,24.235 12.111,24.741 C 12.018,25.246 11.787,25.651 11.464,26.055 C 11.094,26.358 10.633,26.56 10.124,26.56 C 9.848,26.56 9.663,26.51 9.478,26.408 C 9.293,26.308 9.201,26.206 9.201,26.055 C 9.201,26.005 9.201,25.903 9.293,25.802 C 9.339,25.651 9.386,25.549 9.386,25.398 C 9.386,25.196 9.339,24.994 9.201,24.842 A 0.66,0.66 0 0,0 8.693,24.64 C 8.508,24.64 8.323,24.741 8.185,24.893 C 8.046,25.044 8,25.246 8,25.499 C 8,25.903 8.185,26.257 8.554,26.509 C 8.924,26.813 9.478,26.914 10.171,26.914 C 10.818,26.914 11.371,26.813 11.834,26.56 C 12.296,26.307 12.711,26.004 12.989,25.55 C 13.266,25.095 13.45,24.64 13.496,24.185 C 13.543,23.731 13.589,23.074 13.589,22.215 V 18.678 C 13.589,17.818 13.635,17.263 13.681,17.061 C 13.727,16.808 13.82,16.657 13.958,16.606 C 14.097,16.506 14.42,16.506 14.882,16.506 H 15.113 V 16 H 10.725 Z M 24.998,16 V 16.505 H 25.275 C 25.737,16.505 26.06,16.555 26.199,16.657 C 26.337,16.757 26.429,16.91 26.476,17.162 C 26.522,17.415 26.522,17.92 26.522,18.779 V 23.276 C 26.522,24.135 26.522,24.691 26.43,25.044 A 1.412,1.412 0 0,1 25.968,25.853 C 25.691,26.055 25.413,26.156 24.998,26.206 V 26.56 H 28.369 V 26.206 C 27.954,26.156 27.584,26.055 27.353,25.802 C 27.123,25.6 26.983,25.297 26.938,24.994 C 26.892,24.691 26.845,24.134 26.845,23.326 V 17.213 L 30.661,26.286 H 30.985 L 34.605,17.213 V 23.781 C 34.605,24.64 34.605,25.196 34.559,25.398 C 34.513,25.6 34.42,25.802 34.236,25.903 C 34.097,26.004 33.82,26.055 33.404,26.055 H 33.081 V 26.408 H 37.607 V 26.055 H 37.192 C 36.776,26.055 36.717,26.055 36.532,25.954 C 36.393,25.853 36.301,25.651 36.255,25.398 C 36.208,25.145 36.208,24.59 36.208,23.781 V 18.728 C 36.208,17.869 36.208,17.314 36.301,17.112 C 36.347,16.859 36.44,16.707 36.578,16.657 C 36.717,16.556 36.822,16.505 37.284,16.505 H 37.654 V 16 H 34.744 L 31.326,24.69 L 27.86,16 H 24.997 Z M 15.714,29.592 C 16.084,29.592 16.36,29.743 16.545,29.996 C 16.776,30.248 16.868,30.602 16.868,31.006 C 16.868,31.714 16.36,32.37 15.39,33.027 C 14.79,32.117 14.513,31.41 14.513,30.905 C 14.513,30.552 14.605,30.248 14.836,29.995 C 15.113,29.743 15.39,29.592 15.714,29.592 Z M 19.824,16.404 C 20.702,16.404 21.302,16.606 21.672,17.011 C 22.042,17.415 22.272,18.021 22.272,18.88 C 22.272,19.436 22.18,19.941 21.949,20.295 A 1.734,1.734 0 0,1 21.118,21.053 A 4.431,4.431 0 0,1 19.825,21.255 H 19.132 V 16.455 C 19.27,16.405 19.502,16.405 19.824,16.405 Z M 38.577,31.664 C 37.469,31.664 36.545,32.017 35.806,32.774 C 35.067,33.533 34.698,34.493 34.698,35.705 C 34.698,36.968 35.067,37.979 35.806,38.737 C 36.545,39.495 37.469,39.899 38.624,39.899 C 39.824,39.899 40.748,39.495 41.487,38.737 C 42.227,37.979 42.596,37.019 42.596,35.756 S 42.226,33.482 41.441,32.775 C 40.656,32.017 39.732,31.663 38.577,31.663 Z M 38.624,31.966 C 39.501,31.966 40.194,32.32 40.656,32.976 C 41.118,33.634 41.349,34.594 41.349,35.806 C 41.349,37.07 41.118,38.03 40.656,38.686 C 40.194,39.343 39.547,39.646 38.716,39.646 C 37.792,39.646 37.099,39.343 36.637,38.686 C 36.175,38.029 35.945,37.12 35.945,35.806 C 35.945,34.543 36.175,33.583 36.637,32.926 C 37.053,32.269 37.746,31.966 38.624,31.966 Z M 14.744,33.987 A 67.007,67.007 0 0,1 17.376,38.13 C 16.822,38.838 16.176,39.242 15.483,39.242 C 14.883,39.242 14.328,38.939 13.82,38.383 C 13.358,37.827 13.08,37.17 13.08,36.513 C 13.08,36.109 13.22,35.655 13.496,35.2 A 5.05,5.05 0 0,1 14.744,33.987 Z M 43.981,38.232 A 0.734,0.734 0 0,0 43.427,38.484 A 0.877,0.877 0 0,0 43.197,39.09 C 43.197,39.343 43.289,39.545 43.427,39.697 A 0.734,0.734 0 0,0 44.536,39.697 A 0.876,0.876 0 0,0 44.766,39.09 A 0.877,0.877 0 0,0 44.536,38.484 A 0.7,0.7 0 0,0 43.981,38.232 Z" fill="rgb(254, 254, 253)"/>
<defs>
<linearGradient id="a" x1="10.418" x2="68.147" y1="9.712" y2="76.017" gradientUnits="userSpaceOnUse">
<stop stop-color="rgb(25, 29, 31)" offset="0"/>
<stop stop-color="rgb(5, 5, 8)" offset="1"/>
</linearGradient>
</defs>
</svg>
