<?xml version="1.0" encoding="UTF-8"?>
<!-- generated by Finnhub -->
<svg viewBox="0 0 55.5 55.5" xmlns="http://www.w3.org/2000/svg">
<path d="M 0,0 H 55.5 V 55.5 H 0 Z" fill="rgb(251, 174, 20)"/>
<path d="M 42.461,28.137999999999998 C 40.789,28.257 39.454,28.933 38.435,29.559 L 38.434,29.513 C 38.434,27.934 39.057,26.109 38.418,24.592 C 38.137,23.906 36.146,24.036 36.128,25.333 C 36.084,28.419 35.393,31.28 35.758,34.455 C 35.931,35.78 38.587,35.06 38.627,33.754 C 39.011,32.172 40.569,30.283 42.411,29.999 C 46.96,29.269 46.04,34.191 41.639,35.691 C 40.374,36.122 38.967,36.379 37.238,36.318 C 37.165,36.272 35.618,35.21 35.618,35.21 C 32.22,32.796 28.58,30.613 25.109,28.257 C 29.644,25.333 34.921,22.131 38.777,19.347 C 39.575,18.771 39.89,16.863 38.69,17.595 C 35.274,19.348 27.067,24.127 25.312,25.263 C 25.445,23.063 25.846,19.933 26.342,17.325 C 26.639,16.181 24.332,15.295 23.733,16.804 C 22.768,19.165 21.963,23.049 21.772,26.156 C 19.276,24.55 16.608,23.447 14.137,21.844 C 12.262,20.864 11.425,22.924 12.262,23.738 C 14.452,25.868 17.462,27.05 20.065,28.563 C 18.544,29.594 14.677,32.143 11.256,34.484 C 10.095,35.279 13.198,34.955 14.226,34.5 C 16.84,33.33 19.21,31.596 21.694,30.198 C 21.59,33.939 22.094,37.174 22.992,40.65 C 23.157,41.708 24.663,44.001 25.325,42.52 C 25.571,41.113 24.521,36.843 24.977,31.515 C 24.977,31.579 24.977,31.447 24.977,31.515 C 29.157,34.155 33.317,37.643 38.093,39.015 C 38.632,39.181 39.532,38.465 39.335,37.925 C 42.814,37.75 48,35.863 48,31.609 C 48.005,28.904 44.634,28.026 42.471,28.154 Z" fill="rgb(108, 100, 91)"/>
</svg>
