<?xml version="1.0" encoding="UTF-8"?>
<!-- generated by Finnhub -->
<svg viewBox="0 0 55.5 55.5" xmlns="http://www.w3.org/2000/svg">
<path d="M 0,0 H 55.5 V 55.5 H 0 Z" fill="rgb(254, 69, 43)"/>
<path d="M 48.99,20.985 V 32 H 48 V 21 H 49 Z M 24.1,25 A 1.95,1.95 0 0,0 22.03,26.75 H 22 V 25 H 21 V 32 H 22 V 27.8 C 22,26.63 22.6,26.09 23.65,26.09 C 24.85,26.09 25.5,26.69 25.5,27.87 V 32 H 26.5 V 27.7 C 26.5,26.04 25.68,25 24.1,25 Z M 16.56,31.98 H 16.52 L 14.4,25 H 13.1 L 15.36,32 H 16.49 L 15.34,36 H 16.57 L 19.96,25 H 18.68 L 16.55,31.98 Z M 43.59,31.98 H 43.55 L 41.41,25 H 40.14 L 42.4,32 H 43.53 L 42.38,36 H 43.61 L 47,25 H 45.72 L 43.59,31.98 Z M 9.56,28.66 L 12.6,25 H 11.1 L 8.27,28.54 H 8 V 22 H 7 V 32 H 8 V 28.73 H 9.4 L 11.77,32 H 13.2 L 10.74,28.66 H 9.56 Z M 37,26.76 V 25 H 36 V 32 H 37 V 27.8 C 37,26.62 37.78,26.02 38.93,26.02 C 39.18,26.02 39.44,26.05 39.69,26.1 V 25.08 A 1.8,1.8 0 0,0 39.11,25 C 38.62,24.99 38.15,25.17 37.79,25.5 C 37.48,25.78 37.22,26.22 37,26.75 Z M 33,22 H 34 V 32 H 33 V 30.58 H 32.93 C 32.82,31.56 32.07,32.33 30.65,32.33 C 28.91,32.33 27.68,30.95 27.68,28.66 C 27.68,26.38 28.91,25 30.65,25 C 32.07,25 32.82,25.77 32.93,26.75 H 33 V 22 Z M 33,27.74 C 33,26.56 32.1,26.09 31,26.09 C 29.84,26.09 28.97,26.81 28.97,28.66 C 28.97,30.52 29.84,31.24 31,31.24 C 32.1,31.24 33,30.77 33,29.59 V 27.74 Z" fill="rgb(254, 254, 253)"/>
</svg>
