<?xml version="1.0" encoding="UTF-8"?>
<!-- generated by Finnhub -->
<svg viewBox="0 0 55.5 55.5" xmlns="http://www.w3.org/2000/svg">
<path d="M 0,0 H 55.5 V 55.5 H 0 Z" fill="rgb(237, 55, 35)"/>
<path d="M 45.018,24.985 H 25.775 C 25.498,24.445 25.035,24.03 24.574,23.629 C 23.742,22.951 22.787,22.704 21.863,22.889 L 21.709,22.92 L 21.739,22.735 C 21.863,21.749 21.524,20.793 20.815,19.992 C 19.922,18.975 18.535,18.358 17.18,18.358 C 15.855,18.358 14.438,18.975 13.545,19.992 C 12.836,20.762 12.528,21.842 12.652,22.735 L 12.682,22.92 L 12.498,22.89 C 11.635,22.704 10.557,22.982 9.725,23.629 C 8.585,24.523 8,25.94 8,27.328 S 8.616,30.132 9.725,31.026 C 10.557,31.704 11.635,31.982 12.498,31.766 L 12.682,31.736 L 12.652,31.92 C 12.528,32.814 12.867,33.893 13.545,34.663 C 14.469,35.68 15.855,36.297 17.18,36.297 C 18.536,36.297 19.953,35.65 20.815,34.663 C 21.524,33.831 21.863,32.906 21.739,31.92 L 21.709,31.735 L 21.893,31.765 C 22.817,31.951 23.803,31.705 24.604,31.026 C 25.22,30.533 25.621,29.74 25.929,29 H 35.756 C 36.341,29 36.834,29.424 36.834,30.04 C 36.834,30.625 36.372,31 35.756,31 H 35 V 36 H 39 V 32.105 C 39,31.519 39.384,31 40,31 C 40.585,31 41,31.52 41,32.105 V 36 H 45 V 31 H 44.012 C 43.426,31 42.934,30.656 42.934,30.04 C 42.934,29.454 43.426,29 44.012,29 H 45.059 C 46.137,29 47,28.093 47,27.014 C 46.97,25.966 46.107,25 45.028,25 Z M 20.353,29.238 C 19.953,29.238 19.553,29.115 19.213,28.9 L 18.597,29.485 C 18.813,29.793 18.967,30.132 18.967,30.502 C 18.967,31.519 18.135,32.352 17.119,32.352 A 1.854,1.854 0 0,1 15.27,30.502 C 15.27,30.163 15.363,29.793 15.609,29.485 L 14.993,28.9 C 14.623,29.115 14.253,29.238 13.915,29.238 C 13.422,29.238 12.96,29.084 12.621,28.715 A 1.919,1.919 0 0,1 12.066,27.389 C 12.066,26.896 12.251,26.434 12.621,26.095 C 12.96,25.755 13.453,25.54 13.915,25.54 C 14.346,25.54 14.715,25.725 14.993,25.94 L 15.609,25.355 C 15.424,25.108 15.27,24.677 15.27,24.245 C 15.27,23.752 15.455,23.29 15.825,22.951 C 16.163,22.611 16.656,22.396 17.119,22.427 C 17.611,22.427 18.104,22.612 18.443,22.951 C 18.782,23.29 18.967,23.752 18.967,24.245 C 18.967,24.615 18.844,24.955 18.597,25.355 L 19.213,25.941 C 19.583,25.632 19.953,25.54 20.353,25.54 C 20.846,25.54 21.308,25.725 21.647,26.095 C 21.986,26.434 22.201,26.896 22.201,27.389 C 22.201,28.406 21.37,29.239 20.353,29.239 Z" fill="rgb(254, 254, 253)"/>
</svg>
