<?xml version="1.0" encoding="UTF-8"?>
<!-- generated by Finnhub -->
<svg viewBox="0 0 55.5 55.5" xmlns="http://www.w3.org/2000/svg">
<path d="M 0,0 H 55.5 V 55.5 H 0 Z" fill="rgb(232, 1, 39)"/>
<path d="M 43.99,28.985 C 43.747,28.96 43.214,28.615 42.834,27.138 C 42.223,24.773 41.936,22.745 40.901,22.745 C 39.867,22.745 39.397,24.773 38.787,27.138 C 38.426,28.536 38.046,28.924 37.435,28.924 C 36.863,28.924 36.27,28.639 35.398,24.984 C 34.635,21.79 34.116,16 31.557,16 C 28.997,16 28.243,23.545 27.914,25 C 27.508,26.792 26.502,28.924 25.234,28.924 C 23.968,28.924 23.313,27.44 22.934,25.848 C 22.353,23.409 21.693,19.88 20.009,19.88 C 18.325,19.88 17.777,22.802 17.035,25.995 C 16.598,27.876 15.9,29 14.674,29 H 12 C 12.349,29.107 13.046,29.63 13.227,30.77 C 13.651,33.455 13.975,35.118 14.896,35.118 S 16.153,33.685 16.686,31.451 C 17.104,29.701 17.756,28.938 18.536,28.938 C 19.679,28.938 20.218,30.348 20.843,33.041 C 22.087,38.406 22.353,41 24.357,41 C 26.347,41 26.657,38.4 27.994,33.041 C 28.576,30.709 29.662,28.937 30.928,28.937 C 32.194,28.937 33.098,30.654 33.56,32.023 C 34.558,34.99 35.017,36.108 36.116,36.108 S 37.836,34.766 38.805,31.528 C 39.415,29.489 39.505,29 41.3,29 H 44 Z" fill="rgb(254, 254, 253)"/>
</svg>
