<?xml version="1.0" encoding="UTF-8"?>
<!-- generated by Finnhub -->
<svg viewBox="0 0 55.5 55.5" xmlns="http://www.w3.org/2000/svg">
<path d="M 0,0 H 55.5 V 55.5 H 0 Z" fill="url(#b)"/>
<path d="M 50.99,34.985 H 5 V 21 H 51 V 35 Z" fill="rgb(223, 176, 106)"/>
<path d="M 50.006,21.985 H 6 V 34 H 50 L 50.016,22 Z" fill="url(#a)"/>
<path d="M 11.516,27.72 H 11.563 C 11.815,27.458 12.902,26.085 13.117,25.831 C 13.325,25.584 13.467,25.419 13.467,25.291 C 13.467,25.209 13.437,25.157 13.363,25.142 C 13.296,25.127 13.266,25.112 13.266,25.067 C 13.266,25.015 13.303,25 13.385,25 H 15.021 C 15.096,25 15.148,25.015 15.148,25.067 C 15.148,25.12 15.11,25.135 15.036,25.135 C 14.932,25.135 14.746,25.165 14.604,25.217 C 14.374,25.307 14.144,25.441 13.824,25.756 C 13.594,25.98 12.47,27.36 12.217,27.63 C 12.485,27.981 13.92,29.669 14.21,29.946 C 14.538,30.259 14.873,30.574 15.274,30.731 C 15.498,30.821 15.646,30.843 15.736,30.843 C 15.788,30.843 15.832,30.858 15.832,30.903 C 15.832,30.955 15.795,30.978 15.654,30.978 C 15.269,30.978 14.877,31 14.493,30.962 C 14.091,30.926 13.89,30.761 13.571,30.477 C 13.244,30.185 11.801,28.37 11.644,28.153 L 11.562,28.042 H 11.525 V 28.722 C 11.525,29.41 11.525,30.11 11.548,30.432 C 11.562,30.642 11.629,30.806 11.816,30.836 C 11.919,30.851 12.083,30.866 12.18,30.866 C 12.24,30.866 12.277,30.888 12.277,30.926 C 12.277,30.978 12.217,31 12.135,31 H 10.127 C 10.03,31 9.978,30.977 9.978,30.925 C 9.978,30.887 10.008,30.865 10.097,30.865 C 10.209,30.865 10.298,30.851 10.365,30.835 C 10.514,30.805 10.551,30.641 10.581,30.425 C 10.618,30.11 10.618,29.41 10.618,28.721 V 27.406 C 10.618,26.269 10.595,25.823 10.58,25.584 C 10.566,25.329 10.506,25.209 10.26,25.157 A 1.533,1.533 0 0,0 9.97,25.135 C 9.888,25.135 9.844,25.12 9.844,25.067 C 9.844,25.015 9.896,25 10.008,25 H 11.949 C 12.053,25 12.106,25.015 12.106,25.067 C 12.106,25.12 12.061,25.135 12.001,25.135 C 11.927,25.135 11.883,25.142 11.793,25.157 C 11.593,25.195 11.533,25.322 11.518,25.584 C 11.503,25.823 11.525,26.269 11.525,27.406 V 27.735 Z M 17,27.383 C 17,26.246 17,25.778 16.985,25.539 C 16.971,25.285 16.896,25.157 16.732,25.119 A 1.063,1.063 0 0,0 16.464,25.09 C 16.39,25.09 16.346,25.075 16.346,25.015 C 16.346,24.97 16.405,24.955 16.524,24.955 H 18.476 C 18.573,24.955 18.633,24.97 18.633,25.015 C 18.633,25.075 18.588,25.09 18.513,25.09 C 18.439,25.09 18.379,25.098 18.29,25.112 C 18.09,25.15 18.03,25.277 18.015,25.539 C 18,25.778 18,26.246 18,27.383 V 28.7 C 18,29.426 18,30.149 18.03,30.47 C 18.06,30.79 18.143,30.866 18.523,30.866 C 18.604,30.866 18.642,30.889 18.642,30.926 C 18.642,30.978 18.582,31.001 18.5,31.001 H 16.51 C 16.412,31.001 16.36,30.979 16.36,30.926 C 16.36,30.889 16.39,30.866 16.48,30.866 C 16.776,30.866 16.93,30.78 16.963,30.463 C 17,30.149 17,29.426 17,28.7 V 27.384 Z M 20.603,29.983 C 20.618,30.567 20.714,30.761 20.863,30.813 C 20.989,30.858 21.131,30.866 21.25,30.866 C 21.332,30.866 21.376,30.881 21.376,30.926 C 21.376,30.986 21.309,31 21.206,31 H 19.48 C 19.383,31 19.316,30.993 19.316,30.925 C 19.316,30.881 19.36,30.865 19.436,30.865 C 19.532,30.865 19.666,30.858 19.769,30.829 C 19.963,30.769 19.993,30.551 20,29.901 V 25.254 C 20,25.105 20.022,25 20.096,25 C 20.178,25 20.246,25.098 20.371,25.232 C 20.461,25.329 21.476,26.658 22.561,27.742 C 23.067,28.251 23.873,29.291 24,29.41 V 25.853 C 23.993,25.396 23.926,25.254 23.747,25.18 C 23.636,25.135 23.457,25.135 23.353,25.135 C 23.263,25.135 23.233,25.112 23.233,25.067 C 23.233,25.007 23.316,25 23.427,25 H 25.057 C 25.153,25 25.227,25.007 25.227,25.067 C 25.227,25.113 25.183,25.135 25.094,25.135 C 25.019,25.135 24.959,25.135 24.87,25.157 C 24.662,25.217 24.602,25.374 24.595,25.793 V 30.749 C 24.595,30.913 24.566,30.981 24.499,30.981 C 24.417,30.981 24.328,30.898 24.246,30.816 C 23.777,30.367 22.985,29.388 22.211,28.617 C 21.401,27.809 20.736,26.809 20.603,26.667 V 29.983 Z M 28,27.996 C 28,28.183 28.257,28.206 28.401,28.206 C 28.699,28.206 28.796,28.176 28.93,28.079 C 29.153,27.914 29.369,27.334 29.369,26.72 C 29.369,25.658 28.669,25.352 28.23,25.352 C 28.135,25.352 28,25.362 28,25.486 V 27.996 Z M 27,27.162 C 27,26.026 27,25.816 26.985,25.577 C 26.97,25.323 26.803,25.209 26.557,25.157 A 1.537,1.537 0 0,0 26.267,25.135 C 26.185,25.135 26.141,25.12 26.141,25.067 C 26.141,25.015 26.193,25 26.304,25 H 28.371 C 28.841,25 29.339,25.045 29.741,25.322 C 29.949,25.464 30.246,25.846 30.246,26.346 C 30.246,26.9 30.016,27.645 29.265,28.258 C 29.927,29.096 30.44,29.871 30.878,30.334 C 31.296,30.768 31.6,30.821 31.712,30.844 C 31.793,30.858 31.861,30.866 31.919,30.866 C 31.979,30.866 32.009,30.888 32.009,30.926 C 32.009,30.986 31.958,31 31.869,31 H 31.161 C 30.745,31 30.558,30.963 30.365,30.858 C 30.045,30.686 29.763,30.225 29.346,29.649 C 29.049,29.239 28.938,28.729 28.84,28.617 C 28.803,28.572 28.759,28.565 28.707,28.565 L 28.06,28.55 C 28.023,28.55 28,28.565 28,28.61 V 28.715 C 28,29.41 28,30.11 28.037,30.425 C 28.06,30.641 28.104,30.805 28.327,30.836 C 28.439,30.851 28.602,30.866 28.692,30.866 C 28.752,30.866 28.782,30.888 28.782,30.926 C 28.782,30.978 28.729,31 28.632,31 H 26.401 C 26.305,31 26.252,30.978 26.252,30.925 C 26.252,30.888 26.282,30.865 26.371,30.865 C 26.483,30.865 26.571,30.851 26.639,30.836 C 26.788,30.806 26.933,30.634 26.963,30.418 C 27,30.103 27,29.403 27,28.715 V 27.162 Z M 36.696,28.075 C 36.696,26.398 35.736,25.359 34.516,25.359 C 33.661,25.359 32.686,25.838 32.686,27.7 C 32.686,29.256 33.542,30.622 34.97,30.622 C 35.491,30.622 36.696,30.236 36.696,28.075 Z M 31.661,27.932 C 31.661,26.653 32.501,25 34.732,25 C 36.585,25 37.738,26.085 37.738,27.798 C 37.738,29.51 36.547,30.996 34.658,30.996 C 32.523,30.996 31.661,29.256 31.661,27.932 Z M 38.802,30.8 C 38.682,30.749 38.661,30.711 38.661,30.547 C 38.661,30.137 38.691,29.687 38.698,29.567 C 38.705,29.455 38.728,29.373 38.787,29.373 C 38.855,29.373 38.862,29.44 38.862,29.5 C 38.862,29.597 38.892,29.754 38.928,29.881 C 39.092,30.435 39.531,30.637 39.993,30.637 C 40.662,30.637 40.989,30.181 40.989,29.784 C 40.989,29.417 40.878,29.066 40.259,28.587 L 39.918,28.317 C 39.099,27.675 38.818,27.02 38.818,26.414 C 38.818,25.591 39.502,25 40.536,25 C 41.019,25 41.473,25.075 41.666,25.127 C 41.733,25.143 41.77,25.165 41.77,25.217 V 26.115 C 41.77,26.279 41.748,26.339 41.689,26.339 C 41.636,26.339 41.614,26.294 41.614,26.204 C 41.614,26.137 41.577,25.905 41.421,25.711 C 41.309,25.568 40.922,25.344 40.438,25.344 C 39.888,25.344 39.553,25.666 39.553,26.114 C 39.553,26.459 39.725,26.72 40.342,27.192 L 40.55,27.349 C 41.443,28.044 41.77,28.677 41.77,29.388 C 41.77,29.821 41.606,30.338 41.07,30.689 C 40.699,30.929 40.283,30.996 39.888,30.996 C 39.457,30.996 39.122,30.944 38.802,30.801 Z M 43.131,30.8 C 43.012,30.749 42.99,30.711 42.99,30.547 C 42.99,30.137 43.02,29.687 43.027,29.567 C 43.034,29.455 43.057,29.373 43.117,29.373 C 43.183,29.373 43.19,29.44 43.19,29.5 C 43.19,29.597 43.22,29.754 43.257,29.881 C 43.421,30.435 43.86,30.637 44.322,30.637 C 44.99,30.637 45.318,30.181 45.318,29.784 C 45.318,29.417 45.206,28.934 44.589,28.456 L 44.247,28.186 C 43.428,27.543 43.146,27.02 43.146,26.414 C 43.146,25.591 43.83,25 44.864,25 C 45.348,25 45.732,25.147 45.925,25.2 C 45.993,25.215 46,25.237 46,25.29 V 26.187 C 46,26.351 45.978,26.411 45.918,26.411 C 45.866,26.411 45.843,26.366 45.843,26.276 A 0.91,0.91 0 0,0 45.651,25.783 A 1.12,1.12 0 0,0 44.766,25.344 C 44.217,25.344 43.882,25.666 43.882,26.114 C 43.882,26.459 44.053,26.72 44.67,27.192 L 44.879,27.349 C 45.771,28.044 46.099,28.677 46.099,29.388 C 46.099,29.821 45.935,30.338 45.399,30.689 C 45.028,30.929 44.611,30.996 44.217,30.996 C 43.785,30.996 43.451,30.944 43.131,30.801 Z" fill="rgb(223, 176, 106)"/>
<defs>
<linearGradient id="b" x1="10.418" x2="68.147" y1="9.712" y2="76.017" gradientUnits="userSpaceOnUse">
<stop stop-color="rgb(25, 29, 31)" offset="0"/>
<stop stop-color="rgb(5, 5, 8)" offset="1"/>
</linearGradient>
<linearGradient id="a" x1="14.188" x2="19.801" y1="24.081" y2="47.727" gradientUnits="userSpaceOnUse">
<stop stop-color="rgb(25, 29, 31)" offset="0"/>
<stop stop-color="rgb(5, 5, 8)" offset="1"/>
</linearGradient>
</defs>
</svg>
