<?xml version="1.0" encoding="UTF-8"?>
<!-- generated by Finnhub -->
<svg viewBox="0 0 55.5 55.5" xmlns="http://www.w3.org/2000/svg">
<path d="M 0,0 H 55.5 V 55.5 H 0 Z" fill="rgb(28, 59, 107)"/>
<path d="M 25.009999999999998,27.985 V 26.668 C 24.633,26.665 24.387,26.667 24,26.668 C 24,26.187 23.996,25.478 24,24.998 C 23.488,25.001 22.926,25 22.415,25 L 22.424,26.667 L 21.5,26.669 V 28 H 22.423 C 22.425,28.403 22.423,28.631 22.423,29.034 V 29.134 L 22.422,29.21 C 22.422,29.445 22.422,29.68 22.426,29.914 C 22.439,30.549 22.716,31.229 23.263,31.602 C 23.743,31.939 24.342,32.002 24.916,31.994 C 24.444,31.512 24.16,30.808 24.046,30.242 L 24.043,30.226 L 24.041,30.209 A 4.123,4.123 0 0,1 24.008,29.675 A 3.885,3.885 0 0,1 24,29.541 C 23.998,29.427 23.998,29.312 23.998,29.198 C 23.996,28.74 24.001,28.458 24,28 C 24.386,28.001 24.633,28.001 25.02,28 Z M 21.003,25.425 C 21.001,24.968 21.001,24.51 21.003,24.052 C 20.246,23.922 19.253,23.982 18.647,24.512 C 18.103,25.008 17.991,25.954 18.01,26.657 H 17.347 V 28 H 18.017 L 18.023,28.622 H 18.02 C 18.022,29.745 18.022,30.868 18.02,31.992 H 18.733 C 19.015,31.992 19.297,31.992 19.579,31.99 C 19.578,30.85 19.577,29.71 19.579,28.572 L 19.573,28 H 20.744 V 26.658 L 19.566,26.656 C 19.58,26.347 19.55,25.819 19.801,25.59 C 20.103,25.333 20.642,25.41 21.004,25.425 Z M 15.623,31.991 H 17.033 C 17.023,30.966 17.037,29.868 17.018,28.842 C 17.006,28.241 16.862,27.574 16.213,27.292 C 15.285,26.883 13.983,27.053 12.993,27.193 C 12.99,27.628 12.993,28.064 12.992,28.5 C 13.629,28.378 14.538,28.173 15.168,28.381 C 15.462,28.471 15.571,28.744 15.617,28.991 C 15.176,28.941 14.728,28.849 14.283,28.929 C 13.756,28.986 13.233,29.215 12.935,29.614 A 1.434,1.434 0 0,0 13.304,31.672 C 13.972,32.122 14.944,32.074 15.624,31.666 C 15.622,31.729 15.625,31.927 15.624,31.991 Z M 15.553,30.882 C 15.159,30.99 14.677,31.109 14.315,30.865 C 13.985,30.659 14.027,30.162 14.385,30 C 14.751,29.83 15.178,29.889 15.567,29.957 C 15.602,30.265 15.599,30.575 15.553,30.882 Z M 7.778,24.999 C 8.342,25.002 8.906,24.999 9.47,24.999 C 8.644,26.165 7.836,27.345 7.005,28.506 C 7.745,29.666 8.473,30.832 9.219,31.987 C 8.635,31.992 8.049,31.986 7.465,31.991 C 6.813,30.954 6.16,29.918 5.512,28.88 A 820.735,820.735 0 0,0 5.512,31.99 C 5.008,31.987 4.504,31.99 4,31.99 C 4.002,29.66 4.002,27.33 4,25.001 C 4.504,24.999 5.008,25.001 5.512,24.999 C 5.511,26.099 5.509,27.199 5.512,28.298 C 6.265,27.196 7.024,26.099 7.778,24.998 Z M 9.47,27.006 C 9.993,27.003 10.516,27.006 11.04,27.003 C 11.038,27.323 11.037,27.641 11.031,27.96 C 11.285,27.431 11.834,27.087 12.443,26.997 C 12.443,27.47 12.45,27.944 12.436,28.417 C 11.769,28.491 11.083,28.951 11.058,29.617 C 11.04,30.407 11.055,31.199 11.054,31.991 L 9.47,31.99 V 27.006 Z" fill="rgb(254, 254, 253)"/>
<path d="M 37.999,30.776 C 37.79,30.871 37.746,30.911 37.484,30.991 C 37.221,31.071 36.914,31.071 36.651,30.991 C 35.819,30.671 36.345,29.511 36.345,29.511 C 39.761,28.751 39.279,27.071 38.359,26.991 C 37.79,26.991 35.732,27.071 34.768,29.231 C 34.637,29.551 33.717,31.831 35.775,31.991 C 36.213,31.991 36.695,31.951 37.133,31.751 C 37.527,31.551 37.834,31.311 38.097,30.991 C 38.316,30.631 38.009,30.791 38.009,30.791 Z M 37.527,27.591 C 37.79,27.671 37.133,28.871 37.133,28.871 C 36.87,28.951 36.607,29.031 36.433,29.031 C 36.52,28.871 37.002,27.351 37.527,27.591 Z M 45.98,31.278 C 45.936,31.238 45.848,31.238 45.805,31.199 C 45.542,31.041 45.761,30.607 45.805,30.37 L 46.593,27.845 C 46.637,27.687 46.943,26.859 45.717,27.017 C 44.666,27.174 43.921,27.767 43.921,27.767 C 44.009,27.53 44.096,27.174 43.921,27.095 C 43.702,27.017 42.432,27.372 42.126,27.608 C 42.038,27.608 41.906,27.727 42.038,27.845 C 42.169,28.003 42.213,28.121 42.126,28.398 C 41.95,28.871 41.425,30.528 41.293,30.844 C 41.163,31.16 40.987,31.752 41.293,31.949 C 41.513,32.107 42.433,31.752 42.563,31.672 A 0.968,0.968 0 0,0 42.87,31.515 C 43.045,31.357 42.783,31.278 43.045,30.449 C 43.045,30.409 43.352,29.581 43.571,28.871 C 43.746,28.279 44.359,28.003 44.578,27.964 C 44.928,27.924 44.841,28.2 44.798,28.398 C 44.491,29.266 44.14,30.568 44.008,30.884 C 43.878,31.199 43.658,31.831 44.008,31.949 C 44.315,32.146 45.717,31.594 45.848,31.515 C 46.111,31.357 46.111,31.278 45.98,31.278 Z" fill="rgb(254, 68, 66)"/>
<path d="M 40.627,31.247 C 40.549,31.222 40.506,31.222 40.462,31.182 C 40.199,31.022 40.374,30.579 40.462,30.338 L 41.294,27.766 C 41.338,27.485 41.513,27.123 41.294,27.003 C 41.031,26.923 39.761,27.283 39.454,27.525 A 0.136,0.136 0 0,0 39.41,27.766 C 39.542,27.926 39.542,28.047 39.455,28.329 C 39.323,28.811 38.71,30.539 38.578,30.861 C 38.448,31.182 38.272,31.825 38.666,31.946 C 38.973,32.146 40.286,31.624 40.462,31.504 C 40.768,31.383 40.768,31.262 40.637,31.262 Z M 40.374,25.921 C 40.462,26.092 41.25,25.75 41.644,25.535 C 41.688,25.492 41.864,25.363 41.907,25.235 C 41.995,24.935 42.039,24.806 42.082,24.592 C 42.126,24.506 42.126,24.378 41.995,24.334 C 41.82,24.291 40.768,24.42 40.505,24.849 C 40.418,25.02 40.111,25.835 40.375,25.921 Z M 51.974,29.584 C 51.842,29.127 51.054,29.002 50.748,29.251 C 50.572,29.417 50.485,29.751 50.528,29.833 C 51.273,29.626 51.404,30.249 51.273,30.498 C 51.01,30.873 50.923,30.998 50.573,30.998 H 48.25 C 48.206,30.956 48.162,30.914 48.25,30.831 C 48.381,30.665 50.797,27.416 50.884,27.291 C 50.928,27.208 51.059,27 50.753,27 H 48.213 C 47.95,27 47.818,27.083 47.6,27.291 C 47.424,27.499 47.315,27.86 47.183,28.276 C 47.183,28.276 47.183,28.442 47.446,28.234 C 47.49,28.192 47.577,28.026 47.709,28.026 H 49.124 C 49.606,28.026 47.074,30.576 46.286,31.781 C 46.154,31.989 46.373,31.989 46.505,31.989 H 49.833 C 50.665,31.989 50.534,32.113 50.972,31.531 C 50.972,31.531 52.192,30.166 51.972,29.584 Z M 33.782,30.638 L 34.724,27.249 C 35.337,25.289 35.688,25.2 35.907,25 H 34.462 C 33.936,25 33.542,25.69 33.454,26.13 L 32.888,27.996 H 31.574 S 32.315,25.569 32.403,25.289 C 32.447,25.169 32.447,25 32.184,25 C 32.14,25 29.381,24.93 28.504,25.21 C 28.111,25.33 27.541,25.65 27.366,26.13 C 27.235,26.41 27.06,26.93 27.454,27.89 C 27.498,28.009 27.585,28.09 27.629,28.13 C 27.76,28.209 28.899,28.05 28.855,28.05 C 28.943,28.05 28.987,28.009 28.899,27.85 C 28.811,27.65 28.549,27.29 28.505,26.93 C 28.33,25.53 29.425,25.33 29.6,25.29 C 29.863,25.25 30.082,25.25 30.344,25.29 C 30.432,25.29 30.651,25.33 30.694,25.41 C 30.782,25.57 30.651,25.85 30.564,26.17 C 30.476,26.41 29.731,28.889 29.512,29.569 C 29.381,30.089 28.812,31.209 28.242,31.369 A 0.98,0.98 0 0,1 27.76,31.369 C 27.585,31.329 27.41,31.249 27.279,31.169 C 26.929,30.849 26.709,30.209 26.665,29.729 C 26.622,29.129 26.753,28.689 26.622,28.689 C 26.393,28.689 25.63,28.965 25.32,29.167 L 25.319,29.168 C 25.193,29.25 25.185,29.266 25.185,29.266 A 0.085,0.085 0 0,0 25.171,29.283 C 25.09,29.408 25.095,29.856 25.133,30.129 C 25.264,30.729 25.615,31.409 26.14,31.729 C 27.541,32.609 29.994,31.009 30.257,30.849 C 30.651,30.529 30.914,30.089 31.001,29.769 C 31.133,29.369 31.295,28.991 31.295,28.991 H 32.609 L 31.986,31.078 C 31.855,31.438 31.766,32.038 32.117,31.998 C 33.431,31.998 33.957,31.558 34.001,31.518 A 0.114,0.114 0 0,0 34.001,31.358 A 0.568,0.568 0 0,1 33.781,30.638 Z" fill="rgb(254, 68, 66)"/>
</svg>
