<?xml version="1.0" encoding="UTF-8"?>
<!-- generated by Finnhub -->
<svg viewBox="0 0 55.5 55.5" xmlns="http://www.w3.org/2000/svg">
<path d="M 0,0 H 55.5 V 55.5 H 0 Z" fill="rgb(91, 21, 93)"/>
<path d="M 14.765,33.985 L 9.31,27.685 L 6,30.353 V 34 H 4 V 22 H 6 V 28.213 L 13.85,22 H 16.567 L 10.755,26.54 L 17.195,34 H 14.775 Z M 32.763,34 L 27.298,27.685 L 24,30.353 V 34 H 22 V 22 H 24 V 28.213 L 31.837,22 H 34.555 L 28.742,26.54 L 35.184,34 H 32.764 Z M 49.814,34 L 46.737,29 H 41 V 34 H 39 V 22 H 48.072 C 50.46,22 51.903,23.284 51.903,25.604 C 51.903,27.724 50.647,28.603 48.951,28.9 L 52,34 H 49.813 Z M 49.974,25.604 C 49.974,24.277 49.201,24 47.619,24 H 41 V 27 H 47.788 C 49.201,27 49.973,26.78 49.973,25.604 Z" fill="rgb(254, 254, 253)"/>
</svg>
