<?xml version="1.0" encoding="UTF-8"?>
<!-- generated by Finnhub -->
<svg viewBox="0 0 55.5 55.5" xmlns="http://www.w3.org/2000/svg">
<path d="M 0,0 H 55.5 V 55.5 H 0 Z" fill="rgb(239, 242, 248)"/>
<circle cx="28" cy="28" r="2" fill="rgb(39, 39, 38)"/>
<rect x="26.6" y="11" width="2.86" height="10" rx="1.43" fill="rgb(249, 54, 73)"/>
<rect x="26.57" y="35" width="2.86" height="10" rx="1.43" fill="rgb(1, 109, 248)"/>
<rect transform="rotate(-90 11 29.43)" x="11" y="29.43" width="2.86" height="10" rx="1.43" fill="rgb(179, 219, 2)"/>
<rect transform="rotate(-90 35 29.43)" x="35" y="29.43" width="2.86" height="10" rx="1.43" fill="rgb(1, 159, 118)"/>
<path d="M 15.98,18.044999999999998 A 1.43,1.43 0 0,1 18.01,16.04 L 22.85,20.88 A 1.43,1.43 0 0,1 20.83,22.9 L 15.99,18.06 Z" fill="rgb(254, 204, 2)"/>
<path d="M 15.950000000000001,37.925 A 1.43,1.43 0 0,0 17.98,39.96 L 22.82,35.12 A 1.43,1.43 0 0,0 20.8,33.1 L 15.96,37.94 Z" fill="rgb(64, 189, 253)"/>
<path d="M 40.06,18.044999999999998 A 1.43,1.43 0 0,0 38.04,16.04 L 33.2,20.88 A 1.43,1.43 0 0,0 35.23,22.9 L 40.07,18.06 Z" fill="rgb(59, 209, 173)"/>
<path d="M 40.03,37.925 A 1.43,1.43 0 0,1 38.02,39.96 L 33.18,35.12 A 1.43,1.43 0 0,1 35.2,33.1 L 40.04,37.94 Z" fill="rgb(254, 169, 2)"/>
</svg>
