<?xml version="1.0" encoding="UTF-8"?>
<!-- generated by Finnhub -->
<svg viewBox="0 0 55.5 55.5" xmlns="http://www.w3.org/2000/svg">
<path d="M 0,0 H 55.5 V 55.5 H 0 Z" fill="rgb(3, 50, 95)"/>
<path d="M 22.99,31.985 H 28 V 34 H 23 V 32 Z M 29,32 H 34 V 34 H 29 V 32 Z M 35,32 H 40 V 34 H 35 V 32 Z M 41,32 H 46 V 34 H 41 V 32 Z M 47,32 H 52 V 34 H 47 V 32 Z M 7.747,28 C 7.717,28.527 7.505,28.603 7.196,28.603 C 6.594,28.603 6.544,27.92 6.544,27.005 C 6.544,26.039 6.602,25.406 7.22,25.406 C 7.514,25.406 7.77,25.484 7.798,26 H 10 C 9.991,24.235 8.692,23.842 7.17,23.842 C 5.13,23.842 4.01,25.107 4.069,26.979 C 4.069,28.886 5.048,30.168 7.162,30.168 C 8.66,30.168 10,29.657 10,28 H 7.747 Z M 12.017,30 H 9.717 L 11.657,24 H 14.769 L 16.717,30 H 14.232 L 13.998,29 H 12.26 L 12.017,30 Z M 13.181,25.345 L 12.652,27.605 H 13.677 L 13.199,25.345 H 13.181 Z M 19,30 H 16.996 V 24 H 20.358 C 21.64,24 22.394,24.39 22.394,25.52 C 22.394,26.211 22.104,26.734 21.211,26.95 V 26.967 C 21.789,27.017 22.104,27.274 22.221,27.732 C 22.334,28.177 22.391,28.732 22.479,29.582 L 22.522,30 H 20.375 C 20.242,29.172 20.225,28.907 20.211,28.706 A 3.848,3.848 0 0,0 20.164,28.28 C 20.115,27.982 19.966,27.866 19.585,27.866 H 19.001 V 30 Z M 19,25.248 V 26.378 H 19.385 C 19.84,26.378 20.171,26.221 20.171,25.776 C 20.171,25.34 19.865,25.248 19.402,25.248 H 19.001 Z" fill="rgb(254, 212, 30)"/>
<path d="M 22.99,29.985 H 25.426 V 26.295 C 25.426,25.817 25.636,25.626 25.866,25.626 S 26.288,25.853 26.288,26.271 V 30 H 28.712 V 26.295 C 28.712,25.817 28.922,25.626 29.154,25.626 C 29.384,25.626 29.574,25.853 29.574,26.271 V 30 H 32 V 26.045 C 32,24.455 31.268,23.859 30.256,23.859 C 29.684,23.859 29.082,24.085 28.672,24.945 C 28.362,24.205 27.801,23.859 27.029,23.859 C 26.457,23.859 25.856,24.085 25.446,24.945 H 25.426 L 25.366,24 H 23 V 30 Z M 43.512,30 H 45.94 L 44.276,26.773 L 45.631,24 H 43.102 L 42.43,25.909 L 41.62,24 H 39.09 L 40.564,26.773 L 38.94,30 H 41.396 L 42.43,27.797 L 43.512,30 Z" fill="rgb(254, 254, 253)"/>
<path d="M 36.111000000000004,26.339 H 36.455 V 25.739 C 36.455,25.444 36.305,25.266 35.914,25.266 C 35.567,25.266 35.382,25.503 35.346,26 H 33.037 C 33.13,24.403 34.561,23.941 36.028,23.941 C 38.256,23.941 39,24.663 39,26.046 V 30 H 36.525 L 36.455,29.487 C 36.051,30.032 35.439,30.232 34.805,30.232 C 33.625,30.232 32.794,29.594 32.794,28.423 C 32.794,26.957 33.949,26.354 36.121,26.354 Z M 35.631,28.798 C 36.117,28.798 36.267,28.478 36.267,27.993 V 27.496 H 35.885 C 35.147,27.496 34.984,27.852 34.984,28.182 C 34.984,28.56 35.204,28.798 35.631,28.798 Z" fill="rgb(254, 254, 253)"/>
</svg>
