<?xml version="1.0" encoding="UTF-8"?>
<!-- generated by Finnhub -->
<svg viewBox="0 0 55.5 55.5" xmlns="http://www.w3.org/2000/svg">
<path d="M 0,0 H 55.5 V 55.5 H 0 Z" fill="rgb(236, 27, 34)"/>
<path d="M 44.096000000000004,33.245 L 43.957,33.389 C 43.747,33.574 43.529,33.772 43.267,33.673 C 43.194,33.647 43.144,33.553 43.131,33.479 C 43.119,32.949 43.363,32.457 43.599,31.979 L 43.659,31.853 C 44.337,30.741 45.126,29.43 46.284,28.521 C 46.48,28.382 46.691,28.266 46.914,28.357 C 46.966,28.404 47.026,28.487 47.026,28.568 A 0.352,0.352 0 0,1 46.989,28.684 C 46.666,29.198 46.358,29.737 46.058,30.254 C 45.472,31.276 44.865,32.332 44.106,33.259 Z M 37.83,30.638 C 37.786,30.668 37.003,30.409 36.852,29.698 C 36.724,29.085 37.153,28.607 37.569,28.366 A 0.73,0.73 0 0,1 38.213,28.249 C 38.396,28.369 38.446,28.586 38.446,28.818 C 38.446,28.961 38.426,29.108 38.409,29.241 L 38.406,29.271 C 38.276,29.749 38.076,30.219 37.83,30.638 Z M 34.841,33.531 A 0.67,0.67 0 0,1 34.732,33.15 C 34.717,32.304 35.643,30.79 36.297,29.965 H 36.299 C 36.572,30.555 37.193,30.933 37.568,31.093 C 37.102,32.11 35.507,34.29 34.841,33.531 Z M 46.134,33.681 C 45.979,33.784 45.762,33.705 45.843,33.468 C 46.046,32.864 46.851,31.634 46.851,31.634 L 49.127,27.55 H 47.59 C 47.517,27.668 47.36,27.939 47.36,27.939 C 47.29,27.823 47.077,27.564 46.99,27.508 C 46.614,27.275 46.063,27.385 45.683,27.596 C 44.03,28.546 42.793,30.596 41.843,32.057 C 41.843,32.057 40.841,33.682 40.286,33.803 C 39.852,33.837 39.896,33.263 39.916,33.13 C 40.083,32.164 40.473,31.246 40.866,30.413 A 21.171,21.171 0 0,0 43.402,28.378 C 45.198,26.692 46.712,24.782 46.934,24.356 C 46.934,24.356 46.694,24.403 46.411,24.412 C 45.029,26.305 42.201,29.055 41.344,29.465 C 41.724,28.568 44.178,24.287 46.266,22.239 L 46.594,21.929 C 47.103,21.441 47.629,20.941 48.039,20.859 C 48.083,20.854 48.139,20.859 48.187,20.959 C 48.205,21.337 48.061,21.618 47.897,21.937 L 47.665,22.403 S 47.992,22.343 48.208,22.273 C 48.458,21.812 48.708,21.099 48.607,20.483 A 0.462,0.462 0 0,0 48.235,20.099 C 47.612,19.982 46.959,20.63 46.412,20.997 L 46.39,21.01 C 43.582,23.17 41.21,26.283 39.138,30.534 C 38.988,30.646 38.407,30.78 38.308,30.715 C 38.513,30.302 38.771,29.745 38.9,29.142 C 38.922,28.969 38.943,28.792 38.943,28.62 C 38.943,28.249 38.853,27.9 38.513,27.658 C 38.117,27.464 37.626,27.555 37.295,27.701 C 35.813,28.305 34.705,29.797 33.907,31.026 C 33.477,31.806 33.048,32.642 32.93,33.6 C 32.846,34.35 32.973,35.537 33.408,35.778 C 33.855,36.002 34.417,35.77 34.638,35.658 C 36.138,34.882 37.231,32.621 38.058,31.198 C 38.09,31.194 38.542,31.181 38.883,31.094 C 38.888,31.094 38.89,31.094 38.897,31.099 C 38.877,31.163 38.701,31.681 38.701,31.681 C 38.177,33.19 37.82,35.05 38.315,35.657 C 39.022,36.516 40.308,34.794 41.261,33.621 C 41.056,35.027 41.683,36.081 42.249,35.972 C 42.899,35.8 43.737,34.285 44.073,33.936 C 43.965,34.346 43.88,35.912 44.471,35.986 C 44.876,36.059 45.179,35.843 45.53,35.657 C 46.788,34.984 48.409,31.91 48.8,31.261 H 48.287 C 47.731,32.086 47.024,33.168 46.134,33.681 Z M 26.73,25.249 L 28.191,25.311 L 28.97,23.901 H 27.53 L 26.73,25.249 Z M 49.753,21.868 C 48.655,22.48 47.517,22.877 46.139,22.738 C 45.757,23.161 45.386,23.597 45.043,24.045 C 46.977,24.528 49.027,23.455 50.17,22.433 C 51.38,21.403 52,20.105 52,20.105 S 51.093,21.122 49.753,21.868 Z M 37.733,21.692 C 37.505,24.27 35.563,25.425 35.059,25.546 C 34.753,25.606 34.042,25.679 34.508,24.597 C 35.194,23.14 36.455,22.054 37.713,21.42 C 37.743,21.528 37.743,21.597 37.733,21.692 Z M 33.668,28.038 C 33.522,27.728 33.175,27.529 32.805,27.55 C 31.603,27.658 30.428,28.628 29.811,30.021 C 29.487,30.737 29.311,31.327 29.195,32.267 C 29.568,31.845 30.33,31.151 31.195,30.771 C 31.195,30.771 31.313,29.871 31.913,29.068 C 32.14,28.736 32.594,28.202 33.104,28.344 C 33.55,28.491 33.394,29.702 32.801,30.874 A 8.149,8.149 0 0,1 31.013,33.194 C 30.413,33.694 29.525,34.298 28.748,33.833 C 28.259,33.548 28.009,32.953 28.062,32.186 C 28.296,30.008 29.305,28.154 30.75,26.041 C 32.24,24.08 33.97,22.218 36.182,21.144 C 36.632,20.92 37.051,20.869 37.412,21.006 C 37.412,21.006 35.107,21.971 34.118,24.046 C 33.866,24.571 33.554,25.412 33.907,26.041 C 34.091,26.369 34.418,26.395 34.682,26.378 C 35.895,26.102 37.11,24.856 37.751,23.838 C 38.121,23.067 38.21,22.459 38.21,21.606 C 38.21,21.502 38.205,21.364 38.196,21.261 C 38.776,20.959 39.964,21.494 39.964,21.494 C 40.892,21.796 42.781,23.131 43.448,23.416 C 43.774,23.045 44.308,22.484 44.609,22.204 L 44.174,21.941 C 43.476,21.523 42.738,21.126 42.012,20.734 C 40.364,19.85 39.148,20.025 38.465,20.267 C 38.196,20.362 37.951,20.444 37.951,20.444 C 37.444,19.9 36.612,19.952 36,20.099 C 33.797,20.719 31.626,22.368 29.433,24.994 C 27.821,27.05 26.821,28.827 26.288,30.581 C 25.878,31.763 25.654,34.256 26.657,35.287 C 27.509,36.162 28.64,35.972 29.438,35.657 C 31.168,34.821 32.821,32.263 33.595,30.189 C 33.782,29.573 33.99,28.702 33.668,28.038 Z M 14.495,26.038 L 14.202,26.701 C 14.159,26.736 14.093,26.718 14.017,26.701 L 13.887,26.68 C 13.477,26.555 13.167,26.287 13.072,25.968 C 12.94,25.348 13.48,24.86 13.718,24.683 C 13.947,24.528 14.302,24.446 14.508,24.606 C 14.635,24.752 14.683,24.942 14.683,25.149 C 14.683,25.429 14.595,25.744 14.495,26.037 Z M 13.87,27.283 S 13.857,27.323 13.85,27.335 L 13.19,28.391 C 12.791,28.913 12.294,29.568 11.673,29.883 C 11.489,29.943 11.235,29.983 11.105,29.823 C 10.83,29.499 10.972,29.051 11.087,28.689 L 11.127,28.559 C 11.457,27.68 11.981,26.904 12.491,26.184 A 0.068,0.068 0 0,1 12.517,26.175 C 12.518,26.179 12.52,26.179 12.521,26.188 C 12.841,26.792 13.441,27.072 13.89,27.201 C 13.892,27.201 13.895,27.206 13.895,27.214 C 13.895,27.227 13.888,27.244 13.87,27.284 Z M 22.12,26.589 C 22.416,26.189 23.253,25.052 23.462,24.871 C 24.166,24.263 24.448,24.531 24.472,24.72 C 23.815,25.875 23.061,27.262 22.332,28.452 C 22.333,28.447 22.104,28.792 22.104,28.792 C 21.782,29.275 21.457,29.689 20.929,29.978 C 20.853,29.999 20.729,30.008 20.646,29.948 A 0.292,0.292 0 0,1 20.518,29.663 C 20.55,29.293 20.934,28.158 22.121,26.589 Z M 14.81,23.968 C 13.899,23.381 12.07,24.502 10.604,26.425 C 9.264,28.15 8.547,30.519 9.176,31.446 C 10.113,32.537 11.991,30.586 12.73,29.736 L 12.826,29.637 C 13.329,29.107 13.717,28.469 14.093,27.857 L 14.455,27.27 A 8.25,8.25 0 0,0 15.216,27.089 C 15.212,27.102 14.106,28.926 14.22,29.831 C 14.255,30.107 14.213,31.594 15.216,31.901 C 16.553,32.121 17.636,30.625 18.578,29.719 L 18.829,29.482 L 18.776,29.693 C 18.385,31.03 18.876,31.797 19.206,31.9 C 20.203,32.185 21.432,30.276 21.436,30.276 C 21.404,30.724 21.401,31.603 21.882,31.9 C 22.337,32.06 22.945,31.675 23.294,31.446 C 24.553,30.576 25.331,28.846 26.15,27.667 H 25.627 C 25.621,27.667 24.338,29.493 23.506,29.89 C 23.506,29.89 23.353,29.966 23.266,29.906 C 23.157,29.816 23.2,29.627 23.266,29.494 L 26.426,23.839 H 24.91 S 24.744,24.102 24.731,24.119 C 24.721,24.11 24.696,24.065 24.68,24.043 C 23.74,22.767 21.668,24.907 20.066,27.183 C 19.449,28.058 18.664,29.043 17.85,29.755 C 17.85,29.755 16.644,30.841 16.128,30.061 C 15.94,29.733 15.998,29.254 16.104,28.939 C 16.704,27.262 17.717,25.678 18.894,24.759 C 19.225,24.505 19.586,24.431 19.766,24.539 C 19.936,24.639 19.964,24.884 19.856,25.052 A 0.854,0.854 0 0,0 19.184,25.307 C 18.832,25.669 18.732,26.081 18.844,26.408 C 19.387,27.167 20.448,25.604 20.395,24.69 C 20.377,24.362 20.332,23.99 20.066,23.838 C 19.67,23.606 19.066,23.666 18.675,23.852 C 18.151,24.046 17.19,24.785 16.705,25.311 C 16.097,25.971 15.075,26.766 14.748,26.684 C 14.855,26.404 15.737,24.631 14.809,23.968 Z M 22.5,33.298 C 20.714,32.168 18.222,32.233 14.313,33.298 C 10.145,34.26 8.756,34.876 6.931,33.638 C 6.23,33.031 5.979,32.052 6.166,30.642 C 6.602,28.344 7.778,26.132 9.868,23.679 C 11.034,22.403 12.116,21.308 13.544,20.868 C 14.639,20.592 14.537,21.437 14.404,21.558 C 14.264,21.558 14.03,21.579 13.848,21.695 C 13.701,21.808 13.297,22.17 13.275,22.657 C 13.244,23.403 14.03,23.247 14.369,22.838 C 14.734,22.377 15.274,21.493 14.849,20.669 C 14.671,20.376 14.364,20.174 13.982,20.105 C 12.674,20.031 11.455,20.643 10.331,21.32 C 7.873,22.998 5.906,25.322 4.793,27.866 C 4.151,29.4 3.571,31.599 4.44,33.389 C 5.113,34.63 6.568,36.123 8.235,35.985 C 9.405,35.865 10.5,35 11.673,34.531 C 12.623,34.307 17.93,33.127 19.529,35.985 C 19.529,35.985 20,35 20.988,34.393 C 21.975,33.786 23.42,34.126 24.568,34.953 C 24,34.5 23.404,33.871 22.5,33.298 Z" fill="rgb(254, 254, 253)"/>
</svg>
