<?xml version="1.0" encoding="UTF-8"?>
<!-- generated by Finnhub -->
<svg viewBox="0 0 55.5 55.5" xmlns="http://www.w3.org/2000/svg">
<path d="M 0,0 H 55.5 V 55.5 H 0 Z" fill="rgb(3, 103, 177)"/>
<path d="M 22.637999999999998,25.123 S 22.43,25.028 22.038,25.033 C 21.344,25.043 20.861,25.479 20.861,25.479 L 20.684,25 H 19.34 L 19.331,32 H 21.005 V 27.787 C 21.005,27.401 21.192,27.214 21.344,27.079 C 21.789,26.684 22.648,26.671 22.648,26.671 V 25.138 Z M 43.695,25.137 S 43.475,25.027 43.084,25.033 A 1.943,1.943 0 0,0 41.907,25.478 L 41.731,25 H 40.385 L 40.378,32 H 42 V 27.787 C 42,27.401 42.237,27.213 42.387,27.078 C 42.836,26.683 43.695,26.671 43.695,26.671 V 25.137 Z M 24.39,28.569 C 24.39,27.317 24.707,26.411 25.512,26.411 C 26.32,26.411 26.634,27.317 26.634,28.569 C 26.634,29.822 26.32,30.729 25.512,30.729 C 24.707,30.729 24.389,29.822 24.389,28.569 Z M 28.252,28.575 C 28.252,26.64 27.317,25.075 25.506,25.075 C 23.738,25.075 22.761,26.64 22.761,28.575 C 22.761,30.506 23.602,32.075 25.506,32.075 C 27.374,32.075 28.252,30.506 28.252,28.575 Z M 37.153,26.41 C 37.7,26.41 38.019,26.908 38.172,27.56 H 36.142 C 36.292,26.908 36.613,26.41 37.153,26.41 Z M 38.35,29.257 C 38.247,30.139 37.919,30.728 37.27,30.728 C 36.483,30.728 36.16,29.938 36.147,28.725 H 40.009 C 40.029,28.085 39.901,27.559 39.901,27.559 H 39.898 C 39.603,26.163 38.715,25.074 37.262,25.074 C 35.492,25.074 34.517,26.64 34.517,28.574 C 34.517,30.506 35.36,32.075 37.262,32.075 C 38.904,32.075 39.781,30.865 39.968,29.257 H 38.35 Z" fill="rgb(254, 254, 253)"/>
<path d="M 31.383999999999997,30.762 C 30.587,30.777 30.264,29.854 30.264,28.58 C 30.264,27.304 30.587,26.379 31.394,26.379 C 32.206,26.379 32.521,27.304 32.521,28.579 C 32.521,29.854 32.206,30.777 31.394,30.777 Z M 34,32.361 C 33.995,31.844 34,25.027 34,25.027 H 32.36 V 25.415 C 32.144,25.19 31.7,25.049 31.387,25.042 C 29.609,24.998 28.628,26.612 28.628,28.583 C 28.628,30.553 29.475,32.131 31.39,32.131 C 31.763,32.131 32.091,31.976 32.386,31.861 C 32.467,33.247 32.515,37.821 29.454,37.917 C 26.136,37.99 26.467,33 26.467,33 H 24.661 S 24.418,39.11 29.256,39.11 C 34.498,39.11 34.008,32.878 34,32.361 Z M 21.727,18.055 C 19.531,18.055 18.287,19.305 17.677,20.775 H 17.673 C 17.663,20.802 17.653,20.828 17.644,20.857 L 17.634,20.877 A 5.096,5.096 0 0,0 17.308,22.394 C 17.41,26.074 15.67,26.302 15.67,26.302 C 15.641,25.988 15.67,22 15.67,22 H 14 V 32 H 15.676 V 27.87 C 15.676,27.699 17.189,27.86 17.291,29.774 C 17.301,29.944 17.291,32 17.291,32 H 19 C 18.962,31.726 19.387,27.3 17.173,27.265 C 16.821,27.259 18.997,26.755 18.931,23.45 A 6.899,6.899 0 0,1 19.156,21.47 C 19.522,20.289 20.182,19.226 21.54,19.208 C 24.6,19.168 24.253,24 24.292,24 H 25.996 C 25.997,24 26.298,18.055 21.726,18.055 Z" fill="rgb(254, 254, 253)"/>
<path d="M 26.369999999999997,43.369 C 18.969,42.797 12.783,39.094 10.064,33.618 C 8.554,30.576 8.318,27.124 9.405,23.943 C 10.168,21.712 11.258,20.027 13.116,18.21 C 14.554,16.805 15.897,15.839 17.628,14.966 C 19.791,13.876 21.793,13.223 24.34,12.778 C 25.851,12.514 30.104,12.513 31.638,12.776 C 36.292,13.574 39.938,15.336 42.874,18.205 C 44.296,19.595 45.084,20.641 45.864,22.175 C 47.869,26.118 47.72,30.655 45.457,34.527 C 43.102,38.557 38.534,41.653 33.147,42.87 C 31.39,43.266 28.076,43.518 26.381,43.384 Z M 31.852,42.198 C 36.104,41.454 39.616,39.728 42.332,37.046 C 47.755,31.691 47.731,24.126 42.272,18.789 C 40.892,17.442 39.542,16.502 37.656,15.58 C 31.141,12.392 22.986,12.688 16.905,16.332 C 10.825,19.977 8.235,26.234 10.385,32.092 C 12.331,37.395 18.038,41.387 25.038,42.341 C 26.691,42.566 30.165,42.494 31.852,42.199 V 42.198 Z" fill="rgb(254, 254, 253)"/>
</svg>
