<?xml version="1.0" encoding="UTF-8"?>
<!-- generated by Finnhub -->
<svg viewBox="0 0 55.5 55.5" xmlns="http://www.w3.org/2000/svg">
<path d="M 0,0 H 55.5 V 55.5 H 0 Z" fill="rgb(228, 239, 221)"/>
<path d="M 3.99,23.985 H 7 V 26.75 H 7.021 L 9.83,24 H 13.524 L 10.198,27.373 L 14,32 H 9.83 L 7.02,28.726 H 7 V 32 H 4 V 24 Z M 18.847,30.438 C 20.321,30.438 20.224,28.546 20.224,27.921 S 20.24,25.563 18.847,25.563 C 17.453,25.563 17.47,27.296 17.47,27.921 S 17.372,30.438 18.847,30.438 Z M 18.847,24 C 22.61,24 23.634,24.908 23.634,28 C 23.634,31.093 22.61,32 18.847,32 C 15.083,32 14.06,31.093 14.06,28 C 14.06,24.908 15.083,24 18.847,24 Z M 31,29 V 32 H 34 V 24 H 31 V 27 H 28 V 24 H 25 V 32 H 28 V 29 H 31 Z M 36,24 H 39 V 30 S 42.054,30.01 42.423,30.01 C 42.793,30.01 43.011,29.605 43.011,29.605 V 32 H 36 V 24 Z M 51,26.554 C 50.28,25.908 49.791,25.69 49.127,25.678 C 48.479,25.666 47.886,25.918 47.886,26.361 C 47.886,26.711 48.329,26.855 49.879,27.217 C 51.152,27.517 52,28.245 52,29.602 C 52,31.134 49.727,32 47.693,32 C 46.266,32 44.981,31.712 44,31.219 V 29.163 C 44.606,29.872 46.151,30.248 47.19,30.248 C 47.767,30.248 48.05,30.153 48.05,29.639 C 48.05,29.321 47.69,29.031 46.602,28.808 C 44.54,28.384 43.844,27.723 43.844,26.592 C 43.844,24.967 45.646,24 47.866,24 C 49.063,24 50.033,24.042 51,24.546 V 26.554 Z" fill="rgb(115, 181, 74)"/>
<path d="M 41.063,26.985 C 41.16,26.814 41.311,26.531 41.311,26.531 C 40.594,26.136 40.382,25.129 40.746,24.555 C 41.138,23.938 42.226,23.673 42.814,24.629 C 43.666,26.018 41.829,26.945 41.073,27 Z" fill="rgb(115, 181, 74)"/>
</svg>
