<?xml version="1.0" encoding="UTF-8"?>
<!-- generated by Finnhub -->
<svg viewBox="0 0 55.5 55.5" xmlns="http://www.w3.org/2000/svg">
<path d="M 0,0 H 55.5 V 55.5 H 0 Z" fill="rgb(239, 242, 248)"/>
<path d="M 7.99,27.985 V 20 H 9.6 V 26.41 H 12.5 V 28 H 8 Z M 15,20 H 13.5 V 21 H 15 V 20 Z M 15,22 H 13.5 V 28 H 15 V 22 Z M 26,20 H 27.5 V 21 H 26 V 20 Z M 26,22 H 27.5 V 28 H 26 V 22 Z M 18,20 H 16.5 V 22 H 15.5 V 23.5 H 16.5 V 28 H 18 V 23.5 H 19 V 22 H 18 V 20 Z M 20,20 H 21.5 V 22.67 A 2.4,2.4 0 0,1 23.11,22 C 24.41,22 25.01,23.1 25.01,24.05 V 28 H 23.5 V 24.46 C 23.48,24.16 23.1,23.53 22.37,23.53 C 22,23.53 21.71,23.73 21.5,23.97 V 28 H 20 V 20 Z M 32.5,26.87 A 2.67,2.67 0 0,1 30.42,28 C 29.11,28 28.5,26.9 28.5,25.95 V 22 H 30 V 25.54 C 30.02,25.84 30.43,26.47 31.17,26.47 S 32.38,25.71 32.5,25.33 V 22 H 34 V 28 H 32.5 V 26.87 Z M 36.5,22 H 35 V 28 H 36.5 V 22 Z M 36.5,23.13 C 36.74,22.75 37.5,22 38.53,22 C 39.32,22 39.85,22.4 40.14,22.94 C 40.46,22.54 41.12,22 42,22 C 43.3,22 44,23.1 44,24.05 V 28 H 42.5 V 24.46 C 42.48,24.16 42,23.53 41.27,23.53 C 40.91,23.53 40.63,23.71 40.42,23.93 V 28 H 38.76 V 24.46 C 38.74,24.16 38.52,23.53 37.79,23.53 S 36.62,24.29 36.5,24.67 V 23.13 Z" fill="rgb(33, 28, 31)"/>
<path d="M 34.99,28.985 H 34.5 V 29.8 H 35 V 29 Z M 35,31 H 34.5 V 37 H 35 V 31 Z M 10.55,30 L 7,37 H 7.67 L 8.61,35.08 H 13.06 L 14.03,37 H 14.65 L 11.13,30 H 10.55 Z M 12.81,34.58 H 8.86 L 10.81,30.61 L 12.81,34.58 Z M 15.6,32.06 C 15.86,31.62 16.47,31 17.45,31 C 18.43,31 19.03,31.66 19.31,32.32 L 19.34,32.26 C 19.52,31.84 20.16,31 21.3,31 C 22.73,31 23.35,32.4 23.35,33.17 V 37 H 22.81 V 33.17 C 22.76,32.62 22.41,31.51 21.3,31.51 C 20.19,31.51 19.67,32.31 19.48,32.93 C 19.5,33.01 19.5,33.1 19.5,33.17 V 37 H 18.96 V 33.17 C 18.92,32.62 18.56,31.51 17.46,31.51 C 16.26,31.51 15.75,32.44 15.6,33.07 V 37 H 15 V 31.09 H 15.6 V 32.06 Z M 24.63,34.22 H 29.5 C 29.53,33.14 29.04,31 26.77,31 S 23.97,33.14 24,34.22 C 24.07,35.14 24.77,37 27,37 A 3.1,3.1 0 0,0 29.3,35.92 L 28.86,35.56 C 28.58,35.87 27.82,36.5 27,36.5 C 25.97,36.5 24.63,35.6 24.63,34.22 Z M 24.6,33.66 H 28.86 C 28.84,32.94 28.41,31.49 26.83,31.49 C 25.24,31.49 24.69,32.94 24.6,33.66 Z M 30.5,31 H 31 V 32.75 A 3,3 0 0,1 33.5,31 V 31.58 C 31.8,31.62 31.14,33.18 31.03,33.94 L 31,33.4 V 37 H 30.5 V 31 Z M 38.9,37 C 39.8,37 40.6,36.58 41.13,35.92 L 40.76,35.55 C 40.33,36.11 39.66,36.47 38.9,36.47 A 2.43,2.43 0 0,1 36.51,34 A 2.43,2.43 0 0,1 38.91,31.53 C 39.65,31.53 40.31,31.88 40.75,32.43 L 41.12,32.06 A 2.86,2.86 0 0,0 38.9,31 C 37.3,31 36,32.34 36,34 S 37.3,37 38.9,37 Z M 41.95,31.52 L 42.18,32.01 C 42.4,31.83 43.03,31.48 43.8,31.48 C 44.76,31.48 45.5,32.34 45.5,33.2 V 33.56 A 4.8,4.8 0 0,0 43.7,33.25 C 42.37,33.25 41.5,34.12 41.5,35.22 S 42.43,37 43.7,37 C 44.52,37 45.16,36.33 45.5,35.8 V 37 H 46 V 32.9 C 45.85,32.27 45.22,31 43.87,31 C 42.81,31 42.15,31.35 41.96,31.52 Z M 45.5,34.86 V 34.06 A 4.7,4.7 0 0,0 43.7,33.73 C 42.47,33.73 41.98,34.51 41.98,35.09 C 41.98,35.69 42.16,36.54 43.7,36.54 C 44.78,36.54 45.32,35.54 45.5,34.86 Z M 46.8,36.11 L 47.16,35.63 C 47.44,35.89 48.19,36.41 49.04,36.41 C 50.11,36.41 50.49,35.88 50.49,35.33 C 50.49,34.79 49.59,34.34 49.08,34.23 L 49,34.22 C 48.44,34.1 47.1,33.82 47.1,32.58 C 47.1,31.28 48.44,31 49.08,31 C 49.71,31 50.36,31.3 50.88,31.69 L 50.55,32.14 C 50.33,31.93 49.73,31.52 49.08,31.52 C 48.25,31.52 47.66,31.9 47.66,32.58 C 47.66,33.25 48.43,33.53 49.14,33.66 C 49.84,33.78 51,34.26 51,35.33 C 51,36.41 50.04,37 49.04,37 C 48.24,37 47.24,36.39 46.81,36.11 Z" fill="rgb(141, 141, 148)" fill-rule="evenodd"/>
</svg>
