<?xml version="1.0" encoding="UTF-8"?>
<!-- generated by Finnhub -->
<svg fill="none" viewBox="0 0 55.5 55.5" xmlns="http://www.w3.org/2000/svg">
<path d="M 0,0 H 55.5 V 55.5 H 0 Z" fill="url(#a)"/>
<path d="M 50.99,28.477999999999998 C 51,27.858 50.73,27.513 50.099,27.513 H 44 V 29.487 H 50.099 C 50.722,29.487 51,29.187 51,28.493 Z M 52,28.493 C 52,29.417 51.225,30 50.497,30 H 43 V 27 H 50.497 C 51.225,27 52,27.572 52,28.493 Z M 29.2,27.513 H 36 V 27 H 28.503 C 27.774,27 27,27.572 27,28.493 C 27,29.417 27.774,30 28.503,30 H 36 V 29.487 H 29.2 C 28.576,29.487 28,29.122 28,28.493 C 28,27.858 28.568,27.513 29.2,27.513 Z M 5.824,29.486 C 5.254,29.486 4.999,29.229 4.999,28.653 V 27 H 4 V 28.653 C 4,29.528 4.733,30 5.424,30 H 13 V 29.486 H 5.825 Z M 23,27 V 29.487 H 16.825 C 16.255,29.487 16,29.23 16,28.653 V 27 H 15 V 28.653 C 15,29.528 15.733,30 16.424,30 H 24 V 27 H 23 Z M 39,30 H 40 V 27 H 39 V 30 Z" clip-rule="evenodd" fill="rgb(254, 254, 253)" fill-rule="evenodd"/>
<defs>
<linearGradient id="a" x1="10.418" x2="68.147" y1="9.712" y2="76.017" gradientUnits="userSpaceOnUse">
<stop stop-color="rgb(25, 29, 31)" offset="0"/>
<stop stop-color="rgb(5, 5, 8)" offset="1"/>
</linearGradient>
</defs>
</svg>
