<?xml version="1.0" encoding="UTF-8"?>
<!-- generated by Finnhub -->
<svg viewBox="0 0 55.5 55.5" xmlns="http://www.w3.org/2000/svg">
<path d="M 0,0 H 55.5 V 55.5 H 0 Z" fill="rgb(1, 92, 168)"/>
<path d="M 3.99,25.985 V 31 H 10 V 30 H 6 V 26 H 4 Z M 11,26.008 V 31.008 H 17 V 30 H 13 V 29 H 17 V 28 H 13 V 27 H 17 V 26.008 H 11 Z M 24,26 V 29.424 L 20.402,26 H 18 V 31 H 20 V 27.752 L 23.4,31 H 26 V 26 H 24 Z M 33,26 V 29.424 L 29.402,26 H 27 V 31 H 29 V 27.752 L 32.4,31 H 35 V 26 H 33 Z M 38.804,26 L 36,31 H 38.09 L 40.071,27.59 L 40.791,29 H 39.857 L 39.337,30 H 41.4 L 41.926,31 H 44 L 41.146,26 H 38.804 Z M 53,31 H 50.356 L 47.558,28.003 H 49.15 C 49.395,28.003 50.202,27.964 50.202,27.549 C 50.202,27.044 49.511,27 49.15,27 H 47 V 31 H 45 V 26 H 49.15 C 50.001,26 52.478,25.999 52.478,27.35 C 52.478,28.23 51.555,28.653 50.818,28.837 L 53,31 Z" fill="rgb(254, 254, 253)"/>
</svg>
