<?xml version="1.0" encoding="UTF-8"?>
<!-- generated by Finnhub -->
<svg viewBox="0 0 55.5 55.5" xmlns="http://www.w3.org/2000/svg">
<path d="M 0,0 H 55.5 V 55.5 H 0 Z" fill="rgb(24, 76, 124)"/>
<path d="M 27.49,15.844999999999999 C 27.21,15.5 26.18,14.77 24.39,14.7 C 22.14,14.62 20.29,16.05 20.29,18.21 C 20.29,20.57 22.68,21.29 23.44,21.49 C 24.2,21.69 25.24,22 25.26,22.91 C 25.28,23.63 24.7,24.25 23.87,24.25 C 23.04,24.25 22.17,24.05 21.62,23.23 L 20,24.94 A 5.7,5.7 0 0,0 23.87,26.3 C 26.37,26.27 27.5,24.44 27.5,22.65 C 27.5,21.05 26.53,20.08 24.82,19.6 C 23.12,19.12 22.54,18.46 22.54,18.04 C 22.54,17.61 22.87,16.76 24.39,16.76 C 24.82,16.76 25.59,17.04 25.93,17.5 L 27.5,15.86 Z M 11,15 H 13 V 24 H 18 V 26 H 11 V 15 Z M 38.5,40 A 5.5,5.5 0 1,0 38.5,29 A 5.5,5.5 0 0,0 38.5,40 Z M 38.5,38 A 3.5,3.5 0 1,0 38.5,31 A 3.5,3.5 0 0,0 38.5,38 Z M 45.5,40 A 1.5,1.5 0 1,0 45.5,37 A 1.5,1.5 0 0,0 45.5,40 Z M 32.62,38.14 A 5.49,5.49 0 0,1 23,34.5 A 5.5,5.5 0 0,1 32.34,30.56 L 30.84,31.91 A 3.5,3.5 0 1,0 31.02,36.93 L 32.62,38.14 Z M 16.49,34.28 C 17.16,33.94 18.47,32.91 18.38,31.58 C 18.26,29.9 16.94,29.04 15.51,29 C 14.08,28.95 12.03,29.73 12.03,31.73 C 12.03,32.4 12.32,33.31 13.19,33.99 C 12.44,34.29 10.95,35.32 11,36.93 C 11.07,38.93 13.16,40.04 14.9,40 A 4.5,4.5 0 0,0 17.79,38.73 L 18.92,40 H 21.67 L 19.24,37.24 L 21.5,34 H 18.97 L 17.79,35.68 L 16.49,34.28 Z M 14.41,35.08 L 16.54,37.45 C 15.94,37.91 14.54,38.65 13.66,37.98 C 12.57,37.14 13.18,35.71 14.41,35.08 Z M 14.02,31.66 C 14.02,32.2 14.75,32.95 15.1,33.26 L 15.16,33.21 C 15.66,32.87 16.49,32.31 16.49,31.66 C 16.49,31.08 16.02,30.49 15.29,30.49 S 14.02,30.89 14.02,31.66 Z" fill="rgb(254, 254, 253)" fill-rule="evenodd"/>
</svg>
