<?xml version="1.0" encoding="UTF-8"?>
<!-- generated by Finnhub -->
<svg viewBox="0 0 55.5 55.5" xmlns="http://www.w3.org/2000/svg">
<path d="M 0,0 H 55.5 V 55.5 H 0 Z" fill="rgb(236, 27, 34)"/>
<path d="M 16.496,18.269 L 22.632,13.644 C 22.162,15.511 21.723,18.267 21.487,21.662 A 72.197,72.197 0 0,1 16.506,18.284 Z M 15.828,19.044 L 13.392,26.8 C 15.212,25.467 17.736,23.871 20.741,22.399 A 72.534,72.534 0 0,1 15.828,19.045 Z M 22.373,23.387 C 22.243,26.2 22.255,29.397 22.501,32.852 C 25.434,31.332 28.901,29.876 32.647,28.882 A 21.954,21.954 0 0,0 27.819,26.149 C 26.026,25.413 24.142,24.425 22.373,23.387 Z M 34.553,30.48 A 84.87,84.87 0 0,1 33.186,42.495 L 39.793,37.495 C 38.429,34.905 36.713,32.505 34.553,30.481 Z M 40.343,36.417 C 38.912,33.83 37.119,31.43 34.877,29.406 C 37.438,28.861 40.103,28.559 42.791,28.626 L 40.342,36.416 Z M 33.631,28.357 A 22.903,22.903 0 0,0 28.177,25.188 C 26.447,24.478 24.625,23.523 22.905,22.516 C 26.005,21.141 29.528,19.956 33.255,19.336 C 33.528,21.881 33.689,24.94 33.632,28.357 Z M 22.48,21.585 C 22.741,17.941 23.239,15.081 23.737,13.335 C 25.594,14.269 28.706,15.899 32.244,18.469 C 28.73,19.139 25.417,20.279 22.48,21.585 Z M 13.444,28.027 C 15.297,26.617 18.053,24.834 21.397,23.217 A 81.959,81.959 0 0,0 21.484,32.396 C 18.434,30.279 15.627,28.883 13.444,28.027 Z M 13.394,29.112 C 15.554,29.985 18.307,31.389 21.289,33.5 C 19.046,34.736 17.174,35.977 15.806,37.014 L 13.394,29.112 Z M 21.644,34.47 C 19.588,35.61 17.854,36.75 16.555,37.72 L 22.757,42.534 A 84.37,84.37 0 0,1 21.644,34.47 Z M 33.599,29.7 C 29.769,30.646 26.207,32.105 23.197,33.644 C 26.141,35.892 29.239,38.809 32.174,42.545 A 83.752,83.752 0 0,0 33.598,29.7 Z M 34.317,20.05 A 52.659,52.659 0 0,1 41.993,27.584 C 39.483,27.589 37.003,27.896 34.616,28.408 A 76.06,76.06 0 0,0 34.317,20.05 Z M 34.11,18.162 C 33.871,16.26 33.572,14.675 33.261,13.479 L 38.875,17.84 C 37.265,17.83 35.671,17.947 34.11,18.162 Z M 32.11,13.032 C 32.45,14.132 32.795,15.762 33.073,17.817 A 59.653,59.653 0 0,0 25.387,13.032 H 32.109 Z M 22.634,34.491 A 83.138,83.138 0 0,0 23.844,42.968 H 31.23 C 28.411,39.422 25.449,36.642 22.634,34.491 Z M 34.772,19.116 A 53.78,53.78 0 0,1 42.539,26.671 L 40.169,18.908 A 31.564,31.564 0 0,0 34.772,19.116 Z M 23.12,12 H 33.008 L 40.983,18.195 L 44,28.075 L 40.904,37.927 L 32.879,44 H 22.99 L 15.015,37.81 L 12,27.93 L 15.096,18.078 L 23.12,12 Z" fill="rgb(254, 254, 253)" fill-rule="evenodd"/>
</svg>
