<?xml version="1.0" encoding="UTF-8"?>
<!-- generated by Finnhub -->
<svg viewBox="0 0 55.5 55.5" xmlns="http://www.w3.org/2000/svg">
<path d="M 0,0 H 55.5 V 55.5 H 0 Z" fill="rgb(1, 84, 142)"/>
<path d="M 17.744,33.562 C 15.744,32.98 14.134,32.298 12.4,32.298 C 10.574,32.298 8.872,33.439 8.872,34.795 C 8.872,36.07 9.949,36.828 11.867,36.828 C 13.836,36.828 15.836,35.461 17.754,33.578 Z M 11.846,38 C 8.256,38 6,36.805 6,35.06 C 6,32.565 9.815,31 14,31 C 15.733,31 17.364,31.51 19.354,31.877 A 79.429,79.429 0 0,0 21.641,29.132 C 23.118,27.294 25.292,24.652 27.108,23.089 C 30.554,20.137 34.954,18 39.6,18 C 45.374,18 50,20.183 50,23.445 C 50,25.318 48.359,26.937 45.426,27.064 L 45.333,26.466 C 45.949,26.145 46.708,25.57 46.708,23.801 C 46.708,21.481 44.38,19.171 40.103,19.171 C 35.99,19.171 33.641,21.331 30.995,24.411 C 29.61,26.018 28.123,28.017 26.769,29.579 A 30.293,30.293 0 0,1 23.539,32.762 C 28.174,33.807 33.077,35.025 37.61,35.025 C 42.277,35.025 44.4,33.669 45.487,32.543 L 45.785,33.026 C 44.615,35.714 41.077,38 36.554,38 C 30.759,38 25.59,36.173 21.056,34.646 C 17.887,36.77 14.606,38 11.846,38 Z" fill="rgb(254, 254, 253)"/>
</svg>
