<?xml version="1.0" encoding="UTF-8"?>
<!-- generated by Finnhub -->
<svg viewBox="0 0 55.5 55.5" xmlns="http://www.w3.org/2000/svg">
<path d="M 0,0 H 55.5 V 55.5 H 0 Z" fill="rgb(236, 28, 34)"/>
<path d="M 36.361000000000004,30.995 C 36.626,30.828 36.902,30.616 37.159,30.414 C 39.139,28.828 40.653,27.09 40.953,26.129 C 40.962,26.097 40.988,26.009 40.988,25.938 C 40.988,25.838 40.941,25.769 40.851,25.769 C 39.941,25.769 37.024,28.676 36.318,31.029 V 31.037 L 36.371,31.01 Z M 29.059,30.676 C 31.816,28.591 34.714,25.556 35.023,24.311 C 35.033,24.271 35.041,24.231 35.04,24.192 C 35.036,24.11 34.992,24.037 34.887,24.037 C 34.014,24.037 29.973,27.767 29.059,30.676 Z M 12.126,32.508 C 11.398,32.003 10.272,31.561 9.266,31.561 C 8.29,31.561 7.666,31.945 7.666,32.429 C 7.666,32.984 8.423,33.227 9.271,33.227 C 10.299,33.227 11.232,32.949 12.126,32.508 Z M 20.574,25.969 C 22.551,25.335 24.426,24.009 25.826,22.624 C 27.118,21.343 28.153,19.822 28.153,19.068 C 28.153,18.896 28.03,18.792 27.873,18.792 C 27.275,18.792 26.14,19.587 24.611,21.119 C 23.421,22.312 22.035,23.942 20.574,25.969 Z M 50.003,30.752 C 48.305,32.442 43.014,37.09 41.614,41 L 39.88,40.553 C 40.447,38.933 42.154,36.414 44.056,34.471 A 3.4,3.4 0 0,1 42.89,34.681 C 42.376,34.681 41.977,34.525 41.736,34.234 C 41.564,34.024 41.476,33.75 41.476,33.424 C 41.476,33.353 41.482,33.282 41.492,33.201 C 39.821,34.219 38.478,34.679 37.162,34.679 C 36.137,34.679 35.275,34.233 34.876,33.449 C 33.218,34.273 31.627,34.679 30.298,34.679 C 29.06,34.679 28.063,34.189 27.605,33.296 C 25.928,34.239 24.501,34.679 23.366,34.679 C 22.713,34.679 22.195,34.499 21.863,34.155 C 21.618,33.902 21.489,33.562 21.47,33.169 C 20.395,33.878 18.825,34.679 17.215,34.679 C 15.568,34.679 14.464,34.114 13.607,33.553 C 12.239,34.311 10.735,34.68 9.144,34.68 C 7.942,34.68 6.003,34.179 6.003,32.454 C 6.001,31.062 7.453,30.119 9.395,30.119 C 11.047,30.119 12.638,30.816 13.636,31.539 C 14.584,30.783 15.578,29.727 16.751,28.234 C 16.493,28.249 16.241,28.255 15.993,28.255 C 13.747,28.255 11.871,27.593 10.847,26.433 A 3.18,3.18 0 0,1 10.032,24.279 C 10.032,21.152 13.979,18.726 17.432,18.369 C 17.661,18.887 17.864,19.285 18.075,19.759 C 14.664,20.157 11.823,22.177 11.823,24.151 C 11.823,25.449 13.28,26.753 16.374,26.753 C 16.904,26.753 17.437,26.701 17.961,26.629 C 20.692,22.857 24.877,17 28.478,17 C 29.544,17 30.101,17.648 30.101,18.515 C 30.101,20.299 28.568,22.219 27.569,23.22 C 26,24.798 23.161,27.145 19.197,27.923 C 17.656,30.07 16.388,31.493 15.12,32.521 C 15.888,32.936 16.61,33.191 17.468,33.191 C 19.602,33.191 21.672,31.237 23.288,29.58 L 23.345,29.524 L 24.605,30.51 L 24.547,30.58 C 23.832,31.4 23.174,32.267 23.174,32.752 C 23.174,33.12 23.485,33.193 23.752,33.193 C 24.569,33.193 25.829,32.663 27.312,31.753 V 31.74 C 27.475,28.075 32.472,22.471 35.507,22.471 C 36.363,22.471 36.855,22.898 36.855,23.646 C 36.855,25.483 33.688,29.421 29.081,32.436 V 32.438 C 29.319,32.951 29.868,33.198 30.8,33.198 C 31.526,33.198 32.948,32.874 34.638,31.99 C 34.833,30.092 35.908,28.053 37.272,26.6 C 38.641,25.144 40.174,24.199 41.5,24.199 C 42.318,24.199 42.8,24.649 42.8,25.356 C 42.8,26.958 40.941,29.698 36.462,32.566 C 36.661,32.951 37.045,33.193 37.643,33.193 C 38.978,33.193 41.328,31.769 43.158,30.017 L 44.473,31.038 C 43.911,31.72 43.343,32.468 43.362,32.899 C 43.367,33.039 43.461,33.133 43.682,33.133 C 45.031,33.133 47.154,31.351 48.746,29.778 L 50.003,30.752 Z M 25.583,27.077 C 26.179,27.077 26.66,27.561 26.66,28.157 A 1.08,1.08 0 1,1 25.583,27.077 Z" fill="rgb(254, 254, 253)"/>
</svg>
