<?xml version="1.0" encoding="UTF-8"?>
<!-- generated by Finnhub -->
<svg viewBox="0 0 55.5 55.5" xmlns="http://www.w3.org/2000/svg">
<path d="M 0,0 H 55.5 V 55.5 H 0 Z" fill="rgb(254, 1, 128)"/>
<path d="M 20.45,40.105 C 17.24,40 17.06,37.52 20.02,36.89 C 22.72,36.3 24.98,37.24 24.98,37.24 S 24.29,40.26 20.46,40.12 Z M 34.76,15.09 C 36.62,15.24 36.48,17.79 35.97,19.4 C 34.49,24.11 30.94,24.25 30.94,24.25 S 32.06,14.87 34.76,15.09 Z M 30.63,26.49 S 36.59,26.54 38.63,19.58 C 39.81,15.53 38.13,12.08 34.64,12 C 31.11,11.93 28.38,15.02 27.1,24.24 C 27.1,24.24 23.7,23.8 22.2,21.14 C 21.48,19.88 20.4,20.47 20.74,21.66 C 21.87,25.71 26.89,26.36 26.89,26.36 S 26.69,28.15 26.37,30.34 C 26.07,32.46 25.55,35.14 25.55,35.14 S 22.39,34.14 19.02,34.84 C 13.85,35.91 13.28,42.26 19.61,42.88 C 27.04,43.62 28.44,38.54 28.44,38.54 S 29.9,39.24 31.97,41.07 C 34.27,43.1 35.31,44.36 35.78,43.91 C 36.31,43.41 35.16,41.69 33.03,39.49 C 30.63,36.99 28.96,36.35 28.96,36.35 S 29.36,34.7 29.79,32.03 A 281,281 0 0,0 30.63,26.5 Z" fill="rgb(254, 254, 253)"/>
</svg>
