<?xml version="1.0" encoding="UTF-8"?>
<!-- generated by Finnhub -->
<svg viewBox="0 0 55.5 55.5" xmlns="http://www.w3.org/2000/svg">
<path d="M 0,0 H 55.5 V 55.5 H 0 Z" fill="rgb(18, 46, 85)"/>
<path d="M 47.99,23.941 H 35.238 C 36.913,18.027 38.428,13 38.428,13 S 32.685,18.778 27.58,23.956 H 8.238 C 7.92,23.956 7.92,24.106 8.238,24.106 C 8.398,24.106 26.622,24.931 26.622,24.931 C 22.634,28.908 20.481,31.159 20.402,31.235 C 20.242,31.385 20.402,31.46 20.561,31.31 C 20.641,31.235 23.514,28.757 27.58,24.931 L 33.881,25.006 C 33.481,26.732 33.164,28.308 32.685,30.184 C 24.948,34.086 12.346,40.464 12.346,40.464 C 12.186,40.54 12.266,40.69 12.426,40.614 C 12.506,40.54 24.231,34.987 32.445,31.084 C 31.09,36.862 30.213,40.838 30.213,40.914 C 30.133,40.988 30.293,41.064 30.373,40.914 C 30.373,40.838 31.568,36.862 33.324,30.708 C 40.661,27.183 48,23.956 48,23.956 Z M 28.617,23.956 C 32.445,20.429 35.636,17.576 35.636,17.576 S 35.078,20.053 34.121,23.956 H 28.617 Z M 34.919,25.007 L 42.575,25.157 S 38.747,27.107 33.562,29.733 C 34.042,28.083 34.439,26.658 34.919,25.007 Z" fill="rgb(254, 254, 253)"/>
</svg>
