<?xml version="1.0" encoding="UTF-8"?>
<!-- generated by Finnhub -->
<svg viewBox="0 0 55.5 55.5" xmlns="http://www.w3.org/2000/svg">
<path d="M 0,0 H 55.5 V 55.5 H 0 Z" fill="rgb(7, 133, 198)"/>
<path d="M 31.49,21.778 L 32.955,25.413 L 36.5,26.92 L 40,18.126 L 31.5,21.794 Z" fill="rgb(115, 189, 67)"/>
<path d="M 15.945,18.11 L 19.501,26.919 L 23.001,25.414 L 24.456,21.794 L 15.956,18.125 Z" fill="rgb(249, 175, 24)"/>
<path d="M 39.99,28.407999999999998 L 36.5,26.918 L 35.045,30.586 L 36.499,34.206 L 39.999,32.702 L 44.999,30.586 L 39.999,28.423 Z" fill="rgb(253, 229, 2)"/>
<path d="M 37.945,37.859 L 36.5,34.207 L 35.046,30.587 L 32.955,35.712 L 31.5,39.379 L 35.046,40.884 L 40,43 L 37.955,37.874 Z" fill="rgb(34, 169, 224)"/>
<path d="M 19.49,26.903 L 15.954,28.423 L 11,30.586 L 15.954,32.702 L 19.5,34.207 L 20.954,30.587 L 19.5,26.918 Z" fill="rgb(253, 229, 2)"/>
<path d="M 19.49,26.904 L 20.954,30.587 L 23,25.413 L 19.5,26.918 Z" fill="rgb(253, 206, 8)"/>
<path d="M 32.945,25.399 L 35.046,30.586 L 36.5,26.92 L 32.955,25.415 Z" fill="rgb(194, 215, 46)"/>
<path d="M 22.99,35.697 L 20.955,30.586 L 19.501,34.207 L 18.046,37.874 L 15.956,43 L 20.956,40.884 L 24.456,39.379 L 23,35.712 Z" fill="rgb(34, 169, 224)"/>
<path d="M 24.444,39.365 L 28,30.586 L 31.5,39.38 L 32.955,35.712 L 35.045,30.586 L 32.955,25.414 L 31.5,21.793 L 28,13 L 24.454,21.793 L 23,25.413 L 20.954,30.587 L 23,35.712 L 24.454,39.38 Z" fill="rgb(254, 254, 253)"/>
</svg>
