<?xml version="1.0" encoding="UTF-8"?>
<!-- generated by Finnhub -->
<svg viewBox="0 0 55.5 55.5" xmlns="http://www.w3.org/2000/svg">
<path d="M 0,0 H 55.5 V 55.5 H 0 Z" fill="rgb(1, 161, 212)"/>
<path d="M 23.808,22.06 C 23.022,22.421 22.912,23.552 23.623,24.027 C 24.393,24.537 25.4,24.007 25.39,23.097 A 1.114,1.114 0 0,0 24.709,22.075 C 24.474,21.975 24.049,21.975 23.819,22.075 Z M 5,22 V 32 H 6.702 L 6.677,22 C 6.117,22 5.559,21.995 5,22 Z M 44.612,22 C 44.597,22.035 44.592,24.432 44.598,27.075 L 44.613,32 H 46.324 V 29.853 C 46.349,27.51 46.324,27.495 46.72,27.055 C 47.105,26.629 47.716,26.435 48.331,26.549 C 48.947,26.669 49.467,27.055 49.467,27.615 L 49.497,32 H 51.2 C 51.19,30.5 51.17,29 51.17,27.5 S 50.21,25.156 49.003,24.918 A 3.134,3.134 0 0,0 46.501,25.5 C 46.361,25.61 46.341,25.648 46.325,25.648 V 22 H 44.613 Z M 26.771,25 H 25.871 V 26.6 H 26.771 V 32 H 28.473 V 26.6 H 29.423 V 25 H 28.473 V 23 H 26.77 V 25 Z M 10.33,24.918 C 9.34,25.111 8.381,25.729 7.863,26.609 C 7.207,27.715 7.207,29.232 7.863,30.343 C 8.083,30.723 8.709,31.343 9.089,31.569 C 10.421,32.339 12.112,32.259 13.329,31.354 C 14.059,30.814 14.529,30.028 14.694,29.067 A 3.59,3.59 0 0,0 13.924,26.174 C 13.079,25.143 11.635,24.668 10.33,24.918 Z M 12.843,27.645 C 13.085,28.14 13.06,28.865 12.823,29.357 C 12.117,30.785 9.975,30.767 9.284,29.307 C 9.057,28.827 9.029,28.126 9.269,27.645 C 9.995,26.159 12.129,26.168 12.843,27.645 Z M 18.488,24.878 C 16.621,25.183 15.36,26.629 15.36,28.476 C 15.36,30.153 16.381,31.504 17.988,31.964 C 18.508,32.109 19.514,32.124 20.015,31.984 C 20.46,31.864 21.095,31.544 21.395,31.289 C 21.971,30.803 22.332,30.278 22.552,29.602 C 22.677,29.217 22.692,29.107 22.692,28.476 C 22.692,27.72 22.607,27.325 22.337,26.865 A 1.38,1.38 0 0,1 22.217,26.625 C 22.217,26.609 22.317,26.555 22.442,26.499 L 22.667,26.404 V 25.048 H 21.456 C 20.525,25.048 20.175,25.028 19.965,24.973 C 19.685,24.893 18.758,24.838 18.488,24.878 Z M 19.754,26.639 A 2,2 0 0,1 20.88,27.76 C 21.016,28.1 21.026,28.816 20.895,29.152 A 2.05,2.05 0 0,1 19.715,30.332 C 19.364,30.468 18.663,30.453 18.303,30.308 C 17.527,30.003 16.977,29.057 17.087,28.231 C 17.172,27.635 17.542,27.065 18.033,26.774 C 18.518,26.489 19.213,26.434 19.754,26.639 Z M 32.527,24.918 C 31.757,25.088 31.276,25.343 30.725,25.898 C 29.979,26.64 29.659,27.43 29.665,28.526 C 29.665,29.497 29.959,30.328 30.53,30.969 C 32.1,32.735 34.833,32.25 36.406,30.809 L 35.855,30.258 C 35.555,29.953 35.285,29.702 35.265,29.702 C 35.239,29.702 35.105,29.802 34.965,29.928 C 34.629,30.223 34.088,30.483 33.668,30.553 C 32.832,30.698 31.957,30.413 31.576,29.703 A 1.498,1.498 0 0,1 31.426,29 H 36.78 C 36.78,28.09 36.675,27.307 36.22,26.5 C 35.813,25.789 35.08,25.237 34.304,24.998 C 33.854,24.858 32.987,24.823 32.527,24.918 Z M 34.469,26.825 C 34.664,26.995 34.979,27.595 34.979,27.75 H 31.426 C 31.501,27.4 31.69,27.026 31.976,26.8 C 32.221,26.604 32.526,26.454 32.782,26.4 C 33.347,26.285 34.041,26.416 34.469,26.825 Z M 40.309,24.923 A 3.56,3.56 0 0,0 38.407,25.923 A 3.618,3.618 0 0,0 37.456,29.377 C 37.496,29.542 37.636,29.887 37.761,30.143 C 38.241,31.123 39.208,31.829 40.354,32.039 C 41.564,32.259 42.881,31.854 43.712,31.009 L 43.962,30.753 L 43.376,30.173 L 42.796,29.587 C 42.544,29.799 42.289,30.055 41.99,30.197 C 40.95,30.728 39.763,30.363 39.272,29.362 A 2.134,2.134 0 0,1 39.272,27.59 C 39.528,27.07 39.899,26.66 40.5,26.5 C 41.247,26.3 42,26.5 42.79,27.34 C 42.79,27.34 43.937,26.254 43.937,26.214 C 43.937,26.189 43.817,26.054 43.677,25.914 C 42.791,25.058 41.56,24.692 40.309,24.923 Z M 23.418,32 H 25 V 25 H 23.418 V 32 Z M 15.36,32.62 C 15.36,33.49 15.88,34.512 16.646,35.157 C 17.417,35.803 18.488,36.103 19.509,35.968 C 21.266,35.733 22.557,34.422 22.702,32.735 L 22.732,32.355 H 21.03 L 20.97,32.665 C 20.8,33.531 20.255,34.106 19.434,34.282 C 18.338,34.512 17.312,33.812 17.107,32.69 L 17.047,32.355 H 15.36 V 32.62 Z" fill="rgb(254, 254, 253)"/>
</svg>
