<?xml version="1.0" encoding="UTF-8"?>
<!-- generated by Finnhub -->
<svg viewBox="0 0 55.5 55.5" xmlns="http://www.w3.org/2000/svg">
<path d="M 0,0 H 55.5 V 55.5 H 0 Z" fill="rgb(1, 72, 142)"/>
<path d="M 16.561,21.985 L 28.002,16 L 39.429,22 H 45 V 25 H 48 V 40 H 8 V 25 H 11 V 22 H 16.571 Z M 14,34 V 26 H 12 V 36 H 17 V 34 H 14 Z M 37.5,26 V 27.998 L 38.741,28 L 39,26 H 37.5 Z M 37,34 V 36 H 33 V 28.01 L 32.785,28 H 37 V 30 H 35 V 31 H 37 V 33 H 35 V 34 H 37 Z M 21,30 H 20 V 34 H 21 V 30 Z M 23,34.956 C 23,35.52 22.61,35.978 22.13,35.978 L 18.818,36 C 18.338,36 18,35.52 18,34.956 V 29 C 18,28.436 18.337,28 18.818,28 L 22.13,27.978 C 22.61,27.978 23,28.435 23,29 V 34.956 Z M 30,34.13 V 28 H 32 V 34.977 C 32,35.542 31.61,36 31.13,36 H 28.705 A 0.712,0.712 0 0,1 28.001,35.276 C 28.001,35.704 27.661,36 27.296,36 H 24.87 C 24.39,36 24,35.542 24,34.977 V 28 H 26 V 34.13 H 27 V 28 H 29 V 34.13 H 30 Z M 42.81,32.893 L 42.8,32.868 L 42.789,32.844 L 42.779,32.821 L 42.767,32.797 C 42.477,32.164 41.827,31.635 40.78,31.179 L 40.743,31.164 L 40.741,31.163 C 40.531,31.073 39.905,30.806 39.835,30.371 A 0.527,0.527 0 0,1 39.987,29.941 C 40.119,29.795 40.321,29.72 40.587,29.72 C 41.014,29.72 41.499,29.91 41.751,30.023 C 42.281,30.261 42.745,30.474 42.749,30.477 L 42.795,30.498 V 28.878 L 42.78,28.868 C 42.77,28.86 41.769,28.173 40.758,28.016 A 3.641,3.641 0 0,0 40.416,28 C 39.485,28 38.78,28.368 38.321,29.093 C 37.935,29.689 37.892,30.633 38.22,31.337 C 38.641,32.132 39.317,32.464 39.97,32.786 H 39.972 C 40.242,32.918 40.52,33.056 40.782,33.225 L 40.784,33.227 C 41.079,33.42 41.23,33.715 41.167,33.977 C 41.103,34.249 40.817,34.431 40.456,34.431 C 40.406,34.431 40.356,34.428 40.308,34.421 L 40.29,34.418 C 39.596,34.313 38.188,33.743 38.174,33.737 L 38.129,33.718 V 35.496 L 38.152,35.504 C 38.165,35.509 39.528,36 40.738,36 C 41.398,36 41.898,35.855 42.219,35.57 C 42.227,35.565 42.967,34.918 42.999,33.818 A 2.156,2.156 0 0,0 42.811,32.893 Z" fill="rgb(254, 254, 253)" fill-rule="evenodd"/>
</svg>
