<?xml version="1.0" encoding="UTF-8"?>
<!-- generated by Finnhub -->
<svg viewBox="0 0 55.5 55.5" xmlns="http://www.w3.org/2000/svg">
<path d="M 0,0 H 55.5 V 55.5 H 0 Z" fill="rgb(239, 242, 248)"/>
<path d="M 41.59,34.725 L 42.44,33.93 A 0.84,0.84 0 0,1 43.04,33.67 A 0.68,0.68 0 0,1 43.58,33.86 A 0.65,0.65 0 0,1 43.73,34.61 A 0.9,0.9 0 0,1 44.33,34.71 L 45.11,34.97 L 44.61,35.46 L 44.09,35.28 A 1.57,1.57 0 0,0 43.57,35.14 A 0.32,0.32 0 0,0 43.31,35.24 L 43.18,35.37 L 43.95,36.11 L 43.48,36.56 L 41.6,34.74 Z M 42.4,34.64 L 42.84,35.04 L 43.08,34.81 A 0.44,0.44 0 0,0 43.22,34.56 A 0.3,0.3 0 0,0 43.22,34.36 C 43.08,34.21 42.92,34.21 42.73,34.36 L 42.4,34.63 Z M 46.38,33.09 L 46.71,33.42 L 45.33,34.75 L 43.46,32.95 L 44.82,31.63 L 45.17,31.97 L 44.27,32.83 L 44.67,33.21 L 45.53,32.39 L 45.87,32.72 L 45,33.52 L 45.46,33.97 L 46.38,33.09 Z M 45.69,30.81 L 45.22,31.26 L 47.1,33.06 L 47.56,32.62 L 45.69,30.82 Z M 45.98,30.51 L 46.33,30.84 L 47,30.19 L 48.55,31.67 L 49,31.21 L 47.47,29.74 L 48.15,29.09 L 47.8,28.76 L 45.98,30.51 Z" fill="rgb(37, 58, 126)"/>
<path d="M 33.92,14.985 L 20.86,28 L 33.93,40.99 L 47,27.99 L 33.93,15 Z" fill="rgb(1, 45, 133)"/>
<path d="M 20.06,14.985 L 7,28 L 20.07,41 L 21.22,39.84 L 9.32,28 L 21.22,16.14 L 20.07,15 Z" fill="rgb(105, 194, 231)"/>
<path d="M 24.689999999999998,14.985 L 11.63,28 L 24.7,41 L 25.85,39.84 L 13.94,28 L 25.84,16.14 L 24.7,15 Z" fill="rgb(109, 168, 217)"/>
<path d="M 29.29,14.985 L 16.24,28 L 29.32,41 L 30.48,39.84 L 18.55,28 L 30.47,16.14 L 29.31,15 Z" fill="rgb(44, 110, 181)"/>
<path d="M 42.99,30.384999999999998 V 29.1 L 42.96,29.19 C 42.55,29.4 42.11,29.59 41.66,29.72 C 41.36,29.81 41.04,29.86 40.73,29.85 A 2.33,2.33 0 0,1 39.17,29.34 A 1.74,1.74 0 0,1 38.56,28.04 A 1.67,1.67 0 0,1 39.17,26.74 A 2.53,2.53 0 0,1 40.77,26.24 C 41.52,26.26 42.36,26.47 43,26.84 V 25.52 A 4.9,4.9 0 0,0 40.67,25 A 3.9,3.9 0 0,0 37.99,25.9 A 2.93,2.93 0 0,0 37,28.05 A 2.83,2.83 0 0,0 37.99,30.21 C 38.72,30.78 39.65,31.06 40.59,30.99 C 41.43,30.99 42.26,30.79 43,30.4 Z M 32,30 V 31 H 27 V 25 H 28.5 V 30 H 32 Z M 37,25 V 26 H 35 V 31 H 33.5 V 26 H 31.5 V 25 H 37 Z" fill="rgb(239, 242, 248)"/>
</svg>
