<?xml version="1.0" encoding="UTF-8"?>
<!-- generated by Finnhub -->
<svg viewBox="0 0 55.5 55.5" xmlns="http://www.w3.org/2000/svg">
<path d="M 0,0 H 55.5 V 55.5 H 0 Z" fill="rgb(211, 24, 51)"/>
<path d="M 39.019000000000005,35.346 C 37.741,37.288 36.1,38.311 34.269,38.311 C 33.467,38.311 32.623,38.116 31.757,37.731 C 30.839,37.324 30.032,36.581 29.483,35.636 C 28.939,34.691 28.723,33.673 28.876,32.755 C 29.066,31.952 29.488,30.86 29.979,29.594 C 31.251,26.301 32.997,21.789 31.489,19.584 C 30.855,18.654 29.709,18.201 28,18.195 C 26.285,18.201 25.145,18.655 24.507,19.583 C 23.003,21.789 24.744,26.301 26.021,29.599 C 26.507,30.86 26.934,31.953 27.119,32.765 C 27.277,33.673 27.061,34.691 26.512,35.635 C 25.968,36.581 25.161,37.325 24.242,37.731 C 23.377,38.116 22.528,38.311 21.731,38.311 C 19.9,38.311 18.253,37.288 16.976,35.367 L 16.828,35.103 C 17.441,35.409 18.607,35.916 19.615,35.916 C 20.116,35.916 20.591,35.763 21.061,35.451 C 23.646,33.731 22.765,31.662 20.997,28.464 C 20.248,27.108 19.477,25.71 19.134,24.264 C 18.765,22.712 18.427,20.449 19.778,18.739 C 20.406,17.931 21.372,17.314 22.638,16.897 C 23.952,16.459 25.646,16.227 27.673,16.195 H 28.327 C 30.353,16.227 32.047,16.459 33.361,16.897 C 34.628,17.314 35.588,17.931 36.221,18.739 C 37.573,20.449 37.235,22.712 36.865,24.264 C 36.522,25.71 35.752,27.108 35.003,28.464 C 33.235,31.662 32.348,33.731 34.939,35.451 C 35.409,35.763 35.879,35.916 36.385,35.916 C 37.393,35.916 38.554,35.409 39.171,35.103 L 39.029,35.361 Z M 28,12 C 19.16,12 12,19.16 12,28 C 12,36.834 19.16,44 28,44 C 36.84,44 44,36.834 44,28 C 44,19.16 36.84,12 28,12 Z" fill="rgb(254, 254, 253)"/>
</svg>
