<?xml version="1.0" encoding="UTF-8"?>
<!-- generated by Finnhub -->
<svg viewBox="0 0 55.5 55.5" xmlns="http://www.w3.org/2000/svg">
<path d="M 0,0 H 55.5 V 55.5 H 0 Z" fill="rgb(239, 242, 248)"/>
<path d="M 23.49,23.985 A 0.5,0.5 0 0,0 23,24.5 V 30.5 A 0.5,0.5 0 0,0 24,30.5 V 25.7 L 27.13,28.83 C 27.23,28.93 27.36,28.98 27.49,28.98 A 0.5,0.5 0 0,0 27.85,28.83 L 31,25.68 V 30.5 A 0.5,0.5 0 0,0 32,30.5 V 24.5 A 0.5,0.5 0 0,0 31.43,24 A 0.5,0.5 0 0,0 31.13,24.15 L 27.49,27.78 L 23.86,24.15 A 0.5,0.5 0 0,0 23.64,24.02 A 0.5,0.5 0 0,0 23.5,24 Z M 45,30.5 V 25.56 L 51.13,30.88 A 0.5,0.5 0 0,0 51.5,31 A 0.5,0.5 0 0,0 52,30.5 V 24.5 A 0.5,0.5 0 0,0 51,24.5 V 29.45 L 44.86,24.12 A 0.5,0.5 0 0,0 44.52,24 H 44.5 A 0.5,0.5 0 0,0 44,24.5 V 30.5 A 0.5,0.5 0 1,0 45,30.5 Z M 4.5,24 A 0.5,0.5 0 0,0 4,24.5 V 30.5 C 4,30.78 4.22,31 4.5,31 H 9.5 A 0.5,0.5 0 1,0 9.5,30 H 5 V 24.5 A 0.5,0.5 0 0,0 4.5,24 Z M 36,28 H 40.5 A 0.5,0.5 0 0,0 40.5,27 H 35 V 30.5 A 0.5,0.5 0 0,0 35.57,31 H 41.5 A 0.5,0.5 0 0,0 41.5,30 H 36 V 28 Z"/>
<path d="M 34.99,24.985 V 24.5 C 35,24.22 35.22,24 35.5,24 H 41.5 A 0.5,0.5 0 0,1 41.5,25 H 35 Z" fill="rgb(21, 160, 216)"/>
<path d="M 11.99,24.485 A 0.5,0.5 0 0,1 13,24.5 V 29 A 1,1 0 0,0 14,30 H 18 A 1,1 0 0,0 19,29 V 24.5 A 0.5,0.5 0 0,1 20,24.5 V 26.34 A 0.5,0.5 0 0,1 20,26.41 V 29 A 2,2 0 0,1 18,31 H 14 A 2,2 0 0,1 12,29 V 24.5 Z"/>
</svg>
