<?xml version="1.0" encoding="UTF-8"?>
<!-- generated by Finnhub -->
<svg viewBox="0 0 55.5 55.5" xmlns="http://www.w3.org/2000/svg">
<path d="M 0,0 H 55.5 V 55.5 H 0 Z" fill="rgb(26, 44, 127)"/>
<path d="M 34.828,14.985 C 32.103,15 29.778,15.933 28,16.867 C 26.222,15.933 24.034,15 21.162,15 C 15.556,15 12,18.467 12,24.6 C 12,31.933 19.248,39.133 28,45 C 36.752,39.267 44,32.067 44,24.6 C 44,18.467 40.308,15 34.838,15 Z" fill="rgb(203, 203, 202)"/>
<path d="M 12.81,24.718 C 12.82,32.2 21.026,39.267 27.863,43.933 C 29.915,42.6 31.966,41 33.881,39.4 C 24.718,31.933 15.966,25.133 12.957,22.733 C 12.957,23.267 12.821,23.933 12.821,24.733 Z" fill="rgb(53, 85, 202)"/>
<path d="M 42.486000000000004,28.185 C 35.795,22.866 31.829,20.067 27.453,17.533 C 26.223,16.866 23.898,15.8 21.299,15.8 C 18.838,15.8 16.649,16.6 15.145,18.067 A 6.643,6.643 0 0,0 13.231,21.667 C 16.65,24.067 26.085,30.6 35.521,37.933 C 38.667,35 41.265,31.666 42.496,28.2 Z" fill="rgb(229, 27, 33)"/>
<path d="M 40.708000000000006,18.052 C 39.214,16.6 37.162,15.8 34.7,15.8 C 32.101,15.8 30.187,16.6 28.683,17.4 C 31.281,18.866 36.888,21.933 42.768,26.2 C 42.905,25.666 42.905,25 42.905,24.467 C 43.042,21.8 42.221,19.533 40.717,18.067 Z" fill="rgb(252, 187, 15)"/>
</svg>
