<?xml version="1.0" encoding="UTF-8"?>
<!-- generated by Finnhub -->
<svg viewBox="0 0 55.5 55.5" xmlns="http://www.w3.org/2000/svg">
<path d="M 0,0 H 55.5 V 55.5 H 0 Z" fill="rgb(121, 87, 37)"/>
<path d="M 8.99,29.432 C 9.494,29.443 9.335,29.203 10.692,29.443 C 12.226,29.715 13.127,29.881 14.527,29.963 C 15.203,30.029 16.807,30.005 17.793,29.833 C 19.233,29.61 19.591,29.428 20.593,28.665 C 21.621,27.858 21.649,26.339 20.155,25.517 C 19.126,24.948 17.883,24.952 16.567,24.803 C 15.401,24.683 12.977,24.585 12.429,23.718 C 11.291,21.879 19.309,21.311 19.392,23.359 C 19.251,23.474 19.1,23.638 18.952,23.718 C 19.266,23.863 19.494,23.841 19.805,23.718 C 20.299,23.524 21.781,22.833 22.001,22.564 C 21.397,20.426 13.388,20.427 11.043,22.939 C 10.221,23.821 10.267,25.137 11.364,25.675 C 12.557,26.273 15.892,26.258 17.401,26.497 C 18.333,26.647 19.951,27.058 19.54,28.037 C 18.635,29.562 14.724,28.755 13.407,28.142 C 12.05,27.514 12.214,26.886 10.733,27.962 C 10.185,28.382 9.178,29.012 9,29.447 Z M 39.858,26.377 C 40.05,26.752 40.091,28.397 39.762,28.605 C 39.446,28.815 37.993,28.291 37.829,28.097 C 37.541,27.753 37.681,26.227 37.996,25.988 C 38.311,25.734 39.625,25.989 39.858,26.378 Z M 23.394,22.86 C 24.052,23.13 24.326,22.905 25.45,22.74 A 50.124,50.124 0 0,1 27.658,22.471 C 30.469,22.217 34.195,21.923 36.951,22.506 C 38.336,22.805 39.845,23.48 39.996,24.99 C 34.867,24.751 35.36,29.757 37.952,29.996 C 40.694,30.25 42.642,25.316 41.229,23.014 C 39.199,19.74 27.961,21.315 23.931,22.649 L 23.393,22.86 Z M 23.65,28.306 C 23.121,28.076 23.349,24.703 25.556,25.795 C 26.352,26.183 25.652,26.975 25.268,27.409 C 24.898,27.813 24.262,28.574 23.65,28.306 Z M 27.558,24.883 C 25.515,25.376 25.666,24.225 23.993,25.107 C 20.746,26.874 21.313,32.625 24.912,28.59 C 25.09,28.396 25.8,27.632 25.979,27.527 C 25.979,28.589 25.749,30.186 27.023,29.977 C 27.407,29.917 28.737,29.069 28.71,28.037 C 27.23,29.024 27.586,28.007 27.558,24.883 Z M 28.587,26.169 C 28.614,26.109 28.916,25.959 29.08,26.079 C 29.396,26.289 29.23,29.279 29.258,29.996 C 29.998,30.086 30.054,29.652 30.342,29.159 C 30.685,28.59 32.285,26.026 32.847,26.4 C 33.369,26.744 32.255,31.027 34.401,29.762 C 34.634,29.613 34.991,29.233 35.141,29.039 C 35.429,28.695 35.58,28.635 35.58,27.992 C 35.306,28.202 35.169,28.441 34.743,28.382 C 34.51,26.378 35.333,24.105 33.303,25.092 C 32.262,25.6 31.652,26.308 30.993,26.98 C 30.993,26.98 31.106,25.262 30.506,24.733 C 29.876,24.659 29.053,25.376 28.559,25.66 L 28.587,26.169 Z M 43.589,26.279 C 43.161,25.819 44.136,25.212 44.794,25.287 C 45.969,25.42 45.569,25.753 45.829,26.022 C 46.076,26.007 46.83,25.779 46.995,25.57 C 46.433,24.628 43.355,24.3 42.258,25.93 C 40.749,28.157 46.09,27.5 45.618,28.732 C 44.983,29.762 43.835,29.039 43.053,28.665 C 42.381,28.351 42.405,28.433 41.898,28.911 C 41.61,29.181 41.174,29.596 40.995,30 C 41.722,30 41.606,29.594 42.313,29.756 C 42.833,29.876 43.313,30 43.875,30 C 44.931,30 45.722,29.977 46.339,29.379 C 47.23,28.527 47.326,27.645 45.969,27.122 C 45.036,26.778 44.179,26.802 43.589,26.28 Z M 4,35 C 15.273,31.058 38.025,30.942 52,35 C 33.272,32.341 19.255,32.337 4,35 Z" fill="rgb(254, 254, 253)"/>
</svg>
