<?xml version="1.0" encoding="UTF-8"?>
<!-- generated by Finnhub -->
<svg viewBox="0 0 55.5 55.5" xmlns="http://www.w3.org/2000/svg">
<path d="M 0,0 H 55.5 V 55.5 H 0 Z" fill="rgb(1, 54, 98)"/>
<path d="M 33.474000000000004,23.548 C 33.1,23.563 32.377,24.125 32.309,24.617 C 32.083,26.094 30.817,29.867 30.433,29.867 C 30.275,29.867 30.207,29.727 30.207,29.023 C 30.207,26.984 30.93,24.711 30.93,24.313 C 30.93,24.125 30.795,24.055 30.614,24.055 C 30.117,24.055 29.484,24.477 29.371,24.805 C 29.19,25.438 29.145,25.719 28.987,26.656 C 28.828,27.219 27.947,29.914 27.585,29.914 C 27.246,29.914 27.269,28.625 27.269,27.289 C 27.269,26.094 27.427,24.734 27.676,23.375 C 27.698,23.141 27.653,23.047 27.382,23.047 C 26.817,23.047 26.116,23.375 26.026,23.797 C 25.89,24.312 25.777,25.414 25.777,26.657 C 25.777,29.539 26.094,32.023 27.02,32.023 C 27.721,32.023 28.535,30.734 28.828,29.75 C 28.828,31.719 29.235,32.023 29.71,32.023 C 31.043,32.023 33.665,26.375 33.665,23.843 C 33.71,23.68 33.642,23.563 33.484,23.563 Z M 7.314,30.313 C 6.974,30.313 6.274,30.336 5.844,30.336 C 5.437,30.336 5.528,29.82 5.664,29.281 C 6.115,27.219 6.839,24.711 7.064,23.492 C 7.132,23.164 7.042,23.07 6.726,23.07 C 6.409,23.07 5.55,23.469 5.46,23.797 C 4.737,26.328 4.353,28.437 4.059,30.407 C 3.923,31.391 3.969,32.023 4.782,32.023 C 5.392,32.023 7.833,31.531 7.833,30.969 C 7.833,30.641 7.562,30.312 7.313,30.312 Z M 24.33,27.03 C 23.516,27.03 22.906,27.78 23.313,27.78 C 24.081,27.78 23.697,30.616 22.861,30.616 C 21.911,30.616 23.336,25.554 23.878,24.194 C 24.036,23.796 23.968,23.632 23.652,23.632 C 23.268,23.632 22.612,23.937 22.386,24.429 C 22.138,25.155 21.686,26.632 21.415,28.062 C 21.234,28.952 20.375,30.358 20.013,30.358 C 19.697,30.358 20.398,27.499 19.697,27.499 C 19.403,27.499 18.997,27.851 18.838,27.991 C 18.612,28.179 18.205,28.835 17.731,29.679 C 17.889,28.601 18.047,27.054 17.595,27.054 C 17.347,27.054 16.962,27.288 16.714,27.452 C 16.217,27.78 15.516,29.163 15.087,29.679 C 15.245,28.109 15.335,27.147 14.997,27.147 C 14.68,27.147 14.07,27.499 13.911,27.827 C 13.301,29.022 12.397,30.452 12.081,30.452 C 11.764,30.452 12.261,29.397 12.261,28.765 C 12.261,28.437 11.471,27.874 11.312,28.202 C 10.928,29.046 10.341,30.546 9.73,30.546 C 9.12,30.546 10.115,27.756 11.245,27.756 C 11.697,27.756 11.968,28.015 11.968,27.827 C 11.968,27.171 11.493,26.819 10.883,26.819 C 9.211,26.819 8.103,28.952 8.103,30.663 C 8.103,31.553 8.555,32.046 9.211,32.046 C 9.911,32.046 10.611,31.156 10.861,30.569 C 10.634,31.647 11.019,32.046 11.561,32.046 C 12.42,32.046 13.121,31.062 13.821,29.913 C 13.572,31.624 13.437,32.046 13.844,32.046 C 14.092,32.046 14.499,31.952 14.702,31.741 C 15.267,31.155 16.036,30.031 16.42,29.304 C 16.013,31.319 15.855,32.022 16.262,32.022 C 16.488,32.022 17.03,31.929 17.279,31.671 C 17.844,31.085 18.319,30.358 18.703,29.726 C 18.409,31.577 18.68,32.022 19.268,32.022 C 19.855,32.022 20.759,31.342 21.256,30.358 C 21.369,31.648 21.912,32.022 22.476,32.022 C 23.629,32.022 25.324,30.64 25.324,28.108 C 25.302,27.593 25.098,27.03 24.33,27.03 Z M 44.421,30.804 C 43.54,30.804 44.105,28.624 44.715,28.179 C 44.557,28.765 44.851,29.257 45.348,29.257 C 45.348,29.749 44.896,30.804 44.421,30.804 Z M 34.907,27.968 C 35.472,27.968 34.794,29.515 33.935,29.585 C 34.115,28.647 34.681,27.968 34.907,27.968 Z M 51.337,30.663 C 50.772,30.663 51.337,27.663 50.614,27.663 C 50.365,27.663 49.732,27.803 49.439,28.085 C 49.122,28.39 48.738,28.999 48.399,29.445 C 48.783,27.968 49.032,27.007 48.489,27.007 C 48.241,27.007 47.766,27.147 47.472,27.312 C 47.202,27.476 46.636,27.851 46.184,28.108 C 45.981,27.522 45.551,27.382 45.19,27.382 C 45.19,27.054 45.032,26.866 44.738,26.866 C 44.06,26.866 43.268,27.733 42.862,28.765 C 42.387,29.655 41.8,30.405 41.552,30.405 C 41.212,30.405 41.8,28.202 42.297,26.445 C 42.636,26.468 42.975,26.491 43.201,26.491 C 44.151,26.491 44.399,25.741 44.399,25.272 C 44.399,24.874 44.015,25.437 42.817,25.437 H 42.568 C 42.704,24.991 42.794,24.64 42.839,24.452 C 42.907,24.265 42.839,24.147 42.681,24.147 C 42.229,24.147 41.506,24.546 41.348,25.062 A 2.117,2.117 0 0,1 41.235,25.413 H 40.67 C 39.97,25.413 39.63,25.811 39.63,26.21 C 39.63,26.468 39.811,26.28 40.421,26.28 C 40.557,26.28 40.761,26.28 40.986,26.304 C 40.851,26.796 40.715,27.288 40.602,27.664 C 40.422,28.249 39.788,29.21 39.042,29.984 V 29.89 C 39.02,29.093 38.862,26.796 38.41,26.796 C 38.093,26.796 37.302,27.265 37.167,27.593 C 36.76,28.671 35.201,30.921 34.229,30.921 C 33.98,30.921 33.889,30.71 33.867,30.381 C 34.817,30.288 35.969,29.186 35.969,27.991 C 35.969,27.405 35.653,26.866 34.884,26.866 C 33.483,26.866 32.421,28.765 32.421,30.311 C 32.421,31.319 32.963,31.999 33.935,31.999 C 35.924,31.999 37.099,29.561 37.574,28.789 C 38.139,31.319 36.331,30.921 36.331,31.249 C 36.331,31.601 36.715,31.999 37.212,31.999 H 37.28 C 38.093,31.999 39.269,31.249 40.105,29.959 C 39.924,31.249 39.969,31.999 40.76,31.999 C 41.416,31.999 42.116,31.366 42.59,30.616 C 42.749,31.413 43.246,31.999 43.992,31.999 C 45.28,31.999 46.116,30.429 46.207,29.116 A 8.488,8.488 0 0,0 47.224,28.694 C 46.884,30.664 46.342,32.022 46.907,32.022 C 47.133,32.022 47.631,31.835 47.924,31.53 C 48.264,31.179 49.348,29.327 49.552,29.327 C 49.868,29.327 49.235,32.022 50.433,32.022 C 51.224,32.022 51.993,31.062 51.993,30.546 C 52.06,30.124 51.586,30.663 51.337,30.663 Z" fill="rgb(254, 254, 253)"/>
</svg>
