<?xml version="1.0" encoding="UTF-8"?>
<!-- generated by Finnhub -->
<svg viewBox="0 0 55.5 55.5" xmlns="http://www.w3.org/2000/svg">
<path d="M 0,0 H 55.5 V 55.5 H 0 Z" fill="rgb(19, 49, 98)"/>
<path d="M 12.99,28.581 C 13,28.9 12.776,29 12.434,29 H 11.512 C 11.172,29 11,28.9 11,28.596 V 26.408 C 11,26.105 11.171,26 11.512,26 H 12.434 C 12.776,26 13,26.105 13,26.408 V 28.596 Z M 12.434,25.036 H 11.512 C 10.659,25.036 9.967,25.651 9.967,26.408 V 28.596 C 9.967,29.354 10.659,29.968 11.512,29.968 H 12.434 C 12.828,29.968 13.187,29.838 13.461,29.622 C 13.779,29.371 13.979,29.004 13.979,28.596 V 26.408 C 13.979,25.651 13.288,25.036 12.435,25.036 Z M 4.5,23 C 4.144,23 4,23.102 4,23.301 V 29.748 C 4,29.955 4.144,30.05 4.5,30.05 C 4.855,30.05 5,29.947 5,29.748 V 23.301 C 5,23.094 4.855,23 4.5,23 Z M 21.727,29.004 L 20.188,29.005 C 19.848,29.005 19.568,28.756 19.568,28.453 V 26.548 C 19.568,26.246 19.848,26 20.188,26 H 21.727 V 29.004 Z M 22.189,23 H 22.187 C 21.861,23 21.727,23.106 21.727,23.313 V 25 H 20.188 C 19.338,25 18.648,25.621 18.648,26.376 V 28.631 C 18.648,29.388 19.338,29.999 20.188,29.999 C 20.188,29.999 22.224,30.001 22.242,29.999 C 22.53,29.988 22.649,29.881 22.649,29.685 V 23.313 C 22.649,23.098 22.516,23 22.189,23 Z M 32,29.004 L 33.376,29.005 C 33.716,29.005 33.996,28.756 33.996,28.453 V 26.548 C 33.996,26.246 33.716,26 33.376,26 H 32 V 29.004 Z M 31.492,23 H 31.494 C 31.821,23 32,23.106 32,23.313 V 25 H 33.454 C 34.304,25 35,25.621 35,26.376 V 28.631 C 35,29.388 34.303,29.999 33.454,29.999 C 33.454,29.999 31.417,30.001 31.4,29.999 C 31.112,29.988 30.993,29.881 30.993,29.685 V 23.313 C 30.993,23.098 31.166,23 31.493,23 Z M 28.096,23 C 27.761,23 27.623,23.106 27.623,23.314 V 29.692 C 27.623,29.908 27.76,30.008 28.096,30.008 C 28.433,30.008 28.569,29.9 28.569,29.692 V 23.314 C 28.569,23.098 28.433,23 28.096,23 Z M 51.5,23 C 51.146,23 51,23.101 51,23.3 V 29.7 C 51,29.906 51.146,30 51.5,30 C 51.856,30 52,29.897 52,29.7 V 23.3 C 52,23.093 51.856,23 51.5,23 Z M 49.507,23 C 49.156,23 49.014,23.101 49.014,23.3 V 29.7 C 49.014,29.906 49.156,30 49.507,30 C 49.861,30 50.004,29.897 50.004,29.7 V 23.3 C 50.004,23.093 49.861,23 49.507,23 Z M 29.803,23 C 29.461,23 29.321,23.106 29.321,23.314 V 29.68 C 29.321,29.896 29.461,29.995 29.803,29.995 C 30.145,29.995 30.283,29.887 30.283,29.679 V 23.315 C 30.283,23.098 30.145,23 29.803,23 Z M 41.06,25.856 H 43.18 C 43.395,25.856 43.491,25.738 43.491,25.446 S 43.387,25.036 43.181,25.036 H 41.061 C 40.463,25.036 39.98,25.526 39.98,26.132 V 26.683 C 39.98,27.191 40.34,27.663 40.84,27.752 L 42.465,28.055 A 0.281,0.281 0 0,1 42.684,28.321 V 28.873 A 0.275,0.275 0 0,1 42.412,29.15 L 40.29,29.148 C 40.076,29.148 39.98,29.266 39.98,29.557 C 39.98,29.85 40.086,29.967 40.29,29.967 L 42.412,29.969 C 43.01,29.969 43.492,29.479 43.492,28.873 V 28.321 C 43.492,27.814 43.132,27.342 42.632,27.253 L 41.008,26.95 A 0.281,0.281 0 0,1 40.788,26.683 V 26.132 C 40.788,25.981 40.91,25.856 41.061,25.856 M 18.296,26.11 C 18.296,25.497 17.746,25 17.066,25 H 15.53 C 14.85,25 14.3,25.497 14.3,26.11 L 14.298,29.679 C 14.298,29.899 14.431,29.999 14.759,29.999 S 15.219,29.891 15.219,29.679 V 26.286 C 15.219,26.133 15.359,26.006 15.529,26.006 H 17.066 C 17.236,26.006 17.376,26.133 17.376,26.286 V 29.679 C 17.376,29.899 17.508,29.999 17.836,29.999 S 18.298,29.891 18.298,29.679 V 28.268 L 18.296,26.11 Z M 38.012,29.005 L 36.642,29.007 A 0.282,0.282 0 0,1 36.362,28.726 V 28.262 C 36.362,28.109 36.489,27.983 36.642,27.983 H 38.012 V 29.005 Z M 37.902,25.001 L 35.87,25 C 35.652,25 35.552,25.216 35.552,25.513 C 35.552,25.809 35.66,25.98 35.87,25.98 H 37.735 A 0.28,0.28 0 0,1 38.013,26.26 V 27.007 H 36.52 C 35.908,27.007 35.414,27.502 35.414,28.116 V 28.889 C 35.414,29.503 35.908,29.999 36.52,29.999 H 38.595 C 38.818,29.999 39.007,29.809 39.007,29.584 V 26.111 C 39.007,25.498 38.514,25.001 37.903,25.001 Z M 24,26.274 C 24,26.13 24.146,26.003 24.316,26.003 H 25.699 C 25.869,26.003 26,26.13 26,26.273 V 27 H 24 V 26.274 Z M 26.68,29 H 24.316 C 24.146,29 24,28.884 24,28.73 V 27.998 H 26.572 C 26.842,27.998 27,27.826 27,27.581 V 26.11 C 27,25.505 26.482,25 25.803,25 H 24.263 C 23.583,25 23,25.505 23,26.11 V 28.89 C 23,29.503 23.584,30 24.263,30 H 26.68 C 26.925,30 27.034,29.822 27.034,29.527 C 27.034,29.231 26.914,29 26.68,29 Z M 45,26.274 C 45,26.13 45.13,26.003 45.3,26.003 H 46.682 C 46.852,26.003 47,26.13 47,26.273 V 27 H 45 V 26.274 Z M 47.664,29 H 45.3 C 45.13,29 45,28.884 45,28.73 V 27.998 H 47.556 C 47.826,27.998 48,27.826 48,27.581 V 26.11 C 48,25.505 47.466,25 46.786,25 H 45.246 C 44.567,25 44,25.505 44,26.11 V 28.89 C 44,29.503 44.567,30 45.247,30 H 47.664 C 47.909,30 48.018,29.822 48.018,29.527 C 48.018,29.231 47.898,29 47.664,29 Z M 9.36,25.076 C 9.077,25.01 8.909,25.156 8.852,25.322 L 7.657,28.744 L 6.457,25.317 C 6.399,25.151 6.202,24.998 5.937,25.074 C 5.594,25.174 5.632,25.44 5.667,25.537 L 7.237,29.985 L 7.033,30.575 C 7.033,30.577 6.979,30.806 6.678,30.806 H 6.214 C 6.07,30.806 5.937,30.855 5.937,31.208 C 5.937,31.494 6.043,31.611 6.303,31.611 H 6.65 C 7.076,31.611 7.541,31.524 7.765,30.886 L 9.631,25.542 C 9.665,25.444 9.685,25.153 9.359,25.076 Z M 50,32.361 C 50,32.113 49.787,32 49.5,32 C 49.212,32 49,32.123 49,32.361 V 35.637 C 49,35.887 49.212,35.997 49.5,35.997 C 49.787,35.997 50,35.876 50,35.637 V 32.361 Z M 52,32.361 C 52,32.113 51.787,32 51.5,32 C 51.212,32 51,32.123 51,32.361 V 35.637 C 51,35.887 51.212,35.997 51.5,35.997 C 51.787,35.997 52,35.875 52,35.637 V 32.361 Z M 23,32.394 C 23,32.146 22.788,32.033 22.5,32.033 C 22.213,32.033 22,32.155 22,32.394 C 22,32.547 22,35.637 21.993,35.67 C 21.993,35.919 22.213,36.03 22.5,36.03 C 22.788,36.03 23,35.908 23,35.67 V 32.394 Z M 5,35.637 C 5,35.876 4.788,35.997 4.5,35.997 C 4.213,35.997 4,35.887 4,35.637 V 32.361 C 4,32.123 4.213,32 4.5,32 C 4.788,32 5,32.113 5,32.361 V 35.637 Z M 28.123,32.03 C 28.479,32.03 28.623,32.143 28.623,32.391 V 35.667 C 28.623,35.906 28.479,36.027 28.123,36.027 S 27.623,35.917 27.623,35.667 V 32.391 C 27.623,32.153 27.767,32.03 28.123,32.03 Z M 29.81,32 C 30.165,32 30.31,32.113 30.31,32.361 V 35.637 C 30.31,35.876 30.165,35.997 29.81,35.997 C 29.453,35.997 29.31,35.887 29.31,35.637 V 32.361 C 29.31,32.123 29.453,32 29.81,32 Z M 31.493,32 C 31.849,32 31.993,32.113 31.993,32.361 V 35.637 C 31.993,35.876 31.849,35.997 31.493,35.997 S 30.993,35.887 30.993,35.637 V 32.361 C 30.993,32.123 31.137,32 31.493,32 Z" fill="rgb(254, 254, 253)"/>
</svg>
