<?xml version="1.0" encoding="UTF-8"?>
<!-- generated by Finnhub -->
<svg viewBox="0 0 55.5 55.5" xmlns="http://www.w3.org/2000/svg">
<path d="M 0,0 H 55.5 V 55.5 H 0 Z" fill="url(#a)"/>
<path d="M 8.99,15.985 H 15 L 15.002,30.425 C 15.002,32.795 16.064,34.205 16.903,34.81 C 16.014,35.617 12.764,36.323 10.739,34.609 C 9.545,33.599 9.002,31.937 9.002,30.374 L 9,16 Z M 45.002,28 V 26 H 47 V 21 H 45.002 C 44.5,17.5 41.458,15 38,15 C 34.017,15 30.002,18 30.002,22.531 V 35.5 C 31.136,35.663 32.942,35.239 34.092,34.265 C 35.285,33.255 36.008,31.563 36.008,30 L 36,29 H 38.002 V 24 L 36.002,23.99 L 35.995,23.322 L 36.002,23 C 36.002,21.968 36.488,21 37.5,21 C 38.511,21 39,21.968 39,23 V 28 C 39.002,32.632 43.017,35.5 47,35.5 V 29.976 C 45.989,29.976 45.002,29.032 45.002,28 Z M 23.002,21 V 28.898 C 23.002,29.358 23.03,30 22.502,30 C 22.03,30 22.002,29.357 22.002,28.898 V 21 H 16.002 V 30.324 C 16.002,32.038 16.572,34.205 19.163,34.911 C 21.758,35.618 22.643,34.155 22.643,34.155 C 22.507,35.119 22.237,35.825 20.804,35.975 C 19.72,36.09 18.191,35.803 17.5,35.5 V 40.5 C 19.262,41.03 21.799,41.14 23.473,40.809 C 26.783,40.154 29.002,37.331 29.002,33.575 V 21 H 23.002 Z" fill="rgb(254, 254, 253)"/>
<defs>
<linearGradient id="a" x2="56" y2="56" gradientUnits="userSpaceOnUse">
<stop stop-color="rgb(254, 7, 241)" offset="0"/>
<stop stop-color="rgb(254, 8, 198)" offset="1"/>
</linearGradient>
</defs>
</svg>
