<?xml version="1.0" encoding="UTF-8"?>
<!-- generated by Finnhub -->
<svg fill="none" viewBox="0 0 55.5 55.5" xmlns="http://www.w3.org/2000/svg">
<path d="M 0,0 H 55.5 V 55.5 H 0 Z" fill="rgb(224, 32, 56)"/>
<path d="M 6.99,24.985 H 8.55 V 28.57 H 10.724 V 30 H 7 V 25 Z M 13,25 H 14.655 L 15.515,27.787 L 16.373,25 H 18 L 16.206,30 H 14.794 L 13,25 Z M 18.005,25 H 22 V 26.37 H 19.53 V 26.877 H 21.804 V 28 H 19.531 V 28.63 H 22 V 30 H 18 V 25 H 18.005 Z" fill="rgb(254, 254, 253)"/>
<path d="M 23.99,24.985 H 25.435 L 27,27.208 V 25 H 28.588 V 30 H 27.228 L 25.524,27.694 V 30 H 24.004 V 25 H 24 Z M 30.602,25 H 32.122 L 34.052,30 H 32.39 L 32.148,29.335 H 30.544 L 30.306,30 H 28.668 L 30.603,25 Z M 31.77,28.157 L 31.35,26.951 L 30.929,28.157 H 31.77 Z M 34.304,26.415 H 33 V 25 H 37 V 26.415 H 35.834 V 30 H 34.2 V 26.415 H 34.304 Z M 37.418,25 H 39 V 30 H 37.418 V 25 Z M 39.2,27.515 V 27.5 C 39.2,26.108 40.293,25 41.707,25 A 2.456,2.456 0 0,1 44.2,27.485 V 27.5 C 44.2,28.892 43.107,30 41.692,30 A 2.455,2.455 0 0,1 39.2,27.515 Z M 42.657,27.515 V 27.5 C 42.657,26.93 42.286,26.418 41.693,26.418 C 41.109,26.418 40.743,26.926 40.743,27.485 V 27.5 C 40.743,28.07 41.113,28.582 41.707,28.582 C 42.291,28.582 42.657,28.074 42.657,27.515 Z M 44.412,25 H 45.847 L 47.48,27.208 V 25 H 49 V 30 H 47.634 L 46,27.694 V 30 H 44.412 V 25 Z M 13.496,24.242 L 13.366,24.02 C 13.346,23.983 13.313,24.01 13.313,24.01 S 13.205,24.089 13.146,24.126 C 13.086,24.163 13.092,24.21 13.092,24.232 C 13.092,24.258 13.075,24.402 13.075,24.402 A 0.192,0.192 0 0,1 13.043,24.475 L 12.083,25.207 L 11.965,25.233 L 11.668,25.376 L 11.685,25.18 C 11.706,25.19 11.738,25.223 11.76,25.228 C 11.787,25.233 11.83,25.222 11.83,25.222 S 11.814,25.185 11.814,25.164 C 11.814,25.144 11.819,25.106 11.819,25.106 S 11.862,25.132 11.9,25.132 C 11.927,25.132 11.954,25.122 11.97,25.112 C 11.986,25.101 12.003,25.08 12.003,25.08 S 11.949,25.048 11.927,25.027 C 11.917,25.011 11.895,24.989 11.906,24.989 C 11.933,24.989 11.976,24.952 11.976,24.952 S 11.949,24.936 11.922,24.915 A 0.135,0.135 0 0,1 11.873,24.852 L 11.857,24.804 S 11.873,24.825 11.911,24.825 C 11.943,24.825 11.976,24.804 11.976,24.804 S 11.949,24.788 11.933,24.772 A 0.3,0.3 0 0,1 11.889,24.703 A 0.787,0.787 0 0,0 11.863,24.619 C 11.857,24.603 11.857,24.581 11.846,24.544 C 11.836,24.459 11.798,24.422 11.798,24.422 C 11.685,24.274 11.426,24.237 11.426,24.237 C 11.296,24.211 11.162,24.38 11.108,24.55 C 11.021,24.83 11.048,25.106 11.048,25.106 S 11.054,25.159 11.097,25.186 C 11.124,25.201 11.237,25.228 11.237,25.228 L 11.227,25.456 L 10.951,25.476 L 10.574,25.254 L 9.814,24.698 S 9.781,24.677 9.776,24.618 C 9.776,24.618 9.76,24.475 9.76,24.449 C 9.76,24.422 9.765,24.38 9.706,24.343 C 9.646,24.306 9.539,24.226 9.539,24.226 S 9.501,24.195 9.479,24.232 L 9.35,24.454 L 9.404,24.666 S 9.426,24.709 9.464,24.746 L 9.512,24.793 L 9.792,25.043 H 9.798 L 10.261,25.45 L 10.396,25.578 S 10.406,25.593 10.406,25.62 V 25.72 S 10.406,25.742 10.418,25.758 C 10.434,25.774 10.682,25.97 10.682,25.97 S 10.698,25.985 10.698,26.017 L 10.741,27.48 S 10.741,27.5 10.763,27.5 L 10.843,27.533 L 11.027,29.133 L 11.377,30.193 L 10.822,30.458 S 10.8,30.468 10.79,30.489 C 10.79,30.489 10.757,30.553 10.757,30.564 C 10.757,30.584 10.773,30.59 10.773,30.59 H 11.598 L 11.518,30.802 L 11.496,30.86 S 11.469,30.966 11.512,30.982 C 11.561,30.998 11.706,31.003 11.771,30.998 C 11.851,30.993 11.997,30.982 12.024,30.961 C 12.046,30.94 12.057,30.839 11.938,30.193 L 11.868,27.692 L 12.078,26.123 C 12.1,25.948 12.121,25.933 12.121,25.933 S 12.348,25.768 12.369,25.747 C 12.391,25.726 12.385,25.694 12.385,25.694 V 25.519 C 12.385,25.488 12.396,25.461 12.396,25.461 L 12.579,25.286 L 12.633,25.233 L 13.216,24.683 L 13.318,24.566 L 13.367,24.518 C 13.399,24.481 13.421,24.438 13.421,24.438 S 13.464,24.332 13.48,24.301 C 13.512,24.279 13.496,24.242 13.496,24.242 Z" fill="rgb(0, 0, 3)"/>
<path d="M 4.49,22.485 H 51.5 V 32.5 H 4.5 Z" stroke="rgb(254, 254, 253)"/>
</svg>
