<?xml version="1.0" encoding="UTF-8"?>
<!-- generated by Finnhub -->
<svg viewBox="0 0 55.5 55.5" xmlns="http://www.w3.org/2000/svg">
<path d="M 0,0 H 55.5 V 55.5 H 0 Z" fill="rgb(224, 25, 41)"/>
<path d="M 30.918999999999997,32.503 C 31.31,32.178 31.658,31.954 32.022,31.809 C 32.384,31.666 32.782,31.596 33.307,31.589 C 33.892,31.589 34.493,31.759 35,32.067 C 35.589,32.427 36.026,32.96 36.261,33.61 L 36.346,33.846 H 37.449 L 37.281,33.371 A 4.027,4.027 0 0,0 35.518,31.214 A 4.518,4.518 0 0,0 33.253,30.596 C 32.075,30.596 30.99,31.031 30.198,31.821 C 29.406,32.611 28.969,33.693 28.969,34.867 C 28.969,35.948 29.373,37.008 30.078,37.775 C 30.881,38.648 32.003,39.11 33.323,39.11 C 34.206,39.11 35.044,38.856 35.747,38.377 A 4.037,4.037 0 0,0 37.266,36.409 L 37.373,36.086 H 36.261 L 36.245,36.172 C 36.077,36.658 35.711,37.135 35.239,37.481 A 3.38,3.38 0 0,1 33.253,38.116 C 32.82,38.116 32.4,38.038 32.006,37.883 A 3.189,3.189 0 0,1 30.964,37.214 A 3.1,3.1 0 0,1 30.246,36.157 A 3.413,3.413 0 0,1 29.996,34.853 C 29.996,34.405 30.085,33.946 30.256,33.527 C 30.422,33.115 30.656,32.765 30.929,32.518 Z M 16.992,31.672 A 2.741,2.741 0 0,0 15.983,31.036 C 15.238,30.765 14.216,30.742 13.369,31.097 A 3.055,3.055 0 0,0 11.974,32.255 A 2.168,2.168 0 0,0 11.705,31.865 A 2.763,2.763 0 0,0 10.635,31.09 A 3.619,3.619 0 0,0 9.245,30.829 C 8.925,30.829 8.437,30.879 7.922,31.113 A 2.962,2.962 0 0,0 7.026,31.743 V 30.829 H 6 V 38.999 H 7 V 34.551 C 7,34.085 7.077,33.706 7.182,33.372 A 2.3,2.3 0 0,1 7.66,32.52 A 1.77,1.77 0 0,1 8.341,32 C 8.635,31.87 8.946,31.805 9.235,31.821 C 9.635,31.834 9.987,31.908 10.279,32.039 C 10.563,32.168 10.801,32.354 10.985,32.589 C 11.158,32.819 11.263,33.021 11.335,33.263 C 11.425,33.559 11.466,33.922 11.466,34.405 L 11.463,39 H 12.489 V 34.63 C 12.489,34.122 12.505,33.717 12.585,33.39 C 12.655,33.103 12.781,32.855 13.007,32.564 C 13.197,32.317 13.463,32.125 13.798,31.994 A 2.742,2.742 0 0,1 15.616,31.964 C 15.864,32.053 16.076,32.189 16.251,32.369 C 16.471,32.589 16.638,32.88 16.749,33.237 C 16.867,33.617 17,34.086 17,34.63 V 39 H 18 V 34.63 A 5.7,5.7 0 0,0 17.72,32.911 C 17.56,32.402 17.314,31.985 16.992,31.671 Z M 49.494,34.741 C 49.045,34.403 48.502,34.257 47.973,34.114 L 47.914,34.099 C 47.365,33.946 47.041,33.804 46.828,33.624 C 46.613,33.44 46.509,33.197 46.491,32.838 A 1.219,1.219 0 0,1 46.56,32.368 C 46.613,32.223 46.693,32.094 46.798,31.984 C 46.915,31.861 47.063,31.764 47.236,31.696 C 47.416,31.626 47.616,31.59 47.838,31.59 C 48.019,31.583 48.204,31.613 48.372,31.674 C 48.527,31.73 48.662,31.812 48.77,31.918 C 48.873,32.02 48.955,32.147 49.012,32.295 C 49.072,32.451 49.104,32.631 49.107,32.829 V 33.404 H 50.132 L 50.133,32.817 C 50.122,32.17 49.896,31.617 49.481,31.217 C 49.069,30.82 48.499,30.606 47.829,30.597 C 47.216,30.597 46.647,30.788 46.225,31.137 C 45.729,31.547 45.467,32.142 45.467,32.864 C 45.491,33.558 45.72,34.054 46.189,34.424 C 46.607,34.756 47.184,34.94 47.749,35.102 C 48.339,35.232 48.729,35.405 48.974,35.649 C 49.2,35.874 49.311,36.179 49.322,36.605 L 49.323,36.655 C 49.323,36.856 49.288,37.047 49.218,37.222 C 49.15,37.396 49.048,37.552 48.919,37.686 A 1.397,1.397 0 0,1 48.441,38.004 A 1.645,1.645 0 0,1 47.829,38.117 C 47.356,38.117 46.955,37.971 46.67,37.695 C 46.387,37.42 46.233,37.029 46.224,36.565 V 36.085 L 45.217,36.091 L 45.192,36.671 C 45.192,36.974 45.246,37.266 45.353,37.54 C 45.461,37.813 45.62,38.062 45.826,38.28 C 46.071,38.54 46.383,38.752 46.728,38.895 C 47.07,39.035 47.451,39.11 47.829,39.11 C 48.185,39.11 48.529,39.043 48.85,38.908 C 49.171,38.773 49.454,38.578 49.691,38.328 A 2.386,2.386 0 0,0 50.347,36.525 C 50.305,35.725 50.026,35.141 49.494,34.741 Z M 27,30.722 V 32 C 26.78,31.752 26.451,31.52 26.165,31.329 A 4.384,4.384 0 0,0 23.715,30.596 C 22.09,30.596 21.087,31.336 20.531,31.956 A 4.378,4.378 0 0,0 19.433,34.853 C 19.433,35.916 19.833,36.973 20.53,37.749 C 21.086,38.369 22.09,39.109 23.715,39.109 C 24.558,39.109 25.318,38.909 25.973,38.514 C 26.333,38.297 26.723,37.822 27,37.5 V 39 H 28 V 30.722 H 27 Z M 26.933,35.398 A 2.915,2.915 0 0,1 26.776,35.984 A 3.193,3.193 0 0,1 25.616,37.544 A 3.2,3.2 0 0,1 23.758,38.116 C 22.756,38.116 21.908,37.766 21.307,37.103 C 20.774,36.516 20.464,35.695 20.457,34.853 C 20.457,33.949 20.788,33.121 21.388,32.52 C 21.988,31.92 22.814,31.59 23.715,31.59 C 24.386,31.59 25.025,31.778 25.565,32.133 C 26.101,32.486 26.507,32.987 26.742,33.585 C 26.817,33.761 26.875,33.95 26.913,34.147 C 26.953,34.345 26.973,34.556 26.973,34.781 C 26.98,34.984 26.967,35.191 26.933,35.398 Z M 27.395,8 L 25.189,14.753 H 18.005 L 23.825,18.95 L 21.62,25.705 L 27.386,21.525 L 33.186,25.725 L 30.97,18.939 L 36.764,14.753 H 29.603 L 27.395,8 Z M 41.091,37.292 L 38.489,30.722 H 37.376 L 37.585,31.32 C 37.608,31.38 38.349,33.242 39.085,35.088 L 40.501,38.644 L 39.022,41.999 H 40.164 L 44.787,31.327 L 44.999,30.721 H 43.852 L 41.092,37.292 Z" fill="rgb(254, 254, 253)"/>
</svg>
