<?xml version="1.0" encoding="UTF-8"?>
<!-- generated by Finnhub -->
<svg viewBox="0 0 55.5 55.5" xmlns="http://www.w3.org/2000/svg">
<path d="M 0,0 H 55.5 V 55.5 H 0 Z" fill="rgb(1, 86, 2)"/>
<path d="M 51.99,32.985 H 42 V 34 H 52 V 33 Z M 52,24 H 47 V 25 H 49 V 31 H 50 V 25 H 52 V 24 Z M 44.645,24 C 45.76,24.02 46.487,24.55 46.712,24.814 L 46,25.503 C 45.827,25.291 45.263,25.001 44.645,25.001 S 43.462,25.267 43.425,25.783 C 43.389,26.299 43.725,26.699 44.645,26.939 C 45.811,27.243 46.995,27.737 46.995,29.085 C 46.995,30.475 45.743,31.012 44.35,31 C 43.235,30.99 42.319,30.238 42,29.863 L 42.682,29.086 C 43.296,29.88 44.147,29.986 44.645,30 C 45.144,30.015 45.991,29.863 46,29.085 C 46.009,28.308 44.94,28.068 43.925,27.745 C 42.909,27.422 42.39,26.752 42.425,25.783 C 42.461,24.814 43.252,23.977 44.645,24 Z M 31,34 V 24 H 33 L 38,30 V 24 H 40 V 34 H 38 L 33,28 V 34 H 31 Z M 30.003,24 H 28.003 V 34 H 30.003 V 24 Z M 21,24 L 17,34 H 19.397 L 20.141,32 H 23.793 L 24.504,34 H 27 L 23,24 H 21 Z" fill="rgb(254, 254, 253)"/>
<path d="M 20.729999999999997,29.985 L 22.01,27 L 23.25,30 H 20.74 Z" fill="rgb(1, 86, 2)"/>
<path d="M 3.99,23.985 V 34 H 6 V 27 L 9,34 H 11 L 14,27 V 34 H 16 V 24 H 13 L 10,31 L 7,24 H 4 Z" fill="rgb(254, 254, 253)"/>
</svg>
