<?xml version="1.0" encoding="UTF-8"?>
<!-- generated by Finnhub -->
<svg viewBox="0 0 55.5 55.5" xmlns="http://www.w3.org/2000/svg">
<path d="M 0,0 H 55.5 V 55.5 H 0 Z" fill="rgb(162, 41, 31)"/>
<path d="M 29.576999999999998,42.689 C 29.459,43.08 29.046,44 28.047,44 C 26.914,44 26.518,42.788 26.499,42.738 L 26.467,42.622 S 27.444,42.702 27.982,42.702 C 28.52,42.702 29.439,42.65 29.589,42.622 L 29.587,42.704 Z"/>
<path d="M 32.552,42.091 L 32.796,42.136 C 32.518,42.852 32.019,43.654 31.039,43.654 C 30.09,43.654 29.619,43.111 29.419,42.746 L 29.255,42.646 S 30.896,42.593 32.562,42.106 Z M 23.567,42.106 L 23.333,42.136 C 23.61,42.852 24.11,43.654 25.09,43.654 C 26.039,43.654 26.552,43.08 26.762,42.746 L 26.874,42.646 S 25.233,42.593 23.567,42.106 Z"/>
<path d="M 28.833,42.763 C 28.689,42.998 28.587,42.988 28.402,42.988 C 28.309,42.988 28.17,43.064 28.174,43.201 C 28.177,43.309 28.266,43.399 28.417,43.399 C 28.752,43.399 29.007,42.937 29.079,42.742 C 29.079,42.742 29.277,42.733 29.335,42.728 C 29.335,42.728 28.98,43.771 28.06,43.771 C 27.138,43.771 26.762,42.739 26.762,42.739 S 27.538,42.786 27.982,42.786 C 28.427,42.786 28.71,42.784 28.843,42.778 Z M 32.44,42.319 C 31.838,42.479 31.41,42.609 30.4,42.73 C 30.4,42.73 30.432,42.833 30.652,42.822 C 30.736,42.817 30.747,42.797 30.778,42.792 C 30.841,42.78 30.936,42.844 30.925,42.952 C 30.917,43.029 30.851,43.124 30.627,43.124 C 30.404,43.124 30.142,42.944 30.011,42.776 C 30.011,42.776 29.877,42.806 29.738,42.814 C 29.738,42.814 30.168,43.408 31.015,43.408 C 31.948,43.408 32.293,42.586 32.44,42.319 Z" fill="rgb(254, 241, 43)"/>
<path d="M 23.68,42.305 C 24.291,42.48 24.718,42.608 25.728,42.73 C 25.728,42.73 25.697,42.833 25.478,42.821 C 25.393,42.817 25.382,42.797 25.35,42.791 C 25.288,42.78 25.192,42.844 25.204,42.953 C 25.212,43.028 25.278,43.124 25.501,43.124 C 25.725,43.124 25.986,42.944 26.118,42.776 C 26.118,42.776 26.253,42.806 26.392,42.814 C 26.392,42.814 25.962,43.408 25.114,43.408 C 24.18,43.408 23.836,42.586 23.69,42.319 Z M 27.97,37.423 C 31.185,37.423 34.748,35.475 37.245,32.667 C 37.515,32.363 37.974,31.787 39.061,31.787 A 2.46,2.46 0 0,1 41.423,34.547 C 41.299,35.845 39.419,38.771 36.205,40.574 C 32.99,42.378 30.029,42.766 27.971,42.766 C 25.911,42.766 22.951,42.378 19.736,40.574 C 16.521,38.771 14.642,35.844 14.517,34.546 A 2.46,2.46 0 0,1 16.88,31.788 C 17.967,31.788 18.426,32.364 18.696,32.667 C 21.193,35.475 24.756,37.423 27.97,37.423 Z" fill="rgb(254, 241, 43)"/>
<path d="M 27.959999999999997,37.295 C 29.528,37.31 31.17,36.845 32.732,36.045 A 15.445,15.445 0 0,0 37.159,32.592 C 37.298,32.436 37.485,32.21 37.784,32.019 C 38.085,31.826 38.492,31.674 39.061,31.674 C 39.121,31.674 39.183,31.677 39.25,31.684 C 39.774,31.732 40.35,31.982 40.794,32.417 C 41.239,32.853 41.553,33.474 41.553,34.263 C 41.553,34.355 41.548,34.453 41.538,34.557 C 41.468,35.303 40.84,36.562 39.731,37.843 A 13.133,13.133 0 0,1 36.262,40.673 A 17.262,17.262 0 0,1 31.68,42.458 C 29.24,43.021 26.701,43.021 24.261,42.458 A 17.263,17.263 0 0,1 19.68,40.673 A 13.14,13.14 0 0,1 16.21,37.843 C 15.102,36.563 14.474,35.303 14.403,34.557 A 3.09,3.09 0 0,1 14.388,34.263 C 14.388,33.473 14.703,32.853 15.148,32.417 A 2.61,2.61 0 0,1 16.692,31.683 C 16.758,31.677 16.821,31.673 16.88,31.673 C 17.45,31.673 17.857,31.826 18.157,32.019 C 18.457,32.209 18.644,32.436 18.783,32.592 A 15.454,15.454 0 0,0 23.21,36.045 C 24.77,36.845 26.413,37.309 27.97,37.309 Z M 27.97,37.537 C 26.375,37.537 24.696,37.064 23.103,36.247 C 21.453,35.401 19.892,34.184 18.609,32.742 C 18.478,32.595 18.301,32.382 18.031,32.209 C 17.764,32.038 17.398,31.902 16.88,31.902 A 1.82,1.82 0 0,0 16.713,31.91 A 2.373,2.373 0 0,0 15.31,32.579 C 14.905,32.976 14.62,33.541 14.62,34.263 C 14.62,34.354 14.624,34.445 14.632,34.536 C 14.7,35.242 15.308,36.451 16.386,37.696 A 12.905,12.905 0 0,0 19.793,40.476 C 21.39,41.371 22.923,41.916 24.313,42.236 A 16.275,16.275 0 0,0 31.628,42.236 C 33.018,41.916 34.551,41.371 36.148,40.476 A 12.9,12.9 0 0,0 39.556,37.696 C 40.633,36.451 41.242,35.242 41.309,34.536 C 41.318,34.446 41.322,34.354 41.322,34.263 C 41.322,33.542 41.036,32.976 40.632,32.579 A 2.373,2.373 0 0,0 39.228,31.909 A 1.818,1.818 0 0,0 39.061,31.902 C 38.544,31.902 38.178,32.038 37.91,32.209 C 37.64,32.382 37.463,32.595 37.332,32.742 A 15.675,15.675 0 0,1 32.839,36.247 C 31.245,37.064 29.567,37.537 27.971,37.537 Z"/>
<path d="M 18.325,32.931 L 18.297,32.904 C 18.041,32.614 17.691,32.216 16.853,32.216 C 16.365,32.216 15.813,32.474 15.445,32.873 C 15.17,33.17 14.858,33.694 14.935,34.494 C 15.039,35.588 16.798,38.424 19.93,40.181 C 22.455,41.597 25.151,42.316 27.944,42.316 C 30.738,42.316 33.434,41.597 35.958,40.181 C 39.09,38.423 40.849,35.588 40.954,34.494 C 41.03,33.694 40.719,33.171 40.444,32.873 C 40.077,32.474 39.524,32.216 39.035,32.216 C 38.198,32.216 37.847,32.614 37.591,32.904 L 37.554,32.946 C 34.862,35.972 31.18,37.852 27.944,37.852 C 24.709,37.852 21.026,35.972 18.334,32.946 Z" fill="rgb(223, 48, 34)"/>
<path d="M 38.289,29.361 C 38.299,27.854 39.549,26.619 41.091,26.619 C 42.634,26.619 43.884,27.854 43.884,29.376 C 43.884,30.899 42.634,32.133 41.091,32.133 C 39.549,32.133 38.299,30.899 38.299,29.376 Z" fill="rgb(254, 241, 43)"/>
<path d="M 38.173,29.361 C 38.183,28.583 38.508,27.866 39.035,27.346 A 2.917,2.917 0 0,1 41.091,26.505 C 41.894,26.505 42.621,26.826 43.148,27.345 A 2.844,2.844 0 0,1 43.148,31.406 A 2.92,2.92 0 0,1 41.091,32.247 A 2.918,2.918 0 0,1 38.403,30.475 A 2.83,2.83 0 0,1 38.183,29.376 Z M 38.414,29.376 C 38.414,30.106 38.714,30.766 39.198,31.245 A 2.686,2.686 0 0,0 41.091,32.019 C 41.831,32.019 42.5,31.723 42.984,31.245 A 2.633,2.633 0 0,0 43.769,29.376 A 2.604,2.604 0 0,0 42.984,27.507 A 2.688,2.688 0 0,0 41.091,26.733 A 2.687,2.687 0 0,0 38.617,28.365 A 2.6,2.6 0 0,0 38.414,29.376 Z"/>
<path d="M 12.105,29.365 C 12.115,27.859 13.365,26.624 14.908,26.624 C 16.451,26.624 17.701,27.859 17.701,29.381 C 17.701,30.904 16.451,32.138 14.908,32.138 C 13.366,32.138 12.115,30.904 12.115,29.381 Z" fill="rgb(254, 241, 43)"/>
<path d="M 11.99,29.365 C 12,28.588 12.325,27.87 12.852,27.35 A 2.902,2.902 0 0,1 14.909,26.51 C 15.712,26.51 16.439,26.831 16.965,27.35 A 2.86,2.86 0 0,1 17.817,29.38 C 17.817,30.174 17.491,30.891 16.965,31.411 A 2.904,2.904 0 0,1 14.909,32.252 A 2.92,2.92 0 0,1 12.852,31.412 A 2.844,2.844 0 0,1 12,29.38 Z M 12.231,29.38 A 2.604,2.604 0 0,0 13.015,31.25 A 2.672,2.672 0 0,0 14.908,32.024 C 15.648,32.024 16.317,31.728 16.801,31.25 A 2.632,2.632 0 0,0 17.586,29.38 C 17.586,28.651 17.286,27.99 16.801,27.512 A 2.686,2.686 0 0,0 14.909,26.738 A 2.698,2.698 0 0,0 13.015,27.512 A 2.633,2.633 0 0,0 12.231,29.381 Z"/>
<path d="M 41.846000000000004,21.945 L 41.871,21.223 C 42.1,21.393 42.534,21.399 42.789,21.131 A 0.685,0.685 0 0,0 42.961,20.626 A 0.933,0.933 0 0,0 42.683,20.019 A 46.891,46.891 0 0,1 40.911,18.21 A 0.768,0.768 0 0,0 40.613,17.944 C 40.495,17.892 40.089,17.709 39.778,18.174 C 39.498,18.597 39.538,19.194 39.589,19.411 L 40.472,20.595 C 40.772,20.971 41.622,21.775 41.856,21.961 Z M 23.05,14.284 C 24.16,13.917 25.172,13.614 26.536,13.494 L 23.05,14.284 Z"/>
<path d="M 23.04,14.272 C 24.16,13.919 25.171,13.617 26.536,13.497 L 26.744,13.381 C 25.981,12.789 25.224,12.386 24.471,12.386 C 23.997,12.386 23.036,12.703 22.82,14.377 L 23.05,14.287 Z M 32.894,14.287 C 31.784,13.919 30.773,13.617 29.409,13.497 L 29.201,13.381 C 29.963,12.789 30.72,12.386 31.473,12.386 C 31.947,12.386 32.909,12.703 33.125,14.377 L 32.894,14.287 Z M 27.062,13.328 C 27.287,13.318 27.808,13.306 28.016,13.306 C 28.224,13.306 28.799,13.333 28.925,13.342 L 27.062,13.328 Z"/>
<path d="M 26.708,13.424999999999999 C 27.276,12.384 27.788,12 28.07,12 C 28.423,12 28.837,12.556 29.162,13.27 L 29.23,13.431 L 28.948,13.408 C 28.756,13.374 28.224,13.368 28.016,13.368 C 27.808,13.368 27.357,13.368 27.086,13.391 L 26.719,13.44 Z"/>
<path d="M 25.616999999999997,38.417 L 25.127,40.27 L 24.197,38.053 L 23.617,37.9 L 22.911,40.5 L 23.54,40.667 L 24.043,38.813 L 24.989,41.05 L 25.553,41.2 L 26.259,38.599 L 25.627,38.432 Z M 27.797,38.76 L 27.081,38.723 L 26.939,41.411 L 27.654,41.448 L 27.797,38.76 Z M 28.44,38.737 L 28.49,39.091 L 29.254,38.985 L 29.584,41.297 L 30.294,41.198 L 29.964,38.887 L 30.716,38.782 L 30.666,38.429 L 28.44,38.737 Z M 35.828,37.641 C 36.175,38.241 36.105,38.678 35.57,38.983 L 35.316,39.127 L 34.313,37.413 L 34.587,37.257 C 35.227,36.892 35.589,37.217 35.827,37.641 Z M 34.433,36.931 L 33.509,37.457 L 34.877,39.797 L 35.794,39.274 C 36.749,38.729 36.837,37.908 36.463,37.252 C 36.011,36.472 35.269,36.454 34.433,36.93 Z M 32.702,40.243 L 32.43,39.416 L 33.238,39.156 L 33.124,38.813 L 32.316,39.072 L 32.084,38.366 L 32.914,38.1 L 32.802,37.76 L 31.287,38.246 L 32.129,40.806 L 33.801,40.27 L 33.687,39.926 L 32.702,40.243 Z M 22.326,37.276 L 21.519,38.715 C 21.275,39.148 21.024,39.423 20.613,39.188 C 20.205,38.966 20.3,38.633 20.549,38.188 L 21.359,36.747 L 20.706,36.39 L 19.851,37.912 C 19.38,38.752 19.974,39.269 20.435,39.522 C 20.932,39.793 21.652,39.995 22.12,39.162 L 22.978,37.633 L 22.326,37.276 Z M 21.864,21.463 V 34.07 L 27.971,37.944 L 34.077,34.07 L 34.084,21.484 C 33.891,21.314 33.484,20.939 33.164,20.745 H 22.749 A 9.875,9.875 0 0,0 21.864,21.465 Z" fill="rgb(254, 241, 43)"/>
<path d="M 21.97,21.448 V 34.006 L 27.97,37.808 L 33.961,34.006 L 33.969,21.483 H 34.2 L 34.192,34.068 V 34.13 L 34.139,34.164 L 28.033,38.039 L 27.97,38.079 L 27.908,38.039 L 21.802,34.164 L 21.749,34.13 V 21.463 H 21.979 Z"/>
<path d="M 33.998000000000005,21.554 L 33.936,21.504 H 33.935 C 33.726,21.318 33.377,21.007 33.103,20.842 L 33.223,20.647 C 33.52,20.826 33.877,21.145 34.091,21.335 H 34.09 L 34.162,21.398 L 34.008,21.568 Z"/>
<path d="M 33.154,20.844 H 22.749 V 20.63 H 33.164 V 20.859 Z"/>
<path d="M 22.805999999999997,20.823 A 8.572,8.572 0 0,0 22.354,21.192 C 22.165,21.345 21.995,21.492 21.949,21.541 L 21.779,21.386 C 21.83,21.331 22.01,21.176 22.207,21.016 A 8.88,8.88 0 0,1 22.683,20.651 L 22.816,20.838 Z"/>
<path d="M 28.392,26.84 C 28.359,26.837 28.207,26.957 28.138,27.066 C 28.068,27.174 28.048,27.314 28.147,27.366 C 28.245,27.417 28.369,27.35 28.399,27.18 C 28.416,27.08 28.449,26.875 28.402,26.855 Z M 27.233,27.18 C 27.259,27.351 27.386,27.417 27.485,27.365 C 27.583,27.315 27.563,27.175 27.494,27.065 C 27.424,26.957 27.281,26.836 27.238,26.855 C 27.192,26.875 27.218,27.083 27.233,27.18 Z M 27.846,28.857 C 28.051,28.525 28.136,28.179 28.136,28.179 H 27.55 S 27.644,28.533 27.846,28.857 Z M 27.947,26.36 L 28.421,25.546 L 28.791,26.36 H 29.404 C 29.034,26.703 28.884,27.22 28.884,27.563 V 27.939 C 28.884,28.099 28.804,28.362 28.804,28.362 S 29.334,28.762 29.416,28.83 C 29.451,28.858 29.487,28.875 29.462,28.944 C 29.42,29.062 29.062,29.22 29.023,29.252 C 28.943,29.321 28.92,29.366 28.943,29.435 C 28.967,29.503 29.034,29.515 29.173,29.469 S 29.601,29.275 29.844,29.172 C 30.087,29.07 30.411,29.092 30.411,29.092 V 28.636 H 29.497 V 27.175 L 29.335,26.919 L 29.74,26.212 L 30.145,26.924 L 29.983,27.174 V 27.939 H 30.451 V 27.174 L 30.289,26.924 L 30.694,26.215 L 31.099,26.924 L 30.937,27.174 V 27.939 H 31.405 V 27.174 L 31.244,26.924 L 31.648,26.215 L 32.053,26.924 L 31.891,27.174 L 31.896,28.634 L 30.977,28.635 V 29.306 C 31.186,29.5 31.382,29.937 31.382,30.2 C 31.382,30.462 31.209,30.576 31.209,30.576 C 31.266,30.782 31.255,30.867 31.232,31.056 C 31.208,31.248 30.966,31.546 30.966,31.546 V 35.027 C 30.966,35.264 30.411,35.242 30.411,35.039 V 31.627 C 30.098,31.284 29.243,31.022 29.243,31.022 C 28.93,31.33 28.733,31.866 28.733,31.866 C 28.873,31.958 29.081,31.866 29.162,31.775 C 29.242,31.684 29.405,31.661 29.497,31.718 C 29.59,31.775 29.613,31.798 29.578,31.935 C 29.544,32.072 29.485,32.299 29.485,32.459 C 29.485,32.619 29.671,32.584 29.809,32.596 C 30.087,32.619 30.133,32.926 30.11,33.098 C 30.087,33.269 30.006,33.635 30.006,33.863 C 30.006,34.091 30.018,34.319 30.041,34.445 C 30.064,34.57 30.111,34.708 30.098,34.867 C 30.083,35.084 29.948,35.119 29.809,34.982 C 29.671,34.845 27.739,32.812 27.739,32.812 C 27.612,33.223 28.144,33.932 28.318,34.148 C 28.491,34.365 28.479,34.525 28.329,34.673 C 28.179,34.822 27.889,34.901 27.832,35.039 C 27.774,35.176 27.971,35.586 28.375,36.1 C 28.78,36.614 27.913,36.956 27.392,37.06 C 26.872,37.162 26.872,36.808 26.907,36.614 A 1.76,1.76 0 0,0 26.93,36.134 C 26.918,35.964 26.756,35.724 26.537,35.438 C 26.317,35.153 26.317,34.89 26.409,34.228 C 26.502,33.566 26.479,33.143 26.479,33.143 S 26.247,33.155 25.912,33.143 C 25.577,33.133 25.299,32.939 25.276,32.14 C 25.253,31.34 25.234,29.435 25.18,29.237 C 25.126,29.039 24.91,29.001 24.817,28.978 C 24.725,28.955 24.718,28.818 24.811,28.772 C 25.051,28.653 25.341,28.362 25.234,28.179 C 25.126,27.996 24.702,28.034 24.417,28.171 C 24.131,28.308 23.831,28.605 23.753,28.689 C 23.676,28.772 23.615,28.772 23.623,28.681 A 4.285,4.285 0 0,0 23.53,28.003 A 2.825,2.825 0 0,0 23.306,27.486 C 23.26,27.41 23.306,27.38 23.384,27.41 C 23.461,27.44 23.63,27.51 23.792,27.555 A 0.331,0.331 0 0,0 24.185,27.372 C 24.262,27.22 24.409,26.892 24.485,26.748 C 24.563,26.603 24.686,26.634 24.787,26.657 C 24.887,26.68 24.98,26.741 25.072,26.779 C 25.164,26.817 25.242,26.809 25.272,26.763 C 25.303,26.718 25.342,26.703 25.396,26.588 C 25.45,26.474 25.519,26.528 25.526,26.573 C 25.803,28.21 26.521,28.285 26.521,28.285 C 26.413,28.559 26.159,28.993 26.097,29.1 C 26.036,29.206 26.013,29.35 25.997,29.465 C 25.982,29.579 26.036,30.659 26.113,31.055 C 26.19,31.451 26.437,31.3 26.513,31.178 C 26.591,31.056 26.83,30.554 26.83,30.554 S 26.892,30.417 26.892,30.302 C 26.892,30.188 26.692,29.937 26.645,29.861 C 26.599,29.785 26.429,29.633 26.429,29.251 C 26.429,28.871 26.776,28.605 26.899,28.506 A 0.319,0.319 0 0,0 27.007,28.186 C 26.953,27.892 26.637,27.273 26.483,27.037 C 26.329,26.801 26.028,26.352 26.028,26.352 H 26.653 L 27.053,25.53 L 27.493,26.356 L 27.947,26.36 Z M 30.411,30.508 V 30.04 S 30.283,29.846 29.971,29.846 S 29.474,29.937 29.474,30.017 C 29.474,30.143 29.751,30.507 30.411,30.507 Z M 22.342,24.608 H 33.608 V 25.366 H 22.343 V 24.608 Z M 22.342,24.218 V 21.197 H 33.608 V 24.217 H 22.343 Z" fill="rgb(223, 48, 34)"/>
<path d="M 31.38,24.293 V 23.792 H 30.572 V 23.459 H 31.24 V 22 H 30.627 L 30.419,21.6 L 30.21,22 H 29.598 V 23.46 H 30.265 V 23.793 H 28.662 V 23.46 H 29.33 V 22 H 28.717 L 28.509,21.6 L 28.301,22 H 27.688 V 23.46 H 28.355 V 23.793 H 26.721 V 23.46 H 27.389 V 22 H 26.776 L 26.568,21.6 L 26.36,22 H 25.747 V 23.46 H 26.414 V 23.793 L 25.122,23.796 L 23.835,23.499 L 24.095,24.309 H 31.39 Z" fill="rgb(254, 241, 43)"/>
<path d="M 24.27,23.418 L 25.143,23.643 L 25.606,22.359 V 22.036 L 24.279,23.433 Z M 26.363,13.413 C 25.025,13.53 24.203,13.81 23.115,14.17 C 23.196,13.708 23.305,13.435 23.494,13.163 C 23.479,13.402 23.676,13.656 24.069,13.656 C 24.462,13.656 24.68,13.432 24.68,13.298 C 24.68,13.164 24.598,12.97 24.386,12.97 C 24.175,12.97 24.13,13.119 24.145,13.179 C 24.16,13.239 24.115,13.253 24.054,13.269 C 23.994,13.283 23.827,13.193 23.888,12.985 C 23.954,12.755 24.235,12.631 24.568,12.631 C 24.568,12.631 25.358,12.599 26.363,13.412 Z M 32.839,14.179 C 31.752,13.819 30.892,13.539 29.554,13.421 C 30.17,12.998 30.744,12.638 31.377,12.638 C 31.709,12.638 31.99,12.763 32.057,12.992 C 32.117,13.202 31.951,13.29 31.89,13.275 C 31.83,13.261 31.785,13.245 31.8,13.186 C 31.815,13.126 31.77,12.977 31.558,12.977 S 31.264,13.171 31.264,13.305 C 31.264,13.44 31.482,13.663 31.875,13.663 S 32.465,13.409 32.451,13.171 C 32.639,13.442 32.758,13.718 32.839,14.179 Z M 27.187,13.167 C 27.151,13.224 27.119,13.266 27.081,13.329 C 27.392,13.316 27.704,13.309 28.016,13.306 C 28.22,13.306 28.783,13.333 28.906,13.342 C 28.707,12.887 28.331,12.258 28.069,12.258 C 28.017,12.258 27.902,12.231 27.686,12.476 C 27.686,12.476 27.653,12.585 27.79,12.564 C 27.963,12.538 28.03,12.714 28.016,12.803 C 27.986,13.007 27.744,13.205 27.502,13.205 C 27.261,13.205 27.187,13.167 27.187,13.167 Z" fill="rgb(254, 241, 43)"/>
<path d="M 15.53,20.58 L 16.422,19.411 C 16.472,19.194 16.514,18.597 16.232,18.175 C 15.922,17.709 15.515,17.893 15.398,17.945 A 0.77,0.77 0 0,0 15.1,18.21 S 14.253,19.134 13.316,20.043 C 13.186,20.169 13.039,20.408 13.027,20.626 A 0.711,0.711 0 0,0 13.211,21.139 C 13.465,21.407 13.911,21.393 14.139,21.223 L 14.155,21.961 C 14.39,21.774 15.238,20.971 15.539,20.595 Z"/>
<path d="M 27.962,18.855 C 32.998,18.87 35.861,23.53 36.483,24.348 C 37.593,25.809 38.95,26.994 40.523,26.601 C 42.836,26.023 42.713,22.64 42.713,22.64 C 42.158,22.244 41.206,21.745 39.474,19.321 C 37.778,16.947 33.939,13.424 27.972,13.424 C 22.004,13.424 18.164,16.947 16.468,19.321 C 14.738,21.745 13.785,22.244 13.23,22.64 C 13.23,22.64 13.107,26.023 15.42,26.6 C 16.993,26.994 18.35,25.81 19.46,24.348 C 20.082,23.53 22.945,18.87 27.972,18.87 Z" fill="rgb(254, 241, 43)"/>
<path d="M 27.961,18.741 C 32.646,18.756 35.462,22.719 36.379,24.008 C 36.462,24.125 36.529,24.22 36.575,24.28 C 37.123,25 37.73,25.653 38.392,26.074 C 39.04,26.488 39.743,26.678 40.495,26.49 C 42.549,25.977 42.602,23.133 42.598,22.699 L 42.454,22.6 C 41.872,22.204 40.937,21.567 39.38,19.387 C 38.407,18.024 36.72,16.279 34.325,15.051 C 32.583,14.158 30.465,13.538 27.971,13.538 C 25.478,13.538 23.36,14.158 21.617,15.051 A 14.401,14.401 0 0,0 16.563,19.387 C 15.005,21.567 14.07,22.204 13.488,22.6 L 13.345,22.699 C 13.341,23.133 13.394,25.977 15.448,26.49 C 16.2,26.678 16.902,26.487 17.551,26.074 C 18.213,25.652 18.82,25 19.368,24.28 C 19.413,24.22 19.481,24.125 19.564,24.008 C 20.48,22.718 23.297,18.756 27.971,18.756 Z M 27.971,18.984 C 23.417,18.984 20.652,22.874 19.753,24.139 C 19.687,24.233 19.62,24.325 19.553,24.416 C 18.99,25.156 18.363,25.828 17.676,26.266 C 16.976,26.712 16.214,26.917 15.392,26.712 C 12.988,26.11 13.114,22.647 13.115,22.637 L 13.116,22.581 L 13.163,22.547 C 13.226,22.502 13.289,22.459 13.358,22.413 C 13.926,22.026 14.84,21.403 16.374,19.256 A 14.627,14.627 0 0,1 21.512,14.849 C 23.284,13.94 25.438,13.31 27.972,13.31 C 30.505,13.31 32.659,13.94 34.432,14.849 C 36.865,16.097 38.58,17.87 39.569,19.256 C 41.103,21.403 42.017,22.026 42.585,22.413 C 42.654,22.459 42.717,22.503 42.78,22.547 L 42.827,22.581 L 42.829,22.637 C 42.829,22.647 42.955,26.11 40.551,26.712 C 39.73,26.917 38.968,26.712 38.267,26.266 C 37.58,25.828 36.954,25.156 36.391,24.416 C 36.335,24.342 36.271,24.251 36.191,24.139 C 35.291,22.874 32.526,18.984 27.971,18.984 Z"/>
<path d="M 27.959999999999997,18.415 C 32.816,18.43 35.7,22.488 36.649,23.821 C 36.711,23.91 36.774,23.998 36.838,24.084 C 38.12,25.772 39.29,26.456 40.413,26.174 C 42.036,25.769 42.236,23.563 42.259,22.896 V 22.871 L 42.239,22.857 C 41.668,22.468 40.711,21.817 39.109,19.575 C 38.152,18.235 34.521,13.864 27.97,13.864 C 21.42,13.864 17.789,18.234 16.831,19.574 C 15.241,21.801 14.243,22.481 13.706,22.847 L 13.686,22.861 V 22.886 C 13.709,23.556 13.911,25.77 15.528,26.175 C 16.651,26.455 17.82,25.772 19.102,24.085 C 19.149,24.023 19.215,23.93 19.292,23.822 C 20.24,22.488 23.124,18.43 27.97,18.43 Z" fill="rgb(223, 48, 34)"/>
<path d="M 17.534,20.285 L 17.038,20.895 L 17.987,22.83 L 15.951,22.174 L 15.515,22.686 L 17.605,24.416 L 17.92,24.046 L 16.445,22.819 L 18.424,23.453 L 18.632,23.209 L 17.689,21.343 L 19.172,22.572 L 19.633,22.03 L 17.544,20.3 Z M 20.185,19.894 L 19.712,20.394 L 19.227,19.47 L 20.185,19.894 Z M 19.083,18.672 L 18.618,19.164 L 19.924,21.729 L 20.244,21.392 L 19.889,20.712 L 20.521,20.043 L 21.234,20.343 L 21.761,19.786 L 19.083,18.672 Z M 22.273,16.235 L 23.295,17.85 L 21.018,17.01 L 20.508,17.324 L 21.954,19.607 L 22.506,19.267 L 21.476,17.639 L 23.778,18.482 L 24.273,18.176 L 22.828,15.893 L 22.273,16.235 Z M 30.904,17.558 L 31.191,16.736 L 31.994,17.009 L 32.114,16.667 L 31.311,16.394 L 31.555,15.692 L 32.38,15.972 L 32.498,15.634 L 30.992,15.122 L 30.104,17.668 L 31.765,18.232 L 31.885,17.891 L 30.905,17.558 Z M 35.569,17.388 L 35.324,17.65 L 35.897,18.16 L 34.315,19.895 L 34.847,20.369 L 36.43,18.634 L 36.995,19.135 L 37.237,18.87 L 35.569,17.387 Z M 36.352,21.43 L 37.027,20.871 L 37.573,21.514 L 37.853,21.281 L 37.307,20.639 L 37.883,20.162 L 38.444,20.822 L 38.722,20.592 L 37.698,19.387 L 35.608,21.117 L 36.738,22.446 L 37.018,22.214 L 36.352,21.43 Z M 39.512,22.115 C 39.702,22.324 39.703,22.572 39.486,22.765 S 38.996,22.916 38.786,22.688 L 38.664,22.553 L 39.354,21.941 L 39.513,22.115 Z M 39.149,23.442 C 39.155,23.448 39.571,23.652 40.032,23.242 C 40.417,22.9 40.287,22.43 39.886,21.99 L 39.143,21.176 L 37.116,22.977 L 37.596,23.503 L 38.4,22.787 L 38.638,23.047 L 38.125,24.181 L 38.735,24.665 L 39.149,23.442 Z M 28.892,14.897 L 28.872,15.997 L 27.802,15.978 L 27.821,14.878 L 27.104,14.866 L 27.056,17.558 L 27.773,17.57 L 27.795,16.34 L 28.865,16.358 L 28.845,17.588 L 29.561,17.601 L 29.609,14.909 L 28.892,14.897 Z M 32.774,18.897 C 33.282,19.199 33.838,19.151 34.097,18.726 C 34.287,18.429 34.289,18.183 34.062,17.744 C 34.002,17.617 33.927,17.528 33.875,17.414 C 33.776,17.229 33.684,17.078 33.771,16.934 C 33.865,16.78 34.084,16.769 34.284,16.888 C 34.494,17.012 34.581,17.218 34.623,17.362 L 34.953,17.221 A 1.294,1.294 0 0,0 34.363,16.516 C 33.78,16.17 33.305,16.261 33.107,16.586 C 32.907,16.914 32.964,17.184 33.112,17.464 C 33.112,17.464 33.208,17.624 33.263,17.731 C 33.393,17.949 33.546,18.221 33.44,18.396 C 33.31,18.61 33.083,18.657 32.864,18.523 C 32.584,18.347 32.518,18.145 32.459,17.946 L 32.097,18.1 C 32.177,18.37 32.364,18.654 32.774,18.898 Z M 25.34,15.037 C 24.447,15.225 23.862,15.872 24.055,16.749 C 24.165,17.222 24.595,18.097 25.949,17.813 C 26.324,17.743 26.529,17.592 26.727,17.407 L 26.477,17.127 A 0.91,0.91 0 0,1 25.934,17.443 C 25.28,17.58 24.889,17.055 24.791,16.603 C 24.648,15.933 25.042,15.47 25.493,15.375 C 25.809,15.309 26.003,15.391 26.126,15.441 H 26.13 L 26.213,15.097 C 25.997,15.011 25.74,14.954 25.34,15.037 Z M 39.797,19.515 C 39.76,19.355 39.707,18.673 39.969,18.313 C 40.211,17.982 40.432,18.094 40.55,18.146 A 0.449,0.449 0 0,1 40.795,18.473 A 0.57,0.57 0 0,1 40.693,18.859 C 40.527,19.072 40.149,19.213 40.149,19.213 S 40.633,20.149 41.659,21.078 L 41.654,21.709 C 40.251,20.373 39.797,19.515 39.797,19.515 Z" fill="rgb(254, 241, 43)"/>
<path d="M 40.491,19.307 C 40.641,19.558 40.993,20.136 41.875,20.952 C 42.021,21.087 42.386,21.2 42.592,20.972 A 0.492,0.492 0 0,0 42.714,20.612 A 0.719,0.719 0 0,0 42.499,20.164 C 42.323,20.015 41.565,19.259 41.021,18.665 C 41.01,18.773 40.913,18.955 40.913,18.955 C 40.841,19.056 40.749,19.202 40.501,19.322 Z M 14.355,21.672 L 14.351,21.075 C 15.376,20.146 15.861,19.214 15.861,19.214 S 15.483,19.072 15.317,18.859 A 0.569,0.569 0 0,1 15.215,18.473 A 0.45,0.45 0 0,1 15.459,18.146 C 15.578,18.094 15.799,17.981 16.04,18.313 C 16.303,18.673 16.234,19.35 16.197,19.51 C 16.197,19.51 15.719,20.332 14.355,21.672 Z" fill="rgb(254, 241, 43)"/>
<path d="M 15.482000000000001,19.307 C 15.353,19.558 15,20.136 14.118,20.952 C 13.972,21.087 13.608,21.2 13.402,20.972 A 0.491,0.491 0 0,1 13.28,20.612 A 0.718,0.718 0 0,1 13.494,20.165 C 13.67,20.015 14.428,19.259 14.972,18.665 C 14.983,18.774 15.079,18.955 15.079,18.955 C 15.152,19.056 15.244,19.202 15.491,19.322 Z" fill="rgb(254, 241, 43)"/>
<path d="M 12.63,29.389 C 12.64,28.165 13.657,27.161 14.912,27.161 S 17.184,28.165 17.184,29.404 S 16.167,31.646 14.912,31.646 S 12.64,30.642 12.64,29.404 Z" fill="rgb(223, 48, 34)"/>
<path d="M 16.125,27.765 C 16.175,27.81 16.273,27.89 16.273,27.89 C 16.47,28.064 16.647,28.268 16.75,28.511 C 16.88,28.817 16.48,29.277 16.362,29.386 C 15.832,29.874 15.502,29.866 15.314,29.892 C 15.124,29.919 15.004,29.803 15.009,29.663 C 15.021,29.252 15.317,28.55 15.4,28.42 A 0.492,0.492 0 0,1 15.549,28.281 C 15.744,28.227 15.934,28.144 16.032,28.034 A 0.442,0.442 0 0,0 16.135,27.78 Z M 14.235,27.484 A 2.15,2.15 0 0,1 14.903,27.374 C 15.258,27.374 15.596,27.44 15.883,27.619 C 15.956,27.665 15.978,27.722 15.978,27.804 C 15.978,28.068 15.557,28.157 15.276,28.157 C 14.996,28.157 14.652,28.047 14.408,27.972 S 14.11,27.756 14.11,27.694 C 14.11,27.633 14.157,27.509 14.234,27.484 Z M 13.335,30.715 C 13.049,30.436 12.845,29.935 12.845,29.405 C 12.845,29.2 12.876,29.002 12.933,28.815 C 12.933,28.815 12.981,28.73 13.028,28.803 C 13.062,28.855 13.107,28.908 13.148,28.978 C 13.188,29.049 13.411,29.215 13.39,29.347 C 13.312,29.843 13.382,30.505 13.406,30.613 C 13.429,30.721 13.395,30.773 13.336,30.715 Z M 13.39,29.015 C 13.289,28.959 13.168,28.705 13.129,28.629 A 0.391,0.391 0 0,1 13.141,28.356 C 13.308,28.064 13.546,27.798 13.855,27.656 C 13.89,27.64 13.945,27.639 13.945,27.726 C 13.945,27.773 13.969,27.849 13.97,27.896 C 13.971,27.942 13.992,28.042 13.93,28.119 C 13.867,28.196 13.59,28.674 13.523,28.945 C 13.508,29.007 13.492,29.07 13.39,29.015 Z M 14.947,31.435 H 14.903 C 14.524,31.435 14.11,31.295 13.864,31.159 C 13.61,31.019 13.515,30.378 13.515,30.049 C 13.515,28.992 13.957,28.356 14.027,28.232 C 14.097,28.109 14.254,28.093 14.372,28.124 C 14.489,28.155 14.534,28.179 14.669,28.219 C 14.742,28.24 14.888,28.27 14.997,28.294 C 15.107,28.317 15.224,28.34 15.154,28.541 C 15.084,28.741 14.847,29.228 14.822,29.802 C 14.798,30.322 14.868,30.838 14.988,31.156 C 15.065,31.361 15.064,31.439 14.947,31.436 Z M 15.487,31.353 C 15.368,31.391 15.314,31.308 15.259,31.246 C 15.049,31.008 14.994,30.367 14.994,30.282 C 14.994,30.197 15.024,30.104 15.085,30.103 C 15.598,30.09 15.963,29.943 16.298,29.671 C 16.633,29.399 16.778,29.092 16.808,29.032 C 16.838,28.972 16.905,28.982 16.921,29.07 C 16.934,29.14 16.961,29.268 16.961,29.405 C 16.96,30.326 16.331,31.083 15.486,31.353 Z" fill="rgb(254, 241, 43)"/>
<path d="M 43.379000000000005,29.389 C 43.389,28.165 42.371,27.161 41.117,27.161 C 39.862,27.161 38.845,28.165 38.845,29.404 S 39.862,31.646 41.117,31.646 C 42.371,31.646 43.389,30.642 43.389,29.404 Z" fill="rgb(223, 48, 34)"/>
<path d="M 39.988,28.019 C 40.096,28.144 40.286,28.227 40.481,28.281 C 40.481,28.281 40.575,28.335 40.63,28.421 C 40.713,28.55 41.008,29.251 41.021,29.663 C 41.025,29.803 40.906,29.919 40.716,29.893 C 40.527,29.865 40.197,29.873 39.668,29.385 C 39.551,29.277 39.15,28.817 39.28,28.511 C 39.383,28.267 39.56,28.064 39.757,27.891 L 39.895,27.779 S 39.899,27.925 39.998,28.034 Z M 41.92,27.694 C 41.92,27.757 41.866,27.897 41.622,27.972 C 41.378,28.047 41.035,28.157 40.754,28.157 C 40.474,28.157 40.052,28.067 40.052,27.804 C 40.052,27.722 40.074,27.664 40.147,27.619 C 40.434,27.439 40.772,27.374 41.127,27.374 C 41.362,27.374 41.586,27.414 41.796,27.484 C 41.873,27.509 41.92,27.633 41.92,27.694 Z M 42.624,30.613 C 42.647,30.504 42.718,29.843 42.64,29.347 C 42.62,29.215 42.841,29.049 42.882,28.978 C 42.923,28.908 42.968,28.854 43.002,28.803 C 43.048,28.73 43.097,28.815 43.097,28.815 C 43.155,29.006 43.185,29.205 43.185,29.405 C 43.185,29.935 42.98,30.435 42.695,30.715 C 42.635,30.773 42.6,30.721 42.625,30.613 Z M 42.507,28.945 C 42.439,28.675 42.163,28.196 42.1,28.119 C 42.037,28.042 42.058,27.942 42.059,27.896 C 42.06,27.849 42.084,27.773 42.084,27.726 C 42.084,27.639 42.139,27.641 42.174,27.656 C 42.484,27.798 42.722,28.064 42.889,28.356 C 42.927,28.423 42.929,28.574 42.901,28.629 C 42.861,28.705 42.741,28.959 42.639,29.015 C 42.539,29.07 42.522,29.007 42.507,28.945 Z M 41.042,31.155 C 41.162,30.839 41.232,30.321 41.208,29.802 C 41.182,29.228 40.947,28.742 40.876,28.542 C 40.806,28.34 40.923,28.317 41.033,28.294 C 41.143,28.271 41.288,28.241 41.362,28.219 C 41.496,28.179 41.541,28.155 41.659,28.124 C 41.776,28.094 41.932,28.109 42.003,28.232 C 42.073,28.356 42.515,28.992 42.515,30.05 C 42.515,30.378 42.42,31.018 42.166,31.159 A 2.35,2.35 0 0,1 41.127,31.436 H 41.084 C 40.966,31.439 40.964,31.361 41.042,31.156 Z M 39.07,29.405 C 39.07,29.268 39.097,29.14 39.11,29.07 C 39.126,28.983 39.191,28.972 39.222,29.032 C 39.252,29.092 39.397,29.399 39.732,29.671 C 40.067,29.942 40.432,30.091 40.945,30.103 C 41.005,30.104 41.036,30.197 41.036,30.283 C 41.036,30.367 40.982,31.008 40.77,31.246 C 40.716,31.308 40.662,31.391 40.544,31.353 C 39.699,31.083 39.07,30.326 39.07,29.405 Z" fill="rgb(254, 241, 43)"/>
<path d="M 38.845,29.377 A 2.223,2.223 0 0,1 39.524,27.798 A 2.29,2.29 0 0,1 41.138,27.138 C 41.768,27.138 42.34,27.39 42.753,27.798 A 2.232,2.232 0 0,1 42.753,30.986 C 42.34,31.393 41.769,31.646 41.138,31.646 A 2.304,2.304 0 0,1 39.523,30.986 A 2.247,2.247 0 0,1 38.855,29.392 Z M 38.878,29.392 C 38.878,30.008 39.131,30.566 39.54,30.97 A 2.27,2.27 0 0,0 41.138,31.623 C 41.763,31.623 42.328,31.373 42.737,30.97 A 2.21,2.21 0 0,0 42.737,27.814 A 2.253,2.253 0 0,0 41.138,27.16 A 2.278,2.278 0 0,0 39.54,27.814 A 2.224,2.224 0 0,0 38.878,29.392 Z" fill="rgb(252, 229, 45)"/>
</svg>
