<?xml version="1.0" encoding="UTF-8"?>
<!-- generated by Finnhub -->
<svg viewBox="0 0 55.5 55.5" xmlns="http://www.w3.org/2000/svg">
<path d="M 0,0 H 55.5 V 55.5 H 0 Z" fill="rgb(197, 1, 59)"/>
<path d="M 38.04,39.615 C 37.76,40.794 36.723,41.337 36.203,41.579 L 22.991,12.674 C 23.81,12.41 24.767,12.129 25.638,12 L 38.049,39.63 Z M 31.004,12 L 41.799,35.557 C 47.614,26.53 41.179,14.14 31.004,12 Z M 31.416,42.099 L 25.3,28.147 C 25.185,33.089 19.82,37.423 15.033,36.879 C 17.224,40.859 22.309,43.399 26.255,43.907 C 27.997,44.097 30.818,44.178 31.415,42.099 Z" fill="rgb(254, 254, 253)"/>
<path d="M 12.255,30.96 C 14.053,32.433 16.245,32.841 18.61,32.622 C 20.86,32.25 22.994,30.384 23.513,28.082 C 24.063,26.054 23.661,24.764 22.957,23.241 A 658.39,658.39 0 0,0 18.914,14.661 C 13.67,18.29 11.134,24.767 12.265,30.975 Z" fill="rgb(254, 254, 253)"/>
</svg>
