<?xml version="1.0" encoding="UTF-8"?>
<!-- generated by Finnhub -->
<svg viewBox="0 0 55.5 55.5" xmlns="http://www.w3.org/2000/svg">
<path d="M 0,0 H 55.5 V 55.5 H 0 Z" fill="rgb(239, 242, 248)"/>
<path d="M 19.514,43.955 C 15.92,43.616 14.337,40.858 14.004,39.52 C 15.137,41.878 18.156,42.06 19.524,41.855 C 30.893,39.52 38.57,25.924 38.786,19.092 C 38.931,14.524 35.83,13.475 34.262,13.522 C 30.148,13.643 26.919,15.762 25.846,16.678 C 27.385,15.084 31.806,11.754 36.585,12.014 C 41.363,12.274 42.062,17.454 41.996,19.406 C 41.62,30.664 27.172,44.725 19.524,43.971 Z" fill="rgb(119, 133, 161)"/>
<path d="M 22.029999999999998,39.518 C 17.877,41.216 15.428,40.407 14.723,39.792 C 15.222,40.456 16.598,40.992 18.217,40.992 C 20.25,40.992 26.088,39.533 32.719,31.472 C 38.024,25.022 38.386,18.843 37.904,16.56 C 38.004,21.504 35.906,25.739 34.844,27.238 C 30.984,34.02 24.7,38.26 22.04,39.533 Z" fill="rgb(2, 35, 80)"/>
<path d="M 16.99,22.069 V 40.658 C 18.596,41.084 20.998,40.239 22,39.764 V 26.074 C 22,22.146 18.667,21.777 17,22.084 Z M 24,19.087 V 39 C 25.809,38.088 27.998,35.692 29,35.197 V 23.24 C 29,19.152 25.667,18.768 24,19.087 Z M 31,16.086 V 33 C 32.715,31.755 35.095,26.924 36,26.128 V 20.194 C 36,16.151 32.667,15.771 31,16.086 Z" fill="rgb(2, 35, 80)"/>
</svg>
