<?xml version="1.0" encoding="UTF-8"?>
<!-- generated by Finnhub -->
<svg viewBox="0 0 55.5 55.5" xmlns="http://www.w3.org/2000/svg">
<path d="M 0,0 H 55.5 V 55.5 H 0 Z" fill="rgb(226, 55, 34)"/>
<path d="M 46.248000000000005,28.238 L 48,27.246 L 47.607,26.966 L 42.887,28.253 L 40.865,20.533 L 42.214,20.197 L 43.899,26.743 L 46.146,26.127 L 47.776,24.729 L 45.753,23.666 L 47.213,22.099 L 45.079,21.483 L 46.427,19.749 L 44.236,19.581 L 45.303,17.679 L 43,17.567 L 43.73,15.553 L 41.596,15.777 L 42.157,13.65 L 39.967,14.21 L 40.135,11.916 L 38.169,12.867 L 38.112,10.629 L 36.258,11.692 L 35.865,9.51 L 34.124,10.797 L 33.506,8.671 L 31.876,10.238 L 30.977,8.279 L 29.685,9.958 L 28.562,8 L 27.438,9.846 L 26.034,8.167 L 25.134,10.07 L 23.618,8.503 L 22.944,10.573 L 21.202,9.174 L 20.865,11.357 L 18.955,10.182 L 18.787,12.308 L 16.707,11.412 L 16.877,13.65 L 14.742,13.035 L 15.247,15.105 L 13,14.937 L 13.674,16.952 L 11.371,16.896 L 12.382,18.91 L 10.079,19.078 L 11.259,20.924 L 9.067,21.428 L 10.528,23.106 L 8.393,23.777 L 10.079,25.288 L 8.112,26.239 L 9.854,27.582 L 8,28.757 L 9.18,29.372 L 9.067,28.869 L 11.147,28.365 L 14.405,33.569 L 14.685,27.359 L 16.82,26.855 L 18.843,34.575 L 17.494,34.968 L 15.977,29.093 L 15.528,35.471 L 14.236,35.807 L 10.977,30.603 L 12.382,36.254 L 11.989,36.366 L 10.865,38.38 L 13.112,38.492 L 12.382,40.562 L 14.573,40.282 L 14.011,42.409 L 16.258,41.849 L 15.978,44.032 L 18.056,43.192 V 45.43 L 19.854,44.311 L 20.134,46.549 L 21.933,45.151 L 22.607,47.333 L 24.18,45.71 L 25.079,47.78 L 26.427,46.102 L 27.607,48.004 L 28.73,46.214 L 30.191,47.892 L 30.978,45.934 L 32.607,47.501 L 33.281,45.431 L 35.023,46.717 L 35.416,44.647 L 37.27,45.822 L 37.326,43.528 L 39.348,44.368 L 39.18,42.241 L 41.37,42.857 L 40.978,40.675 L 43.112,41.122 L 42.438,39.052 L 44.629,39.108 L 43.674,37.094 H 45.977 L 44.742,35.024 L 46.82,34.576 L 45.472,32.842 L 47.551,32.17 L 45.921,30.491 L 47.888,29.596 L 46.258,28.253 Z M 24.798,33.009 L 23.898,31.611 L 20.697,32.45 L 20.584,34.072 L 19.236,34.408 L 19.854,25.96 L 21.596,25.456 L 26.258,32.618 L 24.798,33.009 Z M 33.338,30.715 L 31.988,31.051 L 30.248,24.561 L 26.82,25.456 L 28.506,32.002 L 27.157,32.338 L 25.472,25.792 L 23,26.519 L 22.663,25.289 L 33.562,22.379 L 33.899,23.554 L 31.596,24.225 L 33.337,30.715 Z M 36.258,29.932 L 34.236,22.211 L 39.966,20.644 L 40.303,21.875 L 35.865,23.05 L 36.371,25.008 L 40.191,23.945 L 40.528,25.12 L 36.708,26.183 L 37.27,28.365 L 41.708,27.191 L 41.988,28.421 L 36.258,29.932 Z" fill="rgb(245, 247, 251)"/>
<path d="M 20.799999999999997,31.092 L 23.169,30.436 L 21.034,27.023 L 20.809,31.107 Z M 9.46,30.268 L 8.166,31.33 L 9.851,31.945 L 9.458,30.267 Z M 10.022,32.562 L 8.842,33.737 L 10.472,34.24 L 10.022,32.562 Z" fill="rgb(245, 247, 251)"/>
</svg>
