<?xml version="1.0" encoding="UTF-8"?>
<!-- generated by Finnhub -->
<svg viewBox="0 0 55.5 55.5" xmlns="http://www.w3.org/2000/svg">
<path d="M 0,0 H 55.5 V 55.5 H 0 Z" fill="rgb(235, 26, 34)"/>
<path d="M 26.919999999999998,37.245 S 28.198,39.625 29.633,37.26 L 32.411,32.967 L 24.229,19.079 S 22.961,17.218 21.45,19.079 L 18.595,23.279 L 26.93,37.26 Z M 28.046,44 C 32.336,44 36.228,42.315 39.084,39.625 L 29.314,23.373 L 32.335,18.984 C 33.603,17.218 34.948,18.984 34.948,18.984 L 43.297,32.967 C 43.694,31.784 43.924,30.439 44.001,29.175 L 34.551,13.345 A 16.693,16.693 0 0,0 28.045,12 C 19.735,12 12,18.767 12,28.007 C 12,29.433 12.23,30.86 12.55,32.124 L 17.237,25.303 L 20.503,30.616 C 21.283,31.879 20.503,32.966 20.503,32.966 L 16.366,39.026 C 19.491,42.343 23.678,44 28.045,44 Z" fill="rgb(254, 254, 253)" fill-rule="evenodd"/>
</svg>
