<?xml version="1.0" encoding="UTF-8"?>
<!-- generated by Finnhub -->
<svg viewBox="0 0 55.5 55.5" xmlns="http://www.w3.org/2000/svg">
<path d="M 0,0 H 55.5 V 55.5 H 0 Z" fill="rgb(7, 67, 149)"/>
<path d="M 3.99,24.985 V 32 H 5.316 V 27.344 C 5.316,27.133 5.3,26.64 5.251,25.856 C 5.324,26.349 5.421,26.756 5.487,27.082 L 6.468,32 H 7.817 L 8.823,27.002 C 8.893,26.652 8.993,26.278 9.067,25.856 C 9.026,26.358 9.002,26.841 9.002,27.313 V 32 H 10.415 V 25 H 8.157 L 7.387,29.173 C 7.335,29.449 7.257,29.867 7.216,30.45 A 6.679,6.679 0 0,0 7.061,29.213 L 6.03,25 H 4 Z M 15.153,25.045 C 14.705,24.87 14.291,24.783 13.913,24.783 C 12.318,24.783 11.37,25.803 11.37,27.426 C 11.37,28.991 12.352,30.052 13.791,30.052 C 14.334,30.052 14.808,29.974 15.196,29.817 L 15.162,28.505 A 1.59,1.59 0 0,1 14.24,28.796 C 13.438,28.796 12.938,28.243 12.938,27.416 C 12.938,26.571 13.412,26.026 14.171,26.026 C 14.455,26.026 14.748,26.114 15.049,26.299 L 15.153,25.045 Z M 16.379,25 V 31.998 H 18.004 V 28.761 L 19.919,31.998 H 21.939 L 19.471,28.228 L 21.71,25 H 19.891 L 18.003,28.038 V 25 H 16.378 Z M 23,25.022 V 31.998 H 27 V 30.651 H 24.553 V 29.063 H 26.873 V 27.736 H 24.553 V 26.33 H 27 V 25.023 H 23 Z M 32.487,25.1 A 5.515,5.515 0 0,0 30.794,24.85 C 29.118,24.85 28.218,25.644 28.218,27.031 C 28.218,28.066 28.744,28.619 29.858,29.071 C 30.616,29.383 31.097,29.474 31.097,29.997 C 31.097,30.459 30.704,30.761 30.045,30.761 C 29.581,30.761 29.029,30.621 28.423,30.308 L 28.28,31.867 A 6.166,6.166 0 0,0 30.143,32.16 C 31.881,32.16 32.79,31.314 32.79,29.796 C 32.79,29.142 32.594,28.67 32.157,28.288 C 31.757,27.946 31.177,27.765 30.473,27.504 C 30.089,27.364 29.903,27.142 29.903,26.85 C 29.903,26.438 30.277,26.177 30.963,26.177 C 31.399,26.177 31.863,26.297 32.363,26.539 L 32.487,25.101 Z M 38.002,25.1 A 5.516,5.516 0 0,0 36.308,24.85 C 34.633,24.85 33.732,25.644 33.732,27.031 C 33.732,28.066 34.258,28.619 35.372,29.071 C 36.13,29.383 36.612,29.474 36.612,29.997 C 36.612,30.459 36.219,30.761 35.56,30.761 C 35.096,30.761 34.544,30.621 33.937,30.308 L 33.795,31.867 A 6.165,6.165 0 0,0 35.658,32.16 C 37.396,32.16 38.305,31.314 38.305,29.796 C 38.305,29.142 38.109,28.67 37.672,28.288 C 37.272,27.946 36.692,27.765 35.988,27.504 C 35.604,27.364 35.418,27.142 35.418,26.85 C 35.418,26.438 35.792,26.177 36.478,26.177 C 36.915,26.177 37.378,26.297 37.878,26.539 L 38.002,25.101 Z M 42.323,24.85 C 40.406,24.85 39.248,26.207 39.248,28.509 C 39.248,30.811 40.398,32.159 42.323,32.159 C 44.239,32.159 45.389,30.811 45.389,28.509 C 45.389,26.207 44.239,24.849 42.323,24.849 Z M 42.323,26.207 C 43.143,26.207 43.731,27.061 43.731,28.489 C 43.731,29.926 43.151,30.78 42.323,30.78 C 41.493,30.78 40.905,29.926 40.905,28.489 C 40.905,27.051 41.503,26.207 42.323,26.207 Z M 46.57,25 V 32 H 47.996 V 28.32 C 47.996,27.806 47.945,27.113 47.834,26.248 C 47.944,26.781 48.081,27.253 48.252,27.665 L 50.036,32 H 52 V 25 H 50.574 V 28.973 C 50.574,29.465 50.626,30.048 50.719,30.712 C 50.532,29.988 50.378,29.485 50.259,29.204 L 48.542,25 H 46.57 Z" fill="rgb(254, 254, 253)"/>
<path d="M 11.99,30.985 H 15 V 32.008 H 12 V 31 Z" fill="rgb(254, 112, 59)"/>
</svg>
