<?xml version="1.0" encoding="UTF-8"?>
<!-- generated by Finnhub -->
<svg viewBox="0 0 55.5 55.5" xmlns="http://www.w3.org/2000/svg">
<path d="M 0,0 H 55.5 V 55.5 H 0 Z" fill="rgb(1, 38, 158)"/>
<path d="M 21.569999999999997,31.673 C 19.889,31.846 19.063,30.153 18.934,28.523 C 18.758,26.295 19.847,25.414 20.9,25.317 C 22.508,25.167 23.39,26.805 23.523,28.495 C 23.693,30.662 22.688,31.584 21.58,31.688 Z M 17.638,28.566 C 17.638,30.566 18.985,32.166 21.255,32.166 C 23.32,32.166 24.816,30.612 24.816,28.472 C 24.816,26.532 23.614,24.839 21.256,24.839 C 19.13,24.839 17.638,26.458 17.638,28.566 Z M 49.315,22.991 C 49.315,22.167 48.791,21.47 48.185,21.47 C 47.617,21.47 47.484,21.88 47.484,22.122 C 47.484,22.419 47.677,22.549 47.878,22.565 C 48.158,22.583 48.611,22.85 48.611,23.455 C 48.611,24.102 48.041,24.548 47.498,24.816 C 47.426,24.926 47.483,25.088 47.601,25.149 C 48.522,24.85 49.315,24.085 49.315,22.991 Z M 51.81,28.137 L 50.903,27.629 C 50.317,27.296 49.926,26.946 49.926,26.381 C 49.926,25.841 50.246,25.297 51.109,25.297 C 51.974,25.297 52.354,26.107 52.476,26.662 C 52.545,26.772 52.808,26.756 52.858,26.632 C 52.866,25.95 52.765,25.345 52.648,25.076 A 8.168,8.168 0 0,1 52.204,24.977 C 51.908,24.906 51.633,24.839 51.284,24.839 C 49.809,24.839 48.981,25.647 48.981,26.805 C 48.981,27.694 49.585,28.312 50.289,28.706 L 50.947,29.074 C 51.784,29.534 51.974,30.057 51.974,30.565 C 51.974,31.293 51.491,31.708 50.744,31.708 C 49.762,31.708 49.119,30.582 49,30.01 C 48.896,29.865 48.677,29.88 48.62,30.044 C 48.62,30.882 48.794,31.454 48.927,31.674 C 49.132,31.831 49.72,32.166 50.611,32.166 C 52.062,32.166 53,31.389 53,30.153 C 53,29.09 52.339,28.423 51.81,28.137 Z M 36.399,31.563 C 35.279,31.563 35,31.055 35,30.043 V 26.266 C 35,25.914 35.012,25.713 35.096,25.646 C 35.216,25.539 35.619,25.474 36.104,25.474 C 37.757,25.474 39.017,26.49 39.017,28.44 C 39.017,30.372 38.154,31.563 36.399,31.563 Z M 38.3,25.363 C 37.612,25.108 36.893,25 36.073,25 H 33.245 C 33.115,25.047 33.097,25.409 33.229,25.457 L 33.668,25.52 C 34,25.566 34,25.873 34,26.857 V 30.282 C 34,31.373 33.962,31.436 33.332,31.547 L 33.052,31.594 C 32.952,31.674 32.967,31.946 33.081,31.99 C 33.081,31.99 35.246,32 36.339,32 C 37.069,32 37.889,31.901 38.549,31.53 C 39.724,30.882 40.322,29.724 40.322,28.472 C 40.322,27.012 39.633,25.854 38.3,25.364 Z M 29.45,31.688 C 27.759,31.846 26.932,30.153 26.804,28.523 C 26.628,26.295 27.718,25.414 28.769,25.317 C 30.378,25.167 31.259,26.805 31.391,28.495 C 31.563,30.662 30.559,31.584 29.45,31.688 Z M 29.125,24.838 C 27.002,24.838 25.508,26.458 25.508,28.566 C 25.508,30.566 26.854,32.166 29.125,32.166 C 31.189,32.166 32.686,30.612 32.686,28.472 C 32.686,26.532 31.486,24.839 29.125,24.839 Z M 16.25,30.362 L 16.257,30.471 C 16.295,31.147 16.315,31.505 16.968,31.575 L 17.439,31.619 C 17.525,31.71 17.511,31.935 17.41,31.994 H 13.908 C 13.804,31.923 13.79,31.71 13.88,31.619 L 14.302,31.575 C 15.001,31.503 15.001,31.273 15,30.372 V 24.043 H 14.945 C 14.885,24.136 14.681,24.566 14.46,25.027 C 14.294,25.375 14.119,25.741 13.993,25.992 L 12.688,28.618 C 12.032,29.942 11.37,31.35 11.105,32.04 C 11.078,32.087 11.02,32.101 10.96,32.101 C 10.932,32.101 10.858,32.087 10.83,32.04 C 10.614,31.362 10.068,30.185 9.704,29.4 L 9.537,29.04 L 8.222,26.141 C 8.086,25.841 7.952,25.523 7.816,25.202 C 7.641,24.788 7.464,24.37 7.282,23.981 H 7.252 C 7.209,24.688 7.174,25.361 7.139,26.026 L 7.107,26.653 A 75.928,75.928 0 0,0 7.005,30.18 C 7.005,31.29 7.09,31.531 7.664,31.575 L 8.222,31.619 C 8.323,31.71 8.308,31.952 8.205,31.994 H 5.085 C 4.995,31.923 4.964,31.695 5.055,31.619 L 5.377,31.575 C 5.992,31.501 6.197,31.395 6.286,30.346 C 6.375,29.353 6.447,28.529 6.533,27.041 C 6.599,25.927 6.653,24.811 6.695,23.696 C 6.727,22.75 6.607,22.556 5.712,22.405 L 5.48,22.375 C 5.405,22.285 5.42,22.061 5.538,22.001 H 8 C 7.94,22.585 8.222,23.518 8.674,24.477 L 10.344,27.945 L 10.514,28.301 C 10.791,28.881 11.062,29.45 11.357,29.998 H 11.385 C 11.752,29.348 12.095,28.626 12.435,27.913 L 12.513,27.747 L 13.891,24.881 L 14.071,24.518 C 14.638,23.379 14.977,22.698 15.004,22.001 H 17.41 C 17.498,22.061 17.498,22.315 17.423,22.376 L 17.113,22.404 C 16.191,22.513 15.986,22.784 16,23.832 C 16.03,25.424 16.132,28.199 16.25,30.362 Z M 44.617,25.002 C 44.469,25.062 44.455,25.332 44.585,25.41 L 44.894,25.459 C 45.249,25.507 45.217,25.648 44.997,26.092 L 44.411,27.252 C 44.223,27.635 44.051,27.946 43.876,28.262 L 43.707,28.567 C 43.476,28.136 43.257,27.697 43.05,27.252 L 42.506,26.125 C 42.269,25.63 42.318,25.54 42.637,25.459 L 42.844,25.409 C 42.989,25.332 42.947,25.062 42.827,25.001 H 40.234 C 40.119,25.046 40.09,25.315 40.19,25.41 L 40.572,25.488 C 40.951,25.569 41.101,25.714 41.406,26.346 L 42.476,28.487 C 42.566,28.669 42.646,28.813 42.712,28.934 C 42.913,29.302 43.002,29.466 43.002,29.838 V 30.436 C 43.002,31.374 42.827,31.47 42.198,31.548 L 41.833,31.595 C 41.728,31.675 41.742,31.947 41.862,31.991 H 45.025 C 45.145,31.947 45.159,31.675 45.055,31.595 L 44.689,31.548 C 44.059,31.47 43.999,31.374 43.999,30.436 V 29.58 C 43.999,29.122 44.029,28.964 44.558,28.06 L 45.466,26.472 C 45.92,25.682 45.993,25.585 46.449,25.488 L 46.799,25.41 C 46.919,25.332 46.887,25.046 46.773,25.001 H 44.617 Z" fill="rgb(254, 254, 253)"/>
</svg>
