<?xml version="1.0" encoding="UTF-8"?>
<!-- generated by Finnhub -->
<svg viewBox="0 0 55.5 55.5" xmlns="http://www.w3.org/2000/svg">
<path d="M 0,0 H 55.5 V 55.5 H 0 Z" fill="rgb(39, 59, 72)"/>
<path d="M 36.673,23.893 C 34.571,14.618 30.167,12.144 29.044,10.396 C 28.581,9.626 28.171,8.826 27.816,8 C 27.756,8.825 27.648,9.345 26.944,9.971 C 25.531,11.227 19.53,16.101 19.024,26.657 C 18.554,36.499 26.283,42.567 27.304,43.195 C 28.089,43.58 29.045,43.203 29.512,42.849 C 33.238,40.301 38.328,33.506 36.687,23.908" fill="rgb(15, 169, 78)"/>
<path d="M 28.125999999999998,37.939 C 27.941,40.39 27.802,41.806 27.308,43.197 C 27.308,43.197 27.632,45.517 27.86,47.973 H 28.666 C 28.858,46.243 29.151,44.526 29.544,42.83 C 28.501,42.319 28.176,40.092 28.136,37.954 Z" fill="rgb(183, 195, 192)"/>
<path d="M 29.534,42.816 C 28.489,42.346 28.137,37.954 28.137,37.954 C 28.1,28.553 28,8.209 28,8.209 C 28.328,8.962 28.618,9.692 29.044,10.395 C 30.167,12.145 34.572,14.617 36.684,23.907 C 38.328,33.489 33.265,40.267 29.544,42.831 Z" fill="rgb(17, 145, 77)"/>
</svg>
