<?xml version="1.0" encoding="UTF-8"?>
<!-- generated by Finnhub -->
<svg viewBox="0 0 55.5 55.5" xmlns="http://www.w3.org/2000/svg">
<path d="M 0,0 H 55.5 V 55.5 H 0 Z" fill="rgb(70, 34, 126)"/>
<path d="M 22.99,35.925 C 22.392,36.546 21.514,36.748 20.964,36.825 C 19.844,36.979 18.684,36.57 17.946,35.591 C 17.338,34.791 17.026,33.755 16.434,32.927 C 15.498,31.617 14.001,30.757 12.459,31.061 C 9.411,31.669 8.028,35.574 9.751,38.283 C 12.214,42.154 17.753,41.483 20.596,38.802 C 21.481,37.968 22.307,37.04 23,35.94 Z" fill="rgb(228, 21, 52)"/>
<path d="M 42.098,34.509 C 39.891,31.85 39.198,27.404 39.061,24.449 C 38.943,21.896 39.069,17.474 40.898,16.188 C 40.285,15.34 38.983,15 38.065,15 C 36.003,15 35.103,16.51 34.398,17.597 C 34.165,17.957 30.698,23.218 30.698,23.218 S 27.781,18.255 27.422,17.658 C 26.927,16.836 25.999,15.324 24.369,15.062 C 24.176,15.032 23.992,14.997 23.671,15 C 22.822,15.009 21.573,15.258 20.854,16.344 C 22.563,17.847 22.52,21.677 22.149,24.292 C 21.036,32.14 18,32.862 18,32.862 C 19.555,37.482 23.56,35.657 24.692,31.974 C 25.425,29.58 25.898,26.549 26.007,24.036 L 30.402,31.452 S 35.379,24.059 35.379,24.066 C 34.56,37.14 38.467,41 42.036,41 C 45.61,41 47,37 47,37 C 45.068,36.872 43.377,36.056 42.108,34.524 Z" fill="rgb(254, 254, 253)"/>
</svg>
