<?xml version="1.0" encoding="UTF-8"?>
<!-- generated by Finnhub -->
<svg viewBox="0 0 55.5 55.5" xmlns="http://www.w3.org/2000/svg">
<path d="M 0,0 H 55.5 V 55.5 H 0 Z" fill="rgb(0, 109, 167)"/>
<path d="M 28.801,41.061 H 27.448 V 40.468 C 27.448,39.838 27.622,38.718 27.734,38.06 C 27.925,36.933 27.73,36.8 28.105,35.743 C 28.208,35.453 28.419,35.053 28.499,34.8 C 28.595,34.499 28.579,34.055 28.705,33.663 C 28.893,33.083 29.283,32.142 29.331,31.542 C 29.518,31.594 29.976,31.982 30.261,32.128 C 30.648,32.326 30.919,32.448 31.322,32.645 C 32.138,33.043 31.799,34.058 32.097,35.084 C 32.387,36.081 32.602,36.506 33.133,37.25 C 33.499,37.761 34.185,38.608 34.329,39.25 C 34.124,39.307 33.419,39.73 33.116,39.88 C 32.705,40.084 32.287,40.279 31.836,40.44 C 31.177,40.675 29.616,41.076 28.811,41.076 Z M 15.116,30.325 C 15.539,30.288 15.652,29.987 16.154,29.987 H 16.349 C 16.897,29.987 17.8,31.137 19.465,31.137 H 20.049 C 21.22,31.137 24.009,30.224 24.203,30.253 L 25.631,30.46 H 26.163 L 26.085,32.015 L 26.065,32.153 L 26.215,33.706 V 34.246 C 26.215,35.479 25.501,36.496 25.501,37.289 L 25.451,38.042 L 25.891,40.941 H 25.631 C 24.705,40.941 22.488,39.981 21.779,39.611 C 20.77,39.088 19.523,38.129 18.767,37.341 C 17.882,36.418 17.129,35.486 16.501,34.291 C 16.047,33.427 15.148,31.531 15.116,30.325 Z M 34.329,29.987 C 35.206,30.007 36.069,30.731 36.989,30.731 L 37.576,30.744 L 40.366,30.257 C 40.366,31.244 39.366,33.584 38.963,34.274 C 38.596,34.9 37.144,37.206 36.6,37.357 C 36.351,36.244 35.677,34.647 35.56,33.573 C 35.482,32.871 35.524,31.999 35.26,31.45 C 34.935,30.77 34.574,30.47 34.329,29.987 Z M 29.509,27.485 L 29.525,27.079 C 29.852,27.159 30.925,27.893 31.252,28.12 C 32.072,28.69 32.054,28.756 32.658,29.496 C 33.138,30.083 33.502,30.419 33.989,30.949 C 34.498,31.502 34.637,32.052 34.651,33.099 C 34.664,34.171 35.501,36.646 35.812,37.569 C 36.367,39.221 37.431,39.386 39.522,39.386 C 39.344,39.638 38.142,40.101 37.745,40.24 C 37.335,40.383 37.045,40.36 36.676,40.48 C 36.418,40.562 36.026,40.873 35.756,40.873 H 35.692 C 35.383,40.873 35.349,39.597 35.262,39.293 C 35.054,38.575 34.948,38.43 34.602,37.884 C 34.046,37.011 33.44,36.444 33.087,35.337 C 32.887,34.709 32.861,34.44 32.732,33.679 C 32.596,32.879 32.766,32.578 32.2,32.136 C 32.093,32.053 29.611,30.669 29.605,30.662 L 29.509,27.485 Z M 16.405,27.213 C 17.564,27.789 18.285,27.157 18.946,26.674 C 19.664,26.15 20.39,25.862 21.606,25.862 H 21.801 C 23.061,25.862 24.341,27.761 25.436,28.364 C 25.448,28.943 25.864,29.169 26.086,29.514 C 24.446,29.514 24.681,29.133 23.061,29.608 C 22.158,29.873 21.158,30.189 20.049,30.189 H 19.465 C 17.709,30.189 17.309,29.04 16.414,29.04 H 15.894 C 15.448,29.04 15.175,29.513 14.596,29.513 H 13.947 C 13.28,29.513 12.909,28.723 12.909,27.958 V 27.823 C 12.909,26.445 13.664,26.133 14.986,26.133 C 15.086,26.063 15.222,25.93 15.376,25.93 C 15.531,25.93 15.566,26.04 15.7,26.132 H 16.22 L 16.479,26.268 L 16.494,26.472 L 16.404,27.213 Z M 29.72,25.727 C 30.521,25.727 31.654,25.985 32.259,26.192 C 32.652,26.327 33.009,26.402 33.395,26.564 C 34.089,26.854 33.863,26.721 34.63,26.9 C 35.444,27.09 35.666,27.627 36.99,27.62 C 38.118,27.615 38.747,27.89 39.781,27.89 H 40.949 C 42.236,27.89 42.709,25.292 43.085,25.186 L 43.221,26.876 C 43.241,27.09 43.047,27.724 43.026,28.026 C 42.989,28.556 43.069,28.899 42.961,29.378 C 42.522,29.378 41.866,29.14 41.656,29.126 L 37.315,29.851 C 36.715,29.954 34.787,28.972 33.485,28.972 C 33.102,28.705 32.23,27.828 31.779,27.436 C 31.449,27.148 30.174,26.239 29.72,26.2 V 25.727 Z M 15.116,24.78 C 15.116,23.944 16.482,20.7 16.933,20.385 C 18.785,20.835 18.067,21.323 18.75,22.752 C 18.957,23.185 19.289,23.687 19.61,24.02 C 19.882,24.302 20.546,24.814 20.698,25.05 C 19.108,25.05 17.982,26.403 17.648,26.403 H 17.388 C 17.388,25.861 17.078,25.55 16.731,25.396 C 16.568,25.324 15.635,24.983 15.505,24.983 H 15.115 V 24.78 Z M 26.669,18.491 C 26.669,18.336 26.715,18.289 26.864,18.289 C 27.365,18.289 27.838,18.94 27.838,19.573 L 27.858,20.117 L 27.708,21.467 L 27.731,21.533 L 27.968,24.848 V 25.321 C 27.968,26.027 27.815,27.781 27.912,28.286 C 27.962,28.546 29.006,29.533 29.006,30.189 C 29.006,30.345 28.961,30.392 28.811,30.392 C 28.66,30.392 28.619,30.253 28.357,30.189 C 28.466,30.404 28.682,31.209 28.682,31.542 V 31.745 C 28.682,31.902 28.508,32.083 28.357,32.083 H 28.227 C 27.41,32.083 26.734,30.879 26.734,30.19 V 29.446 C 26.734,29.29 26.779,29.243 26.929,29.243 C 27.287,29.243 26.967,31.58 28.227,31.61 C 28.227,30.826 27.807,30.296 27.967,29.58 L 28.317,29.56 L 27.52,28.498 L 27.448,27.688 C 27.371,26.976 27.578,25.945 27.578,25.118 V 24.78 C 27.578,24.722 27.41,23.822 27.388,23.626 C 27.348,23.275 27.382,22.656 27.384,22.277 C 27.386,21.815 27.267,21.502 27.324,20.998 C 27.368,20.595 27.448,20.264 27.448,19.776 C 27.448,18.694 26.669,18.747 26.669,18.491 Z M 16.414,18.221 V 18.153 C 16.414,17.387 17.308,16.328 18.037,16.328 H 18.102 C 18.622,16.328 19.003,16.58 19.287,16.851 C 19.827,17.369 20.179,17.066 20.179,17.748 C 20.303,17.835 20.633,18.097 20.633,18.288 V 18.356 C 20.633,18.84 19.27,19.018 19.27,19.37 V 19.506 C 19.27,19.661 19.315,19.709 19.465,19.709 C 19.857,19.709 20.055,19.515 20.373,19.439 C 21.1,20.869 21.81,20.057 23.14,20.613 C 24.053,20.995 24.626,21.998 25.501,22.211 C 25.579,23.19 26.021,23.298 26.021,24.712 C 25.586,24.472 25.423,24.12 25.059,23.82 C 24.721,23.54 24.253,23.35 23.926,23.04 C 23.521,22.656 22.506,21.264 21.866,21.264 H 21.412 C 21.195,21.264 20.568,21.467 20.568,21.737 V 22.007 C 20.568,22.199 20.792,22.346 20.958,22.346 C 21.065,22.346 21.308,22.143 21.671,22.143 C 22.089,22.143 23.219,23.646 23.683,23.969 C 24.139,24.285 24.366,24.374 24.771,24.797 C 24.998,25.034 25.521,25.574 25.826,25.659 C 25.784,26.176 25.306,26.413 25.306,27.214 C 24.876,26.914 24.592,26.499 24.22,26.114 C 23.824,25.704 23.314,25.594 22.797,25.298 C 22.059,24.875 20.712,24.013 20.161,23.446 C 18.967,22.216 19.534,21.489 18.791,20.343 C 18.236,19.488 16.414,19.696 16.414,18.221 Z M 25.047,19.303 L 25.021,19.373 L 25.176,20.926 C 24.933,20.858 24.142,20.041 23.586,19.809 C 23.086,19.599 22.012,19.37 21.346,19.37 C 21.306,19.19 21.282,19.243 21.282,19.1 C 21.282,19.012 21.477,18.956 21.477,18.627 V 18.357 C 21.477,17.82 21.197,17.675 21.098,17.331 C 20.898,16.636 20.663,16.764 20.568,16.395 C 20.876,16.32 22.294,15.414 22.895,15.169 C 23.488,14.927 24.943,14.384 25.695,14.367 C 25.799,14.827 26.15,15.1 26.15,15.651 V 15.854 C 26.15,16.949 25.047,17.709 25.047,19.303 Z M 29.395,14.367 C 32.341,14.367 35.652,16.83 37.148,18.462 C 38.783,20.248 40.625,23.645 40.625,27.079 C 39.633,27.079 38.645,26.739 37.835,26.739 C 36.745,26.739 35.997,26.571 35.216,26.222 C 34.593,25.942 34.506,26.067 33.982,25.885 C 33.565,25.74 33.249,25.567 32.836,25.456 C 32.002,25.234 31.266,24.916 30.174,24.916 H 29.85 V 23.022 C 29.85,22.295 29.592,20.468 29.435,19.802 C 29.265,19.08 28.097,17.539 28.097,17.477 V 17.274 C 28.097,16.979 28.227,17.029 28.227,16.734 V 16.395 C 28.001,16.375 27.318,15.998 27.318,15.855 C 27.318,15.698 27.364,15.651 27.513,15.651 C 27.707,15.651 28.24,16.192 28.811,16.192 H 28.941 C 29.087,16.192 29.084,16.139 29.201,16.057 C 29.201,15.555 29.331,15.612 29.331,15.313 V 15.043 H 29.525 V 14.773 C 29.525,14.525 29.444,14.756 29.395,14.367 Z M 27.903,12 H 26.799 C 25.971,12.547 25.861,12.168 25.566,13.488 C 24.736,13.488 23.027,14.16 22.376,14.425 C 21.377,14.83 20.544,15.417 19.724,15.989 C 19.341,15.722 18.794,15.381 18.166,15.381 C 16.944,15.381 15.506,16.861 15.506,18.153 C 15.506,18.99 15.919,19.31 16.219,19.776 C 15.493,20.906 14.277,23.561 14.142,25.253 C 12.902,25.361 12,26.37 12,27.755 V 28.296 C 12,29.34 12.688,29.98 13.448,30.304 C 14.444,30.729 14.061,30.033 14.348,31.124 C 14.468,31.581 14.618,31.994 14.763,32.45 C 15.263,34.02 16.293,35.884 17.241,36.97 C 18.328,38.214 19.464,39.306 20.935,40.153 C 22.027,40.781 24.485,41.888 26.085,41.888 V 42.158 C 26.085,42.669 25.89,42.981 25.89,43.24 V 43.578 C 25.89,44.064 26.675,43.848 27.059,43.848 L 27.127,43.828 L 28.227,43.984 L 28.553,44 L 30.174,43.916 C 30.211,43.862 30.304,43.749 30.304,43.713 C 30.304,43.562 30.253,43.565 30.174,43.443 C 29.42,43.443 27.891,42.511 27.643,42.023 C 30.613,42.023 32.648,41.199 34.588,40.129 C 34.648,40.881 34.885,41.82 35.627,41.82 H 35.821 C 36.141,41.82 36.722,41.39 36.996,41.285 C 37.383,41.138 37.946,41.103 38.409,40.932 C 39.061,40.69 40.365,40.251 40.365,39.386 V 39.25 C 40.365,38.906 40.075,38.589 39.793,38.494 C 39.436,38.374 39.032,38.507 38.613,38.507 C 38.084,38.507 37.614,38.341 37.185,38.237 C 37.208,37.939 38.262,36.914 38.509,36.573 C 38.947,35.968 39.386,35.406 39.717,34.721 C 40.572,32.951 40.783,32.315 41.274,30.121 H 41.794 C 42.164,30.121 42.424,30.325 42.897,30.325 C 44.035,30.325 43.87,29.008 43.87,28.025 V 27.823 C 43.87,27.527 44,27.577 44,27.282 V 26.132 C 44,25.355 43.834,24.172 43.091,24.172 H 42.831 C 41.921,24.172 42.131,25.828 41.404,26.335 C 41.404,23.005 39.196,19.335 37.558,17.629 C 36.52,16.548 35.433,15.627 34.07,14.907 C 33.106,14.397 30.782,13.42 29.395,13.42 H 29.201 C 28.909,12.114 28.639,12.533 27.903,12 Z" fill="rgb(254, 254, 253)"/>
</svg>
