<?xml version="1.0" encoding="UTF-8"?>
<!-- generated by Finnhub -->
<svg viewBox="0 0 55.5 55.5" xmlns="http://www.w3.org/2000/svg">
<path d="M 0,0 H 55.5 V 55.5 H 0 Z" fill="rgb(239, 242, 248)"/>
<path d="M 45.99,27.325 C 46,21.093 37.942,16 28,16 C 18.06,16 10.002,21.093 10.002,27.34 L 10,28.004 C 10,34.632 17.043,40 27.998,40 C 39.021,40 46,34.633 46,28.006 V 27.34 Z" fill="rgb(1, 46, 107)"/>
<path d="M 45.300000000000004,27.32 C 45.31,33.225 37.562,37.999 28.004,37.999 S 10.698,33.225 10.698,27.335 S 18.446,16.669 28.004,16.669 C 37.562,16.669 45.311,21.444 45.311,27.335 Z" fill="rgb(254, 232, 2)"/>
<path d="M 22.247999999999998,23.955 C 22.248,23.987 22.076,24.159 22.188,24.297 C 22.461,24.633 23.304,24.826 24.158,24.642 C 24.665,24.532 25.316,24.032 25.947,23.551 C 26.63,23.028 27.309,22.504 27.99,22.296 C 28.712,22.074 29.174,22.169 29.48,22.258 C 29.815,22.355 30.21,22.568 30.838,23.022 C 32.022,23.879 36.784,27.882 37.607,28.575 C 38.269,28.286 41.214,27.065 45.216,26.215 C 44.868,24.16 43.57,22.281 41.602,20.741 C 38.859,21.851 35.507,22.43 32.229,20.888 C 32.212,20.881 30.437,20.072 28.687,20.112 C 26.087,20.17 24.96,21.254 23.767,22.402 L 22.257,23.97 Z" fill="rgb(254, 254, 253)"/>
<path d="M 37.403,28.995 C 37.358,28.962 31.814,24.29 30.559,23.381 C 29.832,22.856 29.427,22.722 29.003,22.671 A 2.2,2.2 0 0,0 28.263,22.738 C 27.679,22.891 26.915,23.383 26.237,23.901 C 25.535,24.44 24.873,24.947 24.259,25.08 C 23.474,25.25 22.516,25.05 22.079,24.765 C 21.901,24.65 21.776,24.517 21.716,24.382 C 21.555,24.022 21.853,23.733 21.902,23.685 L 23.432,22.091 A 31,31 0 0,1 23.972,21.581 C 23.478,21.642 23.022,21.764 22.578,21.883 C 22.024,22.033 21.491,22.176 20.951,22.176 C 20.726,22.176 19.52,21.986 19.291,21.926 C 17.906,21.56 16.691,21.205 14.876,20.389 C 12.702,21.948 11.248,23.898 10.828,26.045 C 11.14,26.125 11.644,26.269 11.855,26.315 C 16.776,27.369 18.309,28.455 18.587,28.681 A 1.665,1.665 0 0,1 19.807,28.154 C 20.352,28.154 20.842,28.418 21.14,28.826 C 21.422,28.611 21.81,28.428 22.313,28.428 C 22.542,28.428 22.779,28.468 23.017,28.548 C 23.572,28.731 23.859,29.087 24.007,29.408 C 24.194,29.328 24.423,29.268 24.692,29.268 C 24.957,29.268 25.233,29.327 25.511,29.443 C 26.418,29.818 26.56,30.676 26.477,31.323 C 26.542,31.316 26.607,31.313 26.673,31.313 C 27.749,31.314 28.623,32.156 28.623,33.193 C 28.623,33.514 28.538,33.816 28.39,34.08 C 28.683,34.239 29.429,34.598 30.084,34.518 C 30.607,34.454 30.806,34.282 30.877,34.185 C 30.927,34.118 30.977,34.041 30.929,33.985 L 29.541,32.499 S 29.312,32.29 29.388,32.21 C 29.466,32.127 29.608,32.246 29.708,32.327 C 30.414,32.895 31.277,33.753 31.277,33.753 C 31.291,33.763 31.349,33.871 31.667,33.926 C 31.943,33.973 32.428,33.946 32.765,33.68 C 32.85,33.612 32.935,33.528 33.006,33.442 C 33.001,33.445 32.996,33.452 32.991,33.454 C 33.346,33.016 32.951,32.573 32.951,32.573 L 31.33,30.82 S 31.098,30.613 31.177,30.53 C 31.247,30.458 31.397,30.567 31.498,30.648 C 32.012,31.061 32.738,31.763 33.432,32.418 C 33.567,32.514 34.179,32.878 34.987,32.366 C 35.478,32.056 35.577,31.676 35.563,31.388 C 35.529,31.008 35.22,30.736 35.22,30.736 L 33.006,28.592 S 32.772,28.399 32.856,28.302 C 32.922,28.22 33.075,28.338 33.174,28.418 C 33.88,28.987 35.789,30.673 35.789,30.673 C 35.816,30.692 36.476,31.144 37.291,30.644 C 37.583,30.464 37.769,30.194 37.785,29.88 A 1.113,1.113 0 0,0 37.413,29.01 Z" fill="rgb(254, 254, 253)"/>
<path d="M 26.662999999999997,31.714 C 26.329,31.725 25.953,31.921 25.904,31.893 C 25.877,31.875 25.925,31.743 25.958,31.666 C 25.991,31.59 26.443,30.279 25.341,29.824 C 24.497,29.475 23.981,29.868 23.804,30.044 C 23.758,30.092 23.737,30.088 23.732,30.028 C 23.715,29.793 23.605,29.154 22.877,28.941 C 21.837,28.633 21.167,29.333 20.998,29.585 A 1.19,1.19 0 0,0 19.806,28.57 C 19.139,28.57 18.598,29.09 18.598,29.733 C 18.598,30.375 19.138,30.896 19.805,30.896 C 20.129,30.897 20.424,30.772 20.64,30.572 C 20.647,30.577 20.65,30.589 20.646,30.611 C 20.596,30.898 20.502,31.944 21.639,32.37 C 22.095,32.54 22.482,32.413 22.803,32.196 C 22.899,32.131 22.915,32.158 22.901,32.246 C 22.86,32.514 22.912,33.09 23.75,33.417 C 24.388,33.667 24.765,33.411 25.012,33.191 C 25.119,33.096 25.149,33.111 25.154,33.258 C 25.184,34.036 25.856,34.654 26.671,34.654 C 27.511,34.655 28.191,34.001 28.191,33.194 C 28.192,32.384 27.511,31.738 26.673,31.729 Z" fill="rgb(254, 254, 253)"/>
<path d="M 26.662999999999997,34.535 C 25.912,34.55 25.293,33.98 25.265,33.255 C 25.263,33.192 25.257,33.027 25.111,33.027 C 25.051,33.027 25,33.062 24.94,33.113 C 24.773,33.263 24.56,33.415 24.248,33.415 C 24.107,33.415 23.954,33.383 23.792,33.319 C 22.989,33.006 22.978,32.474 23.011,32.261 C 23.02,32.203 23.022,32.144 22.981,32.098 L 22.933,32.055 H 22.883 C 22.841,32.055 22.8,32.072 22.743,32.11 C 22.51,32.267 22.287,32.344 22.06,32.344 C 21.936,32.344 21.808,32.32 21.68,32.272 C 20.622,31.876 20.706,30.914 20.757,30.624 C 20.765,30.566 20.75,30.52 20.711,30.49 L 20.636,30.43 L 20.566,30.495 A 1.11,1.11 0 0,1 19.806,30.791 C 19.201,30.791 18.708,30.316 18.708,29.733 C 18.708,29.149 19.202,28.675 19.808,28.676 C 20.356,28.676 20.822,29.072 20.892,29.599 L 20.93,29.883 L 21.092,29.643 C 21.11,29.615 21.554,28.968 22.37,28.969 C 22.525,28.969 22.686,28.993 22.847,29.041 C 23.497,29.232 23.607,29.801 23.625,30.037 C 23.636,30.175 23.738,30.182 23.758,30.182 C 23.814,30.182 23.856,30.148 23.885,30.118 C 24.008,29.994 24.275,29.789 24.694,29.789 C 24.885,29.789 25.089,29.833 25.299,29.92 C 26.333,30.348 25.864,31.613 25.859,31.627 C 25.769,31.837 25.766,31.929 25.849,31.983 L 25.891,32.001 H 25.921 C 25.967,32.001 26.025,31.981 26.121,31.951 C 26.261,31.904 26.474,31.833 26.673,31.833 C 27.452,31.842 28.085,32.452 28.084,33.193 C 28.084,33.943 27.45,34.551 26.673,34.551 Z M 37.627,28.451 C 35.92,27.015 31.974,23.711 30.905,22.938 C 30.295,22.496 29.878,22.262 29.512,22.158 A 2.394,2.394 0 0,0 28.828,22.055 A 2.98,2.98 0 0,0 27.959,22.195 C 27.269,22.406 26.581,22.933 25.915,23.442 L 25.881,23.468 C 25.261,23.943 24.62,24.434 24.135,24.538 C 23.924,24.584 23.706,24.608 23.489,24.608 C 22.946,24.608 22.458,24.457 22.275,24.232 C 22.245,24.195 22.265,24.134 22.335,24.048 L 22.344,24.036 L 23.846,22.477 C 25.023,21.344 26.134,20.274 28.692,20.217 L 28.82,20.216 C 30.412,20.216 32.003,20.903 32.182,20.983 C 33.675,21.683 35.216,22.04 36.765,22.042 C 38.379,22.042 40.045,21.657 41.796,20.88 C 41.601,20.722 41.396,20.568 41.188,20.416 C 39.649,21.059 38.183,21.384 36.769,21.383 C 35.325,21.382 33.881,21.048 32.48,20.389 C 32.407,20.355 30.649,19.557 28.82,19.556 L 28.676,19.558 C 26.527,19.606 25.317,20.341 24.503,20.985 C 23.712,21.003 23.029,21.187 22.421,21.351 C 21.879,21.496 21.411,21.622 20.954,21.621 C 20.766,21.621 20.427,21.605 20.397,21.604 C 19.872,21.589 17.227,20.964 15.121,20.196 A 13.89,13.89 0 0,0 14.498,20.648 C 16.697,21.516 19.373,22.188 20.218,22.241 C 20.452,22.255 20.702,22.281 20.953,22.281 C 21.512,22.281 22.069,22.131 22.609,21.985 C 22.927,21.899 23.279,21.805 23.649,21.737 C 23.55,21.83 23.452,21.925 23.353,22.02 L 21.827,23.61 C 21.707,23.727 21.446,24.039 21.617,24.423 C 21.687,24.578 21.825,24.726 22.019,24.853 C 22.383,25.088 23.034,25.247 23.639,25.248 C 23.869,25.248 24.085,25.226 24.285,25.183 C 24.925,25.044 25.595,24.529 26.307,23.985 C 26.873,23.552 27.677,23.001 28.294,22.839 C 28.466,22.794 28.677,22.766 28.847,22.766 C 28.898,22.766 28.946,22.768 28.991,22.774 C 29.398,22.824 29.791,22.958 30.494,23.466 C 31.747,24.372 37.291,29.043 37.344,29.09 C 37.349,29.093 37.702,29.386 37.677,29.875 C 37.664,30.147 37.507,30.389 37.235,30.557 A 1.39,1.39 0 0,1 36.507,30.775 C 36.137,30.774 35.881,30.607 35.865,30.595 C 35.845,30.579 33.945,28.901 33.246,28.338 C 33.135,28.249 33.026,28.169 32.917,28.169 A 0.183,0.183 0 0,0 32.772,28.235 C 32.662,28.365 32.785,28.546 32.93,28.665 L 35.15,30.813 C 35.152,30.816 35.425,31.063 35.456,31.393 C 35.473,31.748 35.296,32.046 34.929,32.279 C 34.667,32.444 34.402,32.529 34.142,32.529 C 33.802,32.529 33.562,32.379 33.51,32.344 L 33.191,32.042 C 32.61,31.49 32.009,30.92 31.57,30.567 C 31.462,30.481 31.348,30.402 31.238,30.402 A 0.192,0.192 0 0,0 31.098,30.459 C 31.048,30.513 31.014,30.609 31.138,30.769 C 31.19,30.835 31.25,30.889 31.25,30.889 L 32.87,32.641 C 32.884,32.657 33.204,33.023 32.906,33.389 L 32.849,33.459 C 32.801,33.51 32.749,33.558 32.699,33.598 C 32.423,33.816 32.054,33.84 31.908,33.84 C 31.829,33.84 31.754,33.833 31.688,33.822 C 31.528,33.794 31.422,33.752 31.37,33.692 L 31.35,33.672 C 31.262,33.584 30.445,32.782 29.77,32.239 C 29.681,32.167 29.57,32.077 29.455,32.077 A 0.195,0.195 0 0,0 29.309,32.14 C 29.175,32.28 29.376,32.491 29.461,32.569 L 30.842,34.035 A 0.307,0.307 0 0,1 30.79,34.125 C 30.74,34.191 30.573,34.352 30.072,34.413 C 30.012,34.42 29.95,34.423 29.889,34.423 C 29.372,34.423 28.821,34.183 28.537,34.037 C 28.667,33.774 28.733,33.485 28.733,33.194 C 28.734,32.099 27.811,31.209 26.674,31.208 C 26.65,31.208 26.624,31.208 26.6,31.21 C 26.637,30.71 26.564,29.763 25.555,29.346 A 2.236,2.236 0 0,0 24.695,29.164 C 24.475,29.164 24.262,29.2 24.063,29.274 A 1.718,1.718 0 0,0 23.054,28.449 A 2.34,2.34 0 0,0 22.315,28.324 C 21.895,28.324 21.509,28.442 21.164,28.679 C 20.834,28.283 20.334,28.049 19.808,28.049 C 19.348,28.049 18.906,28.226 18.578,28.539 C 18.148,28.222 16.444,27.179 11.88,26.181 A 25.57,25.57 0 0,1 10.841,25.905 C 10.79,26.143 10.751,26.384 10.725,26.626 C 10.725,26.626 11.566,26.821 11.732,26.856 C 16.394,27.854 17.934,28.891 18.195,29.086 A 1.64,1.64 0 0,0 18.06,29.733 C 18.06,30.66 18.843,31.416 19.807,31.417 C 19.915,31.417 20.022,31.408 20.127,31.389 C 20.272,32.072 20.736,32.589 21.445,32.855 C 21.652,32.932 21.861,32.971 22.067,32.971 C 22.2,32.971 22.334,32.955 22.465,32.923 C 22.595,33.243 22.89,33.643 23.549,33.9 C 23.779,33.99 24.01,34.036 24.235,34.036 C 24.418,34.036 24.598,34.006 24.768,33.944 C 25.084,34.685 25.835,35.176 26.672,35.176 C 27.227,35.176 27.759,34.959 28.148,34.573 C 28.48,34.752 29.183,35.073 29.892,35.075 C 29.984,35.075 30.07,35.069 30.156,35.058 C 30.86,34.972 31.188,34.708 31.339,34.501 A 0.846,0.846 0 0,0 31.411,34.387 C 31.578,34.433 31.761,34.471 31.971,34.471 C 32.355,34.471 32.724,34.345 33.097,34.083 C 33.464,33.828 33.725,33.463 33.762,33.151 L 33.764,33.138 C 33.887,33.163 34.014,33.175 34.141,33.175 C 34.537,33.175 34.926,33.056 35.299,32.822 C 36.017,32.368 36.142,31.775 36.129,31.388 C 36.256,31.413 36.384,31.426 36.512,31.426 C 36.884,31.426 37.249,31.318 37.597,31.105 C 38.042,30.831 38.309,30.411 38.35,29.922 A 1.546,1.546 0 0,0 38.111,28.968 C 39.314,28.468 42.064,27.502 45.302,26.799 A 6.85,6.85 0 0,0 45.202,26.081 C 41.283,26.918 38.36,28.137 37.627,28.451 Z" fill="rgb(1, 46, 107)"/>
</svg>
