<?xml version="1.0" encoding="UTF-8"?>
<!-- generated by Finnhub -->
<svg viewBox="0 0 55.5 55.5" xmlns="http://www.w3.org/2000/svg">
<path d="M 0,0 H 55.5 V 55.5 H 0 Z" fill="url(#b)"/>
<path d="M 13.540000000000001,25.116 C 13.55,27.96 13.97,30.608 15.416,32.778 V 30.91 C 15.416,28.564 17.284,26.877 19.211,25.852 C 17.284,26.455 15.176,26.034 13.55,25.132 Z" fill="rgb(196, 177, 118)"/>
<path d="M 15.392,21.963 C 14.723,22.526 14.048,23.075 13.193,22.821 C 13.724,23.219 14.455,23.351 15.25,23.285 C 15.98,23.751 16.843,22.489 17.773,22.489 C 19.102,22.291 20.827,22.09 21.757,23.285 L 21.291,22.357 C 20.03,22.291 18.968,21.825 17.906,21.228 A 1.7,1.7 0 0,0 17.209,21.071 C 16.531,21.071 15.966,21.525 15.403,21.978 Z" fill="rgb(185, 164, 100)"/>
<path d="M 11.992,18.219 C 12.647,18.397 13.297,18.547 13.97,18.627 C 15.297,18.026 15.653,16.937 15.112,15.49 C 14.359,14.332 13.209,13.671 12.002,13.36 V 18.234 Z" fill="rgb(175, 154, 86)"/>
<path d="M 18.523,29.512999999999998 C 16.353,33.989 19.413,40.148 16.302,43.998 H 21.176 C 21.394,43.794 21.604,43.569 21.801,43.316 C 25.413,38.619 18.367,35.849 18.487,31.332 C 18.668,29.525 19.643,28.166 20.895,26.695 L 20.777,26.575 C 19.652,27.633 19.195,28.384 18.533,29.528 Z" fill="rgb(205, 186, 129)"/>
<path d="M 27.987,11.985 C 32.792,15.69 35.887,21.478 35.9,28.002 C 35.886,34.522 32.792,40.31 27.995,43.999 H 44 V 12 H 27.997 Z" fill="rgb(167, 144, 73)"/>
<path d="M 11.992,43.984 H 14.748 L 15.422,43.431 C 19.164,38.371 14.699,34.823 12.002,30.834 V 43.999 Z" fill="rgb(210, 190, 136)"/>
<path d="M 11.992,11.985 V 12.52 A 8.08,8.08 0 0,1 14.152,13.148 C 15.657,14.052 16.862,15.556 16.742,17.362 L 20.174,17.062 C 20.619,15.936 20.807,14.2 20.398,13.316 C 20.135,12.746 19.898,12.336 19.59,12 H 12.002 Z" fill="rgb(174, 151, 84)"/>
<path d="M 24.08,28.849 C 23.065,29.165 22.1,28.504 21.078,28.324 C 21.078,28.184 21.043,28.041 21.11,27.959 C 19.652,28.879 20.048,30.639 19.752,32.054 C 20.114,33.621 21.801,34.222 22.944,35.125 C 24.629,35.426 26.194,34.644 27.702,34.103 C 27.941,34.345 28.303,34.585 28.123,34.945 C 26.979,36.571 25.233,37.293 23.243,37.112 C 24.436,39.388 23.628,42.006 22.358,43.999 H 23.554 C 27.121,42.355 30.524,39.89 30.77,35.125 C 31.133,32.115 30.89,28.985 28.725,26.877 A 2.554,2.554 0 0,0 28.279,26.877 C 27.911,26.897 27.535,26.917 27.279,26.576 C 26.316,27.48 25.051,27.841 24.089,28.864 Z M 24.69,28.864 C 25.314,28.192 27.09,26.868 27.69,27.369 C 27.841,27.495 27.918,27.931 27.88,28.333 L 27.58,29.056 L 27.242,28.13 C 26.399,28.31 25.607,28.618 25.186,29.462 C 25.126,29.703 25.232,30.199 24.991,30.38 C 24.449,30.26 24.751,29.345 24.691,28.864 Z M 27.58,32.238 C 28.242,34.585 25.473,34.162 24.268,34.825 C 23.786,34.464 24.028,33.863 23.967,33.382 L 24.268,33.08 C 24.568,33.98 25.126,33.641 25.738,33.301 C 26.106,33.096 26.495,32.891 26.858,32.959 C 27.279,32.778 27.099,32.115 27.581,32.238 Z" fill="rgb(192, 170, 109)"/>
<path d="M 25.163999999999998,14.988 C 23.597,15.092 22.086,16.247 21.499,17.183 C 22.582,17.785 23.787,18.689 24.811,19.65 C 24.751,20.012 24.991,20.493 24.509,20.676 C 23.966,20.254 23.488,19.169 22.822,19.53 C 23.366,20.676 24.811,20.796 25.954,21.097 C 26.375,21.519 26.254,22.24 27.159,21.939 C 27.58,22.059 27.759,22.541 27.881,22.963 C 27.399,23.847 26.356,23.766 25.393,23.686 C 24.911,23.646 24.449,23.606 24.089,23.686 C 24.991,24.047 26.016,24.167 26.859,24.709 C 27.702,25.25 27.941,23.986 28.303,23.566 C 29.746,23.926 28.965,25.431 29.567,26.274 C 32.639,29.467 32.036,35.066 30.471,38.738 C 34.686,34.886 34.349,26.302 33.363,22.843 C 32.396,19.467 29.453,14.993 25.476,14.993 C 25.376,14.993 25.276,14.997 25.174,15.003 Z" fill="rgb(172, 149, 82)"/>
<path d="M 27.985999999999997,11.985 A 20.3,20.3 0 0,1 33.876,19.212 C 37.048,20.69 40.417,22.645 44,25.145 V 12 H 27.996 Z" fill="rgb(173, 150, 82)"/>
<path d="M 21.093,11.985 C 21.802,12.963 21.825,14.232 21.919,15.316 C 23.242,14.292 24.929,13.689 26.676,14.171 C 25.476,13.263 24.692,12.544 23.261,12.001 H 21.103 Z M 12,12 V 12.52 A 7.988,7.988 0 0,1 14.152,13.148 C 15.152,13.749 16.02,14.618 16.453,15.663 A 25.425,25.425 0 0,1 20.553,15.569 C 20.674,14.722 20.649,13.857 20.397,13.315 C 20.135,12.745 19.897,12.335 19.589,12 H 12 Z M 12,16.572 C 13.039,16.252 14.11,16.003 15.221,15.827 A 4.228,4.228 0 0,0 15.111,15.49 C 14.357,14.33 13.207,13.67 12,13.358 V 16.572 Z" fill="rgb(162, 138, 63)"/>
<path d="M 25.162999999999997,14.988 C 24.365,15.046 23.576,15.373 22.92,15.805 C 25.375,16.151 27.979,16.826 30.744,17.883 C 29.362,16.225 27.561,14.993 25.476,14.993 C 25.375,14.993 25.276,14.997 25.173,15.003 Z" fill="rgb(162, 138, 66)"/>
<path d="M 33.676,37.156 A 20.32,20.32 0 0,1 27.996,44 H 44 V 21.79 C 41.618,27.49 38.382,33.5 33.686,37.172 Z" fill="rgb(192, 170, 111)"/>
<path d="M 11.99,43.984 H 14.747 L 15.421,43.432 C 16.496,41.978 16.891,40.65 16.848,39.401 C 15.311,38.861 13.698,38.138 12,37.214 V 44 Z" fill="rgb(171, 148, 80)"/>
<path d="M 23.712,40.662 C 23.508,41.859 22.992,43.007 22.357,43.999 H 23.554 C 25.744,42.989 27.874,41.669 29.249,39.695 A 15.507,15.507 0 0,1 23.722,40.677 Z" fill="rgb(181, 160, 94)"/>
<path d="M 16.29,43.984 H 21.176 A 6.08,6.08 0 0,0 21.801,43.316 C 22.537,42.358 22.828,41.48 22.831,40.652 C 21.246,40.566 19.559,40.262 17.765,39.704 C 17.661,41.286 17.301,42.764 16.301,43.999 Z" fill="rgb(180, 157, 89)"/>
<path d="M 27.987,11.985 C 28.697,12.539 29.358,13.123 29.983,13.747 A 20.653,20.653 0 0,0 28.038,12 H 27.997 Z" fill="url(#a)"/>
<defs>
<linearGradient id="b" x1="10.418" x2="68.147" y1="9.712" y2="76.017" gradientUnits="userSpaceOnUse">
<stop stop-color="rgb(25, 29, 31)" offset="0"/>
<stop stop-color="rgb(5, 5, 8)" offset="1"/>
</linearGradient>
<linearGradient id="a" x1="27.997" x2="29.982" y1="11.227" y2="11.227" gradientUnits="userSpaceOnUse">
<stop stop-color="rgb(208, 210, 210)" offset="0"/>
<stop stop-color="rgb(40, 40, 40)" offset="1"/>
</linearGradient>
</defs>
</svg>
