<?xml version="1.0" encoding="UTF-8"?>
<!-- generated by Finnhub -->
<svg viewBox="0 0 55.5 55.5" xmlns="http://www.w3.org/2000/svg">
<path d="M 0,0 H 55.5 V 55.5 H 0 Z" fill="rgb(239, 242, 248)"/>
<path d="M 11.99,17.982 L 16.898,13.717 L 20.98,17.027 L 24.898,13.717 L 28.816,16.861 L 32.571,13.716 L 37,17 V 25.425 L 32,29.606 V 19.823 S 31.717,17.689 29,17.689 V 42 H 24 V 19.495 S 23.864,17.689 21,17.689 V 42 H 16 V 20.337 S 15.755,17.5 12,17.997 Z" fill="rgb(12, 46, 137)"/>
<path d="M 40.167,23.798 L 32,30.6 V 37.22 L 37.272,41.855 L 44,36.228 L 43.694,35.896 S 41.859,37.882 40.33,37.552 C 37.884,37.221 37,35.566 37,33.082 V 27.455 S 38.954,29.606 40.33,29.606 C 41.554,29.606 42.777,28.448 44,27.124 L 40.177,23.813 Z" fill="rgb(243, 20, 31)"/>
</svg>
