<?xml version="1.0" encoding="UTF-8"?>
<!-- generated by Finnhub -->
<svg viewBox="0 0 55.5 55.5" xmlns="http://www.w3.org/2000/svg">
<path d="M 0,0 H 55.5 V 55.5 H 0 Z" fill="rgb(239, 242, 248)"/>
<path d="M 49.49,22.985 H 51 V 29.44 C 51,31.68 49.11,33 47,33 C 44.88,33 43,31.69 43,29.44 V 23 H 44.5 V 29.29 C 44.5,30.56 45.76,31.41 47,31.41 S 49.5,30.56 49.5,29.29 V 23 Z M 42,26 H 40.34 C 40.16,24.9 39.29,24.58 38.18,24.58 C 37.69,24.58 37.25,24.72 36.88,24.98 C 36.49,25.24 36.19,25.63 35.98,26.14 C 35.76,26.64 35.65,27.27 35.65,28 C 35.65,28.74 35.76,29.37 35.98,29.88 A 2.29,2.29 0 0,0 38.18,31.42 C 39.26,31.42 40.15,31.07 40.34,29.99 L 42,30 C 41.74,31.96 40.13,33 38.16,33 A 3.91,3.91 0 0,1 34.54,30.69 A 6.15,6.15 0 0,1 34,28 C 34,26.95 34.18,26.05 34.55,25.31 A 3.9,3.9 0 0,1 38.16,23 C 40.19,23 41.75,24 42,26 Z M 25.87,33 H 24 L 27.41,23 H 29.58 L 33,33 H 31.13 L 28.53,25.05 H 28.46 L 25.87,33 Z M 25.94,29 H 31.04 V 30.53 H 25.94 V 29 Z M 16,33 V 23 H 17.5 V 31.48 H 23 V 33 H 16 Z M 4,23 H 6.11 L 8.94,30.25 H 9.06 L 11.89,23 H 14 V 33 H 12.34 V 26.13 H 12.25 L 9.62,32.97 H 8.38 L 5.75,26.12 H 5.65 V 33 H 4 V 23 Z" fill="rgb(20, 23, 25)"/>
</svg>
