<?xml version="1.0" encoding="UTF-8"?>
<!-- generated by Finnhub -->
<svg viewBox="0 0 55.5 55.5" xmlns="http://www.w3.org/2000/svg">
<path d="M 0,0 H 55.5 V 55.5 H 0 Z" fill="rgb(237, 26, 43)"/>
<path d="M 39.978,16.987 L 37.109,29.772 L 33.99,17.002 L 24.99,17.03 L 24.974,22.052 C 23.914,18.082 20.479,17.058 17,17.002 C 12.759,16.946 8.163,18.374 8,23.992 H 13.998 C 13.998,22.295 15.248,21.999 16.711,22.024 C 18.508,22.009 19.321,22.516 19.361,23.712 C 19.3,24.75 18.688,25.472 16.711,25.472 H 14.997 V 29.549 H 16.529 C 17.546,29.549 18.962,30.104 19.018,31.555 C 19.086,33.285 17.885,34.045 16.408,34.06 C 13.769,33.962 13.088,31.73 13.088,29.983 H 7 C 7.026,31.16 6.957,39.057 16.5,39 C 21.072,39.042 24.05,37.117 24.99,34.462 L 24.973,39 L 30.99,38.971 V 24.99 L 34.471,38.971 H 39.718 L 42.992,24.99 L 42.977,38.983 H 48.969 L 49,17.002 H 39.988 Z M 24.994,29.772 C 24.246,28.222 23.571,27.516 22.979,27.302 C 24.222,26.748 24.495,26.026 24.994,24.528 V 29.772 Z" fill="rgb(254, 254, 253)"/>
</svg>
