<?xml version="1.0" encoding="UTF-8"?>
<!-- generated by Finnhub -->
<svg viewBox="0 0 55.5 55.5" xmlns="http://www.w3.org/2000/svg">
<path d="M 0,0 H 55.5 V 55.5 H 0 Z" fill="url(#a)"/>
<path d="M 29.023,45.091 C 29.033,45.331 29.12,46.385 28.833,46.598 C 28.759,47.124 28.386,47.375 28.199,47.851 C 28.187,47.914 28.174,47.964 28.174,48.039 C 28.15,48.052 28.137,48.064 28.112,48.077 C 28.075,48.064 28.038,48.052 28,48.052 C 27.976,47.939 27.963,47.826 27.938,47.713 C 27.963,47.249 28.138,46.861 28.199,46.41 V 46.033 A 0.246,0.246 0 0,1 28.311,46.008 V 45.996 C 28.311,45.657 28.324,45.331 28.336,45.006 V 44.893 A 0.359,0.359 0 0,0 28.224,44.868 C 28.137,44.542 28.025,44.216 28.025,43.878 C 27.988,43.852 27.963,43.84 27.925,43.815 C 27.901,43.551 27.702,43.413 27.528,43.238 C 27.465,43.05 27.416,42.862 27.353,42.686 C 27.465,42.511 27.603,42.336 27.727,42.16 C 27.814,41.721 27.577,41.157 27.552,40.655 C 27.515,40.505 27.478,40.367 27.441,40.229 C 27.528,40.029 27.652,39.853 27.652,39.627 A 0.207,0.207 0 0,0 27.59,39.602 C 27.403,39.126 27.863,38.474 27.416,38.123 A 6.438,6.438 0 0,1 27.341,36.23 C 27.341,36.08 27.341,36.08 27.391,36.017 C 27.541,35.327 26.744,34.977 26.781,34.262 C 26.931,33.948 27.08,33.635 27.241,33.322 C 27.266,32.882 27.279,32.808 27.59,32.532 A 9.43,9.43 0 0,1 27.702,31.704 V 31.554 H 27.789 C 27.801,31.266 27.776,30.89 27.901,30.626 C 28.038,30.338 28.461,29.548 28.15,29.235 C 28.038,28.771 27.9,28.395 27.863,27.918 C 27.478,27.63 27.577,27.505 27.64,27.003 C 27.552,26.238 27.839,25.461 27.888,24.697 C 27.751,24.483 27.465,24.307 27.378,24.095 C 27.378,23.907 27.378,23.719 27.391,23.531 C 27.453,23.079 27.416,22.641 27.491,22.214 C 27.453,22.064 27.378,21.788 27.291,21.65 C 27.291,21.412 27.291,21.186 27.304,20.96 C 27.404,20.497 27.64,20.208 27.416,19.732 C 26.868,19.394 26.806,19.318 26.756,18.679 H 26.98 C 27.13,18.379 27.018,17.488 27.018,17.225 C 26.906,17.175 26.831,17.112 26.818,17.012 C 26.881,16.987 26.955,16.987 27.018,16.974 C 27.018,16.911 27.03,16.861 27.042,16.811 C 26.619,16.435 26.371,15.745 25.736,15.745 A 0.452,0.452 0 0,0 25.711,15.883 C 25.624,15.858 25.537,15.821 25.45,15.796 C 25.388,15.783 25.338,15.771 25.276,15.771 C 24.99,15.708 24.729,15.595 24.442,15.621 C 24.405,15.658 24.405,15.658 24.33,15.658 C 24.23,15.683 24.131,15.695 24.044,15.72 C 23.895,15.77 23.796,15.783 23.708,15.921 C 23.733,16.147 23.733,16.147 23.771,16.259 C 23.858,16.473 23.858,16.473 23.895,16.686 C 23.82,16.748 23.745,16.799 23.659,16.861 C 23.572,17.212 23.709,17.501 23.746,17.826 C 23.273,18.102 22.962,18.102 22.663,18.604 C 22.502,19.218 22.563,19.857 22.514,20.497 C 22.639,20.497 22.775,20.509 22.912,20.522 C 23.024,20.635 23.024,20.71 23.037,20.872 C 22.962,21.023 22.962,21.023 22.9,21.374 C 22.788,21.537 22.688,21.713 22.576,21.888 L 22.464,22.038 C 22.265,22.29 22.303,22.741 22.253,23.054 C 22.278,23.092 22.29,23.129 22.315,23.18 C 22.837,23.418 22.365,24.27 22.502,24.684 C 22.701,24.972 22.701,24.972 22.775,25.148 C 22.838,25.687 23.062,26.176 23.285,26.69 C 23.435,26.915 23.795,27.266 23.733,27.567 C 23.708,27.617 23.683,27.667 23.671,27.717 C 23.609,27.805 23.559,27.906 23.497,28.007 C 23.447,28.119 23.447,28.119 23.36,28.207 C 23.236,28.445 23.236,28.445 23.124,28.808 C 23.012,29.009 22.874,29.198 22.837,29.435 C 23.248,29.774 23.173,29.937 23.074,30.425 C 23.024,30.89 22.874,31.128 23.224,31.441 C 23.31,31.479 23.397,31.529 23.422,31.617 H 23.46 C 23.484,31.805 23.447,32.294 23.348,32.394 C 23.323,32.457 23.298,32.507 23.285,32.569 C 23.235,32.719 23.198,32.858 23.161,33.009 C 23.049,33.472 22.875,33.973 22.788,34.412 C 22.688,34.776 22.688,34.776 22.614,34.902 C 22.551,35.452 22.364,36.054 22.651,36.581 C 22.713,36.995 22.85,37.371 22.875,37.772 C 22.813,37.96 22.738,38.148 22.675,38.336 C 22.688,38.586 22.701,38.85 22.701,39.113 C 22.501,39.64 22.464,39.627 22.676,40.166 C 22.676,40.743 22.601,41.307 22.526,41.884 C 22.589,42.586 22.589,42.586 22.701,43.426 C 22.701,43.764 22.825,43.99 22.974,44.303 C 22.95,44.554 22.887,44.755 22.775,44.98 C 22.775,45.118 22.85,45.194 22.813,45.319 C 22.39,45.181 22.639,44.517 22.613,44.229 C 22.539,44.065 22.365,43.865 22.34,43.789 C 22.278,43.714 22.228,43.639 22.166,43.551 C 22.141,43.489 22.103,43.438 22.091,43.401 C 21.83,41.959 21.618,40.492 21.307,39.051 C 20.897,38.449 20.872,38.198 21.195,37.659 C 21.183,37.584 21.183,37.509 21.183,37.446 C 21.096,37.446 20.797,36.856 20.797,36.844 C 20.835,36.506 21.009,36.004 20.86,35.678 C 20.524,35.415 20.35,35.302 20.213,34.914 C 20.523,34.487 20.773,33.874 21.058,33.384 C 21.083,33.259 21.121,33.134 21.158,33.021 C 21.121,32.281 21.058,31.529 21.046,30.789 C 20.884,30.689 20.747,30.589 20.598,30.501 C 20.748,29.749 20.772,29.047 20.798,28.269 V 28.232 C 20.548,27.267 20.225,26.289 20.001,25.336 C 19.827,25.336 19.479,24.32 19.317,24.145 C 19.429,23.681 19.429,23.681 19.541,23.405 C 19.641,22.54 19.877,21.775 20.125,20.973 V 20.798 C 19.902,20.334 20.325,19.707 19.976,19.343 C 19.951,19.18 19.939,19.005 19.926,18.855 L 19.727,18.654 C 19.479,18.516 19.192,18.391 19.143,18.09 C 19.23,17.927 19.391,17.751 19.391,17.563 C 19.267,17.563 19.056,17.074 19.056,16.911 C 18.856,16.798 18.856,16.798 18.72,16.686 C 18.023,16.41 17.165,16.259 16.43,16.122 C 16.182,16.122 15.535,16.009 15.348,16.209 C 15.174,16.259 15.088,16.272 15,16.297 C 15,16.122 15.36,15.959 15.485,15.871 L 15.746,15.758 C 15.746,15.733 15.746,15.733 15.759,15.72 C 16.182,15.695 16.48,15.658 16.841,15.457 L 17.277,15.344 C 17.476,14.855 18.347,15.081 18.769,15.094 C 19.155,15.069 19.429,14.868 19.789,14.717 C 19.789,14.63 19.864,14.63 19.939,14.605 C 19.964,14.58 19.976,14.58 20.001,14.567 C 20.125,14.454 20.262,14.429 20.424,14.417 C 20.574,14.204 20.624,14.015 20.884,13.965 C 21.071,14.304 21.134,14.429 21.432,14.655 C 21.693,14.743 21.693,14.743 21.73,14.78 C 22.925,14.855 22.925,14.855 23.074,14.893 C 23.273,15.131 23.41,15.344 23.684,15.131 C 23.708,15.106 23.721,15.106 23.746,15.094 A 0.27,0.27 0 0,1 23.846,15.031 C 23.92,14.981 23.994,14.931 24.082,14.893 C 24.231,14.855 24.368,14.793 24.542,14.78 L 24.579,14.63 H 24.716 V 14.53 A 4.24,4.24 0 0,1 24.952,14.417 C 25.064,14.128 25.637,14.354 25.823,14.354 C 25.923,14.341 26.023,14.329 26.134,14.329 A 0.364,0.364 0 0,1 26.259,14.304 C 26.371,14.154 26.408,14.028 26.595,13.99 C 26.706,13.765 27.565,13.702 27.851,13.664 C 27.913,13.627 27.988,13.602 28.063,13.564 C 28.1,13.527 28.1,13.527 28.174,13.527 C 28.199,13.502 28.212,13.502 28.237,13.489 A 0.247,0.247 0 0,1 28.349,13.464 C 28.461,13.414 28.585,13.376 28.697,13.338 C 28.747,13.125 28.897,13.063 29.07,13 C 29.132,13 29.195,13.012 29.27,13.025 C 29.294,13.075 29.307,13.125 29.331,13.175 C 29.531,13.602 30.003,13.627 30.401,13.827 C 30.688,14.078 30.899,14.254 31.235,14.417 C 31.521,14.529 31.545,14.667 31.385,14.943 V 15.143 C 31.72,15.319 32.068,15.282 32.379,15.483 C 32.379,15.533 32.392,15.595 32.404,15.645 C 32.205,15.758 32.068,15.808 31.857,15.845 C 31.546,15.971 31.434,16.285 31.135,16.41 A 8.256,8.256 0 0,0 31.085,16.987 C 30.899,17.175 30.712,17.363 30.538,17.551 C 30.513,17.864 30.501,17.951 30.24,18.153 C 30.252,18.378 30.265,18.541 30.34,18.729 C 30.426,19.143 30.451,19.243 30.277,19.644 C 30.277,19.983 30.526,20.246 30.737,20.509 C 30.737,20.923 30.513,21.299 30.513,21.713 C 30.6,22.001 30.687,22.277 30.787,22.565 C 30.799,22.753 30.837,22.791 30.837,22.966 C 30.849,22.991 30.862,23.029 30.874,23.054 V 23.167 C 30.949,23.807 30.911,23.757 30.464,24.207 C 30.401,24.307 30.352,24.408 30.314,24.508 A 0.53,0.53 0 0,1 30.426,24.872 V 25.11 C 30.314,25.587 30.314,25.587 30.177,25.913 C 30.153,25.975 30.153,26.038 30.14,26.113 C 30.19,26.414 30.19,26.414 30.302,26.69 C 30.364,27.655 31.011,28.457 30.849,29.46 C 30.812,29.56 30.787,29.66 30.749,29.761 A 0.258,0.258 0 0,1 30.675,29.786 C 30.476,30.049 30.476,30.049 30.265,30.263 C 30.165,30.451 30.078,30.639 29.991,30.827 C 29.966,31.253 29.929,31.291 29.904,31.529 C 29.605,31.968 29.494,32.494 29.22,32.958 C 29.207,33.058 29.195,33.158 29.195,33.271 C 29.157,33.522 29.02,33.886 29.307,34.024 A 0.238,0.238 0 0,1 29.331,34.124 C 29.344,34.237 29.344,34.237 29.269,34.462 C 29.207,34.575 29.207,34.575 29.207,34.801 C 29.207,34.976 29.182,35.001 29.269,35.151 C 29.282,35.164 29.294,35.177 29.307,35.202 V 35.528 C 29.145,35.979 29.244,36.556 29.307,37.032 C 29.307,37.346 29.269,37.408 29.02,37.634 C 28.996,37.822 28.996,37.822 29.02,38.01 C 29.07,38.148 29.07,38.148 29.083,38.612 C 29.058,38.787 29.058,38.962 29.045,39.138 A 5.1,5.1 0 0,1 28.945,39.916 C 28.921,40.029 28.884,40.141 28.859,40.254 C 28.859,40.38 28.933,40.404 29.033,40.467 C 29.033,40.492 29.033,40.53 29.045,40.555 L 29.083,40.906 C 29.506,41.583 29.891,41.821 29.381,42.511 C 29.356,42.598 29.356,42.598 29.356,42.861 C 29.356,43.201 29.369,43.426 29.244,43.739 C 29.132,43.852 29.194,44.529 29.194,44.705 A 0.254,0.254 0 0,1 29.12,44.73 C 29.095,44.742 29.083,44.755 29.058,44.755 C 29.07,44.88 29.045,44.993 29.033,45.105 Z M 34.88,14.806 C 34.892,14.768 34.905,14.73 34.905,14.692 C 35.228,14.617 35.228,14.617 35.415,14.605 C 35.602,14.467 35.788,14.341 35.975,14.216 C 36.049,14.141 36.049,14.141 36.136,14.128 C 36.223,13.852 36.311,14.216 36.336,14.291 C 36.373,14.341 36.41,14.391 36.447,14.454 C 36.584,14.504 36.584,14.504 37.542,14.654 C 37.692,14.855 37.828,15.044 37.978,15.257 C 38.588,15.457 38.264,15.683 38.214,16.197 C 38.376,16.234 38.525,16.272 38.674,16.31 C 38.774,16.585 38.799,16.799 38.824,17.087 C 38.612,17.425 38.612,17.425 38.6,17.513 C 38.973,17.801 39.147,17.889 38.848,18.34 A 2.989,2.989 0 0,0 38.687,18.604 C 38.575,18.854 38.575,18.854 38.5,18.904 V 19.168 C 38.488,19.281 38.488,19.418 38.488,19.544 C 38.238,19.719 38.028,19.844 37.978,20.158 V 20.371 C 37.94,20.397 37.903,20.434 37.866,20.471 C 37.841,20.521 37.828,20.572 37.816,20.622 C 37.791,20.685 37.779,20.772 37.754,20.848 A 0.723,0.723 0 0,0 37.617,21.186 C 37.642,21.274 37.654,21.362 37.679,21.45 C 37.542,21.813 37.256,22.114 37.094,22.465 C 37.119,22.854 37.157,22.891 37.219,23.38 H 37.132 C 37.157,23.669 37.256,24.045 37.107,24.295 C 37.069,24.358 37.045,24.433 37.007,24.495 V 24.609 C 37.07,24.646 37.157,24.696 37.231,24.747 C 37.48,24.884 37.691,25.035 37.492,25.336 C 37.393,25.938 37.393,25.938 37.318,26.163 C 37.256,26.326 37.206,26.477 37.144,26.64 C 37.119,26.815 37.119,27.003 37.107,27.191 C 37.144,27.329 37.182,27.367 37.182,27.442 C 37.356,27.906 37.679,28.269 37.915,28.708 C 38.027,28.997 38.077,29.147 38.09,29.448 A 3.32,3.32 0 0,0 37.978,29.661 C 37.928,29.761 37.928,29.799 37.953,29.911 C 38.003,29.974 38.003,29.974 38.065,30.2 C 37.716,31.103 37.716,31.103 37.331,31.942 C 37.281,32.105 37.107,32.406 37.206,32.557 C 37.269,32.607 37.269,32.607 37.368,32.757 C 37.194,32.933 37.343,33.146 37.43,33.309 C 37.53,33.409 37.555,33.459 37.604,33.597 C 37.629,33.76 37.642,33.936 37.667,34.111 C 37.567,34.4 37.356,34.701 37.281,34.989 H 37.219 C 37.169,35.102 37.119,35.202 37.082,35.327 V 35.352 C 37.082,35.502 37.157,35.754 37.119,35.866 C 37.443,36.192 37.38,36.644 37.38,37.095 C 37.306,37.233 37.231,37.371 37.144,37.521 V 37.534 C 37.157,37.559 37.169,37.571 37.182,37.597 C 37.157,37.647 37.132,37.697 37.119,37.747 C 37.182,37.81 37.182,37.81 37.182,37.885 C 37.157,37.897 37.144,37.91 37.119,37.91 A 0.811,0.811 0 0,1 37.206,38.26 H 37.144 V 38.324 L 37.182,39.101 C 37.206,39.251 37.244,39.401 37.281,39.565 C 37.306,39.69 37.269,39.803 37.219,39.928 C 37.107,40.091 36.982,40.267 36.87,40.442 C 36.684,40.932 36.448,41.382 36.236,41.822 C 36.161,41.972 36.086,42.135 36,42.298 C 36.025,42.736 36.025,42.736 36.112,43.2 C 36.012,43.35 35.925,43.489 35.838,43.652 A 0.362,0.362 0 0,0 35.726,43.677 C 35.576,42.448 35.576,42.448 35.526,42.31 V 42.285 C 35.502,42.273 35.502,42.26 35.489,42.26 C 35.514,41.796 35.552,41.32 35.577,40.856 C 35.714,40.718 35.689,40.304 35.689,40.129 A 4.95,4.95 0 0,1 35.229,38.599 C 35.763,38.399 35.739,37.922 35.776,37.434 C 36.024,36.92 35.526,36.581 35.576,36.067 C 35.726,35.817 35.876,35.553 36.036,35.315 C 36.049,34.951 36.062,34.588 36.062,34.225 C 36.137,34.149 36.099,33.848 36.099,33.723 C 36.124,33.698 36.137,33.698 36.161,33.685 C 36.049,33.095 35.987,32.105 36.323,31.605 C 36.323,31.466 36.223,31.378 36.149,31.265 C 36.124,30.94 36.124,30.626 36.112,30.313 C 35.9,29.887 35.577,29.373 35.714,28.859 C 35.664,28.319 35.9,27.718 35.974,27.179 C 35.701,26.979 35.602,26.615 35.464,26.326 C 35.191,25.988 35.191,25.988 35.179,25.913 C 35.166,25.536 34.929,25.261 35.017,24.91 C 35.042,24.884 35.079,24.847 35.129,24.834 C 35.129,24.596 35.129,24.371 35.141,24.144 C 35.241,23.831 35.328,23.681 35.179,23.368 C 35.116,23.368 34.955,23.104 34.917,23.054 C 34.855,23.004 34.644,22.741 34.805,22.704 C 34.917,22.578 35.85,21.725 35.527,21.512 C 35.291,21.337 35.291,21.174 35.403,20.91 C 35.514,20.56 35.564,20.371 35.453,19.995 C 35.453,19.845 35.577,19.18 35.514,19.08 C 35.514,18.855 35.489,18.767 35.577,18.566 C 35.664,18.428 35.664,18.428 35.677,18.328 C 35.651,18.303 35.614,18.303 35.602,18.29 C 35.465,18.215 35.402,18.177 35.378,18.04 C 35.353,17.99 35.353,17.952 35.34,17.914 C 35.29,17.902 35.253,17.889 35.216,17.889 A 0.63,0.63 0 0,1 35.191,17.739 C 34.818,17.626 34.507,17.488 34.146,17.363 C 34.121,17.375 34.084,17.388 34.071,17.4 C 33.723,17.639 33.101,17.538 32.84,17.2 C 32.64,16.962 32.38,17.062 32.143,17.062 C 31.932,17.062 31.708,17.087 31.496,17.024 C 31.521,16.949 31.807,16.711 32.255,16.222 C 32.554,16.122 32.778,16.109 33.101,16.109 C 33.35,16.059 33.599,15.821 33.822,15.708 C 34.457,15.708 34.706,15.458 34.88,14.805 Z" fill="rgb(1, 254, 2)"/>
<defs>
<linearGradient id="a" x1="10.418" x2="68.147" y1="9.712" y2="76.017" gradientUnits="userSpaceOnUse">
<stop stop-color="rgb(25, 29, 31)" offset="0"/>
<stop stop-color="rgb(5, 5, 8)" offset="1"/>
</linearGradient>
</defs>
</svg>
