<?xml version="1.0" encoding="UTF-8"?>
<!-- generated by Finnhub -->
<svg viewBox="0 0 55.5 55.5" xmlns="http://www.w3.org/2000/svg">
<path d="M 0,0 H 55.5 V 55.5 H 0 Z" fill="url(#a)"/>
<path d="M 18.99,12.985 H 13 V 19 H 19 V 13 Z" fill="rgb(1, 78, 125)"/>
<path d="M 30.99,12.985 H 25 V 19 H 31 V 13 Z" fill="rgb(249, 165, 24)"/>
<path d="M 42.99,12.985 H 37 V 19 H 43 V 13 Z" fill="rgb(141, 23, 25)"/>
<path d="M 18.99,12.985 H 25 V 19 H 19 V 13 Z M 19,19 V 25 H 13 V 19 H 19 Z" fill="rgb(1, 131, 193)"/>
<path d="M 24.99,18.985 H 19 V 25 H 25 V 19 Z" fill="rgb(103, 194, 236)"/>
<path d="M 30.99,18.985 H 25 V 25 H 31 V 19 Z" fill="rgb(244, 127, 30)"/>
<path d="M 30.99,12.985 H 37 V 19 H 31 V 13 Z M 37,19 V 25 H 43 V 19 H 37 Z" fill="rgb(194, 37, 43)"/>
<path d="M 18.99,24.985 H 13 V 31 H 19 V 25 Z" fill="rgb(117, 203, 203)"/>
<path d="M 24.99,24.985 H 19 V 31 H 25 V 25 Z" fill="rgb(1, 178, 192)"/>
<path d="M 36.99,24.985 H 31 V 31 H 37 V 25 Z" fill="rgb(222, 156, 134)"/>
<path d="M 30.99,18.985 H 37 V 25 H 31 V 19 Z M 37,25 H 43 V 31 H 37 V 25 Z" fill="rgb(236, 27, 34)"/>
<path d="M 24.99,24.985 H 31 V 31 H 25 V 25 Z M 31,31 H 37 V 37 H 31 V 31 Z" fill="rgb(225, 192, 149)"/>
<path d="M 18.99,36.985 H 13 V 43 H 19 V 37 Z" fill="rgb(1, 169, 77)"/>
<path d="M 12.99,30.985 H 19 V 37 H 13 V 31 Z M 19,37 H 25 V 43 H 19 V 37 Z" fill="rgb(116, 191, 65)"/>
<path d="M 18.99,30.985 H 25 V 37 H 19 V 31 Z M 25,37 H 31 V 43 H 25 V 37 Z" fill="rgb(195, 216, 43)"/>
<path d="M 36.99,30.985 H 43 V 37 H 37 V 31 Z M 37,37 V 43 H 31 V 37 H 37 Z" fill="rgb(214, 168, 109)"/>
<path d="M 24.99,30.985 H 31 V 37 H 25 V 31 Z M 37,37 H 43 V 43 H 37 V 37 Z" fill="rgb(237, 224, 195)"/>
<defs>
<linearGradient id="a" x1="10.418" x2="68.147" y1="9.712" y2="76.017" gradientUnits="userSpaceOnUse">
<stop stop-color="rgb(25, 29, 31)" offset="0"/>
<stop stop-color="rgb(5, 5, 8)" offset="1"/>
</linearGradient>
</defs>
</svg>
