<?xml version="1.0" encoding="UTF-8"?>
<!-- generated by Finnhub -->
<svg viewBox="0 0 55.5 55.5" xmlns="http://www.w3.org/2000/svg">
<path d="M 0,0 H 55.5 V 55.5 H 0 Z" fill="rgb(29, 88, 172)"/>
<path d="M 36.165,15.986999999999998 C 37.055,16.07 37.915,16.806 38.168,17.646 L 43.31,29.088 C 43.624,29.738 44.164,30.518 43.952,31.393 L 43.666,32.573 L 42.114,38.323 C 41.912,39.172 41.043,39.855 40.218,39.995 L 16.155,40 C 15.389,39.986 14.701,39.693 14.236,39.038 C 13.772,38.272 12.016,31.427 12.016,31.427 C 11.932,30.758 12.199,30.173 12.452,29.615 L 16.794,19.672 L 17.86,17.252 C 18.299,16.462 19.13,16.05 19.97,16 L 36.175,16.002 Z" fill="rgb(254, 254, 253)"/>
<path d="M 27.99,25.985 L 31,18 H 36 L 40,32 H 34 L 33,24 L 30,32 H 26 L 23,24 L 22,32 H 15.997 L 20,18 H 25 L 28,26 Z" fill="rgb(236, 16, 74)"/>
<path d="M 16.99,35.997 L 17.45,33.999 L 18.61,34 L 19.004,38 H 18.104 L 17.902,35.436 C 17.754,36.279 17.593,37.153 17.465,38 H 16.58 L 16.183,35.45 C 16.071,36.29 15.998,37.153 15.903,38 H 15 L 15.493,33.996 L 16.655,33.999 L 17,36.012 Z M 31,35 H 30.215 V 37.999 L 29.329,37.997 L 29.326,35 H 28.528 L 28.532,34.003 H 31 V 35 Z M 32.242,35.598 L 33,35.605 V 34.008 L 34.007,34.005 V 37.998 L 33,38.005 V 36.45 H 32.243 L 32.237,37.997 L 31.295,37.999 L 31.298,34.006 L 32.237,34.004 L 32.242,35.599 Z M 40,36.052 V 34 H 41.008 V 38.003 H 39.708 L 39.018,35.715 V 38.003 H 38 V 34 H 39.464 L 40,36.052 Z" fill="rgb(29, 88, 172)"/>
<path d="M 21.49,37.98 L 22.492,38 L 21.648,33.994 H 20.193 L 19.387,38 L 20.345,37.995 L 20.525,37.003 H 21.336 L 21.499,37.993 Z M 20.64,36.255 H 21.2 L 20.935,34.85 L 20.64,36.256 Z M 27.808,37.995 L 28.795,38 L 27.955,33.994 H 26.51 L 25.708,38 L 26.661,37.995 L 26.84,37.003 H 27.646 L 27.808,37.993 Z M 26.954,36.255 H 27.512 L 27.247,34.85 L 26.954,36.256 Z M 25.59,35.655 C 25.623,35.121 25.563,34.423 25.027,34.136 C 24.479,33.892 23.007,34.019 23.007,34.019 L 23.004,38 H 24.003 V 36.568 H 24.16 L 24.576,38 H 25.561 L 25.073,36.524 V 36.419 C 25.379,36.316 25.533,35.946 25.591,35.655 Z M 24.583,35.791 C 24.66,35.566 24.649,35.247 24.493,35.063 C 24.359,34.969 24.003,35 24.003,35 V 35.996 H 24.359 C 24.473,35.977 24.515,35.899 24.557,35.831 L 24.583,35.791 Z M 37.236,34.306 C 37.647,34.89 37.614,35.704 37.584,36.444 L 37.576,36.641 C 37.543,37.205 37.342,37.847 36.741,38.027 C 36.114,38.189 35.463,38.205 34.935,37.815 C 34.456,37.334 34.472,36.606 34.487,35.91 C 34.49,35.732 34.494,35.556 34.489,35.387 C 34.529,34.895 34.635,34.379 35.088,34.097 C 35.704,33.761 36.678,33.767 37.236,34.306 Z M 36.027,34.733 C 35.695,34.733 35.425,34.987 35.425,35.301 V 36.798 C 35.425,37.112 35.695,37.366 36.027,37.366 C 36.36,37.366 36.629,37.112 36.629,36.798 V 35.301 C 36.629,34.987 36.359,34.733 36.027,34.733 Z" fill="rgb(29, 88, 172)" fill-rule="evenodd"/>
</svg>
