<?xml version="1.0" encoding="UTF-8"?>
<!-- generated by Finnhub -->
<svg viewBox="0 0 55.5 55.5" xmlns="http://www.w3.org/2000/svg">
<path d="M 0,0 H 55.5 V 55.5 H 0 Z" fill="rgb(239, 242, 248)"/>
<rect x="4" y="33" width="7" height="1" rx=".5" fill="rgb(141, 214, 245)"/>
<rect x="12" y="33" width="7" height="1" rx=".5" fill="rgb(108, 205, 242)"/>
<rect x="20" y="33" width="7" height="1" rx=".5" fill="rgb(60, 196, 240)"/>
<rect x="28" y="33" width="7" height="1" rx=".5" fill="rgb(36, 183, 233)"/>
<rect x="36" y="33" width="7" height="1" rx=".5" fill="rgb(39, 179, 231)"/>
<rect x="44" y="33" width="7" height="1" rx=".5" fill="rgb(39, 172, 226)"/>
<path d="M 3.99,23.985 H 4.73 V 25.167 C 4.986,24.806 5.249,24.542 5.518,24.375 A 2.247,2.247 0 0,1 6.69,24.042 C 6.967,24.042 7.23,24.095 7.478,24.203 C 7.728,24.311 7.93,24.455 8.088,24.635 C 8.246,24.812 8.382,25.068 8.498,25.401 C 8.743,24.957 9.049,24.62 9.418,24.391 A 2.181,2.181 0 0,1 10.605,24.041 C 11.001,24.041 11.349,24.141 11.65,24.338 C 11.955,24.536 12.18,24.812 12.328,25.167 C 12.475,25.521 12.548,26.052 12.548,26.76 V 30 H 11.798 V 26.76 C 11.798,26.153 11.754,25.736 11.666,25.51 A 1.126,1.126 0 0,0 11.214,24.958 A 1.341,1.341 0 0,0 10.458,24.75 C 10.1,24.75 9.773,24.854 9.475,25.063 C 9.181,25.271 8.965,25.549 8.829,25.896 C 8.692,26.243 8.73,26.823 8.73,27.636 V 30 H 8 V 26.953 C 8,26.269 7.85,25.806 7.762,25.563 A 1.14,1.14 0 0,0 7.315,24.974 A 1.296,1.296 0 0,0 6.554,24.75 C 6.214,24.75 5.895,24.852 5.597,25.057 A 1.814,1.814 0 0,0 4.941,25.875 C 4.801,26.219 4.731,26.745 4.731,27.453 V 30 H 4 V 24 Z M 16.971,24.042 C 17.851,24.042 18.579,24.358 19.157,24.99 C 19.683,25.566 19.945,26.248 19.945,27.037 C 19.945,27.828 19.667,28.521 19.11,29.115 C 18.557,29.705 17.844,30 16.971,30 C 16.096,30 15.379,29.705 14.822,29.115 C 14.269,28.521 13.992,27.828 13.992,27.037 C 13.992,26.252 14.255,25.571 14.78,24.995 C 15.358,24.359 16.089,24.042 16.971,24.042 Z M 16.971,24.755 A 2.12,2.12 0 0,0 15.401,25.427 A 2.24,2.24 0 0,0 14.744,27.052 C 14.744,27.462 14.844,27.844 15.044,28.198 C 15.243,28.552 15.512,28.826 15.852,29.021 C 16.192,29.211 16.565,29.307 16.972,29.307 C 17.378,29.307 17.751,29.212 18.091,29.021 C 18.431,28.826 18.701,28.552 18.9,28.198 C 19.1,27.844 19.2,27.462 19.2,27.052 A 2.23,2.23 0 0,0 18.537,25.427 C 18.099,24.979 17.577,24.755 16.971,24.755 Z M 27,22 V 30 H 26.275 V 28.88 A 3.14,3.14 0 0,1 25.235,29.719 C 24.853,29.906 24.435,30 23.979,30 C 23.169,30 22.478,29.71 21.903,29.13 C 21.333,28.547 21.047,27.839 21.047,27.005 C 21.047,26.189 21.336,25.491 21.914,24.912 A 2.839,2.839 0 0,1 24,24.042 C 24.47,24.042 24.893,24.141 25.271,24.338 C 25.653,24.536 25.988,24.833 26.275,25.229 V 22 H 27 Z M 24.058,24.745 C 23.648,24.745 23.27,24.845 22.923,25.047 A 2.205,2.205 0 0,0 22.093,25.885 A 2.291,2.291 0 0,0 22.098,28.177 A 2.22,2.22 0 0,0 24.053,29.333 C 24.455,29.333 24.837,29.233 25.198,29.031 C 25.558,28.83 25.835,28.557 26.028,28.214 C 26.224,27.87 26.322,27.483 26.322,27.052 C 26.322,26.396 26.103,25.847 25.666,25.406 C 25.231,24.966 24.696,24.745 24.058,24.745 Z M 33.112,27.974 L 33.732,28.297 A 3.352,3.352 0 0,1 33.028,29.255 A 2.837,2.837 0 0,1 32.13,29.813 C 31.797,29.938 31.42,30 31,30 C 30.068,30 29.34,29.698 28.814,29.094 C 28.289,28.486 28.026,27.8 28.026,27.036 C 28.026,26.318 28.249,25.677 28.693,25.115 C 29.257,24.399 30.013,24.042 30.958,24.042 C 31.932,24.042 32.71,24.408 33.291,25.141 C 33.704,25.658 33.914,26.226 33.921,27 H 28.783 C 28.797,27.66 29.009,28.28 29.419,28.703 C 29.829,29.123 30.334,29.333 30.937,29.333 C 31.227,29.333 31.51,29.283 31.783,29.183 C 32.06,29.082 32.294,28.948 32.487,28.781 C 32.68,28.615 32.888,28.346 33.112,27.974 Z M 33.112,26.37 A 2.028,2.028 0 0,0 32.682,25.516 A 2,2 0 0,0 31.941,24.953 A 2.293,2.293 0 0,0 30.968,24.74 C 30.408,24.74 29.926,24.918 29.524,25.276 C 29.229,25.536 29.007,25.849 28.856,26.37 H 33.112 Z M 35.398,24 H 36.15 V 25.016 C 36.374,24.689 36.61,24.446 36.86,24.286 C 37.108,24.123 37.367,24.042 37.637,24.042 C 37.84,24.042 38.057,24.106 38.288,24.234 L 37.905,24.849 A 1.03,1.03 0 0,0 37.515,24.75 C 37.271,24.75 37.035,24.85 36.807,25.052 C 36.579,25.25 36.406,25.559 36.287,25.979 C 36.195,26.302 36.15,26.955 36.15,27.938 V 30 H 35.398 V 24 Z M 39,24 H 39.736 V 25.203 C 40.03,24.814 40.356,24.524 40.713,24.333 A 2.401,2.401 0 0,1 41.879,24.042 C 42.307,24.042 42.685,24.149 43.014,24.365 C 43.347,24.58 43.592,24.87 43.75,25.235 C 43.907,25.599 43.986,26.167 43.986,26.938 V 30 H 43.256 V 27.151 C 43.256,26.498 43.228,26.063 43.172,25.844 C 43.084,25.469 42.92,25.187 42.678,25 C 42.436,24.809 42.121,24.713 41.732,24.713 C 41.287,24.713 40.888,24.859 40.534,25.151 C 40.184,25.443 39.953,25.804 39.841,26.234 C 39.771,26.516 39.736,27.029 39.736,27.776 V 30 H 39 V 24 Z M 51.022,24 V 30 H 50.297 V 28.88 A 3.139,3.139 0 0,1 49.257,29.719 C 48.874,29.906 48.456,30 48,30 C 47.191,30 46.5,29.71 45.925,29.13 C 45.355,28.547 45.069,27.839 45.069,27.005 C 45.069,26.189 45.358,25.491 45.935,24.912 A 2.84,2.84 0 0,1 48.022,24.042 A 2.7,2.7 0 0,1 49.293,24.338 C 49.675,24.536 50.009,24.833 50.297,25.229 V 24 H 51.022 Z M 48.079,24.745 C 47.669,24.745 47.291,24.845 46.944,25.047 A 2.205,2.205 0 0,0 46.114,25.885 A 2.291,2.291 0 0,0 46.119,28.177 C 46.326,28.542 46.603,28.827 46.949,29.031 C 47.299,29.233 47.675,29.333 48.074,29.333 C 48.477,29.333 48.859,29.233 49.219,29.031 C 49.58,28.83 49.857,28.557 50.049,28.214 C 50.246,27.87 50.344,27.483 50.344,27.052 C 50.344,26.396 50.125,25.847 49.687,25.406 C 49.253,24.966 48.717,24.745 48.079,24.745 Z" fill="rgb(226, 28, 54)"/>
</svg>
