<?xml version="1.0" encoding="UTF-8"?>
<!-- generated by Finnhub -->
<svg viewBox="0 0 55.5 55.5" xmlns="http://www.w3.org/2000/svg">
<path d="M 0,0 H 55.5 V 55.5 H 0 Z" fill="rgb(239, 242, 248)"/>
<path d="M 37.99,38.985 L 28,33.25 L 38,27.501 V 39 Z" fill="rgb(151, 212, 231)"/>
<path d="M 17.99,38.985 L 8,33.25 L 18,27.501 V 39 Z" fill="rgb(1, 100, 158)"/>
<path d="M 27.99,33.235 L 38,27.5 V 16 L 18,27.501 L 28,33.251 Z" fill="rgb(1, 166, 204)"/>
<path d="M 47.99,33.235 L 38,27.5 L 48,21.751 V 33.251 Z" fill="rgb(1, 100, 158)"/>
<path d="M 37.99,38.985 L 48,33.25 L 38,27.501 V 39 Z M 18,16.001 L 8,21.751 V 33.25 L 18,27.5 V 16 Z" fill="rgb(1, 166, 204)"/>
<path d="M 17.99,27.485 L 28,21.75 L 18,16.001 V 27.501 Z" fill="rgb(1, 44, 113)"/>
<path d="M 17.99,38.985 L 28,33.25 L 18,27.501 V 39 Z" fill="rgb(151, 212, 231)"/>
<path d="M 37.99,27.485 L 48,21.75 L 38,16.001 V 27.501 Z" fill="rgb(1, 44, 113)"/>
</svg>
