<?xml version="1.0" encoding="UTF-8"?>
<!-- generated by Finnhub -->
<svg viewBox="0 0 55.5 55.5" xmlns="http://www.w3.org/2000/svg">
<path d="M 0,0 H 55.5 V 55.5 H 0 Z" fill="url(#a)"/>
<path d="M 40.99,14.985 L 44,12 V 44 L 41,41 V 15 Z M 15,15 L 12,12 V 44 L 15,41 V 15 Z M 37,19 L 40,16 H 16 L 19,19 H 37 Z M 37,37 L 40,40 H 16 L 19,37 H 37 Z M 33,23 L 36,20 V 36 L 33,33 V 23 Z M 23,23 L 20,20 V 36 L 23,33 V 23 Z M 28,28 L 32,24 H 24 L 28,28 Z" fill="rgb(254, 254, 253)"/>
<defs>
<linearGradient id="a" x1="10.418" x2="68.147" y1="9.712" y2="76.017" gradientUnits="userSpaceOnUse">
<stop stop-color="rgb(25, 29, 31)" offset="0"/>
<stop stop-color="rgb(5, 5, 8)" offset="1"/>
</linearGradient>
</defs>
</svg>
