<?xml version="1.0" encoding="UTF-8"?>
<!-- generated by Finnhub -->
<svg viewBox="0 0 55.5 55.5" xmlns="http://www.w3.org/2000/svg">
<path d="M 0,0 H 55.5 V 55.5 H 0 Z" fill="url(#a)"/>
<path d="M 39.1,15.985 C 37.136,16 35.282,16.608 34.017,17.702 C 32.787,18.77 32.107,20.242 32.107,21.835 C 32.107,23.59 32.829,24.959 34.335,26.038 C 35.662,26.99 37.418,27.605 39.109,28.192 C 42.049,29.218 45.171,30.98 45.171,33.601 C 45.171,34.767 44.767,35.765 44.004,36.449 A 5.399,5.399 0 0,1 40.347,37.837 C 37.549,37.837 35.527,36.039 34.384,33.079 L 31.873,33.739 C 32.413,34.939 33.333,36.671 34.667,37.837 C 36.128,39.125 37.928,40.025 40.205,40.025 C 42.9,40.025 44.961,39.065 46.302,37.698 C 47.692,36.276 48,34.456 48,33.183 C 48,31.36 46.848,29.128 45.263,28.017 C 43.88,27.043 42.089,26.415 40.347,25.829 C 37.508,24.876 34.799,23.969 34.83,21.627 C 34.84,20.535 35.225,19.685 35.926,19.092 C 36.64,18.489 37.728,18.189 39.038,18.189 C 40.413,18.189 41.568,18.567 42.504,19.3 C 43.363,19.968 43.988,20.96 44.272,22.079 L 46.712,21.766 C 45.642,18.181 43.097,16 39.11,16 Z M 8,16 L 8,40 H 11 V 17.91 V 17.98 L 16.912,40 H 18.928 L 25,17.98 V 17.91 V 40 H 28 V 16 H 23.492 L 17.938,35.624 V 35.694 L 17.902,35.624 L 12.351,16 H 8 Z" fill="rgb(254, 254, 253)"/>
<defs>
<linearGradient id="a" x1="10.418" x2="68.147" y1="9.712" y2="76.017" gradientUnits="userSpaceOnUse">
<stop stop-color="rgb(25, 29, 31)" offset="0"/>
<stop stop-color="rgb(5, 5, 8)" offset="1"/>
</linearGradient>
</defs>
</svg>
