<?xml version="1.0" encoding="UTF-8"?>
<!-- generated by Finnhub -->
<svg fill="none" viewBox="0 0 55.5 55.5" xmlns="http://www.w3.org/2000/svg">
<path d="M 0,0 H 55.5 V 55.5 H 0 Z" fill="rgb(25, 36, 169)"/>
<circle cx="28" cy="28" r="15.5" stroke="rgb(254, 254, 253)"/>
<path d="M 12.697000000000001,27.985 L 28,12.707 L 43.292,28 L 28,43.293 Z M 17.082,17.112 L 39.012,39.042 M 27.946,12.581 V 43.137 M 27.946,12.581 V 43.137 M 12.668,27.859 H 43.224 M 39.012,17.112 L 17.082,39.042 M 14.193,35.5 H 41.703 M 14.193,20.5 H 42.193" stroke="rgb(254, 254, 253)"/>
<circle cx="28" cy="28" r="2" fill="rgb(254, 254, 253)"/>
<circle cx="20.211" cy="35.524" r="1.625" fill="rgb(254, 254, 253)"/>
<circle cx="14" cy="35.5" r="1.447" fill="rgb(254, 254, 253)"/>
<circle cx="17" cy="17" r="1.303" fill="rgb(254, 254, 253)"/>
<circle cx="27.946" cy="43.471" r="1.696" fill="rgb(254, 254, 253)"/>
<circle cx="43.56" cy="27.859" r="1.207" fill="rgb(254, 254, 253)"/>
<circle cx="41.624" cy="20.5" r="1" fill="rgb(254, 254, 253)"/>
<circle cx="20.26" cy="20.5" r="1.555" fill="rgb(254, 254, 253)"/>
<circle cx="27.946" cy="35.5" r="1.257" fill="rgb(254, 254, 253)"/>
<circle cx="20.26" cy="14.5" r="1.211" fill="rgb(254, 254, 253)"/>
<circle cx="14.25" cy="20.5" r="1.447" fill="rgb(254, 254, 253)"/>
<circle cx="36" cy="41.471" r="1.471" fill="rgb(254, 254, 253)"/>
<circle cx="36.028" cy="14.5" r="1.5" fill="rgb(254, 254, 253)"/>
<circle cx="36" cy="27.859" r="1" fill="rgb(254, 254, 253)"/>
</svg>
