<?xml version="1.0" encoding="UTF-8"?>
<!-- generated by Finnhub -->
<svg viewBox="0 0 55.5 55.5" xmlns="http://www.w3.org/2000/svg">
<path d="M 0,0 H 55.5 V 55.5 H 0 Z" fill="url(#a)"/>
<path d="M 27.945999999999998,34.278999999999996 L 21.426,13 L 13,41 H 14.588 S 15.651,35.536 17.368,32.683 C 18.326,31.171 19.782,29.936 21.735,29.983 C 23.095,30.002 24.265,30.68 25.75,32.726 C 26.655,33.959 28,37.081 28,37.081 S 29.343,33.959 30.25,32.726 C 31.708,30.68 32.925,30.002 34.309,29.983 C 36.252,29.936 37.69,31.171 38.632,32.683 C 40.355,35.536 41.412,41 41.412,41 H 43 L 34.574,13 L 28.044,34.294 L 28,34.337 L 27.956,34.294 Z" fill="rgb(254, 254, 253)"/>
<defs>
<linearGradient id="a" x1="10.418" x2="68.147" y1="9.712" y2="76.017" gradientUnits="userSpaceOnUse">
<stop stop-color="rgb(25, 29, 31)" offset="0"/>
<stop stop-color="rgb(5, 5, 8)" offset="1"/>
</linearGradient>
</defs>
</svg>
