<?xml version="1.0" encoding="UTF-8"?>
<!-- generated by Finnhub -->
<svg viewBox="0 0 55.5 55.5" xmlns="http://www.w3.org/2000/svg">
<path d="M 0,0 H 55.5 V 55.5 H 0 Z" fill="rgb(216, 34, 44)"/>
<path d="M 12.575000000000001,25.729 L 13.463,25.582 L 12.731,25.432 L 13.121,24.994 L 12.438,25.155 L 12.56,24.52 L 12.097,24.82 L 11.877,24.001 L 11.682,24.936 L 11.122,24.52 L 11.304,25.086 L 10.768,24.994 L 11.231,25.455 L 10.463,25.605 L 11.243,25.767 L 10.926,26.101 L 11.414,26.067 L 11.194,26.69 L 11.731,26.17 L 11.89,27.001 L 12.06,26.171 L 12.475,26.586 L 12.426,26.066 L 13.024,26.263 L 12.584,25.743 Z M 12.28,25.524 C 12.28,25.721 12.121,25.87 11.914,25.87 S 11.548,25.72 11.548,25.524 C 11.548,25.328 11.707,25.178 11.914,25.178 S 12.28,25.328 12.28,25.524 Z M 8.244,25.501 L 7.53,28.393 L 6.766,25.501 H 4.833 L 4,31 H 5.814 L 6.082,28 L 7,31 H 8 L 8.928,28 L 9.186,31 H 11 L 10.147,25.501 H 8.244 Z" fill="rgb(254, 254, 253)"/>
<path d="M 12.713000000000001,28.412 V 27 H 11 V 31 H 12.714 V 29.646 C 12.943,30.531 13.65,31 14.587,31 C 14.883,31 15.179,30.917 15.447,30.823 L 15.524,29.25 C 15.323,29.406 15.132,29.542 14.864,29.542 C 14.587,29.542 14.357,29.302 14.357,28.99 C 14.357,28.646 14.577,28.417 14.893,28.417 C 15.141,28.417 15.342,28.573 15.523,28.729 V 27.198 A 3.192,3.192 0 0,0 14.453,27 C 13.603,27 12.933,27.594 12.723,28.427 Z M 50.163,27 L 49.371,29 L 49.136,27 H 45.667 L 45.637,27.58 H 45.589 C 45.413,27.175 45.09,27 44.631,27 C 43.761,27 43.116,27.746 42.871,28.578 C 42.783,27.59 42.011,27 40.965,27 C 40.183,27 39.441,27.393 39.001,28.037 L 39.138,27 H 38.551 L 38.737,25.876 H 36.977 L 36.783,27 H 34.795 L 34.701,27.57 H 34.662 A 1.045,1.045 0 0,0 33.694,27 C 32.844,27 32.219,27.757 31.954,28.567 L 32.18,27 C 31.593,26.99 31.26,27.154 30.88,27.653 H 30.84 L 30.958,27 H 28.62 L 28.806,26 H 27.046 L 26.886,27 H 26.422 L 26.255,28.308 C 26.079,27.923 25.707,27.705 25.218,27.59 L 24.818,27.486 C 24.681,27.456 24.456,27.424 24.486,27.216 C 24.515,26.998 24.769,26.926 24.926,26.926 C 25.326,26.926 25.658,27.102 25.942,27.331 L 26.645,25.948 A 2.587,2.587 0 0,0 25.101,25.47 C 23.997,25.47 22.785,26.187 22.589,27.476 C 22.462,28.328 22.999,28.776 23.703,28.91 L 24.065,28.983 C 24.231,29.014 24.465,29.046 24.437,29.285 C 24.397,29.524 24.095,29.607 23.919,29.607 C 23.489,29.607 23.127,29.389 22.834,29.107 C 22.834,29.107 22.794,29.067 22.736,29.004 C 22.706,27.704 21.729,27 20.566,27 C 19.794,27 19.11,27.32 18.719,27.902 V 27 C 18.132,26.99 17.809,27.112 17.507,27.611 H 17.467 V 27.001 H 15.767 V 31.001 H 17.507 V 29.451 C 17.507,28.973 17.741,28.692 18.191,28.692 C 18.279,28.692 18.347,28.713 18.416,28.734 C 18.406,28.838 18.396,28.942 18.396,29.056 C 18.396,30.324 19.452,31 20.576,31 C 21.094,31 21.602,30.854 21.993,30.563 C 22.521,30.864 23.225,31 23.86,31 C 24.964,31 26.167,30.407 26.362,29.118 C 26.392,28.91 26.392,28.734 26.362,28.578 L 26.665,28.558 L 26.285,31 H 28.045 L 28.396,28.557 L 28.983,28.599 L 28.63,31 H 30.37 L 30.584,29.482 C 30.653,29.004 30.926,28.723 31.376,28.723 C 31.581,28.723 31.699,28.807 31.846,28.91 C 31.836,28.952 31.826,28.994 31.826,29.035 C 31.689,29.96 32.07,31 33.047,31 C 33.537,31 33.859,30.781 34.23,30.418 H 34.27 L 34.142,31 H 35.852 L 36.204,28.567 H 36.574 L 36.225,31 H 37.985 L 38.328,28.567 H 38.718 A 2.634,2.634 0 0,0 38.59,29.067 C 38.395,30.387 39.333,31 40.467,31 C 41.287,31 42.324,30.573 42.686,29.659 H 40.985 C 40.926,29.836 40.77,29.971 40.585,29.971 C 40.223,29.971 40.223,29.628 40.271,29.316 H 42.754 C 42.754,30.147 43.174,30.926 44.024,30.926 C 44.435,30.926 44.934,30.709 45.168,30.293 H 45.218 L 45.129,30.677 C 45.022,31.155 44.601,31.813 44.132,31.813 C 43.702,31.813 43.232,31.647 42.94,31.345 L 42.363,32.634 L 42.529,32.696 A 3.75,3.75 0 0,0 44.025,32.998 C 45.667,32.998 46.5,32.22 46.81,30.615 L 47.318,27.227 L 48.276,30.459 L 47.001,32.998 H 48.839 L 52,27 H 50.163 Z M 20.636,29.565 C 20.362,29.565 20.146,29.347 20.146,29.045 C 20.146,28.734 20.342,28.485 20.636,28.485 C 20.929,28.485 21.124,28.734 21.124,29.045 C 21.124,29.347 20.909,29.565 20.636,29.565 Z M 34.486,28.983 C 34.446,29.274 34.26,29.555 33.938,29.555 C 33.625,29.555 33.528,29.295 33.566,28.994 C 33.606,28.713 33.821,28.474 34.094,28.474 C 34.368,28.474 34.524,28.682 34.485,28.984 Z M 41.229,28.526 V 28.546 H 40.359 V 28.516 C 40.399,28.235 40.555,28.048 40.76,28.006 C 40.79,27.996 40.819,27.996 40.848,27.996 A 0.36,0.36 0 0,1 41.132,28.131 A 0.46,0.46 0 0,1 41.229,28.526 Z M 45.432,28.942 C 45.393,29.232 45.207,29.472 44.914,29.472 C 44.611,29.472 44.454,29.243 44.504,28.932 C 44.552,28.63 44.777,28.38 45.061,28.38 C 45.354,28.39 45.471,28.661 45.432,28.942 Z" fill="rgb(254, 254, 253)"/>
</svg>
