<?xml version="1.0" encoding="UTF-8"?>
<!-- generated by Finnhub -->
<svg viewBox="0 0 55.5 55.5" xmlns="http://www.w3.org/2000/svg">
<path d="M 0,0 H 55.5 V 55.5 H 0 Z" fill="rgb(243, 124, 46)"/>
<path d="M 45.518,32.574 C 45.11,32.589 44.683,32.436 44.44,32.309 C 39.5,29.727 33.895,28.2 28.452,28.2 C 27.77,28.2 27.264,28.227 26.629,28.292 C 27.656,29.929 29.425,32.312 30.636,33.773 C 30.952,34.153 31.044,34.381 31.044,34.747 C 31.044,35.383 30.377,36 29.667,36 C 29.193,36 28.909,35.812 28.471,35.295 C 26.995,33.557 24.779,30.477 23.73,28.729 C 18.564,29.646 12.805,32.709 9.402,35.413 C 9.012,35.727 8.742,35.855 8.352,35.855 C 7.629,35.855 7,35.23 7,34.515 C 7,34.103 7.152,33.792 7.683,33.347 C 12.877,29.008 20.943,25.581 27.793,25.581 C 30.509,25.581 33.129,25.959 35.663,26.581 C 37.201,26.959 39.482,27.726 41.425,28.576 C 36.331,25.487 29.947,22.665 25.91,22.665 C 24.88,22.665 24.25,23.011 24.25,23.707 C 24.25,24.117 24.477,24.666 24.818,25.217 C 24.009,25.299 22.945,25.464 22.14,25.68 C 21.719,24.906 21.426,24.08 21.426,23.192 C 21.426,21.216 22.709,20 25.292,20 C 31.144,20 40.978,25.474 45.885,29.474 C 46.447,29.932 47,30.5 47,31.165 C 47,31.825 46.432,32.589 45.528,32.589 Z" fill="rgb(254, 254, 253)"/>
</svg>
