<?xml version="1.0" encoding="UTF-8"?>
<!-- generated by Finnhub -->
<svg viewBox="0 0 55.5 55.5" xmlns="http://www.w3.org/2000/svg">
<path d="M 0,0 H 55.5 V 55.5 H 0 Z" fill="rgb(5, 132, 100)"/>
<path d="M 20.173,13.135 A 0.5,0.5 0 0,1 21.109,13.127 L 26.839,26.3 A 0.5,0.5 0 0,1 26.38,27 H 23.328 A 0.5,0.5 0 0,1 22.869,26.699 L 21.338,23.161 A 0.5,0.5 0 0,0 20.409,23.188 L 15.966,35.328 A 0.5,0.5 0 0,0 16.436,36 H 25.5 A 0.5,0.5 0 0,0 26,35.5 V 33.5 A 0.5,0.5 0 0,0 25.5,33 H 20.118 A 0.5,0.5 0 0,1 19.643,32.346 L 20.617,29.346 A 0.5,0.5 0 0,1 21.093,29 H 35.208 A 0.5,0.5 0 0,1 35.686,29.354 L 36.599,32.354 A 0.5,0.5 0 0,1 36.12,33 H 30.5 A 0.5,0.5 0 0,0 30,33.5 V 35.5 A 0.5,0.5 0 0,0 30.5,36 H 39.64 A 0.5,0.5 0 0,0 40.112,35.333 L 35.77,23.047 A 0.5,0.5 0 0,0 34.844,23.003 L 33.134,26.709 A 0.5,0.5 0 0,1 32.68,27 H 29.59 A 0.5,0.5 0 0,1 29.137,26.287 L 35.287,13.21 A 0.5,0.5 0 0,1 36.208,13.25 L 45.754,39.328 A 0.5,0.5 0 0,1 45.284,40 H 10.724 A 0.5,0.5 0 0,1 10.257,39.323 L 20.183,13.149 Z" fill="rgb(254, 254, 253)"/>
</svg>
