<?xml version="1.0" encoding="UTF-8"?>
<!-- generated by Finnhub -->
<svg viewBox="0 0 55.5 55.5" xmlns="http://www.w3.org/2000/svg">
<path d="M 0,0 H 55.5 V 55.5 H 0 Z" fill="rgb(33, 141, 203)"/>
<path d="M 3.99,25.985 H 5.004 V 26.933 C 5.354,26.318 5.728,25.995 6.363,25.995 C 6.997,25.995 7.478,26.279 7.748,26.909 C 7.806,26.909 7.814,26.862 7.835,26.831 C 8.164,26.287 8.637,26.027 9.235,26.003 C 9.622,25.987 9.986,26.066 10.315,26.318 C 10.701,26.618 10.891,27.051 10.964,27.548 C 10.985,27.721 11,27.895 11,28.076 C 11,28.341 11.003,31 11,31 H 10.001 C 9.998,31 10.001,28.588 10.001,28.352 C 10.001,27.876 9.969,27.037 9.425,26.862 C 8.944,26.712 8.492,26.87 8.222,27.28 C 8.003,27.61 8.007,27.997 8,28.391 V 31 H 6.996 V 28.084 A 2.37,2.37 0 0,0 6.93,27.484 C 6.814,27.059 6.589,26.823 6.18,26.807 C 5.272,26.764 4.986,27.704 5.004,28.439 V 31 H 4 V 26 Z" fill="rgb(254, 254, 253)"/>
<path d="M 47.845,27.406 A 0.311,0.311 0 0,0 47.834,27.468 H 47.834 L 47.819,27.5 V 27.495 C 47.819,27.479 47.819,27.463 47.821,27.446 H 47.821 L 47.823,27.392 V 26.594 A 0.273,0.273 0 0,0 47.793,26.458 A 0.132,0.132 0 0,0 47.739,26.406 A 0.15,0.15 0 0,0 47.657,26.392 C 47.607,26.396 47.56,26.41 47.528,26.45 A 0.262,0.262 0 0,0 47.485,26.598 H 47.485 V 33.31 A 0.177,0.177 0 0,0 47.5,33.374 A 0.133,0.133 0 0,0 47.556,33.434 A 0.22,0.22 0 0,0 47.653,33.46 H 47.656 A 0.15,0.15 0 0,0 47.764,33.424 C 47.8,33.39 47.815,33.336 47.815,33.263 V 30.079 A 0.96,0.96 0 0,0 47.819,29.999 L 47.833,30.024 C 47.916,30.194 48.015,30.35 48.145,30.484 C 48.466,30.827 48.825,31.052 49.215,31.157 C 49.605,31.262 50.023,31.248 50.461,31.121 H 50.461 C 51.321,30.864 51.821,30.24 52.011,29.359 C 52.144,28.95 52.111,28.357 51.981,27.956 C 51.647,26.675 50.468,26.045 49.307,26.301 H 49.307 C 48.661,26.449 48.174,26.831 47.855,27.421 Z M 47.855,27.421 S 47.855,27.421 47.855,27.421 L 47.899,27.445 M 47.855,27.421 S 47.855,27.421 47.855,27.421 L 47.899,27.445 M 47.899,27.445 C 48.211,26.867 48.687,26.495 49.319,26.35 L 47.83,27.57 C 47.855,27.547 47.867,27.517 47.88,27.488 A 0.436,0.436 0 0,1 47.9,27.445 Z M 47.852,29.118 H 47.852 A 2.374,2.374 0 0,1 48.357,27.268 C 48.763,26.778 49.374,26.485 50.098,26.59 C 51.2,26.75 51.757,27.786 51.757,28.828 C 51.722,30.022 50.84,31.038 49.598,30.908 H 49.598 C 48.652,30.813 47.99,30.036 47.852,29.118 Z" fill="rgb(254, 254, 253)" stroke="rgb(254, 254, 253)" stroke-width=".1"/>
<path d="M 25.99,26.939999999999998 C 26.132,26.592 26.65,26.206 27.242,26.172 C 27.669,26.149 28.066,26.24 28.413,26.537 C 28.91,26.967 29,27.579 29,28.195 V 31 H 28 V 28.415 S 28.073,27.148 27.401,26.993 C 26.498,26.785 26,27.68 26,28.46 V 31 H 25 V 24 H 26 V 26.955 Z M 15.11,30.365 C 15.064,30.365 15.048,30.404 15.025,30.435 C 14.594,30.98 14.016,31.177 13.354,31.137 A 1.964,1.964 0 0,1 12.537,30.924 C 11.751,30.522 11.636,29.679 11.882,29.032 C 11.967,28.803 12.144,28.638 12.345,28.504 C 12.691,28.259 13.076,28.157 13.485,28.086 C 13.962,28.007 14.44,28.012 14.917,27.996 C 15.095,27.988 15.095,27.988 15.087,27.815 C 15.079,27.239 14.733,26.855 14.139,26.793 C 13.585,26.738 12.986,26.973 12.555,27.336 L 12.051,26.731 S 12.283,26.532 12.368,26.469 C 12.892,26.122 13.469,25.98 14.085,25.996 C 14.293,26.004 14.501,26.028 14.709,26.083 C 15.449,26.288 15.927,26.872 15.989,27.66 C 16.004,27.81 16.004,27.96 16.004,28.11 C 16.004,28.11 16.01,31.011 16,31.011 H 15.11 V 30.365 Z M 14.632,28.685 C 14.294,28.701 13.939,28.717 13.592,28.803 A 1.44,1.44 0 0,0 12.976,29.095 A 0.551,0.551 0 0,0 12.776,29.403 A 0.712,0.712 0 0,0 13.276,30.309 C 13.516,30.38 13.762,30.38 14.008,30.349 C 14.317,30.309 14.578,30.167 14.778,29.915 C 15.041,29.584 15.11,29.19 15.095,28.78 C 15.095,28.717 15.064,28.693 15.002,28.693 C 14.879,28.685 14.763,28.685 14.632,28.685 Z M 24.37,26.957 C 24.372,26.96 23.698,27.496 23.698,27.496 C 23.156,26.796 21.746,26.75 21.278,27.913 C 21.063,28.461 21.078,29.008 21.338,29.54 C 21.828,30.544 23.185,30.464 23.765,29.848 C 23.899,29.974 24.372,30.425 24.37,30.426 C 24.147,30.662 23.797,30.924 23.492,31.023 C 22.213,31.423 20.732,30.88 20.305,29.548 C 19.835,28.122 20.581,26.567 22.088,26.232 C 22.9,26.016 23.828,26.328 24.37,26.957 Z M 19.566,30.176 V 30.946 C 19.238,31.129 18.516,31.118 18.167,30.986 C 17.624,30.783 17.439,30.209 17.439,29.676 L 17.432,27 H 16.548 V 26.243 L 17.432,26.236 V 25 L 18.338,24.998 V 26.243 H 19.564 V 27 H 18.338 V 29.548 C 18.338,29.854 18.4,30.209 18.747,30.294 C 19.019,30.364 19.321,30.308 19.567,30.176 Z" fill="rgb(254, 254, 253)"/>
<path d="M 33.916000000000004,29.999 H 33.926 C 33.696,30.408 33.409,30.704 33.066,30.896 A 2.18,2.18 0 0,1 31.882,31.156 C 30.994,31.125 30.316,30.696 29.944,29.864 H 29.944 C 29.506,28.875 29.581,27.898 30.247,27.03 C 31.153,25.838 33.067,25.964 33.843,27.247 C 33.88,27.307 33.916,27.369 33.953,27.432 A 0.335,0.335 0 0,1 33.951,27.402 V 27.402 V 26.527 C 33.951,26.497 33.952,26.469 33.956,26.447 A 0.116,0.116 0 0,1 33.989,26.38 A 0.121,0.121 0 0,1 34.057,26.352 A 0.578,0.578 0 0,1 34.135,26.348 C 34.175,26.348 34.215,26.357 34.244,26.387 C 34.273,26.417 34.281,26.457 34.281,26.497 V 30.749 C 34.281,31.254 34.221,31.756 34.025,32.228 C 33.705,33.022 33.012,33.498 32.166,33.498 C 31.817,33.498 31.461,33.491 31.11,33.374 H 31.11 A 2.478,2.478 0 0,1 30.087,32.722 A 0.18,0.18 0 0,1 30.157,32.421 A 0.088,0.088 0 0,1 30.211,32.417 A 0.094,0.094 0 0,1 30.251,32.436 A 0.25,0.25 0 0,1 30.303,32.488 L 30.315,32.501 L 30.279,32.536 M 33.926,30.014 L 32.586,33.126 C 31.724,33.32 30.955,33.141 30.315,32.501 L 30.279,32.536 M 33.926,30.014 L 33.927,30.01 M 33.926,30.014 L 33.927,30.01 M 30.279,32.536 C 30.933,33.19 31.72,33.372 32.597,33.175 L 30.22,32.475 A 0.26,0.26 0 0,1 30.264,32.519 L 30.279,32.536 Z M 33.927,30.01 A 0.335,0.335 0 0,0 33.937,29.99 M 33.927,30.01 L 33.937,29.99 M 33.937,29.99 V 30.2 V 29.99 Z M 33.608,32.322 C 33.833,31.913 33.907,31.458 33.928,30.99 L 33.608,32.322 Z M 33.608,32.322 C 33.376,32.737 33.038,33.023 32.586,33.126 L 33.608,32.322 Z M 30.265,29.785 H 30.265 C 29.893,28.993 29.915,28.196 30.352,27.443 C 30.967,26.384 32.363,26.191 33.262,27.013 C 33.71,27.428 33.966,28.037 33.966,28.87 C 33.951,29.388 33.712,29.975 33.196,30.422 H 33.196 C 32.334,31.171 30.836,31.006 30.265,29.785 Z M 37.674,28.944 H 37.674 C 37.762,30.113 38.589,30.831 39.522,30.897 H 39.522 C 40.252,30.95 40.866,30.734 41.33,30.148 L 37.674,28.944 Z M 37.674,28.944 V 28.942 M 37.674,28.944 V 28.942 M 37.674,28.942 A 1.131,1.131 0 0,1 37.673,28.795 L 37.674,28.711 C 37.674,28.151 37.82,27.638 38.182,27.216 C 38.682,26.653 39.325,26.474 40.047,26.571 C 41.024,26.704 41.714,27.466 41.779,28.54 H 41.779 M 37.674,28.942 L 41.779,28.54 M 41.779,28.54 C 41.823,29.131 41.699,29.68 41.329,30.148 L 41.779,28.54 Z M 42.124,28.743 H 42.124 V 28.739 A 8.218,8.218 0 0,1 42.12,28.639 C 42.116,28.532 42.112,28.425 42.094,28.323 C 41.965,27.433 41.51,26.779 40.682,26.437 H 40.682 A 2.461,2.461 0 0,0 38.832,26.414 C 38.134,26.67 37.67,27.185 37.45,27.914 H 37.45 A 2.969,2.969 0 0,0 37.42,29.414 H 37.42 A 2.3,2.3 0 0,0 37.944,30.448 H 37.944 C 38.544,31.11 39.304,31.303 40.15,31.179 H 40.15 A 2.187,2.187 0 0,0 41.814,30.013 H 41.814 A 2.74,2.74 0 0,0 42.124,28.743 Z M 45.806,30.554 A 3.149,3.149 0 0,0 46.087,30.134 L 46.086,30.286 C 46.085,30.476 46.085,30.702 46.09,30.848 V 30.851 L 46.091,30.904 C 46.093,30.922 46.098,30.944 46.111,30.964 C 46.139,31.008 46.191,31.019 46.25,31.019 C 46.288,31.019 46.32,31.009 46.344,30.99 A 0.155,0.155 0 0,0 46.394,30.929 A 0.21,0.21 0 0,0 46.412,30.856 V 30.848 H 46.412 V 30.848 L 46.442,26.636 V 26.636 V 26.633 C 46.442,26.602 46.442,26.55 46.427,26.504 A 0.134,0.134 0 0,0 46.293,26.403 A 0.185,0.185 0 0,0 46.195,26.427 A 0.142,0.142 0 0,0 46.139,26.494 A 0.374,0.374 0 0,0 46.119,26.638 V 28.69 C 46.119,29.066 46.075,29.432 45.93,29.773 H 45.93 L 45.768,30.523 M 45.806,30.555 S 45.806,30.555 45.806,30.555 L 45.768,30.523 M 45.806,30.555 S 45.806,30.555 45.806,30.555 L 45.768,30.523 M 45.806,30.555 A 1.866,1.866 0 0,1 43.768,31.102 M 45.768,30.522 C 45.248,31.138 44.431,31.282 43.784,31.055 M 43.768,31.102 S 43.768,31.102 43.768,31.102 L 43.784,31.055 M 43.768,31.102 S 43.768,31.102 43.768,31.102 L 43.784,31.055 M 43.768,31.102 L 43.784,31.055 M 42.731,26.562 V 26.564 L 42.781,26.56 H 42.731 V 26.562 Z M 44.617,30.876 L 44.624,30.926 L 44.617,30.876 S 44.617,30.876 44.617,30.876 Z M 35.7,26.559 V 26.508 A 0.201,0.201 0 0,0 35.689,26.443 A 0.12,0.12 0 0,0 35.638,26.38 A 0.177,0.177 0 0,0 35.545,26.358 A 0.153,0.153 0 0,0 35.442,26.394 A 0.162,0.162 0 0,0 35.395,26.469 A 0.254,0.254 0 0,0 35.384,26.556 V 26.562 H 35.384 L 35.389,29.267 L 35.391,30.43 V 30.907 H 35.391 C 35.388,30.964 35.4,31.013 35.443,31.041 C 35.462,31.054 35.483,31.06 35.503,31.063 A 0.53,0.53 0 0,0 35.56,31.066 C 35.6,31.066 35.644,31.061 35.677,31.031 C 35.711,31 35.718,30.954 35.715,30.907 V 28.651 C 35.715,28.336 35.758,28.037 35.846,27.745 C 36.058,27.057 36.556,26.506 37.294,26.548 A 0.13,0.13 0 0,0 37.392,26.53 C 37.426,26.505 37.438,26.465 37.438,26.423 A 0.23,0.23 0 0,0 37.418,26.316 A 0.115,0.115 0 0,0 37.371,26.268 A 0.15,0.15 0 0,0 37.299,26.251 H 37.299 H 37.298 H 37.298 H 37.297 H 37.297 H 37.296 H 37.296 H 37.295 H 37.295 H 37.294 H 37.294 H 37.293 H 37.293 H 37.292 H 37.292 H 37.291 H 37.291 H 37.29 H 37.29 H 37.289 H 37.289 H 37.288 H 37.288 H 37.287 H 37.287 H 37.286 H 37.286 H 37.285 H 37.285 H 37.284 H 37.284 H 37.283 H 37.283 H 37.282 H 37.282 H 37.281 H 37.281 H 37.28 H 37.28 H 37.279 H 37.279 H 37.278 H 37.278 H 37.277 H 37.277 H 37.276 H 37.276 H 37.275 H 37.275 H 37.274 H 37.274 H 37.273 H 37.273 H 37.272 H 37.272 H 37.271 H 37.271 H 37.27 H 37.27 H 37.269 H 37.269 H 37.268 H 37.268 H 37.267 H 37.267 H 37.266 H 37.266 H 37.265 H 37.265 H 37.264 H 37.264 H 37.263 H 37.263 H 37.262 H 37.262 H 37.261 H 37.261 H 37.26 H 37.26 H 37.259 H 37.259 H 37.258 H 37.258 H 37.257 H 37.257 H 37.256 H 37.256 H 37.255 H 37.255 H 37.254 H 37.254 H 37.253 H 37.253 H 37.252 H 37.252 H 37.251 H 37.251 H 37.25 H 37.25 H 37.249 H 37.249 H 37.248 H 37.248 H 37.247 H 37.247 H 37.246 H 37.246 H 37.245 H 37.245 H 37.244 H 37.244 H 37.243 H 37.243 H 37.242 H 37.242 H 37.241 H 37.241 H 37.24 H 37.24 H 37.239 H 37.239 H 37.238 H 37.238 H 37.237 H 37.237 H 37.236 H 37.236 H 37.235 H 37.235 H 37.234 H 37.234 H 37.233 H 37.233 H 37.232 H 37.232 H 37.231 H 37.231 H 37.23 H 37.23 H 37.229 H 37.229 H 37.228 H 37.228 H 37.227 H 37.227 H 37.226 H 37.226 H 37.225 H 37.225 V 26.251 H 37.223 C 36.893,26.259 36.599,26.339 36.352,26.496 A 1.614,1.614 0 0,0 35.761,27.199 A 1.79,1.79 0 0,0 35.699,27.331 C 35.697,27.225 35.699,27.116 35.701,27.006 L 35.702,26.96 C 35.705,26.826 35.707,26.69 35.7,26.559 Z" fill="rgb(254, 254, 253)" stroke="rgb(254, 254, 253)" stroke-width=".1"/>
</svg>
