<?xml version="1.0" encoding="UTF-8"?>
<!-- generated by Finnhub -->
<svg viewBox="0 0 55.5 55.5" xmlns="http://www.w3.org/2000/svg">
<path d="M 0,0 H 55.5 V 55.5 H 0 Z" fill="rgb(15, 63, 116)"/>
<path d="M 27.121,32.141 C 24.951,32.156 22.994,30.874 22.994,29.082 C 22.994,27.289 24.951,26.006 27.147,26.006 C 28.101,26.006 28.993,26.256 29.962,26.815 L 29.279,27.724 A 4.778,4.778 0 0,0 27.147,27.226 C 26.224,27.226 25.157,27.761 25.157,29.082 C 25.157,30.402 26.208,30.936 27.147,30.936 C 27.926,30.936 28.674,30.774 29.31,30.487 L 29.994,31.447 C 29.184,31.895 28.197,32.156 27.131,32.156 Z M 40.49,31.991 C 42.867,31.991 44.988,30.743 44.988,29 C 44.988,27.255 42.868,26.006 40.49,26.006 C 38.11,26.006 35.99,27.254 35.99,29 C 35.99,30.743 38.11,31.991 40.49,31.991 Z M 42.644,29 C 42.644,30.284 41.49,30.804 40.49,30.804 S 38.335,30.284 38.335,29 C 38.335,27.714 39.489,27.194 40.49,27.194 C 41.49,27.194 42.644,27.714 42.644,29 Z M 45.987,32.006 H 48 V 28.19 C 48,27.72 48.3,27.256 48.988,27.253 C 49.468,27.256 50,27.558 50,28.151 V 32.005 H 51.987 V 27.895 C 51.987,26.865 50.828,26.005 49.446,26.005 L 49.406,26.007 L 49.366,26.005 A 3.04,3.04 0 0,0 47.809,26.43 C 47.805,26.415 47.943,25.997 45.987,25.997 V 32.005 Z M 19.995,32.006 H 21.995 V 26.006 H 19.995 V 32.006 Z M 30.992,32.002 H 32.992 L 32.987,28.64 C 32.987,28.073 33.345,27.485 34.054,27.485 C 34.4,27.485 34.731,27.597 35.004,27.72 V 26.062 A 5.05,5.05 0 0,0 34.261,26.004 C 33.703,26.004 33.445,26.117 32.987,26.392 C 32.953,26.322 32.777,26.002 30.992,26.002 V 32.002 Z M 15.997,29.613 V 32.006 H 17.997 V 27.686 C 17.38,28.323 16.797,28.971 15.997,29.613 Z" fill="rgb(254, 254, 253)"/>
<path d="M 18.406,27.459 C 20.761,25.019 21.732,22.737 20.976,21.639 C 20.186,20.492 17.736,20.956 14.558,22.66 A 2.89,2.89 0 0,0 14.198,22.871 C 14.044,22.979 14.133,23.058 14.246,23.016 C 14.363,22.974 14.496,22.922 14.644,22.847 C 17.026,21.701 18.884,21.495 19.61,22.295 C 20.717,23.515 18.45,27.509 14.526,30.463 C 14.002,30.858 13.194,31.435 12.667,31.756 L 12.562,31.823 C 12.423,31.915 12.299,32.001 12.202,32.079 C 12.107,32.154 12.125,32.273 12.296,32.198 A 2.92,2.92 0 0,0 12.662,32 L 12.755,31.944 C 13.346,31.58 14.225,30.964 14.825,30.539 A 28.01,28.01 0 0,0 16.288,29.429 A 23.22,23.22 0 0,0 18.416,27.474 Z" fill="rgb(254, 254, 253)"/>
<path d="M 7.99,34.993 H 10.006 V 32.632 C 10.588,32.288 11.264,31.911 11.843,31.516 C 11.973,31.426 12.089,31.336 12.173,31.261 C 12.31,31.134 12.21,31.07 12.104,31.125 C 11.994,31.183 11.865,31.261 11.725,31.351 C 8.437,33.455 6.217,34.098 5.397,32.984 C 4.685,32.017 5.887,30.114 7.999,28.003 V 32.903 C 8.599,32.7 9.185,32.461 10.006,32.005 V 27.458 L 10.56,28.402 C 11.074,29.503 12.005,30.162 13.19,30.162 C 14.373,30.162 15.015,29.556 15.528,28.455 L 15.996,27.458 V 28.618 C 16.758,27.878 17.48,26.96 17.973,26.246 C 18.035,26.158 18.029,26.084 17.996,26.002 C 17.668,25.317 17.308,25.002 16.496,25.002 C 15.693,25.002 14.875,25.438 14.54,26.112 L 13.65,28.002 A 0.5,0.5 0 0,1 13.19,28.289 A 0.501,0.501 0 0,1 12.729,28.003 L 11.838,26.112 A 2.058,2.058 0 0,0 11.081,25.279 A 18.88,18.88 0 0,1 12.989,23.921 C 13.131,23.835 13.247,23.749 13.345,23.674 C 13.441,23.6 13.424,23.483 13.252,23.554 C 13.147,23.599 13.012,23.665 12.877,23.748 C 12.24,24.134 11.589,24.529 10.966,24.955 L 10.741,25.11 C 10.512,25.02 10.258,25.002 9.998,25.002 C 8.87,25.002 7.964,25.884 7.964,27.012 V 27.294 C 4.957,29.977 3.378,32.634 4.204,33.817 C 4.809,34.685 6.28,34.485 7.999,33.737 V 35.007 Z" fill="rgb(254, 254, 253)"/>
</svg>
