<?xml version="1.0" encoding="UTF-8"?>
<!-- generated by Finnhub -->
<svg viewBox="0 0 55.5 55.5" xmlns="http://www.w3.org/2000/svg">
<path d="M 0,0 H 55.5 V 55.5 H 0 Z" fill="rgb(224, 254, 77)"/>
<path d="M 41.99,31.395 V 16 H 37 V 36 C 36.06,36.02 33.91,35.8 32.9,33.65 L 26.47,19.15 C 26.01,18.1 24.5,16 22.07,16 C 19.05,16 18,18.87 18,20 C 15.24,20 13,22.06 13,24.59 V 40 H 18 V 20 H 18.57 C 19.32,19.98 21.07,20.24 22.07,22.4 L 28.57,37.06 C 29.07,38.04 30.64,40 33.07,40 C 36.1,40 37,37.09 37,36 C 39.76,36 42,33.94 42,31.41 Z" fill="rgb(4, 42, 64)"/>
</svg>
