<?xml version="1.0" encoding="UTF-8"?>
<!-- generated by Finnhub -->
<svg viewBox="0 0 55.5 55.5" xmlns="http://www.w3.org/2000/svg">
<path d="M 0,0 H 55.5 V 55.5 H 0 Z" fill="rgb(60, 143, 193)"/>
<path d="M 44.99,38.795 V 14 H 11 V 43.375 S 14.029,40.509 18.195,40.227 C 24.15,39.826 26.612,42.805 32.26,43.791 C 39.17,44.996 43.685,40.647 44.74,39.388 C 45,39.063 44.957,38.978 44.99,38.906 L 45,38.811 Z" fill="rgb(249, 246, 245)"/>
<path d="M 21.093,29.985 L 16,23.64 V 30 H 14 V 20 H 16.054 L 21,26.156 V 20 H 23 V 30 H 21.103 Z M 19.079,36.316 C 16.762,36.445 15.786,36.73 14.686,37.286 C 14.504,37.366 14.318,37.489 14.094,37.592 C 13.899,37.678 14.057,37.267 14.125,37.167 A 1.88,1.88 0 0,1 14.624,36.68 C 17.092,34.986 22.537,34.396 26.974,35.739 C 31.742,37.181 37.197,38.828 41.36,36.027 C 41.36,36.027 41.6,35.871 41.724,35.795 C 41.882,35.692 41.964,35.692 41.982,35.769 C 42.047,36.011 41.941,36.256 41.504,36.607 C 41.013,37.002 41.26,36.849 40.322,37.429 C 38.552,38.523 36.207,39.418 32.052,38.795 C 26.758,38.006 24.672,36.004 19.079,36.315 Z M 35,30 V 20 H 37 V 28 H 42 V 30 H 35 Z M 24.5,25.029 C 24.5,27.806 26.63,30 29.5,30 C 31.38,30 32.495,29.338 33.5,28.274 L 32.133,26.905 C 31.366,27.598 30.684,28.038 29.569,28.038 C 27.897,28.038 26.747,26.656 26.747,24.998 V 24.971 C 26.747,23.316 27.927,21.961 29.569,21.961 C 30.543,21.961 31.311,22.375 32.065,23.054 L 33.431,21.491 C 32.522,20.607 31.42,20 29.583,20 C 26.589,20 24.5,22.252 24.5,24.998 V 25.029 Z" fill="rgb(60, 143, 193)"/>
</svg>
