<?xml version="1.0" encoding="UTF-8"?>
<!-- generated by Finnhub -->
<svg viewBox="0 0 55.5 55.5" xmlns="http://www.w3.org/2000/svg">
<path d="M 0,0 H 55.5 V 55.5 H 0 Z" fill="rgb(1, 143, 184)"/>
<path d="M 36.81,12.985 L 29.222,34.99 C 29.128,35.26 28.963,35.497 28.747,35.674 A 1.417,1.417 0 0,1 28,35.99 V 36 H 36.032 C 36.661,36 37.199,35.579 37.399,34.99 L 45,13 H 36.82 Z M 27.489,35 C 27.889,35 28.239,34.767 28.453,34.413 C 28.475,34.377 28.553,34.248 28.609,34.073 L 31,26.357 L 29.601,21.851 A 1.379,1.379 0 0,0 29.219,21.276 A 1.089,1.089 0 0,0 28.641,21.008 A 1.027,1.027 0 0,0 28.027,21.122 A 1.246,1.246 0 0,0 27.547,21.584 A 1.665,1.665 0 0,0 27.391,21.924 L 25,29.639 L 26.405,34.163 C 26.496,34.412 26.648,34.623 26.84,34.773 C 27.033,34.921 27.258,35.001 27.489,35.001 Z M 28,20 H 20.397 C 19.808,20 19.304,20.42 19.114,21.01 L 12,43 H 19.66 L 26.774,21.012 A 1.53,1.53 0 0,1 27.25,20.297 C 27.469,20.117 27.73,20.015 28,20.003 V 20 Z" fill="rgb(254, 254, 253)"/>
</svg>
