<?xml version="1.0" encoding="UTF-8"?>
<!-- generated by Finnhub -->
<svg viewBox="0 0 55.5 55.5" xmlns="http://www.w3.org/2000/svg">
<path d="M 0,0 H 55.5 V 55.5 H 0 Z" fill="url(#a)"/>
<path d="M 39.723,38.863 A 15.957,15.957 0 0,1 28,44 C 21.59,44 16.06,40.23 13.507,34.788 C 21.188,35.81 30.477,37.3 39.733,38.878 Z" fill="rgb(121, 192, 65)"/>
<path d="M 31.416999999999998,13.758 S 31.92,15.126 31.981,16.97 L 23.801,26.501 L 35.115,17.954 L 35.669,20.598 S 27.061,30.375 24.971,33.142 C 24.971,33.142 35.944,24.06 42.077,20.392 C 39.37,15.395 34.084,12 28,12 C 19.164,12 12,19.164 12,28.001 C 12,28.159 12.01,28.315 12.022,28.471 C 12.028,28.556 12.034,28.641 12.038,28.726 C 15.591,25.646 25.167,17.52 31.427,13.773 Z M 31.735,22.89 S 22.695,29.9 21.465,31.07 L 20.233,28.794 S 26.446,21.046 28.474,19.016 C 28.474,19.016 17.414,26.89 12.335,31.646 C 12.537,32.621 12.832,33.561 13.203,34.465 C 15.928,34.68 18.685,34.962 21.474,35.301 L 21.624,35.121 C 22.822,33.681 30.711,24.197 31.734,22.891 Z M 43.325,23.804 C 43.759,25.257 44,26.792 44,28.385 C 44,32.235 42.641,35.765 40.375,38.526 A 202.395,202.395 0 0,0 24.561,35.701 C 30.859,30.625 39.632,25.766 43.326,23.804 Z" fill="rgb(1, 149, 212)"/>
<defs>
<linearGradient id="a" x1="10.418" x2="68.147" y1="9.712" y2="76.017" gradientUnits="userSpaceOnUse">
<stop stop-color="rgb(25, 29, 31)" offset="0"/>
<stop stop-color="rgb(5, 5, 8)" offset="1"/>
</linearGradient>
</defs>
</svg>
