<?xml version="1.0" encoding="UTF-8"?>
<!-- generated by Finnhub -->
<svg viewBox="0 0 55.5 55.5" xmlns="http://www.w3.org/2000/svg">
<path d="M 0,0 H 55.5 V 55.5 H 0 Z" fill="rgb(239, 242, 248)"/>
<path d="M 40.52,16.915 A 6.98,6.98 0 0,0 36.36,16.02 C 31.85,16.31 26.56,19.8 23.99,23.75 C 20.57,29.02 21.67,35.68 26.45,38.62 A 9.42,9.42 0 0,0 31.01,40 A 12.3,12.3 0 0,0 41.31,34.38 C 44.74,29.11 45.31,19.87 40.53,16.93 Z" fill="url(#f)"/>
<path d="M 27.54,15.985 C 27.37,16 27.18,16 27,16.02 C 22.61,16.31 17.47,19.8 14.98,23.75 A 12.35,12.35 0 0,0 13,30.35 A 9.68,9.68 0 0,0 17.37,38.62 A 8.97,8.97 0 0,0 21.8,40 C 23.35,40.07 24.9,39.78 26,39.06 C 21.97,36.96 20.97,32.8 20.97,29.94 A 12.1,12.1 0 0,1 22.97,23.72 A 18.29,18.29 0 0,1 31,17 C 31,16.62 31,16.77 31,17 A 6.3,6.3 0 0,0 27.55,16 Z" fill="url(#e)"/>
<path d="M 23.919999999999998,37.585 C 23.23,37.84 22.3,38 21.63,38 C 20.04,38 18.61,37.47 17.39,36.27 A 8.66,8.66 0 0,1 15,30.07 C 15,27.61 15.82,24.97 17.4,22.77 C 19.75,19.49 23.44,16.84 26.76,17 C 27.66,17.05 28.48,17.34 29.05,17.97 C 26.11,19.69 22.58,22.91 21.47,27.03 C 21.25,27.83 21.01,28.8 21.01,29.66 C 21.01,32.03 21.44,35.18 23.93,37.59 Z" fill="url(#d)" opacity=".3"/>
<path d="M 27.459999999999997,18.985 C 24.75,20.93 22.17,24.09 21.34,27.48 C 21.16,28.19 21,29.43 21,29.71 C 21,32.28 21.67,35.05 23.28,37 H 22.62 A 4.7,4.7 0 0,1 19.95,35.93 C 18.07,34.6 17,32.24 17,29.71 C 17,28.06 17.49,26.35 18.36,24.79 C 20.02,21.84 24.13,19.23 27.05,19.01 A 5.17,5.17 0 0,1 27.47,19 Z" fill="url(#c)" opacity=".6"/>
<path d="M 18.99,28.794999999999998 C 19,31.88 20.66,32.75 21.37,33 C 21.1,31.6 21,31.34 21,30.16 C 21,27.94 22.07,24.91 22.8,24 C 21.6,24.22 19,26.25 19,28.81 Z" fill="url(#b)" opacity=".9"/>
<path d="M 17.889999999999997,15.985 C 19.4,16 20.74,16.19 21.9,16.94 L 22,17 A 18.41,18.41 0 0,0 13.93,23.77 A 12.48,12.48 0 0,0 12,30.17 C 11.95,33.63 13.46,36.87 16.3,38.68 C 16.58,38.86 16.86,39.03 17.16,39.17 C 15.74,39.77 14.23,40 12.74,40 A 8.73,8.73 0 0,1 8.35,38.68 A 9.8,9.8 0 0,1 4,30.18 C 4.03,28.03 4.72,25.8 5.98,23.77 C 8.45,19.8 13.5,16 17.9,16 Z" fill="url(#a)"/>
<path d="M 24.369999999999997,25.645 L 24.57,25 H 22.64 L 21,31 H 22.92 L 24.01,27.03 C 24.13,26.58 24.22,26.31 24.29,26.21 C 24.35,26.11 24.44,26.01 24.57,26 C 24.7,26 24.77,26.1 24.77,26.18 C 24.77,26.28 24.72,26.52 24.6,26.93 L 23.5,31 H 25.39 L 26.51,26.86 C 26.66,26.35 26.73,25.98 26.73,25.76 C 26.73,25.54 26.65,25.36 26.48,25.21 C 26.32,25.07 26.08,25 25.75,25.01 C 25.49,25.01 25.25,25.06 25.03,25.17 C 24.8,25.27 24.59,25.44 24.39,25.66 Z M 29.11,26.73 L 29.05,27 H 28.51 L 28.58,26.73 C 28.68,26.41 28.75,26.21 28.8,26.13 A 0.31,0.31 0 0,1 29.07,26 C 29.17,26 29.23,26.06 29.24,26.15 C 29.24,26.24 29.2,26.43 29.11,26.73 Z M 28.21,28 H 30.61 L 30.83,27.32 C 30.98,26.76 31.03,26.32 30.98,26.02 C 30.93,25.7 30.76,25.46 30.48,25.27 C 30.18,25.09 29.78,25 29.26,25 C 28.84,25 28.44,25.09 28.06,25.24 C 27.7,25.4 27.4,25.63 27.18,25.92 C 26.95,26.22 26.78,26.62 26.64,27.12 L 26.17,28.81 C 26.05,29.24 26,29.57 26,29.79 C 26,30.02 26.06,30.22 26.18,30.41 C 26.29,30.6 26.48,30.74 26.76,30.85 C 27.03,30.95 27.36,31 27.75,31 A 3,3 0 0,0 28.8,30.83 C 29.1,30.72 29.37,30.55 29.6,30.33 C 29.83,30.11 30,29.91 30.1,29.71 C 30.2,29.52 30.3,29.25 30.4,28.89 L 30.51,28.49 H 28.75 L 28.54,29.24 C 28.46,29.54 28.38,29.73 28.31,29.83 A 0.4,0.4 0 0,1 28,30 C 27.89,30 27.82,29.94 27.8,29.87 C 27.79,29.79 27.81,29.62 27.88,29.36 L 28.23,28 Z M 40.05,27 L 40.11,26.73 C 40.2,26.43 40.25,26.23 40.24,26.15 C 40.23,26.06 40.17,26 40.07,26 A 0.31,0.31 0 0,0 39.8,26.13 A 2.6,2.6 0 0,0 39.58,26.73 L 39.51,27 H 40.05 Z M 41.61,28 H 39.21 L 38.87,29.36 C 38.8,29.62 38.77,29.79 38.8,29.86 C 38.81,29.94 38.88,30 39,30 A 0.4,0.4 0 0,0 39.31,29.83 C 39.38,29.73 39.46,29.53 39.54,29.24 L 39.74,28.5 H 41.51 L 41.4,28.89 C 41.3,29.25 41.2,29.52 41.1,29.71 C 41,29.91 40.83,30.11 40.6,30.33 C 40.37,30.55 40.1,30.72 39.8,30.83 C 39.5,30.94 39.15,31 38.75,31 S 38.03,30.95 37.75,30.85 C 37.49,30.75 37.29,30.6 37.18,30.41 C 37.06,30.22 37,30.01 37,29.79 C 37,29.57 37.05,29.24 37.17,28.81 L 37.64,27.12 C 37.77,26.62 37.95,26.22 38.18,25.92 C 38.4,25.62 38.7,25.4 39.07,25.24 C 39.44,25.09 39.84,25 40.27,25 C 40.78,25 41.18,25.09 41.47,25.27 C 41.76,25.46 41.93,25.7 41.98,26.01 C 42.03,26.32 41.98,26.76 41.83,27.31 L 41.61,28 Z M 35.57,31 L 37.91,25 H 36.31 C 35.75,26.25 35.31,27.5 34.97,28.5 L 35.5,25 H 33.98 C 33.38,26.5 32.98,27.6 32.78,28.14 L 32.64,28.51 L 33.11,25.21 L 33.14,25 H 31.54 L 30.74,31 H 32.75 L 33.29,29.71 L 33.95,28.15 L 33.56,31 H 35.56 Z M 45,26.66 C 45.07,26.39 45.1,26.22 45.08,26.14 A 0.17,0.17 0 0,0 44.9,26 C 44.8,26 44.71,26.08 44.65,26.16 C 44.58,26.25 44.51,26.41 44.45,26.66 L 43.97,28.36 C 43.9,28.63 43.87,28.8 43.88,28.88 C 43.89,28.95 43.95,29 44.06,29 C 44.18,29 44.26,28.94 44.33,28.85 C 44.39,28.75 44.47,28.54 44.56,28.2 L 45,26.66 Z M 47.25,25 L 46.05,29.62 A 11.1,11.1 0 0,1 45.69,30.81 C 45.61,30.99 45.46,31.17 45.23,31.38 C 45,31.58 44.73,31.73 44.38,31.84 C 44.04,31.94 43.64,32 43.16,32 C 42.58,32 42.14,31.92 41.84,31.73 C 41.54,31.53 41.45,31.07 41.59,30.5 H 43.37 C 43.3,30.77 43.36,31 43.56,31 A 0.4,0.4 0 0,0 43.86,30.84 C 43.93,30.76 44,30.59 44.06,30.34 L 44.19,29.89 C 43.99,30.03 43.8,30.13 43.61,30.21 C 43.41,30.28 43.24,30.3 43.05,30.3 C 42.5,30.3 42,30.1 42,29.48 C 42,29.28 42.04,28.94 42.14,28.55 L 42.67,26.6 C 42.82,26.04 43.03,25.64 43.3,25.4 A 1.47,1.47 0 0,1 44.9,25.13 C 45.07,25.23 45.2,25.36 45.3,25.54 L 45.55,25 H 47.25 Z M 49.85,26.14 C 49.85,26.22 49.83,26.39 49.75,26.66 L 49.32,28.2 C 49.22,28.54 49.15,28.75 49.09,28.85 A 0.32,0.32 0 0,1 48.82,29 C 48.72,29 48.65,28.95 48.64,28.88 C 48.63,28.8 48.66,28.63 48.73,28.36 L 49.21,26.66 C 49.27,26.41 49.34,26.25 49.41,26.16 C 49.47,26.08 49.56,26 49.66,26 S 49.83,26.07 49.84,26.14 Z M 50.8,29.62 L 52,25 H 50.3 L 50.05,25.54 A 1.03,1.03 0 0,0 49.06,25 C 48.64,25 48.32,25.15 48.05,25.4 C 47.78,25.64 47.57,26.04 47.42,26.6 L 46.89,28.55 C 46.79,28.94 46.75,29.27 46.75,29.48 C 46.75,30.1 47.25,30.3 47.8,30.3 C 48,30.3 48.16,30.28 48.36,30.2 C 48.56,30.13 48.74,30.03 48.94,29.89 L 48.82,30.34 A 1.5,1.5 0 0,1 48.62,30.84 A 0.4,0.4 0 0,1 48.31,31 C 48.11,31 48.05,30.77 48.11,30.5 H 46.34 C 46.2,31.07 46.28,31.54 46.59,31.73 C 46.89,31.92 47.33,32 47.91,32 C 48.39,32 48.79,31.95 49.13,31.84 C 49.47,31.74 49.75,31.58 49.98,31.38 C 50.21,31.18 50.36,30.98 50.44,30.81 C 50.52,30.63 50.64,30.23 50.8,29.61 Z" fill="rgb(1, 44, 104)"/>
<defs>
<linearGradient id="f" x1="38.23" x2="25.4" y1="9.95" y2="42.56" gradientUnits="userSpaceOnUse">
<stop stop-color="rgb(194, 200, 199)" offset=".2"/>
<stop stop-color="rgb(213, 216, 217)" offset=".26"/>
<stop stop-color="rgb(231, 232, 234)" stop-opacity=".38" offset=".33"/>
<stop stop-color="rgb(234, 235, 236)" offset=".49"/>
<stop stop-color="rgb(227, 227, 231)" offset=".56"/>
<stop stop-color="rgb(217, 218, 222)" offset=".76"/>
<stop stop-color="rgb(194, 195, 199)" offset=".86"/>
</linearGradient>
<linearGradient id="e" x1="27.42" x2="15.42" y1="15.18" y2="41.94" gradientUnits="userSpaceOnUse">
<stop stop-color="rgb(246, 88, 45)" offset=".13"/>
<stop stop-color="rgb(240, 153, 35)" offset=".58"/>
<stop stop-color="rgb(254, 86, 49)" offset=".89"/>
</linearGradient>
<linearGradient id="d" x1="24.64" x2="14.37" y1="8.53" y2="43.01" gradientUnits="userSpaceOnUse">
<stop stop-color="rgb(239, 132, 38)" offset=".23"/>
<stop stop-color="rgb(240, 152, 36)" offset=".26"/>
<stop stop-color="rgb(243, 181, 31)" offset=".35"/>
<stop stop-color="rgb(244, 193, 30)" offset=".41"/>
<stop stop-color="rgb(245, 212, 28)" offset=".53"/>
<stop stop-color="rgb(242, 170, 33)" offset=".71"/>
<stop stop-color="rgb(238, 125, 39)" stop-opacity="0" offset=".86"/>
</linearGradient>
<linearGradient id="c" x1="26.76" x2="25.73" y1="18.99" y2="37.76" gradientUnits="userSpaceOnUse">
<stop stop-color="rgb(244, 104, 43)" offset=".03"/>
<stop stop-color="rgb(243, 133, 39)" offset=".1"/>
<stop stop-color="rgb(244, 198, 29)" offset=".22"/>
<stop stop-color="rgb(252, 216, 81)" stop-opacity=".62" offset=".35"/>
<stop stop-color="rgb(245, 233, 84)" stop-opacity=".51" offset=".52"/>
<stop stop-color="rgb(251, 212, 80)" stop-opacity=".64" offset=".59"/>
<stop stop-color="rgb(250, 205, 77)" offset=".69"/>
<stop stop-color="rgb(242, 172, 33)" offset=".76"/>
<stop stop-color="rgb(238, 125, 39)" stop-opacity="0" offset="1"/>
</linearGradient>
<linearGradient id="b" x1="23.31" x2="17.72" y1="23.72" y2="31.02" gradientUnits="userSpaceOnUse">
<stop stop-color="rgb(254, 230, 87)" stop-opacity=".3" offset=".16"/>
<stop stop-color="rgb(244, 236, 86)" stop-opacity=".97" offset=".55"/>
<stop stop-color="rgb(254, 230, 87)" stop-opacity=".53" offset=".9"/>
</linearGradient>
<linearGradient id="a" x1="23.8" x2="6.27" y1="10.36" y2="42.16" gradientUnits="userSpaceOnUse">
<stop stop-color="rgb(194, 200, 199)" offset=".17"/>
<stop stop-color="rgb(213, 216, 217)" offset=".31"/>
<stop stop-color="rgb(231, 232, 234)" stop-opacity=".38" offset=".41"/>
<stop stop-color="rgb(234, 235, 236)" offset=".49"/>
<stop stop-color="rgb(227, 227, 231)" offset=".61"/>
<stop stop-color="rgb(217, 218, 222)" offset=".73"/>
<stop stop-color="rgb(194, 195, 199)" offset=".85"/>
</linearGradient>
</defs>
</svg>
