<?xml version="1.0" encoding="UTF-8"?>
<!-- generated by Finnhub -->
<svg viewBox="0 0 55.5 55.5" xmlns="http://www.w3.org/2000/svg">
<path d="M 0,0 H 55.5 V 55.5 H 0 Z" fill="rgb(7, 8, 11)"/>
<path d="M 20.421999999999997,27.412 C 20.879,26.946 20.816,26.537 21.253,25.403 A 7.23,7.23 0 0,1 34.746,25.403 C 35.184,26.538 35.121,26.946 35.567,27.427 C 36.002,27.897 36.459,28 37.879,28 H 44 C 44,23.375 42.014,19.147 38.816,16.212 A 15.996,15.996 0 0,0 17.183,16.212 A 15.993,15.993 0 0,0 12,28 H 18.12 C 19.541,28 19.998,27.897 20.432,27.427 Z M 42.336,35.116 L 36.424,29.2 C 35.19,27.965 35.294,28 33.544,28 H 22.456 C 20.706,28 20.81,27.965 19.574,29.201 L 13.664,35.116 A 16.006,16.006 0 0,0 19.656,41.666 C 21.17,40.153 25.71,35.61 26.466,34.854 C 27.086,34.234 27.361,33.994 27.697,33.89 A 0.968,0.968 0 0,1 28.301,33.89 C 28.637,33.993 28.911,34.233 29.531,34.854 L 36.341,41.667 A 16.003,16.003 0 0,0 42.335,35.116 Z" fill="rgb(254, 254, 253)"/>
</svg>
