<?xml version="1.0" encoding="UTF-8"?>
<!-- generated by Finnhub -->
<svg viewBox="0 0 55.5 55.5" xmlns="http://www.w3.org/2000/svg">
<path d="M 0,0 H 55.5 V 55.5 H 0 Z" fill="url(#a)"/>
<path d="M 12.844,37.978 C 11.543,37.94 10.47,37.574 9.631,36.894 A 6.51,6.51 0 0,1 8.961,36.211 A 4.294,4.294 0 0,1 8.236,34.879 C 7.762,33.429 8.006,31.525 8.935,29.437 C 9.73,27.648 10.957,25.875 13.099,23.419 C 13.414,23.057 14.353,22 14.359,22 C 14.362,22 14.31,22.09 14.246,22.2 C 13.689,23.152 13.213,24.273 12.953,25.243 C 12.537,26.8 12.587,28.136 13.101,29.173 C 13.455,29.886 14.063,30.504 14.746,30.846 C 15.943,31.444 17.694,31.493 19.833,30.991 C 19.98,30.956 27.277,28.979 36.049,26.598 C 44.821,24.217 52,22.27 52,22.272 C 52.002,22.274 31.62,31.172 21.04,35.789 C 19.365,36.52 18.917,36.705 18.129,36.987 C 16.115,37.708 14.312,38.053 12.853,37.993 Z" fill="rgb(254, 254, 253)"/>
<defs>
<linearGradient id="a" x1="10.418" x2="68.147" y1="9.712" y2="76.017" gradientUnits="userSpaceOnUse">
<stop stop-color="rgb(25, 29, 31)" offset="0"/>
<stop stop-color="rgb(5, 5, 8)" offset="1"/>
</linearGradient>
</defs>
</svg>
