<?xml version="1.0" encoding="UTF-8"?>
<!-- generated by Finnhub -->
<svg viewBox="0 0 55.5 55.5" xmlns="http://www.w3.org/2000/svg">
<path d="M 0,0 H 55.5 V 55.5 H 0 Z" fill="rgb(7, 58, 144)"/>
<path d="M 23.029999999999998,24.025 C 23.11,24.08 23.17,24.14 23.22,24.2 L 23.97,24.96 L 24.57,25.58 L 29.24,30.32 V 25.09 C 29.24,24.92 29.22,24.74 29.19,24.57 C 29.14,24.33 29.03,24.2 28.81,24.2 L 28.51,24.15 H 28.48 C 28.43,24.15 28.34,24.15 28.34,24.08 C 28.34,24 28.44,24 28.51,24 H 30.51 C 30.58,24 30.67,23.99 30.68,24.06 C 30.7,24.16 30.48,24.16 30.36,24.18 H 30.29 C 30.09,24.22 29.94,24.36 29.91,24.54 C 29.89,24.7 29.89,24.86 29.89,25.02 V 31.89 C 29.88,31.98 29.82,32.01 29.74,31.96 A 1.3,1.3 0 0,1 29.51,31.79 L 29.48,31.77 L 28.21,30.57 L 23.49,25.7 V 31.02 C 23.51,31.26 23.56,31.75 23.89,31.77 L 24.02,31.78 C 24.2,31.8 24.47,31.81 24.47,31.9 C 24.47,31.98 24.39,32 24.33,32 H 22.16 C 22.08,32 22,31.98 22,31.9 C 22,31.84 22.05,31.83 22.1,31.82 A 11.77,11.77 0 0,1 22.45,31.78 C 22.85,31.72 22.85,31.23 22.84,30.89 V 28.21 A 616.27,616.27 0 0,1 22.84,25.31 V 24.3 C 22.84,24.24 22.84,24.17 22.87,24.1 C 22.9,24 22.96,23.99 23.04,24.05 Z M 35,24.1 L 35.01,24.12 L 35.09,24.3 V 24.31 L 35.34,24.91 A 456.18,456.18 0 0,0 36.68,28.24 L 37.64,30.62 C 37.71,30.82 37.81,31 37.91,31.18 V 31.19 L 38.07,31.42 L 38.09,31.45 A 1,1 0 0,0 38.87,31.85 H 38.89 C 38.95,31.85 39.12,31.85 39.12,31.92 S 39.02,31.99 38.95,31.99 H 37 L 36.9,31.98 C 36.85,31.95 36.83,31.88 36.88,31.86 C 37.06,31.78 37.02,31.66 36.97,31.52 L 36,29.15 C 35.94,29 35.94,29 35.78,29 H 33.65 C 33.48,29 33.47,29 33.42,29.15 L 33.29,29.52 L 32.77,30.97 A 3,3 0 0,0 32.65,31.43 C 32.6,31.71 32.73,31.82 33.04,31.83 H 33.08 C 33.15,31.83 33.24,31.83 33.26,31.91 C 33.29,31.99 33.11,32.01 33.06,32 H 31.07 C 30.99,32 30.82,32 30.82,31.9 C 30.82,31.81 31.01,31.82 31.08,31.82 H 31.11 C 31.44,31.82 31.7,31.71 31.86,31.44 C 31.96,31.27 32.05,31.09 32.12,30.91 L 33.22,28.01 L 34.23,25.34 A 377.85,377.85 0 0,1 34.71,24.13 L 34.72,24.11 C 34.75,24.06 34.77,24.01 34.84,24 C 34.92,24 34.95,24.06 34.98,24.11 Z M 34.7,25.55 A 1,1 0 0,1 34.66,25.59 A 89.1,89.1 0 0,0 34.14,27.12 L 33.65,28.57 C 33.8,28.61 35.65,28.61 35.79,28.57 V 28.54 L 35.76,28.46 L 35.27,27.1 L 34.77,25.69 A 0.62,0.62 0 0,0 34.72,25.6 C 34.72,25.58 34.7,25.57 34.69,25.55 Z M 14.15,24.16 C 14.11,24.12 14.08,24.08 14.02,24.04 C 13.94,23.98 13.86,23.99 13.82,24.08 A 0.74,0.74 0 0,0 13.8,24.28 V 30.89 C 13.8,31.23 13.8,31.72 13.41,31.79 A 5.31,5.31 0 0,1 13.06,31.82 C 13.01,31.82 12.96,31.84 12.96,31.89 C 12.96,31.99 13.04,31.99 13.12,31.99 H 15.28 C 15.35,31.99 15.42,31.98 15.43,31.9 C 15.43,31.81 15.15,31.8 14.97,31.78 H 14.84 C 14.52,31.75 14.47,31.26 14.45,31.01 V 25.7 L 19.17,30.57 L 20.44,31.77 L 20.46,31.8 C 20.53,31.86 20.57,31.9 20.66,31.95 C 20.74,31.99 20.83,31.99 20.85,31.9 V 25.02 C 20.85,24.86 20.85,24.7 20.87,24.54 C 20.9,24.36 21.06,24.22 21.24,24.18 H 21.32 C 21.44,24.17 21.66,24.15 21.64,24.06 C 21.63,24 21.5,24 21.42,24 H 19.48 C 19.41,24 19.3,24 19.3,24.08 C 19.3,24.15 19.39,24.15 19.44,24.15 H 19.46 L 19.77,24.2 C 19.99,24.2 20.09,24.33 20.14,24.57 C 20.18,24.74 20.19,24.92 20.2,25.09 V 30.32 L 15.53,25.58 L 14.93,24.96 L 14.18,24.2 L 14.15,24.17 Z M 42.37,24.09 C 42.37,24.01 42.26,23.99 42.2,23.99 H 39.78 C 39.67,23.99 39.6,24.04 39.61,24.09 C 39.63,24.16 39.68,24.16 39.74,24.17 H 39.77 L 39.87,24.18 L 40.2,24.23 C 40.37,24.28 40.47,24.39 40.5,24.56 C 40.52,24.64 40.53,24.73 40.53,24.82 V 30.02 C 40.53,30.52 40.51,31.32 40.44,31.56 A 0.35,0.35 0 0,1 40.14,31.8 H 40.09 C 39.98,31.8 39.78,31.81 39.78,31.9 C 39.78,32 39.95,32 40.03,32 H 44.22 C 44.5,32 44.58,31.96 44.64,31.7 C 44.69,31.47 44.72,31.23 44.76,31 C 44.76,30.92 44.78,30.86 44.79,30.79 C 44.79,30.73 44.81,30.57 44.72,30.56 C 44.65,30.56 44.63,30.62 44.62,30.66 L 44.61,30.7 L 44.57,30.81 L 44.47,31.09 A 0.77,0.77 0 0,1 43.8,31.56 C 43.26,31.61 42.71,31.63 42.18,31.56 A 0.8,0.8 0 0,1 41.58,31.01 C 41.5,30.79 41.5,30.49 41.5,30.01 V 25.07 C 41.5,24.9 41.52,24.7 41.55,24.53 C 41.58,24.34 41.72,24.24 41.91,24.21 L 42.14,24.19 L 42.2,24.18 H 42.22 C 42.28,24.18 42.37,24.17 42.37,24.1 Z M 46.31,24.16 C 46.35,24.14 46.43,24.11 46.41,24.04 C 46.38,23.99 46.11,23.99 46.03,23.99 H 44.55 C 44.35,23.99 44.15,23.99 44.15,24.07 C 44.15,24.13 44.21,24.15 44.26,24.15 C 44.56,24.18 44.77,24.32 44.98,24.51 C 45.18,24.71 45.38,24.92 45.53,25.16 C 45.83,25.62 46.13,26.12 46.43,26.62 C 46.71,27.09 46.99,27.56 47.27,27.99 C 47.52,28.37 47.64,28.78 47.63,29.22 V 29.89 C 47.62,30.35 47.62,30.82 47.59,31.26 C 47.58,31.49 47.47,31.79 47.22,31.79 H 47.18 C 47.08,31.79 46.86,31.8 46.86,31.89 C 46.86,31.99 47.03,31.99 47.1,31.99 H 49.2 C 49.3,31.99 49.45,31.96 49.45,31.87 C 49.45,31.8 49.38,31.8 49.32,31.8 H 49.27 C 49.19,31.8 49.12,31.78 49.05,31.77 L 48.89,31.75 C 48.67,31.73 48.59,31.37 48.59,31.05 L 48.57,29.87 V 29.09 C 48.56,28.68 48.67,28.29 48.88,27.93 L 49.34,27.13 C 49.73,26.45 50.14,25.75 50.56,25.13 C 50.71,24.93 50.88,24.73 51.06,24.53 C 51.28,24.31 51.54,24.17 51.86,24.15 C 51.93,24.15 52.01,24.13 52.01,24.05 C 52.01,24.01 51.91,23.99 51.81,23.99 H 50.15 C 50.05,23.99 49.92,24.01 49.92,24.06 C 49.92,24.13 49.98,24.14 50.04,24.16 H 50.05 C 50.19,24.2 50.25,24.29 50.25,24.42 C 50.24,24.5 50.24,24.58 50.21,24.65 C 50.16,24.77 50.11,24.89 50.04,25 L 49.17,26.51 C 48.87,27.06 48.56,27.61 48.27,28.1 C 48.08,27.8 47.88,27.45 47.67,27.08 C 47.48,26.73 47.29,26.38 47.12,26.1 A 107,107 0 0,1 46.3,24.77 C 46.24,24.67 46.19,24.55 46.16,24.43 C 46.12,24.29 46.16,24.23 46.3,24.16 Z M 8.17,24.11 C 8.14,24.05 8.11,23.99 8.04,23.99 S 7.94,24.05 7.91,24.1 V 24.12 L 7.82,24.32 A 361.45,361.45 0 0,0 5.32,30.89 C 5.24,31.08 5.15,31.25 5.05,31.42 C 4.89,31.69 4.64,31.8 4.3,31.81 H 4.28 C 4.2,31.81 4.01,31.8 4.01,31.88 C 4.01,31.98 4.18,31.99 4.26,31.99 H 6.25 C 6.3,31.99 6.48,31.98 6.45,31.89 C 6.43,31.82 6.34,31.82 6.27,31.82 H 6.23 C 5.93,31.8 5.8,31.69 5.85,31.42 A 3,3 0 0,1 5.96,30.96 L 6.48,29.51 L 6.61,29.14 C 6.66,29 6.67,28.99 6.84,28.99 H 8.97 C 9.14,28.99 9.14,28.99 9.19,29.13 L 10.15,31.52 C 10.2,31.65 10.25,31.77 10.07,31.86 C 10.01,31.88 10.03,31.95 10.09,31.97 L 10.18,31.99 H 12.12 C 12.2,31.99 12.29,31.99 12.29,31.91 C 12.29,31.85 12.12,31.85 12.06,31.85 H 12.04 A 1,1 0 0,1 11.27,31.45 L 11.24,31.42 L 11.09,31.19 V 31.17 C 10.99,30.99 10.89,30.81 10.81,30.62 L 9.85,28.24 C 9.57,27.52 9.29,26.81 9,26.12 L 8.5,24.91 L 8.27,24.31 V 24.3 L 8.18,24.13 V 24.11 Z M 7.83,25.59 L 7.87,25.55 C 7.87,25.57 7.89,25.59 7.9,25.6 L 7.94,25.69 C 8.11,26.14 8.28,26.62 8.44,27.11 C 8.61,27.57 8.77,28.03 8.94,28.46 A 0.57,0.57 0 0,1 8.96,28.57 C 8.83,28.61 6.97,28.61 6.83,28.57 L 7.31,27.12 L 7.81,25.64 A 0.2,0.2 0 0,1 7.83,25.59 Z" fill="rgb(254, 254, 253)"/>
</svg>
