<?xml version="1.0" encoding="UTF-8"?>
<!-- generated by Finnhub -->
<svg viewBox="0 0 55.5 55.5" xmlns="http://www.w3.org/2000/svg">
<path d="M 0,0 H 55.5 V 55.5 H 0 Z" fill="red"/>
<path d="M 3.99,23.99 V 32 H 5.353 V 26.526 L 9.466,32 H 10.586 V 24.005 H 9.308 V 28.249 L 5.894,24.005 H 4 Z M 21.71,24.005 L 18.832,32 H 20.228 L 22.163,26.495 L 24.14,32 H 26.244 L 23.262,24.005 H 21.71 Z M 24.701,24.005 L 24.204,25.323 L 24.913,27.16 L 25.166,26.495 L 27.091,32 H 29.301 L 26.341,24.005 H 24.7 Z M 29.491,24.005 C 29.495,25.789 29.475,27.575 29.491,29.359 C 29.526,30.062 29.761,30.782 30.315,31.269 C 30.881,31.779 31.683,31.963 32.44,31.995 C 33.162,32.021 33.985,31.95 34.636,31.632 A 2.385,2.385 0 0,0 35.863,30.138 C 36.085,29.412 35.975,28.651 36,27.907 V 24.005 H 34.562 V 29.048 C 34.557,29.546 34.512,30.101 34.118,30.47 C 33.714,30.819 33.044,30.817 32.536,30.75 A 1.146,1.146 0 0,1 31.574,29.868 C 31.41,29.26 31.502,28.63 31.478,28.01 V 24.005 H 29.491 Z M 37,24.005 V 32 H 39 V 25.084 C 39.42,25.1 40.062,25.049 40.476,25.126 C 40.878,25.198 41.224,25.472 41.343,25.852 C 41.49,26.256 41.496,26.726 41.333,27.128 C 41.164,27.516 40.743,27.709 40.338,27.792 C 40.08,27.85 39.81,27.873 39.545,27.896 C 40.226,29.166 40.915,30.73 41.596,32 H 43.711 C 43.088,30.871 42.462,29.44 41.84,28.311 C 42.366,28.125 42.894,27.843 43.161,27.346 C 43.403,26.923 43.452,26.419 43.415,25.946 A 2.094,2.094 0 0,0 42.389,24.368 C 41.897,24.055 41.288,23.978 40.709,24.005 H 37 Z M 47.02,24.005 L 43.912,32 H 45.265 L 46.111,29.577 H 48.955 L 49.822,32 H 52 L 48.85,24.005 H 47.02 Z M 47.528,26.06 L 48.5,28.477 H 46.555 L 47.528,26.059 Z M 22.714,29.017 L 21.709,32 H 22.978 L 23.358,30.688 L 22.714,29.017 Z M 15.331,24 C 14.388,23.995 13.421,24.29 12.741,24.91 C 11.907,25.67 11.521,26.772 11.504,27.837 C 11.47,28.745 11.664,29.675 12.191,30.454 A 3.314,3.314 0 0,0 13.967,31.793 C 14.782,32.05 15.688,32.066 16.515,31.853 C 17.411,31.615 18.177,31.021 18.598,30.254 C 19.142,29.308 19.25,28.185 19.084,27.137 C 18.944,26.299 18.564,25.468 17.89,24.879 C 17.233,24.299 16.327,24.015 15.426,24.01 C 15.411,24.01 15.395,24.007 15.379,24.005 L 15.33,24 Z M 15.411,25.02 C 15.531,25.023 15.653,25.043 15.77,25.079 C 16.42,25.266 16.83,25.842 17.017,26.418 C 17.227,26.995 17.267,27.611 17.25,28.216 C 17.221,29.024 17.053,29.888 16.457,30.514 C 16.167,30.789 15.784,30.997 15.357,30.984 C 14.621,30.994 14.042,30.42 13.793,29.824 C 13.441,29.01 13.397,28.111 13.497,27.247 C 13.594,26.556 13.82,25.824 14.406,25.349 A 1.59,1.59 0 0,1 15.41,25.019 Z" fill="rgb(254, 254, 253)"/>
</svg>
