<?xml version="1.0" encoding="UTF-8"?>
<!-- generated by Finnhub -->
<svg viewBox="0 0 55.5 55.5" xmlns="http://www.w3.org/2000/svg">
<path d="M 0,0 H 55.5 V 55.5 H 0 Z" fill="rgb(52, 169, 219)"/>
<path d="M 21.526999999999997,31.267 C 21.514,31.094 21.785,31.058 21.797,31.246 C 21.808,31.442 21.554,31.426 21.537,31.282 Z M 17.918,31.392 C 17.838,31.362 17.804,31.356 17.787,31.27 C 17.767,31.168 17.817,31.118 17.918,31.12 C 18.093,31.122 18.106,31.316 17.918,31.392 Z M 10.886,30.492 C 11.063,30.451 11.22,30.567 11.09,30.702 C 10.972,30.823 10.83,30.705 10.886,30.492 Z M 19.71,30.477 C 19.834,30.463 19.902,30.463 19.917,30.583 C 19.935,30.737 19.84,30.733 19.707,30.723 C 19.632,30.603 19.633,30.595 19.71,30.477 Z M 19.28,28.573 C 19.292,28.89 19.073,28.812 19.036,28.713 C 18.96,28.517 19.15,28.497 19.28,28.573 Z M 24.045,26.693 C 24.055,26.558 24.131,26.572 24.262,26.576 C 24.326,26.718 24.328,26.698 24.256,26.83 C 24.131,26.842 24.036,26.836 24.046,26.692 Z M 22.66,28.054 C 22.74,27.914 22.838,27.758 22.928,27.612 C 23.05,27.417 23.112,27.435 23.342,27.339 C 23.422,27.305 23.78,27.149 23.834,27.143 C 24.02,27.125 24.092,27.309 24.392,27.167 C 24.75,26.999 24.764,26.444 24.419,26.261 C 24.007,26.043 23.685,26.369 23.685,26.804 C 22.705,27.097 22.759,27.187 22.372,27.818 C 22.292,27.946 22.238,28.093 22.102,28.123 C 21.974,28.149 21.713,28.159 21.57,28.171 C 21.277,28.195 19.663,28.397 19.514,28.299 C 19.396,28.221 19.33,28.133 19.11,28.151 C 18.554,28.199 18.532,28.984 18.988,29.141 C 19.363,29.271 19.548,29.018 19.656,28.718 C 20.88,28.578 22.126,28.503 23.346,28.385 C 23.96,28.325 24.574,28.269 25.188,28.219 C 25.645,28.183 25.601,28.107 25.845,27.856 C 26.116,27.58 26.002,27.548 26.509,27.546 C 26.507,27.816 26.558,27.88 26.411,28.035 C 26.141,28.317 26.039,28.481 25.764,28.515 C 23.714,28.765 21.471,29.106 19.414,29.389 C 18.958,29.453 16.82,29.779 16.448,29.766 C 16.215,29.757 15.561,29.693 15.378,29.731 C 15.181,29.773 13.044,31.583 12.831,31.665 C 12.616,31.557 12.337,31.358 12.136,31.228 C 11.954,31.112 11.625,30.873 11.462,30.813 C 11.504,30.483 11.458,30.313 11.255,30.176 C 10.565,29.709 10.022,31.204 11.136,31.094 C 11.311,31.076 12.426,31.864 12.666,32.011 C 12.951,32.188 13.122,31.927 13.637,31.528 C 13.902,31.32 15.373,30.12 15.518,30.098 C 15.661,30.078 16.095,30.118 16.268,30.126 C 16.81,30.152 17.217,30.06 17.734,29.998 L 17.736,30.731 C 17.637,30.915 17.366,30.941 17.43,31.346 C 17.467,31.586 17.649,31.769 17.916,31.767 C 18.29,31.765 18.726,31.242 18.096,30.767 L 18.094,29.946 L 19.594,29.737 L 19.598,30.138 C 18.989,30.391 19.358,31.318 19.97,31.074 A 0.52,0.52 0 0,0 20.237,30.403 C 20.125,30.12 19.989,30.26 19.958,30.026 L 19.956,29.918 L 19.958,29.685 C 20.45,29.631 20.851,29.491 21.318,29.617 C 21.738,29.731 22.151,29.846 22.568,29.96 C 22.391,30.22 22.052,30.519 21.821,30.765 C 21.362,30.701 21.02,31.058 21.229,31.488 C 21.403,31.851 21.922,31.848 22.104,31.503 C 22.264,31.198 22.027,31.11 22.184,30.919 C 22.274,30.809 22.414,30.661 22.515,30.557 C 23.445,29.595 23.259,29.79 22.009,29.417 C 22.314,29.315 23.189,29.241 23.553,29.19 L 25.897,28.868 C 26.257,28.822 26.267,28.714 26.455,28.521 C 26.56,28.413 26.841,28.169 26.865,28.021 C 26.905,27.806 26.922,27.351 26.8,27.211 C 26.65,27.137 26.376,27.169 26.188,27.171 C 25.922,27.175 25.892,27.263 25.762,27.397 C 25.291,27.88 25.456,27.82 24.969,27.864 C 24.592,27.896 22.887,28.074 22.66,28.054 Z M 37.948,31.214 C 38.014,31.118 38.074,31.042 38.214,31.204 C 38.196,31.481 37.979,31.439 37.948,31.214 Z M 34.436,31.366 C 34.347,31.39 34.296,31.386 34.226,31.344 C 34.171,31.146 34.233,31.1 34.421,31.142 A 0.28,0.28 0 0,1 34.436,31.366 Z M 44.895,30.521 C 45.009,30.453 45.011,30.435 45.115,30.525 C 45.139,30.609 45.125,30.651 45.092,30.721 C 44.926,30.753 44.85,30.703 44.895,30.521 Z M 36.292,30.473 C 36.373,30.601 36.369,30.591 36.294,30.727 C 36.168,30.735 36.089,30.741 36.083,30.613 C 36.073,30.471 36.168,30.465 36.292,30.473 Z M 36.724,28.576 C 36.819,28.503 36.871,28.511 36.968,28.576 C 36.974,28.712 36.97,28.806 36.83,28.794 C 36.705,28.782 36.712,28.71 36.724,28.576 Z M 31.934,26.816 C 31.711,26.876 31.604,26.726 31.73,26.604 C 31.877,26.46 31.976,26.63 31.933,26.816 Z M 30.835,28.219 L 32.673,28.385 C 33.853,28.491 35.182,28.553 36.325,28.715 L 36.425,28.922 C 36.538,29.122 36.77,29.222 37.009,29.138 C 37.487,28.972 37.437,28.195 36.892,28.151 C 36.666,28.131 36.608,28.219 36.486,28.303 C 36.34,28.403 35.709,28.283 35.492,28.265 L 33.898,28.123 C 33.675,28.071 33.398,27.269 33.14,27.137 A 7.644,7.644 0 0,0 32.317,26.804 C 32.319,26.538 32.257,26.406 32.098,26.288 A 0.482,0.482 0 0,0 31.558,26.276 C 31.228,26.474 31.261,27.026 31.633,27.179 C 31.941,27.305 31.997,27.107 32.197,27.149 C 32.282,27.167 32.577,27.305 32.685,27.351 C 32.937,27.458 32.946,27.4 33.09,27.636 C 33.17,27.764 33.276,27.926 33.342,28.055 C 32.925,28.105 31.534,27.908 31.006,27.862 C 30.699,27.836 30.692,27.876 30.526,27.698 C 30.188,27.339 30.116,27.173 29.779,27.173 C 29.597,27.173 29.349,27.141 29.204,27.211 C 29.101,27.335 29.096,27.866 29.144,28.051 C 29.179,28.185 29.46,28.429 29.566,28.539 C 29.764,28.744 29.754,28.828 30.138,28.874 L 32.451,29.193 C 32.933,29.259 33.516,29.309 33.995,29.413 C 33.698,29.519 33.061,29.591 32.915,29.786 C 32.832,29.99 33.468,30.531 33.628,30.709 C 33.723,30.815 33.791,30.906 33.9,30.984 C 33.828,31.294 33.826,31.487 34.035,31.659 C 34.457,32.005 35.042,31.479 34.76,30.984 C 34.643,30.779 34.452,30.767 34.157,30.754 L 33.444,29.966 C 33.824,29.826 34.291,29.731 34.684,29.619 C 35.159,29.485 35.546,29.639 36.042,29.683 C 36.042,29.772 36.05,29.87 36.048,29.956 C 36.04,30.329 35.866,30.06 35.753,30.431 C 35.664,30.729 35.821,31.01 36.059,31.084 C 36.534,31.234 36.865,30.737 36.645,30.331 C 36.453,29.978 36.389,30.405 36.412,29.738 L 37.906,29.942 L 37.898,30.765 C 37.733,30.902 37.549,31.028 37.601,31.342 C 37.638,31.572 37.824,31.763 38.084,31.763 C 38.51,31.765 38.872,31.193 38.264,30.763 L 38.272,29.994 C 38.806,30.058 39.198,30.146 39.767,30.12 C 39.943,30.112 40.403,30.06 40.54,30.106 L 42.85,31.906 C 43.221,32.21 43.147,32.1 43.884,31.653 C 44.087,31.529 44.678,31.07 44.891,31.093 C 45.474,31.158 45.699,30.547 45.335,30.224 C 45.089,30.006 44.432,30.006 44.542,30.814 C 44.316,30.892 43.496,31.494 43.167,31.664 L 40.927,29.93 C 40.492,29.563 40.437,29.733 39.513,29.762 C 39.203,29.772 38.82,29.693 38.512,29.652 L 30.167,28.503 C 29.967,28.471 29.946,28.395 29.841,28.285 C 29.423,27.852 29.489,28.011 29.487,27.544 C 29.679,27.542 29.801,27.506 29.923,27.61 C 30.339,27.973 30.225,28.163 30.835,28.219 Z" fill="rgb(254, 254, 253)"/>
<path d="M 35.598,27.201999999999998 C 35.87,27.311 35.695,27.625 35.468,27.405 C 35.49,27.255 35.478,27.259 35.608,27.217 Z M 39.446,25.311 A 0.135,0.135 0 0,1 39.444,25.508 C 39.334,25.618 39.145,25.465 39.269,25.331 C 39.309,25.287 39.356,25.219 39.446,25.311 Z M 30.058,24.568 C 30.072,24.898 29.853,24.804 29.818,24.712 C 29.731,24.49 29.973,24.524 30.058,24.568 Z M 41.131,24.205 C 41.092,24.023 41.143,23.947 41.325,24.001 C 41.441,24.091 41.309,24.241 41.309,24.243 L 41.131,24.205 Z M 45.671,22.943 C 45.433,22.917 45.466,22.703 45.6,22.677 C 45.811,22.639 45.803,22.833 45.672,22.943 Z M 42.479,22.879 C 42.535,22.829 42.371,22.837 42.557,22.851 L 42.479,22.879 Z M 42.479,22.879 L 41.598,23.589 C 41.445,23.699 41.538,23.654 41.369,23.624 C 40.614,23.484 40.575,24.472 41.104,24.6 C 41.666,24.736 41.71,24.217 41.737,23.949 L 43.56,22.54 C 43.876,22.296 43.833,22.386 44.544,22.635 C 44.666,22.677 44.767,22.713 44.894,22.755 C 45.228,22.865 45.114,22.809 45.168,22.953 C 45.253,23.186 45.381,23.352 45.703,23.313 C 46.456,23.226 46.107,21.907 45.335,22.418 C 45.259,22.468 45.34,22.52 44.992,22.394 C 43.454,21.834 43.911,21.904 42.266,22.538 C 41.816,22.713 41.36,22.883 40.912,23.063 C 40.133,23.376 38.958,23.893 38.162,23.997 C 37.075,24.139 35.974,24.277 34.886,24.42 C 34.339,24.492 33.809,24.508 33.344,24.716 C 32.916,24.908 32.494,25.096 32.067,25.283 C 31.228,25.652 30.312,26.018 29.5,26.419 C 29.46,26.159 29.603,25.972 29.152,25.664 C 29.229,25.59 29.2,25.632 29.353,25.58 C 29.586,25.502 29.643,25.257 29.826,25.187 C 29.878,25.167 30.457,25.183 30.426,24.617 C 30.391,23.985 29.241,23.883 29.512,24.951 C 29.105,25.494 28.869,25.055 28.534,25.297 C 28.408,25.475 28.784,25.78 28.952,25.948 C 29.082,26.075 29.126,26.067 29.13,26.319 C 29.138,27.133 29.107,27.012 30.761,26.271 C 30.957,26.183 32.243,25.596 32.323,25.59 C 32.528,25.574 34.81,27.134 35.116,27.239 C 35.128,28.03 35.864,28.022 36.062,27.565 A 0.509,0.509 0 0,0 35.856,26.922 C 35.494,26.7 35.473,27.05 35.17,26.858 L 32.79,25.391 C 32.914,25.299 33.522,25.043 33.698,24.975 C 33.908,24.895 37.003,24.515 37.276,24.494 C 37.276,25.059 37.29,24.954 38.227,24.953 C 38.624,24.953 38.667,24.897 38.907,25.139 C 38.896,25.337 38.824,25.509 38.942,25.696 C 39.306,26.265 40.182,25.664 39.744,25.091 C 39.599,24.901 39.541,24.947 39.271,24.907 C 39.112,24.883 39.01,24.7 38.871,24.622 C 38.691,24.52 37.921,24.616 37.761,24.582 C 37.65,24.56 37.687,24.596 37.642,24.508 C 37.685,24.426 37.658,24.46 37.756,24.426 L 38.301,24.356 C 39.039,24.261 39.378,24.067 40.129,23.771 C 40.486,23.624 42.249,22.893 42.479,22.879 Z M 20.258,27.357 C 20.342,27.121 20.528,27.217 20.524,27.355 C 20.522,27.504 20.34,27.588 20.258,27.357 Z M 16.525,25.468 C 16.452,25.27 16.719,25.209 16.767,25.366 C 16.826,25.55 16.576,25.6 16.525,25.468 Z M 26.182,24.578 C 26.213,24.833 26.087,24.823 25.94,24.738 C 25.913,24.49 26.054,24.49 26.182,24.578 Z M 14.652,24.216 C 14.575,23.896 14.937,23.853 14.869,24.222 L 14.652,24.216 Z M 13.521,22.881 L 13.451,22.839 C 13.626,22.821 13.482,22.825 13.521,22.882 Z M 10.456,22.707 C 10.631,23.027 10.104,23.046 10.278,22.675 L 10.456,22.707 Z M 13.521,22.881 C 13.678,22.887 16.504,24.001 17.019,24.211 C 17.287,24.32 17.717,24.358 18.027,24.394 C 18.459,24.442 18.313,24.414 18.364,24.504 C 18.315,24.594 18.377,24.54 18.273,24.572 C 18.103,24.625 17.327,24.504 17.132,24.619 C 17.008,24.693 16.897,24.869 16.76,24.897 C 16.502,24.953 16.4,24.897 16.254,25.081 C 15.838,25.614 16.636,26.263 17.041,25.711 C 17.182,25.516 17.107,25.35 17.095,25.133 C 17.339,24.891 17.366,24.947 17.771,24.947 C 18.712,24.949 18.721,25.039 18.721,24.488 C 18.945,24.502 22.06,24.887 22.273,24.955 C 22.426,25.005 23.113,25.314 23.207,25.384 L 20.872,26.82 C 20.514,27.06 20.533,26.698 20.163,26.902 A 0.516,0.516 0 0,0 19.925,27.532 C 20.08,27.984 20.865,28.062 20.884,27.239 C 21.246,27.079 23.478,25.59 23.646,25.582 C 23.933,25.57 26.442,26.936 26.796,26.866 C 26.963,26.596 26.782,26.271 26.92,26.071 C 27.044,25.891 28.003,25.207 27.156,25.221 C 26.73,25.228 26.674,25.181 26.478,24.955 C 26.581,24.601 26.573,24.31 26.244,24.182 C 25.706,23.973 25.353,24.637 25.721,25.022 C 25.888,25.194 25.94,25.119 26.143,25.176 C 26.411,25.25 26.253,25.422 26.73,25.6 L 26.817,25.642 C 26.825,25.646 26.837,25.654 26.847,25.662 A 1.624,1.624 0 0,0 26.581,25.909 C 26.471,26.035 26.509,26.219 26.509,26.412 C 26.201,26.322 25.769,26.097 25.459,25.959 L 23.354,25.025 C 21.963,24.398 22.467,24.592 20.954,24.398 C 20.049,24.28 17.591,24.033 17.014,23.807 C 15.561,23.238 14.121,22.687 12.664,22.12 C 12.097,21.898 12.085,22.016 11.516,22.216 C 11.312,22.288 11.144,22.338 10.95,22.413 C 10.565,22.557 10.762,22.323 10.396,22.303 C 9.586,22.258 9.806,23.609 10.569,23.276 A 0.38,0.38 0 0,0 10.769,23.11 L 10.855,22.904 C 10.946,22.724 11.659,22.563 11.882,22.484 C 12.306,22.336 12.136,22.31 12.742,22.777 C 13.246,23.164 13.769,23.525 14.261,23.945 C 14.278,24.162 14.284,24.703 14.865,24.607 C 15.218,24.547 15.385,24.047 15.123,23.759 C 14.834,23.439 14.646,23.747 14.422,23.601 L 13.565,22.931 C 13.529,22.893 13.535,22.901 13.521,22.881 Z M 35.519,32.448 C 35.779,32.344 35.775,32.59 35.686,32.657 C 35.556,32.751 35.409,32.622 35.519,32.448 Z M 29.206,29.142 C 29.072,29.347 29.126,29.82 29.126,30.134 C 29.128,30.624 29.115,30.597 28.931,30.969 C 28.811,31.214 28.706,31.439 28.584,31.685 C 28.45,31.959 28.499,32.274 28.499,32.615 C 28.499,33.177 28.462,36.587 28.503,36.824 C 28.533,37.008 28.72,37.056 28.82,36.928 C 28.915,36.808 28.863,32.738 28.86,32.242 C 28.857,31.835 28.954,31.751 29.103,31.44 C 29.69,30.234 29.409,30.89 29.493,29.765 C 29.746,29.992 30.006,30.298 30.258,30.555 C 30.438,30.739 30.442,30.763 30.574,31.042 C 30.659,31.224 30.74,31.378 30.825,31.559 C 31.12,32.184 31.046,32.027 31.639,32.312 C 33.202,33.059 34.903,33.78 36.449,34.524 C 36.627,34.608 36.833,34.768 36.97,34.612 C 37.065,34.478 37.055,31.983 36.982,31.751 C 36.604,31.653 36.296,32.071 35.978,32.14 C 35.848,32.168 35.708,31.96 35.411,32.08 C 34.787,32.328 35.256,33.438 35.901,32.959 C 36.127,32.793 36.027,32.606 36.149,32.476 C 36.191,32.43 36.573,32.256 36.66,32.226 V 34.196 C 36.348,34.109 35.86,33.843 35.552,33.702 A 55.02,55.02 0 0,1 34.489,33.212 C 34.231,33.089 31.387,31.817 31.309,31.722 C 31.221,31.617 30.882,30.855 30.792,30.667 C 30.628,30.322 30.302,30.072 30.068,29.821 C 29.93,29.673 29.816,29.557 29.677,29.411 C 29.547,29.277 29.456,29.096 29.206,29.142 Z M 20.305,32.424 C 20.446,32.418 20.376,32.384 20.499,32.466 C 20.547,32.584 20.51,32.608 20.459,32.684 C 20.227,32.684 20.237,32.578 20.305,32.424 Z M 19.018,31.754 C 18.924,32.019 18.976,33.296 18.976,33.69 C 18.976,34.842 18.889,34.814 19.7,34.458 C 20.212,34.233 24.857,32.108 24.936,32.021 C 25.132,31.807 25.378,31.006 25.587,30.731 C 25.824,30.423 26.287,30.086 26.496,29.777 C 26.544,30.037 26.49,30.317 26.511,30.581 C 26.525,30.747 26.895,31.448 26.99,31.643 C 27.14,31.949 27.139,31.889 27.139,32.282 V 36.542 C 27.139,36.75 27.1,36.946 27.273,36.986 C 27.495,37.038 27.499,36.846 27.499,36.656 L 27.495,31.919 C 27.443,31.454 26.868,30.996 26.87,30.209 C 26.872,29.882 26.936,29.361 26.794,29.142 C 26.531,29.096 26.44,29.292 26.302,29.435 C 25.988,29.759 25.357,30.34 25.202,30.669 C 24.561,32.015 24.952,31.621 23.639,32.236 C 22.926,32.57 22.207,32.883 21.504,33.213 C 21.159,33.376 19.563,34.133 19.332,34.195 L 19.334,32.224 C 20.192,32.508 19.743,32.719 20.111,32.975 C 20.495,33.243 20.931,32.907 20.881,32.476 A 0.504,0.504 0 0,0 20.528,32.062 C 20.238,31.982 20.154,32.172 20.016,32.142 C 19.731,32.079 19.348,31.635 19.019,31.755 Z" fill="rgb(254, 254, 253)"/>
<path d="M 46.161,25.489 C 46.125,25.458 46.133,25.47 46.136,25.4 C 46.146,25.256 46.131,25.378 46.181,25.328 C 46.224,25.284 46.271,25.221 46.357,25.316 C 46.471,25.436 46.299,25.632 46.171,25.504 Z M 42.384,25.5 C 42.344,25.305 42.392,25.256 42.58,25.296 A 0.276,0.276 0 0,1 42.601,25.518 A 0.263,0.263 0 0,1 42.384,25.5 Z M 42.02,25.656 L 39.436,28.315 C 39.312,28.443 39.12,28.549 39.225,28.805 C 39.465,28.888 41.447,28.305 41.838,28.207 C 42.225,28.11 44.268,27.632 44.465,27.515 C 44.699,27.379 45.91,25.897 46.119,25.901 C 46.419,25.905 46.555,25.899 46.691,25.668 C 46.971,25.185 46.388,24.688 45.97,24.997 C 45.753,25.157 45.79,25.334 45.788,25.664 L 44.744,26.73 C 44.593,26.884 44.41,27.155 44.178,27.219 L 39.992,28.291 L 41.989,26.213 C 42.514,25.678 42.173,25.997 42.619,25.905 C 43.233,25.776 43.023,24.69 42.326,24.929 C 41.977,25.047 42.03,25.284 42.02,25.656 Z M 9.83,25.312 C 9.889,25.372 9.885,25.448 9.827,25.506 C 9.713,25.62 9.519,25.472 9.652,25.328 C 9.693,25.284 9.742,25.22 9.831,25.312 Z M 13.407,25.316 A 0.13,0.13 0 0,1 13.597,25.308 C 13.711,25.422 13.614,25.584 13.393,25.516 C 13.378,25.438 13.345,25.386 13.407,25.316 Z M 15.985,28.221 C 16.072,28.297 16.049,28.123 16.049,28.289 C 16.043,28.293 16.034,28.301 16.029,28.303 A 0.062,0.062 0 0,0 16.012,28.309 L 15.979,28.291 C 15.301,28.161 13.459,27.641 12.651,27.434 C 12.378,27.364 12.097,27.304 11.821,27.219 C 11.521,27.127 10.579,25.919 10.214,25.66 C 10.203,25.34 10.249,25.154 10.03,24.995 A 0.522,0.522 0 0,0 9.403,25.035 C 9.215,25.205 9.021,25.909 9.877,25.905 C 9.993,25.905 10.032,25.989 10.106,26.067 C 10.179,26.145 10.228,26.193 10.303,26.271 L 10.714,26.698 C 10.857,26.846 11.425,27.472 11.557,27.532 L 16.165,28.728 C 16.268,28.754 16.565,28.852 16.657,28.834 C 17.097,28.756 16.471,28.223 16.471,28.223 L 14.304,25.983 C 13.978,25.638 13.972,25.733 13.99,25.454 C 14.01,25.172 13.866,24.995 13.672,24.931 C 13.091,24.739 12.798,25.498 13.207,25.821 C 13.3,25.893 13.391,25.921 13.547,25.913 C 13.74,25.903 13.691,25.877 13.811,26.009 C 14.083,26.299 15.888,28.187 15.985,28.221 Z M 18.422,27.277 C 18.497,27.195 18.59,27.225 18.666,27.277 C 18.687,27.58 18.402,27.587 18.422,27.277 Z M 15.233,25.873 C 15.107,25.825 15.073,25.775 15.138,25.613 L 15.326,25.63 C 15.402,25.777 15.369,25.823 15.233,25.873 Z M 20.316,25.286 C 20.626,25.26 20.529,25.502 20.45,25.534 C 20.268,25.61 20.233,25.422 20.316,25.286 Z M 16.665,27.069 C 16.442,26.905 16.006,26.298 15.658,26.035 C 15.903,24.985 14.908,25.079 14.762,25.575 C 14.666,25.907 14.871,26.183 15.136,26.229 C 15.568,26.304 15.245,26.125 15.78,26.676 C 15.954,26.856 16.11,27.043 16.283,27.229 C 16.456,27.417 16.657,27.586 16.826,27.779 C 17,27.977 17.166,28.165 17.346,28.349 C 17.451,28.457 17.508,28.525 17.606,28.636 C 17.706,28.748 17.75,28.836 17.951,28.826 C 18.125,28.704 18.369,28.123 18.462,27.876 C 19.437,27.714 19.03,26.732 18.437,26.852 C 18.135,26.915 17.968,27.233 18.102,27.57 C 18.18,27.76 18.137,27.718 18.038,27.924 C 17.984,28.037 17.901,28.207 17.856,28.317 L 16.938,27.353 C 17.021,27.209 17.213,27.057 17.325,26.927 C 17.461,26.772 17.583,26.64 17.726,26.487 C 17.896,26.307 17.883,26.215 18.18,26.145 L 19.824,25.769 C 20.026,25.721 19.975,25.729 20.111,25.823 C 20.539,26.121 21.079,25.648 20.824,25.161 A 0.487,0.487 0 0,0 20.284,24.911 C 19.917,24.977 20,25.221 19.88,25.35 C 19.79,25.448 18.788,25.626 18.583,25.672 C 17.657,25.885 18.002,25.721 17.483,26.203 L 16.888,26.848 C 16.839,26.901 16.829,26.921 16.787,26.967 C 16.704,27.065 16.775,27.015 16.665,27.069 Z" fill="rgb(254, 254, 253)"/>
<path d="M 37.32,27.265 C 37.402,27.191 37.487,27.22 37.559,27.27 C 37.649,27.522 37.474,27.534 37.326,27.433 L 37.33,27.279 Z M 40.765,25.873 C 40.625,25.809 40.612,25.773 40.678,25.598 L 40.86,25.628 C 40.93,25.778 40.897,25.823 40.765,25.873 Z M 35.531,25.536 C 35.44,25.364 35.431,25.268 35.693,25.282 C 35.749,25.418 35.775,25.446 35.643,25.546 L 35.531,25.536 Z M 38.045,28.832 C 38.229,28.902 38.498,28.515 38.649,28.351 C 39.159,27.794 39.742,27.223 40.219,26.678 C 40.691,26.135 40.575,26.273 40.864,26.231 C 41.602,26.121 41.199,24.887 40.521,25.288 C 40.226,25.462 40.279,25.708 40.339,26.035 C 39.976,26.328 39.593,26.876 39.333,27.069 C 39.176,26.987 38.874,26.588 38.727,26.426 C 38.605,26.293 38.216,25.865 38.09,25.826 L 36.108,25.384 C 36.03,25.085 35.905,24.863 35.538,24.905 C 34.87,24.983 35.044,26.095 35.738,25.899 C 35.897,25.855 35.93,25.744 36.06,25.749 L 37.317,26.033 C 37.466,26.067 37.596,26.097 37.727,26.129 C 37.937,26.175 37.96,26.157 38.084,26.277 L 39.062,27.355 C 38.99,27.485 38.712,27.724 38.599,27.852 C 38.475,27.992 38.297,28.239 38.142,28.319 A 38.82,38.82 0 0,0 37.954,27.932 C 37.851,27.724 37.824,27.754 37.898,27.578 C 38.033,27.248 37.867,26.918 37.561,26.856 C 37.218,26.786 36.968,27.026 36.966,27.357 C 36.964,27.774 37.264,27.847 37.538,27.878 C 37.611,28.113 37.902,28.718 38.045,28.832 Z M 45.6,31.769 C 45.807,31.789 45.844,31.967 45.635,32.044 L 45.501,31.954 C 45.519,31.801 45.513,31.834 45.6,31.769 Z M 47.392,30.653 C 47.339,30.459 47.583,30.419 47.636,30.555 C 47.711,30.749 47.432,30.803 47.392,30.653 Z M 42.599,30.068 C 42.291,30.142 42.26,29.776 42.589,29.842 C 42.621,29.922 42.623,29.978 42.599,30.068 Z M 48,30.791 V 30.419 C 47.822,30.204 47.806,30.082 47.432,30.106 C 47.262,30.118 47.285,30.098 47.179,29.982 C 47.099,29.896 47.045,29.842 46.964,29.758 C 46.254,29.03 46.448,29.084 45.894,29.178 C 44.908,29.347 43.887,29.558 42.901,29.688 C 42.613,29.186 41.846,29.518 42.024,30.122 C 42.136,30.505 42.651,30.559 42.859,30.302 C 42.999,30.132 42.857,30.126 43.043,30.046 L 46.078,29.533 C 46.074,30.323 46.162,30.365 45.912,30.869 C 45.879,30.936 45.675,31.329 45.658,31.346 C 45.524,31.479 45.348,31.38 45.211,31.625 C 44.804,32.342 45.951,32.739 46.107,32.033 C 46.163,31.785 46.037,31.673 45.989,31.507 C 46.109,31.297 46.264,31.004 46.373,30.787 C 46.499,30.535 46.433,30.12 46.444,29.802 C 46.617,29.892 46.725,30.054 46.864,30.194 C 47.224,30.557 46.934,30.331 47.043,30.751 A 0.47,0.47 0 0,0 47.496,31.114 C 47.826,31.12 47.862,30.936 48,30.791 Z M 10.398,31.765 C 10.497,31.837 10.532,31.865 10.458,32.009 L 10.276,32.037 C 10.226,31.891 10.203,31.793 10.398,31.765 Z M 8.376,30.489 C 8.447,30.473 8.511,30.441 8.576,30.505 A 0.14,0.14 0 0,1 8.577,30.697 C 8.461,30.827 8.308,30.709 8.376,30.489 Z M 13.412,29.842 C 13.716,29.778 13.67,30.012 13.562,30.074 C 13.412,30.16 13.347,29.996 13.412,29.842 Z M 10.007,31.505 C 9.957,31.679 9.819,31.807 9.895,32.06 A 0.502,0.502 0 0,0 10.292,32.406 C 10.739,32.462 11.012,31.976 10.772,31.599 C 10.646,31.402 10.429,31.459 10.322,31.324 C 10.296,31.29 10.112,30.924 10.071,30.844 C 9.842,30.413 9.916,30.194 9.916,29.529 C 10.522,29.591 11.206,29.741 11.82,29.849 C 12.128,29.904 12.461,29.964 12.773,30.009 C 13.068,30.056 12.979,30.012 13.095,30.232 A 0.438,0.438 0 0,0 13.42,30.455 C 13.75,30.511 14.019,30.246 13.997,29.908 A 0.494,0.494 0 0,0 13.347,29.469 C 13.126,29.541 13.187,29.679 12.992,29.671 C 12.901,29.667 12.649,29.611 12.531,29.591 C 12.221,29.539 11.915,29.485 11.609,29.433 C 9.459,29.066 9.846,28.9 9.124,29.661 C 8.787,30.016 8.773,30.112 8.534,30.098 C 7.717,30.048 7.899,31.356 8.661,31.076 C 9.118,30.907 8.885,30.485 8.986,30.338 C 9.067,30.22 9.439,29.854 9.554,29.791 C 9.569,30.791 9.463,30.511 10.007,31.504 Z M 13.96,34.486 C 13.9,34.287 13.964,34.249 14.15,34.286 C 14.243,34.47 14.15,34.618 13.96,34.486 Z M 17.823,33.304 C 17.74,33.151 17.783,33.109 17.918,33.061 C 18.044,33.113 18.088,33.155 18.009,33.318 L 17.823,33.304 Z M 16.266,34.319 C 16.396,33.77 16.969,32.536 16.736,32.392 C 16.568,32.29 15.504,33.143 15.241,33.328 C 13.947,34.229 14.551,33.891 14.051,33.891 A 0.436,0.436 0 0,0 13.661,34.101 C 13.298,34.654 14.048,35.193 14.429,34.748 C 14.571,34.584 14.519,34.462 14.575,34.268 L 15.417,33.658 C 15.63,33.504 16.072,33.158 16.281,33.061 C 16.201,33.414 15.801,34.331 15.855,34.608 C 16.075,34.778 16.635,34.692 16.953,34.692 C 17.283,34.692 17.823,34.75 18.069,34.634 C 18.122,34.419 18.099,33.994 18.099,33.728 C 18.191,33.54 18.469,33.522 18.404,33.118 A 0.49,0.49 0 0,0 17.92,32.694 C 17.352,32.692 17.252,33.492 17.742,33.674 L 17.74,34.321 L 16.266,34.319 Z M 42.037,34.488 C 41.737,34.676 41.708,34.138 42.065,34.305 L 42.037,34.488 Z M 38.144,33.071 C 38.204,33.137 38.186,33.093 38.217,33.21 C 38.15,33.396 38.031,33.374 37.95,33.24 C 37.97,33.087 37.987,33.065 38.144,33.071 Z M 37.96,34.664 C 38.27,34.732 38.737,34.69 39.083,34.69 C 39.391,34.69 39.945,34.776 40.145,34.606 C 40.211,34.311 39.792,33.41 39.721,33.061 L 41.433,34.263 C 41.47,34.48 41.466,34.652 41.584,34.77 C 41.994,35.183 42.706,34.61 42.34,34.1 A 0.48,0.48 0 0,0 41.915,33.89 C 41.645,33.909 41.72,34.029 41.474,33.845 C 41.23,33.662 41.009,33.512 40.757,33.328 C 40.501,33.139 40.259,32.988 40.013,32.801 C 38.969,32.003 39.116,32.426 39.428,33.368 C 39.527,33.668 39.663,34.021 39.734,34.321 L 38.256,34.319 V 33.674 C 38.762,33.478 38.64,32.659 38.043,32.697 A 0.494,0.494 0 0,0 37.588,33.149 C 37.549,33.53 37.799,33.539 37.896,33.73 C 37.9,34.029 37.857,34.444 37.96,34.664 Z" fill="rgb(254, 254, 253)"/>
<path d="M 11.719,32.643 A 0.305,0.305 0 0,1 11.51,32.652 C 11.456,32.322 11.685,32.43 11.708,32.448 C 11.781,32.562 11.76,32.532 11.729,32.658 Z M 9.178,32.44 C 9.28,32.578 9.246,32.78 9.044,32.688 C 8.949,32.644 8.92,32.428 9.178,32.44 Z M 9.585,32.725 C 9.703,31.961 8.872,31.881 8.666,32.344 A 0.526,0.526 0 0,0 8.845,33.001 C 9.129,33.195 9.112,32.923 9.575,33.135 L 12.791,34.665 C 13.015,34.734 13.174,34.598 12.895,34.185 C 12.63,33.79 12.426,33.418 12.163,33.015 C 12.045,32.833 12.039,32.911 12.091,32.705 C 12.208,32.24 11.805,31.949 11.454,32.077 C 10.966,32.256 10.989,33.123 11.768,33.051 C 11.888,33.34 12.283,33.796 12.358,34.049 L 9.585,32.724 Z M 46.954,32.44 C 47.082,32.588 47.012,32.773 46.826,32.688 C 46.726,32.642 46.7,32.43 46.954,32.44 Z M 44.286,32.436 L 44.469,32.43 C 44.532,32.56 44.527,32.628 44.383,32.69 C 44.252,32.648 44.207,32.594 44.286,32.436 Z M 44.23,33.051 C 45.025,33.115 45.011,32.266 44.577,32.083 C 44.273,31.955 44.031,32.133 43.932,32.338 C 43.854,32.502 43.885,32.574 43.918,32.728 C 43.953,32.891 43.908,32.897 43.822,33.037 C 43.572,33.434 43.343,33.82 43.089,34.205 C 42.973,34.381 42.805,34.812 43.235,34.655 C 43.393,34.6 43.707,34.435 43.874,34.351 A 83.782,83.782 0 0,1 46.444,33.123 C 46.654,33.027 46.576,33.029 46.785,33.061 C 47.307,33.145 47.485,32.638 47.32,32.318 C 47.101,31.885 46.305,31.978 46.413,32.727 L 43.64,34.045 C 43.752,33.746 44.118,33.349 44.23,33.051 Z M 12.998,26.818 C 12.898,26.84 12.841,26.836 12.769,26.796 C 12.721,26.568 12.814,26.554 12.99,26.598 L 12.998,26.818 Z M 12.138,24.222 C 12.062,23.877 12.428,23.867 12.363,24.218 L 12.138,24.222 Z M 12.405,26.464 C 12.401,26.79 12.378,26.979 12.591,27.127 C 13.029,27.433 13.583,26.892 13.298,26.434 C 13.149,26.194 12.949,26.225 12.655,26.211 L 10.702,24.181 C 10.855,24.096 11.09,24.015 11.255,23.947 C 11.531,23.833 11.553,23.739 11.758,23.949 C 11.772,24.238 11.789,24.426 12,24.554 C 12.22,24.687 12.48,24.606 12.614,24.464 C 12.942,24.11 12.664,23.442 12.01,23.659 C 11.56,23.399 11.905,23.264 10.797,23.731 C 9.924,24.099 9.867,23.877 11.485,25.53 C 11.695,25.746 12.205,26.33 12.405,26.464 Z M 43.01,26.814 C 42.973,26.634 43.058,26.456 43.211,26.606 C 43.345,26.734 43.229,26.874 43.01,26.814 Z M 43.86,24.222 C 43.767,24.244 43.715,24.238 43.642,24.195 C 43.599,24.005 43.649,23.947 43.833,23.997 A 0.29,0.29 0 0,1 43.86,24.222 Z M 45.294,24.157 C 45.184,24.342 43.742,25.78 43.465,26.075 C 43.151,26.407 43.161,26.045 42.849,26.285 C 42.683,26.413 42.535,26.674 42.69,26.958 A 0.49,0.49 0 0,0 43.34,27.167 C 43.61,27.037 43.608,26.847 43.593,26.463 L 45.104,24.917 C 45.222,24.797 45.814,24.247 45.807,24.099 C 45.799,23.907 45.522,23.861 45.356,23.793 C 44.042,23.256 44.494,23.373 44.056,23.615 C 43.926,23.687 43.928,23.603 43.736,23.603 C 43.246,23.605 43.089,24.262 43.463,24.53 C 43.62,24.64 43.882,24.65 44.041,24.522 C 44.461,24.178 43.949,23.612 44.721,23.933 C 44.906,24.009 45.114,24.111 45.294,24.157 Z M 27.91,30.505 C 28.086,30.425 28.204,30.579 28.098,30.695 C 27.976,30.827 27.809,30.693 27.91,30.505 Z M 27.927,26.63 C 28.21,26.342 28.164,27.06 27.91,26.8 C 27.788,26.674 27.918,26.64 27.927,26.63 Z M 27.515,26.618 A 0.51,0.51 0 0,0 27.587,26.987 C 27.625,27.043 27.645,27.059 27.691,27.099 C 27.809,27.203 27.821,27.207 27.821,27.207 C 27.813,27.199 27.825,27.201 27.821,27.207 V 30.096 L 27.577,30.343 C 27.391,30.659 27.594,31.123 28.018,31.11 C 28.464,31.096 28.602,30.589 28.414,30.316 L 28.244,30.154 C 28.201,30.118 28.212,30.128 28.181,30.094 L 28.183,27.205 C 28.266,27.127 28.371,27.067 28.431,26.965 C 28.6,26.68 28.437,26.179 27.984,26.195 A 0.493,0.493 0 0,0 27.514,26.618 Z M 13.4,33.091 C 13.492,33.017 13.709,33.067 13.596,33.296 C 13.393,33.408 13.354,33.267 13.401,33.091 Z M 15.915,31.141 C 16.231,31.071 16.246,31.446 15.888,31.366 L 15.915,31.142 Z M 15.386,31.959 C 15.783,31.649 15.671,31.685 15.865,31.737 C 16.405,31.885 16.692,31.228 16.366,30.887 A 0.522,0.522 0 0,0 15.751,30.815 C 15.559,30.933 15.514,31.09 15.524,31.402 L 14.59,32.099 C 14.431,32.214 14.274,32.336 14.112,32.456 C 13.835,32.664 13.819,32.735 13.608,32.706 C 13.04,32.63 12.835,33.246 13.162,33.57 C 13.395,33.798 14.075,33.804 13.976,33.011 L 15.386,31.959 Z M 42.588,33.316 C 42.44,33.344 42.51,33.356 42.396,33.296 C 42.268,33.001 42.731,32.957 42.588,33.316 Z M 39.9,31.164 C 40.033,31.016 40.208,31.236 40.084,31.356 C 39.96,31.479 39.78,31.296 39.9,31.164 Z M 40.475,31.402 C 40.533,30.619 39.825,30.653 39.619,30.91 C 39.315,31.286 39.602,31.875 40.163,31.729 C 40.316,31.689 40.295,31.709 40.431,31.813 L 42.027,33.009 C 41.927,33.697 42.538,33.897 42.857,33.554 C 43.063,33.336 43.098,32.629 42.36,32.711 C 42.16,32.733 42.095,32.605 41.849,32.421 L 40.475,31.403 Z M 23.44,31.144 C 23.733,31.066 23.693,31.32 23.594,31.376 C 23.462,31.452 23.354,31.322 23.441,31.144 Z M 24.725,29.838 C 24.859,29.703 25.02,29.908 24.905,30.026 C 24.787,30.148 24.582,29.98 24.725,29.838 Z M 24.568,30.421 C 24.909,30.425 25.066,30.447 25.225,30.208 C 25.525,29.75 24.945,29.183 24.516,29.513 C 24.306,29.675 24.322,29.852 24.332,30.174 L 23.768,30.771 C 23.438,30.743 23.243,30.755 23.11,30.984 C 22.833,31.456 23.371,31.985 23.813,31.674 C 24.024,31.524 24.033,31.342 24.005,31.02 L 24.568,30.42 Z M 32.575,31.366 C 32.241,31.446 32.237,31.068 32.561,31.142 A 0.307,0.307 0 0,1 32.575,31.366 Z M 31.095,29.837 C 31.228,29.703 31.41,29.9 31.283,30.027 C 31.157,30.152 30.974,29.96 31.094,29.837 Z M 31.665,30.174 C 31.668,29.866 31.703,29.697 31.503,29.529 C 31.077,29.164 30.479,29.741 30.777,30.204 C 30.949,30.474 31.077,30.407 31.42,30.428 C 31.515,30.545 31.918,30.955 32.005,31.012 C 31.915,31.945 32.609,31.831 32.817,31.619 C 33.005,31.426 33.175,30.715 32.245,30.763 L 31.665,30.174 Z M 29.407,23.466 C 29.179,23.314 29.064,23.486 28.733,23.801 C 28.301,24.214 28.336,23.815 27.9,23.901 C 27.356,24.009 27.639,24.094 27.135,23.677 C 27.071,23.623 26.879,23.434 26.813,23.414 C 26.641,23.358 26.509,23.509 26.595,23.677 C 26.637,23.761 27.038,24.12 27.17,24.27 C 27.48,24.625 27.718,24.226 28.08,24.288 C 28.249,24.316 28.373,24.416 28.555,24.414 C 28.766,24.41 28.888,24.18 29.208,23.887 C 29.324,23.781 29.46,23.717 29.408,23.467 Z M 15.985,28.22 L 15.979,28.289 L 16.012,28.306 A 0.06,0.06 0 0,0 16.029,28.3 C 16.031,28.3 16.041,28.29 16.049,28.286 C 16.049,28.121 16.072,28.296 15.985,28.221 Z M 13.521,22.881 C 13.482,22.825 13.626,22.821 13.451,22.839 L 13.521,22.882 Z M 42.479,22.88 L 42.556,22.851 C 42.371,22.837 42.533,22.83 42.479,22.879 Z" fill="rgb(254, 254, 253)"/>
</svg>
