<?xml version="1.0" encoding="UTF-8"?>
<!-- generated by Finnhub -->
<svg viewBox="0 0 55.5 55.5" xmlns="http://www.w3.org/2000/svg">
<path d="M 0,0 H 55.5 V 55.5 H 0 Z" fill="rgb(11, 70, 154)"/>
<path d="M 7.323,31.985 H 5 V 24 H 9.036 L 13.666,29.973 V 24 H 15.998 V 32 H 12.045 L 7.333,25.926 V 32 Z M 24.008,30 C 24.53,30 24.714,30 24.838,29.886 C 24.955,29.78 25.006,29.642 25.006,29.186 V 26.813 C 25.006,26.358 24.956,26.221 24.838,26.113 C 24.714,26 24.53,26 24.008,26 H 19.998 C 19.477,26 19.293,26 19.168,26.114 C 19.051,26.221 19,26.358 19,26.814 V 29.186 C 19,29.642 19.051,29.78 19.169,29.886 C 19.293,29.999 19.477,30 19.998,30 H 24.008 Z M 27.003,29.498 C 27.003,30.578 26.813,30.951 26.497,31.308 C 26.012,31.84 25.308,32 23.952,32 H 20.055 C 18.698,32 17.993,31.84 17.509,31.308 C 17.193,30.951 17.003,30.578 17.003,29.498 V 26.502 C 17.003,25.422 17.193,25.05 17.509,24.692 C 17.993,24.16 18.698,24 20.055,24 H 23.952 C 25.308,24 26.012,24.16 26.497,24.692 C 26.812,25.05 27.003,25.422 27.003,26.502 V 29.498 Z M 34.346,24 H 37.461 L 33.257,27.742 L 38,32 H 34.665 L 30.36,27.828 L 34.346,24 Z M 28,24 H 30.36 V 32 H 28 V 24 Z M 41,24 H 38.575 V 32 H 41 V 24 Z M 45.65,29 H 48.652 L 47.15,25.973 L 45.65,29 Z M 50.198,32 L 49.552,31 H 44.622 L 44.104,32 H 41.436 L 45.717,24 H 48.719 L 53,32 H 50.198 Z" fill="rgb(254, 254, 253)"/>
</svg>
