<?xml version="1.0" encoding="UTF-8"?>
<!-- generated by Finnhub -->
<svg viewBox="0 0 55.5 55.5" xmlns="http://www.w3.org/2000/svg">
<path d="M 0,0 H 55.5 V 55.5 H 0 Z" fill="rgb(40, 61, 62)"/>
<path d="M 3.99,34.985 V 21 H 8 V 22.356 C 9.031,21.474 10.415,20.994 11.756,21 C 13.473,20.995 14.791,21.643 15.892,23 C 16.742,24.054 17,25.7 17,28 V 35 H 13 V 27.417 C 13,25.561 12.196,24.5 10.722,24.5 C 8.949,24.5 8,25.812 8,27.417 V 35 H 4 Z" fill="rgb(128, 180, 159)"/>
<path d="M 25.113999999999997,20.985 A 7.084,7.084 0 0,0 20.988,22.358 A 7.801,7.801 0 0,0 18.274,25.948 A 8.35,8.35 0 0,0 17.911,30.538 A 8.02,8.02 0 0,0 20.025,34.56 C 20.276,34.815 20.605,34.967 20.953,34.986 C 21.301,35.006 21.643,34.891 21.919,34.665 A 5.07,5.07 0 0,1 25.064,33.559 A 5.07,5.07 0 0,1 28.209,34.665 A 1.4,1.4 0 0,0 29.189,34.998 C 29.544,34.978 29.879,34.823 30.133,34.56 A 8.018,8.018 0 0,0 32.242,30.562 A 8.35,8.35 0 0,0 31.901,25.992 A 7.812,7.812 0 0,0 29.226,22.398 A 7.092,7.092 0 0,0 25.124,21 Z M 25,32.5 C 22.903,32.572 21.45,30.937 21.5,28.869 C 21.434,26.761 22.907,25 25,25 S 28.566,26.76 28.5,28.869 C 28.552,30.929 27.088,32.559 25,32.5 Z" fill="rgb(254, 254, 253)"/>
<path d="M 38.99,34.985 H 36 L 31,21 H 35 L 37.5,29 L 40,21 H 43 L 45.5,29 L 48,21 H 52 L 47,35 H 44 L 41.5,27 L 39,35 Z" fill="rgb(128, 180, 159)"/>
</svg>
