<?xml version="1.0" encoding="UTF-8"?>
<!-- generated by Finnhub -->
<svg viewBox="0 0 55.5 55.5" xmlns="http://www.w3.org/2000/svg">
<path d="M 0,0 H 55.5 V 55.5 H 0 Z" fill="rgb(239, 242, 248)"/>
<path d="M 22.99,14.045 A 0.94,0.94 0 0,0 22.68,14 H 14.61 A 0.61,0.61 0 0,0 14,14.61 V 23.33 L 23,14.06 Z M 14.18,41.82 C 14.29,41.93 14.45,42 14.62,42 H 22.43 C 22.77,42 23,41.72 23,41.39 V 32.5 L 14.18,41.81 Z" fill="rgb(12, 175, 73)"/>
<path d="M 32.99,23.314999999999998 V 41.93 C 33.02,41.93 33.04,41.93 33.05,41.95 L 42,32.67 L 33,23.33 Z" fill="rgb(6, 103, 52)"/>
<path d="M 22.99,32.655 V 14.07 C 22.98,14.07 22.96,14.07 22.95,14.05 L 14,23.33 V 41.4 C 14,41.56 14.07,41.72 14.17,41.83 L 23,32.67 Z M 42,32.67 V 14.6 A 0.6,0.6 0 0,0 41.4,13.99 H 33.6 A 0.6,0.6 0 0,0 33,14.6 V 23.32 L 42,32.66 Z M 42,32.67 L 33,41.94 C 33.1,41.98 33.2,42 33.3,42 H 41.4 A 0.6,0.6 0 0,0 42,41.39 V 32.67 Z" fill="rgb(138, 196, 61)"/>
<path d="M 23.259999999999998,14.235 A 0.92,0.92 0 0,0 23,14.08 V 32.67 L 32.73,41.75 C 32.81,41.82 32.9,41.88 33,41.92 V 23.33 L 23.27,14.25 Z" fill="rgb(12, 175, 73)"/>
</svg>
