<?xml version="1.0" encoding="UTF-8"?>
<!-- generated by Finnhub -->
<svg viewBox="0 0 55.5 55.5" xmlns="http://www.w3.org/2000/svg">
<path d="M 0,0 H 55.5 V 55.5 H 0 Z" fill="url(#a)"/>
<path d="M 29.79,25.985 C 26.737,26 25.004,28.106 25,30.594 C 25,33.166 26.441,34.989 29.334,34.989 C 30.422,34.989 31.161,34.755 31.768,34.444 V 34.712 C 31.768,36.447 30.399,37.026 28.978,37.026 C 27.916,37.026 27.084,36.736 26.473,36.494 L 25.839,38.386 C 26.719,38.782 27.929,39 28.868,39 C 31.271,39 32.913,38.07 33.6,36.456 C 33.864,35.842 34,35.198 34,34.056 V 27.185 C 32.91,26.507 31.544,26 29.8,26 Z M 13.953,26.013 C 12.936,26.013 11.906,26.367 11.188,27.091 L 11.122,26 H 9 V 35 H 11.214 V 29.29 C 11.496,28.497 12.478,27.875 13.446,27.875 C 14.463,27.875 15,28.425 15,29.662 V 35 H 17.351 V 29.398 C 17.351,27.168 15.991,26.013 13.953,26.013 Z M 23.869,26.051 C 22.721,26.051 21.826,26.477 21.157,27.291 L 21.104,26 H 19 V 35 H 21.214 V 29.398 C 21.505,28.635 22.328,28.05 23.253,28.05 C 23.609,28.05 24.115,28.118 24.433,28.238 L 25.137,26.29 C 24.749,26.124 24.257,26.051 23.869,26.051 Z M 29.899,27.799 C 30.58,27.799 31.342,28.003 31.769,28.331 V 32.606 C 31.342,32.952 30.607,33.191 29.677,33.191 C 27.969,33.191 27.133,32.071 27.133,30.594 C 27.133,29.06 28.141,27.799 29.898,27.799 Z" fill="rgb(254, 254, 253)"/>
<path d="M 36.99,12.985 H 39 V 16 H 37 Z M 37,16 V 18 H 34 V 16 Z M 42,16 V 18 H 39 V 16 Z" fill="rgb(236, 1, 138)"/>
<path d="M 36.99,20.985 V 23 H 34 V 21 Z" fill="rgb(1, 173, 238)"/>
<path d="M 46.99,20.985 V 23 H 44 V 21 Z" fill="rgb(254, 210, 2)"/>
<path d="M 41.99,20.985 V 23 H 39 V 21 Z" fill="rgb(65, 149, 55)"/>
<path d="M 36.99,17.985 H 39 V 21 H 37 Z" fill="rgb(50, 47, 144)"/>
<path d="M 36.99,22.985 H 39 V 26 H 37 Z" fill="rgb(1, 173, 238)"/>
<path d="M 41.99,22.985 H 44 V 26 H 42 Z M 42,18 H 44 V 21 H 42 Z" fill="rgb(254, 210, 2)"/>
<defs>
<linearGradient id="a" x1="10.418" x2="68.147" y1="9.712" y2="76.017" gradientUnits="userSpaceOnUse">
<stop stop-color="rgb(25, 29, 31)" offset="0"/>
<stop stop-color="rgb(5, 5, 8)" offset="1"/>
</linearGradient>
</defs>
</svg>
