<?xml version="1.0" encoding="UTF-8"?>
<!-- generated by Finnhub -->
<svg viewBox="0 0 55.5 55.5" xmlns="http://www.w3.org/2000/svg">
<path d="M 0,0 H 55.5 V 55.5 H 0 Z" fill="rgb(230, 0, 18)"/>
<path d="M 32.982,31.582 A 0.652,0.652 0 0,1 33.125,32.51 C 28.658,38.498 21.862,38.616 18.992,37.92 A 0.652,0.652 0 1,1 19.3,36.652 C 21.85,37.272 28.026,37.164 32.08,31.73 A 0.653,0.653 0 0,1 32.992,31.597 Z" fill="rgb(254, 254, 253)"/>
<path d="M 37.572,30.181 C 37.942,30.206 38.226,30.506 38.216,30.866 C 38.094,35.419 35.412,38.4 32.216,40.248 C 29.038,42.087 25.288,42.852 22.796,42.998 A 0.652,0.652 0 1,1 22.718,41.698 C 25.066,41.558 28.605,40.831 31.563,39.12 C 34.504,37.418 36.806,34.792 36.912,30.83 C 36.922,30.47 37.222,30.187 37.582,30.196 Z" fill="rgb(254, 254, 253)"/>
<path d="M 11.88,29.123 C 12.245,29.199 12.484,29.536 12.423,29.891 C 12.116,31.683 12.333,34.276 13.913,36.273 C 15.461,38.233 18.445,39.77 23.999,39.238 A 0.652,0.652 0 1,1 24.123,40.536 C 18.279,41.096 14.794,39.492 12.889,37.081 C 11.012,34.708 10.789,31.703 11.137,29.671 A 0.652,0.652 0 0,1 11.89,29.138 Z" fill="rgb(254, 254, 253)"/>
<path d="M 13.826,30.698999999999998 C 14.196,30.69 14.506,30.962 14.531,31.321 C 14.596,32.301 15.132,34.813 17.804,36.047 A 0.652,0.652 0 1,1 17.256,37.231 C 13.956,35.706 13.308,32.601 13.229,31.408 A 0.652,0.652 0 0,1 13.836,30.714 Z M 32.285,30.375 C 31.929,30.462 31.755,30.605 31.716,30.665 L 31.69,30.703 L 31.66,30.738 C 27.476,35.406 23.645,36.118 22.036,35.74 A 0.652,0.652 0 1,1 22.334,34.47 C 23.303,34.698 26.668,34.34 30.661,29.897 C 30.965,29.477 31.487,29.227 31.975,29.108 A 3.397,3.397 0 0,1 33.712,29.138 C 34.308,29.314 34.883,29.688 35.246,30.334 C 35.606,30.975 35.711,31.803 35.53,32.807 C 35.37,33.697 34.85,34.521 34.191,35.252 C 33.527,35.99 32.681,36.678 31.787,37.292 C 30.001,38.522 27.955,39.509 26.609,40.046 A 0.653,0.653 0 0,1 26.125,38.836 C 27.404,38.326 29.359,37.381 31.047,36.219 C 31.891,35.638 32.65,35.016 33.222,34.38 C 33.8,33.739 34.147,33.13 34.246,32.576 C 34.39,31.776 34.278,31.276 34.108,30.972 C 33.94,30.674 33.673,30.487 33.343,30.39 C 33.004,30.29 32.618,30.293 32.285,30.375 Z" fill="rgb(254, 254, 253)"/>
<path d="M 20.163999999999998,21.294999999999998 L 18.61,23.074 C 17.42,24.417 15.731,26.658 16.513,30.451 C 17.109,33.345 19.516,34.224 20.617,34.304 A 0.652,0.652 0 1,1 20.522,35.604 A 6.005,6.005 0 0,1 15.235,30.714 C 14.68,28.019 15.221,25.979 16.023,24.467 C 15.541,24.825 15.103,25.224 14.709,25.636 C 13.758,26.633 13.109,27.67 12.811,28.296 A 0.653,0.653 0 0,1 11.633,27.736 C 11.99,26.986 12.718,25.833 13.765,24.736 C 14.813,23.638 16.215,22.561 17.925,22.021 L 20.174,21.31 Z" fill="rgb(254, 254, 253)"/>
<path d="M 47.99,13.985 L 47.266,16.2 C 46.943,17.17 46.021,18.638 44.507,19.776 C 42.973,20.929 40.817,21.751 38.058,21.369 C 32.956,20.662 26.758,20.657 22.361,25.821 C 21.369,27.021 21.294,27.935 21.427,28.486 C 21.496,28.776 21.627,28.992 21.755,29.131 C 21.866,29.253 21.937,29.278 21.937,29.281 C 22.127,29.297 22.266,29.327 22.387,29.353 C 22.619,29.403 22.789,29.439 23.15,29.343 C 23.665,29.207 24.515,28.743 25.855,27.255 L 25.87,27.238 L 25.887,27.221 C 26.502,26.63 27.435,26.045 28.308,25.566 C 29.182,25.086 30.048,24.685 30.595,24.455 C 30.749,24.375 30.927,24.235 31.015,24.098 C 31.055,24.036 31.061,23.998 31.061,23.983 C 31.061,23.975 31.061,23.938 31.011,23.864 A 0.363,0.363 0 0,0 30.929,23.829 A 1.54,1.54 0 0,0 30.457,23.774 C 30.019,23.779 29.41,23.892 28.687,24.163 C 27.247,24.701 25.442,25.831 23.78,27.76 A 0.653,0.653 0 0,1 22.792,26.91 C 24.591,24.821 26.577,23.56 28.23,22.942 C 29.053,22.634 29.815,22.477 30.444,22.471 C 30.758,22.467 31.061,22.501 31.329,22.588 C 31.594,22.673 31.87,22.825 32.06,23.088 C 32.265,23.371 32.37,23.683 32.365,24.005 A 1.52,1.52 0 0,1 32.113,24.802 C 31.852,25.21 31.444,25.488 31.161,25.63 L 31.141,25.64 L 31.121,25.648 C 30.615,25.86 29.778,26.247 28.937,26.708 C 28.092,27.172 27.294,27.683 26.808,28.145 C 25.408,29.696 24.355,30.372 23.486,30.603 C 22.779,30.791 22.119,30.645 21.89,30.595 C 21.85,30.585 21.823,30.58 21.811,30.579 C 21.41,30.549 21.047,30.289 20.793,30.013 A 2.765,2.765 0 0,1 20.158,28.79 C 19.908,27.753 20.165,26.43 21.358,24.987 L 21.361,24.984 L 21.364,24.98 C 26.229,19.264 33.06,19.36 38.237,20.078 C 40.618,20.408 42.433,19.704 43.723,18.734 A 7.49,7.49 0 0,0 44.363,18.194 C 41.745,19.358 39.201,19.264 37.518,19.083 A 0.652,0.652 0 1,1 37.658,17.787 C 39.804,18.017 43.175,18.067 46.227,15.495 L 48,14 Z" fill="rgb(254, 254, 253)"/>
<path d="M 28.092,18.028 C 31.172,17.322 34.25,17.3 36.164,17.503 A 0.652,0.652 0 1,1 36.026,18.8 C 34.236,18.61 31.308,18.629 28.4,19.312 C 25.483,19.997 22.687,21.325 21.021,23.668 C 19.282,26.115 18.888,27.935 19.008,29.171 C 19.127,30.407 19.763,31.13 20.236,31.417 L 20.265,31.434 L 20.292,31.454 C 20.56,31.657 21.547,32.142 22.856,31.966 C 23.489,31.88 24.147,31.604 24.729,31.27 A 7.398,7.398 0 0,0 26.004,30.354 C 26.697,29.68 27.887,28.767 29.237,27.96 C 30.585,27.154 32.152,26.417 33.592,26.15 C 35.717,25.758 37.516,25.31 38.965,24.746 C 40.418,24.181 41.407,23.525 42.241,22.778 L 43.984,21.118 L 43.261,23.384 C 43.026,24.004 42.41,25.234 41.407,26.482 C 40.403,27.732 38.977,29.042 37.113,29.752 A 0.653,0.653 0 0,1 36.648,28.534 C 38.225,27.933 39.474,26.805 40.39,25.666 L 40.532,25.486 C 40.185,25.655 39.82,25.812 39.438,25.961 C 37.878,26.567 35.988,27.034 33.828,27.433 C 32.611,27.658 31.198,28.306 29.907,29.079 C 28.62,29.849 27.513,30.705 26.909,31.293 L 26.904,31.297 L 26.899,31.302 C 26.589,31.592 26.045,32.018 25.379,32.4 C 24.717,32.78 23.893,33.142 23.031,33.258 C 21.379,33.48 20.068,32.905 19.532,32.515 C 18.714,32.007 17.866,30.922 17.709,29.295 C 17.55,27.651 18.102,25.523 19.957,22.913 C 21.886,20.2 25.041,18.761 28.102,18.043 Z" fill="rgb(254, 254, 253)"/>
</svg>
