<?xml version="1.0" encoding="UTF-8"?>
<!-- generated by Finnhub -->
<svg viewBox="0 0 55.5 55.5" xmlns="http://www.w3.org/2000/svg">
<path d="M 0,0 H 55.5 V 55.5 H 0 Z" fill="rgb(22, 67, 135)"/>
<path d="M 44.989000000000004,30.953 A 0.14,0.14 0 0,1 44.909,31 H 43.146 A 0.145,0.145 0 0,1 43.013,30.922 A 0.134,0.134 0 0,1 43.05,30.76 L 46.266,28.124 A 0.145,0.145 0 0,0 46.266,27.898 L 43.055,25.244 A 0.14,0.14 0 0,1 43.002,25.114 A 0.14,0.14 0 0,1 43.141,25 H 44.837 C 44.869,25 44.901,25.011 44.927,25.032 L 48.427,27.897 L 48.459,27.924 A 0.113,0.113 0 0,1 48.462,28.095 L 48.427,28.126 L 45,30.968 Z" fill="rgb(167, 202, 56)"/>
<path d="M 10.765,24.985 H 9.744 C 9.62,25 9.5,25.101 9.5,25.227 V 28.637 C 9.5,28.717 9.426,28.759 9.367,28.707 L 5.548,25.346 C 5.288,25.116 5.005,25 4.707,25 C 4.443,25 4,25.109 4,25.836 V 30.773 C 4,30.898 4.1,31 4.225,31 H 5.256 C 5.38,31 5.5,30.898 5.5,30.773 V 27.329 C 5.5,27.249 5.573,27.207 5.633,27.259 L 9.492,30.672 C 9.731,30.886 9.991,30.995 10.265,30.995 S 11,30.881 11,30.12 V 25.226 A 0.226,0.226 0 0,0 10.775,25 Z M 18.866,25 H 17.663 C 17.589,25 17.5,25.061 17.5,25.137 V 29.15 C 17.5,29.48 17.128,29.648 16.337,29.648 H 14.701 C 13.895,29.648 13.5,29.481 13.5,29.15 V 25.137 C 13.5,25.061 13.426,25 13.352,25 H 12.134 A 0.136,0.136 0 0,0 12,25.137 V 29.212 C 12,30.784 13.603,31 14.835,31 H 16.165 C 17.389,31 19,30.75 19,29.212 V 25.137 A 0.136,0.136 0 0,0 18.866,25 Z M 26,26.065 V 25.276 C 26,25.124 25.89,25 25.736,25 H 19.683 A 0.277,0.277 0 0,0 19.405,25.276 V 26.066 C 19.405,26.218 19.53,26.342 19.683,26.342 H 21.867 C 21.945,26.342 22,26.404 22,26.482 V 30.724 C 22,30.876 22.132,31 22.285,31 H 23.191 A 0.277,0.277 0 0,0 23.47,30.723 V 26.481 A 0.14,0.14 0 0,1 23.61,26.341 H 25.735 C 25.889,26.341 26,26.218 26,26.065 Z M 27.656,27.88 L 28.425,26.76 C 28.46,26.708 28.535,26.708 28.57,26.758 L 29.348,27.871 C 29.385,27.921 29.348,28 29.286,28 H 27.715 C 27.657,28 27.622,27.927 27.655,27.88 Z M 29.348,25.435 C 29.141,25.146 28.868,25 28.534,25 C 28.206,25 27.934,25.15 27.727,25.444 L 24.024,30.785 C 23.957,30.882 24.037,31 24.147,31 H 25.602 C 25.648,31 25.692,30.976 25.717,30.937 L 26.647,29.509 A 0.11,0.11 0 0,1 26.74,29.459 H 30.31 A 0.11,0.11 0 0,1 30.401,29.508 L 31.352,30.938 A 0.136,0.136 0 0,0 31.466,31 H 32.863 C 32.963,31 33.033,30.87 32.977,30.787 L 29.347,25.435 Z M 40.325,25 H 39.215 C 39.098,25 39.004,25.105 39.004,25.223 V 28.673 A 0.077,0.077 0 0,1 38.876,28.732 L 35.071,25.349 C 34.81,25.12 34.526,25.004 34.226,25.004 C 33.962,25.004 33.518,25.113 33.518,25.84 V 30.78 C 33.518,30.897 33.613,31 33.728,31 H 34.791 A 0.218,0.218 0 0,0 35.003,30.78 V 27.3 C 35.003,27.234 35.081,27.198 35.131,27.242 L 39.024,30.675 C 39.264,30.89 39.524,30.999 39.799,30.999 C 40.075,30.999 40.537,30.885 40.537,30.124 V 25.223 C 40.537,25.105 40.442,25 40.325,25 Z M 42.364,25 H 41.135 A 0.136,0.136 0 0,0 41,25.137 V 30.863 C 41,30.938 41.06,31 41.135,31 H 42.365 A 0.137,0.137 0 0,0 42.5,30.863 V 25.137 A 0.137,0.137 0 0,0 42.364,25 Z M 48.897,27.506 C 48.954,27.553 49.037,27.553 49.093,27.506 L 51.913,25.244 A 0.14,0.14 0 0,0 51.965,25.114 A 0.14,0.14 0 0,0 51.826,25 H 50.123 A 0.147,0.147 0 0,0 50.033,25.032 L 48.053,26.59 A 0.143,0.143 0 0,0 48.053,26.813 L 48.897,27.507 Z M 48.887,28.496 A 0.155,0.155 0 0,1 49.083,28.496 L 51.944,30.753 A 0.14,0.14 0 0,1 51.997,30.883 A 0.14,0.14 0 0,1 51.858,30.997 H 50.155 A 0.146,0.146 0 0,1 50.065,30.965 L 48.098,29.384 A 0.143,0.143 0 0,1 48.098,29.16 L 48.888,28.496 Z" fill="rgb(254, 254, 253)"/>
</svg>
