<?xml version="1.0" encoding="UTF-8"?>
<!-- generated by Finnhub -->
<svg viewBox="0 0 55.5 55.5" xmlns="http://www.w3.org/2000/svg">
<path d="M 0,0 H 55.5 V 55.5 H 0 Z" fill="rgb(110, 178, 19)"/>
<path d="M 3.99,23.474999999999998 S 5.255,24.225 5.963,25.442 C 6.413,26.212 6.518,26.902 6.59,27.125 C 7.99,27.147 8.585,27.733 9.39,29.068 C 9.566,29.358 9.751,29.662 9.928,29.944 A 22.906,22.906 0 0,0 9.124,28.861 C 8.544,28.134 7.797,27.451 6.646,27.429 C 6.381,27.422 6.301,27.422 6.196,27.422 C 6.091,27.422 5.955,27.422 5.536,27.414 C 6.776,28.052 6.872,29.632 7.66,30.656 C 8.384,31.598 9.02,32.384 10.853,32.71 C 11.111,32.755 11.722,32.844 12.003,32.829 C 11.626,32.532 11.328,32.117 10.99,31.59 A 10.845,10.845 0 0,1 10.121,29.654 A 54.935,54.935 0 0,1 9.261,26.717 C 8.915,25.367 8.328,24.129 6.598,23.647 C 6.075,23.506 5.078,23.484 4.483,23.484 C 4.193,23.484 4,23.491 4,23.491 Z" fill="rgb(254, 254, 253)"/>
<path d="M 12.669,23.024 L 10.749,30.22 C 11.143,31.178 11.513,31.973 12.108,32.502 L 14.231,24.636 L 14.248,24.573 C 14.272,24.48 14.28,24.386 14.28,24.293 C 14.272,23.537 13.58,23.055 12.679,23.039 Z M 5.464,27.704 L 4.04,33 H 6.019 L 6.831,29.932 C 6.461,28.923 6.091,28.142 5.464,27.704 Z M 20.16,33 H 18.792 C 18.542,33 18.398,32.903 18.374,32.77 C 18.342,32.637 18.366,32.449 18.43,32.198 A 3.45,3.45 0 0,1 17.481,32.817 C 17.079,33.005 16.581,33.099 15.977,33.099 C 15.269,33.099 14.778,32.958 14.505,32.684 C 14.239,32.41 14.111,32.05 14.135,31.604 A 5.64,5.64 0 0,1 14.232,30.875 C 14.288,30.617 14.344,30.359 14.416,30.108 L 15.494,26.077 C 15.574,26.061 15.664,26.045 15.744,26.037 C 15.896,26.022 16.049,26.014 16.202,26.014 C 16.363,26.014 16.516,26.03 16.669,26.061 A 0.933,0.933 0 0,1 17.063,26.233 A 0.617,0.617 0 0,1 17.288,26.585 C 17.328,26.781 17.312,26.985 17.248,27.173 L 16.484,30.023 A 9.664,9.664 0 0,0 16.347,30.625 A 1.277,1.277 0 0,0 16.339,31.087 A 0.457,0.457 0 0,0 16.572,31.392 C 16.701,31.462 16.894,31.502 17.152,31.502 C 17.505,31.51 17.852,31.432 18.165,31.282 C 18.471,31.134 18.655,30.946 18.712,30.727 L 19.951,26.084 C 20.031,26.069 20.119,26.054 20.2,26.045 C 20.353,26.03 20.506,26.022 20.658,26.022 C 20.819,26.022 20.972,26.038 21.125,26.077 A 0.885,0.885 0 0,1 21.511,26.265 A 0.72,0.72 0 0,1 21.728,26.64 C 21.76,26.844 21.752,27.047 21.688,27.243 L 20.16,33 Z M 22.227,31.707 A 2.032,2.032 0 0,1 22.259,31.124 C 22.299,30.922 22.339,30.713 22.404,30.511 L 24.206,24.067 L 24.439,24.037 L 24.672,24.015 C 24.752,24.008 24.833,24.008 24.914,24.008 C 25.074,24.008 25.227,24.023 25.38,24.052 A 0.88,0.88 0 0,1 25.766,24.217 C 25.879,24.307 25.951,24.427 25.983,24.561 C 26.023,24.748 26.008,24.941 25.943,25.121 L 25.724,25.996 L 27.831,26.003 L 27.437,27.423 L 25.33,27.416 L 24.447,30.481 C 24.262,31.131 24.463,31.453 25.034,31.453 C 25.179,31.453 25.316,31.43 25.453,31.393 C 25.581,31.355 25.71,31.311 25.839,31.258 C 25.943,31.214 26.048,31.161 26.144,31.101 C 26.233,31.049 26.289,31.004 26.329,30.974 C 26.409,31.146 26.474,31.326 26.53,31.505 C 26.57,31.64 26.57,31.782 26.53,31.924 A 0.724,0.724 0 0,1 26.273,32.274 C 26.113,32.402 25.935,32.514 25.743,32.596 A 3.385,3.385 0 0,1 24.986,32.828 C 24.688,32.888 24.383,32.918 24.077,32.918 C 23.45,32.918 22.991,32.806 22.71,32.581 A 1.162,1.162 0 0,1 22.227,31.707 Z M 30.898,26.921 C 31.003,26.821 31.108,26.721 31.22,26.637 C 31.51,26.415 31.84,26.246 32.201,26.138 A 2.17,2.17 0 0,1 33.167,26.085 C 33.287,26.1 33.407,26.138 33.513,26.192 C 33.73,26.292 33.826,26.53 33.746,26.745 C 33.666,26.998 33.545,27.235 33.384,27.458 C 33.223,27.696 33.046,27.934 32.861,28.157 A 1.522,1.522 0 0,0 32.435,27.85 A 1.326,1.326 0 0,0 31.863,27.742 C 31.558,27.742 31.26,27.827 31.011,27.995 C 30.778,28.134 30.609,28.356 30.528,28.609 L 29.33,33 H 27.287 L 29.129,26.246 L 29.314,26.216 A 9.3,9.3 0 0,1 29.531,26.192 C 29.611,26.184 29.708,26.184 29.821,26.184 C 30.094,26.177 30.367,26.238 30.609,26.361 A 0.585,0.585 0 0,1 30.899,26.921 Z M 35.025,32.931 A 1.687,1.687 0 0,1 34.743,32.976 A 8.721,8.721 0 0,1 34.293,32.991 C 33.899,32.991 33.609,32.916 33.4,32.759 C 33.199,32.601 33.159,32.294 33.287,31.829 L 34.847,26.256 C 34.928,26.241 35.017,26.226 35.097,26.219 A 4.69,4.69 0 0,1 35.556,26.196 C 35.716,26.196 35.869,26.211 36.022,26.241 A 0.953,0.953 0 0,1 36.416,26.406 A 0.59,0.59 0 0,1 36.642,26.744 C 36.682,26.931 36.666,27.126 36.602,27.306 L 35.025,32.931 Z M 37.526,24.029 C 37.446,24.321 37.261,24.576 37.003,24.749 A 1.42,1.42 0 0,1 36.151,25.026 C 35.837,25.026 35.604,24.936 35.443,24.749 C 35.283,24.561 35.25,24.321 35.33,24.021 C 35.41,23.729 35.596,23.474 35.853,23.286 C 36.095,23.106 36.4,23.001 36.714,23.001 A 0.851,0.851 0 0,1 37.406,23.286 C 37.566,23.489 37.606,23.729 37.526,24.029 Z M 40.543,31.573 A 2.992,2.992 0 0,0 41.789,31.311 C 41.95,31.244 42.103,31.161 42.248,31.072 C 42.385,30.982 42.505,30.9 42.618,30.833 C 42.714,31.005 42.787,31.184 42.843,31.371 C 42.908,31.543 42.923,31.729 42.891,31.909 C 42.835,32.11 42.658,32.297 42.361,32.461 A 3.95,3.95 0 0,1 41.355,32.842 A 5.575,5.575 0 0,1 39.947,32.999 C 39.497,32.999 39.038,32.947 38.604,32.827 A 2.286,2.286 0 0,1 37.55,32.245 C 37.269,31.968 37.092,31.595 36.995,31.125 C 36.907,30.654 36.963,30.064 37.165,29.354 A 4.705,4.705 0 0,1 37.88,27.845 C 38.178,27.442 38.54,27.091 38.958,26.799 C 39.344,26.53 39.778,26.329 40.237,26.194 A 4.89,4.89 0 0,1 41.557,26 C 42.119,26 42.57,26.082 42.916,26.247 C 43.237,26.388 43.503,26.62 43.688,26.904 C 43.857,27.188 43.953,27.516 43.961,27.845 C 43.969,28.218 43.849,28.794 43.744,29.16 L 43.688,29.354 C 43.664,29.429 43.639,29.504 43.615,29.593 L 43.535,29.84 C 43.511,29.907 43.487,29.94 43.463,30 H 39.047 C 38.942,30.508 39.071,30.75 39.272,31.087 C 39.465,31.393 39.892,31.565 40.542,31.573 Z M 41.934,29 C 42.054,28.56 42.144,27.942 42.031,27.666 C 41.926,27.389 41.629,27.247 41.146,27.247 A 1.624,1.624 0 0,0 40.044,27.643 C 39.73,27.905 39.433,28.522 39.304,29 H 41.934 Z M 46.157,33 H 44.098 L 45.94,26.25 L 46.125,26.219 C 46.19,26.211 46.262,26.203 46.342,26.196 C 46.422,26.188 46.519,26.188 46.632,26.188 C 46.905,26.18 47.179,26.234 47.42,26.349 C 47.63,26.456 47.718,26.649 47.702,26.924 A 3.46,3.46 0 0,1 48.651,26.319 C 49.053,26.134 49.551,26.042 50.155,26.042 C 50.863,26.042 51.354,26.18 51.627,26.449 C 51.892,26.717 52.021,27.07 51.997,27.507 A 5.42,5.42 0 0,1 51.901,28.221 C 51.844,28.474 51.788,28.727 51.716,28.973 L 50.622,33 H 48.578 L 49.648,29.05 C 49.705,28.842 49.753,28.643 49.785,28.466 C 49.817,28.313 49.817,28.16 49.793,28.006 A 0.448,0.448 0 0,0 49.56,27.706 C 49.431,27.638 49.238,27.599 48.98,27.599 A 2.29,2.29 0 0,0 47.967,27.814 C 47.661,27.96 47.477,28.144 47.42,28.359 L 46.157,33 Z" fill="rgb(14, 6, 6)"/>
</svg>
