<?xml version="1.0" encoding="UTF-8"?>
<!-- generated by Finnhub -->
<svg viewBox="0 0 55.5 55.5" xmlns="http://www.w3.org/2000/svg">
<path d="M 0,0 H 55.5 V 55.5 H 0 Z" fill="rgb(130, 9, 207)"/>
<path d="M 20.75,17.985 C 19.02,18 17.53,18.72 16.41,19.95 H 16.17 A 6.17,6.17 0 0,0 10.7,23.47 A 6.8,6.8 0 0,0 10,26.43 V 38 H 15 V 24.71 C 15.08,22.54 15.35,21.12 16.4,19.96 C 19.9,19.96 21.87,22.47 22,26.46 V 38 H 27 V 30.26 V 29.61 C 27,27.55 27,25.76 26.86,24.5 C 26.43,20.6 24.17,18 20.76,18 Z M 35.24,38 C 36.98,38 38.47,37.28 39.59,36.05 H 39.83 A 6.17,6.17 0 0,0 45.3,32.53 C 45.76,31.6 46,30.58 46,29.57 V 18 H 41 V 31.29 C 40.92,33.46 40.65,34.88 39.6,36.04 C 36.1,36.04 34.13,33.53 34,29.54 V 18 H 29 V 26.39 C 29,28.45 29,30.24 29.14,31.5 C 29.57,35.4 31.83,38 35.24,38 Z" fill="rgb(254, 254, 253)"/>
</svg>
