<?xml version="1.0" encoding="UTF-8"?>
<!-- generated by Finnhub -->
<svg viewBox="0 0 55.5 55.5" xmlns="http://www.w3.org/2000/svg">
<path d="M 0,0 H 55.5 V 55.5 H 0 Z" fill="rgb(1, 153, 100)"/>
<path d="M 20.383,24.985 V 29.108 A 21.31,21.31 0 0,1 18.003,29.226 C 17.153,29.226 16.368,29.181 15.607,29.093 L 15.614,25 H 14 V 30.53 C 15.287,30.904 16.67,30.961 18.003,30.961 C 19.331,30.967 20.722,30.922 22,30.525 V 25 M 24,25.435 V 30.568 C 25.293,30.925 26.667,30.994 28.002,31 C 29.332,31 30.711,30.933 32,30.58 V 28.784 C 30.701,29.167 29.325,29.264 27.973,29.264 C 26.801,29.264 26.032,29.196 25.617,29.146 V 26.866 A 19.549,19.549 0 0,1 27.995,26.736 C 29.343,26.736 30.702,26.855 32,27.226 V 25.434 C 30.715,25.061 29.326,25 27.995,25 C 26.668,25 25.281,25.059 24,25.435 Z M 40.408,26.718 V 26.708 L 40.395,29.314 C 39.87,29.383 39.087,29.462 37.992,29.462 A 18.33,18.33 0 0,1 35.577,29.314 L 35.584,26.708 C 35.856,26.668 36.672,26.56 37.992,26.56 C 39.075,26.56 39.87,26.639 40.408,26.718 Z M 34,25.45 V 30.567 C 35.29,30.931 36.666,30.994 37.999,31 C 39.333,31 40.708,30.936 42,30.58 V 25.435 C 40.713,25.06 39.333,25 38,25 C 36.67,25 35.279,25.05 34,25.45 Z M 10.504,26.88 A 11.033,11.033 0 0,0 8.116,25.82 C 5.596,25.03 4.343,25.023 4.291,25.023 H 4 V 31 H 5.655 V 26.936 C 6.055,27.016 6.795,27.183 7.727,27.493 C 9.224,27.993 10.202,28.78 10.506,29.048 L 10.508,31 H 12.204 V 25 H 10.504 M 44,25.447 V 31 H 45.482 L 45.481,29.107 C 45.886,29.099 46.853,29.111 47.925,29.366 C 49.192,29.666 50.055,30.092 50.351,30.282 L 50.349,31 H 52 V 29.566 C 51.542,29.186 51.007,28.901 50.464,28.659 C 50.954,28.599 51.525,28.518 52,28.382 V 25.447 C 50.737,25.06 49.277,25 47.966,25 C 46.649,25 45.269,25.061 44,25.447 Z M 50.428,27.621 C 49.99,27.701 49.228,27.809 48.041,27.8 L 45.551,27.642 V 26.709 C 45.821,26.663 46.639,26.549 48.048,26.549 C 49.17,26.549 49.99,26.629 50.428,26.72" fill="rgb(254, 254, 253)"/>
</svg>
