<?xml version="1.0" encoding="UTF-8"?>
<!-- generated by Finnhub -->
<svg viewBox="0 0 55.5 55.5" xmlns="http://www.w3.org/2000/svg">
<path d="M 0,0 H 55.5 V 55.5 H 0 Z" fill="rgb(34, 95, 144)"/>
<path d="M 4.99,31.982 V 26 H 6 L 10,30.274 V 26 H 11 V 31.997 H 10 L 6,27.68 V 31.997 H 5 Z" fill="rgb(254, 254, 253)"/>
<path d="M 15.596,25.985 C 16.734,25.997 18.992,26.572 19,28.901 C 19.008,31.231 17.137,32 15.606,32 C 14.377,32 12,31.505 12,28.901 C 12,26.44 14.397,26 15.606,26 Z M 15.576,27.002 C 16.381,27 17.994,27.382 18,28.935 C 18.006,30.487 16.669,31 15.575,31 C 14.698,31 13,30.67 13,28.935 C 13,27.295 14.712,27.002 15.575,27.002 Z" fill="rgb(254, 254, 253)" fill-rule="evenodd"/>
<path d="M 21.99,31.985 L 19,26 H 20 L 22.5,31 L 25.003,26 H 26 L 23,32 H 22 Z M 34,32 L 31,26 H 32 L 34.5,31 L 37.003,26 H 38 L 35,32 H 34 Z" fill="rgb(254, 254, 253)"/>
<path d="M 27.99,25.985 L 25,32 H 26.075 L 26.609,31 H 30.369 L 30.943,32 H 32 L 29,26 H 28 Z M 28.508,26.986 L 27.007,30 H 29.984 L 28.508,26.986 Z M 40,26 L 37,32 H 38.12 L 38.659,31 H 42.114 L 42.632,32 H 44.799 L 46.5,29.5 L 49.723,34 H 51 L 47.5,29 L 49.5,26 H 48.26 L 46.5,28.5 L 44.799,26 H 43.626 L 45.5,29 L 43.626,31.803 L 41,26 H 40 Z M 40.5,27 L 39.092,30 H 41.762 L 40.5,27 Z" fill="rgb(254, 254, 253)" fill-rule="evenodd"/>
</svg>
