<?xml version="1.0" encoding="UTF-8"?>
<!-- generated by Finnhub -->
<svg viewBox="0 0 55.5 55.5" xmlns="http://www.w3.org/2000/svg">
<path d="M 0,0 H 55.5 V 55.5 H 0 Z" fill="rgb(1, 169, 215)"/>
<path d="M 18.604,8.985 A 4.587,4.587 0 0,0 14.025,13.584 A 4.586,4.586 0 0,0 18.614,18.167 A 4.586,4.586 0 0,0 23.202,13.584 A 4.586,4.586 0 0,0 18.614,9 Z M 22.211,17.768 C 22.1,17.858 21.903,18.016 21.635,18.194 C 20.772,18.821 19.204,19.509 16.821,18.873 C 14.295,18.198 13.439,15.85 13.232,15.283 L 13.228,15.271 C 13.03,14.726 12.748,14.686 12.748,15.486 C 12.748,17.502 13.642,18.724 13.939,19.071 C 14.239,19.419 14.378,19.762 14.213,19.961 L 14.159,20.028 C 13.823,20.437 13.394,20.958 13.271,21.29 C 13.247,21.356 13.246,21.468 13.245,21.569 C 13.245,21.631 13.244,21.689 13.238,21.731 C 13.187,22.081 12.893,22.438 12.5,22.913 C 12.394,23.043 12.28,23.18 12.163,23.328 C 11.849,23.725 12.04,24.148 12.306,24.44 C 12.425,24.57 12.547,24.716 12.661,24.85 C 12.853,25.08 13.019,25.278 13.103,25.324 C 13.383,25.483 13.625,25.484 13.863,25.484 C 14.029,25.484 14.193,25.484 14.369,25.538 L 14.408,25.55 C 14.834,25.684 15.455,25.88 15.884,26.646 C 16.058,26.956 16.235,27.314 16.427,27.701 C 16.942,28.739 17.56,29.983 18.467,31.067 C 19.015,31.718 19.02,32.887 19.022,33.305 V 33.322 C 19.056,36.734 17.292,39.899 16.131,41.984 L 16.071,42.09 C 15.795,42.585 15.851,42.992 16.223,42.995 C 16.473,42.998 16.747,42.998 17.119,42.996 L 18.049,42.995 C 18.578,42.995 18.585,42.788 18.593,42.569 A 0.588,0.588 0 0,1 18.651,42.283 C 18.691,42.216 18.764,42.2 18.845,42.182 C 19.009,42.146 19.208,42.102 19.244,41.631 C 19.252,41.511 19.262,41.406 19.325,40.95 C 19.717,38.13 21.095,33.931 21.951,33.389 C 23.215,34.214 24.731,35.583 25.181,38.369 C 25.318,39.221 25.399,39.979 25.318,40.704 C 25.23,41.491 25.162,41.862 25.091,42.086 C 24.854,42.841 25.047,43.003 25.409,42.989 C 25.409,42.989 27.108,42.991 27.349,42.989 C 27.865,42.989 27.862,42.781 27.859,42.574 C 27.858,42.474 27.856,42.374 27.915,42.298 C 27.958,42.242 28.021,42.218 28.084,42.193 C 28.209,42.143 28.332,42.095 28.292,41.801 C 28.039,40.512 27.575,39.325 27.112,38.136 C 26.69,37.058 26.269,35.979 26.003,34.821 C 25.607,33.098 26.645,32.009 27.526,31.748 C 28.915,31.335 30.817,32.018 31.061,32.156 C 31.093,32.174 31.121,32.19 31.146,32.206 C 31.296,32.294 31.336,32.318 31.488,32.19 C 33.058,30.897 33.785,31.527 33.825,31.565 C 34.007,31.737 34.13,32.648 34.139,32.831 C 34.329,36.573 31.027,40.188 29.677,41.667 A 15.01,15.01 0 0,0 29.229,42.17 C 28.89,42.585 29.081,43 29.419,42.998 H 29.815 C 30.355,42.998 31.218,42.998 31.44,42.992 C 31.929,42.976 31.922,42.784 31.916,42.59 C 31.912,42.492 31.909,42.393 31.969,42.315 C 32.011,42.26 32.072,42.245 32.139,42.227 C 32.245,42.2 32.364,42.169 32.439,41.97 C 33.019,40.42 34.217,37.444 36.708,35.433 C 36.925,35.258 37.129,34.821 37.313,33.829 C 37.373,33.506 37.446,33.258 37.527,32.983 L 37.567,32.843 C 38.969,34.663 39.14,37.919 36.767,42.201 C 36.517,42.647 36.673,42.995 36.957,42.995 H 37.195 C 37.632,42.999 38.502,43.005 38.819,42.995 C 39.331,42.977 39.32,42.754 39.309,42.525 A 2.016,2.016 0 0,1 39.307,42.427 V 42.419 C 39.307,42.296 39.307,42.092 39.751,42.092 C 39.915,42.092 40.097,42.095 40.231,42.097 L 40.398,42.099 H 40.516 C 40.793,42.102 41.398,42.107 41.635,42.081 C 41.943,42.046 41.973,41.731 41.979,41.318 C 41.985,40.705 42.019,33.717 41.985,32.858 C 41.976,32.64 41.975,32.288 41.975,31.848 C 41.971,29.875 41.964,26.127 41.201,24.758 C 40.09,22.764 37.863,22.95 36.823,23.036 L 36.807,23.037 C 36.465,23.067 36.06,23.109 35.604,23.157 C 34.224,23.304 32.374,23.5 30.368,23.507 C 27.086,23.52 23.653,22.45 22.546,22.105 C 22.413,22.063 22.313,22.032 22.252,22.015 A 19.63,19.63 0 0,1 19.674,21.061 C 19.154,20.816 19.384,20.702 19.614,20.589 L 19.647,20.572 C 20.837,19.979 21.832,19.349 22.452,18.345 C 22.926,17.577 22.747,17.334 22.221,17.76 L 22.211,17.768 Z M 40.164,26.458 C 40.164,26.357 40.164,26.291 40.166,26.26 C 40.198,25.915 40.406,25.945 40.58,26.426 C 41.05,27.746 40.904,32.726 40.878,33.626 L 40.874,33.764 C 40.878,33.93 40.674,34.054 40.534,33.884 C 40.408,33.724 40.161,32.348 39.997,31.439 A 54.718,54.718 0 0,0 39.887,30.84 C 39.796,30.38 39.87,29.922 39.954,29.401 C 39.994,29.155 40.035,28.895 40.064,28.613 C 40.168,27.526 40.165,26.796 40.164,26.458 Z" fill="rgb(1, 78, 145)"/>
<path d="M 18.785,9.943 A 3.088,3.088 0 0,0 15.704,13.044 A 3.089,3.089 0 0,0 18.795,16.129 A 3.087,3.087 0 0,0 21.882,13.044 A 3.087,3.087 0 0,0 18.795,9.958 Z M 27.706,24.758 L 27.714,24.814 C 27.816,25.61 27.802,26.492 27.798,26.768 V 26.794 C 27.789,27.469 28.31,27.619 28.663,27.721 L 28.706,27.733 C 29.65,28.011 31.556,27.933 32.869,27.319 C 33.894,26.839 33.273,25.124 33.099,24.708 C 32.919,24.278 32.569,24.114 32.02,24.162 C 31.716,24.188 30.916,24.207 30.226,24.215 C 29.856,24.219 29.533,24.2 29.096,24.173 C 28.863,24.16 28.598,24.143 28.276,24.129 C 27.618,24.096 27.654,24.37 27.706,24.757 Z M 35.73,24.384 C 36.258,24.967 36.571,25.927 36.637,26.341 C 36.704,26.753 37.262,26.594 37.331,26.208 C 37.434,25.634 37.251,24.686 36.829,24.178 C 36.635,23.943 36.302,23.839 35.913,23.913 C 35.547,23.983 35.447,24.069 35.73,24.383 Z M 27.874,30.506 L 27.911,30.494 C 28.855,30.175 30.642,29.962 33.815,30.247 A 7.728,7.728 0 0,1 37.435,31.487 C 37.792,31.719 38.697,32.309 39.088,30.511 C 39.191,30.052 39.383,29.06 39.418,28.601 L 39.428,28.49 C 39.506,27.717 39.888,23.92 37.701,23.933 C 37.351,23.935 37.377,24.073 37.469,24.227 C 37.568,24.397 37.688,24.665 37.773,25.005 C 38.031,26.044 37.823,26.599 37.463,26.95 C 37.093,27.31 36.363,27.343 36.225,26.818 C 35.787,25.198 35.214,23.871 33.935,24.042 C 33.671,24.077 33.649,24.297 33.775,24.612 C 33.891,24.896 34.06,25.656 34.115,26.262 C 34.187,27.079 33.822,27.462 33.254,27.799 C 32.284,28.372 29.92,28.742 28.224,28.277 C 27.196,27.997 27.163,27.22 27.163,26.922 C 27.163,26.852 27.163,26.74 27.165,26.605 C 27.169,26.159 27.175,25.465 27.155,25.25 C 27.081,24.484 26.992,24.06 26.491,24.012 C 26.001,23.965 26.005,24.025 26.026,24.323 C 26.034,24.433 26.044,24.576 26.032,24.758 V 24.765 C 26.026,24.92 25.931,27.663 23.894,27.605 C 23.384,27.595 23.114,27.125 23.21,26.71 C 23.388,25.921 23.497,25.145 23.473,24.29 L 23.471,24.19 C 23.458,23.618 23.454,23.45 22.191,23.043 L 22.157,23.032 C 21.412,22.792 21.068,22.682 20.807,22.782 C 20.583,22.87 20.42,23.112 20.117,23.562 L 20.015,23.711 C 19.546,24.404 18.927,25.671 18.628,26.478 C 18.024,28.11 18.559,29.168 18.954,29.858 C 19.199,30.289 19.87,30.935 20.644,31.395 A 38.536,38.536 0 0,1 24.65,34.101 C 24.988,34.358 25.192,34.428 25.205,33.703 C 25.248,31.345 27.465,30.636 27.875,30.506 Z M 18.924,21.651 C 18.554,21.449 18.124,21.214 17.697,20.965 L 17.595,20.905 C 16.187,20.085 15.462,19.662 14.92,20.098 C 14.34,20.565 13.902,21.201 13.822,21.424 C 13.792,21.505 13.779,21.628 13.764,21.764 C 13.737,22 13.706,22.276 13.58,22.43 C 13.522,22.502 13.452,22.6 13.37,22.716 C 13.247,22.891 13.095,23.106 12.911,23.329 C 12.555,23.763 12.718,23.948 13.049,24.32 C 13.109,24.389 13.175,24.463 13.245,24.547 C 13.432,24.77 13.722,24.793 14.08,24.821 C 14.537,24.857 15.103,24.901 15.705,25.377 C 16.212,25.777 16.415,26.094 17.014,27.035 L 17.145,27.241 C 17.38,27.611 17.523,27.393 17.715,26.889 C 17.986,26.189 18.907,24.231 19.607,23.162 L 19.65,23.097 C 19.878,22.753 20.142,22.357 19.727,22.101 C 19.541,21.988 19.257,21.833 18.923,21.651 Z M 14.679,21.893 C 14.239,21.147 15.847,20.937 15.924,21.167 C 16.001,21.397 15.119,22.64 14.679,21.893 Z M 23.945,26.31 C 24.042,25.86 24.221,25.021 24.136,24.03 C 24.099,23.59 24.188,23.565 24.746,23.657 C 25.309,23.747 25.312,23.893 25.317,24.213 V 24.245 C 25.346,25.648 24.982,26.562 24.501,26.827 C 24.235,26.975 23.896,26.902 23.889,26.629 C 23.889,26.576 23.912,26.467 23.945,26.31 Z" fill="rgb(254, 254, 253)"/>
</svg>
