<?xml version="1.0" encoding="UTF-8"?>
<!-- generated by Finnhub -->
<svg viewBox="0 0 55.5 55.5" xmlns="http://www.w3.org/2000/svg">
<path d="M 0,0 H 55.5 V 55.5 H 0 Z" fill="rgb(3, 95, 167)"/>
<path d="M 28.137999999999998,36.905 L 30.566,12 H 25.549 L 27.966,36.92 H 28.148 Z" fill="rgb(254, 254, 253)"/>
<path d="M 32.940000000000005,26.381999999999998 L 32.876,26.602 C 34.091,27.182 36.82,29.482 36.82,34.117 C 36.82,38.482 33.43,42.879 28.1,42.879 C 21.471,42.879 19.186,38.673 19.186,34.809 C 19.186,29.859 22.376,26.562 22.376,22.053 C 22.341,18.768 20.219,15.946 17.26,15.249 L 17.151,15.453 C 18.204,16.561 18.794,18.088 18.785,19.679 C 18.785,24.551 15,28.013 15,33.603 C 15,38.753 18.318,44 27.924,44 C 36.485,44 41,39.451 41,34.612 C 40.994,30.458 38.254,26.944 32.95,26.397 Z" fill="url(#a)"/>
<defs>
<linearGradient id="a" x1="14.994" x2="40.994" y1="43.997" y2="43.997" gradientUnits="userSpaceOnUse">
<stop stop-color="rgb(230, 73, 31)" offset=".3"/>
<stop stop-color="rgb(235, 153, 28)" offset=".7"/>
</linearGradient>
</defs>
</svg>
