<?xml version="1.0" encoding="UTF-8"?>
<!-- generated by Finnhub -->
<svg viewBox="0 0 55.5 55.5" xmlns="http://www.w3.org/2000/svg">
<path d="M 0,0 H 55.5 V 55.5 H 0 Z" fill="url(#a)"/>
<path d="M 34.448,11.988 C 34.16,12.016 33.996,12.106 33.996,12.106 C 35.144,12.324 36.086,12.624 36.811,13.621 C 37.174,13.989 37.061,14.554 36.698,14.877 C 36.011,15.657 34.831,15.902 33.823,15.652 C 30.402,14.882 27.167,13.387 23.653,12.998 C 21.77,12.761 19.93,13.624 18.631,14.872 C 17.431,16.018 17.129,17.703 17.366,19.274 C 17.631,20.517 18.598,21.817 19.997,22 C 19.169,21.143 18.878,19.7 19.737,18.809 C 20.223,18.235 21.086,18.156 21.803,18.262 C 24.527,18.744 27.181,19.525 29.898,20.051 C 31.418,20.445 32.445,20.916 34,21.185 V 27 L 32,28.998 L 34,31 V 38 C 32.38,39.193 30.713,39.574 28.74,39.353 C 26.645,39.242 24.785,38.053 23.412,36.609 C 25.712,35.439 28.647,34.072 31,33 C 31.083,29.052 30.977,25.143 31,21.194 C 28.06,22.369 24.597,23.831 21.666,25.024 C 22.514,22.959 23.943,20.994 25.999,20.001 C 25.462,20.031 24.899,19.993 24.399,20.216 C 20.551,21.663 17.674,25.066 16.48,28.861 C 15.682,31.271 15.94,33.907 16.805,36.264 C 17.878,38.886 19.863,41.207 22.495,42.532 C 23.973,43.26 25.564,43.98 27.258,44 C 30.765,44.278 34.876,43.38 37.243,40.864 C 38.276,39.808 38.796,38.431 39.308,37.098 C 39.783,35.786 40.048,34.388 40,33 C 38.865,35.145 37.061,36.578 35,38 V 31 L 37,28.998 L 35,27 C 35.004,25.246 34.996,22.937 35,21.185 C 37.005,21.085 39.137,20.085 39.677,18.083 C 40.054,16.775 40.25,15.226 39.409,14.043 C 38.635,13.203 37.661,12.401 36.483,12.198 C 36.345,12.086 35.113,11.973 34.458,12.003 Z M 24.998,24.005 C 24.991,27.807 25.033,31.655 24.995,35.457 L 23.177,36.35 C 21.968,34.684 21.352,32.585 21.007,30.594 C 20.912,28.914 20.971,27.067 21.585,25.491 L 24.998,24.005 Z" fill="rgb(254, 254, 253)"/>
<defs>
<linearGradient id="a" x1="10.418" x2="68.147" y1="9.712" y2="76.017" gradientUnits="userSpaceOnUse">
<stop stop-color="rgb(25, 29, 31)" offset="0"/>
<stop stop-color="rgb(5, 5, 8)" offset="1"/>
</linearGradient>
</defs>
</svg>
