<?xml version="1.0" encoding="UTF-8"?>
<!-- generated by Finnhub -->
<svg fill="none" viewBox="0 0 55.5 55.5" xmlns="http://www.w3.org/2000/svg">
<path d="M 0,0 H 55.5 V 55.5 H 0 Z" fill="rgb(1, 103, 59)"/>
<path d="M 27.99,12.485 C 36.562,12.5 43.5,19.438 43.5,28 C 43.5,36.562 36.562,43.5 28,43.5 S 12.5,36.562 12.5,28 S 19.438,12.5 28,12.5 Z" stroke="rgb(239, 130, 2)"/>
<path d="M 20.924999999999997,32.726 S 20.799,31.423 20.397,30.786 C 19.927,30.043 19.185,28.497 19.117,27.891 C 19.048,27.284 18.647,26.541 18.108,26.071 C 18.646,25.601 19.048,24.859 19.116,24.252 C 19.185,23.646 19.927,22.1 20.397,21.357 C 20.799,20.721 20.935,19.402 20.935,19.402 C 22.482,20.342 24.975,19 26.658,19 C 28.34,19 30.834,20.35 32.38,19.402 C 32.38,19.402 32.517,20.721 32.918,21.357 C 33.388,22.1 34.131,23.647 34.199,24.253 C 34.268,24.859 34.669,25.602 35.207,26.072 C 34.669,26.542 34.267,27.284 34.199,27.891 C 34.131,28.497 33.389,30.043 32.919,30.786 C 32.517,31.423 32.38,32.741 32.38,32.741 C 30.834,31.801 28.34,33.143 26.658,33.143 C 24.975,33.143 22.482,31.802 20.935,32.741 Z M 30.425,23.957 C 30.425,21.622 27.802,20.827 26.65,20.827 C 25.498,20.827 22.876,21.63 22.876,23.957 C 22.876,24.957 23.414,25.821 23.686,26.155 C 23.414,26.488 22.876,27.352 22.876,28.353 C 22.876,30.687 25.498,31.483 26.65,31.483 C 27.802,31.483 30.425,30.68 30.425,28.353 C 30.425,27.353 29.887,26.488 29.614,26.155 C 29.887,25.821 30.424,24.957 30.424,23.957 Z" fill="rgb(254, 254, 253)"/>
<path d="M 21.122999999999998,19.759999999999998 A 9,9 0 0,1 21.058,20.19 C 20.973,20.602 20.832,21.13 20.605,21.488 A 13.393,13.393 0 0,0 19.511,23.732 A 2.726,2.726 0 0,0 19.361,24.28 C 19.293,24.877 18.944,25.57 18.463,26.071 C 18.944,26.573 19.293,27.266 19.361,27.863 C 19.374,27.985 19.425,28.173 19.511,28.412 A 13.393,13.393 0 0,0 20.605,30.655 C 20.832,31.014 20.973,31.541 21.058,31.953 C 21.089,32.106 21.114,32.249 21.133,32.368 C 21.938,32.038 22.896,32.158 23.797,32.349 C 24.087,32.411 24.39,32.485 24.686,32.557 C 24.906,32.61 25.123,32.663 25.326,32.708 C 25.816,32.818 26.266,32.898 26.658,32.898 C 27.05,32.898 27.499,32.818 27.99,32.708 C 28.193,32.663 28.41,32.61 28.63,32.557 C 28.925,32.485 29.229,32.411 29.52,32.349 C 30.42,32.159 31.378,32.039 32.183,32.368 A 8.82,8.82 0 0,1 32.258,31.953 C 32.343,31.541 32.484,31.013 32.711,30.655 A 13.386,13.386 0 0,0 33.805,28.411 C 33.89,28.174 33.941,27.985 33.955,27.863 C 34.022,27.266 34.371,26.573 34.852,26.072 C 34.372,25.57 34.022,24.877 33.955,24.28 A 2.74,2.74 0 0,0 33.805,23.731 A 13.39,13.39 0 0,0 32.711,21.488 C 32.484,21.13 32.343,20.602 32.258,20.19 A 9.003,9.003 0 0,1 32.183,19.776 C 31.378,20.109 30.419,19.988 29.519,19.796 A 32.38,32.38 0 0,1 28.629,19.588 C 28.408,19.534 28.192,19.481 27.99,19.436 C 27.499,19.325 27.05,19.246 26.658,19.246 C 26.266,19.246 25.817,19.324 25.325,19.435 C 25.123,19.48 24.907,19.533 24.685,19.586 C 24.39,19.658 24.087,19.732 23.797,19.794 C 22.897,19.984 21.938,20.104 21.133,19.775 Z M 32.625,19.377 V 19.379 L 32.626,19.389 L 32.631,19.43 A 8.471,8.471 0 0,0 32.74,20.091 C 32.823,20.498 32.951,20.948 33.126,21.226 A 13.875,13.875 0 0,1 34.268,23.566 C 34.356,23.812 34.423,24.044 34.443,24.225 C 34.504,24.763 34.872,25.452 35.369,25.886 L 35.581,26.072 L 35.369,26.257 C 34.872,26.691 34.504,27.38 34.444,27.918 C 34.424,28.099 34.356,28.331 34.268,28.578 A 13.868,13.868 0 0,1 33.126,30.918 C 32.951,31.195 32.823,31.645 32.739,32.052 A 8.471,8.471 0 0,0 32.631,32.713 L 32.626,32.753 L 32.625,32.763 V 32.766 L 32.585,33.153 L 32.253,32.951 C 31.57,32.537 30.651,32.611 29.621,32.831 C 29.328,32.892 29.046,32.961 28.763,33.031 C 28.543,33.084 28.323,33.137 28.098,33.188 C 27.601,33.3 27.108,33.388 26.658,33.388 C 26.208,33.388 25.715,33.3 25.218,33.188 C 24.992,33.138 24.772,33.084 24.552,33.03 A 29.007,29.007 0 0,0 23.694,32.83 C 22.664,32.612 21.745,32.537 21.063,32.951 L 20.731,33.153 L 20.691,32.767 V 32.764 L 20.689,32.754 L 20.685,32.713 A 8.565,8.565 0 0,0 20.577,32.052 C 20.492,31.645 20.365,31.195 20.189,30.917 A 13.87,13.87 0 0,1 19.048,28.577 A 3.174,3.174 0 0,1 18.872,27.918 C 18.812,27.38 18.444,26.691 17.947,26.257 L 17.735,26.071 L 17.947,25.886 C 18.444,25.452 18.811,24.763 18.872,24.225 C 18.892,24.044 18.96,23.812 19.048,23.565 A 13.88,13.88 0 0,1 20.19,21.225 C 20.365,20.948 20.492,20.498 20.576,20.091 A 8.565,8.565 0 0,0 20.685,19.43 L 20.69,19.39 V 19.376 L 20.73,18.989 L 21.063,19.191 C 21.745,19.605 22.665,19.531 23.694,19.311 C 23.987,19.25 24.27,19.181 24.552,19.111 C 24.772,19.058 24.992,19.005 25.217,18.954 C 25.715,18.842 26.209,18.754 26.657,18.754 C 27.107,18.754 27.601,18.843 28.099,18.955 C 28.323,19.006 28.543,19.06 28.762,19.113 C 29.046,19.183 29.328,19.253 29.622,19.315 C 30.651,19.534 31.57,19.609 32.252,19.191 L 32.585,18.987 L 32.625,19.376 Z M 24.202,21.31 C 25.043,20.793 26.032,20.58 26.65,20.58 C 27.268,20.58 28.257,20.79 29.098,21.307 C 29.947,21.827 30.671,22.68 30.671,23.957 C 30.671,24.904 30.228,25.727 29.922,26.155 C 30.228,26.583 30.67,27.405 30.67,28.353 C 30.67,29.626 29.947,30.478 29.098,31 C 28.258,31.517 27.268,31.729 26.65,31.729 C 26.032,31.729 25.043,31.519 24.202,31.003 C 23.354,30.482 22.63,29.63 22.63,28.353 C 22.63,27.406 23.073,26.583 23.378,26.155 C 23.073,25.727 22.63,24.905 22.63,23.957 C 22.63,22.683 23.354,21.831 24.202,21.31 Z M 24.46,21.729 C 23.709,22.19 23.122,22.904 23.122,23.957 C 23.122,24.878 23.622,25.688 23.877,25.999 L 24.004,26.155 L 23.877,26.31 C 23.622,26.621 23.122,27.432 23.122,28.353 C 23.122,29.41 23.709,30.123 24.459,30.584 C 25.218,31.049 26.116,31.237 26.65,31.237 C 27.184,31.237 28.082,31.047 28.84,30.581 C 29.592,30.119 30.179,29.406 30.179,28.353 C 30.179,27.432 29.678,26.621 29.424,26.31 L 29.296,26.155 L 29.424,25.999 C 29.678,25.689 30.179,24.878 30.179,23.957 C 30.179,22.9 29.591,22.187 28.841,21.726 C 28.083,21.26 27.184,21.072 26.651,21.072 C 26.117,21.072 25.218,21.262 24.46,21.729 Z" fill="rgb(239, 130, 2)"/>
<path d="M 23.548,24.003 L 23.724,25.533 S 24.399,25.602 24.732,25.602 C 24.732,25.602 25.809,25.602 25.809,26.344 V 30.452 C 25.809,30.991 25.202,31.529 25.202,31.529 S 25.809,31.999 25.809,32.537 V 34.591 C 25.809,36.137 23.755,35.871 23.755,35.871 V 37.789 H 25.202 C 25.839,37.789 26.65,37.349 26.65,37.349 L 27.423,37.926 C 27.522,37.888 28.234,37.35 28.234,37.35 C 28.939,38.63 32.979,37.653 33.623,37.486 C 34.26,37.32 35.101,37.623 35.101,37.623 C 35.101,37.221 34.965,36.918 35.707,35.903 C 36.45,34.894 37.595,32.772 37.83,31.93 C 38.065,31.09 38.64,30.65 38.64,30.65 S 38.065,30.316 37.936,29.437 C 37.633,27.459 36.253,25.768 35.851,25.359 C 35.45,24.957 35.548,23.911 35.548,23.911 C 35.108,24.048 34.085,23.783 34.085,23.783 C 34.146,23.965 34.184,24.131 34.199,24.253 C 34.267,24.859 34.669,25.602 35.207,26.072 C 34.669,26.542 34.267,27.284 34.199,27.891 C 34.161,28.239 33.866,28.982 33.562,29.626 C 33.562,29.626 33.729,30.384 33.729,30.991 C 33.729,36.038 31.167,35.971 30.364,35.971 C 29.553,35.971 28.977,35.129 28.977,34.591 V 32.537 C 28.977,31.999 29.583,31.529 29.583,31.529 S 28.977,30.991 28.977,30.453 V 26.345 C 28.977,25.405 29.955,25.602 29.955,25.602 C 30.561,24.927 30.356,23.646 30.356,23.646 C 29.682,23.646 28.81,24.048 27.931,24.048 C 27.059,24.048 26.65,23.646 26.65,23.646 S 25.975,24.116 25.104,23.851 C 24.581,23.691 23.558,24.018 23.558,24.018 Z" fill="rgb(254, 254, 253)"/>
<path d="M 23.548,24.003 L 23.724,25.533 S 24.399,25.602 24.732,25.602 C 24.732,25.602 25.809,25.602 25.809,26.344 V 30.452 C 25.809,30.991 25.202,31.529 25.202,31.529 S 25.809,31.999 25.809,32.537 V 34.591 C 25.809,36.137 23.755,35.871 23.755,35.871 V 37.789 H 25.202 C 25.839,37.789 26.65,37.349 26.65,37.349 L 27.423,37.926 C 27.522,37.888 28.234,37.35 28.234,37.35 C 28.939,38.63 32.979,37.653 33.623,37.486 C 34.26,37.32 35.101,37.623 35.101,37.623 C 35.101,37.221 34.965,36.918 35.707,35.903 C 36.45,34.894 37.595,32.772 37.83,31.93 C 38.065,31.09 38.64,30.65 38.64,30.65 S 38.065,30.316 37.936,29.437 C 37.633,27.459 36.253,25.768 35.851,25.359 C 35.45,24.957 35.548,23.911 35.548,23.911 C 35.108,24.048 34.085,23.783 34.085,23.783 C 34.146,23.965 34.184,24.131 34.199,24.253 C 34.267,24.859 34.669,25.602 35.207,26.072 C 34.669,26.542 34.267,27.284 34.199,27.891 C 34.161,28.239 33.866,28.982 33.562,29.626 C 33.562,29.626 33.729,30.384 33.729,30.991 C 33.729,36.038 31.167,35.971 30.364,35.971 C 29.553,35.971 28.977,35.129 28.977,34.591 V 32.537 C 28.977,31.999 29.583,31.529 29.583,31.529 S 28.977,30.991 28.977,30.453 V 26.345 C 28.977,25.405 29.955,25.602 29.955,25.602 C 30.561,24.927 30.356,23.646 30.356,23.646 C 29.682,23.646 28.81,24.048 27.931,24.048 C 27.059,24.048 26.65,23.646 26.65,23.646 S 25.975,24.116 25.104,23.851 C 24.581,23.691 23.558,24.018 23.558,24.018 Z" stroke="rgb(239, 130, 2)" stroke-width=".492"/>
</svg>
