<?xml version="1.0" encoding="UTF-8"?>
<!-- generated by Finnhub -->
<svg viewBox="0 0 55.5 55.5" xmlns="http://www.w3.org/2000/svg">
<path d="M 0,0 H 55.5 V 55.5 H 0 Z" fill="rgb(239, 242, 248)"/>
<path d="M 8.029,29.72 H 10.3 L 10.677,30.715 L 10.684,30.735 C 10.892,31.284 11.079,31.775 10.351,31.775 H 10.211 V 32 H 13.741 V 31.775 C 13.532,31.759 13.365,31.695 13.253,31.566 C 13.1,31.406 12.905,31.02 12.668,30.394 L 10.301,24 H 9.891 L 7.412,30.217 C 7.189,30.827 6.98,31.229 6.827,31.437 C 6.66,31.631 6.465,31.727 6.214,31.775 V 32 H 8.538 V 31.775 L 8.508,31.773 C 8.104,31.737 7.608,31.693 7.608,31.149 C 7.608,30.972 7.648,30.763 7.746,30.506 L 8.039,29.736 Z M 9.2,26.8 L 10.138,29.285 H 8.22 L 9.2,26.8 Z M 20.004,31.991 L 20.269,29.193 H 20.046 C 19.893,29.82 19.726,30.303 19.545,30.625 C 19.181,31.271 18.638,31.557 17.905,31.557 L 17.815,31.558 C 17.525,31.562 17.173,31.567 17.055,31.252 C 17.014,31.139 17,30.866 17,30.464 V 25.394 C 17,24.993 17.014,24.752 17.056,24.655 C 17.111,24.51 17.181,24.414 17.265,24.365 A 0.9,0.9 0 0,1 17.752,24.237 H 17.934 V 24.012 H 14 V 24.221 H 14.237 C 14.432,24.221 14.585,24.253 14.697,24.333 C 14.807,24.413 14.877,24.51 14.919,24.607 C 14.961,24.719 14.975,24.977 14.975,25.379 V 30.609 C 14.975,31.01 14.961,31.252 14.919,31.349 C 14.804,31.649 14.536,31.766 14.223,31.766 H 14 V 31.991 H 20.004 Z M 26,24.011 V 26.166 H 25.819 C 25.708,25.668 25.596,25.314 25.457,25.089 C 25.173,24.631 24.751,24.462 24.231,24.462 H 23.988 V 30.608 C 23.988,31.01 24.002,31.268 24.044,31.38 A 0.655,0.655 0 0,0 24.267,31.654 C 24.378,31.734 24.531,31.766 24.74,31.766 H 24.963 V 31.991 H 21.025 V 31.766 H 21.248 A 0.9,0.9 0 0,0 21.735,31.638 C 21.819,31.589 21.889,31.493 21.945,31.348 C 21.986,31.252 22,31.011 22,30.608 V 24.478 H 21.498 C 20.673,24.478 20.275,25.495 20.195,26.183 H 20 V 24.012 H 26 Z M 33.525,26.659 V 24 H 33.316 C 33.289,24.184 33.246,24.323 33.163,24.415 A 0.338,0.338 0 0,1 32.885,24.553 C 32.801,24.553 32.592,24.492 32.285,24.353 C 31.742,24.123 31.227,24 30.74,24 A 3.57,3.57 0 0,0 28.873,24.538 C 28.288,24.907 27.828,25.414 27.48,26.059 C 27.153,26.679 27.02,27.326 27,28 A 4.32,4.32 0 0,0 27.438,30.086 A 3.257,3.257 0 0,0 28.762,31.5 C 29.332,31.823 29.995,32 30.734,32 C 31.884,32 32.779,31.458 33.525,30.605 V 29.944 C 32.911,30.738 32.135,31.469 31.074,31.469 C 29.5,31.5 29.018,29.511 29,28 C 28.983,26.559 29.5,24.5 31.102,24.523 C 31.631,24.523 32.091,24.707 32.495,25.076 C 32.899,25.445 33.177,25.967 33.33,26.659 H 33.525 Z" clip-rule="evenodd" fill="rgb(26, 37, 66)" fill-rule="evenodd"/>
<path d="M 39.576,29.72 H 37.325 L 37.032,30.506 C 36.935,30.763 36.892,30.972 36.892,31.149 C 36.892,31.707 37.416,31.739 37.824,31.775 V 32 H 35.5 V 31.775 C 35.75,31.727 35.946,31.631 36.113,31.438 C 36.266,31.229 36.475,30.828 36.698,30.218 L 39.178,24 H 39.586 L 41.954,30.394 C 42.191,31.02 42.386,31.406 42.539,31.566 C 42.651,31.695 42.818,31.759 43.027,31.776 V 32 H 39.497 V 31.775 H 39.637 C 40.373,31.775 40.174,31.272 39.962,30.715 L 39.586,29.735 Z M 39.423,29.285 L 38.486,26.8 L 37.506,29.285 H 39.423 Z M 49.518,24.015 V 26.659 H 49.323 C 49.169,25.967 48.891,25.445 48.487,25.076 A 1.997,1.997 0 0,0 47.094,24.523 C 45.492,24.5 44.975,26.559 44.992,28 C 45.01,29.51 45.492,31.5 47.066,31.47 C 48.126,31.47 48.904,30.738 49.518,29.944 V 30.604 C 48.771,31.458 47.878,32 46.726,32 A 3.961,3.961 0 0,1 44.754,31.5 A 3.257,3.257 0 0,1 43.43,30.086 A 4.32,4.32 0 0,1 42.992,28 C 43.012,27.326 43.146,26.68 43.472,26.06 C 43.82,25.414 44.28,24.907 44.865,24.538 A 3.57,3.57 0 0,1 46.732,24 C 47.219,24 47.735,24.123 48.278,24.354 C 48.584,24.492 48.793,24.554 48.877,24.554 A 0.338,0.338 0 0,0 49.155,24.415 C 49.239,24.323 49.281,24.185 49.309,24 H 49.518 V 24.015 Z" fill="rgb(1, 159, 202)"/>
</svg>
