<?xml version="1.0" encoding="UTF-8"?>
<!-- generated by Finnhub -->
<svg viewBox="0 0 55.5 55.5" xmlns="http://www.w3.org/2000/svg">
<path d="M 0,0 H 55.5 V 55.5 H 0 Z" fill="rgb(1, 124, 191)"/>
<path d="M 10.774000000000001,23.0 C 7.587,23.015 5,25.687 5,28.99 C 5,32.292 7.587,34.964 10.784,34.964 C 13.981,34.964 16.569,32.292 16.569,28.99 S 13.982,23.015 10.785,23.015 Z M 10.784,31.983 C 9.186,31.983 7.886,30.641 7.886,28.99 C 7.886,27.339 9.186,25.996 10.784,25.996 C 12.383,25.996 13.682,27.339 13.682,28.99 C 13.682,30.64 12.383,31.983 10.784,31.983 Z M 21,30.997 C 21,30.522 21.503,30.297 21.825,30.629 C 23.274,32.149 25.665,34.822 25.677,34.834 C 25.812,34.974 25.948,35 26.137,35 H 28.747 C 29.219,35 29.357,34.442 29.139,34.157 L 24.585,29.287 C 24.09,28.681 24.148,28.443 24.711,27.826 L 28.138,23.87 C 28.357,23.585 28.218,23 27.736,23 H 25.366 C 25.206,23 25.009,23.063 24.906,23.205 C 24.896,23.217 22.998,25.331 21.825,26.625 C 21.503,26.982 21.001,26.745 21.001,26.258 V 19.475 C 21.001,19.131 20.725,19 20.506,19 H 18.501 C 18.168,19 18,19.226 18,19.428 V 34.568 C 18,34.913 18.283,35 18.513,35 H 20.515 C 20.815,35 21,34.782 21,34.556 V 30.997 Z M 37,34.394 L 36.776,32.399 A 0.461,0.461 0 0,0 36.236,31.983 C 36.086,32.007 35.936,32.019 35.787,32.019 C 34.247,32.019 33.092,30.771 33,29.192 V 26.578 C 33,26.258 33.21,25.996 33.52,25.996 H 35.542 C 35.726,25.996 36.002,25.83 36.002,25.486 V 23.596 C 36.002,23.229 35.772,23 35.565,23 H 33.568 C 33.268,23 33.012,22.813 33,22.504 V 19.475 C 33,19.285 32.878,19 32.521,19 H 30.474 C 30.233,19 30.003,19.154 30.003,19.463 V 29.192 C 30.083,32.422 32.648,35 35.787,35 C 36.052,35 36.305,34.976 36.557,34.94 A 0.495,0.495 0 0,0 37,34.394 Z M 50.666,31.888 C 49.033,31.888 49,31.282 49,29.013 V 23.537 C 49,23.347 48.828,23 48.46,23 H 46.528 A 0.558,0.558 0 0,0 46,23.538 V 23.787 C 45.16,23.288 44.02,23.003 42.984,23.003 C 39.787,23.003 37.2,25.676 37.2,28.978 C 37.2,32.28 39.803,35 43,35 C 44.438,35 45.733,34.406 46.745,33.515 C 47.285,34.37 48.159,34.941 49.528,34.953 C 49.758,34.953 51,35 51,34.394 V 32.268 C 51,32.09 50.862,31.888 50.666,31.888 Z M 42.996,32 C 41.397,32 40.098,30.64 40.098,28.99 C 40.098,27.339 41.398,25.996 42.996,25.996 S 46.079,27.339 46.079,28.99 C 46.068,30.64 44.583,32 42.996,32 Z" fill="rgb(254, 254, 253)"/>
</svg>
