<?xml version="1.0" encoding="UTF-8"?>
<!-- generated by Finnhub -->
<svg viewBox="0 0 55.5 55.5" xmlns="http://www.w3.org/2000/svg">
<path d="M 0,0 H 55.5 V 55.5 H 0 Z" fill="rgb(1, 131, 168)"/>
<path d="M 7.993,29.925 C 8.693,29.94 9.241,29.718 9.645,29.274 C 10.052,28.83 10.256,28.198 10.256,27.379 C 10.256,26.563 10.052,25.934 9.645,25.489 C 9.241,25.042 8.694,24.819 8.003,24.819 C 7.313,24.819 6.761,25.04 6.35,25.485 C 5.938,25.929 5.732,26.56 5.732,27.379 C 5.732,28.199 5.938,28.83 6.35,29.274 C 6.761,29.718 7.312,29.94 8.003,29.94 Z M 12,27.38 C 12,28.685 11.58,29.685 10.737,30.38 C 10.107,30.945 9.196,31.228 8.003,31.228 S 5.899,30.945 5.268,30.379 C 4.423,29.685 4,28.685 4,27.38 C 4,26.048 4.423,25.048 5.268,24.38 C 5.898,23.814 6.81,23.531 8.003,23.531 C 9.196,23.531 10.107,23.814 10.737,24.381 C 11.579,25.048 12,26.048 12,27.381 Z M 19.256,25.867 C 19.501,25.867 19.743,25.91 19.982,25.996 C 20.221,26.082 20.437,26.232 20.632,26.447 C 20.789,26.622 20.894,26.837 20.949,27.092 C 20.983,27.261 21,27.508 21,27.832 L 20.99,30.996 H 19.496 V 27.801 A 0.96,0.96 0 0,0 19.394,27.331 C 19.264,27.098 19.026,26.981 18.678,26.981 C 18.275,26.981 17.998,27.131 17.844,27.432 C 17.766,27.592 17.726,27.784 17.726,28.008 V 30.996 H 16.258 V 28.008 C 16.258,27.71 16.224,27.494 16.156,27.358 C 16.033,27.116 15.793,26.995 15.435,26.995 C 15.019,26.995 14.739,27.116 14.595,27.359 C 14.517,27.497 14.478,27.702 14.478,27.976 V 30.996 H 13 V 25.986 H 14.417 V 26.719 C 14.597,26.458 14.768,26.272 14.928,26.162 C 15.211,25.965 15.578,25.867 16.028,25.867 C 16.454,25.867 16.798,25.951 17.061,26.12 C 17.273,26.277 17.433,26.478 17.542,26.723 C 17.733,26.429 17.97,26.213 18.253,26.074 A 2.37,2.37 0 0,1 19.256,25.867 Z M 25.057,25.867 C 25.629,25.867 26.095,26.003 26.457,26.276 C 26.822,26.546 27.004,26.994 27.004,27.623 V 30.996 H 25.524 V 27.949 C 25.524,27.685 25.484,27.483 25.407,27.342 C 25.265,27.085 24.995,26.956 24.596,26.956 C 24.106,26.956 23.769,27.145 23.586,27.522 C 23.492,27.721 23.445,27.975 23.445,28.284 V 30.996 H 22.005 V 25.996 H 23.399 V 26.726 C 23.585,26.469 23.761,26.284 23.926,26.17 C 24.224,25.968 24.601,25.867 25.057,25.867 Z M 30.005,25 H 28.5 V 24 H 30.005 V 25 Z M 28.5,26 H 30.005 V 31 H 28.5 V 26 Z M 35.052,27.797 C 35.024,27.604 34.952,27.317 34.838,27.163 C 34.672,26.954 34.413,26.85 34.062,26.85 C 33.562,26.85 33.221,27.076 33.036,27.527 C 32.939,27.767 32.891,28.087 32.891,28.485 C 32.891,28.864 32.939,29.169 33.036,29.399 C 33.214,29.829 33.546,30.044 34.036,30.044 C 34.383,30.044 34.63,29.958 34.776,29.788 C 34.922,29.618 35.01,29.396 35.041,29.124 H 36.557 C 36.522,29.535 36.359,29.924 36.067,30.29 C 35.602,30.88 34.913,31.176 34,31.176 C 33.087,31.176 32.415,30.93 31.985,30.436 C 31.555,29.944 31.339,29.304 31.339,28.518 C 31.339,27.63 31.577,26.94 32.052,26.447 C 32.528,25.954 33.184,25.707 34.021,25.707 C 34.732,25.707 35.314,25.853 35.765,26.144 C 36.22,26.434 36.489,27.061 36.572,27.797 H 35.052 Z M 40.145,30.044 C 40.579,30.044 40.912,29.903 41.145,29.622 C 41.377,29.341 41.493,28.941 41.493,28.422 C 41.493,27.905 41.377,27.507 41.144,27.229 C 40.912,26.948 40.579,26.807 40.144,26.807 C 39.711,26.807 39.376,26.947 39.14,27.229 C 38.907,27.507 38.79,27.905 38.79,28.423 C 38.79,28.941 38.907,29.341 39.14,29.622 C 39.376,29.902 39.71,30.044 40.145,30.044 Z M 43.05,28.423 C 43.05,29.181 42.81,29.83 42.332,30.371 C 41.852,30.908 41.125,31.176 40.15,31.176 C 39.174,31.176 38.447,30.908 37.968,30.371 C 37.488,29.831 37.249,29.181 37.249,28.423 C 37.249,27.677 37.489,27.031 37.968,26.485 C 38.447,25.938 39.174,25.665 40.15,25.665 C 41.125,25.665 41.853,25.938 42.332,26.485 C 42.811,27.031 43.05,27.677 43.05,28.423 Z M 50.256,25.88 C 50.501,25.88 50.743,25.923 50.982,26.009 C 51.221,26.094 51.437,26.244 51.632,26.459 C 51.789,26.633 51.894,26.848 51.949,27.102 C 51.983,27.27 52,27.517 52,27.842 L 51.99,30.996 H 50.496 V 27.809 A 0.955,0.955 0 0,0 50.394,27.34 C 50.264,27.108 50.026,26.991 49.678,26.991 C 49.275,26.991 48.998,27.141 48.844,27.441 C 48.766,27.601 48.726,27.792 48.726,28.016 V 30.996 H 47.258 V 28.016 C 47.258,27.719 47.224,27.503 47.156,27.368 C 47.033,27.126 46.793,27.005 46.435,27.005 C 46.019,27.005 45.739,27.126 45.595,27.368 C 45.517,27.506 45.455,27.711 45.455,27.983 V 30.996 H 44 V 26 H 45.417 V 26.73 C 45.597,26.47 45.768,26.284 45.928,26.174 C 46.211,25.978 46.578,25.88 47.028,25.88 C 47.454,25.88 47.798,25.964 48.061,26.133 C 48.273,26.289 48.433,26.489 48.542,26.734 A 1.77,1.77 0 0,1 49.253,26.087 C 49.553,25.949 49.888,25.88 50.256,25.88 Z" fill="rgb(254, 254, 253)"/>
</svg>
