<?xml version="1.0" encoding="UTF-8"?>
<!-- generated by Finnhub -->
<svg viewBox="0 0 55.5 55.5" xmlns="http://www.w3.org/2000/svg">
<path d="M 0,0 H 55.5 V 55.5 H 0 Z" fill="rgb(239, 242, 248)"/>
<path d="M 28.689999999999998,11.395 V 11.46 L 32.9,12.61 C 32.93,12.32 33.18,12.1 33.47,12.1 C 33.79,12.1 34.05,12.36 34.05,12.68 A 0.6,0.6 0 0,1 33.95,13.01 L 37.65,14.7 A 0.4,0.4 0 0,1 38,14.47 C 38.23,14.47 38.4,14.65 38.4,14.88 C 38.4,15 38.36,15.1 38.28,15.18 L 43.51,23.04 A 0.4,0.4 0 0,1 44,23.44 C 44,23.62 43.9,23.77 43.74,23.83 L 43.58,28.08 C 43.82,28.15 44,28.38 44,28.65 C 44,28.94 43.79,29.18 43.51,29.23 L 43.17,33.83 C 43.32,33.89 43.42,34.03 43.42,34.21 A 0.4,0.4 0 0,1 43.02,34.62 A 0.4,0.4 0 0,1 42.82,34.57 L 37.28,41.68 A 0.4,0.4 0 0,1 36.93,42.3 A 0.4,0.4 0 0,1 36.59,42.1 L 32.86,43.26 C 32.88,43.34 32.89,43.42 32.89,43.51 C 32.89,43.97 32.52,44.35 32.07,44.35 A 0.83,0.83 0 0,1 31.27,43.75 L 27.2,45 L 18.12,41.34 A 0.4,0.4 0 0,1 17.82,41.48 A 0.4,0.4 0 0,1 17.42,41.07 C 17.42,41 17.43,40.94 17.46,40.89 L 14.96,37.44 A 0.58,0.58 0 0,1 14.2,36.88 A 0.6,0.6 0 0,1 14.3,36.54 L 11.54,32.73 A 0.4,0.4 0 0,1 11.4,32.76 A 0.4,0.4 0 0,1 11,32.34 C 11,32.13 11.16,31.94 11.37,31.94 L 12.25,22.64 A 0.41,0.41 0 0,1 12,22.26 A 0.4,0.4 0 0,1 12.4,21.85 C 12.46,21.85 12.5,21.85 12.55,21.87 L 15.05,18.26 A 0.42,0.42 0 0,1 15.35,17.56 A 0.4,0.4 0 0,1 15.55,17.63 L 18.57,14.35 A 0.42,0.42 0 0,1 18.53,14.16 A 0.4,0.4 0 0,1 19.28,13.95 L 22.88,13.07 V 12.97 C 22.88,12.64 23.14,12.37 23.46,12.37 C 23.7,12.37 23.92,12.54 24,12.77 L 27.9,11.44 A 0.4,0.4 0 0,1 28.3,11 C 28.53,11 28.7,11.18 28.7,11.41 Z M 12.48,22.67 C 12.67,22.64 12.82,22.47 12.82,22.26 A 0.42,0.42 0 0,0 12.69,21.96 L 15.12,18.43 L 12.77,26.8 L 12.47,22.67 Z M 13.22,27.27 C 13.22,27.36 13.19,27.45 13.14,27.52 L 18.98,32.97 A 0.4,0.4 0 0,1 19.21,32.85 L 19.71,21.85 A 0.57,0.57 0 0,1 19.43,21.74 L 13.12,27 C 13.18,27.07 13.22,27.16 13.22,27.26 Z M 19.6,33.02 A 0.4,0.4 0 0,0 19.36,32.86 L 19.86,21.84 C 19.96,21.82 20.06,21.77 20.14,21.7 L 26.97,27.21 A 0.85,0.85 0 0,0 26.93,28.11 L 19.59,33 Z M 27.01,28.22 L 19.67,33.16 A 0.42,0.42 0 0,1 19.65,33.4 L 29.76,37.2 A 0.58,0.58 0 0,1 30.09,36.91 L 27.82,28.51 A 0.81,0.81 0 0,1 27.02,28.23 Z M 27.97,28.47 L 30.24,36.88 H 30.26 C 30.4,36.88 30.52,36.93 30.61,37 L 37.06,29.03 A 0.85,0.85 0 0,1 36.78,28.39 V 28.37 L 28.47,27.82 A 0.84,0.84 0 0,1 27.97,28.47 Z M 28.47,27.67 L 36.8,28.22 A 0.84,0.84 0 0,1 37.17,27.67 L 31.27,18.5 A 0.4,0.4 0 0,1 31.05,18.53 L 28.03,26.94 C 28.29,27.08 28.47,27.34 28.48,27.66 Z M 27.89,26.88 L 30.91,18.48 A 0.41,0.41 0 0,1 30.75,18.31 L 20.34,21.25 A 0.6,0.6 0 0,1 20.24,21.58 L 27.07,27.1 A 0.82,0.82 0 0,1 27.89,26.88 Z M 19.45,33.63 A 0.4,0.4 0 0,0 19.57,33.53 L 29.71,37.33 A 0.6,0.6 0 0,0 29.75,37.73 L 22.82,41.97 A 0.4,0.4 0 0,0 22.3,41.8 L 19.45,33.63 Z M 19.05,33.6 A 0.4,0.4 0 0,0 19.3,33.67 L 22.17,41.89 A 0.41,0.41 0 0,0 22.1,42.01 L 15.3,37.13 A 0.6,0.6 0 0,0 15.25,36.53 L 19.05,33.6 Z M 18.9,33.1 A 0.42,0.42 0 0,0 18.94,33.5 L 15.14,36.42 A 0.57,0.57 0 0,0 14.72,36.3 L 12.89,27.67 A 0.4,0.4 0 0,0 13.02,27.62 L 18.9,33.1 Z M 12.74,27.66 H 12.7 L 11.6,31.98 C 11.73,32.05 11.82,32.18 11.82,32.34 C 11.82,32.47 11.77,32.57 11.68,32.65 L 14.42,36.43 C 14.46,36.39 14.52,36.36 14.57,36.33 L 12.74,27.66 Z M 12.41,27.26 C 12.41,27.11 12.5,26.97 12.62,26.9 L 12.36,23.2 L 11.58,31.44 L 12.56,27.58 A 0.41,0.41 0 0,1 12.41,27.26 Z M 15.29,18.38 L 12.91,26.86 A 0.4,0.4 0 0,1 13.01,26.9 L 19.31,21.63 A 0.6,0.6 0 0,1 19.24,21.01 L 15.59,18.31 A 0.4,0.4 0 0,1 15.29,18.38 Z M 19.32,20.88 L 15.69,18.2 A 0.42,0.42 0 0,0 15.71,17.78 L 16.21,17.45 L 18.42,16.11 C 19.92,15.21 21.7,14.18 23.07,13.39 C 23.14,13.46 23.22,13.51 23.31,13.53 L 20,20.72 A 0.57,0.57 0 0,0 19.32,20.88 Z M 18.68,14.48 C 18.75,14.54 18.84,14.58 18.94,14.58 A 0.4,0.4 0 0,0 19.34,14.1 L 22.94,13.22 L 22.97,13.27 A 371.24,371.24 0 0,0 16.14,17.32 L 15.94,17.45 L 18.68,14.48 Z M 28.31,11.82 A 0.4,0.4 0 0,1 27.95,11.59 L 24.15,12.88 L 32.75,12.73 L 28.67,11.61 A 0.4,0.4 0 0,1 28.31,11.82 Z M 37.61,14.84 L 33.85,13.14 A 0.57,0.57 0 0,1 33.81,13.17 L 40.16,18.95 L 38.14,15.27 A 0.4,0.4 0 0,1 37.61,14.84 Z M 43.35,23.12 L 40.67,19.71 L 43.42,28.06 H 43.44 L 43.6,23.86 A 0.41,0.41 0 0,1 43.36,23.13 Z M 43.03,33.8 L 43.37,29.23 L 43.29,29.22 L 39.89,36.96 L 39.95,37.02 L 42.67,34.41 A 0.42,0.42 0 0,1 42.62,34.21 A 0.4,0.4 0 0,1 43.02,33.8 Z M 36.94,41.48 C 37.04,41.48 37.12,41.51 37.19,41.56 L 42.37,34.91 L 40.02,37.16 C 40.04,37.2 40.05,37.25 40.05,37.29 A 0.4,0.4 0 0,1 39.65,37.71 A 0.4,0.4 0 0,1 39.47,37.67 L 32.73,43 L 32.8,43.1 L 36.53,41.95 V 41.88 A 0.4,0.4 0 0,1 36.93,41.47 Z M 39.34,37.58 L 32.64,42.89 A 0.82,0.82 0 0,0 31.98,42.67 L 30.55,37.98 A 0.59,0.59 0 0,0 30.84,37.56 H 39.34 V 37.57 Z M 39.25,37.41 H 30.85 A 0.6,0.6 0 0,0 30.72,37.11 L 37.19,29.11 A 0.81,0.81 0 0,0 37.8,29.21 L 39.4,36.97 A 0.41,0.41 0 0,0 39.25,37.41 Z M 39.75,36.9 A 0.4,0.4 0 0,0 39.53,36.9 L 37.95,29.16 A 0.84,0.84 0 0,0 38.43,28.46 L 42.86,28.6 V 28.65 C 42.86,28.87 42.97,29.05 43.15,29.15 L 39.75,36.9 Z M 18.23,41.07 V 41.14 L 22.02,42.14 L 15.22,37.26 A 0.59,0.59 0 0,1 15.11,37.37 L 17.56,40.76 A 0.4,0.4 0 0,1 17.83,40.66 C 18.05,40.66 18.23,40.84 18.23,41.06 Z M 22.85,42.29 A 0.42,0.42 0 0,0 22.87,42.12 L 29.84,37.87 A 0.57,0.57 0 0,0 30.41,38.04 L 31.83,42.7 A 0.84,0.84 0 0,0 31.29,43.24 L 22.85,42.29 Z M 22.09,42.32 A 0.4,0.4 0 0,0 22.64,42.54 L 25.97,44.34 L 18.87,41.47 L 22.09,42.32 Z M 32.94,12.88 L 24.04,13.04 A 0.6,0.6 0 0,1 24.02,13.13 L 30.82,17.83 A 0.4,0.4 0 0,1 31.2,17.73 L 33.08,13.11 A 0.6,0.6 0 0,1 32.94,12.88 Z M 23.96,13.27 L 30.74,17.96 A 0.42,0.42 0 0,0 30.7,18.16 L 20.31,21.1 A 0.59,0.59 0 0,0 20.11,20.8 L 23.46,13.55 C 23.66,13.55 23.85,13.44 23.95,13.27 Z M 37.3,27.6 L 31.38,18.41 C 31.43,18.37 31.46,18.31 31.48,18.25 L 39.9,19.33 C 39.9,19.53 40.05,19.71 40.25,19.73 L 37.85,27.59 A 0.81,0.81 0 0,0 37.3,27.6 Z M 39.93,19.18 L 31.5,18.1 A 0.41,0.41 0 0,0 31.33,17.78 L 33.19,13.2 A 0.57,0.57 0 0,0 33.66,13.24 L 40.02,19.04 A 0.41,0.41 0 0,0 39.92,19.18 Z M 37.99,27.65 L 40.41,19.73 A 0.4,0.4 0 0,0 40.49,19.69 L 43.26,28.09 A 0.58,0.58 0 0,0 42.88,28.45 L 38.42,28.3 A 0.84,0.84 0 0,0 37.99,27.65 Z M 42.55,21.87 L 40.68,19.49 C 40.7,19.44 40.71,19.39 40.71,19.33 A 0.4,0.4 0 0,0 40.31,18.91 L 39,16.53 L 42.56,21.87 Z M 31.24,43.51 V 43.39 L 22.77,42.44 L 27.21,44.84 L 31.24,43.59 V 43.51 Z" fill-rule="evenodd"/>
</svg>
