<?xml version="1.0" encoding="UTF-8"?>
<!-- generated by Finnhub -->
<svg viewBox="0 0 55.5 55.5" xmlns="http://www.w3.org/2000/svg">
<path d="M 0,0 H 55.5 V 55.5 H 0 Z" fill="url(#a)"/>
<path d="M 34.11,16.384999999999998 L 36.2,14.34 L 33.83,12 L 31.76,14.07 C 31.69,14.14 31.64,14.19 31.52,14.12 A 7.12,7.12 0 0,0 26.42,13.36 A 6.83,6.83 0 0,0 22.79,15.49 A 6.7,6.7 0 0,0 21.13,21.42 A 6.8,6.8 0 0,0 23.85,25.64 A 7.1,7.1 0 0,0 29.48,26.86 A 6.9,6.9 0 0,0 34.09,16.64 C 34.03,16.56 34.03,16.5 34.08,16.44 L 34.12,16.4 Z M 28.12,16 C 30.4,16 32.06,17.99 32,20.21 A 3.9,3.9 0 0,1 28.01,24 A 3.97,3.97 0 0,1 24,20.1 C 24,18.1 25.5,16 28.12,16 Z M 35,40.89 V 36.66 C 35,36.15 34.95,35.63 34.86,35.11 A 7.17,7.17 0 0,0 33.14,31.36 A 6.66,6.66 0 0,0 26.44,29.18 A 6.79,6.79 0 0,0 22.04,32.5 A 6.96,6.96 0 0,0 21.02,35.9 C 20.99,37.58 21,39.26 21,40.95 V 42.99 H 24 V 37.09 C 24,34.77 24.83,32 28,32 C 30.95,32 32,34.6 32,36.4 V 43 H 35 V 40.89 Z" fill="rgb(254, 254, 253)"/>
<defs>
<linearGradient id="a" x1="10.42" x2="68.15" y1="9.71" y2="76.02" gradientUnits="userSpaceOnUse">
<stop stop-color="rgb(25, 29, 31)" offset="0"/>
<stop stop-color="rgb(5, 5, 8)" offset="1"/>
</linearGradient>
</defs>
</svg>
