<?xml version="1.0" encoding="UTF-8"?>
<!-- generated by Finnhub -->
<svg viewBox="0 0 55.5 55.5" xmlns="http://www.w3.org/2000/svg">
<path d="M 0,0 H 55.5 V 55.5 H 0 Z" fill="rgb(26, 132, 230)"/>
<path d="M 27.99,13.385 C 31.58,13.4 33,16.65 33,24.49 C 33,32.35 31.22,34.59 28,34.59 C 24.35,34.59 23,31.39 23,23.59 C 23,15.69 24.84,13.41 28,13.41 Z M 28,12 C 22.76,12 17,15.48 17,24.28 C 17,32.32 22.4,36 28,36 C 33.24,36 39,32.62 39,23.75 C 39,15.45 33.6,12 28,12 Z M 20.92,38 A 1,1 0 0,0 20.17,38.34 L 17.2,41.67 A 0.8,0.8 0 0,0 17.8,43 H 38.2 A 0.8,0.8 0 0,0 38.8,41.67 L 35.86,38.34 A 1,1 0 0,0 35.11,38 H 20.9 Z" fill="rgb(254, 254, 253)"/>
</svg>
