<?xml version="1.0" encoding="UTF-8"?>
<!-- generated by Finnhub -->
<svg viewBox="0 0 55.5 55.5" xmlns="http://www.w3.org/2000/svg">
<path d="M 0,0 H 55.5 V 55.5 H 0 Z" fill="rgb(247, 1, 2)"/>
<path d="M 24.817999999999998,28.985 H 28 L 26.217,26.302 L 23.139,30.969 H 21.738 L 25.482,25.363 A 0.897,0.897 0 0,1 26.217,25 A 0.88,0.88 0 0,1 26.937,25.354 L 30.695,30.969 H 29.295 L 28.71,30 H 25.5 L 24.828,29 Z M 39,29.974 V 25 H 38 V 30.403 C 38,30.549 38.06,30.691 38.173,30.799 C 38.286,30.908 38.439,30.969 38.607,30.969 H 44.113 L 45,29.974 H 39 Z M 19.607,29.054 C 20.761,29.054 22,28.094 22,26.99 S 20.761,25 19.607,25 H 15 V 30.97 H 16 V 25.995 H 19.528 C 20.08,25.995 20.826,26.198 20.826,26.99 S 20.08,28.015 19.528,28.015 L 16.582,28.011 L 19.725,30.969 H 21.452 L 19.064,29.053 H 19.607 Z M 7.09,30.968 C 5.385,30.97 4,29.65 4,28.015 C 4,26.383 5.385,25.057 7.09,25.057 L 10.91,25.052 C 12.616,25.052 14,26.378 14,28.011 C 14,29.643 12.616,30.965 10.91,30.965 L 7.09,30.969 Z M 10.829,29.921 C 11.934,29.921 12.829,29.067 12.829,28.01 S 11.934,26.094 10.829,26.094 L 7.169,26.099 C 6.064,26.099 5.169,26.957 5.169,28.014 S 6.064,29.926 7.169,29.926 L 10.829,29.921 Z M 33.872,31 C 32.166,31 30.695,29.648 30.695,28.015 C 30.695,26.383 32.165,25.087 33.872,25.087 L 37.444,25.057 L 36.748,26.1 L 33.951,26.13 C 32.846,26.13 31.865,26.958 31.865,28.015 S 32.846,29.957 33.951,29.957 L 37.542,29.927 L 36.842,30.969 L 33.872,31 Z M 47.714,29.927 C 46.801,29.927 46.026,29.341 45.79,28.534 H 50.87 L 51.57,27.491 H 45.79 C 46.026,26.689 46.8,25.995 47.714,25.995 H 51.2 L 51.905,25 H 47.634 C 45.927,25 44.541,26.383 44.541,28.015 C 44.541,29.648 45.927,30.969 47.634,30.969 H 51.3 L 52,29.926 H 47.714 Z" fill="rgb(254, 254, 253)"/>
</svg>
