<?xml version="1.0" encoding="UTF-8"?>
<!-- generated by Finnhub -->
<svg viewBox="0 0 55.5 55.5" xmlns="http://www.w3.org/2000/svg">
<path d="M 0,0 H 55.5 V 55.5 H 0 Z" fill="rgb(79, 64, 245)"/>
<path d="M 9.49,31.985 A 3.5,3.5 0 1,0 9.5,25 A 3.5,3.5 0 0,0 9.5,32 Z M 9.5,34 A 5.5,5.5 0 1,0 9.5,23 A 5.5,5.5 0 0,0 9.5,34 Z M 19.17,27.38 C 18.34,27.11 17.35,26.78 17.35,25.9 C 17.35,25.24 18.07,24.79 18.75,24.79 C 19.45,24.79 20.13,25.2 20.24,26.06 H 22.11 C 21.98,23.8 20.08,23 18.83,23 C 16.75,23 15.47,24.4 15.47,26.02 C 15.47,28.07 17.09,28.65 18.23,29.05 L 18.56,29.17 L 18.66,29.21 C 19.59,29.55 20.47,29.88 20.47,30.77 C 20.47,31.67 19.77,32.2 18.92,32.2 C 17.87,32.2 17.15,31.49 17.08,30.3 H 15.17 C 15.2,33.17 17.51,34 18.85,34 C 21.05,34 22.35,32.55 22.35,30.67 C 22.35,28.37 20.34,27.74 19.35,27.44 A 17.2,17.2 0 0,1 19.17,27.38 Z M 28.25,32 C 29.58,32 30.73,31.18 31.27,30 H 33.3 A 5.3,5.3 0 0,1 28.25,34 A 5.38,5.38 0 0,1 23,28.5 C 23,25.46 25.35,23 28.25,23 A 5.3,5.3 0 0,1 33.3,27 H 31.27 A 3.33,3.33 0 0,0 28.25,25 C 26.4,25 25,26.57 25,28.5 S 26.4,32 28.25,32 Z M 42.5,28.5 C 42.5,30.52 40.96,32 39.25,32 C 37.55,32 36,30.52 36,28.5 S 37.54,25 39.25,25 C 40.95,25 42.5,26.48 42.5,28.5 Z M 43,32.35 A 5.12,5.12 0 0,1 39.25,34 A 5.38,5.38 0 0,1 34,28.5 C 34,25.46 36.35,23 39.25,23 C 40.72,23 42.05,23.63 43,24.65 V 23 H 45 V 34 H 43 V 32.35 Z M 46,23 H 48 V 24.72 A 3.7,3.7 0 0,1 51,23 V 25 C 49.89,25 48,26.22 48,27.72 V 34 H 46 V 23 Z" fill="rgb(254, 254, 253)" fill-rule="evenodd"/>
</svg>
