<?xml version="1.0" encoding="UTF-8"?>
<!-- generated by Finnhub -->
<svg viewBox="0 0 55.5 55.5" xmlns="http://www.w3.org/2000/svg">
<path d="M 0,0 H 55.5 V 55.5 H 0 Z" fill="rgb(1, 58, 115)"/>
<path d="M 31.99,20.985 H 36 V 35 H 32 V 21 Z M 43.06,21 A 6.2,6.2 0 0,0 38.78,22.36 C 37.98,23.1 37.45,24.26 37.46,25.38 C 37.46,26.26 37.82,27.12 38.49,27.74 C 39.49,28.57 40.59,28.82 41.72,29.09 C 42.55,29.29 43.39,29.48 44.22,29.91 C 44.5,30.04 45,30.29 45,30.95 C 45,31.75 44.03,32.03 42.96,32 A 2.37,2.37 0 0,1 40.69,30 A 72.84,72.84 0 0,0 37,30 C 37,31.21 37.46,32.74 38.38,33.55 C 39.66,34.66 41.38,35 43.06,35 C 46.02,35 49,33.74 49,30.46 C 49,29.46 48.69,28.46 47.89,27.82 C 46.87,26.99 45.55,26.72 44.23,26.47 C 43.38,26.3 42.53,26.13 41.77,25.8 C 41.44,25.68 41.01,25.37 41,25 C 41,24 42.3,24 42.83,24 C 44.04,24 44.77,24.56 44.85,25.44 H 48.54 C 48.46,24.3 47.99,22.94 47.07,22.21 A 5.71,5.71 0 0,0 44.34,21.08 C 43.92,21.03 43.49,21 43.06,21 Z M 30,21 H 20 V 24 H 23 V 35 H 27 V 24 H 30 V 21 Z M 6,28 C 6.01,24.21 9,21 13,21 S 19.97,24.18 20,28 C 20.03,31.84 17.13,35 13,35 A 6.8,6.8 0 0,1 6,28 Z M 16,28 C 16,26.05 15.12,24 13,24 C 10.87,24 10,26.16 10,28 C 10,29.84 10.84,32 13,32 S 16,29.95 16,28 Z" fill="rgb(252, 82, 115)"/>
</svg>
