<?xml version="1.0" encoding="UTF-8"?>
<!-- generated by Finnhub -->
<svg viewBox="0 0 55.5 55.5" xmlns="http://www.w3.org/2000/svg">
<path d="M 0,0 H 55.5 V 55.5 H 0 Z" fill="rgb(239, 242, 248)"/>
<path d="M 26.18,29.515 L 26.38,29.93 C 26.75,30.74 27.18,31.51 27.54,32.32 C 27.64,32.53 27.79,32.72 27.87,32.95 C 27.91,33.04 27.97,33.11 28.02,33.2 C 28.15,33.41 28.22,33.66 28.34,33.87 C 28.42,34.01 28.54,34.15 28.54,34.32 L 28.61,34.31 C 28.94,33.49 29.31,32.69 29.66,31.87 C 29.81,31.52 29.98,31.33 30.15,31 H 33.71 C 33.34,31.81 32.92,32.47 32.53,33.27 L 30.43,37.37 A 188.22,188.22 0 0,1 30.47,39.74 C 30.49,40.02 30.46,40.32 30.5,40.61 L 30.52,42.27 C 30.51,42.51 30.56,42.75 30.54,43 H 26.85 C 26.85,42.6 26.85,42.2 26.83,41.81 C 26.77,41.44 26.83,41.06 26.77,40.69 L 26.67,38.72 C 26.59,38.26 26.64,37.78 26.5,37.34 C 26.25,36.68 25.97,36.03 25.7,35.38 C 24.84,33.37 24.48,32.52 23.56,30.48 C 23.39,30.2 23.47,29.88 23.51,29.58 L 24.22,29.57 C 24.58,29.52 24.94,29.54 25.29,29.52 C 25.59,29.52 25.89,29.5 26.19,29.53 Z M 16.7,29.87 C 17.26,29.88 17.83,29.85 18.38,29.88 C 18.68,29.95 18.98,29.93 19.28,29.93 H 20.11 C 20.18,29.93 20.24,29.95 20.31,29.97 A 0.23,0.23 0 0,1 20.49,29.93 C 20.56,30.13 20.56,30.33 20.59,30.53 C 20.75,31.6 20.7,32.69 20.63,33.76 V 33.99 C 20.61,34.16 20.58,34.33 20.58,34.49 C 20.57,35.23 20.5,35.97 20.5,36.7 L 20.49,37.28 C 20.43,37.71 20.47,38.14 20.46,38.58 C 20.51,38.96 20.48,39.36 20.58,39.75 C 20.96,39.84 21.36,39.8 21.75,39.81 C 22.87,39.8 23.99,39.82 25.11,39.78 C 25.17,40.2 25.18,40.61 25.2,41.02 C 25.26,41.52 25.23,42.03 25.23,42.54 C 22.33,42.56 19.43,42.55 16.53,42.55 V 41.48 C 16.53,41.21 16.58,40.95 16.57,40.69 L 16.59,38.53 C 16.59,38.37 16.59,38.22 16.57,38.06 L 16.43,38.73 C 16.38,38.97 16.3,39.19 16.21,39.41 C 16.21,39.13 16.2,38.85 16.24,38.58 C 16.26,38.33 16.24,38.08 16.28,37.82 C 16.3,37.53 16.29,37.24 16.32,36.95 C 16.31,36.75 16.4,36.56 16.38,36.37 C 16.36,36.12 16.37,35.87 16.38,35.62 C 16.43,35.4 16.4,35.17 16.43,34.95 C 16.53,33.83 16.5,32.71 16.51,31.59 C 16.54,31.33 16.53,31.06 16.55,30.79 C 16.6,30.49 16.57,30.16 16.7,29.87 Z M 20.7,39.84 C 20.62,39.85 20.52,39.84 20.51,39.93 C 20.59,39.93 20.69,39.95 20.69,39.84 Z M 35.29,29.85 C 35.69,29.87 36.09,29.85 36.5,29.9 C 37.07,29.9 37.63,29.95 38.2,29.95 C 38.46,30 38.72,29.98 39,30 C 39.06,30.62 39.05,31.25 39.1,31.87 C 39.13,32.07 39.11,32.27 39.13,32.47 C 39.17,32.7 39.17,32.93 39.17,33.17 C 39.17,33.45 39.31,33.75 39.2,34.03 C 39.32,34.18 39.27,34.37 39.3,34.54 C 39.34,35.04 39.45,35.53 39.4,36.03 C 39.15,37.81 39.22,36.4 39.19,38.24 L 39.17,38.59 H 39.13 C 38.57,38.6 38.01,38.51 37.45,38.52 C 37.18,38.52 36.9,38.46 36.63,38.47 C 36.28,38.47 35.94,38.42 35.6,38.42 C 35.41,38.4 35.21,38.43 35.03,38.37 C 35.03,37.87 35.03,37.37 35.08,36.87 C 35.08,35.97 35.12,35.07 35.15,34.16 C 35.17,33.66 35.15,33.16 35.2,32.67 L 35.21,31.63 C 35.28,31.04 35.23,30.44 35.29,29.85 Z M 37.47,38.91 C 37.68,39 37.92,39.01 38.1,39.16 C 38.35,39.33 38.45,39.62 38.59,39.87 C 38.65,39.99 38.72,40.1 38.71,40.23 C 38.71,40.58 38.71,40.93 38.69,41.27 L 38.49,42.11 C 38.47,42.21 38.38,42.23 38.3,42.27 C 37.9,42.42 37.5,42.57 37.08,42.66 C 36.86,42.69 36.65,42.78 36.43,42.78 A 2.5,2.5 0 0,1 35.71,42.41 C 35.41,42.16 35.19,41.84 34.94,41.56 C 34.84,41.46 34.88,41.31 34.88,41.19 C 34.89,40.93 34.83,40.66 34.92,40.4 C 34.98,40.2 35.01,40 35.06,39.8 C 35.28,39.59 35.54,39.42 35.78,39.21 C 36.04,38.99 36.38,38.91 36.68,38.78 C 36.95,38.68 37.22,38.82 37.48,38.91 Z"/>
<path d="M 30.31,14.115 C 30.29,14.13 30.27,14.13 30.24,14.11 A 2.83,2.83 0 0,1 30,14.06 C 29.84,14.02 29.68,13.99 29.51,14.01 C 29.46,14.06 29.41,14.13 29.38,14.2 V 14.21 L 28.74,15.41 C 28.41,16.05 28.09,16.69 27.73,17.31 C 26.93,18.74 26.12,20.16 25.3,21.58 L 24.06,23.72 L 22.7,26.05 L 22.47,26.46 C 22.32,26.72 22.17,26.98 22.01,27.22 C 21.85,27.43 21.81,27.72 21.88,27.97 C 21.98,28.01 22.08,28 22.17,27.99 H 22.34 C 22.64,28.01 22.96,28 23.27,27.99 L 23.93,28 C 25.1,27.96 27.43,28 27.43,28 H 28.83 C 28.95,28.01 28.99,27.77 29,27.68 V 25.5 C 29,25.43 28.98,25.36 28.96,25.3 C 28.93,25.18 28.9,25.07 28.96,24.97 L 29.1,25.22 C 29.15,25.32 29.2,25.43 29.26,25.52 L 29.29,25.57 C 29.35,25.65 29.4,25.73 29.41,25.84 V 26.73 C 29.43,27.07 29.43,27.5 29.43,27.86 V 28 H 35.36 L 35.11,27.07 A 172,172 0 0,0 34.15,24.42 L 34.08,24.22 A 290.01,290.01 0 0,1 32.41,19.6 A 413.6,413.6 0 0,1 30.51,14.25 C 30.49,14.16 30.41,14.15 30.32,14.13 Z M 29.17,21.82 C 29.02,21.67 28.87,21.52 28.83,21.3 A 2.05,2.05 0 0,1 28.81,20.62 L 28.83,20.35 A 1.8,1.8 0 0,1 30.28,21.65 C 30.1,21.65 29.93,21.64 29.76,21.59 C 29.76,21.67 29.76,21.74 29.78,21.82 L 29.8,22.22 A 1.65,1.65 0 0,1 29.2,21.84 C 29.18,21.84 29.18,21.83 29.17,21.82 Z M 27.75,22.82 C 27.55,22.83 27.35,22.82 27.15,22.76 C 27.25,22.51 27.44,22.3 27.65,22.13 C 27.93,21.89 28.31,21.9 28.66,21.9 H 28.78 C 28.84,21.91 28.92,21.92 28.91,22 V 22.03 C 28.91,22.33 28.89,22.65 28.71,22.9 C 28.43,23.29 28,23.58 27.52,23.59 C 27.52,23.31 27.61,23.05 27.75,22.82 Z M 30.62,24.12 C 30.22,24.12 29.79,24.02 29.48,23.74 C 29.18,23.4 29.05,22.91 29.12,22.46 C 29.63,22.43 30.15,22.58 30.58,22.89 C 30.7,22.99 30.8,23.1 30.89,23.22 L 31.02,23.38 C 30.86,23.48 30.68,23.47 30.49,23.46 H 30.23 C 30.43,23.62 30.55,23.86 30.63,24.12 Z M 27.1,25.1 C 27.05,24.79 27.18,24.48 27.34,24.23 A 1.4,1.4 0 0,1 28.35,23.66 L 28.56,23.62 C 28.69,23.6 28.82,23.58 28.96,23.58 C 29.06,23.62 29.13,23.74 29.09,23.85 L 29.05,24.02 C 28.97,24.38 28.88,24.77 28.61,25.03 C 28.4,25.2 28.17,25.35 27.91,25.44 A 5.1,5.1 0 0,1 27.87,24.8 L 27.83,24.82 C 27.6,24.94 27.36,25.06 27.1,25.1 Z M 29.66,25.62 A 1.4,1.4 0 0,1 29.24,24.75 C 29.21,24.55 29.24,24.36 29.28,24.17 L 29.3,24.07 C 29.65,24.13 30,24.26 30.32,24.41 C 30.49,24.48 30.62,24.61 30.74,24.75 L 30.82,24.84 C 30.95,24.98 31.08,25.14 31.18,25.31 C 30.92,25.35 30.65,25.34 30.39,25.29 C 30.52,25.52 30.66,25.77 30.69,26.05 A 1.75,1.75 0 0,1 29.66,25.62 Z M 19.49,14.38 C 19.07,14.28 18.66,14.19 18.23,14.15 C 17.45,14.1 16.67,14.15 15.91,14.35 A 7.6,7.6 0 0,0 14.11,15.15 C 13.93,15.25 13.77,15.39 13.66,15.57 L 13.44,15.93 A 6.59,6.59 0 0,0 12.57,17.7 A 9.8,9.8 0 0,0 12,20.58 C 11.98,21.63 12.23,22.68 12.62,23.65 A 6.63,6.63 0 0,0 17,27.22 C 17.27,27.26 17.54,27.28 17.81,27.29 C 18.03,27.31 18.26,27.32 18.48,27.35 C 18.59,27.36 18.7,27.33 18.81,27.31 L 18.95,27.27 C 19,27.27 19.04,27.25 19.08,27.24 C 19.36,27.19 19.65,27.14 19.9,27 A 11.06,11.06 0 0,0 22.78,24.84 L 23.03,24.4 C 23.33,23.88 23.63,23.37 23.77,22.78 C 23.82,22.6 23.82,22.42 23.83,22.23 C 23.83,22.09 23.83,21.96 23.85,21.83 C 23.87,21.67 23.85,21.53 23.85,21.37 L 23.83,21.1 C 23.83,20.02 23.59,18.31 23.28,17.64 L 23.04,17.1 L 22.76,16.46 L 22.74,16.4 C 22.65,16.21 22.57,16.02 22.4,15.9 C 22.04,15.62 21.67,15.36 21.29,15.12 C 21.09,15 20.89,14.92 20.68,14.85 C 20.48,14.79 20.29,14.72 20.12,14.62 C 19.96,14.52 19.8,14.44 19.62,14.41 L 19.49,14.38 Z M 42.79,14.4 C 42.6,14.42 42.42,14.43 42.23,14.43 L 39.03,14.44 H 38.93 L 38.61,14.46 L 38.27,14.48 H 37.08 L 36.46,14.51 C 36.26,14.52 36.05,14.54 35.84,14.53 L 35.26,14.56 C 35,14.57 34.74,14.58 34.48,14.61 H 34.12 C 33.95,14.61 33.79,14.61 33.62,14.64 C 33.44,14.66 33.26,14.66 33.08,14.66 L 32.7,14.67 V 14.82 C 32.69,15.25 32.68,15.68 32.73,16.1 V 17.02 C 32.74,17.66 32.75,18.32 32.79,18.92 L 34.36,18.95 C 35.26,18.98 36.17,19 37,19 A 38.82,38.82 0 0,1 37,22.94 V 25.74 A 14.8,14.8 0 0,0 37,27.04 V 27.38 C 36.98,27.58 36.98,27.8 37,28 A 198.93,198.93 0 0,1 40.17,28 L 40.2,27.35 C 40.23,27.02 40.25,26.68 40.22,26.35 C 40.18,25.98 40.18,25.61 40.18,25.25 V 24.27 C 40.18,23.96 40.18,23.64 40.22,23.33 C 40.24,23.21 40.22,23.09 40.22,22.97 S 40.2,22.72 40.22,22.6 V 21.76 C 40.22,21.38 40.22,21 40.27,20.62 C 40.29,20.51 40.22,20.42 40.15,20.35 L 40.17,20.32 C 40.22,20.22 40.27,20.12 40.27,20.02 C 40.27,19.87 40.27,19.72 40.25,19.58 A 3.49,3.49 0 0,1 40.23,19.18 H 40.5 C 40.65,19.18 40.8,19.18 40.95,19.16 C 41.18,19.13 41.42,19.13 41.65,19.13 C 41.86,19.13 42.07,19.13 42.27,19.11 L 42.81,19.08 L 43.4,19.04 V 18.66 C 43.4,18.09 43.41,17.5 43.35,16.93 H 43.39 L 43.43,16.94 C 43.48,17.04 43.54,17.12 43.61,17.19 C 43.63,16.98 43.61,16.76 43.6,16.55 A 5.92,5.92 0 0,1 43.58,15.59 V 14.38 C 43.31,14.36 43.05,14.38 42.78,14.4 Z M 41,21 H 46 V 25 H 41 V 21 Z" fill="rgb(160, 200, 212)"/>
</svg>
