<?xml version="1.0" encoding="UTF-8"?>
<!-- generated by Finnhub -->
<svg viewBox="0 0 55.5 55.5" xmlns="http://www.w3.org/2000/svg">
<path d="M 0,0 H 55.5 V 55.5 H 0 Z" fill="rgb(239, 242, 248)"/>
<path d="M 22.034,33.985 C 23.744,36.932 26.914,39.864 32.402,40.015 C 36.189,40.015 39.282,38.511 41.6,35.805 C 41.987,35.278 42.45,34.526 42.682,34 H 43 C 40.495,39.832 34.778,43.928 28.352,44 H 27.996 C 25.213,43.925 22.662,43.398 20.189,42.045 C 20.189,42.045 15.319,39.789 13,34 H 22.044 Z" fill="rgb(1, 90, 169)"/>
<path d="M 26.502,23.985 C 27.136,25.043 27.605,25.74 27.995,26.435 C 28.465,25.652 28.776,25.131 29.48,24 H 33 C 31.985,25.478 30.963,27.043 30.26,28 C 31.198,29.391 32.057,30.695 32.994,32 H 29.401 C 28.933,31.217 28.542,30.522 27.996,29.652 C 27.605,30.347 26.98,31.304 26.512,32 H 22.997 A 120.82,120.82 0 0,1 25.73,28 C 24.872,26.783 23.778,25.304 22.997,24 H 26.512 Z M 38.493,26.348 C 38.985,25.565 39.508,24.782 40,24 H 43 C 41.735,26 40.484,28.218 39.992,29 V 32 H 36.993 V 29 C 36.431,28.044 34.563,24.956 34,24 H 37 L 38.493,26.348 Z" fill="rgb(236, 26, 45)"/>
<path d="M 33.984,21.985 C 32.384,19.087 29.039,16.231 23.598,16.001 C 19.765,16.001 16.776,17.611 14.477,20.295 C 14.093,20.831 13.568,21.463 13.262,22 H 13 C 15.49,16.038 21.305,12.054 27.696,12 H 28 C 30.76,12.153 33.255,12.628 35.707,13.931 C 35.707,13.931 40.624,16.097 43,22 H 33.994 Z" fill="rgb(1, 90, 169)"/>
<path d="M 20.049999999999997,31.985 H 14.015 C 12.645,32 12,30.956 12,30.174 V 25.741 C 12,24.5 13.29,24.003 14.015,24.003 H 20.06 C 22,24 21.994,25.741 21.994,25.741 V 30.174 S 22,32 20.06,32 Z M 15,27.654 V 29.136 S 15,30.005 15.805,30.005 H 18.206 C 18.77,30.005 18.998,29.608 18.998,29 L 19.012,26.871 C 19.012,26.35 18.609,26.002 18.206,26.002 H 15.805 C 14.999,26.002 14.999,26.785 14.999,26.785 V 27.654 Z" fill="rgb(236, 26, 45)"/>
</svg>
