<?xml version="1.0" encoding="UTF-8"?>
<!-- generated by Finnhub -->
<svg viewBox="0 0 55.5 55.5" xmlns="http://www.w3.org/2000/svg">
<path d="M 0,0 H 55.5 V 55.5 H 0 Z" fill="rgb(1, 187, 151)"/>
<circle cx="28" cy="28" r="16"/>
<path d="M 33.324000000000005,25.16 A 7.51,7.51 0 0,0 32.496,39.463 A 10.31,10.31 0 0,1 25.455,42.228 C 19.741,42.228 15.108,37.596 15.108,31.882 C 15.108,26.167 19.741,21.535 25.455,21.535 C 28.61,21.535 31.436,22.948 33.334,25.175 Z" fill="rgb(176, 217, 215)"/>
<circle cx="35.187" cy="32.452" r="6.285" fill="rgb(243, 222, 92)"/>
<path d="M 40.49,27.134999999999998 C 40.534,26.776 40.55,26.398 40.55,26.016 C 40.55,18.99 34.855,13.295 27.83,13.295 C 20.804,13.295 15.108,18.99 15.108,26.016 C 15.108,26.283 15.117,26.548 15.133,26.81 A 11.498,11.498 0 0,1 25.455,20.384 A 11.48,11.48 0 0,1 34.64,24.964 A 7.484,7.484 0 0,1 40.5,27.149 Z" fill="rgb(220, 225, 113)"/>
</svg>
