<?xml version="1.0" encoding="UTF-8"?>
<!-- generated by Finnhub -->
<svg viewBox="0 0 55.5 55.5" xmlns="http://www.w3.org/2000/svg">
<path d="M 0,0 H 55.5 V 55.5 H 0 Z" fill="rgb(151, 194, 58)"/>
<path d="M 42.396,29.087 C 42.52,28.342 43.241,27.734 44,27.696 V 16.979 C 43.962,14.242 41.722,12 38.99,12 H 16.972 C 14.24,12 12,14.242 12,16.979 V 38.983 C 12,41.758 14.24,44 16.973,44 H 38.95 C 41.721,44 43.923,41.758 43.923,38.983 V 32.067 C 43.695,32.181 43.43,32.257 43.202,32.257 C 42.442,32.257 41.912,31.649 42.063,30.85 L 42.405,29.102 Z M 16.327,31.876 L 16.024,33.625 C 15.872,34.385 15.151,35.031 14.391,35.031 C 13.632,35.031 13.101,34.423 13.253,33.625 L 13.556,31.877 C 13.708,31.117 14.429,30.47 15.189,30.47 C 15.948,30.47 16.479,31.078 16.327,31.877 Z M 21.072,31.876 L 19.972,38.033 C 19.82,38.793 19.099,39.439 18.339,39.439 C 17.58,39.439 17.049,38.831 17.201,38.033 L 18.263,31.876 C 18.415,31.116 19.136,30.47 19.896,30.47 C 20.693,30.47 21.186,31.078 21.072,31.877 Z M 26.272,29.064 L 24.223,40.884 C 24.071,41.644 23.35,42.29 22.591,42.29 C 21.831,42.29 21.301,41.682 21.452,40.884 L 23.502,29.064 C 23.654,28.304 24.375,27.658 25.134,27.658 C 25.894,27.658 26.424,28.266 26.273,29.064 Z M 32.005,23.439 L 29.234,39.363 C 29.082,40.123 28.361,40.77 27.601,40.77 C 26.842,40.77 26.311,40.123 26.425,39.363 L 29.195,23.439 C 29.348,22.679 30.069,22.033 30.828,22.033 C 31.625,22.033 32.118,22.641 32.005,23.439 Z M 36.977,21.919 L 34.927,33.739 C 34.776,34.499 34.055,35.145 33.295,35.145 C 32.536,35.145 32.005,34.537 32.157,33.739 L 34.207,21.919 C 34.32,21.159 35.08,20.513 35.839,20.513 C 36.598,20.513 37.129,21.159 36.978,21.919 Z M 41.229,24.769 L 40.166,30.926 C 40.014,31.686 39.293,32.333 38.534,32.333 C 37.774,32.333 37.244,31.725 37.395,30.926 L 38.458,24.77 C 38.572,24.01 39.331,23.363 40.09,23.363 C 40.85,23.363 41.343,23.971 41.229,24.77 Z" fill="rgb(254, 254, 253)"/>
</svg>
