<?xml version="1.0" encoding="UTF-8"?>
<!-- generated by Finnhub -->
<svg viewBox="0 0 55.5 55.5" xmlns="http://www.w3.org/2000/svg">
<path d="M 0,0 H 55.5 V 55.5 H 0 Z" fill="rgb(249, 69, 20)"/>
<path d="M 5.99,19.985 H 22 V 36 H 6 V 20 Z M 20,34 V 22 H 8 V 34 H 20 Z M 9,24 V 29.35 C 9,31.59 10.39,33 12.47,33 C 14.6,33 16,31.6 16,29.35 V 24 H 14 V 29.35 C 14,30.62 13.5,31.25 12.5,31.25 S 11,30.58 11,29.35 V 24 H 9 Z M 18,25 C 18.58,25 19,24.58 19,24 C 19,23.48 18.62,23 18,23 C 17.42,23 17,23.42 17,24 C 17,24.58 17.42,25 18,25 Z M 17,26 V 33 H 19 V 26 H 17 Z M 27.25,30 C 29.07,30 30.27,28.8 30.27,27.02 A 2.88,2.88 0 0,0 27.25,24 H 24 V 33 H 26 V 30 H 27.25 Z M 26.75,28.5 H 26 V 25.5 H 26.76 C 27.73,25.5 28.31,26.1 28.31,27.02 C 28.31,27.99 27.73,28.5 26.76,28.5 Z M 46,26.92 V 24 H 44 V 33 H 46 V 29.03 C 46,28.23 46.13,27.28 47,27.28 S 48,28.14 48,28.94 V 33 H 50 V 28.77 C 50,27.05 49.14,26 47.58,26 C 46.6,26 46.11,26.68 46,26.92 Z M 30.42,29.37 C 30.42,31.51 31.86,33 33.79,33 C 34.94,33 35.58,32.6 36,31.93 V 33 H 38 V 26 H 36 V 26.92 C 35.8,26.33 34.91,25.73 33.79,25.73 C 31.83,25.73 30.42,27.27 30.42,29.37 Z M 36,29.37 C 36,30.6 35.33,31.4 34.21,31.4 S 32.47,30.53 32.47,29.37 C 32.47,28.11 33.17,27.31 34.21,27.31 C 35.37,27.31 36,28.15 36,29.37 Z M 42,30.53 C 42,31.16 42.25,31.47 42.68,31.47 H 43 V 33 H 42.34 C 40.58,33 40,32.2 40,30.53 V 27.5 H 39 V 26 H 40 V 24 H 42 V 26 H 43 V 27.5 H 42 V 30.53 Z" fill="rgb(254, 254, 253)"/>
</svg>
