<?xml version="1.0" encoding="UTF-8"?>
<!-- generated by Finnhub -->
<svg viewBox="0 0 55.5 55.5" xmlns="http://www.w3.org/2000/svg">
<path d="M 0,0 H 55.5 V 55.5 H 0 Z" fill="rgb(1, 74, 139)"/>
<path d="M 7.463,25.985 H 8.263 C 8.743,26 9.28,26.132 9.28,26.76 C 9.28,27.297 8.97,27.656 8.038,27.656 H 7.162 L 7.472,26 Z M 4,32 H 6.287 L 6.767,29.569 H 8.32 C 10.296,29.569 11.567,28.194 11.567,26.579 C 11.567,24.817 10.664,24 9.28,24 H 5.581 L 4,32 Z M 14.39,26.73 L 14.673,29 H 13.233 L 14.391,26.73 Z M 9.45,32 H 11.821 L 12.414,31 H 14.871 L 14.984,32 H 17.271 L 16.056,24 H 13.77 L 9.45,32 Z M 16.565,24 H 18.88 L 19.614,26.968 L 21.45,24 H 24.161 L 20.491,29.03 L 19.926,32 H 17.61 L 18.175,29.06 L 16.565,24 Z" fill="rgb(254, 254, 253)"/>
<path d="M 29.683999999999997,28.985 C 29.553,29.807 28.96,32.17 25.826,32.17 C 23.652,32.17 22.579,30.675 22.579,28.553 C 22.579,25.983 24.103,23.831 26.645,23.831 C 28.311,23.831 29.807,24.608 29.863,26.999 H 27.718 C 27.746,26.252 27.407,25.833 26.673,25.833 C 25.374,25.833 24.923,27.388 24.923,28.523 C 24.923,29.181 25.063,30.197 26.136,30.197 C 26.871,30.197 27.266,29.687 27.436,29 H 29.694 Z M 33.901,32 L 34.444,29 H 32.326 L 31.784,32 H 29.468 L 31.049,24 H 33.365 L 32.726,27 H 34.844 L 35.482,24 H 37.798 L 36.245,32 H 33.9 Z M 52,24 H 49.261 L 47.765,26.072 L 47.03,24 H 38.418 L 36.837,32 H 45.505 L 47.255,29.748 L 48.075,32 H 50.672 L 48.837,27.775 L 52,24 Z M 43.304,31.242 L 43.558,30 H 39.577 L 39.774,29 H 43.388 L 43.755,27 H 40.141 L 40.339,26 H 44.236 L 44.574,24.19 L 46.212,27.716 L 43.304,31.242 Z" fill="rgb(254, 254, 253)"/>
</svg>
