<?xml version="1.0" encoding="UTF-8"?>
<!-- generated by Finnhub -->
<svg viewBox="0 0 55.5 55.5" xmlns="http://www.w3.org/2000/svg">
<path d="M 0,0 H 55.5 V 55.5 H 0 Z" fill="url(#a)"/>
<path d="M 55.99,21.983999999999998 V 18 H 0 V 21.999 H 15.298 L 10.782,38 H 19.858 C 24.202,38.175 27.545,34.994 26.458,31.255 C 26.155,30.209 25.156,29.599 25.068,29.599 C 26.241,28.989 26.936,27.724 27.066,27.549 C 27.501,26.591 27.892,24.891 26.719,23.496 C 25.807,22.319 23.983,21.999 22.68,21.999 H 32.32 L 27.849,38 H 32.322 L 34.055,30.995 H 36.66 C 38.484,30.995 38.314,32.737 38.358,33.217 L 38.488,38 H 42.613 S 42.483,32.694 42.483,32.345 C 42.44,31.125 41.615,30.558 40.92,30.558 C 42.223,30.165 43.395,28.988 43.83,28.204 C 44.394,27.288 44.828,25.85 44.264,24.454 C 43.525,22.362 41.484,21.999 40.138,21.999 H 56 Z M 35.812,24.992 H 38.933 C 40.453,24.992 40.702,26.155 40.702,26.46 C 40.702,27.201 40.094,28.496 38.183,28.496 H 34.883 S 35.769,25.036 35.813,24.992 Z M 17.166,30.995 H 20.162 C 21.737,30.995 22.303,32.255 21.837,33.659 C 21.75,33.92 21.42,35 19.51,35 H 16.027 L 17.165,30.995 Z M 18.816,24.998 H 22.29 C 22.941,24.998 23.578,25.509 23.578,26.512 C 23.578,27.515 22.547,28.496 21.461,28.496 H 17.77 L 18.816,24.998 Z" fill="rgb(254, 254, 253)"/>
<defs>
<linearGradient id="a" x1="28" x2="28" y2="56" gradientUnits="userSpaceOnUse">
<stop stop-color="rgb(252, 199, 45)" offset=".375"/>
<stop stop-color="rgb(1, 132, 64)" offset=".38"/>
</linearGradient>
</defs>
</svg>
