<?xml version="1.0" encoding="UTF-8"?>
<!-- generated by Finnhub -->
<svg viewBox="0 0 55.5 55.5" xmlns="http://www.w3.org/2000/svg">
<path d="M 0,0 H 55.5 V 55.5 H 0 Z" fill="rgb(39, 68, 140)"/>
<path d="M 42.407000000000004,35.019999999999996 C 42.881,26.299 35.218,16.414 24.816,15.218 V 15.08 C 35.079,15.08 42.928,24.46 42.928,31.908 C 42.928,33.471 42.788,34.391 42.556,35.08 L 42.416,35.035 Z M 41.813,36.184 A 16.138,16.138 0 0,1 39.259,38.621 C 37.401,28.091 29.599,18.896 24.073,16.184 L 23.933,16.276 C 29.506,20.782 36.101,29.563 38.702,39.035 A 19.705,19.705 0 0,1 34.475,41.425 C 29.228,35.495 24.351,24.092 22.772,16.828 L 22.633,16.874 C 22.68,23.908 27.695,35.862 33.872,41.701 A 19.054,19.054 0 0,1 29.506,42.897 C 23.608,40.597 19.429,33.195 19.429,25.609 C 19.429,20.644 20.961,17.609 21.239,16.965 L 21.101,16.919 C 20.729,17.471 18.5,20.506 18.5,25.885 C 18.5,34.437 22.772,41.011 28.438,43.08 C 26.488,43.31 24.444,43.218 22.355,42.805 L 22.308,42.943 C 22.912,43.173 24.955,44 28.113,44 C 35.218,44 40.002,39.632 41.953,36.322 L 41.813,36.184 Z" fill="rgb(254, 254, 253)"/>
<path d="M 27.407,11.985 C 22.03,12 15.714,15.862 15.714,19.356 C 15.714,20.736 16.968,21.886 19.569,21.886 C 25.606,21.886 31.225,17.793 31.225,14.575 C 31.225,12.874 29.6,12 27.417,12 Z M 29.553,14.483 C 29.553,17.195 24.352,20.46 19.986,20.46 C 18.036,20.46 17.014,19.724 17.014,18.483 C 17.014,15.77 22.309,12.506 26.395,12.506 C 29.043,12.506 29.553,13.839 29.553,14.483 Z" fill="rgb(254, 254, 253)"/>
<path d="M 13.567,20.997 C 13.438,21.288 12.834,22.438 12.834,23.633 C 12.834,25.886 15.11,27.955 19.29,27.955 C 27.324,27.955 36.658,22.07 36.658,16.599 C 36.658,14.162 34.336,12.829 32.711,12.553 L 32.664,12.644 C 33.175,12.782 35.033,13.656 35.033,15.817 C 35.033,20.185 26.813,26.07 18.639,26.07 C 15.481,26.07 13.531,24.553 13.531,22.3 C 13.531,21.61 13.671,21.15 13.717,21.012 H 13.577 Z" fill="rgb(254, 254, 253)"/>
<path d="M 39.992000000000004,16.997 C 40.234,17.195 41.534,18.252 41.534,20.368 C 41.534,27.448 30.342,34.391 20.45,34.391 C 14.552,34.345 11.905,31.494 11.998,28.92 H 12.091 C 12.323,30.253 14.227,32.644 19.382,32.644 C 29.274,32.644 40.327,25.471 40.327,19.172 C 40.327,18.115 40.048,17.425 39.863,17.103 L 40.002,17.012 Z" fill="rgb(254, 254, 253)"/>
<path d="M 43.708000000000006,23.570999999999998 C 43.764,23.724 43.996,24.414 43.996,25.471 C 43.996,33.333 32.665,40.046 22.819,40.046 C 17.757,40.046 15.11,37.609 14.553,36.644 L 14.646,36.598 C 16.039,37.793 18.826,38.713 22.03,38.713 C 30.714,38.713 43.671,32.183 43.578,23.633 L 43.718,23.586 Z" fill="rgb(254, 254, 253)"/>
</svg>
