<?xml version="1.0" encoding="UTF-8"?>
<!-- generated by Finnhub -->
<svg viewBox="0 0 55.5 55.5" xmlns="http://www.w3.org/2000/svg">
<path d="M 0,0 H 55.5 V 55.5 H 0 Z" fill="rgb(239, 242, 248)"/>
<path d="M 43.63,30.955 C 42.79,30.97 42.34,30.48 42.34,29.6 L 42.35,29.42 H 45.68 C 45.75,29.19 45.79,28.93 45.79,28.7 C 45.79,27.62 45.08,26.8 43.61,26.8 A 2.93,2.93 0 0,0 40.79,29.6 C 40.79,30.97 41.76,31.8 43.37,31.8 C 44.09,31.8 44.79,31.58 45.29,31.23 L 44.98,30.52 C 44.58,30.8 44.12,30.96 43.64,30.97 Z M 43.64,27.57 C 44.13,27.57 44.38,27.87 44.38,28.52 L 44.37,28.72 H 42.47 C 42.67,28.02 43.12,27.58 43.63,27.58 Z M 30,26.17 C 30,24.92 28.95,24 27.37,24 H 24.31 L 22,32 H 23.93 L 24.78,29.05 H 26.46 C 28.38,29.05 30,27.89 30,26.17 Z M 25.72,28.11 H 25.06 L 25.97,24.94 H 26.67 C 27.55,24.94 28.04,25.5 28.04,26.24 C 28.04,27.43 27.05,28.11 25.72,28.11 Z M 27.83,36.99 H 29.57 V 37 L 32.12,28 H 33.94 L 32.86,32 H 34.62 L 35.96,27 H 32.4 L 32.69,25.8 C 32.79,25.41 32.96,24.76 33.2,24 C 33.45,23.23 33.9,22.74 34.52,22.74 C 34.82,22.74 35,22.88 35,23.11 C 34.99,23.35 34.78,23.5 34.78,23.9 C 34.78,24.36 35.18,24.71 35.69,24.71 C 36.33,24.71 36.84,24.21 36.84,23.59 C 36.84,22.63 36.01,22 34.74,22 C 32.89,22 31.67,23.17 30.91,25.9 M 41.17,27 H 36.48 L 36.25,28 H 38.52 L 35.01,32 H 39.98 L 40.21,31 H 37.65 L 41.17,27 Z M 50.95,27 C 50.29,27 49.58,27.4 49.03,28.21 L 49.36,27 H 47.5 L 46,32 H 47.84 L 48.53,29.92 C 48.8,28.97 49.47,28.05 49.92,28.05 C 50.4,28.05 50.22,28.87 51.04,28.87 C 51.64,28.87 52,28.37 52,27.9 C 52,27.36 51.53,27 50.95,27 Z" fill="rgb(1, 1, 199)"/>
<path d="M 5.470000000000001,26.985 C 7,26.31 9.63,26.12 13,26.5 L 13.95,23.2 C 9.09,22.61 5.55,23.27 4.95,25.36 L 4.93,25.45 C 4.83,25.94 5.03,26.46 5.48,26.99 Z" fill="rgb(60, 149, 245)"/>
<path d="M 20.509999999999998,25.995 C 19,26.69 16.36,26.88 13,26.5 L 12.05,29.8 C 16.9,30.39 20.45,29.73 21.05,27.64 L 21.07,27.56 C 21.17,27.06 20.97,26.54 20.52,26.01 Z" fill="rgb(1, 1, 199)"/>
<path d="M 8.19,17.985 L 7.24,21.3 C 12.93,21.69 18.71,23.88 20.52,26.01 C 21.22,25.71 21.68,25.29 21.86,24.79 L 21.06,27.56 L 21.05,27.64 L 21.69,25.4 C 21.9,24.7 22,24.33 22,24.04 C 22,21.5 14.93,18.4 8.2,18 Z" fill="rgb(60, 149, 245)"/>
<path d="M 20.509999999999998,25.995 C 20.97,26.54 21.17,27.07 21.07,27.56 L 21.87,24.78 C 21.67,25.28 21.22,25.7 20.52,26.01 Z" fill="rgb(60, 149, 245)"/>
<path d="M 5.470000000000001,26.985 C 4.78,27.3 4.32,27.71 4.13,28.21 C 4.04,28.54 4,28.76 4,28.95 C 4,31.51 11.07,34.61 17.8,35 L 18.75,31.7 C 13.07,31.3 7.3,29.13 5.48,27 Z" fill="rgb(1, 1, 199)"/>
<path d="M 5.470000000000001,26.985 C 5.03,26.46 4.83,25.94 4.93,25.44 L 4.13,28.19 V 28.22 C 4.32,27.72 4.78,27.3 5.48,26.99 Z" fill="rgb(1, 1, 199)"/>
</svg>
