<?xml version="1.0" encoding="UTF-8"?>
<!-- generated by Finnhub -->
<svg viewBox="0 0 55.5 55.5" xmlns="http://www.w3.org/2000/svg">
<path d="M 0,0 H 55.5 V 55.5 H 0 Z" fill="rgb(1, 59, 172)"/>
<path d="M 18.942,20.207 C 19.762,20.222 22.078,19.872 20.625,24.777 C 19.118,29.922 15.758,28.867 15.758,28.867 L 18.157,20.222 H 18.952 Z M 25.037,25.102 C 26.927,19.706 23.11,18 20.807,18 H 13.183 C 13.815,18.51 13.977,19.414 13.859,19.815 L 9.41,36.283 C 9.235,36.944 8.35,37.88 8,38 H 14.178 C 13.828,37.921 13.558,37.093 13.739,36.336 L 15.353,30.378 S 22.782,31.541 25.037,25.102 Z" fill="rgb(254, 254, 253)"/>
<path d="M 27.52,35.182 C 27.285,35.371 26.32,35.939 25.418,36.034 C 24.57,36.12 23.178,35.75 23.178,33.809 C 23.178,32.132 24.75,30.935 25.582,30.502 C 25.959,32.112 26.709,33.943 27.529,35.197 Z M 29.963,24.709 C 29.757,26.284 28.01,27.869 27.58,28.072 C 27.502,27.192 27.53,25.795 28.161,24.662 C 28.598,23.912 29.151,23.584 29.598,23.767 C 29.963,23.911 30.007,24.291 29.963,24.709 Z M 29.963,37.997 H 34.133 C 32.802,37.491 30.833,35.767 30.044,34.734 C 30.684,33.943 31.461,32.934 31.607,30.884 H 29.448 S 29.878,31.149 29.878,31.739 C 29.878,32.287 29.686,33.032 29.322,33.562 C 28.694,32.478 28.01,31.24 27.77,29.421 C 28.616,28.935 29.813,28.409 30.748,27.459 C 31.652,26.539 31.855,25.697 31.868,25.129 V 25.056 C 31.868,24.47 31.68,23.933 31.303,23.509 C 30.685,22.791 29.696,22.509 28.663,22.716 A 3.832,3.832 0 0,0 26.783,23.788 C 25.505,25.148 25.346,27.408 25.346,28.425 C 25.346,28.651 25.361,28.856 25.365,28.965 C 25.305,28.986 25.16,29.057 25.16,29.057 C 24.257,29.442 21.81,30.2 20.933,32.531 C 20.823,32.818 20.663,33.467 20.663,34.217 C 20.663,34.847 20.772,35.56 21.127,36.221 C 21.754,37.334 22.791,38.026 24.47,37.997 C 26.29,37.971 28.09,36.525 28.399,36.263 C 28.719,36.61 29.548,37.761 29.963,37.997 Z" fill="rgb(254, 254, 253)"/>
<path d="M 42.59,19.743 C 45.076,19.073 47.116,21.319 47.306,21.458 L 48,18.87 C 47.028,18.528 39.943,15.744 34.933,22.371 C 31.855,26.449 31.083,34.791 35.001,37.026 C 39.185,39.426 43.811,36.661 44.136,36.473 L 46.179,29.77 C 46.382,28.904 46.842,28.349 47.669,28 H 41.036 C 41.999,28.474 41.935,29.314 41.85,29.659 L 39.825,36.379 C 39.568,36.429 34.231,37.97 37.219,27.154 C 37.853,24.841 39.668,20.587 42.599,19.758 Z" fill="rgb(254, 254, 253)"/>
</svg>
