<?xml version="1.0" encoding="UTF-8"?>
<!-- generated by Finnhub -->
<svg viewBox="0 0 55.5 55.5" xmlns="http://www.w3.org/2000/svg">
<path d="M 0,0 H 55.5 V 55.5 H 0 Z" fill="rgb(10, 93, 213)"/>
<path d="M 20.99,23.985 H 19 V 27 H 16 V 24 H 14 V 32 H 16 V 29 H 19 V 32 H 21 V 24 Z M 29,30 V 24 H 27 V 32 H 31 V 30 H 29 Z M 25,24 H 23 V 32 H 25 V 24 Z M 34,24 H 32 V 32 H 34 V 24 Z M 45.445,26.12 C 45.445,25.702 45.847,25.51 46.495,25.51 C 47.207,25.51 47.98,25.67 48.505,25.897 L 48.32,24.225 A 8.508,8.508 0 0,0 46.25,24 C 44.426,24 43.19,24.747 43.19,26.314 C 43.19,29.012 46.714,28.466 46.714,29.719 C 46.714,30.201 46.373,30.457 45.539,30.457 C 44.798,30.457 43.653,30.201 42.973,29.847 L 43.221,31.615 C 43.901,31.872 44.827,32 45.571,32 C 47.454,32 49,31.357 49,29.429 C 49,26.86 45.445,27.341 45.445,26.12 Z M 38.931,30.016 C 41.031,30.016 41.893,28.946 41.893,26.986 C 41.893,24.834 40.94,24.008 38.621,24.008 C 37.725,24.008 36.772,24 36,24 V 32 H 38 V 30.009 L 38.931,30.016 Z M 39.94,26.986 C 39.94,27.981 39.673,28.635 38.497,28.635 L 38,28.627 V 25.454 C 38.131,25.446 38.382,25.454 38.497,25.454 C 39.61,25.454 39.94,26.021 39.94,26.986 Z M 9.772,30.01 C 11.872,30.01 12.874,28.917 12.874,26.957 C 12.874,24.805 11.78,24.001 9.463,24.001 H 7 V 32.001 H 9 V 30.01 H 9.772 Z M 10.978,26.957 C 10.978,27.952 10.514,28.627 9.339,28.627 H 9 V 25.455 C 9.131,25.447 9.223,25.447 9.339,25.447 C 10.451,25.447 10.978,25.992 10.978,26.957 Z" fill="rgb(254, 254, 253)"/>
</svg>
