<?xml version="1.0" encoding="UTF-8"?>
<!-- generated by Finnhub -->
<svg viewBox="0 0 55.5 55.5" xmlns="http://www.w3.org/2000/svg">
<path d="M 0,0 H 55.5 V 55.5 H 0 Z" fill="rgb(239, 242, 248)"/>
<path d="M 28.003,11.985 C 19.17,12 12,19.158 12,27.987 C 12,34.763 16.218,40.553 22.175,42.882 C 22.03,41.618 21.911,39.672 22.227,38.289 C 22.517,37.039 24.099,30.342 24.099,30.342 S 23.624,29.382 23.624,27.974 C 23.624,25.75 24.916,24.092 26.524,24.092 C 27.894,24.092 28.554,25.118 28.554,26.342 C 28.554,27.711 27.684,29.763 27.222,31.672 C 26.84,33.263 28.026,34.566 29.595,34.566 C 32.441,34.566 34.629,31.566 34.629,27.25 C 34.629,23.421 31.875,20.75 27.934,20.75 C 23.374,20.75 20.698,24.158 20.698,27.684 C 20.698,29.053 21.226,30.526 21.885,31.329 A 0.476,0.476 0 0,1 21.99,31.789 C 21.872,32.289 21.595,33.382 21.542,33.605 C 21.476,33.895 21.305,33.961 21.002,33.815 C 18.998,32.882 17.746,29.974 17.746,27.618 C 17.746,22.578 21.41,17.948 28.33,17.948 C 33.878,17.948 38.2,21.895 38.2,27.184 C 38.2,32.697 34.721,37.132 29.898,37.132 C 28.277,37.132 26.748,36.289 26.234,35.289 L 25.232,39.092 C 24.876,40.487 23.902,42.224 23.242,43.289 C 24.745,43.75 26.326,44 27.987,44 C 36.83,44 44,36.842 44,28.013 C 44.026,19.158 36.857,12 28.013,12 Z" fill="rgb(229, 1, 33)"/>
</svg>
