<?xml version="1.0" encoding="UTF-8"?>
<!-- generated by Finnhub -->
<svg viewBox="0 0 55.5 55.5" xmlns="http://www.w3.org/2000/svg">
<path d="M 0,0 H 55.5 V 55.5 H 0 Z" fill="rgb(239, 242, 248)"/>
<path d="M 14.99,13.985 H 32 A 12,12 0 0,1 32,38 H 15 V 14 Z" fill="rgb(226, 190, 155)"/>
<path d="M 14.99,35.985 H 31 V 43 H 15 Z" fill="rgb(226, 190, 155)"/>
<path d="M 43.99,26.035 C 44,21.86 42,19.25 41.07,18.12 C 37.23,22.69 36.78,30.87 37.07,34.35 C 34.38,30.9 31.82,27.15 27.68,22.82 C 23.25,18.19 17.6,15.4 15.46,14.45 A 20.28,20.28 0 0,0 21.09,27.53 C 25.62,32.15 31.24,34.15 33.49,34.57 C 25.15,34.69 21.57,40.28 20.83,43 H 31 V 38 H 33 C 40.86,37.44 44,31.11 44,26.05 Z" fill="rgb(33, 21, 20)"/>
<circle cx="27.5" cy="39.5" r="1.5" fill="rgb(239, 242, 248)"/>
</svg>
