<?xml version="1.0" encoding="UTF-8"?>
<!-- generated by Finnhub -->
<svg viewBox="0 0 55.5 55.5" xmlns="http://www.w3.org/2000/svg">
<path d="M 0,0 H 55.5 V 55.5 H 0 Z" fill="rgb(4, 76, 81)"/>
<path d="M 38.5,29.000999999999998 C 36.356,30.846 37.26,33.531 38.146,35.166 C 39.254,37.211 37.839,40.222 35.902,41.927 C 40.607,39.252 43.824,34.262 44,28.504 C 43.268,28.024 42.289,27.97 41.295,28 C 40.303,28.03 39.298,28.347 38.509,29.016 Z" fill="rgb(1, 177, 193)"/>
<path d="M 27.247999999999998,33.46 C 24.172,30.845 21.468,32.117 19.626,34.29 C 17.759,36.496 20.333,37.155 23.847,37.957 C 26.501,38.564 26.174,43.184 26.417,44 C 29.583,38.858 28.672,34.679 27.258,33.475 Z" fill="rgb(55, 189, 80)"/>
<path d="M 32.238,17.454 C 37.511,21.552 32.884,23.639 32.884,23.639 C 35.873,26.179 38.894,21.316 42.139,24.094 C 42.999,24.829 43.546,25.719 43.953,26.676 C 43.407,20.035 38.808,14.545 32.633,12.681 C 30.211,13.745 29.243,15.137 32.248,17.469 Z" fill="rgb(1, 180, 252)"/>
<path d="M 19.526,31.541999999999998 C 18.343,28.294 19.859,26.792 25.044,23.101 C 31.594,18.439 21.35,20.092 25.519,15.894 C 26.996,14.407 29.071,13.252 30.603,12.213 A 16.086,16.086 0 0,0 28.006,12 C 19.167,12 12,19.166 12,28.005 C 12,28.36 12.015,28.712 12.04,29.061 C 14.45,31.298 17.444,32.749 19.536,31.557 Z" fill="rgb(254, 254, 253)"/>
</svg>
