<?xml version="1.0" encoding="UTF-8"?>
<!-- generated by Finnhub -->
<svg viewBox="0 0 55.5 55.5" xmlns="http://www.w3.org/2000/svg">
<path d="M 0,0 H 55.5 V 55.5 H 0 Z" fill="rgb(1, 186, 218)"/>
<path d="M 29.49,11.985 H 24.306 C 24.122,12 24,12.151 24,12.339 V 18 H 18.373 C 18.187,18 18,18.185 18,18.372 V 43.662 C 18,43.848 18.15,44 18.335,44 H 26.662 A 0.336,0.336 0 0,0 26.997,43.661 V 39.337 A 0.336,0.336 0 0,0 26.662,38.998 H 24.345 A 0.346,0.346 0 0,0 24,39.338 V 41 H 21 V 21 H 28.988 C 30.717,21 32.066,22.233 32,24 C 31.937,25.68 30.855,27 29.196,27 H 26.996 V 24.363 C 26.996,24.176 26.846,24 26.662,24 H 24.414 C 24.229,24 24,24.176 24,24.363 V 29.697 C 24,29.884 24.267,30 24.451,30 H 29.538 C 32.883,30 35.077,27.41 34.998,24 C 34.92,20.69 32.691,18 29.425,18 H 27 V 15 H 29.5 C 34.277,15 38.073,19.141 38,24 C 37.928,28.774 34.12,33 29.41,33 H 24.345 C 24.161,33 24,33.19 24,33.377 V 35.656 C 24,35.843 24.16,36 24.345,36 H 29.393 C 35.724,36 40.938,30.417 41,24 C 41.063,17.52 35.88,12 29.501,12 Z" fill="rgb(254, 254, 253)"/>
</svg>
