<?xml version="1.0" encoding="UTF-8"?>
<!-- generated by Finnhub -->
<svg viewBox="0 0 55.5 55.5" xmlns="http://www.w3.org/2000/svg">
<path d="M 0,0 H 55.5 V 55.5 H 0 Z" fill="rgb(74, 159, 216)"/>
<path d="M 21.671999999999997,28.153 C 21.675,28.214 21.69,28.248 21.666,28.268 C 21.663,28.247 21.66,28.25 21.656,28.215 C 21.636,27.94 21.607,27.275 21.706,26.98 C 21.841,27.299 21.733,27.781 21.682,28.168 Z M 27.988,20.784 C 29.019,20.784 29.924,20.97 30.705,21.309 L 30.675,20.854 C 29.892,20.546 28.997,20.379 27.988,20.379 C 26.978,20.379 26.084,20.546 25.302,20.854 L 25.272,21.309 C 26.052,20.969 26.956,20.784 27.988,20.784 Z" fill="rgb(254, 254, 253)"/>
<path d="M 28.017999999999997,20.026 C 29.041,20.041 29.942,20.198 30.736,20.488 L 30.886,20 C 30.046,19.701 29.094,19.54 28.028,19.54 C 26.963,19.54 26.012,19.702 25.171,20 L 25.321,20.488 C 26.115,20.198 27.016,20.041 28.028,20.041 Z M 31.868,35.844 C 31.887,35.821 31.942,35.792 32.013,35.749 C 32.394,35.519 33.217,35.606 33.557,35.671 C 34.022,35.759 34.193,35.585 34.321,35.423 C 34.684,34.963 34.086,34.441 33.846,34.051 L 33.393,33.501 C 33.486,33.214 33.754,32.796 33.814,32.71 C 33.874,32.623 33.928,32.705 33.905,32.793 C 33.882,32.879 33.76,33.243 33.836,33.491 C 33.874,33.641 34.03,33.779 34.16,33.848 C 34.223,34.068 34.365,34.288 34.573,34.398 C 34.924,34.428 35.055,34.875 35.103,35.141 C 35.19,35.631 34.802,36.048 34.641,36.109 C 34.353,36.219 33.757,36.073 33.431,36.034 C 33.267,36.014 31.98,35.868 31.934,35.859 C 31.927,35.858 31.886,35.854 31.867,35.844 Z M 22.831,33.578 C 22.877,33.686 22.891,33.69 22.858,33.79 C 22.687,34.316 22.479,34.657 22.305,34.837 C 22.305,34.837 22.044,34.527 21.996,34.233 C 22.18,33.851 22.443,33.51 22.498,33.073 C 22.598,33.241 22.743,33.379 22.831,33.578 Z M 24.398,36.041 C 24.366,36.051 24.318,36.036 24.298,36.044 C 23.98,36.159 22.176,36.274 21.853,36.326 C 21.813,36.333 21.565,36.222 21.529,36.118 C 21.492,36.014 21.416,35.753 21.57,35.735 C 21.859,35.704 22.137,35.702 22.313,35.727 C 22.418,35.742 22.549,35.823 22.651,35.838 C 23.017,35.892 23.801,35.683 24.233,35.938 C 24.309,35.982 24.366,35.999 24.398,36.041 Z M 46.455,27.396 C 46.435,27.429 46.375,27.474 46.335,27.51 C 46.267,27.569 46.036,27.623 45.825,27.562 C 45.425,27.445 45.219,26.963 45.194,26.585 C 45.182,26.419 45.179,26.275 45.286,26.347 C 45.32,26.369 45.388,26.422 45.473,26.489 C 45.501,26.511 45.67,26.571 45.633,26.383 C 45.529,25.858 45.797,25.303 45.788,24.715 C 46.018,24.765 46.298,24.691 46.401,24.938 C 46.528,25.596 46.241,26.392 46.117,26.811 C 46.054,27.02 46.183,27.226 46.352,27.344 C 46.384,27.366 46.418,27.384 46.455,27.396 Z M 44.388,27.086 C 44.396,27.599 44.511,28.059 44.766,28.389 C 44.951,28.628 45.054,28.299 45.312,28.461 C 45.005,28.853 45.274,29.378 44.992,29.8 C 44.781,30.116 44.736,29.975 44.624,30.375 C 44.464,30.941 44.046,31.561 43.365,31.801 C 42.836,31.986 42.168,31.613 41.861,31.398 C 41.765,31.331 41.812,31.294 41.964,30.929 C 41.998,30.846 42.068,30.896 42.179,30.969 C 42.602,31.245 43.352,31.199 43.683,30.886 C 43.968,30.616 44.181,30.097 44.158,29.753 C 44.136,29.409 43.911,29.053 43.617,28.915 A 1.043,1.043 0 0,0 42.574,29.058 C 42.431,28.948 42.471,28.712 42.524,28.538 A 0.751,0.751 0 0,1 42.923,28.082 C 43.099,28.006 43.476,28.241 43.35,27.914 C 43.192,27.508 43.097,26.839 43.528,26.359 C 43.661,26.722 43.875,27.269 43.916,27.639 C 43.927,27.756 44.023,27.793 44.056,27.692 C 44.118,27.51 44.178,27.249 44.388,27.086 Z" fill="rgb(254, 254, 253)"/>
<path d="M 38.206,33.182 C 38.151,33.212 38.051,33.254 37.982,33.251 C 36.962,33.208 35.87,33.238 35.425,34.283 C 35.367,34.421 35.431,34.613 35.294,34.614 C 35.179,34.615 35.057,34.447 35.021,34.323 C 34.986,34.198 35.011,34.025 35.061,33.893 C 35.111,33.76 34.971,33.754 34.868,33.852 C 34.794,33.922 34.739,34.173 34.609,34.14 C 34.515,34.116 34.424,33.993 34.413,33.807 C 34.403,33.621 34.569,33.447 34.718,33.34 C 34.8,33.28 34.775,33.195 34.69,33.201 C 34.427,33.219 34.312,33.456 34.154,33.607 C 34.048,33.541 33.851,33.2 34.277,32.871 C 34.989,32.318 36.181,33.132 36.867,32.621 C 36.947,32.561 37,32.454 36.921,32.331 C 36.841,32.209 36.541,31.665 36.431,31.568 C 36.123,31.295 35.913,31.162 35.873,30.832 C 35.835,30.509 35.841,30.238 35.712,29.933 C 35.778,29.671 35.913,29.163 36.437,29.298 C 36.872,29.411 37.097,29.52 37.55,29.448 C 37.949,29.384 38.163,29.314 38.487,29.33 C 38.538,29.469 38.501,29.675 38.471,29.868 C 38.441,30.062 38.311,30.628 38.258,30.807 C 38.205,30.985 38.346,31.249 38.202,31.373 C 37.772,31.453 37.275,31.009 37.17,30.963 C 37.064,30.917 36.928,30.946 37.026,31.068 S 37.687,31.563 37.771,31.563 C 38.141,31.563 37.853,31.848 37.898,32.116 C 37.96,32.484 38.233,32.602 38.375,32.852 C 38.401,32.969 38.277,33.144 38.216,33.197 Z M 14.789,36.767 H 18.044 C 18.253,36.767 18.436,36.869 18.523,36.925 L 16.887,37.405 L 17.906,40.187 H 7 L 8.18,38.647 C 8.261,38.542 8.249,38.5 8.192,38.399 C 8.136,38.297 7.284,36.849 7.242,36.766 H 12.857 C 12.883,36.766 13.057,36.925 13.087,36.956 C 13.118,36.99 13.17,36.984 13.205,36.984 C 13.24,36.984 14.511,37.017 14.554,37.017 C 14.597,37.017 14.624,36.998 14.636,36.97 C 14.65,36.943 14.746,36.766 14.789,36.766 Z M 43.552,36.767 H 48.759 C 48.715,36.849 47.864,38.297 47.809,38.399 C 47.751,38.5 47.739,38.542 47.821,38.648 L 49,40.187 H 38.096 L 39.114,37.405 L 37.478,36.925 A 0.927,0.927 0 0,1 37.956,36.766 H 41.281 C 41.316,36.766 41.394,36.861 41.446,36.916 C 41.499,36.97 41.682,37.155 41.812,37.174 C 41.942,37.193 42.284,37.131 42.368,37.026 C 42.421,36.961 42.412,37.008 42.448,37.026 C 42.481,37.045 42.682,37.109 42.778,37.118 A 0.95,0.95 0 0,0 43.231,36.989 L 43.551,36.766 Z" fill="rgb(254, 254, 253)"/>
<path d="M 35.510000000000005,25.098 C 35.316,25.125 34.515,25.166 34.126,25.025 C 33.911,24.48 33.357,23.428 33.303,23.331 C 33.248,23.235 33.297,23.227 33.355,23.235 L 33.745,23.293 C 33.887,23.515 33.898,23.833 34.132,23.973 C 34.431,23.976 34.628,23.728 34.915,23.716 C 34.965,23.923 34.886,24.227 35.079,24.353 C 35.314,24.327 35.575,24.301 35.795,24.344 C 35.755,24.594 35.588,24.864 35.521,25.113 Z M 19.714,23.836 C 20.664,24.892 21.609,25.46 22.409,25.929 C 22.532,26.002 22.679,26.195 22.679,26.387 C 22.68,26.764 22.365,27.691 22.417,28.847 C 22.43,29.117 22.48,29.329 22.361,29.511 C 22.191,29.773 21.856,29.67 21.559,29.841 C 21.398,29.933 21.009,30.125 20.963,30.145 C 20.918,30.166 20.879,30.069 20.86,29.953 C 20.841,29.837 20.84,29.325 20.958,29.171 C 21.058,29.041 21.654,29.171 21.719,28.843 C 21.814,28.37 22.086,27.413 21.921,26.991 C 21.843,26.791 21.765,26.7 21.65,26.671 C 21.372,26.603 20.594,26.376 20.379,26.278 C 20.293,26.238 20.188,26.23 20.049,26.213 C 19.659,26.167 19.249,25.943 18.897,25.615 C 18.857,25.577 18.753,25.633 18.78,25.698 C 18.937,26.081 19.37,26.296 19.956,26.436 C 20.214,26.497 20.359,26.531 20.471,26.564 C 20.582,26.597 21.258,26.876 21.258,26.876 C 21.345,27.125 21.291,27.4 21.25,27.613 C 21.057,28.602 20.22,29 19.722,29.245 C 19.234,29.484 18.11,29.407 17.791,30.103 C 17.535,30.659 16.743,31.131 16.651,31.507 C 16.563,31.858 16.496,32.779 15.834,32.995 C 15.434,33.125 15.261,32.958 14.95,32.795 C 14.905,32.772 14.872,32.865 14.884,32.905 C 14.897,32.945 14.951,33.044 14.87,33.085 A 1.078,1.078 0 0,1 14.187,33.199 C 14.127,33.186 14.005,33.219 14.069,33.29 C 14.219,33.456 14.414,33.448 14.764,33.389 C 14.957,33.357 15.114,33.15 15.272,33.261 C 15.289,33.272 15.309,33.303 15.276,33.344 C 15.144,33.505 14.993,33.638 14.71,33.651 L 13.63,33.699 C 13.264,33.946 13.23,34.463 13.297,34.929 C 13.359,35.349 13.885,35.639 14.125,35.819 C 14.267,36.097 14.48,36.43 14.471,36.679 C 14.469,36.742 14.371,36.832 14.301,36.829 L 13.312,36.809 C 12.95,36.531 13.616,36.134 13.162,35.923 C 13.122,35.906 12.784,35.893 12.784,35.893 C 12.63,35.628 12.311,35.349 12.438,35.033 C 12.564,34.717 12.682,34.038 12.628,33.803 C 12.573,33.568 12.509,33.323 12.658,33.07 C 12.806,32.818 13.159,32.996 13.453,32.882 C 13.747,32.769 14.113,32.419 14.381,32.196 C 14.865,31.793 14.539,30.323 14.811,29.765 C 14.846,29.695 14.871,29.493 14.945,29.283 C 15.151,28.711 15.488,28.303 15.706,28.166 C 15.908,28.041 16.49,27.674 16.907,27.469 C 16.972,27.594 16.97,27.878 17.087,27.858 C 17.206,27.838 17.204,27.678 17.197,27.586 C 17.153,27.035 17.357,26.073 17.497,25.679 C 17.577,25.453 17.607,25.103 17.571,24.927 C 17.461,24.388 17.304,24.207 17.256,23.627 C 17.543,23.587 17.932,23.656 18.101,23.701 C 18.271,23.746 18.284,23.659 18.284,23.606 C 18.284,23.552 18.282,23.506 18.284,23.443 C 18.736,23.721 19.238,23.754 19.714,23.836 Z" fill="rgb(254, 254, 253)"/>
<path d="M 36.328,24.392 C 36.373,24.554 36.351,24.822 36.531,24.974 C 37.247,24.892 37.464,24.964 37.896,24.695 C 37.919,24.681 37.953,24.664 37.961,24.695 C 38.013,24.915 38.176,25.445 38.694,25.715 C 38.752,25.744 38.797,25.762 38.811,25.715 C 38.92,25.358 39.402,24.962 39.634,24.54 C 39.703,24.415 39.786,24.488 39.882,24.64 C 40.01,24.843 39.856,24.906 39.943,25.27 C 40.095,25.897 40.695,26.622 40.877,27.496 C 40.926,27.73 40.991,27.99 40.964,28.25 C 40.914,28.237 40.876,28.174 40.854,28.1 C 40.823,28 40.701,27.966 40.658,28.052 C 40.62,28.126 40.688,28.265 40.742,28.413 C 40.972,29.035 41.972,29.656 41.782,30.433 C 41.692,30.801 41.648,31.035 41.465,31.281 C 41.323,31.225 41.186,30.951 41.085,30.663 C 41.01,30.448 40.977,30.383 40.919,30.311 C 40.832,30.204 40.718,30.271 40.765,30.468 C 40.814,30.678 40.921,31.043 41.166,31.361 C 41.546,31.857 42.174,32.441 42.379,32.671 C 42.583,32.901 42.866,32.908 42.984,33.291 C 43.103,33.673 43.018,33.906 43.042,34.373 C 43.052,34.547 43.169,34.71 43.229,34.984 C 43.326,35.424 43.231,35.612 43.227,35.708 C 43.212,36.038 43.34,36.28 43.082,36.538 C 42.823,36.796 42.582,36.518 42.55,36.37 C 42.519,36.22 42.632,36.126 42.596,36 C 42.561,35.877 42.437,36.008 42.4,36.047 C 42.228,36.227 42.215,36.78 41.835,36.639 C 41.679,36.581 41.695,36.376 41.708,36.254 C 41.72,36.133 41.848,35.977 41.937,35.849 C 41.962,35.815 41.992,35.693 41.853,35.735 C 41.535,35.83 41.526,36.145 41.356,36.335 C 41.261,36.306 41.225,36.292 41.176,36.087 C 41.106,35.79 41.408,35.443 41.531,35.404 C 41.805,35.317 42.283,35.054 42.261,34.696 C 42.242,34.382 42.228,33.916 42.1,33.572 C 41.725,33.214 41.22,33.634 40.752,33.357 C 40.287,33.084 39.828,32.767 39.325,32.48 C 39.153,32.382 38.813,31.889 38.679,31.677 C 38.431,31.284 38.457,30.911 38.535,30.617 C 38.652,30.175 38.775,29.646 38.765,29.112 C 39.09,29.16 39.381,29.608 39.449,29.705 C 39.501,29.778 39.564,29.862 39.63,29.816 C 39.696,29.77 39.653,29.609 39.567,29.514 C 39.466,29.403 38.982,28.79 38.482,28.617 C 37.942,28.43 37.341,28.458 36.928,27.99 C 37.115,27.53 37.433,27.872 38.073,27.691 C 38.559,27.554 38.732,26.878 38.925,26.57 C 38.986,26.47 38.834,26.394 38.767,26.523 C 38.547,26.944 38.15,27.567 37.723,27.516 C 37.61,27.503 37.515,27.488 37.515,27.488 C 37.516,27.35 37.665,27.27 37.745,27.172 C 37.809,27.092 37.69,26.997 37.569,27.077 C 37.521,27.11 36.86,27.759 36.579,27.797 C 36.201,27.847 35.88,28.177 35.642,28.215 C 35.404,28.253 35.136,28.343 35.03,28.581 A 1.122,1.122 0 0,0 34.948,29.293 C 34.867,29.336 34.774,29.299 34.676,29.249 C 34.578,29.201 34.52,29.084 34.496,28.947 C 34.479,28.854 34.573,28.517 34.433,28.549 C 34.221,28.598 34.254,28.914 34.153,29.119 C 34.088,29.129 34.046,29.134 33.924,29.039 C 33.802,28.943 33.77,28.774 33.81,28.545 C 33.85,28.316 33.977,28.27 34,28.118 C 34.02,27.965 33.94,27.978 33.826,28.038 C 33.712,28.1 33.656,28.325 33.551,28.42 C 33.522,28.411 33.456,28.376 33.423,28.2 C 33.32,27.64 33.867,27.638 34.129,27.315 C 34.391,26.991 35.274,26.898 35.769,26.517 C 36.316,26.192 36.812,25.757 37.423,25.624 C 37.476,25.597 37.476,25.529 37.436,25.501 C 37.307,25.432 37.164,25.485 37.047,25.526 C 36.683,25.646 36.344,25.85 36.005,26.066 L 35.966,26.053 C 35.776,25.503 35.738,24.85 36.143,24.401 C 36.223,24.346 36.311,24.288 36.338,24.407 Z M 10.918,28.247 C 11.14,28.057 11.116,27.607 10.953,27.307 C 10.787,26.997 10.489,26.715 10.383,26.349 C 10.336,26.192 10.295,25.551 10.454,25.568 C 10.624,25.586 10.957,25.425 11.191,25.331 C 11.223,25.576 11.324,25.948 11.521,26.002 C 11.682,26.046 12.288,25.789 12.364,25.156 C 12.394,25.156 12.421,25.166 12.443,25.188 C 12.465,25.208 12.478,25.236 12.481,25.267 C 12.549,25.852 12.2,26.267 11.731,26.947 C 11.464,27.333 11.506,28.387 10.919,28.247 Z M 17.757,30.685 C 18.08,30.865 18.521,30.95 18.847,30.719 C 19.444,30.399 19.831,30.316 20.146,30.451 C 20.358,30.543 20.468,30.673 20.548,30.951 C 20.65,31.311 20.771,31.132 20.763,31.527 C 20.75,32.135 19.906,32.37 19.706,32.519 C 19.361,32.775 19.09,32.95 18.975,33.158 C 18.946,33.209 18.95,33.334 18.999,33.405 C 19.156,33.627 19.476,33.718 19.906,33.89 C 20.41,34.085 21.021,34.007 21.394,34.502 C 21.588,34.583 21.767,34.47 21.886,34.752 C 21.923,34.84 22.078,35.219 22.167,35.466 C 21.868,35.574 21.517,35.49 21.194,35.488 C 21.008,35.29 21.309,34.976 20.99,34.898 C 20.864,34.867 20.78,35.047 20.664,35.06 C 20.01,34.886 19.673,34.365 18.953,34.092 C 18.686,33.99 17.857,33.908 17.791,33.52 C 17.701,32.977 18.493,32.902 18.59,32.457 C 18.602,32.4 18.632,32.309 18.565,32.224 C 18.436,32.06 18.215,32.153 18.059,32.179 C 17.695,32.314 17.228,32.256 16.931,31.994 C 16.873,31.799 16.971,31.567 17.096,31.377 C 17.271,31.113 17.414,31.069 17.756,30.685 Z M 27.771,15.795 C 27.771,15.73 27.796,15.667 27.84,15.62 A 0.228,0.228 0 0,1 28.006,15.548 C 28.068,15.548 28.127,15.575 28.171,15.621 A 0.254,0.254 0 0,1 28.221,15.891 A 0.249,0.249 0 0,1 28.171,15.971 A 0.233,0.233 0 0,1 28.005,16.043 A 0.235,0.235 0 0,1 27.789,15.89 A 0.257,0.257 0 0,1 27.771,15.795 Z M 27.556,15.795 A 0.486,0.486 0 0,1 27.694,15.473 A 0.438,0.438 0 0,1 28.005,15.34 C 28.121,15.34 28.233,15.388 28.316,15.473 C 28.4,15.557 28.45,15.673 28.455,15.795 A 0.488,0.488 0 0,1 28.323,16.131 A 0.438,0.438 0 0,1 28.005,16.269 A 0.438,0.438 0 0,1 27.687,16.131 A 0.488,0.488 0 0,1 27.556,15.795 Z M 28.006,19.305 H 28.219 C 28.305,19.305 28.291,19.259 28.299,19.185 C 28.309,19.111 28.895,15.154 28.903,15.085 C 28.915,14.998 28.92,14.973 28.869,14.943 C 28.839,14.924 28.617,14.833 28.574,14.81 C 28.513,14.778 28.505,14.768 28.495,14.686 C 28.491,14.65 28.491,14.448 28.491,14.329 C 28.491,14.242 28.448,14.228 28.387,14.228 H 27.623 C 27.562,14.228 27.518,14.242 27.518,14.328 C 27.518,14.448 27.518,14.65 27.514,14.686 C 27.504,14.768 27.497,14.778 27.436,14.81 C 27.393,14.833 27.172,14.924 27.141,14.943 C 27.089,14.973 27.095,14.998 27.106,15.085 C 27.116,15.154 27.701,19.111 27.71,19.185 C 27.718,19.258 27.704,19.305 27.79,19.305 H 28.005 Z M 29.499,15.298 A 0.36,0.36 0 0,1 29.234,15.181 A 0.407,0.407 0 0,1 29.124,14.901 C 29.124,14.797 29.164,14.696 29.234,14.622 A 0.365,0.365 0 0,1 29.499,14.507 C 29.599,14.507 29.694,14.549 29.764,14.623 C 29.834,14.697 29.874,14.798 29.874,14.903 C 29.874,15.007 29.834,15.108 29.764,15.183 A 0.365,0.365 0 0,1 29.499,15.298 Z M 30.687,15.09 A 0.503,0.503 0 0,1 30.322,14.93 A 0.561,0.561 0 0,1 30.172,14.544 A 0.56,0.56 0 0,1 30.323,14.159 A 0.503,0.503 0 0,1 30.689,14 C 30.826,14 30.957,14.058 31.053,14.16 C 31.15,14.262 31.204,14.401 31.204,14.546 A 0.56,0.56 0 0,1 31.053,14.931 A 0.503,0.503 0 0,1 30.687,15.09 Z M 32.146,15.602 A 0.66,0.66 0 0,1 31.501,14.93 C 31.501,14.558 31.79,14.257 32.146,14.257 C 32.502,14.257 32.791,14.558 32.791,14.93 A 0.659,0.659 0 0,1 32.146,15.602 Z M 33.032,16.779 A 0.574,0.574 0 0,1 32.471,16.194 C 32.471,15.871 32.722,15.609 33.031,15.609 C 33.341,15.609 33.593,15.871 33.593,16.194 A 0.574,0.574 0 0,1 33.032,16.779 Z M 32.38,19.005 A 0.39,0.39 0 0,1 32.097,18.883 A 0.434,0.434 0 0,1 31.978,18.586 C 31.978,18.354 32.158,18.166 32.38,18.166 C 32.602,18.166 32.782,18.354 32.782,18.586 C 32.782,18.816 32.602,19.005 32.38,19.005 Z M 31.53,19.705 A 0.32,0.32 0 0,1 31.293,19.604 A 0.353,0.353 0 0,1 31.193,19.355 C 31.193,19.161 31.344,19.005 31.529,19.005 C 31.716,19.005 31.866,19.161 31.866,19.355 A 0.37,0.37 0 0,1 31.766,19.604 A 0.333,0.333 0 0,1 31.53,19.705 Z M 26.512,15.503 C 26.612,15.503 26.707,15.461 26.777,15.387 A 0.407,0.407 0 0,0 26.887,15.107 A 0.407,0.407 0 0,0 26.777,14.828 A 0.365,0.365 0 0,0 26.512,14.712 C 26.412,14.712 26.317,14.754 26.247,14.828 A 0.407,0.407 0 0,0 26.137,15.108 C 26.137,15.213 26.177,15.313 26.247,15.388 C 26.317,15.461 26.413,15.503 26.512,15.503 Z M 25.322,15.295 A 0.502,0.502 0 0,0 25.688,15.135 A 0.56,0.56 0 0,0 25.838,14.751 A 0.56,0.56 0 0,0 25.688,14.366 A 0.502,0.502 0 0,0 25.323,14.206 A 0.502,0.502 0 0,0 24.958,14.366 A 0.56,0.56 0 0,0 24.808,14.751 A 0.56,0.56 0 0,0 24.958,15.136 C 25.055,15.238 25.186,15.296 25.323,15.296 Z M 23.865,15.808 C 24.22,15.808 24.509,15.506 24.509,15.135 C 24.509,14.764 24.22,14.463 23.865,14.463 A 0.66,0.66 0 0,0 23.22,15.135 C 23.22,15.507 23.508,15.808 23.865,15.808 Z M 22.979,16.985 C 23.289,16.985 23.54,16.723 23.54,16.4 A 0.574,0.574 0 0,0 22.979,15.814 A 0.573,0.573 0 0,0 22.418,16.4 A 0.613,0.613 0 0,0 22.583,16.815 A 0.556,0.556 0 0,0 22.979,16.985 Z M 23.057,18.167 A 0.466,0.466 0 0,0 23.513,17.691 A 0.466,0.466 0 0,0 23.057,17.216 A 0.466,0.466 0 0,0 22.601,17.691 C 22.601,17.954 22.805,18.167 23.057,18.167 Z M 23.63,19.21 A 0.381,0.381 0 0,0 23.913,19.088 A 0.422,0.422 0 0,0 24.031,18.791 A 0.41,0.41 0 0,0 23.63,18.371 A 0.41,0.41 0 0,0 23.228,18.791 C 23.228,18.902 23.271,19.009 23.347,19.088 A 0.39,0.39 0 0,0 23.63,19.21 Z M 24.48,19.911 A 0.343,0.343 0 0,0 24.816,19.561 C 24.816,19.367 24.666,19.211 24.48,19.211 A 0.32,0.32 0 0,0 24.244,19.312 A 0.354,0.354 0 0,0 24.144,19.561 C 24.144,19.754 24.295,19.911 24.48,19.911 Z" fill="rgb(254, 254, 253)"/>
<path d="M 32.943000000000005,17.881 C 33.074,17.896 33.19,17.846 33.275,17.757 A 0.485,0.485 0 0,0 33.275,17.086 A 0.447,0.447 0 0,0 32.63,17.086 A 0.484,0.484 0 0,0 32.63,17.757 A 0.447,0.447 0 0,0 32.953,17.896 Z M 24.968,19.707 A 0.616,0.616 0 0,0 24.918,19.149 A 0.58,0.58 0 0,0 24.712,18.955 A 0.554,0.554 0 0,0 24.443,18.884 A 0.55,0.55 0 0,0 24.181,18.953 A 0.719,0.719 0 0,0 24.169,18.456 A 0.658,0.658 0 0,0 23.809,18.1 A 0.607,0.607 0 0,0 23.559,18.06 A 0.725,0.725 0 0,0 23.688,17.497 A 0.728,0.728 0 0,0 23.375,17.02 A 0.82,0.82 0 0,0 23.716,16.347 A 0.832,0.832 0 0,0 23.634,15.981 A 0.84,0.84 0 0,0 24.339,15.829 A 0.898,0.898 0 0,0 24.585,15.544 A 0.936,0.936 0 0,0 24.695,15.178 C 24.765,15.274 24.855,15.352 24.959,15.406 A 0.721,0.721 0 0,0 25.626,15.404 A 0.75,0.75 0 0,0 25.888,15.175 A 0.64,0.64 0 0,0 26.026,15.475 A 0.582,0.582 0 0,0 26.895,15.525 L 27.031,16.495 C 26.796,16.34 26.205,15.752 25.377,15.752 S 24.108,16.228 24.108,17.008 C 24.108,17.924 25.296,19.166 25.61,19.547 L 24.968,19.707 Z M 17.936,15.748 C 18.098,16.285 17.743,16.608 17.614,17.333 C 17.391,17.37 17.204,17.375 16.964,17.378 A 12.474,12.474 0 0,1 16.914,17.039 C 17.102,17.002 17.16,17.005 17.317,16.952 C 17.422,16.615 17.614,16.131 17.518,15.962 C 17.483,15.902 17.425,15.862 17.318,15.912 C 17.128,16 16.716,16.261 16.372,16.547 C 16.43,16.74 16.538,17.124 16.503,17.167 C 16.469,17.212 16.193,17.292 16.142,17.27 C 16.092,17.248 15.985,16.837 15.906,16.644 C 15.532,16.594 14.882,16.488 14.751,16.554 A 0.165,0.165 0 0,0 14.67,16.734 A 0.169,0.169 0 0,0 14.698,16.799 C 14.768,16.904 15.054,17.303 15.263,17.413 C 15.407,17.387 15.537,17.351 15.672,17.321 L 15.827,17.593 C 15.592,17.727 15.364,17.853 15.065,17.868 C 14.699,17.498 14.253,17.015 14.177,16.728 C 14.129,16.548 14.173,16.434 14.362,16.268 C 14.643,16.019 15.304,16.264 15.783,16.182 C 15.774,16.06 15.693,15.832 15.731,15.817 C 15.769,15.803 16.082,15.665 16.113,15.695 C 16.143,15.725 16.211,15.955 16.26,16.051 C 16.834,15.874 17.092,15.423 17.66,15.479 C 17.78,15.492 17.895,15.613 17.936,15.749 Z" fill="rgb(254, 254, 253)"/>
<path d="M 27.988999999999997,21.009999999999998 C 24.838,21.025 22.914,22.819 22.104,25.405 C 22.104,25.405 22.173,25.437 22.698,25.847 C 23.115,26.172 22.988,26.667 22.878,27.097 C 22.85,27.207 22.823,27.314 22.806,27.413 C 22.687,27.996 22.713,28.661 22.729,29.066 C 22.737,29.258 22.742,29.391 22.729,29.43 A 0.793,0.793 0 0,1 22.283,29.908 A 0.816,0.816 0 0,1 22.042,29.965 C 21.882,29.985 21.754,30.001 21.77,30.222 C 22.255,33.574 24.266,36.077 27.999,36.077 C 31.977,36.077 33.999,33.235 34.303,29.552 C 34.069,29.578 33.761,29.515 33.646,29.311 C 33.616,29.256 33.59,29.195 33.565,29.134 C 33.496,28.969 33.427,28.803 33.246,28.732 A 5.823,5.823 0 0,0 33.223,28.637 C 33.176,28.447 33.127,28.249 33.199,28.003 C 33.246,27.84 33.455,27.693 33.683,27.532 C 33.89,27.385 34.114,27.227 34.248,27.035 C 33.804,23.605 31.788,21.025 27.998,21.025 Z M 30.967,19.263 A 0.63,0.63 0 0,0 31.009,19.552 L 30.369,19.389 C 30.408,19.341 30.461,19.279 30.523,19.206 C 30.959,18.695 31.868,17.631 31.868,16.82 C 31.868,16.03 31.428,15.548 30.602,15.548 C 29.917,15.548 29.394,15.957 29.102,16.186 C 29.042,16.233 28.991,16.273 28.951,16.3 L 29.087,15.32 A 0.574,0.574 0 0,0 29.689,15.456 A 0.603,0.603 0 0,0 29.954,15.268 A 0.653,0.653 0 0,0 30.091,14.964 A 0.754,0.754 0 0,0 30.353,15.196 A 0.71,0.71 0 0,0 31.018,15.198 A 0.755,0.755 0 0,0 31.281,14.968 C 31.293,15.098 31.331,15.224 31.391,15.338 A 0.905,0.905 0 0,0 31.637,15.627 C 31.737,15.703 31.852,15.757 31.974,15.783 A 0.827,0.827 0 0,0 32.341,15.78 A 0.86,0.86 0 0,0 32.348,16.536 C 32.408,16.654 32.493,16.756 32.598,16.832 A 0.735,0.735 0 0,0 32.276,17.445 A 0.74,0.74 0 0,0 32.416,17.884 L 32.386,17.883 C 32.038,17.883 31.756,18.18 31.756,18.547 C 31.756,18.629 31.768,18.711 31.794,18.787 A 0.537,0.537 0 0,0 31.264,18.79 A 0.584,0.584 0 0,0 31.059,18.987 A 0.622,0.622 0 0,0 30.967,19.263 Z M 27.998,34.548 H 28 C 29.737,34.548 31.01,33.851 31.85,32.724 C 32.686,31.602 33.09,30.054 33.09,28.346 V 28.344 C 33.09,26.636 32.686,25.087 31.85,23.964 C 31.01,22.839 29.737,22.142 28,22.142 H 27.998 C 26.261,22.142 24.988,22.839 24.148,23.965 C 23.311,25.088 22.908,26.635 22.908,28.344 V 28.346 C 22.908,30.054 23.311,31.602 24.148,32.726 C 24.988,33.852 26.261,34.548 27.998,34.548 Z M 17.267,37.55 L 18.473,41 C 21.24,40.356 26.29,40.032 27.999,40.033 C 29.707,40.033 34.759,40.356 37.524,41 L 38.731,37.55 C 35.975,36.616 31.433,36.251 27.999,36.251 C 24.564,36.251 20.023,36.616 17.267,37.55 Z M 40.001,17.476 S 39.816,16.786 39.642,16.486 A 1.449,1.449 0 0,0 38.806,16.948 C 38.653,17.111 38.4,17.081 38.159,17.053 A 1.516,1.516 0 0,0 37.803,17.038 C 37.727,17.048 37.629,17.05 37.519,17.052 C 37.189,17.059 36.749,17.068 36.475,17.303 A 6.35,6.35 0 0,1 35.987,17.329 C 35.766,17.335 35.575,17.341 35.457,17.383 L 35.424,17.393 C 35.359,17.41 35.28,17.431 35.3,17.575 C 35.315,17.678 35.387,17.73 35.46,17.785 C 35.49,17.806 35.52,17.828 35.545,17.853 C 35.678,17.98 35.585,18.085 35.495,18.186 C 35.437,18.251 35.381,18.315 35.389,18.381 L 35.392,18.414 C 35.408,18.552 35.43,18.738 35.542,18.794 C 35.599,18.822 35.712,18.811 35.848,18.798 C 36.154,18.768 36.578,18.728 36.738,19.104 A 0.594,0.594 0 0,0 36.781,19.172 C 36.847,19.27 36.951,19.425 36.853,19.462 C 36.723,19.509 36.564,19.538 36.401,19.567 A 2.72,2.72 0 0,0 35.875,19.697 C 35.73,19.757 35.722,19.927 35.837,20.019 L 35.905,20.071 C 36.005,20.146 36.143,20.251 36.165,20.301 C 36.234,20.467 36.441,20.327 36.519,20.227 C 36.621,20.097 36.889,20.088 37.134,20.081 C 37.3,20.075 37.454,20.071 37.539,20.028 C 37.619,19.988 37.949,19.813 38.068,19.748 C 38.212,19.669 38.431,19.622 38.472,19.884 C 38.505,20.088 38.489,20.333 38.407,20.556 C 38.304,20.844 37.803,21.613 36.63,21.89 C 36.3,21.967 35.973,21.968 35.661,21.969 C 35.129,21.969 34.641,21.971 34.259,22.354 C 34.08,22.535 34.039,22.834 34.059,23.206 C 34.069,23.384 34.113,23.614 34.303,23.756 C 34.368,23.728 34.439,23.704 34.511,23.679 C 34.728,23.604 34.957,23.524 35.086,23.362 C 35.6,22.719 35.925,22.578 36.913,22.468 C 37.245,22.431 37.589,22.465 37.926,22.498 C 38.557,22.558 39.166,22.618 39.634,22.212 C 40.43,21.521 40.523,19.997 40.384,19.446 C 40.347,19.302 40.554,19.265 40.614,19.446 C 40.792,19.976 40.699,21.091 40.222,21.859 C 39.832,22.485 39.472,22.713 38.746,22.755 C 38.604,22.763 38.401,22.745 38.163,22.723 C 37.347,22.649 36.107,22.537 35.424,23.323 A 0.874,0.874 0 0,0 35.264,24.119 C 35.407,24.184 35.557,24.169 35.713,24.155 C 35.825,24.144 35.94,24.133 36.057,24.151 C 36.284,24.187 36.457,24.026 36.62,23.876 C 36.747,23.758 36.868,23.646 37.002,23.64 C 37.112,23.635 37.123,23.7 37.102,23.719 C 36.947,23.849 36.695,24.095 36.668,24.292 L 36.667,24.299 C 36.641,24.492 36.627,24.595 36.717,24.705 C 36.986,24.741 37.212,24.683 37.371,24.642 C 37.425,24.628 37.471,24.616 37.509,24.612 C 37.799,24.572 37.982,24.335 38.133,24.14 C 38.21,24.041 38.278,23.953 38.349,23.905 C 38.394,23.875 38.456,23.912 38.424,24.018 A 1.813,1.813 0 0,1 38.354,24.198 C 38.281,24.372 38.199,24.564 38.266,24.784 C 38.368,25.124 38.519,25.342 38.718,25.377 L 39.137,24.885 C 39.339,24.648 39.571,24.345 39.429,23.858 C 39.395,23.74 39.532,23.71 39.577,23.795 C 39.787,24.188 40.075,24.603 40.505,24.593 C 40.478,24.398 40.512,24.243 40.549,24.071 C 40.58,23.927 40.614,23.773 40.615,23.577 C 40.615,23.494 40.581,23.425 40.555,23.373 A 1.138,1.138 0 0,1 40.544,23.351 C 40.498,23.252 40.516,23.161 40.594,23.169 L 40.703,23.182 C 40.927,23.208 41.083,23.227 41.243,23.073 C 41.251,22.964 41.193,22.886 41.133,22.805 A 0.542,0.542 0 0,1 41.023,22.605 C 41.013,22.558 40.999,22.514 40.985,22.473 C 40.945,22.355 40.917,22.268 41.048,22.262 C 41.105,22.259 41.168,22.264 41.236,22.269 C 41.432,22.284 41.66,22.301 41.86,22.143 C 41.867,21.979 41.831,21.92 41.759,21.803 A 3.889,3.889 0 0,1 41.706,21.717 C 41.545,21.441 41.732,21.35 41.921,21.259 C 42.026,21.209 42.131,21.157 42.178,21.074 A 0.876,0.876 0 0,0 42.035,20.921 C 41.982,20.875 41.933,20.832 41.855,20.701 C 41.803,20.612 41.812,20.515 41.896,20.441 C 41.913,20.426 41.947,20.41 41.991,20.389 C 42.145,20.314 42.416,20.184 42.433,19.868 C 42.433,19.868 42.308,19.857 41.977,19.824 C 41.507,19.777 41.226,19.221 40.989,18.754 C 40.879,18.537 40.779,18.339 40.674,18.222 L 40,17.476 Z M 36.871,17.563 A 0.146,0.146 0 0,0 36.891,17.552 C 37.138,17.366 37.398,17.497 37.634,17.615 C 37.764,17.681 37.887,17.743 37.995,17.745 C 38.063,17.745 38.117,17.813 38.059,17.846 C 38.034,17.86 37.67,18.029 37.369,18.012 C 37.254,18.006 37.185,17.918 37.115,17.829 C 37.037,17.729 36.958,17.629 36.812,17.647 C 36.792,17.604 36.84,17.579 36.87,17.563 Z M 37.105,18.638 C 37.139,18.549 37.215,18.534 37.262,18.57 C 37.285,18.588 37.288,18.656 37.291,18.735 A 0.74,0.74 0 0,0 37.324,18.969 A 0.846,0.846 0 0,0 37.385,19.079 C 37.435,19.159 37.483,19.235 37.439,19.299 C 37.404,19.349 37.247,19.341 37.164,19.167 A 0.493,0.493 0 0,0 37.148,19.136 C 37.103,19.052 37.011,18.881 37.105,18.638 Z M 15.892,18.122 A 5.107,5.107 0 0,0 15.782,18.029 C 15.349,18.016 15.099,18.308 14.819,18.635 C 14.652,18.83 14.474,19.037 14.241,19.2 C 14.131,19.277 14.02,19.317 13.914,19.355 C 13.79,19.4 13.674,19.443 13.575,19.539 C 13.575,19.539 13.793,19.777 13.873,19.884 C 13.907,19.931 13.903,20.061 13.899,20.219 C 13.894,20.42 13.887,20.666 13.958,20.841 C 14.063,20.824 14.186,20.709 14.292,20.61 C 14.412,20.497 14.511,20.405 14.532,20.506 C 14.541,20.545 14.492,20.7 14.433,20.884 C 14.375,21.07 14.307,21.285 14.28,21.438 C 14.198,21.901 14.32,22.336 14.84,22.701 C 15.131,22.415 15.136,22.181 15.14,22.021 C 15.141,21.935 15.142,21.87 15.188,21.829 C 15.26,21.764 15.358,21.829 15.328,22.434 C 15.296,23.049 15.75,23.42 16.322,23.717 C 16.614,23.352 16.393,22.951 16.316,22.85 C 16.186,22.68 16.421,22.68 16.466,22.757 C 16.64,23.057 17.086,23.56 18.027,23.504 C 18.076,23.32 17.979,23.163 17.911,23.052 C 17.861,22.971 17.827,22.915 17.875,22.89 C 17.944,22.854 18.066,22.965 18.2,23.085 C 18.302,23.177 18.41,23.275 18.508,23.32 C 18.748,23.43 19.214,23.635 19.523,23.546 C 19.518,23.473 19.463,23.386 19.413,23.306 C 19.368,23.237 19.328,23.174 19.331,23.133 C 19.334,23.089 19.384,23.075 19.435,23.093 C 19.595,23.146 19.754,23.358 19.918,23.577 C 20.078,23.789 20.242,24.009 20.418,24.101 C 20.476,23.949 20.471,23.763 20.395,23.538 C 20.301,23.257 19.693,22.61 19.165,22.5 C 18.885,22.442 18.62,22.393 18.368,22.346 C 16.965,22.086 15.982,21.903 15.286,20.745 C 14.78,19.904 15.162,18.829 15.389,18.562 C 15.443,18.5 15.589,18.555 15.572,18.605 L 15.537,18.699 A 8.045,8.045 0 0,0 15.347,19.262 C 15.271,19.544 15.274,20.254 15.559,20.706 C 16.183,21.695 17.275,21.883 18.262,22.052 C 18.718,22.13 19.151,22.205 19.505,22.352 C 19.895,22.514 20.622,23.019 20.733,23.788 C 20.746,23.884 20.738,23.999 20.729,24.113 C 20.719,24.233 20.709,24.353 20.729,24.447 L 20.731,24.449 C 21.066,24.752 21.402,25.056 21.804,25.223 A 1.06,1.06 0 0,0 22.002,24.688 L 21.93,24.505 C 21.618,23.708 21.273,22.825 20.454,22.399 C 19.507,21.967 18.56,21.425 17.837,20.515 C 17.279,20.27 17.047,20.053 16.944,19.698 C 16.892,19.517 16.879,19.096 17.027,18.971 C 17.07,18.935 17.152,18.949 17.157,19.014 C 17.162,19.104 17.157,19.196 17.152,19.285 C 17.145,19.39 17.14,19.491 17.152,19.577 C 17.208,19.935 17.82,20.257 17.955,20.268 L 18.029,20.274 C 18.338,20.299 18.729,20.331 19.059,20.605 C 19.139,20.671 19.229,20.756 19.32,20.841 C 19.513,21.022 19.705,21.203 19.785,21.193 C 19.859,21.185 19.912,21.135 19.918,21.1 C 19.925,21.053 19.904,21.008 19.879,20.956 C 19.839,20.874 19.792,20.776 19.84,20.624 C 19.94,20.312 20.081,20.408 20.237,20.514 C 20.327,20.574 20.422,20.639 20.517,20.629 C 20.636,20.465 20.588,20.111 20.508,20.011 A 2.05,2.05 0 0,0 20.361,19.87 A 7.482,7.482 0 0,1 20.045,19.567 A 6.3,6.3 0 0,1 19.739,19.223 C 19.685,19.159 19.647,19.114 19.629,19.099 L 18.372,18.129 C 18.239,18.031 18.232,17.899 18.226,17.797 C 18.221,17.712 18.216,17.649 18.141,17.647 C 18.102,17.647 17.54,17.621 17.451,17.615 C 17.352,17.609 17.348,17.652 17.371,18.04 C 17.34,18.167 17.231,18.177 17.149,18.011 C 16.931,17.564 16.515,17.468 16.109,17.551 C 15.934,17.587 15.942,17.639 15.979,17.742 C 16.086,18.038 16.502,18.267 16.672,18.361 L 16.705,18.379 C 16.754,18.406 16.704,18.461 16.665,18.475 C 16.367,18.531 16.104,18.305 15.892,18.122 Z M 17.763,18.441 C 17.719,18.363 17.733,18.355 17.835,18.345 C 18.228,18.307 18.631,18.4 18.655,18.42 C 18.697,18.452 18.658,18.49 18.616,18.533 C 18.587,18.563 18.556,18.593 18.549,18.625 A 0.327,0.327 0 0,0 18.556,18.725 C 18.57,18.813 18.584,18.908 18.483,18.885 C 18.335,18.853 17.808,18.52 17.763,18.441 Z M 18.649,19.325 L 18.689,19.298 C 18.741,19.31 18.797,19.32 18.853,19.33 C 19.063,19.366 19.283,19.404 19.416,19.577 C 19.495,19.619 19.568,19.67 19.636,19.73 C 19.674,19.758 19.687,19.813 19.648,19.84 C 19.508,19.889 19.404,19.799 19.3,19.707 A 0.6,0.6 0 0,0 19.077,19.562 A 0.434,0.434 0 0,0 18.91,19.514 C 18.794,19.496 18.674,19.478 18.65,19.325 Z M 45.022,25.745 C 45.128,25.842 45.228,25.933 45.312,26.02 C 45.312,26.02 45.312,25.928 45.325,25.819 C 45.33,25.782 45.346,25.723 45.367,25.649 C 45.454,25.339 45.617,24.754 45.347,24.347 C 45.32,24.307 45.314,24.26 45.361,24.267 C 45.496,24.288 45.586,24.345 45.673,24.4 C 45.759,24.454 45.841,24.506 45.96,24.52 C 46.244,24.557 46.587,24.601 46.844,24.25 C 46.816,24.02 46.603,23.939 46.406,23.864 C 46.322,23.832 46.241,23.801 46.179,23.76 C 46.239,23.727 46.308,23.703 46.379,23.678 C 46.605,23.598 46.846,23.512 46.864,23.122 C 46.514,23.082 46.292,22.992 46.088,22.908 A 2.166,2.166 0 0,0 45.618,22.758 C 45.358,22.716 45.134,22.794 44.914,22.869 A 3.482,3.482 0 0,1 44.679,22.945 C 44.612,22.91 44.549,22.875 44.489,22.841 C 44.211,22.687 43.971,22.554 43.471,22.511 C 42.863,22.458 42.131,22.807 41.682,23.693 C 41.278,24.487 41.452,25.438 41.797,26.193 C 42.073,26.798 42.537,27.433 42.947,27.656 C 42.937,27.414 42.945,27.166 42.964,26.874 C 42.676,26.504 42.184,25.824 42.076,25.248 C 41.903,24.335 42.254,23.681 42.581,23.438 C 42.907,23.196 43.311,23.082 43.805,23.186 C 44.3,23.29 44.695,23.645 44.773,23.743 C 44.886,23.882 44.707,23.879 44.608,23.875 A 0.349,0.349 0 0,0 44.401,23.943 A 0.38,0.38 0 0,0 44.268,24.123 C 43.998,24.813 44.564,25.328 45.022,25.745 Z M 13.308,26.052 A 0.39,0.39 0 0,0 13.275,26.225 C 13.342,26.228 13.395,26.226 13.54,26.222 H 13.543 C 13.675,26.218 14.119,26.394 13.75,27.159 C 13.704,27.254 13.551,27.46 13.363,27.715 C 12.993,28.217 12.486,28.904 12.384,29.292 C 12.261,29.757 12.302,30.28 12.533,30.611 C 12.884,31.116 13.518,31.253 14.377,31.108 C 14.432,31.009 14.431,30.85 14.43,30.698 C 14.429,30.63 14.428,30.564 14.433,30.504 C 13.893,30.594 13.228,30.59 12.978,30.119 C 12.826,29.835 12.895,29.453 12.983,29.241 C 13.124,28.901 13.442,28.439 13.742,28.003 C 13.908,27.761 14.069,27.527 14.192,27.327 C 14.238,27.251 14.327,27.298 14.348,27.328 C 14.28,27.698 14.304,28.163 14.54,28.501 C 14.563,28.256 14.719,28.057 14.869,27.865 C 15.053,27.629 15.229,27.403 15.143,27.114 C 15.101,26.974 15.05,26.934 14.871,26.878 C 14.794,26.855 14.728,26.873 14.674,26.888 C 14.601,26.909 14.549,26.924 14.52,26.821 L 14.915,26.055 C 15.161,25.582 15.261,24.535 14.811,23.789 C 14.509,23.286 14.067,22.859 13.39,22.843 C 12.939,22.833 12.577,23.035 12.257,23.213 C 12.04,23.334 11.841,23.445 11.647,23.471 C 11.529,23.486 11.373,23.478 11.202,23.468 C 10.847,23.448 10.43,23.425 10.167,23.611 A 0.91,0.91 0 0,0 9.967,23.788 L 9.987,23.812 C 10.009,23.838 10.029,23.86 10.072,23.892 C 10.231,24.009 10.709,24.015 10.802,23.982 C 10.862,23.961 10.881,24.025 10.797,24.104 C 10.612,24.275 10.517,24.442 10.418,24.613 C 10.321,24.783 10.222,24.957 10.028,25.145 C 10.183,25.296 10.421,25.291 10.665,25.245 C 11.059,25.168 11.185,24.823 11.278,24.571 C 11.322,24.451 11.358,24.353 11.412,24.315 C 11.47,24.275 11.519,24.311 11.515,24.371 C 11.513,24.411 11.502,24.471 11.488,24.545 C 11.428,24.875 11.317,25.478 11.646,25.745 C 12.08,25.467 12.07,24.891 12.046,24.691 C 12.04,24.626 12.119,24.575 12.173,24.611 C 12.2,24.63 12.235,24.663 12.276,24.701 C 12.425,24.843 12.653,25.061 12.852,24.889 C 12.549,24.579 12.386,24.209 12.482,23.829 C 12.545,23.574 12.787,23.379 13.07,23.339 C 13.657,23.255 14.308,23.701 14.484,24.172 C 14.697,24.747 14.723,25.505 14.368,25.97 C 14.281,26.01 14.244,25.972 14.178,25.907 C 14.155,25.884 14.128,25.857 14.096,25.831 C 13.969,25.724 13.746,25.746 13.576,25.801 A 0.398,0.398 0 0,0 13.414,25.893 A 0.429,0.429 0 0,0 13.308,26.053 Z M 19.729,39.34 L 19.433,39.392 L 19.191,37.874 L 19.831,37.76 C 19.935,37.742 20.155,37.704 20.291,37.93 C 20.371,38.06 20.391,38.275 20.363,38.391 C 20.303,38.611 20.165,38.718 19.996,38.734 L 19.642,38.798 L 19.729,39.34 Z M 21.239,39.123 L 20.94,39.163 L 20.759,37.636 L 21.056,37.596 L 21.125,38.17 L 21.699,38.094 L 21.631,37.52 L 21.929,37.482 L 22.109,39.009 L 21.812,39.049 L 21.73,38.357 L 21.156,38.432 L 21.238,39.123 Z M 22.664,37.403 L 22.964,37.372 L 23.104,38.904 L 22.805,38.934 L 22.665,37.403 Z M 23.727,38.853 L 23.616,37.318 L 23.915,37.294 L 24.007,38.565 L 24.594,38.518 L 24.614,38.781 L 23.727,38.853 Z M 24.907,37.219 L 25.207,37.2 L 25.296,38.737 L 24.996,38.757 L 24.908,37.219 Z M 26.242,38.677 L 25.942,38.689 L 25.883,37.152 L 26.532,37.124 C 26.636,37.12 26.859,37.11 26.969,37.354 A 0.714,0.714 0 0,1 26.985,37.822 C 26.899,38.032 26.75,38.119 26.579,38.113 L 26.221,38.128 L 26.242,38.677 Z M 29.074,37.573 L 28.782,38.633 L 28.482,38.632 L 28.14,37.568 L 28.135,38.63 L 27.861,38.628 L 27.869,37.089 L 28.307,37.092 L 28.635,38.156 L 28.913,37.096 L 29.351,37.098 L 29.343,38.638 L 29.069,38.636 L 29.074,37.573 Z M 31.06,37.353 A 0.94,0.94 0 0,1 31.244,37.978 A 0.925,0.925 0 0,1 30.996,38.578 A 0.638,0.638 0 0,1 30.501,38.742 A 0.647,0.647 0 0,1 30.025,38.522 A 0.943,0.943 0 0,1 29.84,37.897 A 0.934,0.934 0 0,1 30.089,37.295 A 0.64,0.64 0 0,1 30.585,37.132 C 30.77,37.142 30.945,37.212 31.06,37.352 Z M 31.978,38.833 L 31.678,38.808 L 31.794,37.273 L 32.604,37.34 C 32.748,37.36 32.89,37.443 32.92,37.613 A 0.544,0.544 0 0,1 32.91,37.923 C 32.864,38.053 32.797,38.096 32.694,38.149 A 0.564,0.564 0 0,0 32.718,38.169 C 32.768,38.206 32.835,38.257 32.84,38.375 C 32.843,38.431 32.834,38.593 32.83,38.685 L 32.828,38.72 C 32.821,38.807 32.844,38.827 32.873,38.85 L 32.869,38.908 L 32.549,38.881 A 0.39,0.39 0 0,1 32.519,38.734 A 4.51,4.51 0 0,1 32.543,38.425 C 32.547,38.321 32.479,38.265 32.374,38.255 L 32.024,38.227 L 31.978,38.834 Z M 33.57,38.981 L 33.272,38.948 L 33.426,37.417 L 34.232,37.507 C 34.377,37.529 34.518,37.617 34.542,37.787 A 0.552,0.552 0 0,1 34.525,38.099 C 34.475,38.226 34.407,38.268 34.304,38.318 L 34.328,38.338 C 34.376,38.376 34.442,38.429 34.443,38.548 C 34.446,38.611 34.429,38.814 34.423,38.891 C 34.414,38.978 34.437,38.999 34.466,39.024 L 34.461,39.08 L 34.139,39.045 A 0.38,0.38 0 0,1 34.114,38.897 A 4.52,4.52 0 0,1 34.144,38.59 C 34.151,38.486 34.084,38.427 33.982,38.415 L 33.631,38.376 L 33.57,38.981 Z M 35.104,37.62 L 35.401,37.662 L 35.201,39.187 L 34.904,39.143 L 35.104,37.62 Z M 36.895,38.075 A 0.46,0.46 0 0,1 36.921,38.385 L 36.644,38.325 C 36.672,38.205 36.597,38.071 36.396,38.024 C 36.253,37.991 36.138,38.02 36.104,38.142 C 36.076,38.243 36.105,38.272 36.164,38.312 C 36.187,38.352 36.397,38.438 36.48,38.472 L 36.505,38.482 C 36.58,38.514 36.742,38.588 36.814,38.705 C 36.942,38.921 36.796,39.265 36.594,39.347 C 36.457,39.403 36.286,39.388 36.126,39.356 A 0.673,0.673 0 0,1 35.796,39.174 A 0.554,0.554 0 0,1 35.671,38.743 L 35.958,38.803 C 35.948,38.863 35.958,38.923 35.988,38.972 C 36.04,39.056 36.141,39.102 36.24,39.12 C 36.339,39.138 36.437,39.127 36.48,39.098 A 0.189,0.189 0 0,0 36.537,38.845 C 36.491,38.769 36.366,38.716 36.237,38.662 C 36.157,38.629 36.074,38.594 36.009,38.554 C 35.865,38.464 35.759,38.319 35.831,38.08 C 35.901,37.845 36.101,37.703 36.45,37.779 C 36.526,37.795 36.791,37.859 36.895,38.075 Z" fill="rgb(254, 254, 253)" fill-rule="evenodd"/>
<path d="M 19.630999999999997,38.493 L 19.971,38.447 C 20.063,38.43 20.099,38.34 20.111,38.289 A 0.382,0.382 0 0,0 20.089,38.069 C 20.039,37.972 19.957,37.969 19.884,37.983 L 19.568,38.041 L 19.641,38.508 Z M 26.205,37.82 L 26.539,37.805 C 26.632,37.801 26.679,37.717 26.697,37.667 A 0.38,0.38 0 0,0 26.701,37.446 C 26.663,37.344 26.581,37.33 26.507,37.334 L 26.187,37.348 L 26.205,37.82 Z M 30.75,38.346 C 30.85,38.257 30.906,38.089 30.917,37.919 C 30.924,37.749 30.885,37.576 30.794,37.475 A 0.369,0.369 0 0,0 30.534,37.353 A 0.363,0.363 0 0,0 30.263,37.443 C 30.163,37.532 30.106,37.699 30.095,37.87 C 30.089,38.04 30.128,38.214 30.218,38.314 C 30.29,38.394 30.383,38.43 30.478,38.435 A 0.361,0.361 0 0,0 30.75,38.345 Z M 31.997,37.922 L 32.403,37.958 A 0.179,0.179 0 0,0 32.479,37.941 A 0.191,0.191 0 0,0 32.543,37.893 A 0.224,0.224 0 0,0 32.596,37.737 C 32.604,37.626 32.561,37.557 32.429,37.545 L 32.027,37.51 L 31.997,37.922 Z M 33.6,38.074 L 34.004,38.121 A 0.19,0.19 0 0,0 34.146,38.061 A 0.223,0.223 0 0,0 34.203,37.907 C 34.213,37.796 34.173,37.726 34.04,37.711 L 33.639,37.664 L 33.599,38.074 Z M 28,34.401 H 27.998 C 26.308,34.401 25.071,33.726 24.257,32.635 C 23.44,31.539 23.047,30.022 23.047,28.345 V 28.344 C 23.047,26.667 23.44,25.151 24.257,24.056 C 25.071,22.964 26.307,22.289 27.998,22.289 H 28 C 29.69,22.289 30.927,22.964 31.74,24.055 C 32.558,25.151 32.95,26.668 32.95,28.344 V 28.346 C 32.95,30.022 32.557,31.538 31.74,32.634 C 30.927,33.726 29.69,34.401 28,34.401 Z M 25.894,28.751 C 26.884,28.651 27.494,27.706 27.502,26.621 C 27.509,25.612 26.884,24.601 26.297,24.375 C 25.907,24.224 25.71,24.472 25.529,24.701 C 25.448,24.803 25.369,24.901 25.279,24.958 A 0.754,0.754 0 0,1 25.024,25.066 C 24.971,25.079 24.929,25.089 24.874,25.134 C 25.05,25.966 25.06,26.624 25.076,27.6 L 25.089,28.307 C 25.115,29.398 25.072,30.887 24.639,31.847 C 25.718,30.97 25.793,29.533 25.826,28.91 L 25.828,28.875 C 25.831,28.815 25.845,28.756 25.894,28.752 Z M 25.814,24.636 A 0.316,0.316 0 0,1 25.971,24.509 C 26.146,24.441 26.359,24.637 26.398,24.814 C 26.584,25.642 26.698,27.107 26.379,28.164 A 0.543,0.543 0 0,1 26.251,28.368 A 0.506,0.506 0 0,1 26.051,28.492 C 25.956,28.52 25.827,28.501 25.831,28.38 C 25.856,27.476 25.797,25.83 25.761,24.837 A 0.344,0.344 0 0,1 25.814,24.637 Z M 27.656,29.93 C 28.082,28.258 28.212,26.254 27.87,24.522 C 28.279,24.832 28.759,26.411 29.225,27.978 C 29.365,27.584 29.477,27.164 29.589,26.743 C 29.817,25.888 30.045,25.033 30.503,24.403 C 30.437,27.754 30.623,29.563 31.535,31.819 C 30.506,31.027 30.071,29.539 29.752,28.191 C 29.512,28.597 29.41,29.819 29.3,31.127 L 29.26,31.616 A 12.736,12.736 0 0,1 28.914,30.143 C 28.817,29.629 28.724,29.129 28.45,28.333 C 28.41,28.455 28.371,28.631 28.325,28.843 C 28.155,29.628 27.879,30.892 27.047,31.587 C 27.103,31.445 27.164,31.304 27.225,31.161 C 27.395,30.766 27.567,30.363 27.656,29.931 Z" fill="rgb(254, 254, 253)" fill-rule="evenodd"/>
</svg>
