<?xml version="1.0" encoding="UTF-8"?>
<!-- generated by Finnhub -->
<svg viewBox="0 0 55.5 55.5" xmlns="http://www.w3.org/2000/svg">
<path d="M 0,0 H 55.5 V 55.5 H 0 Z" fill="rgb(1, 113, 164)"/>
<path d="M 28.003,30.713 C 26.077,30.728 25,29.821 25,29.821 V 19.369 C 25,18.497 25.86,17.899 26.741,17.789 C 27.685,17.671 32.034,17.014 32.034,23.865 C 32.034,30.039 29.103,30.728 28.014,30.728 Z M 13.783,30.082 C 12.5,30.082 12,29.524 12,29.524 V 23.023 C 12,22.486 12.356,22.117 12.94,22.05 C 13.565,21.977 16.407,21.722 16.407,25.942 C 16.407,29.892 14.672,30.082 13.782,30.082 Z M 43.016,23.026 C 44.781,22.504 46.576,23.045 48,24.228 V 20.43 C 43.396,19.7 40.984,20.196 39.142,21.34 C 37.649,22.296 37.015,23.6 37.015,23.6 S 36.982,23.669 36.927,23.793 C 36.685,14.18 30.68,15 23.799,15 H 20 V 23.303 C 18.835,19.874 15.088,20 11.237,20 H 8 V 39 H 13.303 C 12.418,38.692 12,36.933 12,35.817 V 30.762 L 13.5,32.294 C 14.174,32.459 14.764,32.441 14.764,32.441 C 16.228,32.36 19.009,31.791 20,28.821 V 43 H 26.16 C 25.278,42.693 25,41.94 25,40.827 V 31.307 L 27.222,33.692 C 27.994,33.969 28.562,34.016 29.214,33.986 C 31.055,33.871 34.206,33.092 35.856,29.761 C 35.992,32.892 37.016,36.034 40.19,37.269 C 41.587,37.841 43.175,37.999 44.826,37.873 A 21.279,21.279 0 0,0 48,37.555 V 29 H 43.63 C 44.515,29.308 45,30.008 45,31.124 V 35.034 C 43.898,35.379 41.91,35.038 41.079,33.963 C 40.029,32.604 39.84,28.781 40.285,26.173 C 40.539,24.87 41.653,23.429 43.015,23.027 Z" fill="rgb(254, 254, 253)"/>
</svg>
