<?xml version="1.0" encoding="UTF-8"?>
<!-- generated by Finnhub -->
<svg viewBox="0 0 55.5 55.5" xmlns="http://www.w3.org/2000/svg">
<path d="M 0,0 H 55.5 V 55.5 H 0 Z" fill="rgb(46, 71, 134)"/>
<path d="M 28.99,13.985 H 35 C 39.9,14 44,18.15 44,23 C 44,27.9 39.85,32 35,32 H 21 A 1,1 0 0,0 21,34 H 30 L 28.73,37 H 21 C 18.6,37 17,35.4 17,33 S 18.6,29 21,29 H 35 A 6.09,6.09 0 0,0 41,23 C 41.02,19.55 38.05,17 35,17 H 27.72 L 29,14 Z M 21,27 C 17.95,27 15,29.68 15,33 C 15,36.33 17.95,39 21,39 H 28.28 L 27,42 H 21 C 16.15,42 12,37.9 12,33 C 12,28.15 16.1,24 21,24 H 35 A 1,1 0 0,0 35,22 H 26 L 27.27,19 H 35 C 37.4,19 39,20.6 39,23 S 37.4,27 35,27 H 21 Z" fill="rgb(254, 254, 253)"/>
</svg>
