<?xml version="1.0" encoding="UTF-8"?>
<!-- generated by Finnhub -->
<svg viewBox="0 0 55.5 55.5" xmlns="http://www.w3.org/2000/svg">
<path d="M 0,0 H 55.5 V 55.5 H 0 Z" fill="rgb(254, 101, 2)"/>
<path d="M 11.99,20.985 H 13.52 C 14.25,21 15,20.92 15,20.04 C 15,19.14 14.16,19 13.43,19 H 12 V 21 Z M 10,17 H 13.04 C 15.03,17 17,17.63 17,20.04 C 17,22.23 15.28,23 13.3,23 H 12 V 26 H 10 V 17 Z M 24,26 H 22 V 25.06 C 21.7,25.72 21.19,26 20.48,26 C 18.82,26 18,24.6 18,23.06 V 19 H 20 V 22.64 C 20,23.36 20.17,24 20.97,24 C 21.76,24 22,23.3 22,22.62 V 19 H 24 V 26 Z M 27,22.47 C 27,23.37 27.5,24 28.44,24 C 29.36,24 30,23.38 30,22.48 C 30,21.59 29.39,21 28.48,21 C 27.56,21 27,21.58 27,22.47 Z M 25,17 H 27 V 19.75 C 27.68,18.99 28.54,19 28.82,19 C 30.73,19 32,20.62 32,22.44 C 32,24.34 30.72,26 28.73,26 C 28.05,26 27.34,25.7 27,25.05 V 26 H 25 V 17 Z M 34,33.47 C 34,34.37 33.5,35 32.56,35 C 31.64,35 31,34.38 31,33.48 C 31,32.59 31.61,32 32.52,32 C 33.44,32 34,32.58 34,33.47 Z M 36,30 H 34 V 30.75 C 33.32,29.99 32.47,30 32.19,30 C 30.27,30 29,31.62 29,33.44 C 29,35.34 30.28,37 32.27,37 C 32.95,37 33.66,36.7 34,36.05 V 37 H 36 V 30 Z M 33,17 H 35 V 26 H 33 V 17 Z M 38,19 H 36 V 17 H 38 V 19 Z M 36,26 H 38 V 20 H 36 V 26 Z M 7.86,30.7 C 7.76,30.24 7.56,30 7.02,30 C 6.47,30 6,30.28 6,30.68 C 6,32.37 10,31.33 10,34.34 C 10,36.04 8.67,37 7.05,37 C 5.25,37 4,35.87 4,34 H 6.15 C 6.15,34.54 6.4,35 7.03,35 C 7.65,35 8,34.46 8,34 C 8,33.47 4,32.96 4,30.55 C 4,29.01 5.63,28 7.09,28 C 8.74,28 9.9,29.1 10,30.7 H 7.86 Z M 46,23 C 46,24.5 44.16,26 42.54,26 A 3.53,3.53 0 0,1 39,22.49 C 39,20.59 40.57,19 42.49,19 C 44.15,19 45.99,20.5 45.99,22 H 43.99 C 43.99,21.5 43.21,21 42.56,21 C 41.61,20.97 41,21.6 41,22.5 S 41.62,24 42.56,24 C 43.19,24 44,23.5 43.99,23 H 46 Z M 14,30 H 15 V 32 H 14 V 37 H 12 V 32 H 11 V 30 H 12 V 28 H 14 V 30 Z" fill="rgb(239, 242, 248)"/>
<path d="M 19.49,29.985 A 3.47,3.47 0 0,0 16,33.5 C 16,35.46 17.55,37 19.5,37 S 23,35.46 23,33.5 S 21.45,30 19.5,30 Z M 19.5,32 A 1.5,1.5 0 1,0 19.5,35 A 1.5,1.5 0 0,0 19.5,32 Z" fill="rgb(239, 242, 248)" fill-rule="evenodd"/>
<path d="M 23.99,29.985 H 26 V 30.97 C 26.25,30.37 26.84,30 27.5,30 V 32.04 C 26.68,32.07 26,32.4 26,33.28 V 37 H 24 V 30 Z M 40.48,35 C 41.42,35 42,34.53 42,33.63 C 42,32.73 41.47,32 40.5,32 C 39.46,32 38.99,32.7 39,33.5 C 39.01,34.3 39.51,35 40.48,35 Z M 44,36.17 C 44,38.43 42.6,40 40.34,40 C 38.88,40 37.2,39.2 37,37.62 H 39.35 C 39.55,38.08 40.01,38.29 40.48,38.29 C 41.52,38.29 42,37.19 42,36.21 V 36 C 41.7,36.65 40.94,37 40.26,37 A 3.23,3.23 0 0,1 37,33.65 C 37,31.78 38.27,30 40.26,30 C 40.96,30 41.63,30.24 42,30.85 V 30 H 44 V 36.17 Z M 50,33 C 49.82,32.3 49.22,32 48.5,32 S 47.18,32.3 47,33 H 50 Z M 51.77,34.53 A 3.48,3.48 0 0,1 48.52,37 A 3.54,3.54 0 0,1 45,33.52 C 45,31.62 46.58,30 48.49,30 A 3.6,3.6 0 0,1 52,33.5 C 52,33.7 52,33.8 51.95,34 H 47 C 47.13,34.77 47.76,35 48.52,35 C 49.02,35 49.42,34.92 49.73,34.53 H 51.77 Z" fill="rgb(239, 242, 248)"/>
</svg>
