<?xml version="1.0" encoding="UTF-8"?>
<!-- generated by Finnhub -->
<svg viewBox="0 0 55.5 55.5" xmlns="http://www.w3.org/2000/svg">
<path d="M 0,0 H 55.5 V 55.5 H 0 Z" fill="rgb(1, 116, 185)"/>
<path d="M 21.493,35.985 H 19.506 L 19.156,36.962 C 19.07,37.19 19.026,37.36 19.026,37.472 C 19.026,37.562 19.064,37.641 19.137,37.71 C 19.213,37.776 19.375,37.82 19.624,37.84 V 38 H 18 V 37.84 C 18.215,37.797 18.355,37.74 18.418,37.671 C 18.548,37.533 18.691,37.251 18.848,36.828 L 20.662,32 H 20.795 L 22.59,36.88 C 22.735,37.272 22.866,37.527 22.982,37.645 C 23.102,37.761 23.266,37.825 23.477,37.84 V 38 H 21.442 V 37.84 C 21.647,37.828 21.785,37.79 21.856,37.723 A 0.314,0.314 0 0,0 21.966,37.481 C 21.966,37.354 21.916,37.154 21.815,36.88 L 21.503,36 Z M 21.396,35.716 L 20.521,33.346 L 19.624,35.716 H 21.396 Z M 25.165,35.119 V 36.962 C 25.165,37.331 25.201,37.56 25.272,37.65 C 25.368,37.777 25.514,37.84 25.709,37.84 H 26 V 38 H 23.697 V 37.84 H 23.891 C 24.109,37.84 24.265,37.76 24.359,37.598 C 24.409,37.508 24.435,37.296 24.435,36.962 V 33.038 C 24.435,32.669 24.401,32.44 24.332,32.35 C 24.233,32.223 24.086,32.16 23.892,32.16 H 23.697 V 32 H 25.587 C 26.049,32 26.413,32.055 26.679,32.164 C 26.945,32.271 27.169,32.453 27.352,32.709 C 27.535,32.966 27.626,33.27 27.626,33.622 C 27.626,34.101 27.486,34.49 27.207,34.79 C 26.931,35.09 26.539,35.24 26.032,35.24 C 25.908,35.24 25.774,35.23 25.629,35.21 C 25.485,35.19 25.33,35.16 25.165,35.119 Z M 25.165,34.872 C 25.299,34.902 25.419,34.922 25.523,34.937 C 25.627,34.952 25.715,34.959 25.789,34.959 C 26.053,34.959 26.279,34.843 26.469,34.613 C 26.662,34.379 26.759,34.078 26.759,33.709 C 26.759,33.455 26.713,33.219 26.622,33.004 A 1.024,1.024 0 0,0 26.234,32.514 A 1.018,1.018 0 0,0 25.664,32.35 C 25.534,32.35 25.368,32.378 25.165,32.433 V 34.873 Z M 30.212,37.84 V 38 H 28.002 V 37.84 H 28.185 C 28.398,37.84 28.553,37.77 28.649,37.628 C 28.71,37.536 28.74,37.314 28.74,36.962 L 28.736,33.038 C 28.736,32.741 28.719,32.545 28.686,32.45 A 0.374,0.374 0 0,0 28.531,32.264 A 0.654,0.654 0 0,0 28.181,32.16 H 27.998 V 32 H 30.208 V 32.16 H 30.021 C 29.811,32.16 29.657,32.23 29.561,32.372 C 29.498,32.464 29.466,32.686 29.466,33.038 L 29.471,36.962 C 29.471,37.259 29.487,37.455 29.521,37.55 A 0.37,0.37 0 0,0 29.68,37.736 C 29.789,37.806 29.904,37.84 30.026,37.84 H 30.212 Z M 35.005,32 L 35.062,33.376 H 34.917 C 34.889,33.133 34.851,32.96 34.803,32.856 A 0.81,0.81 0 0,0 34.487,32.489 C 34.358,32.409 34.187,32.368 33.974,32.368 H 33.248 L 33.247,36.983 C 33.247,37.343 33.281,37.569 33.35,37.658 C 33.446,37.779 33.594,37.84 33.794,37.84 H 34 V 38 H 31.787 V 37.84 H 31.969 C 32.187,37.84 32.342,37.765 32.433,37.615 C 32.489,37.523 32.517,37.312 32.517,36.983 V 32.368 H 31.897 C 31.657,32.368 31.485,32.388 31.384,32.428 A 0.732,0.732 0 0,0 31.046,32.744 C 30.952,32.9 30.896,33.11 30.878,33.376 H 30.734 L 30.794,32 H 35.004 Z M 38.199,36.036 H 36.202 L 35.852,36.962 C 35.766,37.19 35.722,37.36 35.722,37.472 C 35.722,37.562 35.76,37.641 35.833,37.71 C 35.909,37.776 36.071,37.82 36.32,37.84 V 38 H 34.696 V 37.84 C 34.911,37.797 35.051,37.74 35.114,37.671 C 35.244,37.533 35.387,37.251 35.544,36.828 L 37.358,32 H 37.491 L 39.286,36.88 C 39.431,37.272 39.561,37.527 39.678,37.645 C 39.798,37.761 39.962,37.825 40.172,37.84 V 38 H 38 V 37.84 C 38.205,37.828 38.481,37.79 38.552,37.723 A 0.314,0.314 0 0,0 38.662,37.481 C 38.662,37.354 38.612,37.154 38.511,36.88 L 38.199,36.036 Z M 38.092,35.716 L 37.217,33.346 L 36.32,35.716 H 38.092 Z M 44.883,36.378 L 45,36.408 L 44.568,38 H 40.42 V 37.84 H 40.614 C 40.832,37.84 40.988,37.76 41.081,37.598 C 41.135,37.505 41.161,37.292 41.161,36.958 V 33.038 C 41.161,32.672 41.126,32.443 41.055,32.35 C 40.955,32.223 40.809,32.16 40.614,32.16 H 40.42 V 32 H 42.755 V 32.16 C 42.481,32.157 42.288,32.186 42.177,32.247 A 0.494,0.494 0 0,0 41.952,32.476 C 41.912,32.568 41.892,32.789 41.892,33.138 V 36.958 C 41.892,37.197 41.912,37.361 41.952,37.451 C 41.982,37.511 42.03,37.556 42.093,37.585 C 42.156,37.614 42.509,37.628 42.841,37.628 H 43.217 C 43.613,37.628 43.891,37.595 44.05,37.528 C 44.21,37.462 44.356,37.345 44.488,37.178 C 44.619,37.008 44.751,36.741 44.883,36.378 Z M 20,27 H 18.686 L 16.988,24.055 A 7.22,7.22 0 0,1 16.681,24.064 H 16.577 A 15.496,15.496 0 0,0 16.462,24.055 V 25.985 C 16.462,26.345 16.497,26.57 16.566,26.657 C 16.66,26.781 16.8,26.843 16.988,26.843 H 17.184 V 27 H 15 V 26.843 H 15.223 C 15.435,26.843 15.587,26.765 15.678,26.607 C 15.73,26.519 15.756,26.312 15.756,25.985 V 22.015 C 15.756,21.655 15.721,21.43 15.652,21.343 C 15.556,21.219 15.412,21.157 15.222,21.157 H 15 V 21 H 16.862 C 17.395,21 17.787,21.045 18.039,21.135 C 18.293,21.223 18.507,21.387 18.683,21.626 C 18.86,21.863 18.949,22.146 18.949,22.476 C 18.949,22.829 18.848,23.136 18.646,23.395 C 18.446,23.655 18.135,23.838 17.713,23.945 L 18.749,25.853 C 18.986,26.231 19.189,26.483 19.359,26.606 C 19.53,26.731 19.726,26.81 20,26.843 V 27 Z M 16.462,23.788 C 16.509,23.788 16.55,23.79 16.585,23.793 H 16.67 C 17.148,23.793 17.508,23.674 17.75,23.437 C 17.994,23.2 18.116,22.898 18.116,22.532 C 18.116,22.174 18.018,21.882 17.82,21.66 C 17.626,21.434 17.367,21.322 17.043,21.322 C 16.9,21.322 16.707,21.348 16.463,21.402 V 23.788 Z M 22.73,21 C 23.382,21 23.946,21.284 24.422,21.85 C 24.9,22.415 25.14,23.12 25.14,23.966 C 25.14,24.838 24.9,25.561 24.418,26.136 C 23.937,26.712 23.355,27 22.672,27 C 21.981,27 21.4,26.72 20.929,26.158 C 20.46,25.597 20.226,24.87 20.226,23.978 C 20.226,23.068 20.497,22.324 21.04,21.748 C 21.51,21.25 22.075,21 22.73,21 Z M 22.66,21.309 C 22.212,21.309 21.851,21.499 21.58,21.88 C 21.242,22.354 21.073,23.048 21.073,23.962 C 21.073,24.898 21.248,25.619 21.599,26.124 C 21.867,26.508 22.223,26.7 22.664,26.7 C 23.135,26.7 23.524,26.49 23.83,26.07 C 24.138,25.649 24.292,24.986 24.292,24.08 C 24.292,23.099 24.123,22.367 23.785,21.884 C 23.514,21.501 23.139,21.309 22.66,21.309 Z M 29.001,21 V 23 H 28.864 C 28.82,22.62 28.649,22.3 28.533,22.075 A 1.321,1.321 0 0,0 28.044,21.537 A 1.226,1.226 0 0,0 27.386,21.339 A 0.832,0.832 0 0,0 26.749,21.609 A 0.863,0.863 0 0,0 26.498,22.219 C 26.498,22.393 26.551,22.553 26.657,22.697 C 26.81,22.908 27.174,23.19 27.748,23.543 C 28.217,23.831 28.536,24.053 28.707,24.207 C 28.879,24.36 29.011,24.54 29.103,24.749 C 29.196,24.958 29.243,25.176 29.243,25.405 C 29.243,25.839 29.095,26.215 28.799,26.53 C 28.506,26.843 28.127,27 27.663,27 C 27.518,27 27.381,26.987 27.253,26.962 A 3.967,3.967 0 0,1 26.775,26.81 C 26.535,26.72 26.385,26.674 26.32,26.674 C 26.258,26.674 26.251,26.695 26.214,26.738 C 26.179,26.78 26.154,26.868 26.136,27 H 26 V 25 H 26.137 C 26.201,25.412 26.246,25.753 26.354,25.96 C 26.463,26.162 26.628,26.331 26.85,26.467 A 1.4,1.4 0 0,0 27.586,26.67 C 27.895,26.67 28.138,26.577 28.316,26.39 A 0.918,0.918 0 0,0 28.586,25.73 A 0.983,0.983 0 0,0 28.482,25.303 A 1.212,1.212 0 0,0 28.167,24.901 C 28.071,24.817 27.809,24.637 27.379,24.364 C 26.95,24.087 26.644,23.867 26.462,23.704 A 1.74,1.74 0 0,1 26.051,23.162 A 1.5,1.5 0 0,1 25.911,22.511 C 25.911,22.099 26.048,21.745 26.325,21.448 A 1.373,1.373 0 0,1 27.378,21 C 27.645,21 27.928,21.075 28.226,21.224 C 28.364,21.294 28.461,21.33 28.518,21.33 A 0.203,0.203 0 0,0 28.673,21.267 C 28.715,21.221 28.84,21.133 28.864,21 H 29.001 Z M 31.206,24.05 L 31.21,25.984 C 31.21,26.346 31.245,26.57 31.314,26.657 C 31.408,26.781 31.55,26.843 31.74,26.843 H 32 V 27 H 29.782 V 26.843 H 29.971 C 30.183,26.843 30.335,26.765 30.426,26.607 C 30.476,26.519 30.5,26.312 30.5,25.985 L 30.495,22.015 C 30.495,21.655 30.462,21.43 30.395,21.343 C 30.299,21.219 30.156,21.157 29.966,21.157 H 29.777 V 21 H 31.617 C 32.065,21 32.419,21.054 32.678,21.16 C 32.938,21.265 33.156,21.443 33.333,21.694 C 33.511,21.945 33.6,22.243 33.6,22.587 C 33.6,23.055 33.464,23.436 33.193,23.729 C 32.923,24.023 32.543,24.169 32.049,24.169 C 31.929,24.169 31.798,24.159 31.657,24.139 C 31.517,24.119 31.366,24.09 31.206,24.051 Z M 31.206,23.81 C 31.336,23.838 31.452,23.859 31.554,23.873 C 31.654,23.887 31.741,23.894 31.813,23.894 C 32.069,23.894 32.29,23.781 32.475,23.556 C 32.662,23.327 32.756,23.032 32.756,22.671 C 32.756,22.423 32.712,22.193 32.623,21.981 A 1,1 0 0,0 32.245,21.503 A 0.986,0.986 0 0,0 31.69,21.343 C 31.565,21.343 31.403,21.369 31.206,21.423 V 23.81 Z M 35.456,21.313 L 35.458,23.837 H 36.561 C 36.847,23.837 37.038,23.787 37.134,23.689 C 37.262,23.559 37.334,23.331 37.349,23.003 H 37.486 V 25.001 H 37.349 C 37.314,24.721 37.279,24.542 37.245,24.463 A 0.495,0.495 0 0,0 37.027,24.23 C 36.926,24.174 36.77,24.146 36.561,24.146 H 35.458 L 35.428,26.044 C 35.428,26.298 35.438,26.453 35.458,26.509 C 35.478,26.563 35.512,26.607 35.562,26.64 C 35.611,26.671 35.705,26.687 35.842,26.687 H 36.694 C 36.977,26.687 37.184,26.664 37.312,26.619 A 0.914,0.914 0 0,0 37.682,26.353 C 37.835,26.178 37.992,25.914 38.152,25.561 H 38.3 L 37.867,27 H 34 V 26.843 H 34.178 C 34.296,26.843 34.408,26.811 34.514,26.746 A 0.336,0.336 0 0,0 34.674,26.543 C 34.704,26.453 34.718,26.268 34.718,25.989 L 34.745,21.999 C 34.745,21.635 34.713,21.41 34.649,21.326 C 34.56,21.213 34.413,21.156 34.205,21.156 H 34 V 21 H 38 V 22.257 H 37.806 C 37.754,21.955 37.696,21.747 37.632,21.635 A 0.605,0.605 0 0,0 37.354,21.377 C 37.255,21.334 37.082,21.313 36.833,21.313 H 35.456 Z M 43.067,21 L 43.182,23 H 43.067 C 42.914,22.416 42.697,21.946 42.413,21.69 A 1.47,1.47 0 0,0 41.391,21.305 C 41.058,21.305 40.757,21.402 40.488,21.597 C 40.219,21.788 40.008,22.096 39.852,22.519 C 39.699,22.942 39.622,23.469 39.622,24.097 C 39.622,24.617 39.695,25.067 39.841,25.447 C 39.986,25.827 40.205,26.12 40.496,26.323 A 1.72,1.72 0 0,0 41.498,26.628 C 41.824,26.628 42.112,26.548 42.361,26.391 C 42.61,26.23 42.884,25.913 43.182,25.439 L 43.297,25.523 C 43.045,26.033 42.752,26.408 42.417,26.645 C 42.081,26.881 41.682,27 41.221,27 C 40.39,27 39.746,26.647 39.289,25.942 C 38.949,25.418 38.779,24.8 38.779,24.089 C 38.779,23.516 38.891,22.99 39.115,22.511 C 39.34,22.031 39.648,21.661 40.041,21.398 A 2.27,2.27 0 0,1 41.332,21 C 41.695,21 42.052,21.102 42.405,21.305 C 42.509,21.367 42.583,21.398 42.627,21.398 A 0.23,0.23 0 0,0 42.801,21.318 A 0.698,0.698 0 0,0 42.938,21 H 43.068 Z M 47.957,21 L 48,22.346 H 47.872 C 47.845,22.109 47.808,21.939 47.761,21.838 A 0.792,0.792 0 0,0 47.454,21.478 C 47.328,21.399 47.161,21.36 46.954,21.36 H 46.248 V 26.006 C 46.248,26.358 46.281,26.578 46.348,26.666 C 46.441,26.784 46.585,26.843 46.78,26.843 H 47 V 27 H 44.827 V 26.843 H 45.004 C 45.216,26.843 45.367,26.77 45.456,26.623 C 45.51,26.533 45.537,26.327 45.537,26.006 V 21.36 H 44.934 C 44.7,21.36 44.533,21.38 44.434,21.419 A 0.714,0.714 0 0,0 44.105,21.728 C 44.014,21.88 43.96,22.086 43.942,22.346 H 43.802 L 43.86,21 H 47.956 Z M 10.616,22.785 V 25.407 C 10.616,25.974 10.679,26.325 10.806,26.462 C 10.977,26.657 11.236,26.754 11.585,26.754 H 11.937 V 27 H 8 V 26.754 H 8.346 C 8.734,26.754 9.012,26.631 9.179,26.383 C 9.269,26.246 9.315,25.92 9.315,25.407 V 19.593 C 9.315,19.026 9.254,18.675 9.132,18.538 C 8.955,18.343 8.693,18.246 8.346,18.246 H 8 V 18 H 11.368 C 12.19,18 12.838,18.084 13.313,18.252 C 13.787,18.416 14.187,18.695 14.513,19.089 C 14.837,19.482 15,19.949 15,20.489 C 15,21.224 14.752,21.821 14.255,22.281 C 13.762,22.741 13.065,22.971 12.161,22.971 C 11.939,22.971 11.7,22.956 11.442,22.925 A 9.567,9.567 0 0,1 10.616,22.785 Z M 10.616,22.407 C 10.856,22.451 11.067,22.485 11.253,22.507 C 11.438,22.529 11.596,22.54 11.727,22.54 C 12.197,22.54 12.601,22.363 12.94,22.009 C 13.283,21.65 13.455,21.189 13.455,20.622 C 13.455,20.232 13.374,19.872 13.211,19.54 A 1.64,1.64 0 0,0 12.52,18.79 A 2.033,2.033 0 0,0 11.503,18.538 C 11.273,18.538 10.977,18.58 10.616,18.664 V 22.407 Z M 17.645,29 L 17.822,32 H 17.645 C 17.408,31.124 17.069,30.42 16.63,30.035 C 16.19,29.649 15.663,29.457 15.048,29.457 C 14.531,29.457 14.065,29.603 13.648,29.895 C 13.232,30.183 12.903,30.644 12.663,31.279 C 12.426,31.913 12.307,32.702 12.307,33.646 C 12.307,34.425 12.42,35.099 12.645,35.671 C 12.871,36.241 13.209,36.68 13.66,36.984 C 14.115,37.289 14.633,37.441 15.214,37.441 A 2.5,2.5 0 0,0 16.549,37.086 C 16.936,36.845 17.359,36.369 17.822,35.658 L 18,35.785 C 17.61,36.551 17.155,37.111 16.636,37.467 C 16.116,37.822 15.499,38 14.784,38 C 13.496,38 12.498,37.471 11.791,36.413 C 11.264,35.626 11,34.7 11,33.633 C 11,32.774 11.174,31.985 11.522,31.266 C 11.87,30.546 12.347,29.99 12.955,29.596 A 3.597,3.597 0 0,1 14.955,29 C 15.518,29 16.072,29.152 16.618,29.457 C 16.778,29.55 16.894,29.597 16.962,29.597 A 0.36,0.36 0 0,0 17.232,29.476 C 17.332,29.362 17.402,29.203 17.444,29 H 17.644 Z" fill="rgb(254, 254, 253)"/>
</svg>
