<?xml version="1.0" encoding="UTF-8"?>
<!-- generated by Finnhub -->
<svg viewBox="0 0 55.5 55.5" xmlns="http://www.w3.org/2000/svg">
<path d="M 0,0 H 55.5 V 55.5 H 0 Z" fill="url(#j)"/>
<path d="M 28.261,46.985 C 30.094,44.578 32.624,44.081 35.763,43.783 C 39.476,43.429 41.133,43.05 43.256,40.683 C 44.588,39.2 45.516,36.789 45.516,34.605 C 45.516,33.08 45.437,31.822 44.683,29.637 C 43.069,24.957 42.563,23.2 46.271,18.907 L 38.537,11.16 C 36.874,12.55 33.267,14.975 28.272,11 C 23.237,15.014 19.745,12.512 18.002,11.16 L 10.271,18.907 C 13.959,23.2 13.616,24.967 11.858,29.637 C 11.066,31.742 11.025,33.135 11.025,34.605 C 11.025,36.79 11.877,39.192 13.285,40.683 C 15.478,43.004 17.132,43.427 20.778,43.783 C 24.028,44.1 26.448,44.617 28.272,47 Z" fill="rgb(254, 254, 253)"/>
<path d="M 28.261,45.985 C 30.082,43.954 32.826,43.069 35.589,42.791 C 39.059,42.443 40.414,42.082 42.337,40.01 C 43.584,38.665 44.416,36.573 44.416,34.45 C 44.416,33.022 44.189,31.287 43.531,29.503 C 41.737,24.635 42.139,22.628 44.957,19.227 L 38.174,12.427 S 33.819,16.483 28.271,12.197 C 22.759,16.483 18.366,12.427 18.366,12.427 L 11.583,19.227 C 14.469,22.627 14.881,24.672 13.011,29.503 C 12.316,31.292 12.123,33.023 12.123,34.449 C 12.123,36.533 12.943,38.723 14.205,40.009 C 16.195,42.042 17.49,42.406 20.948,42.791 C 23.724,43.101 26.461,43.954 28.271,46 Z" fill="url(#h)"/>
<path d="M 28.259999999999998,43.985 C 31.084,42.184 32.51,42.134 35.399,41.71 C 37.906,41.34 39.547,41.142 41.372,39.316 C 43.955,36.726 43.705,33.049 42.145,28.886 C 40.331,24.056 41.933,21.236 43.453,19.304 L 38.058,13.895 S 33.819,17.255 28.271,13.625 C 22.721,17.255 18.481,13.895 18.481,13.895 L 13.082,19.304 C 14.59,21.235 16.248,24.017 14.398,28.886 C 12.809,33.063 12.625,36.726 15.168,39.316 C 16.978,41.156 18.604,41.346 21.14,41.711 C 24.109,42.134 25.456,42.184 28.27,44 Z" fill="rgb(254, 254, 253)"/>
<path d="M 28.256999999999998,41.981 C 31.177,40.301 32.949,40.474 36.214,39.949 C 41.794,39.049 41.454,34.149 41.1,32.244 C 41.013,31.774 40.851,31.038 40.72,30.637 C 40.268,29.261 39.121,26.627 39.29,23.996 H 17.29 C 17.5,26.745 16.208,29.547 15.772,30.853 C 15.675,31.145 15.55,31.673 15.483,31.988 C 15.134,33.655 14.5,38.975 20.317,39.95 C 23.801,40.534 25.355,40.301 28.267,41.996 Z" fill="rgb(225, 1, 14)"/>
<path d="M 20.259999999999998,17.985 H 21.243 V 19.978 H 22.249 V 18 H 23.271 V 23 H 22.249 V 20.86 H 21.243 V 23 H 20.271 V 18 Z" fill="url(#g)"/>
<path d="M 24.256999999999998,17.985 H 25.272 V 23 H 24.267 V 18 Z" fill="url(#f)"/>
<path d="M 37.980000000000004,17.905 C 39.35,17.92 39.451,18.798 39.433,19.485 H 38.487 C 38.483,18.412 37.453,18.575 37.462,19.241 C 37.466,19.611 38.128,20.001 38.677,20.344 C 39.169,20.654 39.508,21.154 39.522,21.7 C 39.531,22.179 39.319,23.078 37.99,23.078 C 36.636,23.078 36.525,22.048 36.522,21.465 H 37.428 C 37.428,22.658 38.525,22.515 38.535,21.735 C 38.535,21.735 38.601,21.371 37.997,21 C 37.317,20.586 36.548,20.274 36.568,19.26 C 36.568,18.982 36.626,17.92 37.99,17.92 Z" fill="url(#e)"/>
<path d="M 26.259999999999998,17.983999999999998 H 27.273 V 22 H 28.271 V 23 H 26.271 V 18 Z" fill="url(#d)"/>
<path d="M 28.729999999999997,17.983999999999998 H 29.743 V 22 H 30.74 V 23 H 28.74 V 18 Z" fill="url(#c)"/>
<path d="M 16.75,17.99 V 23 H 17.777 V 21.37 C 18.059,21.36 19.719,21.53 19.758,19.771 C 19.811,17.82 18.128,18.005 17.777,18.005 H 16.759 Z M 17.777,18.756 V 20.546 C 17.927,20.546 18.825,20.746 18.823,19.632 C 18.819,18.643 17.983,18.756 17.777,18.756 Z" fill="url(#b)" fill-rule="evenodd"/>
<path d="M 33.260000000000005,17.989 V 22.999 H 34.27 V 21.008 C 34.557,20.998 36.27,21.196 36.27,19.535 C 36.228,17.822 34.627,18.004 34.27,18.004 H 33.27 Z M 34.27,18.755 V 20.195 C 34.423,20.195 35.301,20.365 35.273,19.395 C 35.251,18.65 34.48,18.755 34.271,18.755 Z" fill="url(#a)" fill-rule="evenodd"/>
<path d="M 31.259999999999998,17.983999999999998 H 32.27 V 22.999 H 31.27 V 17.999 Z" fill="url(#i)"/>
<path d="M 35.806000000000004,31.012999999999998 C 37.916,31.764 37.399,34.366 36.343,36.042 C 35.029,38.135 32.153,38.388 30.455,37.755 C 27.75,36.746 28.569,33.83 29.456,31.423 C 30.731,27.962 33.206,26.325 36.442,27.373 C 38.173,27.929 38.434,29.511 38.261,29.999 H 35.576 S 35.619,28.793 34.813,28.793 C 33.579,28.793 32.781,31.345 32.781,31.345 S 33.963,30.378 35.816,31.028 Z M 31.91,33.91 C 32.254,33.155 32.785,32.345 33.48,32.485 C 34.42,32.675 34.097,33.885 33.767,34.746 C 33.437,35.614 32.773,36.557 31.957,36.343 C 31.2,36.149 31.515,34.779 31.91,33.91 Z M 25.47,31.027 C 27.569,31.763 27.052,34.365 26,36.041 C 24.684,38.134 21.808,38.387 20.11,37.754 C 17.403,36.745 18.218,33.826 19.11,31.422 C 20.367,28.037 22.76,26.305 26.097,27.372 C 27.831,27.922 27.965,29.511 27.791,29.999 H 25.271 S 25.274,28.792 24.469,28.792 C 23.233,28.792 22.435,31.344 22.435,31.344 S 23.616,30.377 25.469,31.027 Z M 21.586,33.91 C 21.933,33.155 22.436,32.345 23.134,32.485 C 24.076,32.675 23.749,33.885 23.422,34.746 C 23.09,35.614 22.428,36.557 21.612,36.343 C 20.852,36.149 21.192,34.779 21.586,33.91 Z" fill="rgb(254, 254, 253)" fill-rule="evenodd"/>
<defs>
<linearGradient id="e" x1="37.08" x2="42.04" y1="18.814" y2="22.127" gradientUnits="userSpaceOnUse">
<stop stop-color="rgb(25, 29, 31)" offset="0"/>
<stop stop-color="rgb(5, 5, 8)" offset="1"/>
</linearGradient>
<linearGradient id="j" x1="10.418" x2="68.147" y1="9.712" y2="76.017" gradientUnits="userSpaceOnUse">
<stop stop-color="rgb(25, 29, 31)" offset="0"/>
<stop stop-color="rgb(5, 5, 8)" offset="1"/>
</linearGradient>
<linearGradient id="h" x1="17.792" x2="52.696" y1="18.059" y2="57.641" gradientUnits="userSpaceOnUse">
<stop stop-color="rgb(25, 29, 31)" offset="0"/>
<stop stop-color="rgb(5, 5, 8)" offset="1"/>
</linearGradient>
<linearGradient id="g" x1="20.829" x2="25.692" y1="18.867" y2="22.218" gradientUnits="userSpaceOnUse">
<stop stop-color="rgb(25, 29, 31)" offset="0"/>
<stop stop-color="rgb(5, 5, 8)" offset="1"/>
</linearGradient>
<linearGradient id="f" x1="24.454" x2="26.735" y1="18.867" y2="19.394" gradientUnits="userSpaceOnUse">
<stop stop-color="rgb(25, 29, 31)" offset="0"/>
<stop stop-color="rgb(5, 5, 8)" offset="1"/>
</linearGradient>
<linearGradient id="d" x1="26.643" x2="30.591" y1="18.866" y2="20.68" gradientUnits="userSpaceOnUse">
<stop stop-color="rgb(25, 29, 31)" offset="0"/>
<stop stop-color="rgb(5, 5, 8)" offset="1"/>
</linearGradient>
<linearGradient id="c" x1="29.112" x2="33.06" y1="18.866" y2="20.68" gradientUnits="userSpaceOnUse">
<stop stop-color="rgb(25, 29, 31)" offset="0"/>
<stop stop-color="rgb(5, 5, 8)" offset="1"/>
</linearGradient>
<linearGradient id="b" x1="17.318" x2="22.18" y1="18.867" y2="22.218" gradientUnits="userSpaceOnUse">
<stop stop-color="rgb(25, 29, 31)" offset="0"/>
<stop stop-color="rgb(5, 5, 8)" offset="1"/>
</linearGradient>
<linearGradient id="a" x1="33.829" x2="38.692" y1="18.865" y2="22.216" gradientUnits="userSpaceOnUse">
<stop stop-color="rgb(25, 29, 31)" offset="0"/>
<stop stop-color="rgb(5, 5, 8)" offset="1"/>
</linearGradient>
<linearGradient id="i" x1="31.457" x2="33.728" y1="18.866" y2="19.388" gradientUnits="userSpaceOnUse">
<stop stop-color="rgb(25, 29, 31)" offset="0"/>
<stop stop-color="rgb(5, 5, 8)" offset="1"/>
</linearGradient>
</defs>
</svg>
