<?xml version="1.0" encoding="UTF-8"?>
<!-- generated by Finnhub -->
<svg viewBox="0 0 55.5 55.5" xmlns="http://www.w3.org/2000/svg">
<path d="M 0,0 H 55.5 V 55.5 H 0 Z" fill="rgb(250, 48, 69)"/>
<path d="M 38.15,12.918999999999999 A 2,2 0 1,0 34.73,10.876 L 31.833,15.702 A 12.87,12.87 0 0,0 28.005,15.124 C 20.894,15.124 15.129,20.889 15.129,28 C 15.129,29.366 15.341,30.682 15.735,31.917 L 20.11,24.625 A 8.586,8.586 0 0,1 36.59,28 A 8.584,8.584 0 0,1 22.703,34.752 L 25.488,30.007 A 3.219,3.219 0 1,0 24.96,26.955 L 19.538,36.195 L 15.415,43.066 A 2,2 0 1,0 18.845,45.124 L 22.216,39.504 A 12.823,12.823 0 0,0 28.005,40.876 C 35.116,40.876 40.881,35.111 40.881,28 A 12.86,12.86 0 0,0 35.431,17.48 L 38.159,12.934 Z" fill="rgb(254, 254, 253)"/>
</svg>
