<?xml version="1.0" encoding="UTF-8"?>
<!-- generated by Finnhub -->
<svg viewBox="0 0 55.5 55.5" xmlns="http://www.w3.org/2000/svg">
<path d="M 0,0 H 55.5 V 55.5 H 0 Z" fill="rgb(239, 242, 248)"/>
<path d="M 46.050000000000004,25.575 C 46.06,25.26 45.81,25 45.51,25 C 45.21,25 44.96,25.26 44.96,25.59 C 44.96,25.91 45.21,26.17 45.51,26.17 C 45.81,26.17 46.06,25.91 46.06,25.58 Z M 46,27.29 C 46,27.15 45.88,27 45.73,27 H 45.27 C 45.12,27 45,27.15 45,27.3 V 31.73 C 45,31.88 45.12,32 45.27,32 H 45.73 C 45.88,32 46,31.88 46,31.73 V 27.3 Z M 44.2,27 H 43.42 V 25.58 A 0.27,0.27 0 0,0 43.15,25.3 H 42.69 A 0.27,0.27 0 0,0 42.42,25.58 V 27 H 41.65 C 41.52,27 41.42,27.12 41.42,27.24 V 27.78 C 41.42,27.9 41.52,28 41.65,28 H 42.42 V 31.73 C 42.42,31.88 42.54,32 42.69,32 H 43.15 C 43.3,32 43.42,31.88 43.42,31.73 V 28 H 44.19 C 44.31,28 44.42,27.9 44.42,27.78 V 27.24 C 44.42,27.12 44.32,27 44.19,27 Z M 35.74,32 C 35.88,32 36,31.89 36,31.74 V 25.27 C 36,25.12 35.88,25 35.74,25 H 34.4 C 34.28,25 34.18,25.1 34.16,25.23 L 33.02,30.35 L 31.9,25.2 A 0.26,0.26 0 0,0 31.66,25 H 30.26 C 30.12,25 30.01,25.12 30,25.26 V 31.74 C 30,31.89 30.11,32 30.26,32 H 30.74 C 30.88,32 31,31.89 31,31.74 V 26.02 L 32.38,31.74 C 32.41,31.88 32.5,32 32.63,32 H 33.38 C 33.51,32 33.6,31.89 33.63,31.74 L 35,26.02 V 31.74 C 35,31.89 35.11,32 35.25,32 H 35.75 Z M 50.71,30 H 50.31 C 50.12,30 50.01,30.16 49.93,30.33 L 49.91,30.36 C 49.71,30.7 49.31,31 48.87,31 C 48.05,31 47.5,30.22 47.5,29.46 S 48.05,28 48.87,28 C 49.34,28 49.72,28.3 49.91,28.65 L 49.93,28.67 C 50.02,28.85 50.13,29 50.3,29 H 50.7 C 50.94,29 51.03,28.82 50.99,28.62 A 2.4,2.4 0 0,0 50.79,28.08 L 50.77,28.05 A 2.06,2.06 0 0,0 48.87,27 C 47.33,27 46.5,28.13 46.5,29.46 C 46.5,30.78 47.33,32 48.87,32 C 49.83,32 50.45,31.54 50.77,30.96 L 50.79,30.93 C 50.87,30.77 50.94,30.59 50.99,30.39 C 51.03,30.19 50.94,30 50.71,30 Z M 39.34,29.73 C 39.56,29.7 39.86,29.64 40,29.57 V 30.15 C 40,30.77 39.14,31 38.6,31 C 38.18,31 37.85,30.8 37.85,30.44 C 37.85,30.03 38.63,29.87 39.12,29.78 L 39.29,29.74 H 39.34 Z M 41,31.73 V 28.62 C 41,27.24 39.97,27 38.93,27 C 37.93,27 36.98,27.42 36.87,28.42 C 36.87,28.57 36.9,28.69 37.12,28.7 L 37.67,28.74 C 37.79,28.74 37.92,28.66 37.95,28.54 V 28.53 C 38.01,28.07 38.58,28 38.93,28 C 39.27,28 40,28.06 40,28.54 V 28.69 C 39.8,28.76 39.42,28.82 39.06,28.89 L 38.58,28.98 L 38.09,29.08 C 37.38,29.22 36.77,29.7 36.77,30.5 C 36.77,31.3 37.35,32 38.27,32 C 38.87,32 39.55,31.81 40,31.45 V 31.73 C 40,31.88 40.12,32 40.27,32 H 40.73 C 40.89,32 41,31.88 41,31.73 Z"/>
<path d="M 25.99,29.485 C 26,30.17 26.42,31 27.3,31 C 28.16,31 28.6,30.14 28.6,29.5 S 28.16,28 27.3,28 C 26.42,28 26,28.83 26,29.5 Z M 26,27.53 C 26.35,27.2 26.95,27 27.52,27 C 28.75,27 29.6,28.03 29.6,29.44 S 28.75,32 27.52,32 C 26.82,32 26.28,31.84 26,31.49 V 31.72 C 26,31.88 25.9,32 25.74,32 H 25.27 A 0.27,0.27 0 0,1 25,31.72 V 25.28 C 25,25.12 25.12,25 25.27,25 H 25.74 C 25.89,25 26,25.12 26,25.28 V 27.53 Z M 15,28.5 H 16.5 C 17.3,28.5 18,28 18,27.32 C 18,26.36 17.19,26 16.46,26 H 15 V 28.5 Z M 14.99,25 H 16.66 C 18.23,25 19,26 19,27.32 C 19,28.69 18.07,29.5 16.74,29.5 H 15 V 31.57 C 15,31.77 14.97,32 14.72,32 H 14.27 C 14.02,32 14,31.76 14,31.57 V 25.37 C 14,25.19 14.06,25 14.27,25 H 14.99 Z M 24,27.5 V 27.27 A 0.27,0.27 0 0,0 23.73,27 H 23.27 A 0.27,0.27 0 0,0 23,27.27 V 29.74 C 23,30.33 22.56,31 21.7,31 C 21.12,31 20.7,30.57 20.7,29.9 V 27.27 C 20.7,27.12 20.6,27 20.46,27 H 19.97 A 0.27,0.27 0 0,0 19.7,27.27 V 30.23 C 19.7,31.65 20.63,32 21.44,32 C 22.09,32 22.74,31.83 23,31.49 V 31.5 C 23,31.7 23,32 23.27,32 H 23.73 C 23.89,32 24,31.87 24,31.71 V 27.5 Z M 12,32 H 5 V 25 H 12 V 32 Z" fill="rgb(78, 199, 235)"/>
</svg>
