<?xml version="1.0" encoding="UTF-8"?>
<!-- generated by Finnhub -->
<svg viewBox="0 0 55.5 55.5" xmlns="http://www.w3.org/2000/svg">
<path d="M 0,0 H 55.5 V 55.5 H 0 Z" fill="rgb(1, 121, 193)"/>
<path d="M 28.211,11.985 C 18.488,12 12,19.974 12,27.528 C 12,32.564 13.668,34.894 15.158,37.038 C 16.183,34.708 18.158,30.514 18.158,30.514 L 18.985,30.052 L 20.197,26.7 L 20.909,26.372 L 18.157,34.81 L 16.177,37 H 17.024 L 20.351,33.597 L 21.929,27.432 L 22.526,28.279 C 22.292,31.123 22.385,30.431 22.198,32.017 L 18.236,37 H 19.16 L 23.045,34.618 L 23.276,34.714 L 21.816,37 H 26.106 L 32.686,33.173 L 34.605,26 H 39.5 L 37.67,24.407 L 27.047,22.635 C 24.719,20.164 24.623,20.034 24.623,20.034 L 27.433,20.264 L 25.412,18.396 V 16.49 L 28.029,16.952 L 35.149,21.094 L 43.404,23.329 C 42.566,19.458 37.581,12 28.22,12 Z M 28.221,13 C 34.601,13 39.867,17.09 41.729,21.845 L 34.494,19.841 L 28.067,16.258 L 24.912,15.738 L 23.468,18.82 L 22.295,19.417 L 20.485,24.041 C 20.485,23.948 19.235,24.6 19.235,24.6 S 16.525,31.829 15.175,35.465 C 14.105,33.553 13.135,31.537 13.135,27.528 C 13.135,20.535 19.093,13 28.221,13 Z M 35.861,26.314 L 35.571,28.742 L 35.861,29.166 L 35.571,31.304 L 36.649,31.131 L 38.593,27.431 L 35.86,26.314 Z M 39.112,27.624 L 37.112,33.269 L 35.707,34.425 L 33.919,37 H 35.689 L 38.419,33.173 L 39.767,32.017 L 41.248,28.51 L 39.112,27.624 Z M 41.864,28.704 L 40.844,32.19 L 37.421,37 H 41 C 42.91,34.342 43.814,32.14 44,29.435 L 41.864,28.703 Z M 34.879,32.383 L 30.705,37 H 32.957 L 35.303,33.173 L 34.879,32.383 Z M 15.5,38 C 18.993,42.29 24.166,44 28.125,44 C 32.642,44 37.659,41.684 40.5,38 H 15.5 Z" fill="rgb(254, 254, 253)"/>
</svg>
