<?xml version="1.0" encoding="UTF-8"?>
<!-- generated by Finnhub -->
<svg viewBox="0 0 55.5 55.5" xmlns="http://www.w3.org/2000/svg">
<path d="M 0,0 H 55.5 V 55.5 H 0 Z" fill="rgb(236, 26, 44)"/>
<path d="M 14.23,16.862 C 18.215,14.321 22.634,13.022 27.088,13.022 A 24.585,24.585 0 0,1 38.258,15.172 C 41.135,16.472 43.91,18.297 45.828,21.137 C 47.165,23.004 48.124,25.397 47.987,27.954 C 47.987,30.957 46.787,33.634 45.109,35.623 C 43.053,38.179 39.947,40.007 37.309,41.265 C 36.213,40.535 35.138,39.702 33.939,39.012 C 35.754,38.444 37.812,37.043 39.251,35.461 C 41.066,33.594 42.368,31.038 42.505,28.198 C 42.642,25.925 41.785,23.653 40.587,21.786 C 38.668,19.068 35.893,17.364 33.015,16.512 C 29.041,15.376 24.725,15.66 20.99,17.526 A 12.739,12.739 0 0,0 15.337,23.085 C 14.241,25.073 13.898,27.508 14.377,29.902 C 14.857,32.62 16.433,34.892 18.352,36.434 C 21.23,38.869 24.827,40.005 28.459,40.005 C 29.075,40.005 29.658,39.843 30.275,40.005 C 31.474,40.857 32.57,41.587 33.769,42.44 C 31.131,43.008 28.493,43.17 25.958,42.886 C 21.881,42.602 17.804,41.303 14.172,38.747 C 11.774,37.043 9.616,34.771 8.656,31.647 C 7.697,29.09 7.8,25.966 8.896,23.531 C 9.786,20.569 11.842,18.459 14.241,16.877 Z" fill="rgb(254, 252, 251)"/>
<path d="M 22.776999999999997,28.34 C 23.081,28.477 23.267,28.569 23.535,28.782 C 26.713,30.702 30.139,32.592 33.345,34.512 C 33.478,34.592 34.127,34.974 34.653,35.274 C 33.424,35.61 31.637,36.059 30.328,36.486 L 31.824,37.553 L 34.441,39.26 L 40.523,43.14 L 41.304,43.605 L 39.302,43.863 L 35.794,44.207 L 41.059,48.239 L 42.008,48.992 C 37.788,46.95 34.755,45.922 30.642,44.002 L 32.222,43.731 L 33.882,43.439 L 34.88,43.254 A 160.088,160.088 0 0,0 31.034,40.694 S 29.244,39.505 28.31,38.864 L 23.213,35.527 L 28.449,33.934 C 26.606,32.014 24.656,30.306 22.787,28.356 Z" fill="rgb(252, 189, 85)"/>
</svg>
