<?xml version="1.0" encoding="UTF-8"?>
<!-- generated by Finnhub -->
<svg viewBox="0 0 55.5 55.5" xmlns="http://www.w3.org/2000/svg">
<path d="M 0,0 H 55.5 V 55.5 H 0 Z" fill="rgb(239, 242, 248)"/>
<path d="M 4.99,24.985 H 10.5 C 11.34,25 12,25.66 12,26.5 V 29.5 C 12,30.34 11.34,31 10.5,31 H 5 V 25 Z M 6,26 V 30 H 10.5 C 10.8,30 11,29.8 11,29.5 V 26.5 C 11,26.2 10.8,26 10.5,26 H 6 Z" fill="rgb(20, 38, 47)"/>
<circle cx="14.5" cy="25.5" r=".5" fill="rgb(20, 38, 47)"/>
<circle cx="14.5" cy="27.5" r=".5" fill="rgb(20, 38, 47)"/>
<circle cx="16.5" cy="27.5" r=".5" fill="rgb(78, 130, 194)"/>
<circle cx="16.5" cy="29.5" r=".5" fill="rgb(20, 38, 47)"/>
<path d="M 17.99,24.985 L 19.03,29.76 C 19.19,30.49 19.76,31 20.41,31 H 20.61 C 21.39,31 21.75,30.34 22.12,29.77 A 0.44,0.44 0 0,1 22.88,29.77 C 23.25,30.34 23.61,31 24.38,31 H 24.59 C 25.24,31 25.81,30.5 25.97,29.76 L 27,25 H 26.03 L 25.05,29.5 C 25,29.74 24.81,30 24.59,30 H 24.39 C 24.06,30 23.78,29.34 23.63,29.12 A 1.3,1.3 0 0,0 21.37,29.12 C 21.22,29.34 20.94,30 20.61,30 H 20.41 C 20.19,30 20.01,29.74 19.95,29.5 L 18.97,25 H 18 Z M 33.5,26 H 28.5 V 25 H 33.5 C 34.34,25 35,25.66 35,26.5 V 29.5 C 35,30.34 34.34,31 33.5,31 H 29.5 C 28.66,31 28,29.84 28,29 C 28,28.07 28.58,27 29.5,27 H 32 V 28 H 29.5 C 29.08,28 29,28.54 29,29 C 29,29.3 29.2,30 29.5,30 H 33.5 C 33.8,30 34,29.8 34,29.5 V 26.5 C 34,26.2 33.8,26 33.5,26 Z M 45.5,30 H 50.5 V 31 H 45.5 C 44.66,31 44,30.34 44,29.5 V 26.5 C 44,25.66 44.66,25 45.5,25 H 49.5 C 50.34,25 51,26.16 51,27 C 51,27.93 50.42,29 49.5,29 H 47 V 28 H 49.5 C 49.92,28 50,27.46 50,27 C 50,26.7 49.8,26 49.5,26 H 45.5 C 45.2,26 45,26.2 45,26.5 V 29.5 C 45,29.8 45.2,30 45.5,30 Z M 36,25 L 37.31,29.77 C 37.51,30.5 38.09,31 38.73,31 H 40.27 C 40.91,31 41.48,30.5 41.69,29.77 L 43,25 H 41.95 L 40.75,29.39 C 40.68,29.63 40.49,30 40.27,30 H 38.73 C 38.51,30 38.33,29.63 38.26,29.39 L 37.05,25 H 36 Z" fill="rgb(20, 38, 47)"/>
</svg>
