<?xml version="1.0" encoding="UTF-8"?>
<!-- generated by Finnhub -->
<svg viewBox="0 0 55.5 55.5" xmlns="http://www.w3.org/2000/svg">
<path d="M 0,0 H 55.5 V 55.5 H 0 Z" fill="rgb(49, 82, 218)"/>
<path d="M 32.648,43.297 A 16,16 0 0,1 28,44 C 19.163,44 12,36.837 12,28 S 19.163,12 28,12 C 36.837,12 44,19.163 44,28 C 44,33.567 41.157,38.47 36.844,41.336 L 39.431,47.619 A 1,1 0 0,1 38.508,49 H 35.67 A 1,1 0 0,1 34.745,48.38 L 32.658,43.311 Z M 30.741,38.656 C 29.864,38.88 28.946,39 28,39 C 21.925,39 17,34.075 17,28 S 21.925,17 28,17 C 34.075,17 39,21.925 39,28 A 10.98,10.98 0 0,1 34.886,36.579 L 33.255,32.619 A 1,1 0 0,0 32.33,32 H 29.493 A 1,1 0 0,0 28.569,33.38 L 30.741,38.656 Z" fill="rgb(254, 254, 253)" fill-rule="evenodd"/>
</svg>
