<?xml version="1.0" encoding="UTF-8"?>
<!-- generated by Finnhub -->
<svg viewBox="0 0 55.5 55.5" xmlns="http://www.w3.org/2000/svg">
<path d="M 0,0 H 55.5 V 55.5 H 0 Z" fill="url(#a)"/>
<path d="M 10.493,17.985 C 6.56,18 4,20.137 4,22.841 C 4,23.651 4.15,24.308 4.426,25.125 H 4.511 C 4.309,24.362 4.212,23.795 4.212,23.187 C 4.212,20.69 6.434,19 10.532,19 C 16.027,19 22.598,21.423 26.47,26.379 H 26.554 C 23.36,21.825 17.2,18 10.504,18 Z M 27.566,32.247 C 26.758,34.325 24.408,35 20.998,35 C 16.625,35 11.683,33.105 8.777,30.361 A 2.678,2.678 0 0,0 9.062,26.671 A 2.783,2.783 0 0,0 5.339,26.153 C 4.767,26.548 4.37,27.143 4.229,27.816 A 2.67,2.67 0 0,0 4.573,29.776 A 2.745,2.745 0 0,0 6.188,30.975 A 2.788,2.788 0 0,0 8.198,30.762 C 11.116,33.381 15.906,36 20.678,36 C 24.174,36 26.708,34.838 27.655,32.247 H 27.566 Z M 6.916,30.297 A 1.994,1.994 0 0,1 5.649,29.857 A 1.938,1.938 0 0,1 4.961,28.718 A 1.917,1.917 0 0,1 5.174,27.411 A 1.965,1.965 0 0,1 6.188,26.541 A 2.004,2.004 0 0,1 7.533,26.513 C 7.971,26.658 8.343,26.951 8.584,27.339 A 1.919,1.919 0 0,1 8.218,29.802 C 7.945,29.513 7.688,29.21 7.448,28.893 H 6.43 C 6.785,29.347 7.169,29.777 7.58,30.18 A 1.956,1.956 0 0,1 6.917,30.297 Z M 25.527,30.072 C 25.447,29.972 25.394,29.782 25.394,29.532 V 28 H 24.584 V 29.503 C 24.584,30.066 24.724,30.405 25.029,30.665 A 1.65,1.65 0 0,0 27.036,30.665 C 27.34,30.405 27.48,30.065 27.48,29.503 V 28 H 26.671 V 29.53 C 26.671,29.78 26.621,29.97 26.538,30.07 A 0.676,0.676 0 0,1 26.033,30.293 A 0.688,0.688 0 0,1 25.527,30.07 V 30.072 Z M 32.023,28.002 C 31.632,28.002 31.267,28.199 31.011,28.594 A 1.02,1.02 0 0,0 30.627,28.16 A 1.041,1.041 0 0,0 30.066,28.002 A 1.027,1.027 0 0,0 29.314,28.358 A 0.72,0.72 0 0,0 29.189,28.56 V 28.002 L 28.417,28 V 31 H 29.227 V 29.527 C 29.227,28.929 29.547,28.713 29.85,28.713 C 30.154,28.713 30.375,28.92 30.375,29.474 V 31 H 31.184 V 29.527 C 31.184,28.929 31.504,28.713 31.81,28.713 C 32.1,28.713 32.334,28.92 32.334,29.474 V 31 H 33.142 V 29.394 C 33.142,28.532 32.675,28 32.023,28 V 28.002 Z M 11.41,30.055 C 11.326,29.955 11.277,29.765 11.277,29.515 V 28 H 10.467 V 29.487 C 10.467,30.05 10.608,30.39 10.912,30.65 C 11.192,30.882 11.55,31.014 11.916,31 C 12.282,31.014 12.639,30.882 12.919,30.65 C 13.223,30.39 13.364,30.05 13.364,29.487 V 28 H 12.554 V 29.515 C 12.554,29.765 12.504,29.955 12.422,30.055 A 0.68,0.68 0 0,1 11.916,30.277 A 0.69,0.69 0 0,1 11.41,30.055 Z M 19.12,28.387 A 0.575,0.575 0 0,0 19.012,28.558 V 28 H 18.24 V 31 H 19.049 V 29.569 C 19.049,28.971 19.414,28.713 19.717,28.713 A 0.561,0.561 0 0,1 20.197,28.935 C 20.277,29.035 20.33,29.225 20.33,29.475 V 31 H 21.138 V 29.503 C 21.138,28.939 21.058,28.563 20.748,28.29 A 1.177,1.177 0 0,0 19.92,28 A 1.053,1.053 0 0,0 19.12,28.387 Z M 35.506,25.622 C 34.512,25.622 33.902,26.252 33.902,27.012 C 33.902,27.596 34.267,28.114 34.998,28.422 L 35.513,28.633 C 36.024,28.851 36.273,29.191 36.273,29.568 C 36.273,30.026 35.879,30.326 35.441,30.326 C 34.921,30.326 34.522,30.024 34.36,29.51 L 33.669,29.753 C 33.773,30.13 33.999,30.463 34.313,30.701 C 34.628,30.939 35.013,31.068 35.41,31.07 C 36.317,31.07 37.085,30.451 37.085,29.516 C 37.085,28.743 36.55,28.216 35.834,27.929 L 35.302,27.714 C 34.914,27.557 34.722,27.274 34.722,27.017 C 34.722,26.655 35.042,26.367 35.498,26.367 C 35.825,26.367 36.098,26.548 36.311,26.869 L 36.935,26.45 C 36.613,25.9 36.105,25.622 35.506,25.622 Z M 52,29.719 C 52,28.663 51.394,27.863 50.403,27.863 C 49.379,27.863 48.784,28.593 48.784,29.517 C 48.784,30.496 49.522,31.067 50.434,31.067 C 51.084,31.067 51.522,30.803 51.773,30.496 L 51.207,30.062 C 51.042,30.274 50.817,30.377 50.462,30.377 C 50.108,30.377 49.644,30.16 49.632,29.899 H 52 V 29.719 Z M 49.642,29.312 C 49.683,28.897 49.946,28.558 50.421,28.558 C 50.836,28.558 51.141,28.834 51.207,29.312 H 49.642 Z M 23.862,28.671 V 28 H 23.01 V 27 H 22.202 V 28 H 21.776 V 28.671 H 22.202 V 29.949 C 22.202,30.745 22.639,31 23.275,31 C 23.479,30.998 23.679,30.936 23.862,30.849 V 30.302 A 1.16,1.16 0 0,1 23.482,30.358 C 23.168,30.358 23.01,30.232 23.01,29.844 V 28.676 L 23.862,28.671 Z M 14.876,29.416 C 14.878,28.922 15.132,28.555 15.71,28.555 C 16.289,28.555 16.54,28.979 16.54,29.416 S 16.288,30.36 15.71,30.36 C 15.133,30.36 14.873,29.91 14.875,29.416 Z M 17.306,28 H 16.53 V 28.399 A 0.79,0.79 0 0,0 16.275,28.091 A 1.222,1.222 0 0,0 15.529,27.841 C 14.695,27.841 14.067,28.364 14.067,29.416 S 14.695,31 15.529,31 C 15.799,31.002 16.062,30.986 16.275,30.823 A 0.83,0.83 0 0,0 16.541,30.512 V 30.989 H 17.306 V 28 Z M 46.488,30.36 C 45.91,30.36 45.658,29.968 45.658,29.516 C 45.658,29.063 45.91,28.614 46.488,28.614 S 47.3,29.093 47.3,29.516 C 47.3,29.939 47.064,30.36 46.486,30.36 H 46.488 Z M 45.658,30.99 V 30.512 A 0.835,0.835 0 0,0 45.923,30.825 C 46.137,30.988 46.4,31.075 46.67,31.074 C 47.502,31.074 48.102,30.512 48.109,29.517 C 48.116,28.523 47.502,27.903 46.669,27.903 A 1.218,1.218 0 0,0 45.923,28.153 A 0.802,0.802 0 0,0 45.658,28.454 V 27.987 H 44.891 V 33 H 45.658 V 30.99 Z M 39.289,28.494 A 0.91,0.91 0 0,1 39.929,28.784 L 40.303,28.202 A 1.361,1.361 0 0,0 39.312,27.804 C 38.257,27.804 37.592,28.538 37.583,29.423 C 37.573,30.307 38.29,31.073 39.345,31.073 A 1.378,1.378 0 0,0 40.336,30.68 L 39.962,30.097 A 0.898,0.898 0 0,1 39.322,30.387 A 0.924,0.924 0 0,1 38.381,29.426 C 38.388,28.858 38.767,28.492 39.288,28.492 L 39.289,28.494 Z M 41.528,29.427 C 41.528,28.876 41.78,28.517 42.358,28.517 C 42.937,28.517 43.188,28.987 43.188,29.427 C 43.188,29.867 42.936,30.279 42.358,30.279 C 41.781,30.279 41.522,29.887 41.526,29.426 C 41.531,28.964 41.528,29.427 41.528,29.427 Z M 43.955,28 H 43.189 V 28.36 A 0.828,0.828 0 0,0 42.924,28.053 A 1.225,1.225 0 0,0 42.178,27.804 C 41.342,27.804 40.72,28.434 40.72,29.427 S 41.343,30.991 42.178,30.991 C 42.448,30.992 42.711,30.904 42.924,30.741 A 0.826,0.826 0 0,0 43.189,30.435 V 31 H 43.955 V 28 Z" fill="rgb(254, 254, 253)"/>
<defs>
<linearGradient id="a" x1="10.418" x2="68.147" y1="9.712" y2="76.017" gradientUnits="userSpaceOnUse">
<stop stop-color="rgb(25, 29, 31)" offset="0"/>
<stop stop-color="rgb(5, 5, 8)" offset="1"/>
</linearGradient>
</defs>
</svg>
