<?xml version="1.0" encoding="UTF-8"?>
<!-- generated by Finnhub -->
<svg viewBox="0 0 55.5 55.5" xmlns="http://www.w3.org/2000/svg">
<path d="M 0,0 H 55.5 V 55.5 H 0 Z" fill="url(#a)"/>
<path d="M 11.98,21.985 A 5.99,5.99 0 0,0 6,28 V 29 C 6,32.32 8.68,35 11.99,35 H 26.69 C 26.98,35 27.11,34.66 26.89,34.49 L 21.4,30 H 15.9 C 15.7,30 15.62,30.23 15.77,30.34 L 17.84,32 H 13.36 A 3.43,3.43 0 0,1 10,28.5 C 10,26.57 11.5,25 13.36,25 H 18.64 A 3.43,3.43 0 0,1 21.98,28.9 L 25.35,31.72 C 25.77,30.91 26,29.98 26,29.01 V 27.99 C 26,24.69 23.32,22 20.01,22 H 12 Z M 44,22 H 33.03 A 6.01,6.01 0 0,0 27,28 V 29 C 27,32.32 29.7,35 33.03,35 H 44 V 32 H 34.35 A 3.43,3.43 0 0,1 31,28.5 C 31,26.57 32.5,25 34.35,25 H 44 V 22 Z M 45,22 H 49 V 25 H 45 V 22 Z M 45,26 H 49 V 35 H 45 V 26 Z" fill="rgb(254, 254, 253)"/>
<defs>
<linearGradient id="a" x1="10.42" x2="68.15" y1="9.71" y2="76.02" gradientUnits="userSpaceOnUse">
<stop stop-color="rgb(25, 29, 31)" offset="0"/>
<stop stop-color="rgb(5, 5, 8)" offset="1"/>
</linearGradient>
</defs>
</svg>
