<?xml version="1.0" encoding="UTF-8"?>
<!-- generated by Finnhub -->
<svg viewBox="0 0 55.5 55.5" xmlns="http://www.w3.org/2000/svg">
<path d="M 0,0 H 55.5 V 55.5 H 0 Z" fill="rgb(172, 26, 170)"/>
<path d="M 20.647,31.985 H 22 V 24 H 20.657 V 28.542 C 20.657,29.829 19.729,30.877 18.417,30.877 C 17.094,30.877 16.358,29.9 16.358,28.632 V 24 H 15 C 15.003,25.643 15,27.286 15,28.928 C 15,30.748 16.277,32.141 18.085,32.141 C 19.144,32.141 20.025,31.683 20.657,30.841 M 46.357,25.761 C 47.282,24.81 48.944,24.791 49.84,25.796 C 50.269,26.278 50.434,26.856 50.542,27.479 H 45.544 C 45.652,26.833 45.948,26.179 46.357,25.761 Z M 50.84,29.911 C 50.511,30.234 50.11,30.555 49.697,30.762 C 47.922,31.656 45.817,30.564 45.523,28.636 H 52 C 52,27.899 51.978,27.176 51.743,26.466 C 51.21,24.862 49.765,23.855 48.096,23.855 C 45.786,23.855 44.081,25.841 44.081,28.065 C 44.081,29.763 45.041,31.331 46.637,31.97 C 48.4,32.675 50.501,32.086 51.77,30.7 M 29,23.87 C 27.657,23.839 26.091,24.577 25.422,25.721 V 24.005 H 23.996 C 23.999,26.641 24,32 24,32 H 25.422 V 28.795 C 25.422,27.658 25.772,26.775 26.341,26.192 C 26.959,25.558 28.136,25.319 29,25.319 V 23.87 Z M 34.853,30.445 C 34.146,30.982 33.108,31.151 32.258,30.905 C 31.161,30.593 30.532,29.223 31.644,28.453 C 32.462,27.883 33.716,27.971 34.654,28.144 C 35.006,28.208 35.327,28.277 35.607,28.35 V 29 C 35.607,29.595 35.318,30.092 34.853,30.445 Z M 35.592,31.998 H 36.996 V 27.088 C 36.996,24.954 35.451,23.807 33.408,23.807 C 32.358,23.807 31.276,24.103 30.326,24.541 L 31.143,25.531 C 31.838,25.251 32.526,25.085 33.282,25.085 C 34.651,25.085 35.592,25.807 35.592,27.216 C 35.262,27.13 34.923,27.059 34.583,27.006 C 33.666,26.859 32.666,26.848 31.763,27.083 C 30.887,27.313 30.226,27.759 29.877,28.42 C 29.523,29.095 29.507,30.06 29.887,30.728 C 30.464,31.74 31.644,32.165 32.761,32.165 C 33.841,32.165 34.841,31.785 35.591,30.998 M 42.802,30.86 C 42.351,31.023 41.715,30.956 41.335,30.667 C 41.11,30.495 40.995,30.179 40.995,29.727 V 25.24 H 43 V 24 L 40.996,24.007 V 21.633 H 39.576 V 24.007 H 38 V 25.241 H 39.576 V 29.892 C 39.576,30.711 39.834,31.307 40.264,31.678 C 41.153,32.448 42.601,32.351 43.594,31.829 L 42.802,30.861 Z M 11.05,28.049 C 11.05,30.025 9.06,31.577 7.14,30.789 C 6.474,30.518 5.95,29.999 5.657,29.276 C 5.212,28.176 5.404,26.709 6.251,25.856 C 7.021,25.084 8.262,24.886 9.259,25.301 C 10.381,25.771 11.051,26.843 11.051,28.049 Z M 16,36 C 13.542,35.963 12.5,34.575 12.5,31.356 V 24.006 H 11.004 V 25.309 C 10.258,24.392 9.178,23.839 7.983,23.839 C 6.393,23.839 4.953,24.826 4.323,26.274 C 3.635,27.859 3.967,29.943 5.23,31.141 C 6.22,32.085 7.721,32.491 9.046,32.101 C 9.849,31.865 10.485,31.341 11.001,30.696 V 31.356 C 11.001,33.728 11.631,35.206 12.876,36.261 C 13.719,36.975 14.708,37.356 16,37.37 V 36 Z" fill="rgb(254, 254, 253)"/>
</svg>
