<?xml version="1.0" encoding="UTF-8"?>
<!-- generated by Finnhub -->
<svg viewBox="0 0 55.5 55.5" xmlns="http://www.w3.org/2000/svg">
<path d="M 0,0 H 55.5 V 55.5 H 0 Z" fill="rgb(253, 241, 2)"/>
<path d="M 38.775,8.985 C 39.48,9 40.041,9.526 40.041,10.177 V 45.823 C 40.041,46.473 39.48,47 38.785,47 H 16.296 C 15.603,47 15.041,46.473 15.041,45.823 V 10.177 C 15.041,9.527 15.603,9 16.296,9 H 38.786 Z" fill="rgb(254, 254, 253)"/>
<path d="M 15.145,14.234 H 40.045 V 45.717 C 40.045,45.978 39.995,46.14 39.803,46.316 C 39.593,46.506 39.41,46.523 39.078,46.523 L 15.898,46.525 A 0.723,0.723 0 0,1 15.425,46.355 A 0.648,0.648 0 0,1 15.155,45.832 V 14.249 Z" fill="rgb(254, 241, 2)"/>
<path d="M 39.99,12.985 H 15.123 V 15 H 40 V 13 Z" fill="rgb(236, 27, 34)"/>
<path d="M 15.84,9.421999999999999 H 39 C 39.37,9.437 39.713,9.743 39.713,10.041 V 10.994 H 15.155 L 15.157,10.156 V 10.086 C 15.157,9.749 15.461,9.47 15.849,9.436 Z" fill="rgb(1, 153, 76)"/>
<path d="M 38.734,8.985 C 39.44,9 40,9.526 40,10.177 V 45.823 C 40,46.473 39.439,47 38.744,47 H 16.255 C 15.562,47 15,46.473 15,45.823 V 10.177 C 15,9.527 15.562,9 16.255,9 H 38.745 Z M 38.744,9.47 H 16.255 C 15.839,9.47 15.502,9.787 15.502,10.177 V 45.823 C 15.502,46.213 15.839,46.529 16.255,46.529 H 38.745 C 39.161,46.529 39.498,46.214 39.498,45.823 V 10.177 C 39.498,9.787 39.161,9.47 38.744,9.47 Z"/>
<path d="M 27.089,16.266 S 27.083,16.419 27.05,16.499 C 27.018,16.573 26.933,16.623 26.939,16.673 C 26.944,16.723 26.999,16.781 27.084,16.823 C 27.168,16.863 27.202,16.896 27.288,16.916 C 27.368,16.936 27.468,16.99 27.497,16.927 C 27.525,16.863 27.482,16.785 27.434,16.71 C 27.35,16.579 27.307,16.547 27.184,16.367 C 27.157,16.328 27.136,16.287 27.099,16.281 Z"/>
<path d="M 26.459999999999997,30.404 C 26.478,30.395 26.676,30.515 26.78,30.572 C 26.997,30.696 27.095,30.769 27.287,30.905 C 27.439,31.015 27.513,31.071 27.665,31.195 C 27.853,31.349 27.955,31.48 28.005,31.45 C 28.078,31.367 27.885,31.124 27.715,30.993 C 27.549,30.863 27.378,30.757 27.245,30.675 C 27.075,30.568 27.061,30.544 26.806,30.382 A 4.05,4.05 0 0,1 26.296,29.99 L 26.031,29.792 L 25.615,29.46 L 25.152,29.056 L 24.802,28.687 S 24.531,28.372 24.488,28.312 C 24.444,28.252 24.316,28.057 24.21,27.892 A 5.529,5.529 0 0,0 23.916,27.495 C 23.817,27.381 23.591,27.427 23.329,27.281 C 23.01,27.103 22.933,26.94 22.933,26.94 S 22.922,26.916 22.909,26.903 C 22.898,26.89 22.873,26.873 22.873,26.873 L 22.706,26.763 L 22.611,26.703 S 22.539,26.647 22.448,26.61 C 22.356,26.572 22.152,26.46 22.152,26.46 L 21.788,26.24 L 21.598,26.095 C 21.549,26.06 21.46,26.011 21.46,26.011 S 21.402,25.983 21.385,25.982 A 10.397,10.397 0 0,1 21.292,25.975 S 21.222,25.957 21.15,26.036 C 21.079,26.116 21.096,26.074 21.213,26.523 C 21.259,26.699 21.254,27.323 21.303,27.513 C 21.366,27.756 21.547,28.071 21.566,28.108 C 21.584,28.145 21.596,28.281 21.596,28.281 S 21.589,28.391 21.601,28.461 C 21.656,28.783 22.153,28.571 22.263,29.012 C 22.371,29.448 22.198,29.882 22.198,29.882 S 22.092,30.099 21.94,30.132 C 21.79,30.166 21.556,29.85 21.387,29.594 C 21.221,29.342 21.084,29.012 21.04,28.908 C 20.996,28.803 20.973,28.78 20.923,28.704 C 20.848,28.591 20.788,28.611 20.704,28.433 C 20.62,28.253 20.694,28.182 20.657,28.026 C 20.635,27.94 20.616,27.93 20.587,27.806 C 20.56,27.684 20.522,27.293 20.522,27.293 L 20.47,26.929 S 20.451,26.763 20.427,26.659 C 20.343,26.295 20.314,25.943 20.314,25.943 L 20.298,25.798 L 20.293,25.648 S 20.288,25.577 20.306,25.503 A 0.544,0.544 0 0,1 20.362,25.368 S 20.44,25.245 20.453,25.214 C 20.466,25.184 20.625,25.01 20.625,25.01 S 20.708,24.945 20.843,24.867 C 20.979,24.788 21.101,24.794 21.101,24.794 S 21.137,24.791 21.377,24.819 C 21.617,24.847 22.112,24.971 22.237,25.002 C 22.36,25.033 22.507,25.082 22.602,25.132 C 22.877,25.274 22.96,25.214 22.742,25.052 C 22.594,24.942 22.553,24.894 22.434,24.792 C 22.334,24.704 22.256,24.646 22.181,24.566 A 7.282,7.282 0 0,1 21.894,24.186 L 21.761,24.001 S 21.689,23.924 21.677,23.919 L 21.63,23.886 S 21.542,23.891 21.451,23.874 C 21.359,23.857 21.316,23.979 21.316,23.979 S 21.118,24.329 20.917,24.542 C 20.592,24.89 20.358,25.126 20.238,25.311 C 20.07,25.567 20.108,25.848 20.021,25.978 C 19.971,26.054 19.943,26.065 19.915,26.132 C 19.831,26.334 20.137,26.444 20.067,26.668 C 19.955,27.022 19.079,27.372 18.963,27.314 C 18.842,27.254 18.941,26.774 18.981,26.62 A 1.93,1.93 0 0,1 19.157,26.222 A 0.31,0.31 0 0,0 19.207,26.112 C 19.217,26.065 19.219,25.962 19.225,25.904 C 19.231,25.846 19.256,25.754 19.256,25.754 S 19.259,25.735 19.336,25.576 C 19.415,25.416 19.7,25.044 19.905,24.688 C 20.039,24.456 20.095,24.316 20.23,24.083 C 20.355,23.87 20.567,23.544 20.567,23.544 S 20.657,23.378 20.699,23.317 C 20.742,23.253 20.832,23.134 20.916,23.015 C 21.001,22.898 21.022,22.81 21.132,22.713 A 0.645,0.645 0 0,1 21.406,22.553 C 21.584,22.497 21.706,22.527 21.888,22.575 C 22.076,22.624 22.206,22.705 22.33,22.802 C 22.453,22.9 22.544,23.008 22.544,23.008 L 22.604,23.092 L 22.642,23.112 L 22.756,23.182 L 23.018,23.347 L 23.676,23.77 C 23.709,23.79 23.821,23.877 23.842,23.884 C 23.866,23.891 24.032,23.72 24.356,23.508 C 24.733,23.261 24.866,23.279 24.991,23.215 C 25.113,23.151 25.164,23.098 25.261,23.006 C 25.407,22.868 25.408,22.794 25.574,22.601 C 25.74,22.408 25.896,22.301 25.896,22.301 L 26.216,21.961 C 26.513,21.643 26.645,21.403 26.645,21.403 L 26.808,21.094 S 27.044,20.614 27.119,20.424 C 27.196,20.234 27.196,20.17 27.196,20.17 S 27.206,20.12 27.15,20.023 C 27.09,19.927 27.03,19.97 26.917,19.993 C 26.701,20.036 26.569,19.983 26.351,19.947 C 26.151,19.915 26.047,19.858 25.846,19.827 C 25.643,19.794 25.524,19.762 25.32,19.781 A 0.814,0.814 0 0,0 25.197,19.806 C 25.082,19.842 25.05,19.851 24.965,19.898 A 0.625,0.625 0 0,1 24.691,19.958 C 24.615,19.96 24.569,19.962 24.499,19.936 A 0.319,0.319 0 0,1 24.332,19.815 C 24.33,19.795 24.323,19.795 24.344,19.762 C 24.364,19.729 24.39,19.723 24.39,19.723 L 24.483,19.701 L 24.627,19.666 L 24.819,19.608 C 24.874,19.591 24.935,19.561 24.935,19.561 S 24.969,19.51 24.955,19.481 C 24.94,19.447 24.865,19.444 24.865,19.444 L 24.749,19.484 C 24.737,19.486 24.57,19.536 24.57,19.536 L 24.338,19.586 A 2.32,2.32 0 0,1 24.09,19.619 L 24.046,19.608 S 23.996,19.576 23.989,19.543 A 0.99,0.99 0 0,1 23.971,19.459 C 23.949,19.336 23.923,19.262 23.954,19.142 A 0.727,0.727 0 0,1 24.059,18.919 L 24.139,18.794 L 24.291,18.581 A 0.596,0.596 0 0,1 24.443,18.471 A 0.63,0.63 0 0,1 24.716,18.393 C 24.835,18.381 24.851,18.382 25.019,18.346 C 25.189,18.31 25.308,18.246 25.308,18.246 S 25.712,18.106 25.958,17.992 C 26.216,17.872 26.328,17.745 26.595,17.646 C 26.708,17.604 26.773,17.584 26.89,17.556 A 0.051,0.051 0 0,0 26.916,17.522 C 26.927,17.482 26.862,17.464 26.817,17.468 C 26.777,17.471 26.685,17.512 26.664,17.468 C 26.648,17.434 26.748,17.415 26.748,17.415 S 26.795,17.394 26.796,17.369 C 26.798,17.331 26.728,17.356 26.698,17.352 C 26.541,17.336 26.528,17.309 26.42,17.284 C 26.292,17.254 26.223,17.216 26.09,17.211 A 1.173,1.173 0 0,0 25.791,17.247 C 25.719,17.264 25.716,17.197 25.745,17.183 C 25.95,17.093 25.955,17.085 26.099,17.079 C 26.179,17.076 26.289,17.092 26.302,17.098 C 26.313,17.104 26.472,17.097 26.512,17.058 C 26.554,17.018 26.382,17.021 26.302,16.991 C 26.227,16.963 26.112,16.955 26.115,16.908 C 26.119,16.861 26.175,16.887 26.213,16.878 C 26.263,16.866 26.291,16.868 26.342,16.861 C 26.433,16.849 26.441,16.841 26.576,16.831 A 1.13,1.13 0 0,1 26.901,16.872 S 27.102,16.957 27.201,17.002 C 27.301,17.045 27.42,17.068 27.42,17.068 S 27.56,17.087 27.667,17.023 C 27.775,16.96 27.714,16.919 27.677,16.861 C 27.639,16.807 27.592,16.728 27.661,16.579 C 27.723,16.449 27.755,16.298 27.772,16.284 C 27.794,16.267 27.879,16.384 27.934,16.432 C 28.131,16.606 28.392,16.692 28.638,17.057 C 28.657,17.087 28.748,17.04 29.033,17.081 C 29.318,17.123 29.568,17.412 29.631,17.481 C 29.696,17.551 29.781,17.547 29.781,17.547 L 29.917,17.565 L 30.415,17.573 S 30.641,17.535 30.771,17.581 C 30.861,17.614 31.165,17.806 31.027,17.879 C 30.93,17.929 30.839,17.817 30.752,17.812 C 30.648,17.806 30.603,17.824 30.512,17.846 C 30.318,17.892 29.904,18.011 30.054,18.058 C 30.065,18.063 30.087,18.066 30.087,18.066 L 30.161,18.078 S 30.343,18.118 30.453,18.158 C 30.619,18.221 30.698,18.289 30.851,18.374 C 30.938,18.422 30.976,18.47 31.071,18.497 C 31.159,18.521 31.216,18.497 31.305,18.512 C 31.423,18.532 31.49,18.554 31.598,18.603 C 31.758,18.676 31.817,18.764 31.96,18.863 C 32.032,18.912 32.093,18.919 32.147,18.986 C 32.159,19.001 32.169,19.009 32.175,19.026 C 32.195,19.086 32.069,19.051 32.003,19.041 C 31.93,19.029 31.9,18.995 31.833,18.966 C 31.733,18.921 31.685,18.872 31.576,18.854 C 31.498,18.839 31.45,18.851 31.37,18.854 C 31.29,18.858 31.25,18.869 31.17,18.87 A 1.381,1.381 0 0,1 30.83,18.835 C 30.683,18.805 30.61,18.752 30.464,18.723 C 30.299,18.69 30.007,18.556 30.035,18.69 C 30.05,18.755 30.205,18.809 30.205,18.809 S 30.311,18.863 30.412,18.906 C 30.514,18.947 30.57,19.011 30.57,19.011 L 30.64,19.06 S 30.711,19.153 30.806,19.26 C 30.898,19.363 31.062,19.36 31.062,19.36 S 31.16,19.36 31.374,19.402 C 31.586,19.443 31.805,19.568 31.805,19.568 S 31.97,19.675 32.067,19.783 C 32.163,19.891 32.107,19.945 32.095,19.956 C 32.084,19.968 32.088,19.963 32.075,19.968 C 32.064,19.974 31.945,19.832 31.945,19.832 L 31.859,19.763 S 31.776,19.708 31.669,19.675 C 31.56,19.643 31.524,19.665 31.524,19.665 S 31.295,19.725 31.095,19.72 A 0.568,0.568 0 0,1 30.795,19.64 L 30.668,19.56 S 30.48,19.392 30.473,19.471 C 30.468,19.525 30.556,19.585 30.556,19.585 S 30.616,19.643 30.657,19.679 C 30.734,19.751 30.765,19.786 30.853,19.86 C 30.94,19.935 30.994,19.935 30.994,19.935 A 2.7,2.7 0 0,0 31.109,19.96 S 31.139,19.97 31.275,20.023 C 31.411,20.075 31.558,20.189 31.558,20.189 S 31.572,20.199 31.592,20.203 C 31.612,20.205 31.652,20.224 31.664,20.227 C 31.676,20.23 31.711,20.23 31.79,20.241 C 31.87,20.251 31.839,20.3 31.839,20.3 L 31.826,20.318 L 31.76,20.359 S 31.676,20.382 31.619,20.385 A 0.445,0.445 0 0,1 31.477,20.357 L 31.301,20.294 S 31.122,20.25 31.084,20.244 A 8.156,8.156 0 0,1 30.86,20.203 A 0.868,0.868 0 0,1 30.733,20.158 C 30.711,20.148 30.672,20.14 30.575,20.095 C 30.48,20.05 30.442,19.999 30.323,19.963 C 30.203,19.927 30.129,19.919 30.039,19.978 C 29.884,20.08 30.273,20.096 30.466,20.188 C 30.752,20.321 30.912,20.418 30.98,20.562 A 0.557,0.557 0 0,0 31.117,20.758 S 31.317,20.854 31.407,20.955 C 31.457,21.009 31.464,21.054 31.513,21.108 C 31.623,21.23 31.837,21.223 31.879,21.327 C 31.919,21.424 31.706,21.38 31.595,21.371 C 31.395,21.352 31.347,21.179 31.16,21.109 C 31.055,21.069 30.988,21.069 30.88,21.034 C 30.683,20.973 30.591,20.892 30.394,20.834 C 30.275,20.8 30.06,20.651 30.087,20.766 C 30.091,20.793 30.109,20.815 30.117,20.831 C 30.127,20.848 30.177,20.908 30.177,20.908 S 30.243,20.991 30.273,21.013 C 30.301,21.036 30.428,21.126 30.61,21.22 C 30.79,21.314 30.947,21.494 30.947,21.494 S 31.001,21.567 31.027,21.618 C 31.054,21.676 31.035,21.693 31.077,21.773 C 31.117,21.853 31.136,21.868 31.189,21.917 C 31.322,22.037 31.461,22.013 31.629,22.079 C 31.676,22.097 31.679,22.104 31.729,22.154 C 31.779,22.204 31.719,22.224 31.719,22.224 S 31.532,22.27 31.411,22.261 C 31.253,22.249 31.183,22.203 31.03,22.131 C 30.875,22.059 30.794,21.93 30.778,21.921 C 30.765,21.913 30.727,21.875 30.698,21.855 C 30.668,21.835 30.593,21.821 30.526,21.803 C 30.457,21.786 30.419,21.783 30.35,21.765 C 30.257,21.74 30.16,21.701 30.117,21.688 C 30.073,21.673 29.973,21.656 29.9,21.698 C 29.754,21.779 30.127,21.834 30.243,21.952 C 30.302,22.012 30.327,22.052 30.383,22.115 C 30.426,22.163 30.443,22.196 30.497,22.234 C 30.532,22.259 30.599,22.286 30.599,22.286 S 30.689,22.326 30.819,22.394 C 30.951,22.462 31.105,22.657 31.105,22.657 L 31.198,22.792 L 31.253,22.869 L 31.268,22.904 L 31.288,22.948 S 31.356,23.031 31.405,23.058 C 31.455,23.086 31.445,23.111 31.445,23.111 S 31.44,23.128 31.405,23.146 C 31.371,23.166 31.352,23.15 31.303,23.136 C 31.253,23.122 31.221,23.078 31.178,23.046 C 31.133,23.011 31.086,22.929 31.006,22.882 C 30.936,22.842 30.843,22.827 30.808,22.817 C 30.773,22.805 30.685,22.752 30.65,22.737 A 4.95,4.95 0 0,1 30.526,22.686 S 30.35,22.593 30.254,22.568 C 30.157,22.543 30.219,22.598 30.219,22.598 S 30.305,22.726 30.389,22.778 C 30.496,22.845 30.648,22.905 30.599,22.959 C 30.565,22.995 30.519,22.982 30.471,22.977 C 30.39,22.967 30.291,22.877 30.291,22.877 S 30.251,22.851 30.071,22.797 C 29.891,22.741 29.957,22.835 29.999,22.885 C 30.039,22.935 30.094,22.962 30.094,22.962 L 30.217,23.015 L 30.273,23.031 S 30.323,23.04 30.485,23.076 C 30.648,23.111 30.738,23.186 30.738,23.186 S 30.826,23.263 30.947,23.348 A 0.684,0.684 0 0,0 31.259,23.465 C 31.327,23.473 31.324,23.517 31.324,23.517 S 31.334,23.558 31.329,23.572 C 31.327,23.585 31.312,23.597 31.297,23.597 C 31.284,23.597 31.277,23.602 31.259,23.611 A 0.582,0.582 0 0,1 31.172,23.631 S 30.99,23.625 30.846,23.591 C 30.704,23.558 30.578,23.465 30.565,23.459 C 30.554,23.454 30.421,23.384 30.329,23.357 A 0.643,0.643 0 0,0 30.082,23.347 C 30.067,23.351 30.018,23.359 29.934,23.382 C 29.848,23.403 29.955,23.434 29.955,23.434 L 30.015,23.44 L 30.161,23.45 S 30.311,23.467 30.438,23.511 C 30.565,23.555 30.648,23.643 30.732,23.724 C 30.817,23.804 30.91,23.856 30.91,23.856 L 30.977,23.897 L 31.012,23.922 L 31.022,23.944 L 31.012,23.969 C 31.006,23.983 30.985,23.994 30.985,23.994 S 30.954,23.988 30.94,23.988 C 30.924,23.988 30.83,23.941 30.758,23.911 C 30.685,23.881 30.648,23.852 30.57,23.834 A 0.605,0.605 0 0,0 30.392,23.818 C 30.372,23.823 30.224,23.843 30.109,23.85 C 29.994,23.859 29.895,23.86 29.761,23.845 C 29.569,23.823 29.314,23.679 29.281,23.719 C 29.215,23.803 29.417,23.827 29.516,23.881 C 29.651,23.955 29.884,24.021 29.884,24.021 S 30.055,24.057 30.155,24.101 C 30.375,24.198 30.44,24.341 30.617,24.491 C 30.713,24.575 30.792,24.611 30.922,24.629 C 31.035,24.644 31.032,24.632 31.21,24.599 C 31.388,24.565 31.496,24.405 31.548,24.464 C 31.558,24.474 31.554,24.485 31.551,24.502 A 0.284,0.284 0 0,1 31.533,24.549 S 31.513,24.576 31.482,24.607 C 31.449,24.637 31.327,24.7 31.262,24.725 A 1.15,1.15 0 0,1 30.844,24.786 C 30.646,24.781 30.367,24.637 30.367,24.637 L 30.167,24.557 S 30.075,24.517 30.012,24.494 C 29.846,24.434 29.741,24.44 29.57,24.397 C 29.464,24.37 29.395,24.342 29.3,24.323 C 29.203,24.303 29.258,24.34 29.267,24.353 C 29.311,24.41 29.372,24.429 29.449,24.463 C 29.549,24.509 29.62,24.5 29.724,24.541 C 29.84,24.585 29.941,24.648 30.004,24.687 C 30.068,24.725 30.114,24.769 30.177,24.83 L 30.389,25.002 S 30.439,25.04 30.444,25.056 C 30.449,25.073 30.473,25.114 30.462,25.181 C 30.449,25.247 30.392,25.201 30.392,25.201 L 30.336,25.167 L 30.28,25.117 L 30.191,25.047 S 30.115,24.982 29.983,24.919 C 29.853,24.855 29.696,24.839 29.696,24.839 S 29.556,24.819 29.561,24.861 C 29.568,24.901 29.599,24.905 29.709,24.932 C 29.82,24.96 29.893,25.012 29.893,25.012 S 30.007,25.092 30.089,25.181 C 30.169,25.269 30.193,25.355 30.193,25.355 S 30.235,25.427 30.339,25.523 C 30.444,25.62 30.499,25.586 30.493,25.633 C 30.488,25.68 30.441,25.688 30.441,25.688 L 30.403,25.686 C 30.393,25.686 30.365,25.672 30.336,25.661 C 30.306,25.651 30.196,25.578 30.196,25.578 S 30.024,25.445 30.004,25.433 L 29.82,25.303 S 29.724,25.244 29.655,25.211 A 2.14,2.14 0 0,0 29.438,25.128 A 0.829,0.829 0 0,0 29.29,25.107 S 29.174,25.09 29.104,25.065 C 28.992,25.025 28.864,24.913 28.849,24.907 A 0.703,0.703 0 0,0 28.709,24.871 C 28.689,24.873 28.642,25.059 28.631,25.165 C 28.584,25.613 28.709,25.911 28.905,26.322 C 29.187,26.918 29.972,27.66 29.972,27.66 S 30.17,27.766 30.252,27.83 C 30.488,28.004 30.876,28.25 31.222,28.576 C 31.515,28.855 31.906,29.35 31.906,29.35 S 32.133,29.649 32.239,29.86 C 32.367,30.12 32.47,30.516 32.47,30.516 S 32.48,30.584 32.486,30.599 C 32.495,30.613 32.516,30.631 32.529,30.631 L 32.666,30.635 C 32.679,30.635 32.836,30.625 32.939,30.6 C 33.041,30.576 33.284,30.47 33.445,30.39 C 33.605,30.31 33.797,30.157 33.797,30.157 S 33.834,30.127 34.021,29.929 C 34.209,29.731 34.331,29.434 34.377,29.322 C 34.422,29.211 34.459,28.996 34.486,28.63 C 34.515,28.263 34.462,27.875 34.462,27.875 S 34.392,27.335 34.348,27.151 C 34.306,26.968 34.203,26.668 34.203,26.668 S 34.131,26.401 34.108,26.232 A 4.504,4.504 0 0,1 34.081,25.789 S 34.081,25.621 34.138,25.31 C 34.198,25.001 34.398,24.69 34.398,24.69 S 34.454,24.585 34.67,24.34 C 34.891,24.09 34.962,24.05 35.18,23.9 C 35.353,23.783 35.576,23.594 35.65,23.638 C 35.73,23.686 35.57,23.782 35.517,23.832 C 35.381,23.959 35.127,24.185 34.921,24.525 C 34.741,24.819 34.674,25.014 34.63,25.205 C 34.584,25.398 34.604,25.608 34.61,25.68 C 34.616,25.752 34.658,25.726 34.658,25.726 S 35.094,25.393 35.331,25.142 C 35.589,24.869 35.818,24.384 35.908,24.38 C 35.968,24.377 35.996,24.506 35.982,24.567 C 35.926,24.818 35.907,24.849 35.82,25.017 C 35.721,25.208 35.63,25.293 35.492,25.47 C 35.348,25.655 35.278,25.726 35.162,25.97 C 34.995,26.324 35.092,26.596 35.092,26.596 S 35.112,26.762 35.192,26.759 C 35.322,26.755 35.612,26.409 35.8,26.127 C 35.94,25.92 35.99,25.681 36.08,25.555 C 36.164,25.445 36.237,25.736 36.201,25.909 C 36.16,26.113 36.053,26.298 35.818,26.587 C 35.588,26.87 35.596,27.14 35.596,27.14 S 35.572,27.263 35.553,27.53 C 35.535,27.798 35.616,28.203 35.616,28.203 S 35.688,28.542 35.702,28.799 C 35.716,29.058 35.707,29.644 35.452,30.101 C 35.351,30.284 35.134,30.538 35.134,30.538 S 34.967,30.7 34.83,30.795 C 34.692,30.89 34.363,31.038 34.363,31.038 S 34.135,31.112 34.103,31.118 C 34.07,31.127 34.05,31.154 34.05,31.154 L 34.079,31.212 L 34.151,31.378 S 34.219,31.588 34.245,31.756 C 34.271,31.923 34.241,31.961 34.216,32.089 C 34.191,32.211 34.136,32.155 34.121,32.395 C 34.108,32.608 34.209,32.715 34.191,32.953 C 34.184,33.057 34.059,32.821 33.998,32.721 C 33.87,32.504 33.9,32.17 33.898,32.087 A 1.042,1.042 0 0,0 33.69,31.483 C 33.623,31.401 33.552,31.355 33.529,31.363 C 33.505,31.371 33.503,31.414 33.503,31.436 C 33.501,31.459 33.549,31.538 33.559,31.555 C 33.571,31.571 33.655,31.717 33.655,31.717 S 33.693,31.829 33.707,32.049 C 33.722,32.266 33.651,32.536 33.651,32.536 S 33.559,32.839 33.462,33.018 C 33.354,33.215 33.115,33.483 33.115,33.483 S 32.943,33.632 32.814,33.877 C 32.687,34.121 32.796,34.227 32.749,34.26 C 32.699,34.29 32.599,34.118 32.571,34.002 C 32.545,33.894 32.558,33.842 32.605,33.722 C 32.649,33.604 32.752,33.435 32.752,33.435 L 32.906,33.187 S 33.093,32.851 33.151,32.606 C 33.209,32.363 33.142,32.093 33.142,32.093 S 33.134,32.003 33.07,32.008 C 33.005,32.011 32.96,32.064 32.933,32.129 C 32.88,32.263 32.956,32.239 32.875,32.462 C 32.812,32.638 32.794,32.614 32.76,32.719 C 32.72,32.843 32.698,32.971 32.7,33.049 C 32.704,33.125 32.66,33.093 32.66,33.093 S 32.58,32.955 32.58,32.783 C 32.58,32.689 32.585,32.636 32.596,32.543 C 32.614,32.393 32.679,32.163 32.679,32.163 S 32.749,31.936 32.734,31.729 C 32.718,31.521 32.641,31.483 32.641,31.483 S 32.621,31.455 32.536,31.459 C 32.451,31.465 32.456,31.609 32.456,31.609 S 32.43,31.814 32.396,31.942 C 32.303,32.294 32.178,32.479 31.958,32.776 C 31.758,33.044 31.488,33.281 31.352,33.391 C 31.217,33.504 30.802,33.791 30.802,33.791 L 30.314,34.098 S 30.12,34.276 30.033,34.489 A 0.807,0.807 0 0,0 29.999,35.062 C 30.051,35.258 30.125,35.347 30.164,35.402 C 30.202,35.455 30.278,35.552 30.302,35.664 C 30.318,35.733 30.307,35.774 30.312,35.844 C 30.316,35.907 30.325,35.94 30.322,36.004 C 30.32,36.101 30.34,36.17 30.28,36.25 C 30.237,36.31 30.12,36.364 30.12,36.364 S 29.988,36.419 29.91,36.465 C 29.08,36.938 28.786,37.246 28.319,37.774 C 28.17,37.943 28.279,37.932 28.121,38.132 C 28.025,38.252 27.803,38.252 27.723,38.394 C 27.611,38.589 27.974,38.78 27.555,38.952 C 27.014,39.172 26.083,39.014 26.065,38.945 C 26.015,38.755 26.247,38.537 26.329,38.449 C 26.708,38.058 27.046,38.049 27.17,37.724 C 27.197,37.654 27.186,37.595 27.488,37.384 C 27.7,37.235 28.546,36.632 28.915,36.23 C 29.042,36.092 29.151,36 29.206,35.851 C 29.262,35.7 29.151,35.605 29.151,35.605 L 28.999,35.371 L 28.709,34.879 S 28.586,34.617 28.519,34.466 A 7.598,7.598 0 0,1 28.324,33.908 S 28.231,33.542 28.215,33.304 C 28.187,32.876 28.249,32.627 28.368,32.212 C 28.522,31.674 28.871,31.448 29.011,30.914 C 29.051,30.759 29.06,30.493 28.977,30.506 C 28.898,30.519 28.892,30.729 28.831,30.869 C 28.606,31.399 28.31,31.631 28.147,32.18 C 28.037,32.552 27.993,32.772 27.994,33.157 C 27.995,33.377 27.986,33.337 28.046,33.719 C 28.069,33.859 28.106,33.935 28.149,34.072 C 28.18,34.17 28.265,34.352 28.265,34.352 S 28.38,34.594 28.421,34.764 C 28.433,34.822 28.449,34.855 28.444,34.914 C 28.437,35.014 28.456,35.036 28.404,35.127 C 28.34,35.241 28.379,35.308 28.174,35.351 C 27.993,35.387 27.621,35.272 27.621,35.272 S 26.093,34.834 25.117,34.96 C 24.924,34.985 24.82,35.052 24.626,35.049 C 24.449,35.047 24.359,34.916 24.182,34.966 C 24.146,34.976 24.135,35 24.102,35.02 C 23.844,35.19 24.042,35.473 23.361,35.326 C 22.943,35.236 22.437,34.993 22.524,34.841 C 22.642,34.639 22.799,34.606 23.129,34.477 C 23.483,34.341 24.013,34.379 24.117,34.373 C 24.245,34.363 24.428,34.279 24.656,34.274 C 25.05,34.268 25.121,34.312 25.121,34.312 L 25.79,34.369 L 27.071,34.384 S 27.301,34.368 27.391,34.351 C 27.483,34.334 27.556,34.162 27.606,34.081 C 27.656,34 27.604,33.881 27.604,33.881 L 27.566,33.824 L 27.444,33.638 L 27.219,33.278 L 26.969,32.806 S 26.805,32.477 26.719,32.261 C 26.632,32.046 26.581,31.925 26.524,31.702 A 2.804,2.804 0 0,1 26.419,31.104 C 26.409,30.84 26.391,30.635 26.469,30.419 Z"/>
<path d="M 34.777,29.965 C 35.057,29.653 35.082,29.349 35.098,28.92 C 35.11,28.608 34.986,28.128 34.986,28.128 L 34.969,28.093 S 34.922,28.035 34.893,28.111 C 34.897,28.179 34.906,28.233 34.906,28.233 L 34.922,28.852 S 34.902,29.163 34.789,29.485 C 34.6,30.028 34.099,30.269 34.027,30.465 C 33.902,30.789 34.465,30.375 34.787,29.981 Z M 31.96,30.982 S 31.85,31.012 31.848,31.115 C 31.846,31.218 31.875,31.307 31.871,31.432 C 31.869,31.591 31.716,31.773 31.814,31.833 C 31.984,31.935 32.129,31.216 32.078,31.11 C 32.026,31.003 31.976,30.98 31.96,30.982 Z M 30.057,35.969 S 30.026,35.953 29.964,35.975 C 29.904,35.997 29.908,36.057 29.908,36.057 S 29.896,36.121 29.945,36.127 C 29.995,36.136 30.075,36.021 30.075,36.008 C 30.075,35.995 30.057,35.968 30.057,35.968 Z M 28.267,37.174 S 28.249,37.191 28.265,37.203 C 28.282,37.217 28.305,37.2 28.305,37.2 S 28.615,36.971 28.797,36.81 C 28.99,36.638 29.269,36.341 29.269,36.341 S 29.289,36.319 29.267,36.3 C 29.244,36.28 29.192,36.31 29.147,36.33 C 29.11,36.349 29.087,36.369 29.057,36.391 L 28.939,36.504 L 28.701,36.724 L 28.551,36.857 L 28.404,36.989 L 28.344,37.055 L 28.324,37.087 L 28.303,37.113 S 28.28,37.133 28.28,37.14 C 28.28,37.145 28.274,37.15 28.274,37.157 L 28.267,37.174 Z M 27.733,37.506 S 27.7,37.481 27.648,37.506 A 0.41,0.41 0 0,0 27.534,37.608 C 27.529,37.618 27.5,37.653 27.52,37.685 C 27.54,37.717 27.607,37.67 27.617,37.668 C 27.627,37.668 27.713,37.602 27.713,37.602 S 27.763,37.572 27.733,37.506 Z M 26.71,38.487 S 26.666,38.41 26.609,38.443 C 26.551,38.475 26.519,38.485 26.467,38.554 C 26.458,38.566 26.401,38.635 26.391,38.654 C 26.381,38.671 26.324,38.774 26.439,38.781 C 26.637,38.791 26.507,38.671 26.575,38.624 C 26.631,38.588 26.734,38.597 26.735,38.559 C 26.736,38.52 26.71,38.487 26.71,38.487 Z M 23.206,34.567 S 23.087,34.595 23.078,34.634 C 23.068,34.674 23.148,34.712 23.16,34.714 C 23.174,34.717 23.2,34.747 23.28,34.695 C 23.358,34.645 23.354,34.603 23.354,34.603 S 23.401,34.551 23.206,34.567 Z M 25.133,34.508 S 25.131,34.466 25.048,34.472 C 24.963,34.476 24.945,34.491 24.942,34.504 C 24.94,34.515 24.947,34.536 25.022,34.542 C 25.099,34.546 25.13,34.542 25.132,34.508 Z M 26.956,34.558 C 26.802,34.557 26.851,34.561 26.756,34.565 C 26.585,34.574 26.492,34.567 26.323,34.557 C 26.085,34.542 25.719,34.487 25.719,34.487 S 25.673,34.476 25.654,34.505 C 25.637,34.531 25.699,34.593 25.754,34.609 C 26.054,34.697 26.071,34.682 26.275,34.685 C 26.389,34.687 26.453,34.675 26.566,34.669 C 26.71,34.659 26.776,34.68 26.934,34.641 C 26.974,34.631 27.014,34.559 26.955,34.558 Z M 27.982,34.27 S 27.951,34.235 27.888,34.265 C 27.825,34.294 27.787,34.359 27.787,34.359 S 27.757,34.403 27.82,34.397 A 0.417,0.417 0 0,0 27.952,34.355 C 27.968,34.346 28.014,34.305 27.982,34.27 Z M 27.088,22.597 S 27.521,22.212 27.832,21.704 C 28.016,21.401 28.096,20.694 27.938,20.87 C 27.867,20.95 27.78,21.317 27.643,21.588 C 27.448,21.974 27.03,22.521 27.03,22.521 S 26.94,22.703 27.088,22.597 Z M 25.355,23.575 S 25.309,23.609 25.33,23.663 C 25.352,23.718 25.44,23.677 25.44,23.677 S 25.64,23.605 25.85,23.597 C 26.061,23.589 26.353,23.648 26.353,23.648 S 26.493,23.685 26.516,23.693 C 26.539,23.703 26.615,23.737 26.628,23.741 C 26.638,23.746 26.711,23.779 26.752,23.745 C 26.792,23.709 26.498,23.457 26.199,23.419 C 25.699,23.354 25.371,23.558 25.371,23.558 L 25.355,23.575 Z M 23.298,25.24 C 23.334,25.269 23.501,24.968 23.64,24.777 C 23.742,24.637 23.928,24.405 23.928,24.405 S 24.013,24.298 23.87,24.358 A 0.826,0.826 0 0,0 23.542,24.706 C 23.448,24.886 23.262,25.212 23.298,25.24 Z M 22.145,23.932 S 22.109,24.048 22.253,24.194 C 22.397,24.34 22.434,24.461 22.526,24.374 C 22.552,24.35 22.436,24.154 22.378,24.098 C 22.318,24.044 22.276,23.999 22.276,23.999 L 22.238,23.97 L 22.19,23.945 L 22.163,23.935 S 22.155,23.928 22.145,23.932 Z M 21.678,22.815 S 21.522,22.842 21.484,22.915 C 21.444,22.986 21.664,22.943 21.664,22.943 S 21.808,22.95 21.812,22.898 C 21.815,22.845 21.793,22.839 21.678,22.815 Z M 19.198,26.709 C 19.118,26.687 19.104,26.836 19.093,26.884 C 19.083,26.932 19.129,27.028 19.148,27.028 C 19.166,27.027 19.23,26.933 19.233,26.887 C 19.237,26.84 19.268,26.73 19.198,26.709 Z M 21.773,29.61 S 21.631,29.502 21.609,29.545 C 21.587,29.588 21.726,29.775 21.726,29.775 S 21.769,29.838 21.835,29.81 C 21.899,29.78 21.876,29.712 21.876,29.712 S 21.832,29.624 21.773,29.61 Z M 20.697,26.473 S 20.661,26.463 20.647,26.505 C 20.634,26.547 20.636,26.615 20.626,26.696 A 1.41,1.41 0 0,0 20.643,26.93 S 20.657,27.065 20.686,27.146 C 20.716,27.234 20.799,27.359 20.799,27.359 S 20.829,27.424 20.868,27.421 C 20.905,27.417 20.896,27.375 20.896,27.375 S 20.776,26.926 20.773,26.88 C 20.759,26.73 20.759,26.549 20.759,26.549 V 26.522 S 20.757,26.474 20.697,26.472 Z M 20.884,25.103 S 20.818,25.091 20.757,25.211 C 20.697,25.333 20.709,25.381 20.714,25.387 C 20.719,25.392 20.767,25.391 20.845,25.279 C 20.922,25.167 20.905,25.125 20.905,25.125 S 20.9,25.103 20.884,25.103 Z M 22.692,26.344 S 22.771,26.456 22.619,26.43 C 22.467,26.404 22.147,26.165 22.017,26.1 C 21.888,26.036 21.677,26.016 21.765,25.94 C 21.782,25.928 21.786,25.916 21.811,25.915 A 0.491,0.491 0 0,1 21.931,25.95 C 21.935,25.952 22.161,26.04 22.169,26.042 C 22.177,26.045 22.303,26.096 22.393,26.146 C 22.483,26.196 22.629,26.294 22.629,26.294 L 22.692,26.344 Z M 26.905,29.78 C 26.946,29.903 26.425,29.519 26.145,29.315 C 25.406,28.775 24.501,27.67 24.614,27.572 C 24.707,27.492 25.078,27.998 25.622,28.556 C 26.204,29.151 26.881,29.706 26.905,29.78 Z M 29.08,29.25 C 28.919,29.414 28.861,29.623 28.954,29.78 C 29.045,29.932 29.074,29.557 29.174,29.447 C 29.262,29.351 29.316,29.367 29.46,29.269 C 29.705,29.106 29.285,29.043 29.08,29.251 Z M 28.155,25.76 C 28.044,25.743 28.047,25.903 28.063,26.016 C 28.137,26.524 28.377,26.915 28.699,27.283 C 28.894,27.507 29.429,27.907 29.492,27.843 C 29.514,27.82 28.982,27.43 28.642,26.929 C 28.402,26.574 28.274,26.273 28.244,25.98 C 28.24,25.943 28.249,25.774 28.154,25.76 Z M 26.08,18.238 C 25.838,18.362 25.42,18.471 25.42,18.471 S 25.4,18.511 25.454,18.506 C 25.814,18.479 25.95,18.436 26.141,18.356 C 26.332,18.278 26.471,18.061 26.471,18.061 S 26.548,17.926 26.405,18.037 A 2.822,2.822 0 0,1 26.08,18.237 Z M 28.994,17.366 S 28.912,17.349 28.857,17.381 C 28.802,17.415 28.817,17.441 28.817,17.441 S 28.903,17.503 28.964,17.513 C 29.024,17.521 29.154,17.575 29.15,17.533 C 29.145,17.491 29.072,17.415 29.046,17.393 C 29.022,17.372 28.994,17.366 28.994,17.366 Z M 27.622,19.75 C 27.636,19.776 27.88,19.713 27.975,19.663 C 28.048,19.623 28.077,19.492 28.077,19.492 S 28.097,19.364 28.067,19.414 C 27.927,19.63 27.608,19.722 27.622,19.749 Z M 27.614,19.154 C 27.713,18.974 27.343,19.341 27.154,19.436 C 27.039,19.493 26.851,19.57 26.851,19.57 S 26.801,19.628 26.871,19.623 C 26.94,19.618 27.116,19.675 27.258,19.57 C 27.292,19.545 27.44,19.34 27.44,19.34 S 27.567,19.24 27.614,19.154 Z M 27.557,19.92 C 27.565,19.948 27.98,19.939 28.084,19.909 C 28.166,19.888 28.211,19.75 28.211,19.75 S 28.261,19.63 28.218,19.67 C 28.03,19.853 27.55,19.89 27.558,19.92 Z M 20.89,23.52 S 20.827,23.498 20.75,23.61 C 20.672,23.72 20.323,24.223 20.385,24.297 C 20.458,24.384 20.76,23.847 20.852,23.747 C 20.945,23.647 20.907,23.544 20.907,23.544 S 20.907,23.521 20.89,23.52 Z M 28.5,32.584 C 28.462,32.751 28.507,33.093 28.567,33.16 C 28.715,33.329 28.624,32.895 28.646,32.743 A 0.858,0.858 0 0,1 28.756,32.401 C 28.888,32.129 28.577,32.229 28.5,32.584 Z M 27.226,18.057 S 27.111,18.06 27.021,18.107 C 26.93,18.154 26.907,18.221 26.907,18.221 S 26.889,18.268 26.901,18.294 C 26.928,18.351 27.052,18.265 27.139,18.294 C 27.209,18.317 27.243,18.337 27.297,18.398 C 27.344,18.451 27.427,18.528 27.479,18.484 C 27.532,18.442 27.512,18.333 27.512,18.333 S 27.452,18.155 27.371,18.105 C 27.29,18.054 27.226,18.057 27.226,18.057 Z M 25.312,19.307 S 25.248,19.317 25.263,19.391 C 25.278,19.464 25.32,19.452 25.32,19.452 S 25.454,19.398 25.446,19.322 C 25.436,19.246 25.312,19.307 25.312,19.307 Z M 24.379,18.91 S 24.309,18.913 24.259,18.995 C 24.211,19.077 24.182,19.163 24.182,19.163 S 24.159,19.27 24.2,19.305 C 24.24,19.338 24.286,19.235 24.345,19.195 C 24.38,19.17 24.402,19.16 24.439,19.135 C 24.489,19.102 24.57,19.144 24.564,19.048 C 24.557,18.952 24.449,18.906 24.379,18.91 Z M 27.397,17.88 S 27.237,17.859 27.244,17.917 C 27.25,17.971 27.33,17.939 27.382,17.96 C 27.432,17.982 27.466,17.99 27.506,18.026 C 27.536,18.051 27.533,18.1 27.569,18.101 C 27.619,18.102 27.609,18.083 27.609,18.083 S 27.564,17.953 27.504,17.916 C 27.444,17.878 27.397,17.881 27.397,17.881 Z M 29.17,18.488 C 29.148,18.57 29.134,18.598 29.134,18.598 S 29.09,18.764 29.267,18.703 C 29.445,18.641 29.352,18.667 29.48,18.608 C 29.606,18.55 29.604,18.582 29.696,18.587 C 29.728,18.587 29.748,18.589 29.796,18.58 C 29.836,18.572 29.819,18.527 29.729,18.504 C 29.632,18.48 29.514,18.485 29.377,18.484 C 29.297,18.484 29.194,18.406 29.17,18.488 Z M 29.25,17.872 S 29.168,17.854 29.112,17.887 C 29.057,17.92 29.074,17.947 29.074,17.947 S 29.158,18.01 29.22,18.018 C 29.28,18.028 29.41,18.082 29.407,18.038 C 29.4,17.998 29.327,17.92 29.302,17.899 C 29.276,17.879 29.249,17.872 29.249,17.872 Z M 29.561,19.028 S 29.474,19.012 29.415,19.043 C 29.356,19.073 29.372,19.099 29.372,19.099 S 29.464,19.158 29.529,19.167 C 29.595,19.175 29.734,19.225 29.729,19.185 C 29.723,19.145 29.644,19.073 29.619,19.053 C 29.592,19.033 29.561,19.028 29.561,19.028 Z M 29.588,19.447 S 29.495,19.427 29.432,19.464 C 29.369,19.5 29.388,19.528 29.388,19.528 S 29.484,19.598 29.554,19.607 C 29.622,19.617 29.771,19.674 29.764,19.629 C 29.758,19.583 29.675,19.499 29.646,19.477 A 0.141,0.141 0 0,0 29.588,19.447 Z M 29.629,19.856 S 29.529,19.834 29.461,19.874 C 29.393,19.915 29.414,19.948 29.414,19.948 S 29.518,20.024 29.592,20.036 C 29.667,20.047 29.828,20.113 29.822,20.061 C 29.814,20.01 29.724,19.915 29.693,19.89 A 0.153,0.153 0 0,0 29.629,19.856 Z M 29.62,20.361 S 29.52,20.341 29.453,20.381 C 29.385,20.421 29.403,20.453 29.403,20.453 S 29.509,20.53 29.583,20.541 C 29.658,20.553 29.819,20.618 29.812,20.567 C 29.804,20.515 29.715,20.42 29.685,20.395 A 0.179,0.179 0 0,0 29.621,20.361 Z M 29.548,21.346 S 29.447,21.326 29.379,21.366 C 29.312,21.406 29.332,21.438 29.332,21.438 S 29.435,21.516 29.51,21.527 C 29.585,21.537 29.746,21.604 29.739,21.552 C 29.732,21.501 29.642,21.406 29.611,21.38 C 29.581,21.354 29.548,21.346 29.548,21.346 Z M 29.615,20.854 S 29.5,20.829 29.42,20.876 C 29.342,20.921 29.366,20.959 29.366,20.959 S 29.486,21.048 29.572,21.061 C 29.657,21.074 29.843,21.149 29.837,21.091 C 29.827,21.031 29.724,20.921 29.689,20.892 C 29.653,20.862 29.615,20.854 29.615,20.854 Z M 29.498,21.792 S 29.415,21.774 29.358,21.807 C 29.303,21.84 29.321,21.867 29.321,21.867 S 29.406,21.931 29.467,21.939 C 29.529,21.949 29.66,22.003 29.656,21.96 C 29.649,21.918 29.576,21.84 29.55,21.82 C 29.525,21.798 29.498,21.792 29.498,21.792 Z M 29.42,22.219 S 29.352,22.205 29.305,22.232 C 29.26,22.259 29.273,22.282 29.273,22.282 S 29.344,22.334 29.395,22.342 C 29.445,22.349 29.557,22.395 29.552,22.359 C 29.548,22.324 29.485,22.259 29.464,22.242 A 0.12,0.12 0 0,0 29.42,22.219 Z M 29.324,22.608 S 29.263,22.595 29.22,22.62 C 29.18,22.644 29.19,22.665 29.19,22.665 S 29.255,22.712 29.301,22.718 C 29.347,22.726 29.446,22.766 29.441,22.735 C 29.438,22.703 29.383,22.644 29.364,22.628 C 29.344,22.613 29.324,22.608 29.324,22.608 Z M 29.227,22.927 S 29.164,22.914 29.124,22.938 C 29.081,22.963 29.094,22.983 29.094,22.983 S 29.158,23.031 29.204,23.037 C 29.25,23.044 29.349,23.085 29.344,23.053 C 29.341,23.021 29.286,22.963 29.265,22.948 C 29.247,22.932 29.227,22.928 29.227,22.928 Z M 29.108,23.298 S 29.058,23.287 29.024,23.306 C 28.99,23.327 29.001,23.342 29.001,23.342 S 29.053,23.381 29.09,23.387 C 29.127,23.392 29.208,23.425 29.203,23.399 C 29.2,23.374 29.155,23.327 29.14,23.314 C 29.125,23.301 29.108,23.298 29.108,23.298 Z M 28.967,23.644 S 28.925,23.634 28.895,23.652 C 28.866,23.669 28.875,23.683 28.875,23.683 S 28.92,23.716 28.952,23.72 C 28.983,23.726 29.052,23.754 29.049,23.731 C 29.047,23.709 29.008,23.669 28.995,23.658 A 0.082,0.082 0 0,0 28.967,23.644 Z M 28.823,23.973 S 28.779,23.964 28.75,23.982 C 28.722,23.998 28.732,24.012 28.732,24.012 S 28.775,24.045 28.807,24.05 C 28.84,24.055 28.908,24.083 28.905,24.062 C 28.903,24.038 28.863,23.998 28.851,23.987 A 0.075,0.075 0 0,0 28.823,23.973 Z M 19.42,25.649 S 19.348,25.782 19.383,25.855 C 19.419,25.929 19.517,25.739 19.517,25.739 S 19.617,25.549 19.577,25.514 C 19.535,25.479 19.511,25.577 19.42,25.649 Z" fill="rgb(254, 254, 253)"/>
<path d="M 29.633999999999997,42.985 V 42.695 C 29.644,42.108 29.958,41.993 30.874,41.989 C 31.716,41.993 32,42.093 32,42.599 V 44.554 H 32.324 V 45 H 30.266 C 29.833,45 29.55,44.712 29.55,44.365 V 43.969 C 29.55,43.628 29.734,43.33 30.379,43.327 H 31.183 V 42.732 C 31.183,42.422 31.161,42.384 30.832,42.384 H 30.828 C 30.434,42.384 30.408,42.434 30.408,42.732 V 43 H 29.644 Z M 30.599,43.655 C 30.437,43.655 30.342,43.778 30.342,43.931 V 44.309 C 30.342,44.461 30.41,44.582 30.599,44.585 H 30.889 C 31.049,44.585 31.179,44.538 31.179,44.309 L 31.181,43.655 H 30.599 Z M 36.837,44.55 V 42.042 H 35.665 V 42.448 H 35.994 V 44.55 H 35.666 V 44.994 H 37.145 V 44.55 H 36.837 Z M 24.849,42.69 V 42 H 23.7 V 42.413 H 24 V 44.558 H 23.7 V 44.999 H 25.136 V 44.558 H 24.848 V 43.39 C 24.848,43.284 25.408,42.475 25.408,42.568 V 43.688 H 26.204 V 42.428 C 26.204,42.14 26.006,41.953 25.642,41.953 C 25.212,41.953 25.035,42.467 24.848,42.689 Z M 27.852,42.69 V 42 H 26.704 V 42.413 H 27.004 V 44.558 H 26.704 V 44.999 H 28.141 V 44.558 H 27.853 V 43.39 C 27.853,43.284 28.413,42.475 28.413,42.568 V 43.688 H 29.208 V 42.428 C 29.208,42.14 29.01,41.953 28.648,41.953 C 28.217,41.953 28.04,42.467 27.852,42.689 Z"/>
<path d="M 23.009999999999998,43.985 H 22.215 V 44.248 C 22.215,44.548 22.162,44.561 21.769,44.565 H 21.764 C 21.314,44.568 21.339,44.525 21.344,44.248 V 43.724 H 23.02 V 42.584 C 23.02,42.171 22.691,41.998 21.823,41.994 H 21.698 C 20.761,41.999 20.511,42.201 20.511,42.712 V 44.38 C 20.511,44.942 20.861,45.037 21.715,45.06 H 21.809 C 22.74,45.039 23.02,44.978 23.02,44.454 V 44 Z M 21.353,42.627 C 21.353,42.471 21.403,42.395 21.59,42.393 H 21.944 C 22.09,42.393 22.171,42.455 22.171,42.565 V 43.42 H 21.353 V 42.627 Z M 36.841,40.461 V 41.081 H 35.983 V 40.461 H 36.841 Z"/>
<path d="M 33.84,42.71 V 42 H 32.7 V 42.448 H 33 V 44.553 H 32.7 V 45 H 34.138 V 44.553 H 33.849 V 43.425 C 33.849,43.32 34.525,42.51 34.525,42.603 V 43.723 H 35.321 V 42.463 C 35.321,42.175 35.121,41.989 34.757,41.989 C 34.327,41.989 34.036,42.502 33.849,42.725 Z M 19.484,43.758 V 43.326 H 19 V 44.651 H 19.68 V 45.098 H 17.407 V 44.651 H 18.012 V 40.997 H 17.536 V 40.461 H 35.25 V 40.998 H 19 V 42.848 H 19.484 V 42.322 H 19.999 V 43.758 H 19.484 Z"/>
</svg>
