<?xml version="1.0" encoding="UTF-8"?>
<!-- generated by Finnhub -->
<svg viewBox="0 0 55.5 55.5" xmlns="http://www.w3.org/2000/svg">
<path d="M 0,0 H 55.5 V 55.5 H 0 Z" fill="rgb(22, 50, 118)"/>
<path d="M 28.04,12.985 C 29.547,14.495 31.219,16.076 32.679,17.619 L 30.98,19.862 V 19.985 L 35.47,22.048 L 38.51,19.9 L 36.674,17.808 V 17.648 C 38.556,16.275 40.172,14.95 42,13.682 L 41,23 H 15 L 14,13.681 C 15.828,14.95 17.444,16.275 19.326,17.647 V 17.808 L 17.49,19.9 L 20.539,22.048 L 25.02,19.985 V 19.862 L 23.321,17.619 C 24.781,16.076 26.453,14.495 27.949,13 H 28.05 Z M 41,25 L 40.65,28 H 31 V 39 H 35.673 C 36.729,38.99 37.831,37.59 37.62,36.832 C 37.353,35.734 36.407,35.005 35.526,34.466 C 35.7,34.466 38.942,32.005 40.466,30.945 C 40.393,31.626 39.3,40.466 39.291,40.618 L 28.087,45 H 27.913 L 16.709,40.618 C 16.699,40.466 15.607,31.626 15.543,30.945 C 17.058,32.005 20.3,34.465 20.474,34.465 C 19.593,35.005 18.647,35.735 18.39,36.832 C 18.17,37.589 19.271,38.99 20.327,39 H 25 V 28 H 15.36 L 15,25 H 41 Z" fill="rgb(254, 254, 253)"/>
</svg>
