<?xml version="1.0" encoding="UTF-8"?>
<!-- generated by Finnhub -->
<svg viewBox="0 0 55.5 55.5" xmlns="http://www.w3.org/2000/svg">
<path d="M 0,0 H 55.5 V 55.5 H 0 Z" fill="rgb(239, 242, 248)"/>
<path d="M 27.99,11.985 A 16,16 0 0,0 16.69,39.31 L 13.64,42.36 A 0.96,0.96 0 0,0 14.32,44 H 28 A 16,16 0 1,0 28,12 Z" fill="rgb(254, 68, 2)"/>
<path d="M 36.49,30.985 A 3.5,3.5 0 1,0 36.5,24 A 3.5,3.5 0 0,0 36.5,31 Z M 18.5,31 A 3.5,3.5 0 1,0 18.5,24 A 3.5,3.5 0 0,0 18.5,31 Z" fill="rgb(254, 234, 237)"/>
<path d="M 27.99,38.985 C 34.08,39 39,35.42 39,31 S 34.08,23 28,23 S 17,26.58 17,31 S 21.92,39 28,39 Z" fill="url(#b)"/>
<path d="M 24.849999999999998,30.285 C 24.79,31.64 23.89,32.13 22.85,32.13 C 21.8,32.13 21,31.4 21.06,30.05 C 21.13,28.71 22.02,27.83 23.07,27.83 S 24.92,28.95 24.86,30.29 Z M 31.16,30.3 C 31.23,31.64 32.12,32.13 33.17,32.13 S 35.02,31.4 34.96,30.05 C 34.89,28.71 33.99,27.83 32.95,27.83 C 31.9,27.83 31.1,28.95 31.16,30.29 Z" fill="rgb(254, 68, 2)"/>
<path d="M 23.79,29.685 C 24.03,29.7 24.21,29.49 24.21,29.24 S 24.03,28.79 23.8,28.79 C 23.57,28.79 23.38,28.99 23.38,29.24 S 23.57,29.69 23.8,29.69 Z M 33.66,29.7 C 33.89,29.7 34.08,29.49 34.08,29.24 S 33.89,28.79 33.66,28.79 C 33.43,28.79 33.25,28.99 33.25,29.24 S 33.43,29.69 33.66,29.69 Z" fill="rgb(254, 195, 154)"/>
<path d="M 27.99,32.985 C 26.69,33 25.43,33.06 24.27,33.17 C 24.07,33.19 23.95,33.37 24.02,33.55 A 4.33,4.33 0 0,0 28,36 A 4.33,4.33 0 0,0 31.98,33.55 C 32.05,33.38 31.93,33.19 31.73,33.17 C 30.57,33.06 29.31,33 28,33 Z" fill="rgb(11, 23, 26)"/>
<path d="M 33.49,21.985 A 2.5,2.5 0 1,0 33.5,17 A 2.5,2.5 0 0,0 33.5,22 Z" fill="url(#a)"/>
<path d="M 27.959999999999997,23.625 C 27.65,23.64 27.4,23.51 27.4,23.3 A 4.3,4.3 0 0,1 31.7,19 A 0.57,0.57 0 1,1 31.7,20.15 A 3.16,3.16 0 0,0 28.55,23.3 C 28.55,23.5 28.29,23.64 27.97,23.64 Z" fill="rgb(11, 23, 26)"/>
<path d="M 21.29,30.155 C 21.36,28.9 22.2,28.07 23.19,28.07 C 24.11,28.07 24.83,29.02 24.86,30.2 C 24.88,28.88 24.1,27.83 23.07,27.83 C 22.05,27.83 21.13,28.73 21.07,30.08 C 21,31.43 21.8,32.13 22.85,32.13 H 22.92 C 21.97,32.1 21.25,31.42 21.31,30.17 Z M 34.71,30.17 C 34.65,28.9 33.81,28.07 32.83,28.07 C 31.9,28.07 31.19,29.02 31.16,30.2 C 31.13,28.88 31.92,27.83 32.95,27.83 C 33.99,27.83 34.89,28.73 34.95,30.08 C 35.02,31.43 34.22,32.13 33.17,32.13 H 33.09 C 34.05,32.1 34.77,31.42 34.71,30.17 Z" fill="rgb(131, 32, 33)"/>
<defs>
<linearGradient id="b" x1="24.78" x2="24.78" y1="23.94" y2="41.49" gradientUnits="userSpaceOnUse">
<stop stop-color="rgb(253, 254, 253)" offset=".4"/>
<stop stop-color="rgb(248, 251, 250)" offset=".51"/>
<stop stop-color="rgb(236, 242, 243)" offset=".62"/>
<stop stop-color="rgb(221, 232, 234)" offset=".7"/>
<stop stop-color="rgb(215, 227, 230)" offset=".72"/>
<stop stop-color="rgb(203, 215, 221)" offset=".76"/>
<stop stop-color="rgb(199, 212, 219)" offset=".8"/>
<stop stop-color="rgb(203, 213, 220)" offset=".83"/>
<stop stop-color="rgb(236, 226, 231)" offset=".88"/>
</linearGradient>
<linearGradient id="a" x1="29.04" x2="29.04" y1="17" y2="23.68" gradientUnits="userSpaceOnUse">
<stop stop-color="rgb(253, 254, 253)" offset=".4"/>
<stop stop-color="rgb(248, 251, 250)" offset=".51"/>
<stop stop-color="rgb(236, 242, 243)" offset=".62"/>
<stop stop-color="rgb(221, 232, 234)" offset=".7"/>
<stop stop-color="rgb(203, 213, 220)" offset=".83"/>
</linearGradient>
</defs>
</svg>
