<?xml version="1.0" encoding="UTF-8"?>
<!-- generated by Finnhub -->
<svg viewBox="0 0 55.5 55.5" xmlns="http://www.w3.org/2000/svg">
<path d="M 0,0 H 55.5 V 55.5 H 0 Z" fill="rgb(239, 242, 248)"/>
<path d="M 33.620000000000005,29.735 C 33.09,31.71 32.75,33.06 31.35,33 C 31.35,33 34.35,21.73 34.86,20 H 30.96 L 27.46,33 H 25.99 L 27.99,25 H 24.58 C 24.05,25 23.96,25.52 23.82,26.03 L 21,36 C 23.65,35.98 26.57,36.02 29.29,36 C 32.71,35.98 35.61,36.59 36.82,32.24 L 39.39,22.98 A 14.62,14.62 0 0,1 20.15,41.9 A 15.98,15.98 0 0,0 44,28 C 44,22.81 41.46,18.14 37.64,15.22 L 33.63,29.74 Z" fill="rgb(220, 28, 35)"/>
<path d="M 22.36,26.314999999999998 C 22.91,24.37 22.95,24 24.41,24 H 28.31 L 29.63,20 H 26.7 C 23.29,20 20.35,19.53 19.14,23.88 L 16.62,33.06 A 14.62,14.62 0 0,1 35.86,14.09 A 15.98,15.98 0 0,0 12,28 C 11.99,33.1 14.34,37.72 18.37,40.8 L 22.37,26.34 Z" fill="rgb(15, 14, 11)"/>
</svg>
