<?xml version="1.0" encoding="UTF-8"?>
<!-- generated by Finnhub -->
<svg viewBox="0 0 55.5 55.5" xmlns="http://www.w3.org/2000/svg">
<path d="M 0,0 H 55.5 V 55.5 H 0 Z" fill="rgb(1, 91, 156)"/>
<path d="M 18.99,13.99 H 32.554 C 37.644,13.89 41,15.947 41,21.317 C 41,25.087 38.339,28.287 34.52,28.858 V 28.973 C 36.835,29.658 37.413,31.715 37.413,33.886 C 37.413,35.143 37.182,36.971 37.182,38.799 C 37.182,40.056 37.298,41.199 37.529,41.999 H 31.397 C 31.281,41.313 31.165,40.742 31.165,40.171 C 31.165,38.343 31.513,36.4 31.513,34.458 C 31.513,31.716 29.93,31 27.5,31 H 21.6 L 19,42 H 13 L 19,14.005 Z M 22.5,27 H 28.285 C 31.525,27 34.868,25.431 34.868,22.232 C 34.868,19.26 32.83,19 30.4,19 H 24.5 L 22.5,27 Z" fill="rgb(254, 254, 253)"/>
</svg>
