<?xml version="1.0" encoding="UTF-8"?>
<!-- generated by Finnhub -->
<svg viewBox="0 0 55.5 55.5" xmlns="http://www.w3.org/2000/svg">
<path d="M 0,0 H 55.5 V 55.5 H 0 Z" fill="rgb(33, 45, 97)"/>
<path d="M 41.39,14.055 A 0.95,0.95 0 0,1 42,14.96 V 36.84 A 0.96,0.96 0 0,1 41.6,37.61 L 29.06,46.66 A 1.82,1.82 0 0,1 26.94,46.66 L 14.4,37.6 A 0.96,0.96 0 0,1 14,36.82 V 14.96 A 0.95,0.95 0 0,1 14.6,14.07 A 0.97,0.97 0 0,1 14.97,14 H 41.03 C 41.16,14 41.29,14.03 41.4,14.07 Z M 17.6,16 H 38.6 L 33.92,19.29 A 0.53,0.53 0 0,1 33.65,19.4 A 0.59,0.59 0 0,1 33.32,19.28 A 5.9,5.9 0 0,0 29.97,18 C 27.49,18 25.68,19.35 24.05,20.56 L 24,20.6 L 17.6,16 Z M 16,36.3 V 17.2 L 22.46,21.93 L 19.58,23.96 C 18.71,24.61 18,25.67 18,26.77 C 18,28.56 19.22,30 21.39,30 C 22.38,30 23.47,29.2 24.53,28.43 A 52.17,52.17 0 0,0 27.45,26.27 C 27.62,26.13 27.92,26 28.12,26 C 28.35,26 28.65,26.13 28.84,26.27 C 32.66,28.99 35.64,31.17 39.45,33.98 C 39.75,34.2 40,34.62 40,35.11 C 40,35.81 39.4,36.35 38.77,36.39 A 1.6,1.6 0 0,1 37.84,36.12 L 32.5,32.2 C 32.3,32.07 32.1,32.01 31.88,32.01 A 0.9,0.9 0 0,0 31.31,32.21 A 0.89,0.89 0 0,0 31.11,32.49 A 0.8,0.8 0 0,0 31.01,32.82 A 0.95,0.95 0 0,0 31.44,33.63 H 31.45 L 36.48,37.46 C 36.62,37.56 36.74,37.68 36.83,37.82 C 36.95,38.02 37.01,38.26 37.01,38.49 A 1.2,1.2 0 0,1 36.51,39.43 L 36.4,39.51 A 1.22,1.22 0 0,1 34.96,39.51 L 28.93,34.89 A 1,1 0 0,0 28.35,34.73 A 0.9,0.9 0 0,0 27.78,34.93 A 0.9,0.9 0 0,0 27.48,35.54 C 27.48,35.84 27.62,36.14 27.85,36.31 L 32.92,40.12 A 1.26,1.26 0 0,1 33.45,40.96 A 1.2,1.2 0 0,1 32.97,42.12 L 32.85,42.21 A 1.22,1.22 0 0,1 31.41,42.21 L 30.31,41.41 L 25.47,37.67 A 0.96,0.96 0 0,0 24.32,37.71 A 0.86,0.86 0 0,0 24.01,38.32 A 0.96,0.96 0 0,0 24.39,39.09 L 29.22,42.73 C 29.68,43.05 29.89,43.68 29.66,44.21 A 1.36,1.36 0 0,1 27.86,44.88 L 16,36.3 Z M 40,17.37 V 32.03 A 222.13,222.13 0 0,0 29.17,24.35 C 28.85,24.14 28.49,24 28.12,24 C 27.78,24 27.42,24.12 27.12,24.32 A 58.83,58.83 0 0,0 23.72,26.74 L 22.91,27.34 A 2.9,2.9 0 0,1 21.29,28 C 20.53,28 20,27.47 20,26.75 S 20.3,25.77 20.78,25.44 L 24.5,22.69 L 24.93,22.34 C 26.2,21.32 27.84,20 29.72,20 C 31.16,20 32.3,20.86 33.16,21.7 L 33.19,21.74 C 33.32,21.87 33.45,22 33.69,22 C 33.88,22 34.02,21.9 34.17,21.8 L 34.3,21.7 L 40,17.37 Z" fill="rgb(254, 254, 253)" fill-rule="evenodd"/>
</svg>
