<?xml version="1.0" encoding="UTF-8"?>
<!-- generated by Finnhub -->
<svg viewBox="0 0 55.5 55.5" xmlns="http://www.w3.org/2000/svg">
<path d="M 0,0 H 55.5 V 55.5 H 0 Z" fill="rgb(228, 192, 216)"/>
<path d="M 39.99,11.985 H 16 V 44 H 40 V 12 Z M 17,20 V 13 H 38.3 L 31.27,20 H 17 Z M 31.83,20.85 L 39,13.7 V 35 H 17.7 L 31.83,20.85 Z M 28.5,36 H 39 V 43 H 28.5 V 36 Z M 27.5,36 V 43 H 17 V 36 H 27.5 Z M 17,21 V 34.3 L 30.27,21 H 17 Z M 24,15 V 16.26 H 25.38 C 25.96,16.26 26.14,15.83 26.14,15.6 C 26.14,15.37 25.95,15 25.41,15 H 24 Z M 25.42,14 C 26.49,14 27.13,14.7 27.13,15.6 C 27.13,16.29 26.67,17.02 25.98,17.2 L 27.28,19 H 26.04 L 24.82,17.24 H 24 V 19 H 23 V 14 H 25.42 Z M 33,31 V 27 H 31 V 26 H 36 V 27 H 34 V 31 H 33 Z M 21,39.27 V 38.01 H 22.41 C 22.95,38.01 23.14,38.38 23.14,38.61 C 23.14,38.84 22.96,39.27 22.38,39.27 H 21 Z M 24.13,38.61 C 24.13,37.71 23.49,37.01 22.43,37.01 H 20 V 42.01 H 21 V 40.26 H 21.82 L 23.04,42 H 24.28 L 22.98,40.2 C 23.68,40.03 24.13,39.3 24.13,38.6 Z" fill="rgb(254, 254, 253)" fill-rule="evenodd"/>
</svg>
