<?xml version="1.0" encoding="UTF-8"?>
<!-- generated by Finnhub -->
<svg viewBox="0 0 55.5 55.5" xmlns="http://www.w3.org/2000/svg">
<path d="M 0,0 H 55.5 V 55.5 H 0 Z" fill="rgb(239, 242, 248)"/>
<path d="M 12.99,22.985 V 20 H 16 V 21.82 C 16,22.47 15.48,23 14.84,23 H 13 Z M 5,28.06 V 33 H 6.73 C 7.32,33 8,32.5 8,31.9 V 28.02 C 8,27.26 8.37,27.07 8.66,27 H 10.93 C 11.53,27 12,26.35 12,25.74 V 24 H 8.86 C 8.27,24 8,24.5 8,25.1 V 25.85 C 8,26.45 7.32,27 6.73,27 H 6.07 C 5.47,27 5,27.45 5,28.06 Z M 13,33 V 24 H 16 V 31.9 C 16,32.5 15.48,33 14.84,33 H 13 Z M 47,24 V 33 H 48.84 C 49.48,33 50,32.5 50,31.9 V 24 H 47 Z M 47,20 V 23 H 48.84 C 49.48,23 50,22.47 50,21.82 V 20 H 47 Z M 22,33 H 18.81 C 17.81,33 17,32.17 17,31.2 V 25.76 C 17,24.79 17.81,24 18.81,24 H 25 V 33.89 C 25,35.05 24.03,36 22.82,36 H 17 V 35.24 C 17,34.78 17.38,34.5 17.85,34.5 H 21.29 C 21.75,34.5 22,34.05 22,33.6 V 33 Z M 22,31 V 26 H 20.77 C 20.34,26 20,26.38 20,26.86 V 30.14 C 20,30.62 20.34,31 20.77,31 H 22 Z M 33.45,32 V 33 H 28.08 A 2.03,2.03 0 0,1 26,31.03 V 25.97 C 26,24.88 26.93,24 28.08,24 H 31.92 C 33.07,24 34,24.88 34,25.97 V 30 H 28.82 V 30.27 C 28.82,30.89 29.35,31.5 29.99,31.5 H 32.79 C 33.16,31.5 33.45,31.66 33.45,32 Z M 31,26 V 29 H 29 V 27.2 C 29,26.54 29.39,26 29.86,26 H 31 Z M 38,26 V 30.47 C 38,31.04 38.4,31.5 38.97,31.5 H 39.49 A 0.5,0.5 0 0,1 40,32 V 33 H 37.05 A 2.05,2.05 0 0,1 35,30.96 V 22.02 C 35,21.46 35.46,21 36.03,21 H 38 V 24 H 38.97 C 39.29,24 39.55,24.3 39.55,24.69 V 26 H 38 Z M 44,30.47 V 26 H 45.5 V 24.69 C 45.5,24.31 45.24,24 44.92,24 H 44 V 21 H 42.03 C 41.46,21 41,21.46 41,22.02 V 30.96 C 41,32.09 41.92,33 43.05,33 H 46 V 32 A 0.51,0.51 0 0,0 45.49,31.5 H 44.97 C 44.41,31.5 44,31.04 44,30.47 Z" fill="rgb(1, 180, 171)" fill-rule="evenodd"/>
</svg>
