<?xml version="1.0" encoding="UTF-8"?>
<!-- generated by Finnhub -->
<svg viewBox="0 0 55.5 55.5" xmlns="http://www.w3.org/2000/svg">
<path d="M 0,0 H 55.5 V 55.5 H 0 Z" fill="rgb(239, 190, 63)"/>
<path d="M 7.99,21.021 C 8,18.855 16.964,17 28,17 C 39.072,17 48,18.855 48,21.036 C 48,23.182 39.072,25 28,25 C 16.964,25 8,23.182 8,21.036 Z M 29,23.998 C 35.143,23.598 40,22.455 39.929,20.31 C 39.822,18.164 34.831,17.6 28.689,18 C 22.545,18.436 17.571,19.618 17.679,21.764 C 17.75,23.909 22.857,24.434 29,23.998 Z" fill="rgb(75, 77, 81)"/>
<path d="M 30.99,40.243 V 18 L 25,25.742 V 48.001 L 31,40.258 Z" fill="rgb(75, 77, 81)"/>
</svg>
