<?xml version="1.0" encoding="UTF-8"?>
<!-- generated by Finnhub -->
<svg viewBox="0 0 55.5 55.5" xmlns="http://www.w3.org/2000/svg">
<path d="M 0,0 H 55.5 V 55.5 H 0 Z" fill="rgb(11, 95, 152)"/>
<path d="M 27.99,42.985 C 36.284,43 43,36.284 43,28 S 36.284,13 28,13 S 13,19.716 13,28 S 19.716,43 28,43 Z M 28,45 C 37.389,45 45,37.389 45,28 S 37.389,11 28,11 S 11,18.611 11,28 C 11,37.389 18.611,45 28,45 Z" fill="rgb(254, 254, 253)" fill-rule="evenodd"/>
<path d="M 20.802,19.985 L 18,24 H 24 V 20 H 20.812 Z M 25,20 H 27 V 24 H 25 Z M 31.894,20 H 28 V 24 H 31.629 C 32.266,24 34.012,24.332 34,26 C 33.988,27.668 32.372,28 31.629,28 H 29.797 V 32 C 31.629,31.82 38,32 38,25.695 C 38,21.003 33.726,19.995 31.894,20 Z M 18,28 H 22 V 36.005 H 18 Z" fill="rgb(254, 254, 253)"/>
<path d="M 21.99,27.985 H 30 V 32 H 22 Z" fill="rgb(126, 186, 220)"/>
<path d="M 33.093,35.985 L 29.994,31.977 C 32.538,31.861 34.238,31.333 34.724,31.07 L 39,36 H 33.103 Z" fill="rgb(126, 186, 220)"/>
</svg>
