<?xml version="1.0" encoding="UTF-8"?>
<!-- generated by Finnhub -->
<svg viewBox="0 0 55.5 55.5" xmlns="http://www.w3.org/2000/svg">
<path d="M 0,0 H 55.5 V 55.5 H 0 Z" fill="url(#a)"/>
<path d="M 30.65,11.945 C 32.6,13.55 43,24.5 44.93,26.52 C 45.09,26.71 44.95,27 44.71,27 H 40.18 C 39.71,27 39.58,26.92 39.28,26.59 L 37.5,24.64 A 145.98,145.98 0 0,0 29.35,16.56 A 2.28,2.28 0 0,0 28,16 C 27.95,16 27.28,16.02 26.65,16.56 A 144.74,144.74 0 0,0 18.5,24.64 L 16.73,26.59 C 16.43,26.92 16.29,27 15.82,27 H 11.29 C 11.05,27 10.91,26.7 11.07,26.52 C 12.99,24.5 23.39,13.55 25.35,11.97 A 4.1,4.1 0 0,1 30.65,11.97 Z M 25.34,44.03 C 23.4,42.45 13,31.5 11.07,29.48 C 10.91,29.29 11.05,29 11.28,29 H 15.81 C 16.29,29 16.43,29.08 16.72,29.41 L 18.5,31.36 C 20.38,33.42 24.97,37.99 26.64,39.44 C 27.27,39.98 27.94,40 28,40 C 28.06,40 28.72,39.98 29.35,39.44 C 31.03,38 35.61,33.43 37.49,31.36 L 39.27,29.41 C 39.57,29.08 39.71,29 40.18,29 H 44.71 C 44.95,29 45.09,29.3 44.93,29.48 C 43.01,31.5 32.6,42.45 30.65,44.03 A 4.1,4.1 0 0,1 25.35,44.03 Z M 26.57,31.61 C 25.73,30.81 24.25,29.33 23.7,28.66 C 23.45,28.36 23.47,28 23.47,28 S 23.45,27.63 23.7,27.33 C 24.25,26.67 25.73,25.18 26.57,24.38 C 26.91,24.05 27,23.84 27,23.43 V 18.91 C 27,18.73 26.8,18.61 26.63,18.77 C 24.76,20.57 20.59,24.85 19.19,26.51 C 18.52,27.25 18.59,28 18.59,28 S 18.52,28.75 19.19,29.48 C 20.59,31.14 24.76,35.43 26.63,37.23 C 26.8,37.38 27,37.29 27,37.07 V 32.57 C 27,32.15 26.91,31.94 26.57,31.61 Z M 32.3,28.66 C 31.75,29.33 30.27,30.82 29.43,31.61 C 29.09,31.95 29.01,32.15 29,32.56 V 37.07 C 29,37.29 29.2,37.38 29.37,37.23 C 31.24,35.43 35.41,31.15 36.81,29.48 C 37.48,28.75 37.41,28 37.41,28 S 37.48,27.25 36.81,26.52 C 35.41,24.85 31.24,20.57 29.37,18.77 C 29.2,18.62 29,18.71 29,18.93 V 23.43 C 29,23.85 29.09,24.05 29.43,24.39 C 30.27,25.19 31.75,26.67 32.3,27.34 C 32.55,27.64 32.53,28 32.53,28 S 32.55,28.37 32.3,28.66 Z" fill="rgb(254, 175, 17)"/>
<defs>
<linearGradient id="a" x1="10.42" x2="68.15" y1="9.71" y2="76.02" gradientUnits="userSpaceOnUse">
<stop stop-color="rgb(25, 29, 31)" offset="0"/>
<stop stop-color="rgb(5, 5, 8)" offset="1"/>
</linearGradient>
</defs>
</svg>
