<?xml version="1.0" encoding="UTF-8"?>
<!-- generated by Finnhub -->
<svg viewBox="0 0 55.5 55.5" xmlns="http://www.w3.org/2000/svg">
<path d="M 0,0 H 55.5 V 55.5 H 0 Z" fill="rgb(6, 53, 88)"/>
<path d="M 7.803,23.485 C 8.765,23.5 9.249,23.047 9.249,22.028 C 9.249,21.086 8.877,20.588 7.939,20.588 C 7.835,20.588 7.498,20.577 7.469,20.697 C 7.439,20.817 7.436,21.508 7.436,21.662 V 23.5 H 7.813 Z M 14.863,24.328 L 13.993,21.95 L 13.065,24.328 H 14.862 Z M 22.941,20.526 C 22.564,20.582 22.416,20.865 22.229,21.217 L 20.552,24.165 V 25.273 C 20.552,26.16 20.532,26.61 21.515,26.576 V 26.996 H 14.637 V 26.582 C 14.932,26.537 15.456,26.56 15.456,26.121 C 15.456,25.956 15.33,25.595 15.266,25.441 L 15.057,24.848 H 12.873 L 12.753,25.15 C 12.659,25.413 12.511,25.743 12.511,26.014 C 12.511,26.518 12.961,26.551 13.33,26.584 V 26.997 H 10.027 L 8.623,24.876 C 8.3,24.406 7.869,23.88 7.597,23.9 C 7.543,23.9 7.492,23.91 7.439,23.91 V 25.27 C 7.439,26.115 7.429,26.607 8.383,26.574 V 26.996 H 5 V 26.568 C 5.944,26.602 5.933,26.118 5.933,25.265 V 21.785 C 5.933,20.94 5.955,20.448 5,20.482 V 20.003 C 5.567,20.014 6.12,19.992 6.677,20.003 C 7.211,19.992 7.736,20.014 8.278,20.003 C 8.749,20.026 9.474,20.166 9.912,20.361 C 10.552,20.635 10.886,21.184 10.886,21.905 C 10.886,22.825 10.142,23.407 9.335,23.539 L 10.68,25.299 C 10.875,25.603 11.089,25.897 11.319,26.174 C 11.402,26.26 11.539,26.381 11.707,26.174 C 11.99,25.824 12.156,25.309 12.314,24.924 L 14.276,20.004 H 14.747 L 16.779,25.318 C 16.884,25.592 17.084,26.107 17.282,26.314 C 17.475,26.454 17.699,26.537 17.932,26.554 H 18.13 C 19.063,26.554 18.99,26.126 19,25.251 V 24.353 L 17.336,21.178 C 17.074,20.716 17.02,20.596 16.509,20.476 V 20.003 C 17.001,20.014 17.504,19.992 17.996,20.003 C 18.563,19.992 19.116,20.014 19.684,20.003 V 20.476 C 19.421,20.498 18.94,20.532 18.94,20.926 C 18.94,21.133 19.191,21.595 19.296,21.782 L 20.28,23.656 L 21.232,21.989 C 21.357,21.737 21.609,21.265 21.609,20.993 C 21.609,20.543 21.232,20.479 20.887,20.479 V 20.003 H 25.139 L 27.077,24.932 L 28.858,20.003 C 29.235,20.014 29.612,19.992 29.978,20.003 C 30.378,19.992 30.765,20.014 31.225,20.003 V 20.476 C 30.273,20.442 30.302,20.946 30.292,21.802 V 25.047 C 30.278,25.379 30.305,25.715 30.364,26.042 C 30.468,26.482 30.834,26.512 31.212,26.579 V 26.997 H 27.869 V 26.579 C 28.246,26.512 28.623,26.47 28.717,26.042 C 28.773,25.712 28.797,25.379 28.789,25.047 V 21.785 H 28.773 L 26.805,26.997 H 26.334 L 24.274,21.709 H 24.254 V 24.876 C 24.254,25.206 24.254,25.872 24.401,26.156 C 24.558,26.465 24.893,26.54 25.197,26.574 V 26.996 H 22.842 V 26.568 C 23.219,26.501 23.596,26.459 23.689,26.031 C 23.745,25.701 23.769,25.368 23.761,25.035 V 20.94 A 0.828,0.828 0 0,0 22.943,20.523 L 22.94,20.526 Z M 31.361,23.544 C 31.361,21.332 33.049,20.004 35.038,20.004 C 37.028,20.004 38.704,21.351 38.704,23.544 S 37.006,26.997 35.006,26.997 C 33.006,26.994 31.361,25.717 31.361,23.544 Z M 33.07,23.477 C 33.07,24.803 33.415,26.59 35.009,26.59 C 36.632,26.59 36.999,25.035 36.999,23.609 C 36.999,22.227 36.653,20.495 35.009,20.495 C 33.426,20.487 33.07,22.151 33.07,23.477 Z M 45.861,20.493 C 44.971,20.503 45,20.853 45,22.126 V 26.996 H 44.614 L 40,21.752 V 24.942 C 40,25.73 40.048,26.53 41,26.575 V 26.997 H 38.755 V 26.569 C 39.573,26.482 39.635,26.066 39.635,25.33 V 21.193 C 39.319,20.731 39.194,20.547 38.651,20.491 V 20.004 C 38.966,20.015 39.279,19.993 39.595,20.004 C 39.972,19.993 40.338,20.015 40.715,20.004 L 44.611,24.824 V 22.07 C 44.611,21.282 44.611,20.526 43.667,20.493 V 20.003 H 49.262 C 50.224,20.003 51.126,20.319 51.88,20.985 C 52.666,21.698 53,22.641 53,23.704 C 53,24.658 52.717,25.511 52.037,26.168 C 51.337,26.825 50.382,27.03 49.459,26.997 C 48.935,26.985 46.275,26.997 46.275,26.997 V 26.585 C 47.227,26.618 47.208,26.135 47.208,25.281 V 21.785 C 47.208,20.963 47.229,20.493 46.275,20.493 H 45.861 Z M 48.521,24.666 C 48.521,24.974 48.521,25.696 48.614,25.969 C 48.74,26.33 49.064,26.473 49.411,26.473 C 50.941,26.473 51.088,24.884 51.088,23.633 C 51.088,22.943 50.994,22.11 50.69,21.486 C 50.334,20.784 49.652,20.588 48.94,20.588 C 48.858,20.588 48.617,20.61 48.542,20.686 A 0.539,0.539 0 0,0 48.499,20.938 V 24.663 H 48.521 V 24.666 Z M 6.939,33.426 A 0.392,0.392 0 0,0 6.813,33.501 C 6.655,33.633 6.508,34.159 6.594,34.707 C 6.698,35.326 7.246,35.748 7.84,35.672 C 8.835,35.53 8.658,34.752 8.658,32.55 V 30.808 C 8.658,29.952 8.626,29.459 7.664,29.482 V 29.003 C 8.156,29.014 8.723,28.992 9.225,29.003 C 9.843,28.992 10.546,29.014 11.175,29.003 V 29.476 C 10.356,29.499 10.33,29.641 10.33,30.802 V 33.202 C 10.33,34.912 9.81,35.625 8.252,35.911 C 7.92,35.971 7.555,36.007 7.194,35.999 C 6.31,35.979 5.446,35.696 5.142,34.855 C 4.933,34.274 5.016,33.638 5.016,33.375 L 6.474,33.079 L 6.872,33.003 L 6.944,33.42 L 6.939,33.426 Z M 13.875,33.329 L 13.005,30.951 L 12.072,33.329 H 13.875 Z M 30.791,33.779 H 31.179 C 31.452,34.722 31.911,35.587 33.002,35.587 C 33.577,35.587 34.134,35.193 34.134,34.557 C 34.134,33.592 33.182,33.329 32.489,33.024 C 31.599,32.618 30.877,32.104 30.877,30.964 C 30.877,29.694 31.81,29.004 32.952,29.004 C 33.487,29.004 34.04,29.134 34.428,29.518 L 34.553,29.003 H 34.983 L 35.048,30.976 H 34.618 C 34.438,30.176 33.874,29.479 33.01,29.479 C 32.53,29.479 32.037,29.764 32.037,30.324 C 32.037,31.102 32.791,31.312 33.347,31.586 C 34.407,32.056 35.401,32.551 35.401,33.931 C 35.401,35.311 34.297,35.999 33.091,35.999 C 32.462,35.999 31.812,35.839 31.374,35.355 L 31.232,35.999 H 21.386 V 35.576 C 21.763,35.509 22.14,35.466 22.234,35.039 C 22.29,34.709 22.314,34.376 22.306,34.042 V 30.786 H 22.285 L 20.311,35.999 H 19.841 L 17.765,30.702 H 17.745 V 33.872 C 17.745,34.202 17.745,34.868 17.891,35.153 C 18.049,35.461 18.383,35.537 18.677,35.57 V 36 H 13.634 V 35.571 C 13.928,35.527 14.452,35.549 14.452,35.11 C 14.452,34.944 14.327,34.584 14.262,34.43 L 14.054,33.837 H 11.874 L 11.759,34.133 C 11.677,34.396 11.519,34.726 11.519,34.998 C 11.519,35.501 11.968,35.535 12.337,35.568 V 36 H 10.137 V 35.58 C 10.535,35.504 10.775,35.163 10.963,34.79 A 9.7,9.7 0 0,0 11.318,33.934 L 13.278,29.004 H 13.749 L 15.781,34.329 C 15.886,34.603 16.086,35.129 16.284,35.325 A 0.73,0.73 0 0,0 16.524,35.479 C 16.604,35.512 16.696,35.512 16.776,35.479 A 0.585,0.585 0 0,0 17.153,35.039 C 17.209,34.709 17.233,34.377 17.225,34.044 V 29.93 C 17.046,29.57 16.658,29.502 16.303,29.469 V 29.004 C 16.658,29.015 17.025,28.993 17.38,29.004 C 17.8,28.993 18.199,29.015 18.616,29.004 L 20.555,33.924 L 22.335,29.004 H 30.387 V 30.918 H 29.919 C 29.751,29.9 29.281,29.569 28.337,29.569 C 28.222,29.569 27.583,29.569 27.53,29.679 C 27.497,29.734 27.497,30.182 27.497,30.272 V 32.192 C 28.294,32.192 28.713,32.037 28.753,31.083 H 29.152 C 29.142,31.553 29.12,32.037 29.109,32.507 C 29.119,32.935 29.141,33.364 29.152,33.789 H 28.753 C 28.563,32.835 28.407,32.681 27.497,32.681 V 33.876 C 27.497,34.852 27.465,35.465 28.639,35.465 H 29.037 C 30.085,35.443 30.483,35.082 30.735,33.951 A 0.906,0.906 0 0,0 30.791,33.781 Z M 26.005,30.786 C 26.005,30.116 26.016,29.678 25.565,29.535 A 1.816,1.816 0 0,0 25.155,29.49 H 24.625 A 1.476,1.476 0 0,0 24.226,29.535 C 23.776,29.678 23.785,30.128 23.785,30.785 V 34.272 C 23.785,34.941 23.775,35.38 24.226,35.522 C 24.36,35.554 24.496,35.568 24.636,35.568 H 25.16 C 25.294,35.57 25.428,35.556 25.559,35.523 C 26.008,35.38 26,34.929 26,34.272 L 26.005,30.786 Z" fill="rgb(254, 254, 253)"/>
</svg>
