<?xml version="1.0" encoding="UTF-8"?>
<!-- generated by Finnhub -->
<svg viewBox="0 0 55.5 55.5" xmlns="http://www.w3.org/2000/svg">
<path d="M 0,0 H 55.5 V 55.5 H 0 Z" fill="url(#a)"/>
<path d="M 35.32,31.195 A 36.1,36.1 0 0,0 35.33,24.81 A 30.44,30.44 0 0,1 38.98,28 A 30.06,30.06 0 0,1 35.33,31.22 Z M 34.67,27.94 C 34.67,26.65 34.61,25.4 34.49,24.2 A 39.64,39.64 0 0,0 27.59,20.3 A 39.84,39.84 0 0,0 20.73,24.2 A 37.38,37.38 0 0,0 20.75,31.84 A 39.5,39.5 0 0,0 27.58,35.76 A 39.8,39.8 0 0,0 34.47,31.85 C 34.6,30.59 34.67,29.29 34.67,27.94 Z M 39.41,27.53 A 30.75,30.75 0 0,0 35.24,23.91 C 35,21.83 34.58,19.91 34.02,18.21 C 37.94,17.43 41.02,17.91 42.12,19.75 C 42.52,20.41 42.64,21.2 42.51,22.06 A 2,2 0 0,0 40.9,25.66 A 18.6,18.6 0 0,1 39.41,27.53 Z M 35.19,32.52 C 36.89,31.28 38.39,29.97 39.6,28.66 C 42.25,31.63 43.37,34.5 42.25,36.36 C 41.12,38.24 37.98,38.69 33.99,37.88 C 34.53,36.28 34.94,34.47 35.19,32.52 Z M 42.78,36.83 C 41.48,38.98 38.02,39.56 33.69,38.73 C 32.23,42.56 30.01,45 27.52,45 C 26.52,45 25.57,44.6 24.68,43.88 A 2,2 0 0,1 22,42 A 2,2 0 0,1 22.34,40.89 C 21.98,40.23 21.64,39.49 21.34,38.71 C 17.15,39.47 13.81,38.86 12.54,36.76 C 11.27,34.63 12.41,31.44 15.24,28.2 C 12.39,24.95 11.24,21.74 12.52,19.6 A 4.38,4.38 0 0,1 15.02,17.78 A 2,2 0 0,1 18.9,17.37 C 19.63,17.41 20.41,17.5 21.22,17.64 C 22.67,13.6 24.96,11 27.52,11 C 30.09,11 32.37,13.6 33.82,17.62 C 38.1,16.81 41.52,17.4 42.81,19.53 C 43.31,20.36 43.43,21.35 43.24,22.43 A 2,2 0 0,1 41.73,25.98 C 41.25,26.71 40.68,27.45 40.03,28.2 C 42.89,31.46 44.07,34.69 42.78,36.83 Z M 34.31,33.13 A 28.2,28.2 0 0,1 33.27,37.73 A 30.83,30.83 0 0,1 28.79,36.27 A 38.98,38.98 0 0,0 34.31,33.14 Z M 32.98,38.58 C 31.28,38.2 29.45,37.6 27.58,36.8 A 31.02,31.02 0 0,1 22.22,38.53 C 22.45,39.16 22.7,39.75 22.97,40.29 A 2,2 0 0,1 25.37,43.47 C 26.07,44.02 26.82,44.32 27.61,44.32 C 29.76,44.32 31.68,42.09 32.98,38.58 Z M 23.66,34.86 C 24.56,35.37 25.47,35.84 26.38,36.26 C 24.83,36.88 23.33,37.36 21.93,37.68 C 21.49,36.31 21.14,34.78 20.91,33.13 A 39,39 0 0,0 23.66,34.86 Z M 21.05,37.86 C 20.5,36.23 20.09,34.37 19.84,32.37 A 30.1,30.1 0 0,1 15.66,28.67 C 13.06,31.6 11.96,34.44 13.08,36.29 C 14.18,38.12 17.2,38.59 21.05,37.87 Z M 16.27,28 A 29.5,29.5 0 0,0 19.7,31.07 A 36.15,36.15 0 0,1 19.7,24.97 C 18.4,25.97 17.25,26.99 16.27,28 Z M 19.79,24.06 A 30.3,30.3 0 0,0 15.85,27.54 C 13.19,24.57 12.08,21.7 13.2,19.84 A 3.54,3.54 0 0,1 15.04,18.4 A 2,2 0 0,0 19,17.97 C 19.64,18.02 20.32,18.1 21.02,18.23 C 20.45,19.96 20.02,21.93 19.79,24.06 Z M 20.83,23.31 C 21.06,21.53 21.41,19.88 21.87,18.41 C 23.39,18.74 25.04,19.26 26.73,19.96 A 38.93,38.93 0 0,0 20.83,23.31 Z M 33.33,18.36 C 31.79,18.71 30.13,19.25 28.43,19.96 A 38.9,38.9 0 0,1 34.38,23.31 C 34.15,21.51 33.8,19.84 33.33,18.36 Z M 22.06,17.81 C 23.8,18.18 25.66,18.78 27.58,19.58 A 31.2,31.2 0 0,1 33.14,17.77 C 31.84,13.99 29.84,11.57 27.61,11.57 C 25.36,11.57 23.35,14.01 22.06,17.81 Z M 33.5,28 A 6,6 0 1,1 21.5,28 A 6,6 0 0,1 33.5,28 Z M 23.31,25.28 C 24.15,24.55 24.83,24.98 25.07,25.28 C 24.92,25.17 24.59,25 24.47,25.18 A 0.69,0.69 0 0,1 23.99,25.47 V 25.19 L 23.31,25.29 Z M 22,26.2 C 22.14,25.95 22.45,25.43 22.57,25.39 C 22.69,25.35 22.4,26.02 22.23,26.35 C 22.16,26.43 22,26.5 22,26.2 Z M 22.37,26.61 L 21.79,26.86 V 27.14 C 22.06,27.04 22.29,26.74 22.37,26.61 Z M 24.44,25.57 C 24.55,25.75 24.9,26.19 25.38,26.54 C 25.98,26.97 25.48,28.07 25.07,28.18 C 24.74,28.26 24.62,27.98 24.61,27.84 C 24.31,27.79 23.64,27.92 23.28,28.85 C 23.08,28.62 22.68,28.09 22.66,27.85 C 22.63,27.53 23.28,26.05 23.7,25.89 C 23.78,25.87 23.94,25.9 23.95,26.19 C 24.11,26.28 24.44,26.29 24.44,25.57 Z M 25.63,28.4 A 0.17,0.17 0 1,1 25.29,28.4 A 0.17,0.17 0 0,1 25.63,28.4 Z M 26.56,29.1 L 27.08,28.4 H 27.34 L 27.27,27.73 L 27.71,27.98 L 26.89,29.2 L 26.56,29.1 Z M 25.99,30.95 A 1.78,1.78 0 0,1 27.39,31.06 C 27.3,31.03 27.16,31.1 27.24,31.66 C 27.32,32.22 27.67,32.21 27.84,32.13 A 0.98,0.98 0 0,1 28.54,31.66 C 28.91,31.63 29.02,32.03 29.04,32.23 C 29.34,32.17 29.44,32.36 29.26,32.48 C 29.11,32.58 29.2,32.85 29.26,32.98 C 29.03,32.98 28.75,32.74 28.63,32.62 C 28.33,32.56 28.13,32.83 28.09,32.97 C 28.07,33.25 27.78,33.73 26.69,33.47 C 25.61,33.21 25.36,32.8 25.37,32.62 H 25.81 C 25.21,32.37 25.11,32.05 25.13,31.92 C 25.19,31.69 25.45,31.16 25.99,30.95 Z" fill="rgb(254, 254, 253)" fill-rule="evenodd"/>
<defs>
<linearGradient id="a" x1="10.42" x2="68.15" y1="9.71" y2="76.02" gradientUnits="userSpaceOnUse">
<stop stop-color="rgb(25, 29, 31)" offset="0"/>
<stop stop-color="rgb(5, 5, 8)" offset="1"/>
</linearGradient>
</defs>
</svg>
