<?xml version="1.0" encoding="UTF-8"?>
<!-- generated by Finnhub -->
<svg viewBox="0 0 55.5 55.5" xmlns="http://www.w3.org/2000/svg">
<path d="M 0,0 H 55.5 V 55.5 H 0 Z" fill="rgb(7, 8, 11)"/>
<path d="M 35.909,29.759 A 4.42,4.42 0 0,0 35.262,28.907 C 34.999,28.636 34.347,28.547 33.992,28.731 A 1.295,1.295 0 0,1 32.745,28.666 C 32.373,28.422 32.023,28.15 31.639,27.921 C 31.324,27.73 31.004,27.543 30.637,27.431 C 30.503,27.39 30.365,27.367 30.227,27.421 C 30.062,27.481 30.037,27.466 30.062,27.313 C 30.072,27.248 30.092,27.183 30.11,27.119 C 30.166,26.927 30.17,26.733 30.14,26.538 A 5.473,5.473 0 0,0 29.393,24.478 C 29.168,24.111 29.13,23.733 29.358,23.355 A 0.53,0.53 0 0,0 29.388,22.885 C 29.324,22.701 29.242,22.525 29.212,22.335 C 29.142,21.826 29.216,21.325 29.281,20.821 C 29.289,20.741 29.346,20.718 29.415,20.695 C 29.691,20.6 29.967,20.508 30.244,20.405 C 30.481,20.317 30.645,20.168 30.671,19.927 A 1.039,1.039 0 0,0 30.538,19.289 C 30.451,19.139 30.334,19.006 30.231,18.869 C 30.11,18.704 29.971,18.54 29.976,18.337 C 29.985,18.097 29.872,17.913 29.704,17.745 A 5.49,5.49 0 0,0 29.19,17.291 C 28.987,17.134 28.767,17.015 28.49,16.992 C 28.33,16.977 28.17,16.939 28.015,16.912 C 27.622,16.843 27.229,16.782 26.84,16.706 C 26.612,16.664 26.573,16.603 26.564,16.396 C 26.555,16.236 26.651,16.129 26.793,16.06 C 26.957,15.98 26.948,15.892 26.863,15.762 C 26.711,15.537 26.581,15.3 26.439,15.07 C 26.387,14.99 26.4,14.952 26.486,14.898 C 26.672,14.78 26.896,14.727 27.086,14.62 C 28.071,14.058 29.061,13.508 30.036,12.93 C 31.388,12.132 32.593,11.161 33.88,10.286 C 33.98,10.221 34.07,10.145 34.144,10.053 C 34.269,9.893 34.308,9.889 34.459,10.042 C 34.636,10.225 34.77,10.432 34.904,10.638 C 34.943,10.699 34.982,10.764 35.072,10.779 C 35.349,10.825 35.591,10.592 35.5,10.359 A 5.627,5.627 0 0,0 34.515,8.723 A 1.554,1.554 0 0,0 34.049,8.333 C 33.893,8.253 33.708,8.292 33.569,8.425 C 33.453,8.536 33.457,8.613 33.582,8.769 C 33.733,8.957 33.859,9.155 33.988,9.354 C 34.048,9.446 34.032,9.499 33.941,9.572 C 32.852,10.412 31.691,11.165 30.563,11.956 C 29.812,12.48 28.965,12.881 28.171,13.347 C 27.614,13.676 27.061,14.008 26.508,14.341 C 26.228,14.509 25.947,14.543 25.627,14.401 A 0.999,0.999 0 0,0 24.698,14.436 C 24.271,14.681 23.973,15.013 23.865,15.464 A 1.272,1.272 0 0,1 23.675,15.904 C 23.558,16.075 23.442,16.247 23.425,16.454 C 23.415,16.534 23.351,16.603 23.277,16.652 C 23.178,16.722 23.083,16.794 22.975,16.84 C 22.457,17.065 22.034,17.39 21.645,17.76 C 21.545,17.852 21.528,17.91 21.641,18.001 C 21.813,18.143 21.981,18.295 21.973,18.532 C 21.973,18.582 22.003,18.636 22.029,18.682 C 22.198,18.968 22.431,19.202 22.776,19.327 C 22.846,19.354 22.928,19.373 22.88,19.468 C 22.703,19.805 22.59,19.923 22.224,19.931 A 0.674,0.674 0 0,0 21.697,20.191 A 0.91,0.91 0 0,0 21.477,20.753 C 21.485,21.249 21.277,21.685 20.993,22.098 C 20.833,22.331 20.703,22.59 20.462,22.758 C 20.237,22.919 20.12,23.122 20.03,23.347 A 0.382,0.382 0 0,0 20.073,23.717 C 20.302,24.057 20.591,24.299 21.083,24.267 C 21.33,24.253 21.403,24.317 21.481,24.527 C 21.502,24.581 21.515,24.639 21.528,24.692 C 21.619,25.082 21.667,25.475 21.723,25.869 C 21.891,27.039 22.047,28.207 22.253,29.373 C 22.345,29.885 22.362,30.393 22.185,30.905 A 2.538,2.538 0 0,0 22.06,31.968 C 22.137,32.885 22.319,33.786 22.621,34.665 C 22.725,34.963 22.677,35.212 22.474,35.46 C 22.245,35.743 22.016,36.03 21.8,36.32 C 21.317,36.973 20.924,37.665 20.816,38.456 C 20.781,38.7 20.76,38.949 20.729,39.197 A 7.889,7.889 0 0,1 20.474,40.45 C 20.332,40.951 20.371,41.467 20.397,41.975 C 20.423,42.51 20.539,43.026 20.829,43.504 C 20.911,43.637 20.959,43.786 20.989,43.939 C 21.036,44.169 21.161,44.359 21.339,44.524 C 21.701,44.864 22.12,45.154 22.418,45.548 C 22.526,45.689 22.716,45.658 22.88,45.624 C 23.027,45.594 23.036,45.483 23.044,45.376 C 23.079,44.998 23.053,44.623 23.061,44.245 C 23.061,44.161 22.997,44.145 22.931,44.123 C 22.591,44 22.254,43.878 21.908,43.763 C 21.818,43.733 21.774,43.695 21.774,43.599 C 21.766,42.797 21.749,41.99 21.749,41.184 C 21.749,40.871 21.714,40.542 21.839,40.248 C 22.003,39.862 22.038,39.468 22.029,39.068 A 0.997,0.997 0 0,1 22.349,38.322 A 3.039,3.039 0 0,1 23.364,37.646 C 23.532,37.577 23.684,37.489 23.834,37.394 C 24.241,37.13 24.59,36.813 24.954,36.504 C 25.018,36.446 25.07,36.427 25.164,36.454 C 25.541,36.561 25.916,36.664 26.292,36.764 C 26.417,36.794 26.456,36.854 26.435,36.962 C 26.4,37.149 26.361,37.336 26.335,37.527 C 26.227,38.269 26.141,39.021 25.847,39.728 C 25.623,40.275 25.575,40.828 25.592,41.402 C 25.614,42.071 25.739,42.705 26.206,43.252 C 26.314,43.382 26.322,43.512 26.283,43.656 A 3.124,3.124 0 0,1 25.921,44.528 A 3.526,3.526 0 0,0 25.584,45.269 A 8.16,8.16 0 0,1 24.962,46.709 C 24.841,46.931 24.732,47.164 24.698,47.413 C 24.668,47.661 24.768,47.741 25.035,47.695 A 6.878,6.878 0 0,0 26.119,47.409 C 26.491,47.279 26.529,47.214 26.482,46.859 C 26.478,46.839 26.478,46.82 26.473,46.801 A 0.787,0.787 0 0,1 26.551,46.297 C 26.621,46.167 26.689,46.033 26.711,45.892 C 26.789,45.368 27.031,44.894 27.234,44.405 C 27.346,44.135 27.554,43.958 27.83,43.832 C 27.929,43.786 28.033,43.74 28.132,43.691 A 0.444,0.444 0 0,0 28.309,43.546 C 28.503,43.244 28.409,42.789 28.102,42.583 C 28.032,42.537 28.02,42.499 28.058,42.43 C 28.274,42.055 28.468,41.67 28.771,41.345 C 28.914,41.192 28.952,41.02 28.849,40.837 C 28.759,40.684 28.741,40.519 28.724,40.351 A 8.45,8.45 0 0,1 28.694,39.434 C 28.694,38.964 28.724,38.536 28.758,38.108 C 28.814,37.428 29.104,36.824 29.497,36.251 C 29.535,36.194 29.57,36.098 29.661,36.117 C 29.751,36.137 29.756,36.24 29.764,36.312 C 29.782,36.48 29.769,36.645 29.743,36.812 C 29.687,37.152 29.557,37.47 29.406,37.783 C 29.363,37.871 29.32,37.967 29.423,38.047 A 0.697,0.697 0 0,0 30.162,38.093 C 30.516,37.883 30.792,37.603 31.022,37.283 C 31.103,37.164 31.185,37.046 31.267,36.931 C 31.293,36.893 31.327,36.836 31.384,36.851 C 31.436,36.866 31.431,36.931 31.436,36.977 C 31.44,37.077 31.445,37.176 31.44,37.279 C 31.431,37.971 31.302,38.647 31.19,39.327 C 31.125,39.713 31.099,40.11 30.943,40.477 C 30.728,41.005 30.581,41.547 30.433,42.09 C 30.253,42.766 30.183,43.454 30.049,44.138 C 29.954,44.623 29.846,45.116 29.544,45.548 C 29.466,45.658 29.471,45.788 29.553,45.903 C 29.631,46.01 29.751,46.007 29.873,45.995 C 30.188,45.965 30.481,45.873 30.745,45.712 A 0.352,0.352 0 0,0 30.879,45.59 C 31.077,45.212 31.199,44.818 31.043,44.402 C 31.017,44.325 31.017,44.264 31.073,44.199 C 31.423,43.775 31.587,43.286 31.673,42.778 C 31.743,42.376 31.829,41.979 31.946,41.585 C 32.092,41.089 32.192,40.573 32.628,40.183 C 32.701,40.118 32.706,40.019 32.701,39.927 A 3.234,3.234 0 0,0 32.585,39.22 C 32.525,38.99 32.572,38.811 32.715,38.62 A 9.714,9.714 0 0,0 33.686,36.924 C 33.764,36.744 33.803,36.564 33.66,36.392 C 33.492,36.186 33.492,35.964 33.595,35.739 C 33.721,35.46 33.845,35.181 33.975,34.902 C 34.183,34.455 34.395,34.012 34.485,33.53 C 34.619,32.831 34.532,32.14 34.429,31.448 C 34.403,31.284 34.386,31.112 34.286,30.966 A 0.47,0.47 0 0,1 34.2,30.726 A 0.929,0.929 0 0,0 33.967,30.156 A 0.9,0.9 0 0,1 33.755,29.713 C 33.746,29.663 33.729,29.595 33.811,29.583 C 34.031,29.545 34.248,29.488 34.438,29.671 C 34.61,29.843 34.808,29.988 34.995,30.153 C 35.189,30.325 35.405,30.378 35.673,30.29 C 36.005,30.183 36.079,30.05 35.919,29.774 Z M 22.31,24.203 C 22.414,24.18 22.517,24.15 22.621,24.123 C 22.741,24.093 22.811,24.126 22.815,24.241 C 22.828,24.528 22.85,24.811 22.902,25.097 A 2.059,2.059 0 0,1 22.241,24.333 C 22.202,24.264 22.219,24.223 22.31,24.203 Z M 22.807,28.529 C 22.789,28.601 22.777,28.677 22.686,28.773 C 22.422,27.562 22.405,26.351 22.15,25.166 C 22.21,25.162 22.232,25.204 22.267,25.231 C 22.686,25.598 22.897,26.033 22.923,26.557 C 22.953,27.222 22.941,27.875 22.807,28.529 Z M 24.716,18.261 C 24.482,18.509 24.241,18.746 24.172,19.091 C 24.132,19.293 24.003,19.308 23.813,19.186 C 23.178,18.781 22.988,18.2 22.979,17.546 C 22.979,17.439 23.027,17.363 23.122,17.306 C 23.394,17.138 23.649,16.958 23.839,16.713 C 23.865,16.683 23.899,16.626 23.951,16.645 C 24.011,16.668 23.981,16.733 23.968,16.771 C 23.912,16.958 23.986,17.119 24.098,17.268 C 24.202,17.405 24.327,17.535 24.396,17.692 C 24.474,17.864 24.621,17.921 24.815,17.925 H 25.044 C 24.919,18.055 24.815,18.158 24.716,18.261 Z" fill="rgb(254, 254, 253)"/>
</svg>
