<?xml version="1.0" encoding="UTF-8"?>
<!-- generated by Finnhub -->
<svg viewBox="0 0 55.5 55.5" xmlns="http://www.w3.org/2000/svg">
<path d="M 0,0 H 55.5 V 55.5 H 0 Z" fill="url(#a)"/>
<path d="M 49.988,30.97 A 1.464,1.464 0 0,0 48.477,29.58 A 1.469,1.469 0 0,0 47.09,31.121 A 1.464,1.464 0 0,0 48.611,32.526 A 1.468,1.468 0 0,0 49.998,30.986 Z" fill="rgb(229, 1, 30)"/>
<path d="M 47.489000000000004,33.665 A 1.32,1.32 0 0,0 46.124,32.416 A 1.319,1.319 0 0,0 44.878,33.802 A 1.32,1.32 0 0,0 46.252,35.065 A 1.315,1.315 0 0,0 47.499,33.679 Z" fill="rgb(222, 3, 38)"/>
<path d="M 44.747,35.652 A 1.18,1.18 0 0,0 43.523,34.534 C 42.871,34.567 42.373,35.124 42.404,35.784 A 1.19,1.19 0 0,0 43.638,36.924 A 1.198,1.198 0 0,0 44.757,35.667 Z" fill="rgb(215, 9, 46)"/>
<path d="M 41.832,36.785 A 1.065,1.065 0 0,0 40.729,35.777 A 1.069,1.069 0 0,0 39.719,36.904 A 1.07,1.07 0 0,0 40.832,37.927 A 1.08,1.08 0 0,0 41.842,36.801 Z" fill="rgb(207, 13, 52)"/>
<path d="M 38.942,36.974 A 0.956,0.956 0 0,0 37.955,36.069 A 0.964,0.964 0 0,0 37.048,37.079 A 0.96,0.96 0 0,0 38.045,37.999 A 0.96,0.96 0 0,0 38.952,36.989 Z" fill="rgb(199, 16, 59)"/>
<path d="M 36.38,36.203 A 0.872,0.872 0 0,0 35.488,35.388 A 0.874,0.874 0 0,0 34.669,36.302 C 34.689,36.782 35.098,37.157 35.571,37.131 A 0.87,0.87 0 0,0 36.389,36.218 Z" fill="rgb(191, 19, 65)"/>
<path d="M 34.308,34.823 A 0.777,0.777 0 0,0 33.506,34.094 A 0.78,0.78 0 0,0 32.771,34.916 A 0.775,0.775 0 1,0 34.318,34.838 Z" fill="rgb(183, 21, 71)"/>
<path d="M 32.690000000000005,33.172 A 0.707,0.707 0 0,0 31.972,32.514 A 0.707,0.707 0 0,0 32.036,33.926 A 0.705,0.705 0 0,0 32.701,33.187 Z" fill="rgb(174, 21, 82)"/>
<path d="M 31.406,31.43 A 0.627,0.627 0 1,0 30.163,31.51 C 30.183,31.86 30.47,32.132 30.815,32.112 A 0.627,0.627 0 0,0 31.415,31.445 Z" fill="rgb(165, 21, 93)"/>
<path d="M 30.401999999999997,29.688 A 0.567,0.567 0 0,0 29.824,29.159 A 0.568,0.568 0 0,0 29.287,29.755 A 0.567,0.567 0 0,0 29.875,30.299 A 0.569,0.569 0 0,0 30.412,29.703 Z" fill="rgb(156, 21, 104)"/>
<path d="M 29.622,27.991 A 0.516,0.516 0 0,0 29.121,27.488 A 0.516,0.516 0 0,0 28.61,28.006 C 28.61,28.291 28.84,28.524 29.121,28.524 A 0.516,0.516 0 0,0 29.632,28.006 Z" fill="rgb(146, 20, 114)"/>
<path d="M 5.99,28.256999999999998 C 6,29.185 6.729,29.93 7.63,29.93 C 8.531,29.93 9.266,29.192 9.266,28.272 C 9.266,27.359 8.538,26.614 7.63,26.614 A 1.64,1.64 0 0,0 6,28.272 Z" fill="rgb(1, 144, 217)"/>
<path d="M 8.227,25.012 A 1.464,1.464 0 0,0 9.759,26.433 A 1.468,1.468 0 0,0 11.146,24.891 A 1.464,1.464 0 0,0 9.624,23.486 C 8.819,23.518 8.199,24.211 8.237,25.027 Z" fill="rgb(1, 133, 207)"/>
<path d="M 10.727,22.312 A 1.32,1.32 0 0,0 12.111,23.59 C 12.833,23.558 13.389,22.936 13.357,22.198 A 1.317,1.317 0 0,0 11.983,20.935 A 1.329,1.329 0 0,0 10.737,22.327 Z" fill="rgb(1, 122, 197)"/>
<path d="M 13.469,20.323999999999998 A 1.18,1.18 0 0,0 14.713,21.472 A 1.184,1.184 0 0,0 15.831,20.222 A 1.19,1.19 0 0,0 14.598,19.082 A 1.203,1.203 0 0,0 13.479,20.339 Z" fill="rgb(1, 110, 186)"/>
<path d="M 16.389999999999997,19.195999999999998 A 1.07,1.07 0 0,0 17.513,20.235 A 1.069,1.069 0 0,0 18.523,19.108 A 1.065,1.065 0 0,0 17.41,18.085 A 1.068,1.068 0 0,0 16.4,19.211 Z" fill="rgb(1, 98, 176)"/>
<path d="M 19.273,19.003 A 0.96,0.96 0 0,0 20.28,19.938 A 0.966,0.966 0 0,0 21.188,18.921 A 0.96,0.96 0 0,0 20.191,18.001 A 0.973,0.973 0 0,0 19.283,19.018 Z" fill="rgb(12, 86, 165)"/>
<path d="M 21.836,19.773 C 21.866,20.268 22.275,20.637 22.748,20.618 A 0.874,0.874 0 0,0 23.566,19.704 A 0.868,0.868 0 0,0 22.665,18.875 A 0.874,0.874 0 0,0 21.846,19.788 Z" fill="rgb(57, 73, 155)"/>
<path d="M 23.907999999999998,21.153 C 23.937,21.602 24.301,21.932 24.73,21.913 A 0.78,0.78 0 0,0 25.465,21.09 A 0.777,0.777 0 0,0 24.653,20.346 A 0.784,0.784 0 0,0 23.918,21.168 Z" fill="rgb(78, 57, 145)"/>
<path d="M 25.531,22.805 C 25.561,23.208 25.887,23.506 26.27,23.493 A 0.709,0.709 0 0,0 26.935,22.755 A 0.703,0.703 0 0,0 26.206,22.081 A 0.7,0.7 0 0,0 25.541,22.819 Z" fill="rgb(94, 36, 136)"/>
<path d="M 26.81,24.546 A 0.627,0.627 0 1,0 28.073,24.496 A 0.627,0.627 0 0,0 27.414,23.894 A 0.633,0.633 0 0,0 26.82,24.561 Z" fill="rgb(106, 21, 131)"/>
<path d="M 27.819999999999997,26.288 A 0.567,0.567 0 0,0 28.418,26.847 A 0.568,0.568 0 0,0 28.955,26.251 A 0.567,0.567 0 0,0 28.367,25.707 A 0.56,0.56 0 0,0 27.83,26.303 Z" fill="rgb(127, 21, 123)"/>
<defs>
<linearGradient id="a" x1="10.418" x2="68.147" y1="9.712" y2="76.017" gradientUnits="userSpaceOnUse">
<stop stop-color="rgb(25, 29, 31)" offset="0"/>
<stop stop-color="rgb(5, 5, 8)" offset="1"/>
</linearGradient>
</defs>
</svg>
