<?xml version="1.0" encoding="UTF-8"?>
<!-- generated by Finnhub -->
<svg viewBox="0 0 55.5 55.5" xmlns="http://www.w3.org/2000/svg">
<path d="M 0,0 H 55.5 V 55.5 H 0 Z" fill="rgb(239, 242, 248)"/>
<path d="M 33.663000000000004,12.524999999999999 A 0.3,0.3 0 0,0 33.493,12 H 22.466 A 3,3 0 0,0 20.304,12.92 L 12.84,20.673 A 3,3 0 0,0 12,22.753 V 33.59 A 3,3 0 0,0 12.907,35.74 L 20.513,43.149 A 3,3 0 0,0 22.606,44 H 31.168 C 31.487,44 31.586,43.569 31.299,43.43 L 14.694,35.394 A 3,3 0 0,1 13.001,32.694 V 29.44 A 3,3 0 0,1 14.209,27.034 L 33.673,12.54 Z" fill="url(#a)"/>
<path d="M 37.244,14.725 A 2,2 0 0,0 34.739,14.509 L 15.326,27.565 A 3,3 0 0,0 14,30.055 V 31.899 A 3,3 0 0,0 15.826,34.659 L 33.806,42.302 A 3,3 0 0,0 37.123,41.639 L 43.143,35.489 A 3,3 0 0,0 44,33.39 V 22.606 A 3,3 0 0,0 43.099,20.462 L 37.254,14.739 Z" fill="rgb(170, 36, 50)"/>
<path d="M 26.842,33.985 H 31.027 L 31.687,31 H 35.22 L 35.58,32.474 A 2,2 0 0,0 37.523,34 H 40.346 L 36.453,21.995 H 32.144 A 2,2 0 0,0 30.239,23.387 L 26.852,34 Z M 33.49,24.556 H 33.522 L 34.582,28 H 32.378 L 33.49,24.556 Z" fill="rgb(254, 254, 253)"/>
<path d="M 24.389999999999997,28.369 V 28.349 C 25.97,27.939 27.021,27.012 27.021,25.179 C 27.021,22.885 25.405,21.995 22.784,21.995 H 16 V 34 H 20 V 30 H 21.143 C 21.659,30 22.099,30.055 22.35,30.604 C 22.535,30.994 22.629,31.701 22.705,32.405 C 22.807,33.339 23.579,34 24.519,34 H 27.288 C 26.848,32.837 26.895,30.931 26.253,29.665 C 25.86,29.033 25.311,28.555 24.4,28.384 Z M 20,24.664 H 21.174 C 22.019,24.664 22.811,24.762 22.811,25.842 C 22.811,27.042 21.971,27 21.113,27 H 20 V 24.665 Z" fill="rgb(254, 254, 253)"/>
<defs>
<linearGradient id="a" x1="23.818" x2="24.78" y1="12" y2="30.194" gradientUnits="userSpaceOnUse">
<stop stop-color="rgb(245, 126, 51)" offset="0"/>
<stop stop-color="rgb(170, 36, 50)" offset="1"/>
</linearGradient>
</defs>
</svg>
