<?xml version="1.0" encoding="UTF-8"?>
<!-- generated by Finnhub -->
<svg viewBox="0 0 55.5 55.5" xmlns="http://www.w3.org/2000/svg">
<path d="M 0,0 H 55.5 V 55.5 H 0 Z" fill="rgb(14, 126, 200)"/>
<path d="M 6.99,33.554 C 7,34.356 6.329,34.996 5.501,34.996 C 4.671,34.996 4,34.356 4,33.569 V 26.422 C 4,25.635 4.671,24.996 5.501,24.996 C 6.329,24.996 7,25.635 7,26.422 V 33.569 Z" fill="rgb(254, 254, 253)"/>
<path d="M 11.854000000000001,24.974999999999998 A 0.711,0.711 0 0,0 12.061,24.497 C 12.061,24.112 11.745,23.997 11.375,23.997 H 5.34 C 4.598,23.997 4,23.263 4,22.492 C 4,21.722 4.598,21 5.34,21 H 11.39 C 13.25,21 14.98,22.563 14.98,24.497 C 14.98,25.531 14.454,26.562 13.767,27.203 L 10.559,30.547 A 0.92,0.92 0 0,0 10.249,31.255 C 10.249,31.82 10.651,32 11.091,32 H 13.404 C 14.144,32 14.743,32.68 14.743,33.448 C 14.743,34.221 14.143,35 13.403,35 H 11.09 C 8.374,35 7.21,33.27 7.21,31.174 C 7.21,29.789 7.892,28.971 8.47,28.366 L 11.865,24.99 Z" fill="rgb(254, 254, 253)"/>
<path d="M 36.706,31.985 C 37.252,32 37.582,31.768 37.582,31.203 C 37.582,30.762 37.366,30.531 36.993,30.388 L 31.791,27.933 C 30.556,27.421 29.613,25.983 29.613,24.501 C 29.613,22.565 31.209,21 33.045,21 H 39 C 39.73,21 40.275,21.787 40.275,22.558 C 40.275,23.35 39.743,24.002 39.013,24.002 H 33.215 C 32.848,24.002 32.593,24.175 32.593,24.561 C 32.593,24.843 32.699,25.037 32.929,25.145 L 38.012,27.657 C 39.365,28.203 40.466,29.584 40.466,31.203 C 40.466,33.297 38.705,35 36.716,35 H 31.052 C 30.322,35 29.72,34.217 29.72,33.446 S 30.32,32 31.052,32 H 36.716 Z M 48.2,32 C 48.742,32 49.077,31.768 49.077,31.203 C 49.077,30.762 48.857,30.531 48.48,30.388 L 43.208,27.933 C 41.956,27.42 41,25.983 41,24.5 C 41,22.565 42.618,21 44.478,21 H 50.514 C 51.254,21 51.806,21.787 51.806,22.558 C 51.806,23.35 51.267,24.002 50.527,24.002 H 44.651 C 44.278,24.002 44.021,24.175 44.021,24.561 C 44.021,24.843 44.128,25.037 44.361,25.145 L 49.513,27.657 C 50.883,28.203 52,29.584 52,31.203 C 52,33.297 50.215,35 48.2,35 H 42.458 C 41.718,35 41.108,34.217 41.108,33.446 S 41.718,32 42.458,32 H 48.2 Z M 16.84,23.815 L 16.718,23.997 H 22.203 C 24.336,23.997 26.061,25.764 26.061,28.009 C 26.061,30.257 24.336,32.037 22.203,32.037 S 18.346,30.257 18.346,28.009 C 18.346,27.661 18.39,27.316 18.468,26.996 V 26.993 C 18.7,25.887 17.893,25.148 17.103,25.148 C 16.503,25.148 15.866,25.564 15.71,26.262 V 26.263 C 15.562,26.961 15.498,27.333 15.498,28.009 C 15.498,31.862 18.495,35 22.203,35 C 25.914,35 28.908,31.862 28.908,28.01 C 28.908,24.156 25.912,21.016 22.203,21.016 C 20.023,21.016 18.063,22.142 16.839,23.815 Z" fill="rgb(254, 254, 253)"/>
</svg>
