<?xml version="1.0" encoding="UTF-8"?>
<!-- generated by Finnhub -->
<svg viewBox="0 0 55.5 55.5" xmlns="http://www.w3.org/2000/svg">
<path d="M 0,0 H 55.5 V 55.5 H 0 Z" fill="rgb(226, 24, 53)"/>
<path d="M 13.995000000000001,29.627 H 13.403 V 28.427 H 14.005 V 29.642 Z M 42.78,30 H 42.208 V 26.431 H 42.78 V 30 Z M 36.573,27.544 H 36 V 26.5 H 36.574 V 27.544 Z M 26.384,27 V 25.452 H 25.46 V 24 H 23 V 25.452 H 21 L 20,28.427 L 19,25.452 H 16.358 L 18.5,31 L 17.644,33 H 20.323 L 23,26.99 V 31 L 25.46,31.01 V 27 H 26.384 Z M 52,31.01 V 27.024 C 52,26.574 51.806,26.187 51.419,25.864 C 51.049,25.557 50.643,25.404 50.19,25.413 C 49.441,25.422 48.807,25.619 48.447,25.997 L 48.437,25.493 H 46 V 31.01 L 48.437,31 V 27 H 49 V 31 L 52,31.01 Z M 16.665,31.01 V 27.464 C 16.665,26.763 16.379,26.223 15.825,25.836 C 15.307,25.476 14.642,25.296 13.82,25.306 C 12.86,25.314 12.11,25.503 11.566,25.864 C 11.094,26.169 10.863,26.538 10.863,26.979 V 27.223 H 13.432 V 26.564 H 14.005 V 27.59 L 12.693,27.618 C 11.345,27.644 10.66,28.167 10.652,29.175 C 10.632,30.453 11.233,31.092 12.443,31.092 C 13.173,31.092 13.727,30.83 14.106,30.3 L 14.116,31.01 H 16.665 Z M 39.046,28.193 C 39.028,27.267 38.825,26.583 38.446,26.151 C 37.956,25.584 37.257,25.305 36.056,25.305 C 35.039,25.305 34.396,25.508 33.954,25.805 C 33.316,26.228 33.002,27.047 33.002,28.253 C 33.002,29.432 33.335,30.243 34,30.683 C 34.453,30.989 35.076,31.083 36.046,31.092 C 36.979,31.101 37.549,30.957 38.04,30.642 C 38.473,30.363 38.778,29.922 38.945,29.328 C 38.972,29.211 38.99,29.089 39,29 H 36.5 V 30 H 36 V 28.518 H 39.028 C 39.038,28.401 39.046,28.293 39.046,28.193 Z M 45.626,28.193 C 45.626,26.997 45.311,26.196 44.684,25.763 C 44.249,25.466 43.52,25.305 42.494,25.305 S 40.739,25.458 40.304,25.755 C 39.686,26.187 39.372,26.997 39.372,28.193 C 39.372,29.409 39.686,30.218 40.304,30.641 C 40.738,30.938 41.468,31.091 42.494,31.091 C 43.51,31.091 44.24,30.948 44.684,30.641 C 45.311,30.209 45.626,29.391 45.626,28.193 Z M 10.421,25.873 A 1.794,1.794 0 0,0 9.931,24.549 C 9.588,24.18 9.135,24 8.553,24 H 4 V 31.01 H 6.982 L 6.992,28 H 7.695 L 7.685,31.01 H 10.411 V 28.797 C 10.411,28.401 10.337,28.113 10.18,27.924 C 9.959,27.654 9.728,27.482 9.496,27.402 C 9.81,27.222 10.032,27.042 10.152,26.862 C 10.309,26.628 10.402,26.294 10.421,25.872 Z M 32.74,31.01 V 26.898 C 32.74,26.475 32.573,26.124 32.249,25.836 A 1.723,1.723 0 0,0 31.085,25.413 C 30.762,25.413 30.439,25.466 30.115,25.575 C 29.792,25.683 29.552,25.818 29.395,25.971 V 24 H 26.642 V 31.01 H 29.395 V 27 H 30 V 31.01 H 32.74 Z M 7.694,26.87 H 7 V 25.34 H 7.695 V 26.87 Z" fill="rgb(254, 254, 253)"/>
</svg>
