<?xml version="1.0" encoding="UTF-8"?>
<!-- generated by Finnhub -->
<svg viewBox="0 0 55.5 55.5" xmlns="http://www.w3.org/2000/svg">
<path d="M 0,0 H 55.5 V 55.5 H 0 Z" fill="rgb(1, 134, 253)"/>
<path d="M 34.255,23.987 C 34.267,24 33.553,24 33.485,24 C 31.354,24 29.973,25.166 29.973,27.253 V 32.877 C 29.976,32.943 30.027,32.997 30.091,33 H 31.858 C 31.928,33.001 31.989,32.949 32,32.877 V 27.514 C 32,26.39 32.123,26 33.45,26 H 34.267 A 0.267,0.267 0 0,0 34.522,25.728 L 34.53,24.338 C 34.532,24.193 34.413,24.002 34.265,24.002 Z M 24.5,24 C 22.371,24 21,25.343 21,27.431 V 32.877 C 21.005,32.944 21.056,32.997 21.121,33.002 H 22.857 A 0.148,0.148 0 0,0 23,32.877 V 27.691 C 23,26.568 23.562,26 24.5,26 C 25.747,26 26,26.541 26,27.691 V 32.841 C 26,32.903 26.049,33.002 26.133,33.002 H 27.855 A 0.17,0.17 0 0,0 28,32.84 V 27.225 C 28,25.148 26.642,24 24.5,24 Z M 18.88,24 L 18.876,24.002 H 17.145 A 0.146,0.146 0 0,0 17,24.127 V 29.468 C 17,30.592 16.396,31 15.5,31 C 14.78,31 14,30.668 14,29.517 V 24.163 C 14,24.101 13.95,24.002 13.866,24.002 H 12.143 A 0.17,0.17 0 0,0 12,24.163 V 29.759 C 12,31.836 13.357,32.937 15.5,32.937 C 17.642,32.937 19,31.81 19,29.72 V 24.125 A 0.132,0.132 0 0,0 18.88,24 Z M 7.64,27.687 L 7.641,27.677 C 6.148,27.231 5.705,26.971 5.705,26.352 C 5.705,25.908 6.064,25.522 7.013,25.522 A 2.768,2.768 0 0,1 9.014,26.265 C 9.074,26.328 9.169,26.277 9.211,26.241 L 10.048,25.347 C 10.098,25.299 10.074,25.237 10.025,25.162 C 9.375,24.286 8.173,24.002 7.031,24.002 C 5.299,24.002 3.965,24.809 3.965,26.374 C 3.965,27.97 4.999,28.661 6.949,29.256 C 8.067,29.589 8.679,29.849 8.679,30.479 C 8.679,31.108 7.981,31.443 7.109,31.443 C 6.184,31.443 5.344,31.241 4.653,30.491 C 4.62,30.444 4.523,30.467 4.475,30.529 L 3.585,31.556 A 0.153,0.153 0 0,0 3.621,31.716 C 4.44,32.645 5.715,33.002 7,33.002 C 8.806,33.002 10.358,32.195 10.358,30.444 C 10.358,28.76 9.334,28.191 7.639,27.687 Z M 48.5,24 C 46.371,24 45,25.343 45,27.431 V 32.877 C 45.005,32.944 45.056,32.997 45.121,33.002 H 46.856 A 0.148,0.148 0 0,0 47,32.877 V 27.691 C 47,26.568 47.562,26 48.5,26 C 49.747,26 50,26.541 50,27.691 V 32.841 C 50,32.903 50.049,33.002 50.133,33.002 H 51.855 A 0.17,0.17 0 0,0 52,32.84 V 27.225 C 52,25.148 50.642,24 48.5,24 Z M 42.88,24 L 42.876,24.002 H 41.145 A 0.146,0.146 0 0,0 41,24.127 V 29.468 C 41,30.592 40.396,31 39.5,31 C 38.78,31 38,30.668 38,29.517 V 24.163 C 38,24.101 37.95,24.002 37.866,24.002 H 36.143 A 0.17,0.17 0 0,0 36,24.163 V 29.759 C 36,31.836 37.358,32.937 39.5,32.937 S 43,31.81 43,29.72 V 24.125 A 0.132,0.132 0 0,0 42.88,24 Z" fill="rgb(254, 254, 253)"/>
</svg>
