<?xml version="1.0" encoding="UTF-8"?>
<!-- generated by Finnhub -->
<svg viewBox="0 0 55.5 55.5" xmlns="http://www.w3.org/2000/svg">
<path d="M 0,0 H 55.5 V 55.5 H 0 Z" fill="rgb(239, 242, 248)"/>
<path d="M 27.99,33.485 V 28 L 33,30.75 L 28,33.5 Z" fill="rgb(138, 35, 135)"/>
<path d="M 22.99,30.735 L 28,28 V 33.5 L 23,30.75 Z" fill="rgb(45, 80, 156)"/>
<path d="M 32.99,30.735 L 28,28 L 33,25.25 V 30.75 Z" fill="rgb(228, 31, 40)"/>
<path d="M 22.99,25.235 L 28,28 L 23,30.75 V 25.25 Z" fill="rgb(41, 171, 226)"/>
<path d="M 27.99,27.985 V 22.5 L 33,25.25 L 28,28 Z" fill="rgb(240, 188, 16)"/>
<path d="M 22.99,25.235 L 28,22.5 V 28 L 23,25.25 Z" fill="rgb(162, 210, 36)"/>
<path d="M 27.99,36.985 V 46 L 24,39.25 L 28,37 Z" fill="rgb(70, 82, 168)"/>
<path d="M 27.99,36.985 V 46 L 32,39.25 L 28,37 Z" fill="rgb(77, 49, 149)"/>
<path d="M 27.99,45.985 L 20,41.5 L 24,39.25 L 28,46 Z" fill="rgb(40, 81, 162)"/>
<path d="M 27.99,45.985 L 36,41.5 L 32,39.25 L 28,46 Z" fill="rgb(139, 36, 136)"/>
<path d="M 23.99,39.255 L 20,32.5 L 28,37 L 24,39.27 Z" fill="rgb(60, 99, 176)"/>
<path d="M 31.99,39.255 L 36,32.5 L 28,37 L 32,39.27 Z" fill="rgb(172, 43, 147)"/>
<path d="M 19.99,41.485 V 32.5 L 24,39.25 L 20,41.5 Z" fill="rgb(36, 98, 176)"/>
<path d="M 35.99,41.485 V 32.5 L 32,39.25 L 36,41.5 Z" fill="rgb(209, 18, 127)"/>
<path d="M 19.99,41.485 L 12,37 L 15.96,34.78 L 20,41.5 Z" fill="rgb(50, 133, 181)"/>
<path d="M 19.99,32.485 L 15.96,34.78 L 20,41.5 V 32.5 Z" fill="rgb(43, 144, 207)"/>
<path d="M 35.99,41.485 L 44,37 L 40.04,34.78 L 36,41.5 Z" fill="rgb(228, 27, 132)"/>
<path d="M 35.99,32.485 L 40.04,34.78 L 36,41.5 V 32.5 Z" fill="rgb(213, 15, 110)"/>
<path d="M 15.950000000000001,34.765 L 20,32.5 L 12,28.2 L 15.96,34.78 Z" fill="rgb(54, 184, 237)"/>
<path d="M 40.03,34.765 L 36,32.5 L 44,28.2 L 40.04,34.78 Z" fill="rgb(229, 8, 134)"/>
<path d="M 11.99,36.985 L 15.96,34.78 L 12,28.2 V 37 Z" fill="rgb(41, 171, 224)"/>
<path d="M 43.99,36.985 L 40.04,34.78 L 44,28.2 V 37 Z" fill="rgb(230, 27, 120)"/>
<path d="M 19.99,32.485 L 12,28.2 L 16.37,25.69 L 20,32.5 Z" fill="rgb(75, 188, 194)"/>
<path d="M 35.99,32.485 L 44,28.2 L 39.63,25.69 L 36,32.5 Z" fill="rgb(231, 23, 83)"/>
<path d="M 19.99,32.485 V 23.6 L 16.37,25.69 L 20,32.5 Z" fill="rgb(92, 197, 165)"/>
<path d="M 35.99,32.485 V 23.6 L 39.63,25.69 L 36,32.5 Z" fill="rgb(234, 61, 52)"/>
<path d="M 11.99,28.185 V 19 L 16.37,25.69 L 12,28.2 Z" fill="rgb(62, 167, 124)"/>
<path d="M 43.99,28.185 V 19 L 39.63,25.69 L 44,28.2 Z" fill="rgb(228, 31, 40)"/>
<path d="M 11.99,18.985 H 20 V 23.6 L 16.37,25.69 L 12,19 Z" fill="rgb(61, 175, 74)"/>
<path d="M 43.99,18.985 L 36,23.6 L 39.63,25.69 L 44,19 Z" fill="rgb(230, 49, 41)"/>
<path d="M 43.99,18.985 H 36 V 23.6 L 44,19 Z" fill="rgb(234, 73, 42)"/>
<path d="M 19.99,18.985 H 28 L 20,23.6 V 19 Z" fill="rgb(160, 211, 38)"/>
<path d="M 35.99,18.985 H 28 L 36,23.6 V 19 Z" fill="rgb(234, 110, 46)"/>
<path d="M 19.99,18.985 H 12 L 20,14.5 V 19 Z" fill="rgb(95, 192, 70)"/>
<path d="M 35.99,18.985 H 44 L 36,14.5 V 19 Z" fill="rgb(243, 169, 34)"/>
<path d="M 27.99,18.985 H 20 V 14.5 L 28,19 Z" fill="rgb(193, 220, 24)"/>
<path d="M 27.99,18.985 H 36 V 14.5 L 28,19 Z" fill="rgb(243, 185, 21)"/>
<path d="M 27.99,14.485 V 19 L 20,14.5 H 28 Z" fill="rgb(239, 228, 19)"/>
<path d="M 27.99,14.485 V 19 L 36,14.5 H 28 Z" fill="rgb(249, 196, 5)"/>
<path d="M 27.99,14.485 H 20 L 28,10 V 14.5 Z" fill="rgb(253, 240, 2)"/>
<path d="M 27.99,14.485 H 36 L 28,10 V 14.5 Z" fill="rgb(247, 188, 16)"/>
</svg>
