<?xml version="1.0" encoding="UTF-8"?>
<!-- generated by Finnhub -->
<svg viewBox="0 0 55.5 55.5" xmlns="http://www.w3.org/2000/svg">
<path d="M 0,0 H 55.5 V 55.5 H 0 Z" fill="rgb(1, 88, 177)"/>
<path d="M 42.266000000000005,42.699 H 42.618 L 43.252,40.574 A 3.7,3.7 0 0,0 41.239,39.132 A 7.123,7.123 0 0,0 43.144,36.911 A 6.91,6.91 0 0,0 43.6,31.261 A 7.045,7.045 0 0,0 42.075,28.777 L 43.363,26.715 C 43.536,26.418 43.649,25.475 43.6,25.135 A 1.046,1.046 0 0,0 43.393,24.63 A 1.083,1.083 0 0,0 42.956,24.291 L 39.563,23.012 H 33.337 L 31,24.346 V 21 H 29.642 C 29.831,20.86 29.994,20.654 30.125,20.461 L 30.075,20.265 C 29.313,20.786 28.984,20.643 28.286,20.341 A 9.89,9.89 0 0,0 27.186,19.923 A 2.518,2.518 0 0,0 25.99,19.871 A 2.484,2.484 0 0,0 24.91,20.375 C 24.9,20.29 24.9,20.205 24.91,20.12 C 24.96,19.698 25.303,19.236 26.511,19.315 A 25.11,25.11 0 0,0 28.424,19.384 C 28.981,19.438 29.782,19.317 30.265,19.04 C 30.454,18.902 30.61,18.726 30.725,18.525 A 1.61,1.61 0 0,0 30.929,17.872 C 31,17.5 31,16.901 31,16.45 V 13 H 20 V 12.003 H 17.42 A 3.09,3.09 0 0,0 16.238,12.183 A 3.032,3.032 0 0,0 15.221,12.798 C 14.928,13.068 14.692,13.391 14.529,13.75 A 2.882,2.882 0 0,0 14.269,14.888 A 2.64,2.64 0 0,0 14.471,15.95 C 14.611,16.287 14.819,16.593 15.083,16.85 C 15.348,17.107 15.663,17.309 16.009,17.444 C 16.167,17.506 16.765,17.529 16.965,17.537 L 17,17.538 V 17.54 C 17.044,17.54 17.038,17.54 17,17.538 V 16.5 S 16.832,16.452 16.711,16.392 A 1.332,1.332 0 0,1 16.256,16.023 A 1.291,1.291 0 0,1 16.009,15.5 A 2.165,2.165 0 0,1 16.016,14.746 C 16.039,14.368 16.212,14.012 16.496,13.755 C 16.782,13.497 17.174,13.425 17.36,13.425 H 18 V 15 H 21 V 16.275 H 20.417 V 17 L 23,17.7 V 15 H 29 V 16.645 C 29.023,16.91 29.023,17.066 29,17.331 A 0.73,0.73 0 0,1 28.748,17.831 A 0.921,0.921 0 0,1 28.144,18.018 H 26.18 C 24.972,18.018 23.492,18.382 23.492,20.09 C 23.494,20.434 23.568,20.773 23.71,21.087 C 23.852,21.401 24.059,21.684 24.318,21.917 C 24.576,22.149 24.881,22.328 25.214,22.441 A 2.63,2.63 0 0,0 26.25,22.574 C 26.88,22.594 27.498,22.344 28.002,21.976 H 29 V 23.3 C 27.804,23.035 26.385,23.08 25.212,23.427 C 24.256,23.627 23.282,23.735 22.303,23.751 C 21.379,23.755 20.8,23.53 20.128,22.913 A 3.478,3.478 0 0,1 19,20.55 L 17.873,19.963 C 17.723,22.201 18.477,23.663 20.893,24.87 C 23.823,26.343 25.454,27.556 26.249,30 H 26.994 V 28.286 C 29.42,29.778 30.669,31.063 31.303,32.516 C 31.638,33.311 31.843,34.152 31.907,35.009 H 32.139 A 7.165,7.165 0 0,0 31.977,31.407 A 4.429,4.429 0 0,0 31.675,30.799 L 33.961,30.897 C 33.913,31.817 33.94,32.739 34.041,33.655 H 33.226 V 33.959 H 34.081 C 34.131,34.332 34.202,34.705 34.283,35.088 H 34.524 V 33.988 L 38.44,34.204 C 38.42,35.018 38.333,35.829 38.179,36.629 L 37.333,36.727 V 36.884 L 38.128,36.943 C 38.068,37.247 37.988,37.551 37.907,37.856 H 38.199 C 38.369,37.572 38.524,37.281 38.662,36.982 L 41.772,37.218 A 6.059,6.059 0 0,1 39.971,38.965 L 39.347,39.033 L 33.145,39.966 A 6.877,6.877 0 0,0 32.672,38.739 C 31.367,36.129 29.712,34.999 21.598,29.699 C 18.991,28.001 14.884,25.224 13.666,22.956 A 5.029,5.029 0 0,1 13.092,20.62 C 13.084,19.799 13.502,18.997 14,18.333 V 17.578 C 13.407,17.95 12.77,18.468 12.448,19.08 A 3.843,3.843 0 0,0 12.004,21.062 C 12.013,21.851 12.177,22.631 12.488,23.359 C 13.011,24.674 13.867,25.803 16.031,27.707 C 18.045,29.474 19.414,30.936 20.189,32.899 H 20.471 V 30.936 L 21.961,31.966 A 13.871,13.871 0 0,1 26.591,36.953 H 26.863 V 35.097 C 30.165,37.257 32.531,39.279 33.044,43.352 H 33.326 A 8.902,8.902 0 0,0 33.206,40.407 H 38.783 C 40.575,40.407 42.276,40.898 42.276,42.714 Z M 25.504,21.131 C 25.765,20.883 26.092,20.672 26.449,20.598 C 26.689,20.548 27.426,20.461 27.548,20.738 C 27.425,20.898 27.27,21.029 27.091,21.126 A 1.478,1.478 0 0,1 26.511,21.298 A 1.978,1.978 0 0,1 25.504,21.131 Z M 29.672,25.047 L 26.974,26.597 L 26.994,26.617 C 26.179,26.117 24.981,25.371 24.649,25.135 A 23.587,23.587 0 0,1 27.88,24.625 A 4.112,4.112 0 0,1 29.672,25.047 Z M 39.286,26.254 L 38.914,26.764 L 38.934,26.784 A 7.631,7.631 0 0,0 36.628,26.49 A 7.407,7.407 0 0,0 33.337,27.311 A 7.203,7.203 0 0,0 30.789,29.503 C 30.091,28.759 29.609,28.296 28.749,27.736 L 33.5,25 H 39.155 L 41.914,26.068 L 40.907,27.736 A 7.013,7.013 0 0,0 40.092,27.256 L 40.414,26.186 L 38.803,25.341 L 38.713,25.508 L 39.286,26.254 Z M 38.179,31.034 C 38.33,31.801 38.414,32.579 38.43,33.36 L 34.565,33.625 A 18.73,18.73 0 0,1 34.998,30.936 L 38.178,31.034 Z M 39.558,33.301 C 39.613,32.559 39.593,31.812 39.498,31.073 L 42.105,31.172 C 42.415,31.788 42.613,32.452 42.689,33.135 L 39.558,33.301 Z M 36.971,27.864 C 37.362,28.571 37.673,29.318 37.897,30.092 L 35.159,30.249 C 35.369,29.455 35.631,28.674 35.944,27.913 C 36.161,27.885 36.379,27.869 36.598,27.863 H 36.971 Z M 39.296,30.014 A 12.949,12.949 0 0,0 38.763,28.237 L 38.793,28.247 C 39.726,28.616 40.552,29.202 41.199,29.954 L 39.296,30.014 Z M 42.69,34.4 A 4.884,4.884 0 0,1 42.287,36.088 L 38.794,36.52 C 39.094,35.78 39.309,35.009 39.438,34.223 L 42.69,34.4 Z M 31.717,30.385 A 5.816,5.816 0 0,1 34.233,28.334 L 34.283,28.364 A 14.058,14.058 0 0,0 33.942,30.268 L 31.717,30.385 Z M 12.939,28.775 C 13.091,30.922 14.816,32.372 20.242,35.641 C 25.949,39.112 27.533,41.228 28,44 H 27.696 C 26.459,41.344 23.952,39.863 21.098,38.287 V 40.403 H 20.795 A 13.073,13.073 0 0,0 16.454,35.176 A 12.506,12.506 0 0,1 12.905,31.907 A 5.102,5.102 0 0,1 12.005,28.977 A 4.27,4.27 0 0,1 12.688,26.755 L 13.198,27.083 A 5.022,5.022 0 0,0 12.938,28.776 Z" fill="rgb(254, 220, 2)"/>
</svg>
