<?xml version="1.0" encoding="UTF-8"?>
<!-- generated by Finnhub -->
<svg viewBox="0 0 55.5 55.5" xmlns="http://www.w3.org/2000/svg">
<path d="M 0,0 H 55.5 V 55.5 H 0 Z" fill="rgb(6, 52, 142)"/>
<path d="M 34.482,18.518 C 36.402,19.068 38.27,19.603 40.18,19.892 H 41.55 C 42.38,19.892 42.92,19.603 43.71,19.356 H 44 C 44,19.645 44,19.645 43.71,19.892 C 42.63,20.715 41.55,21.251 40.47,21.498 C 40.18,21.498 39.64,21.786 39.391,21.786 C 38.021,22.321 36.401,22.321 35.073,22.321 C 32.374,22.033 29.924,21.251 27.225,21.251 C 24.775,20.962 22.367,22.074 20.997,23.927 C 20.707,24.998 20.167,26.069 20.167,27.139 C 20.167,28.21 21.787,28.499 22.326,29.281 L 23.156,30.887 C 23.446,31.957 23.986,33.028 24.776,34.099 C 25.316,34.634 25.856,35.458 26.686,35.705 C 27.766,36.529 28.596,37.311 29.136,38.382 C 29.676,39.452 30.215,40.276 30.506,41.347 C 30.796,41.882 31.046,42.417 31.046,43.241 V 43.529 C 31.336,44.064 31.336,44.599 31.586,44.889 V 45.176 C 31.586,45.465 31.876,46 31.586,46 C 31.046,45.465 30.755,44.93 30.506,44.394 C 30.215,43.324 29.426,42.253 28.596,41.182 C 28.056,40.647 27.516,39.823 26.976,39.288 C 24.817,36.858 21.578,35.252 19.129,33.111 C 19.129,33.111 19.129,32.822 18.839,32.575 C 18.547,32.04 18.299,31.752 18.008,31.216 C 17.468,30.146 16.638,29.075 16.098,27.716 C 16.098,27.181 15.807,26.646 15.807,26.11 V 25.822 C 15.807,25.286 14.437,24.998 15.267,23.927 C 15.807,23.392 17.427,22.857 17.967,21.786 V 21.251 S 17.967,20.962 17.676,20.962 S 16.596,21.498 16.596,20.674 V 19.851 C 16.886,19.315 16.886,18.78 16.886,18.244 C 16.886,17.956 17.177,17.956 17.426,17.956 C 17.676,17.956 18.256,17.668 18.506,17.668 C 19.336,17.668 20.416,17.668 20.956,18.203 C 21.246,18.739 20.956,19.274 20.956,19.809 C 20.956,20.345 20.416,20.633 20.665,20.88 H 21.205 C 22.285,20.056 23.364,18.986 24.443,17.915 C 25.273,17.091 26.603,16.845 27.683,17.091 C 30.132,17.174 32.042,17.997 34.492,18.533 Z" fill="rgb(240, 200, 47)"/>
<path d="M 28.252,22.8 C 28.552,23.351 28.262,23.639 27.972,24.175 C 26.602,26.069 26.062,28.457 25.272,30.64 H 24.982 C 24.692,30.64 24.692,30.351 24.692,30.104 C 24.692,27.674 25.522,25.534 26.602,23.392 C 26.892,23.104 27.142,22.568 27.681,22.857 C 27.971,22.568 27.971,22.815 28.262,22.815 Z M 32.041,23.351 C 32.331,24.174 31.75,24.71 31.501,25.492 C 30.131,28.169 28.511,30.846 27.722,33.81 C 27.722,33.81 27.722,34.099 27.432,34.099 H 27.142 C 26.851,33.028 27.142,31.669 27.432,30.599 C 28.262,28.169 29.052,25.78 30.422,23.351 C 30.712,23.351 30.712,23.062 30.712,23.062 C 31.21,23.104 31.75,23.104 32.041,23.351 Z M 35.819,23.639 C 36.109,23.927 36.109,24.463 35.819,24.709 C 34.199,28.21 31.75,31.175 30.67,34.922 L 29.84,37.352 C 29.84,37.64 29.55,37.64 29.55,37.352 C 29.259,37.064 29.55,36.528 29.55,36.282 C 29.84,33.316 30.629,30.392 32,27.962 C 32.539,26.604 33.37,25.533 33.91,24.215 C 34.2,23.927 34.449,23.392 34.989,23.392 C 35.279,23.351 35.57,23.351 35.819,23.639 Z M 40.179,23.886 C 40.469,24.421 40.179,24.71 40.179,25.245 C 39.099,27.922 37.189,30.351 35.861,33.028 C 34.491,35.169 33.701,37.599 32.871,39.74 C 32.581,40.564 32.331,41.1 32.041,41.882 H 31.75 C 31.46,41.594 31.46,41.346 31.46,41.058 C 31.75,38.093 32.83,35.705 33.91,32.987 C 35.28,30.022 36.899,27.345 38.227,24.38 C 38.518,24.092 38.767,23.557 39.307,23.31 C 39.597,23.35 39.888,23.35 40.179,23.886 Z" fill="rgb(240, 200, 47)"/>
</svg>
