<?xml version="1.0" encoding="UTF-8"?>
<!-- generated by Finnhub -->
<svg viewBox="0 0 55.5 55.5" xmlns="http://www.w3.org/2000/svg">
<path d="M 0,0 H 55.5 V 55.5 H 0 Z" fill="rgb(11, 52, 120)"/>
<path d="M 4.934,27.985 H 6.724 V 27.001 H 6.197 V 23.997 H 6.981 V 24.51 H 7.668 V 23 H 4 V 24.51 H 4.687 V 23.997 H 5.471 V 27 H 4.944 V 28 Z M 8,28 H 9.79 V 27 H 9.263 V 25.726 H 11.216 V 27 H 10.689 V 28 H 12.424 V 27 H 11.942 V 24 H 12.424 V 23 H 10.689 V 24 H 11.216 V 25.026 H 9.263 V 24 H 9.79 V 23 H 8 V 24 H 8.537 V 27 H 8 V 28 Z M 12.899,28 H 16.059 V 26.659 H 15.366 V 27 H 14.106 V 25.711 H 15.385 V 25.033 H 14.107 V 24 H 15.359 V 24.411 H 16.053 V 23 H 12.9 V 24 H 13.382 V 27 H 12.9 V 28 Z M 18.018,28 H 19.778 C 21.013,28 21.353,27.389 21.353,26.512 C 21.353,25.932 21.057,25.514 20.53,25.344 C 20.948,25.189 21.25,24.842 21.25,24.305 C 21.25,23.606 20.742,23 19.708,23 H 18.018 V 24 H 18.5 V 27 H 18.018 V 28 Z M 19.22,27 V 25.69 H 19.772 C 20.318,25.69 20.634,25.957 20.634,26.387 C 20.634,26.833 20.293,27 19.791,27 H 19.22 Z M 19.22,25 V 24 H 19.695 C 20.209,24 20.48,24.106 20.48,24.502 C 20.48,24.904 20.222,25 19.714,25 H 19.22 Z M 24.148,28 C 25.433,28 26.318,26.84 26.318,25.477 C 26.318,24.121 25.427,23 24.148,23 C 22.863,23 22,24.113 22,25.477 C 22,26.834 22.87,28 24.148,28 Z M 24.148,27 C 23.566,26.988 23,26.445 23,25.477 C 23,24.502 23.54,24 24.148,24 C 24.756,24 25.338,24.51 25.338,25.477 C 25.338,26.452 24.73,27.012 24.148,27 Z M 28.136,28 C 29.003,28 29.626,27.498 29.626,26.615 C 29.626,25.753 29.093,25.28 28.335,24.984 C 27.911,24.814 27.682,24.701 27.682,24.32 C 27.682,23.98 27.902,23.776 28.225,23.776 C 28.489,23.776 28.7,23.827 28.837,24 A 0.45,0.45 0 0,0 28.792,24.219 C 28.792,24.452 28.959,24.692 29.255,24.692 C 29.499,24.692 29.685,24.502 29.685,24.17 C 29.685,23.611 29.015,22.998 28.225,22.998 C 27.371,22.998 26.825,23.578 26.825,24.32 C 26.825,25.181 27.339,25.64 28.123,25.951 C 28.547,26.114 28.778,26.294 28.778,26.676 C 28.778,27.079 28.585,27.195 28.123,27.195 C 27.846,27.195 27.63,26.987 27.476,26.867 A 0.646,0.646 0 0,0 27.534,26.584 A 0.46,0.46 0 0,0 27.071,26.125 C 26.808,26.125 26.628,26.344 26.628,26.676 C 26.628,27.241 27.3,28 28.136,28 Z M 30.969,28 H 32.749 V 27 H 32.222 V 24 H 33.006 V 24.51 H 33.693 V 23 H 30.025 V 24.51 H 30.712 V 24 H 31.496 V 27 H 30.969 V 28 Z M 36.184,28 C 37.469,28 38.328,26.84 38.328,25.477 C 38.328,24.121 37.475,22.998 36.196,22.998 C 34.911,22.998 33.987,24.113 33.987,25.478 C 33.987,26.833 34.905,28 36.184,28 Z M 36.196,27 C 35.582,26.997 35,26.445 35,25.477 C 35,24.502 35.522,24 36.184,24 C 36.845,24 37.341,24.51 37.341,25.477 C 37.341,26.452 36.811,27.003 36.196,27 Z M 42.374,28.021 L 42.766,28.007 V 24 L 43.154,23.998 V 22.998 H 41.61 V 23.998 L 42,24 V 26.001 L 40,23 H 39 V 24 H 39.361 V 27 H 39 V 28 H 40.485 V 27 H 40.068 V 24.524 L 42.374,28.021 Z M 4,34 H 5.85 C 6.878,34 7.444,33.384 7.444,32.614 C 7.444,32.034 7.129,31.442 6.602,31.273 C 7.02,31.117 7.322,30.771 7.322,30.234 C 7.322,29.534 6.814,29 5.78,29 H 4 V 30 H 4.572 V 33 H 4 V 34 Z M 5.291,33 V 31.872 H 5.844 C 6.39,31.872 6.657,32.035 6.657,32.466 C 6.657,32.911 6.364,33 5.863,33 H 5.291 Z M 5.291,30.983 V 30 H 5.767 C 6.281,30 6.602,30.09 6.602,30.485 C 6.602,30.888 6.294,30.983 5.786,30.983 H 5.291 Z M 8,34 H 11 V 32.672 H 10.378 V 33 H 9.118 L 9.125,32 H 10.403 V 31.215 H 9.125 V 30 H 10.378 V 30.328 H 11 V 29 H 8 V 30 H 8.399 L 8.393,33 H 7.993 L 8,34 Z M 15.333,33.998 H 17.068 V 33 H 16.541 V 32.154 C 16.631,32.162 16.753,32.162 16.888,32.162 C 16.971,32.162 17.055,32.154 17.145,32.148 L 17.993,33.998 H 19 V 33 H 18.487 L 17.839,31.936 C 18.301,31.731 18.635,31.006 18.635,30.406 C 18.635,29.459 17.941,29 16.971,29 H 15.333 V 30 H 15.815 V 33 H 15.333 V 33.998 Z M 16.952,31.229 C 16.721,31.229 16.618,31.222 16.541,31.215 V 30 H 16.933 C 17.517,30 17.838,30.136 17.838,30.624 C 17.838,31.111 17.498,31.229 16.952,31.229 Z M 23.022,33.998 C 23.697,33.998 24.438,33.638 24.849,33.137 L 24.256,32.478 C 23.941,32.853 23.516,33 23.022,33 C 22.332,32.936 21.845,32.522 21.845,31.59 C 21.845,30.622 22.231,30 23,30 C 23.386,30 23.69,30.13 23.812,30.236 A 0.627,0.627 0 0,0 23.767,30.476 C 23.767,30.78 23.967,30.978 24.256,30.978 C 24.519,30.978 24.718,30.745 24.718,30.406 C 24.718,29.848 23.983,29 23,29 C 21.767,29 20.786,30.19 20.786,31.59 C 20.786,33.038 21.718,33.999 23.022,33.999 Z M 27.231,33.998 C 28.516,33.998 29.504,32.855 29.504,31.491 C 29.504,30.134 28.51,29 27.231,29 C 25.946,29 25.02,30.113 25.02,31.477 C 25.02,32.833 25.953,33.998 27.231,33.998 Z M 27.231,33 C 26.593,33 26,32.445 26,31.477 C 26,30.502 26.593,30 27.231,30 C 27.869,30 28.462,30.523 28.462,31.49 C 28.462,32.466 27.869,33 27.232,33 Z M 30,34 H 31.666 V 33 H 31.159 L 31.242,30.805 L 32.442,33 H 32.539 L 33.754,30.805 L 33.838,33 H 33.33 V 34 H 35 V 33 H 34.564 L 34.4,30 H 35 V 29 H 33.776 L 32.512,31.66 L 31.18,29 H 30 V 30 H 30.551 L 30.446,33 H 30 V 34 Z M 35.516,34 H 37.251 V 33 H 36.724 V 32.367 C 36.814,32.374 36.936,32.374 37.135,32.374 C 38.131,32.374 38.819,31.586 38.819,30.519 C 38.819,29.572 38.125,29 37.219,29 H 35.516 V 30 H 35.998 V 33 H 35.516 V 34 Z M 37.2,31.49 A 4.9,4.9 0 0,1 36.724,31.477 V 30 H 37.18 C 37.7,30 38.022,30.321 38.022,30.706 C 38.022,31.091 37.746,31.491 37.2,31.491 Z M 38.775,34 H 40.401 V 33 H 39.887 L 40.124,32.444 H 41.704 L 41.943,33 H 41.454 V 34 H 43.08 V 33 H 42.714 L 41.646,30 H 42.109 V 29 H 39.719 V 30 H 40.181 L 39.141,33 H 38.775 V 34 Z M 40.324,31.78 L 40.946,30 L 41.506,31.78 H 40.324 Z M 46.898,34 H 47.29 V 30 H 47.752 V 29 H 46 V 30 H 46.583 V 32.004 L 44.502,29 H 43.402 V 30 H 43.885 V 33 H 43.403 V 34 H 45.118 V 33 H 44.591 V 30.706 L 46.898,34 Z M 49,34 H 51 V 33 H 50.375 V 32.14 L 51.562,30 H 52 V 29 H 50.386 V 30 H 50.785 L 50.028,31.47 L 49.237,30 H 49.609 V 29 H 48 V 30 H 48.433 L 49.649,32.14 V 33 H 49 V 34 Z M 11.619,33.998 H 14.619 V 32.67 H 13.996 V 33 H 12.737 L 12.743,32 H 14.022 V 31.213 H 12.743 V 30 H 13.996 V 30.327 H 14.619 V 28.998 H 11.619 V 30 H 12.018 L 12.011,33 H 11.612 L 11.619,33.998 Z" fill="rgb(254, 254, 253)"/>
</svg>
