<?xml version="1.0" encoding="UTF-8"?>
<!-- generated by Finnhub -->
<svg viewBox="0 0 55.5 55.5" xmlns="http://www.w3.org/2000/svg">
<path d="M 0,0 H 55.5 V 55.5 H 0 Z" fill="rgb(233, 28, 35)"/>
<path d="M 34.99,24.985 C 34.927,23.843 34.648,22.415 34.063,21.412 L 29.095,12.236 A 8.142,8.142 0 0,1 28.292,10 L 28.072,10.386 C 26.831,12.622 26.831,15.475 28.072,17.711 L 32.091,25.036 C 33.333,27.272 33.333,30.126 32.091,32.361 L 31.871,32.747 A 8.147,8.147 0 0,0 31.068,30.511 L 27.415,23.802 L 25.077,19.484 A 8.142,8.142 0 0,1 24.274,17.248 L 24.054,17.634 C 22.812,19.87 22.812,22.646 24.054,24.959 L 28.073,32.284 C 29.314,34.52 29.314,37.374 28.073,39.61 L 27.853,39.995 A 8.144,8.144 0 0,0 27.05,37.759 L 22.009,28.583 C 21.35,27.35 21,26.388 21,25 C 15.667,26.465 12,29.2 12,32.824 C 12,37.914 19.16,42 28,42 C 36.84,42 43.999,37.913 43.999,32.824 C 44.072,29.354 40.406,26.465 35,25 Z" fill="rgb(254, 254, 253)"/>
</svg>
