<?xml version="1.0" encoding="UTF-8"?>
<!-- generated by Finnhub -->
<svg viewBox="0 0 55.5 55.5" xmlns="http://www.w3.org/2000/svg">
<path d="M 0,0 H 55.5 V 55.5 H 0 Z" fill="rgb(0, 180, 237)"/>
<path d="M 8.99,40.985 V 19.003 H 52 L 31.5,41 H 9 Z M 33.834,29.527 H 34.766 C 36.01,29.527 37,29.1 37,27.74 C 37,26.424 36.009,26 34.765,26 H 33.833 V 29.526 Z M 23.378,31.798 C 23.778,31.954 24.241,32.047 24.734,32.047 H 24.736 C 25.218,32.047 25.668,31.957 26.064,31.81 L 24.75,27.42 H 24.72 L 23.378,31.798 Z M 30,23 H 34.519 C 38.565,23 40.465,24.632 40.465,27.882 C 40.465,30.802 38.508,32.541 35.203,32.541 H 34 V 37 H 27.562 L 26.942,34.735 A 6.876,6.876 0 0,1 24.735,35.085 A 6.874,6.874 0 0,1 22.477,34.715 L 21.704,37 H 17.861 L 18.411,35.57 L 18.256,35.71 C 17.297,36.506 16.098,36.97 14.613,37 H 14.393 C 12.686,37 11.014,36.487 9.602,35.656 L 10.909,32.97 C 12.325,33.836 13.215,34.029 14.414,34.004 C 15.036,33.99 15.486,33.874 15.778,33.559 C 15.956,33.37 16.048,33.132 16.058,32.879 C 16.068,32.18 15.108,31.853 13.933,31.478 C 12.98,31.168 11.9,30.756 11.055,30.115 C 10.055,29.354 9.578,28.402 9.602,27.061 A 3.77,3.77 0 0,1 10.614,24.506 C 11.546,23.512 13.047,23 14.848,23 H 14.858 C 16.402,23 18.289,23.36 19.651,24.08 L 18.181,26.729 C 16.688,25.982 15.936,25.911 15.083,25.866 C 13.819,25.796 13.177,26.264 13.168,26.768 C 13.157,27.385 14.368,27.942 15.507,28.321 C 17.234,28.887 19.431,29.646 19.765,31.839 L 22.924,23 H 26.589 L 30,33.546 V 23 Z" fill="rgb(254, 254, 253)" fill-rule="evenodd"/>
</svg>
