<?xml version="1.0" encoding="UTF-8"?>
<!-- generated by Finnhub -->
<svg viewBox="0 0 55.5 55.5" xmlns="http://www.w3.org/2000/svg">
<path d="M 0,0 H 55.5 V 55.5 H 0 Z" fill="rgb(239, 242, 248)"/>
<path d="M 33.99,10.985 H 22 L 28,21 L 34,11 Z" fill="rgb(249, 175, 68)"/>
<path d="M 27.99,20.985 H 16 L 22,11 L 28,21 Z" fill="rgb(252, 230, 137)"/>
<path d="M 21.99,30.985 H 10 L 16,21 L 22,31 Z" fill="rgb(246, 172, 171)"/>
<path d="M 27.99,40.985 H 16 L 22,31 L 28,41 Z" fill="rgb(229, 63, 137)"/>
<path d="M 45.99,30.985 H 34 L 40,21 L 46,31 Z" fill="rgb(202, 233, 239)"/>
<path d="M 39.99,20.985 H 28 L 34,11 L 40,21 Z" fill="rgb(239, 234, 110)"/>
<path d="M 39.99,40.985 H 28 L 34,31 L 40,41 Z" fill="rgb(151, 127, 184)"/>
<path d="M 27.99,20.985 H 16 L 22,31 L 28,21 Z" fill="rgb(241, 115, 105)"/>
<path d="M 21.99,30.985 H 10 L 16,41 L 22,31 Z" fill="rgb(239, 112, 165)"/>
<path d="M 39.99,20.985 H 28 L 34,31 L 40,21 Z" fill="rgb(159, 217, 228)"/>
<path d="M 33.99,30.985 H 22 L 28,41 L 34,31 Z" fill="rgb(202, 32, 37)"/>
<path d="M 45.99,30.985 H 34 L 40,41 L 46,31 Z" fill="rgb(132, 150, 202)"/>
</svg>
