<?xml version="1.0" encoding="UTF-8"?>
<!-- generated by Finnhub -->
<svg viewBox="0 0 55.5 55.5" xmlns="http://www.w3.org/2000/svg">
<path d="M 0,0 H 55.5 V 55.5 H 0 Z" fill="rgb(239, 242, 248)"/>
<path d="M 19.99,24.015 C 20,21.805 18.277,19.994 16.079,19.994 C 15.512,19.994 15,20.433 15,21.008 C 15,21.592 15.512,22 16.079,22 C 17.127,22 18,22.955 18,24.021 C 18,25.087 17.127,26 16.079,26 H 13.512 C 13.766,26.262 14,26.61 14,27.008 C 14,27.439 13.806,27.738 13.51,28 H 16.087 C 18.277,28 20,26.255 20,24.03 Z" fill="rgb(169, 152, 103)"/>
<path d="M 5.99,34.985 C 6,35.517 6.449,36 6.983,36 H 9.768 C 11.834,36 13.5,34.394 13.5,32.418 C 13.5,30.434 11.826,28.821 9.752,28.821 A 0.918,0.918 0 0,0 8.822,29.755 C 8.822,30.272 9.217,30.689 9.752,30.689 C 10.742,30.689 11.6,31.461 11.6,32.41 C 11.6,33.36 10.741,34 9.752,34 H 6.975 C 6.45,34 6,34.483 6,35 Z" fill="rgb(149, 150, 151)"/>
<path d="M 19.99,17.993 C 20,17.424 19.582,17 19.01,17 H 16.029 C 13.816,17 12,18.818 12,21.043 C 12,23.277 13.592,25 15.813,25 C 16.385,25 17,24.575 17,24 S 16.618,23 16.046,23 C 14.986,23 14,22.118 14,21.052 C 14,19.986 14.987,19 16.046,19 H 19.018 C 19.582,19 20,18.583 20,18.008 Z M 13.5,27.008 C 13.5,26.483 13.07,26 12.536,26 H 9.752 C 7.685,26 6,27.683 6,29.698 C 6,31.721 7.693,33.358 9.768,33.358 C 10.302,33.358 10.698,32.933 10.698,32.4 A 0.937,0.937 0 0,0 9.768,31.443 C 8.778,31.443 8,30.656 8,29.691 S 8.77,28 9.76,28 H 12.536 C 13.071,28 13.5,27.533 13.5,27.008 Z"/>
<path d="M 23.983999999999998,27.054 C 23.702,26.674 23.542,26.104 23.542,25.329 L 23.549,21.779 C 23.549,21.545 23.622,21.245 23.761,21.15 C 23.899,21.055 24.081,21.004 24.314,21.004 A 1.62,1.62 0 0,1 24.908,21.112 C 24.95,21.126 24.981,21.135 24.999,21.142 V 23.524 C 25.344,23.178 25.852,23.004 26.333,23.004 C 26.959,23.004 27.513,23.268 27.921,23.692 C 28.333,24.12 28.576,24.744 28.576,25.482 C 28.576,26.162 28.37,26.855 27.863,27.332 C 27.411,27.756 26.784,28.004 26.07,28.004 C 25.2,28.004 24.462,27.684 23.994,27.069 Z M 25,25.589 C 25,25.918 25.098,26.17 25.286,26.359 C 25.474,26.548 25.711,26.639 26.004,26.632 C 26.296,26.632 26.534,26.541 26.722,26.345 C 26.91,26.156 26.999,25.897 26.999,25.582 S 26.909,25.008 26.722,24.805 A 0.93,0.93 0 0,0 26.004,24.504 A 0.966,0.966 0 0,0 25.286,24.819 C 25.196,24.917 25.126,25.029 25.076,25.162 A 1.222,1.222 0 0,0 25,25.589 Z M 44.5,27.264 C 44.5,27.751 44.456,28.474 44.331,28.816 C 44.073,29.816 43.171,30.304 42.111,30.304 C 41.538,30.304 40.549,30.299 39.999,30.149 V 31.004 H 41.086 C 41.646,31.004 41.851,31.273 41.851,31.729 C 41.851,31.989 41.779,32.236 41.667,32.468 H 40 V 33.899 C 40,34.329 40.286,34.576 40.697,34.576 C 40.957,34.576 41.246,34.501 41.47,34.356 L 42.026,35.363 C 41.512,35.828 41.068,36.003 40.358,36.003 C 39.784,36.003 39.335,35.831 39.011,35.512 C 38.687,35.192 38.501,34.767 38.501,34.234 V 29.332 C 38.501,28.862 38.773,28.647 39.24,28.647 C 39.607,28.647 40.069,28.736 40.533,28.824 C 41.001,28.914 41.471,29.004 41.848,29.004 C 42.318,29.004 42.634,28.976 42.84,28.763 C 43.014,28.589 43.008,28.195 43.002,27.783 A 15.714,15.714 0 0,1 43,27.556 C 42.75,27.884 42.247,28.004 41.848,28.004 C 40.495,28.004 39.589,27.291 39.589,26.156 V 23.72 C 39.589,23.228 40.065,23.004 40.506,23.004 C 40.736,23.004 40.776,23.021 40.976,23.104 L 41,23.114 V 25.792 C 41,26.342 41.389,26.707 42.036,26.707 S 43,26.214 43,25.792 V 23.72 C 43,23.274 43.367,23.004 43.81,23.004 C 44.039,23.004 44.288,23.026 44.5,23.114 V 27.264 Z M 14,34.313 C 14,34.83 14.206,35.243 14.555,35.546 C 14.904,35.856 15.387,36.004 16.005,36.004 C 16.22,36.004 16.434,35.982 16.632,35.944 A 3.383,3.383 0 0,0 17.567,35.619 C 17.678,35.561 17.766,35.502 17.829,35.45 L 17.203,34.424 A 2.047,2.047 0 0,1 16.878,34.557 C 16.728,34.608 16.561,34.637 16.37,34.637 C 16.275,34.637 16.188,34.63 16.1,34.616 A 0.663,0.663 0 0,1 15.863,34.52 A 0.634,0.634 0 0,1 15.689,34.32 A 0.677,0.677 0 0,1 15.579,33.98 V 32.404 H 17.377 A 1.58,1.58 0 0,0 17.575,31.669 C 17.575,31.227 17.353,31.004 16.751,31.004 H 15.58 V 29.144 L 15.554,29.134 C 15.517,29.12 15.462,29.099 15.348,29.063 A 1.96,1.96 0 0,0 14.864,29.003 C 14.61,29.003 14.412,29.056 14.262,29.152 A 0.586,0.586 0 0,0 14,29.662 V 34.313 Z M 47.5,36.003 H 49 V 33.277 C 49,32.767 49.279,32.367 49.825,32.367 C 50.175,32.367 50.474,32.474 50.678,32.58 C 50.868,32.382 51,32.12 51,31.837 C 51,31.64 50.962,31.512 50.845,31.39 C 50.523,31.055 49.99,31.004 49.555,31.004 C 48.958,31.004 48.455,31.178 48.105,31.512 C 47.756,31.845 47.5,32.337 47.5,32.959 V 36.004 Z M 22.5,36.003 H 21 V 25.593 C 21,25.377 21.107,25.227 21.246,25.135 C 21.384,25.05 21.566,25.004 21.8,25.004 C 21.96,25.004 22.113,25.024 22.244,25.056 C 22.359,25.089 22.435,25.117 22.478,25.133 L 22.5,25.142 V 36.004 Z M 22.625,23.776 A 0.738,0.738 0 0,0 22.392,23.228 A 0.818,0.818 0 0,0 21.809,23.005 A 0.789,0.789 0 0,0 21.233,23.228 A 0.738,0.738 0 0,0 21,23.776 C 21,23.992 21.08,24.175 21.233,24.323 C 21.386,24.473 21.583,24.54 21.809,24.54 A 0.842,0.842 0 0,0 22.391,24.324 A 0.737,0.737 0 0,0 22.625,23.776 Z M 35.852,28.004 H 34.388 V 25.058 C 34.388,24.148 34.942,23.424 35.808,23.135 C 36.085,23.05 36.384,23.004 36.704,23.004 C 37.018,23.004 37.316,23.042 37.6,23.134 C 38.477,23.419 39,24.152 39,25.058 V 28.004 H 37.55 V 25.412 C 37.55,24.735 37.244,24.419 36.704,24.419 C 36.136,24.419 35.852,24.75 35.852,25.412 V 28.004 Z M 33.319,24.065 C 33.45,24.322 33.516,24.651 33.516,25.039 V 27.85 C 33.479,27.865 33.392,27.88 33.268,27.894 L 33.071,27.915 L 32.794,27.945 C 32.604,27.96 32.386,27.975 32.139,27.989 C 31.891,27.997 31.636,28.004 31.359,28.004 C 30.9,28.004 30.521,27.96 30.215,27.879 C 29.909,27.799 29.669,27.689 29.487,27.543 A 1.127,1.127 0 0,1 29.107,27.045 A 1.656,1.656 0 0,1 28.999,26.445 C 28.999,25.874 29.181,25.464 29.538,25.222 C 29.895,24.98 30.463,24.856 31.235,24.856 C 31.432,24.856 31.592,24.856 31.723,24.863 C 31.855,24.871 31.913,24.878 32,24.893 C 32,24.673 31.956,24.505 31.782,24.38 C 31.607,24.263 31.322,24.197 30.922,24.197 A 2.77,2.77 0 0,0 30.062,24.307 A 2.36,2.36 0 0,0 29.822,24.402 A 0.54,0.54 0 0,0 29.698,24.475 C 29.689,24.471 29.678,24.458 29.661,24.44 A 0.854,0.854 0 0,1 29.516,24.256 A 1.255,1.255 0 0,1 29.414,24.058 A 0.649,0.649 0 0,1 29.37,23.817 C 29.37,23.275 29.91,23.004 30.987,23.004 C 31.337,23.004 31.672,23.034 31.978,23.099 C 32.284,23.165 32.554,23.275 32.78,23.436 C 33.013,23.596 33.188,23.802 33.319,24.066 Z M 31.406,27.005 C 31.596,27.005 31.825,27.005 32,26.947 V 25.951 L 31.928,25.941 C 31.505,25.879 30.974,25.801 30.623,26.076 C 30.493,26.178 30.456,26.324 30.456,26.471 C 30.456,26.595 30.491,26.718 30.601,26.815 C 30.787,26.978 31.12,27.004 31.351,27.004 H 31.406 Z M 44.046,34.133 C 44.636,34.133 45.121,34.096 45.503,34.03 C 45.885,33.964 46.188,33.862 46.411,33.738 A 1.07,1.07 0 0,0 46.873,33.27 C 46.96,33.087 47,32.883 47,32.649 C 47,32.437 46.952,32.232 46.849,32.035 A 1.794,1.794 0 0,0 46.403,31.501 A 2.29,2.29 0 0,0 45.686,31.135 A 3.274,3.274 0 0,0 44.723,31.004 C 44.341,31.004 43.983,31.062 43.648,31.187 A 2.823,2.823 0 0,0 42.78,31.691 C 42.533,31.911 42.342,32.173 42.207,32.481 C 42.064,32.787 42,33.131 42,33.504 C 42,33.899 42.072,34.257 42.207,34.564 C 42.342,34.871 42.533,35.134 42.78,35.346 C 43.02,35.558 43.306,35.726 43.632,35.836 C 43.959,35.946 44.301,36.004 44.675,36.004 C 44.97,36.004 45.248,35.982 45.495,35.945 C 45.742,35.902 45.957,35.858 46.148,35.799 C 46.331,35.741 46.49,35.689 46.61,35.631 C 46.73,35.573 46.817,35.529 46.873,35.499 L 46.315,34.461 A 0.498,0.498 0 0,1 46.188,34.527 C 46.116,34.557 46.021,34.593 45.909,34.622 A 6.36,6.36 0 0,1 45.511,34.71 C 45.36,34.74 45.193,34.754 45.025,34.754 C 44.803,34.754 44.612,34.739 44.452,34.695 A 1.44,1.44 0 0,1 44.062,34.549 A 1.054,1.054 0 0,1 43.823,34.352 A 0.551,0.551 0 0,1 43.72,34.132 H 44.046 Z M 43.696,32.803 A 0.88,0.88 0 0,1 43.903,32.481 A 0.96,0.96 0 0,1 44.237,32.254 C 44.373,32.195 44.524,32.166 44.707,32.166 C 44.962,32.166 45.145,32.217 45.272,32.312 C 45.4,32.407 45.463,32.524 45.463,32.649 A 0.505,0.505 0 0,1 45.423,32.831 C 45.4,32.89 45.32,32.948 45.209,32.999 C 45.089,33.051 44.906,33.087 44.659,33.116 C 44.412,33.146 44.07,33.16 43.624,33.16 C 43.624,33.043 43.648,32.92 43.696,32.802 Z M 48.503,26.03 A 8.792,8.792 0 0,1 47.046,26.133 H 46.72 A 0.551,0.551 0 0,0 46.823,26.352 C 46.879,26.418 46.959,26.483 47.063,26.549 C 47.166,26.608 47.293,26.659 47.453,26.695 C 47.611,26.739 47.803,26.754 48.025,26.754 C 48.193,26.754 48.36,26.739 48.511,26.71 A 6.36,6.36 0 0,0 48.909,26.622 C 49.021,26.593 49.116,26.556 49.188,26.527 A 0.498,0.498 0 0,0 49.315,26.461 L 49.873,27.5 C 49.817,27.529 49.729,27.573 49.61,27.631 C 49.49,27.69 49.331,27.741 49.148,27.799 A 5.614,5.614 0 0,1 48.495,27.945 A 5.644,5.644 0 0,1 47.675,28.004 C 47.301,28.004 46.959,27.945 46.632,27.836 A 2.455,2.455 0 0,1 45.78,27.346 A 2.172,2.172 0 0,1 45.207,26.564 A 2.622,2.622 0 0,1 45,25.504 C 45,25.131 45.064,24.788 45.207,24.48 C 45.342,24.174 45.533,23.91 45.78,23.691 C 46.027,23.479 46.314,23.311 46.648,23.187 A 3.059,3.059 0 0,1 47.723,23.004 C 48.081,23.004 48.4,23.048 48.686,23.135 C 48.965,23.223 49.204,23.347 49.403,23.501 C 49.593,23.661 49.745,23.837 49.849,24.035 C 49.952,24.232 50,24.437 50,24.649 C 50,24.883 49.96,25.087 49.873,25.27 A 1.07,1.07 0 0,1 49.411,25.738 C 49.188,25.862 48.885,25.964 48.503,26.03 Z M 46.903,24.48 A 0.88,0.88 0 0,0 46.696,24.802 A 0.958,0.958 0 0,0 46.624,25.16 C 47.07,25.16 47.412,25.146 47.659,25.116 C 47.906,25.087 48.089,25.051 48.209,25 C 48.32,24.948 48.399,24.89 48.424,24.831 A 0.505,0.505 0 0,0 48.464,24.649 C 48.464,24.524 48.4,24.407 48.272,24.312 C 48.145,24.217 47.962,24.166 47.707,24.166 C 47.524,24.166 47.373,24.196 47.237,24.254 A 0.96,0.96 0 0,0 46.903,24.48 Z M 29.383,33.376 L 28.649,36.004 H 27.277 S 26.285,33.498 25.868,32.201 A 1.677,1.677 0 0,1 25.788,31.689 C 25.788,31.251 26.117,31.004 26.532,31.004 C 26.742,31.004 26.985,31.04 27.168,31.154 C 27.435,32.134 27.974,34.004 27.974,34.004 S 28.369,32.554 28.634,31.659 C 28.754,31.259 28.965,31.004 29.404,31.004 C 29.641,31.004 29.876,31.098 30.087,31.2 L 30.857,34.004 S 31.253,32.642 31.467,31.893 C 31.539,31.591 31.648,31.373 31.772,31.23 C 31.975,30.994 32.402,30.966 32.687,31.057 C 32.869,31.115 33.025,31.189 33.187,31.29 L 31.517,36.004 H 30.123 L 29.383,33.376 Z M 18.5,36.004 H 20 V 31.148 C 19.988,31.143 19.98,31.138 19.97,31.131 A 0.58,0.58 0 0,0 19.825,31.065 A 1.375,1.375 0 0,0 19.381,31.004 C 19.148,31.004 18.966,31.057 18.827,31.164 C 18.689,31.27 18.5,31.452 18.5,31.702 V 36.004 Z M 25,36.004 H 23.5 V 29.674 C 23.5,29.433 23.651,29.252 23.79,29.154 C 23.928,29.057 24.11,29.004 24.343,29.004 C 24.503,29.004 24.657,29.026 24.788,29.064 C 24.892,29.1 24.941,29.122 24.976,29.136 C 24.985,29.14 24.992,29.144 25,29.146 V 36.004 Z M 19.32,29.004 A 0.78,0.78 0 0,0 18.745,29.231 A 0.758,0.758 0 0,0 18.512,29.789 C 18.512,30.009 18.592,30.196 18.745,30.34 C 18.898,30.492 19.095,30.56 19.321,30.56 A 0.846,0.846 0 0,0 19.904,30.34 A 0.707,0.707 0 0,0 20.137,29.79 C 20.137,29.569 20.057,29.383 19.904,29.231 A 0.822,0.822 0 0,0 19.321,29.004 Z M 38,33.039 C 38,32.651 37.934,32.322 37.803,32.065 A 1.617,1.617 0 0,0 37.264,31.435 A 2.142,2.142 0 0,0 36.463,31.099 A 4.742,4.742 0 0,0 35.472,31.004 C 34.394,31.004 33.855,31.274 33.855,31.817 C 33.855,31.904 33.869,31.985 33.898,32.058 A 1.247,1.247 0 0,0 34.145,32.44 C 34.161,32.458 34.173,32.47 34.182,32.475 A 0.544,0.544 0 0,1 34.306,32.402 A 2.36,2.36 0 0,1 34.546,32.307 A 2.77,2.77 0 0,1 34.911,32.227 C 35.057,32.205 35.217,32.197 35.406,32.197 C 35.807,32.197 36.091,32.263 36.266,32.38 C 36.441,32.505 36.484,32.673 36.484,32.893 A 2.167,2.167 0 0,0 36.208,32.863 C 36.077,32.856 35.916,32.856 35.72,32.856 C 34.947,32.856 34.38,32.98 34.022,33.222 C 33.665,33.464 33.482,33.874 33.482,34.445 C 33.482,34.657 33.519,34.855 33.592,35.045 C 33.665,35.235 33.789,35.404 33.972,35.543 C 34.153,35.689 34.394,35.799 34.7,35.88 C 35.006,35.96 35.384,36.004 35.843,36.004 C 36.12,36.004 36.375,35.997 36.623,35.989 C 36.871,35.975 37.089,35.96 37.279,35.945 L 37.555,35.915 L 37.752,35.895 C 37.876,35.879 37.964,35.865 38,35.85 V 33.04 Z M 36.484,34.947 C 36.309,35.005 36.081,35.005 35.891,35.004 H 35.836 C 35.604,35.004 35.271,34.978 35.086,34.814 A 0.435,0.435 0 0,1 34.94,34.471 C 34.94,34.324 34.977,34.178 35.108,34.076 C 35.458,33.801 35.99,33.879 36.413,33.941 L 36.484,33.951 V 34.947 Z" clip-rule="evenodd" fill-rule="evenodd"/>
</svg>
