<?xml version="1.0" encoding="UTF-8"?>
<!-- generated by Finnhub -->
<svg viewBox="0 0 55.5 55.5" xmlns="http://www.w3.org/2000/svg">
<path d="M 0,0 H 55.5 V 55.5 H 0 Z" fill="url(#a)"/>
<path d="M 43.99,27.985 C 44,36.837 36.837,44 28,44 S 12,36.837 12,28 S 19.163,12 28,12 C 36.837,12 44,19.163 44,28 Z" fill="rgb(1, 111, 64)"/>
<path d="M 27.898999999999997,17.61 C 28.479,17.953 29.083,18.375 29.543,18.824 L 29.363,19.006 C 28.747,18.94 28.11,18.974 27.495,19.007 C 27.203,19.023 26.915,19.039 26.637,19.043 L 26.6,19.007 C 26.501,18.912 26.37,18.786 26.528,18.679 L 27.908,17.625 Z M 43.964,28.905 L 43.968,29.019 A 16.226,16.226 0 0,0 43.988,27.37 C 42.906,28.179 42.018,27.679 41.106,27.166 C 40.349,26.739 39.575,26.304 38.659,26.599 C 38.683,26.667 38.704,26.736 38.725,26.804 C 38.802,27.052 38.878,27.298 39.06,27.507 C 39.821,27.502 40.482,27.837 41.134,28.169 C 42.017,28.617 42.884,29.058 43.963,28.632 L 43.964,28.906 Z M 43.854,30.087 L 43.871,30.044 A 15.949,15.949 0 0,1 43.546,31.799 C 43.562,31.644 43.584,31.499 43.636,31.393 C 42.837,31.425 42.202,31.055 41.567,30.685 C 40.981,30.343 40.394,30.001 39.679,29.978 L 39.497,29.068 C 40.263,28.941 40.911,29.273 41.559,29.604 C 42.272,29.969 42.985,30.334 43.855,30.087 Z M 42.766,32.52 C 43.056,32.659 43.232,32.651 43.34,32.561 C 43.235,32.915 43.119,33.263 42.99,33.605 C 42.422,33.51 41.93,33.223 41.44,32.937 C 40.94,32.647 40.441,32.355 39.86,32.264 C 39.868,32.168 39.864,32.068 39.86,31.966 C 39.852,31.762 39.843,31.556 39.932,31.393 C 40.569,31.393 41.08,31.689 41.592,31.985 C 41.967,32.202 42.342,32.419 42.766,32.52 Z M 42.475,34.7 A 0.886,0.886 0 0,0 42.573,34.614 C 42.408,34.977 42.23,35.332 42.04,35.68 A 0.596,0.596 0 0,0 42.04,35.606 C 41.68,35.499 41.363,35.29 41.045,35.08 C 40.605,34.788 40.163,34.496 39.606,34.481 L 39.786,33.645 C 40.371,33.631 40.866,33.913 41.364,34.195 C 41.721,34.399 42.08,34.603 42.474,34.7 Z M 40.752,36.206 C 40.998,36.344 41.245,36.483 41.512,36.571 C 41.332,36.856 41.142,37.134 40.944,37.406 L 40.949,37.389 L 39.641,36.734 C 39.071,36.373 38.961,36.739 38.846,37.125 C 38.779,37.347 38.71,37.576 38.551,37.678 C 37.354,37.61 36.708,37.036 36.001,36.409 C 35.851,36.276 35.698,36.139 35.536,36.006 C 35.594,35.712 35.743,35.456 35.892,35.199 C 36.025,34.969 36.159,34.739 36.228,34.481 C 36.637,33.116 35.898,32.008 35.176,30.925 A 14.505,14.505 0 0,1 34.556,29.94 A 2.01,2.01 0 0,1 34.288,28.906 C 34.291,28.416 34.445,27.928 34.6,27.435 C 34.75,26.956 34.902,26.473 34.92,25.98 C 35.216,24.71 34.64,23.487 34.148,22.446 L 34.118,22.385 C 34.458,22.591 34.824,22.868 35.029,23.218 C 35.707,24.55 35.901,26.405 35.283,27.833 A 2.486,2.486 0 0,0 35.099,28.906 C 35.147,29.713 35.609,30.403 36.077,31.102 C 36.58,31.852 37.088,32.612 37.099,33.535 C 37.26,33.657 37.419,33.796 37.577,33.937 C 38.132,34.427 38.699,34.927 39.46,34.7 C 39.502,34.9 39.456,35.109 39.411,35.311 C 39.378,35.463 39.345,35.611 39.351,35.752 C 39.892,35.722 40.321,35.964 40.752,36.206 Z M 40.11,38.203 L 40.262,38.278 C 40.012,38.576 39.752,38.865 39.481,39.144 C 39.514,39.094 39.543,39.042 39.569,38.986 A 2.917,2.917 0 0,0 38.37,38.476 C 38.356,38.198 38.513,37.98 38.696,37.786 C 39.238,37.766 39.676,37.986 40.11,38.203 Z M 37.753,39.493 L 38.751,39.85 A 16.06,16.06 0 0,1 37.905,40.567 A 2.462,2.462 0 0,0 37.355,40.257 C 37.265,40.06 37.432,39.87 37.595,39.687 C 37.652,39.621 37.709,39.557 37.753,39.494 Z M 35.56,40.115 C 35.88,40.6 36.199,41.085 36.392,41.625 C 36.221,41.731 36.047,41.834 35.872,41.933 C 35.741,41.287 35.37,40.739 35,40.189 C 34.722,39.778 34.443,39.366 34.266,38.911 C 34.262,38.826 34.256,38.738 34.249,38.648 C 34.215,38.176 34.179,37.658 34.485,37.314 L 34.557,37.386 C 34.476,38.468 35.017,39.291 35.56,40.116 Z M 34.023,40.225 C 34.467,40.92 34.921,41.628 34.985,42.399 C 34.678,42.549 34.365,42.688 34.048,42.817 C 34.145,41.821 33.574,40.959 33.02,40.124 C 32.873,39.901 32.726,39.68 32.594,39.459 C 31.851,37.951 32.785,36.721 33.669,35.556 C 33.879,35.281 34.085,35.009 34.266,34.737 C 34.955,33.278 34.086,32.009 33.292,30.847 A 18.56,18.56 0 0,1 32.812,30.122 A 1.898,1.898 0 0,1 32.484,28.906 H 32.487 C 32.525,28.216 32.862,27.516 33.157,26.901 C 33.202,26.811 33.245,26.721 33.286,26.634 C 33.916,24.938 33.479,22.882 32.378,21.621 C 33.116,21.924 33.659,22.749 33.902,23.475 C 34.406,24.732 34.02,26.19 33.655,27.568 C 33.545,27.981 33.438,28.388 33.358,28.778 L 33.355,28.906 C 33.347,29.849 33.863,30.548 34.382,31.252 C 34.757,31.761 35.135,32.272 35.318,32.881 C 35.653,34.069 34.974,34.969 34.322,35.834 C 34.15,36.062 33.979,36.288 33.83,36.516 C 32.52,37.878 33.259,39.031 34.023,40.225 Z M 32.098,40.331 C 32.64,41.219 33.191,42.121 32.972,43.212 C 32.611,43.33 32.244,43.436 31.872,43.528 C 32.294,42.204 31.669,41.093 31.059,40.009 A 12.79,12.79 0 0,1 30.487,38.912 C 30.007,37.537 30.864,36.437 31.692,35.375 C 31.905,35.101 32.117,34.829 32.303,34.555 C 33.009,33.235 32.21,32.11 31.465,31.06 C 31.301,30.829 31.14,30.601 30.998,30.376 C 30.726,29.863 30.67,29.376 30.736,28.906 C 30.821,28.3 31.106,27.72 31.386,27.15 C 31.567,26.782 31.746,26.417 31.868,26.052 C 32.534,24.467 32.158,22.494 30.923,21.296 L 30.96,21.258 A 3.786,3.786 0 0,1 32.413,22.893 C 33.024,24.19 32.555,25.642 32.091,27.08 C 31.892,27.696 31.694,28.308 31.582,28.906 L 31.542,29.142 C 31.519,30.055 31.996,30.656 32.486,31.273 C 32.75,31.607 33.018,31.945 33.214,32.339 C 33.95,33.776 33.074,34.879 32.221,35.955 C 31.996,36.239 31.771,36.521 31.58,36.807 C 30.78,38.177 31.433,39.243 32.098,40.331 Z M 29.848,39.554 C 30.558,40.87 31.334,42.307 30.773,43.76 A 16.093,16.093 0 0,1 25.328,43.778 C 24.738,42.453 25.349,41.277 25.95,40.121 C 26.216,39.61 26.48,39.103 26.636,38.589 C 27.047,37.299 26.324,36.397 25.595,35.487 C 25.269,35.081 24.942,34.673 24.714,34.227 C 24.212,33.18 24.771,32.39 25.334,31.593 C 25.644,31.156 25.954,30.717 26.092,30.233 C 26.303,29.626 26.732,29.778 27.156,29.928 C 27.383,30.008 27.61,30.088 27.801,30.051 C 28.11,30.107 28.402,30.012 28.683,29.921 C 29.073,29.795 29.439,29.676 29.798,29.979 C 29.932,30.527 30.288,30.983 30.644,31.437 C 31.089,32.006 31.533,32.573 31.539,33.32 C 31.519,34.221 30.941,34.937 30.371,35.643 C 29.626,36.568 28.892,37.477 29.435,38.768 C 29.562,39.024 29.703,39.287 29.848,39.554 Z M 24.166,43.417 C 24.166,43.462 24.168,43.502 24.174,43.539 C 23.833,43.456 23.496,43.361 23.164,43.256 C 22.934,42.143 23.461,41.281 23.986,40.421 C 24.419,39.71 24.853,39.001 24.858,38.151 C 24.922,37.184 24.34,36.489 23.758,35.793 C 23.347,35.303 22.936,34.813 22.751,34.227 C 22.328,32.968 23.111,31.934 23.844,30.964 C 23.928,30.852 24.013,30.741 24.094,30.63 C 24.481,30.028 24.572,29.46 24.51,28.906 C 24.44,28.301 24.186,27.712 23.928,27.115 C 23.6,26.357 23.267,25.585 23.296,24.746 C 23.271,23.366 23.876,22.009 25.074,21.368 C 25.002,21.472 24.928,21.575 24.854,21.678 C 24.556,22.089 24.259,22.5 24.094,22.965 C 23.517,24.53 24.129,25.923 24.724,27.276 C 24.902,27.683 25.078,28.086 25.221,28.488 C 25.269,28.632 25.302,28.771 25.321,28.906 C 25.456,29.846 24.952,30.588 24.446,31.335 C 24.081,31.872 23.716,32.411 23.584,33.028 C 23.328,34.113 23.932,34.843 24.544,35.58 C 24.942,36.061 25.343,36.545 25.51,37.133 C 25.975,38.38 25.43,39.361 24.88,40.348 C 24.357,41.287 23.83,42.231 24.166,43.418 Z M 22.876,40.5 C 22.406,41.215 21.939,41.927 22.049,42.857 A 15.955,15.955 0 0,1 21.12,42.45 C 21.172,41.658 21.604,41.023 22.037,40.387 C 22.304,39.994 22.572,39.6 22.751,39.168 C 23.367,37.879 22.602,36.918 21.838,35.958 C 21.475,35.503 21.112,35.047 20.898,34.556 C 20.268,33.174 21.153,31.877 22.025,30.849 C 22.632,30.193 22.79,29.552 22.736,28.906 C 22.69,28.352 22.488,27.796 22.283,27.231 C 21.947,26.307 21.602,25.358 21.915,24.346 C 22.206,23.329 22.641,22.116 23.694,21.694 C 22.931,22.577 22.531,23.607 22.46,24.781 C 22.34,25.675 22.69,26.416 23.032,27.144 C 23.302,27.717 23.567,28.281 23.599,28.906 A 2.46,2.46 0 0,1 23.477,29.796 C 23.265,30.256 22.957,30.674 22.649,31.093 C 22.096,31.843 21.544,32.593 21.552,33.573 C 21.475,34.555 22.062,35.239 22.651,35.923 C 23.265,36.639 23.88,37.353 23.731,38.407 C 23.72,39.214 23.297,39.858 22.876,40.5 Z M 21.072,40.196 C 20.684,40.756 20.288,41.326 20.219,41.984 C 20.043,41.886 19.869,41.784 19.697,41.68 C 19.887,41.108 20.217,40.598 20.545,40.089 C 20.843,39.629 21.14,39.168 21.335,38.661 C 21.371,38.485 21.395,38.294 21.42,38.105 C 21.454,37.837 21.489,37.572 21.552,37.352 C 22.27,38.469 21.681,39.319 21.072,40.196 Z M 18.684,40.22 L 18.105,40.575 A 16.145,16.145 0 0,1 17.27,39.868 C 17.358,39.834 17.443,39.791 17.528,39.748 C 17.747,39.638 17.965,39.527 18.248,39.566 L 18.32,39.652 C 18.47,39.83 18.621,40.012 18.684,40.22 Z M 17.099,38.683 C 16.813,38.736 16.501,38.793 16.384,39.003 C 16.173,38.78 15.969,38.552 15.771,38.318 C 15.868,38.27 15.968,38.212 16.071,38.154 C 16.494,37.911 16.954,37.647 17.413,37.934 C 17.919,38.532 17.541,38.602 17.099,38.684 Z M 15.345,37.273 A 13.46,13.46 0 0,1 15.082,37.443 A 16.11,16.11 0 0,1 14.465,36.536 C 14.499,36.557 14.537,36.574 14.577,36.588 C 14.812,36.491 15.031,36.358 15.25,36.225 C 15.69,35.959 16.128,35.693 16.684,35.717 C 16.588,35.401 16.503,34.977 16.54,34.699 C 17.34,34.911 17.883,34.484 18.422,34.061 C 18.592,33.928 18.761,33.794 18.938,33.681 C 19.054,32.657 19.581,31.801 20.108,30.944 C 20.348,30.554 20.588,30.164 20.788,29.759 C 20.858,29.473 20.88,29.189 20.876,28.905 C 20.864,28.355 20.741,27.81 20.617,27.265 C 20.387,26.251 20.157,25.233 20.644,24.163 C 20.874,23.522 21.274,22.676 21.953,22.494 C 20.706,23.984 20.936,26.259 21.59,27.942 C 21.722,28.285 21.769,28.603 21.756,28.905 C 21.722,29.716 21.248,30.41 20.776,31.1 C 20.476,31.54 20.176,31.98 19.99,32.448 C 19.398,33.648 19.94,35.017 20.607,36.008 C 20.437,36.14 20.269,36.278 20.1,36.416 C 19.324,37.054 18.545,37.695 17.52,37.715 C 17.287,37.601 17.203,37.349 17.12,37.096 C 17.078,36.97 17.036,36.844 16.975,36.735 C 16.359,36.613 15.845,36.948 15.345,37.274 Z M 13.96,35.645 C 13.978,35.685 13.995,35.728 14.012,35.773 C 13.81,35.411 13.622,35.04 13.449,34.663 C 13.745,34.763 14.161,34.493 14.608,34.203 C 15.149,33.852 15.737,33.471 16.212,33.682 C 16.226,33.77 16.252,33.857 16.278,33.945 C 16.338,34.144 16.398,34.343 16.321,34.555 C 15.75,34.547 15.307,34.845 14.864,35.145 C 14.574,35.34 14.285,35.535 13.96,35.645 Z M 13.018,33.572 C 13.018,33.595 13.02,33.617 13.022,33.639 A 15.888,15.888 0 0,1 12.132,30.059 A 0.634,0.634 0 0,0 12.145,30.049 C 13.052,30.337 13.787,29.959 14.52,29.582 C 15.146,29.259 15.772,28.937 16.503,29.032 L 16.493,29.12 C 16.46,29.444 16.426,29.78 16.249,30.012 C 15.567,30.047 15.005,30.366 14.443,30.686 C 13.807,31.047 13.171,31.409 12.361,31.358 L 12.651,32.52 C 13.311,32.587 13.854,32.281 14.396,31.975 C 14.938,31.669 15.48,31.364 16.14,31.43 L 16.105,32.3 C 15.533,32.354 15.062,32.645 14.59,32.935 C 14.102,33.235 13.615,33.535 13.018,33.572 Z M 43.744,25.133 C 43.834,25.627 43.9,26.128 43.943,26.636 A 20.028,20.028 0 0,0 43.743,25.133 Z M 36.338,14.341 C 37.278,14.916 38.153,15.585 38.951,16.335 A 15.476,15.476 0 0,0 36.518,14.466 A 11.26,11.26 0 0,0 36.338,14.341 Z M 12.013,28.661 L 12.035,28.631 C 13.202,29.084 14.258,28.534 15.274,28.005 C 15.565,27.853 15.854,27.703 16.14,27.579 A 1.44,1.44 0 0,1 16.508,27.541 C 16.766,27.535 17.024,27.53 17.122,27.288 C 17.117,27.186 17.182,27.078 17.246,26.972 C 17.356,26.788 17.462,26.612 17.194,26.489 C 16.371,26.378 15.669,26.75 14.978,27.117 C 14.093,27.587 13.225,28.047 12.144,27.47 L 12.019,27.216 A 16.294,16.294 0 0,0 12.013,28.661 Z M 20.607,13.811 L 20.349,13.944 C 20.469,13.879 20.589,13.815 20.712,13.753 L 20.607,13.812 Z M 21.151,22.166 C 20.016,21.423 18.606,21.981 17.479,22.426 C 17.356,22.475 17.237,22.522 17.122,22.566 C 17.012,21.464 16.565,20.459 15.632,19.733 C 15.608,19.721 15.581,19.705 15.552,19.689 A 0.624,0.624 0 0,0 15.303,19.586 C 15.236,19.582 15.172,19.609 15.122,19.696 C 15.268,22.179 14.358,23.526 13.372,24.986 C 13.132,25.341 12.889,25.703 12.654,26.089 C 13.054,26.416 13.694,26.367 14.179,26.271 C 14.475,26.152 14.769,26.013 15.063,25.874 C 16.031,25.414 17.013,24.949 18.173,25.181 C 18.621,24.418 19.373,23.679 19.99,23.074 C 20.136,22.947 20.304,22.838 20.47,22.731 C 20.731,22.561 20.988,22.395 21.151,22.166 Z M 25.002,23.8 C 24.978,23.957 25.014,24.237 25.256,24.129 C 25.533,23.745 25.967,23.868 26.341,23.974 C 26.475,24.011 26.601,24.047 26.709,24.057 V 23.91 C 26.483,23.556 26.019,23.378 25.547,23.395 C 25.438,23.399 25.327,23.415 25.221,23.44 A 0.282,0.282 0 0,0 25.002,23.8 Z M 30.922,22.24 C 30.584,21.49 29.809,21.186 29.106,21.004 A 9.459,9.459 0 0,0 28.049,20.929 H 27.85 C 26.857,20.949 25.91,21.204 25.33,22.021 C 25.308,22.081 25.267,22.149 25.224,22.218 C 25.104,22.414 24.97,22.63 25.221,22.783 L 25.34,22.775 C 26.073,22.726 26.88,22.672 27.362,23.293 C 27.362,23.451 27.39,23.623 27.418,23.796 C 27.492,24.259 27.567,24.724 27.108,24.927 C 26.838,24.677 26.541,24.742 26.239,24.808 C 25.959,24.869 25.675,24.932 25.402,24.745 C 25.135,24.588 24.967,24.772 24.857,25.002 C 24.7,26.502 25.486,28.16 26.89,28.995 C 27.459,29.2 28.224,29.395 28.818,29.105 C 30.246,28.439 30.838,26.914 31.104,25.509 C 31.099,25.471 31.094,25.428 31.09,25.382 C 31.064,25.104 31.028,24.719 30.706,24.708 C 30.291,24.971 29.689,24.824 29.242,24.715 L 29.216,24.708 C 29.09,24.749 29.021,24.858 28.951,24.97 C 28.873,25.092 28.795,25.217 28.637,25.256 L 28.453,25.109 C 28.295,24.444 28.198,23.499 28.816,23.039 C 29.506,22.76 30.318,22.639 31.032,22.857 C 31.121,22.704 31.059,22.572 30.997,22.44 C 30.966,22.375 30.935,22.309 30.922,22.24 Z M 30.11,23.437 L 30.051,23.44 C 29.975,23.49 29.853,23.515 29.728,23.54 C 29.442,23.599 29.139,23.66 29.325,24.057 C 29.783,23.694 30.421,23.945 30.88,24.126 L 30.887,24.129 C 31.025,24.06 31.027,23.936 31.029,23.813 C 31.029,23.784 31.029,23.756 31.032,23.728 C 30.884,23.454 30.532,23.428 30.193,23.434 L 30.11,23.437 Z M 35.465,18.315 C 34.867,18.283 34.335,18.498 33.803,18.714 C 33.536,18.822 33.269,18.93 32.995,19.006 C 32.952,18.587 33.125,18.155 33.297,17.724 C 33.412,17.434 33.527,17.145 33.577,16.862 C 32.481,16.932 31.572,17.488 30.67,18.04 C 30.477,18.158 30.284,18.276 30.09,18.39 C 29.834,17.773 29.579,17.154 29.326,16.536 L 30.779,15.156 L 30.816,14.973 L 28.853,14.864 C 28.707,14.608 28.6,14.33 28.493,14.053 C 28.351,13.687 28.21,13.323 27.983,13.013 C 27.819,13.323 27.683,13.64 27.546,13.958 C 27.409,14.275 27.273,14.593 27.109,14.901 L 25.149,15.011 V 15.155 L 26.637,16.499 L 26.595,16.66 C 26.427,17.304 26.251,17.98 25.839,18.461 A 68.101,68.101 0 0,1 25.398,18.194 C 24.674,17.754 23.946,17.31 23.152,17.008 L 23.112,16.995 C 22.885,16.921 22.582,16.822 22.388,16.971 L 22.543,17.3 C 22.815,17.87 23.103,18.472 23.043,19.08 C 22.82,19.04 22.623,18.942 22.429,18.845 A 2.816,2.816 0 0,0 21.953,18.643 A 8.058,8.058 0 0,1 21.67,18.558 C 21.291,18.439 20.882,18.311 20.535,18.427 C 21.262,19.443 21.855,20.507 22.06,21.731 C 24.47,20.567 27.281,19.927 30.2,20.424 C 31.319,20.603 32.365,21.008 33.378,21.401 C 33.603,21.489 33.826,21.575 34.048,21.658 C 34.085,20.653 34.591,19.803 35.077,18.987 C 35.211,18.761 35.344,18.537 35.465,18.315 Z M 39.604,25.29 C 39.987,25.392 40.371,25.592 40.757,25.793 C 41.614,26.239 42.482,26.691 43.382,26.089 C 43.158,25.716 42.911,25.349 42.664,24.98 C 41.66,23.483 40.644,21.969 41.022,19.987 C 41.071,19.818 40.962,19.647 40.805,19.623 C 40.067,19.925 39.495,20.653 39.203,21.368 C 39.163,21.509 39.128,21.653 39.093,21.798 C 39.024,22.085 38.955,22.373 38.843,22.638 C 37.958,22.178 37.014,21.732 35.937,21.84 L 35.829,21.853 C 35.452,21.896 34.985,21.95 34.919,22.313 C 36.143,22.967 37.148,24.057 37.897,25.219 C 38.419,25.134 39.059,25.206 39.604,25.29 Z M 26.674,26.997 L 26.709,27.217 C 26.867,27.322 26.989,27.452 27.106,27.577 C 27.336,27.824 27.546,28.049 27.982,28.017 C 28.562,28.052 28.999,27.507 29.288,27.072 C 28.914,27.02 28.501,27.032 28.078,27.042 C 27.611,27.055 27.131,27.067 26.674,26.997 Z M 27.529,26.142 C 27.434,26.1 27.329,26.052 27.165,26.014 C 27.09,25.979 27.112,25.921 27.155,25.863 C 27.331,25.663 27.501,25.707 27.675,25.753 C 27.753,25.773 27.832,25.793 27.912,25.793 A 0.63,0.63 0 0,0 28.077,25.756 C 28.232,25.707 28.407,25.651 28.635,25.875 C 28.692,25.93 28.646,26.002 28.613,26.013 A 4.5,4.5 0 0,0 28.223,26.165 C 28.093,26.222 28.041,26.245 27.864,26.248 C 27.723,26.23 27.632,26.189 27.529,26.142 Z" fill="rgb(254, 254, 253)" fill-rule="evenodd"/>
<defs>
<linearGradient id="a" x1="10.418" x2="68.147" y1="9.712" y2="76.017" gradientUnits="userSpaceOnUse">
<stop stop-color="rgb(25, 29, 31)" offset="0"/>
<stop stop-color="rgb(5, 5, 8)" offset="1"/>
</linearGradient>
</defs>
</svg>
