<?xml version="1.0" encoding="UTF-8"?>
<!-- generated by Finnhub -->
<svg viewBox="0 0 55.5 55.5" xmlns="http://www.w3.org/2000/svg">
<path d="M 0,0 H 55.5 V 55.5 H 0 Z" fill="rgb(149, 1, 43)"/>
<path d="M 43.983000000000004,29.553 V 29.558 C 38.578,27.784 28.545,30.076 24.157,27.755 C 22.914,27.107 21.92,25.359 22.81,24 H 12.485 C 12.373,24.527 12.151,25.457 12.096,26 H 20.844 C 19.971,26.886 19.108,27.685 18.374,29.062 C 17.594,30.527 19.27,31.035 20.288,31.294 C 25.81,32.743 37.658,31.641 42.695,34.475 C 42.695,34.473 42.695,34.468 42.701,34.465 A 0.037,0.037 0 0,0 42.708,34.468 C 43.378,32.892 43.703,31.698 43.894,30.394 C 43.932,30.126 43.971,29.848 44,29.574 C 43.996,29.574 43.993,29.568 43.993,29.568 Z M 28.032,12 C 25.637,12 22.598,12.576 20.293,14 H 35.74 C 34.011,12.8 30.812,12 28.032,12 Z M 36.88,15.776 L 35.56,17.361 C 35.496,17.443 34.353,18.736 36.44,19.301 C 37.852,19.679 39.633,19.651 41.589,19.467 C 40.5,17.756 39.095,16.192 37.453,15 H 18.613 C 17.941,15.486 16.964,16.418 16.373,17 H 34.314 C 35.437,15.776 37.117,15.545 36.88,15.776 Z M 28.37,21.559 C 27.866,22.119 27.271,22.696 26.89,23.353 C 26.635,23.749 26.312,24.634 27.998,25.198 C 29.598,25.731 31.324,25.759 32.993,25.759 C 36.61,25.694 40.226,25.267 43.846,25.385 L 43.835,25.347 H 43.845 C 43.722,24.352 43.167,22.509 42.922,22.057 H 42.919 L 42.917,22.051 C 39.774,22.355 35.394,23.302 32.297,21.673 C 31.709,21.36 30.812,20.807 30.812,20.03 C 30.791,19.57 31.452,18.358 31.832,18 H 15.52 C 15.124,18.515 14.569,19.44 14.237,20 H 29.992 C 29.525,20.453 29.107,20.666 28.864,20.986 H 13.62 C 13.388,21.511 12.96,22.453 12.78,23 H 24.641 C 26.317,21.958 28.334,21.365 28.371,21.557 V 21.559 Z M 18.065,27 H 12 C 12,27.537 12.02,28.464 12.069,29 H 15.129 C 16.002,28.331 17.291,27.551 18.064,27 Z M 29.8,37.166 C 24.933,34.346 18.68,35.48 15.33,33.526 C 13.905,32.696 13.345,30.796 13.61,30 H 12.069 C 13.202,38.169 20.219,44 28.032,44 C 29.51,44 30.931,43.786 32.282,43.413 C 32.916,41.161 32.598,38.788 29.8,37.166 Z" fill="rgb(254, 254, 253)"/>
</svg>
