<?xml version="1.0" encoding="UTF-8"?>
<!-- generated by Finnhub -->
<svg viewBox="0 0 55.5 55.5" xmlns="http://www.w3.org/2000/svg">
<path d="M 0,0 H 55.5 V 55.5 H 0 Z" fill="rgb(1, 159, 221)"/>
<path d="M 11.61,31.732 C 11.445,31.153 11.127,30.451 10.26,30.451 C 9.604,30.451 9.217,30.946 9.217,31.537 C 9.217,32.099 9.634,32.483 10.4,32.833 L 10.679,32.939 C 11.479,33.289 12.211,33.85 12.211,34.9 C 12.211,36.127 11.271,36.967 9.915,36.967 A 2.737,2.737 0 0,1 8.905,36.792 A 6.245,6.245 0 0,0 8.313,36.582 C 8.244,36.302 8.105,35.636 8,35.006 L 8.313,34.9 C 8.522,35.427 9.079,36.551 10.088,36.551 C 10.745,36.551 11.168,36.024 11.168,35.395 C 11.168,34.835 10.889,34.415 10.088,34.03 L 9.775,33.855 C 9.119,33.503 8.245,32.978 8.245,31.963 C 8.245,30.877 9.045,30 10.402,30 A 2.74,2.74 0 0,1 11.307,30.14 C 11.373,30.159 11.726,30.28 11.726,30.28 C 11.756,30.628 11.826,31.082 11.936,31.643 L 11.622,31.747 H 11.619 Z M 16.702,30.451 C 17.642,30.451 18.302,30.803 18.616,31.958 V 31.955 H 18.828 C 18.794,31.67 18.768,31.417 18.744,31.17 C 18.717,30.9 18.69,30.636 18.654,30.344 A 6.608,6.608 0 0,0 16.849,30.063 C 14.59,30.063 12.949,31.499 12.949,33.636 C 12.949,35.248 14.029,37 16.675,37 C 17.36,37 18.195,36.785 18.528,36.699 L 18.59,36.683 C 18.81,36.138 18.985,35.576 19.113,35.003 L 18.834,34.931 C 18.303,36.021 17.781,36.582 16.702,36.582 C 15.24,36.582 14.3,35.252 14.3,33.36 C 14.3,31.853 15.032,30.451 16.702,30.451 Z M 23,30 V 30.45 C 22.248,30.519 21.98,30.588 21.98,31.675 V 33 H 24.985 V 31.675 C 24.985,30.588 24.75,30.485 24,30.45 V 30 H 27 V 30.45 C 26.215,30.519 26,30.588 26,31.675 V 35.249 C 26,36.335 26.215,36.439 27,36.51 V 37 H 24 V 36.51 C 24.82,36.44 25.019,36.37 25.019,35.249 V 33.532 H 22.015 V 35.249 C 22.015,36.335 22.215,36.439 23,36.51 V 37 H 20 V 36.51 C 20.785,36.44 21,36.37 21,35.249 V 31.675 C 21,30.588 20.853,30.485 20,30.45 V 30 H 23 Z M 34.311,35.082 L 32.536,30.074 H 32.154 L 30.621,35.114 H 30.587 L 29.403,31.151 C 29.258,30.597 29.362,30.491 29.71,30.456 C 29.71,30.456 29.898,30.456 30.004,30.458 V 30.008 L 27.314,30.007 V 30.457 C 27.87,30.491 28.046,30.56 28.324,31.437 L 30.004,36.993 H 30.457 L 32.014,32.097 H 32.049 L 33.772,37 H 34.225 C 34.945,34.55 35.58,32.492 35.832,31.74 L 35.92,31.473 C 36.27,30.527 36.344,30.493 37,30.423 V 30 H 34.667 V 30.423 S 34.946,30.458 35.017,30.458 C 35.433,30.493 35.538,30.633 35.364,31.264 C 35.224,31.929 34.738,33.821 34.355,35.082 H 34.311 Z" fill="rgb(254, 254, 253)"/>
<path d="M 38.99,29.985 L 36.79,35.496 C 36.442,36.407 36.337,36.442 35.71,36.548 V 37 H 38 V 36.548 L 37.694,36.511 C 37.243,36.477 37.172,36.336 37.346,35.777 L 37.43,35.521 C 37.551,35.149 37.687,34.735 37.8,34.481 H 39.68 C 39.888,35.006 40.132,35.636 40.237,35.951 C 40.375,36.336 40.34,36.447 39.958,36.511 L 39.679,36.548 V 37 H 42.359 V 36.548 C 41.768,36.477 41.629,36.408 41.28,35.496 C 40.898,34.481 40.445,33.219 39.992,31.958 L 39.297,30.101 L 39,30 Z M 38.677,31.747 L 39.512,33.99 H 37.91 L 38.676,31.747 Z M 43.069,30.494 L 43.066,30.071 L 43.069,30 H 45.858 C 46.658,30 47.08,30.248 47.428,30.494 A 1.33,1.33 0 0,1 47.984,31.649 C 47.984,32.525 47.149,33.015 46.557,33.12 V 33.155 C 47.561,33.295 48.361,33.857 48.361,34.872 C 48.361,35.608 48.014,36.064 47.456,36.414 A 3.433,3.433 0 0,1 45.506,37 H 43 V 36.554 C 43.8,36.484 43.87,36.379 43.87,35.293 V 31.719 C 43.87,30.633 43.8,30.563 43.069,30.494 Z M 47.108,35.006 C 47.108,33.959 46.376,33.47 45.333,33.47 H 44.983 V 35.286 C 44.983,36.267 45.093,36.476 45.75,36.442 C 46.41,36.442 47.108,36.052 47.108,35.006 Z M 45.116,30.676 C 45.06,30.706 44.983,30.837 44.983,31.082 V 33.086 H 45.402 C 46.272,33.086 46.829,32.665 46.829,31.825 C 46.829,30.913 46.168,30.598 45.541,30.598 C 45.391,30.598 45.239,30.611 45.116,30.676 Z" fill="rgb(254, 254, 253)"/>
<path d="M 20.677,25.355 C 19.96,26.233 18.958,27.305 17.957,27.305 C 17.541,27.305 17.437,27.098 17.437,26.787 C 17.437,26.364 17.842,25.474 18.271,24.531 C 18.755,23.469 19.269,22.341 19.269,21.736 C 19.269,21.389 19.131,21.183 18.751,21.183 C 17.611,21.183 15.294,24.115 14.463,26.885 C 14.395,27.057 14.256,27.125 13.841,27.125 C 13.391,27.125 13.323,27.057 13.323,26.919 C 13.323,26.771 13.793,25.554 14.349,24.119 C 14.836,22.861 15.389,21.436 15.744,20.419 C 15.91,19.947 16.07,19.504 16.217,19.099 C 16.647,17.906 16.959,17.044 16.959,16.761 C 16.959,16.554 16.856,16.45 16.509,16.38 A 2.998,2.998 0 0,0 15.982,16.345 V 16.035 C 15.982,16.018 15.982,16.009 15.986,16.005 C 15.99,16 16,16 16.019,16 H 18.163 C 18.336,16 18.406,16.034 18.406,16.173 C 18.406,16.311 17.917,17.802 16.884,20.459 C 16.624,21.14 16.408,21.666 16.247,22.061 C 15.957,22.768 15.84,23.053 15.951,23.053 C 15.994,23.053 16.141,22.86 16.361,22.571 C 17.011,21.713 18.304,20.011 19.441,20.011 C 20.064,20.011 20.446,20.425 20.446,21.29 C 20.446,22.255 19.772,23.893 19.342,24.939 C 19.14,25.429 18.992,25.789 18.992,25.888 C 18.992,26.026 19.062,26.094 19.235,26.094 C 19.512,26.094 20.135,25.443 20.445,25.092 L 20.687,25.369 Z M 46.685,25.049 C 46.685,26.259 45.302,27.329 44.057,27.329 C 43.262,27.329 42.606,26.812 42.606,26.5 C 42.606,26.328 42.676,25.705 42.917,25.705 C 43.103,25.705 43.284,25.865 43.495,26.053 C 43.794,26.319 44.155,26.639 44.681,26.639 C 45.234,26.639 45.751,26.258 45.751,25.705 C 45.751,25.352 45.479,25.005 45.176,24.621 C 44.796,24.139 44.369,23.597 44.369,22.905 C 44.369,21.59 45.786,20 47.066,20 C 47.718,20 48,20.381 48,20.692 A 0.606,0.606 0 0,1 47.412,21.279 C 47.148,21.279 46.938,21.181 46.732,21.084 C 46.532,20.991 46.337,20.899 46.099,20.899 C 45.545,20.899 45.234,21.279 45.234,21.901 C 45.234,22.373 45.554,22.813 45.894,23.281 C 46.277,23.808 46.685,24.369 46.685,25.047 V 25.049 Z" fill="rgb(254, 254, 253)"/>
<path d="M 10.235,27.29 C 11.698,27.305 12.907,25.992 13.082,25.646 C 13.082,25.612 12.844,25.438 12.844,25.438 A 3.71,3.71 0 0,1 12.354,25.853 C 12.009,26.13 11.416,26.58 10.764,26.58 C 10.211,26.58 9.554,26.199 9.52,25.265 C 9.45,23.571 11.663,20.425 12.77,20.425 C 13.174,20.425 13.412,20.758 13.635,21.069 C 13.831,21.343 14.015,21.601 14.29,21.601 A 0.525,0.525 0 0,0 14.74,21.083 C 14.74,20.633 14.36,20.011 13.391,20.011 C 11.49,20.011 8.137,22.431 8.275,25.265 C 8.31,26.233 8.792,27.305 10.245,27.305 Z M 29.066,22.219 C 29.308,21.907 29.993,21.05 30.297,21.05 C 30.471,21.05 30.54,21.223 30.54,21.5 C 30.54,22.182 29.81,24.217 29.307,25.614 C 29.045,26.344 28.846,26.9 28.846,26.997 C 28.846,27.136 28.916,27.206 29.018,27.206 H 29.641 C 29.779,27.206 29.815,27.136 29.883,26.929 C 29.883,26.929 30.195,26.202 30.373,25.822 C 31.685,23.16 32.343,21.912 32.861,21.396 C 33.595,20.686 33.781,20.902 33.985,21.139 C 34.088,21.259 34.197,21.384 34.383,21.396 C 34.763,21.432 34.97,21.016 34.97,20.601 A 0.57,0.57 0 0,0 34.383,19.979 C 33.345,19.979 32.653,20.912 31.34,23.16 C 31.237,23.333 31.167,23.436 31.133,23.436 A 0.122,0.122 0 0,1 31.029,23.299 C 31.029,23.231 31.119,22.857 31.229,22.401 C 31.399,21.691 31.617,20.784 31.617,20.529 C 31.617,20.149 31.444,20.011 31.099,20.011 C 30.476,20.011 29.232,21.358 28.85,21.981 L 28.886,22.015 L 29.066,22.219 Z" fill="rgb(254, 254, 253)"/>
<path d="M 27.59,19.895 L 27.976,20.145 L 27.982,20.15 C 28.051,20.184 28.165,20.272 28.162,20.322 C 28.148,20.46 27.828,21.292 27.447,22.281 C 26.871,23.779 26.156,25.638 26.156,25.991 C 26.156,26.233 26.224,26.303 26.363,26.303 C 26.631,26.303 27.041,25.809 27.374,25.408 C 27.473,25.29 27.564,25.179 27.644,25.093 C 27.66,25.076 27.669,25.067 27.678,25.067 C 27.686,25.067 27.695,25.076 27.712,25.093 L 27.873,25.295 V 25.33 C 27.457,25.917 26.387,27.266 25.488,27.266 C 25.107,27.266 24.934,27.064 24.934,26.614 C 24.934,26.108 25.172,25.517 25.315,25.159 C 25.378,25.004 25.423,24.893 25.423,24.852 C 25.423,24.782 25.39,24.713 25.32,24.713 C 25.271,24.713 25.24,24.763 25.133,24.932 C 25.086,25.006 25.023,25.104 24.939,25.232 C 23.799,26.892 22.933,27.271 22.209,27.271 C 21.62,27.271 21.102,26.821 21.102,25.888 C 21.102,24.472 22.726,20.15 25.937,20.153 C 26.22,20.153 26.429,20.199 26.604,20.238 C 26.729,20.266 26.836,20.29 26.939,20.29 C 27.077,20.29 27.149,20.184 27.22,20.078 C 27.278,19.992 27.336,19.906 27.428,19.876 C 27.498,19.842 27.601,19.91 27.601,19.91 Z M 22.306,25.537 C 22.306,26.125 22.513,26.264 22.824,26.264 C 24.214,26.264 26.494,22.326 26.522,21.42 C 26.522,20.936 26.282,20.487 25.659,20.487 C 23.965,20.487 22.306,23.532 22.306,25.537 Z M 41.987,25.427 C 41.937,25.462 41.875,25.509 41.804,25.562 C 41.39,25.875 40.655,26.43 39.947,26.43 C 39.186,26.43 38.737,25.91 38.737,25.186 C 38.737,24.208 39.186,23.491 39.533,22.972 C 39.808,23.006 40.085,23.018 40.363,23.007 C 41.468,23.007 43.751,22.519 43.751,21.14 C 43.751,20.552 43.231,20 42.332,20 C 40.328,20 37.389,22.77 37.389,25.36 C 37.389,26.535 38.149,27.296 39.256,27.296 C 40.569,27.296 41.848,26.085 42.189,25.636 L 41.987,25.426 Z M 39.767,22.592 C 39.974,22.177 41.117,20.38 42.084,20.38 C 42.464,20.38 42.707,20.69 42.707,21.07 C 42.707,22.038 41.427,22.592 39.774,22.592 H 39.768 Z" fill="rgb(254, 254, 253)"/>
<path d="M 36.788000000000004,25.4 L 36.835,25.369 L 36.57,25.117 C 35.911,25.842 35.519,26.269 35.208,26.269 C 35.035,26.269 34.965,26.199 34.965,25.992 C 35.001,25.508 35.968,22.88 36.866,20.495 C 37.352,19.215 37.748,18.215 38.03,17.501 C 38.35,16.691 38.526,16.246 38.526,16.173 C 38.526,16.034 38.458,16 38.286,16 H 36.143 A 0.034,0.034 0 0,0 36.108,16.034 V 16.347 C 36.281,16.343 36.454,16.354 36.625,16.38 C 36.97,16.45 37.075,16.554 37.075,16.76 C 37.048,17.057 36.683,17.987 36.18,19.27 C 36.04,19.629 35.887,20.016 35.729,20.425 L 35.695,20.509 C 35.405,21.229 33.687,25.483 33.655,26.337 C 33.621,26.96 33.898,27.271 34.485,27.271 C 35.368,27.271 36.21,26.142 36.798,25.415 Z" fill="rgb(254, 254, 253)"/>
</svg>
