<?xml version="1.0" encoding="UTF-8"?>
<!-- generated by Finnhub -->
<svg viewBox="0 0 55.5 55.5" xmlns="http://www.w3.org/2000/svg">
<path d="M 0,0 H 55.5 V 55.5 H 0 Z" fill="rgb(239, 242, 248)"/>
<path d="M 14.968,18.649 C 17.704,19.369 25.51,19.364 35.08,13.651 C 24.836,9.088 17.454,15.05 14.978,18.664 Z" fill="rgb(226, 29, 37)"/>
<path d="M 13.46,21.265 C 14.068,19.917 14.887,18.795 14.995,18.641 C 22.975,20.048 31.261,15.933 35.013,13.623 C 37.279,14.643 39.447,16.62 40.735,18.383 C 35.381,17.79 29.265,21.613 27.085,23.586 C 22.605,19.783 13.292,21.686 13.47,21.28 Z" fill="rgb(253, 86, 32)"/>
<path d="M 42.753,21.951999999999998 C 40.003,24.793 30.802,23.949 27.081,23.581 C 32.134,18.341 38.379,17.936 40.729,18.377 C 41.59,19.489 42.172,20.527 42.763,21.967 Z" fill="rgb(1, 163, 71)"/>
<path d="M 42.627,21.645 C 36.685,24.271 29.494,23.873 28.016,23.668 C 26.112,23.241 25.309,21.881 22.056,21.463 C 19.404,21.123 18.531,20.987 13.46,21.295 C 11.842,24.885 11.714,28.262 12.373,31.514 C 15.365,34.365 23.72,32.029 27.439,30.574 C 30.8,29.26 33.529,26.426 43.733,25.436 C 43.426,23.421 42.816,22.032 42.637,21.659 Z" fill="rgb(1, 231, 253)"/>
<path d="M 30.270999999999997,29.13 C 20.351,34.058 14.144,32.432 12.367,31.288 C 12.367,32.565 13.627,35.228 14.052,35.867 C 20.799,35.165 23.865,36.797 24.555,37.701 C 28.055,40.508 35.146,40.619 38.382,40.167 C 44.902,34.13 44.169,27.685 43.725,25.42 C 38.951,24.91 32.588,27.604 30.281,29.145 Z" fill="rgb(70, 141, 246)"/>
<path d="M 24.834,37.875 C 22.887,36.035 20.407,35.315 14.033,35.847 C 16.332,39.817 19.095,41.356 20.278,42.033 C 22.508,43.524 26.163,44.053 27.684,43.996 C 33.199,44.064 36.728,41.536 38.457,40.11 C 31.319,40.754 25.637,38.364 24.844,37.89 Z" fill="rgb(1, 1, 130)"/>
</svg>
