<?xml version="1.0" encoding="UTF-8"?>
<!-- generated by Finnhub -->
<svg viewBox="0 0 55.5 55.5" xmlns="http://www.w3.org/2000/svg">
<path d="M 0,0 H 55.5 V 55.5 H 0 Z" fill="rgb(239, 242, 248)"/>
<path d="M 50.190000000000005,23.985 C 50.9,24 50.67,24.661 50.67,24.661 L 49.482,27.826 C 49.392,26.284 48.94,25.829 47.144,25.829 C 45.103,25.829 44.814,26.619 44.814,28.429 C 44.814,30.384 45.209,31 47.144,31 C 47.634,31 48.061,30.99 48.414,30.915 L 47.929,32.318 C 47.699,32.979 47.001,32.979 47.001,32.979 H 43.253 C 43.924,32.705 44,32.109 44,30.933 V 26 H 43 L 43.003,26.648 H 42.965 C 42.656,25.984 42.098,25.829 41.385,25.829 C 39.508,25.829 39.451,27.013 39.451,28.564 C 39.451,30.047 39.653,31 41.386,31 C 42.002,31 42.647,30.884 42.965,30.22 H 42.994 V 31.183 C 42.994,32.05 42.773,32.261 41.742,32.261 C 41.059,32.261 40.799,32.156 40.799,31.462 H 39.662 C 39.618,32.322 39.899,32.76 40.375,32.979 H 28.057 C 27.357,32.979 27.586,32.319 27.586,32.319 L 28.764,28.911 C 28.836,30.484 29.318,31 31.083,31 C 32.528,31 33.442,30.923 33.442,29.334 H 32.229 C 32.229,30.085 31.757,30.075 31.083,30.075 C 29.995,30.075 29.966,29.729 29.966,28.641 H 33.442 C 33.442,26.436 33.163,25.829 31.083,25.829 C 30.519,25.829 30.093,25.892 29.765,26.018 L 30.328,24.661 C 30.556,24 31.256,24 31.256,24 H 38 V 27 C 38,26 37.022,25.83 36.023,25.83 C 34.289,25.83 34.087,26.783 34.087,28.265 C 34.087,29.815 34.145,31 36.023,31 C 37.033,31 37.5,31 38,30 V 31 H 39 V 24 H 50.2 Z M 32.229,28 H 29.966 C 29.966,27.105 30.033,26.754 31.083,26.754 C 32.075,26.754 32.229,26.96 32.229,28 Z M 36.379,30.075 C 35.272,30.075 35.301,29.411 35.301,28.265 C 35.301,26.995 35.541,26.754 36.379,26.754 C 37.429,26.754 37.573,27.187 37.573,28.265 C 37.573,29.469 37.621,30.075 36.379,30.075 Z M 41.742,30.075 C 40.664,30.075 40.664,29.411 40.664,28.265 C 40.664,26.995 40.904,26.754 41.742,26.754 C 42.792,26.754 42.956,27.187 42.956,28.265 C 42.956,29.469 42.956,30.075 41.742,30.075 Z M 47.144,26.754 C 48.136,26.754 48.29,26.96 48.29,28 H 46.027 C 46.027,27.104 46.094,26.754 47.144,26.754 Z M 48.29,29.334 C 48.29,30.085 47.818,30.075 47.144,30.075 C 46.056,30.075 46.027,29.729 46.027,28.641 H 49.201 L 48.961,29.334 H 48.29 Z" fill="rgb(237, 39, 53)"/>
<path d="M 8.254,27.307 C 8.264,26.715 7.946,26.715 7.301,26.715 S 6.213,26.715 6.213,27.38 C 6.213,27.88 6.348,27.9 7.407,27.948 C 8.601,28.006 9.66,27.919 9.66,29.556 C 9.66,30.923 8.582,31.058 7.3,31.058 C 5.924,31.058 5,31.058 5,29.412 H 6.213 C 6.232,30.143 6.406,30.23 7.301,30.23 C 8.023,30.23 8.447,30.25 8.447,29.556 C 8.447,29.113 8.418,28.892 7.195,28.872 C 5.337,28.843 5,28.592 5,27.302 C 5,25.916 6.001,25.887 7.3,25.887 C 8.293,25.887 9.477,25.907 9.477,27.322 H 8.264 Z M 12.76,25.887 C 14.87,25.887 15.14,26.513 15.14,28.477 C 15.14,30.432 14.87,31.057 12.76,31.057 C 10.652,31.057 10.383,30.432 10.383,28.477 C 10.383,26.513 10.652,25.887 12.76,25.887 Z M 11.595,28.487 C 11.595,29.835 11.682,30.133 12.76,30.133 C 13.839,30.133 13.926,29.835 13.926,28.487 C 13.926,27.12 13.839,26.811 12.76,26.811 C 11.682,26.811 11.595,27.12 11.595,28.487 Z M 17,31 H 16 V 24 H 17 V 31 Z M 22,30.253 C 21.5,31 20.934,31.058 20.016,31.058 C 18.87,31.058 18.129,30.818 18.129,29.45 C 18.129,28.237 18.764,27.9 20.016,27.9 C 21.133,27.9 22,28 22,28.637 V 27.823 C 22,27.004 21.499,26.715 20.488,26.715 C 19.958,26.715 19.535,26.763 19.535,27.418 H 18.32 C 18.32,25.945 19.331,25.888 20.487,25.888 C 22.105,25.888 22.999,26.138 22.999,27.832 V 31 H 21.999 V 30.253 Z M 19.342,29.45 C 19.342,30.163 19.632,30.23 20.449,30.23 C 21.095,30.23 21.84,30.172 21.84,29.45 C 21.84,28.747 21.046,28.728 20.45,28.728 C 19.833,28.728 19.342,28.728 19.342,29.45 Z M 24,26 H 25 V 26.765 C 25.5,26 25.724,25.887 26.552,25.887 C 27.621,25.887 27.999,26.642 27.999,27.595 V 28 H 26.863 V 27.74 C 26.863,27.23 26.696,26.811 26.128,26.811 C 25.406,26.811 24.981,27.012 25,27.667 V 31 H 24 V 26 Z"/>
</svg>
