<?xml version="1.0" encoding="UTF-8"?>
<!-- generated by Finnhub -->
<svg viewBox="0 0 55.5 55.5" xmlns="http://www.w3.org/2000/svg">
<path d="M 0,0 H 55.5 V 55.5 H 0 Z" fill="rgb(32, 165, 168)"/>
<path d="M 21.433,23.886 L 15.541,18 C 16.065,17.41 16.591,16.82 17.181,16.295 L 23.082,22.196 L 21.443,23.901 Z M 17.639,15.901 C 18.361,15.245 19.147,14.721 20,14.196 L 25.574,19.77 L 23.541,21.803 L 17.639,15.901 Z M 25.968,19.377 L 20.525,13.934 A 14.216,14.216 0 0,1 22.82,12.95 L 27.607,17.737 L 25.967,19.377 Z M 30.492,19.77 L 36.065,14.196 C 36.919,14.721 37.705,15.246 38.427,15.901 L 32.525,21.803 L 30.492,19.77 Z M 34.622,32.163 L 40.525,38.065 C 40.198,38.459 39.606,39.049 39.279,39.443 C 39.082,39.64 39.017,39.771 38.951,39.771 L 33.05,33.869 L 34.623,32.163 Z M 32.59,34.197 L 38.492,40.098 C 37.771,40.755 36.984,41.278 36.132,41.803 L 30.558,36.229 L 32.59,34.197 Z M 30.1,36.688 L 35.542,42.131 C 34.822,42.524 33.444,43.049 33.246,43.115 L 28.46,38.328 L 30.1,36.688 Z M 28.066,38.721 L 32.657,43.311 C 29.641,44.23 26.427,44.23 23.477,43.311 L 28.067,38.721 Z M 25.575,36.229 L 20,41.803 C 19.148,41.279 18.36,40.755 17.64,40.098 L 23.541,34.197 L 25.574,36.229 Z M 30.886,24.295 L 32.526,22.655 L 34.165,24.295 L 32.525,25.935 L 30.886,24.295 Z M 25.181,31.705 L 23.542,33.344 L 21.902,31.704 L 23.542,30.064 L 25.182,31.704 Z M 21.641,27.836 C 21.51,27.967 21.51,28.098 21.641,28.229 L 23.083,29.672 L 21.444,31.312 L 18.165,27.967 L 21.445,24.688 L 23.083,26.328 L 21.641,27.836 Z M 21.837,24.295 L 23.542,22.59 L 25.182,24.229 L 23.542,25.869 L 21.837,24.295 Z M 23.936,22.262 L 25.968,20.229 L 27.608,21.869 L 25.575,23.901 L 23.935,22.261 Z M 30.493,23.902 L 28.46,21.868 L 30.1,20.228 L 32.132,22.262 L 30.493,23.902 Z M 32.133,33.802 L 30.1,35.836 L 28.46,34.196 L 30.493,32.163 L 32.133,33.803 Z M 25.575,32.163 L 27.607,34.197 L 25.968,35.902 L 23.936,33.869 L 25.575,32.163 Z M 25.378,28.229 C 25.51,28.099 25.51,27.967 25.378,27.836 L 23.936,26.393 L 25.576,24.753 L 27.608,26.787 L 26.559,27.836 C 26.428,27.967 26.428,28.098 26.559,28.229 L 27.608,29.279 L 25.575,31.312 L 23.936,29.672 L 25.378,28.229 Z M 27.214,28.033 L 28.066,27.18 L 28.919,28.033 L 28.066,28.884 L 27.214,28.033 Z M 28.066,29.673 L 30.1,31.703 L 28.066,33.737 L 26.034,31.704 L 28.066,29.672 Z M 30.69,27.836 C 30.559,27.967 30.559,28.098 30.69,28.229 L 32.132,29.672 L 30.492,31.312 L 28.46,29.279 L 29.51,28.229 C 29.64,28.099 29.64,27.967 29.51,27.836 L 28.46,26.786 L 30.493,24.753 L 32.198,26.393 L 30.69,27.836 Z M 26.034,24.295 L 28.066,22.262 L 30.1,24.295 L 28.066,26.327 L 26.034,24.295 Z M 31.345,28.033 L 32.591,26.787 L 33.838,28.033 L 32.591,29.279 L 31.345,28.033 Z M 24.788,28.033 L 23.542,29.279 L 22.296,28.033 L 23.542,26.787 L 24.788,28.033 Z M 29.705,36.229 L 28.066,37.869 L 26.428,36.229 L 28.066,34.589 L 29.706,36.229 Z M 34.231,31.704 L 32.591,33.344 L 30.952,31.704 L 32.592,30.064 L 34.231,31.704 Z M 34.427,28.229 C 34.559,28.099 34.559,27.967 34.427,27.836 L 32.985,26.393 L 34.624,24.753 L 37.904,28.033 L 34.624,31.312 L 32.984,29.672 L 34.427,28.229 Z M 26.362,19.77 L 28.002,18.131 L 29.641,19.771 L 28,21.41 L 26.361,19.77 Z M 35.018,31.704 L 38.493,28.229 C 38.624,28.099 38.624,27.967 38.493,27.836 L 35.018,24.361 L 40.854,18.524 C 45.05,24.164 45.05,31.967 40.854,37.606 L 35.018,31.704 Z M 17.509,27.836 C 17.379,27.967 17.379,28.098 17.509,28.229 L 20.985,31.704 L 15.149,37.541 C 10.952,31.901 10.952,24.098 15.149,18.458 L 20.985,24.295 L 17.509,27.836 Z M 23.149,33.802 L 17.247,39.704 C 16.657,39.18 16.133,38.59 15.607,38 L 21.51,32.098 L 23.15,33.802 Z M 25.969,36.688 L 27.608,38.328 L 22.821,43.115 A 14.289,14.289 0 0,1 20.526,42.131 L 25.969,36.688 Z M 34.624,23.901 L 32.984,22.261 L 38.887,16.36 C 39.477,16.885 40.002,17.475 40.526,18.065 L 34.623,23.9 Z M 28.46,17.737 L 33.247,12.95 C 34.034,13.213 34.822,13.54 35.542,13.934 L 30.1,19.377 L 28.46,17.737 Z M 23.411,12.687 C 26.428,11.77 29.641,11.77 32.591,12.687 L 28,17.278 L 23.41,12.688 Z" fill="rgb(254, 254, 253)"/>
</svg>
