<?xml version="1.0" encoding="UTF-8"?>
<!-- generated by Finnhub -->
<svg viewBox="0 0 55.5 55.5" xmlns="http://www.w3.org/2000/svg">
<path d="M 0,0 H 55.5 V 55.5 H 0 Z" fill="rgb(254, 212, 2)"/>
<path d="M 27.99,42.985 C 26.782,43 26.005,42.086 26.005,42.086 C 25.007,42.046 17.196,42.063 17.196,42.063 L 16.586,36.107 S 11.775,32.878 11.386,32.501 C 9.08,22.52 17.426,13 27.999,13 C 38.572,13 46.924,22.519 44.613,32.501 C 44.223,32.873 39.411,36.107 39.411,36.107 L 38.5,42.063 S 30.69,42.039 29.691,42.086 C 29.691,42.08 29.216,43 27.999,43 Z" fill="rgb(236, 27, 34)"/>
<path d="M 28.000999999999998,33.681 L 27.275,16.038 C 26.387,15.864 24.112,16.073 22.895,16.936 L 26.435,33.76 L 21.605,17.626 C 20.45,17.614 18.108,19.481 17.937,20.032 L 24.987,34.345 L 17.067,21.267 C 16.289,21.545 14.579,24.537 14.853,24.884 L 23.68,35.186 L 14.598,26.391 S 13.418,28.107 14.184,31.006 L 19.312,34.536 L 19.904,39.25 H 26.194 S 27.275,40.287 28.005,40.287 S 29.71,39.25 29.71,39.25 H 36 L 36.698,34.536 L 41.827,31.006 C 42.599,28.102 41.413,26.391 41.413,26.391 L 32.337,35.186 L 41.163,24.89 C 41.437,24.542 39.728,21.545 38.949,21.273 L 31.029,34.357 L 38.079,20.044 C 37.903,19.493 35.567,17.626 34.411,17.638 L 29.58,33.77 L 33.12,16.947 C 31.904,16.083 29.635,15.874 28.74,16.048 L 28.01,33.695 Z" fill="rgb(251, 251, 250)"/>
</svg>
