<?xml version="1.0" encoding="UTF-8"?>
<!-- generated by Finnhub -->
<svg viewBox="0 0 55.5 55.5" xmlns="http://www.w3.org/2000/svg">
<path d="M 0,0 H 55.5 V 55.5 H 0 Z" fill="rgb(148, 190, 69)"/>
<path d="M 33.46,14.777 A 1.122,1.122 0 0,0 33.05,14.822 C 33.032,14.822 32.681,14.934 32.11,15.121 C 31.537,13.454 30.559,11.937 28.805,11.937 H 28.639 C 28.16,11.3 27.532,11 27.015,11 C 22.955,11 20.999,16.151 20.39,18.773 C 19.663,19.005 19.033,19.201 18.55,19.351 C 17.98,19.529 17.618,19.642 17.548,19.673 C 16.662,19.953 16.643,19.973 16.533,20.815 C 16.44,21.452 14.133,39.565 14.133,39.565 L 32.091,42.975 L 32.124,42.967 L 32.122,43 L 41.867,40.865 S 38.452,17.413 38.434,17.245 A 0.501,0.501 0 0,0 38.12,16.964 C 38.01,16.964 35.592,16.776 35.592,16.776 S 33.912,15.072 33.709,14.903 A 0.355,0.355 0 0,0 33.469,14.791 V 14.792 Z M 29.6,15.87 C 30.134,15.683 30.67,15.514 31.112,15.383 C 30.725,14.184 30.152,13.154 29.23,13.042 C 29.47,13.697 29.6,14.522 29.6,15.532 V 15.87 Z M 28.51,16.02 C 28.51,14.784 28.344,13.885 28.104,13.248 C 27.144,13.678 25.982,14.84 25.373,17.2 C 26.026,16.987 26.665,16.787 27.288,16.592 H 27.289 C 27.704,16.462 28.112,16.335 28.51,16.207 V 16.02 Z M 27.44,12.274 A 0.874,0.874 0 0,0 26.923,12.086 C 24.007,12.086 22.346,15.982 21.682,18.38 C 22.108,18.24 22.545,18.104 22.992,17.965 C 23.378,17.845 23.772,17.724 24.173,17.593 C 24.745,14.447 26.13,12.892 27.44,12.273 Z M 27.624,26.022 L 28.806,22.407 S 27.994,21.92 26.406,21.939 C 22.143,21.939 20.039,24.824 20.039,27.802 C 20.039,29.804 21.137,30.709 22.097,31.502 C 22.844,32.118 23.509,32.666 23.509,33.609 C 23.509,34.133 23.139,34.845 22.235,34.845 C 20.87,34.845 19.245,33.421 19.245,33.421 L 18.415,36.193 S 19.965,38.142 23.065,38.142 C 25.631,38.142 27.532,36.175 27.532,33.122 C 27.532,30.774 25.977,29.615 24.749,28.699 C 23.949,28.102 23.287,27.609 23.287,26.959 C 23.287,26.659 23.38,25.442 25.281,25.442 C 26.554,25.442 27.624,26.022 27.624,26.022 Z" fill="rgb(254, 254, 253)" fill-rule="evenodd"/>
</svg>
