<?xml version="1.0" encoding="UTF-8"?>
<!-- generated by Finnhub -->
<svg viewBox="0 0 55.5 55.5" xmlns="http://www.w3.org/2000/svg">
<path d="M 0,0 H 55.5 V 55.5 H 0 Z" fill="rgb(1, 83, 126)"/>
<path d="M 8.391,30.591 A 0.44,0.44 0 0,0 9.178,30.382 A 0.426,0.426 0 0,0 9.084,30.065 A 2.469,2.469 0 0,1 8.521,28.488 C 8.521,27.92 8.708,27.384 9.063,26.938 A 0.428,0.428 0 0,0 8.835,26.255 A 0.445,0.445 0 0,0 8.373,26.405 C 7.896,27.005 7.645,27.725 7.645,28.488 C 7.645,29.257 7.914,30.008 8.401,30.606 Z M 7.475,25.279 A 0.444,0.444 0 0,0 6.861,25.363 A 5.115,5.115 0 0,0 5.785,28.513 C 5.785,29.653 6.152,30.735 6.845,31.643 A 0.44,0.44 0 0,0 7.628,31.444 A 0.427,0.427 0 0,0 7.544,31.124 A 4.274,4.274 0 0,1 6.662,28.514 C 6.662,27.554 6.972,26.646 7.558,25.884 A 0.428,0.428 0 0,0 7.475,25.279 Z M 4.878,28.5 C 4.878,27.134 5.289,25.818 6.07,24.695 A 0.427,0.427 0 0,0 5.956,24.095 A 0.444,0.444 0 0,0 5.346,24.207 A 7.486,7.486 0 0,0 4,28.5 A 7.48,7.48 0 0,0 5.353,32.8 A 0.435,0.435 0 0,0 5.806,32.978 A 0.442,0.442 0 0,0 6.146,32.634 A 0.425,0.425 0 0,0 6.076,32.311 A 6.627,6.627 0 0,1 4.878,28.5 Z M 46.984,30.673 A 0.443,0.443 0 0,0 47.601,30.607 A 3.36,3.36 0 0,0 48.357,28.489 C 48.357,27.726 48.105,27.006 47.63,26.406 A 0.436,0.436 0 0,0 47.167,26.256 A 0.441,0.441 0 0,0 46.902,26.46 A 0.426,0.426 0 0,0 46.939,26.938 C 47.292,27.38 47.483,27.927 47.481,28.489 C 47.481,29.069 47.286,29.615 46.918,30.066 A 0.43,0.43 0 0,0 46.984,30.674 Z M 48.544,31.729 A 0.445,0.445 0 0,0 49.158,31.643 A 5.119,5.119 0 0,0 50.216,28.514 C 50.216,27.365 49.844,26.275 49.141,25.364 A 0.44,0.44 0 0,0 48.358,25.566 A 0.425,0.425 0 0,0 48.443,25.886 C 49.03,26.646 49.34,27.556 49.34,28.514 C 49.34,29.464 49.035,30.368 48.457,31.125 A 0.428,0.428 0 0,0 48.544,31.73 Z M 49.932,24.696 A 6.636,6.636 0 0,1 51.124,28.5 C 51.124,29.87 50.71,31.189 49.926,32.312 A 0.43,0.43 0 0,0 50.196,32.979 A 0.443,0.443 0 0,0 50.648,32.801 A 7.494,7.494 0 0,0 52,28.5 A 7.49,7.49 0 0,0 50.654,24.207 A 0.439,0.439 0 0,0 50.047,24.099 A 0.431,0.431 0 0,0 49.932,24.696" fill="rgb(1, 172, 236)"/>
<path d="M 12.502,25.851 C 11.459,25.866 10.115,26.237 10.115,27.513 C 10.115,29.445 13.217,28.808 13.217,29.608 C 13.217,29.96 12.889,30.055 12.579,30.055 A 0.818,0.818 0 0,1 12.086,29.903 C 11.951,29.798 11.874,29.697 11.874,29.496 H 9.961 C 10.067,30.839 11.342,31.14 12.501,31.14 C 14.358,31.14 15.227,30.436 15.227,29.398 C 15.227,27.532 12.029,27.998 12.029,27.303 C 12.029,27.056 12.251,26.951 12.599,26.951 C 12.753,26.951 12.898,26.989 13.004,27.075 C 13.111,27.16 13.178,27.347 13.198,27.509 H 15.025 C 14.908,26.186 13.613,25.866 12.512,25.866 Z M 41.149,25.866 C 40.424,25.866 40.088,26.371 39.837,26.751 V 26 H 38 V 31 H 40 V 28.531 C 40,27.932 39.95,27.414 40.502,27.428 C 40.984,27.428 41.002,27.722 41.002,28.456 V 31 H 43 V 28.532 C 43,27.932 42.942,27.431 43.507,27.429 C 44.039,27.427 44,27.722 44,28.456 V 31 H 46 V 28.046 C 46,26.685 45.412,25.866 44.137,25.866 C 43.404,25.866 43.023,26.18 42.588,26.779 C 42.347,26.246 41.987,25.866 41.148,25.866 Z M 15.566,25.523 V 26.513 H 17.198 V 25.523 H 15.566 Z M 15.566,27 V 31 H 17.198 V 27 H 15.566 Z M 21.006,25.523 V 26.521 H 22.484 V 25.523 H 21.006 Z M 21.006,27 V 31 H 22.484 V 27 H 21.006 Z M 20.394,26.856 C 19.758,26.856 19.357,27.158 19.13,27.792 H 19.114 V 27 H 17.63 V 31 H 19.264 V 29.625 C 19.264,28.751 19.601,28.442 20.268,28.442 C 20.378,28.442 20.496,28.472 20.605,28.488 V 26.88 C 20.535,26.872 20.464,26.856 20.394,26.856 Z M 29.706,26.856 C 28.85,26.856 27.759,27.158 27.759,28.194 C 27.759,29.764 30.279,29.247 30.279,29.896 C 30.279,30.182 30.012,30.259 29.761,30.259 A 0.664,0.664 0 0,1 29.361,30.135 A 0.447,0.447 0 0,1 29.188,29.765 H 27.634 C 27.72,30.855 28.756,31.141 29.698,31.141 C 31.205,31.141 31.911,30.569 31.911,29.726 C 31.911,28.21 29.313,28.589 29.313,28.025 C 29.313,27.824 29.493,27.738 29.777,27.738 C 29.902,27.738 30.019,27.77 30.105,27.838 A 0.42,0.42 0 0,1 30.263,28.132 H 31.747 C 31.652,27.058 30.601,26.857 29.706,26.857 Z M 22.986,27 V 29.44 C 22.986,30.6 23.567,31.14 24.462,31.14 C 25.137,31.14 25.592,30.986 26,30.429 V 31 H 27.46 V 27 H 26 V 28.92 C 26,29.547 25.759,29.895 25.288,29.895 C 24.895,29.895 24.618,29.718 24.618,29.161 V 27.001 H 22.987 Z" fill="rgb(254, 254, 253)"/>
<path d="M 34.050000000000004,25.985 L 34.698,27.256 L 35.374,26 H 37.577 L 35.847,28.38 L 37.597,30.998 H 35.355 L 34.639,29.569 L 33.905,30.998 H 31.682 L 33.499,28.388 L 31.827,26 H 34.06 Z" fill="rgb(254, 254, 253)"/>
</svg>
