<?xml version="1.0" encoding="UTF-8"?>
<!-- generated by Finnhub -->
<svg viewBox="0 0 55.5 55.5" xmlns="http://www.w3.org/2000/svg">
<path d="M 0,0 H 55.5 V 55.5 H 0 Z" fill="url(#a)"/>
<path d="M 27.99,21.294999999999998 C 20.367,21.31 12.973,22.817 4.773,27.282 L 5.623,28.908 A 2.314,2.314 0 0,0 4.315,31.004 C 4.315,32.288 5.367,33.328 6.665,33.328 C 7.09,33.328 7.488,33.193 7.832,32.998 L 8.704,34.583 C 16.161,30.713 21.92,29.626 28,29.626 C 34.08,29.626 39.84,30.713 47.296,34.583 L 48.169,32.999 C 48.512,33.193 48.911,33.329 49.335,33.329 C 50.633,33.329 51.685,32.288 51.685,31.004 C 51.685,30.084 51.162,29.284 50.378,28.908 L 51.228,27.282 C 43.028,22.817 35.633,21.311 28,21.311 Z" fill="rgb(254, 254, 253)"/>
<path d="M 47.414,34.985 L 48.299,33.412 A 2.58,2.58 0 0,0 49.334,33.639 C 50.806,33.639 52,32.459 52,31.004 C 52,30.079 51.53,29.257 50.796,28.785 L 51.648,27.156 L 51.379,27.01 C 43.13,22.517 35.682,21 28,21 C 20.319,21 12.872,22.517 4.621,27.01 L 4.353,27.156 L 5.205,28.786 A 2.627,2.627 0 0,0 4,31.003 C 4,32.458 5.193,33.638 6.665,33.638 C 7.039,33.638 7.389,33.548 7.701,33.411 L 8.576,35 L 8.85,34.858 C 16.26,31.013 21.97,29.937 28,29.937 C 34.03,29.937 39.739,31.012 47.15,34.857 L 47.424,35 Z M 8.832,34.166 L 7.954,32.571 L 7.674,32.729 A 2.063,2.063 0 0,1 6.665,33.017 A 2.025,2.025 0 0,1 4.629,31.004 C 4.629,30.204 5.084,29.512 5.759,29.188 L 6.049,29.048 L 5.192,27.409 C 13.235,23.084 20.5,21.622 28,21.622 C 35.5,21.622 42.764,23.084 50.807,27.409 L 49.95,29.049 L 50.24,29.188 A 2.003,2.003 0 0,1 51.371,31.004 A 2.025,2.025 0 0,1 49.334,33.017 C 48.978,33.017 48.634,32.903 48.324,32.729 L 48.046,32.571 L 47.167,34.166 C 39.797,30.388 34.055,29.316 28,29.316 C 21.945,29.316 16.203,30.388 8.832,34.166 Z" fill="rgb(238, 61, 64)"/>
<path d="M 6.26,30.989 C 6.27,30.788 6.447,30.614 6.666,30.614 C 6.884,30.614 7.061,30.788 7.061,31.004 C 7.061,31.22 6.884,31.394 6.666,31.394 A 0.393,0.393 0 0,1 6.27,31.004 Z M 48.94,31.004 C 48.94,30.788 49.116,30.614 49.335,30.614 C 49.553,30.614 49.73,30.788 49.73,31.004 C 49.73,31.22 49.553,31.394 49.335,31.394 A 0.393,0.393 0 0,1 48.94,31.004 Z" fill="rgb(238, 61, 64)"/>
<path d="M 10.849,26.378999999999998 L 11.54,27.914 L 10.911,28.19 C 10.746,27.843 10.509,27.64 10.125,27.586 C 9.635,27.516 8.709,28.104 8.832,28.484 C 8.957,28.872 9.146,28.934 9.478,28.934 C 10.188,28.934 10.615,28.844 11.296,28.812 C 12.046,28.778 12.499,29.474 12.536,30.194 C 12.589,31.213 10.789,31.938 10.125,31.887 C 9.418,31.831 9.025,31.472 8.692,30.781 L 9.444,30.418 C 9.601,30.695 9.824,31.054 10.23,31.075 C 10.562,31.092 11.61,30.799 11.488,30.194 C 11.434,29.928 11.4,29.659 10.981,29.71 C 10.319,29.792 9.966,29.802 9.269,29.849 C 8.238,29.918 7.836,29.14 7.836,28.432 C 7.836,27.569 9.094,26.861 9.986,26.878 C 10.094,26.88 10.156,26.883 10.265,26.895 L 10.3,26.636 L 10.859,26.394 Z M 12.172,25.882 L 14.109,25.272 L 15.629,27.465 L 15.647,24.822 L 17.442,24.337 L 17.673,25.064 S 17.149,25.099 17.377,25.652 L 18.337,27.689 C 18.582,28.156 19.071,27.966 19.071,27.966 L 19.263,28.743 L 17.306,29.261 L 17.096,28.536 S 17.691,28.328 17.481,27.862 L 16.485,25.928 L 16.52,29.485 L 15.909,29.641 L 14.004,26.705 L 14.144,28.829 C 14.196,29.33 14.912,29.175 14.912,29.175 L 15.122,29.9 L 13.322,30.54 L 13.043,29.814 S 13.393,29.676 13.375,29.313 L 13.113,26.93 C 13.043,26.29 12.431,26.532 12.431,26.532 L 12.172,25.882 Z M 18.53,24.08 L 20.364,23.7 L 20.469,24.39 S 19.979,24.356 20.155,25.064 L 20.645,27.258 C 20.749,27.62 21.147,27.683 21.587,27.62 C 21.955,27.568 22.269,27.344 22.217,27.033 L 21.867,24.529 C 21.815,24.149 21.378,24.201 21.378,24.201 L 21.254,23.535 L 23.045,23.267 L 23.149,24.007 S 22.689,23.959 22.811,24.632 L 23.091,26.636 C 23.213,27.448 22.986,28.156 21.815,28.38 C 20.59,28.615 19.927,28.242 19.735,27.465 L 19.194,25.133 C 19.089,24.667 18.652,24.736 18.652,24.736 L 18.53,24.08 Z M 27.843,23.06 L 27.808,24.84 L 27.022,24.823 C 27.038,24.261 26.725,23.768 26.009,23.786 C 25.327,23.804 24.978,24.097 25.013,24.667 L 25.083,26.36 C 25.118,26.981 25.576,27.19 26.078,27.171 C 26.488,27.157 26.918,27.085 26.935,26.567 L 26.987,25.927 H 27.913 L 27.878,26.774 C 27.808,27.793 26.9,28 26.044,28 C 24.611,28 24.087,27.292 24.052,25.755 V 24.373 C 24.052,23.337 24.995,22.94 26.044,22.94 C 26.472,22.94 26.735,23.033 27.092,23.268 L 27.197,23.044 L 27.843,23.061 Z M 28.663,23.061 L 30.62,23.131 L 30.586,23.856 S 30.131,23.838 30.096,24.236 C 30.096,24.236 30.044,24.909 30.166,25.03 C 30.393,25.047 31.336,24.339 31.336,24.339 C 31.599,24.149 31.599,23.89 31.302,23.856 L 31.319,23.182 L 33.433,23.337 L 33.363,24.097 S 33.102,23.977 32.525,24.357 L 31.494,25.117 L 32.385,26.757 C 32.735,27.309 33.102,27.327 33.102,27.327 L 33.032,28.035 L 31.599,27.932 C 31.651,27.068 31.407,26.792 31.407,26.792 L 30.69,25.669 C 30.358,25.773 30.044,26.118 30.044,26.118 C 29.939,26.463 30.009,26.705 30.009,26.705 C 30.009,27.12 30.481,27.102 30.481,27.102 L 30.463,27.828 L 28.506,27.776 L 28.471,27.086 S 29.031,27.102 29.065,26.567 L 29.135,24.201 C 29.118,23.856 28.663,23.838 28.663,23.838 V 23.061 Z M 34.36,23.493 L 38.257,24.166 L 37.89,25.756 L 37.243,25.634 C 37.331,25.22 37.296,24.736 36.44,24.598 L 35.846,24.529 S 35.584,24.546 35.531,24.822 L 35.461,25.254 A 0.332,0.332 0 0,0 35.706,25.669 L 36.806,25.841 L 36.649,26.636 L 35.601,26.464 S 35.287,26.411 35.216,26.74 L 35.146,27.172 S 35.146,27.62 35.479,27.672 L 36.003,27.759 C 36.387,27.828 36.789,27.638 36.911,27.068 L 37.575,27.206 L 37.226,28.812 L 33.574,28.156 L 33.714,27.379 S 34.238,27.482 34.308,27.033 L 34.64,24.529 C 34.675,24.201 34.238,24.132 34.238,24.132 L 34.36,23.492 Z M 44,24.914 L 45.082,25.367 C 44.89,26.127 44.312,26.747 44.145,26.85 C 44.165,26.85 43.791,26.664 43.791,26.664 L 43.978,26.252 C 44.249,25.594 43.708,25.614 43.708,25.614 L 43.999,24.914 Z M 48.431,27.78 L 47.701,29.278 L 47.081,28.984 C 47.241,28.634 47.245,28.325 47.038,28.001 C 46.774,27.588 45.722,27.271 45.508,27.61 C 45.291,27.955 45.366,28.137 45.581,28.387 C 46.041,28.922 46.369,29.2 46.851,29.677 C 47.343,30.16 47.121,31.01 46.591,31.505 C 45.841,32.205 44.116,31.32 43.726,30.787 C 43.31,30.22 43.332,29.69 43.649,28.993 L 44.415,29.323 C 44.304,29.62 44.172,30.021 44.419,30.34 C 44.621,30.6 45.526,31.2 45.913,30.716 C 46.083,30.503 46.268,30.303 45.957,30.021 C 45.464,29.576 45.228,29.317 44.74,28.822 C 44.02,28.092 44.357,27.285 44.903,26.827 C 45.568,26.267 46.928,26.755 47.493,27.437 C 47.562,27.52 47.601,27.567 47.66,27.658 L 47.882,27.517 L 48.432,27.781 Z" fill="rgb(34, 30, 30)"/>
<path d="M 42.09,25.188 L 39.287,24.408 L 39.113,25.134 S 39.584,25.151 39.393,25.911 L 38.868,27.811 C 38.658,28.415 38.221,28.208 38.221,28.208 L 38.029,28.968 L 39.759,29.503 L 40.039,28.761 S 39.549,28.605 39.689,28.139 L 39.759,27.828 C 39.812,27.673 39.927,27.536 40.074,27.586 C 41.384,28.036 41.087,29.952 41.087,29.952 L 42.275,30.384 L 42.59,29.693 S 42.24,29.607 42.1,29.141 L 41.664,27.914 C 42.494,27.944 43.009,27.621 43.097,26.36 C 43.137,25.769 42.676,25.37 42.101,25.203 Z M 40.553,25.746 C 40.427,25.839 40.192,26.492 40.223,26.772 C 40.318,26.881 41.041,27.052 41.041,27.052 L 41.135,27.074 C 41.505,27.162 41.827,27.239 41.969,26.741 C 42.11,26.244 41.889,26.073 41.497,25.948 C 41.497,25.948 40.695,25.668 40.553,25.746 Z" fill="rgb(34, 30, 30)" fill-rule="evenodd"/>
<defs>
<linearGradient id="a" x1="10.418" x2="68.147" y1="9.712" y2="76.017" gradientUnits="userSpaceOnUse">
<stop stop-color="rgb(25, 29, 31)" offset="0"/>
<stop stop-color="rgb(5, 5, 8)" offset="1"/>
</linearGradient>
</defs>
</svg>
