<?xml version="1.0" encoding="UTF-8"?>
<!-- generated by Finnhub -->
<svg fill="none" viewBox="0 0 55.5 55.5" xmlns="http://www.w3.org/2000/svg">
<path d="M 0,0 H 55.5 V 55.5 H 0 Z" fill="url(#a)"/>
<path d="M 16.99,33.585 V 20.985 A 0.4,0.4 0 0,1 17.27,20.607 L 18.97,20.021 A 0.4,0.4 0 0,1 19.5,20.399 V 28.541 A 0.3,0.3 0 0,0 20.008,28.757 L 24.823,24.112 A 0.4,0.4 0 0,1 25.101,24 H 27.258 A 0.3,0.3 0 0,1 27.466,24.516 L 23.14,28.686 A 0.3,0.3 0 0,0 23.135,29.115 L 27.492,33.488 A 0.3,0.3 0 0,1 27.279,34 H 25.106 A 0.4,0.4 0 0,1 24.822,33.882 L 21.567,30.602 A 0.3,0.3 0 0,0 21.142,30.601 L 19.5,32.23 V 33.6 A 0.4,0.4 0 0,1 19.1,34 H 17.4 A 0.4,0.4 0 0,1 17,33.6 Z M 7.604,24 H 14.95 A 0.4,0.4 0 0,1 15.343,24.474 L 15.118,25.674 A 0.4,0.4 0 0,1 14.725,26 H 8.2 A 0.7,0.7 0 0,0 7.5,26.7 V 27.3 A 0.7,0.7 0 0,0 8.2,28 H 13.5 A 2,2 0 0,1 15.5,30 V 32 A 2,2 0 0,1 13.5,34 H 5.412 A 0.4,0.4 0 0,1 5.017,33.538 L 5.207,32.338 A 0.4,0.4 0 0,1 5.6,32 H 12.3 A 0.7,0.7 0 0,0 13,31.3 V 30.7 A 0.7,0.7 0 0,0 12.3,30 H 7 A 2,2 0 0,1 5,28 V 26 A 2,2 0 0,1 7,24 H 7.604 Z M 31.498,23.997 H 29.003 V 33.997 H 31.498 V 23.997 Z M 29.003,21 H 31.498 V 23 H 29.003 V 21 Z M 35.495,21 H 33 V 34 H 35.495 V 21 Z M 36.995,20.997 H 39.49 V 33.997 H 36.995 V 20.997 Z M 41.4,24 H 49.6 C 49.82,24 50,24.18 50,24.4 V 25.732 A 0.4,0.4 0 0,1 49.895,26.002 L 44.88,31.498 A 0.3,0.3 0 0,0 45.1,32 H 49.6 C 49.82,32 50,32.18 50,32.4 V 33.6 A 0.4,0.4 0 0,1 49.6,34 H 41.4 A 0.4,0.4 0 0,1 41,33.6 V 32.255 A 0.4,0.4 0 0,1 41.11,31.98 L 46.299,26.506 A 0.3,0.3 0 0,0 46.081,26 H 41.4 A 0.4,0.4 0 0,1 41,25.6 V 24.4 C 41,24.18 41.18,24 41.4,24 Z" clip-rule="evenodd" fill="rgb(254, 254, 253)" fill-rule="evenodd"/>
<defs>
<linearGradient id="a" x1="6.699" x2="46.265" y1="9.728" y2="47.901" gradientUnits="userSpaceOnUse">
<stop stop-color="rgb(109, 114, 237)" offset="0"/>
<stop stop-color="rgb(162, 55, 223)" offset="1"/>
</linearGradient>
</defs>
</svg>
