<?xml version="1.0" encoding="UTF-8"?>
<!-- generated by Finnhub -->
<svg viewBox="0 0 55.5 55.5" xmlns="http://www.w3.org/2000/svg">
<path d="M 0,0 H 55.5 V 55.5 H 0 Z" fill="rgb(1, 67, 129)"/>
<path d="M 11.99,20.614 C 12,19.164 12.461,18.026 13.383,17.216 C 14.316,16.406 15.617,16 17.287,16 C 18.967,16 20.72,16.41 21.632,17.231 C 22.544,18.041 23,19.205 23,20.722 V 24.072 H 18.04 V 20.395 C 18.04,19.979 17.984,19.694 17.871,19.538 C 17.759,19.371 17.564,19.288 17.287,19.288 C 17,19.288 16.795,19.377 16.672,19.553 C 16.56,19.719 16.503,20 16.503,20.395 V 22.436 C 16.503,22.779 16.544,23.081 16.626,23.34 C 16.718,23.59 16.862,23.834 17.056,24.073 L 21.863,29.017 C 22.273,29.464 22.564,29.937 22.739,30.435 C 22.913,30.934 23,31.729 23,32.819 V 35.5 C 23,36.975 22.539,38.113 21.617,38.913 C 20.705,39.703 18.947,40 17.257,40 C 15.525,40 14.213,39.584 13.322,38.753 C 12.441,37.923 12,36.696 12,35.075 V 31 H 16 V 35.903 C 16,36.297 16,37 17,37 C 17.266,37 18,37 18,35.903 V 33 C 18,32.667 17.979,32.333 17.856,32.052 C 17.743,31.761 17.543,31.449 17.256,31.117 L 13.168,26.426 C 12.748,25.948 12.446,25.47 12.261,24.992 C 12.087,24.504 12,23.855 12,23.044 V 20.63 Z M 25,40 V 16 H 29 V 36 H 33 V 40 H 25 Z M 40,35.757 V 30.254 C 40,29.787 39.903,29.46 39.708,29.273 C 39.524,29.075 38.698,29 38.236,29 H 37.99 V 37 H 38.236 C 38.697,37 39.524,36.942 39.708,36.755 C 39.903,36.557 40,36.225 40,35.757 Z M 40,23.175 V 20.5 C 40,19.5 39.903,19.364 39.708,19.187 C 39.524,19.011 38.615,19 37.99,19 V 25 C 38.605,25 39.208,25.136 39.708,24.682 C 40.032,24.389 40,23.705 40,23.175 Z M 34,40 V 16 H 38.743 C 40.516,16 41.833,16.327 42.693,16.982 C 43.565,17.626 44,18.608 44,19.927 V 22.639 C 44,23.875 43.744,24.784 43.231,25.366 C 42.719,25.948 41.812,26.883 40.511,27.143 V 27.267 C 41.689,27.371 42.565,28.229 43.139,28.842 C 43.713,29.444 44,30.322 44,31.475 V 35.029 C 44,36.836 43.58,38.119 42.74,38.878 C 41.9,39.626 40.465,40 38.436,40 H 34 Z" fill="rgb(254, 254, 253)"/>
</svg>
