<?xml version="1.0" encoding="UTF-8"?>
<!-- generated by Finnhub -->
<svg viewBox="0 0 55.5 55.5" xmlns="http://www.w3.org/2000/svg">
<path d="M 0,0 H 55.5 V 55.5 H 0 Z" fill="rgb(239, 242, 248)"/>
<path d="M 49.85,24.585 C 50.66,31.32 41.05,38.05 28.36,39.66 C 15.69,41.26 5.86,37.11 5.05,30.4 C 4.24,23.68 12.79,16.95 25.47,15.34 C 38.15,13.74 49.07,17.89 49.86,24.6 Z M 27.85,16.05 C 16.29,17.1 7.34,22.76 7.85,28.71 C 8.38,34.65 18.15,38.63 29.7,37.58 C 41.26,36.53 50.2,30.87 49.69,24.92 C 49.17,18.96 39.4,15 27.85,16.05 Z" fill="rgb(1, 148, 57)"/>
<path d="M 49.49,29.985 A 2.5,2.5 0 1,0 49.5,25 A 2.5,2.5 0 0,0 49.5,30 Z" fill="rgb(214, 39, 45)"/>
<path d="M 11.66,26.585 L 10.94,26.14 A 2.49,2.49 0 0,1 10.34,25.68 C 10.22,25.55 10.18,25.38 10.18,25.2 C 10.18,24.99 10.24,24.82 10.39,24.71 A 0.83,0.83 0 0,1 10.94,24.52 C 11.21,24.52 11.48,24.62 11.78,24.82 C 12.05,25.01 12.26,25.38 12.39,25.89 L 12.41,25.97 H 12.81 L 12.6,24 H 12.24 V 24.06 A 0.32,0.32 0 0,1 12.16,24.23 C 12.14,24.25 12.09,24.27 12.03,24.27 L 11.59,24.15 C 11.32,24.05 11.06,24 10.87,24 C 10.39,24 9.99,24.15 9.67,24.44 A 1.53,1.53 0 0,0 9.61,26.52 C 9.74,26.66 9.93,26.82 10.14,26.96 L 10.85,27.4 C 11.25,27.65 11.53,27.84 11.65,27.97 C 11.85,28.15 11.93,28.37 11.93,28.62 C 11.93,28.89 11.84,29.1 11.67,29.24 A 0.93,0.93 0 0,1 11.04,29.48 C 10.58,29.48 10.2,29.28 9.88,28.93 C 9.69,28.72 9.55,28.43 9.4,28.07 L 9.38,28.01 H 9 L 9.27,30 H 9.63 L 9.65,29.92 C 9.65,29.85 9.67,29.82 9.72,29.75 A 0.16,0.16 0 0,1 9.82,29.71 S 9.91,29.71 10.28,29.85 C 10.58,29.95 10.88,30 11.13,30 C 11.67,30 12.12,29.83 12.47,29.54 C 12.83,29.22 13,28.83 13,28.36 C 13,28.01 12.9,27.71 12.7,27.46 A 3.11,3.11 0 0,0 11.67,26.6 Z M 16.03,25.33 H 15.93 V 25 H 19.24 C 19.81,25 20.24,25.13 20.53,25.38 C 20.84,25.65 21,25.98 21,26.41 C 21,26.95 20.84,27.33 20.49,27.58 A 2,2 0 0,1 19.26,27.94 H 19 L 18.92,27.92 H 18.86 V 29.12 C 18.86,29.44 18.92,29.52 18.94,29.55 C 18.96,29.57 19.06,29.65 19.37,29.66 H 19.45 V 30 H 17.5 V 29.66 H 17.58 C 17.87,29.62 17.95,29.56 17.97,29.53 C 17.99,29.48 18.02,29.37 18.02,29.01 V 25.87 C 18.02,25.58 17.97,25.47 17.95,25.45 C 17.93,25.43 17.85,25.37 17.62,25.35 H 17.55 C 17.27,25.37 17.17,25.44 17.13,25.5 C 17.09,25.55 17.03,25.68 17.03,26.14 V 27.98 C 17.03,28.48 16.95,28.9 16.81,29.18 C 16.56,29.74 16.04,30 15.31,30 C 14.57,30 14.08,29.71 13.81,29.19 A 2.56,2.56 0 0,1 13.58,28.07 V 25.86 C 13.58,25.55 13.52,25.46 13.51,25.44 H 13.49 C 13.45,25.4 13.36,25.34 13.09,25.33 H 13 V 25 H 15 V 25.33 H 14.92 C 14.66,25.35 14.56,25.41 14.52,25.43 H 14.51 C 14.49,25.46 14.43,25.55 14.43,25.86 V 28.14 C 14.43,28.51 14.47,28.77 14.54,28.97 C 14.7,29.3 15,29.47 15.44,29.47 C 15.94,29.47 16.24,29.3 16.41,28.95 C 16.51,28.75 16.55,28.42 16.55,27.98 V 26.14 C 16.55,25.68 16.49,25.53 16.45,25.48 C 16.41,25.44 16.29,25.35 16.03,25.33 Z M 18.87,25.52 S 18.85,25.54 18.85,25.62 V 27.42 C 18.91,27.44 18.97,27.44 18.99,27.44 H 19.09 C 19.36,27.44 19.57,27.4 19.73,27.31 C 20,27.15 20.13,26.86 20.13,26.43 C 20.13,26.05 19.98,25.78 19.69,25.63 A 1.4,1.4 0 0,0 19.05,25.49 C 18.91,25.49 18.87,25.52 18.87,25.52 Z M 25.23,28.6 L 25.21,28.67 C 25.04,29.05 24.87,29.3 24.67,29.39 C 24.46,29.49 24.15,29.55 23.69,29.55 C 23.15,29.55 23,29.53 22.96,29.5 C 22.94,29.5 22.9,29.48 22.9,29.35 V 27.65 H 23.83 C 24.17,27.65 24.27,27.73 24.31,27.77 C 24.35,27.82 24.41,27.95 24.48,28.29 L 24.5,28.38 H 24.83 V 26.48 H 24.5 L 24.48,26.58 C 24.42,26.89 24.35,27.03 24.31,27.08 C 24.27,27.12 24.17,27.18 23.83,27.18 H 22.9 V 25.63 A 0.5,0.5 0 0,1 22.9,25.55 V 25.52 S 22.94,25.5 23,25.5 H 23.92 C 24.4,25.5 24.56,25.56 24.62,25.6 C 24.69,25.65 24.77,25.81 24.85,26.17 L 24.87,26.27 H 25.23 L 25.2,25 H 21.43 V 25.34 H 21.52 C 21.81,25.36 21.92,25.43 21.93,25.45 C 21.95,25.47 22.02,25.59 22.02,25.88 V 29.12 C 22.02,29.46 21.95,29.52 21.93,29.55 H 21.92 C 21.87,29.59 21.78,29.65 21.5,29.66 H 21.41 V 30 H 25.24 L 25.59,28.56 H 25.22 V 28.6 Z M 29.37,29.33 C 29.45,29.44 29.51,29.51 29.59,29.56 L 29.79,29.63 L 29.91,29.67 H 29.99 V 30 H 28.76 L 27.08,27.78 H 26.93 V 29.08 C 26.93,29.4 27,29.48 27.02,29.51 H 27.03 C 27.08,29.55 27.17,29.61 27.45,29.62 H 27.54 V 29.96 H 25.46 V 29.62 H 25.54 C 25.85,29.58 25.94,29.52 25.96,29.49 C 25.98,29.44 26.02,29.36 26.02,28.98 V 25.87 C 26.02,25.57 25.96,25.47 25.93,25.44 H 25.92 C 25.87,25.41 25.78,25.35 25.52,25.34 H 25.44 V 25 H 27.41 C 27.81,25 28.14,25.04 28.41,25.16 C 28.95,25.38 29.22,25.78 29.22,26.36 C 29.22,26.76 29.1,27.04 28.85,27.26 A 1.6,1.6 0 0,1 28.08,27.64 L 29.37,29.34 Z M 26.91,25.63 V 27.29 C 27.33,27.29 27.64,27.22 27.81,27.13 C 28.14,27 28.28,26.73 28.28,26.36 C 28.28,25.98 28.16,25.73 27.87,25.6 A 1.7,1.7 0 0,0 27.22,25.49 C 27,25.49 26.93,25.51 26.93,25.51 S 26.91,25.53 26.91,25.62 Z M 33.17,28.44 L 31.7,25 H 30.5 V 25.33 H 30.54 C 30.87,25.36 30.97,25.43 31,25.44 C 31.02,25.46 31.02,25.5 31.01,25.6 L 31,25.87 V 28.8 C 31,29.27 30.95,29.4 30.9,29.47 C 30.78,29.61 30.68,29.62 30.5,29.62 V 30 H 31.97 L 32.13,29.62 H 32.05 C 31.76,29.6 31.68,29.53 31.64,29.49 C 31.57,29.42 31.51,29.24 31.51,28.8 V 26.44 L 32.88,30 H 33.11 L 34.67,26.29 V 29.02 C 34.67,29.4 34.61,29.52 34.59,29.53 C 34.56,29.56 34.49,29.63 34.15,29.64 H 34 V 30 H 36.15 V 29.64 H 36.06 C 35.77,29.62 35.66,29.56 35.65,29.54 C 35.63,29.51 35.56,29.42 35.56,29.11 V 25.9 C 35.56,25.61 35.6,25.5 35.65,25.48 C 35.67,25.45 35.77,25.38 36.06,25.37 H 36.15 V 25.03 H 34.65 L 33.17,28.45 Z M 37.87,29.14 C 37.87,29.48 37.93,29.54 37.95,29.57 C 37.97,29.59 38.1,29.67 38.47,29.67 H 38.56 V 30 H 36.37 V 29.66 H 36.46 C 36.77,29.64 36.88,29.58 36.93,29.56 V 29.55 C 36.96,29.55 37,29.45 37,29.12 L 37.02,25.88 C 37.02,25.56 36.96,25.48 36.94,25.45 C 36.89,25.41 36.79,25.36 36.46,25.34 H 36.36 V 25 H 38.54 V 25.34 H 38.44 C 38.1,25.36 38,25.41 37.95,25.45 C 37.93,25.47 37.87,25.56 37.87,25.88 V 29.14 Z M 42.14,28.82 C 41.94,29.02 41.76,29.16 41.6,29.25 C 41.32,29.42 41.01,29.48 40.68,29.48 A 1.4,1.4 0 0,1 39.56,28.97 C 39.26,28.63 39.1,28.15 39.1,27.55 C 39.1,26.91 39.25,26.39 39.54,26.03 C 39.83,25.67 40.18,25.49 40.62,25.49 C 41.05,25.49 41.39,25.67 41.66,25.99 A 2,2 0 0,1 41.99,26.69 L 42.01,26.76 H 42.34 L 42.28,25 H 41.97 L 41.95,25.06 C 41.93,25.11 41.91,25.15 41.87,25.17 C 41.82,25.19 41.78,25.21 41.74,25.21 L 41.64,25.19 L 41.32,25.11 C 41.05,25.02 40.8,25 40.56,25 C 39.83,25 39.22,25.26 38.79,25.75 A 2.53,2.53 0 0,0 38.14,27.53 C 38.14,28.22 38.35,28.8 38.77,29.25 C 39.2,29.75 39.81,30 40.56,30 A 2.33,2.33 0 0,0 42.43,29.08 L 42.49,29.01 L 42.24,28.76 L 42.14,28.82 Z M 46.58,29.56 C 46.67,29.6 46.75,29.62 46.88,29.64 L 47,29.67 V 30 H 45.77 L 44.09,27.78 H 44 V 29.08 C 44,29.4 44,29.48 44.03,29.51 H 44.04 C 44.09,29.55 44.18,29.61 44.46,29.62 H 44.55 V 29.96 H 42.47 V 29.62 H 42.55 C 42.86,29.58 42.95,29.52 42.97,29.49 C 42.99,29.44 43,29.36 43,28.98 V 25.87 C 43,25.57 42.97,25.47 42.94,25.44 H 42.93 C 42.88,25.41 42.79,25.35 42.53,25.34 H 42.45 V 25 H 44.4 C 44.8,25 45.13,25.04 45.4,25.16 C 45.94,25.38 46.21,25.78 46.21,26.36 C 46.21,26.76 46.08,27.04 45.84,27.26 A 1.6,1.6 0 0,1 45.07,27.64 L 46.36,29.34 C 46.44,29.44 46.5,29.51 46.58,29.56 Z M 44,25.62 V 27.29 C 44.42,27.29 44.63,27.22 44.8,27.13 C 45.13,27 45.27,26.73 45.27,26.36 C 45.27,25.98 45.15,25.73 44.86,25.6 A 1.7,1.7 0 0,0 44.21,25.49 H 44.15 C 44.05,25.49 44,25.49 44,25.62 Z" fill="rgb(1, 57, 110)"/>
</svg>
