<?xml version="1.0" encoding="UTF-8"?>
<!-- generated by Finnhub -->
<svg viewBox="0 0 55.5 55.5" xmlns="http://www.w3.org/2000/svg">
<path d="M 0,0 H 55.5 V 55.5 H 0 Z" fill="rgb(239, 242, 248)"/>
<path d="M 40.980000000000004,28.955 A 4.28,4.28 0 0,0 39.47,25.93 C 39.43,25.91 39.41,25.86 39.37,25.84 C 34.95,21.87 38.78,18.66 38.78,18.66 S 38.85,18.62 38.82,18.62 A 4.7,4.7 0 0,0 40.02,12.5 A 4.9,4.9 0 0,0 35.97,10 A 5.04,5.04 0 0,0 31.65,12.05 A 4.8,4.8 0 0,0 33.03,18.95 C 34.11,19.8 36.6,22.33 33.37,26.09 A 4.33,4.33 0 0,0 32.16,30.26 L 32.2,30.43 L 32.27,30.66 C 32.3,30.76 32.33,30.86 32.37,30.94 C 32.4,30.96 32.4,31 32.42,31.02 C 32.7,31.69 33.16,32.28 33.74,32.72 L 34,32.92 H 34.02 A 3.74,3.74 0 0,1 35.69,35.2 C 35.92,36.08 35.8,37.03 35.36,37.84 A 3.92,3.92 0 0,1 33.1,36.36 A 3.79,3.79 0 0,1 32.38,33.78 A 4.32,4.32 0 0,0 31.28,30.34 A 4.48,4.48 0 0,0 27.92,28.86 L 27.62,28.88 H 27.46 C 22.18,29.09 21.88,25.31 21.88,24.39 A 4.82,4.82 0 0,0 20.65,20.37 A 5,5 0 0,0 17.44,18.81 H 17.37 L 16.98,18.79 A 5.02,5.02 0 0,0 12.38,21.78 A 4.78,4.78 0 0,0 14.4,27.81 C 15.53,28.71 17.8,31.21 14.67,34.89 A 4.33,4.33 0 0,0 15.32,41.69 A 4.54,4.54 0 0,0 21.27,40.82 A 4.36,4.36 0 0,0 20.97,34.92 A 1.94,1.94 0 0,1 20.75,34.72 C 20.7,34.7 20.68,34.66 20.64,34.64 C 17.67,31.93 18.45,29.6 19.28,28.37 C 20.9,28.52 23.08,29.44 23.41,33.2 A 4.27,4.27 0 0,0 24.73,36.36 A 4.56,4.56 0 0,0 28.89,37.55 C 30.09,37.4 33.11,37.45 33.56,41.58 A 3.63,3.63 0 0,0 35.31,44.49 A 3.65,3.65 0 0,0 38.69,44.66 A 3.55,3.55 0 0,0 40.07,43.49 C 40.1,43.47 40.1,43.45 40.12,43.43 L 40.29,43.15 C 40.39,42.95 40.49,42.75 40.55,42.54 V 42.52 L 40.61,42.24 L 40.64,42.18 A 0.64,0.64 0 0,0 40.66,41.97 L 40.68,41.82 V 41.77 L 40.7,41.47 A 3.15,3.15 0 0,0 40.35,40.01 L 40.31,39.93 C 40.14,39.58 39.91,39.26 39.64,38.99 L 39.25,38.61 C 36.05,35.27 39.27,32.71 39.27,32.71 L 39.32,32.66 A 4.17,4.17 0 0,0 40.96,29.3 C 41,29.2 41.01,29.08 40.99,28.97 Z" fill="rgb(36, 50, 120)"/>
</svg>
