<?xml version="1.0" encoding="UTF-8"?>
<!-- generated by Finnhub -->
<svg viewBox="0 0 55.5 55.5" xmlns="http://www.w3.org/2000/svg">
<path d="M 0,0 H 55.5 V 55.5 H 0 Z" fill="rgb(206, 251, 2)"/>
<path d="M 28.221,28.663 C 28.231,29.456 27.911,30.636 27.032,30.636 C 26.213,30.636 26.213,29.984 26.213,29.617 L 26.207,28.667 A 178.99,178.99 0 0,1 26.201,27.784 C 26.201,27.544 26.201,26.753 26.997,26.753 C 27.875,26.753 28.231,27.853 28.231,28.678 Z M 23.728,26.732 C 24.133,26.84 24.263,27.046 24.241,27.922 L 24.253,31.632 C 24.253,31.885 24.253,32.676 24.241,32.894 C 24.241,33.221 24.204,33.455 23.761,33.528 A 0.222,0.222 0 0,0 23.576,33.748 V 33.776 A 0.214,0.214 0 0,0 23.647,33.934 A 0.23,0.23 0 0,0 23.815,33.994 C 24.195,33.979 24.484,33.971 24.93,33.971 C 25.518,33.975 26.105,33.984 26.692,34 A 0.233,0.233 0 0,0 26.857,33.937 A 0.219,0.219 0 0,0 26.925,33.78 C 26.926,33.73 26.908,33.68 26.875,33.64 A 0.226,0.226 0 0,0 26.745,33.565 C 26.253,33.485 26.225,33.143 26.225,32.699 V 31.262 C 26.225,31.223 26.235,31.186 26.255,31.152 A 0.234,0.234 0 0,1 26.562,31.069 C 26.792,31.189 27.124,31.301 27.579,31.301 C 29.063,31.301 30.334,30.098 30.334,28.368 C 30.334,27.108 29.443,25.917 28.006,25.917 C 27.423,25.917 26.963,26.067 26.497,26.355 A 0.233,0.233 0 0,1 26.197,26.303 A 0.215,0.215 0 0,1 26.154,26.205 A 4.757,4.757 0 0,0 26.114,26.005 A 0.213,0.213 0 0,0 26.011,25.863 A 0.229,0.229 0 0,0 25.833,25.839 C 25.415,25.949 24.567,26.159 23.765,26.242 A 0.23,0.23 0 0,0 23.621,26.314 A 0.215,0.215 0 0,0 23.564,26.46 V 26.517 C 23.564,26.566 23.579,26.613 23.609,26.651 A 0.23,0.23 0 0,0 23.729,26.732 Z M 34.488,31.198 C 35.751,31.198 36.066,31.198 36.548,31.232 A 0.282,0.282 0 0,0 36.755,31.16 A 0.263,0.263 0 0,0 36.839,30.965 A 0.255,0.255 0 0,0 36.773,30.795 A 0.273,0.273 0 0,0 36.608,30.707 C 36.364,30.675 36.205,30.614 36.103,30.499 C 35.961,30.316 35.949,30.247 35.925,29.044 L 35.913,25.33 C 35.913,23.81 35.913,23.605 36.617,23.52 A 0.273,0.273 0 0,0 36.801,23.43 A 0.254,0.254 0 0,0 36.769,23.062 A 0.276,0.276 0 0,0 36.572,23.001 H 36.567 C 36.2,23.013 35.772,23.027 35.105,23.027 C 34.438,23.027 33.77,23.018 33.103,23.001 A 0.268,0.268 0 0,0 32.889,23.443 A 0.272,0.272 0 0,0 33.051,23.531 C 33.414,23.59 33.555,23.637 33.644,23.841 C 33.728,24.001 33.74,24.265 33.751,25.135 V 28.941 C 33.751,30.393 33.723,30.624 33.057,30.715 A 0.273,0.273 0 0,0 32.887,30.815 A 0.255,0.255 0 0,0 32.927,31.171 C 32.98,31.214 33.047,31.237 33.117,31.233 C 33.521,31.206 33.797,31.198 34.488,31.198 Z M 37.126,30.754 A 0.235,0.235 0 0,0 36.926,30.984 V 30.995 A 0.225,0.225 0 0,0 37.004,31.168 A 0.242,0.242 0 0,0 37.189,31.228 C 37.392,31.208 37.609,31.198 37.983,31.198 C 38.954,31.198 39.473,31.213 39.876,31.238 A 0.248,0.248 0 0,0 40.056,31.175 A 0.233,0.233 0 0,0 40.132,31.005 V 30.975 A 0.23,0.23 0 0,0 39.959,30.751 C 39.668,30.677 39.574,30.531 39.574,30.006 C 39.574,29.496 39.574,27.867 39.555,27.293 A 0.228,0.228 0 0,1 39.654,27.098 C 39.894,26.924 40.144,26.81 40.464,26.81 C 41.237,26.81 41.26,27.44 41.272,27.99 L 41.296,29.777 C 41.306,30.475 41.263,30.635 40.916,30.725 A 0.233,0.233 0 0,0 40.738,30.949 V 31 A 0.225,0.225 0 0,0 40.816,31.171 A 0.242,0.242 0 0,0 41.001,31.231 C 41.242,31.211 41.501,31.198 41.973,31.198 C 42.807,31.198 43.316,31.213 43.652,31.234 A 0.246,0.246 0 0,0 43.832,31.172 A 0.233,0.233 0 0,0 43.909,31.002 A 0.225,0.225 0 0,0 43.856,30.855 A 0.24,0.24 0 0,0 43.718,30.773 C 43.325,30.703 43.244,30.526 43.244,30.237 C 43.244,30.136 43.25,29.849 43.257,29.572 C 43.262,29.312 43.267,29.059 43.267,28.976 V 27.989 V 27.97 C 43.219,27.344 43.122,26.752 42.543,26.364 C 42.175,26.113 41.723,25.998 41.273,25.998 C 40.646,25.998 40.221,26.185 39.773,26.436 A 0.248,0.248 0 0,1 39.47,26.393 A 0.232,0.232 0 0,1 39.417,26.3 A 2.065,2.065 0 0,0 39.39,26.212 A 0.23,0.23 0 0,0 39.268,26.076 A 0.247,0.247 0 0,0 39.082,26.064 C 38.612,26.221 37.718,26.464 37.127,26.564 A 0.235,0.235 0 0,0 36.926,26.794 V 26.821 C 36.926,26.871 36.942,26.92 36.973,26.961 A 0.24,0.24 0 0,0 37.099,27.044 C 37.379,27.121 37.579,27.279 37.579,27.854 C 37.579,28.054 37.582,28.318 37.585,28.581 C 37.588,28.845 37.591,29.108 37.591,29.309 C 37.591,29.48 37.591,30.167 37.555,30.432 C 37.522,30.652 37.305,30.726 37.126,30.755 Z M 49.319,30.426 A 0.284,0.284 0 0,0 49.279,29.986 A 0.31,0.31 0 0,0 48.904,30.005 C 48.579,30.28 48.214,30.475 47.772,30.475 C 46.942,30.475 46.181,29.605 46.181,28.311 C 46.181,27.75 46.371,26.616 47.06,26.616 C 47.428,26.616 47.665,27.006 47.772,27.223 L 47.797,27.276 C 48,27.719 48.026,27.776 48.129,27.864 C 48.259,27.99 48.473,28.07 48.651,28.07 C 49.055,28.07 49.399,27.738 49.399,27.349 C 49.399,26.524 48.295,26.032 47.131,26.032 C 45.361,26.032 43.913,27.085 43.913,28.723 C 43.913,30.281 45.16,31.416 46.858,31.416 A 3.6,3.6 0 0,0 49.318,30.426 Z M 52,30.396 C 52,29.8 51.502,29.353 50.92,29.353 C 50.433,29.353 49.863,29.709 49.863,30.419 C 49.866,30.689 49.98,30.947 50.181,31.136 C 50.381,31.326 50.651,31.43 50.931,31.427 C 51.502,31.427 52.001,30.98 52.001,30.396 Z M 4.001,28.94 C 4.068,29.587 4.133,30.432 4.141,31.164 A 0.26,0.26 0 0,0 4.231,31.359 A 0.28,0.28 0 0,0 4.441,31.428 L 4.461,31.426 A 0.287,0.287 0 0,0 4.678,31.298 L 4.783,31.13 A 0.271,0.271 0 0,1 4.957,31.008 A 0.289,0.289 0 0,1 5.169,31.042 C 5.537,31.267 6.172,31.564 7.145,31.564 C 9.105,31.564 10.34,30.316 10.34,28.827 C 10.34,27.315 9.164,26.822 8.31,26.501 A 22.43,22.43 0 0,0 7.765,26.301 C 7.414,26.176 7.067,26.052 6.73,25.894 C 6.48,25.779 5.91,25.515 5.91,24.897 C 5.91,24.359 6.409,23.695 7.252,23.695 C 7.905,23.695 8.428,24.05 8.82,24.565 C 8.983,24.801 9.067,24.979 9.216,25.359 A 0.263,0.263 0 0,0 9.336,25.55 A 0.286,0.286 0 0,0 9.744,25.45 A 0.262,0.262 0 0,0 9.754,25.226 A 28.084,28.084 0 0,1 9.528,23.276 A 0.267,0.267 0 0,0 9.436,23.096 A 0.286,0.286 0 0,0 9.013,23.151 L 8.919,23.295 A 0.284,0.284 0 0,1 8.569,23.395 A 3.835,3.835 0 0,0 7.027,23.087 C 5.376,23.087 4.081,24.004 4.081,25.561 C 4.081,26.951 5.183,27.457 5.664,27.677 L 5.673,27.681 C 5.888,27.775 6.109,27.859 6.328,27.942 L 6.718,28.093 C 7.882,28.517 8.476,28.803 8.476,29.513 C 8.476,30.281 7.822,30.889 6.931,30.889 C 5.708,30.889 5.126,30.019 4.96,29.766 A 3.06,3.06 0 0,1 4.56,28.846 A 0.27,0.27 0 0,0 4.442,28.689 A 0.289,0.289 0 0,0 4.246,28.648 L 4.236,28.649 A 0.279,0.279 0 0,0 4.058,28.749 A 0.26,0.26 0 0,0 4.001,28.94 Z M 10.801,30.753 A 0.235,0.235 0 0,0 10.601,30.983 V 30.994 A 0.225,0.225 0 0,0 10.679,31.167 A 0.242,0.242 0 0,0 10.864,31.227 C 11.067,31.207 11.284,31.197 11.657,31.197 C 12.629,31.197 13.147,31.212 13.551,31.237 A 0.25,0.25 0 0,0 13.731,31.174 A 0.233,0.233 0 0,0 13.807,31.004 V 30.974 A 0.23,0.23 0 0,0 13.633,30.75 C 13.343,30.676 13.249,30.53 13.249,30.005 C 13.249,29.495 13.249,27.866 13.23,27.292 A 0.229,0.229 0 0,1 13.33,27.097 C 13.57,26.923 13.818,26.809 14.14,26.809 C 14.912,26.809 14.935,27.439 14.947,27.989 L 14.971,29.776 C 14.981,30.474 14.938,30.634 14.591,30.724 A 0.233,0.233 0 0,0 14.413,30.948 V 31 A 0.226,0.226 0 0,0 14.491,31.171 A 0.243,0.243 0 0,0 14.676,31.231 C 14.917,31.211 15.176,31.198 15.648,31.198 C 16.483,31.198 16.991,31.213 17.328,31.234 A 0.25,0.25 0 0,0 17.508,31.172 A 0.233,0.233 0 0,0 17.584,31.002 A 0.225,0.225 0 0,0 17.531,30.855 A 0.24,0.24 0 0,0 17.393,30.773 C 17,30.703 16.919,30.526 16.919,30.237 C 16.919,30.136 16.925,29.849 16.931,29.572 C 16.937,29.312 16.942,29.059 16.942,28.976 V 27.97 C 16.894,27.344 16.797,26.752 16.218,26.364 C 15.85,26.113 15.398,25.998 14.948,25.998 C 14.321,25.998 13.896,26.185 13.448,26.436 A 0.249,0.249 0 0,1 13.145,26.393 A 0.23,0.23 0 0,1 13.092,26.3 A 2.065,2.065 0 0,0 13.065,26.212 A 0.233,0.233 0 0,0 12.943,26.076 A 0.246,0.246 0 0,0 12.757,26.064 C 12.287,26.221 11.393,26.464 10.802,26.564 A 0.235,0.235 0 0,0 10.601,26.794 V 26.821 C 10.601,26.871 10.617,26.92 10.648,26.961 A 0.24,0.24 0 0,0 10.773,27.044 C 11.054,27.121 11.254,27.279 11.254,27.854 C 11.254,28.054 11.257,28.318 11.26,28.581 C 11.263,28.845 11.266,29.108 11.266,29.309 C 11.266,29.481 11.266,30.167 11.23,30.432 C 11.197,30.652 10.98,30.726 10.8,30.755 Z M 20.921,28.973 A 0.226,0.226 0 0,1 20.945,29.075 V 30.077 C 20.945,30.115 20.936,30.153 20.918,30.187 A 0.233,0.233 0 0,1 20.84,30.27 A 0.862,0.862 0 0,1 20.328,30.43 C 19.877,30.43 19.71,30.086 19.71,29.776 C 19.71,29.174 20.242,28.949 20.643,28.851 A 0.252,0.252 0 0,1 20.851,28.891 C 20.881,28.913 20.904,28.941 20.921,28.973 Z M 23.753,30.474 A 0.244,0.244 0 0,0 23.395,30.396 A 0.374,0.374 0 0,1 23.178,30.486 C 22.869,30.486 22.881,30.04 22.893,29.846 L 22.916,27.291 C 22.916,26.339 22.169,26.019 21.147,26.019 C 19.675,26.019 18.047,26.706 18.047,27.554 C 18.047,27.978 18.392,28.207 18.76,28.207 C 19.057,28.207 19.39,28.057 19.485,27.669 C 19.503,27.594 19.511,27.517 19.52,27.439 C 19.53,27.362 19.538,27.285 19.556,27.21 C 19.627,26.958 19.841,26.73 20.233,26.73 C 20.293,26.73 20.767,26.73 20.91,27.13 C 20.96,27.274 20.959,27.69 20.958,28.045 C 20.958,28.099 20.938,28.151 20.902,28.193 A 0.241,0.241 0 0,1 20.762,28.272 C 19.816,28.436 17.727,28.983 17.727,30.292 C 17.727,30.716 17.988,31.426 19.081,31.426 C 19.831,31.426 20.505,31.061 20.832,30.856 A 0.245,0.245 0 0,1 21.152,30.909 C 21.217,30.991 21.291,31.064 21.373,31.129 C 21.632,31.311 21.943,31.411 22.263,31.415 C 22.575,31.415 23.141,31.301 23.712,30.744 A 0.232,0.232 0 0,0 23.78,30.567 A 0.226,0.226 0 0,0 23.753,30.474 Z" fill="rgb(33, 30, 30)"/>
</svg>
