<?xml version="1.0" encoding="UTF-8"?>
<!-- generated by Finnhub -->
<svg viewBox="0 0 55.5 55.5" xmlns="http://www.w3.org/2000/svg">
<path d="M 0,0 H 55.5 V 55.5 H 0 Z" fill="rgb(254, 157, 22)"/>
<path d="M 20.15,26.985 H 15.84 C 15.36,27 15,27.32 15,27.748 V 41.252 C 15,41.644 15.36,42 15.84,42 H 20.16 C 20.64,42 21,41.68 21,41.252 V 27.748 C 21,27.321 20.64,27 20.16,27 Z" fill="rgb(254, 254, 253)"/>
<path d="M 24.291999999999998,30.985 H 11.698 A 0.72,0.72 0 0,0 11,31.714 V 35.286 C 11,35.679 11.3,36 11.698,36 H 24.302 A 0.72,0.72 0 0,0 25,35.286 V 31.714 C 25,31.321 24.7,31 24.302,31 Z" fill="rgb(254, 254, 253)"/>
<path d="M 41.183,12.985 H 36.786 C 36.382,13 36,13.331 36,13.773 V 32.059 L 22.367,13.846 C 21.853,13.147 21.523,13 20.532,13 H 15.772 A 0.776,0.776 0 0,0 15.002,13.773 V 23.233 C 15.002,23.637 15.332,24 15.773,24 H 20.226 C 20.629,24 20.996,23.674 20.996,23.233 V 20.395 L 35.468,40.043 C 35.982,40.743 36.496,41 37.413,41 H 41.23 C 41.633,41 42,40.632 42,40.19 V 13.773 C 41.964,13.331 41.633,13 41.193,13 Z" fill="rgb(254, 254, 253)"/>
</svg>
