<?xml version="1.0" encoding="UTF-8"?>
<!-- generated by Finnhub -->
<svg viewBox="0 0 55.5 55.5" xmlns="http://www.w3.org/2000/svg">
<path d="M 0,0 H 55.5 V 55.5 H 0 Z" fill="rgb(32, 178, 228)"/>
<path d="M 21.77,27.925 A 1.97,1.97 0 0,1 20.78,29.72 L 14,33.62 A 2,2 0 0,1 11.27,32.89 A 1.98,1.98 0 0,1 12,30.18 L 15.79,28 L 12,25.82 A 1.98,1.98 0 0,1 11.27,23.11 A 2,2 0 0,1 14,22.38 L 20.78,26.28 A 1.98,1.98 0 0,1 21.78,27.94 Z M 23,33.5 C 23.36,33.28 23.77,33.2 24.16,33.24 C 25.19,33.31 26,34.17 26,35.22 V 43.02 A 2,2 0 1,1 22,43.02 V 38.65 L 18.2,40.83 A 1.99,1.99 0 1,1 16.2,37.39 L 23,33.49 Z M 33,22.5 A 2,2 0 0,1 31.84,22.76 A 2,2 0 0,1 30,20.78 V 12.98 C 30,11.89 30.89,11 32,11 A 2,2 0 0,1 34,12.99 V 17.35 L 37.79,15.16 A 1.99,1.99 0 1,1 39.79,18.6 L 33,22.5 Z M 23,22.5 L 16.21,18.6 A 1.99,1.99 0 1,1 18.21,15.16 L 22,17.35 V 12.99 A 2,2 0 0,1 26,12.99 V 20.79 A 2,2 0 0,1 24.16,22.76 A 2,2 0 0,1 23,22.5 Z M 33,33.5 L 39.78,37.39 A 1.99,1.99 0 1,1 37.78,40.83 L 34,38.65 V 43.01 A 2,2 0 0,1 30,43.01 V 35.21 C 30,34.17 30.81,33.31 31.84,33.24 C 32.24,33.2 32.64,33.28 33,33.5 Z M 40.21,28 L 44,25.82 A 1.98,1.98 0 0,0 44.73,23.11 A 2,2 0 0,0 42,22.38 L 35.22,26.28 A 2,2 0 0,0 34.32,28.58 C 34.45,29.05 34.77,29.46 35.22,29.72 L 42,33.62 A 2,2 0 0,0 44.73,32.89 C 45.28,31.94 44.96,30.73 44,30.18 L 40.21,28 Z M 29.81,27.5 C 29.91,27.62 30,27.8 30,28 S 29.91,28.38 29.8,28.5 L 28.5,29.8 A 0.7,0.7 0 0,1 28,30 A 0.7,0.7 0 0,1 27.5,29.8 L 26.19,28.5 A 0.73,0.73 0 0,1 26.19,27.5 L 27.51,26.2 A 0.71,0.71 0 0,1 28.49,26.2 L 29.81,27.5 Z M 29.03,32.8 L 32.8,29.03 C 32.91,28.93 33,28.71 33,28.56 V 27.45 A 0.77,0.77 0 0,0 32.8,26.97 L 29.03,23.2 A 0.75,0.75 0 0,0 28.55,23 H 27.44 A 0.76,0.76 0 0,0 26.97,23.2 L 23.2,26.97 C 23.09,27.07 23,27.29 23,27.45 V 28.56 C 23,28.71 23.09,28.92 23.2,29.03 L 26.97,32.8 C 27.07,32.9 27.29,33 27.44,33 H 28.55 C 28.71,33 28.92,32.9 29.03,32.8 Z" fill="rgb(254, 254, 253)"/>
</svg>
