<?xml version="1.0" encoding="UTF-8"?>
<!-- generated by Finnhub -->
<svg viewBox="0 0 55.5 55.5" xmlns="http://www.w3.org/2000/svg">
<path d="M 0,0 H 55.5 V 55.5 H 0 Z" fill="rgb(88, 56, 134)"/>
<path d="M 7.407,24.085 C 7.417,23.79 7.323,23.557 6.583,23.557 S 5.676,23.789 5.676,24.099 V 24.94 C 5.676,25.195 5.768,25.45 6.031,25.66 L 8.543,27.653 C 8.903,27.93 9.116,28.273 9.116,28.629 V 29.89 C 9.116,30.643 8.158,31.065 6.583,31.064 C 4.836,31.064 4,30.699 4,29.89 V 29 H 5.58 V 29.846 C 5.58,30.223 5.89,30.444 6.583,30.444 C 7.226,30.444 7.54,30.223 7.54,29.846 V 28.727 C 7.54,28.451 7.419,28.241 7.085,27.964 L 4.765,26.092 C 4.335,25.749 4.096,25.482 4.096,25.074 V 24.11 C 4.096,23.323 4.983,22.936 6.583,22.936 C 8.351,22.936 8.997,23.323 8.997,24.056 V 25 H 7.417 V 24.1 Z M 23,24.288 C 23,23.501 23.611,22.936 25.738,22.936 C 27.866,22.936 28.509,23.501 28.509,24.288 V 29.714 C 28.509,30.5 27.866,31.064 25.739,31.064 C 23.611,31.064 23,30.5 23,29.714 V 24.288 Z M 24.543,29.692 C 24.543,30.134 24.731,30.444 25.738,30.444 C 26.741,30.444 27,30.134 27,29.692 V 24.31 C 27,23.867 26.741,23.557 25.738,23.557 C 24.736,23.557 24.543,23.867 24.543,24.31 V 29.692 Z M 29.385,23.003 H 31.892 C 33.928,23.003 34.526,23.313 34.526,24.222 V 26.182 C 34.526,27.09 33.928,27.4 31.892,27.4 H 31 V 30.998 H 29.385 V 23.003 Z M 31.725,26.779 C 32.445,26.779 33,26.69 33,26.281 V 24.121 C 33,23.711 32.444,23.624 31.725,23.624 H 31 V 26.779 H 31.725 Z M 38.467,24.1 C 38.467,23.79 38.3,23.557 37.555,23.557 C 36.815,23.557 36.648,23.789 36.648,24.1 V 24.941 C 36.648,25.196 36.744,25.451 37.008,25.661 L 39.52,27.654 C 39.875,27.931 40,28.274 40,28.628 V 29.89 C 40,30.644 39.135,31.065 37.555,31.065 C 35.813,31.065 35,30.699 35,29.89 V 29 H 36.552 V 29.847 C 36.552,30.223 36.866,30.444 37.555,30.444 C 38.203,30.444 38.512,30.223 38.512,29.847 V 28.728 C 38.512,28.452 38.396,28.241 38.062,27.965 L 35.742,26.093 C 35.312,25.75 35,25.483 35,25.073 V 24.111 C 35,23.324 35.954,22.936 37.555,22.936 C 39.328,22.936 40,23.325 40,24.056 V 25 H 38.467 V 24.1 Z M 50.374,24.1 C 50.374,23.79 50.207,23.557 49.467,23.557 C 48.723,23.557 48.556,23.789 48.556,24.1 V 24.941 C 48.556,25.196 48.652,25.451 48.916,25.661 L 51.428,27.654 C 51.782,27.931 52,28.274 52,28.628 V 29.892 C 52,30.644 51.043,31.065 49.462,31.065 C 47.72,31.065 47,30.699 47,29.89 V 29 H 48.46 V 29.847 C 48.46,30.223 48.774,30.444 49.462,30.444 C 50.111,30.444 50.42,30.223 50.42,29.847 V 28.728 C 50.42,28.452 50.303,28.241 49.969,27.965 L 47.649,26.093 C 47.219,25.75 47,25.483 47,25.075 V 24.111 C 47,23.324 47.862,22.936 49.468,22.936 C 51.235,22.938 52,23.325 52,24.056 V 25 H 50.374 V 24.1 Z M 14.383,23.003 H 15.963 L 12.504,33.041 H 10.924 L 14.384,23.003 Z M 11.506,29.22 L 9.37,23.003 H 10.95 L 12.297,26.923 L 11.507,29.22 Z M 45.218,23.003 H 46.798 L 43.34,33.041 H 41.76 L 45.22,23.003 Z M 42.473,29.22 L 40.336,23.003 H 41.916 L 43.263,26.923 L 42.473,29.221 Z M 22,30.998 V 24.223 C 22,23.316 21.403,23 19.367,23 L 16.323,23.005 V 31 H 18 V 23.625 H 19.2 C 19.919,23.625 20.42,23.714 20.42,24.124 V 30.998 H 22 Z" fill="rgb(254, 254, 253)"/>
</svg>
