<?xml version="1.0" encoding="UTF-8"?>
<!-- generated by Finnhub -->
<svg viewBox="0 0 55.5 55.5" xmlns="http://www.w3.org/2000/svg">
<path d="M 0,0 H 55.5 V 55.5 H 0 Z" fill="rgb(67, 67, 144)"/>
<path d="M 43.410000000000004,23.649 L 43.882,25.728 C 44.69,32.165 41.279,38.826 35.652,42.024 C 30.876,44.722 24.705,44.649 19.988,41.855 L 18.896,41.14 L 17.804,40.297 C 24.152,42.005 28.73,38.916 31.83,33.349 C 34.08,28.297 36.963,22.585 43.42,23.664 Z M 43.252,23.201 C 39.554,18.567 34.969,19.733 29.772,21.222 C 26.817,21.826 23.715,21.497 22.507,18.317 C 21.577,13.655 26.867,11.167 30.737,12.253 C 36.632,13.755 41.062,17.611 43.252,23.201 Z M 12.052,26.994 C 11.548,32.076 14.742,41.074 21.332,39.416 C 23.709,38.343 25.064,35.426 23.263,33.142 C 22.015,31.722 20.238,31.062 18.433,30.389 C 16.649,29.725 14.838,29.051 13.479,27.625 L 12.765,26.91 L 12.135,26.11 L 12.052,26.994 Z" fill="rgb(254, 254, 253)"/>
</svg>
