<?xml version="1.0" encoding="UTF-8"?>
<!-- generated by Finnhub -->
<svg viewBox="0 0 55.5 55.5" xmlns="http://www.w3.org/2000/svg">
<path d="M 0,0 H 55.5 V 55.5 H 0 Z" fill="rgb(1, 169, 207)"/>
<path d="M 22.99,18.485 A 4.5,4.5 0 1,1 14,18.5 A 4.5,4.5 0 0,1 23,18.5 Z M 18.5,41 A 3.5,3.5 0 1,0 18.5,34 A 3.5,3.5 0 0,0 18.5,41 Z M 18.5,42 A 4.5,4.5 0 1,0 18.5,33 A 4.5,4.5 0 0,0 18.5,42 Z M 18.5,32.5 A 4.5,4.5 0 1,0 18.5,23.5 A 4.5,4.5 0 0,0 18.5,32.5 Z M 37.5,22 A 3.5,3.5 0 1,0 37.5,15 A 3.5,3.5 0 0,0 37.5,22 Z M 37.5,23 A 4.5,4.5 0 1,0 37.5,14 A 4.5,4.5 0 0,0 37.5,23 Z M 37.5,42 A 4.5,4.5 0 1,0 37.5,33 A 4.5,4.5 0 0,0 37.5,42 Z M 42,28 A 4.5,4.5 0 1,1 33,28 A 4.5,4.5 0 0,1 42,28 Z M 28,23 A 4.5,4.5 0 1,0 28,14 A 4.5,4.5 0 0,0 28,23 Z M 32.5,37.5 A 4.5,4.5 0 1,1 23.5,37.5 A 4.5,4.5 0 0,1 32.5,37.5 Z M 31.5,28 A 3.5,3.5 0 1,1 24.5,28 A 3.5,3.5 0 0,1 31.5,28 Z M 32.5,28 A 4.5,4.5 0 1,1 23.5,28 A 4.5,4.5 0 0,1 32.5,28 Z" fill="rgb(254, 254, 253)" fill-rule="evenodd"/>
</svg>
