<?xml version="1.0" encoding="UTF-8"?>
<!-- generated by Finnhub -->
<svg viewBox="0 0 55.5 55.5" xmlns="http://www.w3.org/2000/svg">
<path d="M 0,0 H 55.5 V 55.5 H 0 Z" fill="url(#a)"/>
<path d="M 20.493,31.985 C 18.805,32 17.229,31.506 16.177,30.59 A 3.393,3.393 0 0,1 15,27.994 C 15,27.039 15.398,26.093 16.177,25.404 C 17.154,24.542 18.879,24.001 20.503,24.001 C 22.301,24.001 23.739,24.44 24.839,25.407 A 3.406,3.406 0 0,1 26,27.993 A 3.55,3.55 0 0,1 24.84,30.591 C 23.814,31.512 22.205,32 20.502,32 V 30.945 C 21.404,30.945 22.24,30.643 22.824,30.08 C 23.404,29.52 23.674,28.833 23.674,27.993 C 23.674,27.188 23.382,26.435 22.824,25.902 C 22.248,25.352 21.391,25.042 20.502,25.042 C 19.61,25.042 18.754,25.348 18.177,25.902 C 17.622,26.435 17.33,27.19 17.33,27.992 C 17.33,28.793 17.625,29.548 18.177,30.08 C 18.754,30.637 19.607,30.945 20.502,30.945 V 32 Z M 6.395,24.55 C 7.226,24.166 8.205,24 9.065,24 C 10.585,24.002 11.823,24.514 12.262,24.752 C 12.436,24.851 12.529,24.731 12.529,24.639 V 24.353 H 13.509 V 26.813 H 12.631 A 1.721,1.721 0 0,0 12.088,25.875 A 2.531,2.531 0 0,0 11.537,25.535 C 11.014,25.295 10.192,25.065 9.221,25.069 C 8.401,25.069 7.613,25.226 7.223,25.479 C 6.977,25.637 6.853,25.833 6.853,26.065 C 6.853,26.391 7.125,26.525 7.258,26.567 C 7.698,26.707 8.798,26.802 9.433,26.87 C 10.039,26.936 11.304,27.11 11.864,27.253 C 12.152,27.326 12.504,27.456 12.728,27.564 C 12.985,27.689 13.23,27.85 13.432,28.058 C 13.58,28.211 14,28.713 14,29.521 C 14,30.364 13.517,30.828 13.297,31.009 C 12.89,31.344 12.39,31.559 11.985,31.679 C 11.555,31.805 10.933,32 9.775,32 C 9.065,32 8.697,31.912 8.126,31.788 A 8.38,8.38 0 0,1 6.538,31.258 C 6.355,31.173 6.303,31.352 6.303,31.395 V 31.777 H 5.217 V 28.951 H 6.194 C 6.194,29.286 6.348,29.625 6.446,29.748 C 6.84,30.245 7.263,30.441 7.666,30.588 C 8.014,30.718 8.972,30.965 9.769,30.965 C 10.849,30.965 11.449,30.68 11.536,30.645 C 11.623,30.609 12.124,30.441 12.124,29.893 C 12.124,29.343 11.649,29.241 11.366,29.167 C 11.01,29.074 10.136,28.982 9.248,28.885 C 8.353,28.789 7.454,28.643 7.034,28.548 C 6.094,28.336 5.734,27.974 5.511,27.762 C 5.525,27.776 5,27.276 5,26.422 C 5,25.475 5.628,24.903 6.395,24.55 Z M 44.786,30.984 C 44.752,30.995 44.576,31.001 44.536,31.001 H 43.576 V 32 H 48.505 V 31 H 47.5 C 47.46,31 47.287,30.995 47.252,30.983 C 47.155,30.95 47.055,30.873 47.025,30.791 C 47.005,30.74 47.005,30.607 47.005,30.575 V 29.005 C 47.005,28.967 47.002,28.903 47.038,28.857 C 47.108,28.77 49.769,25.521 49.882,25.379 C 50.13,25.067 50.264,24.999 50.592,24.999 H 51.5 V 24 H 47.44 V 25 H 48.052 C 48.225,25 48.28,25.202 48.2,25.309 C 48.186,25.326 46.498,27.533 46.478,27.555 C 46.456,27.577 46.443,27.571 46.428,27.548 C 46.412,27.524 44.745,25.306 44.745,25.306 C 44.627,25.144 44.719,24.998 44.857,24.998 H 45.454 V 24 H 40.5 V 25 H 41.378 C 41.761,25 42.013,25.269 42.156,25.443 C 42.272,25.583 44.876,28.765 44.94,28.857 C 44.998,28.942 45,28.958 45,28.997 V 30.575 C 45,30.608 44.993,30.758 44.98,30.792 A 0.324,0.324 0 0,1 44.786,30.984 Z M 36,29 L 30.78,24 H 26.5 V 25 H 27.342 C 27.951,25 28,25.379 28,25.68 V 30.36 C 28,30.64 28.015,31.001 27.628,31.001 H 26.59 V 32.022 L 31.52,32 V 31 H 30.435 C 30.003,31 30.005,30.795 30,30.36 V 26.5 L 36.065,32 H 38 V 25.578 C 38.006,25.112 38.066,25 38.53,25 H 39.5 V 24 H 34.48 V 25 H 35.474 C 35.93,25 36.007,25.182 36.013,25.62 L 36,29 Z" fill="rgb(254, 254, 253)"/>
<defs>
<linearGradient id="a" x1="10.418" x2="68.147" y1="9.712" y2="76.017" gradientUnits="userSpaceOnUse">
<stop stop-color="rgb(25, 29, 31)" offset="0"/>
<stop stop-color="rgb(5, 5, 8)" offset="1"/>
</linearGradient>
</defs>
</svg>
