<?xml version="1.0" encoding="UTF-8"?>
<!-- generated by Finnhub -->
<svg viewBox="0 0 55.5 55.5" xmlns="http://www.w3.org/2000/svg">
<path d="M 0,0 H 55.5 V 55.5 H 0 Z" fill="url(#a)"/>
<path d="M 19.99,22.985 H 22 V 33 H 20 Z M 27,13 H 29 V 42 H 27 Z M 34,18 H 36 V 38 H 34 Z M 41,11 H 43 V 45 H 41 Z M 49,21 H 51 V 35 H 49 Z" fill="rgb(254, 254, 253)" fill-opacity=".21"/>
<path d="M 8.86,25.785 L 8.08,26.56 C 7.78,26.41 7.38,26.22 7.01,26.22 C 6.65,26.22 6.41,26.34 6.41,26.71 C 6.41,27.07 6.75,27.15 7.41,27.39 C 8.55,27.83 9,28.37 9,29.34 C 9,30.32 8.08,31 7.07,31 C 6.27,31 5.36,30.38 5,30.07 C 5.17,29.89 5.57,29.5 5.81,29.34 C 6.01,29.51 6.63,29.83 7.07,29.83 C 7.52,29.83 7.91,29.63 7.91,29.34 C 7.91,29.04 7.61,28.78 6.75,28.54 C 5.9,28.29 5.19,27.78 5.19,26.8 C 5.19,25.83 6.13,25 7.07,25 A 3,3 0 0,1 8.87,25.8 Z" fill="rgb(239, 242, 248)"/>
<path d="M 11.99,30.985 A 2,2 0 1,0 12,27 A 2,2 0 0,0 12,31 Z M 12,30 A 1,1 0 1,0 12,28 A 1,1 0 0,0 12,30 Z M 36,31 A 2,2 0 1,0 36,27 A 2,2 0 0,0 36,31 Z M 36,30 A 1,1 0 1,0 36,28 A 1,1 0 0,0 36,30 Z" fill="rgb(239, 242, 248)" fill-rule="evenodd"/>
<path d="M 15.99,26.985 H 15 V 29.5 C 15,30.49 15.67,31 16.5,31 C 17.33,31 18,30.49 18,29.5 V 27 H 17 V 29.5 C 17,29.9 16.78,30 16.5,30 S 16,29.9 16,29.5 V 27 Z M 40,27 H 39 V 29.5 C 39,30.49 39.67,31 40.5,31 S 42,30.49 42,29.5 V 27 H 41 V 29.5 C 41,29.9 40.78,30 40.5,30 S 40,29.9 40,29.5 V 27 Z M 20,31 H 19 V 28.5 C 19,27.51 19.67,27 20.5,27 S 22,27.51 22,28.5 V 31 H 21 V 28.5 C 21,28.1 20.78,28 20.5,28 S 20,28.1 20,28.5 V 31 Z M 44,31 H 43 V 28.5 C 43,27.51 43.67,27 44.5,27 S 46,27.51 46,28.5 V 31 H 45 V 28.5 C 45,28.1 44.78,28 44.5,28 S 44,28.1 44,28.5 V 31 Z" fill="rgb(239, 242, 248)"/>
<path d="M 26.99,24.985 H 26 V 27.27 A 2,2 0 1,0 27,29 V 25 Z M 26,29 A 1,1 0 1,0 24,29 A 1,1 0 0,0 26,29 Z M 51,25 H 50 V 27.27 A 2,2 0 1,0 51,29 V 25 Z M 50,29 A 1,1 0 1,0 48,29 A 1,1 0 0,0 50,29 Z" fill="rgb(239, 242, 248)" fill-rule="evenodd"/>
<path d="M 27.99,24.985 H 29 V 28 H 32 V 25 H 33 V 31 H 32 V 29 H 29 V 31 H 28 V 25 Z" fill="rgb(239, 242, 248)"/>
<defs>
<linearGradient id="a" x1="45" x2="7" y1="5.5" y2="48" gradientUnits="userSpaceOnUse">
<stop stop-color="rgb(89, 75, 123)" offset=".25"/>
<stop stop-color="rgb(232, 1, 46)" offset=".75"/>
</linearGradient>
</defs>
</svg>
