<?xml version="1.0" encoding="UTF-8"?>
<!-- generated by Finnhub -->
<svg viewBox="0 0 55.5 55.5" xmlns="http://www.w3.org/2000/svg">
<path d="M 0,0 H 55.5 V 55.5 H 0 Z" fill="url(#a)"/>
<path d="M 27.16,29.985 H 28.72 L 29.76,26.37 C 31.26,26.61 32.68,27.15 33.93,27.95 L 33.49,22.18 C 33.47,21.94 33.39,21.7 33.25,21.49 L 29.75,16.33 C 29.75,16.29 29.75,16.23 29.73,16.15 C 29.55,14.95 28.8,10 28,10 C 27.14,10 26.27,15.6 26.15,16.33 L 22.67,21.49 C 22.52,21.69 22.44,21.94 22.42,22.19 L 22,27.94 C 23.25,27.14 24.67,26.6 26.16,26.36 L 27.17,30 Z M 29.88,19.84 C 30,20 29.58,20.38 29.45,20.12 C 29.39,19.94 29.72,19.71 29.88,19.84 Z M 29.27,21.15 A 2,2 0 0,1 29.33,20.8 C 29.36,20.72 29.43,20.65 29.51,20.6 C 29.61,20.58 29.69,20.59 29.68,20.68 A 14.1,14.1 0 0,1 29.68,21.46 V 21.94 C 29.64,22.06 29.36,22.3 29.24,22.12 A 4.74,4.74 0 0,1 29.24,21.4 L 29.27,21.15 Z M 27.38,21.76 C 27.42,21.88 27.32,21.96 27.22,22.02 L 27.16,22.07 L 27.11,22.11 A 0.68,0.68 0 0,0 26.92,22.54 V 22.73 C 26.92,23.02 26.92,23.43 26.53,23.43 A 0.41,0.41 0 0,1 26.47,23.38 C 26.4,23.3 26.41,23.19 26.43,23.08 V 22.97 C 26.43,22.87 26.43,22.77 26.45,22.67 V 22.57 L 26.47,22.37 C 26.47,22.11 26.47,21.82 26.77,21.77 L 26.95,21.71 C 27.12,21.65 27.32,21.58 27.38,21.76 Z M 25.15,22.86 L 25.11,23.03 A 31.7,31.7 0 0,0 24.89,24.54 L 24.87,24.72 C 24.85,24.78 24.85,24.85 24.84,24.92 C 24.82,25.07 24.81,25.23 24.67,25.31 C 24.43,25.4 24.39,25.15 24.37,25 L 24.35,24.94 V 24.9 C 24.27,24.52 24.2,24.1 24.14,23.68 C 24.07,23.23 24,22.78 23.9,22.35 C 23.9,22.3 23.88,22.25 23.83,22.22 C 23.81,22.2 23.79,22.22 23.76,22.27 L 23.72,22.34 L 23.62,22.64 L 23.5,23 C 23.11,23.25 23.09,22.84 23.25,22.58 C 23.33,22.4 23.38,22.21 23.43,22.01 C 23.53,21.67 23.61,21.32 23.86,21.09 C 24.21,20.99 24.24,21.33 24.26,21.64 L 24.29,21.9 L 24.36,22.24 C 24.46,22.74 24.6,23.52 24.61,23.45 A 16.2,16.2 0 0,1 26.16,18.41 A 0.37,0.37 0 0,1 26.57,18.28 C 26.65,18.31 26.71,18.36 26.75,18.42 C 26.79,18.48 26.81,18.56 26.81,18.62 S 26.75,18.79 26.61,18.94 C 26.61,18.96 26.59,18.97 26.57,18.99 L 26.52,19.04 A 6.53,6.53 0 0,0 25.77,20.67 C 25.69,20.87 25.63,21.07 25.6,21.27 C 25.42,21.85 25.32,22.2 25.15,22.87 Z M 26.03,23.08 V 23.18 C 26.02,23.33 26.01,23.49 25.96,23.69 C 25.48,24.15 25.54,23.57 25.58,23.22 L 25.6,23.1 V 22.99 C 25.59,22.72 25.58,22.37 25.8,22.2 C 25.98,22.07 26.1,22.1 26.14,22.28 C 26.08,22.3 26.06,22.63 26.04,22.86 L 26.03,23.08 Z M 26.05,21.61 S 26.03,21.63 26.02,21.61 A 0.15,0.15 0 0,1 25.92,21.61 C 25.89,21.61 25.88,21.59 25.87,21.57 L 25.86,21.56 C 25.77,21.4 26.06,21.11 26.25,21.17 C 26.27,21.17 26.27,21.2 26.28,21.22 C 26.28,21.24 26.28,21.26 26.3,21.27 V 21.3 A 0.36,0.36 0 0,1 26.18,21.5 L 26.05,21.61 Z M 25.2,25.67 C 25.43,24.68 27.26,23.69 28.18,23.2 L 28.2,23.19 C 28.21,23.17 28.24,23.16 28.27,23.14 C 28.3,23.12 28.34,23.1 28.35,23.08 A 0.52,0.52 0 0,0 28.35,22.85 A 0.5,0.5 0 0,0 28.27,22.9 L 28.19,22.94 C 28.06,23 27.89,23.05 27.74,22.99 A 3.7,3.7 0 0,0 27.69,22.95 C 27.59,22.85 27.55,22.81 27.52,22.65 C 27.5,22.34 27.53,22.02 27.62,21.72 C 27.64,21.65 27.67,21.59 27.71,21.53 L 27.75,21.47 V 21.46 H 27.76 C 27.86,21.31 28.16,21.06 28.3,21.22 A 0.26,0.26 0 0,1 28.24,21.42 L 28.2,21.48 L 28.08,21.62 C 27.9,21.82 27.85,22.81 28.28,22.52 C 28.38,22.42 28.39,22.29 28.41,22.16 V 22.06 C 28.44,21.72 28.48,21.38 28.54,21.05 C 28.68,20.88 28.98,20.95 28.93,21.15 L 28.9,21.52 C 28.87,21.85 28.85,22.18 28.85,22.51 L 28.84,22.59 C 28.82,22.71 28.8,22.87 28.94,22.74 A 30.39,30.39 0 0,1 30.88,21.67 L 31.13,21.53 A 0.15,0.15 0 0,1 31.03,21.4 V 20.8 C 31.05,20.67 31.05,20.53 31.03,20.39 C 30.92,20.29 30.73,20.46 30.66,20.58 A 0.51,0.51 0 0,0 30.56,20.89 V 20.96 L 30.58,21.25 V 21.28 C 30.58,21.38 30.6,21.55 30.5,21.66 C 30.09,21.98 30.12,21.59 30.14,21.3 C 30.12,20.98 30.16,20.66 30.25,20.36 C 30.33,20.23 30.47,20.23 30.6,20.23 C 30.68,20.23 30.77,20.23 30.84,20.19 C 31.04,19.92 31.52,19.74 31.54,20.13 C 31.54,20.25 31.54,20.43 31.52,20.6 V 21.01 C 31.51,21.11 31.5,21.18 31.6,21.25 C 31.68,21.25 31.76,21.21 31.84,21.17 L 31.91,21.14 A 0.65,0.65 0 0,1 32.41,21.02 C 32.46,21.02 32.51,21.1 32.54,21.16 V 21.21 A 0.56,0.56 0 0,1 32.41,21.4 C 32.22,21.52 31.99,21.6 31.77,21.67 C 31.55,21.74 31.33,21.81 31.15,21.92 A 21.73,21.73 0 0,0 28.95,23.15 A 0.17,0.17 0 0,1 28.88,23.19 V 25.75 C 28.82,25.87 28.42,25.98 28.36,25.68 A 13.1,13.1 0 0,1 28.36,24.28 V 23.32 C 28.14,23.45 27.92,23.61 27.72,23.77 L 27.07,24.27 L 26.9,24.39 C 26.64,24.6 26.4,24.82 26.18,25.06 L 26.15,25.1 C 25.9,25.5 25.45,26.2 25.2,25.67 Z M 22,27.95 C 19.98,29.25 18.51,30.81 17.8,33 H 22 V 27.95 Z M 34,33 H 38.2 C 37.49,30.8 36.02,29.24 34,27.95 V 33 Z M 22.02,35 H 23.02 V 40 H 25 L 24.35,41 H 22.03 V 35 Z M 21.42,41 L 18.82,35 L 16.22,41 H 17.25 L 17.73,40 H 19.83 L 20.29,41 H 21.42 Z M 19.4,38.99 H 18.18 L 18.8,37.49 L 19.4,38.99 Z M 27.81,35 L 30.41,41 H 29.28 L 28.83,40 H 26.73 L 26.25,41 H 25.2 L 27.8,35 Z M 27.17,38.99 H 28.4 L 27.8,37.49 L 27.17,38.99 Z M 35,36 H 36 V 41 H 37 V 36 H 38 V 35 H 35 V 36 Z M 13.73,36.03 C 12.83,36.03 12.02,36.86 12.02,37.99 C 12.02,39.13 12.83,39.96 13.73,39.96 C 14.49,39.96 15.2,39.36 15.39,38.49 H 14 V 37.49 H 16.45 V 37.99 C 16.45,39.59 15.28,41 13.73,41 C 12.18,41 11,39.59 11,38 S 12.18,35 13.73,35 C 14.53,35 15.23,35.4 15.71,35.96 L 14.96,36.61 A 1.61,1.61 0 0,0 13.73,36.03 Z M 31.01,38 C 31.01,36.87 31.89,35.99 32.93,35.99 C 33.32,35.99 33.69,36.11 33.99,36.33 V 35.2 C 33.66,35.06 33.31,34.99 32.93,34.99 A 2.97,2.97 0 0,0 30.01,38 A 2.95,2.95 0 0,0 33.99,40.8 V 39.67 C 33.69,39.89 33.32,40.01 32.93,40.01 A 1.97,1.97 0 0,1 31.01,38.01 Z M 43.91,36 C 42.88,36 42,36.88 42,38.01 S 42.88,40.02 43.92,40.02 C 44.31,40.02 44.69,39.9 45,39.68 V 40.82 A 3.1,3.1 0 0,1 43.88,41 A 2.92,2.92 0 0,1 41,38.01 A 2.97,2.97 0 0,1 43.92,35 C 44.29,35 44.67,35.07 45,35.2 V 36.34 C 44.7,36.12 44.3,36 43.92,36 Z M 39,35 V 41 H 40 V 35 H 39 Z" fill="rgb(254, 254, 253)"/>
<defs>
<linearGradient id="a" x1="28" x2="28" y2="56" gradientUnits="userSpaceOnUse">
<stop stop-color="rgb(74, 18, 164)" offset="0"/>
<stop stop-color="rgb(107, 33, 238)" offset=".57"/>
<stop stop-color="rgb(226, 32, 227)" offset="1"/>
</linearGradient>
</defs>
</svg>
