<?xml version="1.0" encoding="UTF-8"?>
<!-- generated by Finnhub -->
<svg fill="none" viewBox="0 0 55.5 55.5" xmlns="http://www.w3.org/2000/svg">
<path d="M 0,0 H 55.5 V 55.5 H 0 Z" fill="url(#a)"/>
<path d="M 18.994,20.485 C 19.024,20.477 20.137,19.682 21.477,18.73 C 22.817,17.776 23.934,17.007 23.966,17.015 C 24.074,17.049 27.118,19.255 27.087,19.281 C 27.072,19.296 26.858,19.446 26.617,19.615 L 26.179,19.922 L 25.181,19.202 C 24.746,18.886 24.338,18.592 24.158,18.462 L 24.067,18.395 L 23.95,18.309 L 22.455,19.379 C 21.632,19.967 20.941,20.47 20.914,20.492 C 20.875,20.534 21.814,21.216 23.752,22.552 L 23.95,22.687 L 27.988,19.84 C 30.205,18.272 32.033,16.996 32.049,17 C 32.127,17.03 37.007,20.504 37.003,20.526 C 36.995,20.556 32.134,23.966 32.061,23.996 C 32.014,24.011 28.901,21.843 28.901,21.791 C 28.901,21.753 29.711,21.186 29.793,21.168 C 29.824,21.16 30.341,21.498 30.939,21.922 C 31.537,22.342 32.045,22.676 32.069,22.661 C 32.092,22.649 32.787,22.166 33.609,21.588 C 35.015,20.605 35.105,20.534 35.042,20.478 C 35.011,20.444 34.442,20.034 33.738,19.528 L 33.505,19.36 L 32.03,18.305 L 31.913,18.395 C 31.075,19.007 23.958,24.008 23.931,24 C 23.911,23.992 22.785,23.212 21.431,22.263 C 19.807,21.126 18.981,20.526 19.004,20.5 Z M 29.997,31.483 C 30.01,29.452 31.88,28.262 33.737,28.028 C 34.184,27.968 35.275,28.009 35.719,28.098 C 37.071,28.371 38.524,29.264 38.921,30.655 C 39.022,31.015 39.022,32.017 38.921,32.367 C 38.496,33.819 37.128,34.627 35.723,34.913 C 35.193,35.02 33.919,35.031 33.386,34.932 C 32.326,34.732 31.536,34.357 30.896,33.746 C 30.241,33.127 29.996,32.363 29.996,31.483 Z M 34.564,34 C 36.049,34.012 38.01,33.197 38,31.483 C 37.99,29.847 35.99,29.015 34.564,29 C 33.092,28.984 30.97,29.85 31,31.555 C 31.03,33.307 33.094,33.988 34.564,34 Z M 9.537,28.02 C 8.547,28.14 8.133,28.29 7.763,28.67 C 7.363,29.081 7.188,29.627 7.276,30.2 C 7.33,30.554 7.448,30.798 7.668,31.005 C 8.086,31.401 8.808,31.566 10.911,31.743 C 11.204,31.769 11.454,31.789 11.669,31.806 C 12.399,31.864 12.724,31.89 12.968,32.003 C 13.595,32.289 13.698,32.989 13.177,33.426 C 12.825,33.724 12.124,33.946 11.376,33.992 C 10.174,34.064 9.152,33.825 8.034,33.246 L 7.594,33.02 L 7.29,33.426 C 7.122,33.652 6.99,33.859 7,33.886 C 7.052,34.025 7.84,34.454 8.393,34.642 C 9.141,34.898 9.856,35 10.889,35 C 12.227,35 13.092,34.79 13.759,34.3 C 14.324,33.886 14.595,33.163 14.47,32.42 C 14.313,31.498 13.536,30.998 11.974,30.806 C 11.721,30.776 11.139,30.723 10.674,30.689 C 9.079,30.579 8.544,30.482 8.368,30.128 C 8.123,29.631 8.491,29.29 9.363,29.098 C 9.81,29.003 10.94,28.961 11.449,29.066 A 7.837,7.837 0 0,1 13.015,29.563 L 13.385,29.733 L 13.723,29.363 C 13.909,29.16 14.06,28.987 14.063,28.976 C 14.063,28.938 13.448,28.599 13.129,28.464 A 6.966,6.966 0 0,0 11.575,28.057 C 11.201,28.001 9.881,27.982 9.537,28.02 Z M 16,35 V 28 H 17 V 35 H 16 Z M 19.003,35 H 20 V 29.315 L 23.5,33.82 L 27,29.342 V 35 H 28.003 V 28 H 26.741 L 23.518,32.127 L 20.255,28 H 19.003 V 35 Z M 42,35 H 40.998 V 28 H 42.152 L 48,33.62 V 28 H 48.998 V 35 H 47.897 L 42,29.373 V 35 Z" clip-rule="evenodd" fill="rgb(254, 254, 253)" fill-rule="evenodd"/>
<defs>
<linearGradient id="a" x1="10.418" x2="68.147" y1="9.712" y2="76.017" gradientUnits="userSpaceOnUse">
<stop stop-color="rgb(25, 29, 31)" offset="0"/>
<stop stop-color="rgb(5, 5, 8)" offset="1"/>
</linearGradient>
</defs>
</svg>
