<?xml version="1.0" encoding="UTF-8"?>
<!-- generated by Finnhub -->
<svg viewBox="0 0 55.5 55.5" xmlns="http://www.w3.org/2000/svg">
<path d="M 0,0 H 55.5 V 55.5 H 0 Z" fill="rgb(1, 215, 75)"/>
<path d="M 27.99,11.985 C 19.164,12 12,19.164 12,28 C 12,36.837 19.164,44 28,44 C 36.837,44 44,36.837 44,28 C 44,19.164 36.837,12 28,12 Z M 35.337,35.077 A 0.997,0.997 0 0,1 33.966,35.407 C 30.209,33.113 25.48,32.593 19.91,33.865 A 0.998,0.998 0 0,1 19.467,31.92 C 25.561,30.528 30.789,31.127 35.007,33.705 C 35.477,33.993 35.626,34.607 35.337,35.077 Z M 37.296,30.72 A 1.247,1.247 0 0,1 35.58,31.131 C 31.28,28.488 24.723,27.722 19.637,29.266 A 1.25,1.25 0 0,1 18.08,28.436 A 1.25,1.25 0 0,1 18.912,26.879 C 24.722,25.116 31.946,25.97 36.885,29.005 C 37.472,29.366 37.657,30.135 37.295,30.72 Z M 37.464,26.183 C 32.307,23.12 23.799,22.839 18.876,24.333 A 1.496,1.496 0 1,1 18.007,21.469 C 23.659,19.753 33.054,20.085 38.991,23.609 C 39.704,24.031 39.937,24.949 39.515,25.66 A 1.495,1.495 0 0,1 37.465,26.183 H 37.464 Z" fill="rgb(254, 254, 253)"/>
</svg>
