<?xml version="1.0" encoding="UTF-8"?>
<!-- generated by Finnhub -->
<svg viewBox="0 0 55.5 55.5" xmlns="http://www.w3.org/2000/svg">
<path d="M 0,0 H 55.5 V 55.5 H 0 Z" fill="rgb(1, 152, 214)"/>
<path d="M 37.99,23.985 H 44 L 37,40 H 31 L 38,24 Z" fill="rgb(254, 254, 253)"/>
<path d="M 45.99,19.985 H 20.395 C 18.903,20 17.412,20.087 16.343,21.136 C 15.306,22.152 14.695,23.542 14.698,25 C 14.702,26.588 15.422,28.049 16.613,29.082 L 21.59,33.696 C 22.345,34.386 21.746,36.012 20.796,36 H 8 L 17,16 H 48 L 46,20 Z" fill="rgb(254, 254, 253)"/>
<path d="M 32.99,23.985 L 26,40 H 22.84 C 22.581,39.94 22.553,39.758 22.781,39.62 C 24.301,39.08 25.545,37.806 26.089,36.298 C 26.774,34.398 26.264,32.244 24.879,30.786 L 19.59,25.89 A 1.087,1.087 0 0,1 19.355,24.626 C 19.555,24.219 19.952,24.036 20.388,24.011 L 33,24 Z" fill="rgb(254, 254, 253)"/>
</svg>
