<?xml version="1.0" encoding="UTF-8"?>
<!-- generated by Finnhub -->
<svg viewBox="0 0 55.5 55.5" xmlns="http://www.w3.org/2000/svg">
<path d="M 0,0 H 55.5 V 55.5 H 0 Z" fill="rgb(111, 190, 76)"/>
<path d="M 22.753,13.604999999999999 C 23.155,13.388 23.547,13.155 23.939,13 C 24.096,13.388 24.331,13.775 24.488,14.163 C 23.625,14.628 22.763,15.015 21.978,15.558 C 19.783,16.876 17.744,18.426 16.018,20.364 C 14.686,21.914 13.588,23.775 13.352,25.868 C 13.274,27.108 13.509,28.426 14.293,29.434 A 4.76,4.76 0 0,0 17.195,31.062 C 18.45,31.295 19.783,31.14 20.959,30.829 C 23.389,30.209 25.586,29.047 27.703,27.806 C 28.958,27.031 30.213,26.256 31.232,25.17 C 31.624,24.705 31.937,24.163 31.937,23.543 C 31.937,23.078 31.624,22.613 31.232,22.457 C 30.84,22.225 30.291,22.147 29.82,22.225 C 29.193,22.38 28.565,22.69 27.938,23 C 26.135,23.93 24.566,25.17 22.763,26.1 C 21.665,26.643 20.488,27.186 19.233,27.186 C 18.45,27.186 17.665,26.876 17.195,26.256 C 16.803,25.791 16.646,25.248 16.725,24.628 C 16.803,23.698 17.195,22.768 17.744,22.07 C 18.764,20.674 20.174,19.667 21.664,18.814 C 24.174,17.186 26.919,15.868 29.82,15.093 C 31.388,14.705 32.957,14.473 34.525,14.55 C 36.799,14.628 39.073,15.326 40.955,16.643 C 43.151,18.193 44.798,20.674 44.955,23.388 C 45.19,25.636 44.485,27.884 43.465,29.899 C 42.68,31.449 41.583,32.845 40.406,34.085 A 33.339,33.339 0 0,1 37.426,36.876 C 36.093,38.039 34.603,39.046 33.114,39.976 C 31.624,40.907 29.977,41.682 28.33,42.38 C 27.86,42.612 27.31,42.845 26.84,43 C 26.527,41.605 26.056,40.21 25.742,38.814 C 27.076,38.194 28.409,37.651 29.742,36.954 C 31.232,36.178 32.643,35.17 33.976,34.163 C 35.153,33.233 36.25,32.303 37.27,31.217 C 38.995,29.434 40.406,27.109 40.72,24.627 C 40.798,23.697 40.798,22.845 40.563,21.915 C 40.014,20.055 38.681,18.426 36.878,17.496 C 35.388,16.721 33.663,16.411 32.016,16.566 C 29.585,16.721 27.311,17.651 25.194,18.736 A 35.457,35.457 0 0,0 22.292,20.442 C 21.352,20.985 20.488,21.605 19.782,22.457 C 19.469,22.845 19.234,23.31 19.234,23.775 C 19.234,24.085 19.469,24.473 19.783,24.55 C 20.332,24.783 20.959,24.55 21.508,24.318 C 24.096,23.078 26.291,21.14 29.036,20.209 C 30.369,19.744 31.937,19.667 33.27,20.209 C 34.368,20.674 35.23,21.682 35.466,22.845 C 35.544,23.543 35.544,24.24 35.309,24.86 C 34.917,25.868 34.289,26.72 33.506,27.496 C 32.565,28.426 31.466,29.202 30.369,29.899 C 28.801,30.752 27.311,31.759 25.664,32.457 A 30.455,30.455 0 0,1 21.194,34.007 C 19.469,34.473 17.665,34.55 15.94,34.163 C 14.215,33.775 12.804,32.845 12.02,31.527 C 11.314,30.442 11,29.124 11,27.884 C 11.078,26.411 11.392,24.938 12.02,23.62 C 13.117,21.372 14.764,19.357 16.724,17.729 A 32.75,32.75 0 0,1 22.841,13.543 L 22.763,13.62 Z" fill="rgb(254, 254, 253)"/>
</svg>
