<?xml version="1.0" encoding="UTF-8"?>
<!-- generated by Finnhub -->
<svg viewBox="0 0 55.5 55.5" xmlns="http://www.w3.org/2000/svg">
<path d="M 0,0 H 55.5 V 55.5 H 0 Z" fill="rgb(0, 80, 146)"/>
<path d="M 13.99,24.985 C 13.983,26.374 14,27.744 14,29.116 C 14,29.709 14.463,30.006 15.053,30.006 C 15.577,30.006 16,29.672 16,29.005 V 25 H 18 L 17.967,28.63 C 17.967,30.74 17.312,32 14.889,32 C 12.695,32 12.007,30.481 12.007,29.259 C 12.007,27.839 11.991,26.419 12.007,25 H 14 Z M 19,25 H 21.736 L 22.966,29 H 23 V 25 H 25 V 32 H 22.297 L 21,28 V 32 H 19 V 25 Z M 31.61,31.914 C 30.89,32.001 30.198,32.1 29.468,32.1 C 26.974,32.1 25.649,30.467 25.649,28.5 C 25.649,26.31 26.974,24.9 29.779,24.9 C 30.559,24.9 31.026,24.974 31.649,25.086 L 31.299,27.126 A 5.674,5.674 0 0,0 30.247,27.016 C 28.61,27.016 28.299,27.906 28.299,28.5 C 28.299,29.205 28.649,29.984 30.129,29.984 C 30.519,29.984 30.909,29.948 31.259,29.91 L 31.61,31.914 Z M 35.568,24.8 C 37.875,24.8 39.1,26.478 39.1,28.5 C 39.1,30.522 37.875,32.2 35.568,32.2 C 33.225,32.2 32,30.522 32,28.5 C 32,26.478 33.225,24.8 35.568,24.8 Z M 35.568,26.65 C 34.739,26.65 34.3,27.584 34.3,28.5 C 34.3,29.415 34.74,30.247 35.568,30.247 C 36.397,30.247 36.8,29.415 36.8,28.5 C 36.8,27.584 36.397,26.65 35.568,26.65 Z M 46,32 H 43.525 L 42,28.921 V 32 H 40 V 25 H 43.288 C 45.017,25 45.559,25.925 45.559,27.034 C 45.559,27.959 45.017,28.736 44.237,28.773 L 46,32 Z M 42,28 L 42.644,27.996 C 43.051,27.996 43.39,27.959 43.39,27.368 C 43.39,26.923 43.254,26.628 42.712,26.628 H 42 V 28 Z M 4.31,29.853 C 5.122,30.004 5.586,30.041 6.204,30.041 C 7.21,30.041 7.906,29.931 8.138,29.667 C 8.254,29.554 8.332,29.441 8.332,29.253 C 8.332,28.688 7.945,28.537 7.597,28.5 L 6.05,28.234 C 4.425,27.858 4,26.653 4,25.937 C 4,25.033 4.31,24.393 4.812,23.942 C 5.432,23.339 6.32,23 7.906,23 C 8.834,23 9.762,23.075 10.691,23.226 L 10.536,25.071 A 14.081,14.081 0 0,0 8.332,24.889 C 7.519,24.889 6.53,24.988 6.53,25.703 C 6.53,26.23 7.249,26.358 7.442,26.396 L 9.066,26.653 C 10.304,26.879 11,27.707 11,28.988 C 11,31.02 9.8,32 7.326,32 C 6.05,32 4.928,31.887 4.039,31.736 L 4.309,29.853 Z" fill="rgb(254, 254, 253)"/>
<path d="M 47.023,35.985 H 48.343 C 49.889,34.845 51.078,33.418 51.894,31.787 C 53.526,28.712 53.288,24.159 51.401,21.271 C 49.321,18.045 46.029,16.003 42.145,15.861 H 41.275 C 41.128,15.867 40.979,15.875 40.83,15.886 C 36.82,16.226 32.877,19.113 31.5,22.986 H 33.455 L 34.475,21.441 C 37.091,18.213 41.408,16.973 45.368,18.298 C 48.818,19.402 51.452,22.919 51.809,26.453 C 52.217,30.411 50.33,33.945 47.033,36 Z" fill="url(#a)"/>
<defs>
<linearGradient id="a" x1="31.886" x2="52.541" y1="15.741" y2="36.405" gradientUnits="userSpaceOnUse">
<stop stop-color="rgb(242, 173, 22)" offset="0"/>
<stop stop-color="rgb(220, 61, 47)" offset="1"/>
</linearGradient>
</defs>
</svg>
