<?xml version="1.0" encoding="UTF-8"?>
<!-- generated by Finnhub -->
<svg viewBox="0 0 55.5 55.5" xmlns="http://www.w3.org/2000/svg">
<path d="M 0,0 H 55.5 V 55.5 H 0 Z" fill="url(#a)"/>
<path d="M 11.99,16.985 H 50 L 37,41 H 12 V 17 Z" fill="rgb(254, 209, 9)"/>
<path d="M 30.366999999999997,22.355 L 30.985,19.426 C 31.125,18.959 31.125,18.398 30.985,18.211 L 29.863,18.538 C 29.944,18.78 29.885,19.093 29.807,19.505 L 29.77,19.706 L 29.162,22.649 C 29.116,22.929 29.069,23.21 29.069,23.35 C 29.069,23.77 29.349,24.051 29.909,24.051 C 30.144,24.051 30.377,24.004 30.564,23.958 L 30.517,23.35 H 30.424 C 30.284,23.35 30.237,23.257 30.237,23.117 C 30.237,23.051 30.26,22.937 30.307,22.712 L 30.377,22.369 Z M 17.763,19.706 C 17.436,19.426 17.015,19.332 16.548,19.332 C 16.081,19.332 15.66,19.659 15.66,20.033 C 15.66,20.267 15.8,20.407 16.174,20.547 L 16.782,20.734 C 17.482,20.967 17.856,21.341 17.856,21.949 C 17.856,23.117 16.875,24.098 15.24,24.098 C 14.492,24.098 13.932,23.911 13.464,23.631 L 14.025,22.79 C 14.492,23.07 14.866,23.21 15.427,23.21 C 16.127,23.21 16.547,22.836 16.547,22.322 C 16.547,22.042 16.361,21.855 15.987,21.762 L 15.427,21.575 C 14.819,21.388 14.445,21.061 14.445,20.453 C 14.445,19.379 15.473,18.491 16.735,18.491 C 17.389,18.491 18.043,18.678 18.417,19.051 L 17.763,19.706 Z M 20.633,21 H 19.932 L 19.538,22.743 C 19.491,22.883 19.491,22.977 19.491,23.07 C 19.491,23.303 19.585,23.35 19.819,23.35 A 1.1,1.1 0 0,0 20.192,23.257 V 23.864 C 19.912,23.958 19.585,24.051 19.305,24.051 C 18.697,24.051 18.37,23.771 18.37,23.351 C 18.37,23.211 18.37,23.023 18.417,22.836 L 18.857,21 H 18.53 L 18.67,20 H 19.094 L 19.304,19.052 L 20.379,18.772 A 50.3,50.3 0 0,0 20.092,20 H 20.959 L 20.632,21 Z M 24.07,22.696 L 24.397,21.201 C 24.444,20.874 24.584,20.453 24.677,20.267 C 24.35,20.08 23.837,19.987 23.369,19.987 C 22.715,19.987 22.201,20.173 21.781,20.594 C 21.313,21.108 20.94,21.949 20.94,22.883 C 20.94,23.724 21.313,24.145 22.014,24.145 C 22.481,24.145 22.808,24.005 23.089,23.677 C 23.089,23.817 23.182,24.004 23.369,24.145 L 24.21,23.49 C 24.023,23.257 23.977,23.023 24.07,22.696 Z M 22.435,21.061 C 22.715,20.734 22.949,20.734 23.182,20.734 C 23.237,20.734 23.308,20.75 23.366,20.764 C 23.408,20.773 23.443,20.781 23.462,20.781 L 23.042,22.649 C 22.949,22.929 22.622,23.257 22.294,23.257 C 22.061,23.257 21.968,23.117 21.968,22.743 C 21.968,22.229 22.108,21.435 22.435,21.061 Z M 26.453,19.893 C 26.5,20.033 26.547,20.36 26.547,20.547 C 26.873,20.173 27.294,19.94 27.901,19.94 C 28.415,19.94 28.696,20.22 28.696,20.734 C 28.696,20.921 28.696,21.108 28.649,21.294 L 28.089,24.004 H 27.06 L 27.621,21.434 C 27.668,21.294 27.668,21.154 27.668,21.061 C 27.668,20.874 27.574,20.827 27.388,20.827 C 27.154,20.827 26.827,20.967 26.5,21.435 L 25.94,24.005 H 24.91 L 25.47,21.341 C 25.564,20.921 25.564,20.547 25.47,20.313 L 26.452,19.893 Z M 34.349,23.537 C 33.835,23.911 33.274,24.097 32.714,24.097 C 31.779,24.097 31.219,23.584 31.219,22.649 C 31.219,21.809 31.592,20.968 32.106,20.453 C 32.48,20.08 32.947,19.94 33.461,19.94 C 34.255,19.94 34.816,20.267 34.816,21.014 C 34.816,21.762 34.116,22.369 32.807,22.369 C 32.527,22.369 32.34,22.322 32.34,22.322 S 32.293,22.556 32.293,22.696 C 32.293,23.163 32.527,23.35 32.947,23.35 C 33.321,23.35 33.695,23.21 34.068,22.93 L 34.348,23.537 Z M 32.807,21.668 C 33.274,21.668 33.788,21.528 33.788,21.108 C 33.788,20.874 33.695,20.688 33.368,20.688 C 32.994,20.688 32.667,20.921 32.527,21.622 C 32.527,21.622 32.667,21.668 32.807,21.668 Z M 36.592,22.144 L 36.405,19.863 H 35.377 L 35.75,22.823 S 35.844,23.709 35.844,24 H 36.124 L 36.049,24.118 C 35.824,24.471 35.719,24.635 35.423,24.81 A 3.013,3.013 0 0,1 34.723,25.053 L 34.91,25.78 A 2.41,2.41 0 0,0 35.937,25.392 C 36.264,25.198 36.545,24.81 36.965,24.035 L 39.255,19.866 H 38.133 L 37.153,21.806 A 20.274,20.274 0 0,0 36.638,23.016 S 36.592,22.386 36.592,22.144 Z M 16.61,25.977 C 17.42,25.977 18.04,26.323 18.04,27.058 C 18.04,27.533 17.707,28.095 16.896,28.311 A 0.95,0.95 0 0,1 17.706,29.262 C 17.706,29.565 17.564,30.084 17.182,30.43 C 16.801,30.819 16.324,30.948 15.466,30.948 H 13.463 L 14.655,25.978 H 16.61 Z M 14.75,30.17 H 15.466 C 15.704,30.17 15.895,30.127 16.038,30.04 C 16.276,29.91 16.467,29.565 16.467,29.306 C 16.467,28.96 16.277,28.83 15.752,28.83 H 15.084 L 14.751,30.17 Z M 15.275,27.966 H 15.943 C 16.229,27.966 16.372,27.922 16.515,27.836 C 16.705,27.706 16.848,27.533 16.848,27.274 C 16.848,26.971 16.705,26.842 16.228,26.842 H 15.561 L 15.275,27.966 Z M 19.566,29.327 L 20.233,26.323 C 20.329,25.847 20.329,25.275 20.186,25.083 L 19.041,25.418 C 19.124,25.665 19.064,25.984 18.984,26.405 L 18.946,26.61 L 18.326,29.613 C 18.279,29.899 18.231,30.185 18.231,30.328 C 18.231,30.758 18.517,31.044 19.089,31.044 C 19.328,31.044 19.566,30.996 19.757,30.948 L 19.709,30.328 H 19.614 C 19.471,30.328 19.423,30.233 19.423,30.09 C 19.423,30.023 19.447,29.907 19.494,29.677 L 19.566,29.327 Z M 24.096,28.135 L 23.762,29.661 C 23.714,29.995 23.714,30.233 23.905,30.471 L 23.047,31.139 C 22.856,30.996 22.761,30.805 22.761,30.662 C 22.475,30.996 22.141,31.139 21.664,31.139 C 20.949,31.139 20.568,30.709 20.568,29.852 C 20.568,28.898 20.948,28.04 21.426,27.515 C 21.855,27.086 22.379,26.895 23.046,26.895 C 23.523,26.895 24.048,26.991 24.382,27.182 C 24.314,27.318 24.245,27.576 24.177,27.834 A 16.16,16.16 0 0,1 24.096,28.135 Z M 22.904,27.658 C 22.665,27.658 22.427,27.658 22.141,27.992 C 21.807,28.374 21.664,29.184 21.664,29.709 C 21.664,30.09 21.759,30.233 21.998,30.233 C 22.332,30.233 22.665,29.899 22.761,29.613 L 23.19,27.706 A 0.591,0.591 0 0,1 23.092,27.688 A 0.943,0.943 0 0,0 22.904,27.658 Z M 26.861,27.658 C 27.099,27.658 27.29,27.754 27.481,27.945 L 28.148,27.372 C 27.814,27.039 27.433,26.896 27.051,26.896 C 26.479,26.896 26.098,27.086 25.717,27.372 C 25.144,27.849 24.667,28.755 24.667,29.756 C 24.667,30.614 25.144,31.139 26.05,31.139 C 26.622,31.139 27.1,30.949 27.528,30.615 L 27.194,29.947 C 26.861,30.185 26.574,30.328 26.289,30.328 C 26.003,30.328 25.812,30.138 25.812,29.708 C 25.812,29.088 26.098,28.231 26.384,27.897 C 26.527,27.754 26.67,27.659 26.861,27.659 Z M 30.198,25.084 C 30.246,25.274 30.246,25.751 30.055,26.61 L 29.101,30.996 H 28.052 L 29.006,26.562 C 29.101,25.99 29.149,25.656 29.101,25.465 L 30.198,25.084 Z M 32.343,26.944 L 30.675,28.707 L 31.771,30.996 H 30.531 L 29.673,28.707 L 31.056,26.943 H 32.343 Z M 39.293,29.852 C 39.579,29.422 40.247,27.996 40.247,27.996 H 39.293 C 39.245,28.139 38.816,28.946 38.673,29.184 L 37.958,28.326 L 38.053,28.278 C 39.055,27.802 39.293,27.372 39.293,26.753 C 39.293,26.133 38.769,25.751 37.958,25.751 C 36.909,25.751 36.098,26.467 36.098,27.325 C 36.098,27.659 36.194,27.945 36.528,28.231 C 35.67,28.612 35.193,29.184 35.193,29.851 C 35.193,30.614 35.813,31.139 36.909,31.139 C 37.672,31.139 38.149,30.949 38.53,30.662 L 38.816,30.996 H 40.2 L 39.294,29.852 Z M 37.148,30.328 C 36.671,30.328 36.385,30.138 36.385,29.756 C 36.385,29.327 36.623,28.993 37.005,28.803 L 38.053,30.043 C 37.815,30.233 37.529,30.328 37.148,30.328 Z M 37.91,26.467 C 38.149,26.467 38.292,26.61 38.292,26.848 C 38.292,27.182 38.006,27.563 37.624,27.754 C 37.338,27.468 37.291,27.277 37.291,27.134 C 37.291,26.753 37.577,26.467 37.911,26.467 Z M 15.91,33 C 16.821,33 17.397,33.086 17.732,33.473 C 17.972,33.774 18.164,34.076 18.164,34.678 C 18.164,35.496 17.828,36.571 17.157,37.217 C 16.581,37.777 16.005,38 14.807,38 H 13.463 L 14.663,33 H 15.91 Z M 14.758,37.09 H 15.286 C 15.766,37.09 16.101,36.959 16.341,36.657 C 16.821,35.969 16.917,34.979 16.917,34.721 C 16.917,34.248 16.773,33.817 16.054,33.817 H 15.574 L 14.758,37.09 Z M 19.987,38.085 C 20.515,38.085 21.09,37.895 21.617,37.518 L 21.378,36.903 C 20.994,37.187 20.611,37.329 20.227,37.329 C 19.795,37.329 19.555,37.139 19.555,36.667 C 19.555,36.525 19.603,36.288 19.603,36.288 S 19.795,36.336 20.083,36.336 C 21.426,36.336 22.146,35.721 22.146,34.965 C 22.146,34.208 21.57,33.877 20.755,33.877 C 20.227,33.877 19.747,34.019 19.363,34.397 C 18.836,34.917 18.453,35.768 18.453,36.619 C 18.453,37.565 19.028,38.085 19.987,38.085 Z M 21.09,35.059 C 21.09,35.485 20.563,35.627 20.083,35.627 C 19.939,35.627 19.747,35.579 19.795,35.579 C 19.939,34.87 20.275,34.634 20.659,34.634 C 20.994,34.634 21.09,34.823 21.09,35.059 Z M 25.31,34.965 C 25.12,34.775 24.927,34.681 24.687,34.681 C 24.496,34.681 24.352,34.776 24.207,34.917 C 23.92,35.248 23.632,36.099 23.632,36.714 C 23.632,37.139 23.824,37.329 24.112,37.329 S 24.687,37.187 25.023,36.95 L 25.359,37.612 C 24.927,37.943 24.447,38.132 23.872,38.132 C 22.961,38.132 22.481,37.612 22.481,36.762 C 22.481,35.768 22.961,34.87 23.536,34.397 C 23.92,34.114 24.304,33.925 24.879,33.925 C 25.263,33.925 25.647,34.067 25.982,34.397 L 25.311,34.965 Z M 27.901,33.641 C 28.093,32.79 28.093,32.317 28.045,32.128 L 26.942,32.506 C 26.99,32.696 26.942,33.026 26.846,33.594 L 25.887,38 H 26.943 L 27.903,33.641 Z M 28.525,35.721 L 30.204,33.971 H 28.861 L 27.518,35.721 L 28.381,38 H 29.628 L 28.525,35.721 Z M 33.273,37.518 C 32.746,37.896 32.17,38.085 31.595,38.085 C 30.635,38.085 30.06,37.565 30.06,36.619 C 30.06,35.769 30.443,34.917 30.97,34.397 C 31.355,34.019 31.834,33.877 32.362,33.877 C 33.177,33.877 33.752,34.208 33.752,34.965 C 33.752,35.721 33.033,36.335 31.69,36.335 C 31.403,36.335 31.21,36.288 31.21,36.288 S 31.163,36.525 31.163,36.667 C 31.163,37.139 31.403,37.329 31.834,37.329 C 32.218,37.329 32.602,37.187 32.985,36.903 L 33.273,37.518 Z M 31.69,35.627 C 32.17,35.627 32.698,35.485 32.698,35.059 C 32.698,34.823 32.602,34.634 32.266,34.634 C 31.882,34.634 31.546,34.87 31.403,35.579 C 31.403,35.579 31.546,35.627 31.69,35.627 Z M 35.672,34.492 C 35.72,34.256 35.624,33.972 35.576,33.83 L 34.616,34.256 C 34.713,34.539 34.713,34.87 34.616,35.39 L 34.043,38 H 35.098 L 35.674,35.39 C 36.01,34.917 36.249,34.823 36.441,34.823 C 36.537,34.823 36.633,34.87 36.729,34.917 L 37.209,33.972 C 37.065,33.877 36.969,33.877 36.825,33.877 C 36.393,33.877 36.01,34.114 35.674,34.492 Z"/>
<defs>
<linearGradient id="a" x1="10.418" x2="68.147" y1="9.712" y2="76.017" gradientUnits="userSpaceOnUse">
<stop stop-color="rgb(25, 29, 31)" offset="0"/>
<stop stop-color="rgb(5, 5, 8)" offset="1"/>
</linearGradient>
</defs>
</svg>
