<?xml version="1.0" encoding="UTF-8"?>
<!-- generated by Finnhub -->
<svg viewBox="0 0 55.5 55.5" xmlns="http://www.w3.org/2000/svg">
<path d="M 0,0 H 55.5 V 55.5 H 0 Z" fill="rgb(29, 116, 143)"/>
<path d="M 26.423,24.985 L 25.613,29.574 L 24.613,25 H 23.846 L 22.711,29.574 L 21.943,25 H 20.865 L 22.005,31 H 23.238 L 24.124,27.25 L 24.929,31 H 26.182 L 27.352,25 H 26.432 Z M 31.426,25.979 C 30.505,25.979 29.846,26.812 29.846,28 C 29.846,29.264 30.563,30.022 31.426,30.022 C 32.332,30.022 33.012,29.219 33.012,28 C 33.012,27.021 32.512,25.979 31.426,25.979 Z M 31.426,31 C 29.528,31 28.73,29.438 28.73,28 C 28.73,26.252 29.793,25 31.426,25 C 32.924,25 34.123,26.085 34.123,28 C 34.123,29.66 33.164,31 31.426,31 Z M 39.032,31 H 40.247 L 39.016,28.597 C 39.214,28.515 40.104,28.177 40.104,26.908 C 40.104,25.946 39.511,25 38.124,25 H 36 V 31 H 37 V 25.968 H 38 C 38.72,25.968 39.035,26.417 39.035,26.908 C 39.035,27.451 38.661,27.846 38,27.846 H 37.465 L 39.032,31 Z M 4.74,29.157 C 4.86,29.356 5.243,30.022 6.233,30.022 C 6.963,30.022 7.247,29.687 7.247,29.302 C 7.247,28.919 6.9,28.722 6.382,28.594 L 5.874,28.469 C 5.228,28.312 4.214,28.023 4.214,26.702 C 4.214,25.624 4.985,25 6.16,25 C 7.64,25 8.203,26.032 8.252,26.106 L 7.532,26.783 C 7.434,26.627 7.07,25.98 6.148,25.98 C 5.672,25.98 5.28,26.18 5.28,26.57 C 5.28,27.071 5.793,27.18 6.159,27.27 L 6.757,27.413 C 7.589,27.611 8.342,28.147 8.342,29.201 C 8.342,30.366 7.436,31 6.243,31 C 4.68,31 4.102,30.043 4,29.892 L 4.74,29.157 Z M 48.4,29.157 C 48.519,29.356 48.901,30.022 49.891,30.022 C 50.621,30.022 50.905,29.686 50.905,29.302 C 50.905,28.92 50.558,28.722 50.04,28.594 L 49.532,28.469 C 48.886,28.312 47.872,28.023 47.872,26.703 C 47.872,25.625 48.643,25 49.819,25 C 51.297,25 51.861,26.032 51.909,26.106 L 51.191,26.784 C 51.091,26.628 50.728,25.981 49.806,25.981 C 49.331,25.981 48.938,26.181 48.938,26.571 C 48.938,27.071 49.452,27.181 49.818,27.271 L 50.416,27.413 C 51.248,27.611 52,28.148 52,29.202 C 52,30.366 51.094,31 49.901,31 C 48.338,31 47.76,30.043 47.658,29.89 L 48.399,29.157 Z M 44.706,27.796 L 46.524,25 H 45.338 L 43.503,27.846 L 45.467,31 H 46.701 L 44.706,27.796 Z M 43,25 H 42 V 31 H 43 V 25 Z M 12.666,27.796 L 14.484,25 H 13.297 L 11.463,27.846 L 13.428,31 H 14.661 L 12.666,27.796 Z M 11,25 H 10 V 31 H 11 V 25 Z M 18,28.628 V 31 H 17 V 28.628 L 15.086,25 H 16.304 L 17.534,27.518 L 18.79,25 H 19.848 L 18,28.628 Z" fill="rgb(254, 254, 253)"/>
</svg>
