<?xml version="1.0" encoding="UTF-8"?>
<!-- generated by Finnhub -->
<svg viewBox="0 0 55.5 55.5" xmlns="http://www.w3.org/2000/svg">
<path d="M 0,0 H 55.5 V 55.5 H 0 Z" fill="rgb(1, 128, 196)"/>
<path d="M 13.99,21.410999999999998 C 13.032,21.014 11.71,20.721 10.631,20.721 C 9.576,20.721 8.211,21.176 8.211,22.821 C 8.211,25.442 14.943,24.338 14.943,29.407 C 14.943,32.72 12.281,33.977 9.179,33.977 C 7.507,33.977 6.519,33.759 5,33.392 V 30.662 C 6.056,31.226 7.793,31.595 9.004,31.595 C 10.17,31.595 11.731,31.01 11.731,29.645 C 11.731,26.765 5,27.955 5,22.952 C 5,19.572 7.662,18.338 10.367,18.338 C 11.687,18.338 12.877,18.511 14,18.879 V 21.426 Z M 32,25.202 C 31.125,24.907 29.984,24.739 28.937,24.739 C 28.169,24.739 27.25,25.012 27.25,25.938 C 27.25,27.662 32.227,26.569 32.227,30.48 C 32.227,33.004 29.942,34.013 27.613,34.013 A 16.05,16.05 0 0,1 24,33.551 V 31.237 C 24.897,31.679 26.374,31.953 27.357,31.953 C 28.083,31.953 29.237,31.679 29.237,30.627 C 29.237,28.503 24.26,29.954 24.26,26.043 C 24.26,23.709 26.33,22.678 28.574,22.678 C 29.92,22.678 31.102,22.888 32,23.078 V 25.202 Z M 41,25.265 C 40.488,25.033 39.648,24.865 38.773,24.865 C 36.999,24.865 35.868,26.253 35.868,28.293 C 35.868,30.291 36.828,31.826 38.836,31.826 C 39.649,31.826 40.509,31.532 41,31.321 V 33.655 C 40.167,33.907 39.477,34.013 38.303,34.013 C 34.693,34.013 32.877,31.595 32.877,28.293 C 32.877,25.16 34.757,22.678 38.196,22.678 C 39.349,22.678 40.209,22.804 41,23.036 V 25.265 Z M 47.234,31.826 C 49.434,31.826 50.01,29.892 50.01,28.083 C 50.01,26.422 49.114,24.866 47.234,24.866 C 45.376,24.866 44.479,26.464 44.479,28.083 C 44.479,29.87 45.055,31.826 47.234,31.826 Z M 47.234,22.679 C 50.501,22.679 53,24.844 53,28.419 C 53,31.531 50.886,34.013 47.234,34.013 C 43.604,34.013 41.488,31.531 41.488,28.419 C 41.488,24.844 43.988,22.679 47.234,22.679 Z M 24.58,23 H 21.675 L 16.08,38 H 18.705 L 24.582,23 Z" fill="rgb(254, 254, 253)"/>
<path d="M 12.697000000000001,22.500999999999998 C 13.92,23.745 15.129,25.242 16.006,26.998 C 16.79,28.57 17.186,30.101 17.469,31.644 C 17.481,31.698 17.517,31.694 17.538,31.652 C 18.581,29.829 19.22,27.347 18.286,25.477 C 17.307,23.514 14.956,22.612 12.746,22.43 C 12.669,22.426 12.656,22.466 12.706,22.516 Z" fill="rgb(123, 235, 49)"/>
</svg>
