<?xml version="1.0" encoding="UTF-8"?>
<!-- generated by Finnhub -->
<svg viewBox="0 0 55.5 55.5" xmlns="http://www.w3.org/2000/svg">
<path d="M 0,0 H 55.5 V 55.5 H 0 Z" fill="rgb(1, 167, 222)"/>
<path d="M 18.179,40.622 A 15.981,15.981 0 0,0 27.998,44 C 32.041,44 35.727,42.498 38.539,40.034 C 38.573,40.004 38.556,39.984 38.523,40.004 C 37.261,40.847 33.663,42.688 27.999,42.688 C 23.076,42.688 19.965,41.588 18.209,40.608 C 18.175,40.591 18.162,40.617 18.188,40.638 Z M 29.086,41.455 C 33.023,41.455 37.35,40.381 39.938,38.255 C 40.646,37.677 41.32,36.905 41.924,35.87 A 15.34,15.34 0 0,0 42.889,33.87 C 42.902,33.836 42.881,33.82 42.855,33.858 C 40.449,37.4 33.48,39.61 26.285,39.61 C 21.199,39.61 15.727,37.983 13.585,34.876 C 13.564,34.848 13.542,34.86 13.555,34.893 C 15.551,39.137 21.606,41.455 29.086,41.455 Z M 24.784,34.415 C 16.595,34.415 12.734,30.599 12.034,27.995 C 12.024,27.958 12,27.966 12,28 C 12,28.877 12.088,30.008 12.239,30.759 C 12.311,31.124 12.608,31.698 13.044,32.155 C 15.027,34.223 19.97,37.12 28.532,37.12 C 40.197,37.12 42.864,33.233 43.409,31.954 C 43.799,31.04 44,29.388 44,28 C 44,27.664 43.992,27.396 43.979,27.133 C 43.979,27.09 43.954,27.086 43.946,27.128 C 43.363,30.256 33.396,34.415 24.784,34.415 Z M 13.543,21.135 C 13.073,22.067 12.553,23.639 12.399,24.453 C 12.331,24.801 12.359,24.969 12.482,25.229 C 13.463,27.312 18.428,30.645 30.008,30.645 C 37.073,30.645 42.562,28.909 43.451,25.74 C 43.614,25.157 43.623,24.541 43.413,23.711 C 43.178,22.784 42.738,21.702 42.365,20.943 C 42.353,20.918 42.331,20.922 42.335,20.951 C 42.474,25.107 30.889,27.786 25.044,27.786 C 18.712,27.786 13.43,25.262 13.43,22.076 C 13.43,21.769 13.493,21.463 13.572,21.144 C 13.58,21.115 13.555,21.11 13.542,21.136 Z M 38.566,16.033 C 38.633,16.139 38.666,16.251 38.666,16.403 C 38.666,18.18 33.228,21.325 24.571,21.325 C 18.209,21.325 17.018,18.965 17.018,17.463 C 17.018,16.926 17.224,16.377 17.678,15.819 C 17.702,15.786 17.681,15.773 17.652,15.799 C 16.826,16.499 16.067,17.287 15.401,18.139 C 15.082,18.541 14.885,18.897 14.885,19.111 C 14.885,22.222 22.683,24.478 29.975,24.478 C 37.745,24.478 41.212,21.941 41.212,19.711 C 41.212,18.914 40.902,18.449 40.109,17.547 A 18.86,18.86 0 0,0 38.591,16.012 C 38.566,15.992 38.549,16.008 38.566,16.033 Z M 36.184,14.256 A 15.817,15.817 0 0,0 28,12 C 24.977,12 22.109,12.847 19.702,14.322 C 18.98,14.767 18.574,15.123 18.574,15.581 C 18.574,16.931 21.727,18.381 27.32,18.381 C 32.856,18.381 37.149,16.792 37.149,15.262 C 37.149,14.897 36.829,14.642 36.184,14.256 Z" fill="rgb(254, 254, 253)"/>
</svg>
