<?xml version="1.0" encoding="UTF-8"?>
<!-- generated by Finnhub -->
<svg viewBox="0 0 55.5 55.5" xmlns="http://www.w3.org/2000/svg">
<path d="M 0,0 H 55.5 V 55.5 H 0 Z" fill="rgb(39, 124, 246)"/>
<path d="M 28.99,25.985 A 1,1 0 1,1 27,26 A 1,1 0 0,1 29,26 Z" fill="rgb(254, 177, 2)"/>
<path d="M 18.229999999999997,21.165 A 0.92,0.92 0 0,0 19.51,19.91 A 0.91,0.91 0 1,0 18.24,21.18 Z M 22.5,22.65 C 22.85,22.23 23.21,22 23.78,22 C 25.28,22 26.18,23.18 26.16,24.55 A 2.39,2.39 0 0,1 22.5,26.63 V 29 H 21 V 22 H 22.5 V 22.65 Z M 22.55,25.01 C 22.74,25.41 23.18,25.69 23.63,25.67 C 24.23,25.66 24.72,25.14 24.7,24.55 C 24.7,23.85 24.03,23.3 23.34,23.45 C 22.9,23.55 22.54,23.91 22.47,24.35 C 22.43,24.58 22.46,24.81 22.55,25.01 Z M 19.5,22 H 18 V 27 H 19.5 V 22 Z M 8,21.33 V 20 H 13.5 V 21.33 H 11.5 V 27 H 10 V 21.33 H 8 Z M 32.5,25.53 C 31.98,25.54 31.5,25.11 31.5,24.5 C 31.5,23.9 31.96,23.45 32.5,23.45 C 32.78,23.45 33.07,23.52 33.26,23.73 L 34.26,22.73 A 2.5,2.5 0 1,0 34.26,26.27 L 33.26,25.27 C 33.06,25.48 32.78,25.53 32.49,25.54 Z M 45.26,22.79 C 45.56,22.29 46.16,21.97 46.75,22.01 V 22 C 47.82,22 48.5,22.67 48.5,23.74 V 27 H 47 V 24.04 C 47.03,23.64 46.67,23.29 46.28,23.29 C 45.88,23.29 45.48,23.64 45.5,24.04 V 27 H 44 V 24.04 C 44.02,23.64 43.65,23.29 43.25,23.29 C 42.86,23.29 42.47,23.64 42.5,24.04 V 27 H 41 V 22 H 42.5 V 22.79 C 42.78,22.3 43.27,21.99 43.83,22.01 C 44.41,21.99 44.97,22.3 45.26,22.79 Z M 16.48,22 A 1.78,1.78 0 0,0 15,22.8 V 22 H 13.5 V 27 H 15 V 24.93 C 14.97,24.17 15.8,23.5 16.55,23.53 L 16.8,23.56 V 22.05 L 16.7,22.03 L 16.48,22 Z M 37.5,22 A 2.5,2.5 0 1,0 37.5,27 A 2.5,2.5 0 0,0 37.5,22 Z M 38.5,24.5 A 1,1 0 1,1 36.5,24.5 A 1,1 0 0,1 38.5,24.5 Z" fill="rgb(254, 254, 253)"/>
<path d="M 18.99,33.985 V 35 H 20 V 36.6 C 19.49,36.9 19.08,37 18.5,37 C 16.98,37 16,36 16,34.5 C 16,33.01 16.97,31.97 18.5,32 C 19.2,31.98 19.9,32.26 20.4,32.78 L 20.96,31.95 C 20.66,31.65 20.3,31.4 19.89,31.24 A 3.74,3.74 0 0,0 18.49,31 C 18.02,31 17.55,31.09 17.11,31.26 A 3.33,3.33 0 0,0 15.27,33.1 A 3.71,3.71 0 0,0 15.27,35.9 A 3.26,3.26 0 0,0 17.09,37.74 C 17.54,37.91 18.01,38 18.49,38 A 4.41,4.41 0 0,0 20.97,37.34 L 21,37.32 V 34 H 19 Z M 34.5,33 V 35.37 C 34.52,36.23 34.12,37.13 33.16,37.13 C 32.24,37.16 31.99,36.39 32,35.55 V 33 H 31 V 35.97 A 1.88,1.88 0 0,0 32.98,38 C 33.71,38 34.08,37.7 34.5,37.2 V 38 H 35.5 V 33 H 34.5 Z M 24.5,33.01 H 24.66 V 33.93 A 1.73,1.73 0 0,0 24.22,33.86 C 23.44,33.86 23,34.4 23,35.16 V 38 H 22 V 33 H 23 V 33.7 C 23.39,33.25 23.74,32.99 24.33,33 L 24.49,33.01 Z M 26.11,33.42 A 2.5,2.5 0 1,1 28.89,37.58 A 2.5,2.5 0 0,1 26.11,33.42 Z M 28.93,35.96 A 1.5,1.5 0 1,1 26.07,35.04 A 1.5,1.5 0 0,1 28.93,35.96 Z M 41.83,34.52 A 2.42,2.42 0 0,0 39.53,33 C 38.87,33 38.26,33.28 38,33.61 V 33 H 37 V 40 H 38 V 37.38 C 38.3,37.76 38.87,37.99 39.52,38 C 40.52,38.01 41.46,37.43 41.82,36.48 A 2.8,2.8 0 0,0 41.82,34.52 Z M 41,35.5 A 1.5,1.5 0 1,1 38,35.5 A 1.5,1.5 0 0,1 41,35.5 Z" fill="rgb(254, 254, 253)" fill-rule="evenodd"/>
</svg>
