<?xml version="1.0" encoding="UTF-8"?>
<!-- generated by Finnhub -->
<svg viewBox="0 0 55.5 55.5" xmlns="http://www.w3.org/2000/svg">
<path d="M 0,0 H 55.5 V 55.5 H 0 Z" fill="rgb(66, 38, 126)"/>
<path d="M 3.99,23.894 V 24.999 H 7.009 V 33.003 H 8.99 V 24.999 H 12 V 23.002 H 4 V 23.909 Z M 18,28 V 33 H 20 V 23 H 18 V 28 Z M 35,24.537 V 26 S 34.496,25.78 34.256,25.689 C 33.556,25.419 32.844,25.402 32.109,25.541 C 31.219,25.699 30.741,25.879 30.105,26.472 C 29.073,27.421 28.788,28.877 29.113,30.174 C 29.353,31.124 30.145,32.098 31.043,32.54 C 33.297,33.66 35.975,32.658 36.795,30.379 C 36.95,29.964 36.972,29.845 37,26.472 C 37.028,23.099 37,23 37,23 H 35 V 24.537 Z M 33.558,27.44 C 34.286,27.645 34.788,28.145 34.986,28.857 C 35.403,30.392 33.622,31.743 32.109,31.037 C 31.396,30.702 30.986,30.148 30.929,29.45 C 30.887,28.883 31.042,28.448 31.424,28.04 A 2.11,2.11 0 0,1 33.558,27.44 Z" fill="rgb(245, 247, 251)"/>
<path d="M 13.126,25.022 C 11.965,25.265 10.986,26.035 10.428,27.167 C 9.868,28.315 9.855,29.583 10.401,30.78 C 10.701,31.443 11.452,32.262 12.058,32.576 C 13.276,33.203 14.673,33.132 15.764,32.383 C 16.15,32.113 16.709,31.563 16.709,31.45 C 16.709,31.421 16.409,31.158 16.05,30.866 L 15.392,30.324 L 15.199,30.538 C 15.099,30.659 14.833,30.844 14.613,30.958 C 13.695,31.428 12.597,31.319 12.058,30.408 A 1.92,1.92 0 0,1 11.865,30 C 11.865,29.971 13.115,30 14.653,30 H 17.441 L 17.481,29.802 C 17.501,29.716 17.521,29.438 17.521,29.182 C 17.521,27.465 16.383,25.657 14.793,25.151 C 14.333,25.009 13.575,24.959 13.136,25.037 Z M 14.989,27.167 C 15.325,27.45 15.566,28 15.566,28 H 13.761 S 11.865,28.028 11.865,28 C 11.865,27.865 11.985,27.404 12.371,27.168 C 12.757,26.931 13.182,26.74 13.761,26.761 C 14.167,26.776 14.653,26.885 14.989,27.168 Z M 23.943,25.08 C 22.568,25.407 21.411,26.616 21.101,28.039 C 20.704,29.853 21.504,31.731 23.044,32.57 C 23.441,32.79 24.26,33.004 24.696,33.004 C 25.172,33.004 25.721,32.847 26.223,32.577 A 4.89,4.89 0 0,1 26.653,32.364 C 26.673,32.364 26.686,32.478 26.686,32.613 V 33.003 H 28.404 V 30.564 C 28.404,28.664 28.384,28.195 28.299,27.875 C 27.949,26.595 26.957,25.528 25.767,25.151 C 25.225,24.98 24.478,24.951 23.943,25.08 Z M 25.595,27.135 C 26.732,27.733 27.016,29.348 26.164,30.393 C 25.628,31.041 24.577,31.254 23.87,30.856 C 22.727,30.208 22.43,28.65 23.262,27.633 A 2.127,2.127 0 0,1 24.273,26.95 C 24.623,26.85 25.219,26.93 25.595,27.135 Z M 40.793,25.035 C 39.298,25.284 38.085,26.38 37.613,27.904 C 37.436,28.466 37.464,29.641 37.662,30.224 C 38.184,31.741 39.432,32.766 41.004,32.965 C 41.279,33.001 41.604,32.965 41.604,32.965 S 41.378,32.858 41.343,32.858 C 41.307,32.858 41.004,32.364 41.004,32.036 C 41.004,31.68 41.059,31.52 41.284,31.278 L 41.658,31.071 L 41.144,31.029 A 2.168,2.168 0 0,1 39.587,29.911 C 39.333,29.42 39.319,28.566 39.559,28.111 C 39.904,27.441 40.511,26.992 41.167,26.907 C 41.632,26.843 41.737,26.779 41.9,26.451 C 42.076,26.096 42.076,25.789 41.9,25.419 C 41.688,24.978 41.505,24.914 40.793,25.035 Z" fill="rgb(245, 247, 251)"/>
<path d="M 42.197,32.927 C 43.702,32.692 44.915,31.596 45.387,30.072 C 45.564,29.511 45.536,28.336 45.338,27.752 C 44.816,26.236 43.568,25.211 41.996,25.012 C 41.721,24.976 41.411,25.012 41.411,25.012 L 41.657,25.118 C 41.843,25.28 42.017,25.602 42.017,25.93 C 42.017,26.188 41.898,26.573 41.721,26.727 L 41.554,26.852 L 41.83,26.906 A 2.266,2.266 0 0,1 43.413,28.066 C 43.667,28.556 43.681,29.411 43.441,29.866 C 43.096,30.536 42.489,30.984 41.833,31.07 C 41.368,31.134 41.263,31.198 41.1,31.525 C 40.924,31.881 40.924,32.187 41.1,32.557 C 41.312,32.999 41.495,33.063 42.207,32.942 Z" fill="rgb(1, 180, 224)"/>
<path d="M 48.512,25.064999999999998 C 47.169,25.386 46.126,26.509 45.772,28.037 C 45.62,28.669 45.671,29.75 45.867,30.339 C 46.638,32.621 48.895,33.637 50.799,32.571 C 51.317,32.28 52.038,31.597 51.987,31.434 C 51.975,31.384 51.69,31.107 51.355,30.823 L 50.748,30.297 L 50.407,30.588 C 49.642,31.242 48.718,31.235 48.042,30.567 C 47.442,29.977 47.232,29.138 47.479,28.307 C 47.649,27.745 48.187,27.156 48.68,26.999 C 49.325,26.786 49.983,26.957 50.476,27.469 C 50.672,27.667 50.71,27.681 50.824,27.603 C 51.09,27.42 52,26.594 52,26.544 C 52,26.324 51.184,25.592 50.647,25.322 C 50.312,25.159 49.493,24.995 49.158,25.002 C 49.026,25.002 48.75,25.031 48.522,25.08 Z" fill="rgb(245, 247, 251)"/>
</svg>
