<?xml version="1.0" encoding="UTF-8"?>
<!-- generated by Finnhub -->
<svg viewBox="0 0 55.5 55.5" xmlns="http://www.w3.org/2000/svg">
<path d="M 0,0 H 55.5 V 55.5 H 0 Z" fill="rgb(1, 210, 154)"/>
<path d="M 12.99,17.985 H 18 V 34 A 2,2 0 1,0 22,34 V 18 H 27 V 34 C 27,38.03 23.59,40 20,40 S 13,38.03 13,34 V 18 Z M 30,18 H 37.5 C 41.64,18 44.5,21.36 44.5,25.5 S 41.64,33 37.5,33 H 35 V 40 H 30 V 18 Z M 35,29 V 22 H 37 C 39.01,22 40,23.7 40,25.5 S 39.01,29 37,29 H 35 Z" fill="rgb(28, 28, 27)" fill-rule="evenodd"/>
</svg>
