<?xml version="1.0" encoding="UTF-8"?>
<!-- generated by Finnhub -->
<svg viewBox="0 0 55.5 55.5" xmlns="http://www.w3.org/2000/svg">
<path d="M 0,0 H 55.5 V 55.5 H 0 Z" fill="rgb(1, 72, 174)"/>
<path d="M 22.701999999999998,24.000999999999998 A 0.738,0.738 0 0,0 21.455,24.153 L 15.081,36.896 A 0.76,0.76 0 0,0 15.764,38 H 24.64 A 0.735,0.735 0 0,0 25.323,37.58 C 27.233,33.613 26.073,27.605 22.712,24.016 Z" fill="url(#a)"/>
<path d="M 27.38,12.392999999999999 A 16.81,16.81 0 0,0 26.388,29.018 L 30.688,37.58 A 0.762,0.762 0 0,0 31.372,38 H 40.248 A 0.76,0.76 0 0,0 40.919,36.896 L 28.686,12.408 A 0.72,0.72 0 0,0 27.39,12.408 Z" fill="rgb(254, 254, 253)"/>
<defs>
<linearGradient id="a" x1="26.207" x2="19.481" y1="25.983" y2="37.635" gradientUnits="userSpaceOnUse">
<stop stop-color="rgb(95, 159, 253)" offset="0"/>
<stop stop-color="rgb(254, 254, 253)" offset=".92"/>
</linearGradient>
</defs>
</svg>
