<?xml version="1.0" encoding="UTF-8"?>
<!-- generated by Finnhub -->
<svg viewBox="0 0 55.5 55.5" xmlns="http://www.w3.org/2000/svg">
<path d="M 0,0 H 55.5 V 55.5 H 0 Z" fill="rgb(1, 94, 157)"/>
<path d="M 6.390000000000001,31.985 C 5.881,32.002 5.494,31.735 5.175,31.5 V 32 L 4,31.986 V 24 H 5.175 V 27 S 5.328,26.778 5.621,26.549 C 5.831,26.385 6.067,26.288 6.581,26.288 C 6.956,26.288 7.276,26.375 7.538,26.548 C 7.801,26.723 8.013,26.948 8.177,27.223 C 8.347,27.492 8.471,27.793 8.549,28.127 C 8.627,28.46 8.666,28.79 8.666,29.117 C 8.666,29.559 8.613,29.958 8.506,30.314 C 8.4,30.669 8.247,30.974 8.049,31.227 A 2.122,2.122 0 0,1 7.336,31.804 C 7.059,31.934 6.773,31.999 6.4,32 Z M 6.155,31.043 A 0.898,0.898 0 0,0 6.57,30.945 A 0.952,0.952 0 0,0 6.9,30.618 C 6.999,30.466 7.077,30.27 7.134,30.031 C 7.19,29.791 7.219,29.501 7.219,29.161 C 7.219,28.544 7.119,28.076 6.921,27.756 C 6.722,27.43 6.463,27.266 6.144,27.266 A 0.896,0.896 0 0,0 5.772,27.354 A 1.028,1.028 0 0,0 5.421,27.626 A 1.516,1.516 0 0,0 5.155,28.105 C 4.93,28.768 4.877,30.131 5.378,30.695 C 5.598,30.926 5.857,31.043 6.155,31.043 Z M 9.432,24.71 C 9.43,24.319 9.765,24 10.171,24 C 10.578,24 10.914,24.32 10.909,24.714 C 10.905,25.101 10.572,25.412 10.171,25.412 C 9.768,25.412 9.435,25.098 9.432,24.71 Z M 9.675,26 H 10.675 V 32 H 9.675 V 26 Z M 14.343,32 C 13.932,32 13.563,31.927 13.236,31.782 A 2.498,2.498 0 0,1 12.417,31.162 A 2.852,2.852 0 0,1 11.907,30.248 A 3.698,3.698 0 0,1 11.737,29.117 C 11.737,28.66 11.811,28.257 11.96,27.909 C 12.109,27.553 12.307,27.256 12.555,27.017 C 12.811,26.777 13.102,26.596 13.428,26.473 A 2.866,2.866 0 0,1 14.449,26.288 C 14.861,26.288 15.226,26.368 15.546,26.527 C 15.865,26.687 16.134,26.901 16.354,27.169 C 16.581,27.43 16.752,27.731 16.865,28.072 C 16.985,28.413 17.045,28.762 17.045,29.117 C 17.045,29.574 16.975,29.98 16.833,30.335 A 2.628,2.628 0 0,1 16.248,31.238 A 2.427,2.427 0 0,1 15.386,31.804 A 2.78,2.78 0 0,1 14.343,32 Z M 14.386,31.043 C 14.542,31.043 14.691,31.013 14.833,30.956 A 0.861,0.861 0 0,0 15.216,30.651 C 15.322,30.506 15.407,30.314 15.471,30.074 C 15.535,29.827 15.567,29.523 15.567,29.16 C 15.567,28.478 15.453,27.992 15.227,27.702 C 15.007,27.405 14.727,27.256 14.386,27.256 C 14.244,27.256 14.102,27.286 13.96,27.343 A 0.9,0.9 0 0,0 13.588,27.626 C 13.474,27.764 13.382,27.956 13.311,28.203 C 13.247,28.442 13.215,28.747 13.215,29.117 C 13.215,29.827 13.322,30.328 13.535,30.618 C 13.747,30.901 14.031,31.043 14.385,31.043 Z M 21.178,32 C 20.822,32 20.435,31.868 20.178,31.63 A 1.491,1.491 0 0,1 19.816,31.075 C 19.731,30.843 19.688,30.553 19.688,30.205 L 19.676,27 H 18.676 V 26 H 19.676 L 19.688,24 H 20.676 V 26 H 22.676 V 27 H 20.676 V 30.205 C 20.676,31.069 21.686,30.98 22.274,30.847 V 31.902 C 22.167,31.924 22.05,31.942 21.922,31.956 A 6.711,6.711 0 0,1 21.177,32 Z M 25.678,32 C 25.26,32 24.888,31.924 24.561,31.771 C 24.241,31.611 23.972,31.401 23.752,31.141 A 2.72,2.72 0 0,1 23.252,30.237 A 3.488,3.488 0 0,1 23.082,29.149 C 23.082,28.729 23.152,28.344 23.295,27.996 C 23.437,27.641 23.628,27.34 23.869,27.093 C 24.11,26.839 24.391,26.643 24.709,26.505 C 25.036,26.36 25.38,26.288 25.742,26.288 C 26.161,26.288 26.529,26.368 26.849,26.527 C 27.175,26.679 27.449,26.887 27.669,27.147 C 27.888,27.408 28.055,27.713 28.169,28.061 C 28.282,28.402 28.339,28.761 28.339,29.138 V 29.367 H 24.572 C 24.572,29.65 24.607,29.893 24.678,30.096 C 24.748,30.299 24.841,30.466 24.955,30.596 C 25.075,30.727 25.21,30.825 25.359,30.89 C 25.515,30.948 25.682,30.977 25.859,30.977 C 25.951,30.977 26.054,30.963 26.168,30.934 C 26.288,30.897 26.405,30.843 26.518,30.77 C 26.632,30.698 26.735,30.604 26.828,30.488 C 26.92,30.372 26.988,30.23 27.03,30.063 L 28.285,30.313 A 2.203,2.203 0 0,1 27.349,31.565 C 26.895,31.855 26.338,32 25.679,32 Z M 26.902,28.562 C 26.888,28.134 26.774,27.804 26.562,27.572 A 1.017,1.017 0 0,0 25.763,27.223 C 25.621,27.223 25.483,27.253 25.348,27.31 C 25.214,27.361 25.089,27.441 24.976,27.55 C 24.869,27.659 24.781,27.8 24.71,27.974 C 24.639,28.141 24.6,28.337 24.593,28.562 H 26.902 Z M 31.69,32 C 31.243,32 30.86,31.92 30.54,31.76 A 2.316,2.316 0 0,1 29.764,31.13 A 2.854,2.854 0 0,1 29.317,30.205 A 4.233,4.233 0 0,1 29.178,29.117 C 29.178,28.703 29.242,28.322 29.37,27.974 C 29.505,27.626 29.686,27.329 29.913,27.082 A 2.37,2.37 0 0,1 30.711,26.494 C 31.016,26.357 31.346,26.288 31.701,26.288 C 32.02,26.288 32.307,26.342 32.562,26.451 C 32.818,26.552 33.042,26.694 33.232,26.875 C 33.424,27.057 33.58,27.267 33.701,27.506 C 33.821,27.738 33.907,27.985 33.956,28.246 L 32.732,28.475 C 32.591,27.713 32.254,27.332 31.722,27.332 A 0.886,0.886 0 0,0 31.296,27.441 A 0.936,0.936 0 0,0 30.956,27.757 C 30.856,27.894 30.778,28.079 30.721,28.311 A 3.327,3.327 0 0,0 30.636,29.117 C 30.636,29.711 30.725,30.165 30.902,30.477 C 31.087,30.789 31.367,30.945 31.742,30.945 A 0.88,0.88 0 0,0 32.392,30.662 C 32.576,30.473 32.697,30.194 32.754,29.824 L 34,30.04 A 2.657,2.657 0 0,1 33.712,30.813 C 33.585,31.053 33.422,31.259 33.223,31.433 S 32.793,31.745 32.531,31.847 A 2.256,2.256 0 0,1 31.691,31.999 Z M 35,24 H 36 V 27.343 S 36.313,26.861 36.617,26.647 A 2.04,2.04 0 0,1 37.801,26.287 C 38.028,26.287 38.245,26.327 38.451,26.407 C 38.663,26.487 38.929,26.61 39.085,26.777 C 39.248,26.944 39.376,27.158 39.468,27.419 C 39.568,27.68 39.618,27.992 39.618,28.355 V 32 H 38.213 V 28.355 C 38.213,27.825 37.936,27.343 37.355,27.343 C 36.772,27.343 36.415,27.713 36.28,28.246 A 2.015,2.015 0 0,0 36.216,28.746 V 32 H 35 V 24 Z M 41,26.348 H 41.999 V 27.323 C 42.499,26.469 43.195,26.288 43.914,26.288 C 44.141,26.288 44.357,26.328 44.564,26.408 C 44.776,26.488 44.96,26.61 45.116,26.778 C 45.28,26.944 45.407,27.158 45.499,27.419 C 45.599,27.68 45.649,27.992 45.649,28.355 V 32 H 44.149 V 29 C 44.142,28.869 44.124,28.106 44.096,28 C 43.988,27.18 43.026,27.192 42.648,27.5 C 42.288,27.795 42.148,28.387 42.148,29 V 32 H 41 V 26.348 Z M 49.015,32 C 48.597,32 48.225,31.924 47.898,31.771 C 47.259,31.452 46.816,30.919 46.589,30.237 A 3.488,3.488 0 0,1 46.419,29.149 C 46.419,28.729 46.489,28.344 46.632,27.996 C 46.774,27.641 46.965,27.34 47.206,27.093 C 47.447,26.839 47.728,26.643 48.046,26.505 C 48.373,26.36 48.717,26.288 49.079,26.288 C 49.498,26.288 49.867,26.368 50.186,26.527 C 50.512,26.679 50.786,26.887 51.006,27.147 C 51.225,27.408 51.392,27.713 51.506,28.061 C 51.619,28.402 51.676,28.761 51.676,29.138 V 29.367 H 47.909 C 47.909,29.65 47.944,29.893 48.015,30.096 C 48.086,30.299 48.178,30.466 48.292,30.596 C 48.412,30.727 48.547,30.825 48.696,30.89 C 48.852,30.948 49.019,30.977 49.196,30.977 C 49.288,30.977 49.391,30.963 49.505,30.934 C 49.625,30.897 49.742,30.843 49.855,30.77 A 1.27,1.27 0 0,0 50.165,30.488 C 50.257,30.372 50.325,30.23 50.367,30.063 L 51.622,30.313 A 2.203,2.203 0 0,1 50.686,31.565 C 50.232,31.855 49.675,32 49.016,32 Z M 50.239,28.562 C 50.225,28.134 50.111,27.804 49.899,27.572 A 1.017,1.017 0 0,0 49.1,27.223 C 48.958,27.223 48.82,27.253 48.685,27.31 C 48.551,27.361 48.426,27.441 48.313,27.55 C 48.207,27.659 48.118,27.8 48.047,27.974 C 47.976,28.141 47.937,28.337 47.93,28.562 H 50.239 Z" fill="rgb(254, 254, 253)"/>
<path d="M 14.665000000000001,28.485 H 18.675 V 29.5 H 14.675 V 28.5 Z" fill="rgb(254, 254, 253)"/>
</svg>
