<?xml version="1.0" encoding="UTF-8"?>
<!-- generated by Finnhub -->
<svg viewBox="0 0 55.5 55.5" xmlns="http://www.w3.org/2000/svg">
<path d="M 0,0 H 55.5 V 55.5 H 0 Z" fill="rgb(39, 78, 150)"/>
<path d="M 9.366,23.985 V 25.5 H 7.5 V 31 H 6 V 25.5 H 4 V 24 H 9.376 Z M 15,24.01 V 25.3 H 11.383 V 26.798 H 14.575 V 28.003 H 11.383 V 29.711 H 15 V 31 H 10 V 24.01 H 15 Z M 15.5,24.01 H 18.71 C 19.337,24.01 19.817,24.115 20.15,24.325 C 20.718,24.681 21.002,25.237 21.002,25.991 C 21.002,26.851 20.656,27.42 19.964,27.699 C 20.264,27.783 20.496,27.965 20.659,28.244 C 20.961,28.757 20.942,29.44 20.992,30.015 C 21.032,30.49 21.096,30.79 21.188,30.916 L 21.247,31 H 19.758 C 19.68,30.853 19.624,30.539 19.592,30.057 C 19.572,29.812 19.533,29.477 19.474,29.051 C 19.323,28.433 18.854,28.255 18.26,28.255 H 17 V 31 H 15.5 V 24.01 Z M 17,25.216 V 27.133 H 18.338 C 18.99,27.133 19.602,26.924 19.602,26.169 C 19.602,25.533 19.2,25.216 18.397,25.216 H 17 Z M 25.54,24 L 28.027,31 H 26.529 L 26.009,29.439 H 23.581 L 23.053,31 H 21.583 L 24.071,24 H 25.54 Z M 25.657,28.317 C 25.35,27.399 25.02,26.486 24.805,25.54 C 24.585,26.482 24.23,27.402 23.924,28.317 H 25.657 Z M 28.5,24 H 31.182 C 32.122,24 32.85,24.262 33.365,24.765 C 34.018,25.401 34.345,26.302 34.345,27.469 C 34.345,28.635 34.038,29.543 33.424,30.193 C 32.831,30.828 32.054,31 31.211,31 H 28.5 V 24 Z M 30,25.3 V 29.7 H 31.064 C 31.691,29.7 32.141,29.543 32.416,29.208 C 32.742,28.81 32.906,28.227 32.906,27.458 C 32.906,26.019 32.276,25.299 31.016,25.299 H 30 Z M 40.068,24.01 L 37.796,28.307 V 31 H 36.22 V 28.286 L 33.782,24.01 H 35.493 L 36.996,27.018 L 38.482,24.01 H 40.068 Z M 46.5,24.01 V 31 H 44.878 L 42,26.064 V 31 H 40.5 V 24.01 H 42.244 L 44.996,28.925 L 45,24.01 H 46.5 Z M 52,24.01 V 25.3 H 48.5 V 26.798 H 51.5 V 28.003 H 48.5 V 29.711 H 52 V 31 H 47 V 24.01 H 52 Z" fill="rgb(254, 254, 253)"/>
</svg>
