<?xml version="1.0" encoding="UTF-8"?>
<!-- generated by Finnhub -->
<svg viewBox="0 0 55.5 55.5" xmlns="http://www.w3.org/2000/svg">
<path d="M 0,0 H 55.5 V 55.5 H 0 Z" fill="rgb(203, 1, 2)"/>
<path d="M 27.982,38.657 C 22.102,38.672 17.321,33.898 17.321,28.005 C 17.321,22.101 22.101,17.33 27.992,17.33 C 33.888,17.33 38.663,22.1 38.663,28.005 C 38.663,33.898 33.889,38.672 27.993,38.672 Z M 27.992,12 C 19.163,12 12,19.165 12,28.005 C 12,36.837 19.161,44 27.992,44 C 36.828,44 44,36.837 44,28.005 C 44,19.165 36.827,12 27.992,12 Z" fill="rgb(254, 254, 253)"/>
<path d="M 27.982999999999997,22.505 A 5.477,5.477 0 0,0 22.513,28.005 A 5.48,5.48 0 0,0 27.993,33.486 A 5.486,5.486 0 0,0 33.481,28.005 A 5.482,5.482 0 0,0 27.993,22.52 Z" fill="rgb(254, 254, 253)"/>
</svg>
