<?xml version="1.0" encoding="UTF-8"?>
<!-- generated by Finnhub -->
<svg viewBox="0 0 55.5 55.5" xmlns="http://www.w3.org/2000/svg">
<path d="M 0,0 H 55.5 V 55.5 H 0 Z" fill="rgb(194, 17, 46)"/>
<path d="M 39.741,21.758 L 42.84,16 H 48 L 43.057,25.885 L 48,35 H 42.572 L 39.731,29.616 L 34.281,40 H 28.5 L 36.31,25.907 L 30.837,16 H 36.683 L 39.75,21.773 Z" fill="rgb(254, 254, 253)"/>
<path d="M 24.99,15.985 H 30 V 30.84 C 30,37.628 26.891,40 21.89,40 C 20.708,40 20.014,39.963 19,39.608 L 19.002,35.398 C 20.618,35.434 21.135,35.372 21.43,35.349 C 23.069,35.221 25,34.483 25,30.769 V 16 Z" fill="rgb(254, 254, 253)"/>
<path d="M 6.99,15.985 V 21 H 13 V 40 H 18 V 21 H 24 V 16 H 7 Z" fill="rgb(254, 254, 253)"/>
</svg>
