<?xml version="1.0" encoding="UTF-8"?>
<!-- generated by Finnhub -->
<svg viewBox="0 0 55.5 55.5" xmlns="http://www.w3.org/2000/svg">
<path d="M 0,0 H 55.5 V 55.5 H 0 Z" fill="rgb(49, 63, 101)"/>
<path d="M 27.349,26.82 L 36.254,21.196 L 32.366,15.969 L 26.766,26.427 C 26.974,26.547 27.172,26.683 27.359,26.835 Z M 28.84,28.976 L 40.915,27.462 L 37.047,22.262 L 28.538,28.273 C 28.658,28.499 28.758,28.733 28.839,28.976 Z M 28.946,31.553 L 46.694,35.232 L 41.804,28.656 L 29.064,30.778 A 4.673,4.673 0 0,1 28.946,31.553 Z" fill="rgb(254, 254, 253)"/>
<path d="M 47.54,36.451 C 42.08,35.67 30.195,33.927 27.503,33.424 C 24.763,32.913 23.2,31.724 23.2,29.317 C 23.2,28.045 23.852,27.287 24.595,26.103 C 27.09,22.125 31.645,15 31.645,15 H 26.704 L 7,38 H 48.69 L 47.55,36.466 Z" fill="rgb(254, 254, 253)"/>
</svg>
