<?xml version="1.0" encoding="UTF-8"?>
<!-- generated by Finnhub -->
<svg viewBox="0 0 55.5 55.5" xmlns="http://www.w3.org/2000/svg">
<path d="M 0,0 H 55.5 V 55.5 H 0 Z" fill="rgb(234, 9, 28)"/>
<path d="M 26.737,38.764 C 24.649,37.569 23.104,33.393 23.104,28.432 C 23.104,28.25 23.106,28.071 23.11,27.892 L 23.112,27.894 C 17.279,27.05 13.064,24.736 12.956,22.001 L 12.939,22.032 C 11.512,23.666 10.697,25.555 10.697,27.568 C 10.697,33.49 17.756,38.343 26.709,38.772 L 26.747,38.779 Z M 8,27.999 C 8,21.374 16.954,16 28,16 S 48,21.373 48,28 C 48,34.627 39.046,40 28,40 S 8,34.627 8,28 Z M 28,17.732 C 30.132,17.732 31.946,20.712 32.618,24.868 L 32.621,24.862 C 36.769,24.267 39.674,22.895 39.674,21.298 C 39.674,19.156 34.447,17.421 28,17.421 C 21.553,17.421 16.326,19.156 16.326,21.298 C 16.326,22.895 19.231,24.267 23.379,24.862 L 23.382,24.868 C 24.054,20.711 25.868,17.732 28,17.732 Z M 29.291,38.772 C 38.244,38.343 45.304,33.49 45.304,27.568 C 45.304,25.555 44.488,23.666 43.061,22.032 L 43.044,22.001 C 42.936,24.736 38.722,27.05 32.888,27.894 L 32.89,27.891 C 32.894,28.071 32.896,28.251 32.896,28.432 C 32.896,33.393 31.35,37.569 29.254,38.779 L 29.291,38.772 Z M 28,25.177 C 28.955,25.177 29.884,25.139 30.773,25.067 L 30.771,25.069 C 30.329,22.404 29.255,20.523 28,20.523 S 25.671,22.403 25.228,25.069 V 25.067 C 26.116,25.139 27.045,25.177 28,25.177 Z M 28,35.045 C 29.605,35.045 30.915,31.968 30.985,28.108 L 30.993,28.111 C 30.026,28.194 29.025,28.237 28,28.237 S 25.975,28.194 25.007,28.111 L 25.016,28.108 C 25.085,31.968 26.394,35.045 28,35.045 Z" fill="rgb(254, 254, 253)"/>
</svg>
