<?xml version="1.0" encoding="UTF-8"?>
<!-- generated by Finnhub -->
<svg viewBox="0 0 55.5 55.5" xmlns="http://www.w3.org/2000/svg">
<path d="M 0,0 H 55.5 V 55.5 H 0 Z" fill="rgb(162, 12, 49)"/>
<path d="M 29.921,19.985 L 38.218,20.003 C 39.521,20.003 40.001,20.751 40,21.5 C 40,22.25 39.516,23 38.218,23 H 34.228 C 31.95,23.01 30,24.485 30,26.612 V 38.075 C 30,39.139 29.137,40 28,40 S 26,39.14 26,38.075 V 26.612 C 26,24.414 24.061,23 21.786,23 L 17.783,23.01 C 16.482,23.01 15.998,22.254 16,21.5 C 16.002,20.75 16.481,20.004 17.783,20.004 L 26.11,20 C 25.21,16.97 22.224,14 18.7,14 C 14.493,14 11,17.553 11,21.484 V 35.973 C 11,38.296 13.011,40 15.5,40 C 17.988,40 20,38.29 20,35.966 V 26.444 C 20,25.584 20.58,25 21.5,25 S 23,25.585 23,26.444 V 38.784 C 23,41.108 25.512,43 28,43 S 32.997,41.108 32.997,38.784 L 33,26.44 C 33,25.581 33.58,25 34.5,25 S 36,25.581 36,26.44 V 36.187 C 36,38.511 38.012,40 40.5,40 S 45,38.51 45,36.187 V 21.207 C 45,17.274 41.469,14.034 37.303,14.034 C 33.797,14.034 30.846,16.988 29.931,20 Z" clip-rule="evenodd" fill="rgb(254, 254, 253)" fill-rule="evenodd"/>
</svg>
