<?xml version="1.0" encoding="UTF-8"?>
<!-- generated by Finnhub -->
<svg viewBox="0 0 55.5 55.5" xmlns="http://www.w3.org/2000/svg">
<path d="M 0,0 H 55.5 V 55.5 H 0 Z" fill="rgb(21, 112, 246)"/>
<path d="M 21.128,22.985 H 9 L 11.114,19 H 23.165 L 21.138,23 Z M 34.999,23 H 43.222 L 41.113,19 H 32.972 L 34.999,23 Z M 37.89,29 H 46.114 L 44,25 H 35.86 L 37.891,29 Z M 40.776,35 H 49 L 46.89,31 H 38.75 L 40.777,35 Z M 15.279,35 H 9.39 L 14.5,25 H 20.471 L 15.278,35 Z M 22.943,35 H 16.891 L 24.888,19 L 28.141,24.847 L 22.943,35 Z M 33.362,35 H 39.415 L 31.418,19 L 28.165,24.847 L 33.362,35 Z" fill="rgb(254, 254, 253)"/>
</svg>
