<?xml version="1.0" encoding="UTF-8"?>
<!-- generated by Finnhub -->
<svg viewBox="0 0 55.5 55.5" xmlns="http://www.w3.org/2000/svg">
<path d="M 0,0 H 55.5 V 55.5 H 0 Z" fill="rgb(236, 1, 138)"/>
<path d="M 30.86,13.985 H 30 V 37.5 C 30,39.98 30.297,40.763 30.87,41.35 C 31.342,41.807 32.306,42.003 33.4,42.003 H 35 V 44 H 21 V 42.003 H 22.499 C 23.599,42.003 24.556,41.807 25.035,41.351 C 25.608,40.763 26,39.98 26,37.5 V 14 H 24.748 C 21.926,14 20.1,14.954 19,17.5 C 18.39,18.843 18.245,20.391 18.014,22.847 L 18,23 H 16 V 12 H 40 V 23 H 38 C 37.098,16.213 35.504,14 30.87,14 Z M 22,33 V 27 H 16 V 33 H 22 Z M 40,27 H 34 V 33 H 40 V 27 Z" fill="rgb(254, 254, 253)"/>
</svg>
