<?xml version="1.0" encoding="UTF-8"?>
<!-- generated by Finnhub -->
<svg viewBox="0 0 55.5 55.5" xmlns="http://www.w3.org/2000/svg">
<path d="M 0,0 H 55.5 V 55.5 H 0 Z" fill="rgb(254, 220, 2)"/>
<path d="M 7.532,30.98 C 7.105,30.995 7,30.645 7,29.942 V 27 H 9 V 26 H 7 L 6.972,24 H 5.512 L 5,26 H 4 V 27 H 5 V 30.316 C 5,31.436 5.521,32.182 6.971,32.182 C 7.735,32.182 8.434,31.762 8.88,31.253 L 8.585,30.608 C 8.251,30.904 7.945,30.995 7.542,30.995 Z M 38.568,30.995 C 38.132,30.995 37.998,30.645 37.998,29.942 V 27 H 40 V 26 H 37.998 V 24 H 36.54 L 36,26 H 35 V 27 H 36 V 30.316 C 36,31.436 36.548,32.182 37.998,32.182 C 38.761,32.182 39.461,31.762 39.906,31.253 L 39.611,30.608 C 39.278,30.904 38.971,30.995 38.568,30.995 Z M 50.79,25.238 C 50.191,25.238 49.704,25.691 49.704,26.256 C 49.704,26.709 50.036,27.072 50.468,27.072 A 0.769,0.769 0 0,0 50.989,26.868 C 51.044,27.829 50.524,29.243 49.183,30.729 L 48.319,25.996 H 46.004 V 26.686 C 46.524,26.788 46.644,26.89 46.81,27.694 L 47.685,31.974 C 46.367,32.891 45.702,33.582 45.702,34.292 C 45.702,34.757 45.956,35.13 46.422,35.13 C 47.153,35.13 47.819,34.339 48.328,32.481 C 50.909,30.364 51.996,28.417 51.996,26.763 C 51.994,25.827 51.54,25.238 50.789,25.238 Z M 15,30.463 V 27.926 C 15,26.646 13.903,25.752 12.302,25.752 C 10.919,25.752 9.83,26.273 9.83,27.247 C 9.83,27.723 10.146,28.085 10.615,28.085 A 0.788,0.788 0 0,0 11.421,27.27 C 11.421,27.009 11.334,26.817 11.192,26.692 A 1.9,1.9 0 0,1 11.824,26.59 C 12.64,26.59 13,27.055 13,27.834 V 28.502 C 10.517,28.332 9.47,29.114 9.47,30.404 C 9.47,31.422 10.19,32.171 11.398,32.171 C 12.139,32.171 12.792,31.843 13.163,31.323 L 13.479,32 H 15.471 V 31.369 C 15.033,31.323 15.001,31.119 15.001,30.463 Z M 13,30.305 C 13,30.724 12.61,31.075 12.12,31.075 C 11.564,31.075 11.27,30.735 11.27,30.227 C 11.27,29.525 11.639,29.129 13,29.219 V 30.305 Z"/>
<path d="M 19.784,25.9 C 18.942,25.915 18.413,26.278 18,27.028 V 26 H 15.492 V 26.7 C 16.037,26.779 16,26.96 16,27.62 V 34.148 L 15.426,34.341 V 35 H 18.953 V 34.341 L 18,34.137 V 31.956 C 18.35,32.16 18.79,32.296 19.38,32.296 C 21.093,32.296 22.37,30.966 22.37,28.934 C 22.372,27.014 21.3,25.914 19.794,25.914 Z M 18.986,31.331 A 1.486,1.486 0 0,1 18,30.98 V 28.8 C 18,27.709 18.462,27.05 19.27,27.05 C 20.045,27.05 20.515,27.776 20.515,29.003 C 20.515,30.514 19.914,31.333 18.985,31.333 Z M 44.838,25.887 C 44.194,25.887 43.584,26.37 43.266,27.216 V 25.996 H 40.777 V 26.666 C 41.323,26.743 41.509,26.919 41.509,27.556 V 31.18 L 40.712,31.366 V 32.004 H 44.422 V 31.367 L 43.462,31.169 V 28.621 C 43.462,27.885 43.746,27.347 44.182,27.106 A 0.778,0.778 0 0,0 44.946,27.709 C 45.448,27.709 45.798,27.303 45.798,26.819 C 45.798,26.336 45.471,25.887 44.838,25.887 Z M 32.905,27.993 C 31.987,27.801 31.487,27.893 31.487,27.339 C 31.487,26.931 31.804,26.615 32.393,26.615 C 33.147,26.615 33.593,26.943 33.791,27.622 H 34.402 V 26.116 C 33.878,25.901 33.124,25.754 32.439,25.754 C 30.834,25.754 29.917,26.513 29.917,27.804 C 29.917,29.274 30.976,29.575 31.915,29.768 C 32.832,29.96 33.333,29.954 33.333,30.508 C 33.333,31.006 32.918,31.312 32.23,31.312 C 31.291,31.312 30.867,30.826 30.604,30 H 30.004 V 31.63 C 30.385,31.867 31.149,32.173 32.184,32.173 C 33.888,32.173 34.904,31.391 34.904,30.044 C 34.904,28.572 33.845,28.184 32.904,27.993 Z M 26.265,25.753 C 24.344,25.753 23,27.1 23,29.025 C 23,30.86 24.343,32.173 26.265,32.173 C 27.532,32.173 28.35,31.573 28.864,30.759 L 28.438,30.34 C 27.968,30.816 27.434,31.053 26.898,31.053 C 25.808,31.053 25.141,30.311 25.032,29 H 28.908 C 29.169,27.547 28.471,25.753 26.265,25.753 Z M 25.02,28 C 25.096,27.087 25.61,26.638 26.188,26.638 C 26.799,26.638 27.203,27.087 27.203,28 H 25.02 Z"/>
</svg>
