<?xml version="1.0" encoding="UTF-8"?>
<!-- generated by Finnhub -->
<svg viewBox="0 0 55.5 55.5" xmlns="http://www.w3.org/2000/svg">
<path d="M 0,0 H 55.5 V 55.5 H 0 Z" fill="rgb(244, 121, 18)"/>
<path d="M 21.448999999999998,18.248 A 0.521,0.521 0 0,0 20.696,18.169 A 0.604,0.604 0 0,0 20.606,18.979 C 20.794,19.229 21.135,19.271 21.369,19.075 C 21.603,18.875 21.645,18.514 21.459,18.263 Z M 26.911,16.087 C 26.867,15.771 26.591,15.554 26.294,15.601 C 25.999,15.647 25.794,15.938 25.837,16.254 C 25.88,16.571 26.156,16.787 26.452,16.741 C 26.748,16.694 26.954,16.404 26.911,16.087 Z M 29.549,39.259 C 29.254,39.305 29.049,39.599 29.092,39.914 C 29.135,40.23 29.412,40.447 29.706,40.4 C 30.003,40.354 30.209,40.062 30.166,39.746 A 0.547,0.547 0 0,0 29.549,39.259 Z M 34.631,36.927 A 0.603,0.603 0 0,0 34.543,37.737 A 0.52,0.52 0 0,0 35.303,37.831 A 0.602,0.602 0 0,0 35.394,37.021 A 0.522,0.522 0 0,0 34.631,36.927 Z M 18.101,35.843 C 18.324,36.485 18.989,36.805 19.584,36.569 C 20.185,36.333 20.492,35.63 20.268,34.989 C 20.048,34.353 19.382,34.027 18.784,34.264 C 18.186,34.5 17.879,35.209 18.1,35.843 Z M 20.291,37.922 C 20.464,38.514 21.049,38.837 21.601,38.652 C 22.155,38.472 22.465,37.848 22.291,37.258 C 22.12,36.67 21.53,36.342 20.978,36.525 C 20.426,36.708 20.118,37.333 20.291,37.922 Z M 23.038,39.332 C 23.153,39.813 23.61,40.1 24.06,39.978 C 24.51,39.855 24.783,39.372 24.667,38.891 C 24.553,38.411 24.094,38.123 23.644,38.245 C 23.195,38.368 22.924,38.853 23.038,39.332 Z M 26.015,40.023 C 26.09,40.425 26.456,40.683 26.832,40.603 C 27.206,40.523 27.452,40.134 27.375,39.733 C 27.301,39.334 26.935,39.075 26.558,39.153 C 26.183,39.233 25.939,39.625 26.015,40.023 Z M 17.395,30.835 C 17.967,30.533 18.2,29.795 17.916,29.187 C 17.631,28.574 16.941,28.329 16.366,28.631 C 15.798,28.931 15.559,29.666 15.844,30.278 C 16.128,30.888 16.823,31.135 17.394,30.835 Z M 17.355,27.583 C 17.859,27.283 18.038,26.601 17.755,26.065 C 17.471,25.526 16.832,25.337 16.328,25.64 C 15.822,25.94 15.644,26.619 15.928,27.157 C 16.211,27.693 16.848,27.885 17.354,27.583 Z M 18.009,24.34 C 18.402,24.077 18.519,23.523 18.269,23.104 A 0.81,0.81 0 0,0 17.109,22.828 A 0.928,0.928 0 0,0 16.849,24.062 C 17.098,24.48 17.617,24.604 18.009,24.34 Z M 19.389,21.46 A 0.769,0.769 0 0,0 19.554,20.432 A 0.665,0.665 0 0,0 18.587,20.256 A 0.767,0.767 0 0,0 18.421,21.286 C 18.643,21.618 19.076,21.696 19.388,21.46 Z M 18.182,33.964 C 18.819,33.671 19.112,32.884 18.837,32.204 C 18.561,31.524 17.823,31.214 17.187,31.506 C 16.55,31.798 16.253,32.582 16.529,33.264 C 16.804,33.944 17.546,34.256 18.182,33.964 Z M 32.25,38.485 A 0.55,0.55 0 0,0 31.986,39.19 C 32.098,39.466 32.394,39.59 32.649,39.472 A 0.552,0.552 0 0,0 32.915,38.765 A 0.496,0.496 0 0,0 32.25,38.485 Z M 38.606,25.166 C 38.036,25.466 37.801,26.204 38.084,26.812 C 38.369,27.426 39.061,27.67 39.634,27.368 C 40.204,27.069 40.44,26.334 40.155,25.722 C 39.872,25.115 39.177,24.865 38.605,25.166 Z M 38.646,28.416 C 38.143,28.717 37.961,29.398 38.245,29.936 C 38.531,30.475 39.169,30.662 39.672,30.36 C 40.177,30.059 40.356,29.382 40.072,28.844 C 39.788,28.306 39.152,28.114 38.646,28.417 Z M 37.993,31.659 C 37.601,31.924 37.483,32.476 37.731,32.893 C 37.981,33.312 38.5,33.435 38.891,33.171 C 39.283,32.907 39.401,32.356 39.152,31.936 C 38.903,31.52 38.383,31.396 37.992,31.659 Z M 36.613,34.539 A 0.769,0.769 0 0,0 36.447,35.569 A 0.668,0.668 0 0,0 37.417,35.745 A 0.768,0.768 0 0,0 37.579,34.715 A 0.667,0.667 0 0,0 36.613,34.54 Z M 24.017,16.81 A 0.493,0.493 0 0,0 23.352,16.53 A 0.55,0.55 0 0,0 23.088,17.237 C 23.198,17.509 23.496,17.633 23.752,17.517 A 0.552,0.552 0 0,0 24.017,16.811 Z M 37.9,20.157 C 37.678,19.516 37.012,19.195 36.416,19.431 C 35.816,19.666 35.509,20.371 35.732,21.01 C 35.955,21.648 36.619,21.973 37.216,21.738 C 37.815,21.503 38.122,20.794 37.9,20.157 Z M 35.71,18.079 C 35.537,17.489 34.95,17.163 34.398,17.348 C 33.847,17.53 33.535,18.154 33.709,18.744 C 33.881,19.332 34.471,19.66 35.022,19.476 C 35.574,19.293 35.882,18.666 35.71,18.079 Z M 32.964,16.669 C 32.848,16.188 32.389,15.901 31.942,16.024 C 31.492,16.146 31.219,16.63 31.335,17.112 C 31.45,17.59 31.909,17.881 32.358,17.757 C 32.806,17.635 33.078,17.147 32.964,16.669 Z M 29.985,15.979 C 29.91,15.576 29.545,15.32 29.17,15.4 C 28.793,15.48 28.549,15.866 28.626,16.269 C 28.7,16.668 29.066,16.929 29.442,16.847 C 29.818,16.767 30.061,16.377 29.985,15.98 Z M 38.815,24.496 C 38.177,24.789 37.437,24.475 37.161,23.796 C 36.886,23.114 37.181,22.331 37.82,22.037 C 38.456,21.746 39.195,22.055 39.471,22.737 C 39.747,23.414 39.451,24.203 38.815,24.497 Z M 24.948,13.017 C 24.848,12.621 24.468,12.39 24.096,12.496 C 23.726,12.602 23.505,13.004 23.605,13.399 C 23.705,13.796 24.087,14.028 24.455,13.923 C 24.827,13.817 25.047,13.413 24.948,13.017 Z M 32.397,13.401 C 32.497,13.005 32.274,12.601 31.903,12.496 C 31.534,12.391 31.153,12.621 31.053,13.018 C 30.954,13.413 31.175,13.818 31.545,13.923 C 31.915,14.028 32.298,13.796 32.397,13.401 Z M 24.455,42.076 C 24.087,41.972 23.705,42.206 23.605,42.6 C 23.506,42.995 23.727,43.398 24.095,43.503 C 24.468,43.609 24.849,43.377 24.948,42.981 C 25.048,42.588 24.827,42.182 24.455,42.076 Z M 31.545,42.076 C 31.175,42.182 30.955,42.588 31.053,42.982 C 31.153,43.377 31.535,43.609 31.903,43.503 C 32.275,43.398 32.496,42.995 32.396,42.599 C 32.298,42.205 31.915,41.972 31.544,42.076 Z M 12.618,31.881 C 12.575,32.755 13.205,33.49 14.018,33.535 C 14.837,33.58 15.532,32.92 15.576,32.045 C 15.618,31.178 14.991,30.436 14.176,30.391 C 13.36,30.346 12.661,31.013 12.618,31.881 Z M 14.203,35.507 C 14.126,36.295 14.659,36.993 15.398,37.077 C 16.134,37.158 16.795,36.594 16.873,35.805 C 16.951,35.021 16.414,34.317 15.678,34.235 C 14.94,34.153 14.281,34.723 14.203,35.507 Z M 16.763,38.648 C 16.669,39.276 17.07,39.86 17.656,39.959 C 18.244,40.058 18.796,39.635 18.889,39.007 C 18.982,38.382 18.581,37.796 17.993,37.697 C 17.407,37.598 16.855,38.024 16.763,38.648 Z M 19.934,41.067 C 19.831,41.58 20.139,42.082 20.618,42.19 C 21.098,42.299 21.57,41.974 21.673,41.46 C 21.774,40.951 21.468,40.447 20.988,40.339 C 20.508,40.23 20.035,40.557 19.934,41.067 Z M 14.174,25.608 C 14.991,25.563 15.617,24.821 15.576,23.952 C 15.532,23.078 14.836,22.417 14.017,22.463 C 13.205,22.508 12.574,23.243 12.618,24.117 C 12.661,24.986 13.36,25.653 14.175,25.608 Z M 15.678,21.764 C 16.414,21.681 16.951,20.978 16.873,20.194 C 16.795,19.406 16.133,18.839 15.398,18.922 C 14.658,19.004 14.125,19.705 14.203,20.492 C 14.28,21.276 14.939,21.846 15.678,21.764 Z M 17.993,18.304 C 18.581,18.205 18.982,17.617 18.889,16.991 C 18.796,16.364 18.244,15.941 17.656,16.04 C 17.069,16.139 16.668,16.722 16.762,17.35 C 16.854,17.975 17.406,18.404 17.993,18.304 Z M 20.988,15.66 C 21.468,15.551 21.774,15.05 21.672,14.538 C 21.57,14.025 21.099,13.703 20.618,13.812 C 20.138,13.92 19.831,14.419 19.933,14.932 C 20.035,15.442 20.508,15.769 20.988,15.66 Z M 13.61,29.714 C 14.497,29.714 15.218,28.946 15.218,27.998 C 15.218,27.048 14.498,26.286 13.61,26.286 C 12.723,26.286 11.999,27.047 11.999,28 C 11.999,28.946 12.723,29.714 13.61,29.714 Z M 28,42.624 C 27.644,42.624 27.354,42.932 27.354,43.313 C 27.354,43.694 27.644,44 28,44 C 28.358,44 28.648,43.694 28.648,43.312 C 28.648,42.932 28.358,42.624 28,42.624 Z M 41.823,30.391 C 41.01,30.436 40.383,31.178 40.425,32.045 C 40.468,32.92 41.165,33.58 41.981,33.535 C 42.795,33.49 43.424,32.755 43.381,31.881 C 43.338,31.013 42.641,30.346 41.823,30.391 Z M 40.321,34.236 C 39.586,34.317 39.048,35.021 39.125,35.806 C 39.204,36.594 39.866,37.158 40.601,37.076 C 41.339,36.993 41.873,36.296 41.796,35.506 C 41.718,34.722 41.058,34.153 40.321,34.236 Z M 38.008,37.696 C 37.42,37.796 37.018,38.382 37.112,39.007 C 37.205,39.635 37.757,40.057 38.344,39.959 C 38.93,39.859 39.332,39.276 39.239,38.648 C 39.145,38.023 38.593,37.598 38.008,37.696 Z M 35.012,40.339 C 34.532,40.447 34.225,40.951 34.327,41.46 C 34.429,41.974 34.901,42.299 35.382,42.19 C 35.861,42.082 36.168,41.58 36.066,41.066 C 35.964,40.557 35.492,40.23 35.012,40.339 Z M 28.648,12.687 C 28.648,12.305 28.358,12 28,12 C 27.644,12 27.354,12.305 27.354,12.687 C 27.354,13.068 27.644,13.375 28,13.375 C 28.358,13.375 28.648,13.068 28.648,12.687 Z M 43.381,24.117 C 43.425,23.244 42.795,22.508 41.981,22.463 C 41.165,22.417 40.468,23.078 40.425,23.952 C 40.382,24.822 41.011,25.562 41.823,25.608 C 42.64,25.653 43.338,24.986 43.381,24.118 Z M 41.796,20.492 C 41.873,19.705 41.339,19.004 40.601,18.922 C 39.867,18.84 39.204,19.406 39.125,20.194 C 39.048,20.978 39.586,21.682 40.321,21.764 C 41.059,21.846 41.718,21.276 41.796,20.492 Z M 39.239,17.352 C 39.332,16.722 38.929,16.14 38.345,16.04 C 37.757,15.942 37.205,16.364 37.112,16.993 C 37.019,17.618 37.42,18.206 38.008,18.305 C 38.593,18.404 39.146,17.976 39.238,17.351 Z M 36.066,14.932 C 36.169,14.419 35.861,13.92 35.382,13.812 C 34.9,13.703 34.429,14.025 34.327,14.538 C 34.225,15.05 34.531,15.551 35.012,15.66 C 35.492,15.769 35.964,15.443 36.066,14.932 Z M 42.388,29.714 C 41.499,29.714 40.779,28.946 40.779,27.998 C 40.779,27.048 41.499,26.286 42.39,26.286 C 43.278,26.286 44,27.047 44,28 C 44,28.946 43.278,29.714 42.388,29.714 Z M 31.643,31.936 C 31.912,31.788 32.011,31.424 31.865,31.14 C 31.717,30.854 31.383,30.744 31.115,30.901 A 0.61,0.61 0 0,0 30.892,31.701 C 31.034,31.987 31.372,32.094 31.642,31.936 Z M 32.436,30.604 A 0.545,0.545 0 0,0 32.642,29.892 A 0.48,0.48 0 0,0 31.972,29.68 C 31.732,29.815 31.644,30.14 31.772,30.394 A 0.48,0.48 0 0,0 32.436,30.604 Z M 32.831,29.059 C 33.041,28.937 33.116,28.659 33.001,28.437 A 0.414,0.414 0 0,0 32.421,28.252 A 0.481,0.481 0 0,0 32.244,28.876 C 32.354,29.096 32.624,29.176 32.831,29.059 Z M 32.762,27.454 A 0.42,0.42 0 0,0 32.918,26.916 A 0.358,0.358 0 0,0 32.418,26.757 A 0.403,0.403 0 0,0 32.267,27.292 A 0.36,0.36 0 0,0 32.762,27.454 Z M 29.329,32.598 A 0.54,0.54 0 0,0 28.576,32.359 C 28.306,32.511 28.212,32.869 28.358,33.159 C 28.5,33.443 28.834,33.556 29.104,33.395 C 29.377,33.244 29.473,32.884 29.329,32.598 Z M 27.818,32.663 A 0.485,0.485 0 0,0 27.148,32.451 A 0.544,0.544 0 0,0 26.948,33.161 C 27.079,33.418 27.378,33.512 27.617,33.375 C 27.86,33.242 27.948,32.92 27.817,32.663 Z M 26.365,32.249 C 26.249,32.029 25.989,31.943 25.782,32.066 A 0.467,0.467 0 0,0 25.609,32.686 A 0.414,0.414 0 0,0 26.189,32.875 A 0.482,0.482 0 0,0 26.365,32.249 Z M 25.11,31.4 A 0.36,0.36 0 0,0 24.611,31.242 A 0.405,0.405 0 0,0 24.461,31.772 A 0.35,0.35 0 0,0 24.96,31.929 C 25.138,31.831 25.206,31.592 25.11,31.4 Z M 30.772,32.048 C 30.606,31.721 30.226,31.595 29.918,31.776 A 0.684,0.684 0 0,0 29.666,32.68 A 0.616,0.616 0 0,0 30.519,32.951 A 0.694,0.694 0 0,0 30.772,32.048 Z M 31.837,25.796 C 31.917,25.955 32.104,26.012 32.25,25.927 A 0.332,0.332 0 0,0 32.375,25.487 A 0.303,0.303 0 0,0 31.957,25.347 A 0.35,0.35 0 0,0 31.837,25.796 Z M 26.677,23.393 A 0.54,0.54 0 0,0 27.43,23.636 A 0.616,0.616 0 0,0 27.654,22.834 A 0.538,0.538 0 0,0 26.901,22.596 C 26.631,22.75 26.537,23.109 26.678,23.393 Z M 28.191,23.33 A 0.471,0.471 0 0,0 28.854,23.54 A 0.54,0.54 0 0,0 29.056,22.83 A 0.473,0.473 0 0,0 28.39,22.62 C 28.149,22.756 28.065,23.073 28.191,23.33 Z M 29.641,23.743 C 29.753,23.965 30.021,24.047 30.223,23.926 C 30.437,23.804 30.513,23.527 30.399,23.305 A 0.418,0.418 0 0,0 29.819,23.116 A 0.482,0.482 0 0,0 29.641,23.743 Z M 30.894,24.592 C 30.991,24.782 31.214,24.852 31.399,24.755 A 0.415,0.415 0 0,0 31.549,24.218 C 31.449,24.027 31.227,23.953 31.049,24.058 A 0.407,0.407 0 0,0 30.894,24.592 Z M 23.755,30.065 C 23.604,30.149 23.55,30.348 23.631,30.512 A 0.304,0.304 0 0,0 24.051,30.645 A 0.344,0.344 0 0,0 24.172,30.197 C 24.09,30.041 23.903,29.979 23.755,30.065 Z M 24.367,24.052 A 0.608,0.608 0 0,0 24.141,24.854 C 24.287,25.138 24.619,25.246 24.888,25.092 A 0.605,0.605 0 0,0 25.117,24.294 C 24.974,24.007 24.635,23.894 24.367,24.052 Z M 23.568,25.389 A 0.546,0.546 0 0,0 23.365,26.099 C 23.497,26.352 23.795,26.449 24.033,26.311 A 0.542,0.542 0 0,0 24.236,25.6 A 0.481,0.481 0 0,0 23.568,25.39 Z M 23.176,26.936 A 0.473,0.473 0 0,0 23.004,27.554 A 0.42,0.42 0 0,0 23.589,27.741 A 0.478,0.478 0 0,0 23.764,27.119 A 0.417,0.417 0 0,0 23.176,26.936 Z M 23.239,28.543 A 0.411,0.411 0 0,0 23.091,29.077 C 23.19,29.271 23.414,29.337 23.591,29.232 A 0.398,0.398 0 0,0 23.741,28.702 A 0.361,0.361 0 0,0 23.239,28.543 Z M 26.341,23.316 C 26.504,23.638 26.394,24.044 26.089,24.22 C 25.78,24.396 25.402,24.27 25.236,23.947 A 0.687,0.687 0 0,1 25.488,23.043 A 0.61,0.61 0 0,1 26.341,23.316 Z M 27.988,35.52 C 28.362,35.64 28.754,35.412 28.86,35.017 C 28.967,34.619 28.759,34.203 28.385,34.087 C 28.009,33.969 27.619,34.197 27.509,34.596 C 27.4,34.988 27.615,35.403 27.988,35.52 Z M 29.974,35.049 C 30.309,35.153 30.654,34.952 30.752,34.597 C 30.849,34.247 30.662,33.877 30.328,33.773 C 29.996,33.667 29.646,33.871 29.55,34.223 C 29.453,34.577 29.645,34.946 29.974,35.049 Z M 31.77,33.892 C 32.03,33.974 32.303,33.814 32.379,33.54 C 32.459,33.259 32.308,32.967 32.048,32.887 C 31.786,32.803 31.512,32.965 31.433,33.242 A 0.535,0.535 0 0,0 31.77,33.892 Z M 33.168,32.25 A 0.398,0.398 0 0,0 33.667,31.963 A 0.434,0.434 0 0,0 33.397,31.433 A 0.4,0.4 0 0,0 32.901,31.723 C 32.84,31.948 32.961,32.186 33.168,32.25 Z M 25.068,33.83 C 25.176,33.436 24.964,33.016 24.588,32.9 C 24.215,32.784 23.828,33.01 23.718,33.41 C 23.609,33.804 23.818,34.22 24.194,34.337 C 24.568,34.452 24.958,34.225 25.068,33.83 Z M 23.541,32.345 C 23.637,31.993 23.445,31.62 23.113,31.515 C 22.781,31.412 22.438,31.616 22.338,31.969 C 22.24,32.321 22.428,32.689 22.761,32.795 C 23.096,32.9 23.441,32.698 23.541,32.345 Z M 22.453,30.433 C 22.53,30.156 22.379,29.865 22.121,29.788 A 0.48,0.48 0 0,0 21.51,30.14 C 21.436,30.417 21.578,30.71 21.842,30.791 C 22.102,30.875 22.376,30.713 22.453,30.433 Z M 21.991,28.313 A 0.43,0.43 0 0,0 21.722,27.785 C 21.512,27.719 21.29,27.851 21.225,28.075 A 0.426,0.426 0 0,0 21.497,28.598 C 21.707,28.666 21.927,28.54 21.991,28.313 Z M 26.977,34.774 C 27.102,34.316 26.86,33.837 26.427,33.704 C 25.998,33.571 25.549,33.83 25.425,34.286 C 25.301,34.746 25.541,35.221 25.974,35.356 C 26.402,35.488 26.854,35.226 26.977,34.774 Z M 33.852,29.83 C 33.809,29.997 33.897,30.175 34.052,30.223 C 34.213,30.273 34.377,30.177 34.422,30.007 A 0.318,0.318 0 0,0 34.222,29.614 A 0.298,0.298 0 0,0 33.852,29.83 Z M 30.939,22.173 C 30.828,22.57 31.043,22.986 31.416,23.103 C 31.79,23.22 32.18,22.988 32.289,22.593 C 32.401,22.197 32.188,21.78 31.815,21.664 C 31.439,21.547 31.05,21.778 30.939,22.174 Z M 32.467,23.656 C 32.369,24.014 32.56,24.38 32.89,24.484 C 33.222,24.588 33.568,24.384 33.667,24.031 C 33.767,23.681 33.577,23.311 33.243,23.208 C 32.913,23.104 32.568,23.307 32.467,23.656 Z M 33.553,25.566 A 0.53,0.53 0 0,0 33.887,26.219 C 34.15,26.3 34.422,26.141 34.499,25.863 C 34.576,25.585 34.427,25.294 34.166,25.214 A 0.488,0.488 0 0,0 33.553,25.565 Z M 34.014,27.688 A 0.426,0.426 0 0,0 34.286,28.214 C 34.497,28.281 34.718,28.151 34.78,27.925 A 0.43,0.43 0 0,0 34.51,27.4 A 0.397,0.397 0 0,0 34.014,27.688 Z M 21.948,25.78 A 0.291,0.291 0 0,0 21.582,25.993 C 21.535,26.162 21.622,26.34 21.782,26.389 C 21.941,26.439 22.105,26.34 22.152,26.172 A 0.319,0.319 0 0,0 21.948,25.78 Z M 28.019,20.48 C 27.642,20.36 27.257,20.59 27.145,20.986 C 27.035,21.383 27.245,21.797 27.62,21.916 C 27.993,22.033 28.383,21.804 28.494,21.41 C 28.606,21.013 28.392,20.595 28.019,20.48 Z M 26.031,20.953 C 25.697,20.851 25.351,21.053 25.253,21.403 C 25.156,21.756 25.347,22.125 25.679,22.229 C 26.009,22.333 26.359,22.134 26.455,21.779 C 26.549,21.428 26.359,21.057 26.031,20.953 Z M 24.235,22.109 C 23.972,22.027 23.702,22.189 23.625,22.465 A 0.528,0.528 0 0,0 23.959,23.115 C 24.219,23.197 24.493,23.036 24.571,22.76 A 0.533,0.533 0 0,0 24.235,22.11 Z M 22.835,23.749 A 0.402,0.402 0 0,0 22.338,24.039 A 0.426,0.426 0 0,0 22.609,24.563 C 22.82,24.628 23.04,24.501 23.103,24.277 A 0.43,0.43 0 0,0 22.835,23.748 Z M 30.578,21.719 C 30.454,22.172 30.006,22.432 29.577,22.297 C 29.143,22.161 28.905,21.687 29.03,21.228 C 29.153,20.774 29.602,20.511 30.033,20.644 C 30.463,20.779 30.709,21.259 30.578,21.719 Z M 23.744,36.902 A 0.863,0.863 0 0,0 25.018,36.862 C 25.358,36.475 25.345,35.868 24.98,35.504 A 0.864,0.864 0 0,0 23.704,35.547 A 1,1 0 0,0 23.744,36.902 Z M 26.37,37.614 A 0.765,0.765 0 0,0 27.504,37.582 A 0.891,0.891 0 0,0 27.472,36.375 A 0.772,0.772 0 0,0 26.335,36.41 A 0.89,0.89 0 0,0 26.37,37.614 Z M 29.154,37.401 C 29.408,37.657 29.808,37.64 30.047,37.371 A 0.7,0.7 0 0,0 30.021,36.423 A 0.607,0.607 0 0,0 29.126,36.453 A 0.704,0.704 0 0,0 29.153,37.401 Z M 31.746,36.353 A 0.49,0.49 0 0,0 32.471,36.329 A 0.566,0.566 0 0,0 32.448,35.561 A 0.489,0.489 0 0,0 31.726,35.583 A 0.57,0.57 0 0,0 31.746,36.353 Z M 21.181,33.018 A 1.006,1.006 0 0,0 21.143,31.66 A 0.861,0.861 0 0,0 19.869,31.701 C 19.527,32.084 19.539,32.691 19.904,33.059 A 0.87,0.87 0 0,0 21.181,33.018 Z M 20.211,30.272 A 0.896,0.896 0 0,0 20.177,29.062 A 0.771,0.771 0 0,0 19.041,29.099 A 0.897,0.897 0 0,0 19.076,30.307 A 0.768,0.768 0 0,0 20.21,30.272 Z M 20.008,27.312 A 0.707,0.707 0 0,0 19.981,26.36 A 0.603,0.603 0 0,0 19.087,26.39 A 0.704,0.704 0 0,0 19.113,27.338 C 19.366,27.594 19.768,27.578 20.008,27.311 Z M 20.666,24.498 A 0.571,0.571 0 0,0 20.643,23.728 A 0.49,0.49 0 0,0 19.921,23.749 A 0.565,0.565 0 0,0 19.944,24.519 A 0.492,0.492 0 0,0 20.666,24.498 Z M 22.913,35.36 A 1.157,1.157 0 0,0 22.87,33.797 A 0.995,0.995 0 0,0 21.402,33.844 A 1.157,1.157 0 0,0 21.447,35.406 A 0.992,0.992 0 0,0 22.913,35.36 Z M 33.929,33.941 A 0.426,0.426 0 0,0 33.946,34.516 A 0.364,0.364 0 0,0 34.484,34.494 A 0.416,0.416 0 0,0 34.467,33.924 A 0.362,0.362 0 0,0 33.929,33.941 Z M 34.821,22.982 C 34.479,23.368 34.495,23.976 34.861,24.34 A 0.864,0.864 0 0,0 36.135,24.299 A 1,1 0 0,0 36.095,22.94 A 0.865,0.865 0 0,0 34.821,22.982 Z M 35.792,25.727 A 0.89,0.89 0 0,0 35.827,26.933 A 0.766,0.766 0 0,0 36.961,26.897 A 0.89,0.89 0 0,0 36.927,25.691 A 0.769,0.769 0 0,0 35.792,25.727 Z M 35.994,28.689 A 0.705,0.705 0 0,0 36.023,29.637 A 0.603,0.603 0 0,0 36.916,29.609 A 0.699,0.699 0 0,0 36.888,28.659 A 0.609,0.609 0 0,0 35.994,28.689 Z M 35.338,31.501 A 0.572,0.572 0 0,0 35.358,32.273 A 0.492,0.492 0 0,0 36.085,32.247 A 0.573,0.573 0 0,0 36.063,31.477 A 0.493,0.493 0 0,0 35.338,31.501 Z M 22.058,21.484 A 0.367,0.367 0 0,0 21.519,21.501 A 0.423,0.423 0 0,0 21.533,22.075 A 0.363,0.363 0 0,0 22.072,22.059 A 0.425,0.425 0 0,0 22.058,21.484 Z M 32.263,19.097 A 0.863,0.863 0 0,0 30.986,19.136 C 30.645,19.522 30.66,20.127 31.022,20.494 A 0.867,0.867 0 0,0 32.299,20.454 C 32.64,20.069 32.625,19.46 32.263,19.097 Z M 29.631,18.38 A 0.772,0.772 0 0,0 28.497,18.415 A 0.894,0.894 0 0,0 28.533,19.623 A 0.767,0.767 0 0,0 29.666,19.588 A 0.896,0.896 0 0,0 29.631,18.38 Z M 26.85,18.596 A 0.607,0.607 0 0,0 25.957,18.626 A 0.704,0.704 0 0,0 25.984,19.578 C 26.236,19.83 26.638,19.817 26.877,19.547 A 0.706,0.706 0 0,0 26.85,18.597 Z M 24.256,19.646 A 0.493,0.493 0 0,0 23.532,19.668 A 0.57,0.57 0 0,0 23.552,20.438 C 23.76,20.643 24.083,20.633 24.277,20.414 A 0.57,0.57 0 0,0 24.257,19.646 Z M 34.6,22.156 A 0.995,0.995 0 0,1 33.133,22.199 A 1.151,1.151 0 0,1 33.092,20.639 A 0.993,0.993 0 0,1 34.558,20.59 C 34.974,21.01 34.994,21.708 34.6,22.156 Z" fill="rgb(254, 254, 253)"/>
</svg>
