<?xml version="1.0" encoding="UTF-8"?>
<!-- generated by Finnhub -->
<svg viewBox="0 0 55.5 55.5" xmlns="http://www.w3.org/2000/svg">
<path d="M 0,0 H 55.5 V 55.5 H 0 Z" fill="rgb(51, 223, 159)"/>
<path d="M 43.803000000000004,22.974999999999998 L 47,19.666 H 39.931 C 36.393,17.35 32.12,16 27.497,16 C 22.881,16 18.619,17.352 15.087,19.666 H 8 L 11.188,22.99 C 9.234,24.699 8.008,27.16 8.008,29.892 C 8.008,35.05 12.371,39.231 17.752,39.231 A 9.947,9.947 0 0,0 24.375,36.741 L 27.497,40 L 30.62,36.744 C 32.358,38.289 34.684,39.231 37.24,39.231 C 42.62,39.231 46.988,35.05 46.988,29.892 C 46.991,27.157 45.766,24.696 43.813,22.99 Z M 17.753,36.212 C 14.111,36.212 11.16,33.383 11.16,29.892 C 11.16,26.402 14.111,23.572 17.753,23.572 S 24.347,26.402 24.347,29.892 C 24.347,33.383 21.396,36.212 17.753,36.212 Z M 27.5,29.71 C 27.5,25.551 24.345,21.981 20.18,20.457 A 19.63,19.63 0 0,1 27.497,19.053 C 30.091,19.053 32.565,19.554 34.817,20.457 C 30.655,21.984 27.5,25.551 27.5,29.71 Z M 37.243,36.213 C 33.601,36.213 30.649,33.384 30.649,29.893 C 30.649,26.403 33.601,23.573 37.243,23.573 C 40.885,23.573 43.836,26.403 43.836,29.893 C 43.836,33.384 40.885,36.213 37.243,36.213 Z M 37.243,26.578 C 35.333,26.578 33.786,28.06 33.786,29.891 C 33.786,31.721 35.333,33.203 37.243,33.203 S 40.699,31.721 40.699,29.891 C 40.699,28.063 39.152,26.578 37.243,26.578 Z M 21.21,29.892 C 21.21,31.722 19.664,33.205 17.754,33.205 S 14.298,31.723 14.298,29.892 C 14.298,28.062 15.845,26.58 17.754,26.58 C 19.664,26.577 21.21,28.062 21.21,29.893 Z"/>
</svg>
