<?xml version="1.0" encoding="UTF-8"?>
<!-- generated by Finnhub -->
<svg viewBox="0 0 55.5 55.5" xmlns="http://www.w3.org/2000/svg">
<path d="M 0,0 H 55.5 V 55.5 H 0 Z" fill="rgb(1, 88, 127)"/>
<path d="M 19.631999999999998,41.985 H 43.92 C 43.939,41.327 43.89,41.203 43.777,40.54 C 43.129,37.82 40.628,36.053 38.387,35.032 C 38.765,35.419 39.107,35.839 39.408,36.288 C 40.01,37.308 40.638,39.192 39.98,40.539 C 39.25,37.018 36.974,34.159 33.804,32.256 C 34.626,33.996 35.586,36.538 34.019,38.263 C 33.979,37.942 33.942,37.617 33.904,37.291 C 33.604,34.686 33.294,31.977 31.62,29.908 C 32.009,32.22 32.083,34.574 31.84,36.906 A 6.3,6.3 0 0,1 30.885,39.799 A 1.53,1.53 0 0,0 30.528,38.85 C 30.269,39.074 30.02,39.34 29.77,39.604 C 29.206,40.204 28.641,40.804 27.976,40.927 C 31.977,35.527 31.038,27.163 28.486,21.39 L 28.951,21.11 C 29.114,21.038 29.466,20.992 29.548,21.11 C 29.706,22.528 29.92,24.12 31.452,24.764 A 2.848,2.848 0 0,0 34.514,24.029 A 2.812,2.812 0 0,0 35.08,21.916 C 34.973,21.503 34.805,21.064 34.208,21.11 C 33.922,21.288 33.922,21.6 33.922,21.916 A 0.98,0.98 0 0,1 32.901,22.722 A 0.7,0.7 0 0,1 32.314,22.13 C 32.226,21.353 32.263,20.508 32.3,19.654 C 32.383,17.733 32.469,15.766 31.14,14.424 L 30.992,14.327 A 2.9,2.9 0 0,0 28.997,13.939 C 29.158,14.021 29.32,14.091 29.479,14.159 C 30.01,14.387 30.494,14.596 30.742,15.174 C 30.719,15.192 30.699,15.216 30.68,15.24 C 30.64,15.289 30.6,15.337 30.528,15.337 A 9.494,9.494 0 0,1 29.7,14.834 C 29.195,14.504 28.692,14.174 28.231,14.102 A 1.9,1.9 0 0,0 27.465,14.296 S 29.267,15.296 29.517,15.47 C 29.767,15.643 29.931,15.837 29.823,16.154 C 29.34,15.961 28.273,15.361 27.671,15.024 C 27.479,14.915 27.334,14.834 27.271,14.801 A 1.02,1.02 0 0,0 26.925,14.684 A 1.494,1.494 0 0,0 26.251,15.108 C 26.557,15.348 27.011,15.588 27.464,15.828 C 28.364,16.303 29.253,16.772 28.941,17.231 A 2.921,2.921 0 0,1 28.522,17.052 A 80.09,80.09 0 0,1 26.639,15.97 A 1.596,1.596 0 0,0 25.822,15.69 C 25.74,15.692 25.669,15.751 25.594,15.813 C 25.51,15.883 25.422,15.955 25.312,15.955 A 0.648,0.648 0 0,1 24.915,15.853 C 24.827,15.807 24.749,15.765 24.653,15.781 C 24.192,15.859 23.769,16.188 23.349,16.515 C 22.942,16.831 22.538,17.145 22.102,17.231 C 21.647,16.776 23.326,15.7 24.199,15.189 A 2.929,2.929 0 0,0 23.515,14.755 A 7.69,7.69 0 0,0 21.841,15.7 A 7.896,7.896 0 0,1 21.02,16.281 C 20.77,16.384 20.713,16.287 20.713,16.011 C 20.748,15.947 20.788,15.886 20.831,15.827 C 21.084,15.458 21.464,15.218 21.848,14.975 C 22.16,14.778 22.476,14.578 22.729,14.306 A 1.484,1.484 0 0,0 22.061,14.076 A 2.712,2.712 0 0,0 21.295,14.454 A 66.01,66.01 0 0,1 19.708,15.506 C 19.555,15.603 19.412,15.659 19.264,15.439 C 19.56,14.946 20.067,14.574 20.546,14.224 C 20.761,14.066 20.971,13.914 21.152,13.755 A 2.604,2.604 0 0,0 20.387,13.653 C 19.807,13.816 19.069,14.39 18.527,14.813 C 18.237,15.036 18.005,15.218 17.881,15.271 C 17.528,14.879 18.236,14.336 18.814,13.892 A 7.11,7.11 0 0,0 19.269,13.525 A 2.233,2.233 0 0,0 18.555,13.454 C 18.059,13.621 17.585,14.004 17.115,14.384 C 16.781,14.654 16.449,14.922 16.11,15.113 C 15.822,14.754 16.249,14.442 16.597,14.186 C 16.7,14.111 16.797,14.04 16.865,13.975 A 4.2,4.2 0 0,0 15.268,14.643 C 12.685,16.286 11.695,19.318 12.205,22.329 A 4.14,4.14 0 0,0 14.966,25.698 A 2.894,2.894 0 0,0 18.029,24.748 A 3.012,3.012 0 0,0 18.386,22.197 A 3.656,3.656 0 0,1 18.282,22.047 C 18.105,21.785 17.914,21.502 17.513,21.605 C 17.129,21.64 17.143,22.035 17.153,22.349 A 4.1,4.1 0 0,1 17.156,22.488 C 16.946,23.151 16.656,23.243 16.212,23.151 C 15.472,22.927 15.467,22.115 15.553,21.395 A 3.327,3.327 0 0,1 17.814,18.976 C 18.314,20.232 19.381,20.742 20.714,21.252 A 2.292,2.292 0 0,1 20.714,23.008 C 18.705,25.181 18.516,26.918 18.304,28.868 C 18.248,29.386 18.189,29.919 18.095,30.48 C 17.516,32.554 18.23,34.626 18.801,36.283 C 18.945,36.701 19.079,37.093 19.182,37.452 A 11.355,11.355 0 0,1 17.585,35.982 A 6.122,6.122 0 0,0 17.585,38.779 C 17.682,39.462 18.099,39.937 18.529,40.429 C 18.796,40.734 19.069,41.046 19.274,41.417 C 19.48,41.763 19.605,41.6 19.641,42 Z M 27.512,23.125 C 27.369,23.095 27.307,23.555 27.465,23.881 L 27.485,23.861 C 27.629,24.177 27.858,24.238 27.996,24.253 C 28.134,24.269 28.196,24.376 28.083,24.443 C 27.829,24.562 27.5,24.503 27.134,24.44 C 27.014,24.419 26.892,24.397 26.766,24.381 A 3.247,3.247 0 0,0 25.164,24.524 C 25.256,25.106 25.97,25.474 26.48,25.616 A 1.588,1.588 0 0,1 25.02,26.126 A 2,2 0 0,1 23.71,24.871 A 2.255,2.255 0 0,1 23.776,22.972 C 23.831,22.902 23.893,22.832 23.955,22.762 C 24.282,22.387 24.633,21.986 24.363,21.442 A 3.21,3.21 0 0,0 23.745,20.482 C 22.893,20.671 21.887,20.712 21.601,20.079 A 0.597,0.597 0 0,1 22.025,19.155 C 22.339,19.078 22.623,19.135 22.882,19.186 C 23.382,19.286 23.786,19.366 24.122,18.42 C 24.279,18.18 24.548,18.107 24.797,18.04 C 25.205,17.93 25.56,17.834 25.281,17.042 C 25.241,16.842 25.311,16.628 25.491,16.592 C 25.931,16.603 26.009,16.951 26.084,17.287 C 26.118,17.437 26.151,17.585 26.215,17.7 C 26.941,17.679 27.167,18.188 27.386,18.683 C 27.63,19.232 27.866,19.763 28.767,19.533 C 29.094,19.66 29.017,20.053 28.93,20.267 C 28.649,20.676 28.324,20.631 27.877,20.57 L 27.817,20.561 L 27.757,20.553 C 27.471,20.503 27.312,20.103 27.137,19.66 C 26.849,18.932 26.515,18.09 25.495,18.512 C 25.04,18.782 25.181,19.207 25.317,19.619 C 25.357,19.737 25.395,19.854 25.419,19.966 C 25.455,20.133 25.517,20.268 25.579,20.402 C 25.703,20.669 25.824,20.932 25.725,21.432 C 25.56,21.73 25.337,21.965 25.125,22.189 C 24.775,22.559 24.458,22.896 24.48,23.427 C 24.529,23.981 24.919,24.015 25.276,24.045 L 25.424,24.059 C 25.517,24.086 25.921,24.073 26.166,24.064 L 26.338,24.059 C 26.623,24.049 26.868,23.988 26.955,23.738 A 0.68,0.68 0 0,0 26.603,23.054 C 26.435,22.996 26.396,23.016 26.328,23.051 A 0.598,0.598 0 0,1 26.19,23.105 C 25.99,23.156 25.842,23.187 25.705,22.937 A 0.512,0.512 0 0,1 26.154,22.247 C 26.352,22.262 26.571,22.254 26.789,22.245 C 27.419,22.22 28.048,22.195 28.195,22.722 C 28.195,23.074 28.052,23.192 27.512,23.125 Z M 19.872,19.532 C 19.732,19.39 19.575,19.232 19.382,19.185 V 19.191 C 19.075,19.456 18.702,19.017 18.616,18.548 L 18.606,18.471 C 18.568,18.191 18.543,18.001 18.759,17.884 A 1.429,1.429 0 0,1 20.147,18.904 C 20.264,19.18 20.427,19.67 20.264,19.777 C 20.137,19.797 20.014,19.673 19.873,19.532 Z" fill="rgb(254, 254, 253)"/>
</svg>
