<?xml version="1.0" encoding="UTF-8"?>
<!-- generated by Finnhub -->
<svg viewBox="0 0 55.5 55.5" xmlns="http://www.w3.org/2000/svg">
<path d="M 0,0 H 55.5 V 55.5 H 0 Z" fill="rgb(207, 31, 37)"/>
<path d="M 38.768,39.668 L 20.273,45.918 L 11,16 H 45 L 38.778,39.683 Z M 21,20 H 20.413 V 30.529 L 21,30.941 V 33 H 17 V 30.94 L 17.565,30.529 V 20 H 17 V 21 H 15 V 17 H 23 V 21 H 21 V 20 Z M 24.413,36 H 23 V 31 H 25 V 32.087 C 24.916,33.837 29.03,34.138 25.783,28.527 L 25.558,28.14 C 24.518,26.35 24.069,25.576 23.675,24.485 C 22.557,21.348 24.876,19.961 26.395,20.001 C 27.395,20.018 27.891,20.456 28.011,20.561 A 0.137,0.137 0 0,0 28.039,20.584 L 28.461,20 H 30 V 24.425 H 28 V 23.762 C 28,21.992 25.867,22.032 26.1,23.359 C 26.161,23.701 26.65,24.539 27.276,25.614 C 27.72,26.376 28.233,27.257 28.714,28.166 C 31.814,34.038 27.344,37.819 24.834,35.104 L 24.413,36 Z M 36.089,23.577 C 35.969,23.003 31.231,21.063 31.012,30.071 C 30.832,37.851 32.744,39 34.834,39 C 36.228,39 38,37.634 38,34.941 V 33 H 35.89 V 35.199 S 35.89,36.327 35.033,36.327 C 33.739,36.327 33.64,34.625 33.56,30.328 C 33.46,24.646 35.73,24.607 35.89,26.666 V 27 H 37.92 V 23 H 36.487 L 36.089,23.577 Z" fill="rgb(254, 254, 253)" fill-rule="evenodd"/>
</svg>
