<?xml version="1.0" encoding="UTF-8"?>
<!-- generated by Finnhub -->
<svg viewBox="0 0 55.5 55.5" xmlns="http://www.w3.org/2000/svg">
<path d="M 0,0 H 55.5 V 55.5 H 0 Z" fill="rgb(227, 1, 3)"/>
<path d="M 47.261,23.985 C 43.717,24 41,25.905 41,29.224 C 41,32.024 43.472,34 46.79,34 C 49.31,34 51.401,32.119 52,30.932 C 52,30.562 51.64,30.409 51.305,30.409 C 50.728,31.325 49.095,32.024 48.425,31.997 C 44.413,31.845 43.765,30.189 43.717,28.459 C 43.641,26.573 45.614,24.94 47.296,25.063 C 48.277,25.14 48.616,26.798 49.476,27.389 C 49.745,27.541 50.367,27.516 50.776,27.442 C 51.089,27.389 51.926,27.192 51.926,26.449 C 51.926,25.831 51.183,25.14 50.464,24.693 C 49.744,24.348 48.134,24 47.271,24 Z M 22.82,31.322 C 22.82,32.861 22.433,33.677 21.208,33.75 L 21.237,34 C 23.285,33.976 25.366,34 27.364,33.953 L 27.388,33.826 C 26.464,33.826 25.751,32.832 25.751,31.596 V 27.452 C 25.751,26.437 26.969,25.789 27.803,25.866 C 29.093,25.986 29.805,26.829 29.805,27.576 V 31.645 C 29.805,32.886 29.437,33.655 28.487,33.725 V 33.953 H 34.105 V 33.777 C 33.27,33.677 32.685,32.907 32.685,31.742 V 27.475 C 32.685,26.559 33.469,25.939 34.861,25.915 C 36.083,25.888 36.815,26.808 36.815,27.676 V 31.543 C 36.815,32.861 36.425,33.677 35.45,33.777 V 33.953 C 37.5,33.976 39.18,33.976 41.208,33.953 V 33.826 C 40.136,33.826 39.772,33.106 39.772,31.596 V 27.327 C 39.772,25.915 39.012,24.227 36.887,24.227 C 35.45,24.227 34.392,24.945 33.79,25.148 C 33.373,25.318 33.078,25.516 32.977,25.516 C 32.787,25.516 32.569,25.394 32.297,25.097 C 31.782,24.545 30.859,24.227 29.879,24.227 C 28.633,24.227 27.388,24.945 26.799,25.148 C 26.731,25.171 26.29,25.394 26.239,25.394 C 26.144,25.394 25.751,25.394 25.751,25.346 C 25.751,24.156 25.776,24 25.776,24 H 24.969 C 24.73,24 24.307,24.352 23.822,24.545 C 23.235,24.797 22.062,24.77 21.579,24.899 V 25.739 L 22.844,25.987 V 27.626 L 22.819,31.322 Z" fill="rgb(254, 254, 253)"/>
<path d="M 17.282,33.815 C 19.464,33.733 21.552,33.266 21.552,31.19 C 21.552,29.677 19.879,28.721 18.111,27.965 C 16.973,27.499 15.326,26.815 15.326,26.277 C 15.326,25.641 16.58,24.419 17.788,25.397 L 19.878,27.132 L 20.842,26.937 L 20.304,24.347 C 19.808,24.371 19.464,24.397 17.664,24.101 C 15.446,23.784 12.814,24.886 12.814,26.937 C 12.814,28.307 14.81,29.259 16.387,29.896 C 17.247,30.262 18.775,30.8 18.775,31.629 C 18.775,32.436 17.345,32.659 16.535,32.659 C 15.155,32.659 13.625,30.823 13.625,30.823 H 12.719 L 13.211,33.564 C 13.379,33.414 13.998,33.439 14.123,33.489 C 14.563,33.656 16.165,33.905 17.293,33.83 Z M 12.073,25.52 V 24.249 L 9.392,24.273 C 9.05,24.273 9.072,24.2 9.072,23.76 L 9.098,22.022 L 7.744,22 C 7.327,22.926 6.809,23.54 6.515,23.662 L 4,24.758 V 25.543 L 4.94,25.57 C 5.36,25.57 5.53,25.543 5.53,26.034 V 31.19 C 5.53,32.757 6.39,33.905 8.61,33.953 C 10.278,34 11.291,33.266 12.003,32.583 L 11.807,31.922 C 11.508,32.12 11.267,32.29 10.87,32.29 C 8.977,32.29 9.026,30.823 9.026,29.526 V 26.034 C 9.026,25.519 9.071,25.519 9.418,25.519 H 12.073 Z" fill="rgb(254, 254, 253)"/>
</svg>
