<?xml version="1.0" encoding="UTF-8"?>
<!-- generated by Finnhub -->
<svg viewBox="0 0 55.5 55.5" xmlns="http://www.w3.org/2000/svg">
<path d="M 0,0 H 55.5 V 55.5 H 0 Z" fill="rgb(11, 48, 115)"/>
<path d="M 25.987,28.985 H 24.243 C 23.813,29 23.459,28.434 23.459,28 H 22.365 C 22.365,28.364 22.469,28.903 22.65,29.191 H 22.47 C 21.925,29.191 21.482,28.545 21.482,28 H 20.388 C 20.388,28.541 20.615,29.296 20.983,29.5 C 20.615,29.842 20.388,30.459 20.388,31 H 21.482 C 21.482,30.455 21.925,29.818 22.471,29.818 H 22.65 C 22.469,30.101 22.365,30.636 22.365,31 H 23.459 C 23.459,30.566 23.812,30 24.243,30 H 25.997 V 29 Z M 32,36.902 V 35 H 29 V 21.485 H 30.21 C 33.612,21.485 33.612,23.955 33.612,25 H 35 V 20.02 H 21 V 25 H 22.389 C 22.389,24.006 22.269,21.485 25.791,21.485 H 27 V 35 H 24 V 36.902 H 32 Z M 34,28 H 33 V 28.98 H 30 V 30.021 H 33 V 31 H 34 C 34.21,30.405 34.806,29.942 35.47,29.942 V 29.059 C 34.806,29.059 34.21,28.595 34,28 Z M 28,13.727 C 20.119,13.727 13.73,20.117 13.73,28 C 13.73,35.882 20.119,42.273 28,42.273 C 35.883,42.273 42.27,35.883 42.27,28 C 42.27,20.118 35.883,13.727 28,13.727 Z M 44,28 C 44,36.836 36.835,43.999 28,43.999 S 12,36.836 12,27.999 C 12,19.164 19.165,12.001 28,12.001 S 44,19.164 44,28 Z" fill="rgb(254, 254, 253)"/>
</svg>
