<?xml version="1.0" encoding="UTF-8"?>
<!-- generated by Finnhub -->
<svg viewBox="0 0 55.5 55.5" xmlns="http://www.w3.org/2000/svg">
<path d="M 0,0 H 55.5 V 55.5 H 0 Z" fill="rgb(1, 152, 248)"/>
<path d="M 19.99,10.985 V 16 H 26 V 30 H 31 V 11 H 20 Z" fill="rgb(254, 254, 253)"/>
<path d="M 17.173,28.878999999999998 C 17.183,24.77 19.459,20.848 22.817,19 H 15.129 C 13.163,21.674 12,25.312 12,28.894 C 12,36.001 16.655,42.031 23,44.169 V 38.509 C 19.587,36.676 17.183,33.059 17.183,28.894 Z M 33,13.657 V 19.332 C 36.358,21.182 38.82,24.769 38.82,28.895 C 38.82,34.907 33.974,39.784 28,39.784 C 27.109,39.784 25.828,39.674 25,39.47 V 44.79 C 25.842,44.926 27.12,45 28,45 C 36.836,45 44,37.79 44,28.895 C 44,21.825 39.292,15.825 33,13.657 Z" fill="rgb(254, 254, 253)"/>
</svg>
