<?xml version="1.0" encoding="UTF-8"?>
<!-- generated by Finnhub -->
<svg viewBox="0 0 55.5 55.5" xmlns="http://www.w3.org/2000/svg">
<path d="M 0,0 H 55.5 V 55.5 H 0 Z" fill="url(#a)"/>
<path d="M 14.727,30.176 C 14.484,29.906 14.097,29.456 13.929,29.191 C 12.585,27.068 12.874,25.551 13.801,24.536 C 16.351,22.365 22.699,21.39 29.171,23.434 C 26.291,23.399 16.52,26.076 14.737,30.191 Z M 41.747,29.64 L 41.822,29.84 C 42.651,32.211 42.18,34.667 40.104,36.043 C 37.268,37.492 32.24,37.586 27.524,36.212 C 23.558,35.056 20.051,32.917 17.058,30.102 C 19.891,31.804 25.508,33.346 28.543,33.567 C 33.693,33.941 39.415,32.253 41.746,29.64 Z" fill="rgb(245, 138, 15)"/>
<path d="M 35.323,13.397 C 44.62,18.794 39.096,35.717 31.709,41.154 C 24.837,46.211 17.527,43.88 15.94,39.217 C 17.323,41.237 20.073,41.972 22.513,41.169 C 29.297,38.499 32.793,26.439 33.245,22.25 C 33.547,18.644 33.065,16.22 31.791,14.69 C 30.331,13.175 28.088,12.441 24.814,13.45 C 27.067,11.633 31.893,11.418 35.334,13.412 Z" fill="rgb(28, 88, 172)"/>
<path d="M 40.518,35.792 L 40.64,35.736 L 40.661,35.722 A 4.763,4.763 0 0,0 41.461,35.072 C 45.071,31.477 45.838,21.477 36.94,16.734 C 33.77,15.045 26.41,12.685 19.065,16.329 C 16.635,17.535 14.128,20.039 12.78,23.437 C 13.774,21.823 15.498,20.73 18.894,20.258 C 22.281,19.84 26.949,20.357 31.516,21.937 C 34.465,23.004 36.848,24.319 38.709,25.809 C 40.247,27.104 41.237,28.333 41.746,29.64 C 41.772,29.707 41.798,29.774 41.822,29.84 C 42.651,32.211 42.18,34.668 40.104,36.044 C 40.101,36.046 40.107,36.042 40.104,36.044 A 6.277,6.277 0 0,0 40.441,35.859 L 40.528,35.807 Z" fill="rgb(237, 42, 60)"/>
<path d="M 32.975,38.51 C 27.782,38.24 20.203,36.27 14.836,30.302 L 14.737,30.192 C 14.484,29.906 14.097,29.456 13.929,29.19 C 12.585,27.068 12.874,25.55 13.801,24.536 L 13.8,24.537 A 4.463,4.463 0 0,0 13.195,25.167 C 11.816,26.915 11.652,29.744 12.592,32.742 C 14.635,39.257 23.582,43.174 30.845,42.098 C 35.487,41.41 38.39,38.848 39.599,37.801 C 36.973,38.535 35.03,38.637 32.985,38.525 Z" fill="rgb(89, 141, 208)"/>
<defs>
<linearGradient id="a" x1="10.418" x2="68.147" y1="9.712" y2="76.017" gradientUnits="userSpaceOnUse">
<stop stop-color="rgb(25, 29, 31)" offset="0"/>
<stop stop-color="rgb(5, 5, 8)" offset="1"/>
</linearGradient>
</defs>
</svg>
