<?xml version="1.0" encoding="UTF-8"?>
<!-- generated by Finnhub -->
<svg viewBox="0 0 55.5 55.5" xmlns="http://www.w3.org/2000/svg">
<path d="M 0,0 H 55.5 V 55.5 H 0 Z" fill="rgb(245, 247, 251)"/>
<path d="M 23.99,39.985 H 17 V 21 H 12 V 15 H 29 V 21 H 24 V 40 Z" fill="rgb(19, 117, 196)"/>
<path d="M 43.99,39.985 H 26 V 34.421 L 33.642,28.193 C 35.104,26.912 36.845,25.418 36.842,23.286 C 36.841,21.864 35.968,20.216 34.504,20.217 C 32.274,20.22 31.649,23.079 31.547,24.962 L 25.516,23.762 C 26.172,18.537 29.862,14.751 35.021,14.744 C 39.796,14.739 43.841,17.876 43.848,23.135 C 43.851,25.765 42.668,27.72 40.788,29.428 L 34.694,34 L 44,34.008 V 40 Z"/>
</svg>
