<?xml version="1.0" encoding="UTF-8"?>
<!-- generated by Finnhub -->
<svg viewBox="0 0 55.5 55.5" xmlns="http://www.w3.org/2000/svg">
<path d="M 0,0 H 55.5 V 55.5 H 0 Z" fill="rgb(240, 45, 67)"/>
<path d="M 27.99,39.768 C 21.492,39.783 16.217,34.508 16.217,28 S 21.492,16.217 28,16.217 S 39.783,21.492 39.783,28 S 34.508,39.783 28,39.783 Z M 28,12 C 19.163,12 12,19.164 12,28 C 12,36.837 19.163,44 28,44 C 36.837,44 44,36.837 44,28 C 44,19.164 36.837,12 28,12 Z" fill="rgb(254, 254, 253)"/>
<circle cx="24" cy="24" r="3" fill="rgb(254, 254, 253)"/>
<circle cx="32" cy="24" r="3" fill="rgb(254, 254, 253)"/>
<circle cx="32" cy="32" r="3" fill="rgb(254, 254, 253)"/>
<circle cx="24" cy="32" r="3" fill="rgb(254, 254, 253)"/>
</svg>
