<?xml version="1.0" encoding="UTF-8"?>
<!-- generated by Finnhub -->
<svg viewBox="0 0 55.5 55.5" xmlns="http://www.w3.org/2000/svg">
<path d="M 0,0 H 55.5 V 55.5 H 0 Z" fill="rgb(48, 52, 54)"/>
<path d="M 29.22,12.215 A 1.23,1.23 0 1,1 26.77,12.23 A 1.23,1.23 0 0,1 29.23,12.23 Z M 22.32,13.45 A 1.23,1.23 0 1,1 19.87,13.45 A 1.23,1.23 0 0,1 22.32,13.45 Z M 15.22,18.34 A 1.23,1.23 0 1,0 15.22,15.89 A 1.23,1.23 0 0,0 15.22,18.34 Z M 15.22,37.66 A 1.23,1.23 0 1,1 15.22,40.11 A 1.23,1.23 0 0,1 15.22,37.66 Z M 21.09,41.32 A 1.23,1.23 0 1,1 21.09,43.77 A 1.23,1.23 0 0,1 21.09,41.32 Z M 28,42.55 A 1.23,1.23 0 1,1 28,45 A 1.23,1.23 0 0,1 28,42.55 Z M 36.13,13.45 A 1.23,1.23 0 1,1 33.68,13.45 A 1.23,1.23 0 0,1 36.13,13.45 Z M 34.91,41.32 A 1.23,1.23 0 1,1 34.91,43.77 A 1.23,1.23 0 0,1 34.91,41.32 Z M 42,17.12 A 1.23,1.23 0 1,1 39.55,17.12 A 1.23,1.23 0 0,1 42,17.12 Z M 40.78,37.66 A 1.23,1.23 0 1,1 40.78,40.11 A 1.23,1.23 0 0,1 40.78,37.66 Z" fill="rgb(31, 217, 157)"/>
<path d="M 32.99,21.985 H 23 V 24 H 33 V 22 Z M 27,24 V 36 H 29 V 24 H 27 Z" fill="rgb(254, 254, 253)"/>
</svg>
