<?xml version="1.0" encoding="UTF-8"?>
<!-- generated by Finnhub -->
<svg viewBox="0 0 55.5 55.5" xmlns="http://www.w3.org/2000/svg">
<path d="M 0,0 H 55.5 V 55.5 H 0 Z" fill="rgb(12, 43, 86)"/>
<path d="M 25.49,15.985 C 20.36,16 19,20.02 19,24.5 S 20.53,33 25.5,33 S 32,28.92 32,24.5 C 32,20.09 30.47,16 25.5,16 Z M 25.5,18 C 28.31,18 30,19.32 30,24.5 C 30,29.67 28.17,31 25.5,31 S 21,29.55 21,24.5 C 21,19.44 22.9,18 25.5,18 Z M 10,19.24 L 11.28,20.81 L 14,18.7 V 33 H 16 V 16 H 14 L 10,19.24 Z" fill="rgb(254, 254, 253)"/>
<path d="M 42.870000000000005,19.985 L 40.23,24.07 C 40.03,24.37 39.97,24.71 40.03,24.91 C 40.18,25.41 40.4,26 40.4,26 H 41.48 C 41.68,25.99 41.96,25.79 42.15,25.5 L 45.73,20 H 42.88 Z" fill="rgb(249, 194, 23)"/>
<path d="M 36.120000000000005,19.985 L 38.79,24.07 C 38.98,24.37 39.05,24.71 38.99,24.91 C 38.84,25.41 38.62,26 38.62,26 H 37.54 C 37.34,25.99 37.06,25.79 36.87,25.5 L 33.28,20 H 36.13 Z" fill="rgb(112, 189, 73)"/>
<path d="M 43.14,32.985 L 40.23,28.8 C 40.04,28.53 39.98,28.21 40.03,28.02 C 40.18,27.55 40.41,27 40.41,27 H 41.48 C 41.68,27.01 41.96,27.2 42.15,27.48 L 46,33 H 43.15 Z" fill="rgb(1, 160, 221)"/>
<path d="M 35.84,32.985 L 38.79,28.8 C 38.98,28.53 39.05,28.21 38.99,28.02 C 38.84,27.55 38.62,27 38.62,27 H 37.54 C 37.34,27.01 37.06,27.2 36.87,27.48 L 33,33 H 35.85 Z" fill="rgb(231, 74, 78)"/>
<path d="M 15.700000000000001,37.225 H 17.59 V 36.64 H 15.7 V 35.66 H 17.9 V 35.06 H 14.96 V 38.93 H 17.92 V 38.33 H 15.7 V 37.24 Z M 21.99,37.74 L 20.05,35.06 H 19.35 V 38.93 H 20.06 V 36.23 L 22.01,38.93 H 22.71 V 35.06 H 21.99 V 37.75 Z M 25.95,35 C 25.1,35 24.24,35.49 24.24,36.42 V 37.66 C 24.24,38.59 25.11,39 25.97,39 S 27.67,38.5 27.67,37.57 V 36.37 C 27.67,35.57 26.97,35 25.95,35 Z M 24.98,36.4 C 24.98,35.85 25.46,35.6 25.94,35.6 C 26.54,35.6 26.94,35.9 26.94,36.36 V 37.6 C 26.94,38.15 26.44,38.4 25.97,38.4 C 25.37,38.4 24.97,38.09 24.97,37.62 V 36.41 Z M 31.23,37.28 L 30.04,35.07 H 29.2 V 38.93 H 29.92 V 36.33 L 30.94,38.22 H 31.51 L 32.52,36.34 V 38.94 H 33.25 V 35.07 H 32.4 L 31.23,37.27 Z M 39.07,35 C 38.07,35 37.37,35.58 37.37,36.4 V 37.66 C 37.37,38.46 38.05,39 39.09,39 C 40.04,39 40.69,38.5 40.69,37.77 V 37.57 H 39.98 V 37.71 C 39.98,38.13 39.63,38.4 39.09,38.4 C 38.5,38.4 38.11,38.09 38.11,37.62 V 36.4 C 38.11,35.85 38.59,35.6 39.06,35.6 C 39.48,35.6 39.98,35.79 39.98,36.3 V 36.47 H 40.68 V 36.23 C 40.68,35.51 40.02,35.01 39.08,35.01 Z M 44.04,36.76 L 43.27,36.56 C 42.72,36.43 42.66,36.22 42.66,36.06 C 42.66,35.7 43.05,35.58 43.38,35.58 C 43.81,35.58 44.11,35.73 44.28,36.02 L 44.31,36.08 L 44.95,35.85 L 44.92,35.78 C 44.72,35.28 44.17,35 43.4,35 C 42.53,35 41.93,35.46 41.93,36.11 C 41.93,36.66 42.24,36.98 42.94,37.15 L 43.71,37.34 C 44.11,37.44 44.27,37.6 44.27,37.87 C 44.27,38.27 43.81,38.41 43.41,38.41 C 42.91,38.41 42.52,38.19 42.37,37.82 L 42.34,37.75 L 41.67,37.98 L 41.69,38.04 C 41.89,38.64 42.52,38.99 43.39,38.99 C 44.34,38.99 45,38.51 45,37.82 C 45,37.26 44.68,36.9 44.04,36.76 Z M 35.09,35.06 H 35.83 V 38.93 H 35.09 V 35.07 Z M 11.49,37.48 H 12.63 V 37.72 C 12.63,38.22 12.14,38.4 11.73,38.4 C 11.13,38.4 10.74,38.09 10.74,37.62 V 36.4 C 10.74,35.85 11.22,35.6 11.7,35.6 C 12.14,35.6 12.61,35.78 12.61,36.26 V 36.43 H 13.33 V 36.2 C 13.33,35.38 12.51,35.01 11.7,35.01 C 10.7,35.01 10,35.59 10,36.41 V 37.68 C 10,38.48 10.7,39.01 11.73,39.01 C 12.69,39.01 13.33,38.51 13.33,37.78 V 36.88 H 11.5 V 37.49 Z" fill="rgb(254, 254, 253)"/>
</svg>
