<?xml version="1.0" encoding="UTF-8"?>
<!-- generated by Finnhub -->
<svg viewBox="0 0 55.5 55.5" xmlns="http://www.w3.org/2000/svg">
<path d="M 0,0 H 55.5 V 55.5 H 0 Z" fill="url(#a)"/>
<path d="M 37.49,11.985 L 24.43,15.4 L 22.49,18.73 L 18.57,18.7 L 9,28 L 18.57,37.3 L 22.49,37.28 L 24.43,40.59 L 37.5,44 L 41,31.3 L 39.01,28 L 41,24.71 L 37.5,12 Z M 22.8,19.26 L 32.8,16.76 L 27.07,26.5 H 15.59 L 22.81,19.26 Z M 22.8,36.74 L 15.6,29.5 H 27.08 L 32.82,39.24 L 22.82,36.74 Z M 35.6,37.67 L 29.86,28 L 35.6,18.33 L 38.38,28 L 35.6,37.67 Z" fill="rgb(254, 254, 253)"/>
<defs>
<linearGradient id="a" x1="10.42" x2="68.15" y1="9.71" y2="76.02" gradientUnits="userSpaceOnUse">
<stop stop-color="rgb(25, 29, 31)" offset="0"/>
<stop stop-color="rgb(5, 5, 8)" offset="1"/>
</linearGradient>
</defs>
</svg>
