<?xml version="1.0" encoding="UTF-8"?>
<!-- generated by Finnhub -->
<svg viewBox="0 0 55.5 55.5" xmlns="http://www.w3.org/2000/svg">
<path d="M 0,0 H 55.5 V 55.5 H 0 Z" fill="rgb(7, 8, 11)"/>
<path d="M 40.587,27.985 C 44.978,26.036 47.839,23.088 47.995,19.817 C 47.995,19.817 46.839,18.91 43.104,17.51 C 39.824,16.281 37,16 37,16 V 23.287 C 37,24.376 36.905,25.487 36.094,26.471 C 33.615,25.861 30.876,25.52 28.002,25.519 C 25.127,25.519 22.382,25.863 19.901,26.474 C 19.091,25.489 19,24.377 19,23.287 V 16 S 16.17,16.281 12.89,17.51 C 9.155,18.91 8,19.817 8,19.817 C 8.155,23.089 11.017,26.038 15.403,28.001 C 11.021,29.965 8.16,32.913 8.005,36.182 C 8.005,36.182 9.161,37.091 12.895,38.49 C 16.175,39.719 19,40 19,40 V 32.713 C 19,31.624 19.094,30.512 19.906,29.529 C 22.385,30.139 25.123,30.48 27.996,30.48 C 30.873,30.48 33.617,30.138 36.098,29.526 C 36.908,30.51 37,31.624 37,32.713 V 40 S 39.83,39.719 43.11,38.49 C 46.844,37.09 48,36.182 48,36.182 C 47.844,32.911 44.982,29.962 40.597,27.999 Z M 27.914,29.637 C 25.319,29.637 23.204,28.99 21.654,28.001 C 23.547,26.791 25.784,26.389 28,26.361 C 30.214,26.387 32.451,26.791 34.346,27.998 C 32.795,28.988 30.679,29.638 28.08,29.638" fill="rgb(254, 254, 253)"/>
</svg>
