<?xml version="1.0" encoding="UTF-8"?>
<!-- generated by Finnhub -->
<svg viewBox="0 0 55.5 55.5" xmlns="http://www.w3.org/2000/svg">
<path d="M 0,0 H 55.5 V 55.5 H 0 Z" fill="rgb(1, 92, 168)"/>
<path d="M 43.99,43.985 V 12 H 12 V 16.516 L 13.275,16.197 C 18.816,15.041 24.453,16.166 28.892,19.032 C 33.588,22.045 36.902,26.925 38.096,32.057 C 39.05,35.942 38.798,40.353 37.529,44 H 44 Z M 15.265,44 H 12.76 A 24.229,24.229 0 0,0 14.805,43.166 L 15.265,44 Z" fill="rgb(254, 254, 253)"/>
<path d="M 16.758999999999997,43.985 L 15.949,42.613 C 17.295,41.868 18.639,41.043 19.906,40.041 L 21.956,42.726 C 22.416,42.384 22.846,42.011 23.302,41.614 L 23.378,41.548 A 25.721,25.721 0 0,0 21.255,38.895 C 22.228,38.065 23.161,37.051 23.987,36.085 A 79.856,79.856 0 0,1 26.32,38.549 C 26.83,38.014 27.267,37.445 27.658,36.871 A 58.238,58.238 0 0,0 25.23,34.491 A 15.057,15.057 0 0,0 27.012,31.686 C 27.88,32.346 28.715,33.031 29.535,33.746 C 29.883,33.09 30.205,32.416 30.455,31.714 C 29.637,30.999 28.771,30.39 27.907,29.794 C 28.223,29.083 28.527,28.074 28.641,27.426 C 29.47,27.859 30.491,28.532 31.201,29.056 C 31.391,28.308 31.456,27.136 31.433,26.476 A 22.077,22.077 0 0,0 28.933,25.11 A 8.38,8.38 0 0,0 28.87,23.695 C 29.68,24.018 30.468,24.406 31.253,24.805 A 8.891,8.891 0 0,0 30.345,22.107 A 35.378,35.378 0 0,0 28.267,21.41 A 6.447,6.447 0 0,0 27.747,20.354 C 28.165,20.446 28.565,20.571 28.966,20.695 C 29.167,20.758 29.369,20.821 29.572,20.879 C 29.436,20.642 29.234,20.42 29.035,20.202 A 34.57,34.57 0 0,1 28.95,20.108 C 28.341,19.454 27.664,18.908 26.928,18.521 L 26.191,18.429 A 5.778,5.778 0 0,0 25.337,17.686 C 26.354,18.005 27.794,18.479 29.094,19.899 C 31.525,22.564 32.339,26.232 31.482,29.81 C 30.12,35.426 25.824,40.481 20.974,44 H 16.769 Z M 22.857,44 H 21.71 C 21.83,43.908 21.943,43.818 22.05,43.732 C 22.203,43.61 22.345,43.497 22.474,43.404 C 22.577,43.568 22.725,43.798 22.856,44 Z" fill="rgb(254, 254, 253)"/>
<path d="M 25.296,43.985 C 24.946,43.52 24.356,42.744 23.915,42.2 C 25.071,41.216 25.881,40.328 26.848,39.185 C 27.256,39.631 27.638,40.092 28.019,40.552 C 28.235,40.813 28.451,41.074 28.672,41.332 C 29.176,40.769 29.666,40.189 30.093,39.581 A 41.63,41.63 0 0,0 28.22,37.459 C 28.941,36.464 29.764,35.171 30.17,34.371 C 30.83,34.959 31.49,35.646 32.095,36.307 C 32.469,35.614 32.78,34.901 33.042,34.132 A 17.488,17.488 0 0,0 31.132,32.302 C 31.488,31.442 31.794,30.472 31.943,29.614 C 32.555,30.048 33.177,30.567 33.773,31.157 C 33.923,30.229 33.995,29.241 33.943,28.238 C 33.399,27.748 32.811,27.326 32.249,26.927 C 32.235,26.357 32.217,25.867 32.139,25.325 C 32.581,25.569 33.022,25.852 33.457,26.131 L 33.629,26.241 C 33.353,25.045 32.85,23.948 32.219,22.904 L 31.33,22.488 C 31.146,22.068 30.924,21.657 30.69,21.256 L 31.373,21.516 C 33.831,24.241 34.805,27.909 34.107,31.677 C 33.463,35.27 31.618,38.362 29.285,41.257 A 35.405,35.405 0 0,1 26.688,44 H 25.306 Z" fill="rgb(254, 254, 253)"/>
<path d="M 31.209,43.985 C 33.559,41.14 35.254,37.987 35.967,34.444 C 36.739,30.693 36.128,26.722 33.745,23.894 C 33.691,23.834 33.637,23.769 33.582,23.704 C 33.408,23.498 33.226,23.283 33.024,23.143 L 33.013,23.17 C 34.079,24.5 34.928,25.926 35.365,27.513 L 35.357,27.53 L 34.535,26.9 C 34.64,27.544 34.723,28.143 34.745,28.815 C 35.133,29.112 35.557,29.5 35.888,29.907 C 35.944,31.002 35.944,32.169 35.759,33.244 C 35.39,32.746 35.061,32.384 34.484,31.801 C 34.357,32.597 34.062,33.851 33.708,34.688 A 13.995,13.995 0 0,1 35.055,36.457 C 34.865,37.117 34.498,38.003 34.107,38.742 A 40.264,40.264 0 0,1 33.69,38.184 C 33.405,37.797 33.12,37.412 32.708,36.92 A 26.756,26.756 0 0,1 30.62,40.24 C 31.15,40.873 31.637,41.533 32.098,42.2 A 20.946,20.946 0 0,1 30.695,44 H 31.219 Z" fill="rgb(254, 254, 253)"/>
<path d="M 33.996,43.985 H 33.242 L 32.586,42.928 A 28.163,28.163 0 0,0 34.661,39.52 C 34.827,39.752 34.982,40.022 35.139,40.296 C 35.222,40.441 35.306,40.587 35.392,40.728 C 35.759,39.961 36.133,38.999 36.329,38.302 L 35.669,37.141 C 36.043,36.078 36.298,35.109 36.476,34.067 L 37.073,34.812 C 37.298,33.678 37.359,32.572 37.323,31.476 C 37.323,31.476 36.973,30.931 36.683,30.61 C 36.593,29.667 36.529,29.075 36.375,28.358 L 36.467,28.45 C 37.12,29.915 37.664,31.446 37.587,33.203 C 37.442,37.218 36.071,40.77 34.006,44 Z" fill="rgb(254, 254, 253)"/>
<path d="M 35.917,43.985 H 34.517 C 35.007,43.217 35.486,42.336 35.899,41.5 C 36.046,41.744 36.21,42.058 36.294,42.322 C 36.66,41.454 36.944,40.627 37.167,39.855 L 36.893,39.085 C 37.286,38.02 37.561,36.952 37.749,35.802 L 37.925,36.044 C 37.989,35.704 38.028,35.35 38.067,34.992 C 38.09,34.787 38.112,34.581 38.14,34.376 H 38.146 C 38.342,36.141 37.989,37.862 37.602,39.474 A 25.628,25.628 0 0,1 35.927,44 Z M 37.11,44 H 36.389 C 36.498,43.767 36.632,43.484 36.739,43.264 C 36.785,43.384 36.839,43.494 36.896,43.607 C 37.363,42.159 37.921,40.132 38.23,38.487 C 38.065,40.441 37.67,42.477 37.11,44 Z M 30.669,44 H 27.395 C 28.023,43.385 28.576,42.73 29.125,42.082 L 29.184,42.012 L 29.509,42.442 A 73.95,73.95 0 0,1 30.67,44 Z M 14.865,16.341 C 16.87,15.992 19.107,16.131 20.809,17.085 C 21.948,17.676 23.019,18.765 23.549,19.93 C 24.453,21.703 24.357,24.15 23.805,26.052 C 22.295,31.554 17.102,36.622 12.001,38.919 V 37.509 L 12.394,38.291 C 12.779,38.123 13.024,38.004 13.324,37.809 L 12.001,35.125 V 33.911 C 12.834,33.475 13.331,33.124 14.147,32.475 C 14.727,33.295 15.725,34.6 16.554,35.632 A 6.89,6.89 0 0,0 17.666,34.671 A 47.715,47.715 0 0,0 15.054,31.706 C 15.809,31.113 16.321,30.566 16.92,29.836 C 16.92,29.836 18.956,31.479 19.949,32.316 C 20.216,31.986 20.662,31.433 20.973,30.972 A 38.56,38.56 0 0,0 17.794,28.765 C 18.203,28.21 18.638,27.533 18.981,26.899 C 20.111,27.389 21.254,28.007 22.364,28.639 C 22.609,28.197 22.874,27.599 23.055,27.067 C 21.948,26.509 20.79,25.992 19.618,25.594 C 19.828,25.124 19.988,24.634 20.108,24.136 A 28.1,28.1 0 0,1 23.607,25.128 C 23.756,24.574 23.839,23.858 23.854,23.283 A 23.307,23.307 0 0,0 20.395,22.648 A 7.26,7.26 0 0,0 20.427,21.704 C 21.427,21.753 22.707,21.936 23.794,22.154 A 5.616,5.616 0 0,0 23.409,20.484 C 22.757,20.389 21.205,20.317 20.253,20.358 C 20.207,20.145 20.098,19.79 20.019,19.651 C 20.786,19.566 22.037,19.551 22.979,19.614 A 4.453,4.453 0 0,0 21.95,18.303 A 19.36,19.36 0 0,0 19.427,18.576 A 2.536,2.536 0 0,0 18.997,18.068 A 19.684,19.684 0 0,1 21.198,17.708 C 20.662,17.31 19.798,16.905 19.461,16.805 C 19.084,16.881 18.311,17.089 17.944,17.225 A 3.527,3.527 0 0,0 17.333,16.914 A 11.1,11.1 0 0,1 18.448,16.53 C 17.581,16.336 16.601,16.303 15.672,16.373 L 15.572,16.423 L 14.865,16.341 Z" fill="rgb(254, 254, 253)"/>
<path d="M 20.573999999999998,16.489 A 5.802,5.802 0 0,0 20.049,16.285 C 22.006,16.518 23.877,16.975 25.386,18.286 C 27.875,20.31 28.913,23.305 28.386,26.483 C 27.726,30.471 25.501,33.807 22.689,36.898 C 19.604,40.234 15.958,42.538 12.001,43.842 V 39.402 S 12.381,39.267 12.759,39.056 C 13.149,39.905 13.884,41.392 14.494,42.419 A 5.902,5.902 0 0,0 15.519,41.891 S 14.227,39.453 13.707,38.554 C 15.021,37.846 15.918,37.214 17.04,36.311 C 17.508,36.906 19.406,39.375 19.406,39.375 C 19.881,39.029 20.345,38.642 20.716,38.265 C 20.716,38.265 18.857,35.995 18.231,35.327 C 19.051,34.629 19.866,33.697 20.555,32.854 C 21.53,33.687 22.701,34.754 23.402,35.504 C 23.878,34.994 24.302,34.436 24.618,33.954 C 23.658,33.072 22.637,32.243 21.64,31.447 C 22.21,30.697 22.693,29.875 23.074,29.073 C 24.193,29.702 25.266,30.425 26.339,31.169 A 9.9,9.9 0 0,0 27.193,29.351 C 26.101,28.628 24.957,28.017 23.803,27.416 C 24.037,26.77 24.237,26.106 24.389,25.421 C 25.592,25.835 26.749,26.402 27.88,26.975 A 9.05,9.05 0 0,0 28.128,24.757 C 27.001,24.24 25.839,23.834 24.648,23.485 A 16.377,16.377 0 0,0 24.614,22.335 C 25.769,22.574 26.895,22.951 27.994,23.348 C 27.886,22.58 27.637,21.853 27.308,21.163 A 30.185,30.185 0 0,0 24.256,20.563 C 24.153,20.263 24.03,19.973 23.91,19.693 C 24.84,19.775 25.881,19.926 26.64,20.103 C 26.271,19.436 25.612,18.789 24.963,18.307 A 23.095,23.095 0 0,0 22.961,18.261 A 8.49,8.49 0 0,0 22.343,17.639 C 22.75,17.605 23.169,17.604 23.581,17.602 C 23.681,17.602 23.781,17.602 23.881,17.6 A 9.658,9.658 0 0,0 20.815,16.532 L 20.695,16.553 L 20.585,16.503 Z" fill="rgb(254, 254, 253)"/>
<path d="M 11.99,17.023 C 14.344,16.478 17,16.628 18.731,18.402 C 19.057,18.729 19.271,19.092 19.472,19.466 C 20.612,21.881 19.722,24.726 18.544,26.826 C 17.101,29.45 14.535,31.927 12,33.436 V 29.68 L 13.642,31.808 C 13.938,31.591 14.22,31.355 14.497,31.098 L 12,28.404 V 28.276 A 11.29,11.29 0 0,0 13.184,27.089 C 14.271,27.79 15.264,28.533 16.264,29.324 C 16.555,29.016 16.834,28.668 17.08,28.332 C 16.047,27.655 14.54,26.792 13.754,26.404 C 14.056,26.03 14.358,25.526 14.538,25.156 C 15.632,25.466 17.3,26.099 18.239,26.547 C 18.459,26.154 18.66,25.752 18.833,25.341 A 24.053,24.053 0 0,0 14.977,24.278 C 15.107,23.993 15.222,23.658 15.272,23.386 C 16.665,23.479 17.924,23.635 19.306,23.954 C 19.436,23.501 19.531,22.974 19.584,22.568 A 28.282,28.282 0 0,0 15.482,22.423 C 15.502,22.223 15.525,21.901 15.525,21.74 C 16.747,21.616 18.283,21.557 19.625,21.642 C 19.622,21.212 19.555,20.792 19.435,20.4 A 26.873,26.873 0 0,0 15.463,20.88 A 2.778,2.778 0 0,0 15.333,20.376 C 16.348,20.082 17.853,19.85 19.171,19.71 A 3.287,3.287 0 0,0 18.557,18.743 C 17.363,18.974 15.841,19.423 15.065,19.703 A 2.243,2.243 0 0,0 14.795,19.276 C 15.868,18.833 16.935,18.537 18.05,18.269 A 3.723,3.723 0 0,0 16.94,17.554 C 16.068,17.836 15.006,18.299 14.267,18.699 A 1.376,1.376 0 0,0 13.953,18.449 C 14.553,18.039 15.487,17.605 16.257,17.324 C 15.791,17.135 15.077,17.031 14.524,17.026 C 14.098,17.262 13.586,17.594 13.058,17.976 A 2.459,2.459 0 0,0 12.632,17.839 A 9.3,9.3 0 0,1 13.706,17.049 C 13.124,17.047 12.49,17.149 12,17.254 V 17.039 Z" fill="rgb(254, 254, 253)"/>
<path d="M 11.992,18.741 V 18.131 C 13.128,18.286 14.305,18.988 14.79,20.108 C 15.591,22.149 14.711,24.267 13.595,25.898 C 13.145,26.535 12.577,27.138 12,27.713 V 26.295 S 12.293,26.468 12.523,26.623 C 12.675,26.483 12.903,26.204 13.017,26.033 C 12.847,25.921 12.346,25.669 12,25.512 V 24.402 C 12.537,24.489 13.262,24.721 13.754,24.889 C 13.892,24.665 14.052,24.354 14.138,24.13 A 49,49 0 0,1 13.795,24.063 C 13.235,23.951 12.593,23.823 12,23.79 C 12,23.788 12,23.225 12.005,23.225 C 12.74,23.205 13.795,23.254 14.447,23.315 C 14.556,23.052 14.618,22.752 14.673,22.463 C 14.106,22.442 12.797,22.539 12.007,22.646 V 22.224 C 12.893,22.044 13.627,21.914 14.717,21.808 C 14.715,21.593 14.708,21.288 14.655,21.052 C 13.931,21.169 12.827,21.463 12.005,21.753 V 21.384 C 12.782,21.079 13.732,20.728 14.552,20.567 A 2.05,2.05 0 0,0 14.316,19.959 C 13.545,20.202 12.734,20.565 12.001,20.929 V 20.524 C 12.431,20.294 13.351,19.838 14.012,19.571 A 1.912,1.912 0 0,0 13.533,19.095 C 13.076,19.331 12.497,19.687 12.006,19.991 V 19.599 C 12.308,19.389 12.637,19.194 12.966,19 L 13.181,18.873 A 2.826,2.826 0 0,0 12.347,18.513 L 12.002,18.756 Z" fill="rgb(254, 254, 253)"/>
</svg>
