<?xml version="1.0" encoding="UTF-8"?>
<!-- generated by Finnhub -->
<svg viewBox="0 0 55.5 55.5" xmlns="http://www.w3.org/2000/svg">
<path d="M 0,0 H 55.5 V 55.5 H 0 Z" fill="url(#a)"/>
<path d="M 11.994,33.977 C 14.301,33.992 16,31.966 16,29.812 V 20.002 H 18.004 V 36 H 16 V 34.27 C 14.973,35.396 13.261,36 11.744,36 C 8.32,36 6.004,33.084 6.004,29.843 V 20.002 H 8 V 29.812 C 8,32 9.68,33.992 12.004,33.992 Z M 22,20 V 25.73 C 23.078,24.65 24.796,24.022 26.325,24.022 C 27.911,24.022 29.463,24.65 30.586,25.775 A 6.05,6.05 0 0,1 32.336,30.022 C 32.336,31.597 31.699,33.131 30.586,34.246 A 6.044,6.044 0 0,1 26.325,35.999 C 24.793,35.999 23.081,35.374 22,34.291 V 36 H 20 V 20 H 22 Z M 22.523,31.572 A 3.988,3.988 0 0,0 26.168,34 C 27.75,34 29.152,33.009 29.778,31.573 A 3.982,3.982 0 0,0 29.778,28.461 C 29.154,27.008 27.759,26.045 26.168,26.045 C 24.582,26.045 23.158,27.01 22.534,28.461 A 4.045,4.045 0 0,0 22.524,31.573 Z M 36.932,24.517 A 5.946,5.946 0 0,1 41.552,24.494 C 43.755,25.434 44.983,27.664 44.983,29.999 V 31 H 35.676 C 35.799,31.767 36.392,32.569 36.966,33.066 A 3.791,3.791 0 0,0 39.466,33.999 C 40.826,33.999 41.926,33.437 42.763,32.314 L 44.4,33.527 C 43.231,35.099 41.418,35.977 39.466,35.977 C 37.87,35.977 36.292,35.398 35.149,34.268 A 5.996,5.996 0 0,1 33.389,30 C 33.388,27.665 34.778,25.462 36.932,24.518 Z M 35.72,29 H 42.695 C 42.324,27.312 40.996,26.022 39.218,26.022 C 37.435,26.022 36.118,27.32 35.72,29 Z M 48,29.212 V 36 H 46 V 24 H 48 V 25.685 C 48.573,24.748 49.922,24.179 50.979,24.179 H 52 V 26.291 H 50.822 C 49.333,26.291 48,27.731 48,29.212 Z" fill="rgb(254, 254, 253)"/>
<defs>
<linearGradient id="a" x1="10.418" x2="68.147" y1="9.712" y2="76.017" gradientUnits="userSpaceOnUse">
<stop stop-color="rgb(25, 29, 31)" offset="0"/>
<stop stop-color="rgb(5, 5, 8)" offset="1"/>
</linearGradient>
</defs>
</svg>
