<?xml version="1.0" encoding="UTF-8"?>
<!-- generated by Finnhub -->
<svg viewBox="0 0 55.5 55.5" xmlns="http://www.w3.org/2000/svg">
<path d="M 0,0 H 55.5 V 55.5 H 0 Z" fill="url(#a)"/>
<path d="M 6.01,28.615 L 6.7,22 H 10.43 L 9.76,28.63 C 9.58,30.9 11.87,31 13.25,31 C 16.83,31 17.01,29.82 17.14,28.63 L 17.79,22 H 21.56 L 20.92,28.63 C 20.48,33.68 15.52,34 12.61,34 C 6.38,34 5.86,30.57 6.02,28.63 Z M 43.46,22 H 50 L 49.65,25 H 43.46 C 42.17,25 40.04,25.92 40,28.07 C 39.96,30.21 41.55,31 42.6,31 H 49.06 L 48.74,34 H 42.34 C 36.95,34 35.68,29.95 36.06,27.58 C 36.8,23.02 41.39,22 43.46,22 Z M 35.83,22 H 23.37 L 23.04,25 H 35.49 L 35.83,22 Z M 22.33,31 H 34.79 L 34.45,34 H 21.99 L 22.32,31 Z M 31.77,26.5 H 22.9 L 22.55,29.5 H 31.48 L 31.78,26.5 Z" fill="rgb(254, 254, 253)"/>
<defs>
<linearGradient id="a" x1="28" x2="28" y2="56" gradientUnits="userSpaceOnUse">
<stop stop-color="rgb(112, 180, 27)" offset="0"/>
<stop stop-color="rgb(90, 146, 21)" offset="1"/>
</linearGradient>
</defs>
</svg>
