<?xml version="1.0" encoding="UTF-8"?>
<!-- generated by Finnhub -->
<svg viewBox="0 0 55.5 55.5" xmlns="http://www.w3.org/2000/svg">
<path d="M 0,0 H 55.5 V 55.5 H 0 Z" fill="rgb(14, 13, 152)"/>
<path d="M 32.433,18.256 C 32.408,17.997 32.36,17.623 32.182,17.623 C 32.102,17.623 31.908,17.788 31.701,17.966 C 31.459,18.173 31.197,18.396 31.071,18.396 C 31.022,18.396 31.011,18.396 31.011,18.336 C 31.011,18.219 31.161,17.957 31.313,17.692 C 31.469,17.42 31.627,17.144 31.627,17.018 C 31.627,16.886 31.394,16.864 31.174,16.842 C 30.976,16.822 30.788,16.804 30.788,16.709 C 30.788,16.593 30.968,16.474 31.163,16.347 C 31.386,16.201 31.627,16.043 31.627,15.865 C 31.627,15.688 31.401,15.592 31.189,15.501 C 31.002,15.421 30.825,15.346 30.825,15.223 C 30.825,15.159 30.977,15.083 31.145,14.999 C 31.349,14.896 31.577,14.782 31.577,14.664 C 31.577,14.564 31.409,14.327 31.23,14.076 C 31.028,13.792 30.813,13.489 30.813,13.344 C 30.813,13.172 31.198,13.375 31.579,13.576 C 31.856,13.722 32.132,13.867 32.257,13.867 C 32.405,13.867 32.405,13.451 32.405,13.32 C 32.405,13.118 32.467,13 32.528,13 C 32.596,13 32.695,13.1 32.802,13.207 C 32.927,13.333 33.062,13.47 33.168,13.463 C 33.291,13.463 33.456,13.405 33.66,13.334 C 33.986,13.22 34.412,13.071 34.92,13.071 C 36.66,13.071 37.919,14.081 37.919,15.805 C 37.919,17.587 36.512,18.598 35.019,18.598 C 34.307,18.598 33.788,18.308 33.454,18.121 C 33.297,18.033 33.181,17.968 33.106,17.968 C 33.026,17.968 32.926,18.109 32.828,18.248 C 32.732,18.383 32.638,18.515 32.566,18.515 C 32.504,18.515 32.479,18.503 32.455,18.36 A 11.577,11.577 0 0,1 32.443,18.272 Z M 32.308,15.424 C 32.426,15.518 32.541,15.611 32.541,15.674 C 32.541,15.714 32.426,15.813 32.306,15.914 C 32.179,16.024 32.046,16.136 32.046,16.186 C 32.046,16.209 32.071,16.221 32.133,16.221 L 32.33,16.226 C 32.44,16.229 32.568,16.233 32.652,16.233 C 32.714,16.233 32.738,16.28 32.738,16.328 L 32.763,16.803 C 32.763,16.863 32.788,16.911 32.825,16.911 C 32.877,16.911 32.955,16.801 33.036,16.685 C 33.126,16.558 33.22,16.423 33.291,16.423 C 33.348,16.423 33.477,16.468 33.603,16.51 C 33.721,16.55 33.836,16.59 33.884,16.59 C 33.908,16.59 33.921,16.578 33.921,16.554 C 33.921,16.497 33.848,16.377 33.779,16.264 C 33.719,16.164 33.662,16.07 33.662,16.032 C 33.662,15.979 33.829,15.955 34,15.931 C 34.18,15.905 34.365,15.878 34.365,15.817 C 34.365,15.771 34.202,15.717 34.035,15.66 C 33.857,15.6 33.674,15.54 33.674,15.484 C 33.674,15.434 33.756,15.325 33.836,15.22 C 33.911,15.12 33.983,15.025 33.983,14.985 C 33.983,14.961 33.958,14.949 33.933,14.949 C 33.875,14.949 33.779,14.989 33.678,15.03 C 33.562,15.078 33.438,15.128 33.353,15.128 C 33.277,15.128 33.197,14.932 33.127,14.758 C 33.071,14.621 33.021,14.498 32.983,14.498 C 32.927,14.498 32.891,14.642 32.853,14.795 C 32.81,14.973 32.763,15.164 32.676,15.164 C 32.576,15.164 32.463,15.15 32.357,15.137 A 2.177,2.177 0 0,0 32.121,15.116 C 32.083,15.116 32.058,15.128 32.058,15.151 C 32.058,15.225 32.185,15.325 32.308,15.424 Z M 33.513,17.303 C 33.513,17.517 34.082,17.933 34.946,17.933 C 35.612,17.933 36.857,17.505 36.857,15.793 C 36.857,14.438 36.128,13.63 34.908,13.63 C 34.156,13.63 33.674,13.926 33.674,14.2 C 33.674,14.367 33.822,14.39 33.946,14.39 C 34.094,14.39 34.365,14.31 34.583,14.245 C 34.729,14.201 34.852,14.165 34.896,14.165 C 34.983,14.165 35.032,14.188 35.032,14.248 C 35.032,14.309 34.975,14.405 34.914,14.506 C 34.845,14.62 34.772,14.742 34.772,14.831 C 34.772,14.941 35.102,14.958 35.436,14.974 C 35.78,14.99 36.128,15.007 36.128,15.128 C 36.128,15.253 35.819,15.375 35.545,15.483 C 35.327,15.569 35.131,15.647 35.131,15.71 C 35.131,15.777 35.282,15.912 35.454,16.064 C 35.677,16.262 35.933,16.49 35.933,16.638 C 35.933,16.685 35.909,16.733 35.823,16.733 C 35.701,16.733 35.528,16.704 35.343,16.673 A 4.061,4.061 0 0,0 34.736,16.602 C 34.662,16.602 34.625,16.638 34.625,16.685 C 34.625,16.77 34.672,16.895 34.722,17.026 C 34.777,17.171 34.834,17.321 34.834,17.433 C 34.834,17.505 34.797,17.528 34.748,17.528 C 34.658,17.528 34.483,17.443 34.294,17.351 C 34.074,17.242 33.834,17.125 33.687,17.125 C 33.587,17.125 33.513,17.195 33.513,17.303 Z M 20.673,13.261 C 20.673,13.19 20.303,13.118 19.797,13.118 C 19.37,13.118 19.202,13.3 19.045,13.471 C 18.907,13.621 18.778,13.761 18.49,13.761 C 18.188,13.761 18.064,13.613 17.932,13.457 C 17.783,13.281 17.625,13.094 17.194,13.094 C 16.7,13.094 16.244,13.178 16.244,13.284 C 16.244,13.338 16.327,13.364 16.429,13.394 C 16.599,13.447 16.824,13.516 16.824,13.761 C 16.824,13.995 16.429,14.135 16.084,14.257 C 15.816,14.352 15.579,14.437 15.579,14.545 C 15.579,14.628 15.677,14.664 15.799,14.664 C 15.931,14.664 16.1,14.636 16.275,14.607 C 16.46,14.577 16.652,14.545 16.812,14.545 C 16.985,14.545 17.145,14.58 17.145,14.735 C 17.145,14.892 16.959,15.115 16.784,15.326 C 16.627,15.515 16.479,15.693 16.479,15.806 C 16.479,15.876 16.54,15.901 16.602,15.901 C 16.711,15.901 16.853,15.783 17.012,15.651 C 17.214,15.483 17.442,15.294 17.663,15.294 C 18.039,15.294 18.056,15.738 18.071,16.116 C 18.081,16.395 18.091,16.637 18.243,16.637 C 18.412,16.637 18.47,16.364 18.534,16.065 C 18.61,15.709 18.694,15.318 18.983,15.318 C 19.22,15.318 19.423,15.592 19.607,15.84 C 19.759,16.045 19.897,16.233 20.032,16.233 C 20.106,16.233 20.168,16.173 20.168,16.09 C 20.168,15.975 20.088,15.803 20.003,15.618 C 19.903,15.405 19.797,15.175 19.797,14.997 C 19.797,14.795 19.945,14.699 20.143,14.699 C 20.295,14.699 20.476,14.747 20.643,14.792 C 20.788,14.83 20.921,14.866 21.018,14.866 C 21.092,14.866 21.166,14.842 21.166,14.759 C 21.166,14.625 20.926,14.487 20.67,14.339 C 20.38,14.171 20.069,13.992 20.069,13.796 C 20.069,13.576 20.285,13.486 20.459,13.416 C 20.575,13.368 20.673,13.328 20.673,13.261 Z M 23.573,14.474 C 23.573,14.687 24.349,15.151 24.707,15.151 C 24.917,15.151 24.978,14.878 24.978,14.592 C 24.978,14.236 24.818,14.224 24.498,14.224 C 24.09,14.224 23.572,14.331 23.572,14.474 Z M 24.855,16.827 C 24.855,16.445 24.282,15.897 23.745,15.384 C 23.28,14.938 22.842,14.52 22.832,14.26 C 22.83,14.209 22.858,14.158 22.903,14.112 C 23.063,13.95 23.456,13.809 23.831,13.674 C 24.263,13.518 24.671,13.372 24.671,13.213 C 24.671,13.059 24.374,13.059 24.225,13.059 C 23.079,13.059 21.401,13.463 21.401,13.855 C 21.401,14.048 21.743,14.373 22.101,14.714 C 22.494,15.087 22.906,15.479 22.906,15.734 C 22.906,15.865 22.819,15.912 22.683,15.912 C 22.475,15.912 22.146,15.792 21.813,15.672 C 21.477,15.549 21.137,15.425 20.92,15.425 C 20.722,15.425 20.648,15.555 20.648,15.745 C 20.648,16.072 20.878,16.565 21.075,16.988 C 21.222,17.305 21.351,17.581 21.351,17.718 C 21.351,17.754 21.339,17.802 21.29,17.802 C 21.193,17.802 20.938,17.575 20.652,17.32 C 20.282,16.99 19.858,16.613 19.649,16.613 C 19.513,16.613 19.501,16.791 19.501,17.053 V 17.457 C 19.501,17.731 19.488,17.897 19.353,17.897 C 19.191,17.897 19.073,17.676 18.956,17.457 C 18.842,17.242 18.728,17.029 18.576,17.029 C 18.414,17.029 18.318,17.423 18.223,17.814 C 18.13,18.196 18.038,18.574 17.885,18.574 C 17.705,18.574 17.694,18.142 17.683,17.714 C 17.673,17.292 17.662,16.874 17.49,16.874 C 17.283,16.874 17.06,17.207 16.858,17.512 C 16.686,17.768 16.528,18.004 16.404,18.004 C 16.306,18.004 16.282,17.909 16.282,17.826 C 16.282,17.652 16.335,17.424 16.388,17.198 C 16.439,16.975 16.491,16.755 16.491,16.59 C 16.491,16.423 16.441,16.328 16.294,16.328 C 16.094,16.328 15.77,16.49 15.459,16.645 C 15.176,16.787 14.905,16.923 14.752,16.923 C 14.702,16.923 14.641,16.899 14.641,16.851 C 14.641,16.721 14.921,16.461 15.226,16.181 C 15.588,15.845 15.986,15.478 15.986,15.258 C 15.986,15.068 15.554,15.032 15.108,14.994 C 14.63,14.952 14.134,14.91 14.134,14.676 C 14.134,14.487 14.459,14.296 14.787,14.102 C 15.12,13.906 15.455,13.708 15.455,13.511 C 15.455,13.166 13.888,13.011 13.284,13.011 C 12.555,13.011 12.161,13.094 12.161,13.297 C 12.161,13.457 12.601,13.559 13.027,13.658 C 13.427,13.752 13.814,13.842 13.814,13.974 C 13.814,14.091 13.474,14.295 13.095,14.521 C 12.626,14.802 12.1,15.117 12.1,15.341 C 12.1,15.518 12.694,15.525 13.294,15.533 C 13.903,15.54 14.517,15.548 14.517,15.733 C 14.517,15.917 14.082,16.378 13.607,16.881 C 13.036,17.485 12.408,18.149 12.408,18.467 C 12.408,18.599 12.508,18.657 12.642,18.657 C 12.99,18.657 13.639,18.312 14.233,17.995 C 14.734,17.728 15.196,17.481 15.405,17.481 C 15.565,17.481 15.579,17.671 15.579,17.837 C 15.579,17.988 15.552,18.177 15.525,18.373 C 15.497,18.578 15.467,18.79 15.467,18.967 C 15.467,19.24 15.541,19.431 15.787,19.431 C 16.039,19.431 16.278,19.205 16.494,19.001 C 16.672,18.834 16.834,18.681 16.972,18.681 C 17.149,18.681 17.2,19.126 17.255,19.615 C 17.323,20.215 17.399,20.881 17.725,20.881 C 18.006,20.881 18.196,20.143 18.365,19.491 C 18.498,18.971 18.619,18.503 18.761,18.503 C 18.925,18.503 19.073,18.683 19.217,18.859 C 19.357,19.028 19.492,19.193 19.637,19.193 C 19.819,19.193 19.869,18.903 19.921,18.607 C 19.974,18.302 20.029,17.993 20.229,17.993 C 20.431,17.993 20.809,18.305 21.211,18.638 C 21.667,19.016 22.154,19.419 22.45,19.419 C 22.622,19.419 22.683,19.288 22.683,19.121 C 22.683,18.781 22.416,18.206 22.171,17.679 C 21.963,17.233 21.771,16.821 21.771,16.613 C 21.771,16.495 21.808,16.459 21.943,16.459 C 22.164,16.459 22.581,16.594 23.032,16.741 C 23.562,16.913 24.137,17.101 24.497,17.101 C 24.719,17.101 24.855,16.981 24.855,16.827 Z M 13.591,16.138 C 13.591,16.376 12.654,17.172 12.321,17.172 C 12.199,17.172 12.161,17.029 12.161,16.899 C 12.161,16.661 12.272,16.329 12.408,16.221 C 12.568,16.078 12.938,16.008 13.222,16.008 C 13.394,16.008 13.592,16.043 13.592,16.138 Z M 22.659,17.362 C 22.659,17.778 24.201,19.811 24.497,19.811 C 24.744,19.811 24.928,19.395 24.928,19.038 A 0.473,0.473 0 0,0 24.855,18.777 C 24.633,18.48 23.067,17.291 22.721,17.291 C 22.683,17.291 22.659,17.327 22.659,17.362 Z M 43.469,24.447 C 42.987,24.483 41.212,22.961 41.051,21.832 C 41.533,21.88 43.025,21.654 43.593,20.547 C 43.919,20.657 43.917,21.092 43.914,21.664 V 21.832 C 43.914,22.973 43.79,24.421 43.469,24.447 Z M 43.605,19.478 C 43.605,20.346 42.432,21.333 41.15,21.333 C 40.669,21.333 40.336,21.19 40.336,20.857 C 40.336,20.714 40.459,20.441 40.866,20.441 C 41.99,20.441 43.025,19.716 43.025,19.061 C 43.025,18.872 42.987,18.789 42.901,18.681 C 43.407,18.741 43.605,19.074 43.605,19.478 Z M 40.323,19.728 C 40.459,19.989 40.706,19.989 40.879,19.989 C 41.398,19.989 42.493,19.562 42.493,19.038 C 42.493,18.872 42.407,18.705 42.138,18.705 C 41.95,18.705 41.736,18.784 41.506,18.868 C 41.236,18.967 40.944,19.074 40.644,19.074 C 40.471,19.074 40.249,19.074 40.039,19.014 C 40.169,19.11 40.204,19.279 40.239,19.445 C 40.259,19.547 40.281,19.647 40.323,19.728 Z M 13.653,28.295 C 13.556,28.831 13.469,29.309 13.285,29.309 C 13.174,29.309 13.038,29.262 13.038,28.702 C 13.038,28.364 13.058,28.115 13.073,27.94 C 13.081,27.844 13.087,27.77 13.087,27.716 C 13.087,27.621 13.05,27.55 12.939,27.55 C 12.557,27.55 12.249,28.87 12.249,30.177 C 12.249,31.652 12.545,32.566 12.927,32.566 C 13.309,32.566 13.852,31.675 13.852,31.342 C 13.852,31.226 13.795,31.142 13.721,31.032 A 3.893,3.893 0 0,1 13.667,30.95 C 13.371,30.486 13.655,29.964 13.89,29.964 C 14.083,29.964 14.164,30.064 14.288,30.216 C 14.369,30.316 14.468,30.437 14.629,30.569 A 0.536,0.536 0 0,1 14.851,31.009 C 14.851,31.339 14.567,31.724 14.221,32.19 C 13.685,32.915 13.001,33.839 13.001,35.075 C 13.001,36.847 14.051,37.521 14.669,37.918 C 14.871,38.048 15.028,38.148 15.086,38.248 C 15.713,37.151 15.138,36.648 14.54,36.128 C 13.914,35.582 13.264,35.014 13.939,33.719 C 14.234,34.314 14.555,34.385 15.345,34.433 C 14.863,34.028 14.802,33.696 14.802,33.375 C 14.802,32.815 15.319,31.86 15.729,31.104 C 15.779,31.009 15.829,30.918 15.876,30.831 C 16.418,29.821 17.035,28.311 17.035,27.669 C 17.035,27.395 16.924,27.264 16.8,27.264 C 16.665,27.264 16.517,27.443 16.405,27.776 C 16.209,28.418 15.592,29.701 15.283,29.701 C 15.222,29.701 15.197,29.641 15.197,29.571 C 15.197,29.351 15.366,28.866 15.544,28.357 C 15.741,27.792 15.949,27.197 15.949,26.897 C 15.949,26.741 15.876,26.587 15.715,26.587 C 15.428,26.587 15.138,27.46 14.886,28.217 C 14.693,28.797 14.523,29.31 14.395,29.31 C 14.284,29.31 14.222,29.238 14.222,29.012 C 14.222,28.798 14.286,28.502 14.352,28.19 C 14.427,27.842 14.506,27.476 14.506,27.181 C 14.506,26.991 14.456,26.837 14.296,26.837 C 13.916,26.837 13.776,27.612 13.653,28.295 Z M 16.428,32.792 C 16.948,32.792 17.378,32.423 17.378,31.604 V 30.39 C 17.378,29.926 17.415,29.404 17.737,29.035 C 17.7,29.189 17.7,29.356 17.7,29.51 C 17.7,30.026 17.85,30.46 18,30.89 C 18.146,31.313 18.291,31.732 18.291,32.22 C 18.291,32.589 18.181,32.791 17.885,32.791 C 17.691,32.791 17.641,32.675 17.609,32.601 C 17.594,32.566 17.583,32.541 17.563,32.541 C 17.514,32.541 17.44,32.696 17.44,32.863 C 17.44,33.112 17.625,33.504 18.143,33.504 C 18.588,33.504 18.945,33.112 18.945,32.672 C 18.945,32.146 18.736,31.592 18.524,31.027 C 18.304,30.445 18.082,29.853 18.082,29.273 C 18.082,28.773 18.217,28.44 18.328,28.178 C 18.328,29.617 19.098,30.817 19.703,31.759 C 20.093,32.367 20.413,32.867 20.413,33.254 C 20.413,33.48 20.241,33.659 19.982,33.659 C 19.698,33.659 19.562,33.445 19.562,33.278 C 19.562,33.195 19.549,33.171 19.512,33.171 C 19.439,33.171 19.217,33.409 19.217,33.719 C 19.217,34.11 19.549,34.586 20.167,34.586 C 20.869,34.586 21.252,34.015 21.252,33.504 C 21.252,32.955 20.762,32.282 20.214,31.527 C 19.516,30.567 18.723,29.477 18.723,28.345 C 18.723,28 18.784,27.442 19.043,27.014 C 17.415,28.024 16.91,29.368 16.91,30.544 C 16.91,31.567 16.873,32.077 16.33,32.077 C 16.152,32.077 16.056,31.979 15.985,31.906 C 15.943,31.863 15.91,31.828 15.873,31.828 C 15.799,31.828 15.763,32.042 15.763,32.101 C 15.763,32.541 16.096,32.791 16.428,32.791 Z M 38.758,20.536 C 38.758,20.679 38.351,20.916 37.808,20.916 C 36.894,20.916 36.301,20.441 36.301,20.132 C 36.301,20.096 36.326,20.072 36.375,20.072 C 36.439,20.072 36.549,20.108 36.695,20.155 C 36.887,20.217 37.142,20.299 37.437,20.346 C 38.042,20.441 38.363,20.453 38.524,20.453 C 38.684,20.453 38.759,20.489 38.759,20.536 Z M 35.438,19.362 C 35.281,19.369 35.17,19.374 35.118,19.407 C 35.082,19.43 35.044,19.454 35.044,19.526 C 35.044,20.418 36.033,21.796 37.672,21.796 C 38.796,21.796 39.744,21.428 39.744,20.821 C 39.744,20.298 39.213,19.181 38.845,19.181 C 38.735,19.181 38.592,19.235 38.438,19.293 C 38.261,19.359 38.071,19.43 37.907,19.43 C 37.713,19.43 37.641,19.317 37.567,19.2 C 37.49,19.08 37.411,18.955 37.19,18.955 A 0.68,0.68 0 0,0 36.87,19.038 C 36.267,19.325 35.757,19.348 35.438,19.362 Z M 16.688,37.274 C 16.281,37.369 15.627,37.986 15.627,38.962 C 15.627,40.127 16.922,41.922 19.057,41.922 C 20.857,41.922 21.301,40.722 21.301,39.912 C 21.301,38.117 20.154,36.857 18.661,36.857 C 17.848,36.857 17.12,37.429 17.12,38.272 C 17.12,39.057 17.736,40.234 19.205,40.234 C 19.895,40.234 20.302,39.758 20.302,39.212 C 20.302,38.677 19.797,37.94 19.056,37.94 C 18.834,37.94 18.674,38.082 18.674,38.308 C 18.674,38.593 19.081,38.878 19.587,38.878 A 0.681,0.681 0 0,0 19.858,38.831 A 0.278,0.278 0 0,1 19.895,38.974 C 19.895,39.248 19.623,39.414 19.205,39.414 C 18.575,39.414 17.97,38.962 17.97,38.248 C 17.97,37.821 18.353,37.512 18.908,37.512 C 20.006,37.512 20.66,38.451 20.66,39.39 C 20.66,40.234 20.18,40.722 19.192,40.722 C 17.218,40.722 16.256,39.01 16.687,37.274 Z M 30.307,42.338 A 0.486,0.486 0 0,1 29.813,41.863 C 29.813,41.601 30.036,41.387 30.307,41.387 S 30.8,41.601 30.8,41.863 A 0.486,0.486 0 0,1 30.307,42.338 Z M 31.361,44.205 C 31.272,44.219 31.149,44.239 30.77,44.239 C 30.079,44.239 28.974,43.977 28.468,42.837 C 28.382,42.647 28.235,42.647 28.185,42.647 C 28.087,42.647 27.973,42.742 27.811,42.879 C 27.404,43.222 26.691,43.824 25.138,43.824 C 24.225,43.824 23.806,43.503 23.806,43.419 C 23.806,43.407 23.806,43.396 23.855,43.396 C 23.882,43.396 23.933,43.399 24.003,43.404 C 24.158,43.414 24.405,43.431 24.694,43.431 C 26.064,43.431 27.174,42.825 27.84,42.125 C 28.074,41.875 28.185,41.839 28.382,41.839 C 28.555,41.839 28.739,41.982 28.826,42.208 C 29.136,42.968 29.838,43.574 30.603,43.574 C 31.311,43.574 31.541,42.774 31.694,42.242 C 31.765,41.995 31.82,41.806 31.898,41.78 A 0.559,0.559 0 0,0 32.047,41.803 C 32.169,41.803 32.367,41.72 32.367,41.493 C 32.367,41.343 32.243,41.258 32.135,41.187 C 32.075,41.146 32.019,41.109 31.997,41.065 C 31.957,40.994 31.941,40.905 31.924,40.818 C 31.889,40.63 31.854,40.448 31.602,40.448 C 31.361,40.448 31.332,40.63 31.307,40.783 L 31.306,40.793 C 30.776,40.639 30.331,40.567 29.936,40.567 C 29.653,40.567 29.406,40.603 29.196,40.674 C 29.048,40.436 28.444,39.972 27.914,39.805 C 27.704,40.876 26.704,41.72 25.224,41.839 C 25.138,42.539 24.571,42.718 24.126,42.718 C 23.806,42.718 23.3,42.611 23.276,42.492 C 23.09,41.482 22.3,40.912 21.955,40.782 C 21.967,40.889 21.98,41.006 21.98,41.112 C 21.98,41.969 21.375,42.504 20.24,42.504 C 20.056,42.504 19.821,42.492 19.648,42.456 C 20.561,43.437 21.291,43.472 21.853,43.499 C 22.089,43.51 22.295,43.52 22.473,43.597 C 22.676,43.685 22.868,43.82 23.084,43.972 C 23.714,44.414 24.552,45 26.434,45 C 27.359,45 28.296,44.655 28.913,44.275 C 29.023,44.632 29.406,44.953 30.036,44.953 C 31.108,44.953 31.713,44.632 31.713,44.37 C 31.713,44.298 31.701,44.191 31.516,44.191 A 0.856,0.856 0 0,0 31.361,44.205 Z M 38.252,36.667 C 38.162,36.667 37.932,36.888 37.631,37.177 C 37.062,37.722 36.241,38.51 35.637,38.51 C 35.415,38.51 35.23,38.105 35.23,37.798 C 35.23,37.631 35.34,37.512 35.736,37.428 C 36.784,37.199 37.2,36.709 37.571,36.272 C 37.951,35.824 38.283,35.431 39.201,35.431 C 40.199,35.431 41.311,36.085 41.311,37.559 C 41.311,39.129 38.993,41.078 38.647,41.078 C 38.363,41.078 38.055,40.686 38.055,40.424 C 38.055,40.341 38.092,40.234 38.339,40.139 C 39.521,39.686 40.199,38.641 40.199,38.105 C 40.199,37.986 40.139,37.869 39.977,37.869 C 39.912,37.869 39.778,38.063 39.595,38.329 C 39.195,38.913 38.555,39.841 37.87,39.841 C 37.178,39.841 36.474,39.236 36.474,38.951 C 36.474,38.732 36.894,38.43 37.348,38.102 C 37.886,37.714 38.474,37.29 38.474,36.929 C 38.474,36.679 38.351,36.667 38.252,36.667 Z M 39.582,35.93 C 39.41,35.93 39.225,36.061 39.225,36.383 C 39.225,36.738 39.509,36.964 39.67,37.036 A 0.788,0.788 0 0,0 40.026,37.131 C 40.385,37.131 40.669,37.036 40.669,36.751 C 40.669,36.383 40.113,35.931 39.583,35.931 Z M 17.034,22.64 A 0.487,0.487 0 0,1 16.54,22.165 C 16.54,21.903 16.763,21.689 17.034,21.689 S 17.527,21.903 17.527,22.165 A 0.486,0.486 0 0,1 17.035,22.641 Z M 16.392,21.57 A 0.486,0.486 0 0,1 15.899,21.095 C 15.899,20.834 16.121,20.619 16.392,20.619 C 16.664,20.619 16.886,20.834 16.886,21.095 A 0.487,0.487 0 0,1 16.392,21.57 Z M 14.579,25.35 C 14.579,24.756 15.171,24.423 15.455,24.352 C 15.405,24.495 15.369,24.649 15.369,24.899 C 15.369,25.255 15.492,25.612 15.837,25.933 C 15.739,26.004 15.579,26.052 15.357,26.052 C 14.924,26.052 14.579,25.778 14.579,25.35 Z M 12.421,24.697 C 12.421,24.637 12.421,24.578 12.433,24.519 C 12.729,24.911 13.223,25.029 13.678,25.029 C 13.827,25.029 13.987,25.017 14.122,24.994 C 13.802,25.386 13.444,25.564 13.136,25.564 C 12.729,25.564 12.421,25.255 12.421,24.697 Z M 12.791,26.907 C 12.285,26.907 12.001,26.48 12.001,25.577 C 12.371,26.123 12.716,26.289 13.161,26.289 C 13.493,26.289 13.864,26.219 14.344,26.111 C 13.716,26.634 13.185,26.908 12.79,26.908 Z M 15.307,20.132 C 15.307,20.394 15.257,20.631 15.197,20.822 C 14.344,20.822 13.37,20.442 13.37,19.502 C 13.37,19.062 13.716,18.693 14.197,18.693 C 15.035,18.693 15.307,19.562 15.307,20.132 Z M 13.296,22.89 C 13.296,23.33 13.74,23.817 14.146,23.817 C 14.369,23.817 14.604,23.698 14.604,23.615 C 14.604,23.595 14.585,23.583 14.556,23.565 L 14.542,23.555 C 14.172,23.39 13.777,23.056 13.703,22.475 C 13.691,22.391 13.666,22.355 13.617,22.355 C 13.481,22.355 13.296,22.652 13.296,22.89 Z M 15.438,22.513 C 15.378,22.463 15.318,22.413 15.283,22.367 C 15.218,22.282 15.183,22.184 15.154,22.097 C 15.121,22.003 15.094,21.923 15.035,21.892 A 0.306,0.306 0 0,0 14.85,21.844 C 14.666,21.844 14.53,21.868 14.53,22.094 C 14.53,22.45 14.875,23.08 15.307,23.08 C 15.504,23.08 15.603,22.866 15.603,22.7 C 15.603,22.65 15.522,22.583 15.438,22.513 Z M 12.347,23.973 C 12.347,23.924 12.361,23.878 12.384,23.841 C 12.43,23.768 12.452,23.638 12.48,23.474 C 12.559,23.02 12.682,22.304 13.469,21.82 C 14.01,21.488 14.493,21.44 14.899,21.44 C 14.999,21.44 15.097,21.443 15.171,21.451 C 15.216,21.456 15.259,21.461 15.3,21.464 C 15.46,21.479 15.582,21.49 15.628,21.534 C 15.673,21.578 15.686,21.641 15.7,21.714 C 15.718,21.804 15.739,21.909 15.825,22.022 C 15.888,22.106 15.957,22.152 16.017,22.19 C 16.104,22.248 16.171,22.292 16.171,22.426 C 16.171,22.605 15.825,23.663 14.937,24.091 C 14.517,24.293 14.184,24.376 13.901,24.376 C 13.631,24.376 13.408,24.312 13.211,24.256 C 13.058,24.213 12.921,24.174 12.791,24.174 A 0.41,0.41 0 0,0 12.721,24.183 A 0.749,0.749 0 0,1 12.581,24.198 C 12.471,24.198 12.347,24.078 12.347,23.972 Z M 15.924,24.733 C 15.924,24.198 16.207,23.674 16.479,23.366 C 17.096,23.544 17.849,24.103 17.849,24.899 C 17.849,25.409 17.564,25.909 16.96,25.909 C 16.331,25.909 15.924,25.374 15.924,24.732 Z M 13.037,21.344 C 13.481,21.344 13.839,21.083 13.839,21.083 C 13.123,20.881 12.729,20.37 12.729,19.693 C 12.729,19.621 12.729,19.562 12.741,19.49 C 12.285,19.68 12.087,20.06 12.087,20.43 C 12.087,20.964 12.507,21.344 13.037,21.344 Z M 35.589,25.029 C 35.589,25.303 35.824,25.529 36.104,25.529 A 0.513,0.513 0 0,0 36.624,25.029 A 0.512,0.512 0 0,0 36.104,24.531 A 0.512,0.512 0 0,0 35.589,25.029 Z M 35.626,26.527 C 35.626,26.837 35.886,27.087 36.204,27.087 C 36.524,27.087 36.784,26.837 36.784,26.527 A 0.57,0.57 0 0,0 36.204,25.969 A 0.569,0.569 0 0,0 35.626,26.527 Z M 33.848,27.537 C 33.848,27.989 34.231,28.358 34.7,28.358 S 35.552,27.989 35.552,27.538 C 35.552,27.086 35.169,26.718 34.7,26.718 C 34.23,26.718 33.848,27.086 33.848,27.538 Z M 34.305,25.862 C 34.305,26.123 34.527,26.337 34.799,26.337 A 0.486,0.486 0 0,0 35.292,25.862 A 0.486,0.486 0 0,0 34.799,25.386 A 0.486,0.486 0 0,0 34.305,25.862 Z M 32.689,26.812 C 32.689,27.074 32.912,27.288 33.181,27.288 A 0.486,0.486 0 0,0 33.675,26.813 A 0.486,0.486 0 0,0 33.181,26.337 A 0.486,0.486 0 0,0 32.689,26.813 Z M 33.959,24.032 C 33.959,24.448 34.317,24.792 34.749,24.792 C 35.182,24.792 35.539,24.447 35.539,24.032 C 35.539,23.615 35.182,23.27 34.749,23.27 C 34.317,23.27 33.959,23.615 33.959,24.032 Z M 34.885,22.569 C 34.885,22.819 35.095,23.02 35.355,23.02 A 0.46,0.46 0 0,0 35.824,22.569 C 35.824,22.319 35.614,22.117 35.354,22.117 A 0.46,0.46 0 0,0 34.885,22.569 Z M 32.653,23.71 C 32.653,23.96 32.863,24.162 33.119,24.162 A 0.46,0.46 0 0,0 33.589,23.71 A 0.46,0.46 0 0,0 33.119,23.259 A 0.46,0.46 0 0,0 32.653,23.71 Z M 32.591,25.255 C 32.591,25.66 32.925,25.981 33.341,25.981 C 33.761,25.981 34.095,25.66 34.095,25.255 C 34.095,24.852 33.761,24.531 33.341,24.531 C 32.925,24.531 32.591,24.851 32.591,25.255 Z M 31.036,26.016 C 31.036,26.386 31.356,26.693 31.739,26.693 C 32.121,26.693 32.443,26.385 32.443,26.016 C 32.443,25.648 32.121,25.339 31.739,25.339 C 31.356,25.339 31.036,25.648 31.036,26.016 Z M 31.456,24.34 C 31.456,24.602 31.678,24.816 31.948,24.816 A 0.487,0.487 0 0,0 32.443,24.34 A 0.487,0.487 0 0,0 31.948,23.865 A 0.486,0.486 0 0,0 31.455,24.34 Z M 35.786,28.001 C 35.786,27.764 36.009,27.561 36.253,27.561 C 36.525,27.561 36.734,27.764 36.734,28.001 C 36.734,28.275 36.524,28.465 36.253,28.465 A 0.463,0.463 0 0,1 35.786,28.001 Z M 36.241,41.922 C 36.241,41.708 36.166,41.672 36.104,41.672 C 36.09,41.672 36.059,41.689 36.01,41.715 C 35.83,41.812 35.406,42.041 34.639,42.041 H 34.478 L 34.484,42.097 C 34.494,42.175 34.502,42.237 34.502,42.315 C 34.502,42.599 34.428,42.896 34.329,43.181 C 34.947,43.171 35.367,43.004 35.675,42.801 C 36.117,42.528 36.241,42.184 36.241,41.922 Z M 36.327,40.151 C 36.327,40.281 36.304,40.414 36.204,40.495 C 35.885,40.758 35.404,40.888 34.873,40.888 C 34.206,40.888 33.663,40.662 33.663,40.436 V 39.889 C 33.663,39.722 34.144,39.331 35.045,39.331 C 35.786,39.331 36.327,39.532 36.327,39.877 V 40.15 Z M 34.527,41.398 A 3.713,3.713 0 0,0 36.845,40.627 C 37.13,40.627 37.525,40.888 37.525,41.53 C 37.525,42.658 35.799,44.048 33.49,44.048 C 32.777,44.048 32.394,43.574 32.394,43.098 C 32.394,42.422 32.777,41.804 33.07,41.47 C 33.205,41.315 33.341,41.196 33.465,41.196 C 33.492,41.196 33.535,41.212 33.597,41.235 C 33.757,41.293 34.046,41.398 34.527,41.398 Z M 37.277,30.628 C 37.277,30.926 37.377,31.271 37.685,31.271 C 37.945,31.271 38.167,30.891 38.167,30.474 C 38.167,30.184 38.134,29.932 38.109,29.737 A 2.65,2.65 0 0,1 38.08,29.44 C 38.08,29.357 38.117,29.321 38.167,29.321 C 38.257,29.327 38.344,29.445 38.432,29.565 C 38.526,29.692 38.621,29.82 38.722,29.82 C 38.847,29.82 39.007,29.697 39.146,29.588 C 39.255,29.503 39.352,29.428 39.411,29.428 C 39.448,29.428 39.461,29.475 39.461,29.488 C 39.461,29.58 39.384,29.73 39.311,29.875 C 39.242,30.009 39.177,30.138 39.177,30.213 C 39.177,30.279 39.364,30.318 39.547,30.356 C 39.722,30.393 39.893,30.428 39.893,30.486 C 39.893,30.59 39.639,30.633 39.357,30.682 C 39.154,30.717 38.935,30.754 38.784,30.819 C 38.439,30.962 38.228,31.14 38.228,31.378 C 38.228,31.616 38.475,31.663 38.822,31.663 C 39.381,31.663 39.828,31.466 40.115,31.339 C 40.251,31.279 40.351,31.235 40.41,31.235 C 40.447,31.235 40.472,31.259 40.472,31.295 C 40.472,31.348 40.387,31.457 40.294,31.576 C 40.18,31.723 40.052,31.886 40.052,31.984 C 40.052,32.097 40.292,32.221 40.502,32.329 C 40.666,32.414 40.812,32.489 40.806,32.542 C 40.794,32.578 40.744,32.589 40.658,32.589 C 40.592,32.589 40.51,32.581 40.425,32.573 C 40.332,32.563 40.235,32.554 40.151,32.554 C 40.052,32.554 39.966,32.566 39.929,32.614 C 39.893,32.653 39.891,32.782 39.889,32.921 C 39.886,33.121 39.883,33.339 39.782,33.339 C 39.735,33.339 39.666,33.219 39.568,33.049 C 39.331,32.639 38.924,31.936 38.253,31.936 C 38.117,31.936 38.019,32.043 38.019,32.222 C 38.019,32.697 38.5,33.244 38.957,33.505 C 39.035,33.555 39.133,33.605 39.225,33.65 C 39.376,33.727 39.51,33.794 39.51,33.839 C 39.51,33.9 39.36,33.91 39.192,33.922 C 38.973,33.937 38.722,33.954 38.722,34.087 C 38.722,34.197 38.749,34.337 38.774,34.471 C 38.798,34.598 38.822,34.721 38.822,34.813 C 38.822,34.873 38.809,34.943 38.735,34.943 C 38.664,34.943 38.545,34.793 38.42,34.636 C 38.286,34.466 38.145,34.29 38.055,34.29 C 37.98,34.29 37.86,34.392 37.742,34.492 C 37.628,34.588 37.517,34.682 37.45,34.682 C 37.414,34.682 37.39,34.646 37.39,34.612 C 37.39,34.502 37.463,34.336 37.551,34.138 C 37.683,33.843 37.846,33.476 37.846,33.113 C 37.846,32.828 37.809,32.209 37.45,32.209 C 37.154,32.209 36.82,32.661 36.672,33.113 C 36.64,33.211 36.628,33.415 36.616,33.632 C 36.596,33.992 36.574,34.385 36.451,34.385 C 36.365,34.385 36.329,34.239 36.291,34.083 C 36.247,33.902 36.2,33.707 36.067,33.707 C 35.97,33.707 35.811,33.8 35.663,33.885 C 35.536,33.959 35.417,34.028 35.354,34.028 C 35.33,34.028 35.304,34.016 35.304,33.993 C 35.304,33.914 35.414,33.739 35.511,33.581 C 35.591,33.451 35.663,33.334 35.663,33.291 C 35.663,33.197 35.436,33.146 35.222,33.098 C 35.03,33.055 34.848,33.014 34.848,32.947 C 34.848,32.863 35.168,32.804 35.465,32.757 C 36.093,32.649 37.019,32.209 37.019,31.592 C 37.019,30.998 36.505,30.695 36.073,30.44 A 8.173,8.173 0 0,1 35.873,30.32 C 35.819,30.286 35.763,30.254 35.709,30.224 C 35.532,30.124 35.379,30.036 35.379,29.964 C 35.379,29.868 35.676,29.868 35.799,29.868 C 35.984,29.868 36.167,29.856 36.167,29.714 C 36.167,29.666 36.162,29.597 36.157,29.52 C 36.149,29.425 36.141,29.319 36.141,29.226 C 36.141,29.107 36.154,29.012 36.204,29.012 C 36.305,29.012 36.43,29.188 36.542,29.347 C 36.633,29.477 36.716,29.594 36.772,29.594 C 36.872,29.594 36.991,29.472 37.109,29.351 C 37.223,29.234 37.335,29.119 37.426,29.119 C 37.487,29.119 37.512,29.155 37.512,29.262 C 37.512,29.482 37.452,29.719 37.394,29.954 C 37.335,30.186 37.278,30.416 37.278,30.629 Z M 31.393,27.146 C 31.457,27.62 31.801,27.759 32.147,27.899 C 32.54,28.059 32.937,28.219 32.937,28.869 C 32.937,28.953 32.926,29.056 32.914,29.165 C 32.901,29.286 32.888,29.415 32.888,29.535 C 32.888,29.797 32.912,30.023 33.119,30.023 C 33.329,30.023 33.379,29.88 33.379,29.69 C 33.379,29.585 33.364,29.467 33.35,29.36 C 33.34,29.271 33.329,29.19 33.329,29.131 C 33.329,28.715 33.638,28.62 33.823,28.62 C 34.034,28.62 34.223,28.714 34.43,28.817 C 34.684,28.943 34.967,29.084 35.354,29.084 C 35.277,29.448 34.863,29.591 34.452,29.734 C 34.006,29.888 33.563,30.041 33.563,30.474 C 33.563,30.891 33.996,30.985 34.28,30.985 C 34.54,30.985 34.626,30.949 34.626,30.736 C 34.626,30.671 34.619,30.603 34.612,30.54 C 34.606,30.488 34.601,30.44 34.601,30.403 C 34.601,30.355 34.638,30.308 34.701,30.308 C 34.971,30.308 36.302,31.282 36.302,31.58 C 36.302,31.853 34.897,32.126 34.49,32.126 C 34.367,32.126 34.342,32.043 34.342,31.996 C 34.342,31.96 34.382,31.892 34.426,31.816 C 34.484,31.716 34.552,31.601 34.552,31.52 C 34.552,31.414 34.367,31.342 33.872,31.342 C 33.638,31.342 33.465,31.366 33.465,31.545 C 33.465,31.708 33.606,31.89 33.745,32.068 C 33.878,32.24 34.008,32.408 34.008,32.554 C 34.008,32.792 33.86,32.934 33.465,32.934 C 33.131,32.934 32.628,32.684 32.628,32.269 C 32.628,32.082 32.74,31.895 32.838,31.732 C 32.915,31.604 32.984,31.49 32.984,31.402 C 32.984,31.342 32.937,31.247 32.789,31.247 C 32.626,31.247 32.506,31.393 32.346,31.588 C 32.056,31.943 31.634,32.458 30.591,32.542 C 30.851,32.317 31.073,32.067 31.073,31.556 C 31.073,31.434 31.058,31.323 31.043,31.21 A 2.77,2.77 0 0,1 31.011,30.83 C 31.011,30.474 31.184,30.296 31.431,30.296 C 31.683,30.296 31.864,30.485 32.025,30.654 C 32.155,30.79 32.273,30.914 32.405,30.914 A 0.349,0.349 0 0,0 32.739,30.557 C 32.739,30.144 32.362,29.947 31.953,29.734 C 31.468,29.48 30.937,29.203 30.937,28.513 C 30.937,28.168 31.06,27.74 31.393,27.146 Z M 34.033,35.17 A 0.29,0.29 0 0,1 33.737,34.872 C 33.737,34.822 33.754,34.757 33.772,34.69 C 33.788,34.632 33.805,34.571 33.81,34.516 C 33.818,34.469 33.82,34.423 33.822,34.381 C 33.826,34.287 33.828,34.218 33.897,34.218 C 34.119,34.218 34.355,34.564 34.355,34.813 C 34.355,35.003 34.231,35.17 34.033,35.17 Z M 35.095,35.348 C 35.095,34.468 34.391,33.529 33.095,33.291 A 0.9,0.9 0 0,1 33.329,33.897 C 33.329,34.155 33.227,34.415 33.125,34.673 C 33.025,34.929 32.925,35.183 32.925,35.431 C 32.925,36.097 33.379,36.512 34.008,36.512 C 34.7,36.512 35.095,35.955 35.095,35.348 Z M 31.615,35.668 A 0.47,0.47 0 0,0 31.455,35.313 C 32.17,35.313 32.653,35.753 32.653,36.205 C 32.653,36.512 32.418,36.775 32.072,36.775 A 0.532,0.532 0 0,1 31.53,36.24 C 31.53,36.135 31.552,36.034 31.575,35.937 C 31.595,35.845 31.615,35.755 31.615,35.669 Z M 35.663,34.932 A 0.686,0.686 0 0,0 35.54,34.552 C 36.463,34.612 37.056,35.146 37.056,35.776 A 0.837,0.837 0 0,1 36.204,36.631 C 35.737,36.631 35.428,36.311 35.428,35.919 C 35.428,35.745 35.488,35.579 35.548,35.416 C 35.605,35.256 35.663,35.096 35.663,34.932 Z M 32.456,34.338 C 32.456,34.183 32.319,33.992 31.751,33.921 C 31.783,33.731 32.014,33.69 32.229,33.651 C 32.429,33.616 32.615,33.583 32.615,33.434 C 32.615,33.208 32.158,33.03 31.615,33.03 C 29.505,33.03 27.964,34.681 27.964,36.5 C 27.964,38.14 29.198,39.924 31.504,39.924 C 33.724,39.924 34.786,38.201 34.799,36.894 C 34.391,37.25 33.292,37.357 32.727,37.357 C 31.484,37.357 30.912,36.914 30.602,36.674 C 30.487,36.585 30.408,36.524 30.344,36.524 C 30.111,36.524 30.111,36.894 30.111,37.024 S 30.098,37.202 30.024,37.202 A 0.556,0.556 0 0,1 29.884,37.177 C 29.842,37.166 29.8,37.154 29.764,37.154 C 29.691,37.154 29.641,37.214 29.641,37.321 C 29.641,37.821 30.295,38.189 30.961,38.189 C 31.525,38.189 31.899,38.039 32.152,37.936 C 32.282,37.884 32.38,37.845 32.455,37.845 C 32.554,37.845 32.603,37.952 32.603,38.01 C 32.603,38.083 32.558,38.163 32.517,38.234 C 32.485,38.291 32.456,38.342 32.456,38.379 C 32.456,38.47 32.552,38.482 32.652,38.495 C 32.761,38.509 32.875,38.523 32.875,38.641 C 32.875,38.926 32.369,39.176 31.578,39.176 C 30.048,39.176 29.037,38.153 29.037,37.215 C 29.037,36.123 29.79,35.921 30.369,35.765 C 30.73,35.668 31.023,35.589 31.023,35.325 C 31.023,35.086 30.789,34.979 30.628,34.955 C 30.851,34.705 31.122,34.646 31.393,34.646 C 31.503,34.646 31.61,34.656 31.711,34.666 C 31.803,34.674 31.891,34.682 31.973,34.682 C 32.208,34.682 32.456,34.599 32.456,34.338 Z M 23.77,20.346 C 24.584,20.346 24.954,21.024 24.954,21.784 C 24.954,22.117 24.856,22.604 24.695,22.604 C 24.567,22.604 24.557,22.43 24.545,22.232 A 3.67,3.67 0 0,0 24.535,22.082 C 24.51,21.761 24.448,21.689 24.337,21.689 C 24.127,21.689 23.992,22.165 23.992,22.605 C 23.992,22.878 24.042,23.187 24.263,23.187 C 24.386,23.187 24.498,23.127 24.571,23.057 C 24.522,23.603 24.102,24.079 23.511,24.079 C 22.425,24.079 22.018,22.854 21.894,22.141 C 21.24,22.807 20.636,23.295 19.55,23.295 C 18.54,23.295 18.082,22.581 18.082,21.904 C 18.082,21.701 18.157,21.178 18.416,21.178 C 18.544,21.178 18.572,21.348 18.605,21.545 C 18.65,21.821 18.705,22.153 19.057,22.153 C 19.205,22.153 19.477,22.033 19.625,21.643 C 19.711,21.403 19.761,21.155 19.761,20.94 C 19.761,20.62 19.687,20.418 19.441,20.418 C 19.231,20.418 18.971,20.572 18.885,20.655 C 19.181,19.799 19.896,19.359 20.685,19.359 C 21.66,19.359 22.178,20.192 22.178,21.119 C 22.178,21.249 22.165,21.392 22.141,21.523 C 22.561,20.857 23.141,20.346 23.77,20.346 Z M 22.82,21.749 C 22.82,21.547 22.77,21.499 22.72,21.499 C 22.597,21.499 22.462,21.642 22.264,21.963 C 22.289,22.391 22.364,22.581 22.487,22.581 C 22.622,22.581 22.819,22.165 22.819,21.749 Z M 21.13,22.236 C 21.265,22.236 21.438,22.093 21.759,21.749 C 21.784,21.594 21.784,21.451 21.784,21.273 C 21.784,21.035 21.684,20.773 21.537,20.773 C 21.167,20.773 20.982,21.725 20.982,21.975 C 20.982,22.117 21.055,22.235 21.129,22.235 Z M 23.14,23.295 C 23.449,23.295 23.794,22.153 23.794,21.439 C 23.794,21.285 23.77,21.119 23.696,21.119 C 23.436,21.119 23.005,22.296 23.005,22.937 C 23.005,23.187 23.067,23.295 23.141,23.295 Z M 20.119,22.64 C 20.538,22.64 21.019,20.453 21.019,20.084 C 21.019,19.989 20.982,19.918 20.895,19.918 C 20.513,19.918 19.983,21.998 19.983,22.462 C 19.983,22.546 20.007,22.64 20.119,22.64 Z M 20.908,25.41 C 20.908,24.162 20.932,23.544 21.463,23.544 C 21.759,23.544 22.313,24.055 22.463,24.578 L 22.456,24.577 A 0.958,0.958 0 0,0 22.276,24.554 C 21.882,24.554 21.661,24.934 21.339,25.577 C 22.055,25.112 22.721,24.732 23.473,24.732 C 24.114,24.732 24.621,25.112 24.621,25.695 C 24.621,25.945 24.497,26.218 24.337,26.455 C 24.238,25.921 23.782,25.684 22.993,25.684 C 22.536,25.684 21.993,25.766 21.562,25.921 C 22.956,26.111 23.165,26.599 23.165,27.039 C 23.165,27.781 22.401,28.149 21.883,28.399 L 21.87,28.406 C 21.919,28.192 21.956,27.966 21.956,27.728 C 21.956,27.276 21.784,26.765 21.08,26.266 C 21.028,26.496 20.912,26.685 20.804,26.86 C 20.684,27.054 20.574,27.23 20.574,27.43 C 20.574,27.573 20.674,27.62 20.747,27.62 C 20.747,27.737 20.718,27.967 20.692,28.178 A 5.04,5.04 0 0,0 20.648,28.596 C 20.648,28.916 20.722,28.976 20.883,29.012 C 20.939,29.167 20.964,29.382 20.988,29.585 C 21.006,29.738 21.024,29.885 21.053,29.99 C 21.091,30.13 21.203,30.165 21.29,30.165 L 21.323,30.245 C 21.416,30.477 21.538,30.777 21.747,30.925 C 21.796,30.962 21.857,31.045 21.857,31.116 C 21.857,31.33 21.524,31.568 21.315,31.568 C 21.253,31.568 21.146,31.531 21.051,31.312 C 21.017,31.232 20.881,31.117 20.738,30.996 C 20.556,30.842 20.361,30.677 20.34,30.558 C 20.377,30.522 20.402,30.45 20.402,30.368 C 20.402,30.22 20.295,30.063 20.176,29.888 C 20.027,29.668 19.859,29.422 19.859,29.131 C 19.921,29.107 19.983,29.011 19.983,28.905 C 19.983,28.767 19.913,28.567 19.839,28.353 C 19.754,28.107 19.662,27.843 19.662,27.633 C 19.797,27.633 19.872,27.621 19.884,27.431 C 19.909,27.039 19.994,26.456 20.377,26.123 A 2.475,2.475 0 0,0 20.032,26.1 C 19.292,26.1 18.145,26.515 17.713,27.443 A 2.3,2.3 0 0,1 17.675,27.05 C 17.675,26.278 18.157,25.766 18.515,25.612 C 18.699,25.529 18.922,25.505 19.168,25.505 C 19.551,25.505 20.005,25.584 20.471,25.665 L 20.513,25.672 C 20.093,25.136 19.453,24.744 18.922,24.744 C 18.675,24.744 18.478,24.828 18.416,25.029 A 2.114,2.114 0 0,1 18.379,24.625 C 18.379,24.044 18.577,23.71 19.094,23.71 C 19.859,23.71 20.514,24.59 20.908,25.41 Z M 42.248,32.114 C 42.865,32.114 43.358,32.887 43.358,33.791 C 43.358,34.753 42.89,35.799 42.053,36.512 C 42.046,35.647 41.45,35.397 40.903,35.168 C 40.435,34.972 40.003,34.791 40.003,34.254 C 40.003,33.755 40.373,33.422 40.818,33.422 C 41.201,33.422 41.502,33.522 41.722,33.722 A 1.035,1.035 0 0,1 41.41,32.982 C 41.41,32.53 41.707,32.114 42.248,32.114 Z M 32.455,19.716 C 32.628,19.716 32.995,19.799 33.095,19.953 C 32.949,20.025 32.825,20.192 32.825,20.323 C 32.825,20.393 32.863,20.465 32.949,20.501 C 33.268,20.643 33.465,20.869 33.564,21.071 C 34.12,20.774 34.342,19.953 34.342,19.478 C 34.342,19.336 34.342,19.133 34.206,19.133 A 0.38,0.38 0 0,0 34.052,19.188 A 0.446,0.446 0 0,1 33.86,19.253 C 33.83,19.253 33.785,19.223 33.719,19.178 C 33.544,19.062 33.225,18.848 32.653,18.848 C 31.751,18.848 31.381,19.49 31.381,20.013 C 31.381,20.156 31.418,20.298 31.467,20.418 C 31.542,20.085 31.912,19.716 32.455,19.716 Z M 32.183,21.249 C 31.837,21.249 31.553,21.119 31.233,20.821 C 31.011,21.119 30.913,21.523 30.913,21.903 C 30.913,22.545 31.171,23.152 31.455,23.199 C 31.528,23.205 31.565,23.113 31.607,23.012 C 31.656,22.892 31.71,22.759 31.837,22.759 C 31.857,22.759 31.891,22.772 31.943,22.791 C 32.087,22.846 32.363,22.949 32.801,22.949 C 33.712,22.949 34.701,22.45 34.701,21.154 C 34.701,20.976 34.613,20.584 34.465,20.394 C 34.465,21.464 33.662,21.892 32.962,21.892 C 32.788,21.892 32.628,21.868 32.48,21.808 C 32.628,21.689 32.751,21.475 32.751,21.344 C 32.751,21.261 32.677,21.214 32.567,21.214 C 32.528,21.214 32.475,21.221 32.417,21.229 C 32.342,21.239 32.259,21.249 32.183,21.249 Z M 42.779,14.057 A 0.3,0.3 0 0,1 42.47,13.761 A 0.3,0.3 0 0,1 42.779,13.463 A 0.3,0.3 0 0,1 43.087,13.761 A 0.3,0.3 0 0,1 42.779,14.057 Z M 38.876,15.351 C 39.496,15.532 40.46,15.815 40.46,16.388 C 40.46,16.934 40.003,16.994 39.82,16.994 C 39.366,16.994 39.05,16.695 38.834,16.491 C 38.723,16.385 38.638,16.305 38.574,16.305 C 38.524,16.305 38.475,16.34 38.475,16.399 C 38.475,16.439 38.489,16.505 38.507,16.586 C 38.536,16.722 38.575,16.903 38.575,17.089 C 38.575,17.613 38.158,17.815 37.9,17.941 C 37.783,17.998 37.698,18.039 37.698,18.088 C 37.698,18.147 37.722,18.171 37.821,18.183 A 13.24,13.24 0 0,0 39.732,18.325 C 41.966,18.325 43.792,17.659 43.792,15.782 C 43.792,15.18 43.676,14.812 43.581,14.511 C 43.515,14.3 43.458,14.121 43.458,13.915 C 43.458,13.749 43.581,13.404 43.914,13.213 C 43.576,13.213 43.394,13.16 43.229,13.112 A 1.438,1.438 0 0,0 42.779,13.035 C 42.273,13.035 41.917,13.368 41.917,13.867 C 41.917,13.936 41.927,14.02 41.94,14.119 C 41.957,14.262 41.979,14.437 41.979,14.639 C 41.979,15.056 41.892,15.449 41.509,15.449 C 41.151,15.449 41.016,15.223 41.016,14.961 C 41.016,14.698 41.095,14.482 41.166,14.29 C 41.223,14.134 41.275,13.993 41.275,13.855 C 41.275,13.296 40.559,13.13 39.795,13.13 C 38.883,13.13 37.895,13.368 37.895,13.487 C 37.895,13.552 38.029,13.584 38.242,13.634 C 38.696,13.742 39.509,13.934 40.139,14.711 C 39.535,14.723 38.364,14.985 38.364,15.139 C 38.364,15.201 38.581,15.264 38.876,15.351 Z M 40.299,17.279 C 41.744,17.053 42.544,16.245 42.544,15.187 C 42.865,15.282 43.063,15.591 43.063,15.937 C 43.063,16.554 42.445,17.291 40.756,17.291 C 40.608,17.291 40.46,17.291 40.299,17.279 Z M 41.695,30.509 C 41.892,29.915 42.139,29.499 42.544,28.857 L 42.398,28.787 C 41.928,28.564 41.065,28.154 41.065,27.526 C 41.065,26.706 42.127,26.064 42.346,26.064 C 42.445,26.064 42.47,26.147 42.47,26.302 C 42.47,26.523 42.413,26.816 42.36,27.097 C 42.309,27.358 42.26,27.61 42.26,27.787 C 42.26,28.12 42.482,28.442 42.68,28.442 C 42.89,28.442 43.47,27.728 43.47,27.027 C 43.47,25.766 42.322,25.386 41.966,25.386 C 41.857,25.386 41.72,25.442 41.534,25.516 A 4.69,4.69 0 0,1 39.609,25.909 C 36.957,25.909 36.352,23.378 36.352,22.272 C 36.352,22.224 36.364,22.212 36.376,22.212 C 36.39,22.212 36.412,22.226 36.446,22.249 C 36.576,22.33 36.877,22.522 37.537,22.522 C 37.733,22.522 37.921,22.5 38.127,22.476 C 38.375,22.446 38.649,22.415 38.994,22.415 C 40.414,22.415 41.074,23.326 41.934,24.515 L 42.04,24.661 C 42.105,24.7 42.18,24.741 42.26,24.786 C 42.882,25.131 43.915,25.704 43.915,27.038 C 43.915,27.756 43.487,28.302 43.038,28.875 C 42.654,29.365 42.253,29.876 42.09,30.533 C 42.364,30.505 42.583,30.261 42.803,30.017 C 43.036,29.758 43.27,29.499 43.568,29.499 C 43.865,29.499 44.001,29.725 44.001,30.082 C 44.001,30.605 43.692,31.39 43.099,31.877 C 43.112,31.829 43.112,31.77 43.112,31.699 C 43.112,31.366 42.976,30.891 42.581,30.891 C 42.096,30.891 41.871,31.291 41.627,31.722 C 41.562,31.837 41.496,31.954 41.423,32.067 C 41.065,30.855 40.583,29.761 39.72,29.095 C 39.39,28.839 38.97,28.732 38.574,28.632 C 37.923,28.467 37.34,28.319 37.34,27.55 C 37.34,27.389 37.392,27.194 37.445,26.994 C 37.502,26.779 37.562,26.558 37.562,26.361 C 37.562,26.231 37.537,26.111 37.462,26.016 C 38.176,26.274 38.308,26.652 38.459,27.083 C 38.559,27.368 38.667,27.677 38.957,27.989 C 39.067,28.111 39.225,28.23 39.411,28.372 C 39.991,28.812 40.847,29.463 41.399,31.021 C 41.41,30.961 41.423,30.807 41.423,30.701 C 41.423,29.546 40.383,28.407 39.608,27.558 C 39.202,27.113 38.868,26.748 38.797,26.503 C 40.201,26.658 40.447,26.991 41.115,28.774 C 41.147,28.864 41.198,28.984 41.257,29.124 C 41.439,29.559 41.695,30.168 41.695,30.51 Z M 41.374,24.744 C 41.374,24.649 41.279,24.587 41.158,24.508 C 40.961,24.378 40.696,24.204 40.658,23.77 C 40.645,23.663 40.608,23.473 40.472,23.473 C 40.364,23.473 40.349,23.628 40.334,23.787 C 40.319,23.954 40.302,24.127 40.176,24.127 C 39.823,24.127 39.619,23.713 39.464,23.4 C 39.369,23.21 39.294,23.057 39.214,23.057 C 39.164,23.057 39.105,23.092 39.105,23.235 C 39.105,23.298 39.111,23.35 39.117,23.404 C 39.123,23.462 39.13,23.523 39.13,23.603 C 39.13,23.758 39.093,23.865 38.945,23.865 C 38.771,23.865 38.608,23.662 38.451,23.468 C 38.307,23.288 38.167,23.116 38.031,23.116 C 37.969,23.116 37.908,23.152 37.908,23.211 C 37.908,23.284 37.972,23.388 38.035,23.489 C 38.095,23.587 38.155,23.682 38.155,23.746 C 38.155,23.896 37.935,23.924 37.726,23.952 C 37.535,23.977 37.352,24.002 37.352,24.115 C 37.352,24.222 37.462,24.257 37.612,24.257 C 37.748,24.257 37.926,24.227 38.094,24.199 C 38.245,24.174 38.389,24.15 38.488,24.15 C 38.611,24.15 38.797,24.174 38.797,24.328 C 38.797,24.413 38.682,24.51 38.568,24.605 C 38.459,24.697 38.352,24.787 38.352,24.863 C 38.352,24.934 38.427,24.97 38.488,24.97 C 38.645,24.97 38.859,24.846 39.086,24.715 C 39.34,24.567 39.609,24.412 39.831,24.412 C 39.905,24.412 40.089,24.447 40.089,24.554 C 40.089,24.624 40.004,24.718 39.909,24.821 C 39.796,24.946 39.671,25.084 39.671,25.207 C 39.671,25.267 39.708,25.338 39.781,25.338 C 39.875,25.338 39.981,25.24 40.104,25.125 C 40.274,24.968 40.475,24.78 40.719,24.78 C 40.805,24.78 40.911,24.797 41.011,24.813 C 41.098,24.827 41.181,24.84 41.238,24.84 C 41.337,24.84 41.374,24.78 41.374,24.744 Z M 26.594,38.498 A 0.533,0.533 0 0,1 26.459,38.843 C 26.324,38.605 25.941,38.486 25.768,38.486 C 25.143,38.486 24.942,38.915 24.738,39.35 C 24.526,39.8 24.311,40.258 23.621,40.258 C 23.269,40.258 23.116,40.23 23.001,40.209 A 1.052,1.052 0 0,0 22.795,40.186 C 22.709,40.186 22.659,40.222 22.659,40.293 C 22.659,40.603 23.116,41.363 24.386,41.363 C 25.657,41.363 26.879,40.615 26.879,39.686 C 26.879,39.532 26.841,39.366 26.767,39.2 C 26.817,39.129 26.941,39.081 27.052,39.081 C 27.152,39.081 27.23,39.136 27.306,39.191 C 27.381,39.244 27.454,39.295 27.545,39.295 C 27.743,39.295 27.89,39.153 27.89,38.962 C 27.89,38.808 27.804,38.701 27.656,38.629 A 0.405,0.405 0 0,0 27.828,38.308 A 0.384,0.384 0 0,0 27.433,37.916 A 0.358,0.358 0 0,0 27.163,38.034 C 27.138,37.821 27.015,37.619 26.78,37.619 C 26.595,37.619 26.459,37.749 26.459,37.952 C 26.459,38.045 26.492,38.13 26.525,38.216 C 26.56,38.305 26.595,38.396 26.595,38.498 Z M 22.351,38.355 C 22.351,38.57 22.906,38.95 23.276,38.95 C 23.461,38.95 23.523,38.843 23.523,38.76 C 23.523,38.45 22.968,38.081 22.659,38.081 C 22.524,38.081 22.351,38.177 22.351,38.355 Z M 21.413,37.643 C 21.315,37.035 20.821,36.524 19.834,36.288 C 19.045,36.097 18.934,35.954 18.934,35.752 C 18.934,35.419 19.416,35.193 19.847,35.193 C 20.451,35.193 20.895,35.36 21.302,35.954 C 21.506,36.248 21.616,36.649 21.706,36.979 C 21.781,37.249 21.842,37.472 21.931,37.548 C 22.03,37.631 22.191,37.655 22.301,37.655 C 22.369,37.655 22.433,37.651 22.491,37.648 C 22.539,37.645 22.583,37.643 22.621,37.643 C 23.511,37.643 24.114,38.605 24.114,39.033 C 24.114,39.426 23.758,39.568 23.314,39.568 C 22.782,39.568 22.178,39.272 21.87,38.938 C 21.636,38.7 21.512,38.224 21.413,37.643 Z M 26.027,34.837 C 26.027,34.597 25.797,34.462 25.542,34.314 C 25.229,34.131 24.879,33.928 24.879,33.481 C 24.879,33.279 25.016,32.934 25.287,32.566 C 25.398,33.184 25.657,33.505 26.213,33.708 C 27.31,34.099 27.458,34.694 27.458,35.324 C 27.458,36.394 26.681,37.726 24.683,37.726 C 23.079,37.726 21.931,36.346 21.931,35.182 C 21.931,34.86 22.018,34.504 22.228,34.504 C 22.366,34.504 22.435,34.583 22.523,34.682 C 22.553,34.716 22.585,34.752 22.622,34.789 C 23.178,35.324 23.782,35.467 24.658,35.467 C 25.448,35.467 26.028,35.157 26.028,34.837 Z M 26.077,35.693 A 4.85,4.85 0 0,1 25.863,35.78 C 25.596,35.883 25.485,35.926 25.485,36.264 C 25.485,36.348 25.474,36.446 25.464,36.535 A 1.952,1.952 0 0,0 25.448,36.727 C 25.448,36.869 25.472,36.953 25.645,36.953 C 26.089,36.953 26.792,36.228 26.792,35.609 C 26.792,35.443 26.693,35.372 26.582,35.372 C 26.537,35.372 26.489,35.412 26.422,35.467 C 26.344,35.533 26.238,35.622 26.077,35.693 Z M 22.14,29.69 C 22.14,29.33 22.561,29.049 23.004,28.753 C 23.496,28.426 24.015,28.079 24.015,27.585 A 1.51,1.51 0 0,0 23.843,26.955 C 24.497,27.3 24.977,27.883 24.977,28.358 C 24.977,28.817 24.7,29.138 24.456,29.421 C 24.262,29.644 24.09,29.845 24.09,30.071 C 24.09,30.351 24.302,30.521 24.526,30.699 C 24.776,30.899 25.039,31.109 25.039,31.497 C 25.039,31.78 24.842,32.084 24.632,32.408 C 24.394,32.777 24.138,33.171 24.138,33.588 C 24.138,34.195 24.583,34.694 25.261,34.777 C 25.039,34.825 24.841,34.861 24.632,34.861 C 23.386,34.861 22.103,33.874 22.103,32.697 C 22.103,32.114 22.363,31.604 22.757,31.235 C 23.103,31.52 23.447,31.711 23.67,31.711 C 23.867,31.711 23.954,31.616 23.954,31.473 C 23.954,31.293 23.654,31.121 23.299,30.916 C 22.779,30.616 22.14,30.247 22.14,29.69 Z M 15.873,36.228 C 15.43,36.276 15.037,35.968 14.985,35.562 C 14.926,35.1 15.317,34.751 15.677,34.699 L 15.799,34.682 A 0.748,0.748 0 0,1 15.738,34.444 A 0.772,0.772 0 0,1 16.407,33.581 C 16.882,33.505 17.23,33.815 17.341,34.171 A 0.791,0.791 0 0,1 18.613,34.706 C 18.65,35.122 18.349,35.466 17.903,35.547 C 17.859,35.556 17.798,35.562 17.798,35.562 C 17.835,35.645 17.859,35.717 17.872,35.835 C 17.922,36.275 17.612,36.62 17.158,36.678 C 16.711,36.734 16.379,36.489 16.281,36.109 A 1.05,1.05 0 0,1 15.873,36.229 Z M 16.878,35.596 A 0.456,0.456 0 0,0 17.29,35.094 A 0.464,0.464 0 0,0 16.77,34.697 A 0.456,0.456 0 0,0 16.358,35.199 C 16.388,35.447 16.621,35.625 16.878,35.596 Z" fill="rgb(254, 254, 253)"/>
</svg>
