<?xml version="1.0" encoding="UTF-8"?>
<!-- generated by Finnhub -->
<svg viewBox="0 0 55.5 55.5" xmlns="http://www.w3.org/2000/svg">
<path d="M 0,0 H 55.5 V 55.5 H 0 Z" fill="rgb(243, 124, 54)"/>
<path d="M 21.026999999999997,34.188 C 21.037,33.716 21.027,33.381 21,33 C 21.097,33.009 21.909,33 22.16,33 C 22.692,33 23.055,33.2 23.055,33.673 C 23.055,34.148 22.607,34.348 22.334,34.391 V 34.399 C 22.604,34.414 23.13,34.605 23.13,35.13 C 23.13,35.751 22.625,36 22.098,36 C 21.864,36 21.097,35.991 21,36 C 21.026,35.617 21.037,35.282 21.037,34.797 V 34.204 Z M 21.925,33.247 A 1.14,1.14 0 0,0 21.708,33.26 C 21.7,33.475 21.691,33.716 21.691,33.865 C 21.691,34.022 21.696,34.16 21.696,34.309 H 21.895 C 22.147,34.309 22.399,34.126 22.399,33.757 C 22.399,33.477 22.275,33.247 21.925,33.247 Z M 21.885,34.557 C 21.806,34.557 21.748,34.56 21.696,34.56 C 21.696,34.682 21.691,34.804 21.691,34.982 C 21.691,35.255 21.701,35.592 21.701,35.745 C 21.781,35.747 21.847,35.752 21.944,35.752 C 22.204,35.752 22.43,35.541 22.43,35.162 C 22.43,34.757 22.24,34.557 21.885,34.557 M 26.322,34.203 C 26.322,33.716 26.313,33.381 26.287,33 C 26.547,33.004 27.881,33.011 28,33 C 27.99,33.05 27.99,33.312 28,33.378 C 27.663,33.356 27.104,33.357 26.973,33.357 C 26.951,33.674 26.977,33.957 26.977,34.273 C 27.362,34.264 27.646,34.257 27.982,34.239 C 27.965,34.339 27.969,34.522 27.982,34.613 A 12.975,12.975 0 0,0 26.977,34.573 C 26.977,34.757 26.973,34.944 26.973,35.13 C 26.973,35.314 26.974,35.465 26.983,35.638 C 27.315,35.638 27.659,35.657 28,35.617 C 27.99,35.678 27.99,35.949 28,36 A 80.75,80.75 0 0,0 26.287,36 C 26.313,35.617 26.322,35.282 26.322,34.797 V 34.204 Z M 34.364,36 A 11.252,11.252 0 0,0 33.597,36 A 16.306,16.306 0 0,0 33.292,35.116 C 33.102,35.111 32.42,35.111 32.264,35.116 C 32.144,35.408 32.046,35.702 31.964,36 A 3.514,3.514 0 0,0 31.534,36 C 31.75,35.521 32.414,33.984 32.796,33 C 32.852,33.008 33.075,33.008 33.132,33 C 33.508,33.984 34.028,35.297 34.364,36 Z M 33.19,34.86 C 33.061,34.51 32.937,34.169 32.796,33.833 C 32.646,34.169 32.508,34.51 32.38,34.86 H 33.19 Z M 37.718,34.877 C 37.718,34.416 37.728,34.187 37.728,33.877 C 37.728,33.427 37.718,33.141 37.71,33 C 37.83,33.011 37.953,33.021 38.072,33.021 C 38.192,33.021 38.316,33.011 38.434,33 C 38.379,33.554 38.374,33.998 38.374,34.494 C 38.374,35.534 38.683,35.705 39.259,35.705 C 39.968,35.705 40.016,34.967 40.016,34.174 C 40.016,33.781 40.003,33.393 39.981,33 C 40.056,33.011 40.131,33.021 40.207,33.021 C 40.282,33.021 40.352,33.011 40.428,33 C 40.402,33.252 40.37,33.861 40.37,34.6 C 40.37,35.59 39.922,36 39.065,36 C 38.307,36 37.718,35.679 37.718,34.877 M 44.599,33.709 C 44.599,33.544 44.604,33.404 44.59,33.345 C 44.417,33.345 44.04,33.352 43.775,33.382 A 1.843,1.843 0 0,0 43.775,33 C 44.177,33.012 45.675,33.012 46.051,33 A 1.776,1.776 0 0,0 46.051,33.382 A 7.818,7.818 0 0,0 45.255,33.35 C 45.248,33.412 45.255,33.544 45.255,33.708 V 34.797 C 45.255,35.282 45.263,35.617 45.289,36 A 9.986,9.986 0 0,0 44.563,36 C 44.59,35.617 44.598,35.282 44.598,34.797 V 33.709 Z M 50.858,34.304 C 51.098,33.974 51.331,33.424 51.526,33 C 51.593,33.009 51.866,33.009 51.942,33 A 45.263,45.263 0 0,0 51.013,34.704 C 51.013,34.844 51.008,34.949 51.008,35.091 C 51.008,35.378 51.012,35.675 51.053,36 C 50.929,35.991 50.423,35.991 50.3,36 C 50.313,35.722 50.353,35.43 50.353,35.16 C 50.353,35.026 50.348,34.892 50.344,34.757 C 50.039,34.177 49.534,33.247 49.397,33 C 49.529,33.009 50.056,33.009 50.189,33 C 50.392,33.429 50.725,34.105 50.849,34.304 H 50.858 Z M 13.457,25.852 C 13.457,28.64 13.38,29.271 13.907,29.954 C 14.434,30.637 15.415,31.021 16.687,31.021 C 18.159,31.021 19.321,30.287 19.721,29.218 C 19.867,28.832 19.994,28.288 19.994,26.852 V 20 H 21 V 27.728 C 20.964,29.795 20.575,30.743 19.376,31.478 C 18.522,32.005 17.304,32.232 16.324,32.232 C 14.144,32.232 11.398,31.479 11,28.762 V 20 H 13.454 S 13.457,23.9 13.457,25.852 Z M 24,20 H 26.557 L 26.5,30.97 L 31,31 V 32 H 24 V 20 Z M 36,32 H 33.5 V 21 H 30 V 20 H 40 V 21 H 36 V 32 Z M 45.85,28 H 41.593 L 39.989,32 H 38.315 L 43.695,20 H 44.869 L 49.997,32 H 47.407 L 45.849,28 Z M 43.679,22.986 L 41.881,27.013 H 45.41 L 43.679,22.986 Z" fill="rgb(254, 254, 253)"/>
<path d="M 8.457,20.608 C 5.653,22.53 4,24.93 4,27.863 C 4,34.519 12.037,39.438 23.496,39.438 C 28.632,39.438 32.922,38.11 36.101,36.472 L 35.903,36.475 C 32.067,37.63 28.187,38.105 24.199,38.105 C 12.681,38.105 4.749,32.699 4.739,27.702 C 4.733,24.931 6.023,22.539 8.469,20.79 L 8.467,20.623 Z" fill="rgb(254, 254, 253)"/>
</svg>
