<?xml version="1.0" encoding="UTF-8"?>
<!-- generated by Finnhub -->
<svg viewBox="0 0 55.5 55.5" xmlns="http://www.w3.org/2000/svg">
<path d="M 0,0 H 55.5 V 55.5 H 0 Z" fill="rgb(23, 70, 157)"/>
<path d="M 16.993,30.125 C 17.003,33.205 15.065,34 10.5,34 C 5.915,34 4,33.21 4,30.145 V 23.005 H 8.002 V 29.437 C 8.002,30.824 8.402,32 10.5,32 C 12.598,32 13,30.818 13,29.432 V 23 H 17.003 V 30.14 Z M 18,23 H 25 L 28,30.702 L 31,23 H 37.996 V 34 H 34 V 26.298 L 30,34 H 26 L 22,26.298 V 34 H 18 V 23 Z M 52,33.59 C 50.83,33.788 49.501,34 47.407,34 C 43.298,34 39,32.478 39,28.5 C 39,24.84 42.328,23 47.407,23 C 48.975,23 50.523,23.24 52,23.542 V 25.812 C 50.676,25.313 49.414,25.2 48,25.2 C 45.085,25.2 42.997,26.54 42.997,28.5 C 42.997,30.564 44.995,31.796 48,31.796 C 49.344,31.796 50.873,31.628 52,31.325 V 33.591 Z" fill="rgb(254, 254, 253)"/>
</svg>
