<?xml version="1.0" encoding="UTF-8"?>
<!-- generated by Finnhub -->
<svg viewBox="0 0 55.5 55.5" xmlns="http://www.w3.org/2000/svg">
<path d="M 0,0 H 55.5 V 55.5 H 0 Z" fill="rgb(25, 69, 133)"/>
<path d="M 29.99,12.415 L 31,12.5 V 29.5 C 31,33.354 31,36 30,39 C 29.296,41.112 28.284,42.233 27.091,42.886 C 26.106,43.426 24.928,43.369 23.833,43.117 C 26.747,42.758 28,41.5 29,39 S 30,34 30,30.5 V 12.43 L 27,14 H 28 V 29 C 28,32.515 28.027,35.963 27.448,38 C 26.864,39.85 25.894,40.833 24.993,41.38 C 24.084,41.932 22.959,41.855 21.933,41.58 C 21.789,41.58 21.645,41.5 21.5,41.5 C 21.79,42.279 22.367,42.978 23.152,43.117 C 23.379,43.817 24.102,44.376 24.825,44.515 C 25.341,45.494 26.354,45.993 27.448,45.993 C 28.894,46.073 30.134,45.434 31.29,44.735 C 34.843,42.28 36,36.947 36,29.657 V 9 L 33,10.766 L 30,12.43 Z M 33.98,29.657 C 33.98,34.929 33.71,38 32.5,40.5 C 31.583,42.395 30.263,43.842 28.86,44.553 C 28.011,44.983 27.024,44.9 26.094,44.703 L 25.486,44.575 C 28.543,44.575 30.643,42.162 31.5,40 C 32.357,37.838 33,35 33,30 V 10.766 L 34,11 V 29.657 H 33.98 Z" fill="url(#a)"/>
<path d="M 26.49,36.985 C 25.405,40.854 22.78,41.56 21.913,41.56 C 20.384,41.56 19,40.581 19,34.19 V 18 L 27,14 V 30 C 27,32 27.016,35.243 26.5,37 Z" fill="rgb(254, 254, 253)"/>
<defs>
<linearGradient id="a" x1="28.711" x2="28.711" y1="45.98" y2="10.257" gradientUnits="userSpaceOnUse">
<stop stop-color="rgb(254, 254, 253)" offset="0"/>
<stop stop-color="rgb(254, 253, 250)" offset=".054"/>
<stop stop-color="rgb(253, 250, 242)" offset=".09"/>
<stop stop-color="rgb(252, 244, 227)" offset=".12"/>
<stop stop-color="rgb(250, 236, 206)" offset=".147"/>
<stop stop-color="rgb(248, 226, 178)" offset=".172"/>
<stop stop-color="rgb(246, 214, 145)" offset=".195"/>
<stop stop-color="rgb(243, 199, 105)" offset=".217"/>
<stop stop-color="rgb(240, 182, 60)" offset=".238"/>
<stop stop-color="rgb(238, 174, 38)" offset=".247"/>
</linearGradient>
</defs>
</svg>
