<?xml version="1.0" encoding="UTF-8"?>
<!-- generated by Finnhub -->
<svg viewBox="0 0 55.5 55.5" xmlns="http://www.w3.org/2000/svg">
<path d="M 0,0 H 55.5 V 55.5 H 0 Z" fill="rgb(1, 81, 153)"/>
<path d="M 39.99,40.402 V 28 H 37 V 42.412 A 9.224,9.224 0 0,0 40,40.417 Z M 34,43.15 V 28 H 31 V 43.416 C 31.44,43.361 31.909,43.328 32.398,43.292 A 33.232,33.232 0 0,0 34,43.15 Z M 28,44.999 V 28 H 25 V 43.417 C 26.282,43.577 27.332,43.917 28,45 V 44.998 Z M 22,43.149 V 28 H 19 V 42.412 C 20.026,42.834 21.038,43.034 22,43.15 Z M 16,40.417 V 28 H 15.406 C 15.31,28.225 15.211,28.452 15.112,28.68 C 14.354,30.42 13.547,32.274 13.547,34.603 C 13.547,36.858 14.483,38.903 16,40.417 Z" fill="rgb(238, 61, 64)"/>
<path d="M 27.997999999999998,46.985 S 29.114,44.935 32.753,44.703 C 34.82,44.571 37.609,44.341 40.31,42.159 C 42.557,40.343 44,37.637 44,34.603 C 44,32.096 43.173,30.09 42.45,28.421 L 42.305,28.091 C 42.013,27.419 41.728,26.766 41.508,26.107 L 41.44,25.903 C 41.22,25.253 41,24.6 41,24 C 41,22.68 41.698,21.562 42.616,20.701 L 43.688,19.695 L 36.095,12 L 35.039,12.558 C 32.956,13.658 30.557,14 28,14 C 25.443,14 23.044,13.659 20.96,12.558 L 19.906,12 L 12.312,19.695 L 13.385,20.701 C 14.303,21.562 15.001,22.751 15.001,24.071 C 15.001,24.63 14.81,25.185 14.607,25.773 C 14.569,25.883 14.53,25.993 14.493,26.107 C 14.273,26.767 13.987,27.42 13.695,28.092 L 13.551,28.422 C 12.827,30.09 12,32.095 12,34.602 C 12,37.636 13.443,40.342 15.69,42.158 C 18.391,44.34 21.192,44.702 23.264,44.702 C 26.911,44.702 28.008,46.999 28.008,46.999 Z M 20.208,13.842 C 22.515,15.062 25.173,15.5 28,15.5 S 33.484,15.061 35.792,13.842 L 41.528,19.655 C 40.328,20.781 39.584,22.342 39.584,24.071 C 39.584,25.447 40.044,26.705 40.594,28 H 40 V 40.414 A 8.744,8.744 0 0,0 41.72,37.954 A 8.562,8.562 0 0,1 39.307,41.039 A 9.21,9.21 0 0,1 37,42.412 V 28 H 34 V 43.15 C 33.447,43.216 32.911,43.255 32.398,43.292 C 31.898,43.328 31.418,43.363 30.968,43.42 C 30.978,43.42 30.989,43.418 31,43.416 V 28 H 28 V 45 C 27.326,43.91 26.266,43.572 24.97,43.413 L 25,43.417 V 28 H 22 V 43.15 C 21.018,43.032 19.983,42.825 18.934,42.385 L 19,42.412 V 28 H 16 V 40.417 C 14.483,38.903 13.547,36.858 13.547,34.603 C 13.547,32.274 14.354,30.421 15.112,28.68 C 15.782,27.139 16.415,25.686 16.415,24.071 C 16.415,22.342 15.672,20.781 14.471,19.655 L 20.208,13.842 Z M 23.405,43.278 L 23.6,43.292 L 23.405,43.278 Z M 30.822,17 C 29.83,17 29.025,17.859 29.025,18.919 S 29.83,20.837 30.822,20.837 C 31.815,20.837 32.62,19.978 32.62,18.919 C 32.62,17.859 31.815,17 30.822,17 Z M 30.822,18.014 C 30.355,18.014 29.976,18.419 29.976,18.919 S 30.355,19.823 30.823,19.823 C 31.29,19.823 31.67,19.418 31.67,18.919 C 31.67,18.419 31.29,18.014 30.823,18.014 Z M 20.59,22.184 C 21.222,22.184 21.73,22.737 21.73,23.418 C 21.73,24.099 21.217,24.652 20.585,24.652 H 19.93 V 25.836 H 19 V 22.185 H 20.59 Z M 19.93,22.999 H 20.525 C 20.721,22.999 20.879,23.17 20.879,23.382 S 20.719,23.822 20.523,23.822 H 19.93 V 22.999 Z M 22.588,25.208 L 22.383,25.836 H 21.44 L 22.662,22.185 H 23.783 L 25.005,25.836 H 24.063 L 23.857,25.208 H 22.588 Z M 23.573,24.378 L 23.224,23.208 H 23.216 L 22.863,24.378 H 23.573 Z M 21.552,17.084 H 22.532 V 19.117 C 22.532,19.582 22.514,20.042 22.175,20.392 C 21.891,20.689 21.443,20.795 21.045,20.795 C 20.647,20.795 20.2,20.689 19.915,20.392 C 19.576,20.042 19.558,19.582 19.558,19.117 V 17.084 H 20.538 V 18.984 C 20.532,19.414 20.528,19.839 21.045,19.839 C 21.563,19.839 21.558,19.414 21.553,18.984 L 21.552,18.856 V 17.084 Z M 24.36,20.737 H 23.402 V 17.087 H 24.413 L 25.566,19.015 H 25.575 V 17.087 H 26.605 V 20.737 H 25.518 L 24.369,18.897 H 24.36 V 20.737 Z M 27.453,17.087 H 28.449 V 20.737 H 27.453 V 17.087 Z M 25.865,24.054 V 24.064 V 24.045 V 24.055 Z M 26.692,23.128 C 26.228,23.14 25.856,23.512 25.865,24.054 C 25.856,24.597 26.228,24.968 26.692,24.981 C 26.858,24.985 27.059,24.921 27.273,24.851 C 27.361,24.822 27.451,24.793 27.543,24.767 V 25.773 C 27.392,25.874 26.983,26 26.726,26 C 25.773,26 24.93,25.219 24.93,24.053 S 25.773,22.108 26.726,22.108 C 26.984,22.108 27.392,22.234 27.543,22.335 V 23.341 C 27.451,23.316 27.361,23.286 27.273,23.258 C 27.058,23.188 26.858,23.123 26.692,23.128 Z M 29.227,22.185 H 28.231 V 25.835 H 29.227 V 22.185 Z M 32.873,22.185 H 33.869 V 25.835 H 32.873 V 22.185 Z M 32.237,22.185 V 23.002 H 30.939 V 23.709 H 32.237 V 24.565 H 30.939 V 25.835 H 29.936 V 22.185 H 32.236 Z M 35.322,24.063 V 24.045 V 24.063 Z M 35.322,24.054 C 35.313,23.512 35.685,23.14 36.149,23.128 C 36.315,23.123 36.516,23.188 36.731,23.258 C 36.819,23.286 36.909,23.316 37,23.341 V 22.335 C 36.85,22.235 36.441,22.108 36.184,22.108 C 35.231,22.108 34.388,22.888 34.388,24.053 C 34.388,25.219 35.231,26 36.184,26 C 36.441,26 36.849,25.874 37,25.773 V 24.767 A 7.123,7.123 0 0,0 36.73,24.851 C 36.516,24.921 36.315,24.985 36.15,24.981 C 35.685,24.968 35.313,24.597 35.322,24.054 Z M 33.239,20.737 H 34.198 V 18.897 H 34.207 L 35.355,20.737 H 36.442 V 17.087 H 35.412 V 19.015 H 35.402 L 34.251,17.087 H 33.239 V 20.737 Z" fill="rgb(254, 254, 253)" fill-rule="evenodd"/>
</svg>
