<?xml version="1.0" encoding="UTF-8"?>
<!-- generated by Finnhub -->
<svg viewBox="0 0 55.5 55.5" xmlns="http://www.w3.org/2000/svg">
<path d="M 0,0 H 55.5 V 55.5 H 0 Z" fill="rgb(0, 176, 170)"/>
<path d="M 14.66,25.535 L 11.85,28.33 A 6.2,6.2 0 0,0 11.85,37.17 A 6.43,6.43 0 0,0 20.82,37.17 L 27.09,31 A 1.44,1.44 0 0,1 28.91,31 L 23.51,25.68 A 6.4,6.4 0 0,0 14.67,25.56 Z" fill="rgb(220, 220, 219)"/>
<path d="M 44.14,28.314999999999998 L 32.49,16.83 L 32.01,16.4 A 6.43,6.43 0 0,0 23.51,16.82 L 14.66,25.55 A 6.4,6.4 0 0,1 23.51,25.68 L 28.9,31 L 35.16,37.17 A 6.43,6.43 0 0,0 44.14,37.17 A 6.21,6.21 0 0,0 44.14,28.33 Z" fill="rgb(254, 254, 253)"/>
</svg>
