<?xml version="1.0" encoding="UTF-8"?>
<!-- generated by Finnhub -->
<svg viewBox="0 0 55.5 55.5" xmlns="http://www.w3.org/2000/svg">
<path d="M 0,0 H 55.5 V 55.5 H 0 Z" fill="rgb(90, 187, 44)"/>
<path d="M 34.988,31.985 C 33.855,31.969 33,31.043 33,30 C 33,28.956 33.944,28.007 34.998,28 C 36.051,27.993 37.019,28.939 37,30 C 36.981,31.06 36.14,32.031 34.998,32 Z M 34.998,26 A 4,4 0 0,0 31,30 A 3.999,3.999 0 1,0 34.998,26 Z M 44,28 C 42.978,28 42,28.776 42,29.985 V 34 H 40 V 26 H 42 V 27 S 42.656,26 44,26 V 28 Z M 27,26 L 28,31 L 29,26 H 31 L 29,34 H 27 L 26,29 L 25,34 H 23 L 21,26 H 23 L 24,31 L 25,26 H 27 Z M 49,30.003 C 50.237,29.329 51.038,28.467 51.038,27 H 49 C 49,28.237 48.28,29 47,29 V 23.003 H 45 V 34 H 47 V 31 C 47.17,31 47.341,31.094 47.441,31.226 L 49.641,34 H 52 L 49,30.003 Z" fill="rgb(72, 72, 71)"/>
<path d="M 17.137999999999998,31.985 C 15.891,32 15.281,31.33 14.968,30.952 L 15.068,30.175 C 15.215,29.369 15.737,28 17.148,28 C 18.203,28 19,28.871 19,29.912 C 19,30.952 18.404,32 17.148,32 Z M 17.148,26 C 15.13,26 13.953,27.239 13.386,29.155 C 12.522,27.862 11.882,26.308 11.5,25 H 9.5 V 30.017 C 9.5,31.007 8.87,32.011 7.714,32 C 6.557,31.989 6,31.007 6,30.017 V 25 H 4 V 30.017 C 4,32.07 5.65,34 7.714,34 C 9.777,34 11.5,32.07 11.5,30.017 V 29.177 C 11.875,29.957 12.32,30.748 12.881,31.448 L 12,37 H 14 L 14.536,32.973 C 14.968,33.411 15.773,34 17.148,34 C 19.7,34 21,32.026 21,29.912 C 21,27.797 19.405,26 17.148,26 Z" fill="rgb(254, 254, 253)"/>
</svg>
