<?xml version="1.0" encoding="UTF-8"?>
<!-- generated by Finnhub -->
<svg viewBox="0 0 55.5 55.5" xmlns="http://www.w3.org/2000/svg">
<path d="M 0,0 H 55.5 V 55.5 H 0 Z" fill="rgb(11, 31, 114)"/>
<path d="M 7.99,17.985 V 38 L 28,44 L 48,38 V 18 H 8 Z" fill="rgb(213, 41, 65)"/>
<path d="M 22.009999999999998,36.985 H 28 L 27.98,22 H 22 V 29.858 C 22,32.125 20.588,33 19.5,33 C 17.643,33 17,31.443 17,29.803 V 22 H 11 V 32.097 C 11,35.347 13.526,37 16.5,37 C 19.028,37 20.754,36.168 21.937,34.747 H 22 L 22.02,37 Z M 38.947,25.441 C 39.37,25.689 39.661,26.047 39.693,26.515 H 45.543 C 45.383,22.855 40.994,22 37.353,22 C 33.973,22 29.389,22.938 29.389,26.544 C 29.389,28.992 31.372,30.313 36.279,31.028 C 39.27,31.468 39.823,31.716 39.823,32.541 C 39.823,33.368 38.491,33.643 37.645,33.643 C 36.867,33.643 36.247,33.477 35.923,33.229 C 35.435,32.872 35.033,32.495 35,32 H 29 C 29.096,35.688 33.452,37 37.418,37 C 41.515,37 46,35.926 46,31.964 C 46,29.624 44.114,28.55 41.969,27.972 C 40.834,27.652 39.619,27.471 38.565,27.314 C 37.627,27.174 36.819,27.054 36.313,26.872 C 35.956,26.735 35.565,26.544 35.565,26.13 C 35.565,25.195 36.605,25.029 37.517,25.029 C 38.035,25.029 38.557,25.166 38.947,25.441 Z" fill="rgb(254, 254, 253)"/>
</svg>
