<?xml version="1.0" encoding="UTF-8"?>
<!-- generated by Finnhub -->
<svg viewBox="0 0 55.5 55.5" xmlns="http://www.w3.org/2000/svg">
<path d="M 0,0 H 55.5 V 55.5 H 0 Z" fill="rgb(33, 38, 92)"/>
<path d="M 28.363,25.442999999999998 C 28.347,27.4 30.184,28.484 31.569,29.128 C 32.991,29.79 33.469,30.214 33.463,30.805 C 33.453,31.71 32.329,32.11 31.277,32.125 C 29.442,32.152 28.375,31.652 27.527,31.273 L 26.867,34.228 C 27.717,34.603 29.293,34.93 30.927,34.944 C 34.762,34.944 37.271,33.135 37.285,30.331 C 37.3,26.771 32.132,26.574 32.167,24.983 C 32.179,24.501 32.661,23.986 33.717,23.855 C 34.239,23.789 35.682,23.738 37.317,24.458 L 37.959,21.599 A 10.19,10.19 0 0,0 34.542,21 C 30.932,21 28.393,22.833 28.372,25.458 Z M 44.127,21 C 43.427,21 42.837,21.39 42.573,21.99 L 36.902,35 H 40.734 L 41.69,32.72 H 46.373 L 46.623,35 H 50 L 47.245,21 H 44.127 Z M 44.663,24.89 L 45.769,29.955 H 42.74 L 44.663,24.89 Z M 23.726,21 L 20.512,35 H 24.164 L 27.377,21 H 23.727 Z M 18.324,21 L 14.522,30.427 L 12.985,22.374 C 12.805,21.504 12.092,21 11.301,21 H 5.087 L 5,21.392 C 6.276,21.656 7.725,22.082 8.603,22.539 C 9.14,22.818 9.293,23.062 9.47,23.724 L 12.19,35 H 16.049 L 22.159,21 H 18.324 Z" fill="rgb(254, 254, 253)"/>
</svg>
