<?xml version="1.0" encoding="UTF-8"?>
<!-- generated by Finnhub -->
<svg viewBox="0 0 55.5 55.5" xmlns="http://www.w3.org/2000/svg">
<path d="M 0,0 H 55.5 V 55.5 H 0 Z" fill="rgb(1, 146, 152)"/>
<path d="M 43.234,25.788 C 38.2,29.23 33.53,28.86 29.233,24.695 C 37.942,21.675 42.53,17.008 47,21.01 L 43.684,25.303 H 43.679 V 25.309 H 43.673 V 25.317 H 43.662 V 25.319 H 43.66 C 43.657,25.319 43.658,25.322 43.655,25.322 V 25.326 H 43.653 V 25.33 H 43.651 L 43.65,25.332 C 43.65,25.334 43.647,25.334 43.647,25.336 H 43.646 V 25.338 C 43.64,25.338 43.635,25.347 43.632,25.347 H 43.631 V 25.351 L 43.627,25.355 L 43.621,25.359 V 25.361 H 43.62 C 43.62,25.365 43.611,25.374 43.608,25.376 V 25.378 H 43.606 V 25.388 H 43.604 V 25.391 H 43.602 V 25.394 L 43.599,25.395 H 43.598 L 43.594,25.398 C 43.592,25.4 43.591,25.401 43.591,25.405 L 43.589,25.407 L 43.58,25.41 V 25.411 L 43.578,25.413 A 0.462,0.462 0 0,0 43.534,25.464 L 43.532,25.466 C 43.532,25.47 43.526,25.475 43.526,25.48 V 25.483 C 43.52,25.485 43.507,25.497 43.501,25.497 V 25.5 C 43.488,25.505 43.478,25.516 43.463,25.52 V 25.522 H 43.459 V 25.524 H 43.456 L 43.454,25.528 L 43.448,25.53 V 25.532 L 43.438,25.537 V 25.541 H 43.435 V 25.542 A 0.115,0.115 0 0,1 43.415,25.555 L 43.406,25.565 H 43.404 V 25.567 L 43.401,25.572 V 25.573 H 43.397 C 43.397,25.651 43.275,25.68 43.275,25.731 H 43.273 C 43.273,25.736 43.259,25.748 43.259,25.755 H 43.257 C 43.255,25.757 43.248,25.765 43.248,25.767 H 43.246 C 43.24,25.772 43.244,25.797 43.244,25.804 Z" fill="rgb(235, 183, 49)"/>
<path d="M 43.683,25.279 C 30.536,36.07 25.377,10.579 9,20.226 L 27.454,44" fill="rgb(254, 254, 253)"/>
</svg>
