<?xml version="1.0" encoding="UTF-8"?>
<!-- generated by Finnhub -->
<svg viewBox="0 0 55.5 55.5" xmlns="http://www.w3.org/2000/svg">
<path d="M 0,0 H 55.5 V 55.5 H 0 Z" fill="rgb(1, 91, 169)"/>
<path d="M 43.99,27.985 C 44,36.837 36.837,44 28,44 C 25.53,44 23.191,43.44 21.103,42.441 C 21.263,42.514 21.47,42.604 21.666,42.691 L 21.896,42.791 L 26.626,27.856 C 27.201,25.958 28.028,24.994 29.762,24.994 L 32,25 V 38 H 29.507 S 29.005,37.955 29.005,38.516 C 29.005,39.036 29.507,39.002 29.507,39.002 H 37.487 S 37.996,39.036 37.996,38.509 C 37.996,37.969 37.486,38 37.486,38 H 35 V 25 H 37.479 S 37.989,25.029 37.989,24.489 C 37.989,23.934 37.479,24 37.479,24 H 35 V 17.453 C 35.053,16.232 35.958,15.773 36.697,15.773 C 37.381,15.773 38.325,15.955 38.407,17.493 C 38.407,17.493 38.376,17.299 37.867,17.299 C 37.269,17.299 36.661,17.769 36.703,18.767 C 36.73,19.432 37.27,19.987 38.058,19.987 C 38.786,19.987 39.343,19.267 39.398,18.773 C 39.558,17.289 38.935,16.503 38.648,16.143 L 38.588,16.066 A 1.414,1.414 0 0,0 38.39,15.832 A 15.964,15.964 0 0,1 44,28 Z M 37.916,15.443 A 15.931,15.931 0 0,0 28,12 C 20.483,12 14.177,17.183 12.461,24.17 C 12.481,24.11 12.501,24.052 12.521,24 H 19.295 S 19.808,23.972 19.808,24.498 C 19.808,25.053 19.295,25 19.295,25 H 17.999 L 22.275,38.191 L 25.385,28.221 C 26.309,25.431 26.005,24.994 23.861,24.982 C 23.861,24.982 23.355,25.029 23.355,24.474 C 23.355,23.948 23.861,24 23.861,24 H 32 V 19.396 C 32,16.823 34.342,15.012 36.5,15.012 C 36.969,15.012 37.312,15.11 37.617,15.258 C 37.705,15.303 37.809,15.368 37.916,15.443 Z M 12.281,25 A 16.09,16.09 0 0,0 12,28 C 12,34.284 15.623,39.722 20.894,42.34 C 20.808,41.983 15,25 15,25 H 12.28 Z" fill="rgb(254, 254, 253)"/>
</svg>
