<?xml version="1.0" encoding="UTF-8"?>
<!-- generated by Finnhub -->
<svg viewBox="0 0 55.5 55.5" xmlns="http://www.w3.org/2000/svg">
<path d="M 0,28 A 28,28 0 1,1 56,28 A 28,28 0 1,1 0,28 Z" fill="url(#a)"/>
<path d="M 9.13,21.985 H 6 L 11.24,35 H 13.76 L 19,22 H 15.93 L 12.54,31.1 L 9.14,22 Z M 48,22.22 V 22 H 43 V 22.19 S 44,22.31 44,24.03 V 32.97 C 44,34.7 43,34.81 43,34.81 V 35 H 48 V 34.81 S 47,34.7 47,32.97 V 24.03 C 47,22.31 48,22.19 48,22.19 V 22.22 Z M 29,28.5 V 28.54 A 6.29,6.29 0 0,0 33.04,34.54 C 33.84,34.84 34.7,35 35.56,34.98 A 6.61,6.61 0 0,0 40.79,32.74 L 39,30.98 C 37.98,31.88 37.1,32.45 35.65,32.45 C 33.45,32.45 32,30.65 32,28.5 C 32,26.34 33.49,24.56 35.65,24.56 C 36.92,24.56 37.93,25.08 38.94,25.96 L 40.72,23.93 A 6.79,6.79 0 0,0 35.66,22 A 6.55,6.55 0 0,0 29.48,25.98 C 29.15,26.78 28.98,27.64 29,28.51 Z M 26,22 V 22.22 V 22.19 S 25,22.31 25,24.03 V 32.97 C 25,34.7 26,34.81 26,34.81 V 35 H 21 V 34.81 S 22,34.7 22,32.97 V 24.03 C 22,22.31 21,22.19 21,22.19 V 22 H 26 Z" fill="rgb(254, 254, 253)"/>
<defs>
<linearGradient id="a" x1="10.42" x2="68.15" y1="9.71" y2="76.02" gradientUnits="userSpaceOnUse">
<stop stop-color="rgb(25, 29, 31)" offset="0"/>
<stop stop-color="rgb(5, 5, 8)" offset="1"/>
</linearGradient>
</defs>
</svg>
