<?xml version="1.0" encoding="UTF-8"?>
<!-- generated by Finnhub -->
<svg viewBox="0 0 55.5 55.5" xmlns="http://www.w3.org/2000/svg">
<path d="M 0,0 H 55.5 V 55.5 H 0 Z" fill="rgb(223, 46, 119)"/>
<path d="M 41.193000000000005,24.181 C 39.566,24.196 39.098,25.083 38.673,25.674 C 39.417,24.64 41.5,24.788 41.649,27.004 C 41.748,28.478 41.339,29.256 40.905,29.96 C 40.431,30.73 39.746,31.535 39.12,31.88 C 37.78,32.62 36.442,32.028 36.144,31.733 C 36.888,32.915 38.674,33.653 40.756,32.767 C 42.839,31.881 44.462,29.034 43.881,26.413 C 43.633,25.297 42.809,24.196 41.203,24.196 Z M 21.861,36.314 C 20.373,32.866 17.517,25.911 16.802,25.083 C 16.088,24.256 13.976,24.049 12.934,24.049 C 12.934,24.049 13.854,24.492 14.124,25.083 C 16.356,29.96 16.654,30.994 18.885,36.313 C 19.392,37.522 20.165,38.737 21.712,38.973 C 23.26,39.21 24.39,37.792 24.539,37.053 C 24.439,37.151 23.795,37.348 23.2,37.348 C 22.593,37.348 22.109,36.758 21.861,36.314 Z M 30.49,36.314 C 31.978,32.866 34.835,25.911 35.549,25.083 C 36.263,24.256 38.376,24.049 39.417,24.049 C 39.417,24.049 38.792,24.375 38.426,24.789 C 38.373,24.849 38.25,25.032 38.227,25.083 C 35.995,29.96 35.697,30.994 33.466,36.313 C 32.959,37.522 32.425,38.383 31.532,38.678 C 30.047,39.17 29.002,38.974 28.705,38.826 C 29.449,38.53 29.886,37.394 30.49,36.314 Z M 26.325,36.314 C 27.812,32.866 30.669,25.911 31.383,25.083 C 32.097,24.256 34.21,24.049 35.251,24.049 C 35.251,24.049 34.624,24.355 34.254,24.789 C 34.219,24.831 34.108,24.981 34.061,25.083 C 31.829,29.96 31.531,30.994 29.301,36.313 C 28.794,37.522 28.259,38.383 27.366,38.678 C 25.881,39.17 24.836,38.974 24.539,38.826 C 25.283,38.53 25.72,37.394 26.324,36.314 Z" fill="rgb(254, 254, 253)"/>
<path d="M 23.040999999999997,33.935 C 24.539,30.501 26.206,25.91 26.92,25.083 C 27.634,24.256 29.3,24.049 30.788,24.196 C 30.788,24.196 30.322,24.423 30,24.738 A 1.162,1.162 0 0,0 29.747,25.083 C 27.663,29.96 28.11,28.777 25.878,34.097 C 25.372,35.305 24.837,36.757 23.944,37.053 C 22.459,37.544 21.861,35.427 21.712,35.132 C 22.605,35.427 22.447,35.029 23.052,33.949 Z M 43.75,23.9 H 43.28 A 0.303,0.303 0 0,1 43.047,23.794 C 42.537,23.198 39.893,20.245 36.293,18.729 C 32.515,17.137 27.663,16.956 23.2,18.285 C 22.8,18.405 20.79,18.979 19.034,20.059 C 16.841,21.407 14.868,23.309 14.868,23.309 C 16.654,21.389 17.693,20.349 19.481,19.319 C 25.241,16.002 31.621,16.323 36.293,17.989 C 40.005,19.314 42.506,21.759 43.87,23.672 A 0.145,0.145 0 0,1 43.75,23.901 Z M 19.332,15.921 C 17.992,16.217 18.29,18.433 18.29,18.433 S 18.539,17.636 18.886,17.251 C 19.251,16.846 20.076,16.512 20.076,16.512 S 19.411,17.212 19.183,17.694 C 18.886,18.324 19.034,19.32 19.034,19.32 S 20.197,18.766 20.671,18.138 C 21.347,17.24 21.266,15.478 21.266,15.478 S 20.349,15.697 19.332,15.921 Z M 15.285,15.957 C 14.359,17.237 16.555,18.581 16.555,18.581 S 16.085,17.822 16.059,17.251 C 16.03,16.649 16.336,15.756 16.336,15.756 S 16.358,16.826 16.556,17.366 C 16.813,18.072 17.546,18.876 17.546,18.876 S 18.11,17.366 17.993,16.512 C 17.825,15.292 16.505,14 16.505,14 S 16.059,14.887 15.285,15.957 Z" fill="rgb(254, 254, 253)"/>
<path d="M 12.329,18.791 C 12.812,20.165 15.463,19.616 15.463,19.616 S 14.645,19.451 14.16,19.143 C 13.648,18.818 13.09,18.055 13.09,18.055 S 13.877,18.682 14.422,18.877 C 15.166,19.143 16.505,19.143 16.505,19.143 S 15.439,17.545 14.668,17.148 C 13.568,16.58 11.446,16.808 11.446,16.808 S 11.906,17.561 12.339,18.806 Z" fill="rgb(254, 254, 253)"/>
<path d="M 12.108,20.802 C 12.643,19.477 15.166,20.059 15.166,20.059 S 14.323,20.213 13.826,20.502 C 13.303,20.807 12.84,21.595 12.84,21.595 S 13.573,20.991 14.124,20.817 C 14.878,20.579 16.207,20.65 16.207,20.65 S 15.207,22.055 14.422,22.423 C 13.38,22.911 11,22.563 11,22.563 S 11.636,22.045 12.118,20.817 Z" fill="rgb(254, 254, 253)"/>
</svg>
