<?xml version="1.0" encoding="UTF-8"?>
<!-- generated by Finnhub -->
<svg viewBox="0 0 55.5 55.5" xmlns="http://www.w3.org/2000/svg">
<path d="M 0,0 H 55.5 V 55.5 H 0 Z" fill="rgb(1, 109, 169)"/>
<path d="M 23.011999999999997,16.982 H 12.661 L 21.853,39.15 A 3,3 0 0,0 24.624,41 H 33.074 L 43.118,16.997 H 32.591 L 27.843,29.497 L 23.023,16.997 Z" fill="rgb(254, 254, 253)"/>
<path d="M 50.550000000000004,27.875 C 50.709,27.813 50.881,27.774 51.062,27.78 C 51.608,27.806 52.025,28.25 51.999,28.78 A 0.965,0.965 0 0,1 51.401,29.606 C 48.691,30.778 28.382,38.072 25.998,33.536 C 25.23,32.077 26.814,30.363 27.723,29.449 C 27.723,29.449 28.619,28.462 28.799,28.272 C 29.046,28.01 29.566,27.415 29.366,26.911 C 29.193,26.484 28.472,26.046 26.654,26.006 L 26.536,26.005 C 26.222,25.183 25.974,24.533 25.856,24.218 C 28.15,24.196 30.689,24.866 31.216,26.252 C 31.696,27.511 31.122,28.662 29.968,29.734 C 29.968,29.734 27.528,31.908 27.816,32.72 C 28.413,34.406 41.434,31.688 50.56,27.89 Z M 17.104,27.734 L 16.436,26.124 C 13.445,27.026 9.654,28.316 6.936,29.544 A 0.91,0.91 0 0,0 6.387,30.357 A 0.926,0.926 0 0,0 7.317,31.288 A 0.938,0.938 0 0,0 7.796,31.168 C 10.148,29.972 14.08,28.645 17.104,27.734 Z" fill="rgb(1, 109, 169)"/>
<path d="M 50.162,26.912 C 50.322,26.85 50.494,26.81 50.674,26.817 C 51.22,26.843 51.638,27.287 51.612,27.817 A 0.965,0.965 0 0,1 51.014,28.643 C 48.303,29.815 27.994,37.109 25.61,32.573 C 24.843,31.113 26.427,29.4 27.336,28.486 C 27.336,28.486 28.232,27.499 28.412,27.309 C 28.659,27.047 29.179,26.452 28.978,25.948 C 28.806,25.52 28.085,25.083 26.268,25.043 C 26.231,25.043 26.187,25.043 26.148,25.041 L 25.468,23.255 C 27.763,23.233 30.302,23.902 30.83,25.289 C 31.309,26.548 30.735,27.699 29.58,28.771 C 29.58,28.771 27.14,30.945 27.428,31.756 C 28.026,33.443 41.047,30.725 50.172,26.927 Z M 16.717,26.77 L 16.049,25.161 C 13.057,26.063 9.266,27.353 6.549,28.581 A 0.91,0.91 0 0,0 6,29.393 A 0.926,0.926 0 0,0 6.93,30.325 A 0.938,0.938 0 0,0 7.409,30.205 C 9.76,29.008 13.693,27.682 16.717,26.771 Z" fill="rgb(254, 206, 2)"/>
</svg>
