<?xml version="1.0" encoding="UTF-8"?>
<!-- generated by Finnhub -->
<svg viewBox="0 0 55.5 55.5" xmlns="http://www.w3.org/2000/svg">
<path d="M 0,0 H 55.5 V 55.5 H 0 Z" fill="rgb(239, 242, 248)"/>
<path d="M 11.61,23.985 H 12.78 L 12.3,26 H 13.79 L 13.5,27 H 12.06 L 11.34,30 H 7.44 L 8.16,27 H 6.52 L 5.48,31 H 12.62 L 12.32,32 H 4 L 5.29,27 H 4 L 4.3,26 H 5.55 L 6.06,24 H 7.3 L 6.78,26 H 8.4 L 8.88,24 H 10.05 L 9.57,26 H 11.14 L 11.62,24 Z M 10.42,29 H 8.83 L 9.32,27 H 10.89 L 10.4,29 Z" fill="rgb(29, 80, 135)" fill-rule="evenodd"/>
<path d="M 19.709999999999997,24.884999999999998 L 18.8,24 S 17.96,24.99 17.36,25.6 C 16.86,26.12 16,26.9 16,26.9 V 27.49 L 17.27,27.34 L 17.36,27.59 L 15.48,29.14 V 30 L 19.89,29.34 L 20.19,28.41 L 17.75,28.59 L 20.7,26 L 20,25.27 L 18.33,26.78 H 17.75 L 19.72,24.91 Z M 15,32 V 30.84 L 19.67,30.14 L 19.37,31 L 15,32 Z M 21.8,24 L 21.5,25 H 25.56 L 25.05,27 H 20.94 L 19.68,31.36 A 0.5,0.5 0 0,0 20.16,32 H 24.34 A 1,1 0 0,0 25.16,31.57 L 26,30.36 L 24.95,30 L 24.47,30.61 A 1,1 0 0,1 23.68,31 H 21.2 A 0.2,0.2 0 0,1 21.01,30.74 L 21.8,28 H 26.03 L 26.98,24 H 21.8 Z" fill="rgb(29, 80, 135)"/>
<path d="M 39.99,23.985 H 29.98 L 29.68,25 H 33.04 L 29.79,30 H 33.22 L 32.56,31 H 27.96 L 27.69,32 H 37.69 L 37.97,31 H 34.19 L 37.32,26 H 33.96 L 34.61,25 H 39.69 L 40,24 Z M 33.3,27 L 32,29 H 33.87 L 35.18,27 H 33.31 Z M 42,25 L 42.33,24 H 47.29 L 46.97,25 H 46.3 L 44.93,29.42 L 45.71,29.28 L 45.53,29.89 L 44.71,30.14 L 44.13,32 H 42.96 L 43.41,30.56 L 40.71,31.26 V 30.3 L 41.25,30.12 L 42.87,25 H 42 Z M 45.15,25 H 44.02 L 43.69,26 H 44.84 L 45.15,25 Z M 43.39,27 H 44.54 L 44.22,28 H 43.06 L 43.39,27 Z M 43.87,29 H 42.75 L 42.44,30 L 43.64,29.75 L 43.87,29 Z" fill="rgb(29, 80, 135)" fill-rule="evenodd"/>
<path d="M 47.34,24.425 L 48.36,24 L 48.99,25.5 H 49.41 L 50.5,24 L 51.38,24.6 L 50.67,25.5 H 52 L 51.8,26.5 H 49.58 C 49.51,26.83 49.36,27.52 49.28,28 H 51.43 L 51.23,29 H 49.2 C 49.35,30.73 50.99,31 50.99,31 L 50.53,32 S 49.39,31.73 48.91,31.16 C 48.43,30.59 48.26,29.76 48.26,29.76 S 47.81,30.55 46.91,31.16 C 46.1,31.72 45,32 45,32 V 31 S 46.8,30.68 47.65,29 H 45.35 L 45.65,28 H 48 L 48.35,26.5 H 46.1 L 46.42,25.5 H 47.78 L 47.35,24.44 Z" fill="rgb(29, 80, 135)"/>
</svg>
