<?xml version="1.0" encoding="UTF-8"?>
<!-- generated by Finnhub -->
<svg viewBox="0 0 55.5 55.5" xmlns="http://www.w3.org/2000/svg">
<path d="M 0,0 H 55.5 V 55.5 H 0 Z" fill="rgb(235, 176, 199)"/>
<path d="M 32.84,18.134999999999998 H 32.45 C 31.79,14.2 28.67,13.5 26.85,14.15 A 2.52,2.52 0 0,0 25.06,16.47 C 25.06,19.24 30.17,22.17 32.61,23.89 A 13.8,13.8 0 0,1 38.36,34.39 C 38.36,44.49 29.39,45.14 27.18,44.99 C 24.23,44.77 17.84,42.27 17.84,35.98 C 17.84,29.68 22.8,27.74 25.31,27.74 C 27.32,27.74 29,28.48 29.58,28.84 V 32.78 H 29.08 C 29.05,30.56 26.3,28.75 25.31,28.75 C 20.56,28.75 20.09,32.65 20.09,35.71 C 20.09,38.76 24.19,44.01 27.98,44.01 S 35.81,41.84 35.81,36.53 C 35.81,31.23 31.66,27.73 30.08,26.46 C 28.48,25.18 23.16,21.93 23.16,18.15 C 23.16,14.36 26.36,13 28.66,13 C 30.51,13 32.23,13.77 32.86,14.15 V 18.15 Z" fill="url(#b)"/>
<path d="M 32.53,18.134999999999998 C 32.51,17.08 32.28,15.23 31.54,14.5 C 30.52,13.5 26.79,12.69 25.15,14.77 C 23.51,16.85 24.38,19.01 25.5,20.37 C 25.76,20.67 26.5,21.25 27.48,22.01 C 30.75,24.51 36.72,29.11 36.89,33.35 C 37.11,38.87 35.87,44.51 28.05,44.51 S 18.79,36.34 18.79,35.56 C 18.79,34.78 19.08,28.24 25.43,28.24 C 26.76,28.14 29.33,28.84 29.06,32.47 C 28.79,30.39 26.26,28.75 25.31,28.75 C 20.56,28.75 20.09,32.65 20.09,35.71 C 20.09,38.76 24.19,44.01 27.98,44.01 S 35.81,41.84 35.81,36.53 C 35.81,31.23 31.66,27.73 30.08,26.46 C 29.84,26.26 29.53,26.04 29.16,25.77 C 27.04,24.21 23.16,21.37 23.16,18.15 C 23.16,14.36 26.36,13 28.66,13 C 30.51,13 32.23,13.77 32.86,14.15 V 18.15 H 32.54 Z" fill="url(#a)"/>
<path d="M 21.689999999999998,15.024999999999999 H 14 V 15.44 C 15.78,15.44 16.98,17.38 17.36,18.34 L 27.78,42.4 H 28.11 C 31.31,35.05 37.91,19.86 38.79,17.9 C 39.67,15.93 41.29,15.44 42,15.44 V 15.04 H 34.97 V 15.44 C 36.87,15.44 37.08,16.91 36.95,17.64 L 29.18,37.71 C 26.61,31.71 21.33,19.31 20.72,17.65 C 20.12,15.99 21.12,15.49 21.71,15.45 V 15.04 Z" fill="rgb(254, 254, 253)"/>
<path d="M 41.99,15.315 C 40.51,15.29 38.73,16.43 38,17.03 L 28.55,40.03 C 25.65,33.33 19.65,19.45 18.76,17.66 C 17.92,15.99 15.38,15.45 14,15.36 V 15.44 C 15.78,15.44 16.98,17.38 17.36,18.34 L 27.78,42.4 H 28.11 C 31.31,35.05 37.91,19.86 38.79,17.9 C 39.67,15.93 41.29,15.44 42,15.44 V 15.34 Z" fill="rgb(226, 226, 225)"/>
<defs>
<linearGradient id="b" x1="28.1" x2="28.1" y1="13" y2="45" gradientUnits="userSpaceOnUse">
<stop stop-color="rgb(218, 219, 218)" offset="0"/>
<stop stop-color="rgb(245, 247, 247)" offset=".67"/>
<stop stop-color="rgb(242, 244, 244)" offset="1"/>
</linearGradient>
<linearGradient id="a" x1="27.85" x2="27.85" y1="13" y2="44.51" gradientUnits="userSpaceOnUse">
<stop stop-color="rgb(241, 243, 243)" offset="0"/>
<stop stop-color="rgb(234, 235, 235)" offset=".7"/>
<stop stop-color="rgb(246, 249, 249)" offset="1"/>
</linearGradient>
</defs>
</svg>
