<?xml version="1.0" encoding="UTF-8"?>
<!-- generated by Finnhub -->
<svg viewBox="0 0 55.5 55.5" xmlns="http://www.w3.org/2000/svg">
<path d="M 0,0 H 55.5 V 55.5 H 0 Z" fill="rgb(0, 62, 108)"/>
<path d="M 21.171999999999997,32.982 C 20.022,32.991 18.926,32.762 17.986,32.033 A 2.902,2.902 0 0,1 17.032,30.684 C 16.973,30.521 16.978,30.437 17.2,30.424 C 18.025,30.375 18.848,30.304 19.671,30.239 A 0.461,0.461 0 0,1 20.126,30.409 C 20.556,30.925 21.803,31.013 22.32,30.587 A 0.498,0.498 0 0,0 22.503,30.364 C 22.567,30.091 22.767,30.078 22.984,30.073 C 23.792,30.051 24.601,30.029 25.409,30 C 25.569,29.995 25.599,30.04 25.576,30.199 C 25.383,31.499 24.551,32.234 23.381,32.657 A 6.027,6.027 0 0,1 21.182,32.997 Z" fill="rgb(99, 165, 8)"/>
<path d="M 25.308,28.416 C 23.692,28.503 22.113,28.581 20.546,28.779 A 3.13,3.13 0 0,1 18.665,28.378 C 17.553,27.811 17.105,26.76 17.409,25.482 A 2.792,2.792 0 0,1 19.085,23.476 A 5.565,5.565 0 0,1 23.632,23.496 A 2.695,2.695 0 0,1 25.252,25.598 C 25.281,25.746 25.25,25.764 25.125,25.763 C 24.263,25.761 23.401,25.761 22.538,25.765 C 22.442,25.765 22.402,25.715 22.348,25.653 A 1.616,1.616 0 0,0 20.464,25.358 A 0.49,0.49 0 0,0 20.394,26.215 C 20.622,26.385 20.882,26.508 21.158,26.575 C 21.987,26.831 22.85,26.961 23.666,27.265 C 24.27,27.456 24.81,27.811 25.224,28.29 C 25.25,28.323 25.271,28.36 25.318,28.431 Z" fill="rgb(254, 254, 253)"/>
<path d="M 37.99,30.412 C 38.37,30.41 38.739,30.425 39.105,30.471 C 39.77,30.511 40.432,30.578 41.097,30.621 A 0.272,0.272 0 0,1 41.332,30.795 L 42.095,32.075 C 42.13,32.133 42.173,32.187 42.234,32.273 C 42.407,31.813 42.577,31.389 42.724,30.956 C 42.777,30.801 42.854,30.776 42.999,30.794 C 43.791,30.886 44.585,30.974 45.379,31.053 C 45.563,31.071 45.576,31.141 45.526,31.295 A 51.581,51.581 0 0,0 45.057,32.82 C 45.009,32.988 44.896,33 44.771,33 C 43.723,33 42.675,32.997 41.627,33 C 41.005,33.002 40.5,33 39.762,32.997 A 0.353,0.353 0 0,1 39.399,32.801 C 38.971,32.065 38.529,31.337 38.091,30.606 C 38.061,30.556 38.037,30.5 38,30.426 Z M 29.508,32.996 C 29.075,32.996 28.642,32.99 28.21,33 C 28.046,33.004 27.999,32.944 28,32.773 C 28.007,31.933 28.007,31.095 28,30.255 C 28,30.078 28.048,29.999 28.224,30 C 29.09,30.006 29.955,30.008 30.82,30.004 C 30.964,30.004 30.998,30.074 30.998,30.212 C 30.995,31.08 30.994,31.947 31,32.815 C 31.001,32.976 30.93,32.998 30.806,32.996 C 30.373,32.992 29.941,32.995 29.508,32.995 V 32.996 Z" fill="rgb(99, 165, 9)"/>
<path d="M 35.478,32.978 C 35.054,32.993 34.62,32.989 34.186,32.996 C 34.053,32.998 33.999,32.959 34,32.802 C 34.006,31.932 34.004,31.062 34.002,30.192 C 34.002,30.072 34.012,29.993 34.159,30 C 35.008,30.044 35.857,30.085 36.706,30.11 C 36.951,30.118 37.005,30.225 37,30.475 C 37,31.5 37,32 36.997,32.735 C 37,32.933 36.957,33.007 36.764,32.999 C 36.339,32.984 35.914,32.995 35.488,32.995 V 32.993 Z" fill="rgb(99, 165, 8)"/>
<path d="M 15.081,32.982 C 14.665,32.997 14.239,32.99 13.813,33 C 13.651,33.003 13.598,32.953 13.601,32.787 C 13.611,32.257 13.613,31.729 13.603,31.2 C 13.6,31.033 13.67,30.976 13.813,30.962 C 14.696,30.876 15.579,30.792 16.46,30.701 C 16.57,30.689 16.605,30.727 16.605,30.828 C 16.605,31.501 16.604,32.173 16.609,32.845 C 16.61,32.99 16.53,32.999 16.422,32.998 C 15.979,32.996 15.535,32.998 15.091,32.997 Z" fill="rgb(99, 165, 9)"/>
<path d="M 8.543000000000001,32.978 C 8.065,32.993 7.577,32.986 7.089,32.997 A 0.237,0.237 0 0,1 6.814,32.79 C 6.602,32.1 6.598,32.107 7.294,31.959 C 8.368,31.73 9.454,31.574 10.536,31.387 C 10.707,31.357 10.736,31.41 10.682,31.571 C 10.546,31.977 10.412,32.386 10.3,32.799 A 0.222,0.222 0 0,1 10.133,32.992 A 0.217,0.217 0 0,1 10.043,32.995 C 9.547,32.987 9.05,32.992 8.553,32.992 Z" fill="rgb(99, 165, 11)"/>
<path d="M 50.468,32.985 C 50.006,33 49.585,32.99 49.139,33 C 48.981,33.004 48.898,32.954 48.856,32.792 A 22.65,22.65 0 0,0 48.537,31.682 C 48.491,31.532 48.505,31.495 48.673,31.52 C 49.545,31.65 50.413,31.806 51.277,31.987 C 51.427,32.019 51.634,31.962 51.717,32.127 C 51.837,32.376 51.934,32.637 52.007,32.904 C 52.05,33.05 51.887,32.999 51.831,33 C 51.376,33.008 50.934,33 50.478,33 Z" fill="rgb(99, 165, 12)"/>
<path d="M 8.606,29.06 L 9.379,26.121 L 10.129,23.213 C 10.156,23.112 10.157,23.003 10.316,23.004 C 11.293,23.011 12.271,23.008 13.272,23.008 L 12.461,25.692 C 12.021,27.146 11.576,28.599 11.143,30.055 A 0.444,0.444 0 0,1 11.018,30.279 C 10.956,30.339 10.878,30.379 10.793,30.392 C 9.401,30.754 8.033,31.207 6.695,31.748 C 6.568,31.801 6.526,31.797 6.482,31.642 C 5.66,28.782 4.832,25.925 4.001,23.069 C 3.998,23.061 4.003,23.051 4.005,23.035 C 4.062,22.982 4.135,23.009 4.201,23.009 C 5.063,23.007 5.926,23.016 6.788,23.001 C 6.985,22.998 7.043,23.076 7.087,23.247 C 7.563,25.08 8.043,26.911 8.525,28.742 L 8.615,29.075 Z M 51.555,31.656 C 50.855,31.414 50.195,31.182 49.533,30.959 A 18.096,18.096 0 0,0 48.438,30.627 A 0.358,0.358 0 0,1 48.248,30.522 A 0.376,0.376 0 0,1 48.148,30.325 C 47.808,29.087 47.458,27.852 47.112,26.617 C 47.092,26.547 47.068,26.477 47.032,26.36 C 46.802,27.107 46.585,27.812 46.37,28.518 C 46.242,28.936 46.115,29.353 45.993,29.773 C 45.956,29.901 45.915,29.97 45.757,29.935 C 44.935,29.754 44.11,29.585 43.268,29.408 L 44.284,26.558 C 44.682,25.444 45.085,24.334 45.476,23.218 A 0.276,0.276 0 0,1 45.586,23.048 A 0.261,0.261 0 0,1 45.782,23.004 C 46.617,23.012 47.453,23.009 48.289,23.006 C 48.409,23.006 48.502,23.004 48.555,23.156 C 49.547,25.976 50.544,28.796 51.555,31.656 Z M 29.421,23.007 C 30.711,23.007 32.001,23.012 33.29,23.002 C 33.493,23 33.54,23.056 33.535,23.261 A 52.629,52.629 0 0,0 33.535,25.348 C 33.538,25.549 33.475,25.59 33.295,25.588 C 32.601,25.578 31.967,25.598 31.275,25.576 C 31.026,25.569 30.987,25.654 30.991,25.882 C 31.005,26.605 30.991,27.329 31,28.052 C 31.002,28.232 30.96,28.273 30.775,28.269 C 29.931,28.251 29.105,28.249 28.261,28.262 C 28.041,28.265 27.996,28.194 28,27.985 C 28.012,27.28 27.997,26.575 28.01,25.869 C 28.014,25.649 27.966,25.572 27.736,25.578 C 27.034,25.594 26.252,25.577 25.55,25.588 C 25.367,25.591 25.304,25.541 25.306,25.348 C 25.315,24.634 25.316,23.919 25.305,23.205 C 25.302,23.015 25.381,23.005 25.526,23.005 C 26.825,23.009 28.123,23.007 29.421,23.007 Z M 13.606,26.333 C 13.606,25.298 13.611,24.263 13.602,23.229 C 13.6,23.045 13.652,23.002 13.824,23.004 C 14.687,23.012 15.549,23.012 16.412,23.004 C 16.58,23.002 16.618,23.054 16.618,23.22 C 16.611,25.134 16.61,27.048 16.614,28.961 C 16.614,29.138 16.554,29.192 16.392,29.22 C 15.534,29.364 14.676,29.513 13.822,29.682 C 13.623,29.722 13.602,29.667 13.603,29.492 C 13.608,28.439 13.606,27.386 13.606,26.332 Z" fill="rgb(254, 254, 253)"/>
<path d="M 37.806000000000004,22.995 C 37.52,23.012 37.239,23.013 36.981,23.008 C 36.685,23.008 36.405,23.008 36.137,23.01 C 35.474,23.012 34.879,23.014 34.286,23 C 34.036,22.994 33.99,23.077 34.001,23.305 C 34.014,23.563 34.011,23.822 34.009,24.081 L 34.007,24.403 A 4653.31,4653.31 0 0,0 34.005,28.188 C 34.001,28.294 33.998,28.39 34.177,28.398 C 36.327,28.508 38.468,28.711 40.6,29.008 A 0.897,0.897 0 0,0 41.252,28.845 C 42.106,28.293 42.432,27.449 42.487,26.475 C 42.589,24.665 41.804,23.207 39.64,23.049 C 39.015,23.003 38.388,23.007 37.816,23.01 Z M 39.148,25.48 A 4.012,4.012 0 0,0 38.138,25.398 H 37.796 C 37.562,25.4 37.369,25.4 37.176,25.396 C 37.053,25.394 36.998,25.424 37,25.564 C 37.006,25.979 37.005,26.394 37.003,26.81 V 27.152 C 37.003,27.23 37.003,27.297 37.111,27.294 C 37.333,27.287 37.556,27.292 37.778,27.297 C 38.234,27.307 38.69,27.317 39.14,27.225 A 0.806,0.806 0 0,0 39.662,26.929 A 0.82,0.82 0 0,0 39.839,26.352 C 39.844,25.875 39.628,25.603 39.148,25.479 Z" fill="rgb(254, 254, 253)" fill-rule="evenodd"/>
</svg>
