<?xml version="1.0" encoding="UTF-8"?>
<!-- generated by Finnhub -->
<svg viewBox="0 0 55.5 55.5" xmlns="http://www.w3.org/2000/svg">
<path d="M 0,0 H 55.5 V 55.5 H 0 Z" fill="rgb(239, 242, 248)"/>
<path d="M 35.13,35.425 C 22.76,45.06 10.49,28.54 12.34,19.29 A 0.05,0.05 0 0,0 12.26,19.26 A 18.01,18.01 0 0,0 18.73,43.43 C 18.96,43.57 19.22,43.68 19.48,43.75 C 21.83,44.35 29.73,45.32 35.21,35.51 A 0.05,0.05 0 1,0 35.14,35.44 Z" fill="rgb(111, 61, 149)"/>
<path d="M 30.869999999999997,18.085 C 45.4,24.01 37.22,42.9 28.28,45.91 A 0.04,0.04 0 1,0 28.3,46 A 18.01,18.01 0 0,0 46,28.32 C 46,28.05 45.97,27.77 45.89,27.52 C 45.23,25.18 42.14,17.85 30.89,18.02 A 0.04,0.04 0 0,0 30.88,18.1 Z" fill="rgb(240, 202, 18)"/>
<path d="M 17.979999999999997,30.445 C 15.84,14.93 36.29,12.56 43.38,18.8 A 0.04,0.04 0 0,0 43.44,18.74 A 18.02,18.02 0 0,0 19.28,12.25 C 19.04,12.39 18.82,12.55 18.63,12.75 C 16.94,14.49 12.14,20.83 17.9,30.49 A 0.05,0.05 0 0,0 17.99,30.46 Z" fill="rgb(41, 38, 108)"/>
<path d="M 27.49,31.985 V 34.88 C 27.06,34.67 26.54,34.16 26.07,33.21 A 8.5,8.5 0 0,1 25.58,32 H 27.5 Z M 25.77,34.64 A 8.36,8.36 0 0,1 24.54,32 H 22.25 A 7.02,7.02 0 0,0 25.77,34.64 Z M 27.5,31 H 25.31 C 25.14,30.24 25.04,29.4 25.01,28.5 H 27.5 V 31 Z M 27.5,27.5 H 25 C 25.04,26.6 25.14,25.76 25.31,25 H 27.5 V 27.5 Z M 28.5,28.5 V 31 H 30.69 C 30.86,30.24 30.96,29.4 30.99,28.5 H 28.5 Z M 31,27.5 H 28.5 V 25 H 30.69 C 30.86,25.76 30.96,26.6 30.99,27.5 Z M 32,28.5 C 31.97,29.38 31.87,30.22 31.7,31 H 34.33 C 34.69,30.23 34.92,29.39 34.98,28.5 H 32 Z M 34.98,27.5 H 32 C 31.98,26.62 31.88,25.78 31.72,25 H 34.34 C 34.7,25.77 34.93,26.61 34.99,27.5 Z M 24.01,27.5 C 24.03,26.62 24.13,25.78 24.29,25 H 21.67 C 21.31,25.77 21.08,26.61 21.02,27.5 H 24 Z M 21.01,28.5 C 21.08,29.39 21.31,30.23 21.67,31 H 24.29 C 24.13,30.22 24.03,29.38 24.01,28.5 H 21.01 Z M 28.5,34.88 V 32 H 30.42 C 30.28,32.44 30.12,32.85 29.93,33.21 C 29.46,34.16 28.94,34.67 28.5,34.88 Z M 30.23,34.64 C 30.73,33.96 31.16,33.05 31.46,32 H 33.75 A 7.02,7.02 0 0,1 30.23,34.64 Z M 30.43,24 H 28.5 V 21.12 C 28.94,21.33 29.46,21.84 29.93,22.79 C 30.11,23.15 30.28,23.56 30.42,24 Z M 33.76,24 H 31.47 A 8.36,8.36 0 0,0 30.24,21.36 A 7.02,7.02 0 0,1 33.76,24 Z M 27.51,24 H 25.59 C 25.73,23.56 25.89,23.15 26.08,22.79 C 26.55,21.84 27.07,21.33 27.51,21.12 V 24 Z M 24.55,24 C 24.85,22.95 25.27,22.04 25.78,21.36 A 7.02,7.02 0 0,0 22.25,24 H 24.54 Z M 28,20 A 8,8 0 1,1 28,36 A 8,8 0 0,1 28,20 Z" fill="rgb(41, 38, 108)" fill-rule="evenodd"/>
</svg>
