<?xml version="1.0" encoding="UTF-8"?>
<!-- generated by Finnhub -->
<svg viewBox="0 0 55.5 55.5" xmlns="http://www.w3.org/2000/svg">
<path d="M 0,0 H 55.5 V 55.5 H 0 Z" fill="url(#a)"/>
<path d="M 43.96,22.174 L 41.956,14.572 A 0.742,0.742 0 0,0 41.434,14.045 L 33.822,12.025 A 0.742,0.742 0 0,0 33.11,12.219 L 28.01,17.322 L 38.681,28.001 L 43.781,22.897 A 0.734,0.734 0 0,0 43.975,22.185" fill="rgb(76, 208, 123)"/>
<path d="M 12.036,33.805 L 14.065,41.432 A 0.74,0.74 0 0,0 14.587,41.955 L 22.199,43.975 A 0.737,0.737 0 0,0 22.911,43.782 L 28.015,38.674 L 17.318,28 L 12.214,33.107 A 0.742,0.742 0 0,0 12.024,33.82" fill="rgb(230, 206, 16)"/>
<path d="M 22.177999999999997,12.014 L 14.576,14.049 A 0.737,0.737 0 0,0 14.054,14.572 L 12.034,22.184 A 0.734,0.734 0 0,0 12.229,22.897 L 17.31,28 L 27.98,17.326 L 22.88,12.219 A 0.738,0.738 0 0,0 22.168,12.025" fill="rgb(159, 213, 53)"/>
<path d="M 43.7,33.021 L 38.681,28.004 L 28.011,38.683 L 33.038,43.718 A 0.918,0.918 0 0,0 33.923,43.955 L 41.341,41.989 A 0.914,0.914 0 0,0 41.99,41.336 L 43.954,33.921 A 0.919,0.919 0 0,0 43.718,33.036" fill="rgb(254, 125, 214)"/>
<path d="M 27.997999999999998,17.308 L 17.34,28 L 28.012,38.679 L 38.68,28.002 L 28.008,17.324 Z" fill="rgb(189, 26, 105)"/>
<defs>
<linearGradient id="a" x1="10.418" x2="68.147" y1="9.712" y2="76.017" gradientUnits="userSpaceOnUse">
<stop stop-color="rgb(25, 29, 31)" offset="0"/>
<stop stop-color="rgb(5, 5, 8)" offset="1"/>
</linearGradient>
</defs>
</svg>
