<?xml version="1.0" encoding="UTF-8"?>
<!-- generated by Finnhub -->
<svg viewBox="0 0 55.5 55.5" xmlns="http://www.w3.org/2000/svg">
<path d="M 0,0 H 55.5 V 55.5 H 0 Z" fill="rgb(239, 242, 248)"/>
<path d="M 37.445,30.512999999999998 C 36.977,25.856 31.409,22.633 24.727,23.358 C 20.83,23.761 17.25,25.453 15.261,27.869 C 13.989,29.399 13.431,31.172 13.591,32.944 C 13.989,37.214 18.681,40.194 24.568,40.194 C 25.125,40.194 25.682,40.194 26.318,40.114 C 30.216,39.711 33.795,38.019 35.784,35.603 C 37.057,34.073 37.614,32.3 37.454,30.528 Z" fill="rgb(254, 254, 253)"/>
<path d="M 26.15,38.488 C 20.511,39.066 15.58,36.489 15.182,32.783 C 14.784,29.078 19.159,25.533 24.807,24.969 C 30.534,24.405 35.387,26.983 35.784,30.689 C 36.182,34.475 31.886,37.939 26.159,38.503 Z M 38.01,26.419 C 37.533,26.259 37.215,26.178 37.454,25.533 C 38.01,24.163 38.09,22.955 37.454,22.069 C 36.34,20.459 33.238,20.539 29.738,21.989 C 29.738,21.989 28.624,22.472 28.942,21.586 C 29.499,19.814 29.419,18.364 28.544,17.558 C 26.635,15.625 21.544,17.638 17.169,21.988 C 13.909,25.291 11.999,28.755 11.999,31.736 C 12,37.536 19.318,41 26.557,41 C 35.943,41 42.227,35.522 42.227,31.172 C 42.227,28.514 40,27.064 38.011,26.419 Z" fill="rgb(210, 46, 45)"/>
<path d="M 27.023999999999997,31.64 C 26.795,32.058 26.318,32.3 25.92,32.139 C 25.522,31.978 25.443,31.494 25.602,31.091 C 25.841,30.689 26.318,30.447 26.636,30.689 C 27.113,30.769 27.193,31.172 27.034,31.655 Z M 24.409,33.589 C 23.852,34.394 22.579,34.797 21.625,34.394 C 20.67,33.992 20.431,33.024 20.988,32.3 C 21.545,31.494 22.738,31.172 23.693,31.494 C 24.727,31.817 25.045,32.784 24.409,33.589 Z M 26.716,27.467 C 23.931,26.741 20.829,28.111 19.636,30.527 C 18.443,33.025 19.556,35.764 22.42,36.65 C 25.284,37.617 28.704,36.167 29.897,33.508 C 31.091,30.93 29.579,28.191 26.716,27.466 Z" fill="rgb(37, 49, 54)"/>
<path d="M 46.433,24.874 C 46.284,25.372 45.807,25.694 45.33,25.694 C 44.693,25.694 44.136,25.131 44.136,24.486 C 44.136,24.325 44.136,24.164 44.216,24.003 C 44.455,23.278 44.614,22.473 44.614,21.667 C 44.614,17.639 41.432,14.417 37.454,14.417 C 37.136,14.417 36.739,14.417 36.421,14.497 H 36.261 C 35.625,14.497 35.068,13.933 35.068,13.289 C 35.068,12.644 35.625,12.081 36.262,12.081 C 36.659,12 37.057,12 37.455,12 C 42.705,12 47,16.35 47,21.667 C 47,22.794 46.841,23.842 46.443,24.889 Z M 42.228,21.667 C 42.228,19.008 40.08,16.833 37.455,16.833 H 36.898 H 36.818 A 1.215,1.215 0 0,0 35.784,18.042 C 35.784,18.686 36.341,19.25 36.978,19.25 H 37.375 C 38.727,19.25 39.761,20.297 39.761,21.667 C 39.761,21.908 39.682,22.231 39.602,22.472 C 39.522,22.633 39.522,22.714 39.522,22.875 C 39.522,23.519 40.08,24.083 40.716,24.083 C 41.193,24.083 41.591,23.761 41.83,23.358 V 23.278 C 41.83,23.198 41.83,23.198 41.91,23.117 C 42.148,22.633 42.228,22.15 42.228,21.667 Z" fill="rgb(248, 167, 35)"/>
</svg>
