<?xml version="1.0" encoding="UTF-8"?>
<!-- generated by Finnhub -->
<svg viewBox="0 0 55.5 55.5" xmlns="http://www.w3.org/2000/svg">
<path d="M 0,0 H 55.5 V 55.5 H 0 Z" fill="rgb(239, 242, 248)"/>
<path d="M 27.814999999999998,15.184999999999999 C 21.53,15.2 18.013,19.996 17.044,22.534 A 1.567,1.567 0 0,1 15.006,23.447 A 1.608,1.608 0 0,1 14.107,21.377 C 15.355,18.108 19.771,12 27.825,12 C 36.629,12 40.417,18.3 41.839,21.252 A 1.611,1.611 0 0,1 41.117,23.392 A 1.564,1.564 0 0,1 39.01,22.659 C 37.75,20.04 34.771,15.2 27.825,15.2 Z" fill="rgb(234, 160, 46)"/>
<path d="M 33.49,36.985 L 37,25 H 42 L 37,44 H 32 L 28,32 L 24.018,44 H 19 L 14,25 H 19 L 22.5,37 L 26,25 H 30 L 33.5,37 Z" fill="rgb(1, 101, 167)"/>
</svg>
