<?xml version="1.0" encoding="UTF-8"?>
<!-- generated by Finnhub -->
<svg viewBox="0 0 55.5 55.5" xmlns="http://www.w3.org/2000/svg">
<path d="M 0,0 H 55.5 V 55.5 H 0 Z" fill="rgb(44, 69, 143)"/>
<path d="M 9.989,39.925 C 8.752,39.88 8.011,38.79 8.011,36.924 C 8.007,30.485 7.988,25.047 8.011,18.608 C 8.011,17.778 9.2,17 9.847,17 H 46.03 C 47.014,17 47.739,18.034 47.895,18.795 L 48,36.92 C 48,38.564 47.214,39.941 45.868,39.941 C 45.868,39.941 20.035,40.076 9.999,39.941 Z M 21.735,27.639 S 22.265,33.368 22.514,35 H 26.828 S 27.475,32.982 28.266,30.636 C 29.056,28.29 29.632,26.25 29.632,26.25 L 26.206,26.122 L 25.57,28.179 C 24.815,30.882 24.994,30.734 24.659,27.909 C 24.551,27.025 24.425,26.052 24.425,26.052 L 19.422,25.87 L 17.384,29.8 L 17.753,25.806 L 14.424,25.686 L 13.43,35 H 18.16 L 21.736,27.639 Z M 36.044,34.812 C 37.278,34.542 38.239,34.306 39.377,33.52 C 43.272,30.854 44.644,25.514 42.127,23.192 C 41.607,22.706 40.53,22.092 39.647,22 H 31.861 L 31.034,25 H 37.745 C 39.317,25 39.487,27.48 38.86,28.806 C 38.005,30.586 35.727,31.783 33.755,31.459 C 33.683,31.447 34.006,30.268 34.45,28.929 C 34.881,27.589 35.193,26.459 35.193,26.459 L 30.591,26.285 L 29.225,30.465 C 28.47,32.784 27.799,35 27.799,35 S 34.977,35.046 36.044,34.812 Z M 18.464,22 H 14.772 L 14.472,25 H 18.02 L 18.463,22 Z M 24.01,22 H 21.243 L 19.853,25 H 24.335 L 24.01,22 Z M 31.034,22 H 27.355 L 26.49,25 H 30.104 L 31.034,22 Z" fill="rgb(254, 254, 253)" opacity=".98"/>
</svg>
