<?xml version="1.0" encoding="UTF-8"?>
<!-- generated by Finnhub -->
<svg viewBox="0 0 55.5 55.5" xmlns="http://www.w3.org/2000/svg">
<path d="M 0,0 H 55.5 V 55.5 H 0 Z" fill="rgb(239, 242, 248)"/>
<path d="M 22.144,40.8 C 22.864,41.288 24.038,39.051 24.01,39.075 C 23.535,39.47 23.361,39.199 23.198,38.842 C 23.17,38.782 23.082,38.726 23.082,38.726 S 22.85,39.422 22.502,39.886 C 22.275,40.189 21.806,40.583 22.154,40.814 Z M 24.019,41.627 C 24.939,41.975 25.903,39.863 25.875,39.887 C 25.399,40.282 25.226,40.011 25.063,39.654 C 25.035,39.594 24.947,39.538 24.947,39.538 S 24.715,40.234 24.367,40.698 C 24.14,41.001 23.627,41.478 24.019,41.626 Z M 32.132,41.743 C 31.212,42.091 30.365,39.863 30.392,39.886 C 30.868,40.282 31.042,40.011 31.205,39.654 A 0.358,0.358 0 0,1 31.321,39.538 S 31.436,40.35 31.784,40.814 C 32.011,41.117 32.524,41.594 32.132,41.743 Z M 34.104,40.815 C 33.184,41.163 32.214,39.063 32.248,39.075 C 32.596,39.19 32.897,39.199 33.06,38.842 C 33.088,38.782 33.176,38.726 33.176,38.726 S 33.408,39.422 33.756,39.886 C 33.983,40.189 34.496,40.666 34.104,40.814 Z" fill="rgb(20, 159, 215)"/>
<path d="M 18.314999999999998,25.948 L 25.867,17.609 L 29.464,16.913 L 34.685,21.206 L 37.005,26.196 L 35.265,31.532 L 33.061,34.549 C 32.983,35.206 33.038,36.568 32.945,36.753 C 32.852,36.939 32.906,37.836 33.061,38.262 L 32.597,38.842 L 31.9,38.262 L 31.668,39.19 L 30.74,39.886 L 29.812,39.422 L 28.304,40.35 L 27.027,40.118 L 26.215,39.19 L 25.635,39.886 L 25.171,39.422 L 24.591,38.262 L 23.431,38.842 L 22.966,37.566 C 23.121,36.56 23.222,34.479 22.386,34.201 C 21.551,33.922 19.331,28.593 18.326,25.963 Z" fill="rgb(240, 200, 207)"/>
<path d="M 26.756999999999998,10.056999999999999 A 9.122,9.122 0 0,0 24.476,10.537 C 22.636,11.137 21.244,12.067 20.103,13.468 A 4.255,4.255 0 0,0 19.829,13.823 C 19.82,13.843 19.69,13.933 19.538,14.022 C 18.935,14.379 18.298,14.812 17.716,15.262 A 18.125,18.125 0 0,0 14.698,18.299 A 16.55,16.55 0 0,0 11.896,23.927 C 11.633,24.855 11.475,25.708 11.354,26.832 C 11.29,27.417 11.282,29.292 11.339,29.845 C 11.437,30.793 11.579,31.649 11.76,32.381 C 11.815,32.603 11.855,32.791 11.85,32.796 C 11.826,32.816 11.466,32.508 11.259,32.289 C 11.14,32.165 10.939,31.937 10.812,31.782 C 10.682,31.626 10.578,31.532 10.552,31.532 C 10.48,31.532 10.44,31.614 10.46,31.888 C 10.495,32.355 10.751,33.004 11.071,33.428 L 11.271,33.635 H 11.083 C 10.858,33.635 10.541,33.612 10.319,33.505 C 10.077,33.389 9.695,33.158 9.507,32.925 C 9.291,32.66 9.255,32.575 9.154,32.771 C 8.947,33.18 9.039,34.079 9.356,34.716 C 9.653,35.316 10.046,35.662 10.714,35.906 C 10.829,35.95 10.927,35.999 10.933,36.019 C 10.95,36.069 10.753,36.199 10.552,36.173 C 10.362,36.15 9.915,35.924 9.889,35.883 C 9.866,35.846 9.739,35.846 9.716,35.883 C 9.572,36.117 10.546,36.863 11.417,37.19 C 11.988,37.403 12.53,37.484 13.233,37.46 C 13.519,37.449 13.787,37.435 13.83,37.423 C 13.9,37.406 13.92,37.426 14.086,37.677 A 16.956,16.956 0 0,0 18.434,42.09 C 19.33,42.718 20.63,43.428 21.61,43.823 A 16.823,16.823 0 0,0 30.469,44.86 C 31.299,44.74 32.379,44.477 33.213,44.2 A 17.182,17.182 0 0,0 37.096,42.3 A 17.133,17.133 0 0,0 41.743,37.677 C 41.884,37.467 41.953,37.386 41.985,37.394 C 42.106,37.432 42.555,37.469 42.867,37.469 A 4.688,4.688 0 0,0 45.689,36.532 C 46.047,36.264 46.222,36.042 46.191,35.892 C 46.176,35.829 46.158,35.849 45.939,35.942 C 45.683,36.048 45.289,36.205 45.127,36.173 C 45.055,36.159 44.98,36.031 44.977,36.016 C 44.974,35.999 45.095,35.941 45.245,35.884 C 45.608,35.748 45.819,35.624 46.044,35.414 C 46.456,35.028 46.718,34.512 46.831,33.877 C 46.877,33.627 46.857,32.969 46.799,32.843 C 46.753,32.733 46.658,32.626 46.612,32.626 C 46.589,32.626 46.475,32.853 46.287,33.041 C 45.993,33.338 45.921,33.401 45.707,33.505 C 45.457,33.625 45.057,33.635 44.83,33.635 H 44.633 L 44.882,33.367 C 44.982,33.217 45.104,33.013 45.153,32.912 C 45.444,32.304 45.571,31.468 45.369,31.508 C 45.34,31.514 45.211,31.646 45.078,31.805 C 44.767,32.179 44.412,32.54 44.181,32.715 A 1.35,1.35 0 0,1 43.977,32.857 C 43.965,32.857 43.988,32.745 44.026,32.603 C 44.13,32.214 44.311,31.3 44.377,30.839 C 44.66,28.859 44.594,26.838 44.176,24.878 C 43.23,20.427 40.396,16.492 36.424,14.114 L 35.952,13.831 L 35.787,13.558 A 5.132,5.132 0 0,0 34.94,12.459 C 34.412,11.929 33.928,11.635 33.199,11.399 A 3.314,3.314 0 0,0 31.973,11.246 C 31.683,11.257 31.581,11.274 31.363,11.349 C 31.215,11.399 31.091,11.439 31.083,11.439 C 31.074,11.439 31.051,11.389 31.031,11.329 C 30.878,10.862 30.345,10.505 29.491,10.297 A 8.363,8.363 0 0,0 27.575,10.069 A 20.914,20.914 0 0,0 26.767,10.072 Z M 37.332,16.328 C 38.402,17.167 39.526,18.323 40.304,19.395 C 41.901,21.589 42.844,24.05 43.158,26.832 C 43.218,27.372 43.245,28.859 43.201,29.47 C 43.121,30.626 42.884,31.914 42.564,32.929 A 18.77,18.77 0 0,0 42.446,33.304 C 42.377,33.537 42.371,33.543 42.149,33.589 C 41.809,33.664 41.374,33.696 40.725,33.693 C 40.287,33.69 40.1,33.699 40.068,33.722 C 40.005,33.776 40.018,33.906 40.1,33.982 C 40.198,34.074 40.218,34.209 40.16,34.393 C 40.114,34.535 39.944,34.93 39.912,34.961 C 39.904,34.97 39.86,35.031 39.814,35.097 C 39.702,35.267 39.442,35.503 39.316,35.555 C 39.258,35.581 39.279,35.59 39.21,35.593 C 39.043,35.602 38.981,35.663 39.094,35.825 C 39.16,35.915 39.122,35.97 39.249,36.008 C 39.37,36.042 39.463,36.1 39.609,36.233 C 39.869,36.463 40.163,36.679 40.425,36.833 C 40.538,36.901 40.718,36.863 40.718,36.87 C 40.718,36.91 39.988,37.861 39.678,38.23 C 37.621,40.695 34.865,42.45 31.826,43.235 C 30.342,43.618 29.258,43.742 27.635,43.715 C 26.505,43.699 25.905,43.638 24.937,43.448 A 15.313,15.313 0 0,1 15.929,37.962 C 15.661,37.628 15.193,37.023 15.193,36.986 C 15.193,36.974 15.216,36.921 15.309,36.87 C 15.603,36.702 15.966,36.53 16.217,36.305 C 16.352,36.184 16.517,36.065 16.586,36.036 L 16.585,35.941 L 16.56,35.933 C 16.398,35.873 16.246,35.754 16.246,35.691 C 16.246,35.671 16.234,35.653 16.223,35.653 C 16.165,35.653 15.805,34.93 15.776,34.76 A 0.286,0.286 0 0,0 15.75,34.685 A 2.585,2.585 0 0,1 15.67,34.359 C 15.62,34.119 15.614,34.042 15.64,33.964 C 15.66,33.909 15.683,33.866 15.695,33.866 C 15.707,33.866 15.744,33.783 15.773,33.736 L 15.647,33.853 H 14.96 C 14.289,33.853 14.026,33.661 13.622,33.569 L 13.467,33.534 L 13.343,33.145 A 15.43,15.43 0 0,1 12.89,25.435 A 15.37,15.37 0 0,1 18.13,16.616 C 18.258,16.512 18.364,16.432 18.37,16.435 C 18.373,16.44 18.327,16.573 18.26,16.731 A 24.65,24.65 0 0,0 17.64,18.556 C 17.425,19.296 17.214,20.303 17.067,21.277 C 17.021,21.58 16.969,21.825 16.926,21.926 C 16.626,22.636 16.386,23.606 16.303,24.451 C 16.257,24.886 16.283,25.933 16.343,26.325 A 6.98,6.98 0 0,0 17.053,28.533 C 17.298,29.029 17.459,29.283 17.923,29.911 C 18.298,30.413 18.725,31.021 18.725,31.044 C 18.725,31.058 18.699,31.07 18.67,31.07 C 18.638,31.07 18.508,31.125 18.379,31.19 C 18.093,31.335 17.819,31.594 17.609,31.914 L 17.462,32.139 L 17.502,32.289 C 17.526,32.373 17.552,32.557 17.563,32.704 C 17.58,32.967 17.58,32.969 17.491,33.082 C 17.404,33.188 17.404,33.197 17.451,33.237 C 17.477,33.26 17.577,33.27 17.629,33.273 C 17.986,33.296 18.339,33.639 18.557,34.317 A 0.841,0.841 0 0,1 18.511,34.915 C 18.468,34.999 18.448,35.071 18.459,35.111 C 18.469,35.149 18.627,35.331 18.809,35.518 L 19.253,35.709 L 19.316,35.84 C 20.088,35.757 20.653,35.616 21.169,35.376 C 21.541,35.204 21.809,35.019 22.118,34.722 L 22.38,34.468 L 22.452,34.563 C 22.492,34.615 22.556,34.725 22.593,34.803 C 22.653,34.938 22.66,34.987 22.668,35.639 C 22.671,36.019 22.665,36.426 22.654,36.544 L 22.631,36.757 L 22.475,36.622 C 22.201,36.392 21.936,36.305 21.87,36.429 C 21.85,36.463 21.847,36.674 21.858,36.996 C 21.89,37.996 21.711,38.746 21.293,39.349 A 2.606,2.606 0 0,1 20.703,39.959 L 20.593,40.035 L 20.673,40.067 C 20.786,40.11 21.077,40.037 21.285,39.911 C 21.518,39.77 21.847,39.452 22.008,39.213 C 22.167,38.974 22.308,38.633 22.371,38.331 C 22.421,38.098 22.431,38.075 22.487,38.075 C 22.76,38.075 22.959,38.854 23.144,39.072 C 23.374,39.344 23.732,39.346 23.928,39.245 A 2.11,2.11 0 0,0 24.208,39.023 C 24.318,38.928 24.409,38.85 24.415,38.856 L 24.505,39.069 C 24.548,39.179 24.64,39.36 24.703,39.469 C 24.77,39.579 24.845,39.709 24.873,39.759 C 24.954,39.891 25.162,40.087 25.277,40.136 C 25.413,40.19 25.623,40.19 25.81,40.136 C 25.92,40.101 26,40.049 26.125,39.926 L 26.292,39.761 L 26.566,40.035 C 26.822,40.291 26.966,40.389 27.237,40.493 C 27.304,40.519 27.297,40.528 27.085,40.753 C 26.839,41.006 26.652,41.338 26.591,41.62 C 26.54,41.86 26.571,42.275 26.652,42.445 C 26.802,42.756 27.162,43.018 27.603,43.136 C 27.857,43.203 28.361,43.206 28.609,43.139 C 29.402,42.926 29.86,42.289 29.736,41.569 C 29.682,41.239 29.546,41.003 29.266,40.739 L 29.03,40.513 L 29.223,40.418 C 29.468,40.294 29.688,40.095 29.8,39.899 C 29.915,39.697 29.964,39.697 30.18,39.917 C 30.544,40.286 31.025,40.34 31.334,40.052 C 31.433,39.952 31.462,39.892 31.544,39.772 C 31.656,39.608 31.844,39.233 31.927,39.002 C 31.999,38.81 32.028,38.804 32.117,38.972 C 32.164,39.063 32.365,39.21 32.484,39.239 C 32.636,39.277 32.757,39.228 32.91,39.075 C 33.043,38.942 33.124,38.821 33.398,38.351 C 33.455,38.253 33.518,38.176 33.538,38.176 C 33.565,38.176 33.64,38.336 33.729,38.582 C 33.813,38.807 33.937,39.086 34.003,39.202 C 34.161,39.472 34.588,39.905 34.807,40.015 C 34.974,40.098 35.141,40.115 35.164,40.055 C 35.179,40.017 35.044,39.79 35.044,39.79 S 34.689,39.308 34.554,39.046 C 34.28,38.507 34.161,38.054 34.118,37.342 C 34.086,36.844 34.066,36.728 33.991,36.584 C 33.871,36.348 33.573,36.316 33.467,36.527 A 7.533,7.533 0 0,0 33.253,37.106 C 33.06,37.676 32.983,37.861 32.841,38.083 C 32.708,38.288 32.648,38.323 32.501,38.279 C 32.421,38.253 32.348,38.196 32.241,38.066 C 32.017,37.795 31.919,37.766 31.72,37.907 C 31.602,37.991 31.524,38.127 31.368,38.519 C 31.14,39.095 31.04,39.245 30.82,39.329 C 30.705,39.372 30.688,39.372 30.607,39.331 C 30.558,39.305 30.426,39.173 30.31,39.037 C 29.938,38.593 29.834,38.611 29.405,39.182 C 29.073,39.622 28.941,39.744 28.569,39.94 C 28.396,40.035 28.226,40.127 28.194,40.147 C 28.142,40.179 28.102,40.167 27.863,40.049 C 27.214,39.726 26.92,39.459 26.718,39.003 C 26.626,38.789 26.578,38.738 26.468,38.738 C 26.349,38.738 26.286,38.781 25.986,39.075 C 25.681,39.369 25.62,39.38 25.456,39.19 C 25.34,39.058 25.185,38.764 25.041,38.406 C 24.882,38.006 24.703,37.816 24.496,37.816 C 24.389,37.816 24.296,37.896 23.905,38.331 C 23.807,38.441 23.752,38.478 23.706,38.472 C 23.666,38.467 23.582,38.372 23.458,38.196 L 23.274,37.928 L 23.297,36.688 L 23.323,35.446 L 23.654,35.714 C 25.164,36.934 26.28,37.579 27.257,37.795 C 27.615,37.873 28.197,37.879 28.569,37.804 C 29.584,37.604 30.745,36.954 32.152,35.8 C 32.345,35.642 32.504,35.52 32.507,35.532 C 32.507,35.544 32.513,35.578 32.518,35.61 C 32.524,35.642 32.544,35.829 32.562,36.028 C 32.602,36.455 32.685,36.976 32.74,37.138 C 32.798,37.311 32.879,37.296 32.942,37.106 C 33.032,36.832 33.138,35.84 33.138,35.246 C 33.138,34.906 33.19,34.766 33.438,34.405 C 33.648,34.099 33.654,34.094 33.694,34.16 C 33.934,34.55 34.092,34.765 34.282,34.964 C 34.796,35.5 35.332,35.751 36.058,35.789 L 36.395,35.806 L 36.534,35.694 C 36.609,35.63 36.788,35.504 36.929,35.408 C 37.217,35.215 37.347,35.1 37.347,35.033 C 37.347,35.007 37.303,34.947 37.249,34.895 C 37.067,34.722 37.049,34.477 37.191,34.045 C 37.425,33.335 37.822,32.943 38.364,32.895 A 0.497,0.497 0 0,0 38.546,32.855 C 38.555,32.84 38.54,32.791 38.514,32.742 C 38.451,32.618 38.428,32.318 38.471,32.139 C 38.506,31.998 38.503,31.989 38.428,31.899 C 38.078,31.473 37.673,31.159 37.321,31.041 A 0.89,0.89 0 0,1 37.116,30.951 C 37.116,30.94 37.2,30.842 37.301,30.732 A 5.42,5.42 0 0,0 37.995,29.842 C 38.5,29.084 38.88,28.132 39.134,27.005 C 39.169,26.855 39.226,26.607 39.264,26.458 C 39.425,25.82 39.463,25.488 39.463,24.699 C 39.465,23.938 39.451,23.771 39.304,22.724 C 39.163,21.718 38.978,20.9 38.724,20.13 A 11.492,11.492 0 0,0 38.076,18.588 A 40.4,40.4 0 0,1 37.686,17.766 A 91.374,91.374 0 0,1 36.981,16.115 C 36.949,16.042 37.024,16.085 37.332,16.328 Z M 29.232,19.744 C 28.924,21.205 28.215,22.465 26.986,23.73 C 26.805,23.918 26.747,23.996 26.773,24.013 C 26.793,24.027 26.966,24.033 27.157,24.024 C 27.543,24.01 27.869,23.932 28.307,23.756 C 29.134,23.425 30.319,22.595 30.907,21.943 A 9.41,9.41 0 0,0 32.25,20.006 L 32.46,19.602 A 3.2,3.2 0 0,1 32.573,19.905 C 32.83,20.64 33.337,21.56 34.19,22.825 C 34.87,23.831 35.176,24.445 35.355,25.172 L 35.497,25.267 C 35.719,24.936 36.136,25.154 36.309,25.61 C 36.45,25.988 36.505,26.67 36.427,27.12 C 36.335,27.65 36.107,28.158 35.845,28.42 C 35.646,28.62 35.462,28.7 35.315,28.654 C 35.26,28.64 35.265,28.626 35.265,28.632 C 35.265,28.64 35.207,28.898 35.149,29.212 C 34.872,30.76 34.559,31.687 34.135,32.497 C 33.761,33.217 33.311,33.754 32.242,34.76 C 31.247,35.694 31.002,35.89 30.218,36.356 C 29.713,36.656 29.488,36.766 29.148,36.878 C 28.745,37.008 28.439,37.051 27.949,37.048 A 3.451,3.451 0 0,1 26.577,36.775 C 25.58,36.377 23.715,34.999 22.737,33.941 C 21.711,32.831 21.147,31.801 20.803,30.421 A 53.577,53.577 0 0,1 20.425,28.628 C 20.425,28.622 20.397,28.637 20.362,28.66 C 20.287,28.715 20.129,28.72 19.99,28.674 C 19.754,28.594 19.662,28.464 19.39,27.833 C 19.206,27.403 19.157,27.163 19.157,26.697 C 19.16,25.944 19.347,25.517 19.768,25.307 C 19.982,25.197 20.12,25.192 20.178,25.281 C 20.227,25.359 20.281,25.639 20.281,25.811 C 20.281,25.999 20.331,25.988 20.351,25.797 C 20.382,25.523 20.503,25.111 20.631,24.857 C 20.815,24.486 21.097,24.189 21.466,23.981 C 21.613,23.901 22.386,23.595 22.406,23.612 A 0.642,0.642 0 0,1 22.328,23.748 C 22.23,23.898 22.193,24.088 22.242,24.18 C 22.288,24.267 22.38,24.25 22.842,24.062 C 23.539,23.777 23.68,23.745 24.259,23.745 C 24.646,23.742 24.698,23.751 24.951,23.828 C 25.603,24.036 25.9,24.028 25.738,23.811 C 25.675,23.725 25.153,23.391 24.845,23.241 A 1.704,1.704 0 0,0 24.401,23.096 A 2.185,2.185 0 0,1 24.153,23.044 C 24.147,23.039 24.185,23.018 24.236,22.998 A 29.674,29.674 0 0,0 25.716,22.306 C 27.26,21.499 28.387,20.629 29.122,19.675 A 0.731,0.731 0 0,1 29.264,19.519 A 1.14,1.14 0 0,1 29.232,19.744 Z M 28.264,40.903 C 28.534,40.963 28.82,41.266 28.894,41.568 C 29.007,42.012 28.826,42.341 28.396,42.485 C 27.851,42.667 27.338,42.352 27.324,41.831 C 27.315,41.491 27.471,41.151 27.713,40.989 C 27.883,40.874 28.036,40.848 28.263,40.903 Z" fill="rgb(68, 54, 52)"/>
<path d="M 18.546999999999997,30.820999999999998 C 15.033,26.776 16.353,23.642 16.933,21.902 C 17.165,18.769 18.441,15.289 20.53,12.968 C 21.901,11.471 23.95,10.433 25.403,10.184 C 28.171,9.709 29.849,10.245 30.624,10.764 C 30.986,11.006 31.088,11.344 31.088,11.344 S 32.016,10.88 33.641,11.46 C 34.28,11.797 35.274,12.548 35.961,13.664 C 36.889,15.173 37.391,16.784 37.818,17.841 C 38.746,19.814 38.991,20.548 39.442,23.526 C 39.729,25.421 39.39,27.258 38.746,28.632 C 38.088,30.034 37.122,30.952 37.122,30.952 S 37.47,31.068 37.818,31.3 C 38.244,31.526 38.514,31.996 38.514,31.996 C 38.534,32.079 38.5,32.286 38.514,32.461 C 38.526,32.612 38.594,32.726 38.55,32.856 C 38.514,32.925 38.219,32.907 38.166,32.925 C 37.122,33.389 36.889,34.665 37.353,34.781 C 37.53,34.987 36.698,35.568 36.657,35.593 C 36.559,35.653 36.433,35.825 36.425,35.825 C 34.625,35.938 34.062,34.742 33.677,34.14 C 33.657,34.11 33.609,34.157 33.622,34.14 C 34.105,33.505 34.802,31.996 35.033,31.068 C 35.265,30.14 35.265,28.632 35.265,28.632 C 35.363,28.632 35.413,28.662 35.497,28.632 C 35.914,28.48 36.213,27.934 36.309,27.355 C 36.731,24.823 35.497,24.919 35.381,25.499 C 35.497,24.223 32.597,20.974 32.481,19.582 C 30.392,23.642 27.723,24.222 26.679,23.991 C 28.536,22.366 29.232,19.581 29.232,19.581 S 27.027,22.482 22.386,23.642 C 20.808,24.037 20.496,25.406 20.414,25.847 C 20.401,25.917 20.309,25.974 20.298,25.963 C 20.182,25.847 20.221,25.653 20.182,25.383 C 20.143,25.113 19.834,25.267 19.834,25.267 C 18.558,26.079 19.627,28.263 19.718,28.4 C 19.95,28.748 20.221,28.709 20.414,28.632 C 20.414,28.632 20.53,30.372 20.878,31.532 C 21.128,32.367 21.622,33.28 21.922,33.737 C 22.089,33.991 22.386,34.433 22.386,34.433 C 22.108,35.175 19.834,36.173 19.369,35.941 C 18.905,35.709 18.485,35.351 18.325,35.129 C 18.289,35.079 18.434,35.027 18.441,35.013 C 18.48,34.936 18.558,34.827 18.558,34.549 C 18.518,34.116 18.209,33.737 17.978,33.505 C 17.872,33.4 17.806,33.28 17.588,33.28 C 17.458,33.28 17.314,33.212 17.397,33.157 C 17.745,32.925 17.397,32.112 17.397,32.112 S 17.534,31.97 17.573,31.891 C 17.734,31.557 18.203,31.162 18.673,31.068 H 18.674 C 18.697,31.055 18.731,31.036 18.557,30.836 Z M 40.022,33.62 C 40.138,33.389 41.471,33.65 42.342,33.505 C 43.038,33.388 43.384,33.267 43.967,32.808 C 44.672,32.252 45.454,31.257 45.475,31.532 C 45.513,32.032 45.314,33.148 44.67,33.615 C 44.83,33.516 45.72,33.767 46.403,32.808 C 46.433,32.766 46.594,32.576 46.635,32.576 C 46.676,32.576 46.815,32.658 46.867,32.924 C 46.958,33.382 46.947,34.263 46.403,35.013 C 46.155,35.355 46.018,35.55 45.707,35.709 C 45.386,35.873 44.955,36.039 45.011,36.057 C 45.359,36.173 45.823,35.941 45.823,35.941 S 46.41,35.696 46.287,35.941 C 46.055,36.405 44.523,37.728 42.11,37.449 A 6.922,6.922 0 0,1 40.486,36.869 C 40.069,36.655 39.306,36.232 38.978,35.941 L 38.746,35.825 C 38.668,35.748 38.537,35.57 38.63,35.477 C 38.746,35.361 39.558,35.709 40.022,34.433 C 40.199,33.945 39.906,33.853 40.022,33.62 Z M 15.773,33.736 S 14.613,33.853 13.568,33.505 C 12.898,33.281 12.526,33.267 11.944,32.808 C 11.238,32.252 10.457,31.257 10.435,31.532 C 10.397,32.032 10.596,33.148 11.24,33.615 C 11.08,33.516 10.19,33.767 9.507,32.808 C 9.477,32.766 9.317,32.576 9.275,32.576 C 9.235,32.576 9.096,32.658 9.043,32.924 C 8.953,33.382 8.963,34.263 9.507,35.013 C 9.756,35.355 9.893,35.55 10.203,35.709 C 10.524,35.873 10.955,36.039 10.9,36.057 C 10.551,36.173 10.087,35.941 10.087,35.941 S 9.501,35.696 9.623,35.941 C 9.855,36.405 11.387,37.728 13.8,37.449 C 14.13,37.379 14.778,37.202 15.424,36.869 C 15.841,36.655 15.909,36.58 16.237,36.289 C 16.587,36.079 16.701,35.941 16.701,35.941 S 16.237,35.825 15.773,34.549 C 15.678,34.289 15.587,34.085 15.657,33.969 C 15.719,33.866 15.773,33.736 15.773,33.736 Z" fill="rgb(185, 35, 42)"/>
<path d="M 13.979000000000001,30.775 C 13.585,31.623 14.959,32.958 15.767,33.375 C 15.794,33.403 15.767,33.737 15.767,33.737 S 15.605,33.82 15.605,33.904 C 15.553,34.814 15.952,35.486 16.332,35.822 A 0.876,0.876 0 0,0 16.574,35.989 C 16.638,36.022 17.062,35.907 16.933,36.173 A 0.8,0.8 0 0,0 16.933,36.87 C 17.148,37.51 17.533,38.667 17.948,38.796 C 18.755,39.046 20.048,38.212 20.291,37.796 C 20.485,37.462 20.443,37.146 20.21,36.878 C 19.483,36.044 18.441,35.263 18.441,35.129 C 18.441,34.963 18.508,34.978 18.557,34.781 C 18.737,34.069 17.947,33.247 17.543,33.164 C 17.513,33.157 17.45,33.138 17.513,33.041 C 17.675,32.791 17.383,31.54 17.059,30.372 C 16.901,29.958 16.718,29.75 16.494,29.622 C 16.041,29.362 14.393,29.955 13.989,30.789 Z M 41.683,30.495 C 42.087,31.329 40.713,32.664 39.905,33.081 C 39.878,33.109 39.905,33.443 39.905,33.443 S 40.138,33.769 40.138,33.853 C 40.19,34.763 39.822,35.141 39.442,35.477 A 1.714,1.714 0 0,1 39.097,35.695 C 39.034,35.727 38.61,35.613 38.739,35.88 A 0.8,0.8 0 0,1 38.739,36.576 C 38.524,37.216 38.139,38.374 37.724,38.502 C 36.916,38.752 35.624,37.918 35.381,37.502 C 35.187,37.168 35.229,36.852 35.462,36.584 C 36.189,35.75 37.238,35.03 37.238,34.897 C 37.238,34.73 37.122,34.665 37.122,34.433 C 37.122,33.699 37.725,32.953 38.129,32.87 C 38.159,32.863 38.222,32.845 38.159,32.747 C 37.997,32.497 38.289,31.246 38.613,30.078 C 38.771,29.664 38.954,29.456 39.178,29.328 C 39.63,29.068 41.279,29.661 41.683,30.495 Z" fill="rgb(20, 159, 215)"/>
<path d="M 16.15,33.735 C 16.16,33.867 16.182,33.903 16.237,33.969 C 16.291,34.035 16.577,33.736 16.701,33.678 C 16.744,33.658 17.004,33.582 17.087,33.532 C 17.238,33.442 17.302,33.361 17.319,33.314 C 17.345,33.241 16.643,33.294 16.391,33.46 C 16.276,33.535 16.159,33.634 16.159,33.75 Z M 39.519,33.519 C 39.519,33.635 39.496,33.671 39.442,33.737 C 39.387,33.803 39.102,33.504 38.978,33.446 C 38.934,33.426 38.675,33.35 38.591,33.3 C 38.441,33.21 38.376,33.13 38.359,33.082 C 38.334,33.01 39.036,33.062 39.287,33.228 C 39.403,33.304 39.519,33.402 39.519,33.518 Z" fill="rgb(254, 254, 253)"/>
<path d="M 18.031,35.153999999999996 C 17.987,35.255 17.69,35.422 17.413,35.523 C 17.183,35.61 17.053,35.702 17.053,35.78 C 17.053,35.88 17.211,35.93 17.39,35.886 C 17.462,35.866 17.528,35.858 17.534,35.866 C 17.543,35.875 17.594,35.987 17.647,36.117 C 17.77,36.42 17.941,36.645 18.079,36.691 C 18.197,36.731 18.339,36.711 18.41,36.645 C 18.485,36.578 18.425,36.374 18.28,36.209 C 18.133,36.042 17.938,35.743 18.13,35.555 C 18.238,35.454 18.292,35.275 18.243,35.195 C 18.206,35.137 18.073,35.12 18.042,35.169 Z M 16.061,31.68 C 15.987,31.802 15.949,32.058 15.963,32.37 C 15.975,32.632 15.989,32.693 16.067,32.845 C 16.235,33.177 16.457,33.289 16.644,33.131 C 16.748,33.044 16.744,33.036 16.56,32.669 C 16.433,32.422 16.275,32.004 16.275,31.914 C 16.275,31.857 16.162,31.617 16.131,31.617 C 16.116,31.617 16.085,31.647 16.061,31.681 Z M 39.69,32.113 C 39.35,32.439 39.327,32.462 39.212,32.603 A 0.639,0.639 0 0,0 39.085,32.839 C 39.071,32.932 39.079,32.955 39.175,33.044 C 39.295,33.157 39.42,33.2 39.564,33.174 C 39.684,33.157 39.768,33.041 39.904,32.713 C 40.036,32.395 40.057,32.318 40.057,32.139 C 40.057,31.975 40.025,31.905 39.947,31.905 C 39.927,31.905 39.809,32.001 39.69,32.113 Z M 37.44,35.255 A 0.703,0.703 0 0,0 37.379,35.371 C 37.353,35.437 37.361,35.461 37.431,35.529 C 37.54,35.642 37.635,35.815 37.635,35.907 C 37.635,35.973 37.592,36.086 37.361,36.616 C 37.315,36.72 37.333,36.789 37.419,36.836 C 37.517,36.887 37.771,36.806 37.889,36.682 C 37.989,36.576 38.134,36.299 38.18,36.126 C 38.226,35.95 38.31,35.858 38.448,35.838 C 38.673,35.8 38.818,35.59 38.668,35.515 A 1.673,1.673 0 0,0 38.333,35.465 C 38.053,35.448 37.86,35.391 37.745,35.293 C 37.664,35.223 37.485,35.201 37.439,35.255 Z" fill="rgb(68, 54, 52)"/>
<path d="M 27.365,41.263 C 26.993,41.852 27.375,42.4 27.839,42.554 C 28.303,42.709 28.699,42.454 28.884,42.206 C 29.18,41.808 28.938,41.179 28.536,40.93 C 28.176,40.708 27.686,40.811 27.376,41.278 Z" fill="rgb(20, 159, 215)"/>
<path d="M 31.572,23.058 A 2.262,2.262 0 0,0 31.04,23.217 C 30.881,23.287 30.325,23.664 30.135,23.831 C 30.019,23.932 29.99,24.045 30.071,24.076 C 30.146,24.106 30.451,24.039 30.717,23.936 C 31.097,23.788 31.167,23.774 31.597,23.756 C 32.115,23.736 32.317,23.768 32.897,23.964 C 33.153,24.051 33.409,24.123 33.467,24.123 H 33.571 V 23.99 C 33.571,23.716 33.383,23.491 33.014,23.313 A 2.402,2.402 0 0,0 31.985,23.07 A 3.263,3.263 0 0,0 31.582,23.073 Z" fill="rgb(68, 54, 52)"/>
<path d="M 23.817,28.076999999999998 C 23.737,28.124 23.654,28.228 23.654,28.302 C 23.654,28.392 23.721,28.464 23.833,28.49 C 23.948,28.519 24.017,28.484 24.073,28.372 C 24.116,28.276 24.116,28.265 24.073,28.199 C 24.038,28.144 23.908,28.06 23.876,28.075 L 23.827,28.092 Z M 33,28.118 C 32.905,28.184 32.91,28.366 33.011,28.444 C 33.115,28.524 33.207,28.519 33.279,28.429 C 33.406,28.271 33.325,28.072 33.139,28.072 C 33.098,28.072 33.034,28.092 32.999,28.118 Z M 21.97,28.694 C 21.945,28.717 21.925,28.784 21.925,28.836 C 21.925,28.956 21.988,29.023 22.109,29.023 C 22.299,29.023 22.406,28.793 22.265,28.694 C 22.181,28.637 22.029,28.637 21.971,28.694 Z M 24.686,28.928 C 24.579,29.052 24.602,29.228 24.736,29.288 C 24.83,29.331 24.936,29.276 24.977,29.164 C 25.015,29.052 24.986,28.971 24.891,28.922 C 24.784,28.867 24.738,28.867 24.686,28.928 Z M 32.031,29.026 C 31.913,29.118 31.933,29.282 32.075,29.355 C 32.187,29.415 32.235,29.409 32.317,29.325 C 32.518,29.127 32.257,28.85 32.031,29.026 Z M 33.331,29.133 C 33.282,29.188 33.268,29.329 33.305,29.386 C 33.337,29.433 33.444,29.484 33.513,29.484 C 33.596,29.484 33.715,29.357 33.715,29.268 C 33.715,29.104 33.443,29.008 33.331,29.133 Z M 22.957,29.265 C 22.838,29.355 22.841,29.536 22.965,29.6 C 23.04,29.64 23.185,29.617 23.256,29.55 C 23.424,29.4 23.136,29.127 22.956,29.265 Z" fill="rgb(185, 35, 42)"/>
<path d="M 26.942,29.639 C 26.906,29.684 26.802,29.781 26.724,29.871 C 26.634,29.977 26.554,30.041 26.502,30.052 C 26.436,30.064 26.422,30.084 26.422,30.15 C 26.422,30.243 26.502,30.312 26.64,30.338 C 26.738,30.355 26.828,30.32 26.932,30.228 C 27.027,30.142 27.11,30.179 27.286,30.381 A 0.989,0.989 0 0,0 27.652,30.661 C 27.845,30.75 27.882,30.759 28.044,30.747 C 28.254,30.73 28.477,30.632 28.684,30.464 C 28.941,30.26 29.039,30.199 29.224,30.133 C 29.437,30.055 29.48,30.006 29.402,29.928 A 1.672,1.672 0 0,1 29.275,29.764 C 29.131,29.551 28.918,29.548 28.615,29.755 C 28.385,29.911 28.301,29.945 28.137,29.945 C 27.915,29.945 27.736,29.888 27.485,29.744 C 27.217,29.585 27.099,29.565 26.952,29.654 Z" fill="rgb(68, 54, 52)"/>
<path d="M 23.072999999999997,25.716 C 23.268,25.453 24.243,25.461 24.707,25.499 C 25.132,25.886 25.748,26.429 25.403,26.659 C 25.055,26.891 23.779,27.124 23.083,27.007 L 22.503,26.775 C 22.619,26.543 22.897,26.01 23.083,25.731 Z M 32.814,25.634 C 32.628,25.356 31.654,25.364 31.189,25.402 C 30.764,25.789 30.206,26.394 30.509,26.679 C 30.856,27.007 32.117,27.027 32.814,26.911 L 33.394,26.679 A 12.396,12.396 0 0,0 32.814,25.635 Z" fill="rgb(254, 254, 253)"/>
<path d="M 23.738999999999997,25.059 C 23.224,25.169 22.881,25.423 22.559,25.954 C 22.322,26.342 22.233,26.726 22.345,26.884 C 22.44,27.02 22.861,27.178 23.126,27.178 C 23.253,27.178 23.279,27.17 23.279,27.126 C 23.279,27.046 23.242,27.014 23.109,26.976 C 22.953,26.936 22.847,26.832 22.847,26.726 C 22.847,26.613 22.991,26.325 23.123,26.172 C 23.285,25.988 23.55,25.823 23.688,25.823 C 23.91,25.823 24.048,25.965 23.974,26.109 C 23.916,26.215 23.835,26.239 23.66,26.195 C 23.478,26.152 23.435,26.169 23.357,26.316 A 0.514,0.514 0 0,0 23.389,26.775 C 23.469,26.881 23.582,26.913 23.651,26.85 C 23.751,26.757 23.916,26.72 24.221,26.717 C 24.573,26.717 24.582,26.711 24.648,26.357 C 24.698,26.103 24.726,26.054 24.824,26.054 C 24.908,26.054 24.994,26.166 25.15,26.481 C 25.216,26.613 25.331,26.781 25.407,26.861 C 25.539,26.997 25.553,27.005 25.697,27.005 C 25.871,27.005 25.989,26.953 26.07,26.841 C 26.13,26.754 26.142,26.705 26.136,26.535 C 26.133,26.44 26.124,26.429 26.056,26.429 A 0.558,0.558 0 0,0 25.885,26.463 C 25.721,26.521 25.645,26.409 25.556,25.982 C 25.453,25.477 25.303,25.307 24.816,25.143 C 24.631,25.08 24.527,25.065 24.245,25.057 A 3.348,3.348 0 0,0 23.749,25.074 Z M 31.7,25.06 C 31.489,25.105 31.27,25.23 31.045,25.425 C 30.785,25.653 30.667,25.809 30.475,26.192 C 30.335,26.463 30.264,26.572 30.198,26.61 C 30.102,26.668 30.053,26.656 30.053,26.573 C 30.053,26.411 29.941,26.383 29.797,26.503 C 29.647,26.627 29.65,26.861 29.805,26.962 C 29.845,26.988 29.938,27.008 30.025,27.011 C 30.244,27.011 30.356,26.924 30.515,26.627 C 30.61,26.452 30.713,26.317 30.904,26.123 C 31.189,25.835 31.328,25.753 31.524,25.751 C 31.783,25.751 31.895,25.924 31.745,26.1 L 31.679,26.178 L 31.439,26.143 C 31.227,26.111 31.195,26.111 31.149,26.155 C 31.069,26.227 30.982,26.431 30.959,26.599 L 30.939,26.746 H 31.051 A 0.483,0.483 0 0,0 31.235,26.702 C 31.336,26.645 31.535,26.65 31.826,26.72 C 31.962,26.751 32.103,26.769 32.138,26.757 C 32.302,26.708 32.414,26.501 32.418,26.247 C 32.418,26.106 32.426,26.083 32.472,26.083 C 32.616,26.083 32.763,26.302 32.763,26.513 C 32.763,26.679 32.743,26.711 32.587,26.789 C 32.463,26.852 32.362,26.959 32.397,26.993 C 32.403,26.999 32.515,27.019 32.647,27.04 C 33.072,27.1 33.351,27 33.492,26.737 C 33.544,26.636 33.556,26.57 33.556,26.357 C 33.556,26.12 33.547,26.077 33.461,25.904 A 1.66,1.66 0 0,0 32.925,25.293 C 32.59,25.071 32.077,24.973 31.699,25.059 Z" fill="rgb(68, 54, 52)"/>
<path d="M 25.857,33.141 L 24.939,32.344 H 30.856 L 30.044,33.388 L 28.187,33.968 L 25.867,33.156 Z" fill="rgb(254, 254, 253)"/>
<path d="M 31.389999999999997,31.544999999999998 C 31.317,31.574 31.25,31.623 31.112,31.77 C 30.982,31.906 30.902,31.966 30.818,31.99 C 30.625,32.04 30.106,32.024 29.466,31.946 C 28.555,31.833 28.106,31.839 27.186,31.98 C 26.656,32.061 26.37,32.09 26.105,32.09 C 25.753,32.093 25.739,32.09 25.471,31.983 C 24.825,31.727 24.588,31.663 24.415,31.709 C 24.295,31.741 24.275,31.828 24.349,31.983 C 24.427,32.148 24.629,32.315 24.894,32.444 C 25.099,32.545 25.124,32.551 25.528,32.571 C 25.758,32.586 26.096,32.609 26.278,32.629 C 26.511,32.652 26.75,32.655 27.085,32.638 C 27.347,32.623 28.105,32.612 28.771,32.608 C 29.598,32.608 30.019,32.598 30.097,32.574 C 30.29,32.52 30.296,32.534 30.137,32.718 C 29.659,33.281 29.394,33.471 28.944,33.568 C 28.613,33.644 27.336,33.641 27.044,33.568 C 26.754,33.497 26.451,33.367 26.07,33.157 A 3.211,3.211 0 0,0 25.701,32.972 C 25.684,32.972 25.672,33.05 25.672,33.165 V 33.355 L 25.926,33.603 C 26.316,33.99 26.724,34.252 27.114,34.37 C 27.506,34.485 28.524,34.48 29.002,34.359 C 29.328,34.275 29.673,34.096 29.881,33.903 C 29.981,33.811 30.146,33.603 30.271,33.416 C 30.518,33.038 30.829,32.676 31.054,32.499 C 31.138,32.433 31.374,32.295 31.576,32.191 C 31.792,32.081 31.991,31.957 32.066,31.885 C 32.19,31.77 32.19,31.765 32.144,31.695 C 32.052,31.551 31.734,31.493 31.4,31.559 Z" fill="rgb(68, 54, 52)"/>
</svg>
