<?xml version="1.0" encoding="UTF-8"?>
<!-- generated by Finnhub -->
<svg viewBox="0 0 55.5 55.5" xmlns="http://www.w3.org/2000/svg">
<path d="M 0,0 H 55.5 V 55.5 H 0 Z" fill="rgb(229, 26, 37)"/>
<path d="M 33.924,19.985 H 26.097 V 21.806 H 27.359 C 28.295,21.806 28.529,22.169 28.529,22.515 C 28.494,22.805 28.415,23.088 28.295,23.359 L 24.928,32.017 L 22.038,23.131 A 4.452,4.452 0 0,1 21.805,22.287 C 21.805,22 22.038,21.789 22.59,21.789 H 23.993 V 20.017 H 16.08 V 21.806 H 16.66 C 17.003,21.756 17.354,21.824 17.645,21.996 C 17.935,22.167 18.145,22.431 18.231,22.734 L 18.699,23.865 L 15.491,32.195 L 12.161,23.265 A 2.125,2.125 0 0,1 11.928,22.422 A 0.65,0.65 0 0,1 12.186,21.979 A 0.792,0.792 0 0,1 12.714,21.823 H 13.854 V 20.017 H 6 V 21.806 H 6.374 C 7.309,21.806 7.711,22.016 7.945,22.65 L 12.92,36 H 16.661 L 19.869,27.662 L 22.674,36 H 26.349 L 31.184,23.266 C 31.306,22.81 31.608,22.411 32.034,22.142 A 2.31,2.31 0 0,1 33.494,21.806 H 35.103 C 35.888,21.806 36.356,22.152 36.356,22.726 V 32.936 C 36.366,33.078 36.346,33.219 36.295,33.352 C 36.245,33.486 36.165,33.609 36.062,33.715 A 1.185,1.185 0 0,1 35.692,33.969 C 35.552,34.031 35.399,34.067 35.242,34.076 A 1.039,1.039 0 0,1 35.009,34.076 H 33.401 V 36 H 43.126 V 34.228 H 41.79 C 40.528,34.228 40.06,33.882 40.06,33.013 V 28.557 H 41.173 C 42.81,28.557 43.511,29.198 43.511,30.887 V 31.384 H 45.381 V 24.11 H 43.511 V 24.473 C 43.511,25.738 43.043,26.869 41.379,26.869 H 40.154 V 21.806 H 43.595 C 47.513,21.806 47.85,23.57 48.131,25.476 H 50 V 20 H 33.934 Z" fill="rgb(251, 197, 8)"/>
</svg>
