<?xml version="1.0" encoding="UTF-8"?>
<!-- generated by Finnhub -->
<svg viewBox="0 0 55.5 55.5" xmlns="http://www.w3.org/2000/svg">
<path d="M 0,0 H 55.5 V 55.5 H 0 Z" fill="rgb(239, 242, 248)"/>
<mask id="a" x="15" y="13" width="32" height="32" fill="rgb(254, 254, 253)" maskUnits="userSpaceOnUse">
<ellipse cx="45.283" cy="28.5" rx="1.717" ry="1.708"/>
<ellipse cx="44.775" cy="24.751" rx="1.597" ry="1.59"/>
<ellipse cx="43.292" cy="21.277" rx="1.411" ry="1.404"/>
<ellipse cx="41.019" cy="18.275" rx="1.295" ry="1.289"/>
<ellipse cx="38.011" cy="16.001" rx="1.191" ry="1.185"/>
<ellipse cx="34.49" cy="14.554" rx="1.158" ry="1.152"/>
<ellipse cx="30.731" cy="14.049" rx="1.054" ry="1.049"/>
<ellipse cx="26.976" cy="14.554" rx=".987" ry=".982"/>
<ellipse cx="23.443" cy="16" rx=".919" ry=".915"/>
<ellipse cx="20.44" cy="18.299" rx=".843" ry=".838"/>
<ellipse cx="18.114" cy="21.272" rx=".777" ry=".773"/>
<ellipse cx="16.697" cy="24.577" rx=".751" ry=".747"/>
<ellipse transform="matrix(1 0 0 -1 44.775 32.249)" rx="1.597" ry="1.59"/>
<ellipse transform="matrix(1 0 0 -1 43.292 35.723)" rx="1.411" ry="1.404"/>
<ellipse transform="matrix(1 0 0 -1 41.02 38.725)" rx="1.295" ry="1.289"/>
<ellipse transform="matrix(1 0 0 -1 38.01 40.999)" rx="1.191" ry="1.185"/>
<ellipse transform="matrix(1 0 0 -1 34.49 42.446)" rx="1.158" ry="1.152"/>
<ellipse transform="matrix(1 0 0 -1 30.731 42.951)" rx="1.054" ry="1.049"/>
<ellipse transform="matrix(1 0 0 -1 26.976 42.446)" rx=".987" ry=".982"/>
<ellipse transform="matrix(1 0 0 -1 23.443 41)" rx=".919" ry=".915"/>
<ellipse transform="matrix(1 0 0 -1 20.44 38.702)" rx=".843" ry=".838"/>
<ellipse transform="matrix(1 0 0 -1 18.114 35.728)" rx=".777" ry=".773"/>
<ellipse cx="41.096" cy="28.5" rx="1.219" ry="1.213"/>
<ellipse cx="40.735" cy="25.838" rx="1.134" ry="1.129"/>
<ellipse cx="39.683" cy="23.371" rx="1.002" ry=".997"/>
<ellipse cx="38.069" cy="21.239" rx=".92" ry=".915"/>
<ellipse cx="35.932" cy="19.625" rx=".846" ry=".842"/>
<ellipse cx="33.433" cy="18.598" rx=".822" ry=".818"/>
<ellipse cx="30.764" cy="18.239" rx=".749" ry=".745"/>
<ellipse cx="28.097" cy="18.598" rx=".701" ry=".697"/>
<ellipse cx="25.589" cy="19.624" rx=".653" ry=".65"/>
<ellipse cx="23.457" cy="21.256" rx=".599" ry=".595"/>
<ellipse cx="21.805" cy="23.368" rx=".552" ry=".549"/>
<ellipse transform="matrix(1 0 0 -1 40.735 31.162)" rx="1.134" ry="1.129"/>
<ellipse transform="matrix(1 0 0 -1 39.683 33.629)" rx="1.002" ry=".997"/>
<ellipse transform="matrix(1 0 0 -1 38.069 35.76)" rx=".92" ry=".915"/>
<ellipse transform="matrix(1 0 0 -1 35.932 37.375)" rx=".846" ry=".842"/>
<ellipse transform="matrix(1 0 0 -1 33.433 38.402)" rx=".822" ry=".818"/>
<ellipse transform="matrix(1 0 0 -1 30.764 38.761)" rx=".749" ry=".745"/>
<ellipse transform="matrix(1 0 0 -1 28.097 38.402)" rx=".701" ry=".697"/>
<ellipse transform="matrix(1 0 0 -1 25.59 37.376)" rx=".653" ry=".65"/>
<ellipse transform="matrix(1 0 0 -1 23.457 35.743)" rx=".599" ry=".595"/>
<ellipse transform="matrix(1 0 0 -1 21.805 33.632)" rx=".552" ry=".549"/>
<ellipse cx="38.009" cy="28.5" rx=".857" ry=".853"/>
<ellipse cx="37.755" cy="26.628" rx=".798" ry=".794"/>
<ellipse cx="37.015" cy="24.893" rx=".705" ry=".701"/>
<ellipse cx="35.88" cy="23.394" rx=".647" ry=".644"/>
<ellipse cx="34.378" cy="22.259" rx=".595" ry=".592"/>
<ellipse cx="32.62" cy="21.536" rx=".579" ry=".575"/>
<ellipse cx="30.742" cy="21.284" rx=".527" ry=".524"/>
<ellipse cx="28.868" cy="21.536" rx=".493" ry=".49"/>
<ellipse cx="27.103" cy="22.258" rx=".459" ry=".457"/>
<ellipse cx="25.605" cy="23.406" rx=".421" ry=".419"/>
<ellipse cx="24.442" cy="24.891" rx=".388" ry=".386"/>
<ellipse transform="matrix(1 0 0 -1 37.755 30.372)" rx=".798" ry=".794"/>
<ellipse transform="matrix(1 0 0 -1 37.015 32.107)" rx=".705" ry=".701"/>
<ellipse transform="matrix(1 0 0 -1 35.88 33.606)" rx=".647" ry=".644"/>
<ellipse transform="matrix(1 0 0 -1 34.378 34.741)" rx=".595" ry=".592"/>
<ellipse transform="matrix(1 0 0 -1 32.62 35.464)" rx=".579" ry=".575"/>
<ellipse transform="matrix(1 0 0 -1 30.743 35.716)" rx=".527" ry=".524"/>
<ellipse transform="matrix(1 0 0 -1 28.868 35.464)" rx=".493" ry=".49"/>
<ellipse transform="matrix(1 0 0 -1 27.103 34.742)" rx=".459" ry=".457"/>
<ellipse transform="matrix(1 0 0 -1 25.605 33.594)" rx=".421" ry=".419"/>
<ellipse transform="matrix(1 0 0 -1 24.442 32.11)" rx=".388" ry=".386"/>
<ellipse cx="35.485" cy="28.5" rx=".568" ry=".565"/>
<ellipse cx="35.317" cy="27.26" rx=".529" ry=".526"/>
<ellipse cx="34.826" cy="26.111" rx=".467" ry=".464"/>
<ellipse cx="34.074" cy="25.118" rx=".429" ry=".426"/>
<ellipse cx="33.08" cy="24.366" rx=".394" ry=".392"/>
<ellipse cx="31.915" cy="23.888" rx=".383" ry=".381"/>
<ellipse cx="30.672" cy="23.72" rx=".349" ry=".347"/>
<ellipse cx="29.43" cy="23.887" rx=".327" ry=".325"/>
<ellipse cx="28.262" cy="24.366" rx=".304" ry=".303"/>
<ellipse cx="27.269" cy="25.126" rx=".279" ry=".277"/>
<ellipse transform="matrix(1 0 0 -1 35.317 29.74)" rx=".529" ry=".526"/>
<ellipse transform="matrix(1 0 0 -1 34.826 30.889)" rx=".467" ry=".464"/>
<ellipse transform="matrix(1 0 0 -1 34.074 31.882)" rx=".429" ry=".426"/>
<ellipse transform="matrix(1 0 0 -1 33.08 32.633)" rx=".394" ry=".392"/>
<ellipse transform="matrix(1 0 0 -1 31.915 33.112)" rx=".383" ry=".381"/>
<ellipse transform="matrix(1 0 0 -1 30.672 33.28)" rx=".349" ry=".347"/>
<ellipse transform="matrix(1 0 0 -1 29.43 33.112)" rx=".327" ry=".325"/>
<ellipse transform="matrix(1 0 0 -1 28.262 32.634)" rx=".304" ry=".303"/>
<ellipse transform="matrix(1 0 0 -1 27.269 31.874)" rx=".279" ry=".277"/>
</mask>
<g mask="url(#a)">
<ellipse cx="31.019" cy="28.576" rx="16.328" ry="16.25" fill="url(#b)"/>
</g>
<path d="M 30.685,26.003 C 29.313,26.018 28.193,27.163 28.193,28.575 S 29.313,31.133 30.695,31.133 C 32.076,31.133 33.191,29.987 33.191,28.575 C 33.196,27.163 32.076,26.018 30.694,26.018 Z M 30.695,29.929 C 29.988,29.929 29.407,29.325 29.407,28.58 S 29.983,27.231 30.695,27.231 C 31.401,27.231 31.977,27.835 31.977,28.581 C 31.982,29.32 31.407,29.929 30.695,29.929 Z M 11.58,27.972 L 13.118,31.004 C 13.155,31.074 13.249,31.133 13.328,31.133 H 13.464 A 0.217,0.217 0 0,0 13.652,30.993 L 15.154,26.217 C 15.191,26.104 15.123,26 15.008,26 H 14.087 C 14.008,26 13.924,26.072 13.898,26.147 L 13.139,28.562 L 11.836,25.992 A 0.263,0.263 0 0,0 11.626,25.862 H 11.532 A 0.263,0.263 0 0,0 11.323,25.992 L 10.02,28.562 L 9.26,26.147 C 9.235,26.072 9.151,26 9.072,26 H 8.157 C 8.041,26 7.973,26.104 8.01,26.216 L 9.512,30.993 C 9.538,31.069 9.622,31.133 9.701,31.133 H 9.837 C 9.915,31.133 10.009,31.073 10.046,31.004 L 11.58,27.972 Z M 17.374,30.78 C 17.374,30.899 17.279,30.993 17.159,30.993 H 16.232 A 0.212,0.212 0 0,1 16.017,30.779 V 26.234 C 16.017,26.114 16.112,26.02 16.232,26.02 H 17.159 C 17.279,26.02 17.374,26.114 17.374,26.234 V 30.779 Z M 21.215,25.848 C 20.576,25.848 19.995,26.124 19.571,26.572 L 19.404,26.124 A 0.224,0.224 0 0,0 19.21,25.988 H 18.781 A 0.212,0.212 0 0,0 18.567,26.202 V 33.336 C 18.567,33.456 18.661,33.55 18.781,33.55 H 19.785 C 19.905,33.55 20,33.456 20,33.336 V 30.919 C 20.392,31.055 20.76,31.133 21.22,31.133 C 22.523,31.133 23.575,29.817 23.575,28.405 C 23.575,26.994 22.518,25.848 21.215,25.848 Z M 20.964,29.93 C 20.576,29.93 20.288,29.825 20,29.659 V 27.66 C 20.225,27.3 20.534,27.061 20.964,27.061 C 21.649,27.061 22.209,27.666 22.209,28.411 C 22.209,29.15 21.649,29.929 20.964,29.929 Z M 26.998,25.848 C 26.103,25.848 25.585,26.596 25.585,26.596 L 25.417,26.133 A 0.225,0.225 0 0,0 25.224,25.993 H 24.794 A 0.215,0.215 0 0,0 24.58,26.214 V 30.771 C 24.58,30.895 24.674,30.992 24.795,30.992 H 25.721 C 25.841,30.992 25.936,30.895 25.936,30.772 V 27.582 A 1.153,1.153 0 0,1 27.307,27.194 C 27.448,27.248 27.553,27.184 27.595,27.087 L 27.915,26.343 C 27.998,26.166 27.888,25.848 26.998,25.848 Z" fill="rgb(47, 16, 85)"/>
<defs>
<radialGradient id="b" cx="0" cy="0" r="1" gradientTransform="matrix(0 16.25 -16.328 0 31.019 28.576)" gradientUnits="userSpaceOnUse">
<stop stop-color="rgb(253, 197, 2)" offset=".201"/>
<stop stop-color="rgb(69, 187, 101)" offset=".37"/>
<stop stop-color="rgb(69, 146, 186)" offset=".5"/>
<stop stop-color="rgb(20, 50, 124)" offset=".745"/>
<stop stop-color="rgb(179, 14, 114)" offset=".875"/>
<stop stop-color="rgb(226, 86, 75)" offset="1"/>
</radialGradient>
</defs>
</svg>
