<?xml version="1.0" encoding="UTF-8"?>
<!-- generated by Finnhub -->
<svg viewBox="0 0 55.5 55.5" xmlns="http://www.w3.org/2000/svg">
<path d="M 0,0 H 55.5 V 55.5 H 0 Z" fill="rgb(254, 202, 39)"/>
<path d="M 31.162999999999997,19.317999999999998 C 30.308,19.823 30,20.632 30,22.871 C 30,22.871 30.432,22.42 31.074,22.169 C 31.544,21.996 31.938,21.718 32.173,21.532 C 32.901,20.962 33,20.233 33,19.002 C 33,19.002 31.815,18.962 31.173,19.333 Z M 24.855,19.848 C 24.085,20.511 23.851,21.558 23.851,21.558 L 21.265,31.124 L 19.134,23.28 C 18.927,22.46 18.542,21.591 17.951,20.902 C 17.208,20.027 16.173,20.015 16.008,20.015 C 15.843,20.015 14.783,20.055 14.026,20.944 C 13.435,21.646 13.05,22.5 12.844,23.322 L 10.712,31.166 L 8.153,21.586 S 7.933,20.526 7.15,19.876 C 5.884,18.805 4,19.03 4,19.03 L 8.91,36.97 S 10.533,37.09 11.344,36.679 C 12.404,36.162 12.926,35.751 13.573,33.299 C 14.15,31.127 15.911,24.276 15.911,24.276 L 16.008,23.896 L 16.109,24.256 S 17.84,31.099 18.432,33.271 C 19.078,35.71 19.587,36.107 20.66,36.651 C 21.471,37.061 23.095,36.941 23.095,36.941 L 28.005,19 S 26.121,18.788 24.855,19.848 Z M 33.01,22.04 S 31.977,22.54 31.276,22.938 C 30.822,23.176 30.209,23.398 30.092,23.72 C 29.974,24.042 29.996,24.266 29.996,24.875 V 37.04 S 30.256,37.374 31.054,36.99 C 32.099,36.473 32.996,35.808 33.01,33.568 V 22.04 Z M 45.77,28.039 L 52,19.08 S 49.373,18.643 48.066,19.797 C 47.228,20.525 46.292,21.837 46.292,21.837 L 44.009,25.043 C 43.885,25.203 43.761,25.388 43.528,25.388 C 43.294,25.388 43.143,25.216 43.046,25.043 L 40.736,21.85 S 39.814,20.538 38.961,19.81 C 37.669,18.657 35.028,19.094 35.028,19.094 L 41.272,28.024 L 35.028,36.942 S 37.778,37.287 39.072,36.134 C 39.911,35.405 40.722,34.199 40.722,34.199 L 43.005,31.006 C 43.129,30.846 43.252,30.661 43.486,30.661 C 43.72,30.661 43.871,30.834 43.968,31.006 L 46.25,34.2 S 47.102,35.38 47.928,36.135 C 49.221,37.288 51.93,36.943 51.93,36.943 L 45.769,28.039 Z" fill="rgb(45, 48, 49)"/>
</svg>
