<?xml version="1.0" encoding="UTF-8"?>
<!-- generated by Finnhub -->
<svg viewBox="0 0 55.5 55.5" xmlns="http://www.w3.org/2000/svg">
<path d="M 0,0 H 55.5 V 55.5 H 0 Z" fill="rgb(19, 119, 197)"/>
<path d="M 17.99,22.985 H 16.01 L 14,27.925 V 23 H 12.022 L 10,27.923 V 23 H 8 V 32 H 10.012 L 12,26.733 V 32 H 14.154 L 18,23 Z M 20.235,25.479 H 18.29 L 18.252,25.646 L 16.801,32 H 18.745 L 18.783,31.833 L 20.176,25.738 L 20.235,25.479 Z M 20.297,25 L 20.801,23 H 18.857 L 18.353,25 H 20.297 Z M 23.836,22.995 H 21.932 L 21.895,23.162 L 19.944,32 H 21.848 L 23.778,23.255 L 23.836,22.995 Z M 26.767,22.995 H 24.864 L 24.826,23.162 L 22.877,32 H 24.78 L 26.71,23.255 L 26.768,22.995 Z M 29.433,25.479 H 27.49 L 26,32 H 27.944 L 29.434,25.479 Z M 29.532,25 L 30,23 H 28.056 L 27.588,25 H 29.532 Z M 32.195,29.856 C 31.782,30.152 31.244,30.436 30.914,30.436 C 30.818,30.436 30.688,30.417 30.618,30.326 C 30.543,30.228 30.556,30.075 30.579,29.963 C 30.72,29.299 31.536,29.077 32.397,28.904 L 32.195,29.856 Z M 34.503,27.824 C 34.721,26.799 34.665,26.111 34.325,25.659 C 34.003,25.23 33.428,25.022 32.515,25.001 C 31.57,24.975 30.395,25.52 29.841,26.241 L 29.717,26.403 L 29.863,26.543 L 30.636,27.283 L 30.79,27.43 L 30.934,27.273 C 31.252,26.923 31.66,26.565 32.272,26.565 C 32.495,26.565 32.668,26.625 32.748,26.728 C 32.806,26.804 32.821,26.911 32.792,27.048 L 32.711,27.43 C 30.244,27.753 28.998,28.568 28.682,30.06 C 28.566,30.604 28.655,31.102 28.931,31.461 C 29.12,31.707 29.489,32 30.175,32 C 30.889,32.007 31.491,31.784 32,31.503 V 32 H 33.828 L 33.798,31.637 C 33.773,31.424 33.795,31.157 33.872,30.799 L 34.503,27.824 Z M 44.06,25.496 C 43.815,25.176 43.425,25 42.963,25 C 41.971,25 41.283,25.378 40.745,25.8 C 40.503,25.3 39.989,25 39.335,25 C 38.645,24.994 38.159,25.174 37.648,25.517 L 37.732,25 H 35.96 L 34.5,32 H 36.404 L 37.404,27.284 C 37.861,26.926 38.328,26.689 38.584,26.687 C 38.704,26.693 38.856,26.719 38.92,26.804 C 38.975,26.88 38.98,27.031 38.936,27.241 L 37.928,32 H 39.831 L 40.831,27.284 C 41.288,26.926 41.756,26.689 42.011,26.687 C 42.131,26.693 42.284,26.719 42.346,26.804 C 42.403,26.88 42.408,27.031 42.363,27.241 L 41.355,32 H 43.259 L 44.275,27.203 C 44.432,26.461 44.36,25.887 44.06,25.496 Z M 47.61,26.564 C 47.907,26.564 48.17,26.746 48.44,27.137 L 48.566,27.32 L 48.742,27.188 L 50,26.242 L 49.894,26.067 C 49.484,25.389 48.704,25 47.756,25 C 46.694,25 45.416,25.629 45.119,27.01 C 44.801,28.483 45.931,28.943 46.755,29.278 C 47.349,29.52 47.625,29.66 47.574,29.894 C 47.504,30.214 47.167,30.436 46.752,30.436 C 46.302,30.436 45.97,30.186 45.707,29.649 L 45.6,29.43 L 45.4,29.562 L 44.26,30.314 L 44.102,30.417 L 44.179,30.591 C 44.585,31.513 45.362,32 46.427,32 C 47.949,32 49.023,31.226 49.303,29.93 C 49.637,28.376 48.443,27.906 47.653,27.595 C 47.074,27.368 46.807,27.236 46.856,27.009 C 46.92,26.714 47.174,26.564 47.609,26.564 Z" fill="rgb(254, 254, 253)"/>
<path d="M 24.075999999999997,33.319 C 16.548,36.407 10.361,37.159 10.269,35.014 C 10.244,34.443 10.657,33.805 11.412,33 H 10.312 C 8.672,34.563 7.825,35.822 8.03,36.745 C 8.613,39.374 17.506,37.735 28.063,33 H 25.077 C 24.749,33.14 24.42,33.198 24.087,33.334 Z M 47.5,18.786 C 46.944,16.203 38.602,17.639 28.394,21.94 L 28.846,22.177 C 35.078,19.707 40.466,18.202 43.291,18.315 C 46.662,18.448 45.553,20.505 41.105,24 H 43.213 C 46.137,21.71 47.773,20.05 47.501,18.786 Z M 48.346,21.363 C 48.244,20.993 47.969,20.713 47.545,20.518 C 47.279,21.032 46.855,21.601 46.287,22.214 C 46.216,22.771 45.744,23.149 44.907,24 H 46.954 C 48.041,22.794 48.554,22.11 48.346,21.363 Z" fill="rgb(11, 11, 9)"/>
<path d="M 30.311999999999998,24.262 L 30.767,24.511 C 36.307,22.341 41.27,20.971 44.061,20.971 C 44.256,20.699 44.409,20.445 44.516,20.209 C 41.21,20.447 36.086,21.88 30.322,24.277 Z M 31.329,33 C 29.659,33.885 27.831,34.672 25.909,35.474 C 19.156,38.295 13.431,39.414 11.775,38.385 C 10.371,38.507 9.509,38.362 9.054,38.23 C 8.971,38.422 8.914,38.606 8.886,38.78 C 8.424,41.668 15.89,40.833 25.561,36.916 C 28.574,35.696 31.445,34.403 33.984,33 H 31.33 Z M 15.655,33 H 14.739 C 13.376,33.908 12.207,34.713 11.274,35.545 C 11.484,35.668 11.927,35.779 12.207,35.798 C 12.96,34.934 14.145,34.03 15.655,33 Z" fill="rgb(11, 11, 9)"/>
</svg>
