<?xml version="1.0" encoding="UTF-8"?>
<!-- generated by Finnhub -->
<svg viewBox="0 0 55.5 55.5" xmlns="http://www.w3.org/2000/svg">
<path d="M 0,0 H 55.5 V 55.5 H 0 Z" fill="rgb(228, 253, 82)"/>
<path d="M 27.99,43.985 C 19.78,44 15.51,42.16 12.95,37.83 C 11.51,35.34 11,30.87 11,28 S 11.51,20.66 12.95,18.17 C 15.51,13.84 19.78,12 28,12 S 40.5,13.84 43.05,18.17 C 44.49,20.67 45,25.13 45,28 S 44.49,35.34 43.05,37.83 C 40.49,42.16 36.22,44 28,44 Z M 32.13,37 C 31.2,37 29.86,36.58 29.21,35.07 L 25.22,25.37 A 3.17,3.17 0 0,1 28.06,21 C 28.98,21 30.33,21.43 30.98,22.93 L 34.97,32.63 A 3.17,3.17 0 0,1 32.13,37 Z M 23.91,37 C 22.98,37 21.64,36.58 20.99,35.07 L 17,25.37 A 3.17,3.17 0 0,1 19.83,21 C 20.76,21 22.11,21.43 22.76,22.93 L 26.74,32.63 A 3.17,3.17 0 0,1 23.91,37 Z M 37.26,29.47 C 36.34,29.47 34.99,29.04 34.34,27.54 L 33.44,25.38 A 3.16,3.16 0 0,1 36.27,21 C 37.2,21 38.55,21.43 39.2,22.93 L 40.1,25.09 A 3.17,3.17 0 0,1 37.26,29.47 Z" fill="rgb(1, 45, 143)" fill-rule="evenodd"/>
</svg>
