<?xml version="1.0" encoding="UTF-8"?>
<!-- generated by Finnhub -->
<svg viewBox="0 0 55.5 55.5" xmlns="http://www.w3.org/2000/svg">
<path d="M 0,0 H 55.5 V 55.5 H 0 Z" fill="url(#b)"/>
<path d="M 48.99,19.985 H 51 V 23.995 H 49 C 49,22.52 47.959,21.961 46.86,22 C 45.763,22.04 44.983,22.934 44.983,24.475 C 44.983,25.718 46.386,26.292 47.065,26.425 C 48.889,26.784 52,27.949 52,31.225 C 52,35.115 49.293,36 47.51,36 C 45.899,36 45.407,35.208 45.001,34.725 V 36 H 43.001 V 31 H 45.001 C 45.165,32.9 46.13,33.991 47.51,34 C 48.89,34.008 50.001,33.312 50.001,31.545 C 50.001,29.778 48.26,29.481 47.51,29.325 C 45.899,28.99 42.686,27.935 42.48,24.975 C 42.223,21.275 45.007,20.025 46.668,20 C 48.2,19.977 48.674,20.725 49.001,21.1 V 20 Z" fill="rgb(254, 254, 253)"/>
<path d="M 28.985,19.985 L 19.385,36 H 25 V 34 H 23.53 L 24.68,32 H 31 V 28 H 27.088 L 30.5,22 H 32 V 34 H 30 V 36 H 37.932 C 40.022,35.82 44.152,33.935 43.962,27.824 C 43.772,21.714 39.862,20.062 37.932,20 H 28.995 Z" fill="rgb(254, 254, 253)"/>
<path d="M 33.99,33.975 V 22.01 H 36.916 C 38.573,21.88 41.909,22.894 41.998,28 C 42.088,33.106 38.648,34.12 36.916,33.99 H 34 Z" fill="url(#a)"/>
<path d="M 26.354,20.724999999999998 V 20 H 28.52 L 25.445,24.484 V 20.74 H 26.365 Z M 19,30.792 V 35.382 L 21.777,30.792 H 20.902 L 20.102,31.982 V 30.792 H 19 Z M 6,36 V 35 H 5 V 21 H 6 V 20 H 4 V 36 H 6 Z M 8.483,36 V 35 H 7.47 V 21 H 8.484 V 20 H 6.476 V 36 H 8.483 Z M 11,36 V 35 H 9.99 V 21 H 11 V 20 H 9 V 36 H 11 Z M 13.405,36 V 35 H 12.391 V 21 H 13.405 V 20 H 11.398 V 36 H 13.405 Z M 16,36 V 35 H 14.99 V 21 H 16 V 20 H 14 V 36 H 16 Z M 18.526,36 V 35 H 17.512 V 21 H 18.526 V 20 H 16.52 V 36 H 18.527 Z M 19,29 H 19.99 V 21 H 21 V 20 H 19 V 29 Z M 21.517,29 H 22.51 V 21 H 23.524 V 20 H 21.517 V 29 Z" fill="rgb(254, 254, 253)"/>
<path d="M 23.99,27.244 L 24.99,25.639 V 21 H 26 V 20 H 24 V 27.259 Z M 6.584,21 H 5.65 V 26 H 6.585 V 21 Z M 9,21 H 8 V 26 H 9 V 21 Z M 11.547,21 H 10.585 V 26 H 11.547 V 21 Z M 14,21 H 13 V 26 H 14 V 21 Z M 16.636,21 H 15.578 V 26 H 16.636 V 21 Z M 19.005,21 H 18.005 V 26 H 19.005 V 21 Z M 21.576,21 H 20.533 V 26 H 21.576 V 21 Z M 24,21 H 23 V 26 H 24 V 21 Z M 6.584,34 H 5.98 V 31 H 6.584 V 34 Z M 9.087,34 H 8.483 V 30.792 H 9.087 V 34 Z M 12,34 H 11 V 30.585 H 12 V 34 Z M 14.009,34 H 13.405 V 30.585 H 14.009 V 34 Z M 17,34 H 16 V 30.585 H 17 V 34 Z M 19,34 H 18.396 V 30.585 H 19 V 34 Z" fill="rgb(254, 254, 253)"/>
<path d="M 30.99,28.985 H 4 V 31 H 31 V 29 Z" fill="rgb(122, 190, 68)"/>
<defs>
<linearGradient id="b" x1="10.418" x2="68.147" y1="9.712" y2="76.017" gradientUnits="userSpaceOnUse">
<stop stop-color="rgb(25, 29, 31)" offset="0"/>
<stop stop-color="rgb(5, 5, 8)" offset="1"/>
</linearGradient>
<linearGradient id="a" x1="35.488" x2="47.545" y1="24.081" y2="33.313" gradientUnits="userSpaceOnUse">
<stop stop-color="rgb(25, 29, 31)" offset="0"/>
<stop stop-color="rgb(5, 5, 8)" offset="1"/>
</linearGradient>
</defs>
</svg>
