<?xml version="1.0" encoding="UTF-8"?>
<!-- generated by Finnhub -->
<svg viewBox="0 0 55.5 55.5" xmlns="http://www.w3.org/2000/svg">
<path d="M 0,0 H 55.5 V 55.5 H 0 Z" fill="rgb(1, 124, 193)"/>
<path d="M 27.99,22.755 C 28.78,22.77 29.44,22.39 29.54,21.87 L 30.31,13.5 C 30.31,12.67 29.31,12 28.01,12 C 26.74,12 25.71,12.67 25.71,13.5 L 26.48,21.88 C 26.58,22.39 27.21,22.78 28.01,22.78 Z M 23.23,25.39 C 23.63,24.74 23.58,24 23.18,23.69 L 15.94,18.86 C 15.19,18.46 14.06,18.95 13.42,20 C 12.79,21.05 12.88,22.23 13.63,22.64 L 21.66,26.19 C 22.17,26.37 22.86,26.03 23.23,25.39 Z M 32.76,25.39 C 33.16,26.03 33.84,26.37 34.34,26.19 L 42.36,22.64 C 43.11,22.21 43.23,21.05 42.56,20 C 41.93,18.95 40.8,18.44 40.06,18.86 L 32.81,23.69 C 32.41,24 32.38,24.74 32.76,25.39 Z M 28,33.23 C 28.78,33.23 29.44,33.61 29.54,34.13 L 30.31,42.5 C 30.31,43.33 29.31,44 28.01,44 C 26.74,44 25.71,43.33 25.71,42.5 L 26.48,34.12 C 26.58,33.61 27.21,33.22 28.01,33.22 Z M 32.76,30.61 C 33.16,29.97 33.84,29.63 34.34,29.81 L 42.36,33.36 C 43.11,33.79 43.23,34.95 42.56,36 C 41.93,37.05 40.8,37.56 40.06,37.14 L 32.81,32.31 C 32.41,31.98 32.38,31.26 32.76,30.61 Z M 23.23,30.61 C 23.63,31.26 23.58,32 23.18,32.31 L 15.94,37.14 C 15.19,37.54 14.06,37.05 13.42,36 C 12.79,34.95 12.88,33.77 13.63,33.34 L 21.66,29.79 C 22.17,29.63 22.86,29.97 23.23,30.61 Z" fill="rgb(252, 186, 46)"/>
</svg>
