<?xml version="1.0" encoding="UTF-8"?>
<!-- generated by Finnhub -->
<svg viewBox="0 0 55.5 55.5" xmlns="http://www.w3.org/2000/svg">
<path d="M 0,0 H 55.5 V 55.5 H 0 Z" fill="url(#a)"/>
<path d="M 12.993,20.33 A 1.185,1.185 0 0,0 12.476,20.535 A 0.96,0.96 0 0,0 12.226,20.783 C 12.152,20.901 12.096,21.031 12.061,21.169 C 11.851,21.918 11.607,22.793 11.329,23.793 C 11.051,24.793 10.751,25.863 10.43,27 H 10.017 L 8.436,21.673 L 6.786,27 H 6.396 L 5.487,23.455 L 4.867,21 A 0.862,0.862 0 0,0 4.272,20.4 A 1.46,1.46 0 0,0 4.003,20.344 V 20 H 6.566 V 20.345 A 3.6,3.6 0 0,0 5.996,20.418 C 5.836,20.452 5.758,20.512 5.758,20.597 A 0.82,0.82 0 0,0 5.77,20.727 C 5.77,20.779 5.787,20.822 5.793,20.856 C 5.86,21.142 5.98,21.614 6.153,22.272 L 6.921,25.222 L 8.436,20 H 8.87 L 10.505,25.338 C 10.718,24.529 10.901,23.825 11.055,23.225 C 11.207,22.626 11.337,22.11 11.443,21.677 C 11.515,21.375 11.559,21.167 11.575,21.055 C 11.591,20.961 11.6,20.865 11.602,20.77 A 0.346,0.346 0 0,0 11.536,20.597 A 0.301,0.301 0 0,0 11.396,20.492 A 1.801,1.801 0 0,0 10.73,20.342 V 20 H 13.003 V 20.345 Z M 16.477,27 H 13.477 V 26.65 L 13.843,26.618 C 13.958,26.613 14.073,26.593 14.183,26.558 A 0.468,0.468 0 0,0 14.401,26.383 A 0.89,0.89 0 0,0 14.477,26 V 21 A 0.67,0.67 0 0,0 14.417,20.723 A 0.424,0.424 0 0,0 14.174,20.527 A 2.386,2.386 0 0,0 13.828,20.423 A 2.246,2.246 0 0,0 13.478,20.361 V 20 H 16.478 V 20.35 A 2.889,2.889 0 0,0 15.781,20.47 A 0.363,0.363 0 0,0 15.541,20.654 A 0.7,0.7 0 0,0 15.479,20.948 V 26 A 0.645,0.645 0 0,0 15.547,26.302 A 0.47,0.47 0 0,0 15.777,26.502 C 15.882,26.54 15.989,26.57 16.099,26.59 C 16.222,26.619 16.349,26.636 16.475,26.643 V 26.993 L 16.477,27 Z M 31.521,27 H 28.521 V 26.65 L 28.887,26.618 C 29.002,26.613 29.116,26.593 29.227,26.558 A 0.468,0.468 0 0,0 29.445,26.383 A 0.89,0.89 0 0,0 29.521,26 V 21 A 0.67,0.67 0 0,0 29.461,20.723 A 0.424,0.424 0 0,0 29.217,20.527 A 2.386,2.386 0 0,0 28.871,20.423 A 2.246,2.246 0 0,0 28.521,20.361 V 20 H 31.521 V 20.35 A 2.889,2.889 0 0,0 30.825,20.47 A 0.363,0.363 0 0,0 30.584,20.654 A 0.7,0.7 0 0,0 30.523,20.948 V 26 A 0.645,0.645 0 0,0 30.59,26.302 A 0.47,0.47 0 0,0 30.82,26.502 C 30.925,26.54 31.033,26.57 31.142,26.59 C 31.266,26.619 31.392,26.636 31.519,26.643 V 26.993 L 31.521,27 Z M 22,25 V 27 H 17 V 26.661 C 17.427,26.632 18.018,26.591 18,26 V 21 C 18.008,20.526 17.418,20.398 16.999,20.35 V 20 H 20 V 20.35 C 19.58,20.38 18.998,20.508 19,21 V 26 C 19,26.327 19.297,26.629 19.966,26.629 C 20.136,26.629 20.302,26.62 20.469,26.589 C 21.157,26.463 21.493,25.589 21.701,25 H 22.001 Z M 28,25 V 27 H 23 V 26.661 C 23.427,26.632 24.018,26.591 24,26 V 21 C 24.008,20.526 23.418,20.398 22.999,20.35 V 20 H 26 V 20.35 C 25.58,20.38 24.998,20.508 25,21 V 26 C 25,26.327 25.297,26.629 25.966,26.629 C 26.136,26.629 26.302,26.62 26.469,26.589 C 27.157,26.463 27.493,25.589 27.701,25 H 28.001 Z M 38.459,27 H 36 V 26.656 C 36.192,26.646 36.237,26.613 36.422,26.558 C 36.574,26.51 36.649,26.45 36.649,26.379 A 0.79,0.79 0 0,0 36.649,26.275 A 0.567,0.567 0 0,0 36.622,26.164 L 36.095,24.604 H 33.902 A 20.02,20.02 0 0,0 33.696,25.196 A 9.032,9.032 0 0,0 33.556,25.663 A 3.625,3.625 0 0,0 33.476,26.003 C 33.463,26.072 33.456,26.141 33.453,26.211 A 0.37,0.37 0 0,0 33.546,26.413 C 33.596,26.467 33.661,26.503 33.731,26.513 C 33.931,26.587 34.139,26.63 34.349,26.64 V 26.984 H 32.004 V 26.656 C 32.1,26.645 32.196,26.626 32.289,26.599 A 0.888,0.888 0 0,0 32.573,26.474 C 32.678,26.398 32.771,26.302 32.847,26.191 C 32.925,26.068 32.989,25.935 33.037,25.794 C 33.353,24.93 34.08,22.876 34.08,22.876 L 35,20 H 35.336 L 37.536,25.942 C 37.571,26.052 37.622,26.154 37.686,26.248 C 37.753,26.336 37.832,26.412 37.921,26.474 C 38.003,26.526 38.091,26.564 38.184,26.588 C 38.274,26.615 38.366,26.633 38.459,26.64 V 27 Z M 36,24.003 L 35,21.512 L 34.08,24.003 H 36 Z M 47,26.995 H 44.144 V 26.645 C 44.564,26.638 45.019,26.555 45,26 V 21 L 42.88,26.883 H 42.657 L 40.491,21 V 24.973 C 40.483,25.282 40.506,25.591 40.561,25.893 C 40.587,26.067 40.661,26.227 40.773,26.353 C 40.9,26.453 41.045,26.52 41.198,26.551 C 41.332,26.597 41.469,26.63 41.608,26.651 V 27 H 39 V 26.646 C 39.143,26.631 39.285,26.606 39.425,26.572 A 0.8,0.8 0 0,0 39.773,26.409 A 0.741,0.741 0 0,0 39.985,25.985 A 5.34,5.34 0 0,0 40.045,25.033 V 21.45 A 1.581,1.581 0 0,0 39.977,20.942 A 0.8,0.8 0 0,0 39.446,20.424 C 39.316,20.384 39.136,20.36 39,20.353 V 20 H 41.249 L 43.092,25.254 L 45,20 L 47,20.002 V 20.35 C 46.57,20.375 45.996,20.452 46,21 V 26 C 45.988,26.564 46.578,26.62 47,26.648 V 26.998 V 26.995 Z M 41,35.995 H 38.144 V 35.645 C 38.564,35.638 39.019,35.555 39,35 V 30 L 36.88,35.883 H 36.657 L 34.491,30 V 33.973 C 34.483,34.282 34.506,34.591 34.561,34.893 C 34.587,35.067 34.661,35.227 34.773,35.353 C 34.9,35.453 35.045,35.52 35.198,35.551 C 35.332,35.597 35.469,35.63 35.608,35.651 V 36 H 33 V 35.646 C 33.143,35.631 33.285,35.606 33.425,35.572 A 0.8,0.8 0 0,0 33.773,35.409 A 0.741,0.741 0 0,0 33.985,34.986 A 5.34,5.34 0 0,0 34.045,34.033 V 30.45 A 1.581,1.581 0 0,0 33.977,29.942 A 0.8,0.8 0 0,0 33.446,29.424 C 33.316,29.384 33.136,29.36 33,29.353 V 29 H 35.249 L 37.092,34.254 L 39,29 L 41,29.002 V 29.35 C 40.57,29.375 39.996,29.452 40,30 V 35 C 39.988,35.564 40.578,35.62 41,35.648 V 35.998 V 35.995 Z M 51.594,23.774 C 51.729,23.926 51.834,24.104 51.901,24.297 C 51.971,24.51 52.004,24.733 51.999,24.957 A 1.9,1.9 0 0,1 51.839,25.762 A 1.855,1.855 0 0,1 51.356,26.418 A 2.284,2.284 0 0,1 49.771,26.999 A 2.86,2.86 0 0,1 48.898,26.86 A 3.327,3.327 0 0,1 48.147,26.52 L 47.953,26.999 H 47.584 V 24.555 H 47.887 C 47.957,24.817 48.047,25.073 48.157,25.32 C 48.263,25.552 48.4,25.767 48.565,25.958 C 48.722,26.14 48.911,26.29 49.123,26.398 C 49.354,26.513 49.609,26.569 49.865,26.563 A 1.64,1.64 0 0,0 50.421,26.478 A 0.923,0.923 0 0,0 50.794,26.248 A 0.953,0.953 0 0,0 51.024,25.87 C 51.074,25.714 51.097,25.55 51.094,25.386 A 1.37,1.37 0 0,0 50.88,24.638 A 1.366,1.366 0 0,0 50.223,24.112 C 50.026,24.032 49.798,23.942 49.539,23.842 C 49.28,23.742 49.058,23.649 48.872,23.562 A 2.167,2.167 0 0,1 48.014,22.902 A 1.764,1.764 0 0,1 47.709,21.824 C 47.709,21.578 47.761,21.336 47.864,21.114 A 1.85,1.85 0 0,1 48.293,20.524 C 48.477,20.356 48.69,20.226 48.921,20.139 C 49.163,20.047 49.419,19.999 49.676,20 A 2.17,2.17 0 0,1 50.483,20.141 C 50.707,20.231 50.923,20.341 51.127,20.471 L 51.352,20.001 H 51.721 V 22.372 H 51.356 A 7.539,7.539 0 0,0 51.129,21.642 A 2.603,2.603 0 0,0 50.801,21.012 A 1.515,1.515 0 0,0 50.318,20.572 A 1.391,1.391 0 0,0 49.618,20.41 A 1.057,1.057 0 0,0 48.874,20.698 A 0.909,0.909 0 0,0 48.567,21.404 C 48.557,21.659 48.627,21.911 48.765,22.124 C 48.915,22.327 49.114,22.488 49.342,22.59 C 49.557,22.697 49.778,22.792 50.002,22.876 C 50.218,22.956 50.428,23.042 50.631,23.133 C 50.811,23.217 50.986,23.311 51.154,23.417 C 51.317,23.514 51.464,23.634 51.594,23.774 Z M 12.072,32.775 C 12.206,32.925 12.31,33.102 12.378,33.294 C 12.448,33.507 12.482,33.731 12.477,33.956 C 12.483,34.234 12.428,34.511 12.317,34.764 A 1.862,1.862 0 0,1 11.835,35.422 A 2.272,2.272 0 0,1 10.252,35.999 C 9.957,35.999 9.662,35.951 9.381,35.859 A 3.32,3.32 0 0,1 8.627,35.524 L 8.432,35.864 H 8.064 L 8,33.565 H 8.37 C 8.44,33.828 8.53,34.085 8.64,34.334 C 8.745,34.566 8.882,34.782 9.047,34.974 C 9.203,35.157 9.392,35.307 9.604,35.416 C 9.834,35.531 10.088,35.587 10.344,35.581 C 10.533,35.585 10.72,35.556 10.899,35.495 A 0.964,0.964 0 0,0 11.496,34.877 C 11.546,34.72 11.57,34.556 11.566,34.391 A 1.377,1.377 0 0,0 11.353,33.641 A 1.362,1.362 0 0,0 10.698,33.112 A 76.19,76.19 0 0,1 10.01,32.852 A 10.227,10.227 0 0,1 9.347,32.574 A 2.163,2.163 0 0,1 8.49,31.911 A 1.777,1.777 0 0,1 8.184,30.829 C 8.183,30.583 8.234,30.34 8.336,30.118 C 8.439,29.893 8.585,29.692 8.764,29.526 C 8.948,29.358 9.161,29.226 9.392,29.139 C 9.634,29.046 9.891,28.999 10.15,29 C 10.424,28.996 10.697,29.044 10.955,29.142 C 11.178,29.232 11.393,29.342 11.597,29.472 L 11.785,29.15 H 12.154 L 12.19,31.381 H 11.828 A 7.497,7.497 0 0,0 11.601,30.648 C 11.521,30.422 11.411,30.208 11.274,30.014 A 1.515,1.515 0 0,0 10.792,29.572 A 1.38,1.38 0 0,0 10.094,29.409 A 1.052,1.052 0 0,0 9.351,29.696 A 0.939,0.939 0 0,0 9.043,30.4 C 9.033,30.656 9.102,30.91 9.24,31.123 C 9.388,31.328 9.586,31.49 9.813,31.593 C 10.028,31.7 10.248,31.796 10.473,31.88 C 10.688,31.961 10.898,32.047 11.1,32.139 C 11.282,32.219 11.459,32.313 11.629,32.417 C 11.792,32.514 11.942,32.634 12.072,32.775 Z M 18.97,29.957 C 19.3,30.274 19.557,30.648 19.726,31.057 C 19.913,31.521 20.006,32.011 20,32.505 C 20.007,33 19.912,33.491 19.721,33.955 A 3.203,3.203 0 0,1 18.949,35.055 C 18.634,35.355 18.257,35.593 17.839,35.754 A 3.844,3.844 0 0,1 15.085,35.738 A 3.275,3.275 0 0,1 13.985,35.023 A 3.258,3.258 0 0,1 13.265,33.908 A 3.694,3.694 0 0,1 13.001,32.509 A 3.627,3.627 0 0,1 13.265,31.058 A 3.373,3.373 0 0,1 15.152,29.248 A 3.806,3.806 0 0,1 17.858,29.248 C 18.278,29.41 18.658,29.651 18.971,29.957 Z M 18.206,34.703 C 18.404,34.403 18.546,34.073 18.626,33.73 A 5.602,5.602 0 0,0 18.611,31.252 A 3,3 0 0,0 18.181,30.269 A 1.994,1.994 0 0,0 16.486,29.424 C 16.116,29.414 15.752,29.504 15.438,29.684 A 2.095,2.095 0 0,0 14.75,30.375 A 3.147,3.147 0 0,0 14.366,31.349 A 5.29,5.29 0 0,0 14.241,32.519 C 14.237,32.931 14.282,33.342 14.376,33.745 C 14.456,34.089 14.598,34.418 14.798,34.719 C 14.97,34.984 15.21,35.207 15.498,35.369 C 15.804,35.529 16.152,35.611 16.505,35.602 A 2.07,2.07 0 0,0 17.498,35.366 C 17.792,35.204 18.035,34.976 18.206,34.703 Z" fill="rgb(245, 247, 251)"/>
<path d="M 25.988,29.332 A 1.453,1.453 0 0,0 25.661,29.424 C 25.547,29.455 25.437,29.506 25.335,29.577 A 0.758,0.758 0 0,0 25.152,30.047 A 6.477,6.477 0 0,0 25.102,30.927 V 36 H 24.755 L 21.379,30.327 V 33.902 C 21.372,34.212 21.393,34.522 21.439,34.826 A 0.95,0.95 0 0,0 21.623,35.282 C 21.731,35.382 21.856,35.45 21.989,35.482 C 22.109,35.528 22.231,35.56 22.355,35.581 V 36 H 20 V 35.585 C 20.124,35.566 20.334,35.535 20.454,35.489 A 0.849,0.849 0 0,0 20.769,35.334 A 0.78,0.78 0 0,0 20.952,34.914 C 20.994,34.597 21.012,34.276 21.004,33.954 V 30.546 C 21.004,30.391 20.983,30.236 20.941,30.09 A 0.896,0.896 0 0,0 20.773,29.743 A 1.163,1.163 0 0,0 20.39,29.467 A 1.155,1.155 0 0,0 20,29.342 V 29 H 21.586 L 24.718,34.288 V 30.988 A 5.226,5.226 0 0,0 24.656,30.058 A 0.802,0.802 0 0,0 24.473,29.625 A 1.175,1.175 0 0,0 24.106,29.445 A 1.622,1.622 0 0,0 23.727,29.347 V 29 H 26 V 29.347 H 25.998 Z M 31.97,29.956 C 32.299,30.273 32.556,30.647 32.726,31.056 C 32.913,31.519 33.006,32.009 33,32.502 C 33.007,32.997 32.912,33.488 32.721,33.95 A 3.201,3.201 0 0,1 31.948,35.051 C 31.632,35.351 31.254,35.588 30.836,35.749 A 3.855,3.855 0 0,1 28.09,35.749 A 3.271,3.271 0 0,1 26.985,35.02 A 3.254,3.254 0 0,1 26.265,33.906 A 3.686,3.686 0 0,1 26,32.51 C 25.99,32.014 26.084,31.521 26.276,31.057 A 3.372,3.372 0 0,1 28.166,29.248 A 3.818,3.818 0 0,1 30.876,29.248 A 3.29,3.29 0 0,1 31.968,29.957 Z M 31.213,34.699 C 31.411,34.399 31.553,34.069 31.633,33.726 C 31.813,32.908 31.809,32.066 31.619,31.25 A 2.995,2.995 0 0,0 31.189,30.268 A 1.995,1.995 0 0,0 29.491,29.423 A 2.01,2.01 0 0,0 28.441,29.683 A 2.095,2.095 0 0,0 27.737,30.376 A 3.14,3.14 0 0,0 27.353,31.349 A 5.27,5.27 0 0,0 27.228,32.518 C 27.226,32.929 27.274,33.34 27.37,33.741 C 27.45,34.085 27.593,34.414 27.792,34.714 C 27.965,34.98 28.206,35.202 28.494,35.364 C 28.8,35.524 29.149,35.606 29.503,35.597 C 29.849,35.601 30.191,35.519 30.493,35.361 C 30.79,35.201 31.039,34.973 31.213,34.699 Z M 47.998,36 H 45.59 V 35.653 C 45.769,35.643 45.946,35.61 46.118,35.556 C 46.258,35.508 46.328,35.448 46.328,35.376 A 0.863,0.863 0 0,0 46.328,35.273 A 0.594,0.594 0 0,0 46.304,35.161 L 45.822,33.616 H 43.767 C 43.69,33.843 43.627,34.04 43.576,34.208 A 9.483,9.483 0 0,0 43.446,34.674 C 43.416,34.786 43.391,34.9 43.371,35.014 C 43.359,35.083 43.351,35.153 43.35,35.223 C 43.36,35.299 43.39,35.37 43.437,35.424 C 43.483,35.479 43.543,35.514 43.608,35.524 C 43.793,35.598 43.987,35.641 44.182,35.651 V 35.995 H 42 V 35.651 C 42.09,35.641 42.177,35.621 42.264,35.594 A 0.796,0.796 0 0,0 42.528,35.47 C 42.625,35.396 42.711,35.303 42.783,35.196 C 42.855,35.073 42.913,34.939 42.958,34.799 C 43.252,33.935 43.575,32.962 43.927,31.88 C 44.279,30.799 44.723,29.839 45,29 H 45.234 L 47.143,34.942 C 47.176,35.052 47.223,35.154 47.283,35.248 C 47.345,35.336 47.419,35.412 47.501,35.474 A 0.836,0.836 0 0,0 47.746,35.59 C 47.829,35.617 47.914,35.635 48,35.642 V 35.986 L 47.998,36 Z M 45.642,33.01 L 44.866,30.524 L 43.99,33.01 H 45.641 Z" fill="rgb(245, 247, 251)"/>
<defs>
<linearGradient id="a" x1="10.418" x2="68.147" y1="9.712" y2="76.017" gradientUnits="userSpaceOnUse">
<stop stop-color="rgb(25, 29, 31)" offset="0"/>
<stop stop-color="rgb(5, 5, 8)" offset="1"/>
</linearGradient>
</defs>
</svg>
