<?xml version="1.0" encoding="UTF-8"?>
<!-- generated by Finnhub -->
<svg viewBox="0 0 55.5 55.5" xmlns="http://www.w3.org/2000/svg">
<path d="M 0,0 H 55.5 V 55.5 H 0 Z" fill="rgb(7, 8, 11)"/>
<path d="M 35.598,20.985 L 31.292,37 H 28.159 L 24.889,26.256 L 21.617,37 H 18.505 L 14.147,21 H 17.541 L 20.209,30.868 L 23.329,21 H 26.469 L 29.642,30.942 L 32.252,21 H 35.608 Z M 46,21 V 30.628 C 46,32.586 44.383,33.99 42.5,33.99 S 39,32.586 39,30.628 V 21 H 37.5 L 36,28.262 V 30.52 C 36,34.39 38.697,37 42.5,37 C 46.304,37 49,34.39 49,30.52 V 21 H 46 Z" fill="rgb(254, 220, 2)"/>
<path d="M 12.49,36.985 L 8,21 H 9 L 13.5,37 H 12.5 Z M 16.5,37 L 12,21 H 11 L 15.5,37 H 16.5 Z" fill="rgb(254, 254, 253)"/>
</svg>
