<?xml version="1.0" encoding="UTF-8"?>
<!-- generated by Finnhub -->
<svg viewBox="0 0 55.5 55.5" xmlns="http://www.w3.org/2000/svg">
<path d="M 0,0 H 55.5 V 55.5 H 0 Z" fill="url(#d)"/>
<path d="M 41.43,16.445 L 29.54,11.23 A 4.74,4.74 0 0,0 26.57,11.23 L 13.88,16.81 A 4.03,4.03 0 0,0 12.03,19.22 C 11.88,19.92 12.28,21.48 12.44,22.3 L 16.05,37.98 C 16.35,39.27 17.04,40.18 17.51,40.57 C 20.05,42.31 25.4,45.97 26.48,46.63 C 27.56,47.3 29.01,46.91 29.59,46.63 L 38.35,40.78 A 4.92,4.92 0 0,0 39.91,38.56 L 43.73,22.3 C 43.9,21.7 44.16,20.18 43.88,19 C 43.59,17.83 42.14,16.82 41.44,16.46 Z" fill="rgb(158, 177, 195)"/>
<path d="M 40.260000000000005,17.465 L 29.4,12.68 A 4.3,4.3 0 0,0 26.7,12.68 L 15.1,17.8 A 3.7,3.7 0 0,0 13.42,20 C 13.28,20.64 13.64,22.08 13.79,22.83 L 17.09,37.24 C 17.37,38.43 17.99,39.26 18.42,39.62 A 434.3,434.3 0 0,0 26.62,45.2 C 27.6,45.8 28.92,45.45 29.45,45.2 L 37.45,39.82 A 4.52,4.52 0 0,0 38.88,37.77 L 42.36,22.83 C 42.52,22.27 42.76,20.89 42.5,19.81 C 42.24,18.72 40.9,17.8 40.27,17.47 Z" fill="url(#c)"/>
<path d="M 40.260000000000005,17.465 L 29.4,12.68 C 28.88,12.52 28.4,12.46 28,12.46 V 45.54 C 28.6,45.53 29.15,45.35 29.45,45.21 L 37.45,39.83 A 4.52,4.52 0 0,0 38.88,37.78 L 42.36,22.84 C 42.52,22.28 42.76,20.9 42.5,19.82 C 42.24,18.73 40.9,17.81 40.27,17.48 Z" fill="url(#b)"/>
<path d="M 15.59,23.955 C 15.13,23.98 14.4,23.79 14.14,23.67 C 14.61,25.5 17.74,26.37 19.24,26.57 C 17.53,27.32 15.94,29.06 15.36,29.81 L 15.69,31.31 C 16.72,29.08 20.55,27.02 21.89,26.38 A 13.74,13.74 0 0,1 15.59,23.97 Z" fill="rgb(1, 76, 182)"/>
<path d="M 35.61,41.045 C 29.64,41.53 29.37,37.53 30.02,35.51 C 28.74,36.1 28.55,37.43 28.62,38.02 C 28.95,41.02 32.12,42.25 33.58,42.49 L 35.62,41.06 Z" fill="rgb(7, 100, 210)"/>
<path d="M 15.69,31.185 C 16.45,29.82 18.74,26.9 21.7,26.44 C 20,26.28 16.41,25.57 15.55,23.97 C 17.85,23.76 22.79,23.14 24.1,22.37 C 25.73,21.39 27.73,20.92 31.28,21.17 L 36.33,18.5 C 36.91,18.18 38.09,17.9 38.22,19.29 C 37.89,19.39 37.14,19.63 36.78,19.82 H 38.57 C 38.92,20.27 39.3,21.42 37.98,22.48 L 37.56,23.97 L 37.02,23.08 C 36.86,23.34 36.46,24.18 36.12,25.49 L 35.32,24.54 L 32.73,27.6 L 33.37,27.9 L 36.78,26.23 L 37.02,24.96 L 37.72,25.88 L 38.45,25.49 C 38.65,26.48 38.35,28.99 35.58,31.17 C 32.12,33.9 31.59,35.47 31.12,38.93 C 30.64,38.33 29.76,36.83 30.16,35.5 A 2.98,2.98 0 0,0 28.69,38.1 C 28.72,39.91 30.96,42.07 33.83,42.35 L 29.43,45.32 C 28.81,45.68 27.42,45.85 26.52,45.32 L 18.33,39.62 A 5.05,5.05 0 0,1 16.92,36.79 L 15.69,31.21 Z M 24.07,26.84 L 29.31,25.34 L 29.88,24.58 H 26.1 L 26.79,25.14 L 24.09,26.84 Z" fill="url(#a)"/>
<defs>
<linearGradient id="d" x1="10.42" x2="68.15" y1="9.71" y2="76.02" gradientUnits="userSpaceOnUse">
<stop stop-color="rgb(25, 29, 31)" offset="0"/>
<stop stop-color="rgb(5, 5, 8)" offset="1"/>
</linearGradient>
<linearGradient id="c" x1="17.78" x2="29.6" y1="21.36" y2="35.99" gradientUnits="userSpaceOnUse">
<stop stop-color="rgb(9, 134, 219)" offset="0"/>
<stop stop-color="rgb(10, 120, 219)" offset="1"/>
</linearGradient>
<linearGradient id="b" x1="28.88" x2="35.1" y1="14.9" y2="45.58" gradientUnits="userSpaceOnUse">
<stop stop-color="rgb(17, 141, 249)" offset="0"/>
<stop stop-color="rgb(1, 65, 177)" offset="1"/>
</linearGradient>
<linearGradient id="a" x1="27.23" x2="27.23" y1="18.24" y2="45.66" gradientUnits="userSpaceOnUse">
<stop stop-color="rgb(234, 239, 241)" offset="0"/>
<stop stop-color="rgb(158, 177, 195)" offset="1"/>
</linearGradient>
</defs>
</svg>
