<?xml version="1.0" encoding="UTF-8"?>
<!-- generated by Finnhub -->
<svg viewBox="0 0 55.5 55.5" xmlns="http://www.w3.org/2000/svg">
<path d="M 0,0 H 55.5 V 55.5 H 0 Z" fill="url(#a)"/>
<path d="M 10.452,27.448 C 10.392,27.468 10.462,27.623 10.442,27.707 C 10.422,27.791 10.372,28.157 10.365,28.237 C 10.285,29.039 10.915,28.917 11.428,29.079 C 11.732,29.119 13.041,28.917 14.658,27.375 C 15.322,26.742 15.954,26.206 16.881,25.007 C 17.973,23.592 17.599,23.737 18.601,22.333 C 18.846,21.949 19.089,21.565 19.333,21.18 C 19.683,20.672 20.161,20.108 20.321,19.52 C 20.467,18.983 20.101,18.047 19.54,18.009 C 19.528,17.966 19.15,18.087 19.177,18.299 C 19.252,18.679 19.287,19.257 19.15,19.582 C 18.83,20.33 18.302,20.985 17.911,21.725 C 16.219,24.928 14.208,26.793 12.273,28.05 C 12.128,28.145 11.397,28.406 11.265,28.136 C 10.861,27.312 12.693,25.459 12.955,24.716 L 12.979,24.393 C 12.943,24.316 12.906,24.238 12.87,24.158 C 12.767,24.068 12.612,24.058 12.467,24.071 L 12.395,24.081 A 3.066,3.066 0 0,1 12.317,24.106 C 11.794,24.314 11.517,24.904 11.099,25.276 C 10.565,25.749 9.974,26.191 9.389,26.57 C 9.054,26.786 8.549,27.168 8.373,27.304 C 8.197,27.44 7.605,27.866 7.203,27.744 C 7.004,27.685 6.983,27.426 7.027,27.249 C 7.182,26.606 7.87,26.027 8.331,25.58 C 8.815,25.106 9.271,24.458 9.608,23.883 C 9.751,23.632 9.958,23.366 9.952,23.061 C 9.926,21.831 8.397,23.417 8.22,23.81 L 8.26,23.808 C 8.137,23.941 8.017,24.073 7.894,24.204 C 7.18,25.39 4.874,27.728 6.669,28.9 C 6.937,29.064 7.328,29.127 7.976,28.74 C 8.463,28.448 9.998,27.355 10.462,27.463 Z" fill="rgb(254, 254, 253)"/>
<path d="M 18.819999999999997,30.858 C 18.411,33.683 17.491,35.495 14.743,36.499 C 14.559,36.569 13.915,36.751 13.822,36.754 C 12.405,36.866 11.36,36.897 10.308,36.173 C 10.086,36.02 9.86,35.512 9.908,35.193 C 10.048,34.232 10.818,33.603 11.489,32.929 A 29.72,29.72 0 0,1 14.429,30.315 L 16.297,28.906 C 16.509,28.889 16.721,28.969 16.964,28.934 C 17.45,28.862 18.432,28.45 18.811,28.157 C 18.829,28.107 19.1,28.014 19.135,28.133 C 19.164,28.277 19.19,28.419 19.218,28.563 C 19.213,29.378 18.943,30.109 18.829,30.873 Z M 36.099,29.034 C 36.315,28.997 39.382,28.148 40.794,28.298 C 41.437,28.298 43.334,28.892 43.941,28.928 C 44.445,28.988 46.271,29.027 46.311,29.027 C 46.913,29.028 47.551,29.069 47.944,28.511 C 48.028,28.389 47.929,28.291 47.819,28.255 C 47.306,28.085 46.313,28.141 46.051,28.185 C 43.598,28.378 42.937,27.778 40.626,27.612 C 40.006,27.567 36.158,28.317 36.039,28.338 C 36.039,28.338 35.549,28.438 35.037,28.576 C 34.526,28.715 34.487,28.219 34.467,28.059 C 34.447,27.899 34.664,26.902 34.723,26.667 C 34.841,26.191 34.605,25.852 34.389,25.832 C 34.153,25.81 33.701,26.111 33.524,26.27 C 33.347,26.429 32.05,27.324 31.677,27.642 C 31.304,27.961 31.187,27.543 31.284,27.384 C 31.382,27.224 31.599,26.648 31.716,26.309 C 31.836,25.971 31.599,25.752 31.403,25.654 C 31.207,25.554 30.793,25.813 30.676,25.932 C 30.557,26.052 29.93,26.489 29.516,26.787 C 29.104,27.085 28.003,27.701 27.512,27.94 C 27.02,28.178 27.02,27.582 27.06,27.304 C 27.1,27.025 27.215,26.579 27.277,26.09 C 27.355,25.454 26.746,25.594 26.511,25.713 C 26.274,25.833 24.368,27.184 24.113,27.383 C 23.858,27.583 23.858,27.243 23.878,27.124 C 23.898,27.005 23.937,26.767 24.153,26.29 C 24.368,25.813 24.193,25.673 24.153,25.454 C 24.113,25.236 23.642,25.334 23.268,25.494 C 23.062,25.582 20.79,26.413 20.706,26.433 L 20.49,26.45 C 20.49,26.439 20.45,26.427 20.45,26.38 C 20.442,26.127 20.336,25.938 20.055,25.98 C 19.465,26.06 19.145,26.604 18.715,26.953 C 18.11,27.443 17.489,27.975 16.795,28.315 C 16.583,28.43 16.623,27.932 16.775,27.75 C 17.725,26.602 17.363,26.994 17.815,26.504 C 18.156,26.057 18.615,25.569 18.788,25.044 C 18.945,24.564 18.711,23.781 18.204,23.719 C 18.016,23.709 17.879,23.87 17.879,24.007 C 17.905,24.346 17.855,24.745 17.721,25.043 C 17.418,25.717 16.986,26.35 16.499,26.93 C 15.796,27.77 15.758,28.476 15.758,28.476 S 14.672,29.202 14.248,29.577 C 13.564,30.15 12.878,30.722 12.191,31.295 C 11.007,32.376 8.092,34.372 9.061,36.314 C 9.265,36.726 9.605,37.094 10.02,37.319 C 10.656,37.663 11.498,38.036 12.285,37.973 A 0.731,0.731 0 0,0 12.466,37.999 C 13.086,38.009 13.768,37.929 14.333,37.746 C 18.08,36.531 20.438,32.393 20.128,28.347 C 20.11,28.12 20.237,27.85 20.406,27.697 C 20.79,27.349 22.286,26.392 22.757,26.309 C 23.327,26.209 23.071,27.085 22.993,27.363 C 22.914,27.642 22.678,28.04 22.639,28.378 C 22.6,28.715 22.942,28.866 23.189,28.954 C 23.523,29.074 24.015,28.636 24.172,28.497 C 24.329,28.358 25.762,27.105 26.018,26.926 C 26.273,26.748 26.313,27.146 26.273,27.324 C 26.235,27.503 26.117,27.98 26.097,28.278 C 26.077,28.576 26.136,28.895 26.391,29.053 C 26.647,29.213 26.902,29.093 27.197,28.915 C 27.492,28.735 29.339,27.503 29.497,27.423 C 29.654,27.343 30.105,26.986 30.4,26.906 C 30.695,26.826 30.675,27.165 30.537,27.463 C 30.487,27.573 30.361,28.14 30.302,28.417 C 30.242,28.695 30.223,28.994 30.557,29.272 C 30.816,29.488 31.422,28.895 31.579,28.755 C 31.735,28.616 33.091,27.384 33.347,27.225 C 33.603,27.065 33.72,27.455 33.622,27.821 C 33.504,28.259 33.478,28.667 33.556,28.816 C 33.734,29.154 34.079,29.333 34.899,29.252 C 35.038,29.239 36.099,29.034 36.099,29.034 Z M 48.802,28.668 C 48.889,28.92 49.035,29.114 49.442,29.192 C 49.629,29.227 49.865,29.113 49.898,28.989 C 49.942,28.826 50.028,28.741 49.99,28.535 C 49.943,28.276 49.758,28.089 49.35,28.012 C 49.165,27.977 48.927,28.09 48.896,28.214 C 48.851,28.377 48.735,28.468 48.802,28.668 Z" fill="rgb(254, 254, 253)"/>
<defs>
<linearGradient id="a" x1="10.418" x2="68.147" y1="9.712" y2="76.017" gradientUnits="userSpaceOnUse">
<stop stop-color="rgb(25, 29, 31)" offset="0"/>
<stop stop-color="rgb(5, 5, 8)" offset="1"/>
</linearGradient>
</defs>
</svg>
