<?xml version="1.0" encoding="UTF-8"?>
<!-- generated by Finnhub -->
<svg viewBox="0 0 55.5 55.5" xmlns="http://www.w3.org/2000/svg">
<path d="M 0,0 H 55.5 V 55.5 H 0 Z" fill="rgb(214, 62, 53)"/>
<path d="M 42.911,34.641 C 41.771,36.094 40.043,37.533 37.669,39.116 C 29.969,44.295 20.039,44.295 15.937,39.116 C 14.282,36.957 13.707,34.367 14.138,31.634 C 14.858,27.174 18.312,22.714 23.852,19.046 C 25.579,17.895 26.947,17.895 27.738,18.111 C 28.746,18.398 29.322,19.046 29.538,19.478 C 29.898,20.196 30.832,21.995 27.306,24.8 C 20.183,30.267 17.736,35.231 20.326,38.755 C 22.989,42.352 31.696,42.208 37.525,38.395 C 39.324,37.173 40.907,36.166 42.418,34.367 C 42.561,34.152 42.778,34.152 42.849,34.224 C 42.994,34.367 43.066,34.584 42.921,34.656 Z" fill="rgb(254, 254, 253)"/>
<path d="M 12.073,21.323999999999998 C 13.234,19.899 14.961,18.46 17.263,16.877 C 25.033,11.696 34.963,11.696 39.063,16.949 C 40.718,19.036 41.293,21.626 40.862,24.433 C 40.142,28.823 36.689,33.284 31.149,36.953 C 29.423,38.105 28.056,38.105 27.264,37.89 C 26.257,37.674 25.681,36.954 25.465,36.594 C 25.034,35.803 24.17,34.004 27.696,31.269 C 34.818,25.728 37.265,20.763 34.675,17.309 C 32.013,13.639 23.307,13.855 17.48,17.669 C 15.68,18.82 14.097,19.899 12.587,21.626 C 12.371,21.842 12.227,21.842 12.083,21.771 C 12.011,21.626 11.939,21.483 12.083,21.339 Z" fill="rgb(254, 254, 253)"/>
</svg>
