<?xml version="1.0" encoding="UTF-8"?>
<!-- generated by Finnhub -->
<svg viewBox="0 0 55.5 55.5" xmlns="http://www.w3.org/2000/svg">
<path d="M 0,0 H 55.5 V 55.5 H 0 Z" fill="rgb(236, 26, 43)"/>
<path d="M 38.99,17.985 H 41 V 18.771 C 41.203,18.601 41.693,18 43,18 C 44.51,18 46,19.026 46,20.756 V 25.056 H 44.009 V 21.266 C 44.009,20.302 43.544,19.735 42.673,19.735 C 41.83,19.735 41,20.274 41,21.266 V 25 H 39 V 18 Z M 30.272,21.635 C 30.272,19.593 31.956,17.92 34.134,17.92 C 36.341,17.92 37.997,19.593 37.997,21.635 C 37.997,23.676 36.312,25.349 34.134,25.349 C 31.956,25.321 30.272,23.676 30.272,21.635 Z M 32.362,21.635 C 32.362,22.627 33.118,23.421 34.163,23.421 C 35.209,23.421 35.963,22.627 35.963,21.635 C 35.963,20.642 35.209,19.848 34.163,19.848 C 33.118,19.848 32.363,20.642 32.363,21.635 Z M 17.784,25 H 20.282 L 22.489,22.372 L 23.883,23.762 L 20.502,28 H 23 L 25.218,25.065 L 29,29 H 32.02 L 26.554,23.478 L 30.998,18 H 28.5 L 25.218,22.117 L 23.824,20.756 L 27.396,16.361 H 24.9 L 22.46,19.423 L 21,18 H 18.038 L 21.152,21.04 L 17.783,25 Z M 11,15 V 24.99 L 17,25 L 17.009,23 H 13 L 12.991,21 H 17 V 19 H 12.991 V 17 H 17 V 15.01 L 11,15 Z M 26,32.5 C 23.714,32.5 22,34.195 22,36.264 C 22,38.334 23.744,40 26,40 C 28.256,40 30,38.333 30,36.264 S 28.256,32.5 26,32.5 Z M 26,38.075 C 24.917,38.075 24.135,37.27 24.135,36.265 C 24.135,35.259 24.917,34.454 26,34.454 S 27.865,35.259 27.865,36.264 C 27.865,37.27 27.083,38.074 26,38.074 Z M 42,30 H 40 V 31.955 H 42 V 30 Z M 42,32.72 H 40 V 40 H 42 V 32.72 Z M 46,30 H 44 V 40 H 46 V 30 Z M 35.528,32.55 C 34.076,32.55 33.116,33.203 33,33.288 V 30 H 31 V 39.98 H 33 V 39.5 C 33.145,39.613 34.105,39.98 35.5,39.98 C 37.329,39.98 39.013,38.392 39.013,36.293 C 39.013,34.167 37.416,32.551 35.528,32.551 Z M 35.035,38.023 C 33.989,38.023 33.005,37.257 33.005,36.265 C 33.005,35.245 33.989,34.479 35.035,34.479 C 36.08,34.479 36.835,35.244 36.835,36.237 C 36.835,37.257 36.051,38.023 35.035,38.023 Z M 11,30 V 40 H 13 V 33 H 13.087 L 15,40 H 17 L 18.913,33 H 19 V 40 H 21.007 V 30 H 17.61 L 16,37 H 15.942 L 14.182,30 H 11 Z" fill="rgb(254, 254, 253)"/>
</svg>
