<?xml version="1.0" encoding="UTF-8"?>
<!-- generated by Finnhub -->
<svg viewBox="0 0 55.5 55.5" xmlns="http://www.w3.org/2000/svg">
<path d="M 0,0 H 55.5 V 55.5 H 0 Z" fill="url(#a)"/>
<path d="M 26.988999999999997,25.365 V 26.196 C 27.014,26.453 26.899,26.971 26.316,26.99 C 25.732,27.008 20.578,26.998 18.075,26.99 C 17.855,26.982 17.293,26.854 16.803,26.406 C 16.313,25.958 12.44,22.081 10.563,20.198 C 10.187,19.841 9.672,18.97 10.281,18.308 C 10.767,17.781 11.773,18.033 12.259,18.308 L 26.104,24.306 C 26.402,24.391 26.999,24.726 26.999,25.379 Z M 29.001,25.38 V 26.196 C 28.986,26.453 29.101,26.971 29.684,26.99 C 30.268,27.008 35.422,26.998 37.925,26.99 C 38.145,26.982 38.707,26.854 39.197,26.406 C 39.687,25.958 43.56,22.081 45.437,20.198 C 45.813,19.841 46.328,18.97 45.719,18.308 C 45.233,17.781 44.227,18.033 43.741,18.308 L 29.896,24.306 C 29.598,24.391 29.001,24.726 29.001,25.379 Z M 27,29.8 V 30.617 C 27,31.27 26.403,31.605 26.105,31.69 L 12.26,37.688 C 11.774,37.963 10.768,38.216 10.282,37.688 C 9.673,37.026 10.188,36.156 10.565,35.798 C 12.441,33.915 16.315,30.038 16.805,29.59 C 17.295,29.142 17.856,29.014 18.075,29.006 C 20.579,28.999 25.733,28.988 26.317,29.006 C 26.901,29.026 27.015,29.543 27,29.8 Z M 29.002,30.62 V 29.804 C 28.987,29.547 29.102,29.029 29.685,29.01 C 30.269,28.992 35.423,29.002 37.926,29.01 C 38.146,29.018 38.708,29.146 39.198,29.594 C 39.688,30.042 43.561,33.919 45.438,35.802 C 45.814,36.159 46.329,37.03 45.72,37.692 C 45.234,38.219 44.228,37.967 43.742,37.692 L 29.897,31.694 C 29.599,31.609 29.002,31.274 29.002,30.621 Z" fill="rgb(254, 254, 253)"/>
<defs>
<linearGradient id="a" x1="10.418" x2="68.147" y1="9.712" y2="76.017" gradientUnits="userSpaceOnUse">
<stop stop-color="rgb(25, 29, 31)" offset="0"/>
<stop stop-color="rgb(5, 5, 8)" offset="1"/>
</linearGradient>
</defs>
</svg>
