<?xml version="1.0" encoding="UTF-8"?>
<!-- generated by Finnhub -->
<svg viewBox="0 0 55.5 55.5" xmlns="http://www.w3.org/2000/svg">
<path d="M 0,0 H 55.5 V 55.5 H 0 Z" fill="rgb(92, 92, 93)"/>
<path d="M 17.99,11.99 C 20.448,12 22.896,12.005 25.345,12.001 C 28.88,11.964 32.47,12.746 35.545,14.522 C 38.385,16.144 40.695,18.701 41.905,21.741 C 43.227,25.071 43.342,28.85 42.302,32.273 A 8.29,8.29 0 0,0 39.477,28.539 C 37.651,27.173 35.462,26.411 33.287,25.793 C 31.305,25.226 29.262,24.91 27.28,24.343 C 25.146,23.747 22.986,23.069 21.135,21.822 C 20.211,21.197 19.405,20.376 18.896,19.378 C 18.241,18.127 18.078,16.696 18,15.306 V 12.006 Z M 18,26.899 C 19.6,27.852 21.284,28.68 23.047,29.291 C 26.414,30.495 30.001,30.903 33.381,32.062 C 34.805,32.56 36.296,33.122 37.334,34.262 C 38.298,35.316 38.434,36.857 38.246,38.21 C 37.933,40.12 36.461,41.637 34.781,42.495 C 32.229,43.808 29.278,44.11 26.445,43.968 C 24.483,43.776 22.569,43.227 20.735,42.523 C 19.795,42.138 18.848,41.743 18,41.178 V 26.898 Z" fill="rgb(254, 254, 253)"/>
</svg>
