<?xml version="1.0" encoding="UTF-8"?>
<!-- generated by Finnhub -->
<svg viewBox="0 0 55.5 55.5" xmlns="http://www.w3.org/2000/svg">
<path d="M 0,0 H 55.5 V 55.5 H 0 Z" fill="rgb(1, 132, 174)"/>
<path d="M 36.117000000000004,31.528 C 35.079,32.433 33.942,33 32.357,33 C 29.495,33 27.808,31.182 27.808,28.526 C 27.808,25.921 29.623,24 32.191,24 C 34.849,24 36.471,26.089 36.471,28.668 C 36.471,28.99 36.446,29.436 36.446,29.436 H 29.79 C 30.045,30.699 30.812,31.376 32.358,31.376 C 33.444,31.376 34.211,30.937 34.888,30.306 L 36.128,31.543 Z M 29.802,27.803 H 34.529 C 34.312,26.501 33.456,25.65 32.204,25.65 C 30.901,25.65 30.07,26.527 29.802,27.804 Z M 18.468,31.26 H 18.404 C 17.918,31.26 17.65,30.525 17.164,29.21 L 16.372,27.005 C 15.632,24.942 14.864,24.014 13.139,24.014 C 11.683,24.014 10.942,24.904 10.034,26.128 L 9.383,27.018 L 7.262,24 H 5 L 8.246,28.448 L 6.981,30.163 C 6.329,31.04 6.011,31.388 5.448,31.388 H 5 V 33 H 5.882 C 6.815,33 7.467,32.678 8.029,31.891 L 9.344,29.841 L 11.658,33 H 13.932 L 10.469,28.41 L 11.312,27.275 C 12.079,26.231 12.449,25.741 13.088,25.741 C 13.778,25.741 14.123,26.385 14.698,27.881 L 15.669,30.383 C 16.219,31.84 16.769,32.923 17.752,32.923 H 17.88 L 17.382,34.186 C 16.998,35.179 16.628,35.362 15.592,35.362 H 15 V 37 H 15.797 C 17.317,37 18.404,36.675 19.107,34.702 L 22.863,24 H 20.832 L 18.468,31.26 Z M 51,33 V 31.388 L 50.594,31.401 C 50.037,31.401 49.745,31.105 49.745,30.447 V 27.456 C 49.745,25.212 48.427,24 46.576,24 C 45.562,24 44.713,24.361 44.13,25.006 C 43.546,24.374 42.697,24 41.683,24 C 39.668,24 38.323,25.315 38.323,27.456 V 33 H 40 V 27.507 C 40,26.63 40.568,25.727 41.683,25.727 C 42.799,25.727 43,26.63 43,27.507 V 33 H 45 V 27.507 C 45,26.63 45.422,25.727 46.513,25.727 C 47.603,25.727 47.869,26.63 47.869,27.507 V 30.408 C 47.869,32.201 48.604,33 50.113,33 H 51 Z M 26.332,33 C 24.761,33 24,32.226 24,30.344 V 19 H 26 V 30.344 C 26,31.066 26.317,31.35 26.9,31.35 H 27 V 33 H 26.332 Z" fill="rgb(254, 254, 253)"/>
</svg>
