<?xml version="1.0" encoding="UTF-8"?>
<!-- generated by Finnhub -->
<svg viewBox="0 0 55.5 55.5" xmlns="http://www.w3.org/2000/svg">
<path d="M 0,0 H 55.5 V 55.5 H 0 Z" fill="url(#z)"/>
<path d="M 28.069999999999997,11.985 L 42,20.08 C 30.16,14.87 22.04,17.24 21.93,17.21 A 22.85,22.85 0 0,1 28.08,12 Z" fill="url(#y)"/>
<path d="M 32.53,14.555 L 42,20.08 C 30.16,14.87 22.04,17.24 21.93,17.21 C 23.99,14.61 30.53,14.09 32.54,14.57 Z" fill="url(#x)"/>
<path d="M 28.069999999999997,11.985 L 42,20.08 C 30.16,14.87 22.04,17.24 21.93,17.21 A 22.85,22.85 0 0,1 28.08,12 Z" fill="url(#w)"/>
<path d="M 27.979999999999997,27.985 L 14,20.01 V 36.03 L 27.99,43.93 V 28 Z" fill="url(#v)"/>
<path d="M 27.959999999999997,28.595 L 14,21.71 V 35.54 L 27.97,42.37 V 28.6 Z" fill="url(#u)"/>
<path d="M 27.979999999999997,28.055 L 14,20.08 V 36.1 L 27.99,44 V 28.07 Z" fill="url(#t)"/>
<path d="M 41.97,20.025 C 31.85,16.07 24.62,16.86 17.38,21.99 L 42,36 L 41.98,20.04 Z" fill="url(#s)"/>
<path d="M 41.97,28.314999999999998 A 14.13,14.13 0 0,1 28.28,17.63 C 32.34,17.22 36.78,18 41.98,20.03 V 28.33 Z" fill="url(#r)" fill-opacity=".7"/>
<path d="M 41.97,28.314999999999998 A 14.13,14.13 0 0,1 28.28,17.63 C 32.34,17.22 36.78,18 41.98,20.03 V 28.33 Z" fill="url(#q)" fill-opacity=".8"/>
<path d="M 41.97,28.314999999999998 A 14.13,14.13 0 0,1 28.28,17.63 C 32.34,17.22 36.78,18 41.98,20.03 V 28.33 Z" fill="url(#p)"/>
<path d="M 41.97,28.314999999999998 A 14.13,14.13 0 0,1 28.28,17.63 C 32.34,17.22 36.78,18 41.98,20.03 V 28.33 Z" fill="url(#o)"/>
<path d="M 13.99,20.005 C 22.23,14.89 34.14,16.02 41.96,20.05 C 32.71,16.63 27.58,16.71 17.35,21.99 L 14,20.02 Z" fill="url(#n)"/>
<path d="M 13.99,20.005 C 22.23,14.89 34.14,16.02 41.96,20.05 C 32.71,16.63 27.58,16.71 17.35,21.99 L 14,20.02 Z" fill="url(#m)" fill-opacity=".8"/>
<path d="M 13.99,20.005 C 22.23,14.89 34.14,16.02 41.96,20.05 C 32.71,16.63 27.58,16.71 17.35,21.99 L 14,20.02 Z" fill="url(#l)"/>
<path d="M 27.979999999999997,27.985 V 43.93 C 28.75,40.15 32.79,33.45 42,36 A 77.4,77.4 0 0,0 27.99,28 Z" fill="url(#k)"/>
<path d="M 13.99,30.384999999999998 C 14.04,27.43 17.5,24.48 18.9,23.25 C 18.63,22.83 17.87,21.99 16.98,21.99 C 15.86,21.99 14,24.31 14,30.41 Z" fill="url(#j)" opacity=".5"/>
<path d="M 31.47,33.485 C 31.42,32.81 30.26,31.06 29.68,30.28 C 30.02,30.42 31.34,31.23 33.86,33.27 C 33.29,32.93 32.31,33.9 31.88,34.42 C 31.78,34.4 31.55,34.18 31.48,33.49 Z" fill="url(#i)"/>
<path d="M 17.419999999999998,35.285 C 17.23,33.45 18.03,26.08 18.46,22.63 C 18.72,23.01 19.34,25.15 19.76,30.73 C 20.17,36.33 22.52,40.25 23.64,41.51 L 18.46,38.58 A 6.98,6.98 0 0,1 17.43,35.31 Z" fill="url(#h)"/>
<path d="M 16.49,35.135 C 16.56,36.18 17.85,37.85 18.48,38.55 L 16.29,37.35 C 16.09,36.72 16.42,33.86 16.49,35.15 Z" fill="url(#g)"/>
<path d="M 32.940000000000005,17.314999999999998 C 35.29,17.79 39.89,19.22 41.99,20.06 L 38.96,18.3 C 38.32,17.91 36.26,16.73 35.54,16.32 C 35.78,16.55 37.6,17.54 38.32,18.1 C 35.28,16.91 27.35,15.82 21.99,17.13 C 24.16,16.73 29.25,16.6 32.95,17.33 Z" fill="url(#f)"/>
<path d="M 32.57,24.785 C 29.14,22.76 22.77,21.3 20.01,20.84 C 20.01,20.46 24.97,18.43 28.37,17.94 C 28.87,19.66 29.77,21.38 32.57,24.8 Z" fill="url(#e)"/>
<path d="M 22.22,19.705 L 32.58,24.73 C 34.24,25.45 37.61,27.06 37.8,27.74 C 38.02,28.59 36.15,28.14 35.58,28.14 C 35.02,28.14 32.58,27.12 28.27,25.24 C 24.82,23.74 19.49,22.44 17.31,22 A 40.33,40.33 0 0,1 22.23,19.72 Z" fill="url(#d)"/>
<path d="M 36.71,27.285 C 38.15,27.26 34.7,25.65 32.79,24.84 A 2.4,2.4 0 0,0 30.94,24.84 C 30.09,25.27 34.92,27.35 36.72,27.3 Z" fill="url(#c)"/>
<path d="M 37.660000000000004,28.185 C 39.39,27.62 34.27,25.6 31.48,24.66 C 31,24.49 29.88,24.39 29.25,25.31 C 28.47,26.46 35.52,28.93 37.67,28.21 Z" fill="url(#b)"/>
<path d="M 27.99,42.015 V 29.48 C 29.78,30.76 32.99,33.53 31.65,34.36 C 30.79,34.89 29.46,37.36 30.15,37.9 C 29.72,38.65 28.24,41.52 28,42.03 Z" fill="url(#a)" opacity=".8"/>
<path d="M 28.99,39.665 C 31.49,34.7 37.51,34.28 40.2,34.71 L 40.8,35.13 C 37.73,35.26 33.82,34.15 29,39.68 Z" fill="url(#af)"/>
<path d="M 37.49,27.215 L 41.96,25.65 L 42,36 L 37.5,27.22 Z" fill="url(#ae)"/>
<path d="M 17.389999999999997,21.985 C 19.58,22.8 35.38,27.31 37.96,28.07 L 42,36 A 48.92,48.92 0 0,0 37.27,32.87 C 37.02,32.74 35.4,31.62 33.2,30.59 C 31.32,29.55 29.24,28.41 27.98,28.07 C 24.78,26.08 19.08,22.9 17.39,21.99 Z" fill="url(#ad)"/>
<path d="M 30.029999999999998,25.985 C 28.07,24.13 21.06,22.74 17.34,22 L 28.03,28.06 L 33.25,30.64 C 32.13,29.4 32.02,27.88 30.05,26 Z" fill="url(#ac)" fill-opacity=".8"/>
<path d="M 13.99,20.055 V 20.3 L 27.65,27.98 C 28.05,28.2 27.95,28.82 28,29.06 C 28.02,28.84 28.03,28.46 28.15,28.29 C 28.3,28.09 31.95,30.08 34.3,31.13 C 33.36,30.57 29.7,28.79 28,27.98 L 14.24,19.92 L 14.01,20.07 Z" fill="url(#ab)"/>
<path d="M 36.57,32.415 C 37.93,33.31 40.78,35.18 41.41,35.57 C 40.87,35.04 37.96,33.25 36.58,32.43 Z" fill="url(#aa)"/>
<defs>
<linearGradient id="z" x1="10.42" x2="68.15" y1="9.71" y2="76.02" gradientUnits="userSpaceOnUse">
<stop stop-color="rgb(25, 29, 31)" offset="0"/>
<stop stop-color="rgb(5, 5, 8)" offset="1"/>
</linearGradient>
<linearGradient id="y" x1="27.23" x2="35.06" y1="15.16" y2="16.05" gradientUnits="userSpaceOnUse">
<stop stop-color="rgb(235, 214, 159)" offset=".08"/>
<stop stop-color="rgb(223, 204, 161)" stop-opacity=".41" offset=".68"/>
</linearGradient>
<linearGradient id="x" x1="26.66" x2="29.31" y1="12.54" y2="21.62" gradientUnits="userSpaceOnUse">
<stop stop-color="rgb(198, 172, 147)" offset=".29"/>
<stop stop-color="rgb(218, 210, 179)" offset=".43"/>
<stop stop-color="rgb(213, 198, 213)" offset=".55"/>
<stop stop-color="rgb(139, 214, 206)" offset=".68"/>
<stop stop-color="rgb(218, 210, 179)" offset=".78"/>
<stop stop-color="rgb(198, 172, 147)" offset=".87"/>
<stop stop-color="rgb(215, 197, 162)" stop-opacity="0" offset="1"/>
</linearGradient>
<linearGradient id="w" x1="21.31" x2="28.94" y1="12.42" y2="16.05" gradientUnits="userSpaceOnUse">
<stop stop-color="rgb(237, 253, 251)" offset=".39"/>
<stop stop-color="rgb(223, 245, 228)" offset=".72"/>
<stop stop-color="rgb(215, 197, 162)" stop-opacity="0" offset="1"/>
</linearGradient>
<linearGradient id="v" x1="28.63" x2="19.14" y1="25.27" y2="42.56" gradientUnits="userSpaceOnUse">
<stop stop-color="rgb(248, 69, 43)" offset=".22"/>
<stop stop-color="rgb(198, 162, 133)" offset=".43"/>
<stop stop-color="rgb(75, 185, 167)" offset=".57"/>
<stop stop-color="rgb(75, 185, 167)" offset=".72"/>
<stop stop-color="rgb(248, 69, 43)" offset=".99"/>
</linearGradient>
<linearGradient id="u" x1="20.98" x2="25.22" y1="37.83" y2="26.37" gradientUnits="userSpaceOnUse">
<stop stop-color="rgb(198, 162, 133)" stop-opacity="0" offset=".14"/>
<stop stop-color="rgb(195, 165, 137)" offset=".55"/>
<stop stop-color="rgb(248, 69, 43)" stop-opacity="0" offset="1"/>
</linearGradient>
<linearGradient id="t" x1="14" x2="31.67" y1="19.49" y2="33.42" gradientUnits="userSpaceOnUse">
<stop stop-color="rgb(248, 69, 43)" offset=".12"/>
<stop stop-color="rgb(254, 156, 174)" offset=".17"/>
<stop stop-color="rgb(254, 177, 168)" offset=".23"/>
<stop stop-color="rgb(248, 69, 43)" stop-opacity="0" offset=".29"/>
</linearGradient>
<linearGradient id="s" x1="40.55" x2="29.76" y1="17.53" y2="36.01" gradientUnits="userSpaceOnUse">
<stop stop-color="rgb(254, 252, 253)" offset="0"/>
<stop stop-color="rgb(53, 212, 234)" offset=".27"/>
<stop stop-color="rgb(210, 203, 186)" offset=".49"/>
</linearGradient>
<linearGradient id="r" x1="26.86" x2="38.36" y1="20.27" y2="17.51" gradientUnits="userSpaceOnUse">
<stop stop-color="rgb(254, 254, 253)" stop-opacity="0" offset=".07"/>
<stop stop-color="rgb(246, 116, 112)" offset=".25"/>
<stop stop-color="rgb(214, 79, 132)" offset=".51"/>
<stop stop-color="rgb(254, 254, 253)" stop-opacity="0" offset="1"/>
</linearGradient>
<linearGradient id="q" x1="40.73" x2="35.16" y1="26.24" y2="19.24" gradientUnits="userSpaceOnUse">
<stop stop-color="rgb(39, 172, 188)" offset=".33"/>
<stop stop-color="rgb(254, 254, 253)" stop-opacity="0" offset="1"/>
</linearGradient>
<linearGradient id="p" x1="41.25" x2="37.51" y1="22.16" y2="25.72" gradientUnits="userSpaceOnUse">
<stop stop-color="rgb(254, 254, 253)" offset="0"/>
<stop stop-color="rgb(254, 254, 253)" stop-opacity="0" offset="1"/>
</linearGradient>
<linearGradient id="o" x1="32.45" x2="38.09" y1="31.95" y2="25.14" gradientUnits="userSpaceOnUse">
<stop stop-color="rgb(89, 95, 80)" offset=".33"/>
<stop stop-opacity="0" offset="1"/>
</linearGradient>
<linearGradient id="n" x1="17.13" x2="34.44" y1="19.33" y2="17.11" gradientUnits="userSpaceOnUse">
<stop stop-color="rgb(246, 227, 196)" offset="0"/>
<stop stop-color="rgb(254, 253, 250)" offset="1"/>
</linearGradient>
<linearGradient id="m" x1="14" x2="24.66" y1="21.28" y2="18.75" gradientUnits="userSpaceOnUse">
<stop stop-color="rgb(154, 200, 160)" offset="0"/>
<stop stop-color="rgb(253, 225, 186)" offset=".42"/>
<stop stop-color="rgb(254, 254, 253)" stop-opacity="0" offset=".72"/>
</linearGradient>
<linearGradient id="l" x1="28.75" x2="28.6" y1="17.66" y2="19.63" gradientUnits="userSpaceOnUse">
<stop stop-color="rgb(254, 254, 253)" offset="0"/>
<stop stop-color="rgb(254, 254, 253)" stop-opacity="0" offset="1"/>
</linearGradient>
<linearGradient id="k" x1="32.63" x2="29.31" y1="37.05" y2="30.22" gradientUnits="userSpaceOnUse">
<stop stop-color="rgb(234, 1, 47)" offset="0"/>
<stop stop-color="rgb(193, 64, 47)" offset=".23"/>
<stop stop-color="rgb(185, 92, 45)" offset=".51"/>
<stop stop-color="rgb(189, 186, 167)" offset=".78"/>
<stop stop-color="rgb(230, 168, 219)" offset="1"/>
</linearGradient>
<linearGradient id="j" x1="15.72" x2="20.43" y1="22.95" y2="27.56" gradientUnits="userSpaceOnUse">
<stop stop-color="rgb(254, 167, 127)" offset="0"/>
<stop stop-color="rgb(254, 190, 192)" offset=".11"/>
<stop stop-color="rgb(254, 184, 153)" offset=".26"/>
<stop stop-color="rgb(248, 92, 72)" offset=".39"/>
</linearGradient>
<linearGradient id="i" x1="31.21" x2="30.51" y1="30.85" y2="31.45" gradientUnits="userSpaceOnUse">
<stop stop-color="rgb(186, 100, 55)" stop-opacity="0" offset="0"/>
<stop stop-color="rgb(186, 90, 46)" offset=".4"/>
<stop stop-color="rgb(186, 92, 46)" stop-opacity="0" offset=".97"/>
</linearGradient>
<linearGradient id="h" x1="32.95" x2="15.1" y1="31.43" y2="42.64" gradientUnits="userSpaceOnUse">
<stop stop-color="rgb(249, 69, 44)" offset=".34"/>
<stop stop-color="rgb(170, 188, 159)" offset=".57"/>
<stop stop-color="rgb(242, 174, 138)" offset=".74"/>
</linearGradient>
<linearGradient id="g" x1="15.8" x2="18.48" y1="36.13" y2="38.55" gradientUnits="userSpaceOnUse">
<stop stop-color="rgb(205, 197, 137)" stop-opacity="0" offset=".01"/>
<stop stop-color="rgb(202, 194, 135)" offset=".41"/>
<stop stop-color="rgb(195, 195, 194)" stop-opacity="0" offset="1"/>
</linearGradient>
<linearGradient id="f" x1="38.12" x2="20.54" y1="18.5" y2="17.45" gradientUnits="userSpaceOnUse">
<stop stop-color="rgb(219, 79, 39)" offset="0"/>
<stop stop-color="rgb(211, 165, 117)" offset=".42"/>
<stop stop-color="rgb(195, 195, 194)" stop-opacity="0" offset="1"/>
</linearGradient>
<linearGradient id="e" x1="29.61" x2="25.59" y1="18.09" y2="22.18" gradientUnits="userSpaceOnUse">
<stop stop-color="rgb(205, 170, 175)" offset=".12"/>
<stop stop-color="rgb(180, 198, 197)" offset=".55"/>
<stop stop-color="rgb(189, 195, 168)" offset=".73"/>
<stop stop-color="rgb(195, 195, 194)" stop-opacity="0" offset="1"/>
</linearGradient>
<linearGradient id="d" x1="25.08" x2="27.56" y1="25.8" y2="20.34" gradientUnits="userSpaceOnUse">
<stop stop-color="rgb(158, 213, 172)" offset="0"/>
<stop stop-color="rgb(195, 210, 179)" offset=".26"/>
<stop stop-color="rgb(162, 182, 192)" offset=".43"/>
<stop stop-color="rgb(171, 202, 207)" offset=".59"/>
<stop stop-color="rgb(195, 195, 194)" stop-opacity="0" offset="1"/>
</linearGradient>
<linearGradient id="c" x1="32.03" x2="34.21" y1="24.65" y2="28.2" gradientUnits="userSpaceOnUse">
<stop stop-color="rgb(236, 213, 153)" stop-opacity="0" offset="0"/>
<stop stop-color="rgb(236, 213, 153)" offset=".29"/>
<stop stop-color="rgb(218, 206, 170)" offset=".57"/>
<stop stop-color="rgb(184, 195, 203)" offset=".94"/>
<stop stop-color="rgb(195, 195, 194)" stop-opacity="0" offset="1"/>
</linearGradient>
<linearGradient id="b" x1="34.71" x2="33.95" y1="24.37" y2="29.21" gradientUnits="userSpaceOnUse">
<stop stop-color="rgb(195, 195, 194)" stop-opacity="0" offset=".48"/>
<stop stop-color="rgb(1, 202, 221)" offset=".8"/>
</linearGradient>
<linearGradient id="a" x1="29.53" x2="31.37" y1="29.48" y2="40.36" gradientUnits="userSpaceOnUse">
<stop stop-color="rgb(195, 195, 194)" stop-opacity="0" offset=".05"/>
<stop stop-color="rgb(147, 132, 146)" offset=".2"/>
<stop stop-color="rgb(177, 131, 107)" offset=".43"/>
<stop stop-color="rgb(146, 199, 167)" offset=".63"/>
<stop stop-color="rgb(195, 195, 194)" stop-opacity="0" offset=".9"/>
</linearGradient>
<linearGradient id="af" x1="32.99" x2="33.59" y1="34.14" y2="37.14" gradientUnits="userSpaceOnUse">
<stop stop-color="rgb(171, 30, 44)" offset=".38"/>
<stop stop-color="rgb(168, 18, 45)" stop-opacity="0" offset="1"/>
</linearGradient>
<linearGradient id="ae" x1="39.49" x2="42.39" y1="26.6" y2="36.24" gradientUnits="userSpaceOnUse">
<stop stop-color="rgb(105, 218, 253)" stop-opacity="0" offset="0"/>
<stop stop-color="rgb(31, 169, 174)" offset=".13"/>
<stop stop-color="rgb(172, 200, 95)" offset=".29"/>
<stop stop-color="rgb(208, 43, 141)" offset=".48"/>
<stop stop-color="rgb(158, 208, 82)" offset=".67"/>
<stop stop-color="rgb(214, 104, 157)" offset=".85"/>
<stop stop-color="rgb(188, 16, 10)" offset=".94"/>
</linearGradient>
<linearGradient id="ad" x1="42.28" x2="41.97" y1="23.41" y2="36.31" gradientUnits="userSpaceOnUse">
<stop stop-color="rgb(3, 216, 216)" offset=".22"/>
<stop stop-color="rgb(110, 186, 190)" offset=".37"/>
<stop stop-color="rgb(135, 159, 89)" offset=".52"/>
<stop stop-color="rgb(175, 93, 141)" offset=".64"/>
<stop stop-color="rgb(154, 175, 125)" offset=".74"/>
<stop stop-color="rgb(172, 115, 44)" offset=".88"/>
<stop stop-color="rgb(186, 20, 8)" stop-opacity=".12" offset="1"/>
</linearGradient>
<linearGradient id="ac" x1="30.38" x2="27.28" y1="24.93" y2="32.81" gradientUnits="userSpaceOnUse">
<stop stop-color="rgb(211, 216, 205)" offset="0"/>
<stop stop-color="rgb(211, 191, 166)" offset=".27"/>
<stop stop-color="rgb(234, 141, 107)" offset=".51"/>
</linearGradient>
<linearGradient id="ab" x1="25.43" x2="24.15" y1="25.23" y2="27.48" gradientUnits="userSpaceOnUse">
<stop stop-color="rgb(250, 250, 249)" offset=".41"/>
<stop stop-color="rgb(250, 250, 249)" stop-opacity="0" offset="1"/>
</linearGradient>
<linearGradient id="aa" x1="38.34" x2="41.11" y1="33.6" y2="35.36" gradientUnits="userSpaceOnUse">
<stop stop-color="rgb(163, 199, 90)" offset="0"/>
<stop stop-color="rgb(163, 199, 90)" stop-opacity="0" offset="1"/>
</linearGradient>
</defs>
</svg>
