<?xml version="1.0" encoding="UTF-8"?>
<!-- generated by Finnhub -->
<svg viewBox="0 0 55.5 55.5" xmlns="http://www.w3.org/2000/svg">
<path d="M 0,0 H 55.5 V 55.5 H 0 Z" fill="rgb(3, 25, 82)"/>
<path d="M 22.389999999999997,13.985 A 1.3,1.3 0 0,0 23.38,14.23 A 1.36,1.36 0 0,0 23.94,11.78 A 1.32,1.32 0 0,0 22.06,12.04 C 21.61,12.64 21.73,13.48 22.31,13.94 L 22.39,13.99 Z M 32.07,14.1 A 1.28,1.28 0 0,0 33.09,14.17 A 1.37,1.37 0 0,0 33.93,12.43 A 1.34,1.34 0 0,0 31.45,12.26 A 1.4,1.4 0 0,0 32.07,14.1 Z M 41.05,17.35 A 1.35,1.35 0 0,0 39.35,18.25 C 39.14,18.97 39.53,19.75 40.25,19.97 A 1.38,1.38 0 0,0 41.28,19.87 C 41.73,19.63 41.99,19.16 42,18.67 A 1.37,1.37 0 0,0 41.05,17.35 Z M 44.73,27.16 A 1.34,1.34 0 0,0 42.83,26.89 C 42.23,27.34 42.11,28.19 42.56,28.81 C 43.01,29.41 43.86,29.55 44.46,29.09 A 1.38,1.38 0 0,0 44.73,27.16 Z M 40.65,35.93 H 40.63 A 1.4,1.4 0 0,0 39.3,37.41 A 1.4,1.4 0 0,0 40.65,38.76 H 40.68 A 1.4,1.4 0 0,0 42,37.28 A 1.4,1.4 0 0,0 40.66,35.93 H 40.65 Z M 33.61,42 C 33.01,41.57 32.16,41.71 31.73,42.33 A 1.4,1.4 0 0,0 32.04,44.25 C 32.65,44.69 33.5,44.54 33.93,43.92 A 1.38,1.38 0 0,0 33.61,42.01 Z M 22.73,41.85 A 1.35,1.35 0 0,0 23.15,44.47 C 23.29,44.47 23.43,44.44 23.57,44.4 C 24.27,44.2 24.69,43.45 24.49,42.74 A 1.32,1.32 0 0,0 22.85,41.81 L 22.73,41.85 Z M 15.74,36.04 A 1.35,1.35 0 0,0 14.04,36.94 C 13.82,37.66 14.22,38.44 14.94,38.66 A 1.36,1.36 0 0,0 16.69,37.34 C 16.69,36.74 16.29,36.22 15.74,36.04 Z M 11.54,26.87 C 10.94,27.32 10.82,28.19 11.26,28.79 C 11.71,29.39 12.56,29.53 13.16,29.08 C 13.75,28.63 13.87,27.76 13.43,27.16 A 1.34,1.34 0 0,0 11.54,26.87 Z M 15.34,20.03 H 15.36 A 1.37,1.37 0 0,0 16.64,18.6 C 16.62,17.89 16.04,17.31 15.34,17.29 H 15.33 C 14.58,17.32 14,17.96 14.03,18.73 C 14.07,19.43 14.63,20.01 15.33,20.03 Z M 19.69,18.66 A 1.33,1.33 0 0,0 20.69,18.89 A 1.38,1.38 0 0,0 21.8,17.31 A 1.36,1.36 0 0,0 20.24,16.18 C 19.89,16.24 19.58,16.45 19.37,16.74 A 1.4,1.4 0 0,0 19.69,18.66 Z M 27.37,16.2 A 1.25,1.25 0 0,0 28.39,16.27 A 1.37,1.37 0 0,0 29.24,14.54 C 29.01,13.82 28.24,13.44 27.54,13.67 A 1.37,1.37 0 0,0 26.68,15.4 V 15.41 C 26.8,15.75 27.05,16.04 27.37,16.21 Z M 34.98,18.79 A 1.37,1.37 0 0,0 36.74,17.48 C 36.74,16.71 36.14,16.11 35.39,16.1 C 34.64,16.1 34.05,16.71 34.04,17.47 C 34.03,18.07 34.41,18.61 34.98,18.79 Z M 39.85,25.29 L 40.05,25.31 C 40.8,25.31 41.4,24.69 41.4,23.94 C 41.4,23.18 40.8,22.57 40.05,22.57 C 39.3,22.57 38.7,23.19 38.7,23.94 C 38.7,24.6 39.2,25.18 39.85,25.29 Z M 40.07,33.4 A 1.36,1.36 0 0,0 41.36,31.96 C 41.33,31.25 40.76,30.67 40.06,30.65 H 40.03 C 39.28,30.68 38.7,31.33 38.74,32.09 C 38.77,32.8 39.34,33.38 40.05,33.39 H 40.07 Z M 36.16,37.41 C 35.56,36.97 34.71,37.11 34.28,37.73 A 1.4,1.4 0 0,0 34.59,39.65 C 35.2,40.09 36.05,39.95 36.49,39.33 C 36.91,38.7 36.77,37.84 36.16,37.41 Z M 27.57,39.67 A 1.39,1.39 0 0,0 26.72,41.43 C 26.9,41.99 27.42,42.36 28,42.37 C 28.15,42.37 28.29,42.34 28.43,42.3 A 1.4,1.4 0 0,0 29.2,40.5 A 1.36,1.36 0 0,0 27.56,39.68 V 39.67 Z M 21.77,37.95 A 1.35,1.35 0 0,0 20.99,37.27 A 1.35,1.35 0 0,0 19.29,38.17 C 19.07,38.9 19.46,39.67 20.18,39.89 A 1.35,1.35 0 0,0 21.88,38.98 C 21.98,38.65 21.94,38.27 21.78,37.95 Z M 16.14,30.69 A 1.35,1.35 0 0,0 14.59,31.79 C 14.47,32.52 14.95,33.22 15.67,33.36 H 15.75 L 15.95,33.39 A 1.37,1.37 0 0,0 17,31.22 C 16.8,30.93 16.48,30.74 16.13,30.69 Z M 15.93,22.55 H 15.91 C 15.16,22.58 14.59,23.23 14.62,23.99 C 14.65,24.7 15.22,25.28 15.93,25.29 H 15.95 A 1.38,1.38 0 0,0 15.93,22.54 Z M 23.94,17.79 A 1.4,1.4 0 0,0 24.27,19.7 C 24.87,20.15 25.72,19.99 26.15,19.37 A 1.4,1.4 0 0,0 25.83,17.46 C 25.53,17.25 25.17,17.16 24.83,17.22 C 24.46,17.29 24.14,17.48 23.94,17.79 Z M 29.59,19.03 C 29.79,19.61 30.31,20 30.92,20 A 1.42,1.42 0 0,0 32.25,18.13 A 1.4,1.4 0 0,0 30.42,17.36 C 29.76,17.63 29.42,18.35 29.59,19.03 Z M 36.94,22.67 A 1.37,1.37 0 0,0 36.05,20.95 A 1.35,1.35 0 0,0 34.35,21.85 A 1.38,1.38 0 0,0 35.65,23.65 C 36.24,23.63 36.75,23.25 36.94,22.67 Z M 36.79,26.9 A 1.36,1.36 0 0,0 37.39,29.34 L 37.59,29.36 C 37.89,29.36 38.16,29.26 38.39,29.1 C 38.99,28.67 39.15,27.82 38.72,27.2 A 1.32,1.32 0 0,0 36.87,26.87 C 36.84,26.87 36.82,26.89 36.79,26.9 Z M 34.73,32.8 C 34.19,33.36 34.2,34.26 34.75,34.8 C 35.01,35.07 35.36,35.2 35.72,35.2 H 35.74 A 1.4,1.4 0 0,0 37.03,33.7 A 1.4,1.4 0 0,0 35.73,32.38 H 35.71 C 35.34,32.38 34.99,32.54 34.73,32.8 Z M 32.02,38.2 A 1.4,1.4 0 0,0 31.71,36.27 C 31.11,35.83 30.25,35.98 29.82,36.6 A 1.38,1.38 0 0,0 30.92,38.77 L 31.16,38.75 C 31.5,38.69 31.82,38.49 32.02,38.19 Z M 26.33,36.91 C 26.09,36.19 25.33,35.81 24.61,36.05 A 1.37,1.37 0 0,0 23.77,37.79 A 1.36,1.36 0 0,0 25.47,38.66 A 1.4,1.4 0 0,0 26.33,36.91 Z M 20.7,32.47 A 1.3,1.3 0 0,0 19.67,32.57 A 1.39,1.39 0 0,0 19.89,35.1 A 1.37,1.37 0 0,0 21.65,33.8 C 21.65,33.18 21.26,32.65 20.7,32.47 Z M 19.75,28.18 C 19.85,27.42 19.35,26.73 18.61,26.62 C 17.87,26.52 17.18,27.03 17.08,27.78 C 17.03,28.15 17.12,28.51 17.33,28.8 C 17.77,29.4 18.62,29.54 19.21,29.09 C 19.51,28.87 19.71,28.54 19.75,28.18 Z M 20.32,20.76 H 20.3 C 19.55,20.76 18.95,21.39 18.95,22.14 C 18.95,22.89 19.57,23.51 20.31,23.51 H 20.33 A 1.37,1.37 0 0,0 21.62,22.08 A 1.35,1.35 0 0,0 20.32,20.76 Z" fill="rgb(254, 254, 253)"/>
</svg>
