<?xml version="1.0" encoding="UTF-8"?>
<!-- generated by Finnhub -->
<svg viewBox="0 0 55.5 55.5" xmlns="http://www.w3.org/2000/svg">
<path d="M 0,0 H 55.5 V 55.5 H 0 Z" fill="rgb(236, 27, 34)"/>
<path d="M 12.937,44.985 L 25.887,39.234 C 26.757,39.318 27.595,39.369 28.467,39.369 C 38.688,39.37 47,34.104 47,27.66 C 47,21.214 38.688,16 28.467,16 C 18.26,16 10,21.213 10,27.66 C 10,32.046 13.804,35.876 19.434,37.85 L 12.947,45 Z" fill="rgb(254, 254, 253)"/>
<path d="M 18.403,21.985 L 18.546,23 C 19.214,23 19.954,22.865 19.435,23.852 C 18.995,24.687 18.442,25.484 17.909,26.266 C 17.555,25.586 16.806,24.139 16.558,23.445 C 16.339,22.832 17.192,23 17.575,23 L 17.423,22 H 12.983 L 13.167,23 H 14.106 C 14.206,23.113 16.249,27.637 16.351,27.835 C 16.301,28.038 15.966,31.165 15.966,31.165 C 15.916,31.502 15.815,31.755 15.664,31.805 C 15.432,32.04 14.816,31.954 14.491,31.992 L 14.641,33 H 19.871 L 19.669,31.992 S 18.742,32.059 18.413,31.857 C 18.141,31.857 18.285,30.916 18.312,30.81 C 18.312,30.81 18.546,28.325 18.597,27.886 C 18.697,27.734 21.194,23.752 21.194,23.752 C 21.429,23.364 21.579,23.212 21.63,23.162 C 21.815,22.972 22.267,23.032 22.517,23 L 22.317,22 H 18.413 Z" fill="rgb(236, 27, 34)"/>
<path d="M 23.227999999999998,25.849 L 20.708,26.36 L 20.842,27.167 C 21.06,27.167 21.68,27.167 21.73,27.213 C 21.805,27.283 21.78,27.404 21.78,27.493 C 21.664,28.964 21.478,30.44 21.478,31.916 C 21.478,32.536 22.236,33.001 22.853,33.001 C 23.64,33.001 24.31,32.551 24.898,31.698 C 24.998,31.558 25.148,31.326 25.298,31.108 C 25.122,31.608 25.294,32.431 25.735,32.738 C 27.163,33.794 28.301,31.788 28.818,30.829 L 27.98,30.333 C 27.728,30.698 27.472,31.06 27.21,31.419 C 27.21,29.604 27.529,27.8 27.746,25.999 H 25.886 C 25.683,26.655 25.601,27.323 25.451,27.989 C 25.221,28.814 24.462,31.512 23.389,31.512 L 23.825,26.407 C 23.825,26.051 23.633,25.864 23.238,25.864 Z M 28.617,26.216 L 28.767,27.118 C 29.012,27.118 29.574,27.005 29.74,27.168 C 29.824,27.168 29.79,27.346 29.79,27.398 L 29.204,33 H 31.114 C 31.378,31.2 31.694,29.32 32.773,27.79 C 33.209,27.216 33.41,27.168 33.51,27.168 C 33.51,27.791 33.193,31.069 33.024,33 H 34.918 C 35.042,32.14 35.093,31.276 35.219,30.414 C 35.365,29.474 36.092,27.429 37.18,27.168 V 27.398 L 36.829,31.513 C 36.829,32.083 36.929,32.743 37.364,33.005 C 38.831,33.72 39.884,32.039 40.448,30.939 L 39.576,30.366 C 39.411,30.609 38.912,31.562 38.788,31.562 C 38.953,30.016 39.124,28.475 39.124,26.922 C 39.124,26.151 38.422,25.642 37.616,25.642 C 36.929,25.642 36.292,26.069 35.605,26.971 C 35.555,27.069 35.505,27.118 35.421,27.216 V 26.922 C 35.271,26.221 34.711,25.642 33.946,25.642 C 32.896,25.642 32.27,26.557 31.751,27.315 C 31.801,26.741 31.901,25.872 31.901,25.872 L 31.5,25.593 C 30.551,25.847 29.57,25.973 28.617,26.216 Z M 41.771,22.418 C 41.621,22.723 41.571,23.262 41.571,23.954 V 25.321 C 41.571,25.421 41.571,25.861 41.521,27.345 L 41.471,29.961 L 42.408,30.146 L 42.945,27.683 C 43.129,26.654 43.23,26.266 43.279,26.114 C 43.631,24.781 43.816,24.005 43.867,23.752 A 2.92,2.92 0 0,0 43.867,22.824 A 1.672,1.672 0 0,0 43.481,22.081 A 1.098,1.098 0 0,0 42.693,21.777 C 42.308,21.777 41.956,21.98 41.771,22.418 Z" fill="rgb(236, 27, 34)"/>
<circle cx="41.806" cy="31.624" r="1.021" fill="rgb(236, 27, 34)"/>
</svg>
