<?xml version="1.0" encoding="UTF-8"?>
<!-- generated by Finnhub -->
<svg viewBox="0 0 55.5 55.5" xmlns="http://www.w3.org/2000/svg">
<path d="M 0,0 H 55.5 V 55.5 H 0 Z" fill="rgb(228, 31, 15)"/>
<path d="M 14.675,21.432 C 15.44,22.083 19.22,21.447 19.878,20.927 C 20.443,20.927 18.669,27.277 18.473,28.762 C 18.321,29.896 19.048,31.394 19.37,32.386 C 19.516,32.835 19.678,33.068 20.14,32.792 C 20.503,32.572 20.642,32.6 20.978,32.83 C 21.465,33.165 21.94,33.543 22.56,33.587 C 24.83,33.73 25.37,30.057 25.482,28.202 C 25.685,25.379 25.826,23.075 22.485,22.5 C 22.949,22.072 23.45,20.596 23.398,19.967 C 23.374,19.708 24.522,19.056 25.065,18.876 C 25.859,18.612 28.682,18.636 29.74,18.612 C 30.536,18.598 31.558,18.011 31.642,17.094 C 31.735,15.826 30.167,15.339 29.35,15.339 C 28.23,15.339 22.256,16.337 20.877,17.099 C 19.591,17.786 17.668,17.748 16.389,18.322 C 16.045,18.463 16.043,18.322 16.096,18.207 C 19.988,9.741 29.35,11.986 32.294,13.228 C 33.603,13.689 36.637,15.147 37.588,15.898 C 43.078,18.876 46.166,33.478 42.22,34.288 C 41.862,34.382 41.701,34.618 41.733,35.018 C 41.045,34.203 39.528,33.393 38.608,34.25 C 38.489,34.362 37.84,34.25 37.924,34.596 C 37.956,34.727 38.074,34.722 38.164,34.7 C 39.065,34.486 39.947,36.524 40.729,36.915 C 40.515,36.932 40.355,37.074 40.147,37.074 C 39.252,37.507 39.514,40.024 37.769,41.477 C 37.055,42.251 34.259,45.326 31.295,43.347 C 30.405,42.753 28.254,42.917 28.009,43.21 C 27.305,44.093 25.836,43.651 25.001,43.155 C 23.085,41.991 20.339,41.883 18.611,39.355 C 16.471,36.216 13.061,35.045 12.148,30.648 C 11.298,25.181 14.378,21.189 14.685,21.448 Z M 29.328,36.241 C 29.68,36.715 30.063,37.702 30.632,37.924 C 31.627,38.307 31.763,36.994 31.797,36.339 C 31.88,34.874 31.976,32.957 31.706,31.492 C 31.414,29.762 31.586,28.03 31.514,26.294 A 3.01,3.01 0 0,0 31.129,24.918 C 30.803,24.368 30.001,24.637 29.649,25.038 C 29.435,25.291 29.329,25.17 29.169,25.033 C 28.896,24.803 28.73,24.847 28.655,25.181 C 28.157,27.325 28.858,30.149 27.977,32.183 C 27.318,33.685 27.458,36.842 27.657,38.352 C 27.75,39.026 27.78,39.699 27.817,40.392 C 27.833,40.647 27.911,40.66 28.067,40.441 C 28.997,39.05 28.315,36.779 29.04,35.243 C 29.419,35.64 28.948,35.763 29.328,36.241 Z M 35.472,36.389 A 1.393,1.393 0 0,0 34.858,36.646 C 34.312,37.024 33.799,37.135 33.212,37.398 C 32.838,37.562 32.507,37.82 32.112,37.94 C 31.869,38.023 31.607,38.648 31.93,38.763 C 32.101,38.829 32.155,38.943 32.181,39.108 C 32.255,39.588 33.122,39.995 33.485,40.188 C 34.932,40.955 36.883,40.798 37.908,39.382 C 38.317,38.812 38.314,37.412 37.914,36.751 C 37.442,35.984 36.98,34.971 36.012,34.755 C 35.886,34.725 35.531,34.602 35.702,34.425 C 36.364,33.717 36.766,32.633 37.123,31.739 C 37.33,31.221 36.798,30.539 36.396,30.555 C 36.257,30.56 36.226,30.489 36.242,30.368 C 36.3,30.008 36.542,29.8 36.637,29.458 C 36.791,28.938 37.252,28.224 37.15,27.665 C 37.075,27.254 36.867,26.914 36.503,26.7 C 36.255,26.554 35.779,26.753 35.878,26.327 C 36.05,25.589 35.92,24.581 35.937,23.816 C 35.937,23.734 35.932,23.564 36.14,23.723 C 36.693,24.149 36.876,25.021 37.69,24.902 C 38.182,24.836 38.678,24.22 38.517,23.69 C 38.354,23.187 38.406,22.096 37.55,22.341 C 37.252,22.427 36.625,23.107 36.322,22.834 C 36.049,22.582 35.974,22.22 35.996,21.853 C 36.022,21.423 35.67,20.833 35.189,20.833 C 34.927,20.844 34.655,21.19 34.676,21.458 C 34.79,23.001 34.836,25.995 34.826,26.19 C 34.816,26.367 34.921,27.1 34.666,27.27 C 34.286,27.523 33.955,27.862 33.693,28.224 C 33.255,28.833 33.394,29.474 34.003,30.017 C 34.093,30.099 34.158,30.198 34.137,30.297 C 33.95,31.18 33.251,31.451 32.833,32.177 C 32.571,32.633 32.743,33.252 33.213,33.45 C 33.843,33.715 34.759,32.912 35.2,32.512 C 35.253,32.562 35.237,32.594 35.232,32.627 C 35.114,33.335 34.655,33.867 34.26,34.398 C 33.865,34.928 33.241,34.67 32.876,35.045 C 32.706,35.235 32.346,36.029 32.502,36.268 C 33.11,37.258 33.149,37.036 34.072,36.658 C 34.45,36.504 35.486,35.929 35.83,36.4 C 36.304,37.028 36.708,37.73 36.322,38.538 C 35.837,39.505 34.579,39.546 33.662,39.459 A 1.87,1.87 0 0,1 32.774,39.103 C 32.544,38.94 32.619,38.713 32.876,38.648 C 33.439,38.508 33.951,38.815 34.537,38.691 A 0.736,0.736 0 0,0 35.109,37.726 C 34.986,37.37 35.157,36.657 35.472,36.389 Z M 34.302,26.886 C 34.147,26.695 34.232,26.366 34.019,26.141 A 0.545,0.545 0 0,1 33.869,25.889 C 33.821,25.653 33.645,25.565 33.431,25.691 A 0.624,0.624 0 0,1 32.924,25.768 C 32.684,25.697 32.561,25.878 32.464,26.009 C 32.314,26.212 32.491,26.947 32.716,27.1 C 32.924,27.248 33.084,27.451 33.346,27.544 C 33.704,27.676 34.318,27.434 34.302,26.887 Z" fill="rgb(254, 254, 253)"/>
<path d="M 22.619999999999997,26.817 C 21.88,26.517 21.266,26.846 20.584,27.1 C 20.424,27.16 20.364,27.106 20.364,26.925 C 20.364,25.6 21.195,24.995 22.197,24.414 C 22.282,24.364 22.341,24.386 22.427,24.452 C 22.807,24.742 22.985,26.977 22.63,26.832 Z M 21.439,29.239 C 21.895,29.386 22.128,29.009 22.518,28.992 C 22.78,28.976 22.881,29.025 22.849,29.294 C 22.79,29.859 22.726,30.488 22.561,31.032 C 22.475,31.306 22.39,31.344 22.111,31.295 C 20.965,31.087 20.394,28.9 21.439,29.239 Z M 29.139,35.852 H 29.099 C 29.099,35.846 29.099,35.835 29.105,35.83 L 29.139,35.863 C 29.133,35.858 29.139,35.852 29.139,35.852 Z M 30.563,33.165 C 30.515,33.724 30.568,34.278 30.557,34.837 C 30.552,35.166 30.493,35.489 30.515,35.824 C 30.52,35.906 30.424,36.032 30.285,35.967 C 29.912,35.785 29.643,35.474 29.329,35.204 C 28.899,34.847 29.467,33.978 29.574,33.571 C 29.664,33.244 30.162,33.273 30.376,33.066 C 30.424,33.022 30.488,32.989 30.546,33.022 C 30.6,33.044 30.568,33.115 30.563,33.165 Z M 30.403,30.938 C 30.381,31.223 30.216,31.295 30.003,31.355 C 29.917,31.377 29.895,31.328 29.884,31.256 C 29.804,30.801 29.938,30.379 30.098,29.962 C 30.125,29.891 30.184,29.875 30.248,29.875 C 30.318,29.875 30.333,29.929 30.349,29.979 C 30.429,30.289 30.427,30.615 30.403,30.939 Z M 30.311,28.68 C 30.311,28.729 30.328,28.8 30.258,28.81 C 30.199,28.816 30.157,28.761 30.157,28.707 C 30.194,28.191 29.97,27.697 30.044,27.171 C 30.082,26.931 30.189,26.721 30.21,26.481 C 30.215,26.426 30.242,26.365 30.306,26.376 C 30.386,26.387 30.343,26.453 30.354,26.502 C 30.504,27.141 30.329,28.005 30.311,28.679 Z" fill="rgb(254, 254, 253)"/>
</svg>
