<?xml version="1.0" encoding="UTF-8"?>
<!-- generated by Finnhub -->
<svg viewBox="0 0 55.5 55.5" xmlns="http://www.w3.org/2000/svg">
<path d="M 0,0 H 55.5 V 55.5 H 0 Z" fill="rgb(245, 247, 251)"/>
<path d="M 15.552,26.415 L 12,30.096 L 18.03,29 L 15.36,36.584 C 20.338,31.612 30.311,21.685 30.376,21.753 C 24.191,22.899 17.923,25.348 15.562,26.43 Z" fill="rgb(137, 197, 61)"/>
<path d="M 30.523,13.985 C 29.561,14.37 23.319,19.07 20.297,21.458 C 27.017,19.098 31.873,18.677 36.767,18.214 C 34.661,16.837 30.468,14.067 30.533,14 Z M 37.581,18.72 L 25.276,31.317 C 30.036,29.665 36.596,28.859 39.281,28.662 L 40.193,25.841 L 46,25.334 L 37.58,18.72 Z" fill="rgb(1, 115, 225)"/>
<path d="M 38.328,32.193 C 31.815,32.02 19.835,35.394 14.742,37.956 A 543.884,543.884 0 0,0 13.457,42 C 24.835,38.31 33.724,37.07 36.592,36.903 C 36.592,36.903 38.235,32.234 38.338,32.208 Z" fill="rgb(137, 197, 61)"/>
</svg>
