<?xml version="1.0" encoding="UTF-8"?>
<!-- generated by Finnhub -->
<svg viewBox="0 0 55.5 55.5" xmlns="http://www.w3.org/2000/svg">
<path d="M 0,0 H 55.5 V 55.5 H 0 Z" fill="rgb(15, 128, 195)"/>
<path d="M 17.41,38.985 C 21.548,42.037 23.863,42.928 28,42.928 C 36.244,42.928 42.928,36.243 42.928,27.997 C 42.928,23.931 41.304,20.245 38.668,17.551 L 27.974,38.008 C 33.079,37.955 37.328,34.225 37.999,29.292 V 39 H 17.42 Z M 17.156,38.258 L 27.913,17.998 C 22.579,17.998 18.435,21.86 18,27.081 V 17 H 38.405 C 35.716,14.387 32.045,13.072 28,13.072 C 19.055,13.072 13.07,19.055 13.07,27.997 C 13.07,31.974 14.623,35.583 17.156,38.258 Z M 28,12 C 36.838,12 44,19.162 44,27.997 C 44,36.835 36.838,44 28,44 C 19.164,44 12,36.836 12,27.998 C 12,18.457 18.457,12 28,12 Z" fill="rgb(254, 254, 253)"/>
</svg>
