<?xml version="1.0" encoding="UTF-8"?>
<!-- generated by Finnhub -->
<svg viewBox="0 0 55.5 55.5" xmlns="http://www.w3.org/2000/svg">
<path d="M 0,0 H 55.5 V 55.5 H 0 Z" fill="rgb(1, 117, 188)"/>
<path d="M 47.910000000000004,28.201 C 48.573,32.389 45.11,34.744 41.648,34.994 C 39.882,38.303 36.246,40.992 30.993,40.992 C 28.843,41.071 26.71,40.582 24.805,39.572 C 24.34,39.658 23.868,39.702 23.395,39.702 C 21.56,39.702 20.309,39.272 19.087,37.808 C 21.56,34.444 29.089,28.396 38.26,31.52 C 43.162,33.184 44.438,29.27 43.206,27.806 C 38.586,22.273 28.139,27.251 27.768,27.671 C 31.848,21.053 46.52,19.204 47.92,28.216 Z M 33.862,20.618 C 33.892,20.618 30.533,19.364 25.834,21.503 C 25.644,21.423 25.46,21.333 25.28,21.233 C 29.796,18.079 33.758,16.735 37.151,17.234 C 34.965,15.29 32.572,15 29.08,15 C 25.207,15 21.774,16.535 19.597,18.909 A 9.186,9.186 0 0,0 17.545,18.689 C 12.296,18.689 7.741,23.692 8.013,29.375 C 8.285,35.059 14.186,38.603 17.545,37.648 A 0.686,0.686 0 0,1 17.792,37.648 C 18.534,33.889 21.566,25.147 33.863,20.618 Z" fill="rgb(254, 254, 253)"/>
</svg>
