<?xml version="1.0" encoding="UTF-8"?>
<!-- generated by Finnhub -->
<svg viewBox="0 0 55.5 55.5" xmlns="http://www.w3.org/2000/svg">
<path d="M 0,0 H 55.5 V 55.5 H 0 Z" fill="rgb(254, 101, 2)"/>
<path d="M 23.325,32.315 L 24.455,33.916 C 23.71,34.657 21.11,37 17.207,37 C 11.712,37 11.368,32.96 5.89,32.96 H 4 V 31.15 L 10.194,25 H 5.01 L 6.01,23 H 14.008 L 13.28,25 L 7.288,31 C 11.887,31 13.016,35 17.527,35 C 20.287,34.992 22.542,33.183 23.334,32.33 Z" fill="rgb(254, 254, 253)"/>
<path d="M 17.99,31.22 C 16.894,31.235 16.224,30.315 16.224,28.999 C 16.224,27.211 17.234,24.772 18.972,24.772 C 20.299,24.772 20.712,25.988 20.712,26.971 C 20.712,28.875 19.628,31.235 18,31.235 Z M 19.23,23 C 16.128,23 13.976,25.81 13.976,29.053 C 13.976,31.336 15.398,33 17.698,33 C 20.8,33 22.974,30.214 22.974,26.97 C 22.974,24.85 21.684,23 19.23,23 Z M 29.878,24.71 C 30.647,24.71 31.162,25.082 31.162,25.693 V 25.709 C 31.162,26.847 29.567,27.179 27.072,27.141 C 27.366,25.988 28.364,24.711 29.878,24.711 Z M 33.452,25.693 C 33.452,24.1 32.184,23 30.19,23 C 26.705,23 24.455,26.142 24.455,29.03 C 24.455,31.367 25.805,33 28.611,33 C 29.838,33 31.187,32.721 32.185,32.234 L 31.956,30.562 A 6.235,6.235 0 0,1 29.176,31.189 C 28.218,31.189 27.49,30.856 27.097,30.206 C 26.868,29.834 26.787,29.184 26.827,28.851 C 30.729,28.936 33.453,28.147 33.453,25.694 Z M 49.544,24.705 C 50.36,24.705 51.024,24.938 51.392,25.14 L 52,23.488 C 51.552,23.233 50.704,23 49.664,23 C 47.329,23 45.665,24.302 45.665,26.147 C 45.665,27.248 46.481,28.054 47.617,28.643 C 48.593,29.132 48.913,29.512 48.913,30.116 C 48.913,30.744 48.345,31.279 47.393,31.295 C 46.497,31.295 45.521,30.922 45.017,30.643 L 44.41,32.295 C 44.938,32.667 46.017,32.985 47.169,33 C 49.545,33 51.369,31.822 51.369,29.713 C 51.369,28.496 50.392,27.705 49.321,27.14 C 48.489,26.729 48.041,26.349 48.041,25.822 C 48.049,25.178 48.657,24.705 49.545,24.705 Z M 42.462,20.598 C 42.462,19.648 43.187,19 44.056,19 C 44.871,19 45.462,19.586 45.462,20.42 C 45.435,21.388 44.71,22 43.823,22 H 43.797 C 43.008,21.991 42.462,21.405 42.462,20.598 Z M 40.513,33 H 42.87 L 44.762,23 H 42.404 L 40.512,33 Z M 37.985,31 C 37.287,31 36.921,30.735 37.105,29.854 L 38.109,25 H 40.025 L 40.393,23 H 38.495 L 39.002,19.996 L 36.519,21 L 36.136,23 H 34.516 L 34.023,25 H 35.791 L 34.765,29.998 C 34.405,31.882 35.35,33 37.514,33 C 38.011,33 38.49,32.978 39.011,32.85 V 30.856 C 38.603,30.953 38.361,31 37.985,31 Z" fill="rgb(254, 254, 253)"/>
</svg>
